<?xml version="1.0" encoding="iso-8859-1"?>
<!-- Generator: Adobe Illustrator 16.0.3, SVG Export Plug-In . SVG Version: 6.00 Build 0)  -->
<!DOCTYPE svg PUBLIC "-//W3C//DTD SVG 1.1//EN" "http://www.w3.org/Graphics/SVG/1.1/DTD/svg11.dtd">
<svg version="1.1" xmlns="http://www.w3.org/2000/svg" xmlns:xlink="http://www.w3.org/1999/xlink" x="0px" y="0px" width="100px"
	 height="100px" viewBox="0 0 100 100" style="enable-background:new 0 0 100 100;" xml:space="preserve">
<g id="AL">
	<path d="M32.024,57.923c0.012-0.128,0.023-0.256,0.035-0.384c-0.009-0.057-0.091-0.149-0.069-0.243
		c0.045-0.192,0.265-0.369,0.348-0.523c0.098-0.179,0.324-0.919,0.244-1.219c-0.039-0.144-0.223-0.655-0.349-0.731
		c-0.124-0.075-0.166,0.025-0.244,0.035c-0.344,0.039-0.384-0.25-0.383-0.593c0.41-0.446,0.427-1.521,0.418-2.265
		c0.012-0.313,0.023-0.627,0.035-0.94c-0.095-0.317-0.341-0.417-0.348-0.871c0.054-0.068,0.052-0.167,0.104-0.244
		c0.141-0.206,0.524-0.288,0.627-0.522c0-0.081,0-0.163,0-0.244c0.042-0.143,0.167-0.326,0.209-0.453
		c0.055-0.167-0.009-0.294,0.07-0.418c0.409-0.642,1.036-1.242,0.766-2.265c-0.066-0.252-0.053-0.462-0.174-0.662
		c-0.442-0.725-1.201-0.404-1.881-0.801c-0.481-0.282-0.247-1.413-0.244-2.16c-0.207-0.136-0.346-0.355-0.523-0.522
		c-0.017-0.191-0.087-0.337,0.07-0.418c0.054-0.025,0.005-0.004,0.104,0c0.058,0.169,0.204,0.234,0.313,0.348
		c0.52,0.008,0.882-0.313,0.871-0.836c-0.169-0.18-0.181-0.525,0.035-0.662c0.209-0.133,0.48-0.097,0.663-0.244
		c0.297-0.241,0.326-0.568,0.522-0.906c0.152-0.263,0.392-0.604,0.487-0.906c0.114-0.361-0.12-0.636-0.174-0.871
		c-0.105-0.064-0.234-0.203-0.348-0.244c-0.203-0.072-0.526-0.055-0.662-0.174c-0.208-0.183-0.218-0.459-0.348-0.732
		c-0.062-0.129-0.229-0.386-0.174-0.522c0.045-0.086-0.015-0.024,0.07-0.07c0.186-0.108,0.362,0.075,0.488,0.139
		c0.234,0.121,0.896,0.416,1.289,0.314c1.023-0.267,1.135-0.651,1.742-1.289c0.116,0.011,0.232,0.023,0.348,0.035
		c0.012-0.023,0.023-0.046,0.035-0.07c0.062-0.078,0.07-0.167,0.07-0.313c-0.14-0.148-0.18-0.405-0.349-0.522
		c-0.153-0.107-0.266-0.061-0.453-0.14c-0.184-0.077-0.286-0.254-0.418-0.383c0.02-0.28,0.148-0.403,0.209-0.592
		c0.062-0.19,0.002-0.331,0.07-0.487c0.075-0.176,0.262-0.317,0.313-0.523c0.046-0.185-0.076-0.254-0.104-0.348
		c0-0.139,0-0.279,0-0.418c-0.129-0.435-0.344-0.784-0.244-1.289c0.216-0.097,0.243,0.005,0.488,0.035
		c0.062-0.064,0.177-0.121,0.209-0.209c0.052-0.142,0.064-0.937,0.035-1.08c-0.371-0.177-0.691-0.447-1.011-0.662
		c-0.187-0.126-0.389-0.173-0.592-0.279c-0.438-0.228-0.815-0.427-1.324-0.627c-0.132-0.052-0.285-0.199-0.418-0.244
		c-0.082-0.027-0.89-0.177-0.905-0.174c-0.456,0.085-1.013,0.792-1.533,0.383c-0.03-0.045-0.031-0.086-0.035-0.174
		c0.257-0.275-0.009-0.48,0.069-0.767c0.032-0.116,0.1-0.186,0.105-0.383c-0.145-0.073-0.681-0.397-0.732-0.522
		c-0.033-0.049-0.034-0.114-0.035-0.209c0.058-0.081,0.116-0.163,0.174-0.244c0.144-0.131,0.335-0.151,0.383-0.383
		c-0.154-0.102-0.252-0.259-0.383-0.383c-0.005-0.286,0.021-0.531,0.069-0.732c0.093-0.05,0.206-0.144,0.313-0.174
		c0.112-0.031,0.213,0.058,0.279,0.035c0.046-0.016,0.043-0.058,0.07-0.105c0.077-0.171-0.174-0.28-0.104-0.522
		c0.032-0.113,0.241-0.322,0.139-0.558c-0.046-0.035-0.093-0.07-0.139-0.104c-0.159-0.345-0.047-1.003,0.035-1.289
		c0.128-0.45-0.146-0.887,0.244-1.045c0.055-0.033,0.614,0.026,0.767,0.07c0.525,0.15,0.89,0.397,1.567,0.418
		c0.048-0.088,0.067-0.122,0.07-0.279c0.121-0.193-0.066-0.47,0-0.731c0.143-0.56,0.109-0.606-0.07-1.08
		c-0.081-0.215-0.056-0.392-0.174-0.558c-0.162-0.228-0.546-0.15-0.662-0.453c-0.146-0.209-0.153-0.668-0.244-0.906
		c-0.197-0.085-0.537-0.118-0.731-0.244c-0.117-0.075-0.228-0.22-0.349-0.313c-0.189-0.147-0.208-0.386-0.313-0.627
		c-0.024-0.056-0.118-0.117-0.139-0.174c-0.271-0.708,0.29-1.23,0.488-1.603c0.164-0.309,0.226-0.573,0.418-0.836
		c0.212-0.291,0.584-0.475,0.662-0.906c-0.214-0.1-0.466-0.264-0.488-0.558c0.238-0.362,0.202-0.953,0.453-1.289
		c0.216-0.29,0.725-0.362,0.976-0.627c0.333-0.353,0.458-0.913,0.731-1.324c0.1-0.15,0.262-0.11,0.418-0.209
		c0.163-0.104,0.194-0.392,0.348-0.488c0.112-0.069,0.208-0.038,0.279-0.139c0.101-0.144,0.068-0.267,0.139-0.453
		c0.06-0.156,0.25-0.306,0.314-0.453c0.06-0.139-0.012-0.316,0.035-0.488c0.021-0.079,0.081-0.178,0.104-0.279
		c0.349-0.209,0.806-0.414,1.01-0.767c0.187-0.321-0.087-0.735,0.035-1.115c0.119-0.37,0.557-0.835,0.766-1.149
		c0.16-0.239,0.25-0.542,0.488-0.697c0.14-0.046,0.279-0.092,0.418-0.139c0.101-0.047,0.217-0.169,0.313-0.244
		c0.255-0.197,0.306-0.59,0.662-0.697c0.425-0.128,0.495,0.425,0.697,0.557c0.111,0.073,0.229,0.043,0.313,0.14
		c0.204,0.263-0.024,0.434,0.069,0.731c0.108,0.343,0.413,0.549,0.453,1.011c-0.058,0.069-0.116,0.139-0.174,0.209
		c-0.2,0.136-0.365,0.012-0.383,0.348c0.19,0.316-0.137,0.693-0.104,0.941c0.026,0.203,0.253,0.409,0.313,0.592
		c0.023,0.221,0.047,0.441,0.07,0.662c0.081,0.222,0.273,0.257,0.453,0.383c0.093,0.116,0.186,0.232,0.279,0.349
		c0.151,0.098,0.323,0.094,0.488,0.174c0.137,0.067,0.11,0.174,0.313,0.209c0.128-0.116,0.256-0.232,0.383-0.348
		c0.452-0.177,0.482-0.031,0.802-0.383c0.174,0.006,0.201,0.046,0.348,0.07c0.209-0.38,0.535-0.77,0.976-0.906
		c0.207-0.064,0.378,0.073,0.488,0.104c0.182,0.052,0.946-0.053,1.08-0.104c0.045-0.104,0.08-0.473,0.139-0.558
		c0.16-0.23,0.46-0.291,0.697-0.453c0.242-0.166,0.291-0.467,0.697-0.488c0.201,0.145,0.48,0.188,0.627,0.383
		c0.198,0.263,0.311,0.625,0.593,0.801c0.33,0.208,1.229,0.349,1.428,0.627c0.1,0.14,0.056,0.358,0.139,0.522
		c0.053,0.104,0.184,0.154,0.244,0.244c0.086,0.129,0.043,0.249,0.104,0.418c0.046,0.125,0.203,0.222,0.244,0.348
		c0,0.128,0,0.256,0,0.383c0.062,0.137,0.295,0.166,0.383,0.279c0.2,0.257,0.301,0.604,0.348,1.01
		c-0.154,0.119-0.301,0.221-0.313,0.488c0.176,0.166,0.622,0.61,0.697,0.836c0.094,0.282-0.157,0.473-0.07,0.766
		c0.021,0.068,0.119,0.202,0.14,0.279c0.036,0.134,0.016,0.316,0.035,0.418c0.166,0.103,0.396,0.11,0.697,0.104
		c0.23-0.144,0.505,0.076,0.766,0.07c0.366-0.009,0.711-0.403,1.08-0.104c0.183,0.147,0.089,0.424,0.349,0.523
		c0.103,0.067,0.238,0.011,0.384,0c0.081,0.115,0.616,0.689,0.731,0.731c0.479,0.176,0.802,0.136,1.184,0.418
		c0.123,0.09,0.35,0.455,0.453,0.592c0.105,0.081,0.21,0.163,0.313,0.244c0.058,0.075,0.05,0.164,0.104,0.244
		c0.206,0.297,0.529,0.565,0.731,0.871c0.188,0.281,0.044,0.668,0.175,1.045c0.085,0.245,0.393,0.438,0.487,0.662
		c-0.012,0.07-0.023,0.139-0.034,0.209c0.035,0.11,0.233,0.183,0.278,0.279c0,0.069,0,0.14,0,0.209
		c0.049,0.158,0.168,0.323,0.209,0.488c0.062,0.241-0.07,0.403-0.104,0.522c-0.068,0.237,0.142,0.278,0.104,0.488
		c-0.04,0.229-0.207,0.44-0.104,0.731c0.164,0.466,0.679,0.696,0.837,1.185c0,0.162,0,0.325,0,0.487
		c0.055,0.184,0.187,0.437,0.243,0.627c0.023,0.209,0.047,0.418,0.069,0.627c0.094,0.278,0.431,0.551,0.349,0.976
		c-0.044,0.232-0.14,0.662-0.313,0.767c-0.093,0.056-0.179,0.022-0.278,0.069c-0.319,0.15-0.453,0.414-0.453,0.906
		c0.169,0.187,0.269,0.609,0.209,0.906c-0.23,0.046-0.519,0.097-0.593,0.313c-0.13,0.146-0.232,1.151-0.139,1.498
		c0.039,0.146,0.155,0.321,0.209,0.453c0.07,0.173,0.104,0.438,0,0.592c-0.121,0.3-0.663,0.172-0.802,0.557
		c-0.095,0.132-0.07,0.323-0.139,0.488c-0.096,0.231-0.447,0.704-0.313,1.15c0.095,0.32,0.331,0.61,0.417,0.975
		c0.113,0.475-0.345,0.885-0.278,1.185c0.206,0.916,0.924,1.436,0.906,2.508c-0.176,0.105-0.41,0.189-0.593,0.313
		c-0.081,0.104-0.162,0.209-0.243,0.314c-0.097,0.071-0.21,0.072-0.313,0.139c-0.044,0.028-0.083,0.123-0.14,0.139
		c-0.093-0.012-0.187-0.023-0.278-0.035c-0.142,0.036-0.491,0.114-0.558,0.244c-0.055,0.084,0.003,0.227-0.035,0.349
		c-0.056,0.175-0.352,0.472-0.174,0.767c0.042,0.07,0.164,0.134,0.209,0.209c0.083,0.139,0.071,0.304,0.209,0.383
		c0.139,0.081,0.298,0.048,0.383,0.174c0.049,0.071-0.001,0.149,0.035,0.244c0.03,0.081,0.146,0.167,0.174,0.244
		c0.143,0.39,0.153,0.73,0.244,1.185c0.197,0.083,0.502,0.084,0.662,0.209c0.191,0.149,0.568,0.86,0.592,1.185
		c-0.217,0.225-0.122,0.486-0.244,0.836c-0.12,0.35-0.475,0.563-0.661,0.836c-0.103,0.149-0.057,0.278-0.244,0.349
		c-0.094,0.051-0.234-0.019-0.384-0.035c-0.097,0.156-0.109,0.343-0.104,0.627c0.155,0.171,0.132,0.4,0.21,0.662
		c0.05,0.171,0.191,0.368,0.243,0.522c0.086,0.256-0.072,0.382-0.034,0.593c0.036,0.205,0.161,0.415,0.209,0.592
		c0,0.197,0,0.395,0,0.592c0.058,0.142,0.254,0.302,0.313,0.453c0.081,0.207,0.023,0.457,0.14,0.627
		c0.105,0.156,0.393,0.208,0.487,0.383c0.012,0.07,0.023,0.14,0.034,0.209c0.317,0.509,0.943,0.926,0.976,1.708
		c-0.146,0.128-0.392,0.241-0.418,0.488c0.169,0.173,0.202,0.504,0.453,0.592c0.101,0.06,0.28-0.011,0.418,0.035
		c0.152,0.05,0.396,0.227,0.488,0.349c0.045,0.071,0.054,0.296,0.069,0.383c0.194,0.033,0.295,0.072,0.384,0.209
		c0.079,0.103,0.095,0.359,0.104,0.523c-0.127,0.097-0.15,0.25-0.243,0.383c-0.457,0.651-0.027,1.27,0.14,1.881
		c0.147,0.544-0.113,1.015,0.034,1.498c0.141,0.462-0.008,0.925,0.418,1.08c0.084,0.044,0.163-0.012,0.313,0
		c0.576,0.047,0.918-0.173,1.395-0.278c0.272-0.061,0.311,0.125,0.452,0.175c0.221,0,0.441,0,0.662,0
		c0.162,0.042,0.312,0.103,0.558,0.104c0.08-0.118,0.223-0.143,0.313-0.243c0.229-0.255,0.155-0.753,0.592-0.802
		c0.351-0.229,1.002,0.292,1.22,0.384c0.368,0.154,0.625-0.143,0.906-0.07c0.398,0.104,1.249,0.345,1.323,0.836
		c-0.14,0.157-0.153,0.494-0.348,0.593c-0.303,0.185-0.562-0.339-0.767-0.418c0,0.012,0,0.023,0,0.035
		c-0.065,0.066-0.088,0.122-0.104,0.243c0.062,0.067,0.048,0.164,0.104,0.244c0.093,0.058,0.186,0.116,0.278,0.174
		c0.047,0.094,0.093,0.187,0.14,0.279c0.177,0.132,0.297,0.008,0.383,0.243c0.043,0.064,0.038,0.199,0.035,0.314
		c-0.05,0.03-0.512,0.328-0.522,0.348c-0.15,0.249,0.029,0.67-0.07,0.976c-0.096,0.296-0.387,0.317-0.558,0.522
		c-0.105,0.138-0.104,0.547-0.104,0.767c0.086,0.054,0.08,0.08,0.21,0.104c0.035-0.028,0.009-0.012,0.069-0.035
		c0.132-0.302,0.266-0.563,0.558-0.696c0.098-0.044,0.194-0.016,0.278-0.069c0.176-0.113,0.145-0.264,0.453-0.279
		c0.043,0.08,0.058,0.079,0.07,0.209c-0.059,0.087-0.026,0.199-0.07,0.314c-0.06,0.156-0.204,0.191-0.244,0.383
		c0.287,0.271,0.35,0.614,0.453,1.08c0.945,0.585,2.13,1.649,1.673,3.274c-0.078,0.277,0.141,0.409,0.069,0.697
		c-0.053,0.212-0.186,0.545-0.244,0.767c-0.034,0.13,0.018,0.341,0.035,0.418c0.076,0.342-0.012,0.668-0.174,0.871
		c-0.109,0.136-0.32,0.086-0.488,0.174c-0.258,0.134-0.227,0.604-0.453,0.767c-0.196,0.141-0.531,0.142-0.627,0.384
		c-0.218,0.252,0.086,0.457-0.035,0.801c-0.048,0.136-0.238,0.202-0.313,0.313c-0.047,0.128-0.093,0.256-0.139,0.384
		c-0.173,0.256-0.586,0.416-1.011,0.418c-0.047-0.039-0.118-0.032-0.174-0.07c-0.11-0.074-0.141-0.264-0.279-0.313
		c-0.29,0-0.58,0-0.871,0c-0.123-0.041-0.17-0.146-0.348-0.174c-0.046,0.052-0.138,0.084-0.175,0.14
		c-0.19,0.286-0.144,0.957-0.487,1.079c-0.287,0.167-0.569,0.014-0.697,0.384c-0.15,0.213,0.091,0.251,0.035,0.487
		c-0.041,0.176-0.188,0.526-0.104,0.837c0.039,0.146,0.179,0.392,0.104,0.661c-0.129,0.466-0.551,0.922-0.871,1.22
		c0.024,0.283,0.062,0.467,0,0.732c-0.151,0.066-0.358,0.1-0.558,0.139c-0.06,0.134-0.089,0.359-0.174,0.488
		c-0.159,0.239-0.36,0.318-0.418,0.696c-0.06,0.385,0.183,0.523,0.243,0.696c0.064,0.184,0.05,0.774,0,0.941
		c-0.047,0.156-0.37,0.792-0.487,0.871c-0.181,0.122-0.4,0.058-0.487,0.278c-0.38,0.451,0.337,0.875,0.208,1.289
		c-0.049,0.158-0.221,0.375-0.278,0.522c-0.07,0.182,0.013,0.409-0.035,0.628c-0.043,0.198-0.099,0.419-0.139,0.592
		c-0.154,0.072-0.321,0.191-0.487,0.244c-0.257,0.08-0.467,0.016-0.697,0.104c-0.172,0.065-0.277,0.254-0.418,0.348
		c-0.203,0.136-1.373,0.477-1.777,0.349c-0.291-0.092-0.453-0.384-0.802-0.418c-0.104,0.165-0.452,0.566-0.801,0.453
		c-0.209-0.068-0.2-0.251-0.487-0.278c-0.339,0.248-0.94,0.372-1.08,0.801c0,0.197,0,0.396,0,0.592
		c-0.051,0.146-0.242,0.341-0.313,0.488c-0.143,0.293,0.003,0.58-0.314,0.697c-0.307,0.268-1.201,0.117-1.672,0.104
		c-0.045,0.084-0.062,0.099-0.069,0.244c0.286,0.281,0.508,0.745,0.592,1.219c0.028,0.158-0.079,0.355-0.104,0.453
		c-0.041,0.156,0.044,0.244,0.07,0.348c0.174,0.104,0.348,0.21,0.521,0.314c0.118,0.171,0.121,0.403,0.21,0.592
		c0.057,0.12,0.209,0.176,0.278,0.278c0.133,0.195,0.146,0.422,0.279,0.628c0.146,0.228,0.454,0.421,0.557,0.696
		c0.077,0.204,0.141,0.657,0.069,0.941c-0.143,0.576-0.458,0.759-0.801,1.114c-0.128,0.005-0.31,0.016-0.383-0.034
		c-0.203-0.075-0.174-0.238-0.313-0.349c-0.288-0.229-1.175-0.41-1.568-0.313c-0.022,0.044-0.037,0.071-0.069,0.104
		c0.08,0.236,0.442,0.461,0.313,0.87c-0.046,0.146-0.152,0.208-0.174,0.419c0.116,0.114,0.166,0.298,0.278,0.418
		c0.789,0.842,0.013,1.081-0.593,1.498c-0.077,0.053-0.492,0.671-0.521,0.767c0.011,0.162,0.022,0.325,0.034,0.487
		c-0.112,0.066-0.151,0.101-0.349,0.104c-0.078-0.082-0.343-0.285-0.418-0.243c-0.355,0.246-0.279,0.467-0.383,0.905
		c-0.508,0.296-1.245,0.015-1.708-0.14c-0.197-0.011-0.395-0.022-0.592-0.034c-0.17-0.062-0.34-0.286-0.487-0.384
		c-0.12-0.078-0.239-0.093-0.349-0.174c-0.093-0.104-0.186-0.209-0.279-0.313c-0.232-0.035-0.464-0.07-0.697-0.104
		c-0.322-0.11-0.605-0.354-1.01-0.384c-0.147,0.144-0.436,0.3-0.697,0.313c-0.093-0.084-0.191-0.077-0.244-0.209
		c-0.268-0.334,0.04-0.746,0.14-1.01c0.092-0.245,0.081-0.446,0.069-0.697c-0.119-0.057-0.232-0.046-0.383-0.104
		c-0.095-0.203-0.081-0.313-0.069-0.592c0.051-0.032,0.432-0.256,0.453-0.279c0.243-0.312-0.038-0.634,0.035-0.94
		c0.123-0.521,0.419-0.328,0.418-0.94c-0.245-0.388,0.357-0.747,0.07-1.046c-0.07-0.022-0.14-0.046-0.209-0.069
		c-0.035-0.046-0.069-0.093-0.104-0.14c-0.275-0.176-0.638-0.168-0.906-0.348c-0.092-0.062-0.106-0.189-0.174-0.279
		c-0.033-0.042-0.47-0.322-0.523-0.348c-0.383-0.191-0.729,0.23-0.731-0.488c0.119-0.148,0.134-0.362,0.244-0.522
		c0.097-0.142,0.311-0.144,0.383-0.313c0.026-0.037,0.021-0.033,0.035-0.104c-0.194-0.207-0.494-0.564-0.592-0.836
		c-0.012-0.116-0.023-0.232-0.035-0.349c-0.091-0.254-0.349-0.423-0.487-0.627c-0.34-0.503-0.463-1.177-0.836-1.638
		c-0.09-0.111-0.54-0.344-0.732-0.313c-0.141,0.021-0.336,0.228-0.557,0.174c-0.339-0.082-0.19-0.438-0.383-0.558
		c-0.074-0.072-0.135-0.094-0.279-0.104c-0.062,0.071-0.185,0.172-0.244,0.14c-0.181-0.075-0.228-0.381-0.348-0.522
		c-0.074-0.087-0.235-0.091-0.279-0.209c-0.071-0.191,0.073-0.449-0.07-0.558c-0.094-0.072-0.258,0.021-0.383-0.035
		c-0.051-0.021-0.122-0.144-0.174-0.174c-0.173-0.101-0.34-0.101-0.488-0.209c-0.102-0.075-0.184-0.232-0.313-0.279
		c-0.354-0.126-0.727-0.019-1.01-0.209c-0.046-0.058-0.093-0.116-0.14-0.174c-0.129-0.093-0.29-0.116-0.418-0.209
		c-0.093-0.104-0.186-0.209-0.279-0.313c-0.197-0.069-0.395-0.14-0.592-0.209c-0.224-0.147-0.316-0.479-0.558-0.628
		c-0.456-0.277-1.023-0.339-1.498-0.592c-0.297-0.158-0.521-0.498-0.801-0.662c-0.215-0.126-0.405-0.173-0.592-0.313
		c-0.209-0.157-0.236-0.363-0.383-0.592c-0.226-0.351-0.582-0.669-0.802-1.011c-0.011-0.058-0.023-0.116-0.035-0.174
		c-0.087-0.148-0.274-0.214-0.418-0.314c-0.212-0.147-0.42-0.517-0.522-0.766c-0.123-0.299,0.033-0.603-0.07-0.906
		c-0.052-0.153-0.215-0.312-0.279-0.452c-0.035-0.117-0.07-0.232-0.104-0.349c-0.297-0.512-0.657-0.997-1.01-1.464
		c-0.175-0.23-0.496-0.312-0.557-0.662c0.14-0.143,0.538-0.585,0.731-0.627c0,0,0.797,0.276,0.801,0.279
		c0.136,0.091,0.171,0.295,0.279,0.418c0.405,0.463,0.976,0.886,1.184,1.532c0.095,0.295,0.007,0.61,0.105,0.906
		c0.034,0.104,0.168,0.184,0.209,0.278c0.055,0.131,0.021,0.259,0.139,0.313c0.139,0,0.279,0,0.418,0
		c0.3-0.237,0.716-0.354,0.871-0.731c0.091-0.221,0.004-0.556-0.035-0.731c0.012-0.232,0.023-0.464,0.035-0.697
		c-0.029-0.098-0.082-0.229-0.07-0.418c0.023-0.345,0.234-0.601,0.244-1.01c-0.103-0.102-0.11-0.277-0.209-0.384
		c-0.104-0.11-0.324-0.122-0.418-0.243c-0.234-0.302-0.366-0.624-0.592-0.941c-0.013-0.017-0.442-0.413-0.453-0.418
		c-0.147-0.062-0.253-0.028-0.383-0.104c-0.259-0.151-0.521-0.774-0.522-1.221c0.095-0.059,0.087-0.088,0.244-0.104
		c0.221,0.262,0.018,0.199,0.104,0.487c0.058,0.082,0.116,0.163,0.174,0.244c0.012,0,0.023,0,0.035,0c0-0.012,0-0.023,0-0.035
		c0.108-0.071,0.102-0.12,0.279-0.139c0.112,0.172,0.335,0.223,0.453,0.383c0.066,0.09,0.082,0.253,0.174,0.313
		c0.058,0.012,0.116,0.023,0.174,0.035c0.063-0.069,0.141-0.146,0.209-0.209c0-0.256,0-0.511,0-0.767
		c-0.03-0.116-0.141-0.309-0.104-0.488c0.038-0.187,0.102-0.336,0.104-0.592c-0.412-0.235-0.781-0.447-1.428-0.453
		c-0.154,0.272-0.042,0.704-0.104,1.045c-0.053,0.019-0.059,0.024-0.14,0.035c-0.092-0.198-0.071-0.425-0.209-0.627
		c-0.182-0.268-0.521-0.447-0.662-0.767c-0.161-0.365-0.154-0.781-0.349-1.115c-0.175-0.3-0.734-0.641-0.836-1.01
		c-0.074-0.269,0.206-0.447,0.313-0.558c0.289-0.296,0.887-0.69,1.045-1.045c0.25-0.562,0.209-1.385,0.209-2.195
		c0-0.268,0-0.534,0-0.802c0.036-0.144,0.104-0.317,0.139-0.487c0.088-0.054,0.131-0.156,0.209-0.209
		c0.288-0.194,0.599-0.046,0.592-0.558c-0.382-0.396-0.037-1.105,0.244-1.358c-0.057-0.278-0.137-0.575-0.349-0.697
		c-0.176-0.102-0.329,0.023-0.418-0.174c-0.117-0.137-0.092-0.46,0.035-0.558c0.103-0.082,0.296-0.074,0.488-0.069
		c0.244-0.416,0.432-1.004,1.045-1.046c0.019,0.054,0.023,0.06,0.035,0.14c-0.214,0.076-0.443,0.127-0.453,0.418
		c0.327,0.137,0.404,0.203,0.383,0.697c0.082,0.149-0.153,0.354-0.174,0.592c0.112,0.16,0.039,0.336,0.279,0.384
		c0.112-0.2,0.149-0.322,0.487-0.313c0.057,0.052,0.071,0.054,0.174,0.069c0.205-0.194,0.426-0.438,0.662-0.593
		c0.167-0.109,0.394-0.061,0.488-0.243c0.321-0.36-0.121-1.578-0.209-1.951c-0.106-0.062-0.158-0.115-0.313-0.14
		c-0.312,0.698-0.666,1.382-1.011,2.056C32.094,57.923,32.059,57.923,32.024,57.923z"/>
</g>
<g id="Layer_1">
</g>
</svg>
