<?xml version="1.0" encoding="iso-8859-1"?>
<!-- Generator: Adobe Illustrator 16.0.3, SVG Export Plug-In . SVG Version: 6.00 Build 0)  -->
<!DOCTYPE svg PUBLIC "-//W3C//DTD SVG 1.1//EN" "http://www.w3.org/Graphics/SVG/1.1/DTD/svg11.dtd">
<svg version="1.1" xmlns="http://www.w3.org/2000/svg" xmlns:xlink="http://www.w3.org/1999/xlink" x="0px" y="0px" width="100px"
	 height="100px" viewBox="0 0 100 100" style="enable-background:new 0 0 100 100;" xml:space="preserve">
<g id="AM">
	<path d="M97.429,94.866c0.265-1.318,0.158-1.581-0.21-2.955c-0.369-1.372-0.897-2.743-0.897-3.323c0-0.581-0.316-0.737-0.949-0.896
		c-0.634-0.159-0.265-0.897-0.686-1.637c-0.423-0.738-1.531-0.581-1.688-1.477c-0.158-0.897,1.371-0.265,1.582-0.633
		c0.211-0.369,0.265-0.687,0.634-0.739c0.368-0.053,1.636,1.53,1.952,1.53s0.949-1.16,1.37-1.741c0.423-0.58,0-0.476-0.737-1.056
		c-0.738-0.58-1.319-1.529-1.688-2.585c-0.368-1.055-1.213-1.371-2.48-1.793c-1.265-0.422-1.582-1.582-1.898-2.374
		c-0.315-0.792,0.791-1.425,1.741-1.425c0.949,0,1.425-0.264,2.058-0.633c0.633-0.368,0.422-0.634-0.053-1.162
		c-0.475-0.527,0.265-1.054,1.107-1.423c0.844-0.37,0.844-1.213,0.265-1.635c-0.58-0.422-2.532-0.104-3.694,0.105
		c-1.16,0.211-0.264-1.478-1.739-2.322c-1.479-0.844-2.375,0.686-4.117,1.214c-1.74,0.528-2.531-1.214-3.322-2.005
		s-1.477-1.002-2.269-1.214c-0.79-0.212-0.896-1.267-1.74-2.849s-2.321-1.37-3.271-1.37c-0.949,0-2.162-0.582-2.744-1.32
		c-0.579-0.738-1.266-2.217-1.371-3.429c-0.104-1.212-0.052-0.791-1.267-1.479c-1.214-0.687-2.32-0.845-2.742-0.845
		s-1.688-0.05-1.688-0.947s1.529-1.267,3.377-1.477c1.847-0.209,2.954,0.527,3.641,1.002c0.686,0.475,1.739-0.792,2.162-1.317
		c0.421-0.528,0.37-2.007,1.107-2.534c0.738-0.527,0.845-1.003,1.319-2.163c0.475-1.162,0.579-2.638,0.158-3.43
		c-0.421-0.792-1.106-1.688-2.058-1.741c-0.95-0.052-1.267-0.317-1.74-0.949c-0.476-0.633-1.53-1.32-2.533-1.689
		c-1.003-0.368-1.794,0-3.64-1.688c-1.847-1.688-3.271-2.373-4.011-3.27c-0.738-0.898-1.424-0.792-2.058-1.479
		c-0.632-0.685,0.055-2.427-0.421-3.271c-0.475-0.844-1.213-0.421-1.477-1.159c-0.265-0.739-0.897-1.53-1.109-1.848
		c-0.21-0.316-0.526-1.266,0.37-1.317c0.896-0.053,0.845-0.211,1.162-0.898c0.315-0.686,1-1.109,1.634-1.109
		c0.633,0,1.003-0.419,1.688-0.843c0.686-0.421,2.11-1.267,2.638-2.322s0.263-1.688-0.633-2.057
		c-0.896-0.369-1.899-0.949-2.69-1.424s-1.319-1.635-1.847-1.794c-0.528-0.158-1.056-0.633-0.686-1.108
		c0.37-0.473,0.79-1.318,0.157-1.634c-0.633-0.317-2.849-0.264-4.747-0.159c-1.9,0.107-3.008-1.213-3.376-1.845
		c-0.37-0.633-0.054-1.161,1.266-1.372c1.318-0.212,0.633-1.793,0.105-2.743c-0.528-0.95-1.846-1.108-2.163-0.687
		c-0.316,0.423-1.477,0.739-1.952,0.265c-0.476-0.475-0.897-1.056-0.212-1.794c0.687-0.739,0.423-1.214,0.053-1.847
		c-0.042-0.071-0.059-0.158-0.066-0.252c-0.637,0.136-1.643,0.388-2.256,0.728c-0.949,0.528-1.688-0.422-2.848-1.055
		s-2.322,0.633-1.372,1.583c0.949,0.95,1.952,0.475,1.477,1.267s-1.213,0.158-2.374-0.053c-1.16-0.211-1.846-0.633-3.007-0.844
		c-1.161-0.211-1.793-0.159-2.11,0.317c-0.316,0.474-1.056,1.159-1.793,1.159c-0.739,0-0.74-0.791-1.319-0.791
		c-0.58,0-1.636,1.425-2.585,0.529c-0.95-0.897-2.427-2.058-3.43-1.425c-1.002,0.633-1.266,0.263-2.004-0.211
		c-0.739-0.475-2.269-1.265-2.48-0.475c-0.21,0.792-0.633,2.005-2.163,2.059c-1.529,0.053-4.378-0.053-6.436,0.315
		c-2.058,0.371-3.007,0.476-3.903,1.002c-0.897,0.528-0.951,1.373-2.48,0.792c-1.53-0.581-2.638-1.056-3.904-1.056
		c-1.265,0-2.057,0.317-2.795,0.37C1.944,4.75,1.659,4.949,1.562,5.037C1.535,5.061,1.52,5.076,1.52,5.076s-0.37,2.112-0.158,2.745
		c0.21,0.632,0.421,1.53,1.477,1.74c1.055,0.211,2.321,0.685,3.324,1.319c1.002,0.633,1.424,2.584,1.372,3.535
		c-0.053,0.95,0.211,3.693,0.792,4.748c0.58,1.055,0.475,3.482-0.317,5.117c-0.792,1.636-1.53,3.058-2.215,3.745
		c-0.687,0.687-1.267,0.845-2.164,1.212c-0.897,0.37-1.107,1.32-0.844,1.637c0.263,0.316,1.425,0.792,1.477,1.582
		c0.052,0.792-0.106,1.689-0.264,2.27c-0.159,0.58,0,1.635,0.316,2.268s0.844,1.478,1.425,1.689c0.58,0.21,0.422,0.104,0.58,1.319
		c0.159,1.213,0.475,1.688,0.687,2.164c0.211,0.473-0.263,0.896-0.687,0.896c-0.421,0-0.949,0.105-0.949,0.686
		c0,0.582-0.053,1.054,1.793,2.163c1.847,1.108,5.224,2.479,7.545,2.849c2.322,0.369,5.855,0.317,7.279,0.317
		c1.425,0,3.114-0.898,4.116-0.159c1.001,0.739,2.583,1.425,3.956,2.214c1.372,0.792,2.11,2.059,2.849,3.166
		c0.739,1.109,1.688,2.955,2.322,4.01c0.633,1.056,1.582,1.267,2.004,1.267c0.421,0,0.844,0.423,0.897,1.212
		c0.052,0.792,0.475,0.475,1.055,1.162c0.58,0.687,1.634,2.162,1.634,2.162s0.029,0.031,0.075,0.08
		c0.192-0.489,0.587-1.364,1.033-1.662c0.633-0.422,1.161-0.844,1.795-0.317c0.632,0.528,0.844,0.528,2.532-0.844
		c1.688-1.37,2.744-0.949,4.22-0.106c1.478,0.846,2.216,2.955,2.11,5.382s1.267,2.322,2.005,1.056
		c0.738-1.266,1.688-0.423,1.793,0.422c0.105,0.845,0.316,1.583,1.688,2.11c1.372,0.526,3.166,1.371,4.644,1.371
		c1.475,0,2.426-1.477,3.481-1.794c1.055-0.316,1.476,0.213,2.638-1.159c1.161-1.373,2.637-0.106,3.693,0.316
		c1.055,0.422,1.688,4.22,0.421,6.437c-1.266,2.215,0.105,2.531,1.796,3.165c1.688,0.633,3.164,1.793,4.113,1.793
		s0.316,1.161-0.211,2.216c-0.527,1.056,0.95,3.376,2.321,5.909c1.371,2.532,2.531,5.803,3.271,7.49
		c0.739,1.688,1.056,3.799,1.056,3.799s0.792,0.475,1.688,0.053c0.896-0.421,2.479-1.16,3.957-1.267
		c1.477-0.105,3.322-0.209,4.695-0.156c1.371,0.051,1.74-0.212,1.74-0.212s-0.106-0.476-0.158-0.792
		C97.166,97.082,97.166,96.186,97.429,94.866z"/>
</g>
<g id="Layer_1">
</g>
</svg>
