<?xml version="1.0" encoding="iso-8859-1"?>
<!-- Generator: Adobe Illustrator 16.0.3, SVG Export Plug-In . SVG Version: 6.00 Build 0)  -->
<!DOCTYPE svg PUBLIC "-//W3C//DTD SVG 1.1//EN" "http://www.w3.org/Graphics/SVG/1.1/DTD/svg11.dtd">
<svg version="1.1" xmlns="http://www.w3.org/2000/svg" xmlns:xlink="http://www.w3.org/1999/xlink" x="0px" y="0px" width="100px"
	 height="100px" viewBox="0 0 100 100" style="enable-background:new 0 0 100 100;" xml:space="preserve">
<g id="AO">
	<path d="M6.054,64.715l4.029-7.662l5.649-5.236l0.803-9.279v-4.028l-3.222-4.037l-1.618-6.85l1.618-2.822l-0.807-4.437L5.65,4.23
		l7.662-3.222l23.383-0.403l3.228,2.419l2.416,9.679l6.457,6.45l12.096-1.612l2.416-7.257l9.682-1.21l-0.407,3.22h7.259l0.805,2.016
		l0.407,15.325l3.625,8.874l-2.419,4.436l2.419,1.608l2.021-2.818l12.094-0.807l-0.807,15.725L100,57.863H82.662v29.432l9.678,8.467
		l-14.112,3.633l-10.888-2.02h-8.063l-6.448-4.027L17.741,93.75l-5.644-4.031H8.473l-4.033,2.42l-0.81-0.807L0,93.75l0.407-11.693
		L6.054,64.715z"/>
</g>
<g id="Layer_1">
</g>
</svg>
