<?xml version="1.0" encoding="iso-8859-1"?>
<!-- Generator: Adobe Illustrator 16.0.3, SVG Export Plug-In . SVG Version: 6.00 Build 0)  -->
<!DOCTYPE svg PUBLIC "-//W3C//DTD SVG 1.1//EN" "http://www.w3.org/Graphics/SVG/1.1/DTD/svg11.dtd">
<svg version="1.1" xmlns="http://www.w3.org/2000/svg" xmlns:xlink="http://www.w3.org/1999/xlink" x="0px" y="0px" width="100px"
	 height="100px" viewBox="0 0 100 100" style="enable-background:new 0 0 100 100;" xml:space="preserve">
<g id="AR">
	<path d="M43.805,0l-2.333,2.558l0.352,1.054l-0.477,1.856l-2.759,1.279L38.337,9.28l0.577,3.486l-1.279,0.802l-0.452,1.179
		l-1.053,1.154l-0.803,3.135l-0.226,2.534l-1.154,2.558l-0.125,1.154l1.279,4.54l0.351,2.208l-1.63,3.01l0.125,2.308l-1.405,1.755
		l-0.125,3.135l0.25,2.207l-0.702,1.254l-0.928,3.261l-0.351,3.712l0.577,1.629l-0.928,2.082l0.576,4.289l-0.1,1.505l1.028,0.226
		l0.25,0.578l-1.405,0.477l1.154,1.153l-0.452,1.278l-0.125,3.713l-1.63,3.486l0.125,2.307l-0.452,1.631l-1.53,2.559l-0.326,2.082
		l0.101,2.307l2.207-0.326l0.125,3.713l0.452,0.928l5.342,0.226l3.236,0.928l-1.505-2.332l-0.803-0.351l0.803-0.227l-0.351-1.73
		l-0.577,0.1l0.828-2.182l1.279-1.053l-0.352-1.405l0.678,1.179l1.179-0.576l0.677-3.135l3.612-3.136l0.577-1.981l-0.226-1.506
		l-2.208-0.351l-1.178-1.38l-0.677-1.279l0.1-0.701l1.63-2.308l1.405-0.828h1.505l-0.125-0.928l0.928-1.154v-2.558l0.577-0.928
		l1.505-0.678l-1.605-1.054l1.028-0.577l0.702,0.803h1.154l0.351-0.702l-0.226-1.028l-0.226-0.576l-1.179,0.451l0.477,0.576
		l-0.928,0.126l-1.154-1.153l-0.477-3.612l0.577-0.577l2.684,1.505h1.605l1.28-0.677l0.477-0.703l-0.252-1.981l0.828-1.731
		l-0.576-0.702v-1.379l0.576,0.451l2.308,0.125l6.722-1.505l1.054-0.828l0.351-1.028l1.506-2.107l0.226-2.182l-0.929-0.125
		l-0.677-1.154l0.452-1.505l-2.659-1.981l-0.126-1.63l0.703-3.01l0.576-6.371l0.577-0.827l6.722-7.073l2.107-1.028l0.326-1.981
		l-0.578-1.63l-1.504-0.226l-0.352,2.307l-2.207,2.208l-2.658,0.351l-1.38-0.703l-2.207-0.326v-0.928l1.505-2.684l-0.227-0.803
		l-4.188-2.91L55.97,5.342l-3.487-3.938l-0.676-0.125l-1.054-0.577l-2.082-0.125l-0.577,1.53l-0.928-0.928l-2.558-0.351L43.805,0z
		 M38.236,90.72l0.101,8.679l1.279-0.451L43.554,100l1.856-0.352l0.928-0.928l-2.207-0.576l-4.164-3.361l-1.379-2.107l0.802-0.225
		L38.236,90.72z M49.599,98.821l-1.756,0.126l-0.326,0.451h0.326L49.599,98.821z"/>
</g>
<g id="Layer_1">
</g>
</svg>
