<?xml version="1.0" encoding="iso-8859-1"?>
<!-- Generator: Adobe Illustrator 16.0.3, SVG Export Plug-In . SVG Version: 6.00 Build 0)  -->
<!DOCTYPE svg PUBLIC "-//W3C//DTD SVG 1.1//EN" "http://www.w3.org/Graphics/SVG/1.1/DTD/svg11.dtd">
<svg version="1.1" xmlns="http://www.w3.org/2000/svg" xmlns:xlink="http://www.w3.org/1999/xlink" x="0px" y="0px" width="100px"
	 height="100px" viewBox="0 0 100 100" style="enable-background:new 0 0 100 100;" xml:space="preserve">
<g id="AT">
	<path style="fill:#010101;" d="M99.463,44.484c0.372-0.312,0.509-0.86,0.509-1.509c0-0.646,0.137-1.076-0.195-1.391
		c-0.334-0.312-0.607-0.685-0.745-1.232c-0.137-0.551-0.255-0.961-0.549-0.999c-0.292-0.042-0.725-0.354-0.979-0.961
		c-0.255-0.607,0.175-1.155-0.255-1.312c-0.432-0.158-0.627-0.372-0.667-0.725c-0.039-0.354-0.469-0.765-0.705-0.844
		c-0.235-0.077-0.059-0.312-0.078-0.841c-0.021-0.53-0.078-0.999,0.177-1.295c0.255-0.293,0.587-0.722,0.567-1.018
		c-0.02-0.293,0.294-0.607,0.235-1.136c-0.06-0.529-0.079-1.078-0.47-1.802c-0.392-0.726-0.667-1.097-1.176-1.039
		c-0.51,0.059-1.548,0.138-1.999-0.058s-0.607-0.354-0.666-0.726s-0.744-0.764-1.235-0.764c-0.487,0-0.724,0.138-0.881,0.433
		c-0.156,0.293-0.313,0.684-0.568,0.646c-0.255-0.039-0.51-0.509-0.725-0.391c-0.216,0.117-1.137,0.919-1.527,0.999
		c-0.393,0.078-0.53,0.274-1.195,0.019c-0.666-0.254-2.098-0.549-2.332-0.783c-0.235-0.235-0.117-0.511-0.392-0.49
		c-0.274,0.019-0.765,0.117-0.765-0.235c0-0.354,0.039-0.607-0.274-0.686c-0.312-0.078-0.411-0.393-0.959-0.021
		c-0.549,0.373-1.099,0.608-1.686,0.295c-0.587-0.314-1.999-1.039-2.567-1.41c-0.567-0.374-1.547-0.824-1.938-0.706
		c-0.393,0.118-0.725,0.548-1.235,0.745c-0.509,0.195-0.665,0.45-1.037-0.432c-0.373-0.882-0.745-1.352-1.47-0.802
		c-0.725,0.547-0.725,1.801-0.687,2.39c0.04,0.587,0.139,1.235,0.177,1.724c0.039,0.489,0.02,0.902-0.568,0.803
		s-1.332-0.099-1.686,0.333c-0.353,0.431-0.92,1.646-0.938,2.252c-0.021,0.606,0.155,1.351-0.178,1.351
		c-0.332,0-0.764-0.372-1.411-0.607c-0.646-0.233-1.547-0.703-1.96-0.137c-0.41,0.57-0.9,1.196-1.37,1.253
		c-0.471,0.061-1.313-0.077-1.763,0.042c-0.452,0.118-0.843,0.097-1.588-0.255c-0.744-0.354-0.861-0.608-0.803-0.96
		s-0.274-0.921-0.706-1.353c-0.431-0.429-1.019-0.803-1.43-1.136c-0.412-0.333-0.686-0.608-0.764-0.293
		c-0.08,0.312,0.078,1.351,0.156,1.86c0.078,0.511,0.313,0.842-0.039,1.373c-0.354,0.529-1.079,1.665-1.254,1.762
		c-0.177,0.097-0.412-0.275-0.568-0.489c-0.157-0.216-0.393-0.296-0.726-0.296s-0.627-0.117-1.215,0.178
		c-0.588,0.293-1.175,0.704-1.195,1.077c-0.019,0.372,0.021,0.862,0.021,1.41c0,0.55,0,0.745-0.313,1.059
		c-0.314,0.312-0.569,0.567-0.862,0.981c-0.294,0.411-0.725,0.958-1.156,0.938c-0.431-0.019-0.764-0.234-1.429,0.039
		c-0.667,0.277-1.02,0.49-1.391,0.688c-0.373,0.195-0.334,0.411-0.452,0.646c-0.118,0.234,0.02,0.215-0.352,0.234
		c-0.373,0.021-0.862,0.255-1.136,0.705c-0.275,0.452-0.158,0.843-0.53,1.04c-0.373,0.194-0.901,0.43-0.92,0.684
		c-0.019,0.255,0.038,0.509,0.47,0.707c0.431,0.195,0.726,0.882,0.902,1.156c0.175,0.273,0.724,0.863,0.901,1.037
		c0.177,0.176,0.528,1.038,0.705,1.293c0.176,0.255,0.097,0.452-0.157,0.881c-0.255,0.433-0.43,1.04-0.43,1.49
		c0,0.452-0.118,0.764,0.274,0.861c0.392,0.099,1.234,0.589,1.548,0.982c0.313,0.391,0.625,1.429,0.313,2.29
		c-0.313,0.864-0.49,1.804-1.313,1.491c-0.823-0.314-1.725-0.98-2.039-1.255c-0.313-0.274-0.352-0.9-0.097-1.098
		c0.254-0.194,0.215-0.567-0.137-0.862c-0.353-0.292-1.098-0.646-1.822-0.509c-0.726,0.137-0.98,0.744-1.47,0.744
		c-0.489,0-0.999-0.353-1.312-0.685c-0.313-0.334-0.627-0.551-1.353-0.471c-0.725,0.079-1.195,0.038-1.372-0.138
		c-0.175-0.178-0.097-0.373,0.04-0.509c0.137-0.137,0.078-0.529-0.294-0.314c-0.373,0.216-0.373,0.413-0.606,0.431
		c-0.236,0.02-0.354,0.02-0.354,0.02s0.158,0.334,0.294,0.784c0.137,0.451,0.215,0.961,0.097,1.196
		c-0.116,0.234-0.313,0.058-0.764,0.077c-0.451,0.019-1.195-0.194-1.646-0.117c-0.45,0.078-1.508,0.589-2.018,0.646
		c-0.509,0.061-1.45,0.179-2.096,0.041c-0.646-0.137-1.273-0.061-1.469,0.449s-0.059,1.178-0.608,1.255
		c-0.549,0.078-1.332-0.039-1.568,0.314c-0.235,0.353-0.019,0.548,0.099,0.821c0.118,0.273,0.156,0.371-0.353,0.414
		c-0.51,0.038-0.666,0.193-1.196,0.193c-0.528,0-0.901-0.136-1.528,0.217s-1.254,0.586-1.803,0.586
		c-0.547,0-0.919-0.176-1.391-0.882c-0.47-0.704-0.842-1.468-1.195-1.509c-0.352-0.039-0.646,0.14-0.979,0.14
		c-0.334,0-0.726-0.197-0.94-0.53c-0.215-0.331-0.863-0.351-1.313-0.195c-0.45,0.157-1.156,0.157-1.547-0.078
		c-0.393-0.236-0.862-0.217-0.961,0.352c-0.097,0.567-0.156,1.312-0.078,1.881c0.078,0.567-0.059,1.118-0.608,1.607
		c-0.547,0.49-0.842,0.586-1.233,0.92c-0.392,0.335-0.881,1.099-1.137,1.099c-0.254,0-0.881-0.158-0.568-0.804
		c0.313-0.647,0.901-1.392,0.49-1.529c-0.412-0.137-0.49,0.453-0.961,0.372c-0.469-0.078-0.802-0.782-0.881-1.155
		c-0.078-0.371,0.099-0.313,0.254-0.528c0.158-0.217,0-0.979-0.371-0.979c-0.372,0-0.588,0.195-0.902-0.08
		c-0.314-0.273-1.059-0.605-1.391-0.803s-0.372-0.548-0.176-0.843c0.196-0.293-0.019-0.566-0.607-0.646
		c-0.588-0.076-0.843,0.137-1.176,0.49c-0.333,0.354-0.451,0.451-0.451,0.451s0.568,0.139,0.549,0.51
		c-0.021,0.372-0.04,0.704-0.568,0.586c-0.53-0.117-1.431-0.43-1.529-0.43c-0.097,0-0.156,0.079-0.196,0.155
		c0,0,0.373,0.491,0.667,1.198c0.293,0.703-0.078,0.938-0.412,1.272c-0.333,0.331-0.177,0.901-0.234,1.372
		c-0.007,0.052-0.021,0.107-0.038,0.163c-0.005,0.018-0.011,0.036-0.017,0.053c-0.015,0.041-0.031,0.083-0.051,0.127
		c-0.007,0.018-0.014,0.034-0.022,0.053c-0.027,0.056-0.056,0.11-0.086,0.168c-0.002,0.006-0.004,0.008-0.006,0.013
		c-0.035,0.062-0.074,0.127-0.115,0.194c-0.01,0.016-0.021,0.031-0.03,0.048c-0.035,0.056-0.07,0.109-0.106,0.163
		c-0.008,0.015-0.018,0.03-0.028,0.044c-0.044,0.069-0.09,0.138-0.136,0.207c0,0.002,0,0.002-0.001,0.005
		c0.169,0.089,0.323,0.205,0.416,0.374c0.287,0.525,0.287,0.992,0.392,1.385c0.104,0.391,0.418,0.55,0.496,0.94
		c0.078,0.393,0.157,1.047,0.078,1.255c-0.012,0.03-0.072,0.092-0.161,0.169c0.064-0.025,0.135-0.044,0.208-0.063
		c0.007,0,0.015-0.002,0.021-0.004c0.07-0.016,0.141-0.026,0.215-0.034c0.007,0,0.013,0,0.019-0.002
		c0.076-0.006,0.154-0.006,0.233,0.002c0.018,0,0.036,0.002,0.053,0.006c0.083,0.005,0.167,0.021,0.253,0.044
		c0.49,0.138,1.9,0.666,2.311,0.863c0.412,0.193,0.157,0.351,0.04,0.803c-0.118,0.448,0.431,0.9,0.94,1.136s1.097,0.312,1.508,0.627
		c0.411,0.312,1.019,0,1.273-0.314c0.255-0.312,0.881-0.783,1.214-0.841c0.334-0.06,0.667-0.159,1.117-0.588
		c0.451-0.432,0.608-0.45,1.176-0.177c0.568,0.274,1.214,0.92,1.195,1.468c-0.021,0.552,0.175,0.883,0.175,0.883
		s-0.015,0.006-0.039,0.02c0.327,0.116,0.708,0.22,1.045,0.132c0.496-0.132,1.332-0.783,1.724-0.235
		c0.393,0.547,0.183,1.437,0.471,1.672c0.287,0.235,1.488,0.261,2.089,0.261c0.602,0,1.28,0.052,1.438-0.444
		c0.157-0.496,0.732-0.836,0.914-1.175c0.183-0.341,0.052-1.279,0.862-1.804c0.811-0.521,0.94-0.836,1.607-0.935
		c0.666-0.097,1,0.061,1.587-0.058c0.587-0.117,0.764,0.156,1.372,0.058c0.606-0.097,0.861-0.274,1.254-0.43
		c0.392-0.157,0.647-0.157,1.137,0.155c0.489,0.316,1.587,0.452,1.959,0.159c0.373-0.295,1.273-0.824,2.038-1.138
		c0.764-0.312,0.882-0.234,1.273-0.312c0.392-0.081,1.098-0.667,1.431-0.783c0.333-0.119,0.94-0.297,0.881,0.255
		c-0.059,0.547-0.176,0.957-0.568,1.017c-0.392,0.058-0.764,0.727-0.568,1.157c0.196,0.429,0.666,1.704,1.175,1.823
		c0.51,0.115,0.745,0.038,0.824,0.43c0.078,0.393-0.079,0.726,0.078,1.154c0.156,0.434,0.509,0.412,0.764,0.452
		c0.254,0.038,0.549,0.528,0.842,0.92c0.294,0.393,0.94,0.98,1.685,1.136c0.746,0.157,1.999,0.197,2.488,0.197
		c0.491,0,1,0.02,1.412,0.431c0.411,0.41,0.764,0.588,1.292,0.646c0.53,0.062,1.254-0.136,1.803-0.136
		c0.549,0,1.744-0.138,2.117,0.255c0.371,0.391,0.411,0.781,1.076,0.607c0.667-0.179,1.49-0.607,1.724-0.49
		c0.236,0.118,0.411,0.176,0.902,0.118c0.489-0.061,0.449-0.216,0.862-0.04c0.41,0.176,0.94,0.233,1.312,0.333
		c0.372,0.098,1.233,0.47,1.919,0.45c0.687-0.02,1.157-0.235,1.431-0.273c0.273-0.04,1.078,0.293,1.47,0.373
		c0.392,0.077,0.921,0.274,1.449,0.115c0.528-0.157,0.783,0.235,1.019,0.472c0.235,0.235,0.922,0.451,1.431,0.391
		c0.51-0.058,0.941,0.273,1.372,0.158c0.432-0.117,1.273-0.353,1.704-0.117c0.431,0.232,1.078,0.958,1.274,0.939
		c0.195-0.02,0.077-0.432,0.273-0.707c0.195-0.273,0.686-0.51,1.039-0.764c0.352-0.255,0.234-0.627,0.646-0.958
		c0.412-0.333,0.959-0.295,1.155-0.688c0.195-0.391,0.039-0.919,0.509-1.292c0.471-0.372,0.941-0.354,1.275-0.392
		c0.332-0.038,0.47-0.429,0.842-0.706c0.372-0.272,0.744-0.232,1.391-0.232s1.665,0.175,2.137-0.06
		c0.469-0.235,1.312-0.471,1.803-0.235c0.489,0.235,1.233,1.058,1.605,0.04c0.372-1.021,1.038-0.903,1.431-0.961
		c0.392-0.06,0.47-0.607,0.96-0.627s1.077,0.098,1.547-0.038c0.471-0.138,0.471-0.178,0.823-0.414
		c0.353-0.231,0.882,0.021,0.94,0.296c0.059,0.273,0.589,1.019,0.784,0.821c0.196-0.193,0.118-0.468-0.079-0.821
		c-0.195-0.353-0.685-1.018-0.626-1.527s0.371-1.414,0.901-1.706c0.528-0.294,1.214-0.372,1.233-0.472
		c0.021-0.096,0.431-0.664,0.354-0.781c-0.079-0.119,0.548-0.274,0.803-0.432c0.255-0.159,0.295-0.333,0.234-0.764
		c-0.058-0.432-0.175-1.04,0.061-1.06c0.234-0.02,0.489,0.314,0.743,0.314c0.255,0,0.432-0.041,0.745,0.118
		c0.313,0.155,0.412,0.096,0.744-0.255c0.333-0.353,0.783-0.744,0.353-0.942c-0.43-0.193-0.685-0.646-0.392-0.841
		c0.294-0.196,0.764-0.568,0.354-0.94c-0.413-0.373-0.922-0.628-0.745-1.099c0.176-0.468,0.332-1.018,0.392-1.449
		c0.059-0.432-0.156-0.626-0.373-0.919c-0.215-0.296-0.215-0.627-0.078-0.962c0.138-0.333,0.373-0.136,0.55-0.409
		c0.176-0.274,0.156-0.472,0.372-0.745c0.215-0.274,0.568-0.217,0.764-0.55c0.196-0.332,0.45-0.922,0.705-1.233
		c0.255-0.314,0.491-0.49,0.157-0.726c-0.334-0.235-0.744-1.176-1.116-1.216c-0.373-0.039-1.156-0.039-1.432-0.118
		c-0.273-0.078-0.686-0.449-0.352-0.882c0.333-0.429,0.765-0.332,0.803-0.722c0.039-0.393,0.589-0.609,0.822-0.668
		c0.236-0.058,0.823,0.276,0.844,0.353c0.019,0.081-0.021,0.667,0.215,0.609c0.235-0.061,0.313-0.335,0.392-0.157
		c0.08,0.176,0.49,0.704,0.844,0.724c0.352,0.021,0.41-0.078,0.979-0.234c0.568-0.159,1.821-0.295,2.312-0.433
		c0.489-0.136,1-0.217,0.745-0.745c-0.256-0.528-0.314-1.392-0.55-1.939C99.109,45.131,99.091,44.798,99.463,44.484z"/>
</g>
<g id="Layer_1">
</g>
</svg>
