<?xml version="1.0" encoding="iso-8859-1"?>
<!-- Generator: Adobe Illustrator 16.0.3, SVG Export Plug-In . SVG Version: 6.00 Build 0)  -->
<!DOCTYPE svg PUBLIC "-//W3C//DTD SVG 1.1//EN" "http://www.w3.org/Graphics/SVG/1.1/DTD/svg11.dtd">
<svg version="1.1" xmlns="http://www.w3.org/2000/svg" xmlns:xlink="http://www.w3.org/1999/xlink" x="0px" y="0px" width="100px"
	 height="100px" viewBox="0 0 100 100" style="enable-background:new 0 0 100 100;" xml:space="preserve">
<g id="AZ">
	<g>
		<g>
			<g>
				<path d="M22.706,74.237c-0.774-1.431-1.609-2.74-1.311-3.337c0.298-0.597,0.655-1.252,0.119-1.252
					c-0.537,0-1.37-0.656-2.324-1.014c-0.954-0.357-1.729-0.535-1.013-1.787c0.715-1.251,0.357-3.396-0.239-3.636
					c-0.596-0.238-1.43-0.953-2.085-0.179c-0.656,0.775-0.895,0.477-1.49,0.655c-0.596,0.179-1.132,1.015-1.967,1.015
					s-1.847-0.478-2.622-0.775s-0.894-0.716-0.953-1.191c-0.06-0.478-0.597-0.954-1.013-0.24c-0.417,0.716-1.192,0.776-1.132-0.595
					c0.06-1.37-0.358-2.563-1.192-3.04c-0.834-0.477-1.431-0.714-2.384,0.06c-0.954,0.774-1.072,0.774-1.43,0.478
					c-0.358-0.298-0.656-0.061-1.013,0.179c-0.253,0.168-0.475,0.662-0.584,0.938C0.027,60.631,0,60.71,0,60.71
					s0.299,1.191,0.895,1.607c0.596,0.419,1.132,1.729,1.43,2.386c0.298,0.654,0.895,0.596,0.715,1.251
					c-0.179,0.655-0.477,0.714,0.597,1.311c1.072,0.597,2.101,2.712,2.413,3.382c0.313,0.67,0.894,0.491,1.52,0.716
					c0.626,0.223,2.011,0.849,2.369,1.207c0.357,0.356,0.447,0.133,0.983,1.251c0.537,1.117,1.341,2.056,1.475,2.904
					c0.134,0.851-0.089,1.923,1.386,1.833c1.475-0.089,2.816-0.269,3.709,0.358c0.894,0.626,2.19,1.296,3.397,1.296
					s2.235,0.044,2.95,0.134c0.715,0.089,1.312,0.268,1.312,0.268s-0.179-1.191-0.596-2.144
					C24.136,77.515,23.48,75.668,22.706,74.237z"/>
			</g>
			<g>
				<path d="M99.911,45.99c-0.238-0.358-0.208-1.163-0.179-1.312c0.03-0.149,0.001-0.329-0.119-0.774
					c-0.119-0.447,0.06-0.895,0.06-1.282c0-0.387,0-1.102-0.417-1.371c-0.417-0.268-0.805-0.059-0.894,0.149
					c-0.09,0.209-0.119,0.775-0.119,0.775s-0.418-0.566-0.745-0.983c-0.328-0.418-0.566-0.418-0.834-0.447
					c-0.269-0.029-0.507-0.476-0.865-0.387c-0.357,0.089-0.714-0.239-1.102-0.746c-0.388-0.506-0.447-0.953-0.864-0.953
					s-1.014-0.031-1.312,0.059c-0.298,0.089-0.923,0.537-1.37,0.685c-0.447,0.149-1.699,0.149-2.384,0.03
					c-0.687-0.12-0.924-0.357-1.461-0.596c-0.536-0.238-0.655-0.15-1.191-0.329c-0.536-0.178-1.191-0.417-1.579-1.221
					c-0.388-0.804-0.358-0.953-0.239-1.55c0.12-0.596,0.27-0.714-0.059-1.191c-0.328-0.477-0.775-0.358-1.371-0.626
					c-0.596-0.268-0.835-0.357-1.014-0.685c-0.179-0.328-0.327-0.537-0.834-0.895c-0.506-0.357-1.042-1.103-1.608-1.937
					c-0.566-0.833-1.044-1.311-1.64-2.711s-0.833-1.639-1.043-2.652c-0.208-1.013,0.149-1.489-0.417-2.442
					c-0.565-0.955-0.774-1.282-1.877-2.444c-1.103-1.162-1.49-1.4-2.205-2.354c-0.716-0.954-1.252-1.49-1.996-2.742
					c-0.745-1.252-1.281-2.205-1.817-2.562c-0.537-0.357-0.835-0.715-1.759,0.089c-0.924,0.805-1.252,1.312-1.579,1.818
					s0,0.864-0.446,1.46c-0.447,0.596-1.103,1.341-1.848,1.848c-0.746,0.506-1.849,1.459-2.802,1.639
					c-0.953,0.179-1.758,0.208-2.025,0.208c-0.269,0-0.716,0.209-0.447,0.955c0.269,0.744-0.18,1.311-0.745,1.639
					c-0.566,0.328-0.894,0.476-0.864,0.923S55.871,23.791,55.513,24c-0.357,0.208,0.09,0.655-0.208,1.042
					c-0.298,0.388-0.328,0.507-0.805,0.686s-0.894,1.013-1.907,0.566c-1.013-0.447-1.639-1.043-2.294-0.537
					c-0.655,0.506-1.46,0.865-1.877,0c-0.417-0.864-0.566-0.715-1.401-0.715c-0.834,0-1.459-0.537-2.086-0.953
					c-0.625-0.418-1.072-0.835-1.042-1.252c0.03-0.417,0.298-1.013-0.328-1.132c-0.626-0.12-0.447-0.596-0.387-0.864
					c0.06-0.268,0.059-0.417-0.537-0.805c-0.596-0.388-0.715-1.132-0.715-1.609c0-0.477-0.447-0.507-0.894-0.269
					c-0.447,0.238-1.043,0.298-1.431-0.06c-0.387-0.357-0.387-0.894-0.387-1.251c0-0.357-0.179-0.537-0.715-0.805
					c-0.536-0.269-0.059-0.983-0.506-1.191c-0.447-0.209-1.609-0.149-2.026-0.835c-0.417-0.685-0.596-1.43-0.626-1.907
					c-0.03-0.476-0.477-0.268-0.834,0.179c-0.357,0.447-1.43,0.507-1.788,0.507c-0.357,0-0.745,0.358-0.983-0.537
					c-0.238-0.893-0.656-1.281-1.163-1.281c-0.463,0-0.996-0.071-1.176,0.144c-0.017,0.02-0.035,0.039-0.045,0.064
					c-0.12,0.298-0.357,0.685-0.596,1.222c-0.238,0.537-0.268,0.775-0.745,1.043c-0.477,0.267-1.133,0.267-1.818,0.297
					c-0.685,0.03-0.924,0.715-0.894,1.252c0.029,0.537,0.029,1.996,0.417,2.354c0.388,0.357,0.835,0.179,0.865-0.12
					c0.029-0.297,0.447-0.328,0.447,0.059c0,0.388,0.358,0.447,0.715,0.299c0.357-0.149,0.744,0.327,0.327,0.745
					c-0.417,0.417-0.506,0.745,0.03,1.34c0.537,0.596,1.073,1.37,2.503,1.758c1.431,0.387,2.026,0.596,2.145,0.983
					c0.12,0.387,0.387,0.685,0.686,0.864c0.298,0.179,0.983,0.596,1.103,1.162c0.119,0.567,0.148,0.835-0.239,1.282
					s-0.626,1.489-0.626,1.877c0,0.387-0.119,1.4-0.596,1.371c-0.477-0.029-0.983-0.238-1.341,0.149
					c-0.357,0.387-0.984,0.506-1.371,0.119s-0.953-0.924-1.549-0.655c-0.596,0.268-1.013-0.447-1.4-0.983s-0.417-0.924-1.251-0.775
					s-1.49-0.118-2.116,0.179s-0.983,0-1.967,0s-1.4-0.387-2.801-0.894c-1.4-0.507-2.742-1.163-2.414-1.788
					c0.328-0.626,1.132-1.133,0.328-1.401c-0.804-0.268-1.489-0.298-2.413-0.834c-0.924-0.537-1.669-0.894-2.562-1.311
					c-0.894-0.417-2.026-0.715-2.682-0.328c-0.655,0.388-2.384,1.668-3.04,2.324c-0.581,0.582-1.136,1.348-1.109,1.764
					c0.003,0.053,0.013,0.103,0.037,0.143c0.208,0.358,0.357,0.626-0.03,1.044c-0.388,0.417-0.149,0.745,0.119,1.013
					c0.268,0.269,0.923,0.089,1.102-0.149c0.179-0.238,0.924-0.149,1.222,0.387s0.686,1.431-0.06,1.549
					c-0.745,0.12-0.923,0.418-0.715,0.775c0.209,0.357,0.834,1.103,1.907,1.042c1.073-0.059,2.325-0.088,2.682,0.09
					c0.358,0.179,0.12,0.656-0.089,0.924c-0.208,0.268,0.089,0.536,0.387,0.625c0.298,0.089,0.597,0.745,1.043,1.013
					c0.447,0.268,1.013,0.595,1.52,0.804c0.506,0.208,0.656,0.566,0.358,1.163c-0.298,0.595-1.103,1.072-1.49,1.311
					c-0.388,0.239-0.597,0.477-0.954,0.477s-0.745,0.238-0.924,0.625c-0.178,0.387-0.149,0.477-0.655,0.507
					c-0.507,0.029-0.328,0.565-0.208,0.744c0.119,0.179,0.477,0.626,0.625,1.043c0.149,0.417,0.567,0.178,0.834,0.655
					c0.269,0.478-0.119,1.46,0.238,1.848c0.358,0.387,0.745,0.327,1.162,0.834s1.222,0.895,2.265,1.848
					c1.042,0.954,1.49,0.745,2.056,0.954c0.566,0.208,1.162,0.596,1.431,0.954c0.268,0.357,0.446,0.506,0.983,0.537
					c0.537,0.029,0.924,0.535,1.163,0.982c0.238,0.447,0.179,1.282-0.09,1.937c-0.268,0.656-0.328,0.924-0.745,1.222
					c-0.417,0.298-0.388,1.133-0.625,1.43c-0.239,0.298-0.834,1.014-1.222,0.745c-0.388-0.268-1.013-0.685-2.056-0.565
					c-1.043,0.118-1.908,0.327-1.908,0.834c0,0.506,0.715,0.537,0.954,0.537c0.238,0,0.863,0.088,1.549,0.475
					c0.685,0.389,0.655,0.151,0.714,0.836c0.06,0.685,0.447,1.52,0.775,1.936c0.328,0.418,1.013,0.746,1.55,0.746
					s1.371-0.12,1.847,0.774c0.477,0.894,0.537,1.49,0.984,1.609c0.447,0.118,0.834,0.238,1.281,0.686
					c0.447,0.447,0.895,1.43,1.877,1.132c0.983-0.299,1.49-1.162,2.325-0.685c0.834,0.476,0.327,1.43,0.983,1.31
					c0.655-0.118,1.758-0.298,2.086-0.059c0.328,0.237,0.328,0.715-0.149,0.923c-0.477,0.209-0.894,0.506-0.626,0.805
					s0.387,0.447,0.03,0.655c-0.358,0.209-0.625,0.358-1.162,0.358s-1.162,0.357-0.983,0.805c0.178,0.447,0.357,1.103,1.072,1.34
					c0.715,0.239,1.192,0.418,1.4,1.014c0.208,0.596,0.537,1.132,0.954,1.459c0.417,0.33,0.655,0.269,0.417,0.597
					c-0.238,0.328-0.595,0.984-0.774,0.984c-0.179,0-0.894-0.895-1.103-0.865c-0.208,0.03-0.238,0.209-0.357,0.418
					c-0.12,0.208-0.983-0.149-0.894,0.357s0.715,0.417,0.954,0.834s0.03,0.835,0.387,0.924c0.357,0.09,0.537,0.178,0.537,0.507
					c0,0.327,0.298,1.103,0.506,1.877c0.209,0.775,0.269,0.924,0.12,1.669c-0.149,0.744-0.149,1.252-0.12,1.431
					c0.03,0.179,0.09,0.446,0.09,0.446s0.983,0,1.608-0.804c0.626-0.806,1.564-1.52,1.877-2.057
					c0.313-0.536,0.313-1.252,0.224-1.922s0.715-1.743,1.207-2.235c0.492-0.491,1.028-0.357,1.699-0.089s1.385,0.134,2.011-0.85
					c0.626-0.982,1.43-2.592,2.056-2.771c0.625-0.179,1.385-0.715,2.101-1.519c0.715-0.806,1.118-1.521,1.966-1.699
					c0.85-0.18,1.922-0.446,2.414-1.027c0.492-0.582,1.43-0.761,2.324-1.431c0.894-0.67,1.788-1.43,2.458-1.742
					c0.67-0.313,1.431-0.358,1.698-0.225c0.269,0.135,1.162-0.491,1.297-0.938c0.134-0.447,0.446-0.849,1.787,0.581
					c1.341,1.431,3.531,3.71,4.515,4.559c0.983,0.85,1.564,1.52,0.401,1.967c-1.161,0.447-1.966,1.028-2.636,1.789
					c-0.671,0.759-0.537,2.056,0.401,2.591c0.939,0.537,2.369,1.297,2.771,2.235s1.207,2.19-0.491,2.95s-3.309,1.117-3.979,1.386
					c-0.67,0.268-0.849,1.386-0.536,1.787c0.312,0.403,1.743,1.296,2.727,1.743c0.983,0.446,1.833,0.536,1.833,1.297
					c0,0.76,0.715,1.833,1.475,2.19c0.759,0.356,1.788-0.626,2.101-0.313c0.312,0.313,0.581,1.207,1.386,1.967
					c0.805,0.759,1.52,2.056,2.815,1.877c1.297-0.18,2.235-0.536,2.771-0.804c0.536-0.269,0.983-0.314,0.983-0.895
					c0-0.581-0.149-1.072-0.09-1.729c0.06-0.655-0.029-1.161-0.238-1.728c-0.208-0.565-0.506-0.805-0.298-1.281
					c0.209-0.477,0.357-1.073-0.06-1.937c-0.417-0.864-0.716-1.014-0.805-1.431c-0.09-0.416,0.03-1.608,0.238-2.294
					c0.209-0.686,0.566-0.983,1.073-0.954c0.507,0.031,0.536,0.447,0.328,1.043c-0.209,0.596-0.447,1.014-0.656,1.281
					c-0.209,0.269-0.268,0.508-0.029,0.627c0.238,0.118,0.298-0.091,0.686-0.776c0.387-0.685,0.565-1.668,0.565-2.293
					c0-0.626-0.209-1.073-0.685-1.371c-0.478-0.298-0.626-0.477-0.626-0.477s0.387-0.181,0.387-0.596
					c0-0.418,0.179-0.864,0.239-1.311c0.06-0.447,0.596-0.537,0.804-0.627c0.209-0.089,0.389-0.357,0.389-0.746
					c0-0.386,0.297-0.416,0.445-0.386c0.149,0.029,0.269,0.417,0.21,0.953c-0.061,0.537,0.148,0.656,0.297,0.806
					c0.149,0.147,0.238,0.475,0.238,0.595c0,0.119,0.269,0.417,0.477,0.179c0.209-0.237,0.448-0.565,0.925-0.208
					c0.477,0.356,0.356,0.506,0.416,0.715c0.061,0.209,0.03,0.775-0.238,1.044c-0.268,0.267-0.834,0.477-0.924,0.714
					c-0.089,0.239-0.119,0.239,0,0.388c0.12,0.149,0.209,0.327-0.089,0.565c-0.298,0.239-0.029,0.537,0.149,0.537
					s0.477,0.118,0.565,0.208c0.09,0.09,0.388,0,0.686-0.269c0.299-0.267,0.477-0.089,0.507-0.596
					c0.029-0.506-0.149-1.013,0.149-1.341c0.298-0.327,0.327-1.311,0.327-2.264c0-0.954-0.029-1.609-0.029-2.562
					s-0.06-1.669,0.357-2.026c0.417-0.358,1.133-0.358,1.37,0.089c0.239,0.447,0.864,0.953,1.043,0.805
					c0.179-0.149-0.119-0.507-0.417-0.715c-0.298-0.209-0.536-0.447-0.536-0.655c0-0.209,0.118-0.209,0.357-0.03
					c0.238,0.18,0.507,0.477,0.685,0.477c0.18,0,0.18-0.357,0.21-0.744c0.029-0.388,0.059-0.656-0.418-0.716
					s-0.716-0.119-1.251-0.597c-0.536-0.476-0.864-0.953-0.834-1.52c0.029-0.565,0.119-0.924,0.327-1.34
					c0.208-0.418,0.328-1.163,0.507-1.58c0.178-0.417,0.477-0.923,0.864-1.281c0.387-0.357,0.774-0.565,0.417-1.103
					c-0.358-0.535-0.417-1.103-0.328-1.669c0.09-0.564,0.596-1.072,0.506-1.608c-0.089-0.537-0.327-1.163-0.118-1.49
					c0.208-0.328,0.506-0.775,0.774-0.953c0.268-0.179,0.388-0.565-0.179-0.805s-0.834-0.654-0.805-1.072
					c0.029-0.417,0.388-0.745,0.745-0.745s0.983-0.12,0.655-0.537c-0.327-0.417-0.655-0.924-0.089-1.222
					c0.565-0.298,0.953-0.894,2.146-1.52c1.191-0.626,1.579-1.013,2.086-1.043c0.506-0.029,0.506-0.267,0.715-0.446
					c0.208-0.179,0.834-0.09,1.013-0.209c0.179-0.12,0.328-0.686,0.328-0.864c0-0.179,0.507-0.447,0.924-0.447
					s0.745,0.268,1.043,0.447c0.298,0.179,0.477,0.119,0.804,0c0.328-0.12,0.597-0.179,0.954-0.179s0.388-0.208,0.805-0.357
					s0.953-0.238,1.191-0.149c0.239,0.089,0.477,0.299,0.477,0.299s0.388-0.179,0.895,0c0.506,0.179,1.162,0.595,1.4,1.013
					c0.238,0.417,0.298,1.042,0.477,1.131S100.149,46.347,99.911,45.99z"/>
			</g>
		</g>
	</g>
</g>
<g id="Layer_1">
</g>
</svg>
