<?xml version="1.0" encoding="iso-8859-1"?>
<!-- Generator: Adobe Illustrator 16.0.3, SVG Export Plug-In . SVG Version: 6.00 Build 0)  -->
<!DOCTYPE svg PUBLIC "-//W3C//DTD SVG 1.1//EN" "http://www.w3.org/Graphics/SVG/1.1/DTD/svg11.dtd">
<svg version="1.1" xmlns="http://www.w3.org/2000/svg" xmlns:xlink="http://www.w3.org/1999/xlink" x="0px" y="0px" width="100px"
	 height="100px" viewBox="0 0 100 100" style="enable-background:new 0 0 100 100;" xml:space="preserve">
<g id="BF">
	<path d="M62.938,13.389c0.33-0.003,0.734-0.021,1.014,0.035c0.102,0.175,0.285,0.849,0.44,0.913
		c0.229,0.146,0.469-0.139,0.61-0.203c0.097-0.043,0.184-0.017,0.271-0.067c0.325-0.188,0.711-0.538,1.147-0.575
		c0.321,0.232,0.986,0.324,1.391,0.474c0.959,0.358,1.987,0.688,2.941,1.049c0.34,0.129,1.487,0.367,1.593,0.643
		c0.06,0.069,0.064,0.131,0.064,0.272c-0.17,0.184-0.289,0.402-0.473,0.575c0.114,0.516,0.5,0.68,0.509,1.285
		c-0.211,0.299-0.211,0.789-0.339,1.151c-0.17,0.47-0.367,1.012-0.473,1.522c-0.097,0.454,0.44,0.95,0.643,1.151
		c0.252,0.253,0.541,0.587,0.844,0.778c0.124,0.045,0.248,0.091,0.372,0.135c0.092,0.061,0.45,0.619,0.542,0.745
		c0.165,0.221,0.49,0.421,0.578,0.71c0.064,0.23-0.134,0.337-0.17,0.474c-0.064,0.219,0.027,0.416-0.069,0.575
		c-0.138,0.235-0.381,0.276-0.403,0.644c0.156,0.104,0.459,0.373,0.505,0.575c0.032,0.146-0.102,0.171-0.032,0.304
		c0.06,0.167,0.229,0.196,0.303,0.34c0.037,0.146,0.069,0.292,0.101,0.439c0.06,0.089,0.519,0.363,0.643,0.474
		c-0.032,0.147-0.082,0.202-0.101,0.372c0.119,0.113,0.316,0.274,0.408,0.406c0.138,0.205,0.17,0.472,0.372,0.609
		c0.087,0.033,0.179,0.068,0.271,0.102c0.147,0.18,0.294,0.36,0.44,0.541c0.156,0.105,0.262,0.039,0.335,0.237
		c0.134,0.202-0.133,0.501-0.169,0.71c0.077,0.082,0.105,0.171,0.206,0.236c0.303,0.234,1.414-0.033,1.96,0.069
		c0.051,0.078,0.146,0.17,0.17,0.27c0.027,0.131-0.088,0.241,0.032,0.338c0.289,0.229,0.711-0.046,1.083,0.068
		c0.192,0.059,0.449,0.192,0.61,0.305c0.349,0.24,0.862,0.475,1.083,0.846c0.225,0.376-0.06,0.769,0.372,1.049
		c0.184,0.067,0.362,0.135,0.541,0.203c0.097,0.057,0.184,0.179,0.271,0.236c0.174,0.115,0.398,0.083,0.61,0.17
		c0.146,0.061,0.298,0.192,0.473,0.236c0.229,0.056,0.385-0.121,0.573-0.068c0.253,0.071,0.404,0.41,0.578,0.576
		c-0.004,0.112-0.019,0.152-0.036,0.236c-0.134,0.065-0.216,0.102-0.437,0.102c-0.133-0.112-0.294-0.258-0.509-0.271
		c-0.074,0.122-0.134,0.271-0.17,0.439c-0.078,0.045-0.156,0.091-0.239,0.136c-0.734-0.183-1.358-0.496-2.098-0.677
		c-0.022,0.035-0.041,0.068-0.063,0.102c-0.129,0.167-0.069,0.635-0.069,0.914c0,0.501,0.019,0.966,0.032,1.354
		c0.009,0.263-0.046,0.539,0,0.778c0.051,0.239-0.105,0.59,0.037,0.812c0.036,0.122,0.114,0.196,0.233,0.236
		c0.34,0.229,1.015,0.048,1.354,0.271c0.316,0.208,0.573,0.563,0.881,0.778c1.125,0.789,2.111,1.748,3.213,2.573
		c0.413,0.309,0.794,0.667,1.221,0.981c0.105,0.08,0.202,0.253,0.335,0.304c0.726,0.271,1.717,0.156,2.607,0.237
		c0.233,0.022,0.633,0.16,0.913,0.068c0.381-0.125,0.473-0.636,0.679-0.948c0.124-0.189,0.193-0.081,0.437-0.169
		c0.28-0.102,0.248-0.446,0.643-0.474c0.229,0.149,0.739,0.117,1.083,0.101c0.083-0.011,0.16-0.023,0.238-0.034
		c0.083,0.024,0.166,0.157,0.239,0.203c0.216,0.137,0.367,0.199,0.473,0.439c0.041,0.091,0.014,0.162,0.068,0.238
		c0.083,0.121,0.248,0.117,0.372,0.203c0.105,0.072,0.303,0.33,0.372,0.439c0.174,0.29,0.032,0.649,0.133,1.014
		c0.073,0.256,0.289,0.382,0.408,0.576c0.119,0.192,0.078,0.685,0.032,0.913c-0.051,0.029-0.097,0.062-0.133,0.101
		c-0.294-0.081-0.523,0.002-0.812,0.069c-0.114-0.012-0.225-0.023-0.34-0.035c-0.142,0.042-0.289,0.21-0.44,0.271
		c-0.344,0.14-0.615-0.035-0.61,0.474c0.097,0.104,0.124,0.254,0.206,0.373c0.17,0.243,0.358,0.49,0.542,0.744
		c0.666,0.927,1.437,1.808,2.098,2.739c0.229,0.331,0.481,0.631,0.711,0.95c0.134,0.188,0.18,0.438,0.473,0.473
		c0.074-0.048,0.11-0.019,0.202,0c0.193,0.326,0.097,0.277,0,0.574c-0.009,0.114-0.022,0.227-0.032,0.339
		c-0.036,0.058-0.146,0.097-0.17,0.17c-0.096,0.267,0.019,0.547-0.138,0.778c-0.243,0.364-0.679,0.517-0.706,1.117
		c0.055,0.064,0.119,0.232,0.101,0.271c-0.11,0.376-0.45,0.349-0.748,0.541c-0.078,0.087-0.156,0.179-0.234,0.271
		c-0.257,0.184-0.523,0.292-0.78,0.473c-0.124,0.088-0.211,0.28-0.303,0.404c-0.16,0.146-0.316,0.294-0.473,0.44
		c-0.248,0.28-0.491,0.546-0.748,0.812c-0.146,0.156-0.262,0.391-0.436,0.51c-0.262,0.17-0.652,0.064-0.95,0
		c-0.17-0.037-0.354,0.062-0.473,0.032c-0.156-0.037-0.34-0.262-0.542-0.236c-0.51,0.062-0.973,0.259-1.423,0.371
		c-0.17-0.011-0.335-0.021-0.505-0.034c-0.445,0.117-0.812,0.422-1.354,0.44c-0.156-0.174-0.564-0.78-0.744-0.845
		c-0.124,0-0.247,0-0.371,0c-0.455-0.119-1.433-0.188-1.423,0.505c0.05,0.081,0.019,0.147,0,0.239
		c-0.275,0.17-0.519,0.357-0.744,0.573c0.015,0.296,0.156,0.285,0.17,0.61c-0.073,0.074-0.06,0.124-0.17,0.17
		c-0.119,0.071-0.436-0.041-0.61-0.068c-0.05,0.367-0.032,0.684-0.473,0.677c-0.225-0.31-0.619-0.014-1.014-0.168
		c-0.088-0.036-0.102-0.109-0.239-0.138c-0.064,0.102-0.11,0.12-0.138,0.271c0.188,0.186,0.248,0.684,0.271,1.014
		c-0.102,0.051-0.188,0.131-0.372,0.104c-0.01-0.002-0.069-0.053-0.133-0.034c-0.088,0.027-0.428,0.355-0.441,0.473
		c0.056,0.064,0.537,1.097,0.542,1.187c-0.069,0.066-0.124,0.177-0.202,0.135c-0.192-0.073-0.312-0.401-0.643-0.305
		c-0.092,0.025-0.124,0.085-0.271,0.101c-0.161-0.167-0.395-0.332-0.68-0.371c-0.124,0.199-0.308,0.353-0.335,0.645
		c0.097,0.097,0.175,0.238,0.202,0.403c-0.041,0.03-0.041,0.028-0.068,0.069c-0.396-0.184-0.445,0.11-0.882,0
		c-0.165-0.044-0.523-0.119-0.743-0.069c-0.124,0.028-0.308,0.11-0.505,0.069c-0.229-0.051-1.4-0.105-1.661-0.034
		c-0.289,0.08-0.597,0.266-0.882,0.371c-0.248,0.095-1.119,0.526-1.248,0.236c-0.051-0.114,0.068-0.165,0.032-0.303
		c-0.027-0.11-0.184-0.396-0.303-0.44c-0.134-0.083-0.299-0.053-0.478-0.101c-0.602-0.17-1.253-0.202-1.891-0.372
		c-1.538-0.413-3.272-0.496-4.843-0.913c-0.522-0.143-1.758-0.523-2.267-0.44c0.014,0.225,0.009,0.312-0.032,0.507
		c-0.423,0.087-0.726,0.351-0.982,0.608c-0.06-0.021-0.032-0.005-0.068-0.032c-0.239-0.105-0.138-0.354-0.505-0.372
		c-0.056,0.037-0.198,0.051-0.271,0.064c-0.105,0.248-0.087,0.488-0.138,0.748c-0.298,0.192-0.597,0.566-0.945,0.675
		c-0.294,0.092-0.495-0.019-0.743-0.032c-0.151,0.344-0.289,0.918-0.712,0.979c-0.188-0.177-0.509-0.323-0.61-0.576
		c-0.036-0.068-0.004-0.167,0-0.303c-0.146-0.039-0.262-0.145-0.403-0.17c-0.229-0.041-0.661,0.037-0.95,0.035
		c-0.326-0.007-0.51-0.102-0.812-0.069c-0.114,0.193-0.225,0.399-0.542,0.406c-0.073-0.124-0.206-0.344-0.335-0.406
		c-0.201-0.149-0.629-0.021-0.849-0.066c-0.243-0.055-0.835-0.204-1.115-0.138c-0.271,0.068-0.597,0.316-1.015,0.238
		c-0.243-0.046-0.505,0.037-0.78,0c-0.357-0.048-0.716-0.032-1.147-0.034c-0.17,0.012-0.339,0.023-0.509,0.034
		c-0.478-0.082-0.758-0.266-1.152-0.371c-0.179,0-0.358,0-0.542,0c-0.353-0.003-0.738-0.023-1.083,0
		c-0.046,0.092-0.101,0.22-0.201,0.271c-0.207,0.156-0.85,0.066-1.185,0.066c-0.767,0-1.61-0.048-2.2,0
		c-0.243,0.021-0.553-0.058-0.743-0.034c-0.507,0.068-1.067,0-1.59,0c-0.379,0-0.799,0.068-1.152,0
		c-0.342-0.064-0.792,0.09-1.115,0.034c-0.576-0.097-1.384-0.085-1.861,0c-0.248-0.012-0.496-0.022-0.746-0.034
		c-0.589,0-1.269,0.034-1.758,0c-0.158-0.01-0.404-0.064-0.61,0c-0.055,0.019-0.146,0.119-0.202,0.138
		c-0.28,0.087-0.78-0.014-0.948-0.034c-0.202-0.025-0.461,0.075-0.608,0.034c-0.092-0.027-0.149-0.175-0.238-0.204
		c-0.239-0.085-0.73-0.01-0.845,0.034c-0.025,0.068-0.034,0.156-0.034,0.271c0.227,0.234,0.362,0.68,0.135,1.015
		c-0.105,0.156-0.358,0.156-0.44,0.34c-0.101,0.155-0.067,0.342-0.136,0.541c-0.08,0.229-0.262,0.489-0.337,0.709
		c0,0.067,0,0.136,0,0.204c-0.069,0.193-0.238,0.258-0.271,0.505c0.417,0.452-0.266,0.826-0.135,1.253
		c0.064,0.212,0.254,0.515,0.337,0.712c0.074,0.17,0.03,0.323,0.104,0.507c0.027,0.073,0.131,0.11,0.167,0.17
		c0.023,0.102,0.046,0.204,0.069,0.306c0.057,0.142,0.45,0.594,0.574,0.675c0.19,0.123,0.544-0.019,0.645,0.204
		c0.214,0.369-0.583,0.403-0.677,0.643c-0.087,0.099-0.124,0.461-0.135,0.607c0.227,0.141,0.369,0.372,0.574,0.51
		c0.108,0.071,0.234,0,0.374,0.066c0.048,0.025,0.092,0.131,0.133,0.17c0.009,0.476-0.328,0.787-0.574,1.017
		c0.009,0.175,0.071,0.223,0.101,0.335c0,0.262,0,0.521,0,0.78c-0.011,0.225-0.023,0.45-0.034,0.677
		c0.101,0.321,0.42,0.641,0.507,0.914c0.149,0.461-0.337,0.777-0.202,1.218c0.096,0.312,0.36,0.416,0.372,0.845
		c-0.232,0.211-0.833,0.906-0.643,1.389c0.039,0.099,0.124,0.075,0.204,0.135c0.129,0.097,0.306,0.466,0.337,0.643
		c-0.204,0.212-0.312,0.528-0.337,0.914c0.113,0.105,0.177,0.284,0.303,0.371c0.11,0.078,0.239,0.088,0.339,0.17
		c0.064,0.056,0.39,0.528,0.406,0.61c0.042,0.216-0.197,0.234-0.271,0.338c-0.151,0.209-0.159,0.493-0.305,0.711
		c-0.078,0.115-0.239,0.177-0.337,0.269c-0.105,0.005-0.216,0.007-0.271-0.032c-0.346-0.128-0.539-0.5-0.746-0.78
		c-0.113-0.101-0.225-0.202-0.337-0.303c-0.223-0.319-0.39-0.624-0.61-0.945c-0.108-0.161-0.305-0.308-0.372-0.51
		c0-0.092,0-0.179,0-0.271c-0.083-0.25-0.573-1.386-0.743-1.487c-0.2-0.124-0.51,0.032-0.677,0.066
		c-0.146,0.028-0.2-0.043-0.305-0.066c-0.101-0.16-0.202-0.316-0.305-0.478c-0.085-0.238-0.039-0.514-0.167-0.709
		c-0.112-0.101-0.227-0.204-0.339-0.305c-0.166,0.014-0.314,0.138-0.438,0.101c-0.269-0.068-0.314-0.519-0.305-0.879
		c-0.042-0.029-0.039-0.027-0.069-0.066c-0.012,0-0.023,0-0.032,0c0,0.009,0,0.023,0,0.032c-0.096,0.064-0.411,0.294-0.475,0.374
		c-0.06,0.076-0.08,0.229-0.17,0.269c-0.101,0-0.202,0-0.303,0c-0.404,0.218-0.354-0.457-0.44-0.505c-0.078,0-0.159,0-0.236,0
		c-0.156-0.055-0.262-0.243-0.406-0.306c-0.115-0.05-0.466-0.119-0.576-0.103c-0.034,0.007-0.149,0.055-0.236,0.036
		c-0.294-0.071-1.322-0.282-1.726-0.17c-0.135,0.037-0.216,0.12-0.406,0.134c-0.147-0.161-0.319-0.391-0.608-0.404
		c-0.172,0.229-1.024,0.014-1.423,0.17c-0.147,0.133-0.292,0.271-0.438,0.404c-0.31,0.119-0.778-0.085-1.118,0.034
		c-0.197,0.071-0.427,0.314-0.643,0.406c-0.103,0.022-0.204,0.046-0.305,0.068c-0.128,0.083-0.112,0.319-0.236,0.404
		c-0.213,0.149-0.372,0-0.576,0.068c-0.129,0.044-0.166,0.267-0.305,0.306c-0.195,0.055-0.78-0.355-1.083-0.374
		c-0.138,0.146-0.358,0.241-0.473,0.408c-0.252,0.367-0.298,0.514-0.948,0.505c-0.131,0.229-0.39,0.473-0.473,0.712
		c0,0.138,0,0.271,0,0.405c-0.069,0.221-0.319,0.829-0.576,0.848c-0.08-0.117-0.236-0.212-0.406-0.239
		c-0.035,0.027-0.009,0.014-0.067,0.037c-0.037,0.266-0.002,0.415-0.339,0.403c-0.064-0.105-0.221-0.197-0.271-0.303
		c-0.128-0.271-0.014-0.507-0.303-0.61c-0.172-0.099-0.337,0.11-0.61,0.069c-0.136-0.023-0.271-0.046-0.406-0.069
		c-0.076-0.112-0.124-0.107-0.136-0.303c-0.156-0.238,0.053-0.583,0.069-0.812c-0.071-0.039-0.062-0.051-0.169-0.068
		c-0.09,0.188-0.131,0.582-0.406,0.677c-0.039,0.027-0.058,0.025-0.135,0.034c-0.081-0.073-0.397-0.372-0.441-0.34
		c-0.083,0.042-0.161,0.147-0.236,0.17c-0.089-0.012-0.179-0.022-0.271-0.032c-0.005,0-0.273,0.303-0.306,0.335
		c-0.507-0.014-0.466-0.434-0.677-0.743c-0.078-0.069-0.156-0.133-0.236-0.202c-0.138,0.041-0.209,0.165-0.303,0.133
		c-0.354-0.096-0.457-0.385-0.677-0.605c0-0.022,0-0.046,0-0.068c0.145-0.083,0.262-0.143,0.271-0.372
		c0.039-0.073,0.016-0.076,0-0.17c-0.262-0.151-0.404-0.372-0.61-0.507c-0.113-0.076-0.641-0.214-0.778-0.236
		c-0.039,0.046-0.179,0.188-0.236,0.201c-0.215,0.046-0.643-0.44-0.643-0.674c0.411-0.391-0.007-0.717-0.034-1.187
		c0.06-0.035,0.225-0.168,0.17-0.204c-0.083-0.311-0.225-0.358-0.475-0.505c-0.055-0.069-0.112-0.138-0.167-0.205
		c-0.19-0.089-0.331,0.017-0.441-0.135c-0.06-0.078-0.184-0.294-0.169-0.406c0.009-0.073,0.108-0.177,0.069-0.306
		c-0.016-0.05-0.12-0.096-0.136-0.133c-0.03-0.068-0.018-0.192-0.034-0.238c-0.104-0.027-0.128,0.009-0.202-0.069
		c-0.043-0.064-0.016-0.241-0.069-0.303c-0.073-0.087-0.229-0.078-0.271-0.202c-0.078-0.238,0.147-0.619,0.066-0.78
		c-0.039-0.142-0.108-0.243-0.271-0.271c-0.512,0.418-0.667-0.122-0.913-0.236c-0.22-0.104-0.438,0.053-0.643,0
		c-0.019-0.005-0.066-0.062-0.101-0.066c-0.262-0.037-0.337,0.213-0.507,0.271c-0.147-0.014-0.294-0.022-0.441-0.034
		c-0.181,0.041-0.385,0.158-0.643,0.066c-0.213-0.073-0.335-0.349-0.475-0.507c-0.074-0.085-0.205-0.071-0.303-0.136
		C0.571,73.652,0.073,72.712,0,72.437c0-0.124,0-0.248,0-0.372c0.105-0.413,0.486-0.707,0.608-1.115
		c0.101-0.345-0.117-0.719-0.034-0.982c0.025-0.078,0.145-0.165,0.17-0.238c-0.012-0.18-0.023-0.358-0.035-0.539
		c0.028-0.117,0.108-0.265,0.135-0.374c0-0.102,0-0.202,0-0.304c0.06-0.201,0.262-0.257,0.34-0.406
		c0.023-0.135,0.046-0.271,0.066-0.406c0.081-0.211,0.195-0.279,0.205-0.61c-0.138-0.14-0.381-0.417-0.441-0.607
		c-0.08-0.25,0.007-0.659-0.034-0.879c-0.058-0.021-0.105-0.032-0.202-0.035c-0.037,0.025-0.032,0.021-0.101,0.035
		c-0.048-0.088-0.066-0.119-0.069-0.271c0.12-0.188-0.032-0.427-0.066-0.541c-0.069-0.225,0.032-0.478,0.066-0.643
		c0.51-0.301,2.107-0.186,2.302-0.712c0.17-0.199-0.037-0.573,0.066-0.812c0.117-0.265,0.512-0.331,0.643-0.574
		c0.09-0.16-0.011-0.33,0-0.51c0.03-0.398-0.007-1.025,0.069-1.42c0.17-0.09,0.567-0.186,0.608-0.406
		c-0.379-0.376,0.115-1.35-0.167-1.861c-0.2-0.357-0.764-0.138-0.916-0.541c-0.115-0.202,0.13-0.418,0.204-0.542
		c0.053-0.087,0.181-0.966,0.135-1.117C3.346,55,2.15,55.214,1.928,54.672c-0.048-0.075-0.019-0.112,0-0.204
		c0.062-0.027,0.124-0.055,0.169-0.101c0.17,0.046,0.337,0.092,0.507,0.135c0.058-0.014,0.17-0.114,0.236-0.135
		c0.104,0,0.204,0,0.305,0c0.053-0.019,0.117-0.119,0.17-0.134c0.154-0.046,0.296,0.115,0.406,0.064
		c0.119-0.082,0.151-0.255,0.271-0.337c0.126-0.09,0.252-0.112,0.372-0.204c0.275-0.204,0.459-0.588,0.744-0.776
		c0.101-0.022,0.204-0.046,0.305-0.068c0.202-0.083,0.482-0.25,0.677-0.303c0.147,0.009,0.294,0.021,0.44,0.032
		c0.025-0.007,0.108-0.097,0.133-0.102c0.161-0.039,0.342,0.053,0.542,0c0.207-0.055,0.349-0.22,0.542-0.271
		c0.305,0.032,0.61,0.068,0.914,0.101c0.138-0.043,0.195-0.238,0.406-0.201c0.372,0.063,0.812,0.325,1.117,0.201
		c0.262-0.101,0.342-0.525,0.576-0.677c0.211-0.135,0.502-0.039,0.778-0.101c0.12-0.275,0.104-0.588,0.337-0.746
		c0.252-0.165,0.702,0.019,0.778-0.337c-0.133-0.127-0.227-0.289-0.236-0.542c0.163-0.107,0.255-0.292,0.406-0.406
		c0.202-0.151,0.537-0.302,0.677-0.507c0.168-0.246-0.041-0.595,0.271-0.71c0.081-0.065,0.186-0.07,0.34-0.068
		c0.135,0.124,0.268,0.248,0.406,0.372c0.058-0.021,0.032-0.006,0.067-0.033c0.062-0.054,0.048-0.03,0.066-0.136
		c-0.131-0.178-0.112-0.499-0.202-0.711c-0.122-0.289-0.328-0.418-0.337-0.845c0.138-0.148,0.153-0.363,0.268-0.542
		c0.138-0.208,0.358-0.379,0.544-0.54c-0.066-0.25-0.463-1.061-0.645-1.184c-0.294-0.206-0.595-0.224-0.643-0.678
		c0.308-0.382-0.166-0.733,0.677-0.71c0.12-0.118,0.959-0.437,1.219-0.271c0.211,0.077,0.305,0.31,0.507,0.373
		c0.182,0.055,0.379-0.061,0.475-0.102c0.533-0.231,0.502-0.536,0.643-1.116c0.046-0.193-0.126-0.275-0.135-0.474
		c-0.021-0.43,0.163-0.8,0.032-1.184c-0.099-0.295-0.471-0.383-0.643-0.609c-0.188-0.249-0.2-0.589-0.372-0.845
		c-0.236-0.353-0.463-0.293-0.473-0.948c0.113-0.122,0.138-0.298,0.236-0.439c0.078-0.116,0.239-0.175,0.337-0.271
		c0.305,0.001,0.417,0.092,0.711,0.101c0.032-0.06,0.042-0.056,0.069-0.135c-0.174-0.152-0.236-0.34-0.17-0.643
		c0.092-0.042,0.243-0.072,0.337-0.136c0.089-0.113,0.181-0.225,0.271-0.338c0.122-0.073,0.163,0.036,0.305,0
		c0.174-0.043,0.415-0.237,0.507-0.372c0.229-0.34,0.287-0.938,0.608-1.184c0.156-0.12,0.342-0.088,0.542-0.17
		c0.105-0.043,0.122-0.178,0.204-0.236c0.273-0.192,0.592-0.045,0.608-0.508c-0.074-0.058-0.083-0.082-0.101-0.203
		c0.11-0.104,0.117-0.162,0.337-0.168c0.08,0.056,0.158,0.112,0.239,0.168c0.032,0.102,0.066,0.203,0.101,0.305
		c0.184,0.179,0.383-0.002,0.406,0.372c-0.027,0.035-0.011,0.009-0.034,0.068c-0.074,0.031-0.31,0.075-0.372,0.135
		c-0.021,0.021-0.231,0.389-0.236,0.441c0.035,0.01,0.067,0.021,0.101,0.033c0.188,0.092,0.466-0.17,0.778-0.068
		c0.22,0.071,0.427,0.305,0.643,0.372c0.216,0.066,0.356-0.082,0.542,0.034c0.182,0.168,0.36,0.338,0.542,0.507
		c0.078,0.104,0.131,0.265,0.237,0.338c0.188,0.129,0.458,0.139,0.642,0.271c0.324,0.229,0.687,0.763,1.051,0.914
		c0.112,0,0.225,0,0.337,0c0.128,0.049,0.167,0.256,0.305,0.305c0.135,0,0.271,0,0.406,0c0.195,0.045,0.431,0.094,0.677,0.101
		c0.037-0.06,0.085-0.123,0.135-0.169c-0.002-0.515-0.287-0.598-0.204-1.048c0.356-0.202,0.659-0.023,1.118-0.137
		c0.055-0.014,0.186-0.087,0.236-0.101c0.427-0.112,0.821,0.036,1.184-0.033c0.012-0.035,0.023-0.069,0.035-0.102
		c0.06-0.097,0.041-0.367,0-0.507c-0.03-0.102-0.133-0.214-0.17-0.305c-0.087-0.216-0.058-0.493-0.067-0.778
		c-0.011-0.328,0.016-0.621-0.069-0.981c-0.025-0.112-0.133-0.436-0.101-0.576c0.027-0.126,0.227-0.248,0.271-0.372
		c0.023-0.383,0.046-0.768,0.067-1.151c-0.044-0.232-0.257-0.226-0.303-0.474c0.468-0.464,0.861-0.056,1.184,0.305
		c0.643-0.031,1.058-0.24,1.42,0.271c0.115,0.162,0.076,0.422,0.271,0.507c0.037,0.025,0.032,0.021,0.101,0.034
		c0.096-0.178,0.156-0.337,0.44-0.339c0.147-0.063,0.243,0.096,0.372,0.136c0.221,0.069,0.907-0.185,0.948-0.271
		c0-0.079,0-0.159,0-0.238c-0.145-0.198-0.385-1.442-0.236-1.894c0.101-0.147,0.202-0.294,0.305-0.441
		c0.009-0.203,0.021-0.405,0.032-0.608c0.046-0.035,0.092-0.069,0.136-0.102c0.048-0.079,0.254-0.701,0.271-0.778
		c0.025-0.119-0.053-0.148-0.066-0.203c-0.053-0.201,0.092-0.438,0.167-0.542c0.131-0.174,0.39-0.214,0.576-0.338
		c0.237-0.156,0.496-0.358,0.744-0.508c0.104-0.033,0.204-0.066,0.305-0.101c0.266-0.171,0.468-0.454,0.711-0.642
		c0.046-0.036,0.099-0.023,0.135-0.068c0.149-0.189,0.356-0.542,0.542-0.677c0.273-0.199,0.592-0.288,0.879-0.474
		c0.25-0.161,0.477-0.451,0.847-0.473c0.376,0.283,1.446,0.385,1.962,0.575c0.379,0.139,0.739,0.363,1.083,0.542
		c0.236,0.123,0.468,0.18,0.709,0.304c0.165,0.083,0.369,0.25,0.543,0.304c0.379,0.118,1.209-0.337,1.285-0.541
		c0.131-0.216,0.06-0.73,0.101-0.948c0.14-0.754,0.255-1.671,0.271-2.47c0.801-0.434,2.049-0.095,3.046-0.339
		c0.28-0.067,0.542-0.002,0.775-0.101c0.363-0.155,0.698-0.5,1.019-0.711c0.087-0.033,0.179-0.068,0.271-0.101
		c0.519-0.338,1.028-0.754,1.556-1.083c0.124-0.078,0.248-0.088,0.372-0.17c0.362-0.242,0.734-0.547,1.115-0.778
		c0.289-0.175,0.693-0.17,1.051-0.27c0.542-0.155,1.157-0.33,1.689-0.475c0.138,0,0.271,0,0.408,0
		c0.046-0.055,0.087-0.113,0.133-0.169c0.275-0.188,0.487-0.378,0.744-0.575c0.105-0.114,0.206-0.226,0.308-0.338
		c0.468-0.356,0.849-0.795,1.316-1.151c0.161-0.169,0.317-0.338,0.478-0.507c0.413-0.313,0.831-0.671,1.185-1.05
		c0.573,0.004,1.207-0.033,1.826-0.033C62.401,13.424,62.796,13.479,62.938,13.389z"/>
</g>
<g id="Layer_1">
</g>
</svg>
