<?xml version="1.0" encoding="iso-8859-1"?>
<!-- Generator: Adobe Illustrator 16.0.3, SVG Export Plug-In . SVG Version: 6.00 Build 0)  -->
<!DOCTYPE svg PUBLIC "-//W3C//DTD SVG 1.1//EN" "http://www.w3.org/Graphics/SVG/1.1/DTD/svg11.dtd">
<svg version="1.1" xmlns="http://www.w3.org/2000/svg" xmlns:xlink="http://www.w3.org/1999/xlink" x="0px" y="0px" width="100px"
	 height="100px" viewBox="0 0 100 100" style="enable-background:new 0 0 100 100;" xml:space="preserve">
<g id="BG">
	<path style="fill:#010101;" d="M66.989,22.302c-0.594,0.108-1.421-0.389-2.196-0.172c-0.776,0.216-1.724,0.473-2.198,0.906
		c-0.475,0.43-0.733,0.172-1.164,0.56c-0.431,0.386-0.689,0.56-1.293,0.903c-0.603,0.346-1.292,0.991-1.723,1.768
		c-0.433,0.774-0.561,1.464-1.164,1.768c-0.604,0.301-1.164,0.344-1.552,0.861c-0.387,0.519-0.345,0.69-1.38,0.991
		c-1.032,0.301-1.593,0.129-1.981,0.647c-0.388,0.515-0.904,0.343-1.508,0.259c-0.602-0.087-0.99,0.127-1.724,0.127
		c-0.731,0-1.034-0.343-1.766-0.904c-0.733-0.56-1.208-0.819-2.112-0.475c-0.905,0.346-1.68-0.302-2.111-0.646
		c-0.431-0.345-1.164-0.345-1.854-0.345s-1.163-0.386-1.766,0.045c-0.604,0.43-1.164,0.819-1.509,0.385
		c-0.345-0.43-0.949-0.774-1.896-1.076c-0.949-0.301-1.509-0.129-2.069,0.214c-0.56,0.346-0.805,0.748-1.465,0.919
		c-0.661,0.172-1.839,0.23-2.328,0.288c-0.488,0.058-1.724-0.631-2.471-1.062c-0.746-0.431-2.298-0.777-2.93-1.094
		c-0.633-0.314-1.667-0.66-2.385-0.544c-0.719,0.114-1.322,0.085-1.954-0.317c-0.633-0.401-1.436-1.12-2.27-1.12
		s-2.127-0.058-2.816-0.028c-0.69,0.028-1.378,0.488-2.211,0.576c-0.833,0.084-2.672,0.172-3.362-0.259
		c-0.69-0.43-1.178-1.35-0.373-2.499c0.804-1.149,0.689-1.065,1.407-1.121c0.719-0.058,1.264-0.689,1.178-1.379
		c-0.086-0.69-0.66-0.69-1.436-1.064c-0.776-0.373-1.12-1.321-1.609-1.406c-0.489-0.087-0.633-0.404-0.833-0.576
		s-1.005-0.029-1.264-0.288c-0.259-0.256-0.949,0.116-1.063,0.893c-0.115,0.774,0.173,1.693-0.172,1.953
		c-0.345,0.259-0.804-0.117-1.206,0.402c-0.403,0.518-1.266,0.66-1.638,0.806C2.45,21.34,2.02,21.913,1.848,23.036
		c-0.173,1.12-0.489,2.269-0.403,2.986c0.086,0.718,0.459,2.042,1.005,2.385c0.545,0.344,0.748,1.149,0.689,2.127
		c-0.057,0.975,0.23,2.27,1.235,2.843c1.006,0.576,1.264,0.689,1.552,1.035c0.287,0.344,0.862,0.286,1.149,0.487
		c0.287,0.204,0.172,0.922,0.717,1.208c0.547,0.288,0.518,0.89,0.863,1.495c0.345,0.602,1.062,1.263,1.494,1.493
		c0.431,0.23,0.747,0.861,0.401,1.58c-0.345,0.719-0.46,0.833-1.12,1.35c-0.661,0.518-1.208,1.036-1.609,1.35
		c-0.402,0.317-0.604,1.121-0.861,1.609c-0.259,0.489-0.833,1.208-1.438,0.949c-0.602-0.259-0.746-0.573-1.695-0.114
		c-0.947,0.46-1.954,0.631-2.24,1.033c-0.287,0.402,0.345,1.237,0.517,1.609c0.173,0.373-0.115,1.091-0.46,1.868
		c-0.344,0.773-0.545,1.867-0.143,2.153c0.401,0.288,1.436,1.179,1.292,1.955c-0.144,0.773-0.144,1.58-0.661,1.81
		c-0.518,0.23-0.604,0.689-0.689,0.92c-0.086,0.229-0.431,0.313-0.977,0.459c-0.545,0.143-0.604,0.719-0.229,1.033
		c0.374,0.317,0.861,1.467,1.149,2.068c0.287,0.603,0.316,1.264,1.494,1.811c1.177,0.546,2.241,1.179,2.642,1.408
		c0.403,0.229,1.005,0.259,1.466,0.631c0.458,0.373,0.718,1.208,0.661,1.956c-0.058,0.744,0.573,1.55,0.861,2.411
		s0.46,1.005,1.063,1.493c0.604,0.489,0.488,1.094-0.058,1.609c-0.545,0.518-0.947,1.408-0.947,2.24
		c0,0.835,0.258,2.068,0.086,2.645c-0.173,0.573-0.403,2.254-0.273,2.362s1.056,0.172,1.638,0.388
		c0.581,0.217,2.025,0.474,2.391,0.238c0.368-0.238,0.733-0.798,0.97-1.294c0.238-0.495,0.711-0.323,1.078,0.303
		c0.366,0.624,1.012,0.344,1.271,0.106c0.259-0.235,0.991-0.753,1.616-0.645c0.625,0.105,1.034,0.56,1.314,0.56
		c0.28,0,1.142-0.108,1.53-0.301c0.388-0.195,0.798,0.126,1.228,0.126c0.431,0,0.884-0.493,1.185-0.645
		c0.303-0.15,0.863-0.237,1.056-0.56c0.194-0.325,1.013-0.41,1.207-0.066c0.194,0.346,0.646,0.26,0.926,0.151
		c0.28-0.106,0.863,0.087,1.034-0.063c0.172-0.151,0.108-0.561-0.064-1.013c-0.171-0.454,0.108-0.668,0.56-0.668
		c0.453,0,1.185,0.129,1.574-0.087c0.388-0.215,1.055-0.54,1.358-0.215c0.301,0.323,0.538,0.883,0.968,0.819
		c0.432-0.066,0.733-0.175,1.207-0.108c0.475,0.063,0.69,0.085,0.947-0.28c0.259-0.367,0.97-0.626,1.143-0.195
		c0.173,0.431,0.474,1.379,0.775,1.855c0.301,0.473,0.56,0.668,0.927,0.645c0.366-0.021,1.292,0.304,1.486,0.906
		c0.194,0.602,0.948,1.099,1.076,0.688c0.13-0.408,1.013-1.077,1.724-0.86c0.712,0.214,2.069,0.945,2.737,1.271
		c0.667,0.322,1.659,0.883,2.046,1.487c0.389,0.603,0.733,1.142,1.229,1.097c0.496-0.042,1.551-0.494,2.198-0.603
		c0.646-0.108,1.141-0.15,1.509-0.28c0.365-0.129,0.667-0.689,1.506-0.646c0.84,0.045,1.488,0.366,1.875,0.065
		c0.388-0.301,0.754-0.626,1.185-0.603c0.433,0.021,1.185-0.045,1.465,0.41c0.28,0.451,0.69,0.279,1.1,0.15
		c0.409-0.13,1.314-0.777,1.961-0.756c0.646,0.021,0.97,0.172,1.443-0.389s0.668-1.032,0.883-1.184
		c0.216-0.15,0.065-0.409-0.194-0.56c-0.257-0.15-0.474-0.647-0.451-1.208c0.021-0.56,0.064-2.003-0.215-2.499
		c-0.28-0.497-1.121-0.539-1.208-0.97c-0.086-0.431,0.259-1.337,0.539-1.53c0.28-0.192,0.733-0.473,1.1-0.258
		c0.365,0.216,0.668-0.28,0.668-0.28s0.561,0.581,1.012,0.602c0.453,0.024,0.97-0.192,1.38-0.084
		c0.409,0.108,0.947,0.518,1.293,0.603c0.345,0.087,0.97,0.324,1.336,0.409c0.365,0.087,0.689-0.948,0.56-1.229
		s-0.668-0.28-0.345-1.075c0.323-0.798,0.539-0.519,0.583-1.316c0.042-0.798-0.347-1.593-0.13-1.83
		c0.216-0.237,0.668-0.777,1.227-0.732c0.561,0.043,1.229,0.495,1.789,0.235c0.561-0.259,0.798-0.235,1.401-0.28
		c0.603-0.042,1.271-0.301,1.768-0.56c0.495-0.259,0.839-0.819,1.378-1.335c0.538-0.518,0.927-0.798,1.572-0.433
		c0.647,0.367,1.164,0.454,1.552,0c0.388-0.452,0.862-0.688,1.422-0.214c0.56,0.473,1.208,1.593,1.681,2.003
		c0.474,0.409,1.423,0.97,1.896,1.336c0.475,0.368,0.603,0.41,0.603,0.41s0.28-0.389,0.669-0.539s0.389-0.344,0.84-0.344
		c0.453,0,0.453,0,0.689-0.217c0.238-0.217,0.367-0.367,0.905,0.021s0.818,0.731,1.034,0.518c0.216-0.216-0.086-0.84,0.13-0.948
		c0.215-0.108,0.452-0.214,0.818,0.042c0.366,0.259,0.936,0.378,1.292,0.175c0.303-0.175,0.733,0,0.97,0
		c0.237,0,0.782-0.341,0.453-0.711c-0.165-0.188-0.136-0.562-0.424-0.747c-0.287-0.188-0.475-0.26-0.761-0.678
		c-0.288-0.414-0.504-0.4-0.733-0.773c-0.23-0.375-0.517-0.66-0.847-0.948s-0.503-0.732-0.834-1.035
		c-0.33-0.302-1.105-0.946-1.105-1.335s0.201-0.705,0.388-0.806s0.028-0.502-0.129-0.574c-0.158-0.071-0.374,0.201-0.518-0.028
		s-0.646-0.861-0.372-1.221c0.271-0.359,0.301-0.806,0.042-0.919c-0.259-0.116-0.619-0.116-0.661,0.172
		c-0.044,0.287-0.416,0.187-0.503-0.088c-0.086-0.272-0.128-0.632-0.56-0.674s-1.007-0.171-1.207-0.014
		c-0.2,0.156-0.358,0.461-0.646,0.387c-0.288-0.071-0.532-0.272-0.905-0.085c-0.374,0.186-0.618,0.23-0.818,0.415
		c-0.202,0.188-0.533,0-0.389-0.256c0.144-0.26,0.761-0.435,0.934-0.518c0.172-0.088,0.172-0.029,0.445-0.045
		c0.272-0.014,0.617-0.215,0.604-0.532c-0.014-0.314-0.014-0.79,0.144-1.02c0.158-0.23,0.762-0.515,1.163-0.515
		s0.431-0.159,0.733-0.029c0.301,0.13,0.56-0.217,0.445-0.489c-0.115-0.274-0.417-0.647-0.174-0.877
		c0.245-0.229,0.905-0.56,0.905-0.56s0.259,0.229,0.46,0.2c0.202-0.028,0.418-0.143,0.359-0.502
		c-0.057-0.359-0.359-0.259-0.359-0.259s-0.071-0.561,0.044-0.618c0.115-0.056,0.516-0.043,0.731,0.016
		c0.215,0.059,0.459,0.042,0.633-0.029c0.172-0.071,0.632,0.014,0.904,0.029c0.274,0.014,0.633,0,0.633-0.531
		c0-0.534-0.131-1.194-0.287-1.653c-0.159-0.46-0.359-0.761-0.216-0.92c0.145-0.155,0.431-0.356,0.373-0.803
		c-0.057-0.446-0.115-0.861,0.072-1.207c0.186-0.344-0.201-0.848-0.288-1.379c-0.086-0.531-0.013-1.192,0.202-1.564
		c0.215-0.375,0.172-0.476,0.172-0.877c0-0.402,0.273-0.547,0.359-0.806c0.086-0.256,0.071-0.473-0.201-0.616
		c-0.273-0.146-0.589-0.531-0.288-0.605c0.303-0.071,0.475-0.286,0.776-0.272c0.302,0.016,0.791-0.042,0.862-0.372
		s0.43-1.295,0.631-1.839c0.202-0.547,0.561-1.35,0.863-1.48c0.301-0.129,0.746-0.216,1.206-0.245
		c0.46-0.026,0.962-0.185,1.249-0.344c0.288-0.159,0.991-0.129,1.394,0c0.401,0.13,0.876,0.315,1.106,0.602
		c0.229,0.289,0.359,0.331,0.546,0.246c0.187-0.087,0.229-0.576,0.488-0.79c0.259-0.217,0.848-0.375,0.891-0.718
		c0.043-0.346,0.071-0.936,0.273-1.25c0.201-0.317,0.675-0.978,0.488-1.237c-0.188-0.258-0.618-0.602-0.589-1.004
		c0.028-0.404,0-0.906-0.086-1.178c-0.087-0.275-0.044-0.59,0.101-0.906c0.143-0.315,0.201-0.603-0.244-0.603
		c-0.446,0-1.624-0.316-1.954-0.417c-0.331-0.101-1.249-0.243-1.781-0.288c-0.532-0.042-1.293-0.127-1.768-0.256
		c-0.474-0.13-0.933-0.388-1.464-0.647c-0.532-0.259-1.05-0.259-1.451-0.417c-0.402-0.156-0.791-0.746-0.948-1.234
		c-0.157-0.489-0.245-1.366-0.36-1.897c-0.114-0.531-0.314-0.861-0.89-0.531c-0.574,0.33-1.321,0.689-1.681,0.689
		c-0.358,0-1.063-0.13-1.293-0.689c-0.229-0.561-0.33-1.049-0.833-0.907c-0.503,0.146-1.192,0.532-1.853,0.505
		c-0.661-0.029-2.242-0.375-2.803-0.835c-0.56-0.46-0.789-1.263-1.392-1.321c-0.604-0.058-1.308-0.172-1.709-0.388
		c-0.403-0.214-1.681-0.531-2.313-0.286c-0.633,0.244-2.326,0.861-2.974,1.02c-0.646,0.156-1.939,0.415-2.614,0.602
		C68.383,21.887,67.52,22.207,66.989,22.302z"/>
</g>
<g id="Layer_1">
</g>
</svg>
