<?xml version="1.0" encoding="iso-8859-1"?>
<!-- Generator: Adobe Illustrator 16.0.3, SVG Export Plug-In . SVG Version: 6.00 Build 0)  -->
<!DOCTYPE svg PUBLIC "-//W3C//DTD SVG 1.1//EN" "http://www.w3.org/Graphics/SVG/1.1/DTD/svg11.dtd">
<svg version="1.1" xmlns="http://www.w3.org/2000/svg" xmlns:xlink="http://www.w3.org/1999/xlink" x="0px" y="0px" width="100px"
	 height="100px" viewBox="0 0 100 100" style="enable-background:new 0 0 100 100;" xml:space="preserve">
<g id="BJ">
	<path d="M57.632,0c0.921,0.004,1.688,0.316,2.081,0.853c0.125,0.17,0.368,0.682,0.549,0.751c0.227,0.143,0.574,0.177,0.852,0.272
		c0.218,0.376,0.426,0.817,0.684,1.163c0.146,0.191,0.384,0.298,0.581,0.443c0.296,0.219,0.615,0.671,0.887,0.853
		c0.118,0.081,0.262,0.088,0.375,0.17c0.159,0.118,0.465,0.664,0.613,0.854c0.097,0.125,0.227,0.087,0.375,0.17
		c0.061,0.034,0.439,0.418,0.479,0.478c0.11,0.173,0.039,0.38,0.104,0.615c0.086,0.322,0.567,1.27,0.82,1.366
		c0.144,0.104,0.356,0.013,0.578,0.068c0.209,0.052,0.547,0.058,0.785,0.137c0.164,0.053,0.314,0.196,0.479,0.239
		c0.125-0.012,0.25-0.023,0.375-0.035c0.215,0.073,0.902,0.632,1.022,0.82c0.093,0.144,0.074,0.345,0.172,0.478
		c0.171,0.125,0.34,0.251,0.512,0.376c0.081,0.117,0.025,0.311,0.102,0.443c0.12,0.211,0.836,0.463,0.65,0.888
		c-0.058,0.294-0.556,0.71-0.718,0.99c-0.181,0.307-0.208,0.597-0.342,0.955c-0.061,0.166-0.26,0.208-0.341,0.343
		c-0.058,0.094-0.039,0.441-0.104,0.615c-0.152,0.415-0.495,0.952-0.546,1.399c0.321,0.338,0.551,0.775,0.819,1.16
		c0.704,0.998,1.468,1.969,2.186,2.971c0.088,0.122,0.273,0.413,0.41,0.478c0.405,0.192,0.775-0.097,0.784,0.546
		c-0.264,0.335,0,0.611-0.066,0.99c-0.054,0.298,0.178,0.355,0.272,0.58c0.095,0.228,0.062,0.424,0.137,0.683
		c0.074,0.256,0.209,0.618,0.273,0.888c0.13,0.545-0.436,1.152-0.444,1.638c0.243,0.228,0.522,0.481,0.648,0.819
		c0.076,0.203,0.009,0.408,0.171,0.513c0.285,0.184,0.611-0.01,0.75,0.375c0.118,0.152,0.021,0.411,0.069,0.649
		c0.054,0.264,0.216,1.024,0.102,1.365c-0.046,0.139-0.21,0.255-0.272,0.375c-0.032,0.148-0.069,0.296-0.103,0.445
		c-0.081,0.157-0.254,0.316-0.308,0.512c-0.067,0.253,0.132,0.384,0.067,0.649c-0.074,0.314-0.231,0.912-0.51,1.023
		c-0.155,0.096-0.394-0.045-0.514-0.102c-0.375-0.178-0.699-0.542-1.16-0.581c-0.078,0.082-0.637,0.517-0.647,0.546
		c0,0.148,0,0.296,0,0.443c-0.253,0.308-0.773,1.149-0.82,1.605c0.109,0.113,0.146,0.28,0.239,0.408
		c0.125,0.115,0.25,0.228,0.375,0.343c0.102,0.136,0.169,0.315,0.308,0.41c0.229,0.155,0.549,0.16,0.613,0.477
		c0.189,0.285-0.115,1.148-0.171,1.366c-0.088,0.055-0.167,0.169-0.273,0.205c-0.255,0.089-0.356-0.012-0.442,0.238
		c-0.206,0.285,0.035,0.903-0.067,1.298c-0.062,0.232-0.11,0.573-0.24,0.751c-0.125,0.174-0.394,0.27-0.51,0.443
		c-0.06,0.171-0.115,0.342-0.171,0.512c-0.104,0.092-0.206,0.183-0.311,0.274c-0.199,0.205-0.225,0.448-0.611,0.478
		c-0.509-0.506-1.917,0.29-2.527,0.443c-0.089,0.132-0.228,0.272-0.273,0.443c-0.162,0.594,0.456,1.056,0.477,1.639
		c-0.189,0.197-0.338,0.433-0.546,0.615c-0.074,0.066-0.167,0.097-0.236,0.17c-0.292-0.01-0.424-0.124-0.718-0.068
		c-0.104,0.151-0.171,0.161-0.171,0.443c0.06,0.077,0.088,0.188,0.102,0.308c-0.392,0.406-0.686,0.905-1.023,1.366
		c-0.125,0.17-0.282,0.16-0.477,0.273c-0.148,0.083-0.412,0.668-0.445,0.887c0.177,0.218,0.334,0.672,0.41,0.956
		c-0.012,0.318-0.023,0.638-0.034,0.958c0.034,0.134,0.159,0.439,0.102,0.648c-0.072,0.259-0.366,0.36-0.478,0.579
		c-0.147,0.289-0.069,0.604-0.171,0.955c-0.03,0.104-0.134,0.188-0.171,0.273c-0.153,0.346-0.269,1.193-0.579,1.332
		c-0.412,0.186-0.856,0.209-1.297,0.342c-0.11,0.033-0.291,0.162-0.479,0.102c-0.121-0.037-0.181-0.182-0.273-0.24
		c-0.127-0.078-0.76-0.076-0.887,0c-0.245,0.088-0.377,0.357-0.683,0.412c-0.123,0.021-0.225-0.08-0.309-0.104
		c-0.269-0.072-0.541-0.082-0.75,0c-0.06,0.113-0.074,0.248-0.069,0.443c-0.062,0.113,0.047,0.291,0,0.48
		c-0.025,0.102-0.111,0.236-0.137,0.34c0,0.229,0,0.457,0,0.684c-0.019,0.064-0.1,0.129-0.067,0.273
		c0.023,0.1,0.128,0.322,0.067,0.51c-0.09,0.148-0.183,0.297-0.272,0.445c-0.077,0.258,0.122,0.4,0.136,0.646
		c-0.073,0.078-0.115,0.213-0.203,0.275c-0.106,0.072-0.186,0.094-0.273,0.168c0.03,0.131,0.106,0.209,0.135,0.311
		c0,0.213,0,0.432,0,0.648c0.022,0.061,0.129,0.111,0.104,0.236c-0.014,0.072-0.118,0.148-0.137,0.205v1.094
		c0.025,0.146,0.106,0.348,0.137,0.479c0,0.342,0,0.682,0,1.023c0.072,0.244,0.123,0.471,0.035,0.82
		c-0.037,0.139-0.088,0.486-0.172,0.613c-0.097,0.146-0.347,0.236-0.409,0.41c0,0.238,0,0.477,0,0.717
		c-0.037,0.148-0.165,0.314-0.206,0.445c-0.056,0.191,0.064,0.459,0.102,0.578c0.1,0.307,0.098,0.533,0.206,0.852
		c0.081,0.236,0.308,0.404,0.377,0.686c0.044,0.186-0.083,0.934-0.139,1.059c-0.115,0.271-0.269,0.066-0.273,0.613
		c0.148,0.227-0.011,0.717-0.066,0.922c-0.1,0.367-0.174,0.814-0.273,1.193c0,0.309,0,0.617,0,0.922
		c-0.058,0.213-0.199,0.334-0.238,0.584c0.199,0.213,0.203,0.564,0.375,0.816c0.12,0.184,0.402,0.248,0.477,0.48
		C57.09,74.4,57,74.789,56.983,74.963c0,0.287,0,0.57,0,0.857c-0.104,0.48-0.157,1.033-0.035,1.5c0,0.203,0,0.41,0,0.615
		c0.062,0.186,0.28,0.26,0.376,0.408c0.022,0.102,0.044,0.205,0.066,0.309c0.061,0.09,0.186,0.107,0.273,0.17
		c0.171,0.123,0.299,0.33,0.444,0.48c-0.014,0.346,0.074,1.199-0.203,1.328c-0.142,0.092-0.44-0.002-0.547,0
		c-0.162,0.314-0.074,1.311-0.069,1.775c0.069,0.113-0.014,0.322,0.035,0.48c0.032,0.102,0.141,0.25,0.171,0.375
		c0,0.203,0,0.408,0,0.613c0.09,0.418,0.118,0.902,0.102,1.33c-0.189,0.131-0.405,0.256-0.409,0.582
		c0.078,0.062,0.076,0.123,0.137,0.205c0.15,0.201,0.428,0.406,0.613,0.58c0,0.055,0,0.113,0,0.17
		c-0.547,0.5-1.14,0.324-1.125,1.436c0.488,0.301,0.416,0.51,0.409,1.195c-0.002,0.227,0.061,0.352,0,0.543
		c-0.058,0.18-0.294,0.41-0.238,0.65c0.162,0.695,0.829,0.059,0.819,0.99c0.088,0.141,0.135,0.725,0.103,0.887
		c-0.116,0.072-0.552,0.281-0.616,0.375c-0.083,0.125-0.076,0.258-0.135,0.412c-0.019,0.045-0.11,0.166-0.102,0.234
		c0.023,0.293,0.322,0.533,0.204,0.959c-0.074,0.268-0.306,0.469-0.375,0.719c-0.015,0.191-0.023,0.383-0.035,0.578
		c-0.044,0.164-0.162,0.352-0.206,0.512c0,0.441,0,0.887,0,1.331c-0.1,0.064-0.097,0.092-0.273,0.102
		c-0.12,0.078-0.287,0.055-0.444,0.102c-0.569,0.176-1.162,0.275-1.977,0.275c-0.366,0-0.731,0-1.093,0
		c-0.454,0.109-0.954,0.193-1.436,0.309c-0.601,0-1.206,0-1.808,0c-0.291,0.07-0.581,0.23-0.854,0.305
		c-0.523,0.143-0.969-0.135-1.502,0c-0.335,0.084-0.623,0.223-0.99,0.309c-0.501,0.113-1.054-0.094-1.501,0.066
		c-0.146,0.053-0.27,0.195-0.445,0.24c-0.5,0-1.001,0-1.502,0c-0.206,0.049-0.363,0.182-0.545,0.236
		c-0.358,0.111-0.685,0.01-1.093,0.105c-0.068,0.016-0.218,0.031-0.307,0.066c-0.103,0.041-0.192,0.166-0.308,0.205
		c-0.206,0.072-0.472-0.018-0.717,0.035c-0.432,0.094-1.103,0.199-1.161-0.273c0.113-0.102,0.191-0.242,0.341-0.307
		c0.113-0.021,0.228-0.045,0.341-0.068c0.055-0.023,0.116-0.119,0.171-0.139c0.125,0,0.25,0,0.375,0
		c0.47-0.111,1.395-0.088,1.399-0.68c-0.128-0.145-0.037-0.279-0.103-0.514c-0.063-0.232-0.232-0.552-0.307-0.782
		c0-0.094,0-0.186,0-0.275c-0.037-0.088-0.203-0.158-0.238-0.238c-0.078-0.172,0.017-0.348-0.068-0.477
		c-0.053-0.082-0.25-0.344-0.341-0.375c-0.232-0.092-0.351,0.014-0.445-0.207c-0.122-0.141-0.029-0.535-0.067-0.752
		c-0.103-0.057-0.205-0.111-0.308-0.172c-0.012-0.031-0.022-0.064-0.035-0.102c-0.089-0.07-0.208-0.07-0.307-0.135
		c-0.08-0.092-0.159-0.182-0.239-0.273c-0.178-0.096-0.267-0.006-0.341-0.205c-0.075-0.113-0.174-0.361-0.205-0.48
		c0.012-0.125,0.022-0.25,0.035-0.375c-0.052-0.162-0.388-0.359-0.513-0.477c0.007-0.289,0.143-0.314,0.205-0.512
		c0.034-0.104-0.016-0.195,0.034-0.273c0.141-0.219,0.417-0.178,0.478-0.512c-0.116-0.125-0.1-0.295-0.17-0.479
		c-0.046-0.117-0.203-0.201-0.238-0.309c-0.036-0.098,0.053-0.24,0.067-0.305c0.066-0.287-0.057-0.523,0-0.75
		c0.027-0.107,0.087-0.158,0.103-0.309c-0.104-0.064-0.382-0.168-0.444-0.273c-0.102-0.172-0.09-0.357-0.17-0.545
		c-0.023-0.059-0.118-0.148-0.137-0.207c0-0.111,0-0.227,0-0.34c-0.041-0.127-0.144-0.201-0.171-0.377
		c0.062-0.035,0.124-0.084,0.171-0.135c0.481,0.004,1.055,0.018,1.433-0.07c0-0.021,0-0.045,0-0.066
		c0.105-0.168,0.035-0.988,0.035-1.264c0-1.082,0-2.162,0-3.244c0-1,0-2.002,0-3.002c0.156-0.73,0.043-1.785-0.102-2.459
		c0-0.227,0-0.455,0-0.684c0-0.764,0.122-1.82-0.035-2.42c0-0.266,0-0.527,0-0.789c0-0.826,0.126-1.986-0.034-2.73
		c0-1.227,0-2.459,0-3.686c0-0.285,0.074-1.158-0.035-1.332c-0.096-0.248-0.322-0.182-0.341-0.547
		c0.229-0.283,0.096-0.842,0.273-1.193c0.09-0.178,0.496-0.369,0.443-0.65c-0.022-0.127-0.175-0.246-0.238-0.338
		c-0.207-0.316-0.365-0.756-0.273-1.367c0.083-0.551,0.035-1.268,0.035-1.879c0-1.111,0.036-2.375-0.171-3.242
		c-0.057-0.238,0.109-0.361,0.068-0.545c-0.033-0.154-0.173-0.383-0.102-0.648c0.042-0.162,0.192-0.5,0.102-0.787
		c-0.033-0.102-0.139-0.25-0.17-0.375c-0.011-0.172-0.023-0.344-0.035-0.512c-0.082-0.238-0.346-0.393-0.443-0.613
		c-0.069-0.162-0.052-0.301-0.137-0.445c-0.138-0.236-0.489-0.355-0.716-0.514c-0.139-0.096-0.288-0.287-0.41-0.408
		c-0.195-0.193-0.283-0.379-0.445-0.616c-0.135-0.125-0.273-0.25-0.408-0.375c-0.251-0.5-0.501-1-0.751-1.502
		c-0.122-0.373,0.032-0.812-0.068-1.229c-0.024-0.099-0.063-0.185-0.069-0.341c-0.051-0.035-0.066-0.052-0.102-0.102
		c-0.118,0.022-0.155,0.022-0.273,0c-0.189-0.308-0.275-0.82-0.512-1.093c0.089-0.41,0.375-0.61,0.478-0.991
		s0.005-1.134-0.068-1.433c0-0.466,0-0.934,0-1.399c0.021-0.076,0.116-0.164,0.137-0.239c0.087-0.311-0.122-0.451-0.137-0.682
		c-0.043-0.623,0.031-1.295-0.103-1.809c-0.061-0.237,0.077-0.579,0-0.718c-0.103-0.268-0.49-0.395-0.716-0.546
		c-0.615-0.409-1.218-0.847-1.843-1.263c-1.469-0.977-2.928-2.026-4.37-3.039c-0.75-0.526-1.596-0.952-2.253-1.57
		c-0.014-0.576-0.031-1.327,0.103-1.844c0-0.193,0-0.387,0-0.58c0.07-0.216,0.275-0.385,0.341-0.649
		c0.204-0.821-0.319-1.637-0.068-2.354c0.224-0.643,1.044-0.922,1.297-1.639c0.022-0.193,0.045-0.387,0.067-0.58
		c0.052-0.166,0.257-0.27,0.205-0.512c-0.038-0.181-0.237-0.318-0.17-0.581c0.072-0.283,0.233-0.742,0.41-0.957
		c0.124-0.15,0.423-0.191,0.511-0.375c0.012-0.136,0.023-0.273,0.034-0.41c0.049-0.154,0.202-0.254,0.274-0.375
		c0.051-0.085-0.008-0.197,0.034-0.308c0.042-0.112,0.194-0.189,0.273-0.273c0.652-0.004,0.756,0.424,1.228,0.512
		c0.107-0.083,0.317-0.073,0.513-0.067c0.05-0.091,0.068-0.145,0.068-0.308c-0.092-0.147-0.182-0.295-0.273-0.443
		c-0.113-0.078-0.222-0.035-0.308-0.137c-0.051-0.065-0.06-0.123-0.067-0.24c0.104-0.103,0.161-0.244,0.307-0.307
		c0.152-0.066,0.353-0.018,0.478-0.103c0.102-0.125,0.205-0.25,0.307-0.375c0.169-0.097,0.268-0.009,0.342-0.205
		c0.065-0.081,0.07-0.188,0.068-0.341c-0.119-0.075-0.176-0.178-0.272-0.273c-0.011-0.404,0.232-1.045,0.647-0.921
		c0.124,0.037,0.221,0.195,0.343,0.239c0.3,0.105,0.722-0.042,0.955,0.034c0.127,0.041,0.144,0.118,0.342,0.137
		c0.023-0.065,0.033-0.134,0.035-0.24c-0.09-0.08-0.224-0.301-0.171-0.409c0.03-0.223,0.139-0.316,0.41-0.308
		c0.189,0.154,0.408,0.238,0.717,0.273c0.013-0.035,0.023-0.068,0.035-0.102c-0.154-0.148-0.208-0.338-0.205-0.649
		c0.146-0.13,0.433-0.451,0.58-0.545c0.252-0.162,0.406,0.02,0.41-0.41c-0.27-0.426,0.443-0.726,0.683-0.82
		c0.106-0.042,0.164-0.205,0.273-0.24c0.275-0.088,0.318,0.208,0.546,0.171c0.115-0.019,0.275-0.188,0.443-0.136
		c0.071,0.021,0.116,0.146,0.171,0.17c0.193-0.01,0.387-0.023,0.58-0.034c0.129,0.035,0.21,0.093,0.41,0.102
		c0.035,0.058,0.109,0.088,0.137,0.137c0.09,0.156,0.214,0.795,0.341,0.854c0.102,0,0.204,0,0.307,0
		c0.111-0.069,0.29-0.048,0.41-0.103c0.092-0.042,0.18-0.171,0.273-0.205c0.091,0,0.182,0,0.273,0
		c0.117-0.042,0.214-0.165,0.375-0.205c0.257-0.062,0.42,0.1,0.58,0.103c0.064,0.001,0.189-0.117,0.24-0.138
		c0.125-0.01,0.25-0.022,0.375-0.034c0.127-0.036,0.26-0.17,0.376-0.205c0.148,0.011,0.296,0.023,0.443,0.033
		c0.112-0.029,0.305-0.104,0.445-0.135c0.396-0.09,0.495,0.198,0.716,0.273c0.318,0.011,0.637,0.022,0.956,0.034
		c0.206,0.056,0.454,0.259,0.682,0.103c0.325-0.091,1.113-1.042,1.332-1.331c0.102-0.091,0.205-0.183,0.307-0.274
		c0.492-0.652,1.126-1.176,1.809-1.638c0.206-0.139,0.403-0.338,0.616-0.445c0.31-0.154,0.57-0.008,0.579-0.477
		c-0.208-0.321,0.125-0.892,0.241-1.06c0.185-0.271,0.546-0.434,0.715-0.716c0.165-0.277-0.002-0.494,0.067-0.751
		c0.056-0.204,0.287-0.308,0.342-0.477c-0.012-0.103-0.023-0.205-0.032-0.308c-0.018-0.593-0.01-1.202,0.613-1.194
		c0.09-0.155,0.155-0.38,0.34-0.445c0.091-0.031,0.181,0.002,0.241-0.034c0.027-0.035,0.009-0.009,0.032-0.068
		c-0.146-0.089-0.477-0.173-0.579-0.308c-0.279-0.36-0.323-0.837-0.514-1.296c-0.046-0.115-0.168-0.247-0.203-0.375
		c0.009-0.148,0.022-0.296,0.032-0.445c-0.014-0.074-0.116-0.166-0.135-0.238c0.01-0.137,0.023-0.274,0.032-0.41
		c-0.092-0.31-0.12-0.568-0.032-0.921c0.106-0.069,0.204-0.204,0.34-0.24c0.102,0.012,0.206,0.023,0.308,0.035
		c0.12-0.023,0.287-0.109,0.375-0.138c0.093,0,0.181,0,0.273,0c0.069-0.023,0.144-0.146,0.203-0.17c0.125,0,0.251,0,0.376,0
		c0.213-0.102,0.046-0.293,0.479-0.307c0.392,0.299,0.721-0.075,1.025-0.205c0.248-0.106,0.38,0.173,0.614,0.102
		c0.085-0.025,0.178-0.14,0.271-0.17c0.287-0.091,0.477,0.087,0.686,0.102c0.15-0.257,0.277-0.782,0.578-0.886
		c0.104-0.062,0.315,0.024,0.445-0.035c0.147-0.068,0.259-0.32,0.409-0.41C57.331,0.038,57.525,0.068,57.632,0z"/>
</g>
<g id="Layer_1">
</g>
</svg>
