<?xml version="1.0" encoding="iso-8859-1"?>
<!-- Generator: Adobe Illustrator 16.0.3, SVG Export Plug-In . SVG Version: 6.00 Build 0)  -->
<!DOCTYPE svg PUBLIC "-//W3C//DTD SVG 1.1//EN" "http://www.w3.org/Graphics/SVG/1.1/DTD/svg11.dtd">
<svg version="1.1" xmlns="http://www.w3.org/2000/svg" xmlns:xlink="http://www.w3.org/1999/xlink" x="0px" y="0px" width="100px"
	 height="100px" viewBox="0 0 100 100" style="enable-background:new 0 0 100 100;" xml:space="preserve">
<g id="BZ">
	<path style="fill-rule:evenodd;clip-rule:evenodd;" d="M54.256,85.229c-0.438,0.03-0.873,0.062-1.31,0.093
		c0.03,0.125,0.062,0.25,0.093,0.374c-0.187-0.062-0.373-0.125-0.561-0.187c-0.22-0.812-0.2-1.074-0.748-1.496
		c-0.12,0.252-0.285,0.008-0.562,0.374c0.173,0.259,0.077,0.111,0.187,0.467c-0.093,0-0.187,0-0.279,0
		c-0.163-0.179-0.667-0.185-0.937-0.279c-0.056,0.275,0.099,0.1-0.187,0.279c0.094,0.281,0.187,0.562,0.28,0.842
		c-0.257,0.013-0.081-0.062-0.28,0.28c-0.062,0-0.125,0-0.188,0c0,0-2.384,0.479-2.618,0.654c-0.074,0.34-0.451,0.638-0.655,1.216
		c0.393,0.255,0.362,1.105,0.281,1.216c-0.147,0.446-0.327,1.054-0.468,1.215c0,0.031,0,0.062,0,0.094
		c-0.238,0.429-1.365,0.336-1.777,0.935c0,0,0.123,0.786-0.094,1.028c-0.062-0.031-0.124-0.062-0.187-0.094
		c-0.072,0.138-1.59,0.936-1.59,0.936c-0.031,0.374-0.062,0.748-0.094,1.122c-0.142,0.289-1.106,0.608-1.122,0.561
		c-0.058,0.071-1.57,0.935-1.59,0.841c-0.812,1.23,0.221,3.066,0.561,3.833c-0.373,0.125-0.748,0.25-1.122,0.374
		c-0.657-0.175-2.411-0.895-2.244-0.28c-0.521-0.142-0.786-0.201-0.748-0.654l-2.058,0.28c-0.395-0.099-0.324-0.479-1.029-0.374
		c-0.389,0.309-0.948,0.606-1.496,0.654c-0.062,0-0.125,0-0.188,0c-0.281-0.073-0.649-0.615-1.309-0.748
		c-0.031,0.219-0.062,0.437-0.094,0.654c-0.343,0-0.686,0-1.029,0c-0.121,0.394-0.014,0.309-0.374,0.562
		c1.06-14.957,2.12-29.917,3.18-44.874c0.031-11.342,0.062-22.687,0.094-34.029c0.563-0.055,0.794-0.996,0.748-1.402
		c0.689,0.082,3.378-0.79,3.461-1.122c0.88,0.155,1.749,1.097,1.684,1.683c0.717,0.094,1.434,0.187,2.15,0.281
		c0.068,1.18,1.379,2.054,2.713,2.431c0-0.062,0-0.125,0-0.187c0.272-0.353,0.101-1.386,0.561-1.309
		c0.566-1.144,3.036-1.361,2.993-4.02c0.878-0.06,1.181-0.488,1.87-0.841c-0.119-0.919,0.236-1.593,0.094-2.057
		c0.409-0.197,1.125-1.649,1.216-2.057c0.005-0.245-0.609-1.152-0.094-0.935c0.262-0.591,2.6-1.104,2.433-1.496
		c0.881-0.451,0.316-1.685,0.654-2.431c0.843-1.861,2.018-1.511,2.058-3.646c0.161-0.046,0.255,0.104,0.187-0.093
		c0.344-0.935,0.686-1.87,1.029-2.805c0.437-0.343,0.873-0.686,1.309-1.028c0.738,0.069,0.688,0.203,1.029,0.467
		c0.363-0.13,1.771-0.721,1.871-0.467c0.249,0.187,0.498,0.374,0.748,0.561c2.195-0.848,2.58,0.626,2.992,0.561
		c-0.031,0.156-0.062,0.312-0.094,0.468c-0.031,0-0.062,0-0.093,0c-0.187,0.093-0.374,0.187-0.562,0.28
		c0.566,0.666-2.646,1.888-2.712,2.337c-0.706,0.608,0.163,1.383,0.374,1.496c0.188-0.263,1.646-0.957,2.058-0.748
		c-0.373,0.617-0.601,0.817-0.842,1.402c0.155,0.031,0.312,0.062,0.468,0.094c0.372-0.686,2.514-1.129,3.554-1.309
		c-0.024,0.351,0.132,0.534,0.28,0.655c0.27,0.016,0.303-0.364,0.654,0.093c-0.256,0.008-0.139,0.418-0.467,0.28
		c0.031,0.094,0.062,0.187,0.094,0.281c0.125-0.031,0.249-0.062,0.373-0.094c1.2-0.417,2.471-0.783,3.929-1.683
		c0,0.062,0,0.125,0,0.187c0.031,0.343,0.062,0.686,0.094,1.028c-0.124,0-0.249,0-0.374,0c-0.078-0.311-0.016,0.009-0.375-0.187
		c-0.047,0.226-0.002,0.168-0.279,0.374c0.031,0.156,0.062,0.312,0.093,0.467c0.031,0,0.062,0,0.094,0
		c0.312-0.062,0.624-0.125,0.935-0.187c-0.031,0.187-0.062,0.374-0.093,0.561c0,0.187,0,0.374,0,0.561
		c-1.132,0.091-1.346-0.087-1.684,0.561c-0.249-0.125-0.499-0.25-0.748-0.374c-0.263,0.391-0.3,0.425-0.28,0.654
		c-0.312,0-0.624,0-0.936,0c0.094,0.25,0.188,0.499,0.28,0.748c-0.283,0.068-1.261,2.009-1.31,2.431
		c0.628,0.102,0.584,0.593,0.748,0.748c-0.031-0.125-0.062-0.249-0.094-0.374c0.086-0.197,0.133-1.027,0.281-1.122
		c0.08-0.67,0.787-0.997,0.936-1.776c0.23,0.163,0.604,0.378,1.122,0.187c0.062-0.374,0.124-0.748,0.187-1.122
		c0.291-0.117,0.639-0.323,0.842-0.187c-0.094,0.374-0.187,0.748-0.28,1.122c0.435,0.004,0.419,0.223,0.655,0.281
		c0.239-0.045,0.031,0.063,0.28-0.094c0-0.343,0-0.686,0-1.028c0.031,0,0.062,0,0.093,0c-0.002,1.696,0.234,2.37,0.375,2.898
		c-0.264,0.01-0.137,0.188-0.562,0.468c0.962,2.321-1.11,6.545-1.87,7.572c0.062,0.374,0.125,0.748,0.188,1.122
		c-1.545,0.085-1.703,2.513-2.246,3.74c0-0.374,0-0.748,0-1.122c-0.465,0.098-0.312-0.032-0.467,0.374
		c-0.316,0.149-0.734,0.67-0.468,0.841c0,0.125,0,0.25,0,0.374c0.218-0.093,0.437-0.187,0.655-0.28
		c-0.031,0.093-0.062,0.187-0.094,0.28c0.221-0.128,0.394,0.071,0.28-0.28c0.274,0.293,0.03,2.695-0.374,3.085
		c0.031-0.062,0.062-0.125,0.094-0.187c-0.125-0.062-0.25-0.125-0.375-0.187c0,0.062,0,0.125,0,0.187
		c-0.248,0.343-0.498,0.686-0.748,1.028c0.324,0.061,0.153-0.084,0.375,0.281c-0.156,0-0.312,0-0.469,0
		c0.223,0.847-0.359,1.004-0.467,1.87c0.094,0.031,0.188,0.062,0.28,0.093c0.296-0.383,0.708-0.164,0.842,0.094
		c-0.825,0.071-0.817,2.113-1.964,2.337c-0.085,0.944-0.256,3.43,0.561,3.272c0.38,0.657,1.509,0.445,1.871,1.496
		c0.568-0.14,0.906-0.155,1.309,0.093c0.004,0.28,0.047,0.665,0.281,0.561c-0.062,0.062-0.125,0.125-0.188,0.187
		c-0.223,0.872-1.158,0.229-2.057,0.187c-0.659,2.889-1.575,5.723-2.338,8.881c-0.293,1.21,0.335,4.824-0.094,5.329
		c0.436,0.61,0.518,0.455,0.561,1.309c0,0,0.3,0.266,0.094,0.28c0.291,0.246,1.337,0.355,1.309,0.374
		c0.062-0.031,0.125-0.062,0.188-0.093c-0.034,1.448,1.115,4.229,0.842,4.487c-0.097,0.812-1.673,1.036-2.244,1.215
		c0,0.374,0,0.748,0,1.122c-0.094-0.031-0.188-0.062-0.281-0.094c0.205,1.439,0.655,1.369,1.029,2.431
		c-0.283,0.165,0.095,0.538,0.188,1.028c-0.441-0.081-0.38-0.17-0.749-0.093c0.073,0.589-0.673,0.853-0.748,1.495
		c-0.187-0.031-0.374-0.062-0.562-0.094c0.757,2.449,0.368,4.401-1.402,5.517c0.155,0.813-0.604,2.973-0.468,3.739
		c-0.344-0.378-0.124-1.312-0.28-1.683c-0.219,0.155-0.438,0.312-0.654,0.467c0,0.031,0,0.062,0,0.094
		c0.276,0.272,0.266,0.325,0.561,0.374c-0.031,0.094-0.062,0.188-0.094,0.28c-0.312-0.062-0.623-0.125-0.936-0.187
		c0.148,0.388,0.076,0.493,0.562,0.561c-0.124,0.156-0.249,0.312-0.374,0.468c-0.062,0-0.125,0-0.188,0
		c-0.02,0.019-0.936,2.711-0.936,2.711c-0.373,0.218-0.748,0.437-1.121,0.654c-0.047-0.26,0.006-0.007-0.188-0.188
		c-0.062,0.188-0.125,0.374-0.188,0.562c0.394,0.054,0.101-0.073,0.281,0.28c-0.182,0.008-0.742,0.258-0.654,0.748
		c-0.389,1.421-1.441,3.409-2.619,3.459C54.193,84.419,54.225,84.824,54.256,85.229z"/>
</g>
<g id="Layer_1">
</g>
</svg>
