<?xml version="1.0" encoding="iso-8859-1"?>
<!-- Generator: Adobe Illustrator 16.0.3, SVG Export Plug-In . SVG Version: 6.00 Build 0)  -->
<!DOCTYPE svg PUBLIC "-//W3C//DTD SVG 1.1//EN" "http://www.w3.org/Graphics/SVG/1.1/DTD/svg11.dtd">
<svg version="1.1" xmlns="http://www.w3.org/2000/svg" xmlns:xlink="http://www.w3.org/1999/xlink" x="0px" y="0px" width="100px"
	 height="100px" viewBox="0 0 100 100" style="enable-background:new 0 0 100 100;" xml:space="preserve">
<g id="CA">
	<path style="fill:#010101;" d="M45.211,2.58l0.459,1.824l0.745,0.57l0.855-0.347l0.298-1.092L46.985,2.58H45.211z M48.995,2.58
		l1.017,0.335l-1.017,0.621l0.806,0.918l-0.173,0.583l2.357-0.745l0.336-0.459V3.821L52.097,3.2l0.124-0.62h-0.012H48.995z
		 M63.623,2.58l-0.161,0.385L64.38,3.25l-1.961,1.204l1.154,0.062l-0.744,0.459h0.335l-0.161,0.571l0.396,0.521l0.286-0.744
		l-0.111,1.142l1.377-0.05l-0.112,0.397l0.225,0.459l-1.092,0.347l-1.489-0.633l-0.857-2.121l-2.07,0.224l0.061,0.979l0.634,1.439
		l0.855-0.124l-0.347,0.98l0.521,0.062L59.33,9.106l-1.092,1.315l-0.174,0.979l0.459,0.745l0.459-0.745l0.111,0.695l0.112-1.265
		l0.173,1.315l0.521,0.285l0.286-0.05l0.062-0.869l0.794,0.918l0.347-1.142v1.092l2.358,0.397l-0.634-1.266l0.571,0.633l0.348-1.092
		l0.855,1.092l0.41-0.633l-0.348-1.03l0.918,1.898l0.633-0.633l-0.459-0.918l0.744,1.029h0.919l0.223,0.571l-0.223,0.694
		l0.049,0.348l3.388-2.184l0.111-0.868l-0.225-0.968l-0.805,0.682L69.765,9.28l0.346-0.397L69.652,8.3l-2.755,0.633l-0.223-0.856
		l0.918-0.235l-0.472-0.918l1.266,1.042l2.53-0.409l0.745-1.377l-0.459-0.348l-0.286-1.489l2.582,0.062l0.459-0.918l-1.613-0.348
		h1.551l0.41-0.559H63.623z M29.95,3.709l-0.57,0.583l0.793,1.254l0.695-0.509L29.95,3.709z M32.754,3.784l-1.539,1.253l0.099,1.377
		l1.154,0.918l2.171-0.744l0.062-1.489l-1.377-0.124l1.96-1.19H32.754z M44.181,4.168l-0.694,0.236l0.57,0.855l1.328-0.223
		L44.181,4.168z M39.64,5.31l1.042,2.99l0.918-0.174l-0.856-1.96L39.64,5.31z M51.973,5.31l-1.191,0.583l1.315,1.154l1.712,0.1
		v-0.98l0.36-0.273L51.973,5.31z M27.593,6.352l-0.794,0.46l0.459,0.396l-0.186,0.36l-2.01-0.298l-1.439,1.773L23.35,9.863
		l0.173,0.05l-1.154,0.744L21.91,11.91h-0.855l-0.571,1.154l0.509,0.062l-0.273,0.917l0.223,0.174l0.695-0.979l0.732,0.979
		l0.521-1.278l0.459,1.836l0.856-0.67l-0.335-0.583l0.335-0.224l-0.125-0.967l0.819,1.018l0.397-0.968l-0.397-0.757l0.62-0.273
		L25.36,10.72l0.223-0.521l0.633-0.124l-0.273,1.799l1.018,0.67l0.049-1.191l1.216-0.694l-0.459-1.042l0.459-0.273l-0.459-0.979
		l0.98-0.633L27.593,6.352z M50.421,8.945l-0.521,0.57l0.707,0.744l-0.745,0.174l2.234,2.568l1.948-0.57l1.266,3.499l-0.521,0.979
		l-0.062,0.794l0.882,0.458l-0.521,0.459l0.062,0.757l0.607,0.794l0.919-0.856l-0.335,0.459l0.397,0.459v-0.57l1.276,1.029
		l0.397-0.521l-0.236-0.571l0.572,0.409l0.248-0.694l0.037,0.062l0.174,0.187l-0.062,1.191l0.31,0.062l3.139-0.298v-0.509
		l0.46,0.745l0.186-0.856l0.149,0.67l1.501-0.148l0.396-0.757l-0.458-0.683l0.582,0.396l0.051,0.856l0.409,0.458l0.968,0.237
		l1.961-0.695l-0.46-1.948l1.03-1.042l-0.235-1.066l-2.866-1.502l-4.367,1.65l0.633,0.583l-1.253,0.174l0.223-0.298l-1.142-0.855
		l-0.174,0.757l-0.235-0.571l-0.497,0.458l-0.421-0.917l-0.285,1.253l-0.918-0.731l0.459-0.311l0.186-0.608l-0.235-0.297
		l-1.563-0.584l-0.51,0.819l0.175-0.757l-0.062-0.161l0.855-0.174l-1.378-0.646l2.295,0.125l0.423-0.918l-2.53-0.757l1.19-0.037
		l-1.254-1.216l-2.407,1.427l0.336-1.948l-1.712-1.141L50.421,8.945z M36.501,9.863l-0.646,0.211l-0.793,1.501l-0.521,0.236
		l0.161,0.57l1.215,1.439l-0.818,0.558l1.277,0.919l-0.124,0.818l-2.618-0.124l-0.311-1.377l-0.731,0.124l0.397-0.521l-0.794-1.216
		l-1.849-0.062v-1.067l-0.98-0.36l-1.017,0.968l1.376,0.583l-2.071,0.062l-0.286,1.377l2.357-0.285l-2.816,1.204l0.745,0.57
		l1.612-0.732l-1.091,0.956l-1.266,0.112l-0.509,0.98l1.526,0.235l0.124,0.583l0.694,0.397v-0.633l0.856,0.57l0.459-0.397
		l-0.174-1.03l0.459,0.335l0.174-0.794l0.732-0.124l-0.497,0.459l0.099,0.695l-0.334,0.458l0.173,0.223l1.142-0.396l0.173-0.646
		l0.459,0.459l1.501-0.558l-0.793,1.377l-1.563-0.124l-1.489,1.042l-0.062,0.397l0.459,0.632l1.613,0.46l4.466-3.04l0.112,0.396
		l-0.211,0.236l0.459,0.161l2.568-0.459l0.757-2.568L40.05,14.28l-1.142-0.633l-0.236,1.712l-0.285-0.98l-0.967,0.46l0.459-0.919
		l-1.166-0.335l0.583-1.104l-0.583-0.67l-0.112-0.98l0.174-0.397L36.501,9.863z M45.26,10.434l-0.732,0.794l0.918-0.272l0.397-0.36
		L45.26,10.434z M48.126,10.72l-0.732,1.029l-1.489-0.918l-0.645,0.794l1.104,0.807l-0.583,0.298l0.633,0.161l-0.236,0.174
		l0.583,0.855l-2.469-2.171l-0.348,1.191h0.286l0.062,1.104l0.508-0.222L44.64,14.28l0.348,0.559l-0.856-0.397l-0.298,0.521
		l0.236,0.396l-0.397,0.298l3.883-0.694l-1.948,1.488l0.633,0.856l-0.583,0.186l0.124,0.669l2.692,0.125l-0.162-0.744l0.571,0.285
		l-0.571-0.918l0.459-0.794l-0.062-0.459l0.583,0.917v-1.563l-0.521-0.049l0.273-1.043l-0.049-2.295L48.126,10.72z M41.874,11.055
		l-0.67,0.173l0.608,1.104l1.166-0.359L41.874,11.055z M43.027,12.432l-1.725,0.694l1.675,0.459l0.571-0.806L43.027,12.432z
		 M43.027,13.647l-1.03,0.794l1.551-0.521L43.027,13.647z M26.042,13.697l-1.539,1.725l1.03,0.744l0.968-2.357L26.042,13.697z
		 M50.483,15.298l-0.793,0.818l0.459,0.458l0.334-0.917l0.298,0.558l0.062-0.621L50.483,15.298z M52.097,15.595l-1.253,0.856
		l0.334,0.236l-0.793,0.855l0.099,0.744l1.948,1.824l1.277-0.335v-2.283L52.097,15.595z M41.823,16.514l-0.57,0.049l-0.397,1.154
		l1.315,0.335l0.173-0.335L41.823,16.514z M22.097,20.235l-1.799,0.335v0.583l-0.211-0.583l-1.613,0.459l0.446,0.707l-0.149,0.397
		l0.149,0.57l0.41,0.583l-1.204,2.929l0.348,0.62l-0.583,0.174l0.174,1.253l-0.968,2.295l1.948,0.881l1.092,2.283l1.662-1.489
		l0.36,0.396l0.856-0.459l0.211-0.732l-0.049-0.881l0.347-1.017l0.98-0.36l0.397-1.253l4.131-3.114l-2.531-3.138l-1.439,0.062
		l-0.397,1.03l0.062-0.917l-0.682,0.682l0.099-0.682L22.097,20.235z M53.809,22.071l-1.836,0.36l-0.335,0.67l0.856,1.153
		l-1.154-0.396v3.213l0.062,0.856l0.756,0.522l-0.297,0.57v0.744l0.297,0.173l-0.297,0.398l0.297,0.185l0.918-0.297l0.732-1.438
		l-1.029-1.092l2.531,0.173l0.693-1.551l0.161-0.396l-0.222-0.062l0.396-0.223l0.174-1.216h0.348l0.521-1.315L53.809,22.071z
		 M48.834,22.432l-1.8,0.917l0.943,0.211L48.834,22.432z M46.117,23.287l-0.211,0.162l0.335,0.508l-1.191,0.187l0.608,0.459
		l0.124,0.571l-0.918-0.112l1.676,1.154l-0.583-0.062l0.459,0.98l-0.298,0.161l0.124,0.509L45.198,28.2l-0.967-1.315l-0.397,0.249
		l-0.162,0.731l1.129,2.011l1.316,0.285l0.36,0.757l0.62,0.669l0.458,1.377l0.695,0.187l0.521-0.583l-0.124-0.622l0.794,0.038
		l0.98-0.855l-0.223-1.712l0.285-0.571l-0.285-1.042l-0.571,0.459l0.062-0.459l-0.583-1.03l-0.918,0.46l0.646-1.315l0.607-0.397
		l-0.335-0.708l0.694-1.005l-0.458-0.521l-1.725,0.67L46.117,23.287z M39.131,23.858l-0.707,1.079l1.96,2.196l0.422-0.707
		l0.496-1.886l-0.347-0.521L39.131,23.858z M63.338,23.858l-2.816,0.05l-1.949,2.345l-0.284,1.34l0.223,0.1h-0.336l-0.458,1.427
		l0.112,0.757h0.222l-0.558,0.682l0.336,0.819l-0.236,1.191l3.288,1.55l-2.593-0.21l0.186,0.21l-0.186,0.347l1.438,1.948
		l1.191,0.124l0.583-0.583l0.123,0.632l0.634,0.807l3.201,0.049l1.314,0.708l0.41-0.521l0.57,0.62h0.236l-0.175-0.223l-0.694-0.98
		l1.947,0.521l0.236,0.459l0.98-0.236l0.186-0.161l-0.484-1.216l-0.458-0.161l0.818-0.063l0.671,0.683l0.645-0.099l0.062,1.254
		h0.793l0.063,0.459l-0.286,0.223l1.502,1.154l0.099,0.459l-0.396,0.335l-0.683-0.1l0.037,1.191l1.153-0.857l0.806-0.062v0.41
		l0.696,0.968v-0.633l0.459,0.113l0.062,1.104l0.905,0.571l0.807,2.569l-0.683,0.881l-0.124,0.682l-1.612,1.613l0.979,1.488v0.523
		l-0.683-0.299l-1.327,0.758l-2.296-0.459l0.188,0.223h-0.248l0.061,0.459l-0.619,0.459l-0.235,0.906l0.458,0.707l1.153,0.459
		l0.981-0.459l-0.062-0.41l0.223-0.174l1.216,0.521l0.112-0.186l-0.459-0.795l0.347-0.236l0.05,0.522l1.204,0.173l0.693,1.65
		l1.837,0.98l-0.645,0.422l-0.211-0.298l0.917,1.364l1.067,0.584l0.484-0.337l0.1,0.399l0.459-0.188l0.396,0.98l0.297-0.161
		l0.274,0.521l1.376,0.558l0.584-0.223l0.521,0.644l0.396-0.061l-0.101-1.104l-1.735-1.613l-1.142-1.364l-0.299-0.459l0.299-0.124
		l0.683,0.818l0.459-0.297l1.029,1.327l1.377,0.161l0.757,1.104l0.099-0.124l-0.272-0.745l0.571,0.111l-0.111-0.508l-0.46-0.572
		v-0.458l0.521,0.397l0.113-1.092l-0.174-0.744l-0.757-0.298l0.297-1.129l-0.396-0.359l-0.298,0.234l-0.099-0.633l-0.708,0.174
		l0.247-0.334H84.23l-0.124,0.334l-0.336-1.092l-0.297-0.062v-1.08h-0.795l0.113-0.755l0.854-0.162l-1.153-1.216l0.396-0.21
		l0.646,0.458l-0.285-0.645h0.682l-0.098,0.583l1.129,0.62l0.124,0.41l0.583-0.049v0.794l0.459,0.732l0.273-0.212l-0.063,0.571
		l0.248,0.285l0.336-0.125l0.757,0.881l0.396-1.104l-0.235-1.216l0.793,0.521l0.36-1.08l0.396-0.174l-0.582-0.124l0.286-0.57
		l-0.286-0.1l0.98,0.162l0.187-0.162l-0.25-0.248l0.397-0.57l-0.918-1.079l-1.253,0.285l0.348-1.166l-1.315,0.248l0.273-0.584
		l-0.62-1.153l-0.695-0.161l0.124-0.633l-1.104,0.459l-0.335-0.347l0.224-0.335l-0.163-0.297h-0.757l0.175-0.521l-1.824-0.67
		l0.671-0.248l-0.46-0.608l0.396-0.422l-0.854-0.559l2.294-0.236L81.7,38.945l1.773-0.583l0.236-0.334l-0.175-0.298l-1.042-1.191
		l-0.148,0.57l-0.881,0.522l0.472-0.757l-1.154,0.125l1.254-0.744l0.062-0.757l-1.191-0.571l-0.979,0.906l0.583-1.129l-1.104,0.633
		l0.347-0.968l-0.062-0.422h-1.712l1.091-0.335l0.101-0.285l-0.397-0.919l-1.314-0.819l-0.336,0.646h-0.521l0.061,0.794
		l-0.421-0.459V32.17l-0.521,0.335l0.582-1.191l-1.65,0.397l0.733-0.633l0.061-0.744l-0.979-0.174l0.185-0.744l-0.756-0.967
		l-2.171-0.646l-1.154,0.694l0.297,0.683L70.05,29.64l-0.856-0.335l-0.062-0.683l-0.286,1.142l-0.906,1.092l-0.124-0.521l0.46-0.174
		l-0.285-0.224l0.558-2.072l-0.497-0.731l0.225-0.646l-0.918-0.633l0.272-0.335l-0.396-1.612l-2.346,0.57l-0.334,0.459l0.272,0.236
		v0.459l-0.918-0.509l0.124,0.794l-0.795-0.397l-0.062,0.335l0.211,0.298l1.215,0.521l-1.946-0.187l1.711,1.204l-1.885-0.459
		l0.174,1.724l0.794,0.162l-1.254,1.438l0.682,1.092l0.757,0.187l-0.185,2.072l-0.111,0.396l-0.101-0.757l-1.798,0.459l1.898-0.918
		l-1.477-2.171l-0.237-0.583l0.237-1.216L61.377,28.2l0.521-2.108L63.338,23.858z M68.151,24.354l-0.161,1.167l0.807,0.571
		l0.174,1.253l0.73,0.521l3.735-0.632l-1.377-2.296l-1.774-0.583H68.151z M29.789,25.335l-3.97,2.828l-0.298,0.956l0.422,0.521
		l-1.042,1.39l0.124,0.807l1.191-0.124v0.521l-0.459,0.273l0.124,0.298l2.928-0.633l-0.583,0.398l0.286,0.235l-2.754,1.142
		l0.745,1.39l2.406,0.346l1.787-0.583l1.998,0.98l-0.459,0.508l-2.109-0.298l-3.388,1.042l0.919,1.836l1.948,0.571l1.439,0.694
		l-0.062,0.583l0.124,0.459l0.571,0.521l-0.236,0.274l4.182-0.521l1.042-0.968l1.427-0.187l0.856-1.525l0.298,0.272v0.633
		l1.563,0.348l-0.311,0.508l2.593,0.521l1.601-1.153l-0.745-0.224l0.286-0.807l-0.162-0.099l-1.092,0.793l-0.062-1.042l0.695,0.062
		l-0.124-0.632l0.645-0.558l0.162,0.669l0.347,0.125l0.161-0.856l0.249,0.856h0.272l0.124-1.092l-0.062-0.521h-0.632l-1.44-1.6
		l-0.744,0.062l-1.266-1.551l0.112-1.8l-0.67-1.525L40.447,28.2l-0.224-0.335l0.062-0.397l-1.501-1.774h-0.298l0.062,0.459
		l-1.314-0.633l0.186,0.397l-0.36,0.235l0.508,3.388l0.41,1.253l-0.744,0.918l-0.273-0.273l0.099-0.757l-0.285-0.346L36.6,28.561
		l-1.042-1.427l-1.067-0.36l0.732,1.154h-0.335l0.211,0.459l-2.283,0.918l0.819-1.315l-2.022-1.315l-0.571,0.396L30.98,27.99
		l-1.092,0.397l0.571-1.551l-0.161-1.203L29.789,25.335z M50.025,26.153l-0.459,0.273l0.235,0.807l0.397-0.397L50.025,26.153z
		 M52.097,30.681l-0.919,1.303l0.336,0.484l-0.111,0.683l-0.397-0.41l-0.459,0.41l-0.124,1.55l0.521,0.571L50.26,36.19v0.98
		l2.469,2.11l0.743-0.211l0.113,0.793l-0.298,0.112l0.124-0.633l-0.397,0.174l-0.583,1.96l0.645-0.062l0.212-0.334l-0.212,0.037
		l0.174-0.521l0.459,1.34l-1.277,1.588l-1.092-0.1l0.174,0.335l-0.174,0.744l0.359,0.522v0.967l-0.359-0.21l0.174-0.298
		l-0.571,0.298V45.26l-0.459-0.235l0.459-0.348l-0.161-0.235l0.161-1.477l-0.745,0.682l0.186-0.856l-0.521,0.062l-0.421-0.646
		l-1.526,0.298l0.732,1.6l0.98-0.161v0.683l-0.186,0.236l-0.968-0.422l-0.397-0.981l-0.224,0.187l0.397,0.794l-2.233-0.335
		l-2.184,0.521l-1.142-1.315l-1.613,0.049v-0.397l-1.029-0.694l0.235-0.124l-0.359-0.572l0.173-0.161l-0.731-0.756l-2.407,1.03
		l-0.521,0.868l0.918,0.757l0.397-0.187l-0.335-0.335l0.397-0.236l0.968,0.298l0.124-0.521l-0.174-0.186h0.273l-0.099-0.211
		l0.794-0.298l-0.633,1.328l-1.314,0.496l-0.187,0.298l0.187,0.124l-0.521,0.559l0.917,1.849l-0.173,0.1l0.236,0.459l-0.646,0.062
		v0.459l-0.731-0.979l0.682-0.149l-0.223-0.583l-0.633-0.235L36.6,44.677l-0.224,0.745l-0.124-0.98h-0.906L35,43.523l-2.01,1.042
		l-3.202-0.124l-1.042-0.559l0.335-0.235v-0.521l0.645-0.161l-0.36-0.111h1.154l-0.174-0.82l-1.142-1.252l-1.153-0.124l0.298,0.583
		l-1.155-0.348l-3.573-1.427l-1.824-1.314h-1.501l-0.459,1.252l-1.191,0.112l0.583-1.154l-0.521-0.062v-1.252h-0.297l0.173,0.285
		l-0.111,0.237l-0.162-0.125l-0.757,1.266l0.335,0.236l-0.559,0.396l-0.421,0.062l-0.794-1.042l-0.633-1.885l-0.856-0.856
		l-0.224,0.459l0.621,0.57l-1.601,1.713l0.285-0.793l-1.65,0.918l-0.819,1.551v-0.918l-2.122,1.203l1.204-1.377l1.03-0.062
		l1.501-1.314l0.236-0.335l-0.236-0.646L8.027,39.64l-0.793,0.856l0.521,1.079l-0.062,0.459l-0.645-0.955l-0.794-0.062l0.397,0.671
		l-0.273,0.062l-1.34-0.918H3.97l-2.022-2.072L0,38.299v25.545l1.142,0.285l0.93-0.346L2.01,64.43l1.65,1.823l0.31,0.683
		l0.906-0.521l0.458-0.919l0.98-0.508l1.142,2.071l0.695,0.446l2.109,4.306l2.134,1.217l-0.062,1.959l0.062,0.672h-0.285
		l-0.112,0.521l0.57,0.397l-0.173,0.458l0.856,1.041l0.298-0.123l-0.062,0.919l0.397,0.929l0.521-0.111v0.397l0.459-0.186
		l0.125,1.502l0.397-0.224v0.396l0.161,0.062l-0.521,0.161l0.409,0.173l-0.409,0.124l0.112,0.272l0.583,0.349l0.98-0.161
		l-0.124,0.211l0.521,0.31l-0.223,0.273l1.712,0.235l-0.173,0.559l0.173,0.298l0.459,0.223l0.286-0.061v-0.397l0.409,0.633v0.459
		l0.459-0.459v0.744l0.682,0.062l-0.459,0.174l0.236,0.285l31.265,0.05l0.05-0.794l0.582,1.203l2.011,0.174l1.6,0.918l0.634-0.123
		l1.215,0.297l0.46-0.236l0.559-0.794l0.111,0.336l0.41-0.732v0.621l0.396-0.919l0.756,0.236l0.336,0.918v-0.794l0.819,0.037
		l0.67,1.39l0.918-0.062l-0.062,0.583l0.36,0.46v0.67l0.285,0.124l-0.062,0.683h0.173l0.062-0.162l0.161,0.396l3.785,0.695
		l0.819,0.855v0.335l0.458,0.521l-0.458-0.11v0.507l-0.757-0.272l-0.224,0.225l-0.051-0.584l-0.248,0.062l-0.099-0.522l-0.409-0.061
		l0.298,0.88l-0.397,0.918l-0.062,1.254l-0.757,0.459l-0.161,0.694l0.161,0.396l-0.521-0.062l-0.223,0.584l0.744,0.062l1.488-1.106
		l0.646,0.188l0.571-0.36h1.376l-0.236-0.62l-0.806-0.111l0.682-0.707l1.217-0.335l1.19,0.062l-0.161-0.397l0.285,0.113l1.378-0.759
		l0.869-0.632h3.833l0.235-0.46l0.856-0.099l0.695-2.406l0.683-1.043l0.633,0.459l0.645-0.334l0.545,0.559v2.183l0.312,0.123
		l0.049,0.559l0.521,0.125l1.602-0.186l1.266-1.067l0.223,0.148l-0.582,0.583l0.061,0.235l1.676-0.061l-0.918,0.459l-0.298-0.336
		l-1.947,1.19l0.297-0.048l-0.297,0.633l0.062,0.57l0.757,0.521l1.253-1.279l0.236-0.445l0.557,0.111v-0.336l0.82-0.061l2.108-0.857
		l-0.397-0.123l0.063-0.337l-0.646-0.123l-0.101-0.335l-0.867,0.335l-1.439-0.509l0.236-0.186l-0.856-0.336l-0.235-0.335
		l-0.124-0.918l-0.509-0.062l0.569-1.092l-0.334-0.249l-0.633,0.299l-0.161-0.335l-0.882-0.175l0.819-0.247l0.683,0.186l1.092-0.856
		l-0.062-0.694l-0.794-0.459l-1.774,0.111l-2.01,0.98l-1.377,1.092l-1.278,1.602l-0.458,0.235l0.918-1.03l0.583-1.166l0.459-0.211
		L81.7,86.34l0.918-0.795l0.855-0.123l0.521-1.03l0.633-0.521h4.64l0.708,0.273l1.587-0.559l-0.062,0.224l0.235,0.062l1.836-1.898
		l2.01-0.396l1.105-1.153l-0.423-0.396l0.423,0.061l-0.423-0.397l0.299-0.123l-0.175-0.694l-0.521-0.349h0.757l-0.359-0.57
		l0.124-0.099l-1.141-0.46l-0.423,0.733v-1.489l-0.954,0.062l0.459,0.112l-1.092,0.161l-1.837,1.439l0.062-0.521l-0.943-0.336
		l0.311-0.223l0.731,0.397l0.299-0.521l1.377-0.447l-0.794,0.05l2.22-0.906l-0.693-0.818l-0.398,0.409l-0.458-0.174l-0.46-0.694
		l-0.571,0.631l0.237-0.631l-0.237-0.224l-0.854,0.124l0.235-0.36l-0.062-0.619l-1.091-0.3l-0.063-0.618l-0.683,0.037l0.225-0.212
		l-0.273-0.347l0.21-0.236l-1.313-0.112l0.855-0.161l-0.173-0.186l0.694,0.235l-0.063-0.235l0.397-0.459L89.564,70.1l-0.57,0.061
		l0.671-0.396l-0.46-0.633l-0.396,0.051l0.286-0.299L88.87,68.61l-0.731,0.174l0.731-0.694l-1.154-0.236l0.82-0.349l-0.46-0.334
		l0.062-0.57l-1.216,0.235l1.029-0.583l-0.757-0.398l0.299-0.296l-0.397-0.063l-0.174-0.731h-0.285l0.161-0.334l-0.212-0.585H86.24
		l-0.819,1.254l0.349,0.646l-0.496,0.335l0.099,0.297l-0.161,0.56h-0.398l0.336,0.521l-0.297,0.508v-0.57l-0.46-0.336l-0.285,0.795
		l-1.153,0.817l-0.101-0.706l-0.174,0.186l0.113-0.582l-0.447,1.103l-0.819,0.113l0.819-0.174l0.05-0.646l-0.298-0.967l-2.11,0.459
		l0.522-0.286l-0.188-0.335l0.46,0.223l0.458-0.223l-0.272-0.46l0.272-0.297l-0.458-0.062l0.286-0.683l-0.286-0.57l-1.824-0.334
		l2.11-0.063l-0.397-0.979l0.397-0.98l-0.286-0.334l-0.509,0.521l-0.248-0.521l-1.477-0.174l-0.297-0.745l0.347-0.298l-0.807,0.125
		l0.187-0.299l-0.187-0.619l-0.632,0.272l0.235-0.856l-1.365-0.794l-1.438,0.794l-2.756-1.029l-0.757,0.794l0.125,1.092l0.732,0.187
		l-0.794,2.109l0.693,0.234l-0.359,0.125l0.124,0.559l0.235,0.581l-0.173,0.447h0.57l-0.297,0.646l0.421,0.235l-0.694-0.124v0.806
		l-1.191,0.461v0.57l1.364,1.154l0.746,2.753l0.172,1.378l0.336-0.583l0.286,0.694l-0.622,0.101l-1.028,1.736l-2.233,1.601
		l0.732,1.153l0.284,2.68l0.409,0.422l0.51,0.099h-0.56l-0.757,0.695l0.46,0.584l-0.224,0.458l-0.646-0.458l-0.173,0.161
		l-0.161,0.062l0.062,0.571l-0.818-0.46l-0.856,0.584l0.646-0.757l-0.124-0.559l-0.584-0.582h-1.066l0.793-0.461l-0.979-1.264
		l0.124-0.521l-0.237-1.65l0.113-1.899l-3.388-0.334l-0.46,0.919l0.398-1.106l-0.67-0.57l-1.862-0.582l-0.669-1.03l-1.154-0.682
		l-2.171-1.03l-1.96,0.756l0.458-0.483v-0.683l-0.917-2.642l-1.03-0.161l-0.187,0.62l-0.148-0.745l-0.521-0.458l0.111-0.336
		l0.051-2.866l0.694-1.613l-0.46-0.521l1.154-0.569l0.224-0.409l-0.124-0.272h0.236l0.346-0.634l0.398,0.298v-1.277h0.757
		l-0.459-0.124l-0.062-0.51l1.092,0.05l0.919-0.459l-0.298-1.252l-1.03-0.571l-0.559,0.397l0.162-0.286L53.994,55l-0.062,0.359
		L53.647,55l0.223-0.224l1.44,0.683l0.693-0.1l1.031,0.795l0.619-0.46l0.062-0.757h0.236l-0.063-0.396l0.857,0.359l1.152-0.46
		l1.379-2.767l-2.47-0.334l-1.315-1.316l0.161-0.248l1.552,0.583L60,51.34l0.819-0.124l1.438-1.949l-0.062-0.559l-0.694-0.185
		l0.236-0.571h1.314l0.186,0.856l0.733,0.111l0.062-0.459l0.794,0.583l-0.46-1.092l0.188-0.396l0.73,0.905l0.82-0.57l1.488-1.836
		l0.037-0.794l-0.968-1.216l0.174-0.917l-0.335,0.187v-0.521l-0.396-0.459l0.558-0.186l0.235,0.409l0.584-0.559l0.111-0.756
		l-0.757-0.124l0.757-0.794l-1.092-0.348L65.98,39.28l0.223-0.161l-0.161-0.633l-3.165-0.335v1.588l0.87,0.818l-0.51,0.559
		l0.51,0.297l-1.216,0.335l-0.05,0.98l-0.807,1.835l-0.051,0.918l-0.854,0.508l-1.216-2.047l0.173-1.439l0.062,0.397l0.396-0.049
		l-0.459-1.774l-0.918-1.216l-0.521,0.062l-0.335,0.633v1.08l-0.571,1.216l-0.31-0.707l0.186-0.906l-1.093-1.725l0.51,0.161
		l0.062-0.607l-2.109-0.521l0.918-0.979l-0.521-0.696l0.979,0.174l-1.613-2.284l-0.123-1.736l-0.682-0.857l-0.113-0.793
		l-0.743,0.272l-0.235-0.335l0.186-0.459L52.097,30.681z M48.771,37.791l-0.459,0.967l0.162,0.311h-0.397l0.112,0.607l-1.154,0.757
		l-0.037,0.583l3.61,1.254l1.254-1.092l-0.285,0.172l-1.675-2.406L48.771,37.791z M73.151,42.854l-0.968,1.364l-0.124,0.856
		l0.334,0.857h1.502l0.632-0.732l0.063-1.439l-0.236-0.633L73.151,42.854z M23.871,46.749l1.03,0.397l-1.427,0.917l-0.187,0.396
		l0.236,0.187l1.96,0.061l1.018-0.942l-0.1,0.694l0.272-0.21l-0.334,0.621l0.112,0.235l-0.931,1.427l-1.191-0.235l-0.459,0.645
		l0.509,0.634l-0.447-0.062l-1.625,1.539l-0.149-0.398l1.018-0.918l0.111-0.396l-0.062-0.521l-1.067,0.57l-0.125,0.684l-0.521,0.482
		l-1.675-0.582l0.645-0.236l0.112-0.619l0.62-0.485l0.062-0.397l-0.335-0.558l1.216,0.162l0.149-0.336l-2.01-0.458l-0.099,0.458
		l-1.551-0.296l-0.335,0.633l-0.298-0.572l0.112-0.458l3.511-0.745L23.871,46.749z M63.052,50.024l-0.57,0.161l-0.41,0.932
		l-0.21,2.295l0.099,1.028l-0.856,0.683l-0.223,0.571l0.161,0.348l1.439-0.459l0.11-0.397l0.063,1.489l0.458,0.397l1.774-1.613
		l0.062-0.794l0.732-0.225l-0.161,0.46l0.805,0.1v0.694l1.428,0.583l1.092-0.818l-0.855-0.918l-0.869,0.124l-0.348-1.501
		l-2.468-1.49l0.061-0.334l-0.396-0.348l-0.584,0.522l-0.049-0.919L63.052,50.024z M28.511,57.406l0.235,0.646l1.141,0.854
		l0.41-0.285l-0.174-0.807l0.57,1.552l0.559-0.348l-0.038,0.707l0.348,0.037l0.794-0.16l0.856-1.316l0.869-0.521l0.98-0.062
		l1.079,0.521l-0.458,0.349l-0.695-0.286l-0.286,0.099l0.583,0.397l-1.377-0.099l0.062,0.459l-0.793,0.46l-0.124,0.521l-0.695,0.793
		l-1.439,0.634l-0.162,0.683l-2.704,0.459l-1.712-1.379l-1.042,0.125l0.645-0.583l2.568,0.918v-0.582l0.571-0.038l0.124-0.868h0.682
		l-0.161-0.223l0.211-0.336l-0.571-0.123l0.174-0.36l-0.918-0.621l-0.794-1.153L28.511,57.406z M35.917,64.702l0.857,0.062
		l-0.695,0.521v0.396l0.633-0.123l-0.273,0.359l1.315-0.174l1.489,0.335l-3.164,0.335l-1.191,0.521v0.521l-1.104-0.062l1.674-2.109
		l0.583-0.124l-0.359-0.272L35.917,64.702z M5.732,68.201L5.223,68.61l0.224,0.397l-0.112,0.285l0.571,0.867l0.112-0.234
		l-0.05-0.571l0.856,0.682v-0.569l-0.806-0.285l0.757,0.111l-0.236-0.285h0.285L6.65,68.723L5.732,68.201z M7.457,68.548
		L7.06,68.784l0.174,0.967l0.285,0.063l-0.174,0.111l0.174,0.234l-0.174,0.113v0.633l0.397-0.41V70.16l0.285,0.113l-0.458-1.489
		L7.457,68.548z M6.253,69.863L6.08,70.321l0.459,0.521l-0.174,0.396l0.41,0.349l0.161-0.285l-0.161,0.57l0.335,0.744l0.062-0.793
		l-0.286-1.378L6.253,69.863z M8.027,70.843l0.125,0.349l0.223,0.918l0.521-0.063L8.66,71.303l0.409,0.347l-0.173-0.632
		L8.027,70.843z M7.457,71.239l0.285,0.521l0.174,0.237l-0.223,0.111v0.347l0.285,0.335v-1.03h0.174l-0.062-0.347L7.457,71.239z
		 M9.231,71.477l-0.05,0.348l0.285,0.049L9.231,71.477z M9.404,72.158l-0.335,0.062l0.224,0.235L9.404,72.158z M9.814,72.158
		l0.285,0.521v-0.285L9.814,72.158z M8.375,72.331l0.112,0.286l-0.223,0.584l0.459-0.459L8.61,73.771l0.509,0.112v0.409
		l-0.285,0.049l0.632,0.287l0.397,0.917h0.348v-0.508l-0.174,0.05l0.174-0.459l-0.459-0.336L9.64,73.834l0.348,0.285l-0.695-1.155
		l-0.348-0.048l-0.111-0.521L8.375,72.331z M11.129,73.201l-0.521,0.173l-0.161,0.794l0.223,0.236l0.236-0.57v0.619l0.509,0.236
		L11.129,73.201z M8.834,74.516l0.062,0.521l0.397,0.508l-0.224-0.571L8.834,74.516z M48.077,76.351l0.632,0.063l0.174,0.224
		l-0.236,0.396l0.459-0.223l0.124,0.223l-0.235,0.175v0.285l0.235,0.979l0.335,0.461l0.235,1.488l1.043,1.736l-0.298,1.129
		l-0.124-0.062l-0.161,0.41h-0.235l-0.124-0.508l0.483-1.031l-0.359,0.1l0.173-0.793l-0.335-0.125l-0.235,0.458l-0.397-1.252
		l-0.235,0.46h-0.348l-0.111-0.746l-0.621-0.569l-0.186-0.584l0.459-0.272l-0.794-0.249l-0.062-0.396l0.348-0.795l1.091,0.223
		l-0.297-0.582l0.173-0.335L48.077,76.351z M8.945,76.699v0.335l0.286,0.695l0.521,0.223L9.64,78.188l0.112,0.459l0.571-0.459
		l0.235-1.205l-0.111-0.284l-0.236,0.224l-0.397,0.807l-0.348-0.112l0.521-0.285l-0.174-0.583l-0.348,0.285l0.062-0.335H8.945z
		 M11.985,76.812l-0.224,0.223l0.397,0.124L11.985,76.812z M12.159,77.27l0.807,1.203l0.112-0.397l-0.397-0.458L12.159,77.27z
		 M11.936,77.617l0.744,0.919l-0.173-0.633L11.936,77.617z M10.385,78.412l-0.633,0.347h0.236v0.348l0.049-0.173v0.521l0.981,1.029
		l-0.695-1.029v-0.41l0.285-0.05l-0.285-0.235l0.235-0.05L10.385,78.412z M96.737,81.575l-0.695,0.05l-0.509,0.298l-0.869,1.141
		l0.235,0.175l-0.285,0.632l0.112,0.175l-0.348,0.111l-0.223,1.028l-0.348,0.175l0.173,0.571h-0.409l-0.284,0.743l-0.634,0.235
		l0.807,0.174l-0.918,0.857v0.285l0.347,0.286h2.52l1.154-0.46l-0.112,0.347l-0.348,0.285h0.745l0.174-0.397l0.569,0.175
		l-1.203,0.918l0.225,0.286l1.377-0.919l0.297-0.855h0.161l0.175,0.968l-0.225,0.807l0.571-0.46l0.174,0.919l0.397-0.174L100,88.746
		l-0.174-0.521l-0.336,0.409l0.285-1.154l-0.806,0.918l-0.223-0.223l0.161-0.46l-0.285-0.235l0.807-0.458l0.111-0.349l-1.093,0.299
		l0.584-1.551l-1.042-0.174l-1.031,0.335l0.236-0.51l-0.807,0.175l-0.235-0.409l0.695-0.336l-0.745-0.125l0.05-0.222l-0.744,0.855
		v-0.794l0.633-0.918v-0.583h0.347l0.062-0.396l-0.124-0.397L96.737,81.575z M87.208,84.441l-0.521,0.174l0.979,0.458l0.174,0.349
		l1.314,0.459l0.634-0.062l-0.225-0.459l-0.743-0.348L87.208,84.441z"/>
</g>
<g id="Layer_1">
</g>
</svg>
