<?xml version="1.0" encoding="iso-8859-1"?>
<!-- Generator: Adobe Illustrator 16.0.3, SVG Export Plug-In . SVG Version: 6.00 Build 0)  -->
<!DOCTYPE svg PUBLIC "-//W3C//DTD SVG 1.1//EN" "http://www.w3.org/Graphics/SVG/1.1/DTD/svg11.dtd">
<svg version="1.1" xmlns="http://www.w3.org/2000/svg" xmlns:xlink="http://www.w3.org/1999/xlink" x="0px" y="0px" width="100px"
	 height="100px" viewBox="0 0 100 100" style="enable-background:new 0 0 100 100;" xml:space="preserve">
<g id="CD">
	<path style="fill:#010101;" d="M91.729,35.469l-3.733,5.6l0.802,1.866l0.798,3.2l-0.798,9.33l0.798,2.934l0.271,4.004l1.862,3.2
		l3.47,2.662l0.798,3.203l-7.199,1.601l-2.4,3.733l0.8,6.666l-1.867,6.935l2.4,2.667h3.732l0.267,5.862l-4.532-1.063l-4.268-4.799
		l-3.2-0.801l-2.133-1.866l-4.263,0.8l-4.271-2.134l-1.333-1.866l-3.468,1.063l-1.333-2.664l-1.332,0.267L53.6,86.401l-1.336,1.864
		l-1.601-1.063l1.601-2.934l-2.397-5.869l-0.27-10.135l-0.532-1.333h-4.801l0.27-2.129l-6.403,0.8l-1.598,4.799l-7.999,1.066
		l-4.27-4.266l-1.598-6.4l-2.135-1.6L5.067,59.469L0,61.6v-2.131l0.797-0.267l0.534-4.271l2.136-1.862l2.931,0.799l1.334-1.599
		l2.665-0.801l0.267,2.399l1.07,0.267l6.931-5.065l1.604-3.201l1.063-6.132l1.868-3.468l5.067-3.733l1.867-14.136l2.931-5.596
		l0.27-3.2l1.063-0.533l0.266-4.003l2.934-3.467l3.2,0.27l2.934,3.197l1.336-0.264l3.729,1.333h4.537l2.397-2.667l2.67,0.8
		l6.396-2.133l1.066,1.067l1.867-0.8l0.267-0.803l5.604-0.53l1.329,1.333l0.8-0.533l0.803,0.533l1.064-0.803l2.669,0.27l2.664,3.197
		l2.4,1.07l1.337-1.07l3.2,0.536l1.596-1.064l6.403,5.331l-0.27,5.063L100,17.068l-4.003,3.734v1.6l-3.468,4L91.729,35.469z"/>
	<path style="fill:#070404;" d="M63.123,29.911c0.445,0,0.605,0.29,0.908,0.404c0.184,0.069,0.33-0.061,0.432-0.086
		c0.117,0.104,0.379,0.018,0.518,0.115c0.121,0.093,0.113,0.259,0.26,0.346c0.301-0.187,0.26-0.069,0.547,0
		c0.182-0.183,0.68-0.149,0.82,0.043c0.037,0.048,0.047,0.169,0.072,0.216c0.02,0,0.039,0,0.059,0
		c0.104-0.14,0.209-0.431,0.389-0.49c0.211-0.004,0.422-0.01,0.633-0.014c0.15-0.055,0.166-0.239,0.375-0.259
		c0.668,0.431,1.158,1.468,0.748,2.549c-0.066,0.115-0.133,0.23-0.201,0.346c-0.053,0.019-0.105,0.038-0.158,0.057
		c-0.006,0.01-0.01,0.02-0.014,0.029c-0.01,0.082-0.02,0.163-0.029,0.245c-0.076,0.096-0.154,0.192-0.23,0.288
		c-0.004,0-0.01,0-0.014,0c-0.01,0.12-0.02,0.24-0.029,0.36c-0.082,0.101-0.164,0.202-0.246,0.302
		c-0.137,0.376-0.242,0.706-0.402,1.051c-0.1,0.213-0.395,0.307-0.504,0.504c-0.004,0.057-0.01,0.115-0.014,0.173
		c-0.049,0.047-0.098,0.096-0.145,0.144c-0.01,0.091-0.02,0.183-0.029,0.274c-0.125,0.22-0.408,0.38-0.504,0.633
		c-0.004,0.221-0.01,0.442-0.014,0.663c-0.041,0.12-0.135,0.15-0.115,0.374c0,0.01,0,0.02,0,0.029c0,0.009,0,0.019,0,0.028
		c0.027,0.085,0.1,0.091,0.115,0.216c-0.311,0.554,0.068,1.523-0.115,2.232c-0.039,0.147-0.211,0.31-0.26,0.446
		c-0.004,0.086-0.01,0.173-0.014,0.259c-0.039,0.048-0.078,0.096-0.115,0.144c0,0.134,0,0.269,0,0.403
		c-0.049,0.048-0.096,0.096-0.145,0.144c-0.004,0.082-0.01,0.163-0.014,0.245c-0.076,0.193-0.311,0.376-0.375,0.547
		c0,0.182,0,0.365,0,0.547c0.039,0.048,0.076,0.096,0.115,0.144c0,0.48,0,0.96,0,1.44c0.043,0.048,0.086,0.096,0.129,0.144
		c0.109,0.237,0.238,0.7,0.145,1.109c-0.059,0.259-0.363,0.376-0.504,0.562c-0.098,0.13-0.094,0.267-0.158,0.432
		c-0.043,0.048-0.086,0.096-0.131,0.144c0,0.072,0,0.144,0,0.216c-0.09,0.23-0.182,0.461-0.273,0.691c0,0.096,0,0.192,0,0.288
		c-0.039,0.106-0.221,0.268-0.129,0.519c0.043,0.048,0.086,0.096,0.129,0.144c0,0.01,0,0.02,0,0.029c0,0.12,0,0.24,0,0.36
		c0.023,0.064,0.123,0.087,0.102,0.202c-0.191,0.46-0.385,0.921-0.576,1.381c-0.105,0.097-0.211,0.193-0.316,0.289
		c-0.039,0.103,0.021,0.227-0.029,0.303c-0.148,0.144-0.297,0.287-0.447,0.432c-0.053,0.01-0.105,0.019-0.158,0.028
		c-0.275,0.187-0.416,0.517-0.633,0.763c-0.264,0-0.527,0-0.791,0c-0.131,0.125-0.26,0.25-0.389,0.375
		c-0.127,0.076-0.492,0.23-0.578,0.316c-0.096,0.1-0.082,0.248-0.201,0.332c-0.066,0.023-0.133,0.048-0.201,0.072
		c-0.01,0.053-0.02,0.105-0.029,0.158c-0.076,0.081-0.152,0.163-0.23,0.244c-0.018,0.059-0.037,0.115-0.057,0.173
		c-0.082,0.087-0.164,0.173-0.244,0.259c0,0.087,0,0.174,0,0.26c-0.07,0.188-0.332,0.357-0.391,0.533c0,0.086,0,0.172,0,0.259
		c-0.047,0.048-0.096,0.097-0.143,0.144c-0.104,0.252-0.156,0.455-0.289,0.678c-0.051,0.086-0.156,0.139-0.215,0.216
		c-0.129,0.169-0.141,0.356-0.316,0.476c-0.059,0.01-0.115,0.019-0.174,0.028c-0.086,0.077-0.172,0.153-0.26,0.23
		c-0.262,0.157-0.492,0.306-0.734,0.489c0,0.201,0,0.403,0,0.605c-0.018,0.081-0.143,0.146-0.115,0.244
		c0.035,0.039,0.068,0.077,0.102,0.115c0.004,0.523,0.01,1.047,0.014,1.57c-0.043,0.047-0.086,0.096-0.129,0.144
		c0,0.196,0,0.394,0,0.591c-0.035,0.137-0.139,0.126-0.145,0.33c0.244,0.367,0.051,0.74,0.131,1.268
		c0.004,0.11,0.01,0.221,0.014,0.331c0.039,0.12,0.193,0.218,0.129,0.461c-0.062,0.241-0.273,0.487-0.389,0.691
		c-0.086,0.151-0.08,0.302-0.172,0.446c-0.092,0.082-0.184,0.164-0.273,0.244c-0.029,0.033-0.219,0.386-0.23,0.418
		c-0.113,0.283-0.523,1.24-0.721,1.368c-0.096,0.01-0.191,0.019-0.287,0.028c-0.049,0.039-0.098,0.077-0.145,0.115
		c-0.148,0-0.299,0-0.447,0c-0.176,0.028-0.223,0.104-0.33,0.145c-0.275,0.104-0.293-0.059-0.447,0.201
		c0.053,0.162,0.035,0.254-0.057,0.404c-0.457,0.092-0.695,0.451-1.023,0.676c-0.076,0.024-0.152,0.049-0.23,0.072
		c-0.125,0.115-0.248,0.23-0.373,0.346c-0.141,0.178-0.234,0.428-0.404,0.576c-0.26,0.229-0.621,0.39-0.821,0.677
		c-0.019,0.062-0.038,0.124-0.058,0.187c-0.097,0.168-0.297,0.326-0.374,0.52c-0.044,0.108,0.001,0.148-0.072,0.215
		c-0.089,0.082-0.14,0.049-0.273,0.102c-0.038,0.038-0.077,0.076-0.115,0.115c-0.39,0.241-0.787,0.209-1.065-0.102
		c-0.229,0.008-0.34,0.221-0.604,0.115c-0.299-0.15-0.008-0.77-0.13-1.108c-0.042-0.116-0.217-0.286-0.259-0.403
		c-0.028-0.076,0.003-0.238,0.028-0.273c0.067-0.143,0.259-0.271,0.374-0.375c0.008-0.369-0.179-0.434-0.346-0.619
		c-0.038,0-0.076,0-0.115,0c-0.182,0.119-0.348,0.301-0.562,0.39c-0.216,0.005-0.432,0.009-0.647,0.015
		c-0.18,0.066-0.296,0.338-0.389,0.504c-0.643,0.162-0.614-0.238-0.965-0.346c-0.058,0.062-0.115,0.125-0.173,0.188
		c0.003,0.225,0.043,0.987-0.029,1.094c-0.134,0.201-0.277,0.073-0.446,0.188c-0.059,0.042-0.08,0.139-0.114,0.201
		c-0.09,0.021-0.293-0.014-0.404,0.029c-0.117,0.045-0.618,0.549-0.734,0.532c-0.184-0.025-0.176-0.394-0.287-0.504
		C43.165,71,43.108,70.99,43.049,70.98c-0.186-0.074-0.463-0.283-0.59-0.432c-0.064-0.076-0.133-0.299-0.23-0.332
		c-0.05,0.045-0.038,0.061-0.129,0.072c-0.057-0.257-0.301-0.129-0.504-0.23c-0.193-0.188-0.385-0.375-0.576-0.562
		c-0.02-0.072-0.039-0.144-0.059-0.216c-0.038-0.038-0.32-0.059-0.389-0.102c-0.004-0.01-0.01-0.019-0.014-0.028
		c-0.06-0.015-0.07,0.027-0.102,0.044c-0.027,0.218-0.557,0.777-0.748,0.85c-0.178,0.004-0.355,0.009-0.533,0.014
		c-0.062,0.043-0.125,0.086-0.188,0.129c-0.082,0.022-0.148-0.007-0.201,0.029c-0.105,0.083-0.015,0.285-0.072,0.418
		c-0.07,0.164-0.231,0.344-0.346,0.475c-0.131-0.003-0.434-0.02-0.518,0.043c-0.129,0.098-0.119,0.3-0.217,0.433
		c-0.053,0.072-0.203,0.043-0.244,0.13c-0.059,0.121,0.014,0.182-0.102,0.244c-0.381,0.166-0.771,0.028-0.922-0.23
		c-0.014-0.057-0.028-0.115-0.043-0.172c-0.129-0.125-0.259-0.25-0.389-0.375c-0.152-0.209-0.168-0.386-0.273-0.662
		c-0.039-0.103-0.186-0.141-0.145-0.332c0.023-0.105,0.107-0.124,0.131-0.244c-0.121-0.103-0.145-0.293-0.274-0.389
		c-0.118-0.086-0.249-0.129-0.36-0.217c-0.191-0.195-0.384-0.393-0.576-0.59c-0.057-0.02-0.115-0.038-0.172-0.057
		c-0.202-0.193-0.403-0.385-0.605-0.576c-0.129-0.15-0.104-0.438-0.259-0.562c-0.254-0.203-1.095-0.564-0.907-1.137
		c0.036-0.111,0.176-0.271,0.23-0.375c0.01-0.096,0.02-0.191,0.029-0.288c0.191-0.196,0.383-0.394,0.576-0.591
		c0.445-0.256,0.522-0.035,0.806-0.532c0.273-0.067,0.648-0.036,0.734,0.173c0.01,0.058,0.019,0.115,0.028,0.172
		c0.111,0.111,0.221,0.222,0.332,0.332c0.055,0.08,0.039,0.158,0.115,0.216c0.162-0.079,0.484,0.121,0.676-0.015
		c0.02-0.014,0.039-0.028,0.059-0.043c0-0.038,0-0.076,0-0.115c-0.059-0.079-0.158-0.096-0.245-0.144
		c-0.056-0.216,0.271-1.059,0.389-1.21c0.046-0.057,0.165-0.06,0.216-0.115c0-0.01,0-0.02,0-0.028
		c-0.014-0.015-0.028-0.029-0.043-0.044c-0.592,0.011-0.447-0.214-0.764-0.389c-0.176-0.098-0.355-0.101-0.504-0.216
		c-0.006-0.37-0.02-0.669,0.174-0.835c0.057-0.05,0.149-0.031,0.201-0.086c0-0.016,0-0.029,0-0.043
		c-0.192-0.193-0.385-0.385-0.576-0.577c-0.184,0.024-0.178,0.133-0.375,0.145c-0.071-0.067-0.144-0.135-0.215-0.202
		c0.002-0.52,0.412-0.665,0.532-1.051c0.067-0.216-0.21-0.417-0.259-0.547c0-0.221,0-0.442,0-0.662
		c-0.033-0.088-0.111-0.088-0.13-0.217c0.067-0.082,0.134-0.163,0.202-0.244c0.403-0.008,0.549,0.24,0.791,0.389
		c0.181-0.1,1.014-0.404,1.195-0.36c0.08,0.169,0.145,0.251,0.26,0.374c0.182,0,0.365,0,0.547,0
		c0.062-0.043,0.125-0.086,0.188-0.129c0.158,0,0.316,0,0.475,0c0.062-0.043,0.125-0.087,0.188-0.13
		c0.13-0.033,0.297,0.033,0.389-0.028c0.065-0.045,0.314-0.455,0.273-0.591c-0.016-0.053-0.093-0.063-0.072-0.159
		c0.016-0.065,0.068-0.08,0.072-0.201c-0.081-0.105-0.163-0.211-0.244-0.316c-0.041-0.096-0.031-0.846,0.014-0.908
		c0.062-0.082,0.217-0.027,0.303-0.086c0.067-0.051,0.086-0.184,0.145-0.244c0.406-0.004,0.742,0.008,1.037,0.129
		c0.096,0.092,0.191,0.183,0.287,0.273c0.118,0.045,0.205,0.012,0.288,0.059c0.036,0.141,0.136,0.176,0.173,0.273
		c0.005,0.101,0.01,0.201,0.014,0.303c0.078,0.081,0.154,0.162,0.23,0.244c0.046,0.104-0.017,0.305,0.043,0.389
		c0.057,0.075,0.197,0.061,0.26,0.13c0.135,0.146,0.243,0.345,0.346,0.519c0.02,0.062,0.039,0.125,0.058,0.188
		c0.019,0.018,0.28,0.123,0.317,0.144c0.077-0.044,0.104-0.089,0.215-0.101c0.281,0.154,0.705,0.198,0.98,0.359
		c0.129-0.07,0.141-0.025,0.287,0c0.075-0.086,0.177-0.076,0.273-0.144c0.279-0.278,0.557-0.558,0.836-0.835
		c0.101-0.115,0.057-0.207,0.129-0.375c0.067-0.076,0.135-0.153,0.202-0.23c0.086,0.01,0.173,0.02,0.259,0.029
		c0.217,0.453,0.372,0.943,0.734,1.252c0.006,0.312-0.148,0.338-0.259,0.52c0.005,0.014,0.01,0.028,0.015,0.043
		c0.207,0.066,0.228-0.071,0.403-0.102c0.079,0.059,0.285,0.227,0.445,0.102c0.154-0.084,0.12-0.204,0.217-0.346
		c0.081-0.082,0.163-0.164,0.244-0.245c-0.024-0.177-0.157-0.298-0.259-0.403c0.005-0.028,0.01-0.058,0.015-0.086
		c0.117-0.262,0.227-0.141,0.346-0.26c0.009-0.053,0.019-0.105,0.028-0.158c0.043-0.048,0.087-0.096,0.13-0.145
		c0.088-0.238-0.023-0.617,0.043-0.82c0.244-0.102,0.581-0.174,0.749-0.359c0.005-0.293,0.01-0.586,0.014-0.879
		c-0.025-0.119-0.245-0.252-0.129-0.461c0.005-0.004,0.01-0.01,0.015-0.014c0.051-0.093,0.167-0.127,0.216-0.217
		c0.005-0.101,0.01-0.201,0.015-0.303c0.057-0.15,0.131-0.083,0.158-0.389c-0.445-0.361,0.128-0.432-0.015-0.82
		c-0.048-0.062-0.096-0.125-0.144-0.188c0-0.115,0-0.23,0-0.346c-0.051-0.157-0.228-0.286-0.245-0.489
		c0.14-0.256,0.181-0.605,0.374-0.806c-0.029-0.115-0.096-0.115-0.115-0.246c0.043-0.053,0.087-0.105,0.13-0.158
		c0.005-0.086,0.01-0.172,0.015-0.259c0.038-0.048,0.077-0.097,0.115-0.144c0.155-0.479-0.313-0.767-0.591-0.879
		c-0.048-0.043-0.096-0.086-0.144-0.129c-0.125-0.044-0.174,0.059-0.23,0.072c-0.02,0-0.039,0-0.058,0
		c-0.071-0.01-0.112-0.112-0.245-0.072c-0.048,0.029-0.096,0.058-0.144,0.086c-0.01-0.009-0.02-0.019-0.029-0.028
		c-0.224-0.106-0.186-0.538-0.288-0.778c-0.075-0.176-0.386-0.017-0.576-0.086c-0.066-0.024-0.082-0.091-0.172-0.115
		c-0.063,0.067-0.254,0.208-0.39,0.101c-0.094-0.059-0.293-0.268-0.316-0.389c0.13-0.255,0.259-0.509,0.389-0.763
		c0.06-0.256-0.204-1.026-0.23-1.268c0.046-0.084,0.073-0.193,0.13-0.288c0.076-0.086,0.153-0.173,0.23-0.259
		c0.01-0.057,0.019-0.115,0.028-0.172c0.163-0.149,0.327-0.298,0.49-0.447c0.056-0.085-0.031-0.183,0.014-0.302
		c0.115-0.115,0.23-0.23,0.346-0.346c0.125,0.005,0.25,0.01,0.375,0.015c0.053,0.038,0.105,0.077,0.158,0.115
		c0.005,0,0.01,0,0.015,0c0.009-0.005,0.019-0.01,0.028-0.015c0.058-0.072,0.115-0.144,0.173-0.216
		c0.137-0.102,0.31-0.058,0.375-0.23c0.048-0.13-0.031-0.301,0.028-0.403c0.12-0.134,0.24-0.269,0.36-0.403c0-0.173,0-0.346,0-0.518
		c-0.077-0.086-0.154-0.173-0.23-0.259c-0.05-0.084-0.018-0.244-0.072-0.317c-0.005-0.009-0.01-0.019-0.015-0.029
		c-0.005-0.005-0.01-0.009-0.015-0.014c-0.004-0.005-0.01-0.01-0.014-0.015c-0.065-0.066-0.279-0.092-0.317-0.173
		c-0.304-0.648,0.139-1.507-1.008-1.166c-0.094-0.061-0.278-0.185-0.374-0.216c-0.13-0.005-0.26-0.009-0.389-0.015
		c-0.056-0.023-0.086-0.131-0.173-0.115c-0.205,0.037-0.358,0.315-0.533,0.374c-0.168,0.005-0.336,0.01-0.504,0.015
		c-0.048,0.043-0.096,0.086-0.145,0.13c-0.053,0.009-0.105,0.019-0.158,0.028c-0.059,0.059-0.025,0.152-0.101,0.202
		c-0.062,0.048-0.407,0.091-0.532,0.043c-0.053-0.038-0.105-0.077-0.158-0.115c-0.044,0.034-0.087,0.067-0.131,0.101
		c-0.431,0.19-0.922,0.484-1.367,0.072c0-0.034,0-0.067,0-0.101c0.129-0.139,0.26-0.278,0.389-0.417
		c0.004-0.386-0.166-0.441-0.26-0.677c-0.009-0.058-0.019-0.115-0.028-0.173c-0.086-0.127-0.228-0.125-0.245-0.331
		c0.043-0.053,0.086-0.105,0.13-0.159c-0.21-0.351-0.091-0.237,0.015-0.518c0.004-0.086,0.01-0.173,0.014-0.259
		c0.039-0.048,0.077-0.096,0.115-0.144c0.07-0.224-0.188-0.238-0.129-0.475c0.081-0.096,0.163-0.192,0.244-0.288
		c0.016-0.072,0.029-0.144,0.043-0.216c0.121-0.105,0.24-0.211,0.361-0.316c0.064-0.121,0.016-0.268,0.086-0.36
		c1.42-0.009,2.842-0.019,4.263-0.029c0.547,0,1.094,0,1.641,0c0.105-0.115,0.212-0.23,0.317-0.346
		c0.235,0.051,0.355,0.297,0.547,0.36c0.106,0.035,0.227-0.022,0.303,0.029c0.076,0.082,0.153,0.163,0.23,0.245
		c0.21,0.076,0.293-0.289,0.532-0.101c0.104,0.082,0.115,0.254,0.23,0.331c0.077,0.051,0.198-0.008,0.303,0.029
		c0.09,0.032,0.227,0.229,0.402,0.101c0.092-0.072,0.184-0.145,0.273-0.216c0.459-0.008,0.709,0.275,0.922,0.519
		c0.293-0.003,0.248-0.073,0.404-0.129c0.211,0.004,0.422,0.009,0.633,0.014c0.049,0.039,0.096,0.077,0.145,0.115
		c0.201,0,0.402,0,0.604,0c0.301,0.077,0.477,0.345,0.691,0.504c0.059,0.01,0.115,0.019,0.174,0.029
		c0.129,0.086,0.26,0.173,0.389,0.259c0.096,0.009,0.191,0.019,0.287,0.029c0.131,0.08,0.131,0.272,0.246,0.36
		c0.07-0.062,0.143-0.125,0.215-0.187c-0.004-0.192-0.08-0.175-0.129-0.288c-0.006-0.082-0.01-0.163-0.016-0.245
		c-0.043-0.048-0.086-0.096-0.129-0.144c0-0.039,0-0.077,0-0.115c-0.043-0.048-0.086-0.096-0.129-0.144c0-0.106,0-0.211,0-0.317
		c0-0.497,0.051-0.738,0.287-0.979c0.062,0.004,0.125,0.009,0.188,0.014c0.066-0.11,0.135-0.221,0.201-0.331
		c0.061-0.089,0.217-0.142,0.26-0.23c0.154-0.318,0.248-0.606,0.389-0.936c0.049-0.048,0.096-0.096,0.145-0.144
		c0.004-0.082,0.01-0.163,0.014-0.245c0.129-0.303,0.389-0.629,0.504-0.936c0.096-0.254-0.072-0.429-0.115-0.562
		c-0.082-0.251,0.164-0.521,0.246-0.648c-0.078-0.128-0.234-0.475-0.088-0.691c0.078-0.082,0.154-0.163,0.23-0.245
		c0-0.086,0-0.173,0-0.259c0.043-0.048,0.086-0.096,0.131-0.144c0.072-0.199-0.066-0.5,0.027-0.662
		c0.158-0.271,0.5-0.461,0.938-0.461c0.148,0.004,0.297,0.009,0.445,0.014c0.135-0.045,0.178-0.186,0.447-0.144
		c0.201,0.031,0.254,0.118,0.445,0.13c0.053-0.043,0.105-0.086,0.158-0.13c0.135,0,0.27,0,0.404,0
		c0.047-0.039,0.096-0.077,0.145-0.115c0.086,0,0.172,0,0.258,0c0.082-0.048,0.164-0.096,0.246-0.144c0.133,0,0.268,0,0.402,0
		c0.004-0.005,0.01-0.01,0.014-0.015c0.072-0.077,0.145-0.154,0.217-0.23C62.926,29.989,63.031,30.013,63.123,29.911z"/>
</g>
<g id="Layer_1">
</g>
</svg>
