<?xml version="1.0" encoding="iso-8859-1"?>
<!-- Generator: Adobe Illustrator 16.0.3, SVG Export Plug-In . SVG Version: 6.00 Build 0)  -->
<!DOCTYPE svg PUBLIC "-//W3C//DTD SVG 1.1//EN" "http://www.w3.org/Graphics/SVG/1.1/DTD/svg11.dtd">
<svg version="1.1" xmlns="http://www.w3.org/2000/svg" xmlns:xlink="http://www.w3.org/1999/xlink" x="0px" y="0px" width="100px"
	 height="100px" viewBox="0 0 100 100" style="enable-background:new 0 0 100 100;" xml:space="preserve">
<g id="CG">
	<path style="fill:#010101;" d="M79.375,0c1.058,0,1.438,0.688,2.156,0.958c0.436,0.165,0.784-0.145,1.024-0.205
		c0.278,0.248,0.899,0.042,1.229,0.272c0.288,0.222,0.27,0.616,0.617,0.821c0.714-0.443,0.616-0.164,1.298,0
		c0.432-0.435,1.614-0.355,1.948,0.103c0.089,0.114,0.111,0.401,0.172,0.513c0.046,0,0.093,0,0.139,0
		c0.246-0.332,0.496-1.024,0.923-1.163c0.501-0.01,1.002-0.023,1.503-0.033c0.356-0.131,0.394-0.568,0.89-0.616
		c1.586,1.022,2.75,3.485,1.776,6.051c-0.158,0.273-0.315,0.547-0.479,0.821c-0.124,0.045-0.25,0.09-0.375,0.136
		c-0.014,0.023-0.023,0.046-0.032,0.069c-0.023,0.194-0.047,0.387-0.069,0.581c-0.181,0.228-0.366,0.456-0.547,0.684
		c-0.01,0-0.024,0-0.033,0c-0.023,0.285-0.046,0.57-0.069,0.854c-0.194,0.239-0.39,0.479-0.585,0.718
		c-0.324,0.893-0.574,1.676-0.955,2.496c-0.236,0.507-0.936,0.728-1.196,1.198c-0.009,0.135-0.022,0.272-0.032,0.41
		c-0.116,0.113-0.232,0.227-0.343,0.341c-0.023,0.217-0.046,0.434-0.07,0.65c-0.296,0.523-0.969,0.902-1.196,1.504
		c-0.009,0.524-0.022,1.049-0.032,1.573c-0.097,0.284-0.32,0.357-0.273,0.888c0,0.023,0,0.046,0,0.069c0,0.022,0,0.045,0,0.067
		c0.065,0.203,0.236,0.217,0.273,0.514c-0.737,1.314,0.162,3.616-0.273,5.299c-0.093,0.349-0.501,0.735-0.616,1.059
		c-0.01,0.206-0.023,0.411-0.033,0.616c-0.093,0.113-0.186,0.228-0.272,0.341c0,0.319,0,0.638,0,0.958
		c-0.116,0.114-0.228,0.228-0.344,0.342c-0.01,0.194-0.023,0.388-0.032,0.581c-0.182,0.459-0.737,0.893-0.891,1.3
		c0,0.433,0,0.866,0,1.298c0.093,0.115,0.181,0.229,0.273,0.342c0,1.139,0,2.279,0,3.418c0.102,0.114,0.204,0.229,0.306,0.342
		c0.26,0.562,0.565,1.661,0.344,2.632c-0.139,0.616-0.863,0.894-1.196,1.333c-0.232,0.309-0.223,0.633-0.375,1.026
		c-0.104,0.114-0.205,0.229-0.312,0.342c0,0.171,0,0.342,0,0.512c-0.213,0.547-0.432,1.094-0.649,1.642c0,0.227,0,0.456,0,0.683
		c-0.093,0.253-0.524,0.637-0.306,1.231c0.103,0.115,0.204,0.229,0.306,0.342c0,0.023,0,0.046,0,0.068c0,0.285,0,0.57,0,0.856
		c0.056,0.151,0.292,0.206,0.241,0.479c-0.454,1.093-0.913,2.188-1.368,3.279c-0.25,0.23-0.5,0.46-0.751,0.687
		c-0.093,0.244,0.051,0.538-0.069,0.72c-0.353,0.341-0.705,0.681-1.062,1.024c-0.125,0.023-0.251,0.044-0.376,0.067
		c-0.654,0.442-0.988,1.227-1.503,1.811c-0.625,0-1.251,0-1.878,0c-0.31,0.297-0.616,0.594-0.922,0.89
		c-0.302,0.181-1.169,0.547-1.373,0.752c-0.227,0.236-0.194,0.589-0.478,0.788c-0.158,0.056-0.315,0.113-0.478,0.171
		c-0.022,0.126-0.047,0.251-0.069,0.376c-0.181,0.192-0.362,0.388-0.548,0.58c-0.042,0.139-0.087,0.273-0.134,0.41
		c-0.195,0.206-0.39,0.41-0.58,0.614c0,0.206,0,0.413,0,0.616c-0.167,0.445-0.788,0.849-0.928,1.266c0,0.205,0,0.409,0,0.615
		c-0.11,0.113-0.227,0.229-0.338,0.341c-0.246,0.599-0.371,1.081-0.687,1.609c-0.12,0.204-0.371,0.329-0.51,0.513
		c-0.306,0.4-0.334,0.846-0.751,1.128c-0.139,0.023-0.273,0.044-0.413,0.068c-0.204,0.183-0.408,0.363-0.617,0.547
		c-0.621,0.373-1.168,0.726-1.743,1.161c0,0.479,0,0.958,0,1.438c-0.041,0.192-0.339,0.346-0.273,0.58
		c0.084,0.093,0.162,0.184,0.24,0.273c0.01,1.242,0.024,2.485,0.033,3.729c-0.103,0.11-0.204,0.227-0.306,0.341
		c0,0.466,0,0.934,0,1.402c-0.084,0.324-0.33,0.299-0.344,0.783c0.58,0.872,0.121,1.758,0.311,3.01
		c0.01,0.262,0.023,0.524,0.033,0.786c0.093,0.285,0.459,0.517,0.306,1.095c-0.148,0.572-0.649,1.156-0.923,1.641
		c-0.203,0.359-0.19,0.717-0.408,1.06c-0.218,0.195-0.436,0.39-0.649,0.579c-0.069,0.079-0.519,0.917-0.547,0.993
		c-0.269,0.672-1.242,2.944-1.711,3.248c-0.228,0.023-0.455,0.044-0.682,0.067c-0.115,0.093-0.231,0.184-0.343,0.274
		c-0.353,0-0.71,0-1.062,0c-0.417,0.066-0.528,0.244-0.783,0.342c-0.653,0.246-0.696-0.139-1.062,0.479
		c0.126,0.385,0.084,0.603-0.134,0.96c-1.085,0.218-1.651,1.07-2.431,1.604c-0.181,0.059-0.36,0.116-0.547,0.172
		c-0.296,0.273-0.589,0.547-0.886,0.821c-0.333,0.422-0.556,1.016-0.959,1.367c-0.617,0.543-1.475,0.926-1.95,1.607
		c-0.043,0.148-0.09,0.294-0.137,0.442c-0.229,0.398-0.705,0.774-0.888,1.233c-0.104,0.258,0.002,0.353-0.171,0.511
		c-0.211,0.194-0.332,0.115-0.649,0.24c-0.09,0.091-0.183,0.181-0.273,0.274c-0.925,0.572-1.869,0.496-2.53-0.242
		c-0.542,0.019-0.807,0.524-1.435,0.274c-0.709-0.357-0.019-1.827-0.309-2.632c-0.1-0.275-0.514-0.679-0.614-0.957
		c-0.067-0.182,0.006-0.566,0.067-0.649c0.16-0.339,0.614-0.646,0.888-0.891c0.019-0.876-0.424-1.029-0.82-1.47
		c-0.09,0-0.181,0-0.273,0c-0.432,0.282-0.826,0.714-1.333,0.925c-0.512,0.012-1.025,0.021-1.537,0.035
		c-0.426,0.157-0.703,0.802-0.923,1.196c-1.525,0.385-1.458-0.565-2.291-0.821c-0.137,0.148-0.273,0.297-0.411,0.445
		c0.007,0.533,0.103,2.345-0.069,2.597c-0.317,0.478-0.658,0.174-1.06,0.445c-0.139,0.1-0.19,0.33-0.271,0.479
		c-0.213,0.051-0.695-0.033-0.959,0.069c-0.279,0.105-1.468,1.303-1.744,1.263c-0.436-0.06-0.417-0.934-0.682-1.196
		c-0.139-0.021-0.274-0.044-0.413-0.066c-0.44-0.177-1.099-0.674-1.401-1.025c-0.153-0.182-0.315-0.709-0.547-0.788
		c-0.118,0.106-0.09,0.144-0.306,0.171c-0.134-0.609-0.714-0.306-1.196-0.547c-0.459-0.444-0.914-0.89-1.368-1.333
		c-0.046-0.172-0.093-0.341-0.139-0.513c-0.09-0.09-0.76-0.139-0.923-0.24c-0.009-0.023-0.023-0.044-0.033-0.068
		c-0.141-0.034-0.167,0.065-0.241,0.104c-0.065,0.518-1.321,1.846-1.775,2.018c-0.422,0.01-0.844,0.021-1.266,0.032
		c-0.148,0.102-0.297,0.205-0.445,0.307c-0.194,0.053-0.352-0.017-0.478,0.069c-0.25,0.196-0.035,0.677-0.171,0.992
		c-0.167,0.39-0.55,0.816-0.821,1.127c-0.311-0.008-1.029-0.047-1.229,0.102c-0.306,0.231-0.283,0.712-0.515,1.027
		c-0.125,0.172-0.482,0.103-0.58,0.309c-0.139,0.287,0.032,0.431-0.241,0.579c-0.904,0.395-1.832,0.067-2.188-0.547
		c-0.033-0.135-0.067-0.273-0.102-0.408c-0.306-0.297-0.615-0.594-0.923-0.89c-0.361-0.496-0.399-0.916-0.649-1.572
		c-0.092-0.243-0.44-0.334-0.343-0.788c0.056-0.25,0.255-0.295,0.311-0.58c-0.287-0.243-0.343-0.695-0.651-0.923
		c-0.281-0.204-0.591-0.306-0.855-0.515c-0.455-0.463-0.911-0.932-1.368-1.4c-0.134-0.046-0.273-0.091-0.408-0.135
		c-0.48-0.458-0.958-0.913-1.438-1.367c-0.306-0.357-0.246-1.039-0.615-1.336c-0.603-0.482-2.599-1.34-2.154-2.698
		c0.086-0.265,0.417-0.645,0.547-0.891c0.023-0.228,0.046-0.454,0.069-0.684c0.455-0.467,0.909-0.935,1.368-1.403
		c1.057-0.607,1.24-0.083,1.913-1.264c0.649-0.16,1.54-0.085,1.744,0.41c0.023,0.137,0.043,0.274,0.067,0.408
		c0.265,0.265,0.524,0.526,0.789,0.788c0.13,0.19,0.093,0.376,0.273,0.514c0.385-0.188,1.15,0.287,1.604-0.035
		c0.046-0.033,0.093-0.067,0.139-0.103c0-0.09,0-0.181,0-0.273c-0.139-0.188-0.375-0.227-0.582-0.341
		c-0.132-0.513,0.643-2.513,0.922-2.873c0.109-0.135,0.392-0.142,0.513-0.273c0-0.022,0-0.046,0-0.067
		c-0.032-0.034-0.067-0.069-0.102-0.104c-1.405,0.025-1.062-0.508-1.813-0.923c-0.417-0.232-0.844-0.239-1.196-0.513
		c-0.014-0.878-0.046-1.588,0.413-1.982c0.134-0.118,0.354-0.074,0.477-0.204c0-0.037,0-0.069,0-0.102
		c-0.457-0.46-0.914-0.914-1.368-1.37c-0.436,0.058-0.422,0.314-0.89,0.343c-0.169-0.159-0.341-0.32-0.51-0.48
		c0.005-1.233,0.979-1.578,1.264-2.494c0.16-0.513-0.499-0.99-0.615-1.299c0-0.523,0-1.05,0-1.571
		c-0.079-0.209-0.264-0.209-0.308-0.515c0.16-0.195,0.317-0.388,0.48-0.58c0.958-0.019,1.303,0.57,1.878,0.923
		c0.429-0.236,2.407-0.96,2.838-0.855c0.19,0.4,0.343,0.596,0.617,0.889c0.431,0,0.867,0,1.298,0
		c0.148-0.103,0.296-0.205,0.445-0.307c0.375,0,0.751,0,1.127,0c0.148-0.103,0.297-0.207,0.445-0.309
		c0.308-0.079,0.705,0.079,0.923-0.066c0.155-0.107,0.747-1.081,0.649-1.403c-0.037-0.126-0.22-0.151-0.171-0.378
		c0.037-0.155,0.162-0.19,0.171-0.478c-0.192-0.25-0.387-0.501-0.58-0.751c-0.097-0.228-0.074-2.009,0.032-2.157
		c0.148-0.193,0.515-0.064,0.719-0.203c0.16-0.12,0.204-0.436,0.343-0.58c0.965-0.009,1.762,0.019,2.462,0.307
		c0.227,0.218,0.455,0.433,0.682,0.649c0.281,0.106,0.487,0.027,0.684,0.139c0.085,0.334,0.322,0.417,0.41,0.649
		c0.012,0.238,0.023,0.478,0.032,0.718c0.186,0.192,0.367,0.385,0.547,0.58c0.109,0.246-0.04,0.723,0.102,0.923
		c0.134,0.179,0.469,0.144,0.617,0.308c0.32,0.347,0.578,0.819,0.821,1.232c0.047,0.148,0.093,0.297,0.137,0.445
		c0.044,0.041,0.666,0.291,0.754,0.341c0.183-0.104,0.246-0.212,0.51-0.239c0.668,0.366,1.674,0.471,2.328,0.853
		c0.306-0.167,0.334-0.061,0.682,0c0.179-0.203,0.42-0.181,0.649-0.341c0.663-0.66,1.322-1.323,1.985-1.982
		c0.238-0.273,0.134-0.491,0.306-0.89c0.16-0.181,0.32-0.363,0.48-0.547c0.204,0.022,0.41,0.046,0.615,0.069
		c0.515,1.076,0.883,2.239,1.743,2.973c0.014,0.739-0.352,0.802-0.614,1.233c0.012,0.032,0.023,0.067,0.035,0.102
		c0.492,0.158,0.541-0.17,0.958-0.241c0.188,0.14,0.677,0.538,1.058,0.241c0.366-0.199,0.285-0.484,0.515-0.82
		c0.192-0.195,0.387-0.391,0.579-0.583c-0.058-0.419-0.373-0.707-0.614-0.957c0.012-0.066,0.023-0.137,0.035-0.204
		c0.278-0.621,0.538-0.334,0.82-0.616c0.021-0.126,0.044-0.251,0.067-0.376c0.102-0.113,0.207-0.227,0.308-0.343
		c0.209-0.565-0.055-1.466,0.103-1.947c0.579-0.242,1.379-0.413,1.778-0.854c0.012-0.695,0.023-1.392,0.033-2.087
		c-0.06-0.283-0.582-0.599-0.306-1.095c0.011-0.009,0.022-0.022,0.035-0.032c0.12-0.22,0.396-0.302,0.512-0.515
		c0.012-0.238,0.023-0.478,0.035-0.719c0.135-0.356,0.311-0.197,0.376-0.923c-1.057-0.858,0.303-1.024-0.035-1.947
		c-0.113-0.148-0.227-0.297-0.341-0.445c0-0.273,0-0.547,0-0.82c-0.121-0.373-0.54-0.68-0.582-1.162
		c0.331-0.607,0.429-1.438,0.888-1.913c-0.07-0.272-0.227-0.272-0.274-0.584c0.103-0.125,0.207-0.25,0.309-0.376
		c0.012-0.203,0.023-0.408,0.035-0.614c0.09-0.114,0.183-0.23,0.273-0.341c0.369-1.138-0.745-1.822-1.403-2.087
		c-0.114-0.103-0.227-0.205-0.341-0.307c-0.297-0.105-0.413,0.139-0.547,0.17c-0.046,0-0.093,0-0.137,0
		c-0.169-0.023-0.267-0.267-0.582-0.17c-0.114,0.068-0.227,0.136-0.341,0.204c-0.023-0.022-0.046-0.045-0.069-0.067
		c-0.531-0.252-0.44-1.276-0.684-1.846c-0.178-0.419-0.916-0.041-1.368-0.206c-0.158-0.058-0.195-0.217-0.408-0.273
		c-0.15,0.159-0.603,0.494-0.925,0.24c-0.223-0.139-0.696-0.635-0.751-0.923c0.308-0.605,0.614-1.209,0.922-1.812
		c0.142-0.607-0.484-2.437-0.546-3.01c0.109-0.2,0.173-0.458,0.308-0.684c0.181-0.205,0.364-0.41,0.547-0.616
		c0.023-0.135,0.044-0.273,0.067-0.409c0.387-0.354,0.777-0.707,1.164-1.061c0.132-0.203-0.074-0.435,0.033-0.718
		c0.273-0.274,0.547-0.547,0.821-0.821c0.297,0.012,0.593,0.023,0.89,0.035c0.125,0.09,0.25,0.182,0.376,0.273
		c0.011,0,0.023,0,0.035,0c0.021-0.011,0.044-0.023,0.067-0.035c0.137-0.17,0.274-0.342,0.411-0.512
		c0.325-0.242,0.735-0.137,0.891-0.547c0.113-0.308-0.074-0.715,0.067-0.958c0.285-0.319,0.57-0.638,0.855-0.958
		c0-0.41,0-0.821,0-1.23c-0.183-0.205-0.366-0.41-0.547-0.615c-0.119-0.2-0.042-0.58-0.172-0.752
		c-0.011-0.022-0.023-0.045-0.035-0.069c-0.012-0.011-0.023-0.022-0.035-0.033c-0.009-0.012-0.023-0.023-0.033-0.035
		c-0.155-0.157-0.663-0.218-0.753-0.411c-0.721-1.54,0.329-3.579-2.393-2.768c-0.223-0.144-0.661-0.438-0.888-0.514
		c-0.308-0.012-0.617-0.022-0.923-0.035c-0.132-0.055-0.204-0.31-0.41-0.272c-0.487,0.088-0.851,0.749-1.266,0.888
		c-0.399,0.013-0.798,0.023-1.197,0.035c-0.114,0.103-0.227,0.205-0.343,0.308c-0.125,0.022-0.25,0.045-0.376,0.067
		c-0.139,0.14-0.061,0.36-0.239,0.479c-0.146,0.115-0.967,0.216-1.264,0.102c-0.125-0.09-0.25-0.182-0.375-0.272
		c-0.104,0.08-0.207,0.16-0.311,0.24c-1.022,0.452-2.189,1.15-3.246,0.17c0-0.08,0-0.16,0-0.24c0.306-0.33,0.617-0.661,0.923-0.991
		c0.009-0.917-0.394-1.047-0.617-1.606c-0.021-0.137-0.044-0.273-0.067-0.411c-0.204-0.301-0.54-0.295-0.582-0.786
		c0.102-0.125,0.205-0.25,0.309-0.377c-0.499-0.833-0.216-0.563,0.035-1.23c0.009-0.205,0.023-0.41,0.032-0.616
		c0.093-0.114,0.183-0.228,0.274-0.342c0.167-0.531-0.445-0.566-0.306-1.128c0.192-0.229,0.387-0.456,0.58-0.684
		c0.037-0.171,0.069-0.342,0.102-0.513c0.288-0.25,0.57-0.501,0.858-0.751c0.153-0.286,0.037-0.636,0.204-0.855
		c3.371-0.022,6.747-0.045,10.12-0.068c1.298,0,2.597,0,3.895,0c0.25-0.272,0.503-0.546,0.754-0.821
		c0.559,0.121,0.844,0.706,1.298,0.855c0.252,0.083,0.538-0.053,0.718,0.068c0.181,0.194,0.364,0.388,0.547,0.581
		c0.499,0.18,0.696-0.685,1.264-0.238c0.249,0.193,0.274,0.604,0.547,0.786c0.182,0.121,0.471-0.02,0.722,0.069
		c0.213,0.076,0.537,0.544,0.954,0.24c0.219-0.171,0.437-0.343,0.649-0.514c1.091-0.02,1.684,0.654,2.189,1.231
		c0.694-0.007,0.588-0.173,0.959-0.308c0.501,0.01,1.002,0.022,1.503,0.034c0.116,0.092,0.227,0.182,0.343,0.274
		c0.478,0,0.956,0,1.433,0c0.714,0.183,1.132,0.818,1.642,1.196c0.139,0.023,0.273,0.045,0.413,0.068
		c0.306,0.206,0.617,0.411,0.923,0.616c0.228,0.022,0.454,0.045,0.682,0.069c0.311,0.189,0.311,0.646,0.584,0.854
		c0.167-0.147,0.339-0.295,0.511-0.444c-0.01-0.456-0.19-0.417-0.307-0.684c-0.014-0.193-0.023-0.387-0.037-0.581
		c-0.103-0.115-0.204-0.228-0.306-0.342c0-0.092,0-0.183,0-0.273c-0.103-0.115-0.204-0.229-0.307-0.342c0-0.251,0-0.501,0-0.752
		c0-1.18,0.121-1.752,0.682-2.324c0.148,0.01,0.297,0.022,0.445,0.033c0.158-0.262,0.319-0.524,0.478-0.786
		c0.145-0.212,0.515-0.336,0.617-0.547c0.366-0.756,0.588-1.439,0.922-2.222c0.116-0.113,0.228-0.227,0.344-0.342
		c0.01-0.194,0.022-0.388,0.032-0.581c0.306-0.72,0.923-1.495,1.196-2.222c0.228-0.603-0.171-1.019-0.273-1.333
		c-0.194-0.598,0.39-1.236,0.585-1.539c-0.187-0.304-0.557-1.128-0.209-1.642c0.186-0.193,0.366-0.387,0.547-0.581
		c0-0.205,0-0.411,0-0.616c0.103-0.115,0.204-0.229,0.311-0.342c0.172-0.472-0.157-1.186,0.064-1.572
		c0.376-0.644,1.188-1.095,2.227-1.095c0.352,0.011,0.705,0.022,1.058,0.034c0.319-0.106,0.421-0.44,1.062-0.342
		c0.478,0.074,0.603,0.28,1.057,0.308c0.126-0.103,0.251-0.205,0.376-0.308c0.32,0,0.64,0,0.96,0
		c0.111-0.091,0.228-0.182,0.343-0.274c0.204,0,0.408,0,0.612,0c0.194-0.113,0.39-0.229,0.585-0.341c0.315,0,0.635,0,0.954,0
		c0.01-0.013,0.024-0.023,0.033-0.035c0.171-0.183,0.343-0.365,0.515-0.547C78.906,0.184,79.157,0.242,79.375,0z"/>
</g>
<g id="Layer_1">
</g>
</svg>
