<?xml version="1.0" encoding="iso-8859-1"?>
<!-- Generator: Adobe Illustrator 16.0.3, SVG Export Plug-In . SVG Version: 6.00 Build 0)  -->
<!DOCTYPE svg PUBLIC "-//W3C//DTD SVG 1.1//EN" "http://www.w3.org/Graphics/SVG/1.1/DTD/svg11.dtd">
<svg version="1.1" xmlns="http://www.w3.org/2000/svg" xmlns:xlink="http://www.w3.org/1999/xlink" x="0px" y="0px" width="100px"
	 height="100px" viewBox="0 0 100 100" style="enable-background:new 0 0 100 100;" xml:space="preserve">
<g id="CH">
	<path style="fill:#010101;" d="M3.53,61.337c-0.139-0.311-0.324-0.611-0.498-0.894c-0.464-0.757,0.042-2.604,0.795-2.981
		c0.756-0.378,0.335-0.965-0.082-1.218c-0.42-0.251,0.459-1.469,1.595-2.099c1.135-0.63,1.931-1.512,2.772-2.227
		c0.838-0.714,1.05-1.091,1.68-1.176c0.629-0.083,1.717-0.587,1.594-0.965c-0.127-0.379-0.17-1.301,0.081-1.68
		c0.255-0.379-0.081-1.68-0.459-2.267c-0.377-0.588,0.544-1.428,1.217-1.975c0.671-0.544,1.301-0.251,2.058-0.293
		c0.757-0.042,1.136-0.881,1.722-1.217c0.587-0.337,1.173-0.84,1.173-1.217c0-0.378-0.081-1.091,0.549-1.513
		c0.629-0.418,1.552-0.922,2.139-1.176c0.587-0.25,0.923-0.84,0.965-1.386c0.043-0.544,0.128-0.671,0.966-1.173
		c0.842-0.504,0.927-0.842,1.178-1.344c0.251-0.504,0.714-0.925,1.722-1.218c1.009-0.293,0.46-0.797,0.46-1.386
		c0-0.587-0.417-0.84-1.762-0.671c-1.343,0.167-1.3-0.544-0.969-0.924c0.34-0.378,0.969-1.511,1.6-2.436
		c0.629-0.923,1.386-0.713,2.602-0.544c1.216,0.167,1.174,0.587,1.553,1.594c0.378,1.008,1.722,0.757,2.813,0.504
		c1.091-0.251,2.939-1.091,3.862-1.68c0.923-0.587,0.757-0.965,0.923-2.309c0.169-1.344,0.463-1.806,1.221-2.099
		c0.757-0.295,2.644-0.336,3.274,0.336c0.629,0.669,0,1.176-0.715,1.512c-0.714,0.333-1.301,0.544-0.545,1.173
		c0.758,0.631,1.847,0.128,2.055-0.209c0.212-0.335-0.166-1.092,0.421-1.218c0.587-0.125,1.514-0.336,2.186,0.421
		c0.672,0.754,1.174,1.047,1.889,0.418c0.714-0.629,1.343-0.378,1.931-0.378c0.587,0,1.258-0.251,1.636-0.672
		c0.38-0.418,1.236-0.434,1.894-0.336c0.328,0.051,0.953-0.021,1.301,0.327c0.343,0.346,1.101,0.849,1.918,0.944
		c0.819,0.095,1.894-0.22,1.894-0.22s-0.379-0.85,0.532-1.292c0.916-0.44,1.545,0.473,1.545,0.473l0.66-1.417c0,0-0.881,0-1.51,0
		c-0.633,0-2.236,0.158-2.772-0.346c-0.537-0.503,0.282-1.292,0.691-2.33c0.408-1.042,1.417-1.417,2.173-1.921
		c0.758-0.504,1.136-0.537,1.857-0.19c0.727,0.346,0.66,0.536,1.039,0.661c0.378,0.125,1.167,0.599,1.387,1.48
		c0.22,0.883,0.22,1.479,0.22,1.479s0.158,0.032,0.787,0.189c0.629,0.159,1.009,0.284,1.479,0.631
		c0.476,0.346,0.567,1.006,1.073,1.069c0.502,0.064,0.723-0.473,1.606-0.754c0.88-0.284,1.76-0.095,2.486,0.062
		c0.722,0.158,0.95,0.624,1.448,0.778c0.549,0.168,0.965-0.042,1.479-0.18c0.691-0.183,1.038,0.442,1.544,0.567
		c0.502,0.126,0.757,0.471,1.101,0.661c0.347,0.189,1.104,0.409,1.104,1.166c0,0.755,0.757,0.788,1.417,1.103
		c0.66,0.314,0.85,1.133,1.417,1.133s0.911-0.535,0.911-0.535s0.599,0.786,1.073,1.921c0.472,1.133-0.128,1.509-0.664,2.046
		c-0.533,0.534-0.281,1.447-0.378,2.203c-0.008,0.086-0.031,0.175-0.058,0.266c-0.009,0.027-0.02,0.054-0.028,0.083
		c-0.022,0.066-0.049,0.135-0.08,0.205c-0.012,0.027-0.023,0.056-0.039,0.085c-0.043,0.089-0.088,0.18-0.139,0.27
		c-0.005,0.008-0.005,0.012-0.009,0.018c-0.058,0.103-0.118,0.209-0.185,0.315c-0.016,0.024-0.035,0.051-0.051,0.077
		c-0.054,0.087-0.111,0.176-0.169,0.264c-0.016,0.023-0.027,0.047-0.043,0.069c-0.073,0.111-0.146,0.22-0.22,0.332
		c0,0.002-0.004,0.004-0.004,0.006c-0.154,0.234-0.309,0.475-0.456,0.718c-0.598,1.008-0.502,2.046-0.22,3.023
		s-0.031,1.481-0.378,2.11c-0.344,0.629,0.378,0.565,0.694,0.409c0.312-0.158,0.753,0.189,0.912,0.44
		c0.157,0.253,0.598,0.284,1.069,0.064c0.104-0.049,0.216-0.095,0.339-0.14c0.104-0.036,0.221-0.069,0.336-0.098
		c0.012-0.002,0.024-0.004,0.035-0.008c0.112-0.022,0.228-0.042,0.348-0.054c0.008-0.002,0.02-0.002,0.031-0.004
		c0.119-0.009,0.246-0.007,0.375,0c0.026,0.002,0.054,0.006,0.084,0.008c0.132,0.015,0.267,0.036,0.405,0.075
		c0.788,0.22,3.055,1.069,3.715,1.384c0.664,0.314,0.255,0.567,0.065,1.291c-0.188,0.724,0.691,1.448,1.51,1.827
		c0.819,0.379,1.764,0.504,2.426,1.008c0.66,0.504,1.637,0,2.046-0.504s1.418-1.259,1.953-1.353
		c0.537-0.095,1.071-0.253,1.796-0.946c0.723-0.691,0.977-0.724,1.889-0.282c0.915,0.44,1.954,1.479,1.923,2.361
		C99.684,48.33,100,48.865,100,48.865s-0.022,0.009-0.061,0.031c-0.102,0.049-0.317,0.181-0.631,0.473
		c-0.442,0.409-1.007,0.882-1.354,2.016s-0.348,1.512-0.599,2.016s-0.189,1.385,0.471,1.763c0.66,0.379,1.26,0.567,1.448,1.259
		c0.189,0.693-0.093,1.953-0.753,2.583c-0.664,0.63-2.552-0.44-3.213-0.977c-0.66-0.535-1.386-1.732-1.892-1.826
		c-0.502-0.096-2.201,0.283-2.707,0.631c-0.502,0.345-0.66,2.96-0.818,4.312c-0.159,1.354,1.447,1.638,2.016,1.826
		c0.567,0.189,0.567,0.758,0.251,0.789c-0.312,0.031-1.101,0.125-1.131,1.038c-0.035,0.913,0.532,1.039,1.101,1.984
		c0.566,0.944-0.502,1.732-1.198,2.203c-0.69,0.474-1.068-0.315-1.068-0.691c0-0.379-0.221-0.757-0.727-0.913
		c-0.502-0.158-0.722-0.851-0.629-1.575c0.096-0.724-0.44-1.481-1.197-1.481c-0.754,0-2.298,1.23-2.804,1.734
		c-0.502,0.504-1.101,2.014-1.949,2.014c-0.851,0-2.742-1.1-4.19-1.857c-1.448-0.755-1.826-3.274-1.699-4.03
		c0.124-0.756,0.251-1.354-0.065-1.857c-0.312-0.504-1.069,0.345-1.32,0.629s-0.757-0.189-0.599-0.725s0.031-0.882-0.598-0.693
		c-0.63,0.189-1.638,1.198-1.638,2.364c0,1.164,0.946,1.322,0.818,1.447c-0.127,0.126-0.221,0.913-0.062,1.448
		c0.155,0.535-0.285,1.857-1.038,3.023c-0.757,1.164-1.575,2.11-2.424,3.118c-0.854,1.008-1.418,1.701-2.017,2.52
		c-0.599,0.819-1.196,0.786-1.104,1.512c0.097,0.724,0.915,2.267,1.606,3.306c0.695,1.039,0.977,1.574,0.727,1.574
		c-0.256,0-1.039,0.631-1.355,1.354c-0.313,0.724-1.259,0.724-2.077,0.252c-0.818-0.473-1.039-0.692-0.727-1.135
		c0.316-0.44,0.189-0.975-0.312-1.951c-0.506-0.978-0.788-1.573-1.196-1.764c-0.41-0.189-1.545-0.818-1.894-0.787
		c-0.343,0.031,0.727-0.85,1.104-1.542c0.379-0.693,0.189-1.45-0.567-1.766c-0.757-0.314-3.243-0.599-3.872-0.818
		c-0.63-0.22-1.197-2.267-1.765-4.251c-0.568-1.983-0.753-3.968-1.039-5.449c-0.282-1.479-1.167-1.289-1.765-0.88
		c-0.595,0.408-1.008,0.062-1.448,0.062c-0.439,0-0.502,0.818-0.154,1.322c0.344,0.504,0.281,0.662-0.255,1.009
		c-0.532,0.347-1.606,1.355-2.267,1.826c-0.661,0.473-2.016,0.882-2.518,1.197c-0.506,0.313,0.753,2.549,0.942,3.307
		c0.189,0.755-0.189,1.164-0.881,1.669c-0.691,0.504-1.544,1.764-1.544,1.764s0,0-0.154,0.819c-0.159,0.818-2.047,1.134-2.553,1.479
		c-0.502,0.348-0.788,1.859-1.417,2.237c-0.629,0.377-1.953-0.094-2.645-0.094s-1.07-1.166-1.606-1.733
		c-0.537-0.566-1.669-0.566-2.329-0.755c-0.664-0.19-1.072-0.096-1.575,0.345c-0.506,0.441-1.637,1.481-2.235,1.512
		c-0.599,0.032-0.727-0.504-1.386-0.44c-0.661,0.064-1.797,0.473-2.108,0.977c-0.317,0.505-0.946,0.505-1.985,0.566
		c-1.039,0.063-2.521-0.693-2.865-1.512c-0.348-0.818-0.506-1.858-0.506-3.022c0-1.165-0.44-1.291-0.849-1.291
		c-0.409,0-0.789-0.22-0.789-1.197c0-0.977-0.756-1.259-1.165-1.259c-0.41,0-0.788-0.222-0.881-0.915
		c-0.096-0.691,0.282-1.952,1.166-2.771c0.88-0.818,0.062-1.133-0.506-1.322c-0.567-0.188-0.88-1.668-0.88-2.267
		s0.379-1.135,0.379-1.135s1.162,0.411,1.98,0.252c0.822-0.158,0.286-0.913-0.031-1.291c-0.313-0.376-1.197-1.103-1.761-1.354
		c-0.568-0.253-1.355-0.284-1.764-0.44c-0.411-0.157-0.599-0.473-1.858-0.726c-1.259-0.251-2.742,0.188-3.151,0.599
		c-0.409,0.409-1.101,1.134-2.107,0.883c-1.008-0.253-1.326,0.378-1.637,0.817c-0.317,0.44-0.553,1.025-1.104,1.26
		c-0.073,0.031-0.293-0.062-0.421-0.021c-0.123,0.041-0.216,0.234-0.309,0.352c-0.096,0.118-0.167,0.354-0.271,0.472
		c-0.1,0.119-0.274,0.237-0.352,0.378c-0.081,0.144-0.073,0.323-0.173,0.473C5.41,63.295,5.318,63.32,5.31,63.571
		c-0.007,0.251-0.136,0.432-0.271,0.574c-0.131,0.142-0.312,0.3-0.312,0.52c0,0.221-0.04,0.362-0.008,0.489
		c0.031,0.126,0.054,0.251-0.054,0.281c-0.113,0.033-0.151,0.11-0.151,0.205s-0.151,0.135-0.173,0.229
		c-0.024,0.095-0.008,0.235-0.008,0.3c0,0.062-0.061,0.117-0.069,0.22c-0.007,0.103,0.038,0.284,0.038,0.425
		c0,0.142,0.008,0.447,0.124,0.394c0.12-0.056,0.418-0.457,0.544-0.654c0.127-0.197,0.259-0.3,0.22-0.589
		c-0.038-0.291,0.128-0.567,0.244-0.598c0.119-0.033,0.277-0.22,0.37-0.379c0.097-0.158,0.271-0.221,0.317-0.346
		c0.047-0.128,0.054-0.379,0.131-0.269c0.082,0.11,0.204,0.354,0.127,0.448c-0.076,0.095-0.134,0.071-0.158,0.166
		c-0.023,0.095,0.024,0.229,0.024,0.229s-0.155,0.102-0.093,0.181s0.332,0.292,0.486,0.37c0.158,0.077,0.34,0.11,0.394,0
		c0.058-0.109,0.182-0.324,0.244-0.291c0.065,0.031,0,0.157,0.089,0.197c0.085,0.038,0.189,0.016,0.259,0.007
		c0.073-0.007,0.104,0.197,0.096,0.354c-0.007,0.159-0.348,0.662-0.483,0.788c-0.131,0.125-0.471,0.253-0.645,0.322
		c-0.174,0.071-0.297,0.229-0.44,0.229s-0.274,0.062-0.348,0.164c-0.069,0.103-0.236,0.205-0.312,0.205
		c-0.082,0-0.189,0.079-0.205,0.235c-0.016,0.159-0.205,0.245-0.248,0.307c-0.038,0.064,0.008,0.136,0.073,0.269
		c0.062,0.133,0.047,0.235-0.065,0.261c-0.108,0.023-0.344,0.054-0.502,0.182c-0.158,0.126-0.333,0.195-0.409,0.282
		c-0.077,0.087-0.173,0.204-0.302,0.102c-0.123-0.102-0.409-0.094-0.563-0.094c-0.158,0-0.467,0.048-0.679,0
		c-0.213-0.047-0.379-0.095-0.487-0.133c-0.112-0.04-0.205,0.078-0.205,0.117c0,0.04,0.03,0.189-0.112,0.245
		c-0.14,0.054-0.163,0.133-0.274,0.047c-0.113-0.087-0.213-0.087-0.34-0.087c-0.124,0-0.162-0.062-0.275-0.062
		c-0.112,0-0.228,0.078-0.297,0.078c-0.073,0-0.097,0.291-0.31,0.291c-0.212,0-0.258-0.134-0.258-0.134s-0.016-0.26-0.016-0.378
		c0-0.117,0.016-0.292,0.093-0.41c0.081-0.118,0.22-0.212,0.251-0.329c0.034-0.118,0.143-0.151,0.189-0.167
		c0.05-0.015,0.073-0.125-0.069-0.227c-0.144-0.104-0.387-0.244-0.449-0.277c-0.065-0.03-0.023-0.196-0.007-0.299
		c0.016-0.102,0.085-0.338,0.196-0.346c0.109-0.008,0.22,0.031,0.26-0.095c0.038-0.125,0.196-0.261,0.324-0.354
		c0.123-0.094,0.374-0.196,0.493-0.173c0.12,0.023,0.22-0.016,0.267-0.057c0.05-0.038,0.135,0,0.189,0.08
		c0.058,0.078,0.128,0.022,0.251-0.126c0.128-0.151,0.429-0.261,0.641-0.284c0.212-0.023,0.432,0.008,0.297,0.142
		c-0.134,0.135-0.054,0.197,0.151,0.094c0.205-0.103,0.66-0.132,0.544-0.456c-0.12-0.322-0.429-0.897-0.467-1.07
		c-0.039-0.172,0.073-0.41,0.213-0.448c0.142-0.041,0.165-0.063,0.18-0.166c0.016-0.103,0-0.322,0.082-0.455
		c0.077-0.136,0.212-0.182,0.274-0.34c0.062-0.157,0.1-0.3,0.25-0.369c0.151-0.071,0.158-0.221,0.229-0.322
		c0.073-0.103,0.166-0.23,0.181-0.355c0.016-0.126,0.136-0.197-0.1-0.26s-0.482-0.213-0.622-0.347
		C3.719,61.722,3.53,61.337,3.53,61.337z"/>
</g>
<g id="Layer_1">
</g>
</svg>
