<?xml version="1.0" encoding="iso-8859-1"?>
<!-- Generator: Adobe Illustrator 16.0.3, SVG Export Plug-In . SVG Version: 6.00 Build 0)  -->
<!DOCTYPE svg PUBLIC "-//W3C//DTD SVG 1.1//EN" "http://www.w3.org/Graphics/SVG/1.1/DTD/svg11.dtd">
<svg version="1.1" xmlns="http://www.w3.org/2000/svg" xmlns:xlink="http://www.w3.org/1999/xlink" x="0px" y="0px" width="100px"
	 height="100px" viewBox="0 0 100 100" style="enable-background:new 0 0 100 100;" xml:space="preserve">
<g id="CM">
	<path d="M70.951,1.777c0.037,0,0.069,0,0.102,0c0.065-0.111,0.074-0.155,0.241-0.17c0.088,0.158,0.14,0.387,0.376,0.411
		c0.106,0.063,0.259-0.039,0.306,0c0.194,0.157,0.088,0.36,0.172,0.649c0.046,0.144,0.241,0.489,0.208,0.649
		c-0.027,0.115-0.12,0.195-0.139,0.375c0.051,0.019,0.061,0.023,0.139,0.035c0.065-0.038,0.061-0.021,0.135,0
		c0.005,0.371,0.172,0.364,0.241,0.616c0.079,0.309-0.037,0.546-0.069,0.718c0,0.011,0,0.023,0,0.034
		c-0.005,0.08,0.056,0.096,0.069,0.138c0.069,0.252-0.12,0.515-0.069,0.683c0.019,0.06,0.106,0.117,0.134,0.205
		c-0.064,0.041-0.11,0.091-0.166,0.138c0.018,0.059,0.005,0.033,0.032,0.067c0.004,0.014,0.537,0.578,0.547,0.581
		c0.069,0,0.135,0,0.204,0c0.088-0.093,0.162-0.129,0.343-0.136c0.209,0.194,0.218,0.156,0.205,0.581
		c0.139,0.114,0.013,0.196,0.102,0.375c0.051,0.104,0.19,0.096,0.241,0.24c-0.149,0.073-0.232,0.081-0.241,0.308
		c0.051,0.064,0.064,0.113,0.037,0.17c-0.061,0.164-0.135,0.158-0.139,0.41c0.051,0.062,0.078,0.15,0.102,0.239
		c0.064,0.017,0.194-0.019,0.241,0c0.005,0.001,0.273,0.649,0.273,0.649c-0.037,0.12-0.199,0.13-0.241,0.309
		c0.079,0.056,0.083,0.05,0.103,0.17c-0.168,0.086-0.288,0.13-0.307,0.377c0.181,0.23,0.125,0.635,0.273,0.889
		c0.093,0.157,0.547,0.24,0.445,0.581c-0.037,0.126-0.27,0.168-0.344,0.274c-0.152,0.22-0.37,0.522-0.444,0.786
		c0.014,0.137,0.022,0.273,0.037,0.411c-0.015,0.058-0.088,0.083-0.07,0.205c0,0.011,0,0.023,0,0.034
		c0.019,0.07,0.13,0.116,0.103,0.24c-0.074,0.349-0.491,0.646-0.376,1.196c0.074,0.36,0.093,0.865,0.172,1.163
		c0,0.193,0,0.387,0,0.581c0.064,0.189,0.273,0.433,0.343,0.684c0.116,0.44-0.31,0.555-0.171,0.957
		c0.023,0.075,0.134,0.134,0.171,0.205c0.042,0.138,0.089,0.274,0.135,0.41c0.181,0.291,0.408,0.573,0.515,0.958
		c0.037,0.151-0.186,0.596-0.139,0.889c0.297,0.183,0.7,0.254,0.89,0.547c0.033,0.125,0.07,0.25,0.103,0.375
		c0.078,0.127,0.306,0.207,0.343,0.376c0.01,0.06-0.064,0.198-0.069,0.239c-0.023,0.173,0.116,0.187,0.172,0.274
		c0.009,0.057,0.023,0.114,0.032,0.17c0.074,0.121,0.482,0.26,0.616,0.411c0.135,0.152,0.209,0.364,0.376,0.479
		c0.089,0.059,0.218,0.051,0.273,0.137c0.01,0.058,0.023,0.115,0.033,0.172c0.102,0.155,0.306,0.293,0.412,0.444
		c0.01,0.045,0.023,0.091,0.033,0.137c0.092,0.034,0.181,0.068,0.272,0.103c0.047,0.068,0.093,0.136,0.14,0.204
		c0.339,0.244,0.974,0.333,1.159,0.719c-0.009,0-0.023,0-0.032,0c-0.167,0.145-0.492,0.124-0.719,0.205
		c-0.214,0.076-1.321,0.406-1.572,0.342c-0.687-0.177-1.099-0.491-1.947-0.479c-0.126-0.012-0.25-0.023-0.376-0.035
		c-0.069,0.014-0.311,0.028-0.375,0.068c-0.111,0.066-0.172,0.229-0.312,0.273c-0.51,0.167-1.015-0.28-1.367-0.205
		c-0.241,0.054-1.1,0.529-1.331,0.479c-0.315-0.067-0.729-0.278-1.062-0.376c-0.542-0.161-1.117-0.221-1.641-0.342
		c-0.798,0.045-1.596,0.09-2.394,0.137c-0.259,0.501-0.38,1-0.681,1.435c-0.177,0.252-0.465,0.339-0.719,0.514
		c-0.163,0.11-0.691,0.927-0.719,1.162c0.134,0.067,0.352,0.085,0.478,0.17c0.162,0.11,0.292,0.354,0.412,0.513
		c0.348,0.466,0.803,0.859,1.159,1.334c0.288,0.381,0.663,0.703,0.96,1.094c0.111,0.146,0.312,0.255,0.408,0.41
		c0.102,0.155-0.014,0.34,0.069,0.479c0.126,0.209,0.645,0.558,0.854,0.717c0.177,0.131,0.307,0.349,0.482,0.479
		c0.551,0.418,1.071,0.898,1.637,1.299c0.311,0.218,0.616,0.397,0.928,0.615c0.064,0.048,0.134,0.163,0.204,0.205
		c0.12,0.074,0.319-0.018,0.478,0.035l0.547,0.411c0.056,0.086-0.009,0.147,0.069,0.205c0.074,0.058,0.232,0.049,0.273,0.137
		c0,0.137,0,0.273,0,0.41c0.241,0.141,0.695,0.141,0.923,0.307c0.255,0.19,0.32,0.663,0.51,0.923
		c0.158,0.217,0.492,0.292,0.654,0.514c0.13,0.183,0.135,0.387,0.236,0.616c0.167,0.37,0.436,0.838,0.58,1.231
		c0.014,0.112,0.022,0.228,0.037,0.341c0.148,0.436,0.612,0.77,0.751,1.196c0,0.137,0,0.275,0,0.411
		c0.153,0.594,0.418,1.217,0.649,1.744c0.125,0.285,0.199,0.657,0.444,0.821c0.052,0.032,0.126,0.005,0.204,0.034
		c0.098,0.035,0.182,0.177,0.273,0.206c0.112,0.035,0.117-0.049,0.205,0c0.074,0.113,0.041,0.439,0.036,0.615
		c-0.171,0.146-0.176,0.648-0.273,0.855c-0.088,0.19-0.296,0.287-0.412,0.444c-0.145,0.201-0.231,0.415-0.376,0.615
		c-0.102,0.146-0.241,0.175-0.273,0.411c0.103,0.059,0.177,0.099,0.204,0.239c-0.01,0-0.019,0-0.032,0c0,0.012,0,0.023,0,0.035
		c-0.469,0.013-0.231,0.139-0.445,0.308c-0.121,0.096-0.283,0.086-0.376,0.205c-0.051,0.063-0.064,0.169-0.134,0.207
		c-0.061,0-0.116,0-0.172,0c-0.125,0.056-0.788,0.547-0.857,0.649c-0.02,0.114-0.043,0.228-0.065,0.344
		c-0.028,0.042-0.116,0.078-0.14,0.135c-0.106,0.245,0.089,0.538,0,0.788c-0.051,0.15-0.218,0.184-0.343,0.273
		c-0.088,0.062-0.199,0.302-0.236,0.408c-0.023,0.184-0.046,0.366-0.069,0.548c-0.033,0.078-0.13,0.141-0.172,0.204
		c-0.139,0.22-0.283,0.653-0.376,0.89c-0.097,0.246,0,0.513-0.241,0.617c-0.046,0.03-0.13,0-0.204,0.032
		c-0.064,0.032-0.139,0.167-0.203,0.204c-0.125,0.022-0.251,0.046-0.376,0.069c-0.361,0.812-0.695,1.632-1.062,2.463
		c-0.079,0.186-0.283,0.361-0.339,0.547c0.009,0.157,0.023,0.319,0.032,0.478c-0.037,0.093-0.491,0.658-0.58,0.719
		c-0.186,0.123-0.407,0.148-0.616,0.238c-0.213,0.096-0.478,0.295-0.682,0.378c-0.115,0-0.231,0-0.343,0l-0.344,0.307
		c-0.051,0.074-0.022,0.194-0.102,0.238c-0.056,0-0.116,0-0.172,0c-0.088,0.049-0.064,0.209-0.135,0.273
		c-0.078,0.072-0.236,0.025-0.311,0.104c-0.167,0.236-0.213,0.673,0.038,0.854c0.064,0.051,0.157,0.035,0.203,0.102
		c0.236,0.348-0.056,0.604,0.649,0.582c0.061,0.059,0.125,0.091,0.172,0.067c0.157-0.056,0.157-0.164,0.343-0.204
		c0.339,0.367,0.074,0.265,0.204,0.751c0.047,0.175,0.186,0.99,0.103,1.299c-0.065,0.238-0.279,0.522-0.344,0.754
		c-0.093,0.341,0.278,0.549,0.311,0.855c-0.078,0.106-0.208,0.523-0.241,0.648c0.01,0.103,0.023,0.205,0.033,0.31
		c-0.056,0.034-0.111,0.066-0.172,0.102c-0.047,0.066,0.005,0.148-0.032,0.239c-0.037,0.09-0.158,0.132-0.204,0.203
		c-0.084,0.127-0.12,0.417-0.14,0.584c0.172,0.126,0.329,0.335,0.548,0.409c0.292,0.097,0.44,0.048,0.584,0.272
		c0.088,0.14,0.223,0.636,0.167,0.854c-0.009,0.051-0.083,0.07-0.065,0.172c0.014,0.104,0.125,0.32,0.065,0.515
		c-0.014,0.056-0.116,0.144-0.103,0.239c0.015,0.066,0.153,0.166,0.172,0.238c-0.01,0.126-0.022,0.25-0.032,0.375
		c0.042,0.107,0.172,0.214,0.204,0.376s-0.088,0.226-0.069,0.343c0.022,0.143,0.157,0.268,0.171,0.478
		c-0.083,0.079-0.144,0.17-0.171,0.31c0.273,0.297,0.041,0.67,0.171,1.094c0.098,0.313,0.395,0.573,0.585,0.821
		c0.139,0.184,0.338,0.146,0.547,0.273c0.152,0.095,0.227,0.312,0.376,0.41c0.111,0.033,0.227,0.069,0.338,0.103
		c0.074,0.032,0.111,0.132,0.172,0.171c0.162,0.103,0.356,0.096,0.515,0.204c0.125,0.088,0.121,0.311,0.204,0.445
		c0.144,0.223,0.38,0.422,0.515,0.649c0.083,0.144-0.019,0.392,0.032,0.582c0.014,0.044,0.089,0.16,0.102,0.206
		c0,0.204,0,0.408,0,0.614c0.047,0.133,0.204,0.176,0.274,0.271c0.074,0.098,0.051,0.231,0.139,0.311
		c0.182,0.102,0.311-0.042,0.339,0.236c-0.037,0.033,0,0-0.032,0.035c-0.385,0.007-0.307,0.137-0.516,0.206
		c-0.222,0.074-0.436-0.067-0.682-0.069c-0.018,0.056-0.027,0.083-0.037,0.171c0.107,0.285,0.209,0.571,0.312,0.856
		c0.152,0.252,0.407,0.479,0.579,0.716c0.339,0.462,0.649,0.909,0.993,1.368c1.047,1.025,2.096,2.052,3.144,3.079
		c0.422,0.552,0.881,1.085,1.368,1.571c0.194,0.19,0.269,0.437,0.648,0.443c0.153-0.134,0.256,0.012,0.413,0
		c0.037-0.002,0.084-0.062,0.102-0.067c0.125,0.013,0.251,0.023,0.376,0.033c0.103,0.186,0.329,0.297,0.407,0.479
		c0.112,0.252-0.087,0.545,0.279,0.614c0.056-0.046,0.106-0.056,0.203-0.067c0.26,0.434,0.784,0.83,0.65,1.537
		c-0.195,0.101-0.349,0.089-0.344,0.413c0.153,0.16,0.023,0.385,0.069,0.511c0.038,0.027,0.033,0.022,0.103,0.036
		c0.042-0.032,0.083-0.032,0.172-0.036c-0.028,0.236-0.251,0.389-0.172,0.686c0.056,0.214,0.194,0.244,0.204,0.547
		c-0.395,0.362-0.106,0.55,0,0.887c-0.023,0.147-0.047,0.296-0.07,0.444c0.074,0.251,0.315,0.594,0.445,0.788
		c0.126,0.182,0.121,0.401,0.273,0.548c-0.037,0.079-0.092,0.152-0.068,0.204c0.078,0.093,0.254,0.157,0.208,0.273
		c-0.051,0.106-0.348,0.297-0.413,0.273c-0.148-0.047-0.209-0.121-0.407-0.137c-0.089,0.164-0.219,0.35-0.241,0.547
		c0.064,0.086,0.092,0.206,0.102,0.341c-0.093,0.061-0.167,0.125-0.204,0.241c0.064,0.061,0.13,0.19,0.103,0.239
		c-0.089,0.245-0.172,0.233-0.172,0.649c0.102,0.066,0.208,0.136,0.311,0.206c0.009,0.111,0.023,0.227,0.032,0.341
		c0.037,0.104,0.162,0.25,0.204,0.341c0.107,0.213,0.293,1.078,0.311,1.335c-0.088,0.047-0.12,0.065-0.273,0.067
		c-0.041-0.028-0.06-0.025-0.139-0.034c-0.106,0.181-0.214,0.389-0.344,0.547c-0.412-0.128-0.407-0.515-0.478-0.923
		c-0.125-0.061-0.311-0.098-0.478-0.137c-0.093,0-0.181,0-0.273,0c-0.056-0.067-0.116-0.137-0.172-0.206
		c-0.079,0.014-0.111,0.06-0.236,0.069c-0.097-0.374-0.445-0.361-0.719-0.547c-0.125-0.149-0.25-0.297-0.376-0.445
		c-0.088-0.052-0.198,0.006-0.311-0.032c-0.116-0.045-0.259-0.209-0.408-0.241c-0.125,0.022-0.25,0.046-0.375,0.068
		c-0.116-0.027-0.288-0.171-0.413-0.203c-0.102,0-0.203,0-0.306,0c-0.177-0.046-0.604-0.241-0.789-0.206
		c-0.468,0.092-0.797,0.449-1.229,0.479c-0.078-0.103-0.352-0.151-0.375-0.207c-0.02-0.039,0.009-0.241,0-0.308
		c-0.121-0.067-0.329-0.116-0.445-0.204c-0.167-0.128,0.064-0.232-0.241-0.273c-0.139-0.089-0.245,0.044-0.408,0.069
		c-0.061-0.09-0.074-0.115-0.204-0.139c-0.027,0.051-0.042,0.189-0.069,0.24c-0.069,0.111-0.12,0-0.204,0.032
		c-0.176,0.072-0.014,0.241-0.413,0.241c-0.115-0.147-0.194-0.068-0.375-0.036c-0.083-0.128-0.312-0.376-0.478-0.408
		c-0.182,0.213-0.371,0.354-0.751,0.273c-0.033-0.061-0.047-0.058-0.07-0.139c0.093-0.084,0.177-0.186,0.204-0.339
		c-0.199-0.121-0.241-0.302-0.375-0.479c-0.061,0.021-0.033,0.006-0.07,0.034c-0.027,0.039-0.051,0.155-0.064,0.204
		c-0.084,0.044-0.199,0.148-0.278,0.171c-0.111,0.035-0.153-0.056-0.204-0.069c-0.13-0.032-0.231,0.155-0.306,0
		c-0.023-0.044,0.019-0.144,0-0.204c-0.084,0.017-0.126,0.028-0.241,0.032c0.014-0.078,0.023-0.157,0.036-0.236
		c-0.051-0.036-0.068-0.051-0.102-0.104c-0.037,0.03-0.005-0.002-0.037,0.035c-0.037,0.033,0-0.005-0.032,0.033
		c-0.019,0.031,0.005,0.079-0.037,0.139c-0.032,0.025-0.028,0.019-0.102,0.032c-0.177-0.211-0.255-0.194-0.547-0.239
		c-0.121-0.34-0.354-0.424-0.58-0.648c-0.061,0.021-0.032,0.007-0.07,0.034c-0.068,0.072,0.005,0.219-0.102,0.274
		c-0.056-0.012-0.111-0.023-0.172-0.035c-0.051,0.015-0.115,0.118-0.166,0.137c-0.149,0.012-0.297,0.023-0.446,0.032
		c-0.125,0.054-0.115,0.153-0.311,0.172c-0.097-0.194-0.13-0.283-0.444-0.273c-0.168,0.079-0.195-0.157-0.409-0.102
		c-0.097,0.025-0.269,0.173-0.375,0.203c-0.687-0.021-1.368-0.044-2.05-0.064c-1.141-0.014-2.281-0.023-3.422-0.037
		c-0.626,0-1.419,0.088-1.98-0.032c-0.454-0.098-1.024,0.043-1.438-0.035c0-0.023,0-0.044,0-0.067c-0.069-0.106-0.009-0.283,0-0.444
		c-0.186-0.121-0.301-0.325-0.579-0.344c-0.274,0.223-0.39-0.232-0.719-0.172c-0.348,0.067-0.528,0.361-0.923,0.413
		c-0.148,0.017-0.38-0.172-0.515-0.207c-0.093-0.021-0.158,0.028-0.204,0.035c-0.148-0.012-0.297-0.022-0.445-0.035
		c-0.014,0.008-0.078,0.096-0.103,0.104c-0.106,0.033-0.287,0.056-0.343,0.065c-0.209,0.041-0.292-0.14-0.478-0.17
		c-0.371,0.383-0.589,0.244-1.024,0.104c-0.32-0.102-0.649,0.033-0.923-0.069c-0.093-0.035-0.172-0.172-0.273-0.204
		c-0.148,0-0.297,0-0.445,0c-0.153-0.051-0.315-0.236-0.58-0.171c-0.135,0.032-0.353,0.176-0.585,0.102
		c-0.157-0.051-0.227-0.278-0.51-0.206c-0.236,0.058-0.57,0.216-0.788,0.275c-0.362,0.098-0.765-0.11-1.057-0.069
		c-0.371,0.053-1.251,0.076-1.643,0c-0.535,0.022-1.071,0.046-1.606,0.069c-0.218-0.074-0.542-0.356-0.786-0.378
		c-0.336,0.315-0.649-0.044-1.027,0.067c-0.079,0.023-0.229,0.113-0.341,0.14c-0.116,0.022-0.281-0.023-0.343-0.035
		c-0.169-0.032-0.793,0.007-0.958,0.035c0,0.056,0,0.113,0,0.171c0.032,0.035,0.093,0.081,0.069,0.169
		c-0.03,0.104-0.206,0.133-0.239,0.239c-0.07,0.213,0.142,0.427-0.104,0.548c-0.162,0.102-0.621,0.034-0.853,0.034
		c-0.73,0-1.458,0-2.188,0c-2.506,0-5.015,0-7.521,0c-0.967,0-1.757,0.002-2.325-0.378c-0.056-0.067-0.114-0.134-0.17-0.204
		c-0.148-0.1-0.273-0.056-0.343-0.239c-0.139-0.183,0.069-0.368-0.035-0.614c-0.017-0.039-0.121-0.088-0.137-0.139
		c0.023-0.283,0.047-0.568,0.07-0.853c-0.137-0.573,0.083-1.142,0.204-1.607c0.085-0.322-0.007-0.568,0.104-0.821
		c0.032-0.073,0.144-0.157,0.169-0.238c0.074-0.223,0.03-0.603,0-0.719c-0.06-0.236,0.098-0.404,0.137-0.547
		c0.011-0.195,0.023-0.388,0.034-0.58c0.104-0.366,0.753-0.649,0.649-1.129c-0.056-0.258-0.216-0.491-0.309-0.717
		c-0.09-0.223-0.181-0.496-0.239-0.686c0.012-0.057,0.023-0.114,0.035-0.172c-0.067-0.056-0.137-0.111-0.207-0.169
		c-0.262-0.386-0.431-0.808-0.751-1.13c-0.193-0.181-0.387-0.364-0.582-0.547c-0.053-0.074-0.063-0.186-0.134-0.239
		c-0.181-0.129-0.562-0.164-0.652-0.375c0.269-0.107,0.761-0.336,0.855-0.615c-0.046,0-0.09,0-0.137,0
		c-0.095,0.089-0.22,0.103-0.41,0.103c0.025,0.121,0.042,0.083,0.069,0.204c-0.2,0.019-0.387,0.19-0.515,0.139
		c-0.025-0.036-0.019-0.032-0.032-0.104c0.09-0.053,0.141-0.081,0.169-0.206c-0.067-0.009-0.137-0.022-0.204-0.032
		c-0.023-0.044-0.037-0.072-0.069-0.103c0-0.022,0-0.046,0-0.068c0.109-0.065,0.158-0.107,0.171-0.274
		c-0.081-0.097-0.077-0.292-0.137-0.41c-0.163-0.32-0.429-0.712-0.684-0.957c0-0.023,0-0.045,0-0.068c0.012,0,0.023,0,0.035,0
		c0-0.011,0-0.022,0-0.034c0.06,0.023,0.032,0.007,0.067,0.034c0.25,0.091,0.234,0.384,0.445,0.48
		c0.039,0.025,0.058,0.023,0.137,0.032c-0.049-0.152-0.1-0.073-0.171-0.172c-0.1-0.134-0.151-0.537-0.033-0.719
		c0.042-0.139,0.088-0.166,0.274-0.168c0.104,0.117,0.215,0.274,0.41,0.308c0.074-0.1,0.118-0.176,0.271-0.206
		c0.083,0.086,0.223,0.196,0.343,0.238c0-0.009,0-0.022,0-0.032c0.012,0,0.023,0,0.035,0c-0.023-0.069-0.047-0.14-0.07-0.206
		c-0.278-0.1-0.364-0.2-0.547-0.376c0.023-0.061,0.007-0.035,0.035-0.067c0.1-0.188,0.419-0.15,0.582-0.273
		c0.025-0.037,0.011-0.01,0.032-0.069c-0.102,0-0.204,0-0.306,0c-0.169,0.111-0.672,0.074-0.855,0.032
		c-0.037-0.069-0.049-0.061-0.067-0.169c0.1-0.101,0.088-0.218,0.169-0.341c0.058-0.083,0.22-0.093,0.273-0.172
		c0.102-0.148,0.104-0.306,0.207-0.444c0.134-0.182,0.452-0.221,0.547-0.446c0.011,0,0.023,0,0.032,0
		c0.035-0.031-0.032-0.031-0.032-0.031c0-0.013,0-0.023,0-0.035c-0.023,0-0.047,0-0.07,0c-0.074,0.113-0.183,0.178-0.273,0.273
		c-0.067-0.023-0.137-0.045-0.204-0.067c-0.13,0.438-0.531,0.849-1.095,0.853c-0.178-0.254-0.559-0.25-0.614-0.719
		c-0.005-0.036,0.009-0.041,0.032-0.134c-0.039-0.033-0.037-0.028-0.067-0.069c-0.012,0-0.023,0-0.035,0c0,0.011,0,0.022,0,0.032
		c-0.127,0.081-0.223,0.181-0.239,0.375c0.067,0.015,0.137,0.023,0.204,0.037c0.095,0.379,0.429,0.309,0.445,0.752
		c-0.051,0.034-0.067,0.051-0.102,0.102c-0.123-0.016-0.123-0.01-0.274,0c-0.123-0.231-0.2-0.434-0.515-0.478
		c-0.017,0.051-0.021,0.059-0.033,0.137c0.192,0.077,0.218,0.142,0.341,0.271c-0.054,0.113-0.109,0.167-0.137,0.311
		c0.114,0.064,0.188,0.098,0.207,0.273c-0.088,0.047-0.121,0.065-0.274,0.067c-0.099,0.067-0.345,0.025-0.445,0
		c-0.492-0.125-0.834-0.206-0.888-0.754c0.109-0.069,0.167-0.162,0.204-0.306c0.012,0,0.023,0,0.035,0
		c0.035-0.035-0.033-0.032-0.035-0.035c-0.037-0.025-0.032-0.021-0.102-0.034c-0.181,0.288-0.29,0.417-0.512,0.649
		c-0.121-0.025-0.274-0.057-0.343-0.103c-0.026-0.037-0.021-0.032-0.035-0.102c0.076-0.094,0.058-0.153,0.035-0.274
		c-0.021,0-0.044,0-0.067,0c-0.192-0.111-0.491,0.061-0.684,0c-0.163-0.051-0.239-0.259-0.376-0.343
		c-0.299-0.176-0.802-0.169-0.958-0.478c-0.215-0.343,0.246-0.658,0.067-0.955c-0.102-0.312-0.44-0.434-0.547-0.754
		c0-0.09,0-0.183,0-0.272c-0.06-0.226-0.306-0.917-0.239-1.231c0.042-0.19,0.181-0.307,0.207-0.513
		c-0.116,0.009-0.058,0.012-0.171,0c-0.028-0.174,0.004-0.418-0.035-0.615c-0.211-0.102-0.28-0.303-0.478-0.377
		c-0.032,0.036,0.002,0.002-0.035,0.034c0.158,0.302,0.322,0.325,0.341,0.751c-0.058,0.033-0.056,0.044-0.135,0.07
		c-0.104-0.169-0.278-0.344-0.479-0.41c0,0.034,0,0.066,0,0.104c0.053,0.063,0.065,0.069,0.035,0.135
		c-0.04,0.098-0.007,0.064-0.104,0.102c-0.046,0.033-0.111,0.035-0.204,0.035c-0.111-0.118-0.401-0.208-0.478-0.309
		c-0.082-0.102-0.035-0.29-0.104-0.407c-0.167-0.297-0.382-0.465-0.512-0.821c-0.035,0-0.067,0-0.102,0
		c0.014,0.344,0.209,0.334,0.274,0.547c-0.012,0.067-0.023,0.135-0.035,0.204c0.033,0.155,0.086,0.478,0.171,0.617
		c0.103,0.067,0.204,0.134,0.309,0.204c0.09,0.148,0.016,0.287-0.104,0.343c-0.044,0.028-1.104,0.093-1.196,0.103
		c-0.042-0.072-0.069-0.079-0.102-0.172c0.09-0.059,0.114-0.074,0.137-0.204c-0.186,0.028-0.246,0.158-0.341,0.273
		c-0.06-0.023-0.035-0.009-0.069-0.037c-0.169-0.051-0.294-0.195-0.306-0.408c0.026-0.041,0.026-0.058,0.033-0.139
		c0.069-0.032,0.197-0.065,0.239-0.135c0.028-0.042,0.028-0.058,0.035-0.137c-0.121-0.042-0.127-0.098-0.204-0.172
		c0.028-0.596,0.464-0.554,0.512-0.888c-0.053-0.083,0.07-0.69,0.103-0.82c0.178-0.065,0.431-0.01,0.512-0.241
		c0.065-0.13-0.123-0.297-0.137-0.548c0.369-0.231,0.441-0.6,0.685-0.955c0.083-0.122,0.29-0.229,0.343-0.376
		c0.046-0.13-0.025-0.277,0.033-0.377c0.06-0.101,0.236-0.425,0.343-0.478c0.164-0.086,0.197,0.036,0.273-0.137
		c0.062-0.075,0.336-1.206,0.306-1.334c-0.021-0.102-0.144-0.176-0.102-0.378c0.067-0.306,0.269-0.528,0.308-0.716
		c0.04-0.188-0.15-0.401-0.067-0.649c0.125-0.388,0.517-0.418,0.545-0.957c-0.269-0.279-0.515-0.578-0.786-0.854
		c0-0.023,0-0.047,0-0.07c0.192-0.095,0.603-0.394,0.48-0.648c-0.042-0.126-0.153-0.23-0.239-0.309
		c0.021-0.061,0.005-0.034,0.033-0.067c0.074-0.251,0.222-0.181,0.41-0.309c0.079-0.053,0.223-0.319,0.309-0.41
		c0.248,0.005,0.239,0.097,0.445,0.135c0.021-0.038,0.091-0.074,0.103-0.103c0.046-0.106-0.019-0.26,0.035-0.341
		c0.297-0.294,0.635-0.624,0.888-0.957c0.072-0.093,0.111-0.205,0.207-0.273c0.475-0.355,1.078-0.687,1.468-1.128
		c0.232-0.264,0.306-0.895,0.651-1.026c0.139-0.089,0.434-0.01,0.58-0.035c0.093-0.196,0.202-0.598,0.375-0.717
		c0.253-0.171,0.605-0.166,0.856-0.343c0.204-0.141,0.125-0.526,0.375-0.648c0.241-0.16,0.591-0.003,0.786,0.034
		c0.116-0.209,0.114-0.438,0.207-0.719c0.083-0.255,0.257-0.537,0.343-0.786c0.106-0.315,0.132-0.651,0.204-0.957
		c0.042-0.023,0.069-0.037,0.102-0.069c0.153,0.064,0.531,0.259,0.649,0.206c0.269-0.095,0.438-0.388,0.651-0.545
		c0.438-0.332,0.826-0.695,1.264-1.027c0.164-0.123,0.498-0.594,0.684-0.547c0.382,0.204,0.037,0.983,0.513,1.161
		c0.167,0.128,0.498,0.103,0.786,0.103c0.582-0.01,1.164-0.021,1.744-0.033c0.056-0.11,0.074-0.331,0.102-0.478
		c0.114-0.064,0.294-0.144,0.343-0.272c0.083-0.14-0.021-0.399,0.035-0.585c0.074-0.246,0.181-0.596,0.239-0.854
		c0.051-0.019,0.058-0.022,0.137-0.034c0.06,0.076,0.125,0.078,0.172,0.172c0.102,0.183-0.158,0.308-0.035,0.479
		c0.086,0.12,0.359,0.076,0.513,0.135c0.317,0.125,0.603,0.468,0.922,0.584c0.179,0.06,0.392,0.064,0.547,0.103
		c0.056,0.087,0.171,0.168,0.207,0.272c0,0.089,0,0.182,0,0.271c0.025,0.081,0.146,0.165,0.169,0.239
		c-0.011,0.116-0.021,0.229-0.032,0.343c0.065,0.211,0.398,0.364,0.547,0.513c0.262-0.003,0.575-0.008,0.786,0.035
		c0.13,0.222,0.396,0.394,0.478,0.648c0.111,0.348-0.174,0.658-0.067,1.06c0.129,0.494,0.211,1.014,0.512,1.333
		c0.378,0.005,0.64-0.064,0.923-0.102c0.113,0.035,0.227,0.069,0.341,0.102c0.051-0.009,0.123-0.12,0.171-0.137
		c0.137-0.044,0.216,0.056,0.274,0.07c0.255,0.058,0.665-0.207,0.753-0.341c0.06-0.101-0.009-0.246,0.032-0.378
		c0.065-0.197,0.151-0.315,0.207-0.615c0.181-0.086,0.385-0.106,0.684-0.102c0.313-0.535,0.645-0.781,0.649-1.676
		c-0.132-0.082-0.246-0.188-0.273-0.379c0.134-0.144,0.151-0.385,0.273-0.544c0.051-0.068,0.134-0.054,0.204-0.104
		c0.162-0.114,0.207-0.367,0.41-0.443c0.091-0.011,0.184-0.023,0.274-0.034c0.292-0.162,0.019-0.348,0.617-0.342
		c0.271-0.452,0.478-0.493,0.821-0.82c0.125,0.027,0.181,0.061,0.341,0.067c0.06-0.102,0.095-0.13,0.102-0.307
		c-0.207-0.198-0.338-0.412-0.512-0.649c-0.114-0.102-0.228-0.206-0.341-0.308c-0.072-0.109-0.042-0.197-0.139-0.276
		c-0.207-0.114-0.311,0.083-0.306-0.204c0.586-0.148,0.616-0.64,0.922-1.06c0.123-0.169,0.367-0.229,0.513-0.375
		c0.304-0.304,0.529-0.674,0.786-1.026c0.224-0.308,0.381-0.015,0.376-0.649c-0.311-0.299-0.088-0.796,0.07-1.094
		c0.116-0.226,0.199-0.417,0.338-0.616c0.125-0.166,0.38-0.301,0.482-0.479c0.033-0.125,0.065-0.25,0.102-0.376
		c0.167-0.252,0.543-0.256,0.58-0.65c-0.25-0.26-0.246-1.063-0.07-1.367c0.111-0.186,0.348-0.28,0.413-0.512
		c0.079-0.282-0.121-0.528-0.171-0.684c-0.088-0.289,0.046-1.095,0.139-1.231c0.264-0.397,0.51-0.028,0.714-0.102
		c0.255-0.071,0.593-0.533,0.788-0.719c-0.014-0.137-0.023-0.272-0.033-0.411c-0.157-0.095-0.213-0.175-0.208-0.444
		c-0.023-0.053-0.004-0.005,0-0.102c0.635,0.147,0.427-0.147,0.922-0.171c0.103,0.128,0.496,0.221,0.687,0.24
		c0.236-0.357,0.863-0.32,1.058-0.615c0.13-0.191,0.106-0.643,0.311-0.752c0.214-0.135,0.464,0.08,0.616-0.137
		c0.02-0.103,0.042-0.206,0.065-0.308c0.037-0.116,0.14-0.306,0.172-0.41c0.023-0.331,0.046-0.661,0.069-0.991
		c0.032-0.11,0.148-0.326,0.171-0.445c0.033-0.205-0.194-0.378-0.139-0.616c0.061-0.259,0.27-0.877,0.413-1.094
		c0.056-0.088,0.194-0.164,0.236-0.272c0.098-0.256,0.069-0.587,0.069-0.924c-0.172-0.097-0.348-0.071-0.547-0.102
		c0-0.023,0-0.045,0-0.068c0.106-0.074,0.111-0.191,0.204-0.274c0.162-0.105,0.468-0.128,0.616-0.239
		c0.098-0.075,0.098-0.272,0.172-0.376c0.102-0.146,0.408-0.373,0.58-0.444c0.297-0.045,0.594-0.092,0.89-0.138
		c0.047,0.009,0.07,0.093,0.172,0.069c0.324-0.074,0.798-0.498,0.854-0.855c-0.168-0.187,0.005-0.716,0.069-0.923
		c0.009-0.148,0.022-0.296,0.032-0.444c0.069-0.165,0.204-0.237,0.241-0.445c-0.167-0.153-0.315-0.325-0.478-0.478
		c-0.014-0.16-0.023-0.32-0.037-0.479c0.223-0.14,0.311-0.386,0.311-0.752c-0.102-0.089-0.181-0.175-0.209-0.342
		c0.116-0.162,0.065-0.368,0.273-0.444c0.236-0.161,0.516-0.048,0.858-0.138c0.39-0.1,0.886-0.467,0.923-0.923
		c-0.064-0.066-0.167-0.267-0.103-0.444c0.057-0.157,0.219-0.282,0.274-0.479c0-0.159,0-0.319,0-0.479
		c0.12-0.439,0.097-1.011,0.272-1.435c0.195-0.484,0.265-1.146,0.548-1.573c0.278-0.434,0.719-0.808,1.024-1.231
		c0.111-0.159,0.089-0.407,0.204-0.581c0.135-0.104,0.273-0.205,0.408-0.308c0.19-0.273-0.097-0.669,0.069-0.923
		c0.135-0.201,0.482-0.219,0.617-0.41c0.181-0.258,0.199-0.597,0.375-0.854c0.103-0.149,0.298-0.266,0.445-0.375
		c0.205-0.154,0.403-0.428,0.58-0.616c0.557,0.007,0.913,0.385,1.438,0.444c0.157-0.143,0.408-0.178,0.58-0.307
		c0.12-0.091,0.152-0.243,0.306-0.309c0.106-0.01,0.208-0.023,0.311-0.034c0.056-0.068,0.111-0.137,0.172-0.205
		c0.199-0.197,0.449-0.464,0.682-0.616c0.157-0.102,0.302-0.031,0.515-0.102c0.241-0.083,0.361-0.317,0.547-0.445
		c0.26-0.178,0.84-0.195,0.955-0.513c0.27-0.341,0.177-0.724,0.205-1.198c-0.094-0.055-0.27-0.15-0.34-0.239
		c-0.041-0.053-0.046-0.14-0.102-0.17c-0.125-0.063-0.255,0.015-0.311-0.103c0-0.057,0-0.114,0-0.17
		c0.069-0.045,0.459-0.417,0.478-0.479c0-0.171,0-0.342,0-0.513c0.019-0.059,0.12-0.181,0.14-0.24c0-0.091,0-0.182,0-0.274
		c0.019-0.047,0.147-0.118,0.171-0.17c-0.014-0.092-0.023-0.182-0.036-0.274c0.013-0.059,0.102-0.126,0.068-0.239
		c-0.014-0.056-0.111-0.095-0.134-0.138c-0.051-0.084-0.12-0.419-0.14-0.513c0.111-0.06,0.177-0.087,0.205-0.239
		c-0.043-0.057-0.01-0.448,0.068-0.582c0.038-0.057,0.148-0.096,0.172-0.17c-0.023-0.125-0.047-0.25-0.069-0.375
		c-0.061-0.022-0.033-0.007-0.064-0.035c-0.14,0.035-0.209,0.099-0.344,0.137c-0.093-0.125-0.186-0.25-0.273-0.377
		c-0.102-0.061-0.223-0.033-0.273-0.136c-0.033-0.063,0.022-0.105,0.032-0.138c-0.027-0.056-0.093-0.147-0.135-0.205
		C69.43,5.186,69.3,5.221,69.244,5.059c0.042-0.046,0.047-0.06,0.07-0.137c-0.106-0.062-0.205-0.196-0.312-0.239
		c-0.106-0.044-1.423-0.201-1.54-0.171c-0.027,0.007-0.134,0.1-0.166,0.104c-0.079,0.008-0.098-0.058-0.139-0.068
		c-0.204,0.01-0.413,0.023-0.617,0.033c-0.106-0.16-0.27-0.208-0.306-0.444c0.092-0.126,0.087-0.339,0.171-0.479
		c0.037-0.062,0.145-0.133,0.172-0.206c0.037-0.112-0.056-0.203-0.037-0.273c0.074-0.242,0.422-0.483,0.478-0.821
		c-0.046-0.033-0.459-0.529-0.478-0.581c0.204-0.138,0.353-0.33,0.686-0.342c0.121,0.072,0.209-0.046,0.339,0
		c0.139,0.048,0.312,0.26,0.445,0.307c0.349,0.123,0.538-0.026,0.821,0c0.088-0.146,0.088-0.364,0.171-0.546
		c0.065-0.139,0.251-0.291,0.312-0.445c0.031-0.088-0.065-0.567-0.07-0.717C69.295,0.015,69.3,0.01,69.379,0
		c0.121,0.122,0.25,0.189,0.273,0.41c-0.084,0.083-0.102,0.167-0.102,0.341c0.143,0.081,0.227,0.213,0.343,0.274
		c0,0.011,0,0.023,0,0.033c0.009,0,0.023,0,0.032,0c0-0.01,0-0.022,0-0.033c0.061-0.043,0.153-0.2,0.204-0.137
		c0.32,0.256,0.223,0.386,0.858,0.376c0.041,0.079,0.056,0.078,0.064,0.205C70.979,1.549,70.955,1.618,70.951,1.777z"/>
</g>
<g id="Layer_1">
</g>
</svg>
