<?xml version="1.0" encoding="iso-8859-1"?>
<!-- Generator: Adobe Illustrator 16.0.3, SVG Export Plug-In . SVG Version: 6.00 Build 0)  -->
<!DOCTYPE svg PUBLIC "-//W3C//DTD SVG 1.1//EN" "http://www.w3.org/Graphics/SVG/1.1/DTD/svg11.dtd">
<svg version="1.1" xmlns="http://www.w3.org/2000/svg" xmlns:xlink="http://www.w3.org/1999/xlink" x="0px" y="0px" width="100px"
	 height="100px" viewBox="0 0 100 100" style="enable-background:new 0 0 100 100;" xml:space="preserve">
<g id="CO">
	<path style="fill:#010101;" d="M21.934,29.141l2.146-2.147l-1.532-2.756l0.306-1.23l3.374,3.986v-3.986l7.053-5.215l0.309-5.829
		l3.989-3.066h2.45l0.616,1.227l1.841-3.067l5.829-0.614l5.522-2.454l1.529-2.455L57.822,0l2.762,1.534l-0.922,1.841l-3.377,1.227
		l-4.291,4.602l-4.602,10.736h3.063l2.767,5.829l0.301,4.601l2.459,1.84l3.371,0.921l4.906-0.921l3.07,1.228l4.293,5.215
		l11.348-0.613l-2.453,9.509l0.922,3.374l2.76,4.295l-3.068,3.373l2.766,2.762l2.76,6.135l-1.227,0.921l-2.459-5.219l-3.064,1.23
		l-1.535-1.23l-0.609,1.537h-9.203l0.305,3.988l2.76,0.307l1.227,2.761l-5.52,0.307v4.294l2.764,2.144l1.225,4.299L67.637,100
		l-3.682-1.844l3.375-5.212l-1.23-2.147l-4.596-1.841l-1.842,0.917l-3.377-0.917l-2.762,1.534l-4.292-0.308l-0.918-3.989
		l-2.147-0.304l-0.921-3.374l-2.457-0.921l-4.292-4.908l-3.067-0.613l-4.601-2.762l-0.92,0.614H23.77l-2.449-3.069l-7.366-3.679
		l-0.61-1.533l2.147-1.228l0.307-4.295l5.522-1.534l0.613-2.452l3.677-3.988l-3.063-0.307l0.306-15.647l-3.071-5.212l1.23-2.147
		L21.934,29.141z"/>
</g>
<g id="Layer_1">
</g>
</svg>
