<?xml version="1.0" encoding="iso-8859-1"?>
<!-- Generator: Adobe Illustrator 16.0.3, SVG Export Plug-In . SVG Version: 6.00 Build 0)  -->
<!DOCTYPE svg PUBLIC "-//W3C//DTD SVG 1.1//EN" "http://www.w3.org/Graphics/SVG/1.1/DTD/svg11.dtd">
<svg version="1.1" xmlns="http://www.w3.org/2000/svg" xmlns:xlink="http://www.w3.org/1999/xlink" x="0px" y="0px" width="100px"
	 height="100px" viewBox="0 0 100 100" style="enable-background:new 0 0 100 100;" xml:space="preserve">
<g id="CY">
	<path style="fill:#010101;" d="M98.762,20.494c-0.586,0-1.124,0.488-1.515,1.025c-0.39,0.537-0.634,0.292-1.122,0.146
		c-0.488-0.146-0.732,0.488-1.269,0.83c-0.538,0.341-0.587,0.097-0.587-0.098c0-0.195-1.464,0.732-1.904,1.074
		c-0.439,0.342-0.78,0.293-0.928,0.098c-0.146-0.195-1.269,0.635-1.66,0.733c-0.391,0.097-0.488,0.097-0.341,0.488
		c0.146,0.391,0.146,0.635-0.538,0.586c-0.683-0.049-0.878,0.732-2.782,1.904c-1.904,1.172-2.686,0.293-3.369,0
		c-0.684-0.292-0.634,0.146-0.879,0.928c-0.244,0.781-0.439,0.391-0.879,0.683c-0.439,0.293-0.732,1.074-0.879,1.806
		c-0.146,0.733-1.366,0.342-1.709,0.293c-0.341-0.049-0.487,0-1.073,0.927c-0.587,0.928-0.781,0.293-1.221,0.293
		c-0.44,0-0.391,0.048-0.635,0.488c-0.244,0.439-2.637,0.683-3.906,1.123s-2.734,1.172-4.004,1.465
		c-1.269,0.293-1.904-0.244-2.343-0.439c-0.439-0.195-0.195-0.048-1.27,0.342c-1.074,0.391-1.123,1.123-2.1,1.855
		s-2.246,0.684-3.369,0.391c-1.122-0.293-1.269,0-1.709,0.391c-0.439,0.39-0.683,0.537-1.221,0.488
		c-0.536-0.048-0.536,0.049-1.854,0.586s-2.1,0.147-2.344-0.097s-0.586,0.048-1.416,0.195c-0.83,0.146-1.27-0.098-2.148,0.097
		c-0.879,0.196-0.928-0.195-1.611-0.537c-0.684-0.342-2.734-0.537-2.93-0.537s-0.146,0.244-0.879,0.097
		c-0.732-0.146-0.391-0.244-0.391-0.537s-1.611,0.048-2.05,0.244c-0.439,0.195-2.197-0.635-2.588-0.83s-0.439-0.049-0.684,0.342
		s-1.025,0.391-1.953,0.244c-0.928-0.146-0.732-0.586-1.026-0.684c-0.292-0.098-0.585,0.049-1.464,0.146s-1.367-0.83-1.514-1.025
		c-0.146-0.195-0.244-0.391-0.928-0.586s-0.781-0.634-0.83-0.927c-0.048-0.293-0.146,0-0.439,0.341c-0.293,0.342,0,2.051,0.098,2.49
		s0.341,0.635,0.634,0.586s0.098,1.806,0.146,2.783s-1.22,5.419-1.318,6.005s-2.588,1.855-3.223,2.148s-1.513-0.781-1.708-1.172
		s-0.781-0.195-1.367-0.195s-0.684-0.586-0.732-0.977s-1.123,0.244-1.807,0.244s-0.684-0.341-0.878-0.781
		c-0.196-0.44-0.782-0.146-1.026-0.146c-0.244,0-0.488-0.244-0.781,0.245c-0.293,0.488-0.391-0.098-0.391-0.342
		s-1.172,0.781-1.562,0.928s-0.391,0.489-0.732,0.635c-0.341,0.146-0.635-0.732-0.83-0.83s-0.537,0.292-0.586,0.83
		c-0.048,0.537-0.098,0.732-0.537,0.83c-0.439,0.097-0.488,0.146-0.732,0.439s-0.195,0.342-0.049,0.634
		c0.146,0.293-0.439,0.83-0.732,1.368c-0.293,0.536-0.391,1.757-0.635,1.659c-0.244-0.097-0.391,0.049-0.83,0.391
		s-2.148,0.928-3.369,1.025c-1.221,0.098-1.66-0.634-1.709-1.074c-0.049-0.438-1.123-1.074-1.562-1.221s-0.292-0.537,0.049-0.585
		c0.342-0.049-0.732-0.83-0.927-1.124c-0.195-0.292-0.147-0.195-0.586,0c-0.439,0.196-0.488,0.977-0.537,1.611
		c-0.049,0.635-0.098,0.537-0.244,0.586s0.146,0.732,0.342,1.367c0.195,0.635,0.781,0.977,0.83,1.514
		c0.048,0.537,0.585,0.488,0.927,0.586s0.098,1.758,0.146,2.148s0.098,0.635-0.195,0.488s-0.391,0-0.439,0.391s0,0.244,0.586,0.83
		s0.635,0.732,0.391,1.416s0.195,1.024,0.586,2.099s0.537,1.025,1.709,1.221s0.537,1.025,0.537,1.709s-0.244,0.879,0.195,1.172
		s-0.049,0.879-0.049,1.416s0,0.586,0.293,0.537s0.732,0.439,0.928,0.732c0.195,0.293,0.439,0.537,0.976,0.537
		s0.928,0.049,1.221,0.83s0.244,0.634,1.025,0.342c0.781-0.293,0.586-0.196,0.879,0.341c0.293,0.538,0.488,0.439,1.465,0.343
		c0.976-0.098,1.367,0.438,1.757,1.122s0.684,0.684,1.758,1.074c1.074,0.391,1.758,0.83,2.392,1.025
		c0.635,0.195,1.025-0.586,1.221-0.781s0.391,0.391,0.635,0.488s0.342,0.098,0.781-0.195s0.293-0.488,0.635-0.586
		s4.199-0.195,4.541-0.195s0.928,1.074,1.221,1.27s0.635,0.098,0.928,0.635s0.391,1.465,0.293,2.588s-0.146,1.025,0.732,0.879
		c0.879-0.146,2.393,0.391,2.881,0.391s0.537,0,0.83-0.342s0-0.635-0.635-1.123s0.098-3.076,1.221-4.54
		c1.123-1.466,2.685-1.661,3.564-1.855c0.879-0.196,4.101,0.098,4.882,0.194c0.782,0.099,0.928-0.194,1.611-0.829
		s0.879-0.05,1.514,0.244c0.634,0.293,0.439,0.342,0.878,0.097c0.439-0.243,1.074-0.585,1.417-0.585
		c0.341,0,0.439-0.049,0.537-0.488c0.097-0.439,1.123-0.684,1.562-0.684c0.439,0,0.391-0.439,0.585-0.977
		c0.196-0.537,1.612-0.732,2.491-0.684s1.416-0.83,2.002-1.611s1.953-0.342,2.44-0.146c0.488,0.195,0.587,0.146,0.587-0.195
		s0.195-0.488,0.684-0.928c0.487-0.439,0.731-1.367,0.829-2.686c0.098-1.317,0-2.636,0.684-3.515s2.93-1.221,4.004-1.172
		s4.15,1.758,4.491,2.051c0.342,0.293,0.83-0.049,1.074-0.195S70.2,59.162,70.2,58.82s0.391-0.537,0.976-0.537
		c0.586,0,0.928-0.342,1.416-0.732s0.635-0.146,0.977,0.098s0.635,0.439,1.074,0.195s0.391-0.342,0.537,0.098s0,0.391,0.537,0.488
		s1.024,0.439,1.024,0.439s0.537,0.439,0.83,0.342c0.294-0.098,0.44,0.146,0.684,0.244c0.244,0.098,0.05,0.342,0.391,0.195
		c0.342-0.146,0.146,0.049-0.194-0.635c-0.343-0.684-0.537-0.732-0.489-1.758c0.05-1.025-1.854-2.832-2.733-3.711
		s-1.367-1.709-1.562-2.245c-0.195-0.537-0.537-0.732-1.074-0.928c-0.537-0.196-0.488-0.733-0.586-1.465
		c-0.098-0.732-0.635-0.538-1.074-1.074c-0.439-0.537-0.537-3.369-0.439-3.906c0.099-0.537,0.195-0.733,0.586-1.172
		c0.391-0.439,1.025-1.758,1.221-2.197c0.195-0.44,0.928-0.391,1.514-0.586c0.586-0.195,0.732-0.195,1.025,0.146
		c0.293,0.342,0.635,0.049,1.366,0.098c0.733,0.049,0.831-0.048,1.221-0.341c0.392-0.293,0.44-1.172,0.392-1.855
		c-0.05-0.684,3.076-3.418,3.905-3.857c0.83-0.439,1.318-0.977,1.855-0.977s1.514-0.342,2.588-0.635s2.393-1.757,3.027-2.441
		s0.829-0.537,1.074-0.537c0.243,0,0.977-0.537,1.758-1.123c0.781-0.586,0.391-1.026,0.634-1.954
		c0.244-0.927,0.928-1.025,1.562-1.074c0.636-0.049,0.879-0.538,1.318-0.977c0.439-0.439,2.538-0.879,2.881-0.928
		c0.342-0.049,0.537-0.537,0.488-1.123c-0.05-0.586,0.927-1.514,1.074-1.807C100.129,20.298,99.348,20.494,98.762,20.494z"/>
</g>
<g id="Layer_1">
</g>
</svg>
