<?xml version="1.0" encoding="iso-8859-1"?>
<!-- Generator: Adobe Illustrator 16.0.3, SVG Export Plug-In . SVG Version: 6.00 Build 0)  -->
<!DOCTYPE svg PUBLIC "-//W3C//DTD SVG 1.1//EN" "http://www.w3.org/Graphics/SVG/1.1/DTD/svg11.dtd">
<svg version="1.1" xmlns="http://www.w3.org/2000/svg" xmlns:xlink="http://www.w3.org/1999/xlink" x="0px" y="0px" width="100px"
	 height="100px" viewBox="0 0 100 100" style="enable-background:new 0 0 100 100;" xml:space="preserve">
<g id="DO">
	<path style="fill:#010101;" d="M6.901,51.878c0.312-0.579,1.079-1.53,0.933-2.227c-0.037-0.176-0.193-0.157-0.337-0.157
		c-0.227,0-0.222-0.709-0.238-0.865c-0.046-0.416,0.073-0.782,0.077-1.192c0.004-0.524-0.516-0.671-0.766-1.054
		c-0.409-0.627-0.318-1.458-1.04-1.893c-0.333-0.2-0.691-0.119-0.96,0.149c-0.216,0.216-0.681,0.642-0.84,0.055
		c-0.17-0.626,1.07-0.918,1.423-1.064c0.358-0.149,0.704-0.371,1.021-0.593c0.324-0.228,0.299-0.593,0.557-0.844
		c0.213-0.208,0.551-0.204,0.763-0.417c0.24-0.241,0.193-0.575,0.325-0.861c0.13-0.281,0.461-0.304,0.713-0.414
		c0.377-0.165,0.633-0.485,0.834-0.833c0.353-0.608,0.394-1.354,0.543-2.036c0.17-0.779-0.473-0.864-1.102-1.013
		c-0.75-0.178-1.25-0.747-1.708-1.332c-0.243-0.31-0.5-0.634-0.717-0.962c-0.243-0.366,0.136-0.546,0.373-0.774
		c0.544-0.523,0.776-1.296,1.005-1.993c0.314-0.954,0.432-1.907,0.254-2.902c-0.093-0.518-0.246-1.024-0.467-1.502
		c-0.211-0.454-0.578-0.852-0.708-1.34C6.684,25.237,6.86,24.581,6.916,24c0.03-0.315,0.038-0.634-0.014-0.947
		c0.272-0.04,0.545-0.078,0.817-0.117c-0.377-0.566-0.745-1.141-1.05-1.75c-0.332,0.478-0.782-0.457-0.713-0.763
		c0.115-0.511,0.934-0.594,1.325-0.779c0.647-0.306,1.377-0.439,1.677-1.131c0.274-0.63,1.097-0.885,1.706-1.032
		c1.838-0.444,3.637,0.142,5.323,0.859c0.672,0.286,1.688,1.007,2.433,0.889c0.431-0.068,0.66-0.192,1.029,0.111
		c0.375,0.309,0.696,0.471,1.189,0.35c0.336-0.082,0.845-0.182,1.037-0.506c0.133-0.227,0.148-0.567,0.451-0.632
		c0.792-0.169,1.575-0.091,2.33-0.495c0.338-0.181,0.489-0.541,0.727-0.821c0.239-0.281,0.576-0.452,0.926-0.553
		c0.358-0.104,0.744-0.142,1.115-0.097c0.458,0.056,0.556,0.365,0.806,0.694c0.505,0.665,1.7,0.326,2.385,0.271
		c0.952-0.077,1.496,0.118,2.056,0.885c0.213,0.292,0.22,0.284,0.556,0.306c0.296,0.019,0.586,0.178,0.835,0.331
		c0.3,0.186,0.605,0.417,0.686,0.778c0.077,0.344,0.05,0.697,0.466,0.788c0.327,0.07,0.666,0.01,0.996,0.047
		c0.43,0.047,0.663,0.344,0.955,0.623c0.673,0.645,1.646,0.292,2.46,0.238c0.469-0.031,0.916-0.05,1.366-0.201
		c0.382-0.128,0.775-0.32,1.187-0.226c0.753,0.171,1.366,0.997,1.924,1.483c0.336,0.292,0.673,0.585,0.99,0.898
		c0.276,0.272,0.504,0.63,0.815,0.86c0.568,0.421,1.36,0.423,2.033,0.504c0.857,0.104,1.705,0.153,2.529,0.424
		c0.749,0.246,1.6,0.319,2.189-0.319c0.558-0.604,0.836-1.21,1.679-1.508c0.848-0.3,1.617,0.106,2.27,0.646
		c0.531,0.439,0.924,1.337,1.062,2.009c0.08,0.384-0.139,0.625-0.33,0.928c-0.26,0.407-0.108,0.729,0.175,1.068
		c0.518,0.62,0.523,1.3,0.486,2.067c-0.045,0.898,0.484,1.597,1,2.286c0.467,0.623,1.166,0.951,1.669,1.531
		c0.19,0.22,0.386,0.518,0.132,0.734c-0.18,0.153,0.43,0.293,0.49,0.309c0.506,0.126,1.12,0.382,1.611,0.101
		c0.548-0.313,1.232-0.362,1.851-0.352c0.575,0.011,1.186,0.15,1.626-0.322c0.358-0.385,1.11-0.534,1.608-0.419
		c0.729,0.167,1.485,0.132,2.206,0.311c0.728,0.18,1.518,0.513,2.278,0.335c0.631-0.147,1.059-0.673,1.584-1.011
		c0.669-0.43,1.383-0.412,2.134-0.246c-0.272,0.364-0.497,0.762-0.7,1.167c0.5,0.05,1.634-0.065,1.987,0.345
		c0.438,0.509-0.242,1.11-0.599,1.405c-0.451,0.375-0.777,0.768-0.678,1.379c0.11,0.682-1.602,0.314-1.996,0.312
		c-1.6-0.008-3.207,0.367-4.762-0.174c-0.691-0.24-1.431-0.183-2.11-0.428c-0.341-0.122-0.673-0.273-1.026-0.359
		c-0.434-0.104-0.88-0.03-1.319-0.03c0.099,0.428,0.166,0.864,0.305,1.282c0.129,0.391-0.196,0.761-0.378,1.073
		c-0.328,0.565,0.132,0.898,0.646,1.032c0.642,0.168,1.336,0.159,1.994,0.164c0.473,0.003,0.946-0.008,1.419-0.029
		c0.443-0.021,1.027-0.281,1.455-0.133c0.365,0.126,0.675,0.481,0.974,0.716c0.332,0.261,0.674,0.513,1.042,0.721
		c0.888,0.502,1.924,0.663,2.927,0.751c0.827,0.074,1.652,0.036,2.478,0.092c0.855,0.059,1.464,0.648,2.291,0.776
		c0.384,0.06,0.772-0.012,1.072-0.271c0.292-0.251,0.544-0.703,0.942-0.79c0.883-0.192,1.603,0.285,2.38,0.594
		c0.369,0.146,0.533,0.525,0.867,0.71c0.334,0.185,0.767,0.094,1.13,0.11c0.966,0.043,1.796,0.402,2.593,0.93
		c0.744,0.494,1.431,1.062,2.008,1.747c0.618,0.734,1.146,1.551,1.933,2.122c0.683,0.494,1.416,0.875,1.974,1.522
		c0.618,0.717,1.121,1.385,1.993,1.815c0.8,0.394,1.509,0.772,2.144,1.415c0.46,0.466,1.231,0.962,0.976,1.662
		c-0.518,1.419-1.378,2.717-2.231,3.948c-0.48,0.695-0.932,1.371-0.982,2.239c-0.052,0.882-0.961,1.132-1.735,1.096
		c-0.377-0.017-0.786-0.059-1.144-0.19c-0.208-0.077-0.565-0.289-0.796-0.214c-0.507,0.166-0.767,1.088-0.931,1.525
		c-0.284,0.754-0.535,1.521-0.635,2.325c-0.015,0.116,0.011,0.515-0.141,0.558c-0.509,0.141-0.988-0.095-1.485-0.159
		c-0.567-0.072-1.283-0.007-1.746-0.404c-0.267-0.23-0.32-0.567-0.345-0.9c-0.035-0.494-0.187-0.882-0.473-1.286
		c-0.892-1.261-1.796-2.714-3.313-3.28c-0.723-0.271-1.542-0.221-2.292-0.104c-0.817,0.129-1.647,1-2.473,0.72
		c-1.688-0.573-3.599-1.906-5.436-1.446c-0.911,0.229-1.868,0.38-2.807,0.432c-0.453,0.025-0.91-0.026-1.36,0.018
		c-0.494,0.049-0.928,0.323-1.414,0.415c-0.695,0.131-1.442-0.04-2.019-0.445c-0.188-0.134-1.307-1.173-1.45-0.508
		c-0.087,0.396,0.199,1.233-0.482,1.187c-0.822-0.057-1.099-0.746-1.672-1.183c-0.225-0.17-0.6-0.154-0.862-0.197
		c-0.486-0.078-0.973-0.163-1.457-0.252c-1.025-0.189-1.93-0.331-2.971-0.162c-0.898,0.146-1.459,0.474-2.243,0.896
		c-0.327,0.177-0.707,0.224-1.017,0.431c-0.327,0.219-0.555,0.549-0.754,0.881c-0.446,0.743-0.903,1.473-1.4,2.185
		c-0.459,0.658-0.939,1.576-1.576,2.081c-0.635,0.503-1.742,0.449-2.508,0.456c-1.035,0.009-2.067-0.092-3.096-0.194
		c-0.354-0.034-0.895-0.184-1.22,0.027c-0.265,0.173-0.196,0.504-0.527,0.665c-0.739,0.36-1.69,0.404-2.5,0.424
		c-0.804,0.02-1.286-0.373-1.186-1.182c0.086-0.69-0.773-1.054-0.96-1.714c-0.1-0.351-0.018-0.625,0.189-0.913
		c0.223-0.311,0.265-0.546,0.285-0.924c0.049-0.903-0.102-1.487-1.046-1.761c-0.545-0.157-1.306-0.303-1.854-0.098
		c-0.331,0.123-0.442,0.376-0.586,0.672c-0.192,0.393-0.482,0.749-0.859,0.979c-0.362,0.221-0.744,0.237-1.152,0.287
		c-0.46,0.055-0.833,0.219-1.246,0.419c-0.378,0.184-0.812,0.284-1.178,0.483c-0.374,0.203-0.562,0.621-0.887,0.883
		c-0.306,0.246-0.646,0.43-0.926,0.708c-0.355,0.354-0.625,0.518-1.077,0.208c-0.675-0.462-0.94-1.125-1.818-1.208
		c-0.338-0.031-0.942-0.195-1.231,0.046c-0.242,0.201-0.381,0.63-0.451,0.923c-0.211,0.884,0.47,1.477,0.824,2.205
		c0.43,0.884,0.046,1.585-0.402,2.376c-0.516,0.91-1.004,1.836-1.535,2.738c-0.566,0.963-1.054,2.118-1.811,2.947
		c-0.808,0.885-1.63,1.695-2.375,2.643c-0.671,0.854-1.513,1.696-1.823,2.768c-0.276,0.952-0.265,1.987-0.883,2.816
		c-1.177,1.576-2.262-1.132-2.611-2.035c-0.343-0.888-0.764-1.621-1.757-1.829c-1.136-0.237-2.303-0.017-3.449-0.017
		c0.091-0.364,0.036-0.794,0.381-1.034c0.254-0.176,0.55-0.282,0.785-0.489c0.602-0.532-0.054-1.382-0.426-1.808
		c-0.625-0.715-0.055-1.534-0.262-2.342c-0.178-0.693-0.835-1.509-1.472-1.843c-0.612-0.32-1.122-0.295-1.242-1.101
		c-0.144-0.965,0.415-1.91,0.066-2.845c-0.322-0.864-0.537-1.532,0.072-2.323c0.578-0.75,1.205-1.469,1.631-2.321
		c-1.357-0.61-2.815-1.145-3.866-2.245c-0.196-0.206-0.322-0.488-0.571-0.642c-0.313-0.193-0.678-0.127-0.986-0.362
		c-0.215-0.165-0.486-0.396-0.496-0.692c-0.009-0.273,0.368-0.304,0.551-0.377c-0.562-1.123-1.502-1.98-2.286-2.942
		c-0.215-0.264-0.748-0.632-0.434-1.01c0.371-0.446,1.113-0.568,1.622-0.318c0.889,0.437,2.004,0.345,2.808-0.281
		c0.425-0.331,0.499-0.91,0.819-1.32C5.724,52.289,6.359,52.109,6.901,51.878"/>
</g>
<g id="Layer_1">
</g>
</svg>
