<?xml version="1.0" encoding="iso-8859-1"?>
<!-- Generator: Adobe Illustrator 16.0.3, SVG Export Plug-In . SVG Version: 6.00 Build 0)  -->
<!DOCTYPE svg PUBLIC "-//W3C//DTD SVG 1.1//EN" "http://www.w3.org/Graphics/SVG/1.1/DTD/svg11.dtd">
<svg version="1.1" xmlns="http://www.w3.org/2000/svg" xmlns:xlink="http://www.w3.org/1999/xlink" x="0px" y="0px" width="100px"
	 height="100px" viewBox="0 0 100 100" style="enable-background:new 0 0 100 100;" xml:space="preserve">
<g id="DZ">
	<path d="M38.644,8.147l4.198-0.74l1.234-1.482l4.692-2.222l12.835-2.469l4.941,0.247l1.729,0.991L73.209,0l2.963,1.235L77.656,0
		l2.963,1.481L84.57,0.99l-2.225,2.466l0.99,0.497l-0.742,3.701l0.742,3.951l-0.99,3.457l-4.195,3.707l0.986,4.195l2.223,0.988
		l0.742,3.457l3.949,2.222l1.975,10.123l-1.48,2.223l2.223,3.209l0.74,8.396l-0.494,7.159l-1.729,1.729l2.717,4.445l0.74,2.962
		l1.234,0.987l5.184,1.482l2.221,4.444L80.619,89.136l-10.863,8.147l-7.412,1.729L58.395,100l-0.984-0.494l0.242-3.951l-6.416-2.469
		l-1.237-1.728l-2.219-0.987l-0.248-1.729L18.397,68.889L0.619,56.544v-2.47v-6.173l1.976-1.976l5.433-2.717l1.976,0.251
		l0.739-1.238l4.198-0.494l3.951-3.456l5.68-2.469l-0.742-1.235v-2.716l3.95-0.987l0.494-1.481l8.396-0.494l-0.249-0.988
		l0.742-0.987l-2.469-2.963l-0.742-10.124l-2.471-1.729h1.237l3.457-1.234L38.644,8.147z"/>
</g>
<g id="Layer_1">
</g>
</svg>
