<?xml version="1.0" encoding="iso-8859-1"?>
<!-- Generator: Adobe Illustrator 16.0.3, SVG Export Plug-In . SVG Version: 6.00 Build 0)  -->
<!DOCTYPE svg PUBLIC "-//W3C//DTD SVG 1.1//EN" "http://www.w3.org/Graphics/SVG/1.1/DTD/svg11.dtd">
<svg version="1.1" xmlns="http://www.w3.org/2000/svg" xmlns:xlink="http://www.w3.org/1999/xlink" x="0px" y="0px" width="100px"
	 height="100px" viewBox="0 0 100 100" style="enable-background:new 0 0 100 100;" xml:space="preserve">
<g id="ET">
	<path style="fill:#010101;" d="M26.354,7.6L22.64,22.803l0.334,6.082l-2.027,7.094l-7.434,8.446L12.5,49.493l-4.39,3.041
		L7.095,65.033l-2.027,1.689H1.355L0,70.1l5.41,2.028l2.023,3.374l4.053,2.707l2.706,7.099l4.727,1.684v5.069l5.068,0.334
		l8.107,5.071l7.099,1.689h3.036l5.068-3.38l4.733-1.017l3.714,2.031l3.378-0.341l13.176-6.755l7.77-0.676l18.585-17.909L100,68.748
		l-6.418,0.676l-20.267-7.431l-7.437-7.771v-4.391l-1.69-1.351l-4.729,1.351l-0.677-2.027l2.366-7.095l5.406-3.379l-4.056-3.039
		l-7.769-9.46l-5.068-2.365h-2.024l-2.03-3.378l-0.338,2.027l-1.014-0.338l-3.376-5.742L38.514,4.56l-2.703-3.715l-0.672,3.039
		L26.354,7.6z"/>
</g>
<g id="Layer_1">
</g>
</svg>
