<?xml version="1.0" encoding="iso-8859-1"?>
<!-- Generator: Adobe Illustrator 16.0.3, SVG Export Plug-In . SVG Version: 6.00 Build 0)  -->
<!DOCTYPE svg PUBLIC "-//W3C//DTD SVG 1.1//EN" "http://www.w3.org/Graphics/SVG/1.1/DTD/svg11.dtd">
<svg version="1.1" xmlns="http://www.w3.org/2000/svg" xmlns:xlink="http://www.w3.org/1999/xlink" x="0px" y="0px" width="100px"
	 height="100px" viewBox="0 0 100 100" style="enable-background:new 0 0 100 100;" xml:space="preserve">
<g id="FI">
	<path style="fill:#010101;" d="M39.83,24.109l-0.209,8.805l1.887,4.403l-1.048,4.193l1.467,3.983l5.031,4.822l1.05,4.821
		l-3.566,1.468l-0.629,2.726l-7.337,9.644l-2.097,2.306h-2.094l-0.211,2.097h-1.467l-1.468,3.145l1.05,3.773l-0.212,1.678
		l1.886,4.821h-0.838v2.726l-0.836,1.677l0.836,1.888l-0.626,1.048l5.031,3.145l1.256-0.839l1.048,3.146l1.048-0.839L39.413,100
		l3.561-0.839l6.29-3.354l7.34-1.257l9.431-8.806l6.293-9.434v-3.145l-2.519-3.146l-2.097-2.935l1.258-5.241l-1.885-2.306
		l-0.209-2.936l-1.261-0.209v-4.402l1.47-5.032L63.31,35.22l3.354-6.918l-2.727-5.66l-3.354-3.145l0.632-5.031l-0.632-0.419
		l2.097-2.097l-0.836-1.677l1.884-2.516L63.31,4.193L58.487,0l-8.385,3.145l-0.839,2.726l-0.419,6.708l-4.403,3.774l-2.724-2.306
		l-2.304,2.097l-3.984-0.839l-5.031-6.708l-1.051,0.629l0.422,1.467l-2.097,0.838l9.641,8.386L39.83,24.109z"/>
</g>
<g id="Layer_1">
</g>
</svg>
