<?xml version="1.0" encoding="iso-8859-1"?>
<!-- Generator: Adobe Illustrator 16.0.3, SVG Export Plug-In . SVG Version: 6.00 Build 0)  -->
<!DOCTYPE svg PUBLIC "-//W3C//DTD SVG 1.1//EN" "http://www.w3.org/Graphics/SVG/1.1/DTD/svg11.dtd">
<svg version="1.1" xmlns="http://www.w3.org/2000/svg" xmlns:xlink="http://www.w3.org/1999/xlink" x="0px" y="0px" width="100px"
	 height="100px" viewBox="0 0 100 100" style="enable-background:new 0 0 100 100;" xml:space="preserve">
<g id="GH">
	<path style="fill:#070404;" d="M61.812,0c0.253,0.016,1.911,0.511,1.97,0.634c0.05,0.118-0.014,0.233-0.032,0.4
		c0.254,0.141,0.974,0.396,1.403,0.202c0.231-0.109,0.35-0.271,0.702-0.301c0.167,0.147,0.43,0.297,0.534,0.5
		c0.036,0.077,0.127,1.326,0.131,1.435c-0.294,0.23-0.71,0.509-0.801,0.935c0.014,0.133,0.022,0.267,0.031,0.4
		c-0.055,0.222-0.217,0.433-0.262,0.702c-0.055,0.296,0.167,0.428,0.063,0.668c-0.231,0.267-0.467,0.534-0.702,0.799
		c0.014,0.145,0.022,0.29,0.036,0.434C64.818,6.91,64.75,7.01,64.687,7.109c-0.086,0.333,0.258,0.767,0.331,1.102
		c0.267,0.184,0.683,0.442,0.969,0.566c0.221,0.056,0.442,0.11,0.67,0.167c0.176,0.188,0.353,0.378,0.529,0.566
		c0.394,0.238,0.837,0.217,1.104,0.568c0.425,0.565,0.077,1.686,1,1.77c0.163-0.145,1.123-0.095,1.336-0.034
		c0.122,0.215,0.593,1.471,0.701,1.535c0.254,0.011,0.512,0.022,0.765,0.034c0.036,0.045,0.068,0.088,0.1,0.133
		c-0.104,0.235-0.38,0.442-0.466,0.702c-0.19,0.582-0.145,1.236-0.032,1.736c0,0.322,0,0.646,0,0.967
		c0.494,0.215,0.562,0,0.934,0.435c0.018,0.305-0.051,0.453-0.331,0.466c-0.136-0.084-0.367-0.07-0.534-0.034
		c-0.014,0.034-0.023,0.068-0.036,0.102c-0.281,0.652,0.249,0.855,0.335,1.301c-0.172,0.104-0.331,0.199-0.466,0.335
		c0,0.475,0,0.955,0,1.435c-0.101,0.145-0.204,0.29-0.304,0.435c-0.055,0.331-0.109,0.666-0.168,1
		c0.072,0.158,0.218,0.172,0.304,0.299c0.136,0.204,0.303,0.651,0.366,0.869c-0.013,0.177-0.022,0.358-0.031,0.535
		c0.059,0.199,0.267,0.28,0.132,0.534c-0.046,0.149-0.096,0.213-0.235,0.267c-0.082,0.055-0.154,0.063-0.3,0.068
		c-0.149-0.19-0.308-0.244-0.665-0.235c-0.512,0.403-0.933-0.132-0.901,0.9c0.01,0.023,0.019,0.045,0.032,0.068
		c0.263,0.136,0.783,0.045,0.933,0.299c0,0.059,0,0.113,0,0.167c-0.34,0.113-0.57,0.167-1,0.199
		c-0.068,0.104-0.092,0.118-0.101,0.303c0.168,0.222,0.299,0.354,0.503,0.534c0.498,0.014,1.104-0.077,1.299-0.435
		c0.118-0.217-0.014-0.38,0.2-0.502c0.248-0.177,0.47,0.091,0.737,0.036c0.108-0.059,0.222-0.113,0.33-0.167
		c0.218-0.027,0.929,0.208,1.068,0.331c0.077,0.159,0.158,0.312,0.235,0.471c0.335,0.24,0.629,0.304,0.901,0.598
		c0.077,0.837-0.24,0.625-0.367,1.068c0.01,0.145,0.022,0.29,0.031,0.435c-0.148,0.398-0.598,0.539-0.633,1.1
		c0.127,0.122,0.362,0.417,0.303,0.602c-0.095,0.48-0.543,0.593-0.837,0.869c0.198,0.489-0.223,1.159-0.299,1.77
		c0.285,0.367,1.254,1.797,1.136,2.435c-0.041,0.213-0.218,0.372-0.303,0.534c-0.172,0.322-0.019,0.575-0.498,0.598
		c-0.113-0.095-0.204-0.149-0.403-0.163c-0.086,0.159-0.14,0.299-0.366,0.331c-0.113-0.032-0.223-0.063-0.335-0.1
		c-0.091,0.077-0.146,0.082-0.199,0.204c-0.276,0.629,0.684,1.783,0.969,2.168c0.076,0.154,0.153,0.308,0.23,0.466
		c0.1,0.141,0.254,0.104,0.403,0.2c0.099,0.145,0.199,0.29,0.298,0.435c0.168,0.081,0.304,0.013,0.436,0.099
		c0.213,0.19,0.42,0.38,0.634,0.566c0.375,0.272,0.706,0.204,1,0.603c0.204,0.276,0.149,0.715,0.335,1.036
		c0.131,0.222,0.385,0.217,0.603,0.366c0.267,0.187,0.502,1.241,0.397,1.635c-0.145,0.072-0.447,0.099-0.598,0.199
		c-0.122,0.077-0.186,0.249-0.334,0.303c-0.101,0.009-0.199,0.023-0.304,0.032c-0.218,0.136-0.281,0.458-0.467,0.634
		c-0.127,0.126-0.28,0.085-0.366,0.267c-0.086,0.217,0.186,0.502,0.199,0.869c-0.407,0.344-0.24,1.254-0.132,1.901
		c0.092,0.539,0.141,1.222,0.268,1.733c0,0.213,0,0.426,0,0.639c0.045,0.1,0.09,0.199,0.132,0.298
		c-0.042,0.132-0.087,0.268-0.132,0.399c-0.086,0.353,0.09,0.593,0.132,0.837c-0.136,0.136-0.254,0.268-0.268,0.534
		c0.036,0.108,0.068,0.222,0.104,0.331c-0.38,0.244-0.606,0.864-0.602,1.471c-0.212,0.149-0.756,0.325-0.869,0.565
		c-0.031,0.067-0.14,1.104-0.131,1.137c0.013,0.1,0.113,0.258,0.063,0.435c-0.032,0.122-0.114,0.167-0.132,0.366
		c0.309,0.227,0.326,0.711,0.634,0.933c0.385,0.239,1.372-0.149,1.566,0.268c0,0.234,0,0.466,0,0.701
		c0.041,0.145,0.227,0.271,0.167,0.502c-0.1,0.163-0.199,0.331-0.298,0.498c0.009,0.158,0.021,0.312,0.031,0.466
		c0.004,0.449-0.055,0.752-0.199,1.069c-0.104,0.226-0.371,0.397-0.435,0.67c-0.059,0.258,0.127,0.353,0.168,0.498
		c0.09,0.326-0.204,0.439-0.231,0.67c-0.027,0.199,0.055,0.448,0,0.665c-0.484,0.272-0.874,0.403-1.235,0.771
		c0,0.076,0,0.153,0,0.23c0.145,0.1,0.488,0.235,0.565,0.402c0.072,0.096,0.072,0.254,0.068,0.435
		c-0.127,0.141-0.611,0.62-0.403,0.933c0.213,0.317,0.548,0.036,0.57,0.634c-0.041,0.109,0.027,0.236,0.063,0.367
		c0.271,0.189,0.484,0.303,0.969,0.303c0.081,0.109,0.118,0.109,0.136,0.3c-0.072,0.112-0.131,1.285-0.136,1.502
		c0.09,0.108,0.181,0.222,0.267,0.335c0.136,0.032,0.268,0.063,0.403,0.1c0.141,0.104,0.081,0.28,0.267,0.367
		c0.109,0.035,0.335-0.01,0.498,0.031c0.403,0.593-0.086,0.471-0.167,1.068c0.104,0.153,0.059,0.299,0.136,0.503
		c0.077,0.208,0.837,1.108,1.036,1.235c0.349,0.222,0.797,0.208,1.101,0.466c0.249,0.208,0.321,0.616,0.633,0.766
		c0.458,0.014,0.91,0.022,1.367,0.036c0.335,0.113,0.372,0.833,0.503,1.167c0.104,0.268,0.335,0.295,0.534,0.467
		c0.217,0.19,0.33,0.562,0.398,0.901c0.366,0.208,0.955,0.09,1.402,0.067c0.123,0.182,0.141,0.389,0.132,0.733
		c-0.009,0.022-0.022,0.045-0.031,0.068c-0.508,0.344-1.354,0.701-1.702,1.199c-0.235,0.421-0.467,0.846-0.702,1.267
		c-0.203,0.277-0.656,0.386-0.701,0.802c0.14,0.154,0.217,0.679,0.1,0.869c-0.208,0.498-0.792,0.823-1.367,0.969
		c-0.213,0-0.421,0-0.634,0c-0.249,0.059-0.684,0.204-0.933,0.267c-0.203-0.013-0.402-0.022-0.602-0.036
		c-0.558,0.014-1.114,0.023-1.671,0.036c-0.153-0.059-0.312-0.113-0.466-0.167c-0.802,0.009-1.603,0.022-2.403,0.032
		c-0.982-0.245-2.164-0.331-3.138-0.032c-0.131,0.077-0.267,0.154-0.397,0.23c-0.281,0.068-0.557,0.136-0.838,0.204
		c-0.29,0.199-0.574,0.398-0.864,0.598c-0.312,0.045-0.625,0.091-0.938,0.136c-0.562,0.235-0.814,1.022-1.398,1.299
		c-0.213,0.014-0.426,0.022-0.639,0.036c-0.186,0.063-0.28,0.299-0.43,0.398c-0.158,0.104-0.679,0.312-0.838,0.367
		c-0.353,0.081-0.711,0.158-1.068,0.235c-0.227,0.117-0.407,0.294-0.733,0.366c-0.484,0.108-0.806,0.036-1.236,0.199
		c-0.633,0.249-1.136,0.697-1.665,1.036c-0.136,0.055-0.268,0.109-0.403,0.168c-0.254,0.258-0.235,0.675-0.565,0.864
		c-0.218,0.131-0.471,0.01-0.77,0.104c-0.132,0.087-0.268,0.178-0.398,0.268c-0.204,0.063-0.385-0.027-0.534,0.063
		c-0.1,0.1-0.199,0.204-0.299,0.303c-0.421,0.204-0.847,0.146-1.272,0.331c-0.787,0.354-1.027,1.385-2.068,1.639
		c-0.289,0-0.579,0-0.864,0c-0.919,0-2.009-0.113-2.771,0.1c-0.253,0.067-0.398,0.316-0.602,0.435
		c-0.213,0.054-0.421,0.108-0.634,0.162c-0.077,0.105-0.159,0.204-0.235,0.304c-0.1,0.009-0.199,0.022-0.299,0.032
		c-0.235,0.158-0.466,0.312-0.702,0.466c-0.267,0.014-0.534,0.022-0.802,0.036c-0.366,0.131-0.732,0.267-1.1,0.398
		c-0.434,0.108-0.702,0-1.1,0.136c-0.113,0.077-0.227,0.153-0.335,0.231c-0.806,0.249-2.503,0.054-2.802,0.737
		c-0.068,0.19,0.022,0.357-0.167,0.498c-0.267,0.09-0.534,0.177-0.802,0.267c-0.199,0.118-0.308,0.326-0.534,0.467
		c-0.262,0.167-0.189,0.598-0.502,0.738c-0.19,0.009-0.375,0.021-0.566,0.031c-0.231,0.077-0.417,0.366-0.67,0.466
		c-0.321,0.131-0.774,0.168-1.069,0.335c-0.176,0.132-0.353,0.268-0.534,0.398c-0.126,0.186-0.145,0.412-0.331,0.535
		c-0.19,0.126-0.498,0-0.77,0.067c-0.62,0.163-0.548,0.375-1.367,0.135c-0.072-0.162-0.104-0.452-0.268-0.533
		c-0.217-0.158-0.561-0.091-0.833-0.204c-0.276-0.113-0.838-0.593-1.104-0.801c-0.304-0.235-0.299-0.661-0.702-0.833
		c-0.309-0.077-0.621-0.153-0.934-0.235c-0.122-0.077-0.244-0.154-0.366-0.23c-0.331-0.108-0.539-0.041-0.901-0.137
		c-0.222-0.086-0.444-0.176-0.67-0.267c-1.019-0.253-1.924-0.244-2.933-0.498c-0.226-0.091-0.448-0.177-0.67-0.267
		c-0.466-0.123-0.915-0.172-1.3-0.268c-0.212,0-0.425,0-0.638,0c-0.602-0.149-1.263-0.34-1.933-0.502
		c-0.864-0.209-1.874-0.104-2.471-0.566c0.013-0.036,0.023-0.067,0.036-0.1c0.163-0.104,0.407-0.108,0.697-0.1
		c0.638-0.407,0.905,0.498,1.502,0.398c0.435-0.072,0.494-0.438,0.87-0.534c0.407-0.104,0.597,0.145,0.801,0.199
		c0.204,0.059,0.276-0.108,0.398-0.132c0.09,0.023,0.181,0.046,0.267,0.068c0.552,0.113,0.846-0.031,1.104-0.235
		c0.145-0.113,0.181-0.077,0.199-0.335c-0.231-0.172-0.095-0.239-0.199-0.565c-0.091-0.132-0.181-0.268-0.267-0.398
		c0.009-0.203,0.022-0.403,0.032-0.603c-0.131-0.177-0.267-0.357-0.399-0.534c0.063-0.167,0.077-0.606,0.164-0.769
		c0.117-0.209,0.344-0.014,0.57-0.132c0.068-0.077,0.132-0.158,0.199-0.235c0.009-0.63-0.285-0.788-0.403-1.268
		c0-0.254,0-0.513,0-0.771c-0.145-0.521-0.208-1.1-0.298-1.766c-0.177-0.148-1.349-0.805-1.503-0.769
		c-0.426,0.141-0.58,0.516-1.168,0.533c-0.272-0.316-0.276-0.701-0.267-1.335c-0.208-0.162-0.458-0.177-0.864-0.167
		c-0.023-0.01-0.046-0.023-0.068-0.032c-0.023-0.045-0.045-0.09-0.068-0.135c-0.131-0.295,0.258-1.648,0.1-2.269
		c-0.199-0.792-0.842-1.345-1.032-2.101c0-0.244,0-0.489,0-0.737c-0.054-0.208-0.136-0.371-0.136-0.697c0-0.213,0-0.426,0-0.639
		c-0.1-0.294-0.349-0.552-0.498-0.801c-0.113-0.244-0.227-0.489-0.335-0.733c-0.226-0.276-0.457-0.072-0.466-0.634
		c0.213-0.426-0.218-0.9-0.268-1.231c-0.167-1.05-0.38-2.063-0.634-3.073c0-0.244,0-0.488,0-0.733
		c-0.104-0.24-0.262-0.235-0.267-0.67c0.281-0.316,0.707-0.792,0.765-1.299c-0.032-0.113-0.068-0.222-0.1-0.336
		c-0.141-0.275-0.597-0.43-0.398-1.067c0.276-0.412,0.557-0.824,0.834-1.236c0.099-0.23,0.199-0.466,0.298-0.696
		c0.312-0.426,0.625-0.847,0.937-1.272c0.068-0.163,0.132-0.33,0.199-0.497c0.213-0.268,0.729-0.173,0.901-0.503
		c0.145-0.209-0.018-0.689,0.099-0.934c0.263-0.543,0.964-0.624,1-1.435c-0.58-0.747-0.068-1.961,0.136-2.771
		c0-0.168,0-0.335,0-0.502c0.068-0.122,0.131-0.245,0.2-0.367c0.013-0.244,0.022-0.488,0.032-0.733
		c0.059-0.122,0.113-0.244,0.167-0.366c0-0.39,0-0.778,0-1.168c0.145-0.222,0.29-0.444,0.435-0.67
		c0.181-0.39,0.231-0.747,0.435-1.101c0.09-0.122,0.177-0.244,0.267-0.366c0-0.113,0-0.222,0-0.335
		c0.09-0.109,0.177-0.222,0.267-0.33c0.009-0.113,0.022-0.227,0.032-0.336c0.154-0.308,0.575-0.457,0.702-0.801
		c0.014-0.335,0.022-0.67,0.036-1c0.086-0.068,0.114-0.122,0.231-0.168c0.113,0.123,0.222,0.245,0.335,0.367
		c0.023-0.013,0.045-0.023,0.068-0.031c0.186-0.132,0.136-0.353,0.267-0.535c0.475-0.679,0.915-1.313,1.933-1.372
		c0.1-0.14,0.14-0.194,0.136-0.466c0.208-0.425-0.358-0.729-0.403-1.1c0.113-0.113,0.221-0.222,0.334-0.335
		c0.199-0.009,0.399-0.022,0.603-0.032c0.194-0.054,0.806-0.362,0.901-0.534c0-0.593,0-1.182,0-1.771
		c-0.091-0.276-0.182-0.557-0.268-0.833c-0.131-0.535-0.009-1.019-0.135-1.503c-0.123-0.312-0.245-0.625-0.367-0.937
		c0-0.375,0-0.756,0-1.131c-0.09-0.145-0.177-0.29-0.267-0.435c-0.176-0.679,0.095-2.322-0.665-2.335c-0.068,0-0.136,0-0.204,0
		c-0.018-0.054-0.041-0.113-0.063-0.167c0.149-0.1,0.349-0.231,0.398-0.435c-0.122-0.177-0.245-0.353-0.367-0.534
		c0-0.253,0-0.511,0-0.765c-0.1-0.321-0.543-0.394-0.633-0.738c-0.082-0.299,0.108-0.611,0.067-0.765
		c-0.33-0.697-1.725,0.05-1.801-0.969c0.226-0.257,0.149-0.706,0.131-1.136c0.253-0.172,0.57-0.371,0.733-0.634
		c0.06-0.154,0.113-0.312,0.168-0.466c0.14-0.186,0.498-0.267,0.67-0.435c-0.014-0.176-0.023-0.358-0.037-0.534
		c-0.371-0.222-0.851-0.163-0.864-0.765c0.022-0.045,0.045-0.09,0.063-0.136c0.177-0.1,0.417-0.167,0.502-0.367
		c0.254-0.367,0.055-0.883-0.032-1.236c-0.013-0.344-0.022-0.688-0.036-1.032c-0.213-0.557-0.978-0.57-1.236-1.068
		c-0.339-0.666,0.403-0.919,0.235-1.603c-0.073-0.294-0.317-0.421-0.502-0.602c-0.009-0.883-0.041-0.611,0.303-1.2
		c0.032-0.122,0.068-0.244,0.1-0.367c0.131-0.222,0.394-0.186,0.466-0.502c-0.204-0.186-0.733-0.702-0.602-1.068
		c0.09-0.362,0.348-0.453,0.366-0.934c-0.435-0.502-0.543-1.374-0.697-2.17c0.023-0.222,0.045-0.444,0.063-0.666
		c-0.05-0.217-0.145-0.298-0.132-0.568c0.34-0.278,0.603-0.67,0.435-1.268c-0.86-0.473-1.408-0.156-1.068-1.437
		c0.055-0.204-0.005-0.301,0.1-0.432c0.19-0.247,0.652-0.167,0.801-0.469c0.01-0.043,0.023-0.088,0.032-0.133
		c-0.453-0.274-1.095-0.145-1.398-0.566c-0.077-0.125-0.036-0.312-0.104-0.469c-0.122-0.145-0.245-0.29-0.367-0.432
		c-0.009-0.134-0.019-0.27-0.032-0.401c-0.181-0.441-0.565-0.878-0.602-1.438c0.235-0.226,0.461-0.407,0.503-0.833
		c-0.182-0.118-0.358-0.21-0.503-0.367c0.014-0.022,0.022-0.045,0.037-0.067c0.113-0.242,0.47-0.288,0.597-0.534
		c0.299-0.559,0.403-1.304,0.534-1.969c0.254-0.158,0.443-0.281,0.633-0.5c-0.004-0.5-0.371-0.772-0.163-1.168
		c0.059-0.151,0.154-0.172,0.268-0.267c1.104-0.004,1.915,0.023,2.833,0.167c0.303-0.011,0.602-0.022,0.9-0.034
		c0.588,0,1.136,0.047,1.639,0.133c1.145-0.011,2.291-0.022,3.436-0.034c1.684,0.256,4.064,0.306,5.776,0
		c0.724-0.129,1.639,0.047,2.132,0.167c0.656,0.159,1.05-0.262,1.435-0.366c0.276-0.072,0.66,0.131,1.004,0.065
		c0.05-0.125,0.086-0.265,0.199-0.333c0.711-0.011,1.421-0.022,2.137-0.034c0.317,0.088,0.322,0.39,0.765,0.401
		c0.778,0,1.557,0,2.335,0c0.358,0.082,1.028,0.235,1.571,0.133c0.253-0.047,0.375-0.208,0.565-0.267
		c0.476-0.145,1.272,0.045,1.639,0.134c0.286,0,0.575,0,0.865,0c0.299,0.09,0.598,0.392,0.937,0.466
		c0.661-0.693,0.788-0.459,1.933-0.466c0.327,0,0.648,0,0.969,0c0.19,0.079,0.249,0.156,0.503,0.201c0,0.055,0,0.111,0,0.166
		c-0.05,0.072-0.054,0.063-0.036,0.133c0.1,0.124,0.263,0.124,0.367,0.233c0.167,0.179,0.235,0.459,0.402,0.636
		c0.534-0.143,0.28-0.862,0.733-1.137c0.271-0.161,0.665-0.009,0.9-0.133c0.122-0.166,0.244-0.333,0.367-0.5
		c0.186-0.12,0.43,0.05,0.602-0.065c0.199-0.141,0.235-0.917,0.299-1.17c0.204-0.118,0.366-0.251,0.67-0.267
		c0.113,0.208,0.113,0.588,0.398,0.636c0.145-0.126,0.308-0.38,0.466-0.469c0.34-0.186,0.711,0,0.87-0.367
		c-0.104-0.102-0.177-0.181-0.2-0.367C61.657,0.202,61.734,0.1,61.812,0z"/>
</g>
<g id="Layer_1">
</g>
</svg>
