<?xml version="1.0" encoding="iso-8859-1"?>
<!-- Generator: Adobe Illustrator 16.0.3, SVG Export Plug-In . SVG Version: 6.00 Build 0)  -->
<!DOCTYPE svg PUBLIC "-//W3C//DTD SVG 1.1//EN" "http://www.w3.org/Graphics/SVG/1.1/DTD/svg11.dtd">
<svg version="1.1" xmlns="http://www.w3.org/2000/svg" xmlns:xlink="http://www.w3.org/1999/xlink" x="0px" y="0px" width="100px"
	 height="100px" viewBox="0 0 100 100" style="enable-background:new 0 0 100 100;" xml:space="preserve">
<g id="GR">
	<g>
		<g>
			<path style="fill:#010101;" d="M15.217,21.319c-0.411,1.257-0.484,1.921-0.718,2.426c-0.23,0.506-0.357,0.738-0.738,0.949
				c-0.378,0.211-1.327,0.42-1.792,0.506c-0.464,0.085-1.412,0.822-1.286,1.436c0.127,0.61,0.569,1.157,0.654,1.601
				c0.085,0.444,0.021,0.929-0.337,0.929c-0.36,0-0.76-0.062-0.802,0.4c-0.043,0.465-0.043,1.14-0.739,1.37
				c-0.695,0.233-1.349-0.253-1.854-0.505c-0.507-0.253-0.928-0.423-1.075-0.297c-0.147,0.127,0.464,0.486,0.591,0.655
				c0.126,0.167,0.21,0.465,0.463,0.567c0.253,0.107,0.76,0.191,0.907,0.402s0.315,0.252,0.315,0.252s-0.526,0.36-0.294,0.486
				c0.231,0.127,0.59,0.296,0.864,0.38c0.274,0.083,0.19,0.168,0.062,0.252c-0.126,0.085-0.189,0.297-0.062,0.464
				c0.126,0.168,0,0.338-0.254,0.381c-0.253,0.041-0.316,0.274-0.23,0.442c0.084,0.168,0.61,0.569,0.802,0.802
				c0.188,0.232,0.398,0.823,0.673,1.096c0.273,0.275,0.697,0.295,0.991,0.211c0.295-0.084,0.611,0.105,0.654,0.465
				c0.042,0.359,0.212,0.781,0.463,0.928c0.254,0.146,0.738,0.528,0.738,0.695c0,0.168,0.36,0.4,0.57,0.549
				c0.211,0.147,0.527,0.335,0.527,0.653c0,0.316,0,0.316,0,0.316s-0.316,0.379-0.105,0.589c0.211,0.212,0.654,0.065,0.654,0.065
				s0.441,0.189,0.632,0.189s0.147-0.231-0.043-0.444c-0.188-0.211,0.063-0.612,0.063-0.612s-0.021-0.567-0.126-0.671
				c-0.105-0.107,0.126-0.467,0.422-0.381c0.296,0.082,0.253,0.653,0.4,0.778c0.148,0.127,0.316,0,0.316-0.294
				c0-0.295,0.253-0.295,0.4-0.148c0.147,0.148-0.021,0.548,0.127,0.696c0.147,0.146,0.316,0.232,0.528,0.171
				c0.21-0.065,0.378,0.334,0.589,0.334c0.212,0,0.443-0.146,0.528-0.589c0.083-0.444,0.315-0.591,0.506-0.295
				c0.189,0.295,0.274,0.591,0.295,1.011c0.021,0.423,0.084,0.401-0.127,0.401s-0.506,0.485-0.358,0.761
				c0.147,0.273,0.063,0.251,0.063,0.251s-0.359,0.105-0.591,0.273c-0.231,0.171-0.505,0.275-0.505,0.023
				c0-0.253-0.213-0.634-0.592-0.634c-0.38,0-0.316-0.339-0.632-0.315c-0.316,0.021-0.316,0.296-0.761,0.062
				c-0.441-0.232-0.695-0.085-0.801-0.062c-0.105,0.021,0.021,0.736-0.147,0.822c-0.168,0.082-0.379,0.422-0.379,0.653
				c0,0.23-0.127,0.802,0.252,0.802c0.38,0,1.35,0.063,1.436,0.252c0.084,0.19,0.189,0.593,0.484,0.655
				c0.295,0.064,0.358,0.251,0.632,0.861c0.274,0.614,0.274,0.95,0.358,1.268c0.086,0.316,0.359,0.357,0.55,0.275
				c0.188-0.086,0.393,0.098,0.237,0.393c-0.153,0.295-0.041,0.589,0.142,0.703c0.183,0.111,0.211,0.576,0.196,0.899
				c-0.014,0.323,0,0.479,0.155,0.533c0.153,0.057,0.323,0.522,0.52,0.661c0.197,0.14,0.577,0.196,0.45-0.084
				s-0.084-0.324,0.155-0.324s0.521-0.042,0.379-0.405c-0.14-0.367,0.211-0.339,0.394-0.381c0.183-0.041,0.436-0.225,0.618-0.52
				c0.185-0.298,0.366-0.323,0.366-0.099c0,0.226,0.07,0.406,0.141,0.533s-0.239,0.38-0.169,0.535
				c0.069,0.155,0.646-0.112,0.844-0.127c0.196-0.015,0.196,0.015,0.196,0.282c0,0.266-0.127,0.953,0.269,0.871
				c0.393-0.086,0.772-0.716,1.223-0.871c0.449-0.155,1.067-0.058,1.391-0.058c0.324,0,0.367-0.225,0.618-0.604
				c0.254-0.379,0.564-0.52,0.815-0.196c0.254,0.322,0.197,0.492,0.508,0.311c0.309-0.185,0.618-0.396,0.927-0.27
				c0.311,0.127,0.366-0.013,0.591-0.013s0.365,0.209,0.675,0.282c0.31,0.069,0.605,0.041,0.718,0.323
				c0.111,0.279,0.465,0.294,0.786,0.069c0.325-0.226,0.857-0.155,1.125-0.069c0.267,0.083,0.576,0.335,0.688,0.167
				c0.112-0.167,0.17-0.506,0.015-0.788c-0.155-0.279-0.309-0.491-0.113-0.688c0.197-0.196,0.281-0.127,0.619,0.196
				c0.337,0.324,0.676,0.479,0.676,0.858s0.084,0.491,0.084,0.744c0,0.254,0.013,0.365,0.239,0.365c0.225,0,0.323-0.098,0.238-0.532
				c-0.085-0.438,0.408-0.396,0.604-0.45c0.196-0.058,0.718,0.377,0.745,0.504c0.028,0.128,0.323,0.298,0.562,0.507
				c0.238,0.212,0.323,0.322,0.323,0.564c0,0.238,0.21,0.405,0.521,0.435c0.308,0.027,0.52,0.197,0.898,0.381
				s0.353-0.029,0.31-0.197s0.014-0.34,0.562-0.242c0.548,0.1,0.955,0.059,1.181,0.324c0.225,0.27,0.394,0.396,0.746,0.648
				c0.35,0.252,0.927,0.59,0.632,0.914c-0.296,0.322-0.55,0.467-1.082,0.479c-0.535,0.014-0.886-0.016-1.321-0.113
				c-0.438-0.1-1.182-0.197-1.239,0.057c-0.055,0.252,0.451,0.506,0.507,0.691c0.058,0.18,0.183,0.785-0.323,0.895
				c-0.506,0.115-1.025,0.018-1.335-0.375c-0.31-0.396-0.844-0.873-1.237-1.029c-0.394-0.154-0.646-0.338-0.983-0.391
				c-0.339-0.059-0.646-0.76-1.125-0.76c-0.479,0-0.845,0.027-1.14-0.24c-0.295-0.27-0.856-0.521-1.293-0.521
				c-0.436,0-0.857-0.127-1.139-0.504c-0.281-0.38-0.632-0.549-0.887-0.577c-0.253-0.029-0.532-0.438-0.843-0.704
				c-0.31-0.266-1.139-0.534-1.617-0.38c-0.478,0.155-0.575,0.646-0.772,0.957c-0.197,0.308-0.239,0.532-0.422,0.688
				c-0.184,0.154-0.479,0.295-0.675,0.689c-0.196,0.393-0.45,0.676-0.717,0.574c-0.268-0.098-0.676-0.152-1.068-0.152
				c-0.395,0-0.421-0.24-0.646-0.395c-0.226-0.152-0.592-0.168-0.675-0.365c-0.085-0.197-0.337-0.324-0.38,0
				c-0.041,0.324-0.324,0.324-0.268,0.703c0.057,0.381-0.14,0.646-0.295,0.844c-0.154,0.195-0.239,0.436-0.154,0.789
				c0.084,0.352,0.07,0.588-0.142,0.588c-0.21,0-0.491,0.168-0.66,0.393c-0.169,0.227-0.619,0.354-0.83,0.27s-0.534-0.143-0.534,0.1
				c0,0.236-0.169,0.799-0.027,1.051c0.141,0.256,0.576,0.633,0.957,0.744c0.378,0.115,0.715,0.354,0.786,0.635
				c0.07,0.281,0.141,0.506,0.267,0.76c0.127,0.252,0,0.646,0.07,0.816c0.07,0.168,0.352,0.182,0.575,0.182
				c0.226,0,0.718,0.084,0.872,0.367c0.155,0.279,0.212,0.561,0.492,0.674c0.282,0.111,0.437,0.111,0.76,0.492
				c0.322,0.379,0.479,0.576,0.83,1.195c0.352,0.617,0.929,1.307,0.843,1.758c-0.084,0.449-0.703,0.814-1.125,1.305
				c-0.421,0.49-0.618,0.986-0.464,1.576c0.155,0.592,0.226,1.082,0.605,1.867c0.379,0.789,0.562,0.676,0.844,0.676
				c0.28,0,0.759,0.186,0.675,0.635c-0.085,0.447-0.31,0.83-0.268,1.264c0.042,0.436,0.196,0.633,0.492,0.619
				c0.295-0.014,0.76-0.197,1.04-0.014c0.282,0.184,0.492,0.633,0.718,0.576c0.225-0.057,0.153-0.281,0.295-0.381
				c0.14-0.098,0.38-0.127,0.323-0.393s-0.21-1.182-0.154-1.967c0.056-0.789-0.169-1.211,0.533-1.438
				c0.703-0.225,1.337-0.266,1.505,0.018c0.169,0.277,0.268,0.631,0.379,0.9c0.113,0.266-0.126,0.35-0.14,0.574
				c-0.015,0.227-0.028,0.633,0.505,0.646c0.535,0.016,0.887,0.057,1.098,0.578c0.21,0.52,0.491,1.166,0.744,1.404
				c0.255,0.24,0.45,0.24,0.281,0.605c-0.168,0.363-0.21,0.928,0,1.139c0.212,0.211,0.071,0.574-0.013,0.787
				c-0.086,0.209-0.197,0.969,0.139,1.252c0.338,0.279,0.689,0.658,0.704,0.971c0.015,0.309,0.168,0.334,0.323,0.334
				c0.154,0,0.07-0.377,0.154-0.688c0.085-0.311,0.07-0.49-0.041-0.969c-0.113-0.48-0.24-1.574-0.169-1.574
				c0.07,0,0.436-0.029,0.394-0.381c-0.044-0.352-0.085-0.41,0.169-0.393c0.252,0.012,0.589,0.109,0.295-0.184
				c-0.295-0.295-0.353-0.605,0.056-0.803s0.492-0.561,0.787-0.773c0.296-0.209,0.562-0.463,1.055-0.363
				c0.491,0.098,0.759,0.393,0.759,0.83c0,0.434-0.028,0.912,0.127,1.166s0.196,0.041,0.338-0.156
				c0.141-0.195,0.591-0.057,0.66,0.086c0.07,0.139,0.084,0.225-0.028,0.381c-0.112,0.152-0.084,0.139,0.211,0.52
				c0.296,0.377,0.296,0.49,0.662,0.605c0.364,0.109,0.983,0.322,1.307,0.756c0.324,0.438,0.562,1,0.814,1
				c0.254,0,0.605,0.125,0.759-0.1c0.155-0.225,0.212-0.52,0-0.59c-0.21-0.07-0.604-0.719-0.604-1.055
				c0-0.34-0.52-0.633-0.718-0.732c-0.196-0.098-0.801-0.547-0.618-1.125c0.184-0.576,0.9-1.08,0.534-1.529
				c-0.365-0.451-0.351-0.873-0.492-1.395c-0.14-0.52-0.451-0.953-0.549-1.109c-0.098-0.154-0.026-0.422-0.013-0.604
				c0.013-0.184-0.238-0.465-0.337-0.676c-0.1-0.209-0.002-0.492,0.056-0.605c0.057-0.111-0.099-0.479-0.465-0.479
				c-0.364,0-0.548,0.057-0.702-0.52s-0.267-1.051-0.562-1.529c-0.295-0.479-0.661-1.184-0.674-1.562
				c-0.015-0.381-0.465-0.873-0.562-1.393c-0.099-0.52-0.323-1.35,0-1.574s0.983,0.07,1.251,0.266
				c0.267,0.197,0.478,0.156,0.857,0.324c0.379,0.17,0.676,0.381,0.787,0.621c0.113,0.236,0.478,0.492,0.745,0.619
				c0.268,0.125,0.941,0.42,0.801,0.588s-0.322,0.1-0.548,0.016c-0.225-0.084-0.296,0.238-0.296,0.377
				c0,0.143,0.198,0.508,0.451,0.535c0.252,0.029,0.252,0.268,0.252,0.479s0.198,0.227,0.381,0.365
				c0.182,0.143,0.309,0.393,0.449,0.34c0.142-0.059,0.575-0.115,0.59-0.508c0.015-0.395-0.14-0.59,0.07-0.59
				c0.212,0,0.422-0.043,0.212-0.254c-0.212-0.211-0.408-0.547-0.072-0.646c0.34-0.098,0.562-0.141,1.042-0.127
				c0.478,0.014,1.307-0.098,1.56-0.17c0.254-0.07,0.704-0.395,0.367-0.758c-0.339-0.363-1.042-0.814-1.14-0.941
				c-0.099-0.127-0.069-0.465-0.041-0.746c0.026-0.279-0.311-0.549-0.521-0.549s-0.196,0.381-0.154,0.662s0.099,0.662-0.154,0.633
				c-0.254-0.027-1.068-0.395-1.336-0.465s-0.97-0.449-0.802-1.041c0.17-0.592,0.253-0.771,0-0.771S41,57.943,41.015,57.605
				c0.014-0.336,0.182-0.352,0.337-0.533c0.155-0.184-0.027-0.773-0.225-0.801c-0.197-0.029-0.703,0.041-0.928,0.014
				c-0.225-0.029-0.114-0.449,0.056-0.533c0.169-0.086,0.773-0.508,1.168-0.621c0.393-0.111,0.688-0.479,0.941-0.531
				c0.253-0.059,0.575,0.012,0.97,0.012s0.464-0.184,0.688-0.156c0.225,0.029,0.394-0.127,0.605-0.336
				c0.21-0.211,0.604-0.549,0.998-0.492s0.689,0.1,0.815,0.354c0.127,0.25,0,0.25-0.085,0.336c-0.083,0.086-0.041,0.311,0.112,0.408
				c0.155,0.1,0.534,0.336,0.871,0.451c0.338,0.109,0.704,0.322,0.718,0.49c0.015,0.17,0.184,0.535,0.324,0.549
				c0.14,0.012,0.042,0.395,0.168,0.449c0.127,0.057,0.465-0.07,0.702,0.057c0.239,0.127,0.323,0.59,0.507,0.814
				c0.183,0.225,0.562,0.395,0.76,0.771c0.196,0.381,0.449,0.732,0.659,0.719c0.212-0.014,0.563-0.379,0.662-0.617
				c0.098-0.24,0.014-0.631,0.155-0.998c0.141-0.365,0-0.732-0.155-0.914c-0.155-0.184-0.226-0.816-0.142-0.998
				c0.086-0.184,0.408-0.662,0.043-0.662c-0.366,0-0.406-0.168-0.366-0.408c0.043-0.238-0.014-0.533-0.211-0.688
				c-0.196-0.154-0.631-0.633-0.645-0.928c-0.015-0.295-0.07-0.562,0.182-0.66c0.253-0.1,0.801-0.057,0.815-0.564
				c0.015-0.508-0.181-0.871-0.534-0.969c-0.351-0.1-0.365-0.086-0.562-0.296c-0.196-0.212-0.225-0.409-0.674-0.491
				c-0.45-0.086-0.689-0.127-0.914-0.409c-0.225-0.281-0.394-0.449-0.929-0.479c-0.534-0.027-0.786-0.168-1.054-0.393
				s-0.605-0.547-0.732-0.984c-0.124-0.435-0.124-0.803-0.421-0.704c-0.294,0.099-0.268,0.34-0.421,0.325
				c-0.155-0.015-0.407-0.182-0.604-0.253c-0.198-0.072-0.521-0.097-0.718-0.085c-0.197,0.013-0.592-0.069-0.619-0.311
				c-0.027-0.237-0.211-0.503-0.281-0.572c-0.069-0.074,0.084-0.254,0.254-0.355c0.168-0.098,0.098-0.337-0.084-0.462
				c-0.185-0.127-0.479-0.127-0.662-0.394c-0.183-0.268-0.618-0.634-0.814-0.634s-0.282,0.069-0.17,0.311
				c0.113,0.238,0.295,0.448-0.015,0.448c-0.309,0-0.617,0.071-0.758,0.227c-0.142,0.154-0.618,0.127-0.661-0.085
				c-0.041-0.211-0.015-0.605,0.154-0.886c0.17-0.281,0.154-0.8-0.126-0.773c-0.282,0.029-0.633,0.142-0.787,0.043
				c-0.155-0.098-0.338-0.184-0.591-0.086c-0.254,0.099-0.576-0.069-0.744-0.14c-0.168-0.069-0.295,0.042-0.563,0
				c-0.268-0.041-0.521-0.519-0.646-0.76c-0.126-0.238-0.268-0.353-0.463-0.071c-0.198,0.282-0.493,0.41-0.634,0.282
				c-0.14-0.125-0.38-0.184-0.604-0.056c-0.226,0.127-0.449,0.184-0.493-0.128c-0.041-0.307-0.041-0.491-0.195-0.73
				s-0.069-0.28,0.112-0.324c0.184-0.042,0.506-0.279,0.688-0.406c0.185-0.126,0.689-0.211,0.886,0
				c0.196,0.21,0.549,0.435,0.774,0.353c0.225-0.086,0.421-0.199,0.674-0.199c0.254,0,0.31,0,0.465-0.124
				c0.154-0.127,0.407-0.155,0.688-0.196c0.28-0.044,0.436-0.254,0.548-0.438c0.113-0.184,0.407-0.491,0.211-0.634
				c-0.196-0.139-0.38-0.139-0.211-0.434c0.168-0.295,0.183-0.521-0.083-0.773c-0.269-0.253-0.324-0.282-0.324-0.521
				c0-0.24-0.042-0.591-0.281-0.379c-0.239,0.209-0.366,0.504-0.577,0.127c-0.211-0.381-0.28-0.69-0.28-0.973
				c0-0.279-0.057-0.42,0.28-0.448c0.338-0.028,0.507-0.239,0.465-0.477c-0.043-0.241-0.24-0.451,0.126-0.732
				c0.366-0.282,0.575-0.155,0.675-0.028c0.099,0.126,0.465,0.52,0.689,0.562s0.492,0.436,0.73,0.422
				c0.239-0.016,0.984,0.577,1.068,0.843c0.085,0.267,0.183,0.941-0.099,1.152c-0.281,0.21-0.448,0.283-0.717,0.157
				c-0.268-0.127-0.352,0.098-0.296,0.349c0.057,0.252,0.253,0.478,0.551,0.351c0.294-0.127,0.421-0.323,0.673-0.434
				c0.253-0.114,0.675,0.041,0.857,0s0.717-0.311,0.661-0.957c-0.057-0.646-0.295-1.292-0.534-1.701
				c-0.238-0.406-0.591-0.504-0.787-0.802c-0.197-0.296-0.296-0.856-0.633-1.068c-0.338-0.209-0.676-0.675-0.857-0.928
				c-0.183-0.251-0.675-0.309-1.027-0.491c-0.351-0.185-0.969-0.744-1.151-1.31c-0.184-0.56-0.451-1.628-0.605-1.967
				c-0.153-0.337-0.492-0.856-0.702-0.969c-0.211-0.112-0.605-0.534-0.605-0.732c0-0.196-0.421-0.675-0.688-0.971
				c-0.268-0.294-1.013-1.319-1.139-1.91c-0.127-0.593-0.21-1.083-0.014-1.391c0.197-0.311,0.548-0.564,0.647-0.985
				c0.099-0.422,0.041-0.76,0.251-0.901c0.211-0.138,0.381-0.477,0.072-0.477c-0.311,0-0.646,0.127-0.535-0.296
				c0.112-0.42-0.014-0.802-0.07-1.066c-0.056-0.268-0.168-0.549,0.042-0.676c0.212-0.126,0.702-0.34,0.787-0.438
				c0.085-0.099,0.016-0.308-0.238-0.308s-0.226-0.282-0.027-0.366c0.195-0.083,0.674,0.084,0.856,0.253
				c0.184,0.168,0.38,0.113,0.38-0.098c0-0.21,0.141-0.324,0.38-0.365c0.237-0.044,0.478-0.436,0.857-0.593
				c0.379-0.152,0.73-0.266,0.802,0.128c0.069,0.392,0.083,0.955-0.058,1.111c-0.141,0.155-0.393,0.394-0.815,0.491
				c-0.422,0.099-0.745,0.478-0.618,0.732c0.127,0.254,0.282,0.421,0.436,0.547c0.155,0.127,0.113,0.438,0.211,0.576
				c0.099,0.142,0.395,0.309,0.689,0.309s0.675,0.2,0.928,0.422c0.252,0.225,0.632,0.621,1.054,0.719
				c0.422,0.099,1.042,0.393,1.266,0.646c0.226,0.254,0.464,0.802,0.464,1.252c0,0.449,0.113,0.912,0.281,1.108
				c0.169,0.197,0.577,0.675,0.689,1.083c0.112,0.409,0.098,0.562,0.421,0.562s1.125-0.197,1.521,0.058
				c0.392,0.254,1.109,0.449,1.56,0.604s0.562,0.14,0.646-0.041c0.084-0.184-0.127-0.31-0.295-0.494
				c-0.169-0.181-0.311-0.422-0.858-0.618c-0.548-0.197-0.983-0.31-1.278-0.688c-0.297-0.381-0.773-0.943-1.28-1.309
				c-0.505-0.364-0.871-0.884-0.829-1.207c0.041-0.326,0.197-0.773,0.491-0.929c0.295-0.155,0.759-0.098,1.069,0.055
				c0.31,0.154,0.801,0.478,1.025,0.592c0.226,0.11,0.732,0.127,1.027,0.127s0.688,0.11,0.815,0.602
				c0.127,0.495,0.028,0.986,0.395,1.28c0.364,0.295,0.715,0.676,0.8,0.9c0.084,0.224,0.366,0.844,0.661,0.87
				c0.296,0.028,0.759-0.139,0.956-0.392c0.196-0.255,0.534-0.688,0.196-1.027c-0.337-0.336-0.675-0.605-0.957-0.899
				c-0.279-0.295-0.49-0.577-0.842-0.757c-0.352-0.185-0.632-0.271-0.718-0.564c-0.084-0.295-0.575-0.323-0.701-0.589
				c-0.128-0.27-0.085-1.084,0.265-1.239c0.353-0.153,1.14-0.548,1.52-0.52c0.379,0.029,1.097,0.338,1.237,0.662
				c0.14,0.322,0.464,0.617,0.788,0.7c0.323,0.085,1.292,0.184,1.531,0.522c0.239,0.336,0.436,0.757,0.45,1.052
				c0.015,0.299,0.155,0.691,0.591,0.634c0.436-0.057,0.436-0.167,0.73-0.252c0.295-0.083,0.45-0.365,0.309-0.647
				c-0.141-0.282-0.533-0.716-1.039-0.928c-0.507-0.21-0.858-0.704-0.985-0.998c-0.125-0.295-0.337-0.605-0.8-0.605
				c-0.464,0-0.802-0.448-0.899-0.618c-0.099-0.169-0.494-0.758-0.676-0.758c-0.184,0-0.212,0.111-0.154,0.337
				c0.057,0.224-0.042,0.479-0.451,0.479c-0.406,0-1.097-0.282-1.25-0.618c-0.155-0.341-0.141-0.662-0.141-1.042
				c0-0.377-0.155-0.477,0.154-0.463c0.309,0.015,0.717,0.041,0.337-0.312c-0.379-0.349-0.618-0.336-0.772-0.658
				c-0.156-0.323-0.422-0.312-0.788-0.563c-0.365-0.252-0.633-0.533-0.618-0.729s0.491-0.548,1.083-0.605
				c0.59-0.058,1.546-0.099,2.024,0.069s0.97,0.155,1.166,0.069c0.198-0.081,0.885-0.575,1.308-0.801
				c0.421-0.225,0.899-0.251,1.151-0.28c0.254-0.028,0.226-0.252,0.156-0.366c-0.072-0.111-0.084-0.52,0.028-0.631
				c0.111-0.113-0.044-0.269,0.098-0.338c0.141-0.07,0.352,0.057,0.491-0.226c0.142-0.282,0.492-0.352,0.718-0.323
				c0.225,0.029,0.577-0.127,0.801-0.184c0.226-0.055,0.507,0.155,0.661,0.254c0.154,0.098,0.323,0.169,0.338,0.449
				c0.014,0.282,0.069,0.592,0.295,0.605c0.225,0.015,0.772,0.041,1.096,0.041s0.45,0.029,0.675-0.294s0.646-0.534,1.027-0.73
				c0.38-0.198,0.52-0.254,0.772-0.493c0.254-0.238,0.408-0.533,0.732-0.659c0.323-0.127,0.421-0.576,0.407-0.917
				c-0.015-0.335,0.014-0.574,0.266-0.376c0.254,0.196,0.493,0.421,0.521,0.658s-0.127,0.508-0.169,0.761
				c-0.042,0.25-0.042,0.549,0.21,0.505c0.253-0.041,0.184,0.253,0.493,0.184c0.309-0.069,0.534-0.267,0.815-0.21
				c0.281,0.055,0.448,0.378,0.814,0.464c0.366,0.084,0.83,0.013,1.084,0.068c0.252,0.058,0.533,0.492,0.785,0.619
				c0.254,0.127,0.958,0.294,1.364,0.294c0.409,0,1.295-0.012,1.688-0.041c0.394-0.028,0.886,0.099,1.447,0.127
				c0.563,0.028,0.9-0.198,0.915,0.028c0.014,0.225,0.084,0.616,0.28,0.802c0.198,0.184,0.235,0.308,0.235,0.308
				s0.791-0.252,0.948-0.463c0.16-0.212,0.213-0.487,0.38-0.58c0.169-0.095,0.612-0.273,0.646-0.558
				c0.03-0.284-0.022-0.592,0.188-0.801c0.212-0.213,0.897-0.604,0.771-1.098c-0.128-0.497-0.35-1.13-0.423-1.552
				c-0.073-0.421-0.011-0.696,0.096-1.065c0.104-0.366,0.074-0.537,0.136-0.822c0.063-0.283,0.285-0.579,0.602-0.62
				c0.316-0.045,0.516-0.19,0.749-0.485c0.231-0.295,0.548-0.423,0.801-0.495c0.253-0.074,0.749-0.285,0.653-0.846
				c-0.094-0.559-0.273-2.604-0.474-3.351c-0.2-0.75-1.013-0.917-1.224-0.917s-0.718-0.105-1.169-0.18
				c-0.455-0.074-0.696-0.064-1.045-0.232S73.124,0.17,73.124,0.17s-0.073,0.356-0.368,0.442c-0.297,0.085-0.948,0.484-0.938,0.757
				c0.01,0.278,0.337,0.623,0.686,0.761c0.347,0.138,0.695,1.024,0.695,1.401c0,0.38,0.105,0.897,0.189,1.161
				s-0.096,0.854-0.644,1.138c-0.548,0.284-1.274,0.528-2.298,0.477c-1.022-0.056-1.855-0.116-2.151,0.041s-0.854,0.138-1.424,0.38
				c-0.568,0.243-1.823,0.589-2.309,0.716s-1.159,0.213-1.771-0.229c-0.611-0.445-1.877-1.023-2.299-1.257
				c-0.422-0.23-1.265-0.527-1.687-0.366c-0.422,0.157-0.591,0.462-0.928,0.388c-0.338-0.073-0.569-0.591-0.876-0.677
				c-0.305-0.082-0.653-0.157-0.96-0.431c-0.305-0.274-0.432-1.096-0.863-1.096c-0.434,0-0.844,0.105-1.149,0.264
				c-0.307,0.156-1.148,0.19-1.382-0.052c-0.23-0.244-0.559-0.467-1.117-0.264c-0.559,0.198-1.118,0.578-1.286,0.959
				c-0.17,0.38-0.632,0.589-1.192,0.518c-0.559-0.075-1.16-0.075-1.855,0.264c-0.695,0.336-1.888,0.589-2.445,0.568
				c-0.56-0.021-1.528,0.011-2.152,0.369c-0.621,0.357-1.527,0.707-1.971,0.717c-0.442,0.012-1.351-0.096-1.835-0.054
				c-0.485,0.044-1.328-0.21-1.812,0.012c-0.486,0.222-0.602,0.822-0.961,1.434c-0.358,0.612-0.875,1.001-1.328,1.192
				c-0.453,0.188-1.402,0.41-1.729,0.198c-0.325-0.21-1.012-0.61-1.508-0.651c-0.494-0.044-1.233,0.229-1.677,0.389
				c-0.441,0.16-1.149,0.316-1.485,0.358c-0.339,0.041-0.823,0.476-1.161,1.117c-0.337,0.644-0.622,1.477-1.128,1.771
				s-1.171,0.444-1.581,0.538c-0.412,0.095-0.961-0.012-1.191-0.253c-0.231-0.241-0.854-0.369-1.14,0.021
				c-0.284,0.388-1.106,0.61-1.412,0.495c-0.306-0.116-1.487-0.093-1.697-0.083c-0.212,0.01-0.275,0.053-0.275,0.053
				s0.054,0.536-0.03,0.632c-0.085,0.094-0.106,0.084-0.147,0.221c-0.043,0.136-0.127,0.338-0.022,0.485
				c0.106,0.146,0.264,0.559,0.117,0.812c-0.148,0.254-0.254,0.452-0.465,0.569c-0.211,0.115-0.2,0.273-0.189,0.568
				c0.012,0.294,0.053,1.065-0.201,1.339c-0.251,0.274-0.863,0.74-1.317,0.96c-0.454,0.223-0.737,0.191-0.875,0.821
				C15.439,20.698,15.32,21.012,15.217,21.319z"/>
			<path style="fill:#010101;" d="M0.33,27.722c-0.256,0.168-0.422,0.355-0.273,0.452c0.147,0.096,0.411-0.116,0.473-0.2
				c0.063-0.084,0.138-0.263,0.043-0.296C0.477,27.646,0.38,27.685,0.33,27.722z"/>
			<path style="fill:#010101;" d="M2.269,27.276c-0.188-0.028-0.295,0.203-0.167,0.33c0.126,0.126,0.314,0.198,0.378-0.012
				C2.543,27.383,2.364,27.292,2.269,27.276z"/>
			<ellipse style="fill:#010101;" cx="1.416" cy="29.424" rx="0.137" ry="0.162"/>
			<path style="fill:#010101;" d="M4.241,29.027c-0.284,0.018-0.821-0.052-1.086-0.052c-0.264,0-0.643,0.21-0.686,0.527
				c-0.042,0.315-0.01,0.381,0.295,0.642c0.307,0.264,0.571,0.424,0.728,0.76c0.158,0.34,0.307,0.517,0.496,0.771
				c0.19,0.253,0.56,0.526,0.738,0.791c0.179,0.264,0.464,0.812,0.548,1.096c0.085,0.284,0.223,0.538,0.548,0.631
				c0.327,0.097,0.443-0.127,0.981,0.158c0.538,0.286,0.844,0.537,0.97,0.465C7.9,34.743,7.857,34.3,7.752,34.046
				c-0.105-0.253-0.243-0.506-0.434-0.453c-0.188,0.054-0.462,0.326-0.705,0.074s-0.749-0.57-0.907-1.265
				c-0.158-0.696-0.337-1.583-0.263-1.909c0.073-0.325,0.251-0.706,0.326-0.832c0.074-0.127-0.032-0.559-0.273-0.676
				C5.253,28.87,5.085,28.808,4.789,28.9C4.495,28.997,4.382,29.02,4.241,29.027z"/>
			<path style="fill:#010101;" d="M5.169,35.598c-0.178-0.132-0.327-0.044-0.274,0.104c0.053,0.148,0.252,0.254,0.379,0.254
				S5.244,35.652,5.169,35.598z"/>
			<path style="fill:#010101;" d="M8.417,36.894c-0.185,0.06-0.138,0.304-0.012,0.526c0.127,0.224,0.538,0.579,0.654,0.381
				c0.116-0.201-0.064-0.486-0.222-0.675C8.679,36.935,8.531,36.857,8.417,36.894z"/>
			<path style="fill:#010101;" d="M9.333,38.243c-0.192,0.111-0.147,0.179-0.041,0.391c0.104,0.211,0.284,0.326,0.348,0.084
				s0.021-0.169-0.073-0.358C9.47,38.17,9.39,38.212,9.333,38.243z"/>
			<path style="fill:#010101;" d="M14.184,42.26c-0.223-0.094-0.77,0.666-1.044,1.14c-0.274,0.476-0.569,1.055-0.602,1.467
				c-0.031,0.409-0.2,0.769-0.158,1.044c0.043,0.273,0.106,0.314,0.265,0.168c0.157-0.146,0.327-0.477,0.443-0.401
				c0.114,0.072,0.452,0.326,0.695,0.337c0.242,0.01,0.452-0.274,0.517-0.516c0.062-0.242,0-0.537,0-1.054
				c0-0.518,0.096-1.076,0.096-1.51C14.396,42.504,14.346,42.331,14.184,42.26z"/>
			<path style="fill:#010101;" d="M14.921,45.393c-0.112,0.235-0.147,0.474,0.063,0.569c0.211,0.095,0.737,0.062,0.611-0.075
				c-0.125-0.138-0.336-0.337-0.252-0.494s0.211-0.612,0.073-0.612C15.281,44.78,15.008,45.214,14.921,45.393z"/>
			<path style="fill:#010101;" d="M14.342,46.384c-0.144,0.041-0.073,0.252-0.073,0.379c0,0.126,0.21,0.188,0.294,0.137
				c0.085-0.051,0.022-0.202-0.031-0.39C14.479,46.321,14.397,46.367,14.342,46.384z"/>
			<path style="fill:#010101;" d="M16.461,45.382c-0.17,0.109-0.506,0.518-0.294,0.528c0.21,0.009,0.357-0.201,0.526-0.201
				s0.496-0.254,0.242-0.338C16.682,45.286,16.561,45.318,16.461,45.382z"/>
			<path style="fill:#010101;" d="M16.578,46.257c-0.148,0.276-0.358,0.359-0.274,0.455c0.084,0.092,0.243-0.045,0.338-0.172
				s0.231-0.264,0.095-0.315C16.598,46.173,16.595,46.223,16.578,46.257z"/>
			<ellipse style="fill:#010101;" cx="18.591" cy="48.34" rx="0.159" ry="0.186"/>
			<ellipse style="fill:#010101;" cx="18.808" cy="50.321" rx="0.195" ry="0.248"/>
			<path style="fill:#010101;" d="M18.065,49.225c0,0.079-0.041,0.144-0.09,0.144c-0.05,0-0.09-0.064-0.09-0.144
				c0-0.076,0.04-0.142,0.09-0.142C18.024,49.083,18.065,49.148,18.065,49.225z"/>
			<path style="fill:#010101;" d="M13.562,48.818c-0.194-0.323-0.517-0.854-0.379-1.116c0.137-0.264,0.337-0.254,0.454-0.116
				c0.114,0.137,0.367,0.294,0.505,0.304c0.137,0.011,0.18,0.243,0.158,0.432c-0.021,0.192-0.031,0.486,0.085,0.486
				c0.114,0,0.274,0.189,0.231,0.453c-0.043,0.263,0.221,0.497,0.146,0.645c-0.072,0.146-0.294,0.338-0.548-0.097
				C13.962,49.377,13.715,49.071,13.562,48.818z"/>
			<path style="fill:#010101;" d="M12.234,48.64c0.005,0.347-0.021,0.896-0.244,1.065c-0.22,0.168-0.357,0.073-0.431-0.231
				c-0.074-0.306-0.401-0.443-0.58-0.306c-0.18,0.138-0.275,0.525-0.265,0.832c0.012,0.305-0.094,0.462-0.273,0.601
				c-0.179,0.137-0.232,0.517-0.242,0.685s-0.18,0.529,0.147,0.594c0.327,0.062,0.854,0.041,0.97-0.139s0.116-0.477,0.189-0.719
				c0.074-0.243,0.222-0.126,0.338,0.096c0.116,0.223,0.485,0.539,0.412,0.656c-0.074,0.113-0.38-0.057-0.412,0.061
				c-0.031,0.115,0.011,0.35,0.011,0.35s-0.274,0.219-0.074,0.453c0.2,0.232,0.465,0.178,0.465,0.178s0.179,0.211,0.494,0.17
				c0.317-0.043,0.981-0.074,1.14,0.062c0.159,0.137,0.632,0.645,0.938,0.539c0.308-0.107,0.422-0.285,0.422-0.453
				c0-0.17,0.222-0.17,0.138-0.35s-0.158-0.357-0.349-0.707c-0.189-0.348-0.548-0.441-0.758-0.842
				c-0.212-0.4-0.348-0.486-0.623-0.486c-0.273,0-0.569-0.2-0.558-0.631c0.011-0.436-0.012-0.699-0.138-1.034
				c-0.126-0.34-0.105-0.802-0.232-1.138c-0.127-0.34-0.2-0.318-0.357-0.308C12.202,47.646,12.23,48.386,12.234,48.64z"/>
			<path style="fill:#010101;" d="M13.277,56.158c-0.094,0.373-0.112,0.701,0.028,0.943c0.142,0.236,0.52,0.447,0.562,0.658
				c0.043,0.213,0.197,0.592,0.379,0.662c0.184,0.07,0.141,0.295,0.352,0.49c0.212,0.197,0.381,0.143,0.604,0.225
				c0.226,0.086,0.577,0.242,0.69,0.074c0.112-0.172-0.015-0.494,0.14-0.748s0.395-0.406,0.591-0.225
				c0.196,0.184,0.829,0.254,0.829,0.098s-0.21-0.49-0.38-0.674c-0.168-0.182-0.197-0.479-0.407-0.703
				c-0.211-0.225-0.337-0.379-0.983-0.365c-0.648,0.016-0.802-0.211-1.041-0.547c-0.239-0.34-0.393-0.676-0.802-0.523
				C13.432,55.68,13.329,55.953,13.277,56.158z"/>
			<path style="fill:#010101;" d="M25.761,71.99c-0.171,0.012-0.267,0.434-0.183,0.561c0.085,0.127,0.352,0.041,0.379-0.156
				c0.028-0.197,0.071-0.295-0.027-0.352C25.831,71.99,25.807,71.984,25.761,71.99z"/>
			<path style="fill:#010101;" d="M26.62,72.312c-0.177-0.119-0.268,0.238-0.197,0.449c0.07,0.209,0.324,0.182,0.337,0.055
				C26.773,72.689,26.728,72.385,26.62,72.312z"/>
			<path style="fill:#010101;" d="M39.104,74.539c0,0.082-0.067,0.15-0.148,0.15c-0.082,0-0.148-0.068-0.148-0.15
				c0-0.08,0.066-0.148,0.148-0.148C39.037,74.391,39.104,74.459,39.104,74.539z"/>
			<circle style="fill:#010101;" cx="41.655" cy="78.559" r="0.134"/>
			<circle style="fill:#010101;" cx="42.232" cy="79.404" r="0.105"/>
			<circle style="fill:#010101;" cx="41.957" cy="79.777" r="0.098"/>
			<circle style="fill:#010101;" cx="44.242" cy="79.615" r="0.092"/>
			<path style="fill:#010101;" d="M40.102,75.363c-0.178-0.047-0.323,0.125-0.45,0.336c-0.126,0.213-0.17,0.438-0.015,0.438
				c0.154,0,0.268,0.07,0.465,0.07c0.195,0,0.21-0.297,0.195-0.521C40.285,75.461,40.194,75.385,40.102,75.363z"/>
			<path style="fill:#010101;" d="M39.609,77.051c-0.337,0.041-0.436,0.252-0.464,0.561c-0.028,0.311-0.154,0.352,0,0.574
				c0.155,0.227,0.099,0.424,0.099,0.648s-0.126,0.76,0.057,0.875c0.182,0.109,0.409,0.277,0.506,0.6
				c0.098,0.324,0.423,0.621,0.618,0.621c0.197,0,0.479-0.211,0.549-0.621c0.07-0.404,0.154-0.645,0.407-0.658
				c0.254-0.016,0.592-0.367,0.366-0.578s-0.508-0.195-0.718-0.395c-0.211-0.193-0.252-0.363-0.548-0.504
				c-0.295-0.143-0.239-0.338-0.353-0.676C40.016,77.16,39.78,77.029,39.609,77.051z"/>
			<path style="fill:#010101;" d="M46.146,88.592c0,0.07-0.056,0.123-0.125,0.123c-0.071,0-0.127-0.053-0.127-0.123
				c0-0.072,0.056-0.125,0.127-0.125C46.09,88.467,46.146,88.52,46.146,88.592z"/>
			<circle style="fill:#010101;" cx="46.512" cy="88.143" r="0.141"/>
			<circle style="fill:#010101;" cx="46.99" cy="87.635" r="0.141"/>
			<circle style="fill:#010101;" cx="50.582" cy="88.725" r="0.119"/>
			<path style="fill:#010101;" d="M51.349,88.797c0,0.057-0.048,0.104-0.107,0.104c-0.058,0-0.104-0.047-0.104-0.104
				c0-0.061,0.047-0.105,0.104-0.105C51.301,88.691,51.349,88.736,51.349,88.797z"/>
			<path style="fill:#010101;" d="M46.976,90.545c-0.078,0.354-0.211,0.719-0.211,0.871c0,0.154,0.211,0.549,0.225,0.76
				c0.015,0.211-0.07,0.662,0.127,0.785c0.197,0.127,0.394,0.312,0.76,0.186c0.365-0.129,0.407-0.043,0.689,0.041
				c0.279,0.086,0.421-0.127,0.646-0.252s0.407-0.182,0.688-0.07c0.281,0.113,0.437,0.043,0.563,0.043
				c0.126,0,0.378,0.295,0.631,0.295c0.254,0,0.73-0.156,0.942-0.057c0.211,0.098,0.505,0.535,0.717,0.49
				c0.21-0.041,0.393-0.225,0.703-0.236c0.31-0.016,0.506,0.182,0.802,0.098c0.294-0.084,0.716-0.014,1.082,0.139
				c0.365,0.156,0.618,0.029,0.927-0.139c0.311-0.168,0.409-0.225,0.703-0.041c0.296,0.18,0.295,0.447,0.562,0.531
				c0.268,0.086,0.746,0.352,0.956,0.633c0.212,0.283,0.9,0.605,1.265,0.59c0.366-0.012,0.915,0.199,1.013,0.508
				c0.099,0.311,0.239,0.617,0.239,0.76c0,0.141-0.057,0.562,0.591,0.479c0.646-0.086,0.379-0.24,0.955-0.172
				c0.577,0.072,1.097,0.072,1.351-0.098c0.252-0.168,0.562-0.098,0.914-0.068c0.352,0.027,0.576-0.186,0.955-0.168
				c0.38,0.012,0.591,0.154,0.914-0.018c0.323-0.168,0.999-0.572,1.729-0.561c0.731,0.014,1.196,0.168,1.519,0.029
				c0.324-0.143,1.224-0.52,1.842-0.492c0.619,0.027,0.815,0.141,1.393-0.027c0.576-0.172,1.14-0.396,1.716-0.396
				c0.575,0,1.207,0.086,1.56,0.326c0.352,0.238,0.688,0.152,0.956-0.143c0.267-0.295,0.9-0.842,1.223-0.887
				c0.324-0.041,0.268-0.252,0.268-0.574c0-0.324,0.069-0.691,0.211-0.943c0.14-0.254,0.027-0.504-0.142-0.504
				c-0.168,0-0.435-0.127-0.337-0.465c0.099-0.338,0.337-1.082,0.029-1.07c-0.311,0.016-0.592,0.424-0.732,0.844
				c-0.141,0.422-0.421,0.871-0.646,0.871c-0.225,0-0.352-0.363-0.605-0.404c-0.251-0.045-0.491-0.127-0.813,0.053
				c-0.324,0.184-0.704,0.029-0.929,0.312c-0.226,0.281-0.45,0.479-0.647,0.658c-0.196,0.184-0.294,0.564-0.646,0.748
				c-0.352,0.18-0.858-0.127-0.942-0.521s0.042-0.787,0.268-1.096c0.226-0.311,0.196-0.76,0.041-0.76
				c-0.153,0-0.491,0.281-0.549,0.154c-0.055-0.127,0.185-0.619,0.086-0.801c-0.099-0.184-0.07-0.254-0.562-0.184
				c-0.491,0.07-0.491-0.141-0.801-0.098c-0.309,0.041-1.056,0.701-1.477,0.701c-0.422,0-0.886,0.031-1.209-0.309
				c-0.323-0.338-0.801-0.043-0.984,0.027c-0.183,0.07-0.773,0.324-1.153,0.197s-0.899-0.098-1.208-0.082
				c-0.309,0.012-0.633-0.127-0.929-0.41c-0.295-0.279-0.661-0.506-1.097-0.225c-0.435,0.281-0.729,0.07-0.955,0.014
				c-0.225-0.055-0.576,0.254-0.858,0.254c-0.28,0-0.76-0.352-1.11-0.268s-0.871,0.508-1.252,0.564
				c-0.379,0.055-1.448,0.125-1.896,0.152c-0.45,0.029-1.126-0.027-1.434-0.07c-0.311-0.041-0.324-0.658-0.576-0.859
				c-0.254-0.195-0.888,0.031-1.211-0.053c-0.323-0.086-0.52-0.408-0.323-0.408c0.197,0,0.773-0.197,0.689-0.59
				c-0.084-0.396-0.127-0.773-0.478-0.76c-0.351,0.016-0.408,0.225-0.437,0.311c-0.027,0.082-0.379,0.334-0.561,0.363
				c-0.185,0.029-0.493,0.381-0.761,0.393c-0.267,0.016-0.872-0.195-1.053-0.307c-0.184-0.115-0.732-0.074-0.984-0.254
				c-0.253-0.184-0.352-0.662-0.282-1.014c0.07-0.352-0.155-1.053-0.492-0.998c-0.337,0.057-0.407,0.703-0.394,1.193
				c0.016,0.496,0.198,1.252-0.083,1.465s-0.732,0.213-0.915-0.154c-0.182-0.365-0.337-1.057-0.604-0.982
				c-0.267,0.07-0.365-0.029-0.239,0.688C47.033,89.799,47.055,90.188,46.976,90.545z"/>
			<path style="fill:#010101;" d="M66.293,89.141c-0.29-0.062-0.605,0.352-0.409,0.547c0.197,0.197,0.562,0.393,0.689,0.238
				c0.126-0.154,0.196-0.479,0.07-0.576S66.392,89.16,66.293,89.141z"/>
			<circle style="fill:#010101;" cx="60.494" cy="95.936" r="0.105"/>
			<circle style="fill:#010101;" cx="61.576" cy="97.369" r="0.077"/>
			<circle style="fill:#010101;" cx="62.299" cy="97.461" r="0.084"/>
			<path style="fill:#010101;" d="M71.62,89.525c0,0.053-0.041,0.094-0.091,0.094c-0.051,0-0.091-0.041-0.091-0.094
				c0-0.049,0.04-0.09,0.091-0.09C71.579,89.436,71.62,89.477,71.62,89.525z"/>
			<circle style="fill:#010101;" cx="72.421" cy="89.771" r="0.14"/>
			<circle style="fill:#010101;" cx="73.111" cy="92.695" r="0.125"/>
			<circle style="fill:#010101;" cx="70.608" cy="96.52" r="0.127"/>
			<path style="fill:#010101;" d="M71.873,96.922c0,0.072-0.139,0.133-0.31,0.133s-0.309-0.061-0.309-0.133
				c0-0.076,0.138-0.137,0.309-0.137S71.873,96.846,71.873,96.922z"/>
			<ellipse style="fill:#010101;" cx="77.068" cy="96.266" rx="0.218" ry="0.168"/>
			<ellipse style="fill:#010101;" cx="79.008" cy="91.91" rx="0.104" ry="0.127"/>
			<path style="fill:#010101;" d="M79.775,91.221c0,0.137-0.083,0.252-0.184,0.252c-0.102,0-0.183-0.115-0.183-0.252
				c0-0.143,0.081-0.252,0.183-0.252C79.692,90.969,79.775,91.078,79.775,91.221z"/>
			<path style="fill:#010101;" d="M77.835,90.18c-0.1,0.166-0.253,0.256-0.343,0.201c-0.091-0.051-0.082-0.23,0.017-0.398
				c0.101-0.166,0.254-0.254,0.345-0.205C77.942,89.834,77.936,90.012,77.835,90.18z"/>
			
				<ellipse transform="matrix(0.8602 0.5099 -0.5099 0.8602 57.5083 -24.8394)" style="fill:#010101;" cx="74.06" cy="92.472" rx="0.19" ry="0.352"/>
			
				<ellipse transform="matrix(0.3447 0.9387 -0.9387 0.3447 136.1985 -13.1511)" style="fill:#010101;" cx="77.519" cy="90.975" rx="0.133" ry="0.247"/>
			<path style="fill:#010101;" d="M89.644,83.178c-0.221-0.127-0.591,0.24-0.745,0.646c-0.155,0.408-0.282,0.309-0.436,0.494
				c-0.155,0.18-0.269,0.506-0.269,0.928c0,0.42-0.154,0.771-0.295,0.896c-0.14,0.127-0.183,0.312,0.071,0.521
				c0.253,0.211,0.533,0.508,0.449,0.914c-0.084,0.408-0.226,0.508-0.226,0.762c0,0.252,0.113,0.352,0.296,0.49
				c0.184,0.139,0.479,0.254,0.605-0.184c0.126-0.434,0.225-0.773,0.436-0.799c0.211-0.027,0.407-0.299,0.14-0.494
				c-0.267-0.197-0.351-0.154-0.351-0.52s-0.21-0.352-0.323-0.76s0.099-0.828,0.28-1.168c0.184-0.336,0.225-0.391,0.211-0.561
				c-0.014-0.172,0.043-0.281,0.169-0.562C89.784,83.504,89.773,83.256,89.644,83.178z"/>
			<path style="fill:#010101;" d="M86.692,88.715c-0.352,0.045-0.465,0.045-0.663,0.045c-0.196,0-0.464,0.281-0.533,0.463
				c-0.07,0.184-0.126,0.523-0.015,0.703c0.113,0.184,0.127,0.141,0.436-0.154c0.311-0.295,0.479-0.479,0.76-0.578
				c0.281-0.098,0.562-0.307,0.408-0.461C86.93,88.576,86.692,88.715,86.692,88.715z"/>
			<path style="fill:#010101;" d="M84.567,82.111c-0.271,0.08-0.365,0.264-0.267,0.406c0.099,0.141,0.239,0.098,0.422-0.016
				c0.183-0.111,0.225-0.25,0.155-0.348C84.806,82.053,84.643,82.086,84.567,82.111z"/>
			<path style="fill:#010101;" d="M89.236,82.209c-0.095,0.207,0.099,0.465,0.252,0.477c0.155,0.016,0.296-0.098,0.268-0.211
				c-0.028-0.111-0.211-0.084-0.141-0.223c0.07-0.141,0.015-0.299-0.084-0.299S89.274,82.119,89.236,82.209z"/>
			<path style="fill:#010101;" d="M86.115,87.848c0,0.059-0.051,0.111-0.113,0.111c-0.062,0-0.112-0.053-0.112-0.111
				c0-0.064,0.051-0.113,0.112-0.113C86.064,87.734,86.115,87.783,86.115,87.848z"/>
			<circle style="fill:#010101;" cx="84.913" cy="89.766" r="0.148"/>
			<circle style="fill:#010101;" cx="84.885" cy="90.369" r="0.134"/>
			<ellipse style="fill:#010101;" cx="85.546" cy="88.316" rx="0.33" ry="0.133"/>
			<path style="fill:#010101;" d="M45.289,69.633c-0.378,0.143,0.147,0.611,0.338,0.676c0.189,0.062,0.442-0.318,0.231-0.465
				C45.647,69.695,45.431,69.58,45.289,69.633z"/>
			<path style="fill:#010101;" d="M45.5,63.033c-0.455,0.189-0.886,0.484-0.886,0.674c0,0.191-0.106,0.592,0.106,0.527
				c0.21-0.062,0.104-0.359,0.442-0.336c0.337,0.021,0.316,0,0.591-0.254s0.695-0.695,0.4-0.738
				C45.858,62.865,45.654,62.971,45.5,63.033z"/>
			<path style="fill:#010101;" d="M43.792,63.178c-0.25,0.062-0.508,0.422-0.233,0.422s0.844-0.189,0.76-0.377
				C44.234,63.033,43.92,63.148,43.792,63.178z"/>
			<path style="fill:#010101;" d="M45.436,57.129c-0.447,0.021-0.675-0.021-0.654,0.145c0.022,0.172,0.232,0.402,0.127,0.635
				c-0.104,0.23-0.084,0.674,0.19,0.674c0.273,0,0.674-0.125,0.717-0.484c0.042-0.357,0.212-0.549,0.169-0.824
				C45.943,57,45.578,57.119,45.436,57.129z"/>
			<path style="fill:#010101;" d="M45.816,60.078c-0.338-0.217-0.486-0.209-0.464,0.023c0.021,0.23,0.231,0.631,0.527,0.631
				c0.295,0,0.484-0.021,0.358-0.273C46.111,60.205,45.935,60.158,45.816,60.078z"/>
			<path style="fill:#010101;" d="M50.813,61.178c-0.263-0.15-0.653-0.105-0.611,0.084c0.043,0.191,0.189,0.166,0.317,0.252
				c0.126,0.086,0.443,0.422,0.505,0.189C51.088,61.473,50.937,61.248,50.813,61.178z"/>
			<path style="fill:#010101;" d="M55.327,58.412c-0.378-0.27-0.485-0.379-0.677,0.045c-0.188,0.424-0.379,0.568-0.252,1.012
				c0.126,0.441,0.063,0.695,0.357,0.609c0.297-0.082,0.527,0.023,0.718-0.314c0.19-0.336,0.19-0.676,0.19-0.908
				C55.664,58.625,55.438,58.496,55.327,58.412z"/>
			<path style="fill:#010101;" d="M55.494,61.346c-0.345,0.414-0.23,0.717-0.23,1.055s-0.211,0.885,0,0.885
				c0.21,0,0.568-0.4,0.737-0.654c0.168-0.252,0.633-0.59,0.484-0.99c-0.147-0.4-0.147-0.463-0.273-0.635
				C56.086,60.84,55.622,61.193,55.494,61.346z"/>
			<path style="fill:#010101;" d="M57.014,65.248c-0.321-0.105-0.337-0.045-0.676,0.482c-0.337,0.529-0.61,0.803-0.463,0.887
				s0.294,0.104,0.526,0.104s0.339,0,0.485,0.213c0.147,0.213,0.337,0.254,0.379-0.086c0.043-0.336-0.085-0.609,0.213-0.609
				c0.294,0,0.314-0.234,0.124-0.467C57.415,65.543,57.2,65.309,57.014,65.248z"/>
			<path style="fill:#010101;" d="M57.52,72.965c0.453-0.268,0.59-1.012,0.421-1.076c-0.168-0.062-0.338,0.064-0.737-0.062
				c-0.401-0.127-0.76-0.609-0.907-0.441c-0.146,0.166,0.317,0.588,0.274,0.695c-0.042,0.105-0.295,0.146-0.695,0
				c-0.401-0.148-0.569-0.254-0.569,0.254c0,0.504-0.086,0.654,0.041,0.863c0.127,0.211,0.401,0.021,0.844-0.041
				C56.634,73.092,57.23,73.137,57.52,72.965z"/>
			<path style="fill:#010101;" d="M58.806,68.096c0.422,0.635,0.253,1.01,0.632,1.01c0.38,0,0.465,0,0.675-0.086
				c0.213-0.08,0.213-0.377-0.084-0.441c-0.295-0.062-0.357-0.295-0.379-0.482c-0.021-0.191-0.253-0.594-0.507-0.613
				c-0.253-0.021-0.568-0.316-0.674-0.127C58.363,67.543,58.693,67.926,58.806,68.096z"/>
			<path style="fill:#010101;" d="M52.647,57.803c-0.21,0.254-0.188,0.4-0.273,0.717s-0.315,0.654-0.169,0.717
				c0.147,0.064,0.379-0.127,0.506-0.463c0.126-0.34,0.359-0.57,0.253-0.844C52.859,57.654,52.647,57.803,52.647,57.803z"/>
			<path style="fill:#010101;" d="M61.779,73.49c0.411,0.299,0.696,0.295,0.696,0.086c0-0.213,0.147-0.547-0.212-0.547
				c-0.357,0-0.442-0.168-0.611-0.232c-0.17-0.062-0.527,0-0.4,0.232C61.378,73.262,61.637,73.391,61.779,73.49z"/>
			<path style="fill:#010101;" d="M61.969,61.281c-0.152-0.557-0.486-0.885-0.738-0.885c-0.254,0-0.254,0.127-0.21,0.422
				c0.041,0.295,0.02,0.527-0.17,0.863c-0.189,0.34-0.231,0.508,0,0.508c0.233,0,0.063,0.441,0.297,0.441
				c0.23,0,0.59-0.273,0.759-0.549C62.074,61.809,62.021,61.477,61.969,61.281z"/>
			<path style="fill:#010101;" d="M59.102,58.982c-0.591,0.211-0.865,0.508-0.508,0.572c0.358,0.061,0.739,0.273,0.907-0.064
				c0.17-0.338,0.21-0.529,0.106-0.57C59.501,58.881,59.102,58.982,59.102,58.982z"/>
			<path style="fill:#010101;" d="M63.002,59.383c0.322,0.182,0.548,0.34,0.822,0.592c0.274,0.254,0.633,0.422,0.886,0.23
				c0.253-0.188,0.591-0.758,0.484-0.969c-0.104-0.211-0.505-0.084-0.716-0.254c-0.211-0.168-0.401-0.484-0.802-0.377
				c-0.4,0.104-0.695-0.172-0.97-0.232c-0.274-0.066-0.823,0.125-0.633,0.379C62.264,59.006,62.757,59.25,63.002,59.383z"/>
			<path style="fill:#010101;" d="M67.45,60.67c-0.286-0.066-0.505,0.041-0.736,0c-0.232-0.041-0.296-0.273-0.486-0.211
				c-0.188,0.064-0.021,0.547-0.126,0.674c-0.104,0.129-0.483,0.592-0.295,0.676c0.19,0.086,0.127,0.064,0.38,0.064
				c0.254,0,0.295,0.189,0.527,0.062c0.231-0.127,0.127-0.422,0.422-0.568c0.295-0.148,0.653-0.234,0.611-0.402
				C67.704,60.797,67.554,60.693,67.45,60.67z"/>
			<path style="fill:#010101;" d="M69.244,64.594c-0.359-0.125-0.695,0.23-0.738,0.357c-0.043,0.125-0.126,0.506-0.548,0.549
				s-0.508,0.252-0.654,0.377c-0.147,0.127-0.463,0.127-0.463,0.383c0,0.252-0.042,0.252-0.042,0.633
				c0,0.377,0.02,0.631,0.294,0.844c0.274,0.209,0.696,0.566,0.886,0.82c0.19,0.254,0.38-0.273,0.675-0.338
				c0.295-0.061,0.759,0.105,0.802-0.188c0.042-0.295,0.168-1.035,0.421-1.266c0.255-0.232,0.612-0.695,0.317-0.803
				c-0.297-0.105-0.297-0.379-0.297-0.547s-0.167-0.254-0.251-0.4C69.561,64.867,69.381,64.641,69.244,64.594z"/>
			<path style="fill:#010101;" d="M65.259,67.67c0.546-0.699,0.611-1.053,0.567-1.324c-0.041-0.275,0.551-0.762,0.233-0.846
				c-0.316-0.084-0.507,0.316-0.695,0.211c-0.189-0.105-0.338-0.508-0.654-0.211s-0.654,0.865-0.484,0.947
				c0.168,0.086,0.253,0.232,0.104,0.465c-0.147,0.234-0.549,0.654-0.316,0.865c0.232,0.213,0.422,0.254,0.739,0.191
				C65.069,67.904,65.169,67.785,65.259,67.67z"/>
			<path style="fill:#010101;" d="M72.007,65.521c-0.251-0.031-0.4,0.377-0.211,0.609c0.189,0.234,0.443,0.316,0.611,0.256
				c0.168-0.066,0.442-0.234,0.212-0.488C72.386,65.645,72.186,65.543,72.007,65.521z"/>
			<path style="fill:#010101;" d="M63.677,67.461c0.058-0.395,0.127-0.887-0.169-0.506c-0.295,0.379-0.485,0.695-0.358,0.949
				s0.485,0.525,0.57,0.525c0.084,0,0.021-0.293-0.043-0.525C63.613,67.67,63.66,67.57,63.677,67.461z"/>
			<path style="fill:#010101;" d="M66.228,71.994c0.228,0.412,0.571,0.613,0.888,0.613c0.315,0,0.442-0.273,0.315-0.465
				c-0.127-0.189-0.127-0.211,0.02-0.297c0.149-0.082,0.127-0.312-0.146-0.334c-0.274-0.021-0.4-0.34-0.59-0.424
				c-0.19-0.086-0.591-0.023-0.633,0.211C66.04,71.533,66.143,71.838,66.228,71.994z"/>
			<path style="fill:#010101;" d="M64.626,71.678c-0.637,0.285-0.929,0.803-0.906,1.057c0.021,0.254,0.041,0.422,0.421,0.168
				s0.59-0.508,0.886-0.635c0.295-0.125,0.738-0.609,0.379-0.674C65.048,71.533,64.806,71.6,64.626,71.678z"/>
			<path style="fill:#010101;" d="M68.611,75.561c-0.25-0.414-0.526-0.572-0.78-0.508c-0.254,0.062-0.042,0.275,0.211,0.465
				s0.421,0.566-0.063,0.566s-0.59-0.104-0.716,0.148c-0.127,0.254-0.127,0.275,0.231,0.275c0.357,0,0.78,0.336,1.033,0.168
				s0.21-0.592,0.21-0.76C68.737,75.75,68.661,75.641,68.611,75.561z"/>
			<path style="fill:#010101;" d="M72.556,75.537c-0.375-0.104-0.718-0.146-0.654,0.273c0.062,0.422,0.422,0.252,0.781,0.297
				c0.357,0.041,0.651,0.084,0.547-0.15C73.124,75.729,72.747,75.592,72.556,75.537z"/>
			<path style="fill:#010101;" d="M57.793,70.309c-0.282,0.004-0.127,0.463,0.044,0.736c0.167,0.275,0.315,0.232,0.421,0.127
				c0.105-0.107,0.021-0.338-0.105-0.547C58.025,70.414,57.912,70.307,57.793,70.309z"/>
			<path style="fill:#010101;" d="M62.728,68.219c-0.257-0.115-0.421-0.209-0.484,0.043c-0.063,0.254,0.147,0.316,0.421,0.402
				c0.274,0.082,0.401,0.104,0.381-0.107C63.022,68.344,62.833,68.268,62.728,68.219z"/>
			<path style="fill:#010101;" d="M74.073,68.98c-0.401,0.484-0.317,0.611-0.295,1.094c0.021,0.488-0.4,0.676-0.695,0.59
				c-0.296-0.082-0.4-0.039-0.613,0.045c-0.21,0.082-0.674,0.146-0.736-0.02c-0.063-0.172-0.359-0.025-0.316-0.318
				c0.042-0.297,0.632-0.381,0.928-0.381c0.294,0,0.338-0.189,0.611-0.549c0.273-0.357,0.4-0.674,0.736-0.777
				c0.337-0.107,0.528-0.172,0.255-0.297c-0.275-0.125-0.255-0.377,0.104-0.484c0.358-0.105,0.485-0.02,0.78,0.314
				c0.297,0.34,0.443,0.508,0.043,0.529C74.474,68.746,74.073,68.98,74.073,68.98z"/>
			<path style="fill:#010101;" d="M77.953,72.521c-0.392-0.035-0.422,0.422-0.358,0.779c0.063,0.361,0.422,0.844,0.654,0.865
				c0.231,0.021,0.315-0.209,0.337-0.549c0.021-0.336,0.38-0.506,0.674-0.506c0.297,0,0.845,0.064,0.508-0.336
				c-0.338-0.4-0.422-0.781-0.612-0.613c-0.189,0.172-0.273,0.486-0.654,0.465C78.122,72.607,78.093,72.535,77.953,72.521z"/>
			<path style="fill:#010101;" d="M68.253,69.592c-0.238,0.303-0.147,0.482,0.021,0.482s0.316-0.127,0.316-0.461
				C68.591,69.273,68.305,69.525,68.253,69.592z"/>
			<ellipse style="fill:#010101;" cx="58.121" cy="64.266" rx="0.243" ry="0.158"/>
			<circle style="fill:#010101;" cx="58.848" cy="71.658" r="0.21"/>
			<circle style="fill:#010101;" cx="59.228" cy="71.406" r="0.105"/>
			<circle style="fill:#010101;" cx="58.268" cy="72.049" r="0.095"/>
			<circle style="fill:#010101;" cx="63.149" cy="72.988" r="0.084"/>
			<circle style="fill:#010101;" cx="63.635" cy="73.449" r="0.085"/>
			<circle style="fill:#010101;" cx="62.96" cy="73.617" r="0.085"/>
			<circle style="fill:#010101;" cx="60.061" cy="69.812" r="0.115"/>
			<circle style="fill:#010101;" cx="64.331" cy="68.324" r="0.126"/>
			<circle style="fill:#010101;" cx="64.71" cy="68.578" r="0.084"/>
			<path style="fill:#010101;" d="M66.714,70.594c0,0.041-0.033,0.07-0.075,0.07c-0.04,0-0.073-0.029-0.073-0.07
				c0-0.043,0.033-0.076,0.073-0.076C66.681,70.518,66.714,70.551,66.714,70.594z"/>
			<path style="fill:#010101;" d="M64.521,71.328c0,0.064-0.053,0.119-0.115,0.119c-0.064,0-0.116-0.055-0.116-0.119
				c0-0.061,0.052-0.111,0.116-0.111C64.468,71.217,64.521,71.268,64.521,71.328z"/>
			<circle style="fill:#010101;" cx="65.597" cy="72.1" r="0.105"/>
			<circle style="fill:#010101;" cx="66.312" cy="78.742" r="0.105"/>
			<circle style="fill:#010101;" cx="72.292" cy="76.875" r="0.116"/>
			<circle style="fill:#010101;" cx="72.777" cy="76.982" r="0.094"/>
			<circle style="fill:#010101;" cx="73.694" cy="77.434" r="0.125"/>
			<circle style="fill:#010101;" cx="72.808" cy="77.814" r="0.105"/>
			<circle style="fill:#010101;" cx="70.204" cy="68.693" r="0.158"/>
			<circle style="fill:#010101;" cx="70.425" cy="67.842" r="0.147"/>
			<circle style="fill:#010101;" cx="70.509" cy="65.396" r="0.126"/>
			<circle style="fill:#010101;" cx="72.85" cy="68.918" r="0.083"/>
			<path style="fill:#010101;" d="M74.073,67.377c0,0.07-0.058,0.125-0.126,0.125c-0.071,0-0.128-0.055-0.128-0.125
				c0-0.072,0.057-0.127,0.128-0.127C74.016,67.25,74.073,67.305,74.073,67.377z"/>
			<circle style="fill:#010101;" cx="76.172" cy="68.568" r="0.116"/>
			<circle style="fill:#010101;" cx="76.657" cy="68.947" r="0.116"/>
			<circle style="fill:#010101;" cx="68.053" cy="68.969" r="0.095"/>
			<path style="fill:#010101;" d="M69.328,69.969c0,0.059-0.047,0.105-0.104,0.105s-0.106-0.047-0.106-0.105
				c0-0.055,0.049-0.102,0.106-0.102S69.328,69.914,69.328,69.969z"/>
			<circle style="fill:#010101;" cx="67.599" cy="70.244" r="0.126"/>
			<circle style="fill:#010101;" cx="71.669" cy="69.695" r="0.105"/>
			<circle style="fill:#010101;" cx="71.037" cy="69.801" r="0.232"/>
			<circle style="fill:#010101;" cx="70.952" cy="68.98" r="0.232"/>
			<path style="fill:#010101;" d="M66.523,65.258c0,0.053-0.042,0.094-0.095,0.094c-0.052,0-0.095-0.041-0.095-0.094
				c0-0.055,0.043-0.096,0.095-0.096C66.481,65.162,66.523,65.203,66.523,65.258z"/>
			<path style="fill:#010101;" d="M66.502,66.004c0,0.061-0.047,0.107-0.104,0.107c-0.059,0-0.106-0.047-0.106-0.107
				c0-0.055,0.048-0.105,0.106-0.105C66.455,65.898,66.502,65.949,66.502,66.004z"/>
			<circle style="fill:#010101;" cx="63.571" cy="66.406" r="0.083"/>
			<path style="fill:#010101;" d="M69.812,69.105c0,0.129-0.07,0.232-0.157,0.232c-0.088,0-0.158-0.104-0.158-0.232
				c0-0.125,0.07-0.232,0.158-0.232C69.742,68.873,69.812,68.98,69.812,69.105z"/>
			<ellipse style="fill:#010101;" cx="73.114" cy="68.516" rx="0.243" ry="0.168"/>
			<ellipse style="fill:#010101;" cx="70.794" cy="66.365" rx="0.222" ry="0.127"/>
			<ellipse style="fill:#010101;" cx="77.311" cy="67.514" rx="0.284" ry="0.156"/>
			<ellipse style="fill:#010101;" cx="79.303" cy="66.975" rx="0.401" ry="0.232"/>
			<ellipse style="fill:#010101;" cx="76.076" cy="73.291" rx="0.189" ry="0.199"/>
			<ellipse style="fill:#010101;" cx="77.004" cy="72.785" rx="0.126" ry="0.139"/>
			<ellipse style="fill:#010101;" cx="78.48" cy="72.08" rx="0.105" ry="0.062"/>
			<ellipse style="fill:#010101;" cx="79.292" cy="73.512" rx="0.158" ry="0.213"/>
			<ellipse style="fill:#010101;" cx="79.936" cy="73.49" rx="0.084" ry="0.105"/>
			<ellipse style="fill:#010101;" cx="67.009" cy="75.654" rx="0.168" ry="0.24"/>
			<ellipse style="fill:#010101;" cx="65.765" cy="78.246" rx="0.105" ry="0.223"/>
			<ellipse style="fill:#010101;" cx="72.713" cy="65.479" rx="0.094" ry="0.146"/>
			<path style="fill:#010101;" d="M79.049,59.85c0,0.07-0.031,0.125-0.072,0.125s-0.074-0.055-0.074-0.125
				c0-0.072,0.033-0.127,0.074-0.127S79.049,59.777,79.049,59.85z"/>
			<path style="fill:#010101;" d="M79.873,59.428c0,0.045-0.028,0.082-0.065,0.082c-0.032,0-0.062-0.037-0.062-0.082
				c0-0.047,0.029-0.086,0.062-0.086C79.845,59.342,79.873,59.381,79.873,59.428z"/>
			<ellipse style="fill:#010101;" cx="79.609" cy="60.818" rx="0.095" ry="0.105"/>
			<ellipse style="fill:#010101;" cx="79.534" cy="79.469" rx="0.274" ry="0.266"/>
			<ellipse style="fill:#010101;" cx="80.379" cy="79.809" rx="0.084" ry="0.115"/>
			<circle style="fill:#010101;" cx="79.693" cy="80.145" r="0.095"/>
			<path style="fill:#010101;" d="M79.999,80.643c0,0.031-0.038,0.061-0.084,0.061c-0.047,0-0.085-0.029-0.085-0.061
				c0-0.039,0.038-0.064,0.085-0.064C79.961,80.578,79.999,80.604,79.999,80.643z"/>
			<path style="fill:#010101;" d="M80.525,80.748c0,0.078-0.052,0.145-0.116,0.145c-0.062,0-0.114-0.066-0.114-0.145
				c0-0.084,0.052-0.148,0.114-0.148C80.474,80.6,80.525,80.664,80.525,80.748z"/>
			<circle style="fill:#010101;" cx="80.041" cy="81.443" r="0.126"/>
			<ellipse style="fill:#010101;" cx="81.349" cy="81.949" rx="0.105" ry="0.082"/>
			<ellipse style="fill:#010101;" cx="86.199" cy="72.268" rx="0.127" ry="0.148"/>
			<path style="fill:#010101;" d="M86.938,72.439c0,0.078-0.054,0.146-0.116,0.146c-0.065,0-0.116-0.068-0.116-0.146
				c0-0.082,0.051-0.15,0.116-0.15C86.884,72.289,86.938,72.357,86.938,72.439z"/>
			<ellipse style="fill:#010101;" cx="89.109" cy="73.588" rx="0.148" ry="0.137"/>
			<ellipse style="fill:#010101;" cx="83.257" cy="75.115" rx="0.095" ry="0.148"/>
			<ellipse style="fill:#010101;" cx="83.499" cy="76.719" rx="0.106" ry="0.146"/>
			<ellipse style="fill:#010101;" cx="84.249" cy="76.676" rx="0.094" ry="0.107"/>
			<ellipse style="fill:#010101;" cx="94.792" cy="76.465" rx="0.095" ry="0.127"/>
			<circle style="fill:#010101;" cx="93.622" cy="76.633" r="0.084"/>
			<path style="fill:#010101;" d="M82.782,75.916c-0.185-0.092-0.421-0.188-0.421,0c0,0.191,0.083,0.295,0.315,0.422
				s0.506,0.191,0.592,0.045C83.353,76.232,82.934,75.992,82.782,75.916z"/>
			
				<ellipse transform="matrix(0.6754 0.7374 -0.7374 0.6754 84.08 -36.2909)" style="fill:#010101;" cx="83.268" cy="77.372" rx="0.158" ry="0.286"/>
			<path style="fill:#010101;" d="M92.693,76.844c-0.466-0.02-0.759-0.041-0.675,0.234c0.085,0.273,0.169,0,0.443,0.02
				c0.273,0.021,0.527,0,0.485-0.127S92.765,76.848,92.693,76.844z"/>
			<path style="fill:#010101;" d="M78.164,82.686c-0.45,0.217-0.379,0.443-0.147,0.443c0.232,0,0.443-0.082,0.464-0.336
				S78.238,82.65,78.164,82.686z"/>
			<path style="fill:#010101;" d="M97.945,73.555c-0.435,0.322-0.823,0.779-1.097,1.266c-0.274,0.486-0.359,0.654-0.738,0.887
				c-0.38,0.23-0.781,0.25-0.991,0.631c-0.211,0.381-0.021,0.719-0.253,1.141s-0.549,0.631-0.423,0.863
				c0.127,0.232,0.527,0.314,0.676,0.695c0.146,0.381-0.253,0.74-0.338,1.076c-0.084,0.34-0.063,0.676,0.127,0.99
				c0.19,0.318,0.38,0.74,0.548,0.719c0.17-0.023,0.78-0.379,1.076-0.93c0.294-0.547,0.611-1.516,0.905-1.834
				c0.296-0.316,0.486-0.549,0.718-0.381c0.232,0.172,0.422,0.486,0.506,0.299c0.085-0.191-0.104-0.635-0.104-0.908
				s0.104-0.254,0.104-0.615c0-0.355,0.062-0.609,0.381-0.715c0.316-0.105,0.504-0.42,0.504-0.949c0-0.525,0-1.096,0.171-1.496
				c0.167-0.4,0.357-1.012,0.253-1.328c-0.105-0.316-0.19-0.525-0.548-0.211c-0.36,0.316-0.424,0.482-0.718,0.482
				C98.409,73.236,98.111,73.434,97.945,73.555z"/>
			<path style="fill:#010101;" d="M94.359,75.729c-0.249-0.043-0.211,0.125-0.231,0.4s-0.042,0.504,0.169,0.441
				c0.21-0.062,0.295-0.273,0.295-0.508C94.592,75.832,94.461,75.746,94.359,75.729z"/>
			<path style="fill:#010101;" d="M91.302,74.842c0.169-0.242-0.169-0.402-0.38-0.801c-0.211-0.402-0.211-0.74-0.462-0.74
				c-0.255,0-0.234,0.465-0.635,0.51c-0.4,0.041-0.674,0.42-0.505,0.609c0.168,0.191,0.464,0.191,0.821,0.359
				c0.359,0.166,0.528,0.336,0.76,0.273C91.133,74.988,91.238,74.934,91.302,74.842z"/>
			<path style="fill:#010101;" d="M87.57,72.354c0.02,0.254-0.255,0.738,0.041,0.695c0.296-0.041,1.055-0.359,0.928-0.695
				c-0.127-0.338-0.231-0.359-0.591-0.359C87.59,71.994,87.57,72.354,87.57,72.354z"/>
			<path style="fill:#010101;" d="M87.064,70.855c-0.297,0.295-0.4,0.57-0.254,0.678c0.147,0.104,0.422-0.234,0.59-0.361
				c0.17-0.127,0.189-0.422,0-0.463C87.211,70.664,87.064,70.855,87.064,70.855z"/>
			<path style="fill:#010101;" d="M95.245,71.217c-0.336-0.039-0.611,0.25-0.632,0.461c-0.021,0.211-0.127,0.422,0.19,0.338
				c0.315-0.084,0.717-0.295,0.78-0.043c0.062,0.254,0.168,0.295,0.252,0.064c0.084-0.232,0.19-0.611-0.126-0.697
				C95.393,71.258,95.364,71.229,95.245,71.217z"/>
			<path style="fill:#010101;" d="M87.211,68.516c-0.64,0.279-0.822,0.611-1.096,0.906c-0.275,0.295-0.528,0.445-0.888,0.359
				c-0.357-0.086-0.441,0.273-0.422,0.676c0.021,0.398,0.148,1.033,0.422,0.928c0.274-0.107,0.254-0.254,0.359-0.676
				s0.211-0.654,0.676-0.676c0.463-0.02,0.652,0.17,0.948-0.043c0.296-0.209,0.97-0.717,1.392-0.949
				c0.422-0.23,1.096-0.295,1.203-0.463c0.104-0.17,0.02-0.527-0.296-0.588c-0.316-0.064-0.358-0.172-0.57-0.172
				c-0.21,0-0.294,0.277-0.568,0.34C88.097,68.219,87.49,68.391,87.211,68.516z"/>
			<path style="fill:#010101;" d="M87.169,67.25c-0.193,0.152-0.464,0.338-0.254,0.359c0.211,0.02,0.317,0.02,0.4,0.209
				c0.085,0.191,0.317,0.297,0.401,0.191s0-0.232-0.105-0.4c-0.104-0.168-0.062-0.232-0.169-0.381
				C87.338,67.082,87.223,67.207,87.169,67.25z"/>
			<path style="fill:#010101;" d="M85.144,65.797c-0.28-0.195-0.632-0.297-0.822-0.129c-0.189,0.168,0.148,0.379,0.232,0.549
				c0.085,0.17,0.273,0.357,0.273,0.652c0,0.297-0.041,0.846,0.17,0.973c0.21,0.127,0.146-0.105,0.527-0.275
				c0.378-0.17,0.337-0.17,0.568-0.232c0.233-0.064,0.274-0.465,0.064-0.695c-0.212-0.232-0.57-0.338-0.676-0.465
				C85.377,66.047,85.249,65.869,85.144,65.797z"/>
			<path style="fill:#010101;" d="M84.132,66.346c-0.269,0.098-0.254,0.314-0.083,0.375c0.168,0.064,0.59-0.02,0.463-0.209
				C84.385,66.32,84.229,66.309,84.132,66.346z"/>
			<path style="fill:#010101;" d="M80.146,61.473c-0.153,0.117-0.358,0.59-0.253,0.863s0.211,0.34,0.315,0.189
				c0.106-0.146,0.17-0.443,0.338-0.631c0.169-0.191,0.295-0.527,0.148-0.568C80.547,61.281,80.26,61.385,80.146,61.473z"/>
			<path style="fill:#010101;" d="M83.289,64.594c0.432,0.445,0.568,0.527,0.653,0.168s0.021-0.76-0.422-0.82
				c-0.442-0.066-0.653-0.043-0.653,0.145C82.867,64.275,83.174,64.475,83.289,64.594z"/>
			<path style="fill:#010101;" d="M82.234,62.25c0.209,0.039,0.737,0.023,0.737,0.254c0,0.234-0.062,0.361-0.484,0.299
				c-0.422-0.064-0.633-0.254-0.569-0.467C81.98,62.127,82.154,62.238,82.234,62.25z"/>
			<path style="fill:#010101;" d="M84.765,59.742c-0.337-0.02-0.548,0.127-0.4,0.254s0.084,0.232,0.4,0.148
				c0.315-0.086,0.463,0.041,0.4-0.148C85.101,59.805,84.883,59.752,84.765,59.742z"/>
			<ellipse style="fill:#010101;" cx="82.203" cy="61.188" rx="0.158" ry="0.285"/>
			<path style="fill:#010101;" d="M86.503,62.586c-0.061,0.154-0.179,0.25-0.265,0.217c-0.087-0.035-0.109-0.188-0.048-0.338
				c0.059-0.152,0.178-0.246,0.266-0.215C86.542,62.287,86.563,62.438,86.503,62.586z"/>
			<circle style="fill:#010101;" cx="86.294" cy="65.68" r="0.116"/>
			<circle style="fill:#010101;" cx="86.715" cy="68.02" r="0.137"/>
			<circle style="fill:#010101;" cx="84.975" cy="61.473" r="0.125"/>
			<circle style="fill:#010101;" cx="84.965" cy="60.85" r="0.115"/>
			<circle style="fill:#010101;" cx="73.726" cy="51.445" r="0.2"/>
			<circle style="fill:#010101;" cx="82.571" cy="63.686" r="0.126"/>
			<path style="fill:#010101;" d="M79.45,57.549c-0.211,0.402-0.041,0.568-0.19,0.738c-0.147,0.17-0.23,0.4-0.211,0.633
				c0.022,0.232,0.127,0.4,0.254,0.209c0.127-0.188,0.358-0.461,0.465-0.822c0.105-0.355,0.062-0.355-0.063-0.713
				C79.577,57.232,79.45,57.549,79.45,57.549z"/>
			<path style="fill:#010101;" d="M77.11,57.295c-0.328,0.219-0.632,0.844-1.203,0.844c-0.568,0-1.138-0.127-1.497-0.082
				c-0.358,0.041-0.801,0.482-0.905,0.779c-0.107,0.293-0.317,0.906-0.022,0.906c0.296,0,0.569-0.295,1.034-0.463
				c0.463-0.17,1.327-0.127,1.561-0.191c0.231-0.062,0.484-0.273,0.906-0.463c0.422-0.191,0.484-0.318,0.779-0.613
				c0.296-0.293,0.612-0.904,0.465-1.094C78.08,56.727,77.356,57.135,77.11,57.295z"/>
			<path style="fill:#010101;" d="M78.29,58.203c-0.191,0.141-0.168,0.295,0,0.316c0.17,0.02,0.549-0.213,0.464-0.359
				C78.671,58.012,78.385,58.135,78.29,58.203z"/>
			<path style="fill:#010101;" d="M80.146,58.307c-0.325,0.164-0.463,0.361-0.339,0.508c0.127,0.146,0.381,0.066,0.528-0.127
				c0.147-0.189,0.253-0.209,0.169-0.336C80.422,58.225,80.228,58.27,80.146,58.307z"/>
			<path style="fill:#010101;" d="M82.508,55.334c-0.428,0.043-0.675,0.148-0.949,0.275s-0.568,0.443-0.843,0.422
				s-0.653,0.105-0.653,0.441c0,0.34,0.126,0.572,0.316,0.572c0.189,0,0.526-0.338,0.865-0.338c0.337,0,0.863,0.02,1.117,0.314
				c0.252,0.297,0.591,0.611,0.864,0.465c0.273-0.148,0.465-0.42,0.632-0.568c0.17-0.148,0.654-0.445,0.57-0.633
				c-0.085-0.189-0.443-0.168-0.717-0.338c-0.275-0.17-0.465-0.527-0.717-0.57C82.74,55.334,82.63,55.322,82.508,55.334z"/>
			<path style="fill:#010101;" d="M68.253,60.986c-0.105,0.254,0,0.633,0.274,0.467c0.273-0.172,0.253-0.025,0.042-0.299
				S68.287,60.904,68.253,60.986z"/>
			<path style="fill:#010101;" d="M69.013,61.6c-0.304,0.15-0.297,0.422-0.212,0.422c0.086,0,0.443-0.045,0.591-0.086
				s0.127-0.148,0.084-0.336C69.435,61.408,69.116,61.545,69.013,61.6z"/>
			<path style="fill:#010101;" d="M64.794,61.303c-0.227-0.066-0.231,0.105-0.231,0.506s-0.021,0.465,0.19,0.465
				c0.21,0,0.252-0.252,0.252-0.57C65.005,61.389,64.902,61.334,64.794,61.303z"/>
			<path style="fill:#010101;" d="M65.68,62.137c0,0.131-0.075,0.242-0.168,0.242c-0.094,0-0.17-0.111-0.17-0.242
				c0-0.135,0.076-0.242,0.17-0.242C65.604,61.895,65.68,62.002,65.68,62.137z"/>
			<path style="fill:#010101;" d="M61.125,55.273c-0.476-0.32-0.717-0.17-0.844-0.445c-0.126-0.273-0.421-0.336-0.507-0.609
				c-0.084-0.275-0.167-0.633-0.378-0.361c-0.211,0.275-0.19,0.402-0.444,0.402c-0.251,0-0.273,0.127-0.273,0.381
				c0,0.252-0.063,0.334-0.127,0.547s-0.083,0.359,0.254,0.359s0.695-0.043,0.865,0.148c0.168,0.188,0.253,0.336,0.253,0.695
				c0,0.357-0.106,0.357,0.252,0.506c0.359,0.148,0.507,0.25,0.697,0.568c0.188,0.316,0.695,0.674,0.843,0.527
				c0.146-0.146-0.021-0.359,0.19-0.592c0.21-0.229,0.378-0.334,0.126-0.42c-0.253-0.084-0.38-0.107-0.316-0.4
				c0.063-0.295-0.021-0.463-0.19-0.676C61.358,55.695,61.281,55.377,61.125,55.273z"/>
			<path style="fill:#010101;" d="M73.104,44.095c-0.443-0.102-0.611-0.062-1.013,0.064c-0.4,0.127-0.738-0.127-0.738,0.254
				c0,0.376,0.148,0.651-0.021,0.969c-0.17,0.315-0.043,0.528,0.252,0.737c0.297,0.212,1.203,0.485,1.309,0.99
				c0.104,0.508,0,1.182-0.337,1.521c-0.338,0.336-0.675,0.778-0.675,1.052c0,0.275,0.168,0.508,0.421,0.654
				c0.254,0.147,0.337,0.339,0.695,0.442c0.359,0.106,0.528-0.062,0.738-0.209c0.212-0.147,0.549-0.086,0.718-0.233
				c0.168-0.146,0.211-0.463,0.189-0.757c-0.021-0.297,0.063-0.549,0.212-0.821c0.147-0.275,0.167-0.763,0.021-1.203
				c-0.147-0.445-0.211-1.268-0.147-1.688c0.063-0.422,0.021-0.885-0.296-0.905c-0.316-0.023-0.484-0.106-0.717-0.445
				C73.482,44.181,73.285,44.136,73.104,44.095z"/>
			<path style="fill:#010101;" d="M75.38,44.663c0.012,0.339,0.17,0.612,0.423,0.634s0.759-0.232,0.506-0.442
				c-0.253-0.212-0.422-0.085-0.675-0.36C75.38,44.222,75.379,44.588,75.38,44.663z"/>
			<path style="fill:#010101;" d="M69.392,44.621c-0.099-0.312-0.254-0.462-0.464-0.231c-0.212,0.231-0.717,0.15-0.738,0.273
				c-0.021,0.126,0.526,0.36,0.697,0.466c0.167,0.106,0.273,0.462,0.505,0.294C69.623,45.256,69.452,44.812,69.392,44.621z"/>
			<ellipse style="fill:#010101;" cx="68.168" cy="45.393" rx="0.126" ry="0.178"/>
			<ellipse style="fill:#010101;" cx="42.843" cy="56.801" rx="0.083" ry="0.096"/>
			<path style="fill:#010101;" d="M48.532,57.172c0.116,0.098,0.155,0.244,0.089,0.324c-0.068,0.078-0.216,0.066-0.332-0.033
				c-0.116-0.096-0.156-0.24-0.089-0.32S48.416,57.074,48.532,57.172z"/>
			<path style="fill:#010101;" d="M43.677,57.949c0.156-0.047,0.311,0.012,0.345,0.127c0.035,0.121-0.065,0.252-0.222,0.299
				c-0.156,0.043-0.31-0.012-0.345-0.133C43.42,58.127,43.52,57.994,43.677,57.949z"/>
			<path style="fill:#010101;" d="M45.583,55.65c0.306-0.264,0.507-0.822,0.338-1.074c-0.168-0.252-0.442-0.316-0.716-0.23
				c-0.275,0.082-0.063,0.209,0.041,0.379c0.105,0.168-0.169,0.273-0.358,0.295c-0.19,0.021-0.675,0.104-0.507,0.527
				c0.17,0.422,0.339,0.295,0.633,0.295C45.309,55.842,45.471,55.75,45.583,55.65z"/>
			<ellipse style="fill:#010101;" cx="52.996" cy="51.625" rx="0.159" ry="0.168"/>
			<ellipse style="fill:#010101;" cx="52.363" cy="52.393" rx="0.138" ry="0.182"/>
			<path style="fill:#010101;" d="M43.622,43.968c0.38,0.232,0.76,0.318,1.013,0.675c0.254,0.359,0.233,0.654,0.865,0.821
				c0.633,0.171,0.845,0.509,0.886,0.888c0.042,0.38,0.042,1.244,0.38,1.498c0.338,0.253,0.315,0.273,0.633,0.273
				c0.316,0,0.442,0.105,0.653,0.147c0.211,0.041,0.422,0.085,0.717-0.021c0.296-0.106,0.697,0.083,0.864,0.083
				c0.169,0,0.549-0.275,1.076-0.275c0.527,0,1.012,0.171,0.906,0.549c-0.104,0.38-0.211,0.654-0.104,0.74
				c0.104,0.084,0.463,0.084,0.526,0.421c0.063,0.339-0.041,0.507,0.253,0.634c0.295,0.126,0.401,0.315,0.465,0.463
				s0.421,0.106,0.591,0.233c0.168,0.127,0.231,0.568,0.168,0.781c-0.063,0.209-0.104,0.568,0.254,0.883
				c0.357,0.316,0.547,0.824,0.695,1.117c0.147,0.299,0.694,0.635,0.865,0.594c0.167-0.045-0.085-0.381-0.148-0.719
				s0.253-0.422,0.485-0.422c0.231,0,0.464,0.379,0.591,0.611c0.125,0.234,0.294,0.529,0.589,0.463
				c0.295-0.061,0.845-0.82,0.781-0.969c-0.062-0.148-0.273-0.908-0.085-1.098c0.189-0.188,0.36-0.863,0.232-0.906
				c-0.127-0.043-0.549,0.295-0.781,0.359c-0.231,0.062-0.675-0.273-0.949-0.273c-0.273,0-0.674,0.359-0.927,0.254
				c-0.253-0.107-0.547-0.57-0.78-0.782c-0.231-0.213-0.252-0.316-0.231-0.717c0.021-0.401,0.063-0.401-0.254-0.72
				c-0.317-0.313-0.254-0.589-0.317-0.822c-0.063-0.229-0.462-0.421-0.421-0.63c0.043-0.213,0.274-0.444,0.147-0.761
				c-0.125-0.315-0.041-0.821,0.022-0.99c0.063-0.168,0.084-0.273-0.381-0.527c-0.463-0.254-0.737-0.487-0.632-0.76
				c0.105-0.275,0.464-0.589-0.232-0.884c-0.695-0.296-1.56,0.062-1.898,0.168c-0.337,0.105-0.337,0.041-0.632-0.148
				s-0.738-0.085-1.033-0.401c-0.296-0.314-0.4-0.761-0.717-0.675c-0.315,0.086-1.076,0.508-1.351,0.233
				c-0.273-0.274-1.054-0.822-1.286-1.455c-0.231-0.635-0.315-1.31-0.59-1.31s-0.57-0.021-0.591-0.482
				c-0.02-0.466-0.317-0.822-0.675-0.822c-0.358,0-0.99,0.399-1.391,0.421c-0.401,0.02-0.698-0.064-0.907,0.041
				c-0.212,0.105-0.212,0.822-0.465,0.97c-0.252,0.148-1.308,0.633-1.623,0.802c-0.316,0.171-1.098,0.568-1.014,0.738
				c0.086,0.17,0.064,0.128,0.55,0.021c0.485-0.105,0.485,0.106,0.822-0.168c0.337-0.273,0.8-0.421,1.181-0.211
				c0.38,0.211,0.569-0.127,1.075,0.188c0.506,0.318,0.759,0.78,1.117,1.076C42.969,43.465,43.348,43.799,43.622,43.968z"/>
			<path style="fill:#010101;" d="M45.289,37.115c-0.274-0.105-0.464-0.064-0.507,0.254c-0.041,0.315-0.315,0.401-0.548,0.483
				c-0.231,0.084-0.463,0.4-0.295,0.634c0.168,0.231,0.274,0.105,0.568,0.314c0.297,0.212,0.549,0.169,0.592-0.083
				c0.043-0.253-0.127-0.612,0.21-0.719c0.338-0.104,0.57-0.355,0.381-0.526C45.5,37.305,45.289,37.115,45.289,37.115z"/>
			<path style="fill:#010101;" d="M46.344,36.989c-0.284,0.273-0.086,0.863,0.125,1.137c0.211,0.274,0.634,0.675,0.886,0.675
				c0.253,0,0.654-0.209,0.443-0.653c-0.211-0.441-0.612-0.252-0.718-0.59c-0.104-0.337-0.104-0.422-0.295-0.528
				C46.596,36.924,46.422,36.912,46.344,36.989z"/>
			<path style="fill:#010101;" d="M49.844,36.989c0.171-0.389,0.294-0.908,0.146-0.908c-0.146,0-0.358,0.422-0.505,0.613
				c-0.147,0.189-0.507,0.295-0.507,0.526s-0.042,0.485-0.147,0.675c-0.104,0.189-0.232,0.423-0.127,0.505
				c0.105,0.086,0.359-0.168,0.654-0.548S49.743,37.217,49.844,36.989z"/>
			<path style="fill:#010101;" d="M51.741,34.752c-0.264-0.183-0.506-0.104-0.675,0.319c-0.167,0.42-0.231,0.63-0.167,0.928
				c0.063,0.293,0.209,0.377,0.315,0.336c0.105-0.043,0.484-0.462,0.696-0.823C52.12,35.153,51.9,34.862,51.741,34.752z"/>
			<path style="fill:#010101;" d="M52.542,33.847c-0.142,0.257-0.59,0.737-0.422,0.822c0.169,0.083,0.634-0.126,0.717-0.506
				c0.085-0.381,0.127-0.57,0.044-0.61C52.795,33.509,52.597,33.749,52.542,33.847z"/>
			<path style="fill:#010101;" d="M53.934,34.73c-0.223-0.064-0.357,0.296-0.211,0.468c0.147,0.167,0.444-0.021,0.444-0.172
				C54.167,34.879,54.024,34.757,53.934,34.73z"/>
			<path style="fill:#010101;" d="M50.181,37.178c-0.207,0.119-0.38,0.759-0.231,0.759c0.147,0,0.358-0.19,0.422-0.505
				C50.434,37.115,50.25,37.139,50.181,37.178z"/>
			<path style="fill:#010101;" d="M51.721,38.297c-0.179,0.036-0.211,0.524-0.063,0.778c0.146,0.254,0.401,0.172,0.421-0.082
				c0.021-0.255-0.062-0.298,0.042-0.444C52.226,38.4,51.836,38.271,51.721,38.297z"/>
			<path style="fill:#010101;" d="M57.139,40.637c-0.142-0.391-0.632-0.801-0.927-0.567c-0.297,0.229-0.106,0.589-0.189,0.843
				c-0.085,0.252-0.381,0.42-0.211,0.548c0.168,0.127,0.316,0.105,0.316,0.336c0,0.231,0.062,0.339,0.294,0.339
				c0.232,0,0.485,0.105,0.465,0.357c-0.022,0.253-0.169,0.442-0.169,0.674c0,0.233-0.021,0.299,0.232,0.275
				c0.253-0.021,0.612-0.231,0.928-0.084c0.316,0.148,0.506-0.423,0.422-0.633c-0.085-0.21-0.253-0.508-0.274-0.718
				c-0.021-0.211-0.337-0.146-0.547-0.293c-0.213-0.148-0.213-0.467-0.213-0.55C57.266,41.08,57.186,40.764,57.139,40.637z"/>
			<ellipse style="fill:#010101;" cx="50.181" cy="38.695" rx="0.106" ry="0.126"/>
			<ellipse style="fill:#010101;" cx="50.718" cy="39.415" rx="0.095" ry="0.126"/>
			<ellipse style="fill:#010101;" cx="51.256" cy="39.044" rx="0.063" ry="0.117"/>
			<path style="fill:#010101;" d="M55.748,39.232c0,0.089-0.062,0.162-0.138,0.162s-0.137-0.073-0.137-0.162
				c0-0.085,0.061-0.157,0.137-0.157S55.748,39.147,55.748,39.232z"/>
			<ellipse style="fill:#010101;" cx="54.967" cy="42.018" rx="0.189" ry="0.285"/>
			<ellipse style="fill:#010101;" cx="55.696" cy="42.322" rx="0.095" ry="0.148"/>
			
				<ellipse transform="matrix(0.9546 0.2979 -0.2979 0.9546 15.2972 -14.7795)" style="fill:#010101;" cx="56.127" cy="42.787" rx="0.169" ry="0.297"/>
			<path style="fill:#010101;" d="M57.856,43.713c0,0.097-0.057,0.172-0.127,0.172c-0.069,0-0.127-0.075-0.127-0.172
				c0-0.09,0.058-0.166,0.127-0.166C57.8,43.547,57.856,43.623,57.856,43.713z"/>
			<path style="fill:#010101;" d="M49.549,21.405c0.019-0.363-0.508-0.591-0.612-0.402C48.832,21.195,49,21.47,49.19,21.531
				S49.543,21.499,49.549,21.405z"/>
			<path style="fill:#010101;" d="M56.401,14.467c-0.373,0.184-0.379,0.315-0.4,0.717c-0.021,0.4-0.232,0.843-0.086,1.117
				c0.149,0.276,0.655,0.338,0.739,0.633c0.086,0.296,0.296,0.401,0.506,0.339c0.212-0.064,0.528-0.528,0.844-0.528
				c0.317,0,0.611-0.399,0.548-0.78c-0.063-0.38-0.041-0.949-0.357-1.056c-0.316-0.104-0.632-0.229-0.738-0.421
				c-0.104-0.188-0.296-0.315-0.569-0.21C56.613,14.382,56.519,14.409,56.401,14.467z"/>
			<path style="fill:#010101;" d="M67.494,18.452c-0.247-0.172-0.802,0.146-1.076,0.19c-0.274,0.042-0.337,0.254-0.316,0.482
				c0.021,0.233,0.212,0.423,0.485,0.423c0.275,0,0.485,0.318,0.78,0.318c0.296,0,0.718-0.146,1.013-0.254
				c0.294-0.105,0.464-0.466,0.189-0.738c-0.274-0.275-0.527-0.169-0.738-0.231C67.621,18.577,67.572,18.508,67.494,18.452z"/>
			<path style="fill:#010101;" d="M63.107,25.2c-0.506,0.011-1.16,0.315-1.224,0.675c-0.062,0.359,0,0.675-0.062,1.117
				c-0.063,0.445-0.042,0.695,0.316,0.633c0.359-0.064,0.821-0.486,0.991-0.338c0.168,0.15-0.106,0.445,0,0.592
				c0.104,0.147,0.591,0.381,0.779,0.21c0.19-0.169-0.062-0.422-0.127-0.823c-0.062-0.4-0.251-0.589,0.043-0.589
				c0.295,0,0.443,0.254,0.611,0.483c0.169,0.233,0.169,0.613,0.381,0.676c0.21,0.064,0.822,0.318,0.759,0
				c-0.063-0.315-0.274-0.737-0.106-0.991c0.17-0.253,0.211-0.441,0.233-0.695c0.021-0.254,0.273-0.442,0.505-0.61
				c0.233-0.17,0.19-0.612,0.063-0.781c-0.127-0.167-0.273-0.4-0.652,0.128c-0.381,0.526-0.443,0.716-0.675,0.97
				c-0.233,0.253-0.486,0.441-0.676,0.146c-0.19-0.294-0.148-0.589-0.443-0.694C63.53,25.2,63.289,25.197,63.107,25.2z"/>
			<path style="fill:#010101;" d="M61.378,31.823c-0.265,0.358-0.442,0.589-0.338,0.948c0.107,0.357,0.127,0.484,0.296,0.484
				s0.169-0.443,0.507-0.651c0.337-0.213,0.801-0.446,0.505-0.72c-0.294-0.274-0.379-0.294-0.568-0.38
				C61.589,31.421,61.453,31.72,61.378,31.823z"/>
			<path style="fill:#010101;" d="M75.129,33.214c-0.371,0.104-0.444,0-0.444,0.441c0,0.445,0.063,0.908-0.4,0.908
				c-0.465,0-0.759-0.106-0.992,0.085c-0.231,0.189-0.632,0.505-1.053,0.505c-0.422,0-0.95,0.023-1.14,0.466
				c-0.19,0.44-0.127,0.63-0.274,0.862c-0.147,0.234,0.043,0.34,0.233,0.382c0.188,0.04,0.632,0.462,1.117,0.633
				c0.484,0.169,1.286,0,1.455-0.191c0.168-0.189,0.398-0.716,0.717-1.159c0.316-0.444,0.864-0.675,1.202-0.592
				c0.337,0.085,0.379,0.527,0.041,0.738c-0.336,0.211-0.633,0.316-0.675,0.55c-0.041,0.232-0.231,0.507-0.484,0.675
				s-0.402,0.695,0.042,0.822c0.442,0.126,0.97,0.169,1.244,0.169s0.527,0.272,0.761,0.44c0.23,0.172,0.632,0.254,1.053,0.213
				c0.422-0.041,1.371-0.064,1.033-0.508c-0.337-0.441-0.843-0.988-0.716-1.181c0.126-0.189,0.611-0.549,0.737-0.062
				c0.126,0.485,0.653,0.843,0.78,0.507c0.127-0.338-0.295-0.675-0.295-0.675s0.063-0.507-0.189-0.591
				c-0.254-0.084-0.254-0.084-0.254-0.084s-0.168-0.508-0.779-0.802c-0.611-0.295-0.865-0.675-0.781-0.97s0.359-0.421,0-0.719
				c-0.358-0.295-0.337-0.609-0.611-0.675c-0.274-0.062-0.549,0.065-0.865-0.123C75.275,33.087,75.24,33.183,75.129,33.214z"/>
			<circle style="fill:#010101;" cx="70.499" cy="36.198" r="0.116"/>
			<circle style="fill:#010101;" cx="74.168" cy="34.09" r="0.116"/>
			<circle style="fill:#010101;" cx="77.5" cy="35.016" r="0.116"/>
			<ellipse style="fill:#010101;" cx="46.47" cy="61.977" rx="0.106" ry="0.127"/>
			<ellipse style="fill:#010101;" cx="47.07" cy="61.895" rx="0.137" ry="0.127"/>
			<ellipse style="fill:#010101;" cx="43.296" cy="64.656" rx="0.179" ry="0.232"/>
			<circle style="fill:#010101;" cx="44.266" cy="64.793" r="0.116"/>
			<ellipse style="fill:#010101;" cx="41.24" cy="64.697" rx="0.273" ry="0.232"/>
			<ellipse style="fill:#010101;" cx="50.17" cy="70.223" rx="0.179" ry="0.213"/>
			<ellipse style="fill:#010101;" cx="47.218" cy="72.186" rx="0.306" ry="0.189"/>
			<ellipse style="fill:#010101;" cx="54.219" cy="71.258" rx="0.179" ry="0.275"/>
			<ellipse style="fill:#010101;" cx="55.78" cy="71.172" rx="0.095" ry="0.168"/>
			<circle style="fill:#010101;" cx="53.102" cy="74.957" r="0.116"/>
			<path style="fill:#010101;" d="M51.932,97.068c-0.192,0.08-0.064,0.463,0.104,0.633s0.338,0.17,0.443,0.021
				c0.104-0.146,0.021-0.359-0.147-0.508C52.163,97.068,52.03,97.027,51.932,97.068z"/>
			<path style="fill:#010101;" d="M53.449,98.605c-0.279,0.09-0.338,0.34-0.549,0.34c-0.21,0-0.358,0.082-0.358,0.232
				c0,0.148,0.339,0.211,0.443,0.357c0.105,0.146,0.296,0.295,0.464,0.295c0.169,0,0.464-0.168,0.338-0.355
				c-0.128-0.193-0.169-0.383-0.044-0.488c0.127-0.105,0.17-0.336,0.023-0.381C53.618,98.566,53.524,98.584,53.449,98.605z"/>
		</g>
		<circle style="fill:#010101;" cx="48.334" cy="55.053" r="1.204"/>
	</g>
</g>
<g id="Layer_1">
</g>
</svg>
