<?xml version="1.0" encoding="iso-8859-1"?>
<!-- Generator: Adobe Illustrator 16.0.3, SVG Export Plug-In . SVG Version: 6.00 Build 0)  -->
<!DOCTYPE svg PUBLIC "-//W3C//DTD SVG 1.1//EN" "http://www.w3.org/Graphics/SVG/1.1/DTD/svg11.dtd">
<svg version="1.1" xmlns="http://www.w3.org/2000/svg" xmlns:xlink="http://www.w3.org/1999/xlink" x="0px" y="0px" width="100px"
	 height="100px" viewBox="0 0 100 100" style="enable-background:new 0 0 100 100;" xml:space="preserve">
<g id="GT">
	<g>
		<path style="fill:#010101;" d="M50.66,98.921c-3.288-1.365-5.895-2.343-6.027-2.261c-0.058,0.034-0.128-0.03-0.158-0.145
			c-0.04-0.154-0.214-0.244-0.658-0.342c-0.332-0.074-0.723-0.196-0.869-0.273c-0.843-0.442-3.33-0.51-11.649-0.316l-3.404,0.079
			l-0.806-0.278c-0.443-0.153-0.926-0.278-1.072-0.278c-0.24,0-0.98-0.232-2.165-0.681c-0.234-0.089-0.594-0.163-0.8-0.166
			c-0.238-0.002-0.639-0.159-1.102-0.431c-0.4-0.232-0.771-0.425-0.822-0.425c-0.052,0-0.095-0.048-0.095-0.106
			s-0.141-0.106-0.312-0.106c-0.172,0-0.34-0.044-0.374-0.099c-0.093-0.15-1.969-1.042-2.461-1.17
			c-0.288-0.075-0.474-0.197-0.55-0.365c-0.131-0.289-1.076-0.979-1.94-1.419c-0.322-0.164-0.649-0.357-0.727-0.431
			c-0.077-0.074-0.227-0.134-0.333-0.134c-0.105,0-0.25-0.069-0.322-0.155c-0.071-0.086-0.427-0.323-0.791-0.526
			c-0.364-0.203-0.851-0.546-1.081-0.761c-0.23-0.214-0.562-0.453-0.738-0.529c-0.176-0.076-0.486-0.314-0.691-0.528
			c-0.205-0.215-0.513-0.464-0.686-0.554s-0.568-0.405-0.879-0.698c-0.311-0.295-0.597-0.505-0.635-0.467
			c-0.037,0.037-0.135-0.027-0.217-0.144C8.214,85.096,8.08,85,7.995,85s-0.154-0.049-0.154-0.108c0-0.132-0.493-0.918-0.784-1.248
			c-0.139-0.158-0.33-0.239-0.564-0.239c-0.195,0-0.354-0.037-0.354-0.084c0-0.046-0.323-0.293-0.719-0.549
			c-0.395-0.256-1.029-0.758-1.41-1.113c-0.381-0.356-0.941-0.839-1.245-1.073c-0.428-0.329-0.539-0.473-0.491-0.638
			c0.069-0.243,0.397-0.586,0.561-0.586c0.161,0,0.75-0.848,0.75-1.08c0-0.178,0.281-0.899,0.541-1.392
			c0.124-0.235,0.126-1.091,0.003-1.332c-0.243-0.479-0.325-0.761-0.378-1.303c-0.143-1.446-0.141-1.461,0.285-1.997l0.397-0.502
			l0.002-1.287c0.001-1.174,0.021-1.304,0.226-1.489c0.124-0.112,0.267-0.311,0.317-0.442c0.065-0.17,0.178-0.239,0.395-0.239
			c0.479,0,0.766-0.387,0.766-1.035c0-0.298-0.042-0.559-0.093-0.578c-0.05-0.02-0.442-0.538-0.869-1.152
			c-0.428-0.614-0.817-1.134-0.865-1.152c-0.049-0.02-0.088-0.104-0.088-0.187s-0.043-0.15-0.094-0.15
			c-0.052,0-0.179-0.179-0.282-0.396s-0.241-0.452-0.305-0.521c-0.472-0.5-0.503-0.58-0.361-0.899
			c0.075-0.172,0.163-0.312,0.194-0.312c0.032,0,0.151-0.215,0.267-0.478s0.246-0.479,0.29-0.479
			c0.043-0.001,0.079-0.053,0.079-0.115s0.137-0.314,0.305-0.559c0.168-0.244,0.338-0.552,0.379-0.684s0.12-0.24,0.175-0.24
			c0.054,0,0.099-0.07,0.099-0.158c0-0.089,0.048-0.16,0.106-0.16c0.059,0,0.107-0.097,0.107-0.213c0-0.117,0.048-0.213,0.106-0.213
			c0.058,0,0.106-0.071,0.106-0.159c0-0.089,0.042-0.16,0.094-0.16c0.051,0,0.121-0.083,0.153-0.186
			c0.075-0.235,0.708-1.339,0.807-1.41c0.041-0.028,0.169-0.245,0.285-0.479c0.116-0.234,0.346-0.636,0.511-0.895
			c0.293-0.458,0.718-1.205,0.956-1.685c0.065-0.131,0.155-0.238,0.199-0.239c0.043,0,0.08-0.051,0.08-0.111
			s0.167-0.359,0.372-0.664c0.205-0.304,0.373-0.613,0.373-0.687c0-0.074,0.048-0.135,0.106-0.135c0.058,0,0.106-0.071,0.106-0.159
			s0.039-0.159,0.086-0.159c0.048,0,0.153-0.17,0.234-0.378c0.082-0.208,0.21-0.429,0.286-0.492
			c0.075-0.062,0.138-0.182,0.138-0.265c0-0.083,0.095-0.253,0.213-0.379c0.116-0.125,0.212-0.291,0.212-0.368
			c0-0.076,0.047-0.139,0.106-0.139c0.059,0,0.106-0.072,0.106-0.16c0-0.087,0.037-0.16,0.081-0.161
			c0.043,0,0.174-0.204,0.291-0.452c0.116-0.248,0.236-0.475,0.266-0.503c0.083-0.081,0.398-0.634,0.667-1.171
			c0.131-0.263,0.275-0.494,0.319-0.514c0.043-0.02,0.08-0.104,0.08-0.187c0-0.083,0.047-0.15,0.106-0.15
			c0.059,0,0.106-0.073,0.106-0.16c0-0.088,0.048-0.16,0.106-0.16s0.106-0.068,0.106-0.15c0-0.083,0.038-0.167,0.084-0.187
			c0.09-0.038,0.254-0.328,0.995-1.764l0.453-0.878l14.261-0.01c7.843-0.006,14.662-0.042,15.153-0.081
			c1.062-0.082,1.284-0.258,0.875-0.693c-0.26-0.277-0.244-0.575,0.045-0.815c0.19-0.158,0.205-0.699,0.022-0.816
			c-0.073-0.046-0.195-0.196-0.271-0.332c-0.114-0.203-0.114-0.303-0.001-0.559c0.077-0.172,0.199-0.312,0.272-0.312
			c0.236,0,0.142-0.385-0.13-0.531l-0.265-0.141l0.329-0.314c0.295-0.281,0.315-0.34,0.197-0.561
			c-0.154-0.288-0.075-0.58,0.159-0.58c0.09,0,0.163-0.063,0.163-0.14s0.168-0.206,0.373-0.286c0.427-0.167,0.486-0.439,0.147-0.677
			c-0.254-0.179-0.186-0.387,0.13-0.387c0.186,0,0.202-0.048,0.139-0.399c-0.086-0.481-0.218-0.665-0.476-0.665
			c-0.106,0-0.226-0.053-0.267-0.118c-0.071-0.116-0.547-0.082-0.923,0.067c-0.142,0.056-0.187,0.02-0.187-0.15
			c0-0.126-0.068-0.225-0.157-0.225c-0.086,0-0.197-0.154-0.248-0.345c-0.09-0.333-0.111-0.345-0.588-0.32
			c-0.419,0.022-0.496-0.004-0.496-0.168c0-0.106-0.12-0.259-0.268-0.337c-0.234-0.125-0.284-0.12-0.404,0.044
			c-0.13,0.178-0.157,0.178-0.548-0.008c-0.285-0.136-0.423-0.158-0.452-0.073c-0.03,0.087-0.13,0.078-0.355-0.035
			c-0.362-0.18-0.411-0.354-0.102-0.354c0.157,0,0.213-0.071,0.213-0.266c0-0.231-0.047-0.266-0.361-0.266h-0.36l0.043-0.745
			c0.037-0.639,0.018-0.745-0.132-0.745c-0.142,0-0.163-0.073-0.113-0.385c0.048-0.301,0.005-0.469-0.199-0.77
			c-0.177-0.26-0.262-0.531-0.262-0.839c0-0.249-0.047-0.454-0.106-0.454c-0.058,0-0.106-0.072-0.106-0.16
			c0-0.098-0.1-0.159-0.262-0.159c-0.217,0-0.282-0.076-0.38-0.442c-0.129-0.477-0.497-0.899-1.006-1.153
			c-0.176-0.088-0.384-0.221-0.462-0.295c-0.079-0.074-0.282-0.208-0.452-0.295c-0.169-0.087-0.31-0.23-0.31-0.316
			c0-0.108-0.115-0.157-0.368-0.157c-0.202,0-0.583-0.119-0.845-0.266c-0.262-0.146-0.577-0.266-0.699-0.266
			s-0.504-0.226-0.848-0.502c-0.507-0.405-0.608-0.536-0.529-0.684c0.137-0.256,0.123-0.37-0.069-0.562
			c-0.242-0.242-0.458-0.206-0.597,0.099c-0.163,0.355-0.265,0.353-1.017-0.037c-0.131-0.067-0.399-0.123-0.595-0.123
			c-0.4,0-0.604-0.289-0.604-0.855c0-0.173-0.048-0.314-0.106-0.314s-0.106-0.11-0.106-0.245c0-0.293-0.185-0.5-0.445-0.5
			c-0.121,0-0.214-0.107-0.254-0.292c-0.176-0.796-0.197-0.823-0.686-0.858c-0.255-0.019-0.593-0.125-0.75-0.237
			s-0.411-0.25-0.565-0.31c-0.154-0.059-0.28-0.16-0.28-0.226c0-0.116-0.238-0.708-0.435-1.081
			c-0.053-0.102-0.097-0.251-0.097-0.333c0-0.084-0.152-0.178-0.346-0.215c-0.367-0.07-0.611-0.423-0.611-0.883
			c0-0.135-0.049-0.245-0.106-0.245c-0.059,0-0.107-0.062-0.107-0.138c0-0.09-0.282-0.18-0.824-0.261
			c-0.901-0.134-1.407-0.325-1.409-0.532c0-0.073-0.073-0.133-0.16-0.133s-0.16-0.048-0.16-0.106c0-0.059-0.144-0.107-0.319-0.107
			c-0.176,0-0.319-0.036-0.319-0.08c0-0.044-0.144-0.144-0.319-0.222c-0.265-0.117-0.319-0.203-0.319-0.504v-0.364h5.302h5.303
			l0.084-1.303c0.045-0.717,0.113-3.793,0.149-6.835l0.065-5.532l21.676-0.027L75.714,0v10.211c0,6.137-0.042,10.498-0.104,10.931
			c-0.058,0.396-0.16,1.917-0.228,3.379c-0.181,3.925-0.368,7.094-0.838,14.202c-0.061,0.907-0.135,2.822-0.166,4.255
			c-0.031,1.434-0.103,2.726-0.157,2.873s-0.095,0.362-0.089,0.479c0.005,0.116-0.025,0.368-0.068,0.558
			c-0.072,0.317-0.057,0.346,0.181,0.346c0.143,0,0.367-0.101,0.499-0.224c0.195-0.183,0.32-0.21,0.685-0.155
			c1.177,0.18,1.482,0.188,1.574,0.044c0.067-0.106,0.093-0.109,0.094-0.011c0,0.073,0.097,0.132,0.214,0.132
			c0.116,0,0.213-0.047,0.213-0.106c0-0.131,1.135-0.143,1.216-0.013c0.031,0.052,0.656,0.129,1.388,0.17
			c1.276,0.074,1.338,0.089,1.536,0.359c0.19,0.263,0.272,0.285,1.25,0.339c1.182,0.064,1.004-0.009,3.388,1.423
			c1.967,1.183,2.185,1.363,1.988,1.636c-0.313,0.437-0.375,0.649-0.236,0.816c0.207,0.25,0.415,0.196,0.825-0.214
			c0.345-0.346,0.37-0.412,0.312-0.838c-0.052-0.375-0.024-0.498,0.147-0.651c0.194-0.177,0.317-0.504,0.474-1.256
			c0.048-0.236,0.102-0.285,0.244-0.222c0.1,0.044,0.356,0.101,0.569,0.126c0.325,0.039,0.401,0.009,0.462-0.182
			c0.09-0.286-0.084-0.504-0.47-0.588c-0.175-0.039-0.49-0.289-0.764-0.606c-0.258-0.298-0.719-0.704-1.025-0.903
			c-0.794-0.513-0.762-0.916,0.071-0.916c0.437,0,1.205,0.427,1.39,0.771c0.222,0.415,1.963,1.582,3.584,2.401
			c1.005,0.508,1.747,0.954,1.91,1.148c0.361,0.43,1.086,0.974,1.563,1.173c0.301,0.126,0.391,0.224,0.391,0.427
			c0,0.358-0.182,0.812-0.325,0.812c-0.063,0-0.188,0.07-0.275,0.159c-0.096,0.095-0.257,0.135-0.403,0.098
			c-0.145-0.035-0.306,0.003-0.398,0.096c-0.096,0.095-0.268,0.135-0.441,0.102c-0.331-0.062-0.604,0.122-0.604,0.409
			c0,0.109-0.048,0.199-0.106,0.199c-0.058,0-0.106,0.12-0.106,0.267c0,0.146-0.052,0.266-0.114,0.266s-0.175,0.06-0.25,0.134
			c-0.076,0.072-0.324,0.275-0.552,0.452c-0.463,0.356-1.031,0.88-2.316,2.127c-1.333,1.294-2.086,1.969-2.197,1.969
			c-0.057,0-0.102,0.062-0.102,0.139c0,0.077-0.228,0.197-0.512,0.271c-0.362,0.093-0.562,0.216-0.684,0.419
			c-0.288,0.482-0.843,1.016-1.603,1.542c-0.398,0.275-0.759,0.502-0.801,0.502c-0.043,0-0.146,0.095-0.231,0.213
			c-0.085,0.116-0.217,0.212-0.294,0.212s-0.198,0.048-0.27,0.105c-0.359,0.294-1.167,0.863-1.729,1.22
			c-0.806,0.51-1.111,0.793-1.111,1.023c0,0.136-0.061,0.169-0.224,0.126c-0.123-0.031-0.255-0.011-0.293,0.048
			c-0.038,0.058-0.312,0.293-0.609,0.521c-0.298,0.228-0.729,0.558-0.958,0.734c-0.229,0.175-0.433,0.354-0.452,0.398
			s-0.104,0.08-0.186,0.08c-0.083,0-0.15,0.047-0.15,0.105c0,0.06-0.086,0.106-0.19,0.106c-0.215,0-1.262,0.353-1.37,0.462
			c-0.04,0.039-0.16,0.07-0.268,0.07s-0.28,0.042-0.381,0.094c-0.347,0.176-0.717,0.315-1.01,0.379
			c-0.161,0.035-0.293,0.11-0.293,0.167c0,0.059-0.067,0.105-0.151,0.105c-0.083,0-0.251,0.126-0.372,0.28
			c-0.312,0.396-0.316,1.515-0.008,1.794c0.405,0.367,0.191,1.303-0.392,1.714c-1.058,0.748-1.241,1.358-0.606,2.029
			c0.613,0.647,0.966,1.222,1.047,1.71c0.042,0.248,0.12,0.452,0.173,0.452c0.054,0,0.098,0.061,0.098,0.135
			s0.084,0.216,0.187,0.312c0.252,0.238,0.452,0.487,0.452,0.564c0,0.035-0.114,0.23-0.253,0.435
			c-0.231,0.341-0.248,0.45-0.198,1.313c0.049,0.863,0.034,0.964-0.18,1.192c-0.21,0.225-0.33,0.251-1.198,0.262
			c-1.02,0.013-1.105,0.055-1.26,0.62c-0.031,0.112-0.197,0.283-0.369,0.379c-0.173,0.096-0.43,0.398-0.57,0.672
			c-0.168,0.325-0.326,0.498-0.457,0.498c-0.371,0-0.941,0.41-0.941,0.678c0,0.087-0.045,0.279-0.101,0.426
			c-0.091,0.239-0.127,0.253-0.371,0.139c-0.149-0.068-0.271-0.209-0.271-0.312c-0.001-0.135-0.087-0.187-0.32-0.187
			c-0.235,0-0.319,0.051-0.319,0.189c0,0.286-0.305,0.662-0.537,0.662c-0.114,0-0.207-0.048-0.207-0.106
			c0-0.17-0.756-0.111-1.273,0.099c-0.437,0.178-0.485,0.235-0.597,0.712l-0.121,0.52l-0.201-0.451
			c-0.168-0.375-0.252-0.451-0.501-0.452c-0.479-0.002-0.604,0.213-0.604,1.04c0,0.634,0.036,0.775,0.261,1.018
			c0.144,0.155,0.335,0.282,0.426,0.282s0.164,0.047,0.164,0.106c0,0.059,0.067,0.105,0.149,0.105c0.098,0,0.165,0.158,0.195,0.452
			c0.025,0.249,0.124,0.625,0.218,0.837c0.172,0.381,0.172,0.384-0.114,0.531c-0.159,0.081-0.312,0.173-0.342,0.201
			c-0.028,0.029-0.257,0.158-0.507,0.288c-0.383,0.199-0.562,0.226-1.134,0.172c-0.585-0.055-0.724-0.032-0.998,0.164
			c-0.176,0.125-0.371,0.228-0.436,0.228s-0.117,0.048-0.117,0.106s-0.06,0.107-0.133,0.109c-0.151,0.005-0.603,0.625-0.83,1.141
			c-0.084,0.19-0.189,0.346-0.232,0.346c-0.045,0-0.081,0.095-0.081,0.213c0,0.116-0.048,0.212-0.105,0.212
			c-0.06,0-0.107,0.091-0.107,0.202c0,0.11-0.072,0.229-0.159,0.263c-0.177,0.067-0.223,0.493-0.054,0.493
			c0.059,0,0.106,0.071,0.106,0.159s0.061,0.161,0.133,0.163c0.075,0.002,0.043,0.072-0.073,0.16
			c-0.233,0.177-0.804,0.211-0.804,0.049c0-0.058-0.092-0.106-0.204-0.106s-0.224-0.058-0.247-0.129
			c-0.03-0.092-0.309-0.122-0.938-0.104c-0.77,0.022-0.928,0.061-1.121,0.264c-0.324,0.343-0.886,0.828-1.373,1.188
			c-0.234,0.173-0.497,0.388-0.585,0.479c-0.088,0.091-0.296,0.235-0.464,0.322c-0.349,0.18-1.131,1.028-1.131,1.228
			c0,0.073-0.156,0.206-0.346,0.298c-0.19,0.091-0.594,0.396-0.896,0.677l-0.549,0.512l0.038,0.745
			c0.027,0.541,0.112,0.885,0.31,1.256c0.149,0.28,0.272,0.532,0.272,0.559C53.693,100.121,52.909,99.854,50.66,98.921L50.66,98.921
			z"/>
	</g>
</g>
<g id="Layer_1">
</g>
</svg>
