<?xml version="1.0" encoding="iso-8859-1"?>
<!-- Generator: Adobe Illustrator 16.0.3, SVG Export Plug-In . SVG Version: 6.00 Build 0)  -->
<!DOCTYPE svg PUBLIC "-//W3C//DTD SVG 1.1//EN" "http://www.w3.org/Graphics/SVG/1.1/DTD/svg11.dtd">
<svg version="1.1" xmlns="http://www.w3.org/2000/svg" xmlns:xlink="http://www.w3.org/1999/xlink" x="0px" y="0px" width="100px"
	 height="100px" viewBox="0 0 100 100" style="enable-background:new 0 0 100 100;" xml:space="preserve">
<g id="HR">
	<path style="fill-rule:evenodd;clip-rule:evenodd;fill:#010101;" d="M48.207,1.318c0.995,0.416,1.303,1.149,2.691,1.906
		c0.181,0.1,0.45-0.17,0.56-0.224c1.177,0.423,2.343,0.951,2.917,2.579c0.334-0.074,0.671-0.149,1.008-0.224
		c0.355,0.72,0.986,0.649,1.345,1.121c0,0.337,0,0.674,0,1.01c0.641,0.585,1.819,2.268,3.027,2.355c0,0,2,1.069,1.905,1.347
		c0.268,0.267,0.185,0.301,0.225,0.785c0.761,0.157,0.437,0.036,0.785,0.561c-0.333,0.216-0.002,0.029-0.225,0.336
		c0.917,0.295,1.1,0.835,1.01,1.908c0.458,0.036,0.297-0.04,0.56,0.448c0.45-0.154,0.344-0.278,0.561-0.112
		c0.225,0.149,0.449,0.299,0.673,0.448c-0.363,0.351-0.281,0.302-0.448,0.673c0.522,0.075,1.046,0.15,1.568,0.225
		c-0.038-0.56,0-0.188,0.337-0.448c0.478,0.706,0.765-0.128,1.681,0.337c1.016,0.513,1.035,1.436,1.459,2.354
		c1.185-0.153,1.648,0.796,2.803,0.674c0.094,0.352,0.504,0.805,0.447,1.01c0.15,0,0.299,0,0.448,0
		c0.014-0.635,0.502-0.481,0.449-0.449c1.278-0.392,2.246-0.021,3.14,0.562c1.783-1.306,2.674,0.74,4.372,0.111
		c0.078-0.346,0.129,0.018,0.112-0.337c0.224,0.15,0.448,0.3,0.673,0.449c0,0.149,0,0.3,0,0.448
		c0.299-0.037,0.597-0.074,0.896-0.111c-0.036-0.262-0.074-0.523-0.11-0.786c0.11,0,0.223,0,0.335,0
		c0.093,0.354-0.018,0.028,0.337,0.226c0-0.263,0-0.523,0-0.786c1.257,0.544,2.968-1.644,2.915-2.916c0.187,0,0.374,0,0.561,0
		c0.56,0.262,1.12,0.523,1.682,0.785c0.112,0,0.224,0,0.336,0c0.038-0.224,0.074-0.449,0.112-0.673
		c0.407,0.402,1.006,0.005,1.345-0.337c-0.112,0.225-0.225,0.448-0.335,0.673c0.11,0.299,0.223,0.599,0.335,0.897
		c-0.521,0.023-0.411-0.035-0.785,0.337c-0.036,0.374-0.074,0.747-0.112,1.121c0.187,0,0.374,0,0.562,0
		c0.058-0.313,0.064-0.13,0.11-0.561c0.15,0.037,0.299,0.075,0.449,0.112c0.074,0.262,0.148,0.523,0.224,0.785
		c-0.186,0.075-0.374,0.149-0.561,0.225c-0.078-0.296-0.135-0.065-0.561-0.225c0.103,0.352,0.024,0.389,0.224,0.673
		c0.177,0.292,0.493,0.37,0.674,0.337c0.344-0.052,0.355-0.043,0.785-0.337c0.112,0.149,0.223,0.3,0.335,0.449
		c-0.074,0.111-0.148,0.224-0.223,0.336c-0.299-0.037-0.598-0.075-0.897-0.112c0.199,0.329,0.219,0.275,0.561,0.449
		c0.352-0.451,0.269,0.032,0.56-0.112c-0.217,0.557-0.385,0.364-1.008,0.561c0.036,0.075,0.074,0.149,0.111,0.225
		c0.299,0.149,0.6,0.299,0.896,0.448c-0.269,0.473-0.181,0.531-0.672,0.449c0.11,0.452,0.098,0.685-0.112,1.01
		c-0.258,0.374-0.215,0.143-0.336,0.336c-0.238,0.211-0.072,0.089-0.225,0.449c0.188,0,0.373,0,0.561,0
		c-0.036,0.392-0.173,0.465,0.112,0.784c0.354-0.176,0.839-0.13,1.234-0.448c0.584,0.483,0.729,0.552,1.457,1.122
		c-0.076,0.187-0.15,0.374-0.225,0.561c-0.432-0.061-0.943-0.126-1.457,0.112c0.15,1.113,0.209,0.967,0.447,1.795
		c-0.299,0.112-0.598,0.225-0.897,0.336c0.116,0.399-0.086,0.861,0.338,0.674c0.293,0.457,0.827,0.562,1.569,0.561
		c0.089,1.282,1.042,1.21,1.681,1.906c0.683-0.212,1.269-0.371,1.457,0c-0.379,0.238,0,0.449,0,0.449
		c0.125,0.145,2.345,0.324,2.242,0.448c0.262,0.188,0.524,0.375,0.785,0.562c-0.187,0.299-0.373,0.599-0.559,0.897
		c-0.407-0.196-1.547-0.046-1.459-0.561c-0.352-0.048-0.137-0.202-0.225-0.562c-0.148,0.038-0.299,0.075-0.448,0.112
		c-0.038,0.262-0.074,0.523-0.112,0.785c-1.188-0.262-1.204-0.444-1.905-0.785c-0.036,0.149-0.074,0.3-0.112,0.449
		c0.049,0.016,0.838,0.276,0.336,0.448c-0.298,0.299-0.597,0.599-0.896,0.897c-0.299-0.112-0.599-0.225-0.897-0.337
		c-0.076,0.225-0.15,0.449-0.225,0.673c1.571,0.373,0.112,3.254,0.112,3.254c-0.038,0.074-0.074,0.149-0.112,0.224
		c0.614-0.188,1.12-0.434,1.457-0.336c0,0.299,0,0.598,0,0.897c-0.409,0.111-0.821,0.224-1.232,0.336
		c0.127,0.591,0.026,0.396-0.225,0.561c-0.034,0-0.595-0.271-0.896-0.448c-0.237,0.49-0.074,0.146-0.45,0.336
		c0.29,0.608,0.312,1.065,0.673,1.234c-0.036,0.074-0.074,0.149-0.112,0.225c-2.415,0.042-3.573-0.172-4.372-1.795
		c0.43-0.476,0.491-0.159,0.785-0.785c-0.226-0.146-0.273-0.601-0.224-1.01c-0.858,0.099-1.29-0.665-1.794-1.01
		c0-0.336,0-0.673,0-1.009c-0.074-0.038-0.149-0.075-0.226-0.113c-0.187,0.236-0.172,0.223-0.223,0.674
		c-0.683-0.328-1.331-0.918-2.13-0.449c0.139,0.339,0.146,0.206,0.11,0.562c-0.223,0.037-0.447,0.074-0.672,0.112
		c-0.486-0.449-0.972-0.898-1.456-1.347c-1.487,0.472-2.571-0.564-2.579-0.561c-0.257,0.025-0.171-0.055-0.448,0.112
		c-0.074,0-0.15,0-0.225,0c-0.02,0.824,0.087,0.169,0.112,1.01c-0.315,0.053-0.423,0.225-0.785,0.224
		c-0.098,0.091-0.698,0.14-1.345-0.224c-0.061-0.357-0.301-0.568-0.337-1.347c-0.536,0.168-0.841,0.678-1.12-0.111
		c-0.076,0.037-0.152,0.074-0.227,0.111c-0.073-0.037-0.147-0.074-0.224-0.111c0,0.074,0,0.149,0,0.224
		c-0.516,0.216-0.889,1.037-1.345,2.02c-0.397,0.004-0.331-0.083-0.561,0.224c-1.09-0.424-2.28-1.196-3.362-2.019
		c-1.17,0.19-0.574,0.526-1.796,0.448c-0.032-0.454-0.157-0.047-0.224-0.448c-0.225,0.149-0.447,0.299-0.672,0.448
		c-0.188-0.224-0.374-0.448-0.561-0.673c-0.074,0.343,0.11,0.174-0.337,0.337c-0.036-0.038-0.074-0.075-0.112-0.112
		c0.056-0.814,0.094-0.462-0.224-0.785c-0.029,0.161,0.097,0.628-0.225,0.448c-0.645,0.772-2.029-0.584-2.691-0.897
		c-0.007,0.408-0.103,0.998-1.008,1.01c-1.536-0.918-2.229-1.978-3.923-2.58c0.038,0.188,0.074,0.374,0.112,0.561
		c-0.074,0-0.15,0-0.225,0c0-0.074,0-0.148,0-0.224c-0.268-0.037-0.093,0.02-0.448-0.112c0.074-0.188,0.147-0.374,0.224-0.562
		c-0.076-0.037-0.149-0.074-0.224-0.112c-0.187,0-0.375,0-0.562,0c0,0-0.939,1.909-1.345,1.796
		c-0.228,0.232-0.112,0.152-0.561,0.224c-0.064-0.51-2.324-0.636-3.138-1.233c-0.706,0.289-1.052,0.008-1.795,0.448
		c-0.493,2.37-1.925,2.769-2.354,5.16c-0.374,0-0.748,0-1.121,0c-0.333-0.531-1.219-0.668-1.458-0.897
		c-0.763-0.165-2.822-4.184-3.476-4.375c-0.161-0.31-0.952,0.027-1.009,0c-0.075-0.075-0.149-0.149-0.224-0.224
		c-0.635,0.111-1.271,0.224-1.906,0.336c-0.039,0.308-0.479,0.924-0.672,1.01c0.356,1.107,0.4,1.734-0.224,2.468
		c0.269,1.427,0.417,1.467,0.672,2.243c0,0.038,0,0.075,0,0.112c-0.263,0.037-0.523,0.074-0.786,0.112
		c0.114,0.478,0.664,2.8,0.561,2.916c-0.103,0.223-0.252,0.32-0.673,0.449c0.226,0.677,0.822,2.316,1.906,2.468
		c0.027-0.383,0.329-0.203,0.449-0.561c1.016,0.21,2.239,2.161,1.905,2.131c0.124,0.08,0.547-0.102,0.785,0.112
		c0.112,0.262,0.225,0.523,0.336,0.785c-0.434,0.306,0.038,0.417-0.673,0.673c0.308,0.868,0.663,1.294,1.794,1.458
		c0.112,0.859,0.225,1.721,0.337,2.58c0.357,0.047,0.344-0.193,0.448,0.336c-0.506,0.062-0.548,0.211-0.785,0.561
		c0.857-0.064,0.907,0.377,1.57,0.562c-0.515,0.57-0.241,1.279-0.449,2.354c0.284,0.055,0.393,0.07,0.561,0.562
		c-0.332,0.217-0.002,0.027-0.225,0.336c1.154,0.535,2.37,2.625,2.579,3.141c0.487-0.146,0.859-0.078,1.233,0.111
		c-0.031,0.312-0.086,0.605,0.112,0.785c1.651,1.367,1.572,1.934,3.138,3.59c0.403,0.428,1.096,0.355,1.459,1.01
		c0.31,0.562,0.055,1.131,0.225,1.459c1.297,0.375,3.573,3.479,3.698,3.477c0.447,0.6,0.896,1.197,1.345,1.795
		c0.875,0.549,1.106,0.662,2.02,1.459c0,0,1.432-0.082,2.018,0.336c0.074,0.299,0.148,0.598,0.225,0.896
		c-0.305,0.328-0.441,0.863-0.675,1.123c0.667,0.916,0.868,2.279,1.346,2.805c0.523,0.262,1.048,0.521,1.569,0.785
		c0,0.373,0,0.746,0,1.121c1.572,0.082,4.695,2.992,4.71,4.822c-0.456,0.287-1.854,1.094-2.13,0.898
		c-1.255-0.256-2.605-2.461-3.476-3.365c-0.106-0.109-0.596-0.736-0.337-0.785c-0.536-0.406-1.931-0.631-2.691-1.459
		c-0.073,0.037-0.149,0.076-0.224,0.113c-1.896-1.705-3.722-3.49-4.709-5.273c-2.319,0.57-5.231-1.443-6.277-2.467
		c-0.672,0-1.345,0-2.019,0c0.075-0.074,0.15-0.15,0.225-0.225c0.323-0.041,0.788-0.254,0.785-0.449
		c-0.708-1.137-2.902,0.088-3.027,0.674c0.816-0.199,1.083,0.189,1.793,0.336c0,0.074,0,0.15,0,0.225
		c-1.395-0.025-1.577-0.062-2.802,0c0.037-0.225,0.074-0.449,0.112-0.672c-0.412,0-0.822,0-1.233,0c0,0.111,0,0.223,0,0.336
		c0.403,0.025,0.043-0.053,0.336,0.225c-0.849,0.16-0.581,0.289-1.345,0.336c-0.297-0.479-1.816-0.711-2.355-0.674
		c0.038-0.111,0.075-0.223,0.112-0.336c0.603-0.045,0.168-0.145,0.561-0.225c-0.075-0.111-0.149-0.225-0.224-0.336
		c-0.354,0.328-0.138-0.02-0.224,0.449c-0.298-0.277-0.172-0.154-0.225-0.449c-0.458,0.049-0.062-0.09-0.448-0.113
		c0.112-0.223,0.224-0.447,0.336-0.672c-0.149,0.037-0.299,0.074-0.449,0.111c0.179-0.689-0.162-1.246,0.224-1.682
		c-0.112-0.074-0.224-0.15-0.336-0.225c0.188,0.037,0.374,0.074,0.561,0.111c0.037-0.111,0.074-0.223,0.111-0.336
		c-0.356-0.285,0.048-0.209-0.448-0.449c-0.104,0.045-0.138,0.002-0.112,0c-0.084-0.016-0.61-0.52-0.896-0.896
		c0-0.037,0-0.076,0-0.113c0.149,0.037,0.298,0.076,0.448,0.113c-0.149-0.188-0.299-0.375-0.448-0.561
		c-0.038,0.148-0.075,0.299-0.112,0.447c-0.983-0.189-3.322-1.693-3.363-1.682c-0.262-0.238,0.013-0.049-0.336-0.111
		c0,0.111,0,0.223,0,0.336c0.333,0.094,0.177,0.297,0.449,0.225c-0.221,0.232-0.043,0.115-0.449,0.223
		c-0.149-0.26-0.299-0.521-0.449-0.783c0.531-0.182,0.247-0.227,0.785-0.225c-0.606-0.973-2.283-1.596-3.476-2.469
		c0,0-4.791-5.875-5.044-6.617c0.23-0.053,0.2-0.16,0.223-0.896c-0.559,0.076-0.588-0.09-0.896-0.449
		c0.188-0.15,0.374-0.299,0.561-0.449c-0.037,0.074-0.075,0.15-0.112,0.225c0.604,0.088,0.34,0.404,1.121,0.561
		c-0.026-0.371-0.148-0.678,0.112-1.01c0,0.076,0,0.15,0,0.225c0.458,0.07,0.993,0.623,1.121,0.898
		c0.112-0.188,0.224-0.375,0.336-0.562c-0.354-0.434,0.04-0.238,0-0.561c-0.112-0.262-0.225-0.523-0.336-0.785
		c0.112,0,0.224,0,0.336,0c0.211,1,2.562,2.18,3.923,1.795c0-0.037,0-0.074,0-0.113c-0.074-0.037-0.149-0.074-0.223-0.111
		c-0.711-1.094-2.814-1.484-3.812-2.242c-1.492-1.137-6.116-6.474-6.278-7.853c0-0.037,0-0.075,0-0.112
		c-0.934-1.334-0.195-6.332,0.112-6.618c-0.485-0.639-1.599-2.406-1.233-3.365c-1.055-0.169-5.381-4.038-5.381-4.038
		c-0.494-0.916-2.111-1.612-3.251-1.57c-0.302,0.012-0.566-0.158-0.336,0.112c-0.342,0.195-2.059,5.69-2.69,6.506
		c0.132,0.88,0.185,0.676,0.335,1.57c-0.224,0.337-0.449,0.673-0.672,1.01c-0.779-0.376-0.249-0.116-1.121,0
		c0.218-0.341,0.036-0.117,0.336-0.225c0.038-0.112,0.075-0.224,0.112-0.336c-0.037-0.075-0.074-0.15-0.112-0.225
		c-0.282,0.15-1.471,2.113-1.793,2.58c0.307,0.028-0.002,1.148-0.112,1.57c-0.225,0.112-0.448,0.224-0.673,0.336
		c-0.056-0.312,0.007-0.007-0.224-0.224c-0.037,0.299-0.075,0.598-0.112,0.897c-0.282-0.275-0.226-0.499-0.112-0.897
		c-1.025,0.207-1.274-0.788-1.682-1.347c0.649-0.078,0.291-0.026,0.561-0.336c-0.463,0.01-0.223,0.087-0.561-0.225
		c0.221-2.004-1.807-2.829-2.915-4.375c0.074-0.037,0.149-0.074,0.225-0.112c-0.268-0.523-0.424-0.415-0.673-0.896
		c0.075,0.037,0.149,0.074,0.225,0.111c0.258-0.452,0.65-0.355,1.121-0.561c-0.486,0-0.972,0-1.458,0
		c0.018-1.331,0.108-2.164-0.336-3.365c0.111-0.075,0.224-0.149,0.336-0.224c-0.31-0.048-0.305,0.042-0.56-0.337
		c0.186,0,0.374,0,0.56,0c-0.336-0.187-0.672-0.374-1.009-0.562c0.037-0.7-0.153-3.525-0.785-3.701
		c0.265-0.465,0.327-0.295,0.672-0.449c0.747,0.486,1.495,0.973,2.242,1.459c0.493-0.217,1.14-0.63,1.682-0.785
		c0.272,0.533,1.225,1.104,2.13,1.01c0.119-0.95,0.662-0.435,1.57-0.562c-0.051-0.466-0.055-0.75-0.224-0.896
		c0,0-0.244-0.57,0-0.337c0.057-0.27,0.023-0.103,0.224-0.449c1.096,0.396,2.002,1.113,3.587,1.122
		c0.112-0.187,0.225-0.374,0.337-0.562c0.523,0.226,1.046,0.449,1.569,0.674c0.338,0.114,2.799-1.451,3.139-1.683
		c-0.196-0.616-0.114-1.246,0.111-1.458c0.626-0.788,0.802-0.308,1.01-1.571c0.112,0,0.224,0,0.337,0
		c0.074,0.038,0.149,0.075,0.223,0.112c0.026,0.541,0.026,0.797,0.225,1.01c0.224,0.482,0.694,0.622,1.345,0.897
		c-0.037,0.411-0.075,0.823-0.112,1.234c1.111,0.032,2.16,1.047,2.018,1.683c0.298,0,0.598,0,0.897,0
		c0.673-0.541,0.746-1.222,1.233-1.57c0,0.074,0,0.148,0,0.224c0.291,0.068,2.242,0.897,2.242,0.897
		c0.485,0.486,0.972,0.973,1.458,1.459c0.448-0.075,0.897-0.15,1.346-0.225c-0.006-0.4,0.403-0.631,0.335-0.897
		c0.461,0.107,1.701,0.764,1.57-0.112c0.168-0.178,0.161-0.301,0.225-0.785c-1.166-0.186-1.001-1.738-1.233-2.805
		c0.451-0.115,1.403-0.427,1.681-0.673c0.002-0.109-0.168-1.12-0.56-0.897c-0.075,0-0.15,0-0.225,0
		c0.074,0.149,0.149,0.3,0.225,0.448c-0.15,0-0.299,0-0.449,0c-0.033-0.35-0.658-0.859-1.121-1.121
		c0.839-1.841,2.885-1.289,3.587-2.355c-0.074-0.075-0.149-0.149-0.224-0.225c0.306-0.061,0.233-0.071,0.561-0.337
		c0.226,0.451,0.124,0.133,0.448,0.337c0.374-0.224,0.748-0.449,1.121-0.673c0.608,1.149,1.218,0.11,1.907,0.224
		c-0.538-1.227,0.144-3.281,0.336-5.271c-0.409-0.034-1.27-0.28-1.906-0.786c-0.037-0.599-0.074-1.196-0.111-1.794
		c0.406-0.01,0.071-0.247,0.784-0.337c-0.112-0.735-0.108-0.704,0.225-0.897c0.746-0.669,1.114,0.568,1.905,0
		c0.112-0.038,0.225-0.075,0.337-0.112c-0.188-0.589-0.313-1.055,0.224-0.897c1.836-0.643,3.687-0.838,4.484-2.58
		c-0.322-0.072-0.268-0.191-0.561-0.561c1.326,0.335,0.766-0.239,1.57-0.337c0.074,0,0.149,0,0.224,0
		c-0.063,0.585,1.651,0.737,2.579,0.673c0.037-0.112,0.074-0.224,0.112-0.336c-0.971-0.586-0.425-1.473-1.009-2.692
		C46.825,2.258,48.422,1.805,48.207,1.318z M46.076,2.552c0.075,0,0.15,0,0.225,0C46.226,2.552,46.151,2.552,46.076,2.552z
		 M91.48,24.089c0.038,0.074,0.074,0.149,0.112,0.225C91.555,24.238,91.519,24.163,91.48,24.089z M17.825,32.95
		c0.186,0.037,0.374,0.075,0.561,0.112c0.266,1.16,0.312,1.646,1.569,2.243c-0.09,0.559-0.524,0.673-0.112,1.233
		c0.177,0.443,0.055,0.5,0.336,0.449c0.311,0.084,0.376,0.09,0.785,0c-0.005,1.128,0.261,1.446,1.121,1.683c0,0.299,0,0.599,0,0.897
		c-0.299-0.038-0.597-0.075-0.897-0.112c0,0.262,0,0.523,0,0.785c-0.149-0.037-0.298-0.074-0.449-0.112
		c-0.609-0.061-0.666-0.346-0.896-0.785c-0.709,0.038-1.419,0.075-2.13,0.112c-0.047,0.292,0.109,0.062-0.112,0.337
		c-0.037,0-0.075,0-0.112,0c-0.239-0.623-0.472-0.306-0.784-0.673c0.678-0.033,2.284-0.045,2.13-0.337
		c0.204-0.189,0.091-0.188,0.224-0.561c-0.378-0.032-0.375,0.101-0.561-0.225c-0.382,0.183-0.684,0.063-0.56,0.448
		c-0.68-0.272-1.946-0.606-2.243-1.907c0.625-0.323,0.572-0.016,0.673-0.896c0.336,0.037,0.672,0.074,1.009,0.112
		c-0.177-1.098,0.583-1.204,0-2.356C17.876,33.297,17.504,33.401,17.825,32.95z M42.376,34.297c0.038,0.074,0.075,0.148,0.113,0.224
		C42.451,34.445,42.415,34.371,42.376,34.297z M13.901,34.521c1.052,1.011,0.561,4.255,1.907,4.487
		c0.155,0.157,0.402,0.111,0.784,0.225c0,0.149,0,0.298,0,0.448c-1.377,0.489-0.105,6.548,0.673,8.076
		c-0.544,0.141-0.128,0.005-0.449,0.337c-0.898-0.826-1.036-1.648-1.682-1.907c-0.037,0.599-0.075,1.196-0.112,1.795
		c0.208,0.265,0.689,0.473,0.786,1.121c-0.715-0.288-0.62-0.093-1.009,0.225c0-0.074,0-0.149,0-0.225
		c-0.54-0.562-0.683-2.52-0.673-3.589c0.261,0.149,0.523,0.299,0.784,0.448c0.037,0,0.075,0,0.112,0
		c-0.033-2.115-1.872-5.552-1.233-5.944c0.069,0.372,0.293,0.469,0.561,0.896c0.262-0.037,0.523-0.074,0.785-0.112
		c-0.093-0.965-0.61-2.176-0.561-2.467c0.038-0.188,0.075-0.374,0.113-0.562c-0.538-0.252-1.581-1.123-1.57-2.355
		C13.34,35.395,13.689,35.017,13.901,34.521z M94.62,35.643c0.074,0,0.148,0,0.225,0C94.769,35.643,94.694,35.643,94.62,35.643z
		 M85.315,36.876c-0.048,0.104,0.09,0.076-0.114,0.225C85.239,37.025,85.277,36.951,85.315,36.876z M86.323,37.213
		c0.074,0,0.15,0,0.225,0C86.474,37.213,86.397,37.213,86.323,37.213z M88.005,39.905c0.38,0.101,0.149,0.095,0.448,0.112
		C88.178,40.389,88.232,40.178,88.005,39.905z M21.3,40.241c0.411,0.188,0.823,0.374,1.233,0.561
		c-0.102,0.41,0.004,0.229-0.225,0.449c-0.022-0.433-0.41-0.118-1.009-0.674C21.3,40.466,21.3,40.354,21.3,40.241z M4.26,40.354
		c0.15,0.224,0.299,0.448,0.449,0.673c-0.112,0-0.225,0-0.336,0c0-0.074,0-0.149,0-0.225C4.335,40.653,4.297,40.503,4.26,40.354z
		 M4.821,40.802c0.037,0.112,0.075,0.225,0.112,0.337c-0.037,0-0.075,0-0.112,0C4.821,41.026,4.821,40.914,4.821,40.802z
		 M20.964,41.476c0.224,0.187,0.449,0.373,0.673,0.561c-0.037,0.037-0.075,0.074-0.112,0.112
		C21.068,41.905,20.971,41.897,20.964,41.476z M5.045,41.7c0.074,0,0.149,0,0.224,0C5.194,41.7,5.119,41.7,5.045,41.7z
		 M20.739,42.261c0.381,0.15,0.232,0.067,0.449,0.336c-0.45,0.226-0.132,0.124-0.335,0.449c1.222,0.473,1.552,1.798,2.018,2.804
		c-0.099-0.057-2.763-1.953-2.131-1.346c-0.335-0.149-0.672-0.299-1.009-0.448c-0.037-0.188-0.074-0.374-0.112-0.562
		c0.346,0.034,0.678-0.106,0.449,0.225c0.396-0.249,0.287-0.42,0.449-0.673c-0.149-0.149-0.3-0.299-0.449-0.449
		C20.425,42.505,20.536,42.49,20.739,42.261z M21.974,42.261c0.507,0.096,0.333-0.014,0.56,0.336
		C22.346,42.484,22.16,42.373,21.974,42.261z M19.955,42.373c0.075,0,0.149,0,0.224,0C19.983,42.482,20.155,42.475,19.955,42.373z
		 M20.853,45.738c0.074,0.074,0.149,0.149,0.224,0.224c-0.037,0.037-0.074,0.075-0.112,0.112c-0.074-0.037-0.149-0.075-0.225-0.112
		c0-0.037,0-0.074,0-0.112C20.777,45.812,20.814,45.775,20.853,45.738z M20.964,46.074c0.407,0.293,0.147-0.029,0.224,0.449
		c-0.074-0.038-0.149-0.075-0.224-0.112c0-0.038,0-0.075,0-0.112C20.964,46.224,20.964,46.149,20.964,46.074z M12.78,46.299
		c0.241,0.081,0.459,0.011,0.225,0.225c0.028,0.45-0.331,1.054-0.561,1.233c-0.037-0.075-0.074-0.149-0.112-0.225
		c0.192-0.532,0.152-0.239,0-0.785C12.732,46.66,12.491,46.729,12.78,46.299z M21.3,46.635c0.037,0.075,0.075,0.15,0.112,0.225
		C21.375,46.785,21.337,46.71,21.3,46.635z M21.525,46.972c0.074,0.074,0.149,0.149,0.224,0.225
		C21.674,47.121,21.599,47.046,21.525,46.972z M21.749,47.196c0.074,0,0.149,0,0.225,0c-0.113,0.074-0.225,0.149-0.337,0.224
		C21.674,47.346,21.711,47.271,21.749,47.196z M21.974,47.309c0.298,0.448,0.598,0.897,0.896,1.346
		c-0.188-0.188-0.374-0.374-0.561-0.561C21.871,47.84,21.839,47.716,21.974,47.309z M17.265,47.42
		c0.037,0.075,0.074,0.15,0.111,0.225C17.339,47.57,17.302,47.495,17.265,47.42z M12.892,47.645
		c0.037,0.075,0.075,0.149,0.112,0.225C12.967,47.794,12.929,47.72,12.892,47.645z M13.004,47.869
		c0.037,0.074,0.074,0.149,0.112,0.225C13.079,48.019,13.042,47.943,13.004,47.869z M23.095,47.981
		c0.336,0.074,0.672,0.149,1.009,0.225c0.437,0.345,0.167,0.85,0.56,1.346c0.57,0.721,1.183,0.299,1.458,0.785
		c0.124,0.218-0.051,1.071,0,1.12c0.667-0.084,2.385,2.074,2.579,2.244c0.074,0,0.149,0,0.224,0c0,0.037,0,0.076,0,0.113
		c-0.036,0.488-0.127,0.438,0.111,1.121c-0.218,0.018-0.393-0.072-0.223,0.111c-0.412-0.148-0.823-0.299-1.233-0.447
		c-0.041,0.531-0.173,0.334-0.673,0.225c0.034,0.52,0.113,0.525-0.448,0.447c-0.047,0.293,0.109,0.062-0.112,0.338
		c-0.573-0.26-0.731-0.582-0.561-0.898c0.299,0.113,0.598,0.225,0.897,0.336c0.037,0,0.074,0,0.111,0
		c0.042-1.002-0.059-1.184,0.224-1.795c-0.728-0.182-0.715-0.367-1.233-0.223c-0.115-1.326-1.624-1.9-2.242-2.132
		c0.149-0.111,0.298-0.224,0.449-0.336c0-0.037,0-0.075,0-0.112c-0.515-0.636-0.628-1.123-1.121-1.683
		c0.037-0.075,0.075-0.149,0.112-0.225c0.112,0.075,0.223,0.149,0.335,0.225C23.244,48.505,23.169,48.243,23.095,47.981z
		 M15.694,49.215c0.599,0.524,1.197,1.047,1.794,1.571c-0.112,0.111-0.223,0.224-0.336,0.335
		C16.716,50.147,16.24,50.137,15.694,49.215z M13.117,50.112c0.037,0.075,0.075,0.149,0.112,0.225
		C13.192,50.262,13.154,50.188,13.117,50.112z M13.341,50.112c0.074,0.149,0.149,0.299,0.224,0.449
		c-0.111-0.037-0.224-0.075-0.335-0.112C13.266,50.337,13.303,50.225,13.341,50.112z M22.87,51.121c0.074,0,0.149,0,0.225,0
		c-0.202,0.23-0.002,0.08-0.337,0.225C22.795,51.271,22.832,51.196,22.87,51.121z M17.488,51.457c0.149,0.076,0.3,0.15,0.449,0.227
		c-0.075,0.074-0.149,0.148-0.225,0.223c-0.112-0.074-0.225-0.148-0.336-0.223c0.075,0,0.15,0,0.224,0
		C17.563,51.607,17.525,51.533,17.488,51.457z M23.318,51.684c0.075,0,0.15,0,0.225,0C23.347,51.793,23.518,51.785,23.318,51.684z
		 M23.655,51.795c0.207,0.312,0.081,0.016,0.112,0.448c-0.037-0.075-0.075-0.149-0.112-0.224c-0.074-0.037-0.149-0.075-0.224-0.113
		C23.505,51.869,23.581,51.832,23.655,51.795z M23.991,52.243c0.037,0.112,0.075,0.224,0.112,0.337
		c-0.075-0.037-0.149-0.074-0.225-0.113C23.916,52.393,23.954,52.318,23.991,52.243z M21.525,52.467c0.074,0,0.149,0,0.224,0
		C21.674,52.467,21.599,52.467,21.525,52.467z M21.413,52.58c0.224,0.111,0.448,0.225,0.672,0.336
		c-0.155,0.432,0.021,0.549,0.112,1.234c-0.112,0.037-0.223,0.074-0.336,0.111c-0.24-0.621-0.473-0.305-0.784-0.672
		C21.462,53.275,21.351,53.012,21.413,52.58z M24.327,52.58c0.038,0.074,0.075,0.15,0.112,0.225
		C24.402,52.73,24.365,52.654,24.327,52.58z M19.618,52.691c0.225,0.113,0.449,0.225,0.673,0.338
		c0.037,0.336,0.075,0.672,0.112,1.01c-0.075-0.039-0.15-0.076-0.225-0.113C19.993,53.514,19.806,53.104,19.618,52.691z
		 M18.609,54.262c0.462,0.189,0.235,0.166,0.672,0.225c-0.074,0.113-0.149,0.225-0.224,0.338c-0.112-0.076-0.224-0.15-0.336-0.225
		C18.685,54.486,18.646,54.375,18.609,54.262z M29.261,54.262c0.186,0.074,0.374,0.15,0.56,0.225
		c-0.037,0.074-0.074,0.15-0.112,0.225c-0.112-0.037-0.225-0.074-0.336-0.111C29.222,54.289,29.302,54.566,29.261,54.262z
		 M19.17,54.711c0.074,0,0.149,0,0.225,0C19.199,54.82,19.369,54.812,19.17,54.711z M27.579,54.936
		c0.228,0.201,0.079,0.002,0.225,0.336C27.728,55.16,27.654,55.047,27.579,54.936z M27.915,55.16
		c0.111,0.111,0.224,0.223,0.336,0.336C28.139,55.383,28.026,55.271,27.915,55.16z M28.587,55.271
		c0.038,0.074,0.075,0.15,0.112,0.225C28.663,55.422,28.625,55.346,28.587,55.271z M19.955,55.496c0.149,0,0.299,0,0.449,0
		c-0.037,0.076-0.075,0.15-0.112,0.225C20.179,55.646,20.067,55.572,19.955,55.496z M21.188,55.496
		c0.112,0.188,0.225,0.375,0.337,0.561c-0.225,0-0.449,0-0.672,0c0-0.037,0-0.074,0-0.111
		C20.964,55.795,21.076,55.646,21.188,55.496z M20.292,55.721c0.037,0.074,0.075,0.15,0.112,0.225
		C20.367,55.871,20.329,55.795,20.292,55.721z M21.637,55.832c0.037,0.113,0.074,0.225,0.112,0.338c-0.038,0-0.075,0-0.112,0
		C21.637,56.057,21.637,55.945,21.637,55.832z M21.749,56.17c0.374,0.299,0.748,0.598,1.121,0.896
		c-0.112,0.076-0.224,0.15-0.336,0.225c-0.17-0.301-0.102,0.104-0.56-0.449C21.962,56.354,21.869,56.51,21.749,56.17z
		 M22.982,57.066c0.298,0.119,0.639-0.066,0.449,0.336c0.279,0.135,0.11-0.07,0.224,0.225
		C23.232,57.445,22.937,57.523,22.982,57.066z M24.215,57.627c0.074,0,0.149,0,0.224,0C24.244,57.738,24.414,57.73,24.215,57.627z
		 M24.439,57.74c0.075,0.074,0.15,0.148,0.225,0.225C24.589,57.889,24.514,57.814,24.439,57.74z M24.552,58.076
		c0.037,0.074,0.074,0.15,0.111,0.225C24.626,58.227,24.589,58.15,24.552,58.076z M23.431,58.301c0.111,0,0.224,0,0.335,0
		c-0.075,0.074-0.149,0.148-0.224,0.225C23.505,58.449,23.468,58.375,23.431,58.301z M22.982,58.525
		c0.687,0.473,2.307,1.656,2.579,2.018c0.037,0.375,0.074,0.75,0.111,1.123c0.622,0.072,2.511,2.201,3.14,2.916
		c-0.075,0.037-0.149,0.074-0.225,0.111c-0.149-0.074-0.298-0.148-0.449-0.225c0,0.15,0,0.301,0,0.449
		c-0.074-0.037-0.149-0.074-0.224-0.111c-0.083-0.617-3.539-4.047-3.812-4.711c-0.037-0.113-0.075-0.225-0.112-0.336
		c0-0.039,0-0.076,0-0.113c-0.341-0.041-0.988-0.332-1.121-0.674C23.126,58.68,22.98,58.984,22.982,58.525z M24.104,58.525
		c-0.048,0.104,0.089,0.076-0.112,0.225C24.028,58.674,24.066,58.6,24.104,58.525z M25,58.525c1.589,0.215,3.262,1.422,4.261,2.58
		c0,0.037,0,0.074,0,0.111c-0.038,0.076-0.075,0.148-0.112,0.225c-0.323-0.094-0.19-0.1-0.336,0
		c-1.354-0.754-1.194-1.746-2.242-2.355C25.874,58.682,25.592,59.32,25,58.525z M25.672,58.525c0.075,0,0.15,0,0.224,0
		C25.822,58.525,25.748,58.525,25.672,58.525z M24.327,58.637c0.075,0.076,0.15,0.15,0.226,0.225
		C24.477,58.787,24.402,58.713,24.327,58.637z M22.646,58.861c0.074,0,0.149,0,0.224,0C22.674,58.971,22.845,58.963,22.646,58.861z
		 M26.458,60.318c0.112,0.113,0.225,0.225,0.336,0.338c-0.037,0.074-0.074,0.15-0.111,0.225c-0.075-0.037-0.149-0.074-0.225-0.113
		C26.458,60.619,26.458,60.469,26.458,60.318z M26.793,60.992c0.435,0.252,0.179,0.098,0.336,0.561
		c-0.074-0.037-0.149-0.074-0.225-0.111C26.806,61.061,26.811,61.293,26.793,60.992z M27.242,61.328
		c0.224,0.113,0.449,0.225,0.673,0.338c-0.038,0.074-0.075,0.148-0.112,0.225c-0.225-0.076-0.449-0.15-0.673-0.225
		C27.168,61.553,27.205,61.441,27.242,61.328z M29.372,61.441c0.075,0,0.149,0,0.224,0c-0.141,0.34,0.002,0.135-0.224,0.336
		C29.372,61.666,29.372,61.553,29.372,61.441z M26.345,61.777c0.074,0.076,0.149,0.15,0.225,0.225
		C26.495,61.928,26.419,61.854,26.345,61.777z M27.803,61.891c0.074,0.074,0.149,0.148,0.223,0.225
		C27.952,62.039,27.877,61.965,27.803,61.891z M29.821,61.891c0.822,0.232,2.771,2.533,3.026,2.467c0,0.111,0,0.225,0,0.336
		c-0.111,0.039-0.224,0.076-0.335,0.113c-0.414-0.338-2.376-2.48-2.803-2.58C29.747,62.115,29.784,62.002,29.821,61.891z
		 M30.045,63.572c0.074,0.074,0.149,0.15,0.225,0.225C30.194,63.723,30.119,63.646,30.045,63.572z M28.924,63.797
		c0.037,0.074,0.074,0.15,0.111,0.225c-0.074,0-0.149,0-0.223,0C28.849,63.947,28.886,63.871,28.924,63.797z M29.708,64.693
		c0.112,0,0.225,0,0.336,0c-0.075,0.15-0.149,0.301-0.224,0.449C29.784,64.994,29.747,64.844,29.708,64.693z M28.587,65.031
		c-0.047,0.104,0.09,0.076-0.112,0.225C28.512,65.18,28.55,65.105,28.587,65.031z M30.045,65.031
		c0.657,0.223,0.568,0.002,0.897,0.336c-0.075,0.148-0.149,0.299-0.224,0.449C30.493,65.555,30.27,65.293,30.045,65.031z
		 M29.372,65.143c0.598,0.406,1.007,1.244,2.13,2.02c-0.074,0.074-0.149,0.15-0.224,0.225c-0.164-0.289-2.316-1.215-1.906-2.02
		C29.229,65.195,29.347,65.365,29.372,65.143z M33.521,65.479c0.074,0,0.149,0,0.224,0C33.549,65.588,33.72,65.582,33.521,65.479z
		 M31.054,65.816c0.229,0.201,0.079,0.002,0.225,0.336C31.203,66.041,31.128,65.928,31.054,65.816z M34.866,66.041
		c0.074,0.074,0.149,0.148,0.225,0.225c-0.075,0.037-0.15,0.074-0.225,0.111C34.866,66.266,34.866,66.152,34.866,66.041z
		 M35.314,66.041c0.193,0.32-0.038,0.244,0.224,0.447c-0.178,0.34,0.092,0.219-0.337,0.449c0.038-0.074,0.075-0.148,0.113-0.225
		C35.045,66.545,34.938,66.598,35.314,66.041z M31.727,67.498c0.111,0.037,0.224,0.074,0.335,0.111c0,0.039,0,0.076,0,0.113
		C31.723,67.582,31.929,67.725,31.727,67.498z M32.062,67.836c0.188,0.111,0.374,0.223,0.561,0.336
		C32.437,68.059,32.25,67.947,32.062,67.836z M37.893,68.396c0.074,0,0.149,0,0.224,0C37.921,68.506,38.092,68.498,37.893,68.396z
		 M36.771,68.732c0.075,0.074,0.15,0.15,0.225,0.225C36.921,68.883,36.846,68.807,36.771,68.732z M38.117,68.732
		c0.038,0.111,0.075,0.225,0.112,0.336c-0.037,0-0.074,0-0.112,0C38.117,68.957,38.117,68.844,38.117,68.732z M36.883,69.068
		c0.075,0,0.149,0,0.225,0C37.033,69.068,36.958,69.068,36.883,69.068z M37.668,69.068c0.038,0.076,0.075,0.15,0.112,0.225
		C37.743,69.219,37.706,69.145,37.668,69.068z M37.893,69.182c0.309,0.15,0.032,0.07,0.336,0.111
		c-0.22,0.232-0.042,0.117-0.449,0.225C37.818,69.406,37.855,69.293,37.893,69.182z M39.238,69.182
		c0.435,0.156,0.3,0.207,0.112,0.447C39.312,69.48,39.275,69.33,39.238,69.182z M36.323,69.293c0.074,0,0.149,0,0.224,0
		C36.473,69.293,36.397,69.293,36.323,69.293z M37.22,69.293c0.074,0.074,0.149,0.15,0.224,0.225c-0.112,0-0.224,0-0.336,0
		C37.145,69.443,37.182,69.367,37.22,69.293z M35.427,69.742c0.187,0,0.374,0,0.56,0c-0.289,0.328-0.258,0.17-0.56,0.336
		C35.427,69.967,35.427,69.854,35.427,69.742z M35.987,69.854c0.074,0,0.149,0,0.224,0c0.043,0.316,0.402,0.311,0.897,0.674
		c-0.149,0.111-0.3,0.223-0.449,0.336c0.038-0.074,0.075-0.15,0.112-0.225c-0.298-0.186-0.598-0.373-0.896-0.561
		C35.912,70.004,35.95,69.93,35.987,69.854z M45.628,73.893c0.037,0.074,0.075,0.148,0.112,0.225
		C45.703,74.041,45.665,73.967,45.628,73.893z M43.274,74.789c0.458,0.061,0.002,0.146,0.448,0.113
		c-0.201,0.262-0.711,0.492-0.448,0.111C43.274,74.939,43.274,74.865,43.274,74.789z M44.283,74.789c0.225,0,0.449,0,0.672,0
		c-0.074,0.113-0.149,0.225-0.224,0.338c-0.215,0.432-0.561,0.223-0.561,0.223c-0.074,0-0.149,0-0.224,0
		C44.058,75.164,44.17,74.977,44.283,74.789z M44.955,74.902c0.037,0.074,0.075,0.148,0.113,0.225
		C45.03,75.051,44.992,74.977,44.955,74.902z M45.404,75.799c2.159-0.107,3.673,1.598,2.579,1.795
		c-0.37-0.967-1.488-0.447-2.466-1.234C45.479,76.174,45.441,75.986,45.404,75.799z M49.552,76.359
		c2.301,0.572,4.543,0.23,6.278,1.01c-0.332,0.217-0.002,0.029-0.224,0.336c0.854-0.203,1.235,0.145,1.568,0.787
		c-0.512,0.068-0.707,0.279-0.783,0.785c-3.451,0.07-6.298,0.152-7.288-1.459c0.149,0.037,0.298,0.074,0.449,0.111
		C49.608,77.033,49.485,77.082,49.552,76.359z M48.43,77.482c0.112,0,0.226,0,0.336,0C48.631,77.6,48.169,77.693,48.43,77.482z
		 M48.879,77.705c0.075,0,0.149,0,0.225,0C49.028,77.705,48.954,77.705,48.879,77.705z M51.457,79.949
		c0.229,0.289,0.131,0.385,0.225,0.674c0.378-0.121,1.045-0.309,1.57-0.113c0.344,1.459,5.971,1.707,8.632,1.795
		c-0.112,0.15-0.225,0.299-0.337,0.449c-6.508,0.17-10.348-0.658-13.228-1.908c0-0.037,0-0.074,0-0.111
		c1.202,0.068,1.546-0.355,2.354-0.111c0.622,0.281,0.76,0.938,1.232,0.111c-0.298-0.037-0.597-0.074-0.896-0.111
		c-0.032-0.266,0.025-0.141-0.112-0.449c0.187,0,0.373,0,0.56,0C51.457,80.1,51.457,80.023,51.457,79.949z M47.87,81.408
		c0.075,0.074,0.149,0.148,0.225,0.225C48.02,81.557,47.945,81.482,47.87,81.408z M48.207,81.408
		c0.187,0.148,0.374,0.299,0.56,0.447C48.264,81.721,48.405,81.85,48.207,81.408z M61.884,82.418
		c-0.048,0.104,0.089,0.074-0.112,0.223C61.81,82.566,61.846,82.492,61.884,82.418z M53.364,83.09
		c0.298,0.037,0.597,0.074,0.896,0.113c-0.11,0.111-0.225,0.223-0.337,0.336c-0.376-0.145-0.536-0.084-0.783-0.336
		c0.074,0.037,0.15,0.074,0.225,0.111C53.364,83.24,53.364,83.164,53.364,83.09z M54.374,83.203
		c-0.05,0.104,0.087,0.074-0.114,0.223C54.298,83.352,54.334,83.277,54.374,83.203z M43.722,83.539
		c1.124,0.043,2.218,0.039,2.467,0.336c0.074,0.074,0.149,0.15,0.224,0.225c-0.503,0.088-0.602,0.354-0.785,0.785
		c-0.833-0.109-2.13,0.225-2.13,0.225c-0.037-0.074-0.074-0.15-0.111-0.225c0.074,0,0.149,0,0.224,0
		c-0.111-0.373,0.034-0.373-0.336-0.672c-0.191,0.199-0.057,0.043-0.225-0.225C43.328,83.953,43.604,83.787,43.722,83.539z
		 M59.08,84.324c1.182,0.684,3.535,0.227,4.599,0.785c0.839,0.441,2.397,1.971,3.923,2.244c0.381,0.068-0.019-0.031,0.337-0.225
		c0.229,0.48,0.62,0.633,1.456,0.785c0-0.188,0-0.375,0-0.561c0.692,0.529,0.66,0.182,1.234-0.338
		c0.679,0.383,1.25,0.807,1.457,0.674c0.323-0.189,0.143-0.162,0.225-0.449c0.296,0.188,0.597,0.375,0.897,0.561
		c0.125,1.746,5.266,5.221,6.501,6.619c0.68-0.074,1.335-0.17,1.794-0.449c0.46,0.867,1.474,1.305,1.456,1.795
		c0.177,1.127-0.148,1.689,0.897,2.242c-0.037,0.15-0.075,0.301-0.111,0.449c-0.219-0.275-0.063-0.043-0.112-0.336
		c-1.383-0.443-3.623-2.031-4.484-3.029c-0.08-0.656,0.488-0.518-0.225-1.01c-0.93,0.193-0.994-0.27-2.13-0.561
		c-0.038-0.148-0.074-0.299-0.112-0.447c0.389-0.094,0.141,0.129,0.337-0.225c-1.479-0.367-1.532-1.242-3.252-1.684
		c0.038,0.074,0.076,0.15,0.112,0.225c0.038,0.275,0.074,0.285,0.225,0.674c-0.074,0.037-0.15,0.074-0.225,0.111
		c-0.456-0.393-0.325-0.227-0.896-0.561c0.112-0.434,0.173-0.053,0-0.449c0.225,0,0.447,0,0.671,0
		c-0.247-0.859-0.41-1.033-0.896-1.346c-0.101,0.207-0.785,0.225-0.785,0.225c-0.523-0.207-0.247-0.312-1.008-0.449
		c0.27,0.404,0.12,0.273,0.559,0.561c-0.224,0-0.448,0-0.673,0c-1.676-1.043-3.499-0.906-4.597-1.906
		c0.074-0.188,0.15-0.375,0.225-0.561c-0.15,0-0.299,0-0.448,0c0-0.037,0-0.074,0-0.113c-0.074-0.074-0.148-0.148-0.225-0.223
		c-1.162,0.316-1.931-0.738-2.913-1.459c-0.377-0.027-3.14-0.336-3.14-0.336c-0.074-0.113-0.15-0.225-0.225-0.338
		c-0.148,0-0.299,0-0.449,0C59.252,84.693,59.196,84.898,59.08,84.324z M37.668,84.66c0.075,0.113,0.15,0.225,0.225,0.338
		c-0.408-0.072-0.339-0.047-0.561-0.225C37.681,84.713,37.433,84.926,37.668,84.66z M53.14,85.559
		c1.265-0.018,2.196,0.623,2.915,0.896c1.259,0.48,4.619-1.732,6.165,0.898c-1.687,0.07-2.357-0.447-4.26-0.225
		c-0.072,0.373,0.046,0.279-0.448,0.225c-0.668,0.885-3.886-0.141-4.597-0.338c0.124-0.318,0.097-0.162,0.112-0.449
		c0.257-0.1,0.53-0.309,1.008-0.111c-0.486-0.428-1.059-0.273-1.232-0.785C52.915,85.633,53.027,85.596,53.14,85.559z M42.153,85.67
		c0.112,0.037,0.224,0.074,0.336,0.111c-0.075,0.039-0.15,0.076-0.224,0.113c0,0.15,0,0.299,0,0.449
		C42.004,86.045,42.119,86.18,42.153,85.67z M64.911,89.932c2.436,0.77,5.155,1.1,6.501,2.133c-0.074,0.111-0.149,0.225-0.224,0.336
		c-0.038,0-0.074,0-0.112,0c-2.389-0.273-5.372-1.367-6.727-1.906c0.15-0.311,0.07-0.033,0.112-0.338
		C64.833,90.111,65.026,90.273,64.911,89.932z M71.637,90.27c0,0.148,0,0.299,0,0.447c-0.228-0.201-0.08,0-0.225-0.336
		C71.486,90.344,71.562,90.307,71.637,90.27z M56.502,90.381c0.41,0.074,0.823,0.15,1.234,0.225c-0.287,1.092-0.75,0.783-1.682,1.01
		c-0.051-0.34-0.53-0.842-0.448-1.121C55.964,90.57,56.291,90.674,56.502,90.381z M50.561,90.494
		c0.149,0.111,0.298,0.223,0.449,0.336c-0.15,0-0.299,0-0.449,0C50.561,90.717,50.561,90.605,50.561,90.494z M55.157,90.605
		c0.076,0.074,0.15,0.15,0.225,0.225C55.308,90.756,55.233,90.68,55.157,90.605z M50.225,90.941c0.075,0,0.149,0,0.224,0
		C50.374,90.941,50.299,90.941,50.225,90.941z M72.871,90.941c0.074,0,0.148,0,0.223,0C72.899,91.051,73.069,91.045,72.871,90.941z
		 M72.198,91.055c0.148,0.037,0.298,0.074,0.448,0.111c-0.04,0.074-0.076,0.15-0.114,0.225
		C72.422,91.279,72.311,91.166,72.198,91.055z M74.664,92.4c0.112,0.111,0.225,0.225,0.337,0.336
		c-0.112,0.037-0.225,0.074-0.337,0.113C74.664,92.699,74.664,92.549,74.664,92.4z M83.856,98.346c0.076,0,0.15,0,0.225,0
		C84.007,98.346,83.933,98.346,83.856,98.346z M84.081,98.682c0.074,0,0.15,0,0.225,0C84.231,98.682,84.155,98.682,84.081,98.682z"
		/>
</g>
<g id="Layer_1">
</g>
</svg>
