<?xml version="1.0" encoding="iso-8859-1"?>
<!-- Generator: Adobe Illustrator 16.0.3, SVG Export Plug-In . SVG Version: 6.00 Build 0)  -->
<!DOCTYPE svg PUBLIC "-//W3C//DTD SVG 1.1//EN" "http://www.w3.org/Graphics/SVG/1.1/DTD/svg11.dtd">
<svg version="1.1" xmlns="http://www.w3.org/2000/svg" xmlns:xlink="http://www.w3.org/1999/xlink" x="0px" y="0px" width="100px"
	 height="100px" viewBox="0 0 100 100" style="enable-background:new 0 0 100 100;" xml:space="preserve">
<g id="HT">
	<g>
		<path style="fill-rule:evenodd;clip-rule:evenodd;fill:#010101;" d="M57.983,11.8c0.906,0.409,1.813,0.817,2.72,1.225
			c0.877,0.234,1.754,0.467,2.63,0.701c0.318,0.203,0.895,1.288,1.404,1.487c-0.029,0.087-0.058,0.175-0.087,0.263
			c-2.482,0.079-5.222-0.54-6.404-1.4c-2.502,0.611-4.644-0.919-5.789-1.137C53.08,11.935,56.994,12.596,57.983,11.8z"/>
		<path style="fill-rule:evenodd;clip-rule:evenodd;fill:#010101;" d="M57.808,17.051c0.585,0,1.169,0,1.754,0
			c1.631,0.558,4.981,2.327,6.492,1.925c0.552,1.127,1.604,0.945,1.93,2.012c0.117-0.087,0.234-0.175,0.351-0.262
			c0,0.146,0,0.292,0,0.438c0.146-0.059,0.293-0.117,0.438-0.175c0.02,0.36,0.388,0.779,0.526,0.875
			c0.028-0.175,0.059-0.35,0.088-0.525c0.029,0.059,0.058,0.116,0.088,0.175c0.055,0.264,0.001,0.175,0.351,0.35
			c0.146-0.146,0.293-0.292,0.438-0.438c0.116,0.204,0.233,0.408,0.352,0.613c0.232-0.058,0.467-0.117,0.701-0.175
			c-0.02-0.291-0.081-0.202,0.088-0.438c0,0.058,0,0.117,0,0.175c0.194,0.219,0.224,0.917,0.702,0.787
			c0.113,0.112,0.397,0.091,0.701,0.175c0.059-0.205,0.117-0.409,0.176-0.613c0.087,0.058,0.176,0.117,0.264,0.175
			c-0.095,0.45-0.054,0.435,0.175,0.787c1.353,0.042,0.976,3.277,1.754,3.063c0.161,0.188,0.452,0.177,0.878,0.087
			c0-0.029,0-0.059,0-0.087c-0.426-0.627-0.607-0.921-0.702-1.488c0.311-0.165,0.064-0.139,0.176-0.438
			c0.349,0.042,1.797-0.064,2.017-0.351c-0.179-0.157-0.062,0-0.175-0.262c0.088,0,0.175,0,0.264,0
			c0.071,0.276-0.014,0.022,0.262,0.175c-0.019-0.409-0.151-0.29,0.177-0.525c0.321-0.112,0.862-0.018,1.754,0
			c-0.03,0.321-0.059,0.642-0.088,0.963c-0.249,0.097-0.127,0.076-0.351,0.087c0.089,0.293,0.028,0.398,0.176,0.525
			c0.532,0.429,1.017,0.312,1.842,0.263c0.028-0.146,0.059-0.292,0.088-0.438c-0.194-0.036-0.148-0.047-0.439-0.175
			c0.117-0.058,0.234-0.117,0.352-0.175c0.129,0.296,0.923,1.037,1.403,1.05c-0.003,0.101-0.124,0.631,0.176,0.438
			c0.164,0.185,0.067,0.055,0.351,0.174c-0.008,0.628-0.002,0.617,0.264,0.963c1.694-0.028,2.235-0.887,3.332,0.088
			c0.06-0.059,0.117-0.117,0.177-0.175c0-0.419-0.078-0.425,0.438-0.35c0.191-0.263,1.061-0.501,1.58-0.438
			c-0.133-0.467-0.246-0.349-0.527-0.612c1.227,0.158,2.92-0.02,3.246,1.225c-0.784,0.196-1.523,0.572-1.755,0.962
			c0.262,0.024,0.357,0.119,0.439,0.35c0.62-0.264,1.265-0.647,1.491-0.262c0.332,0.035,0.544,0.408,0.613,0.699
			c0.059-0.117,0.118-0.233,0.175-0.35c0.01-0.343,0.208-0.559,0.089-0.788c-0.177-0.234-0.48-0.194-0.965-0.35
			c0.058-0.35,0.117-0.7,0.175-1.05c0.06,0.029,0.117,0.059,0.176,0.087c0.877,0.087,1.755,0.175,2.631,0.263
			c-0.149,0.785,0.317,1.528,0.877,1.75c-0.611,3.215,0.354,2.909,1.58,5.601c0.322,0.71-0.506,0.756,0.438,1.925
			c0,0.175,0,0.35,0,0.525c-0.567,0.754-0.527,1.027-0.527,2.976c-0.246-0.201-0.623-0.506-0.876-0.175
			c-0.752,0.112-1.779,0.925-2.456,1.312c0.058,0.088,0.117,0.175,0.176,0.263c0.042,0.004,1.578,1.838,1.578,1.838
			c0.029,0.088,0.058,0.175,0.087,0.263c-0.029,0.028-0.058,0.058-0.087,0.087c0.327-0.234,0.257-0.417,0.525-0.438
			c0.07,0.31,0.955,1.292,0.879,1.488c2.141-0.036,2.074,0.57,2.894,1.138c-0.226,0.177-0.299,0.102-0.525,0.175
			c0.256,0.823-0.021,2.447-0.527,3.15c-0.563,0.106-1.155,0.299-2.192,0.612c0.087,0.175,0.175,0.351,0.263,0.525
			c-0.351,0.038-0.184-0.087-0.438,0.175c0.117,0.242,0.056,0.025,0.088,0.263c-0.433,0.078-0.572,0.601-1.141,1.051
			c-0.175-0.059-0.35-0.117-0.525-0.176c-0.164,0.337-0.31,0.336-0.177,0.788c-0.446,0.005-0.314-0.041-0.613,0.087
			c0,0.204,0,0.409,0,0.613c-0.146,0-0.292,0-0.439,0c0,0.175,0,0.35,0,0.524c-0.171-0.215-0.048-0.035-0.087-0.263
			c-0.772,0.222-1.149,0.405-1.666,0c-0.391,0.384-0.107,0.744-0.615,0.963c-0.086-0.351,0.027-0.044-0.263-0.263
			c-0.162,0.562-0.626,0.769-0.438,1.313c0.015,0.069,0,0.176,0.088,0.087c0,0.059,0,0.117,0,0.176
			c0.367-0.245,0.673-0.65,0.702-0.788c0.174,0.117,0.351,0.233,0.526,0.351c-0.109-0.318-0.09-0.476,0.087-0.7
			c0.171,0.27,1.571,0.611,2.019,0.524c0.064,1.173,1.058,2.892,2.104,2.888c0.079,2.36,0.065,4.932-0.701,5.514
			c-0.754,0.574-1.505,0.704-2.018,1.488c-0.322,0.491-0.028,1.514-0.613,2.013c-0.79-0.149-1.056-0.033-2.193,0
			c-0.137-0.352-0.437-0.477-0.525-0.438c-0.367-0.41-0.754,0.091-1.404,0.087c-0.047-0.425-0.562-0.43-1.053-0.612
			c-0.521,0.892-1.075,0.577-1.315,1.226c1.48-0.074,3.794,4.761,4.911,4.463c-0.029,0.146-0.058,0.292-0.087,0.438
			c-0.508,0.009-1.121,0.072-1.403,0.351c0.029,0.262,0.058,0.524,0.088,0.787c2.485,1.052,4.48,4.174,7.193,4.288
			c-0.149,0.454-2.64,5.553-2.982,5.688c0.213,0.562,1.058,2.058,1.228,1.75c0.709,1.129,0.24,3.641-0.439,4.113
			c-0.455-0.895-1.751-0.917-2.105-1.75c0.029-0.233,0.06-0.467,0.089-0.7c-0.341-0.519-2.782-2.687-3.333-2.625
			c0.007-0.467-0.015-0.278-0.088-0.613c-0.397-0.089-2.617-0.383-2.72-1.05c-0.188,0.057-0.694,0.238-0.789,0.088
			c-0.585-0.065-0.718-0.458-1.053-0.963c-3.12,0.633-8.568,0.794-11.403,0.086c-0.58-0.144-1.293,0.245-1.579,0.352
			c-0.321-0.029-0.644-0.059-0.966-0.088c-0.643,0.457-1.944,0.331-2.543,0.438c-0.059,0-0.117,0-0.176,0
			c-0.204-0.204-0.409-0.408-0.613-0.612c-0.447,0.126-0.598-0.024-0.526,0.524c0.005,0.5-0.1,0.789,0.438,1.051
			c-0.087,0.204-0.175,0.408-0.263,0.612c-0.989-0.015-2.326-0.136-2.982-0.7c-0.241-0.207-3.038,0.956-3.859,0.263
			c-0.029,0-0.059,0-0.088,0c-0.059,0-0.117,0-0.175,0c-0.088,0.059-0.176,0.117-0.264,0.175c0,0.176,0,0.351,0,0.525
			c0.312,0.083,0.271,0.176,0.438,0.438c-1.309-0.012-1.727,0.098-2.368,0.438c-0.523,0.278-6.293-1.15-6.579-1.662
			c-2.542,0.928-5.156-0.677-6.053-0.875c-0.743-0.165-3.399,0.421-3.245-0.7c-1.709-0.174-3.215,0.648-3.333,0.437
			c-0.229-0.036-0.049,0.086-0.264-0.087c0.244-0.3,0.695-0.871,0.79-1.312c-0.737-0.196-0.64-0.627-1.492-0.525
			c-0.058,0.233-0.116,0.467-0.175,0.7c-0.865-0.114-0.905-0.061-1.403-0.525c-0.611,0.305-1.283,0.515-1.843,0.351
			c-0.226,0.206-0.369,0.382-0.613,0.35c0.131,0.145,0.267,0.16,0.438,0.263c-0.179,0.261-0.25-0.028-0.175,0.263
			c-0.38,0-0.76,0-1.141,0c-0.146-0.35-0.292-0.7-0.438-1.05c-0.292,0.028-0.585,0.057-0.877,0.087
			c-0.059,0.175-0.117,0.351-0.175,0.525c0.276,0.126,0.704,0.386,0.526,0.875c-0.332,0.166-0.18,0.038-0.263,0.263
			c-0.261-0.094-0.848-0.468-0.614-0.263c-0.351,0.163-0.763,0.367-1.053,0.087c-0.059,0.03-0.117,0.06-0.175,0.088
			c0.252-0.643,0.348-0.569,0.701-1.225c-0.059-0.059-0.117-0.117-0.175-0.176c-0.292,0.059-0.584,0.117-0.877,0.176
			c-0.024,0.601-0.226,1.268-0.526,1.137c-0.049,0.248-0.343,0.205-0.614,0.351c0.074-0.667,0.371-0.827,0.702-1.312
			c-0.104-0.195-0.096-0.218-0.263-0.351c0.029,0.059,0.059,0.117,0.088,0.176c-0.354,0.217-0.726,0.726-1.053,0.963
			c0.058-0.205,0.116-0.409,0.175-0.613c-0.542,0.161-0.618,0.012-0.965,0.263c0,0.233,0,0.467,0,0.7
			c-0.233,0.029-0.468,0.059-0.701,0.088c0.018,0.166-0.929,1.036-1.141,1.137c-0.351,0.029-0.702,0.059-1.053,0.088
			c-0.646,0.575-1.551,1.646-2.105,1.926c0,0.263,0,0.525,0,0.787c0.607,0.298,2.112,1.619,1.93,2.451c0,0.145,0,0.29,0,0.438
			L20.615,88.2c-0.054-0.025-0.353-0.41-0.702-0.351c-0.223-1.459-1.219-2.286-1.578-3.851c-0.95,0.023-1.525-1.252-2.105-1.925
			c-0.059,0.029-0.117,0.058-0.176,0.087c-0.863-0.351-1.9-1.857-2.719-2.362c-0.225,0.026-0.817-0.355-0.615-0.351
			c-0.561-0.326-1.467-0.208-2.017-0.524c-0.047-0.335-0.268-0.538-0.526-0.875c-1.195,0.255-1.32-0.724-2.544-0.525
			c-0.029,0.029-0.059,0.059-0.087,0.087c-1.328,0.361-2.036,1.438-4.21-0.087c-0.366-0.256-0.6,0.101-0.79-0.438
			c0,0,0.085-0.574-0.087-0.35c-0.173-0.345-1.449-0.572-1.579-0.7c-0.03-0.671-0.059-1.342-0.088-2.014
			C0.36,73.826,0.019,73.56,0,73.235c-0.021-0.832,0.71-1.357,0.79-2.363c-0.087,0-0.175,0-0.264,0
			c0.741-1.377,0.989-1.956,1.579-3.763c-0.258-0.028-0.593-0.297-0.263-0.613c0.045-0.217,0.536-0.75,1.053-0.612
			c0-0.175,0-0.35,0-0.525c0.533,0.215,2.827-0.276,3.07-0.7c0.381,0.146,0.76,0.292,1.14,0.438c-0.005-0.201,0.273-0.588,0.439-0.7
			c0,0,0.721-0.313,1.053-0.088c2.17-1.083,5.305,2.038,6.315,2.538c1.294,0.641,2.457-0.497,3.685,0.524
			c0.306,0.255,0.253-0.396,0.438,0c0.088-0.028,0.176-0.058,0.264-0.087c-0.059,0.116-0.117,0.233-0.176,0.35
			c0.297,0.05,0.395,0.175,0.615,0.525c2.243-0.647,3.309,0.259,4.474,0.963c0.351-0.404,1.78-0.407,1.929-0.351
			c0.212-0.509,0.412-0.469,0.614-1.05c2.115,0.238,2.515-0.422,4.912-0.438c0.044,0.243-0.006,0.006,0.175,0.175
			c-0.443,0.697-0.492,1.218-1.578,1.226c-0.766-0.279-1.492-0.276-2.018-0.088c0-0.116,0-0.233,0-0.35
			c-0.702,0.081-0.861,0.309-1.404,0.438c0.029,0.116,0.059,0.233,0.088,0.35c0.601-0.189,1.187-0.021,1.491,0.175
			c0,0.029,0,0.059,0,0.088c-0.433,0.543-0.164,0.735-0.351,1.487c0.088,0,0.176,0,0.263,0c0.266-0.316,0.549-0.307,0.966-0.175
			c-0.029-0.146-0.059-0.291-0.088-0.438c0.059,0.029,0.117,0.059,0.175,0.088c0.024,0.207-0.02,0.109,0.088,0.35
			c1.08-0.312,2.918-0.785,3.859-0.7c0-0.146,0-0.291,0-0.438c0.36,0.374,1.901-0.036,2.544,0.088
			c0.452,0.428,5.544,1.155,6.667,1.838c1.239-0.039,3.452-0.942,4.035,0.087c0.209,0.095,1.012,0.543,1.315,0.875
			c-0.029,0.088-0.059,0.176-0.087,0.263c1.118-0.176,3.47-1.339,5-0.787c0.567,0.204,1.418,0.616,2.281,0.612
			c-0.112,0.369,0.109,0.61,0,0.963c0.321-0.029,0.644-0.059,0.965-0.088c0.203-1.065,4.785-0.315,5.088,0
			c0.554-0.292,1.11-0.583,1.666-0.875c0.681-0.928,0.581-2.736,1.755-3.851c0.712-0.677,2.123-0.056,2.544-0.438
			c0.027,0.75,0.141,0.39,0.351,0.875c0.117-0.029,0.234-0.058,0.35-0.087c0.03,0,0.06,0,0.089,0c0.088,0,0.176,0,0.264,0
			c0.107-0.003,3.588,0.139,3.508-0.263c0.146-0.029,0.293-0.059,0.439-0.088c0.008,0.016,1.408,1.17,1.754,0.612
			c0.146-0.087,0.293-0.175,0.438-0.262c-0.148-0.471-0.047-0.541-0.176-0.963c0.411-0.035,0.284,0.01,0.527-0.438
			c-0.216-0.619-0.356-0.955-0.702-1.663c0.537-0.069,1.569-1.255,1.667-1.4c-1.139-0.598-1.746-1.15-2.72-1.75
			c-0.604-0.372-1.546,0.311-2.28-0.351c-0.146-0.467-0.293-0.934-0.438-1.399c-3.568,0.566-3.119-2.743-4.649-3.676
			c-0.15-0.092-0.616,0.262-0.439-0.176c-0.763-0.71-0.816-1.691-1.49-2.188c-0.592-0.436-1.76-0.384-2.544-0.962
			c-0.169-0.125-0.439-1.663-0.439-1.663c-1.141-1.481-2.249-0.382-2.894-2.538c0.596-0.286,1.002-0.675,1.315-0.963
			c0.225-0.207,2.125,0.162,2.72-0.263c0.057-0.028,0.116-0.058,0.175-0.087c-0.029-0.408-0.059-0.817-0.088-1.226
			c-1.112,0.128-3.372-2.885-3.158-3.238c0.254-0.69,0.753-1.143,0.702-2.362c0.381,0.19,1.328,0.121,1.228-0.263
			c0.512,0.216,0.549,0.433,0.79,0.175c0.059,0,0.117,0,0.176,0c-0.221-0.707-0.412-0.734-0.351-1.312
			c-1.031,0.041-1.496-0.378-1.579-1.138c0.153-0.511,0.117-0.673,0.789-0.7c0.075,0.164,0.392,0.458,0.438,0.351
			c0.33-0.044,0.47-0.336,0.702-0.438c-0.229-0.614-0.912-2.104,0.087-1.751c-0.089,0.55,0.204,0.853,0.352,1.138
			c0.088,0,0.176,0,0.262,0c0.274-0.246,0.355-0.347,0.527-0.7c-0.813-0.384-0.357-1.085-1.052-1.75c-0.03,0-0.061,0-0.089,0
			c-0.188,0.295-0.194,0.224-0.351,0c-0.401,0.27-0.393,0.464-1.053,0.525c-0.176-0.325-0.432-0.066-0.702-0.438
			c-0.408-0.583-0.817-1.167-1.228-1.75c-0.816-0.574-5.841-2.757-5.789-3.413c-0.678-0.036-0.468-0.359-1.053-0.613
			c-0.016,0.037-0.131,0.461-0.263,0.175c-0.42-0.089-3.24-1.693-3.597-1.137c-0.624,0.241-0.232,0.406-0.614,0.7
			c-0.088-0.059-0.176-0.117-0.263-0.175c-0.896,0.044-1.821-0.578-2.72-1.4c-0.059,0.03-0.117,0.058-0.176,0.087
			c-0.003,0.344,0.05,0.874-0.175,0.7c-0.117,0.175-0.234,0.35-0.352,0.525c-1.1,0.01-4.561,0.087-4.561,0.087
			c-2.268-1.083-5.021-3.299-2.018-6.389c0.65,0.415,1.088-0.402,1.842-0.437c-0.152-0.487,0-0.206-0.264-0.438
			c-0.116,0.201-1.069,0.039-1.14,0.087c-0.297-0.17-0.26-0.14-0.351-0.525c0.267-0.008,0.114-0.107,0.351-0.438
			c2.708,0.146,5.101-0.493,6.14-1.312c0.565-0.446,1.722-1.851,2.72-1.925c0.246,0.376,3.905,0.357,4.298,0.7
			c0.029,0.028,0.059,0.058,0.088,0.087c0.059,0.03,0.117,0.059,0.176,0.087c-0.029-0.146-0.059-0.292-0.088-0.437
			c0.565-0.062,1.374-0.009,2.018-0.175c0.088,0.204,0.176,0.408,0.263,0.612c0.117-0.029,0.234-0.058,0.352-0.087
			c-0.12-0.454-0.106-0.357,0.175-0.438c0.278-0.305,1.567-0.71,2.456-0.437c-0.215,0.171-0.035,0.049-0.263,0.087
			c-0.146,0.117-0.293,0.233-0.438,0.35c0,0.088,0,0.175,0,0.263c0.029,0.029,0.059,0.058,0.088,0.088
			c0.254-0.076,0.611,0.046,0.438-0.175c0.203-0.059,0.409-0.117,0.614-0.175c-0.146-0.452-0.146-0.289,0-0.7
			c0.058-0.029,0.116-0.059,0.174-0.087c0.381,0.029,0.762,0.059,1.142,0.087C57.633,17.285,57.721,17.168,57.808,17.051z"/>
		<path style="fill-rule:evenodd;clip-rule:evenodd;fill:#010101;" d="M50.351,18.101c0.029,0.058,0.059,0.117,0.088,0.175
			C50.41,18.218,50.38,18.159,50.351,18.101z"/>
		<path style="fill-rule:evenodd;clip-rule:evenodd;fill:#010101;" d="M75.264,23.614c0.088,0.059,0.175,0.117,0.264,0.175
			c-0.059,0.059-0.117,0.117-0.176,0.175C75.321,23.848,75.293,23.731,75.264,23.614z"/>
		<path style="fill-rule:evenodd;clip-rule:evenodd;fill:#010101;" d="M80.965,24.052c0.03,0.058,0.06,0.117,0.088,0.175
			C81.024,24.169,80.995,24.11,80.965,24.052z"/>
		<path style="fill-rule:evenodd;clip-rule:evenodd;fill:#010101;" d="M94.387,26.765c-0.375,0.351-0.875,0.575-0.615,0.962
			c0.158,0.313-0.045,0.104,0.265,0.263c0.019-0.239,0.168-0.748,0-0.437c0.233-0.263,0.468-0.526,0.7-0.788
			C94.621,26.765,94.504,26.765,94.387,26.765z"/>
		<path style="fill-rule:evenodd;clip-rule:evenodd;fill:#010101;" d="M42.632,53.369c0.73,0,1.462,0,2.192,0
			c0.579,0.322,1.712,1.185,2.281,1.312c0.848,0.059,1.696,0.117,2.544,0.176c0.009,0.511,2.281,1.758,2.807,2.188
			c0.696,0.062,3.9,0.848,4.474,1.312c-0.26,0.169-0.001,0.022-0.175,0.263c1.142,0.149,1.929,2.925,1.753,3.238
			c-0.144,0.244-0.366,0.217-0.701,0.438c0.101,0.257,0.391,0.98,0.264,0.7c-0.016,0.396-0.178,0.025-0.176,0.525
			c-0.248-0.098-0.127-0.076-0.351-0.088c-0.146-0.292-0.293-0.584-0.438-0.875c0.059,0.029,0.117,0.058,0.175,0.087
			c-0.214-0.228-2.848-0.919-3.157-1.05c-0.906,0-1.813,0-2.72,0c-1.539-0.691-2.614-2.021-4.124-2.801
			c-0.523-0.271-2.982-0.438-2.982-0.438c-0.722-0.4-3.241-2.761-3.333-3.413C41.345,54.752,42.632,53.369,42.632,53.369z"/>
		<path style="fill-rule:evenodd;clip-rule:evenodd;fill:#010101;" d="M43.773,57.92c0.058,0.059,0.116,0.117,0.175,0.175
			C43.889,58.037,43.831,57.979,43.773,57.92z"/>
		<path style="fill-rule:evenodd;clip-rule:evenodd;fill:#010101;" d="M24.913,65.271c0.767,0.014,1.865,0.365,2.105,0.875
			c0,0.029,0,0.059,0,0.088c0.004,0.661-0.8,1.235-1.579,1.312c-0.384-0.762-1.231-0.374-1.842-1.4
			C24.021,65.662,24.243,65.79,24.913,65.271z"/>
		<path style="fill-rule:evenodd;clip-rule:evenodd;fill:#010101;" d="M23.159,66.321c0.297,0.078,0.116,0.074,0.35,0.088
			c-0.059,0.058-0.117,0.116-0.175,0.175c0,0.059,0,0.116,0,0.175c-0.117-0.059-0.234-0.116-0.352-0.175
			C23.042,66.496,23.101,66.409,23.159,66.321z"/>
		<path style="fill-rule:evenodd;clip-rule:evenodd;fill:#010101;" d="M33.071,69.56c0.029,0.059,0.059,0.116,0.088,0.175
			C33.129,69.676,33.1,69.618,33.071,69.56z"/>
		<path style="fill-rule:evenodd;clip-rule:evenodd;fill:#010101;" d="M39.826,79.536c0.116,0.116,0.233,0.233,0.351,0.35
			c0.204,0,0.409,0,0.614,0c0-0.087,0-0.175,0-0.263C40.468,79.595,40.147,79.565,39.826,79.536z"/>
		<path style="fill-rule:evenodd;clip-rule:evenodd;fill:#010101;" d="M37.72,80.322c0.204,0.348,0.011,0.28,0.263,0.439
			c-0.331,0.34-0.566,0.11-1.14,0.174c0.058-0.087,0.116-0.174,0.175-0.262c0-0.059,0-0.117,0-0.175
			C37.537,80.609,37.404,80.657,37.72,80.322z"/>
		<path style="fill-rule:evenodd;clip-rule:evenodd;fill:#010101;" d="M86.054,81.374c0.058,0,0.117,0,0.175,0
			C86.171,81.374,86.111,81.374,86.054,81.374z"/>
		<path style="fill-rule:evenodd;clip-rule:evenodd;fill:#010101;" d="M26.667,84.875c0.879,0.094,1.51,0.528,2.018,1.05
			c0.514,0.527,1.482-0.641,1.754-0.525c0.06,0.003,0.324-0.041,0.176,0.088c0.402,0.082,0.72,0.562,0.965,1.05
			c-0.221,0.045-0.391,0.309-0.614,0.263c-0.099,0.193-3.01-0.041-3.07-0.351c-0.28-0.118-0.59-0.739-0.438-1.05
			c-0.307,0.191-0.084,0.331-0.351,0.088C26.959,85.283,26.814,85.077,26.667,84.875z"/>
		<path style="fill-rule:evenodd;clip-rule:evenodd;fill:#010101;" d="M28.421,86.888c0.059,0,0.117,0,0.176,0
			C28.539,86.888,28.48,86.888,28.421,86.888z"/>
	</g>
</g>
<g id="Layer_1">
</g>
</svg>
