<?xml version="1.0" encoding="iso-8859-1"?>
<!-- Generator: Adobe Illustrator 16.0.3, SVG Export Plug-In . SVG Version: 6.00 Build 0)  -->
<!DOCTYPE svg PUBLIC "-//W3C//DTD SVG 1.1//EN" "http://www.w3.org/Graphics/SVG/1.1/DTD/svg11.dtd">
<svg version="1.1" xmlns="http://www.w3.org/2000/svg" xmlns:xlink="http://www.w3.org/1999/xlink" x="0px" y="0px" width="100px"
	 height="100px" viewBox="0 0 100 100" style="enable-background:new 0 0 100 100;" xml:space="preserve">
<g id="HU">
	<path style="fill:#010101;" d="M0.173,55.823c0.438-0.198,0.919-0.746,1.203-0.152c0.284,0.589,0.438,0.983,0.263,1.727
		c-0.176,0.743,0.219,1.048,0.656,1.201c0.437,0.154,1.049,0.241,1.049,0.7c0,0.46-0.044,0.635-0.546,0.94
		c-0.503,0.305,0.612,0.94,0.809,1.115s1.18,0.853,1.509,1.443c0.31,0.558,0.386,1.504,0.798,1.736
		c0.024,0.014,0.05,0.027,0.077,0.035c0.48,0.153,0.984,0.832,1.203,1.201c0.219,0.373,0.83,0.526,1.334,0.767
		c0.503,0.241,1.354,0.633,1.442,1.379c0.087,0.743,0.438,1.815,1.203,2.273c0.765,0.458,1.224,0.59,1.443,0.939
		c0.219,0.351,0.655,0.57,0.983,0.546c0.328-0.021,0.766,0.721,0.94,1.116c0.176,0.395,0.351,1.161,0.679,1.598
		c0.327,0.438,0.503,0.415,0.853,0.853s0.524,1.006,0.984,1.158c0.458,0.153,1.026,0.175,1.704,0.175
		c0.68,0,1.007-0.152,1.664,0.284c0.654,0.437,0.829,0.657,0.917,0.983c0.088,0.327,0.219,0.811,0.656,1.027
		c0.438,0.221,0.46,0.177,0.897,0.352c0.437,0.174,0.873,0.064,1.115,0.131c0.24,0.064,0.437,0.547,0.742,0.611
		c0.306,0.067,0.767,0.022,1.137-0.085c0.373-0.11,0.788,0.305,1.05,0.326c0.263,0.022,0.679,0.373,1.137,0.242
		c0.461-0.132,1.292-0.373,1.642-0.199c0.351,0.175,1.159,0.832,1.574,0.811c0.415-0.022,0.876-0.328,1.225-0.109
		s0.765,0.568,1.225,0.24c0.459-0.326,1.026-1.203,1.815-1.946c0.787-0.744,1.595-1.706,2.863-1.29
		c0.494,0.161,0.919,0.269,1.298,0.301c0.598,0.051,1.082-0.084,1.523-0.496c0.722-0.679,1.181-1.399,1.597-1.467
		c0.415-0.064,0.394-0.438,0.568-0.786c0.176-0.351,0.548-0.656,0.919-0.505c0.372,0.154,0.196,1.05,0.94,0.875
		c0.743-0.175,1.902-0.7,2.448-0.941c0.547-0.237,1.597-0.568,1.881-0.852c0.284-0.285,0.372-1.706,1.16-2.033
		c0.786-0.327,1.421-0.548,1.923-0.373c0.503,0.178,1.093,0.767,1.442,0.898c0.351,0.131,0.984-0.263,1.423-0.7
		c0.438-0.437,0.722-0.504,1.661-0.088c0.941,0.415,1.598,0.483,1.881,0.351c0.285-0.131,0.46,0.349,0.722,0.349
		c0.263,0,0.263-0.415,0.503-0.415c0.241,0,0.374,0.646,0.766,0.611c0.708-0.057,1.582-0.641,1.932-0.641s0.76,0.466,1.4,0.351
		c0.641-0.117,0.699-0.817,1.457-0.407c0.759,0.407,0.918,0.743,1.291,0.568c0.371-0.177,0.611-0.745,1.092-0.504
		c0.482,0.242,1.051,0.132,1.051-0.306s-0.371-2.011,0.021-2.188c0.394-0.175,1.203-0.196,1.793-0.196
		c0.591,0,1.793,0.327,2.34,0.349c0.547,0.024,0.525-0.196,0.722-0.7c0.197-0.502,0.416-0.502,0.699-0.633
		c0.285-0.132,0.176-0.788,0.482-1.441c0.307-0.658,0.612-0.811,1.07-0.811c0.46,0,0.744-0.525,0.592-0.874
		c-0.154-0.351-0.766-0.373-0.439-1.422c0.329-1.051,0.373-1.924,0.701-2.209c0.328-0.284,1.399-0.546,1.662-0.61
		c0.263-0.068,0.044-0.856,0.175-0.964c0.131-0.109,0.765,0.043,0.896-0.22c0.131-0.263-0.043-0.852-0.088-1.289
		c-0.044-0.438,0.35-0.48,0.481-0.789c0.131-0.305-0.043-0.59,0.329-0.853c0.371-0.262,0.677-0.458,0.83-0.938
		c0.154-0.482-0.066-1.16,0.546-1.599c0.613-0.437,0.897-1.006,0.46-1.683c-0.438-0.677-0.196-0.808,0.327-1.376
		c0.526-0.57,0.876-1.162,1.334-1.773c0.46-0.61,0.395-1.158,0.592-1.422c0.195-0.262,0.61-0.853,0.7-1.355
		c0.087-0.502,0.349-1.663,0.722-1.685c0.37-0.021,1.07,0.066,1.202-0.59c0.131-0.658-0.219-2.078-0.152-2.624
		c0.064-0.546,1.181-0.918,1.683-1.465c0.504-0.547,0.743-1.333,0.896-1.795c0.153-0.458,0.481-0.522,0.656-0.61
		c0.174-0.089-0.109-0.504,0.088-0.657c0.196-0.153,0.59-0.107,0.809-0.611c0.22-0.504,0.459-0.481,0.896-0.196
		c0.437,0.284,1.137,0.064,1.312-0.198c0.174-0.263,0.306-0.941,0.699-0.941s0.854,0.546,1.116,0.546
		c0.261,0,0.699-0.284,1.07-0.392c0.371-0.109,0.679-0.677,1.182-0.962c0.503-0.284,0.393-0.613,0.611-1.03
		c0.219-0.416,0.918-0.543,1.226-0.896c0.306-0.348,0.722-1.268,0.24-1.443c-0.482-0.173-0.438-0.481-0.219-1.004
		c0.219-0.526-0.087-0.789-0.438-1.399c-0.35-0.615-0.721-1.031-1.684-0.679c-0.963,0.348-1.684,0.306-2.1-0.306
		c-0.416-0.614-1.028-1.99-1.443-2.188c-0.415-0.195-1.049,0.067-1.465,0.067c-0.415,0-0.525-0.284-0.831-1.093
		c-0.306-0.81-0.415-1.312-0.983-1.095c-0.569,0.221-0.351-0.458-0.306-0.873c0.043-0.417-0.438-0.831-0.941-0.831
		c-0.504,0-0.984,0.263-1.138,0.656c-0.151,0.392-0.35,0.438-0.786,0.196c-0.438-0.242-1.312,0.284-1.816,0.437
		c-0.502,0.152-1.486,0.831-2.12,0.898c-0.634,0.064-1.486-0.571-1.881-1.16c-0.393-0.591-0.677-1.791-1.006-2.231
		c-0.328-0.437-0.678-0.416-0.874-0.437c-0.197-0.022-0.131-0.764-0.438-0.962c-0.306-0.196-0.59-0.108-0.875-0.261
		c-0.283-0.153-0.459-0.331-0.72-0.11c-0.263,0.217-0.613,0.217-0.963,0.174c-0.35-0.043-0.481,0.482-0.766,0.611
		c-0.284,0.131-0.634,0.309-1.051,0.221c-0.415-0.089-1.07,0.263-1.486,0.263c-0.415,0-1.026-0.438-1.465-0.438
		c-0.438,0-0.875,0.152-1.115-0.131c-0.241-0.285-0.35-0.504-0.591-0.285c-0.239,0.218-0.503-0.044-0.546-0.241
		c-0.044-0.196-0.482,0-0.677-0.218c-0.197-0.219-0.789-0.046-1.27,0.175c-0.481,0.217-1.226,0.81-1.684,0.81
		c-0.46,0-0.81-0.067-1.269,0.742c-0.459,0.81-1.226,1.816-1.378,2.449c-0.153,0.636-0.655,1.772-1.006,2.013
		c-0.35,0.239-0.394,0.064-0.547,0.328c-0.152,0.262-0.284,0.611-0.679,0.415c-0.393-0.197-0.458-0.372-0.59-0.045
		c-0.131,0.331-0.458,0.615-0.612,0.416c-0.153-0.196-0.635-0.371-0.83-0.064c-0.196,0.307-0.154,0.59-0.394,0.679
		c-0.241,0.086-0.264,0.938-0.7,0.938c-0.438,0-0.699,0-0.984,0.373c-0.283,0.373-0.831,0.656-1.115,0.568
		c-0.284-0.085-0.131-0.721-0.568-0.721c-0.437,0-0.874,0.088-1.115-0.11c-0.24-0.196-0.306-0.853-0.722-0.985
		c-0.416-0.131-0.634,0.306-0.919,0.175c-0.284-0.129-0.546-0.807-0.743-0.807c-0.195,0-0.611,0.394-0.809,0.546
		c-0.197,0.153-0.176,0.7-0.263,0.985c-0.087,0.284-0.393,0.721-0.7,0.896c-0.306,0.173-0.131,0.656-0.306,0.896
		c-0.176,0.242-0.723,0.177-1.159,0.177c-0.438,0-1.027,0.021-1.596,0.152c-0.568,0.131-0.723,0.679-0.941,0.679
		s-0.458,0.085-0.7-0.067c-0.239-0.154-0.336-0.159-0.458-0.175c-1.056-0.143-1.444,0-2.013-0.046
		c-0.568-0.043-1.705,0.483-2.317,0.7c-0.611,0.221-0.934,0.322-1.107,0.7c-0.176,0.38-0.554,0.41-0.554,0.729
		c0,0.322,0.378,0.818,0.204,0.992c-0.177,0.174-0.38,0.903-0.177,1.048c0.206,0.147,1.051,0.73,1.051,0.934
		c0,0.206,0,0.206,0,0.206s-1.167,0.175-1.371,0.641c-0.203,0.466-0.553,0.845-1.428,0.815c-0.875-0.03-2.828,0.292-3.819,0.407
		c-0.992,0.118-1.75,0.089-2.684-0.057c-0.932-0.147-2.188-0.263-3.265-0.263c-1.079,0-2.012-0.118-2.74,0.029
		c-0.729,0.146-1.196-0.496-1.576-0.817c-0.378-0.319-1.194-0.612-1.865-1.138c-0.671-0.525-1.225-1.136-1.809-1.866
		c-0.582-0.73-1.224-1.108-1.864-1.748c-0.642-0.642-1.371-1.518-1.371-1.518s-0.495,0.41-0.962,0.788
		c-0.466,0.378-0.642,0.794-0.598,1.384c0.043,0.592-0.197,1.116-0.503,1.268c-0.307,0.155-0.875,0.526-0.656,1.008
		c0.218,0.48,0.438,0.59,0.175,0.875c-0.262,0.284,0.088,0.568,0.175,1.048c0.088,0.483,0.568,0.962-0.524,1.073
		c-1.094,0.11-2.668,0.283-3.236,0.306c-0.568,0.021-1.071-0.131-1.16-0.526c-0.087-0.391-0.371-0.305-0.568-0.106
		c-0.195,0.195-0.306,0.064-0.415-0.308c-0.108-0.371-0.677-0.458-1.006-0.59c-0.327-0.131-0.963-0.153-1.116,0.351
		C5.75,37.036,5.422,37.52,5.05,37.562c-0.372,0.043-0.634,0.811-0.416,0.984c0.219,0.174,0.35,0.306,0.591,0.306
		c0.24,0,0-0.501,1.072,0.089c1.07,0.589,1.399,0.653,1.378,1.247c-0.023,0.59,0.414,0.567,0.524,0.873
		c0.108,0.306-0.308,0.568-0.656,0.854c-0.35,0.283-0.35,0.917-0.612,1.004c-0.263,0.09-0.503,0.044-0.766,0.307
		c-0.264,0.263,0,0.416-0.613,0.352C4.94,43.51,4.963,43.183,4.46,44.145c-0.503,0.963-0.263,0.938-0.11,1.069
		c0.152,0.133,0.679,0.199,0.416,0.941c-0.264,0.743-0.722,1.464-0.787,1.794c-0.065,0.327-0.219,0.964,0.263,1.247
		c0.48,0.285,1.071,0.392,0.545,0.916c-0.523,0.527-1.092,0.329-0.568,0.875c0.526,0.549,0.504,0.31,0.023,0.726
		c-0.481,0.412,0.415,0.96-0.328,0.96s-2.45-0.48-2.69-0.196s-0.918,1.421-0.94,1.879c-0.005,0.1-0.032,0.231-0.068,0.376
		C0.081,55.265-0.171,55.976,0.173,55.823z"/>
</g>
<g id="Layer_1">
</g>
</svg>
