<?xml version="1.0" encoding="iso-8859-1"?>
<!-- Generator: Adobe Illustrator 16.0.3, SVG Export Plug-In . SVG Version: 6.00 Build 0)  -->
<!DOCTYPE svg PUBLIC "-//W3C//DTD SVG 1.1//EN" "http://www.w3.org/Graphics/SVG/1.1/DTD/svg11.dtd">
<svg version="1.1" xmlns="http://www.w3.org/2000/svg" xmlns:xlink="http://www.w3.org/1999/xlink" x="0px" y="0px" width="100px"
	 height="100px" viewBox="0 0 100 100" style="enable-background:new 0 0 100 100;" xml:space="preserve">
<g id="IN">
	<path style="fill:#010101;" d="M41.388,28.093l9.029,5.184l5.019,0.168l2.007,2.006l7.357,1.672l2.674-0.334l0.504-1.17
		l-0.839-0.836l0.335-0.669l0.504-2.675l2.006-0.669v2.341l0.667,0.334l-0.667,0.668l0.502,1.003l2.509,0.669l7.691-0.836
		l0.669-1.504l-1.505-0.669v-1.003l4.346-1.672l5.018-3.846l2.341,0.167l2.51-1.003l0.669,1.839l0.502,0.167l-0.168,1.672
		l2.507,0.501l0.838,0.836v0.835l-0.838,0.503l-0.332,2.173l-2.678,0.167l-3.01,2.509l-0.167,2.508l-1.671,2.174l-1.674,4.347
		l-2.844,0.836l-0.167,3.01l-0.836,0.167l-0.165,0.501l0.501,2.006l-1.673,0.836l-1.673-6.521l-1.67,2.508l-1.338-1.003
		l-0.669-2.174l4.014-4.181l-7.357-0.835l-1.004-0.836l-0.671-2.509l-0.332,0.836h-0.839l-0.669-1.505l-0.667,1.171l-1.003-1.505
		l-1.171,2.341l0.334,1.003l1.337,0.167l0.169,1.17h-1.34l-1.171,1.671l2.009,1.672l-0.167,2.342l1.505,7.19l-0.502,0.168
		l-0.334-0.837v0.669l-1.34,0.502l-0.5-2.342l-0.671,1.338l-3.01,1.338v2.509l-2.339,2.508l-4.348,2.341l-2.676,3.346l-5.853,4.514
		l-0.836,1.673l-3.011,0.836l-1.17,2.007h-1.841l-0.834,1.337l0.165,5.687l0.669,1.505l-1.67,5.184l0.167,4.348h-1.673l-1.17,2.341
		v1.004l-2.678,0.836L34.7,98.827L33.362,100h-1.003l-2.341-2.847l-3.011-8.359l-2.173-2.843l-1.004-4.348l-2.508-4.516
		l-0.169-2.007l-0.669,0.335l-0.5-1.17l-1.171-2.509l-1.507-6.521l0.336-2.174h-0.501l-0.501-2.341l0.501-2.676l-1.003-5.018
		l1.168-1.338l-2.004-0.334L14.3,55.684l-2.342,1.004H9.45L4.769,52.34l-0.168-0.836l3.178-0.335l1.168-1.003l0.336-1.671
		l-2.173,1.17H4.601L1.589,46.32l1.003-0.669h1.675l0.165-1.505l3.849,0.836l1.502-1.003l0.838,0.836l1.338-0.669l-1.672-4.514
		l-1.673-0.836l0.333-2.174l-2.339-0.502l0.335-1.672l2.84-3.678l1.34,1.338l3.178-0.837l1.67-2.842l1.674-1.171l1.84-3.344
		l1.171-0.502l0.334-1.003l1.336-2.007l2.007-0.836l-1.169-0.669l0.669-0.836l-0.669-0.836l0.502-1.003l2.341-1.171l-0.502-1.003
		l-1.672-0.167l-0.167-1.171l-1.34-0.333l-1.17-1.34l1.005-1.171l-0.836-1.003l0.836-0.836l-1.171-0.669l0.335-0.669l-0.669-0.334
		l0.5-1.505l1.17-0.334l4.181,1.17l2.845-0.836l1.336,0.167l0.671-1.338l2.006-1.505L38.881,0l2.342,1.504l0.165,0.836l1.003-0.334
		l-1.003,3.01l-1.503,1.337l-0.167,1.34l-2.007,0.333l0.165,2.508l1.505,0.836l0.504,1.672l-2.009,1.505l-0.834-1.337l-0.837,0.669
		l1.002,2.175l-0.165,2.005l0.834,1.672l1.674-0.167l5.184,3.177l-2.343,1.673L41.388,28.093z"/>
</g>
<g id="Layer_1">
</g>
</svg>
