<?xml version="1.0" encoding="iso-8859-1"?>
<!-- Generator: Adobe Illustrator 16.0.3, SVG Export Plug-In . SVG Version: 6.00 Build 0)  -->
<!DOCTYPE svg PUBLIC "-//W3C//DTD SVG 1.1//EN" "http://www.w3.org/Graphics/SVG/1.1/DTD/svg11.dtd">
<svg version="1.1" xmlns="http://www.w3.org/2000/svg" xmlns:xlink="http://www.w3.org/1999/xlink" x="0px" y="0px" width="100px"
	 height="100px" viewBox="0 0 100 100" style="enable-background:new 0 0 100 100;" xml:space="preserve">
<g id="IQ">
	<path style="fill:#010101;" d="M43.56,0l-4.407,3.391l-5.764,6.779l-5.932,2.033l-0.848,18.986l-1.525,4.406L2.203,49.323
		l3.897,12.202l14.577,4.406l11.186,7.799l9.83,3.896l2.375,3.9l4.914,1.018l1.019,7.797l11.187,4.914L68.476,100l9.83-4.406
		l6.779-9.152h6.779l4.069,0.848l1.863-1.354l-5.933-4.916l-1.356-4.916l-2.541-1.018l0.509-8.645l-3.391-7.457l-12.202-7.799
		L66.61,41.017l1.865-6.439l5.423-8.305l-0.509-3.391l2.034-3.39l-7.967-2.882l-5.761-8.813l-0.509-5.423L56.78,2.882l-1.016-1.356
		L43.56,0z"/>
</g>
<g id="Layer_1">
</g>
</svg>
