<?xml version="1.0" encoding="iso-8859-1"?>
<!-- Generator: Adobe Illustrator 16.0.3, SVG Export Plug-In . SVG Version: 6.00 Build 0)  -->
<!DOCTYPE svg PUBLIC "-//W3C//DTD SVG 1.1//EN" "http://www.w3.org/Graphics/SVG/1.1/DTD/svg11.dtd">
<svg version="1.1" xmlns="http://www.w3.org/2000/svg" xmlns:xlink="http://www.w3.org/1999/xlink" x="0px" y="0px" width="100px"
	 height="100px" viewBox="0 0 100 100" style="enable-background:new 0 0 100 100;" xml:space="preserve">
<g id="IS">
	<path style="fill-rule:evenodd;clip-rule:evenodd;fill:#010101;" d="M54.44,29.398c0.599,0.027,1.443,0.355,1.931,0.617
		c-0.005,0.195,0.302,1.516,0.694,1.697c0.01-0.077,0.029-0.021,0.077,0c0.764,0.651,0.367,2.872,1.468,3.856
		c0,0-0.086,0.481-0.077,0.54c0.103,0.025,0.206,0.051,0.309,0.077c-0.574-1.991,0.639-5.012-1.468-5.708
		c-0.025-0.18-0.051-0.36-0.076-0.54c0.103-0.051,0.205-0.103,0.309-0.154c-0.271-0.33-1.846-3.679-1.158-4.242
		c0.154-0.283,0.309-0.565,0.463-0.849c0.752,0.504,1.059,0.228,1.545,0.463c0.025,0.154,0.051,0.309,0.077,0.463
		c0.542-0.111,0.949-0.609,1.312-0.154c0.05,0.03,0.683,0.773,0.618,1.003c0.184-0.035,0.312-0.204,0.386,0
		c0.379,0.35,1.47,1.212,1.312,2.16c0.199,0.394,0.594,0.394,0.541,0.617c0.707-0.147,1.783-0.378,2.162-0.694
		c0,0,0.333-1.659,0.309-2.005c0.455-0.077,0.418-0.12,0.772-0.386c0.029-0.688,0.037-0.791-0.154-1.157
		c0.268-0.309,0.538-0.557,0.771-0.694c0.289,0.253,1.033-0.223,1.545-0.309c-0.049,0.819,0.583,1.477,0.694,2.391
		c0.078-0.026,0.154-0.052,0.232-0.077c-0.026-0.051-0.052-0.103-0.078-0.154c0.052-0.077,0.104-0.154,0.155-0.231
		c0.438-0.051,0.875-0.103,1.312-0.154c0,0.128,0,0.257,0,0.386c0.362-0.167,0.205-0.083,0.309-0.463c0.104,0,0.206,0,0.31,0
		c0.056,0.22-0.029,0.123,0.231,0.309c0.025-0.103,0.052-0.206,0.077-0.309c-0.025-0.128-0.052-0.257-0.077-0.386
		c-0.104,0-0.206,0-0.31,0c0.052,0,0.104,0,0.155,0c0.231-0.154,0.463-0.308,0.694-0.463c0.052,0.077,0.104,0.155,0.154,0.231
		c0.511-0.159,0.306-0.342,0.618-0.54c0.016,0.106,0.047,0.333,0.387,0.463c0.077-0.933,0.326-1.973,0.617-2.623
		c-0.212-0.654-0.552-1.239-0.85-1.62c0-0.025,0-0.051,0-0.077c0.083-1.133-0.342-1.733-0.463-2.854
		c0.129-0.18,0.257-0.36,0.386-0.54c0.007,0.428-0.089,0.302,0.154,0.54c0.015-0.493,0.048-0.534,0.387-0.694
		c0.103-0.026,0.205-0.052,0.309-0.077c-0.062,0.41-0.157,0.558,0.154,0.771c0.041-0.36,0.203-0.327,0.386-0.694
		c0.052,0.051,0.104,0.103,0.155,0.154c0.032,0.28,0.132,0.323,0.309,0.617c0.154,0,0.309,0,0.463,0
		c0.026-0.051,0.052-0.103,0.077-0.154c0.026-0.18,0.052-0.36,0.077-0.54c0.026,0,0.052,0,0.078,0
		c0.077,0.077,0.153,0.154,0.231,0.231c0.086-0.431,0.043-0.529,0.386-0.771c0.733,0.173,1.303,0.202,1.931,0.309
		c-0.015,0.437,0.323,0.553,0.463,0.925c-0.103,0-0.206,0-0.309,0c0.044,0.566-0.072,1.011,0.309,1.389
		c0.516-0.117,1.154,0.36,1.931,0.54c-0.055,0.732,0.299,0.94,0,1.62c0,0.051,0,0.103,0,0.154c-0.287,0.287-0.809,0.484-0.927,0.925
		c0.052,0.052,0.104,0.103,0.155,0.154c0.167,0.018,0.539,0.138,0.771,0.309c-0.025,0.231-0.052,0.463-0.077,0.694
		c0.523-0.055,0.71-0.003,1.158-0.231c0.035,0.364,0.405,0.765,0.618,1.003c0.419-0.068,1.002,0.767,1.312,0.925
		c0.17-0.624-0.036-2.109,0.464-2.545c0.53,0.157,1.504-0.04,1.93-0.309c0.009-0.844,1.573-2.141,2.317-2.545
		c1.408,1.121,1.048-0.007,2.625,0.231c-0.052,0.052-0.104,0.103-0.154,0.154c-0.209,0.326-3.3,1.708-3.938,2.314
		c-0.052-0.025-0.103-0.051-0.154-0.077c0,0.077,0,0.154,0,0.231c0.683,0.173,0.635,0.922,0.927,0.849
		c-0.378,1.374-1.279,1.271-2.239,2.083c-0.052,0.103-0.104,0.206-0.154,0.309c-0.002,0.292,0.043,0.278,0.231,0.54
		c0.491-0.002,0.563-0.009,0.85-0.154c-0.026,0.077-0.052,0.154-0.077,0.231c0.085,0.486-0.063,0.751-0.232,1.08
		c0.692-0.17,1.196,0.181,1.776,0c0.052,0.231,0.103,0.463,0.154,0.694c0.129,0,0.258,0,0.387,0
		c0.128-0.103,0.257-0.206,0.386-0.309c-0.026-0.154-0.052-0.309-0.077-0.463c0.206-0.077,0.412-0.154,0.617-0.231
		c0.367,0.158,0.468,0.258,0.695,0.54c-0.026,0.272,0.07,0.804,0.463,0.694c-0.018,1.085-0.048,1.386-0.386,2.083
		c0,0.128,0,0.257,0,0.386c-0.54,0.506-0.771,0.281-0.694,1.002c-0.206,0-0.412,0-0.618,0c-0.184,0.969-0.461,1.319-0.927,2.006
		c0.154-0.026,0.309-0.052,0.464-0.077c0.103-0.18,0.205-0.36,0.309-0.54c0.103,0.051,0.206,0.103,0.309,0.154
		c-0.148,0.05-0.766,0.59-0.617,0.694c-0.042,0.359,0.014,0.326,0.153,0.385c0.152,0.16,0.029,0.08,0.31,0.154
		c0.104-0.238,3.797-1.829,4.324-1.465c-0.381,0.492-0.455,1.12-0.695,1.697c0.205,0.051,0.425,0.476,0.695,0.849
		c-0.385,0.66-0.836,1.443-1.312,1.542c0.051,0.154,0.103,0.309,0.154,0.463c0-0.051,0-0.103,0-0.154
		c0.839-0.688,0.987-1.25,1.776-1.542c0.112,0.606,1.048,0.913,1.621,1.388c0.077-0.077,0.154-0.154,0.231-0.231
		c0.131,0.305,0.09,0.304,0.464,0.386c0.152-0.346,0.438-0.463,0.694-0.694c0.206,0.026,0.412,0.051,0.618,0.077
		c0,0.154,0,0.309,0,0.463c-0.269,0.141-0.208,0.065-0.309,0.386c0.206,0.026,0.411,0.051,0.617,0.077
		c0.021,0.613,0.039,0.845,0.387,1.08c0.025,0,0.051,0,0.077,0c0.123-0.421,0.118-0.452,0.463-0.694c0.129,0,0.258,0,0.387,0
		c-0.059,0.395-0.163,0.525,0.231,0.462c0.106,0.348,0.04,0.278,0.386,0.386c-0.051,0.334-0.103,0.668-0.154,1.003
		c-0.236,0.002-0.108-0.074-0.309,0.077c0.087,0.201,0.271,0.652,0.077,0.925c-0.077,0.077-0.154,0.154-0.231,0.231
		c0.205,0.323,0.143,0.309,0.154,0.617c-0.206,0.154-0.412,0.309-0.618,0.463c-0.386-0.051-0.772-0.103-1.158-0.154
		c0,0.103,0,0.206,0,0.309c0.386,0.154,0.772,0.309,1.158,0.463c-0.052,0.128-0.103,0.257-0.154,0.385
		c-0.908,0.01-2.31,0.321-2.394,1.08c0.566-0.15,2.702-0.694,2.702-0.694c0.633,0.143,0.81,0.241,1.158,0.54
		c-0.025,0.077-0.051,0.154-0.077,0.231c-1.149,1.472-1.194,0.825-3.166,1.234c0,0.077,0,0.154,0,0.231
		c0.858-0.054,2.103,0.301,2.935,0.155c-0.103,0.206-0.206,0.411-0.309,0.617c-0.235,0.339-0.617-0.052-0.772,0.463
		c0.258,0.026,0.515,0.051,0.772,0.077c-0.104,0.18-0.206,0.36-0.309,0.54c0.051-0.026,0.103-0.052,0.154-0.077
		c0.128-0.026,0.257-0.052,0.386-0.077c-0.082,0.322-0.078,0.175-0.077,0.54c0.234-0.15,0.08-0.025,0.154-0.231
		c0.334-0.087,0.4-0.62,0.618-1.003c0.051,0.026,0.103,0.051,0.154,0.077c-0.02,0.782,0.042,1.063,0.231,1.774
		c-0.399,0.175-0.806,0.538-1.004,0.926c0.201,0.088,0.181,0.213,0.154,0.463c-0.231,0.103-0.463,0.206-0.694,0.308
		c-0.197-0.188-0.758-0.139-1.004-0.077c-0.172-0.681-1.184-1.851-2.008-1.851c-0.052-0.025-0.104-0.051-0.154-0.077
		c-0.026,0.103-0.052,0.206-0.078,0.309c0.149,0.059,0.248,0.228,0.31,0.54c-0.568-0.236-1.265,0.25-2.085,0.077
		c0.077,0.128,0.154,0.257,0.231,0.386c0.749-0.085,1.875-0.158,2.548,0.231c0.999,0.578,1.001,1.639,2.24,1.466
		c-0.052,0.18-0.104,0.36-0.155,0.54c-0.975-0.152-2.099-0.171-3.089-0.617c-0.025,0.104-0.051,0.206-0.076,0.309
		c0.051,0,0.103,0,0.154,0c0.074,0.364,1.823,0.582,2.394,1.312c-0.086,0.219-0.067,0.112-0.077,0.309
		c-0.231,0.154-0.464,0.309-0.695,0.463c-0.277-0.362-0.526-0.199-1.004-0.309c0,0.077,0,0.154,0,0.231c0.104,0,0.206,0,0.309,0
		c0.232,0.426,0.521,0.308,0.695,0.617c-0.103-0.026-0.206-0.052-0.309-0.077c-0.245,0.443-1.219,0.294-1.854,0.231
		c0,0.128,0,0.257,0,0.386c0.536,0.098,0.545,0.51,0.85,0.925c-0.581,0.595-1.208,0.778-2.316,0.926
		c-0.829-0.838-1.02-1.344-1.776-1.928c-0.077,0.077-0.154,0.153-0.231,0.23c-0.074,0.75,1.549,2.166,2.008,2.546
		c-0.052,0.052-0.104,0.103-0.154,0.154c-0.646-0.14-1.014-0.349-2.008-0.309c0,0.103,0,0.206,0,0.309
		c0.47,0.229,0.669,0.171,0.694,0.771c-0.051,0.077-0.103,0.154-0.154,0.231c-0.663,0.029-1.217-0.229-1.467,0.54
		c0.256,0.033,0.166,0.458,0.077,0.693c0.077,0.026,0.154,0.052,0.231,0.077c0.274-0.143,0.312-0.172,0.618-0.153
		c0.171,0.895-0.381,1.398-0.078,2.159c-0.402,0.072-0.309,0.268-0.386,0.694c-0.36,0-0.721,0-1.081,0
		c0.5-0.055,0.533-0.119,0.695-0.309c-0.198-0.037-0.188-0.025-0.387-0.231c-0.146,0.043-0.763,0.19-0.54,0
		c-0.309,0.437-0.618,0.874-0.927,1.312c-0.077,0-0.154,0-0.231,0c-0.232-0.206-0.464-0.412-0.695-0.617
		c0.104,0.442,0.298,0.681,0.077,1.08c-0.498,0.189-0.825,0.492-0.85,1.079c0.35-0.015,0.407-0.065,0.618,0.231
		c-0.378,0.05-0.564,0.494-0.618,0.926c-0.515-0.051-1.029-0.103-1.544-0.154c0.604-0.006,0.693-0.065,1.158-0.231
		c-0.127-0.457-0.422-0.479-0.54-0.693c-0.646,0.094-1.04,0.2-1.159,0.693c-0.051-0.051-0.103-0.103-0.154-0.154
		c0.052-0.23,0.104-0.463,0.154-0.694c-0.361,0-0.827,0.036-1.003-0.077c-0.052,0-0.104,0-0.155,0
		c0.195-0.456,0.133-1.005-0.309-1.233c-0.103-0.052-0.206-0.104-0.309-0.154c0.114,0.839,0.4,1.398-0.077,1.929
		c-0.085,0.188-0.473,0.322-0.618,0.771c-0.378-0.038-2.008,0.463-2.008,0.463c-0.331,0.165-0.717,0.619-0.771,0.849
		c0.154,0,0.309,0,0.463,0c-0.231,0.025-0.463,0.051-0.695,0.077c-0.724,0.325-1.202,0.819-1.775,0.694
		c-0.188,0.536-0.897,1.373-1.545,1.851c-0.214-0.256-0.201-0.193-0.386,0.154c0.236,0.002,0.108-0.073,0.309,0.077
		c-0.052,0-0.103,0-0.154,0c-0.353,0.469-0.714,0.298-1.004,0.926c-0.26-0.193-0.1-0.168-0.464-0.154
		c-0.469,1.996-3.169,2.897-4.015,3.934c-0.052-0.051-0.104-0.103-0.154-0.154c0.002-0.183-0.488-1.164-0.772-1.311
		c-0.026,0.154-0.052,0.309-0.077,0.462c-0.052-0.025-0.104-0.051-0.155-0.077c-0.023-0.295-0.185-0.627-0.54-0.616
		c0.025-0.283,0.052-0.565,0.077-0.849c-0.103,0-0.206,0-0.309,0c0.058,0.578-0.028,0.992-0.231,1.465c-0.026,0-0.052,0-0.077,0
		c0-0.205,0-0.411,0-0.616c-0.488,0.179-0.702,0.619-0.927,1.079c0-0.308,0-0.616,0-0.925c-0.104,0.022-0.617-0.043-0.464,0.154
		c-0.182,0.18-0.133,0.998-0.309,1.388c0.159,0.197,0.167,0.349,0.463,0.309c0.077,0.025,0.155,0.052,0.232,0.077
		c-0.026,0.052-0.052,0.104-0.077,0.154c-2.589-0.203-3.24,0.95-5.174,1.466c-0.262-0.515-0.361-0.367-0.541-0.231
		c0.129,0.077,0.258,0.154,0.386,0.231c-0.515,1.469-1.927,4.935-4.169,5.014c0.091-0.469-0.305-1.164-0.772-1.312
		c-0.026,0.077-0.052,0.154-0.077,0.231c0.194,0.09,0.459,1.292,0.463,1.389c-1.248-0.113-3.029,0.562-4.016,1.156
		c-0.573,0.347-1.809-0.392-2.008-0.463c-0.324-0.115-1.453,0.337-1.235,0c-0.257-0.103-0.515-0.205-0.771-0.308
		c-0.026,0.077-0.052,0.154-0.078,0.23c0,0.026,0,0.052,0,0.077c0.181,0.052,0.361,0.104,0.541,0.155c0,0.025,0,0.051,0,0.077
		c-0.129,0.025-0.258,0.051-0.386,0.076c-0.13-0.322-2.078-1.34-2.472-1.157c-0.025-0.386-0.051-0.771-0.077-1.156
		c-0.68,0.006-1.301-0.072-1.776,0.231c-0.126-0.058-1.15-0.888-1.312-0.849c-2.534-0.157-3.679,0.335-5.251-1.157
		c-0.608-0.577-1.123-1.828-2.008-2.159c0.053-0.475,0.189-0.73,0.387-1.157c-0.052,0.025-0.104,0.052-0.155,0.077
		c-0.118,0.201-0.404,0.651-0.617,0.771c-0.36-0.386-0.721-0.771-1.081-1.157c0.361-0.537,0.539-1.43,0.231-2.313
		c-0.129,0.025-0.258,0.051-0.386,0.077c0.059,0.487,0.201,1.101,0.154,1.002c-0.072,0.667-0.535,1.052-1.158,1.003
		c-0.001-0.003-3.32-1.851-3.32-1.851c0.187-0.465-0.141-0.733,0-1.157c-0.052,0.025-0.104,0.051-0.155,0.077
		c-0.103-0.026-0.205-0.052-0.309-0.077c-0.154,0.154-0.309,0.309-0.463,0.463c0.025,0.314,0.025,0.305,0.309,0.54
		c-0.231,0-0.463,0-0.695,0c0.026-0.154,0.052-0.309,0.077-0.463c-0.742,0.121-3.117,1.641-3.011,1.157
		c-0.244,0.007-0.344,0.114-0.232-0.078c0.026-0.077,0.052-0.153,0.077-0.23c0-0.052,0-0.104,0-0.154c-0.051,0-0.103,0-0.154,0
		c-0.519,0.005-2.516,0.733-3.32,1.002c-0.555,0.186-1.663-0.598-2.702-0.539c-0.052,0.18-0.104,0.359-0.154,0.539
		c-0.642-0.255-0.62,0.023-1.159-0.077c-0.015,0.312,0.037,0.144-0.077,0.386c-0.632-0.111-0.897-0.083-1.698,0.154
		c-0.078-0.154-0.155-0.309-0.232-0.463c0.751-0.26,0.151-0.751,0-1.311c0.244-0.175,0.778-0.954,0.85-1.157
		c-0.593-0.011-0.924-0.264-1.004-0.771c0.499-0.303,0.526-1.533,0.464-1.928c0.129-0.026,0.257-0.052,0.386-0.078
		c0,0.052,0,0.104,0,0.154c0.97,0.711,0.854,1.506,1.235,2.083c0.387,0,0.772,0,1.158,0c0.109-0.304,0.13-0.47,0.31-0.694
		c0.475-0.095,0.815-0.257,1.235-0.463c0.319,0.61,2.229-0.694,2.239-0.694c0.052,0,0.103,0,0.154,0c0-0.076,0-0.154,0-0.231
		c-0.16-0.189-0.382-0.456-0.695-0.54c0.052-0.051,0.104-0.103,0.155-0.153c0.17-0.152,0.26-0.222,0.463,0
		c0.154,0.103,0.309,0.205,0.463,0.309c-0.025-0.155-0.051-0.309-0.077-0.463c-0.106-0.05-0.188-0.671-0.54-0.617
		c0.126-0.159,0.604-0.405,0.386-0.077c0.68,0.054,0.684,0.006,1.158,0.154c0.068-0.329,0.383-0.354,0.772-0.54
		c0-0.077,0-0.154,0-0.231c-0.129,0-0.258,0-0.386,0c0.101-0.324,0.065-0.041,0-0.386c0.336,0.003,0.317,0.196,0.463-0.231
		c-0.283-0.026-0.566-0.052-0.85-0.077c0.108-0.326,0.096-0.363-0.154-0.54c-0.393-0.087-0.29,0.223-0.617-0.077
		c1.086-0.414,0.66-2.302,2.548-1.928c0-0.104,0-0.206,0-0.309c-0.389-0.041-0.221,0.132-0.386-0.231
		c0.051,0.025,0.103,0.051,0.154,0.077c0.257-0.154,0.515-0.309,0.771-0.463c-0.025,0.128-0.051,0.257-0.077,0.386
		c0.516,0.025,1.03,0.051,1.545,0.077c0-0.077,0-0.154,0-0.231c-0.077-0.01-0.021-0.029,0-0.077
		c0.177-0.158,0.177-0.174,0.386-0.154c-0.173-0.228-0.254-0.146-0.386-0.231c-0.201,0.163-0.16,0.205-0.463,0.309
		c0-0.026,0-0.052,0-0.077c0.103-0.103,0.205-0.206,0.309-0.309c-0.026-0.026-0.052-0.052-0.077-0.077
		c-2.496-0.098-2.302-0.043-4.17,1.774c-0.201,0.195-1.18,0.294-1.313,0.077c-0.128-0.077-0.257-0.155-0.386-0.232
		c0.052-0.051,0.104-0.103,0.154-0.153c0.134-0.718,0.883-0.677,1.622-1.08c0-0.077,0-0.154,0-0.231c-0.052,0-0.104,0-0.154,0
		c-0.475-0.498-0.73,0.227-1.236-0.309c0.61-2.14,0.667-1.961,2.317-2.777c0-0.076,0-0.153,0-0.231
		c-0.309-0.11-0.049-0.006-0.231-0.23c0.128-0.154,0.257-0.309,0.386-0.463c-0.052-0.052-0.103-0.104-0.154-0.154
		c-0.255,0.13-1.254,0.487-1.158,0.926c-0.181-0.078-0.36-0.154-0.541-0.231c-0.131,0.448-0.268,0.352-0.464,0.693
		c-0.227-0.239-0.058-0.105-0.386-0.231c0.017,0.408-0.097,0.824-0.309,1.312c-0.386,0-0.772,0-1.158,0
		c-0.176-0.775-0.277-1.66-0.386-2.236c-0.363,0.104-0.579,0.363-0.618,0.616c-0.103-0.103-0.206-0.205-0.309-0.308
		c0,0,0.177-2.399,0.231-2.777c-0.322-0.04-0.134,0.048-0.387-0.154c0-0.025,0-0.051,0-0.077c0.214-0.259,0.265-0.243,0.31-0.385
		c0.231-0.185,0.363-0.742,0.154-1.004c-0.257,0-0.515,0-0.772,0c-0.035-0.304,0.021-0.514-0.154-0.693
		c-0.413-0.2-0.459,0.008-0.85-0.231c-0.297,0.211-0.413,0.285-0.463,0.771c-0.286-0.041-0.334-0.099-0.618,0.076
		c-0.057-0.366-0.11-0.621-0.231-0.771c-1.935,0.33-3.057,0.237-5.097-0.386c-0.411-0.025-0.823-0.052-1.235-0.077
		c-0.077,0.18-0.154,0.36-0.231,0.54c-0.224-0.111-0.31,0.309-0.31,0.309c-0.51-0.279-0.953-0.578-1.621-0.231
		c-0.059,1.184-2.1,2.101-2.78,0.926c-0.6-0.431-0.862-1.827-1.235-2.546c0.999-0.354,1.145-0.616,1.854-1.08
		c0.552,0.365,1.286,0.506,1.931,0.849c0.201-0.198,1.544-1.234,1.544-1.234c0.258,0,0.515,0,0.772,0
		c-0.091-0.243-0.025-0.196-0.154-0.386c0.128-0.051,0.257-0.103,0.386-0.153c0,0.051,0,0.103,0,0.153
		c0.181,0.206,0.36,0.412,0.541,0.617c-0.257,0.064,0.008,0.013-0.155,0.309c0.31-0.025,0.618-0.051,0.927-0.077
		c-0.095-0.521,0.019-0.849-0.231-1.312c0.103-0.206,0.206-0.411,0.309-0.617c0.323,0.148,0.415,0.162,0.85,0.308
		c-0.18,0.386-0.36,0.771-0.54,1.157c0.229,0.287,0.344,0.582,0.694,0.771c-0.025-0.334-0.051-0.668-0.077-1.003
		c0.258,0,0.516,0,0.772,0c-0.129-0.154-0.257-0.308-0.386-0.462c0.077-0.18,0.154-0.36,0.231-0.541
		c0.195,0.146-0.006,0.134,0.231,0.077c0.154-0.051,0.309-0.103,0.464-0.154c0.077,0.154,0.154,0.309,0.231,0.462
		c0.418-0.368,0.85-0.546,1.39-0.694c0-0.026,0-0.051,0-0.077c-0.234-0.123-0.252-0.124-0.617-0.077
		c0.309-0.36,0.617-0.72,0.926-1.08c0.077,0,0.154,0,0.232,0c0.103,0.103,0.206,0.206,0.309,0.309c-0.146,0.473-0.018,0.885,0,1.311
		c0.408,0.107,0.328,0.177,0.772,0.309c-0.026-0.051-0.052-0.103-0.078-0.154c-0.051-0.206-0.103-0.412-0.154-0.617
		c0.256-0.129,0.581-0.263,0.85-0.694c0.137,0.063,2.669,0.161,2.703,0.154c0.076,0.268-0.016,0.133,0.154,0.231
		c0.25,0.216,3.058-0.017,3.784,0.231c0-0.077,0-0.154,0-0.231c0.229-0.148,0.001-0.02,0.154-0.231
		c-0.154-0.231-0.31-0.463-0.464-0.694c0.785-0.294,1.343-1.926,0.85-2.777c-0.258,0-0.515,0-0.772,0
		c-0.276,2.83-5.093,2.021-5.019,0.771c-0.684,0.068-0.838,0.297-1.622,0.154c0.025-0.103,0.052-0.206,0.077-0.309
		c0.258-0.051,0.515-0.103,0.772-0.154c-0.26-0.326-0.286-0.401-0.386-0.771c0.421-0.204,1.078-0.871,1.004-1.157
		c0.307-0.009,0.159,0.069,0.386-0.077c-0.026-0.154-0.052-0.309-0.077-0.462c0.636,0.153,1.368-0.216,1.93-0.309
		c0.208-1.243,2.253-1.197,2.086-2.237c0.231,0.103,0.463,0.206,0.694,0.309c0.274-0.385,1.355-0.326,1.312-1.002
		c0.026-0.077,0.052-0.154,0.078-0.231c-0.181,0.051-0.361,0.103-0.541,0.154c-0.154,0.103-0.309,0.206-0.463,0.309
		c-0.279-0.489-0.932-0.344-1.236-0.309c0.159-0.483-0.39-1.212-0.927-1.312c0.026,0.257,0.052,0.514,0.078,0.771
		c-0.104-0.051-0.206-0.103-0.31-0.154c0.164-0.137-0.009-0.76-0.309-1.08c-0.077,0-0.154,0-0.231,0
		c0.052,1.196-0.504,1.202-0.618,2.16c-0.283-0.032-0.223,0.002-0.54,0.077c-0.006-0.475-0.954-0.708-1.312-1.312
		c0.076-0.025,0.154-0.051,0.231-0.077c0.106-0.136,1.132-0.388,1.235-0.309c0.619-0.494,0.65-1.228,1.004-1.851
		c-0.052,0.026-0.104,0.051-0.154,0.077c-0.183,0.021-0.097-0.017-0.31,0.077c-0.275,1.29-0.77,0.779-1.312,1.312
		c-0.077-0.103-0.154-0.206-0.231-0.309c0.343-0.045,0.317-0.025,0.386-0.309c0.164-0.145,0.05-0.061,0.154-0.309
		c-0.535,0.176-0.586,0.528-0.927,0.771c-0.081-0.281-0.062-0.227-0.231-0.385c-0.025,0.18-0.052,0.36-0.077,0.54
		c0.052-0.026,0.104-0.052,0.154-0.078c-0.154,0.18-0.309,0.36-0.463,0.541c-0.309-0.11-0.139-0.032-0.231-0.232
		c-0.052,0.026-0.104,0.052-0.155,0.077c0.151-0.824,0.109-1.99-0.309-2.468c-0.139-0.157-0.001-0.054-0.231-0.154
		c0.025,0.643,0.052,1.286,0.077,1.929c-0.077,0.025-0.154,0.051-0.231,0.077c-0.077-0.026-0.154-0.052-0.231-0.077
		c0-0.437,0-0.875,0-1.312c-0.078,0-0.154,0-0.232,0c0.147,0.698-0.003,1.047-0.154,1.851c-0.025,0-0.051,0-0.077,0
		c-0.025-0.051-0.052-0.103-0.077-0.154c-0.681-0.588-0.358-1.165-0.077-2.006c-0.164-0.181-0.034,0.009-0.077-0.231
		c-0.649,0.122-0.235,0.024-0.927-0.078c0.004,0.463,0.087,0.382-0.154,0.617c-0.151-0.216-0.16-0.154-0.54-0.154
		c-0.011,0.425-0.165,0.7-0.541,0.926c-0.054-0.548-0.13-0.381-0.154-0.849c-0.104,0-0.206,0-0.309,0
		c0.063,0.316,0.05,0.76-0.155,0.926c-0.154,0.18-0.309,0.36-0.463,0.54c-0.572-0.142-1.16-0.115-1.081-0.926
		c-0.465,0.196-0.77,1.1-0.309,1.542c-0.078,0.155-0.155,0.309-0.232,0.463c-0.489,0.064-1.66-0.317-2.084-0.154
		c-0.558,0.214-1.173,0.536-1.699,0.694c-0.347,0.104-0.453,0.009-0.387,0.309c-0.413,0.211-0.418,0.557-0.617,0.771
		c-0.695-0.089-1.46,0.053-2.239,0.077c0.013-0.291,0.01-0.463-0.077-0.771c0.077,0.051,0.154,0.103,0.231,0.154
		c0.025-0.206,0.052-0.412,0.077-0.617c-0.248-0.026-0.453-0.126-0.772-0.077c-0.032,0.201,0.075,0.042-0.077,0.231
		c-0.445-1.178-3.123-1.099-3.861-0.54C0.309,39.837,0.154,39.708,0,39.58c0.366-0.277,1.274-0.834,1.467-1.157
		c0.367-0.932-0.233-1.453,0.695-1.774l2.239,1.697c0.283,0.025,0.566,0.051,0.85,0.077c0.011,0.006,0.326,0.768,0.309,0.771
		c0.206,0.077,0.412,0.154,0.618,0.231c0.288-0.254,0.103-0.268,0.617-0.386c-0.169-0.144-0.705-0.286-0.771-0.231
		c-0.696-0.616-1.423-1.615-1.931-2.314c0.025-0.025,0.052-0.051,0.077-0.077c1.111,0.195,1.359,0.497,2.471,1.002
		c0-0.026,0-0.051,0-0.077c-1.245-2.001-2.995-1.365-2.934-4.242c0.154-0.025,0.309-0.051,0.463-0.077
		c0.873,0.063,3.901,2.394,4.401,2.777c0.052-0.051,0.103-0.103,0.154-0.154c0,0.591,0,1.183,0,1.774
		c0.206-0.076,0.347,0.055,0.231-0.154c0.247-0.181,0.25-0.253,0.232-0.463c0.398,0.02,0.312-0.033,0.617-0.077
		c0.184,0.227,0.166,0.241,0.541,0.308c0.025-0.051,0.052-0.103,0.077-0.154c0-0.052,0-0.103,0-0.154
		c-0.103-0.077-0.206-0.154-0.309-0.232c0.438-0.205,0.875-0.411,1.312-0.617c-0.052-0.052-0.103-0.103-0.154-0.154
		c-0.604,0.156-2.164,0.26-2.162-1.003c1.215,0.005,1.985-0.28,2.779,0c0-0.283,0-0.565,0-0.848c0.346-0.054,0.401,0.047,0.31-0.231
		c0.025-0.052,0.051-0.103,0.077-0.154c-0.052-0.026-0.104-0.051-0.155-0.077c-1.695,0.168-2.273,1.039-4.17,0.154
		c-0.331-0.155-0.463,0.089-0.617-0.154c-0.974-0.655-1.438-1.662-1.158-2.931c0.18-0.051,0.36-0.103,0.54-0.154
		c0.755,0.495,1.238,0.646,1.699,1.157c0.283-0.052,0.566-0.103,0.85-0.154c0.414,0.635,2.547,0.883,2.625,0.694
		c-0.494,0.097-2.001-0.609-2.007-0.848c-0.248-0.052-0.17-0.074-0.387-0.386c-1.651,0.007-2.608-2.607-3.166-2.854
		c0.266-0.315,0.216-0.688,0.695-0.848c0.926,0.385,1.853,0.771,2.779,1.157c0.026,0,0.052,0,0.078,0
		C9.771,27.72,9.556,27.61,9.267,27.47c-0.052,0.052-0.104,0.103-0.154,0.154c-0.069-0.643-0.908-1.031-1.313-1.542
		c0.026-0.026,0.052-0.052,0.078-0.077c0.411-0.051,0.823-0.103,1.235-0.154c0.386,0.257,0.772,0.514,1.158,0.771
		c-0.678-0.989-0.717-0.774-1.776-1.312c0.052-0.128,0.104-0.257,0.154-0.386c0.525-0.082,0.693-0.332,1.158-0.694
		c1.005,0.481,2.564,0.936,2.857,1.851c0.293,0.782-0.226,0.694-0.309,1.465c0.025,0,0.051,0,0.077,0
		c0.498-0.448,0.562-0.907,1.158-1.08c-0.026,0.051-0.052,0.103-0.077,0.154c0.129,0.051,0.257,0.103,0.386,0.154
		c0,0.462,0,0.925,0,1.388c-0.247,0.521-0.608,0.643-0.772,1.234c0.896-0.428,0.848-1.117,1.313-1.542c0,0.103,0,0.206,0,0.309
		c0.229,0.148,0.001,0.02,0.154,0.231c-0.276,0.155-0.288,0.187-0.309,0.694c0.103-0.026,0.206-0.052,0.309-0.077
		c0.116-0.399,0.45-0.694,0.231-1.234c0.077,0.026,0.154,0.052,0.231,0.077c0.001,0.858-0.419,2.34-1.158,2.545
		c0,0.128,0,0.257,0,0.386c0.846-0.249,1.291-1.436,1.235-2.005c0.129-0.026,0.258-0.052,0.387-0.077
		c-0.129,0.746-0.258,1.491-0.387,2.237c0.026,0,0.052,0,0.078,0c0.205-0.189,0.117-0.105,0.154-0.309
		c0.794-0.449,0.158-2.184,0.617-3.163c1.83,1.144,1.94,2.392,1.081,4.782c0.026,0.026,0.052,0.051,0.077,0.077
		c0.052-0.077,0.104-0.154,0.154-0.231c0.361-1.092,0.473-1.921,0.85-2.931c0.077,0.025,0.154,0.051,0.232,0.077
		c-0.033,0.347-0.112,0.706,0.309,0.694c0.051,0.103,0.103,0.206,0.154,0.309c0.176,0.026,0.171,0.144,0.309,0.386
		c-0.18,0.591-0.36,1.183-0.54,1.774c0.051-0.025,0.103-0.051,0.154-0.077c0.025,0.026,0.052,0.052,0.077,0.077
		c0.407-0.354,0.69-1.137,0.85-1.928c-0.167-0.279-0.527-1.122-0.309-1.542c-0.252-0.577-0.744-0.609-0.928-1.08
		c0.366-0.117,0.416-1.025,0.928-0.925c-0.052-0.103-0.104-0.206-0.155-0.309c-0.491,0.143-0.428,0.143-0.927,0.309
		c-0.077-0.077-0.154-0.154-0.231-0.231c-0.103-0.052-0.206-0.103-0.309-0.154c-0.118-0.165-2.63-1.591-2.78-1.389
		c-0.265-0.286-1.154-1.902-0.771-1.697c1.31-1.428,2.545-0.124,3.783,0.386c0.025-0.077,0.052-0.154,0.077-0.231
		c-0.103-0.077-0.206-0.154-0.309-0.231c0.296-0.356,1.434-0.598,1.622-0.617c-0.072-0.43-0.066-0.181-0.31-0.308
		c-0.095,0.182-0.732,0.396-1.081,0.154c-0.052,0-0.103,0-0.154,0c0.413-0.58,0.757-0.44,0.695-1.157c-0.078,0-0.154,0-0.232,0
		c-0.283,0.257-0.566,0.514-0.85,0.771c-0.231-0.077-0.463-0.154-0.694-0.231c-0.327-0.367,0.173-1.367,0.54-1.312
		c0-0.077,0-0.154,0-0.231c-0.18,0-0.36,0-0.54,0c-0.025,0-0.052,0-0.077,0c-0.294,0.542-0.562,1.11-1.39,1.234
		c0-0.129,0-0.257,0-0.386c0.077-0.154,0.154-0.309,0.231-0.463c-0.077,0.026-0.154,0.052-0.231,0.077
		c-0.229,0.047-0.083-0.081-0.232,0.154c-0.143,0.025-0.219,0.605-0.617,0.771c-0.892,0.372-1.594-0.479-2.395-0.926
		c0.026-0.103,0.052-0.206,0.077-0.309c0.104,0,0.206,0,0.31,0c0.088,0.197,0.527,0.22,0.694,0.309
		c0.576-0.276,0.383-0.358,0.541-0.926c-0.575-0.524-1.145-0.721-0.695-1.157c0.317,0.538,1.719,0.333,1.391-0.694
		c0.623,0.029,1.409,0.443,1.544,0.694c0.516,0.01,0.231,0.152,0.541,0.54c0.206-0.052,0.411-0.103,0.617-0.154
		c0.104-0.206,0.206-0.412,0.31-0.617c-0.026-0.154-0.052-0.309-0.078-0.463c0.026,0,0.052,0,0.078,0
		c0.463,0.386,0.926,0.771,1.39,1.157c0.052-0.077,0.103-0.154,0.154-0.231c-0.069-0.397-0.209-0.612,0-0.849
		c0,0.052,0,0.103,0,0.154c0.252,0.188,0.802,1.246,0.618,1.465c0.205,0.077,0.411,0.154,0.617,0.232
		c0.412,0.438,0.636,0.994,0.85,1.311c-0.251,0.161-0.219,1.18-0.154,1.465c0.025,0,0.052,0,0.077,0
		c0.231-0.103,0.463-0.206,0.694-0.309c-0.026,0.419-0.15,0.231,0,0.463c0.206-0.189,0.118-0.105,0.155-0.309
		c0.103-0.103,0.206-0.206,0.309-0.309c0.014,0.459,0.055,0.536,0.231,0.694c0.309-0.128,0.618-0.257,0.927-0.386
		c0.081,0.393,0.229,0.578,0.386,0.849c-0.154,0.18-0.309,0.36-0.463,0.54c0.025,0,0.052,0,0.077,0
		c0.077-0.077,0.154-0.154,0.231-0.231c0.498,0.483,1.001,0.926,1.545,0.771c0,0.18,0,0.36,0,0.54
		c0.129-0.025,0.257-0.051,0.386-0.077c-0.25,1.024-0.248,1.264,0,2.391c0.401,0.057,0.354-0.066,0.695-0.231
		c0.064,0.49,0.039,0.343,0,0.849c0.103,0,0.206,0,0.309,0c0-0.077,0-0.154,0-0.231c0.292-0.288,0.085-0.616-0.154-0.925
		c0.42-0.162,0.444-0.115,0.85-0.309c-0.009,0.285-0.036,0.457,0.309,0.617c0,0.103,0,0.206,0,0.309
		c-0.37-0.04-0.362-0.063-0.618,0.077c0.189,0.253,0.454,0.483,0.464,0.771c0.452-0.148,1.36-0.413,1.621,0.154
		c0.175,0.115,0.114,0.106,0.232,0.386c-1.334-0.146-1.647,0.316-2.703,0.54c0.052,0.103,0.103,0.206,0.154,0.308
		c0.161,0.164,0.2,0.142,0.541,0.154c0.23-0.398,0.99-0.385,1.39-0.309c-0.025,0.052-0.052,0.103-0.077,0.154
		c-0.206,0.078-0.412,0.154-0.618,0.231c0.178,0.179,0.14,0.228,0.387,0.154c0.386,0.026,0.772,0.052,1.158,0.077
		c0.052,0.257,0.103,0.514,0.154,0.771c-0.27,0.153-0.486,0.335-0.309,0.694c-0.232-0.052-0.464-0.103-0.695-0.154
		c0.248,0.312,0.558,0.239,0.85,0.385c-0.42,1.47-1.415,1.402-1.622,1.929c0.052,0.051,0.104,0.103,0.155,0.154
		c0.18-0.026,0.359-0.052,0.54-0.077c-0.021,0.349,0.105,0.277,0.386,0.309c-0.257,0.437-0.515,0.874-0.771,1.311
		c-0.489-0.103-0.979-0.206-1.468-0.309c-0.112-0.465-0.548-1.375-1.004-1.542c-0.18-0.026-0.36-0.051-0.54-0.077
		c-0.025,0.077-0.052,0.154-0.077,0.231c0,0.025,0,0.051,0,0.077c0.429,0.11,1.321,0.861,0.927,1.157
		c-0.077,0.077-0.155,0.154-0.232,0.231c0.978,1.855,1.274,0.752,2.78,1.62c0,0.077,0,0.154,0,0.231
		c-0.433,0.273-0.844,0.65-0.85,1.312c0.026,0,0.052,0,0.077,0c0.7-0.29,0.666-0.614,1.158-1.003
		c0.154,0.051,0.31,0.103,0.464,0.154c0.021,2.033-0.923,1.863-1.313,3.085c0.026,0,0.052,0,0.078,0
		c0.025-0.026,0.051-0.052,0.077-0.077c0.598,0.031,0.73-0.423,1.312-0.463c0.169,0.253,0.162,0.826,0.85,0.926
		c-0.743,1.275,0.799,4.393,0.85,6.093c0.103,0,0.205,0,0.309,0c0-0.206,0-0.411,0-0.617c-0.235-0.84,0.016-5.421-0.387-5.708
		c0.026-0.051,0.052-0.103,0.078-0.154c0.154,0,0.309,0,0.463,0c0.026,0.688,0.301,2.06,1.158,2.314
		c0.026-0.051,0.052-0.103,0.077-0.154c-0.455-0.726-0.326-2.132-0.772-2.931c0.104-0.36,0.206-0.72,0.31-1.08
		c0.154-0.489,0.309-0.977,0.463-1.466c0.36-0.231,0.721-0.463,1.081-0.694c0.485-0.49,0.238-0.902,1.158-1.08
		c0.186,0.321,0.006-0.007,0.31,0.231c-0.077,0.977-0.154,1.954-0.232,2.931c0.422-0.166,0.192-0.137,0.31-0.463
		c0.344,0.083,0.192,0.11,0.463-0.231c-0.064,1.177,0.163,1.027,0.464,1.774c0.205-0.051,0.411-0.103,0.617-0.154
		c-0.099-0.632,0.53-1.092,0-1.388c-0.14-0.31-0.07-0.007-0.386-0.231c0.188-0.245-0.024-0.291,0.154-0.386
		c0.209-0.232,0.396-0.126,0.772-0.231c0,0.309,0,0.617,0,0.926c0.051-0.052,0.103-0.103,0.154-0.154
		c-0.106-0.282,0.79-2.786,1.004-3.548c-0.104-0.643-0.206-1.285-0.309-1.928c-0.104-0.2-0.085-0.388-0.31-0.309
		c0.131-0.34,0.039-0.639,0.231-0.925c-0.432-0.935-0.516-2.541-1.158-3.394c-0.154-0.206,0.357-0.954,0.077-1.388
		c0.181-0.052,0.36-0.103,0.541-0.154c-0.026,0.077-0.052,0.154-0.077,0.231c0.637-0.197,1.4-0.621,1.854-0.926
		c0.231,0.051,0.463,0.103,0.694,0.154c0.024,1.23,2.38,3.859,2.008,4.937c0.347-0.006,1.003,0.026,1.313,0.54
		c0.704,0.477,0.295,1.883,0.849,2.777c0.283,0.077,0.566,0.154,0.85,0.231c-0.025-0.051-0.052-0.103-0.077-0.154
		c0-0.18,0-0.36,0-0.54c0.077,0,0.154,0,0.231,0c0.024,0.252,0.085,0.454,0.464,0.617c0.18,0,0.36,0,0.54,0
		c0.102-1.037,0.323-1.65,0.464-2.083c-0.079-0.84-0.578-1.848-0.927-2.468c0.301-0.031,0.263,0.06,0.463-0.154
		c-0.12-0.252-0.104-1.494-0.231-2.16c1.047-0.83,1.863-0.979,2.857-0.386c-0.026-0.103-0.052-0.206-0.077-0.308
		c-0.052-0.103-0.104-0.206-0.155-0.309c0.104,0.025,0.206,0.051,0.31,0.077c0.075,0.186,0.204,0.396,0.463,0.54
		c0.025,0,0.052,0,0.077,0c0-0.025,0-0.051,0-0.077c-0.425-0.818-0.35-2.059,0.695-2.468c0-0.051,0-0.103,0-0.154
		c0.206,0.025,0.412,0.051,0.617,0.077c0,0.257,0,0.515,0,0.771c0.398-0.091,0.445-0.37,0.618-0.54
		c-0.025-0.231-0.052-0.462-0.077-0.694c0.077,0,0.154,0,0.231,0c0.223,0.154,0.159,0.173,0.541,0.231
		c-0.104,0.437-0.206,0.874-0.31,1.311c0.44-0.09,0.691-0.409,0.85-0.617c0.393,0.156,1.049,0.93,0.695,1.157
		c-0.058,0.175-0.307,0.317-0.386,0.694c0.051,0.025,0.103,0.051,0.154,0.077c0.227-0.184,0.777-0.306,1.081-0.154
		C54.373,27.52,54.469,28.428,54.44,29.398z"/>
</g>
<g id="Layer_1">
</g>
</svg>
