<?xml version="1.0" encoding="iso-8859-1"?>
<!-- Generator: Adobe Illustrator 16.0.3, SVG Export Plug-In . SVG Version: 6.00 Build 0)  -->
<!DOCTYPE svg PUBLIC "-//W3C//DTD SVG 1.1//EN" "http://www.w3.org/Graphics/SVG/1.1/DTD/svg11.dtd">
<svg version="1.1" xmlns="http://www.w3.org/2000/svg" xmlns:xlink="http://www.w3.org/1999/xlink" x="0px" y="0px" width="100px"
	 height="100px" viewBox="0 0 100 100" style="enable-background:new 0 0 100 100;" xml:space="preserve">
<g id="JM">
	<g>
		<path style="fill-rule:evenodd;clip-rule:evenodd;fill:#010101;" d="M23.704,30c3.608,0.28,5.677,0.804,7.698,1.928
			c0.333-0.279,0.476-0.554,1.296-0.54c0.152,0.206,0.305,0.412,0.458,0.617c0.203,0,0.406,0,0.609,0c0-0.18,0-0.36,0-0.54
			c0.997,0.576,1.605,0.394,3.201,0.386c0,0,0.424-0.282,0.61-0.231c0.288,0.079,0.548,0.32,1.067,0.463
			c1.086,0.298,2.04-0.27,2.668,0.077c0.203,0.206,0.406,0.412,0.609,0.617c0.126-0.425,0.196-0.543,0.762-0.54
			c0.102,0.218,1.087,0.912,1.601,0.926c0.025-0.103,0.051-0.206,0.076-0.309c-0.051-0.051-0.102-0.103-0.152-0.154
			c1.183,0.076,2.776,1.025,3.812,0.077c0.14-0.129,0.357,0.068,0.229-0.231c1.572,0.662,3.779,0.437,4.954,1.542
			c0,0,0.213,0.072,0.076,0.154c0.627,0.177,0.843-0.543,1.22-0.077c0.33,0.093,2.667,1.365,3.125,1.62
			c0.112-0.202,1.246-0.661,1.601-0.309c1.404-1.073,3.663,0.509,5.487,0.54c0.584-0.518,2.015-0.917,3.049-0.231
			c0,0.025,0,0.051,0,0.077c-0.028,0.26-0.229,1.697-0.229,1.697c0.166,0,1.044-0.067,0.915,0.231
			c1.027,0.234,1.816,2.04,3.049,1.697c-0.028,0.527,0.021,0.103,0.152,0.54c-0.233,0.012-0.237,0.293-0.229,0.309
			c0.515,1.283,1.029,1.879,1.601,2.159c0.55-0.876,1.745,0.014,2.134,0.309c0.397-0.079,0.581-0.316,0.839-0.386
			c0.144,0.236,0.687,0.344,1.143,0.231c0.377,0.862,0.864,1.249,1.601,1.929c0.972-0.02,1.911-0.31,2.363-0.309
			c0.183,0.863,1.384,1.768,2.134,1.62c0.292-0.058,0.407,0.059,0.305-0.154c0.252-0.091-0.032-0.177,0.382-0.231
			c0.137,0.602,0.414,0.541,0.686,0.694c0.347-0.966,0.989-0.279,1.981-0.54c0.099,0.631,0.518,1.197,0.915,1.234
			c0.577,0.211,1.26,0.031,1.677,0c0.023,0.238-0.072,0.466,0.152,0.309c0.141,0.009,1.188-0.129,1.905,0.231
			c0.759,0.38,0.591,0.958,1.83,0.925c-0.077,1.167,2.012,4.079,2.743,5.014c-0.056,0.349-0.41,0.487-0.152,0.771
			c0.155,0.74,1.896,2.857,1.905,2.854c0.025,0,0.051,0,0.076,0c-0.076,0.309-0.152,0.616-0.229,0.925
			c0.432,0.952,1.837,1.232,2.592,2.006c-0.251,0.35-0.259,0.347-0.533,0.771c-0.352-0.995-3.026,1.064-4.345,0.694
			c-0.067,0.464-0.647,0.738-1.524,0.693c0-0.025,0-0.051,0-0.076c0.152-0.309,0.305-0.617,0.457-0.926
			c-0.127-0.052-0.254-0.104-0.381-0.154c-0.025,0-0.051,0-0.076,0c-0.185,0.325-0.87,1.601-1.22,1.696
			c-0.031-0.689-2.936-1.033-3.049-1.156c-0.931,0.667-3.25,0.363-4.269,1.002c-0.524,0.33-1.135-0.709-1.677-0.309
			c-0.126,0.095-2.11-0.522-2.515-0.077c-0.229-0.172-0.378-0.423-0.763-0.462c0.222-1.563-2.435-2.801-2.286-3.086
			c-0.354,0.066-0.397,0.011-0.687,0.231c-0.621-0.358-0.674-0.69-1.753-0.463c0,0.026,0,0.052,0,0.077
			c-0.102-0.051-0.203-0.103-0.305-0.154c0.137-0.103,0.116,0.014,0.076-0.154c-0.13-0.423-0.324-0.529-0.533-0.848
			c-0.591,0.157-2.898,0.294-3.125,0.077c-0.152-0.129-0.306-0.258-0.458-0.386c-0.025,0.051-0.051,0.103-0.075,0.153
			c-0.179-0.153-0.356-0.308-0.534-0.462c-0.24,0.327-0.07,0.134-0.609,0.077c0-0.077,0-0.154,0-0.231
			c0.18-0.325,0.195-0.295,0.381-0.54c-0.025-0.052-0.051-0.104-0.076-0.154c-0.203,0-0.406,0-0.61,0
			c-0.061,0.327-1.004,1.12-0.838,1.62c0.041,0.21-0.044,0.04,0.152,0.23c-0.457,0.584-0.553,0.935-0.533,2.083
			c-0.102,0-0.204,0-0.306,0c-0.177-0.374-0.101-0.21-0.381-0.386c-0.04,0.315-0.099,0.001-0.076,0.309
			c-0.226,0.148-0.001,0.02-0.152,0.231c0.025,0.051,0.051,0.103,0.076,0.154c0.381,0.014,0.238-0.052,0.457,0.077
			c-0.188,0.231-0.169,0.198-0.381,0.231c-0.051,0.517-0.872,1.534-0.762,1.929c-0.343,0.022-1.624,1.062-2.211,1.311
			c-0.189-0.229-0.501-0.271-0.609-0.771c-0.769,0.213-0.895,0.189-1.372,0.463c-0.127-0.205-0.254-0.411-0.381-0.617
			c-0.752,0.202-0.82,0.326-1.524,0.54c0-0.103,0-0.205,0-0.309c0.183-0.619,0.481-1.094,0.762-1.156
			c-0.345-0.868-0.898-0.79-1.295-1.543c-0.666,0.024-0.564,0.007-0.839,0.309c-0.102-0.206-0.203-0.412-0.305-0.617
			c-0.051,0.025-0.102,0.051-0.152,0.077c-0.051,0.077-0.102,0.154-0.152,0.231c-0.051,0-0.103,0-0.153,0
			c0,0-1.343,0.795-1.601,0.386c-0.974,1.016-1.631,1.929-1.829,3.394c0.076,0.052,0.152,0.104,0.229,0.154
			c0.143,0.198,0.311,0.2,0.763,0.231c-0.025,0.154-0.051,0.309-0.076,0.463c-0.388-0.213-0.705-0.446-1.296-0.154
			c-0.025,0.205-0.051,0.411-0.076,0.617c0.152,0.128,0.305,0.257,0.457,0.386c-0.178,0.282-0.355,0.565-0.533,0.849
			c-0.152-0.077-0.305-0.154-0.457-0.231c0-0.181,0-0.36,0-0.54c-0.306,0.025-0.61,0.051-0.915,0.077
			c-0.147,0.314-0.257,0.623-0.687,0.617c-0.025,0.154-0.05,0.309-0.075,0.463c0.229,0.099,0.171,0.048,0.305,0.231
			c0.457-0.026,0.914-0.052,1.372-0.078c0.124,0.251,0.204,0.206,0.152,0.463c0.635-0.103,1.271-0.205,1.905-0.309
			c0.183,0.862,0.699,1.174,0.609,1.312c0,0.206,0,0.411,0,0.617c-0.457,0.283-0.914,0.565-1.372,0.849
			c-0.671,0.3-2.972-1.003-2.972-1.003c-0.282-0.289-1.919-2.326-2.135-2.006c-0.258-0.248-2.072-1.452-1.753-1.773
			c-0.47-0.604-4.265-2.829-4.421-2.776c-2.359-0.623-3.704,0.577-4.649,0.925c-0.605,0.223-1.369-0.754-1.448-0.616
			c-1.027-0.925-8.66-0.356-9.223,0.076c-0.025,0-0.051,0-0.076,0c0.015-0.427,0.038-0.459-0.153-0.771
			c-0.757,0.125-1.144-0.735-1.601-1.312c-0.227,0.129-0.183,0.129-0.381,0.154c-0.203-0.309-0.406-0.617-0.61-0.926
			c0.126-0.141,0.02-0.405,0.076-0.694c0,0-1.529-0.589-1.753-0.926c-0.353-0.999,0.571-2.503,0.152-2.776
			c-0.639-2.326-4.233-0.78-4.954-1.62c-0.57-0.416-0.112-0.831-0.457-1.465c-0.204-0.129-0.407-0.258-0.61-0.386
			c-0.025-0.104-0.05-0.206-0.076-0.309c0.212-0.039,0.005,0.005,0.153-0.154c-0.405-0.641-1.637-1.952-2.82-1.929
			c0.143-0.796-0.084-1.348-0.076-1.388c-0.076-1.009-0.313-2.213-1.372-2.854c-1.082-0.655-3.43,0.192-4.344,0
			c-0.025-0.025-0.051-0.051-0.076-0.077c0-0.025,0-0.051,0-0.077c-0.201-0.03-0.11-0.031-0.229-0.308
			c-2.213,0.038-2.107,1.061-3.811,1.234c-0.01-0.121-0.704-0.992-1.143-1.311C2.423,44.941,0.259,44.494,0,42.418
			c0.37-0.252,1.185-0.463,1.144-0.617c0.46-0.236,0.304-2.415,0.457-3.471c-0.198-0.046-0.267-0.004-0.457-0.154
			c0.152-0.206,0.305-0.412,0.457-0.617c0.229,0,0.458,0,0.686,0c0.01,0.426-0.071,0.464,0.305,0.386c0.077,0,0.153,0,0.229,0
			c-0.204-0.727,0.349-0.856,0.381-1.62c0.542,0.061,0.979,0.169,1.296,0.386c0.051-0.026,0.102-0.051,0.152-0.077
			c-0.061-0.432-0.3-0.661-0.076-0.848c0.034-0.152,0.266-0.429,0.686-0.54c0.032,0.201-0.074,0.042,0.076,0.231
			c0.051-0.103,0.102-0.206,0.152-0.309c-0.051,0-0.102,0-0.152,0c0.685-0.76,1.231-1.313,1.829-1.774
			c1.142,0.035,1.112,0.007,2.134,0.231c-0.228,0.373-0.217,0.381,0,0.771c0.178-0.051,0.355-0.103,0.534-0.154
			c-0.055-0.551,0.005-0.534-0.077-0.925c0.906-0.123,1.203,0.236,2.134,0.077c-0.005,0.458-0.122,0.398,0.152,0.54
			c-0.025-0.18-0.051-0.36-0.076-0.54c0.367,0.118,0.375,0.104,0.381,0.385c1.227-0.395,2.95,0.213,4.116-0.617
			c0.625,0.226,0.71,0.608,1.22,0.385c0.102,0,0.203,0,0.305,0c0.124,0.022,2.455,0.92,2.134,0.309
			c-0.051-0.206-0.102-0.411-0.153-0.617c0.274-0.332,0.25-0.285,0.381-0.694c-0.158-0.074-0.249-0.188-0.305-0.54
			c0.451-0.88,0.914-1.181,1.829-1.697C21.963,30.259,23.556,30.368,23.704,30z"/>
		<path style="fill-rule:evenodd;clip-rule:evenodd;fill:#010101;" d="M69.207,57.229c0.152,0,0.305,0,0.457,0
			c0,0.025,0,0.051,0,0.077c-0.102,0-0.203,0-0.305,0c-0.137,0.157-0.001,0.054-0.229,0.154
			C69.156,57.383,69.182,57.306,69.207,57.229z"/>
		<path style="fill-rule:evenodd;clip-rule:evenodd;fill:#010101;" d="M72.561,58.23c0.025,0.052,0.051,0.104,0.077,0.154
			C72.611,58.334,72.586,58.282,72.561,58.23z"/>
		<path style="fill-rule:evenodd;clip-rule:evenodd;fill:#010101;" d="M72.942,58.23c0.203,0.052,0.406,0.104,0.609,0.154
			c-0.025,0.077-0.051,0.154-0.076,0.231c-0.254,0.18-0.508,0.36-0.762,0.54c-0.433-0.154-0.864-0.309-1.296-0.463
			c0.491-0.03,0.219-0.079,0.533-0.231c0.174,0.146,0.239,0.21,0.609,0.231C72.688,58.539,72.815,58.385,72.942,58.23z"/>
		<path style="fill-rule:evenodd;clip-rule:evenodd;fill:#010101;" d="M73.856,58.23c0.076,0.077,0.152,0.154,0.229,0.231
			c-0.127,0-0.254,0-0.381,0c-0.051-0.051-0.102-0.103-0.152-0.154C73.653,58.282,73.755,58.257,73.856,58.23z"/>
		<path style="fill-rule:evenodd;clip-rule:evenodd;fill:#010101;" d="M75,58.308c0.051,0.052,0.102,0.104,0.152,0.154
			c-0.33,0.026-0.66,0.052-0.991,0.077c0.026-0.051,0.051-0.103,0.077-0.154C74.492,58.359,74.746,58.334,75,58.308z"/>
		<path style="fill-rule:evenodd;clip-rule:evenodd;fill:#010101;" d="M70.046,58.385c0.457,0.077,0.915,0.154,1.372,0.231
			c-0.025,0.052-0.051,0.104-0.076,0.154c-0.974-0.302-1.325-0.007-1.601,0.231c-0.052-0.051-0.102-0.103-0.152-0.154
			c0-0.025,0-0.052,0-0.077C69.741,58.643,69.894,58.514,70.046,58.385z"/>
		<path style="fill-rule:evenodd;clip-rule:evenodd;fill:#010101;" d="M67.911,59.928c0.026,0.052,0.051,0.103,0.076,0.154
			C67.962,60.03,67.938,59.979,67.911,59.928z"/>
		<path style="fill-rule:evenodd;clip-rule:evenodd;fill:#010101;" d="M59.07,61.085c0.254,0,0.508,0,0.762,0
			c0,0.077,0,0.154,0,0.231c-0.155,0.139-0.054,0.001-0.152,0.231c-0.178-0.052-0.355-0.104-0.533-0.154
			C59.121,61.29,59.096,61.188,59.07,61.085z"/>
		<path style="fill-rule:evenodd;clip-rule:evenodd;fill:#010101;" d="M60.062,61.548c0.076,0,0.151,0,0.229,0
			c0.076,0.051,0.152,0.103,0.229,0.154c0,0.205,0,0.411,0,0.617c-0.062,0.012-0.153,0-0.076,0.077
			c-0.435-0.119-0.182-0.243-0.534-0.31C59.959,61.907,60.01,61.728,60.062,61.548z"/>
		<path style="fill-rule:evenodd;clip-rule:evenodd;fill:#010101;" d="M83.384,62.319c0.051,0,0.102,0,0.152,0
			C83.485,62.319,83.435,62.319,83.384,62.319z"/>
		<path style="fill-rule:evenodd;clip-rule:evenodd;fill:#010101;" d="M83.536,62.396c0.1,0.194,0.089,0.109,0.077,0.309
			c-0.052-0.026-0.103-0.052-0.153-0.078C83.485,62.55,83.511,62.473,83.536,62.396z"/>
		<path style="fill-rule:evenodd;clip-rule:evenodd;fill:#010101;" d="M85.137,62.55c0.025,0.052,0.052,0.104,0.076,0.155
			C85.188,62.653,85.162,62.602,85.137,62.55z"/>
		<path style="fill-rule:evenodd;clip-rule:evenodd;fill:#010101;" d="M83.689,62.627c0.024,0.052,0.05,0.104,0.076,0.154
			c-0.051,0-0.103,0-0.152,0C83.638,62.73,83.663,62.679,83.689,62.627z"/>
		<path style="fill-rule:evenodd;clip-rule:evenodd;fill:#010101;" d="M84.984,62.627c0.025,0.052,0.051,0.104,0.076,0.154
			c-0.051,0-0.102,0-0.152,0C84.934,62.73,84.959,62.679,84.984,62.627z"/>
		<path style="fill-rule:evenodd;clip-rule:evenodd;fill:#010101;" d="M83.842,62.705c0.051,0,0.102,0,0.152,0
			C83.943,62.705,83.893,62.705,83.842,62.705z"/>
		<path style="fill-rule:evenodd;clip-rule:evenodd;fill:#010101;" d="M84.604,62.705c0.076,0,0.152,0,0.229,0
			c-0.076,0.076-0.152,0.153-0.229,0.23c-0.178,0.026-0.355,0.052-0.533,0.077c-0.025-0.077-0.051-0.154-0.076-0.231
			C84.197,62.756,84.4,62.73,84.604,62.705z"/>
	</g>
</g>
<g id="Layer_1">
</g>
</svg>
