<?xml version="1.0" encoding="iso-8859-1"?>
<!-- Generator: Adobe Illustrator 16.0.3, SVG Export Plug-In . SVG Version: 6.00 Build 0)  -->
<!DOCTYPE svg PUBLIC "-//W3C//DTD SVG 1.1//EN" "http://www.w3.org/Graphics/SVG/1.1/DTD/svg11.dtd">
<svg version="1.1" xmlns="http://www.w3.org/2000/svg" xmlns:xlink="http://www.w3.org/1999/xlink" x="0px" y="0px" width="100px"
	 height="100px" viewBox="0 0 100 100" style="enable-background:new 0 0 100 100;" xml:space="preserve">
<g id="JO">
	<path style="fill:#010101;" d="M5.796,95.463c0,0,22.903,4.609,23.121,4.536c0.218-0.071,8.603-7.041,8.929-7.55
		c0.327-0.508,4.646-8.384,5.082-8.493c0.435-0.109,15.535-3.013,15.79-3.594c0.254-0.581,2.831-7.804,3.266-7.913
		c0.437-0.108,6.534-3.956,6.534-3.956l-9.11-10.78L48.409,44.864l4.865-1.597l25.298-7.84l9.982-2.976l5.735-5.699L83.581,0
		L44.707,25.698c0,0-1.234-0.908-1.851-0.654c-0.617,0.254-0.871-0.073-1.053-0.145c-0.181-0.072-1.924-0.254-2.323-0.254
		c-0.399,0-1.56-0.217-2.177-0.253c-0.617-0.037-0.871-0.545-1.416-0.763c-0.544-0.218-0.417-0.345-1.088-1.016
		c-0.672-0.671-0.617-0.98-1.416-1.343c-0.799-0.363-1.18-0.781-1.271-0.871c-0.09-0.091-0.363-0.073-0.436,0.181
		c-0.072,0.254-0.29,0.544-0.544,0.29c-0.254-0.253-0.398-0.617-0.617-0.399c-0.218,0.218-1.162,0.617-1.162,0.29
		c0-0.326,0.781-0.381,0.182-0.979c-0.599-0.599-0.944-0.436-0.944-1.198c0-0.762,0.109-1.053-0.036-1.197
		c-0.146-0.146-0.146-0.218-0.617-0.181c-0.473,0.036-0.726,0.363-0.799-0.218c-0.073-0.581-0.182-0.871-0.291-0.871
		s0.689-0.254-0.472-0.399c-1.162-0.145-0.508,0.073-1.379-0.218s0.327-1.053-1.125-0.436s-1.198,0.399-1.561,0.762
		c-0.363,0.363-0.436,0.182-0.545,0.508c-0.109,0.327,0.472,0.327-0.399,0.363c-0.872,0.036-1.198-0.218-1.198-0.108
		c0,0.108,0.182,0.58-0.145,0.798c-0.327,0.217-0.653,0.943-0.544,1.161c0.109,0.218,0.146,0.763,0,1.089
		c-0.145,0.327-0.581,0.98-0.399,1.271c0.182,0.291,0.436-0.072,0.182,0.834c-0.254,0.908-0.363,0.944-0.254,1.67
		c0.108,0.727,0.108,1.271,0.181,1.851s0.073,0.218,0.146,1.67c0.073,1.452-0.4,0.98-0.254,1.852s-0.036,1.234-0.327,1.851
		s-0.182,0.689-0.327,1.307s-0.218,1.307-0.072,1.633c0.145,0.327,0.254,0.29,0.363,0.762c0.108,0.472,0.108,0.472,0.108,1.089
		s0.109,1.706,0.109,1.96s-0.073,0.508-0.073,0.908c0,0.399-0.217,0.472,0,0.581c0.218,0.109-0.363,0.835-0.363,1.125
		c0,0.291-0.254,1.924-0.363,2.432c-0.109,0.509-0.436,2.432-0.617,2.759c-0.181,0.326-0.254,0.29-0.254,0.98
		c0,0.689-0.436,1.452-0.726,2.359c-0.291,0.907-0.617,0.944-0.69,1.742c-0.073,0.799,0.363,0.98,0.726,1.852
		c0.363,0.871,1.271,0.907,0.472,1.887c-0.798,0.98-1.271,2.069-1.379,2.613c-0.108,0.545-0.072,0.689-0.363,1.308
		c-0.29,0.616-1.198,0.362-1.198,1.451s-0.617,3.087-0.799,3.594c-0.181,0.508-0.436,0.689-0.726,1.598
		c-0.291,0.907-0.69,2.323-0.98,2.903c-0.291,0.58-0.617,1.017-0.98,1.67c-0.363,0.652-0.472,0.254-0.545,0.871
		c-0.072,0.617,0.599,0.962,0.98,1.343c0.381,0.381,0,0.944-0.254,1.307c-0.254,0.363-0.872,1.343-0.98,2.251
		c-0.109,0.907,1.053,1.053,0.689,2.177c-0.363,1.125-1.307,2.324-1.561,2.797C8.7,80.362,8.519,81.415,8.41,82.068
		c-0.109,0.654-0.544,1.053,0.109,1.852c0.653,0.799-0.436,1.234-0.69,2.105c-0.254,0.871-0.727,2.432-1.234,3.375
		c-0.508,0.943-0.472,1.562-0.399,1.743s0.617-0.073,0.472,0.762S5.397,95.245,5.796,95.463z"/>
</g>
<g id="Layer_1">
</g>
</svg>
