<?xml version="1.0" encoding="iso-8859-1"?>
<!-- Generator: Adobe Illustrator 16.0.3, SVG Export Plug-In . SVG Version: 6.00 Build 0)  -->
<!DOCTYPE svg PUBLIC "-//W3C//DTD SVG 1.1//EN" "http://www.w3.org/Graphics/SVG/1.1/DTD/svg11.dtd">
<svg version="1.1" xmlns="http://www.w3.org/2000/svg" xmlns:xlink="http://www.w3.org/1999/xlink" x="0px" y="0px" width="100px"
	 height="100px" viewBox="0 0 100 100" style="enable-background:new 0 0 100 100;" xml:space="preserve">
<g id="KE">
	<path style="fill:#010101;" d="M84.453,70.707c0.014,0.124,0.021,0.248,0.036,0.371c-0.419,0.215-0.575,0.114-1.081,0.068
		c-0.247,0.329-0.714,0.59-1.217,0.472c-0.19-0.329,0.007-0.988,0.034-1.451c-0.058-0.031-0.058-0.041-0.135-0.068
		c-0.012,0.023-0.023,0.045-0.032,0.068c-0.09,0.119-0.027,0.252-0.068,0.439c-0.037,0.17-0.146,0.463-0.102,0.673
		c0.051,0.247,0.149,0.403,0.102,0.677c-0.11,0.056-0.133,0.092-0.303,0.101c-0.036-0.027-0.009-0.014-0.068-0.036
		c-0.247-0.448-0.243-0.992-0.777-1.181c-0.042,0.078-0.056,0.078-0.067,0.206c0.025,0.05,0.007,0.114,0,0.233
		c0.075,0.041,0.208,0.069,0.305,0.101c0.05,0.123,0.022,0.266,0.069,0.438c0.036,0.146,0.159,0.284,0.2,0.408
		c0,0.109,0,0.224,0,0.338c0.06,0.262,0.08,0.609,0.136,0.843c0.331,0.155,0.651,0.16,0.641,0.673
		c-0.121,0.137-0.112,0.37-0.304,0.439c-0.184,0.133-0.369,0.027-0.473-0.069c0.056-0.109,0.093-0.128,0.101-0.302
		c-0.067-0.064-0.224-0.155-0.27-0.238c-0.155-0.261,0.022-0.274-0.439-0.27c-0.032,0.027-0.009,0.014-0.065,0.036
		c0,0.046,0,0.087,0,0.133c0.28,0.073,0.308,0.229,0.474,0.407c-0.023,0.06-0.01,0.032-0.037,0.064
		c-0.053,0.165-0.506,0.357-0.673,0.274c-0.21-0.078-0.216-0.233-0.509-0.274c-0.027,0.041,0.005,0.005-0.031,0.036
		c0.045,0.156,0.089,0.316,0.135,0.472c0.145,0.201,0.353,0.11,0.371,0.472c-0.039,0.06-0.028,0.174-0.066,0.238
		c-0.014,0.018-0.54,0.608-0.54,0.608c-0.081,0-0.161,0-0.238,0c-0.184,0.055-0.396,0.22-0.54,0.334
		c-0.296,0.247-0.387,0.687-0.843,0.778c-0.467,0.096-0.76-0.398-1.114-0.302c-0.428,0.11-1.005,0.22-1.416,0.402
		c-0.366,0.161-0.722,0.458-1.049,0.673c-0.224,0.155-0.489,0.288-0.641,0.508c-0.032,0.092-0.066,0.179-0.101,0.271
		c-0.112,0.183-0.336,0.39-0.402,0.609c-0.097,0.301,0.196,0.411,0.101,0.74c-0.042,0.138-0.166,0.33-0.202,0.473
		c-0.038,0.141,0.092,0.934,0.133,1.011c0.039,0.078,0.123,0.092,0.238,0.105c0.041-0.083,0.078-0.109,0.133-0.169
		c0.059,0.018,0.034,0.004,0.068,0.032c0.083,0.045,0.023-0.015,0.069,0.067c0.022,0.037,0.018,0.033,0.031,0.101
		c-0.288,0.275-0.645,0.669-0.775,1.081c0,0.146,0,0.293,0,0.439c-0.062,0.192-0.3,0.312-0.371,0.504
		c-0.111,0.301,0.213,0.443,0.101,0.741c-0.011,0.036-0.121,0.105-0.135,0.137c-0.069,0.165-0.014,0.252-0.101,0.371
		c-0.115,0.155-0.343,0.16-0.509,0.271c-0.226,0.15-0.47,0.443-0.772,0.508c-0.06-0.128-0.089-0.188-0.27-0.206
		c-0.032,0.06-0.043,0.06-0.069,0.138c-0.123,0.215,0.11,0.348,0,0.608c-0.164,0.389-0.501,0.736-0.641,1.112
		c-0.011,0.109-0.022,0.224-0.033,0.339c-0.062,0.183-0.153,0.394-0.204,0.604c-0.129,0.083-0.211,0.174-0.402,0.206
		c-0.143-0.155-0.596-0.499-0.811-0.54c0,0.019,0,0.041,0,0.064c-0.028,0.036-0.021,0.032-0.035,0.101
		c0.073,0.073,0.254,0.188,0.306,0.27c0.1,0.179,0,0.225,0.27,0.238c0.164-0.119,0.425,0.009,0.471,0.138
		c0.09,0.133,0.017,0.828-0.031,0.975c-0.192,0.562-0.485,1.208-0.744,1.721c-0.089,0.184-0.121,0.427-0.271,0.54
		c-0.084,0.069-0.261,0.069-0.373,0.101c0.058,0.124,0.073,0.271,0.069,0.477c-0.188,0.123-0.261,0.426-0.472,0.503
		c-0.08,0.056-0.146,0.023-0.238,0c-0.014-0.031-0.336-0.74-0.336-0.74c-0.058,0-0.112,0-0.167,0
		c-0.056-0.037-0.14-0.037-0.238-0.033c-0.019,0.051-0.022,0.056-0.032,0.133c0.188,0.101,0.403,0.138,0.403,0.44
		c-0.069,0.063-0.062,0.096-0.17,0.133c-0.033,0.027-0.029,0.022-0.101,0.036c0,0.031,0,0.068,0,0.101
		c0.181,0.041,0.353,0.137,0.407,0.302c0.12,0.155,0.114,0.499,0,0.678c-0.096,0.146-0.311,0.357-0.407,0.504
		c-0.022,0.104-0.043,0.206-0.066,0.307c-0.107,0.273-0.295,0.649-0.405,0.91c0,0.078,0,0.156,0,0.233
		c-0.031,0.092-0.137,0.247-0.169,0.339c-0.082,0.257-0.046,0.526-0.133,0.742c-0.06,0.021-0.107,0.031-0.204,0.036
		c-0.036-0.028-0.031-0.022-0.103-0.036c-0.068,0.142-0.109,0.343-0.201,0.475c-0.073,0.106-0.22,0.166-0.271,0.303
		c-0.087,0.247-0.039,0.91-0.302,0.843c-0.17-0.06-0.11-0.188-0.238-0.271c0,0.014,0,0.023,0,0.037
		c-0.089,0.104-0.256,0.242-0.302,0.37c0.092,0.092,0.105,0.206,0.101,0.403c-0.087,0.046-0.119,0.063-0.271,0.068
		c-0.157,0.105-0.567,0.019-0.741,0c-0.068-0.119-0.15-0.206-0.238-0.302c-0.577,0.146-0.544,0.6-0.91,0.773
		c-0.04,0.027-0.055,0.027-0.135,0.036c-0.342-0.339-0.818-0.567-1.216-0.847c-0.956-0.673-1.899-1.378-2.868-2.06
		c-2.515-1.768-4.979-3.657-7.49-5.429c-0.833-0.585-1.646-1.181-2.465-1.758c-0.888-0.622-1.484-0.806-1.787-2.06
		c-0.4-0.229-0.646-0.334-1.25-0.334c-0.05-0.078-0.142-0.142-0.169-0.238c0-0.123,0-0.247,0-0.37
		c-0.027-0.056-0.174-0.073-0.201-0.138c0.009-0.165,0.022-0.335,0.031-0.503c0.346-0.225,0.606-0.519,0.912-0.778
		c0.132-0.11,0.05-0.293,0.237-0.371c0.036-0.022,0.032-0.019,0.101-0.032c-0.027-0.558-0.11-1.171-0.238-1.721
		c-0.063-0.279,0.005-0.6-0.133-0.81c-0.089-0.139-0.272-0.206-0.405-0.307c-0.057-0.065-0.111-0.133-0.168-0.202
		c-0.566-0.407-1.216-0.641-1.822-1.012c-1.449-0.878-3.01-1.647-4.456-2.531c-0.462-0.283-0.952-0.457-1.416-0.741
		c-1.355-0.828-2.812-1.497-4.184-2.33c-4.021-2.443-8.308-4.503-12.319-6.952c-1.245-0.76-2.563-1.331-3.813-2.091
		c-1.677-1.021-3.481-1.909-5.161-2.935c-0.508-0.311-1.044-0.499-1.553-0.81c-0.686-0.417-1.427-0.756-2.126-1.181
		c-0.252-0.156-0.562-0.412-0.844-0.509c-0.224-0.077-0.5-0.06-0.709-0.101c-0.021-0.109-0.045-0.224-0.067-0.339
		c-0.261-0.087-0.725-0.036-1.046-0.031c-0.223-0.372-0.101-1.305-0.101-1.854c0-1.533,0-3.062,0-4.591
		c0.196-0.298,0.14-0.847,0.235-1.218c0.133-0.503,0.171-1.039,0.303-1.583c0.019-0.073,0.093-0.192,0.069-0.307
		c-0.165-0.747-0.723-1.649-0.743-2.462c0.134-0.132,0.192-0.313,0.304-0.471c0.36-0.515,0.738-1.042,1.114-1.554
		c0.23-0.313,0.66-0.456,0.709-0.943c-0.104-0.128-0.16-0.405-0.17-0.609c0.471-0.307,0.547-1.36,0.777-1.925
		c0.205-0.115,0.486-0.243,0.708-0.336c0.135-0.034,0.271-0.068,0.404-0.101c0.112-0.071,0.107-0.174,0.169-0.304
		c0.051-0.104,0.191-0.163,0.235-0.27c0.069-0.158,0.032-0.479,0.069-0.675c0.229-0.146,0.609-0.204,0.843-0.371
		c0.19-0.137,0.171-0.338,0.304-0.54c0.089-0.133,0.312-0.21,0.37-0.371c0-0.066,0-0.135,0-0.204
		c0.071-0.206,0.246-0.423,0.305-0.641c-0.012-0.179-0.022-0.359-0.033-0.54c0.062-0.268,0.354-0.961,0.573-1.046
		c0.213-0.128,0.328,0.151,0.473,0.101c0.197-0.085,0.162-0.449,0.338-0.572c0.115-0.083,0.244-0.002,0.405-0.069
		c0.21-0.087,0.312-0.405,0.505-0.505c0.27-0.14,0.549-0.005,0.811-0.066c0.152-0.037,0.241-0.099,0.473-0.101
		c0.068-0.105,0.117-0.101,0.135-0.272c0.051-0.078,0.037-0.272,0.032-0.405c-0.155-0.096-0.322-0.272-0.302-0.538
		c0.005-0.05,0.05-0.112,0.031-0.203c-0.024-0.135-0.063-0.24-0.031-0.405c0.114-0.064,0.562-0.268,0.608-0.371
		c0.177-0.261,0.172-0.847,0.371-1.148c0.181-0.275,0.476-0.176,0.672-0.371c0.066-0.064,0.439-0.81,0.474-0.911
		c0.078-0.222-0.029-0.423,0-0.641c0.028-0.213,0.049-0.542,0.035-0.811c-0.014-0.089-0.023-0.179-0.035-0.27
		c0.023-0.124-0.014-0.412,0.035-0.574c0.046-0.158,0.169-0.238,0.201-0.438c-0.266-0.253-0.611-0.76-0.439-1.417
		c0.039-0.146,0.206-0.334,0.138-0.574c-0.062-0.204-0.168-0.513-0.271-0.709c-0.029-0.052-0.114-0.112-0.138-0.169
		c-0.073-0.186-0.031-0.305-0.1-0.506c-0.09-0.146-0.179-0.293-0.271-0.437c-0.084-0.208-0.05-0.41-0.135-0.609
		c-0.071-0.169-0.264-0.384-0.305-0.606c-0.021-0.124,0.062-0.185,0.069-0.338c0.084-0.053,0.128-0.151,0.201-0.202
		c0.199-0.13,0.356-0.045,0.37-0.371c0.058-0.084,0.022-0.179,0-0.271c-0.352-0.171-0.309-0.49-0.471-0.844
		c-0.463,0.081-0.586-0.311-0.742-0.641c-0.073-0.156-0.278-0.302-0.338-0.472c-0.01-0.281-0.023-0.563-0.032-0.844
		c-0.062-0.263-0.175-0.535-0.237-0.776c-0.164-0.094-0.335-0.236-0.54-0.27c-0.117,0.117-0.318,0.11-0.506,0.066
		c-0.157-0.213-0.315-0.428-0.473-0.641c-0.104-0.073-0.241-0.094-0.303-0.204c-0.115-0.197,0.015-0.48-0.068-0.741
		c-0.018-0.055-0.117-0.146-0.134-0.202c-0.108-0.327-0.037-0.606-0.103-0.913c-0.101-0.078-0.202-0.155-0.304-0.235
		c-0.164-0.058-0.312,0.011-0.438-0.066c-0.175-0.11-0.291-0.332-0.438-0.474c-0.001-0.204-0.093-0.311-0.069-0.472
		c0.019-0.117,0.082-0.405,0.035-0.574c-0.031-0.11-0.137-0.257-0.169-0.371c-0.011-0.124-0.022-0.247-0.034-0.371
		c-0.102-0.261-0.464-0.41-0.303-0.845c0.008-0.023,0.096-0.084,0.101-0.101c0.097-0.272-0.225-0.334-0.135-0.606
		c0.08-0.247,0.447-0.217,0.54-0.474c0.146-0.208,0.137-1.051,0.135-1.417c-0.127-0.071-0.339-0.113-0.473-0.204
		c-0.108-0.073-0.301-0.359-0.405-0.472c-0.067,0-0.134,0-0.202,0c-0.102,0.115-0.208,0.25-0.404,0.27
		c-0.08,0.053-0.146,0.019-0.236,0c-0.037-0.089-0.013-0.247-0.067-0.37c-0.062-0.14-0.302-0.231-0.406-0.339
		c-0.151-0.007-0.589,0.029-0.64,0C8.867,9.121,8.68,8.748,8.661,8.512c0.037-0.046,0.05-0.096,0.067-0.169
		c0.176-0.105,0.28-0.135,0.54-0.101C9.307,8.171,9.316,8.18,9.336,8.075c-0.1-0.055-0.193-0.071-0.372-0.068
		C8.878,8.073,8.413,8.192,8.29,8.21c-0.167-0.151-0.275-0.13-0.27-0.473c0.187-0.174,0.261-0.332,0.235-0.641
		C8.059,6.967,7.916,6.782,7.75,6.624C7.754,6.27,7.981,6.091,7.885,5.746C7.83,5.548,7.602,5.473,7.547,5.308
		c-0.075-0.235,0.141-0.364,0-0.574C7.445,4.58,7.196,4.564,7.109,4.395C7.072,4.343,7.074,4.258,7.075,4.16
		c0.621-0.41,1.191-1.158,1.721-1.687c0.825-0.824,1.733-1.579,2.531-2.431c4.209-0.066,8.559-0.034,12.822-0.034
		c0.969,0,1.937,0,2.902,0c0.467,0,0.961-0.041,1.012,0.371c0.109,0.174,0.027,0.508,0.137,0.676
		c0.138,0.215,0.55,0.542,0.741,0.743c0.8,0,1.598,0,2.396,0c0.351,0.094,0.891,0.101,1.385,0.101c1.03,0,2.32-0.084,3.138,0.135
		c0.775-0.011,1.552-0.022,2.328-0.034c0.553,0.153,0.827,0.469,1.587,0.474C39.886,2.63,40,2.789,40.112,2.944
		c0.123,0.046,0.247,0.092,0.37,0.135c0.126,0.112,0.07,0.403,0.204,0.506c0.196,0.158,0.426,0.235,0.641,0.373
		c0.604,0.38,1.204,0.79,1.821,1.181c1.795,1.133,3.558,2.332,5.364,3.474c0.373,0.235,0.742,0.542,1.115,0.778
		c0.185,0.115,0.368,0.174,0.54,0.302c0.121,0.092,0.178,0.28,0.271,0.405c0.199,0.279,0.588,0.565,0.945,0.675
		c0.315-0.011,0.629-0.021,0.942-0.034c0.545,0.119,1.647,0.215,2.128,0.103c0.179,0,0.359,0,0.541,0
		c0.271-0.087,0.498-0.385,0.775-0.439c0.38-0.076,0.412,0.359,0.575,0.439c0.146,0,0.29,0,0.437,0
		c0.08,0.075,0.149,0.096,0.304,0.101c0.064-0.135,0.056-0.268,0.236-0.305c0.043,0.03,0.084,0.032,0.167,0.035
		c0.151,0.24,0.38,0.375,0.509,0.641c0.757-0.004,1.343,0.49,2.192,0.506c0.088-0.16,0.137-0.21,0.407-0.202
		c0.063,0.087,0.112,0.099,0.267,0.101c0.062-0.08,0.113-0.115,0.236-0.135c0.243,0.19,0.543,0.034,0.913,0.135
		c0.177,0.048,0.279,0.194,0.405,0.27c0.101,0.023,0.201,0.045,0.302,0.068c0.06,0.035,0.097,0.142,0.17,0.167
		c0.576,0.202,1.252-0.375,1.586-0.167c0.281,0.112,0.07,0.272,0.574,0.268c0.211,0.194,0.581,0,0.911,0.103
		c0.077,0.022,0.23,0.096,0.338,0.135c0.083,0.188,0.175,0.334,0.303,0.472c0.238-0.096,0.272-0.849,0.472-1.046
		c0.194-0.19,0.417-0.348,0.608-0.54c0.078-0.076,0.123-0.197,0.201-0.27c0.097-0.089,0.138-0.007,0.238-0.066
		c0.196-0.12,0.494-0.518,0.641-0.709c0.112-0.101,0.225-0.202,0.336-0.305c0.076-0.13,0.044-0.212,0.104-0.371
		c0.089-0.248,0.313-0.495,0.402-0.741c0-0.058,0-0.115,0-0.17c0.037-0.091,0.17-0.146,0.204-0.235
		c0.048-0.126,0.002-0.208,0.066-0.305c0.148-0.222,0.485-0.291,0.742-0.405c0.503-0.22,1.022-0.451,1.519-0.709
		c0.699-0.362,1.458-0.744,2.194-1.046c0.414-0.169,0.835-0.195,1.247-0.371c0.192-0.08,0.274-0.293,0.439-0.371
		c0.668-0.313,1.373-0.43,2.06-0.709c0.281-0.114,0.71-0.199,0.978-0.371c0.343-0.22,0.615-0.623,1.146-0.641
		c0.227,0.332,1.021,0.631,1.114,0.876c0.094,0.14,0.11,0.343,0.17,0.506c0.181,0.084,0.331,0.142,0.506,0.204
		c0.068,0,0.135,0,0.201,0c0.123,0.05,0.895,0.776,0.947,0.876c0.039,0.083-0.009,0.169,0.032,0.236
		c0.188,0.304,0.753,0.867,1.114,0.979c0.269,0.084,0.405-0.183,0.742-0.101c0.276,0.069,1.013,0.087,1.453,0
		c0.295-0.06,0.625,0.096,0.942,0c0.179-0.055,0.467-0.153,0.676-0.204c0.574-0.009,1.146-0.021,1.721-0.032
		c0.066-0.101,0.158-0.153,0.235-0.238c0.545-0.007,0.957,0.222,1.216,0.508c0.29-0.098,0.654-0.146,0.81-0.371
		c0.17-0.247,0.148-0.611,0.305-0.878c0.105-0.181,0.37-0.248,0.54-0.371c0.206-0.148,0.43-0.387,0.606-0.575
		c0.112,0.012,0.227,0.023,0.336,0.035c0.093,0.135,0.204,0.167,0.239,0.371c-0.278,0.183-0.541,0.405-0.812,0.608
		c-0.077,0.089-0.157,0.179-0.237,0.268c-0.069,0.045-0.119,0.007-0.17,0.068c-0.114,0.146-0.13,0.346-0.233,0.506
		c-0.128,0.197-0.293,0.412-0.439,0.609s-0.425,0.302-0.571,0.505c-0.815,1.115-1.57,2.243-2.364,3.374
		c-1.005,1.433-2.035,2.865-3.072,4.287c-0.18,0.25-0.491,0.488-0.74,0.675c-0.347,0.261-0.593,0.643-0.946,0.911
		c-0.224,0.236-0.45,0.474-0.675,0.709c-0.482,0.48-0.986,0.952-1.484,1.417c-0.023,1.957-0.047,3.916-0.066,5.873
		c0,0.765,0,1.529,0,2.295c0,0.378,0.033,0.858-0.034,1.181c0,6.175,0,12.351,0,18.526c0,2.731,0,5.469,0,8.201
		c-0.013,1.149-0.023,2.293-0.035,3.442c0.06,0.179,0.269,0.329,0.373,0.471c0.398,0.555,0.823,1.081,1.213,1.621
		c1.035,1.437,2.105,2.814,3.141,4.252c0.29,0.407,0.613,0.801,0.91,1.213c0.083,0.119,0.252,0.233,0.303,0.37
		c0.05,0.133,0.101,0.889,0.068,0.948c-0.119,0.338-0.572,0.531-0.776,0.811c-0.264,0.36-0.484,0.746-0.743,1.111
		c-0.165,0.238-0.504,0.366-0.707,0.572c-0.264,0.266-0.279,0.596-0.811,0.609c-0.129-0.11-0.309,0-0.506-0.069
		C84.594,70.809,84.592,70.735,84.453,70.707z"/>
</g>
<g id="Layer_1">
</g>
</svg>
