<?xml version="1.0" encoding="iso-8859-1"?>
<!-- Generator: Adobe Illustrator 16.0.3, SVG Export Plug-In . SVG Version: 6.00 Build 0)  -->
<!DOCTYPE svg PUBLIC "-//W3C//DTD SVG 1.1//EN" "http://www.w3.org/Graphics/SVG/1.1/DTD/svg11.dtd">
<svg version="1.1" xmlns="http://www.w3.org/2000/svg" xmlns:xlink="http://www.w3.org/1999/xlink" x="0px" y="0px" width="100px"
	 height="100px" viewBox="0 0 100 100" style="enable-background:new 0 0 100 100;" xml:space="preserve">
<g id="KM">
	<g>
		<path style="fill-rule:evenodd;clip-rule:evenodd;fill:#010101;" d="M8.614,10c0.633,0.084,3.776,0.519,3.933,0.749
			c0,0,0.707,1.238,0.375,1.497c2.233,2.81,0.934,4.81,0,7.111c-0.556,1.369,1.008,1.593,0.468,2.714c0.031,0,0.062,0,0.094,0
			c0.359,1.519-0.272,3.382-0.562,3.743c-0.391,0.485-0.142,2.905-0.188,2.807c-0.093,0.249-0.187,0.499-0.281,0.748
			c0.432,0.286,0.52,2.536,0.562,2.714c0,0.125,0,0.249,0,0.374c1.697,1.421,2.934,4.916,4.307,7.298
			c0.158,0.275-0.002,2.441-0.188,2.713c0.859,1.713,1.834,4.759,3.09,5.895c-0.062,0.156-0.125,0.312-0.187,0.468
			c0.411-0.022,0.57-0.168,0.468,0.281c0.374,0.25,0.749,0.5,1.123,0.749c0.212,0.426,0.082,0.72,0.188,0.842
			c0.125,0.156,0.25,0.312,0.375,0.468c-0.353,0.033-1.436,0.927-1.498,1.402c0.4,0.509-0.271,0.588-0.187,1.029
			c-0.951,0.042-1.264,0.72-2.248,1.03c-0.915,0.288-1.864-1.165-2.153-0.843c-1.326-1.576-3.021-3.169-4.12-4.491
			c-0.17-0.205-0.14-0.874-0.562-0.749c-1.173-1.42-2.608,0.616-4.682-0.094c-1.094-0.374-3.353-1.597-3.464-2.62
			c0.046-0.053-1.112-1.854-0.562-2.246c-0.142-0.152-1.686-1.216-1.686-1.216S0.015,39.086,0,38.351
			c0.7-0.714,1.289-1.651,1.404-2.339c0.125,0.094,0.25,0.187,0.375,0.281c-0.205-0.629,0.343-2.447,1.03-2.246
			c-0.154-2.227-0.88-6.153,0.281-7.485c-0.094-1.154-0.188-2.309-0.281-3.462c0.343-0.811,0.687-1.622,1.03-2.433
			c0.374-1.048-0.664-1.445-0.562-1.871c0.265-1.102-0.399-1.564-0.656-2.152c-0.216-0.496,1.404-4.491,1.405-4.491
			c0.768-0.101,1.02-0.738,1.592-1.403C6.125,11.224,8.487,10.488,8.614,10z"/>
		<path style="fill-rule:evenodd;clip-rule:evenodd;fill:#010101;" d="M93.82,64.736c1.758,0.115,2.051,1.361,2.715,2.434
			c-0.132,0.561-0.261,0.604-0.654,1.029c0.926,1.193,1.055,2.012,1.311,3.274c0,0.249,0,0.499,0,0.749
			c0.582,0.428,2.836,6.801,2.527,7.672c-0.21,0.595-0.658,1.074-0.842,1.497c0.031,0.187,0.062,0.374,0.094,0.562
			c0.08,0.364,0.468,4.023,0.468,4.023c0.093,0.062,0.188,0.125,0.28,0.188c0.178,0.174,0.198,0.204,0,0.28
			c-0.006,0.051,0.005,1.532-0.28,2.059c-0.312,0.28-0.624,0.562-0.937,0.842c-0.901-0.03-1.721-0.156-2.247-0.655
			c0.384-0.781,0.089-1.691,0.094-2.339C94.353,86.07,94.42,84,92.51,84.012c0,0-0.353-0.6-0.562-0.374
			c-0.371-0.389-0.045-1.21-0.562-1.311c-0.132-0.228-1.796-0.823-1.872-0.749c-0.032-0.031-0.062-0.062-0.094-0.093
			c-0.023-0.032-1.124-2.246-1.124-2.246c-0.725-0.501-1.929-0.788-2.996-1.31c-0.624,0.062-1.249,0.125-1.873,0.188
			c-1.779-0.668-7.876-3.758-8.895-5.521c0.418,0,1.426-0.099,2.247-0.094c0.169,0.427,0.592,1.095,0.843,1.029
			c0.271,0.413,3.074,0.103,3.276,0.093c0.055,1.11,0.559,0.725,1.592,1.123c0.061-0.34,0.038-0.283,0.188-0.467
			c0.186,0.184,4.708-0.368,5.15-0.843c0.187-0.125,0.374-0.249,0.562-0.374c0,0,0.343-0.69,0.374-0.281
			c-0.031-0.155-0.062-0.312-0.094-0.468c0.125,0,0.25,0,0.375,0c0.031-0.031,0.062-0.062,0.094-0.093
			c0.004-0.07,0.223-0.252,0.094-0.375c0.303-0.267,1.648-0.188,1.498-0.561c0.358-0.212,0.297-1.359,0.375-1.498
			c0.064-0.369,0.505-0.608,0.654-0.842c0-0.219,0-0.437,0-0.655c-0.119-0.745-0.875-0.432-0.936-1.591
			c1.6-0.635,2.902-1.777,2.902-1.777c0.031,0,0.062,0,0.094,0C93.82,64.861,93.82,64.799,93.82,64.736z"/>
		<path style="fill-rule:evenodd;clip-rule:evenodd;fill:#010101;" d="M83.053,74.094c0.031,0.062,0.062,0.125,0.094,0.188
			C83.115,74.219,83.084,74.156,83.053,74.094z"/>
		<path style="fill-rule:evenodd;clip-rule:evenodd;fill:#010101;" d="M32.21,78.865c0.252,0.1,0.461,0.122,0.749,0
			c0.124,0.499,0.053,0.51,0.655,0.562c0.341-0.48,1.656,0.239,1.592,0.468c0.188-0.094,0.375-0.188,0.562-0.28
			c0.454,0.987,1.744,1.133,2.809,0.842c0.343,0.812,1.697,2.132,2.903,1.591c0.036,0.547,0.039,0.771,0.281,0.936
			c0.624,1.235,4.938,1.892,5.899,3.275c1.014,0.503,1.624,2.445,1.217,3.742c-0.125,0-0.25,0-0.375,0
			c-0.099-0.354-2.842-0.952-3.464-1.217c-0.04,0.244,0.091,0.052-0.094,0.281c-0.5-0.832-1.555-0.057-2.341-0.469
			c-0.342-0.179-0.318-0.398-0.562-0.561c0.031,0.062,0.062,0.125,0.094,0.188c-0.121,0.238-0.1,0.73-0.281,0.936
			c-0.312-0.227-0.463-0.363-0.468-0.655c-0.62-0.192-0.555-0.54-0.937-0.749c-0.218-0.031-0.437-0.062-0.655-0.094
			c-0.094,0.281-0.188,0.562-0.281,0.843c-0.742-0.668-0.705-0.55-1.779-0.843c-0.156,0.25-0.312,0.5-0.469,0.749
			c-0.031-0.062-0.062-0.124-0.093-0.187c-0.262-0.154-0.232-0.392-0.468-0.749c-0.6,0.177-1.367,0.04-1.779-0.094
			c-0.065,0.401-0.185,0.515-0.843,0.562c-0.033-0.244-0.105-0.445-0.281-0.655c-0.447,0.283-0.573,0.476-0.562-0.093
			c-0.306-0.392,0.423-0.648,0.187-1.029c-0.364-0.59-0.527-0.893-1.123-1.685c-0.437,0-0.874,0-1.311,0c0-0.031,0-0.062,0-0.094
			c0.462-0.863-0.234-2.317-0.937-2.62c0.204-1.192,0.137-1.857,0.843-2.433C31.349,79.763,32.002,79.04,32.21,78.865z"/>
		<path style="fill-rule:evenodd;clip-rule:evenodd;fill:#010101;" d="M99.719,79.614c0.094,0,0.188,0,0.281,0
			c-0.062,0.062-0.125,0.124-0.188,0.187C99.781,79.738,99.75,79.676,99.719,79.614z"/>
	</g>
</g>
<g id="Layer_1">
</g>
</svg>
