<?xml version="1.0" encoding="iso-8859-1"?>
<!-- Generator: Adobe Illustrator 16.0.3, SVG Export Plug-In . SVG Version: 6.00 Build 0)  -->
<!DOCTYPE svg PUBLIC "-//W3C//DTD SVG 1.1//EN" "http://www.w3.org/Graphics/SVG/1.1/DTD/svg11.dtd">
<svg version="1.1" xmlns="http://www.w3.org/2000/svg" xmlns:xlink="http://www.w3.org/1999/xlink" x="0px" y="0px" width="100px"
	 height="100px" viewBox="0 0 100 100" style="enable-background:new 0 0 100 100;" xml:space="preserve">
<g id="KR">
	<g>
		<g>
			<path style="fill:#010101;" d="M29.913,94.683c-1.083,0.234-1.215,0.073-1.435,0.293s-0.146,0.146-0.586,0.586
				c-0.439,0.439-0.805,0.454-1.112,0.761c-0.308,0.308-0.469,0.06-0.557,0.762c-0.088,0.703-0.308,1.099,0.029,1.436
				c0.337,0.336,0.088,0.176,0.615,0.849c0.527,0.674,0.645,0.732,0.85,0.527s-0.029-0.585,1.083-0.556
				c1.113,0.028,0.937,0.028,1.464,0.059c0.527,0.028,0.176-0.265,1.347-0.088c1.172,0.176,1.406-0.293,1.845-0.527
				s0.966-0.059,1.289-0.176s-0.41-0.703,0.703-0.762s1.596-2.064,1.787-2.255s0.527-0.908-0.029-1.288
				c-0.557-0.381-0.938-0.674-1.289-0.674c-0.352,0-0.996-0.498-1.464-0.322c-0.468,0.176-2.401,0.381-2.489,0.469
				c-0.088,0.088,0.527,0.497-0.264,0.527c-0.791,0.028-0.966-0.147-1.23-0.03C30.206,94.391,30.201,94.626,29.913,94.683z"/>
			<path style="fill:#010101;" d="M27.257,75.346c0,0.41-0.41,0.328-0.765,0.737c-0.355,0.41-0.273,0.492-0.711,0.738
				c-0.437,0.246-0.656,0.219-0.656,0.82s0.027,0.684,0.383,0.82c0.355,0.136,0.314-0.233,0.683,0.136s0.055,0.138,0.492,0
				c0.438-0.136,0.028-0.218,0.848-0.19s0.574-0.219,0.766-0.328c0.191-0.109,0.601,1.395,0.71,0c0.11-1.394,0.11-1.804,0.11-1.914
				c0-0.108,0.355-0.438-0.301-0.601c-0.656-0.165-0.492-0.492-0.902-0.492C27.503,75.072,27.328,75.113,27.257,75.346z"/>
			<path style="fill:#010101;" d="M41.552,76.849c-0.738,0.137-0.848-0.137-1.039,0.055c-0.191,0.191-0.191,0.355,0.164,0.602
				c0.355,0.246,0.246,0.41,0.628,0.246c0.383-0.164,0.711-0.41,0.711-0.602s0.109-0.547,0-0.602
				C41.907,76.493,41.88,76.811,41.552,76.849z"/>
			<path style="fill:#010101;" d="M23.321,70.672c-0.246,0.409-0.082,0.409-0.246,0.409s-0.273-0.109-0.684,0.11
				c-0.41,0.218-0.41,0.409-0.246,0.573c0.165,0.164,0,0.082,0.165,0.574c0.164,0.492,0.355,0.793,0.683,0.793
				s0.847-0.055,0.738-0.41s-0.164-0.41-0.519-0.52c-0.355-0.109-0.574-0.082-0.574-0.355c0-0.272-0.027-0.355,0.328-0.465
				s0.492-0.027,0.628-0.328c0.137-0.3-0.027-0.464-0.027-0.464S23.431,70.344,23.321,70.672z"/>
			<path style="fill:#010101;" d="M27.804,64.576c-0.109,0.355-0.109,0.766,0,0.984s0.109,0.328-0.301,0
				c-0.41-0.328-0.848-0.848-1.066-0.52c-0.219,0.328-0.547,0.574,0,0.875c0.546,0.3,0.601,0.055,0.82,0.383
				c0.219,0.327,0.52,0.819,0.574,0.437c0.055-0.382,0.191-0.574,0.383-0.574s0.15-0.231,0.41-0.491
				c0.26-0.261,1.093-0.438,0.437-0.738c-0.656-0.301-0.683-0.301-0.765-0.301C28.213,64.631,27.94,64.439,27.804,64.576z"/>
			<path style="fill:#010101;" d="M25.18,64.74c0,0.273-0.082,0.191-0.219,0.328s-0.738-0.027-0.492,0.355s0.684,0.602,0.766,0.602
				s0.027-0.41,0.109-0.492s0.355-0.328,0.219-0.602S25.18,64.521,25.18,64.74z"/>
			<path style="fill:#010101;" d="M31.538,24.398c-0.236,0.295-0.129,0.062-0.326,0.315s-0.119,0.349,0.058,0.713
				c0.177,0.363,0.264,0.746,0.441,0.403c0.177-0.343,0.388-0.187,0.233-0.6C31.791,24.816,31.583,24.257,31.538,24.398z"/>
			<path style="fill:#010101;" d="M26.518,22.448c-0.375,0.333-0.591,0.234-0.713,0.501s-0.471,1.076,0.383,0.841
				s0.769-0.093,0.929-0.443s0.428-0.45,0.163-0.49c-0.264-0.04-0.273,0.157-0.364-0.086C26.824,22.527,26.584,22.257,26.518,22.448
				z"/>
			<path style="fill:#010101;" d="M28.27,23.252c-0.329,0.455-0.19,0.416-0.518,0.69c-0.327,0.274-0.439,0.101-0.265,0.382
				c0.174,0.281,0.509,0.675,0.608,0.458s0.241-0.527,0.241-0.527s0.596-0.16,0.366-0.628c-0.23-0.468-0.473-0.599-0.473-0.599
				S28.243,23.002,28.27,23.252z"/>
			<path style="fill:#010101;" d="M24.573,68.217c-0.175,0.64-0.465,0.757-0.582,0.873s0.116,0.756,0.582,0.989
				c0.465,0.232,0.407-0.407,0.465,0.232s-0.764,1.688-0.033,1.105c0.731-0.582,0.848-0.814,0.731-1.047
				c-0.116-0.233-0.407-0.932-0.523-1.048s-0.345-0.466-0.345-0.64C24.868,68.508,24.71,67.85,24.573,68.217z"/>
		</g>
		<path style="fill:#010101;" d="M60.183,0.013c-0.205,0.103-0.48-0.172-0.618,0.343c-0.138,0.516-0.138,0.756-0.138,1.237
			s0.104,0.515-0.068,1.065c-0.172,0.55-0.068,0.515-0.446,0.961c-0.378,0.447-0.516,0.413-0.894,0.791s0.206,0.344-0.791,0.687
			c-0.996,0.344-0.79,0.138-1.374,0.31s-0.756,0-1.478,0s-0.619-0.31-1.065-0.069s-0.859,0.481-1.236,0.31
			c-0.378-0.172-0.688-0.378-1.1-0.378c-0.412,0-0.446-0.069-1.099,0.068c-0.653,0.138-1.374-0.274-1.718-0.103
			c-0.343,0.172-0.515,0.447-0.859,0.584c-0.343,0.138-0.962-0.343-1.34-0.481c-0.378-0.137-0.825-0.343-1.512-0.309
			c-0.688,0.035-0.309-0.206-0.962,0c-0.652,0.206-0.859-0.103-1.477,0.309c-0.619,0.412-1.203,0.722-1.684,1.1
			c-0.481,0.378-1.031,0.584-1.203,1.134c-0.171,0.549,0.206,0.79-0.24,1.236c-0.447,0.447-0.602,0.808-0.962,1.168
			c-0.36,0.361-0.515,0.55-0.756,0.928s-1.632,1.048-1.993,1.409c-0.36,0.361-0.446,0.516-0.446,1.34s-0.103,0.962-0.413,1.409
			c-0.309,0.447-1.632,0.395-1.752,0.275c-0.121-0.12,0.051,0.189-0.104,0.343c-0.155,0.155-0.447,0.069-0.447,0
			c0-0.068-0.257-0.533-0.343-0.618c-0.086-0.086,0.343-0.413-0.447-0.413c-0.791,0-1.375,0.035-1.443,0.516
			s-0.309,0.928,0.172,1.306s0.31-0.069,0.481,0.378c0.172,0.447,0.515,0.447,0.275,0.894c-0.241,0.447-0.653,0-0.446,0.549
			c0.206,0.55,0.412,0.447,1.065,0.447s1.031,0.103,1.134-0.241s-0.035-1.512,0.103-1.134c0.137,0.378,0.309,0.957,0.55,1.389
			s0.446,0.261,0.378,0.879c-0.069,0.619,0.068,0.756,0.31,0.859c0.24,0.104,0.584,0.035,0.446,0.275
			c-0.137,0.241-1.443-0.206-0.55,0.791c0.894,0.996,0.584,1.1,1.478,1.202c0.894,0.104,1.031,0.035,0.55,0.516
			c-0.481,0.481-2.508,0.034-0.653,0.79s2.268,0.687,1.718,1.1c-0.55,0.412-0.104,0.343-0.722,0.481
			c-0.619,0.137-0.584-0.069-0.997-0.103c-0.412-0.035-0.894,0.687-0.825,1.065s0.103,0.481,0.24,0.825
			c0.138,0.344,0.722,0.619,0.997,0.206c0.275-0.412,0.602-0.979,1.031-0.549c0.429,0.429,0.344,0.448-0.172,0.757
			c-0.516,0.308-0.55,0.102-0.687,0.858c-0.138,0.756,0.343,0.791,0.755,1.134c0.413,0.344,0.791,0.378,1.134,0.997
			s1.031,0.894,0.653,1.134c-0.378,0.241-0.688,0.31-1.203,0.241c-0.516-0.069-0.791-0.378-1.065-0.825
			c-0.275-0.447,0.103-0.722-0.962-1.065c-1.065-0.344-1.099-0.138-1.581-0.413c-0.481-0.275-1.546-1.306-1.718-0.756
			c-0.172,0.55-0.035,0.791-0.516,0.791s-2.68-0.962-1.958-0.069s0.791,0.412,0.722,0.894c-0.069,0.48,0.069,0.446,0.446,0.618
			c0.378,0.172,0.55,0.309,0.31,0.722c-0.241,0.412-0.687,0.103-0.928,0.481s-0.597,0.688-0.694,0.997
			c-0.097,0.31-0.715,0.618-0.509-0.172s0.344-1.271,0.447-1.443c0.103-0.172,0.034-0.688-0.241-0.344s-0.172,0.481-0.584,0.24
			c-0.412-0.24-0.481-0.618-0.756-0.103c-0.275,0.515-0.618,1.202-0.515,1.477c0.103,0.275,0.237,0.687-0.019,0.31
			c-0.256-0.378-0.565-0.791-0.6-0.207c-0.034,0.584-0.103,0.619-0.103,0.928c0,0.31,0.825,0.653,0.825,0.653
			s0.55,0.138,0.344,0.344c-0.207,0.206-1.89,0.55-0.997,0.825c0.894,0.275,0.842,0.086,1.168-0.241
			c0.326-0.326,0.652-0.618,0.652-0.206c0,0.412,0.653,0.79,0.688,1.168c0.034,0.378-1.031,0.687-0.653,0.962
			s1.409,0.035,1.237,0.859c-0.171,0.824-0.825,0.893-0.55,1.821s1.546,1.306,1.615,0.928c0.068-0.378-0.103-0.996-0.24-1.787
			c-0.138-0.79-1.237-2.542-0.344-2.199c0.893,0.344,1.168,0.275,1.237,0.928s0.343,1.237,0.343,1.615s-0.206,0.481,0.344,0.481
			c0.55,0,0.464,0.086,0.241,0.309c-0.223,0.224-0.962,1.065-0.55,1.34c0.413,0.274-0.035,0.549,0.378,1.236
			c0.413,0.688,0.55,0.275,0.206,1.1s-0.515,0.825-0.103,1.237c0.412,0.412,0.584,0.653,0.962,1.031
			c0.377,0.378,0.962,0.687,0.859,0.962s0.068,0.447,0.275,0.653c0.206,0.206,0.584,0.31-0.035,0.619
			c-0.618,0.309-1.478-0.172-1.649,0.206c-0.171,0.378,0.344,0.859,0.584,0.997c0.241,0.137-0.31,0.791,0.241,0.928
			c0.549,0.138,1.065,0.035,1.821,0.104s1.271-0.722,1.134-0.31c-0.137,0.412-0.515,0.481-0.928,0.481
			c-0.412,0-0.893,0.412-0.378,0.653c0.516,0.24,0.825,0.893,0.825,0.995c0,0.104,0.172-0.412-0.928-0.48s-1.478-0.618-1.546,0.068
			c-0.069,0.688-0.241,1.135-0.722,1.478c-0.481,0.344-2.268,1.271-1.443,1.925c0.825,0.652,2.508-0.24,2.68,0.274
			c0.172,0.516,0.241,0.756-0.034,0.756s-0.997,0-0.997,0.172c0,0.173,0.241-0.172-0.481,0.173
			c-0.722,0.343-1.512,0.377-1.512,0.755s0.104,0.413-0.137,1.065s-0.825,0.378-0.791,0.825c0.035,0.446,0.859,0,0.206,0.824
			c-0.653,0.825-0.893,1.065-0.962,1.306c-0.068,0.24-0.618,0.618-0.172,1.065c0.447,0.446,0.584,0.103,0.55,0.48
			c-0.034,0.378,0.584,1.135,0.825,1.513c0.24,0.377,0.859,0.034,0.549,0.652c-0.309,0.618-0.533,1.117-0.824,0.825
			c-0.292-0.293,0.137-0.585-0.241-0.585c-0.378,0-0.773,0.052-0.55,0.274c0.223,0.224,0.378,0.173,0.275,0.551
			c-0.104,0.378,0,0.412-0.378,0.618c-0.377,0.206-1.202,0-0.755,0.516c0.446,0.516,0.722,0.791,0.722,0.446
			c0-0.343,0.859-1.03,0.859-0.309c0,0.721-0.275,0.962,0.034,1.271c0.31,0.31,0.756-0.515,0.137,0.791
			c-0.618,1.306-1.064,1.1-0.687,1.478c0.377,0.378-0.31,0.446,0.755,0.344c1.065-0.104,0.808-0.189,1.478,0.48
			s0.327,0.327,0.825,0.825s0.894,0.756,0.309,0.824c-0.584,0.068-1.374-0.309-1.581-0.206c-0.206,0.103-0.687,0.722-0.996,0.618
			c-0.309-0.103-0.206,0.172-0.619-0.24c-0.413-0.413-0.413,0-0.481-0.688c-0.068-0.687,0.327-0.498-0.274-1.099
			c-0.601-0.603-0.688-1.237-0.825-0.859s-0.069,0.48-0.069,0.722c0,0.24-0.309,0.274-0.309,0.584c0,0.309,0.12,0.67,0.206,0.756
			s0.172-0.172,0.138,0.446c-0.035,0.619-0.413,0.619,0.274,0.722c0.688,0.104,0.55,0,0.997,0.172s0.378,0.172,0.722,0.413
			c0.344,0.24,0.103-0.275,0.344,0.24s0.275,0.344,0.172,0.824c-0.104,0.481-0.584,0.31-0.104,0.584
			c0.481,0.275,1.306-0.034,0.928,0.516c-0.378,0.55-0.481,1.306-0.069,1.409c0.412,0.103,0.618,0.618,0.618,0.618
			s-0.824,0.034-0.103,0.172c0.721,0.138,0.755,0.412,0.928,0c0.171-0.412,0.549-1.202,0.549-1.409c0-0.206,0.412-0.344,0.722-0.652
			c0.309-0.31,0.756-0.688,1.065-0.996c0.309-0.31,0.618-0.653,0.481-1.272c-0.138-0.618-0.791-1.064-0.31-1.064
			c0.481,0,0.825,0.31,0.825,0.722s-0.481,0.996-0.171,1.408c0.309,0.412,0.412,0.688,0.068,0.962
			c-0.343,0.275-1.443,0.825-0.653,0.963s0.756,0,1.168,0c0.412,0-0.035-0.24,0.034-0.585c0.069-0.343-0.24-0.48,0.241-0.48
			s0.722,0.034,1.031-0.069c0.309-0.103,0.515-0.274,0.515-0.721c0-0.447-0.068-0.585,0.207-0.997
			c0.274-0.412,0.412-1.512,0.516-1.512c0.103,0-0.069-0.412,1.202-0.824s1.1-0.138,1.443-0.481s0.344-0.858,0.619-0.928
			c0.274-0.068,0.206,0.24,0.755,0.24c0.55,0,0.825-0.034,0.928,0.241c0.104,0.274,0.172,0.48,0,0.652
			c-0.171,0.172-0.412,0.344-0.55,0.206c-0.137-0.138-0.481-0.48-0.652-0.412c-0.172,0.069-0.172,0.206-0.241,0.446
			c-0.069,0.241,0.172,0.206-0.275,0.378c-0.447,0.173-0.688,0.138-0.825,0.55c-0.137,0.413-0.481,0.859-0.584,0.963
			c-0.103,0.103-0.687,0.172-0.275,0.412s0.241,0.344,0.859,0.344s1.065-0.275,1.203,0.103s0.394,0.619,0.575,0.962
			c0.181,0.344,0.456,0.241,0.73-0.034c0.275-0.274,0.962-0.344,0.962-0.344s0-0.309,0.104-0.618
			c0.103-0.31,0.172-0.824-0.104-0.928c-0.274-0.104-0.961-0.722-0.103-0.412c0.859,0.309,1.649,1.03,1.511,0.309
			c-0.137-0.721,0.007-0.685-0.476-1.168c-0.484-0.483-0.657-0.859-0.76-1.065c-0.104-0.205-0.481-0.48-0.275-0.893
			c0.206-0.412,0.034-0.378,0.034-0.756c0-0.379-0.687-0.791,0.138-0.791c0.825,0,0.997-0.412,1.443-0.412
			c0.446,0,0.928,0,0.756,0.344c-0.172,0.344-0.464,0.326-0.241,0.55c0.224,0.223,0.584,0.618,0.516,0.962s-0.31,0.104-0.378,0.791
			c-0.069,0.687-0.103,1.099,0.378,1.373c0.481,0.275,0.378,0.688,0.722,0.241s0.619-0.412,0.447-0.859
			c-0.172-0.446-0.309-0.618-0.138-0.79c0.172-0.172-0.257-0.808,0.24-0.31c0.499,0.499,0.859,0,1.1,0.55
			c0.241,0.55,1.134,0.722,0.756,0.069c-0.378-0.653-0.997-0.653-0.722-1.237s0.996-0.722,0.343-0.962
			c-0.652-0.24-0.446-0.24-0.824-0.24s-0.619,0.412-0.928-0.069c-0.309-0.48-0.722-0.824-0.584-1.134
			c0.138-0.31,0.344-0.172,0.859-0.034c0.516,0.138,0.825,0.138,0.894-0.344c0.069-0.481,0.275-1.236,0.412-0.962
			c0.138,0.275-0.412,0.962,0,1.168c0.413,0.206,0.55,0.172,0.55-0.138c0-0.309,0.171-0.652,0.412-0.583
			c0.241,0.068,0.893-0.172,0.893,0.171c0,0.344,0,0.138-0.31,0.825c-0.309,0.688-0.411,0.584-0.137,1.306s0.344,0.722,0.274,1.134
			c-0.068,0.412,0.378,0.825,0.688,0.516s0.722-0.997,0.722-0.413c0,0.585,1.065,0.688,1.065,0.688s0.445,0.378,0.618-0.343
			c0.172-0.722,0.378-1.855-0.104-1.753c-0.481,0.104-0.962-0.103-1.1,0.172s-0.515,0.31-0.687-0.137
			c-0.172-0.447-0.43-0.533-0.104-0.859s0.138-0.722,0.034-0.825c-0.103-0.103-0.807-0.429-0.412-0.824
			c0.396-0.396,0.206-1.203,0.516-0.722c0.309,0.48,0.996,0.722,1.1,0.378c0.103-0.344,0.516-0.997,0.516-0.997
			s0.24-0.515,0.24,0.379s-0.069,0.962-0.138,1.306c-0.068,0.343-0.172,0.652,0.55,0.652s0.43,0.155,0.516,0.24
			c0.086,0.087,0.068-0.034,0.652,0.069c0.585,0.104,0.757,0.068,0.757-0.274c0-0.345-0.138-0.481,0.171-0.379
			c0.31,0.104,0.756,0.379,1.202,0.275c0.447-0.104,0.345-0.619,0.516-0.206c0.172,0.412-0.137,0.618-0.205,0.962
			c-0.069,0.344,0.274,0.516,0.687,0.516c0.413,0,0.825-0.24,0.55,0.205c-0.274,0.447-0.687,0.138-0.516,0.688
			c0.172,0.55-0.24,0.516,0.344,0.653c0.585,0.137,0.825,0.137,0.618-0.31c-0.205-0.446-0.583-0.516-0.24-0.756
			c0.344-0.24,0.516-0.24,0.585-0.688c0.068-0.446,0.103-0.79-0.104-0.927c-0.206-0.138-0.825-0.206-0.378-0.722
			c0.446-0.516,0.79-0.688,0.962-0.859s0.206-0.894-0.48-0.653c-0.688,0.241-1.495,0.533-1.237,0.275s0.515-0.446,0.962-0.516
			c0.446-0.068,0.446-0.412,0.688-0.652c0.24-0.241,0.412-0.585,0.756,0c0.344,0.584,0.584,0.688,0.756,0.618
			c0.172-0.068,0.79,0.138,0.653-0.309c-0.138-0.447-0.722-0.551-0.551-0.859c0.172-0.31,0.517-0.756,0.894-0.447
			c0.378,0.31,0.378-0.24,0.378,0.31s-0.068,1.34,0,1.718c0.069,0.378,0.619,0.206,0,0.688c-0.618,0.48-0.858,0.172-0.962,0.722
			s0.584,0.824,0.274,0.996c-0.309,0.172-0.343,0.24-0.79,0.104c-0.446-0.138-0.636-0.326-1.03,0.068
			c-0.396,0.396-0.104,0.516,0.034,0.963c0.138,0.445,0.344,0.033,0.55-0.069s0.412-0.447,0.481,0.138
			c0.068,0.584-0.035,0.412-0.035,1.03c0,0.619,0.344,0.481,0.275,0.962c-0.069,0.481,0.618,0.928,0.618,0.138
			s-0.206-0.893,0.31-1.271c0.515-0.378,0.515-0.756,0.756-0.858c0.24-0.104,0.43-0.67,0.24-0.859
			c-0.188-0.188-0.584-0.241-0.309-0.516c0.274-0.274,0.532-0.396,0.274-0.652c-0.258-0.258-0.79-0.447-0.274-0.722
			c0.515-0.274,0.824-0.172,0.722-0.619c-0.104-0.446-0.396-0.704-0.241-0.858s0.722-0.79,1.031-0.481
			c0.309,0.31,0.688-0.172,0.378,0.55s-0.652,1.272-0.035,0.962c0.619-0.309,0.447-0.48,0.757-0.79
			c0.309-0.31-0.379-0.274,0.584-0.343c0.962-0.069,0.894-0.517,1.442-0.207c0.55,0.31,0.723,0.619,0.997,0.172
			c0.275-0.446,0.24-1.271,1.512-1.271s0.859-0.172,0.996-0.858c0.138-0.688,0.24-0.79,0.481-1.237
			c0.24-0.446,0.31-0.618,0.618-0.928c0.31-0.31,0.309,0.068,0.584-0.722s0.035-1.031,0.344-1.34c0.31-0.31,0.104-0.859,0.619-0.722
			c0.515,0.138,0.446,0.138,0.652-0.516c0.206-0.652,0.584-0.756,0.447-1.168c-0.138-0.412,0.104-0.172-0.138-0.894
			c-0.24-0.722-0.722-0.756-0.24-1.065c0.48-0.31,0.24-0.172,0.515-0.996c0.275-0.824,0.275-1.031,0.516-1.821
			s0.172-1.306,0.344-1.924c0.172-0.619,0.206-0.894,0.481-1.478c0.274-0.584,0-1.409-0.344-1.306s-0.071,0.247-0.412,0.589
			c-0.342,0.341-0.447,0.408-0.791,0.683s-0.824,0.344-0.824,0.103s0.258-0.43,0.172-0.516s-1.1-0.206-0.412-0.688
			c0.687-0.48,0.516-0.618,0.275-1.03c-0.241-0.412,0.068-0.928-0.241-1.031c-0.309-0.103-0.824,0-0.55-0.412
			c0.275-0.413,0.274-0.481,0.309-0.997c0.035-0.516,0-1.031,0.241-1.615c0.241-0.584,0.172-0.343,0.481-1.237
			c0.309-0.893,0.515-1.134,0.378-1.787c-0.138-0.653-0.035-1.1-0.24-1.168c-0.207-0.068-0.413-0.756-0.104-1.375
			c0.309-0.618,1.168-1.443,1.168-1.546c0-0.104-0.274-0.79-0.515-1.443c-0.241-0.653-0.482-0.481-0.482-0.997
			c0-0.515-0.205-0.687-0.205-1.478c0-0.79-0.172-1.443-0.069-1.855c0.104-0.412,0.189-0.739-0.103-1.031
			c-0.293-0.292-0.825-1.1-0.791-1.546c0.035-0.447,0.516-0.791,0.207-1.375c-0.31-0.584-0.773-1.323-1.1-1.649
			c-0.327-0.326-0.035-0.206-0.481-0.859C72.965,23,72.966,23,72.656,22.691c-0.31-0.309-0.447-0.824-0.894-1.408
			c-0.446-0.584-0.962-0.825-0.722-1.237s0.79-0.55,0.24-0.756c-0.55-0.206-0.688-0.652-0.688-0.928c0-0.274,0.43-0.051,0-0.48
			c-0.429-0.43-0.755-1.34-1.546-1.89c-0.79-0.55-0.31-0.79-1.442-1.718c-1.135-0.928-1.1-1.581-1.478-2.062
			c-0.378-0.481-0.31-0.928-0.688-1.306s-0.688-0.894-0.928-1.306s-0.275-1.133-0.55-1.752c-0.275-0.619,0.31-0.653-0.378-1.34
			c-0.688-0.687-0.825-1.134-1.03-1.752c-0.207-0.618-0.207-0.618-0.688-1.546c-0.481-0.928-0.447-0.619-0.585-1.237
			c-0.137-0.619-0.618-0.825-0.618-1.237C60.664,0.322,60.677-0.076,60.183,0.013z"/>
	</g>
</g>
<g id="Layer_1">
</g>
</svg>
