<?xml version="1.0" encoding="iso-8859-1"?>
<!-- Generator: Adobe Illustrator 16.0.3, SVG Export Plug-In . SVG Version: 6.00 Build 0)  -->
<!DOCTYPE svg PUBLIC "-//W3C//DTD SVG 1.1//EN" "http://www.w3.org/Graphics/SVG/1.1/DTD/svg11.dtd">
<svg version="1.1" xmlns="http://www.w3.org/2000/svg" xmlns:xlink="http://www.w3.org/1999/xlink" x="0px" y="0px" width="100px"
	 height="100px" viewBox="0 0 100 100" style="enable-background:new 0 0 100 100;" xml:space="preserve">
<g id="KW">
	<g>
		<path style="fill:#010101;" d="M0.19,62.759c0,0,47.082,5.517,47.853,6.286c0.77,0.77,0.834,2.502,1.924,3.592
			c1.091,1.091,0.898,1.797,1.411,2.951c0.514,1.155,1.797,1.668,1.797,3.079s0.256,2.31,1.025,3.079
			c0.771,0.77,0.257,1.925,0.257,3.592c0,1.668,0.898,2.822,1.154,3.721c0.257,0.898-0.32,1.476,0.771,2.565
			c1.09,1.091,1.925,1.154,2.565,2.181c0.642,1.027,1.796,1.284,1.796,1.925c0,0.642,0,1.283,1.026,1.283S100,96.756,100,96.756
			s-0.04-0.616-0.897-1.63c-0.858-1.014-0.976-0.936-1.209-1.911c-0.234-0.975-0.195-1.17-0.117-1.599s0.078-1.677-0.39-0.936
			c-0.469,0.74-0.586,1.325-1.054,0.701s-1.442-1.833-0.507-1.677c0.937,0.156,1.443,0.391,1.443-0.156
			c0-0.546-0.351-0.546-0.585-0.78c-0.234-0.233-0.391-0.818,0.078-0.818c0.468,0,0.936-0.039,0.779-0.585
			c-0.155-0.546-0.78-0.156-0.272-1.014c0.507-0.858,1.092-2.185,0.429-2.185s-0.858,0.546-1.755,0s-1.248-1.287-2.379-2.146
			c-1.131-0.857-1.561-1.521-1.561-2.573s0.234-0.78,0.312-1.911s1.092-1.716-0.272-2.028c-1.365-0.312-2.652,0.156-3.394-1.56
			s-1.092-1.755-1.911-2.886c-0.818-1.131-0.975-0.819-1.209-1.95c-0.233-1.131-0.546-0.937-0.779-1.794
			c-0.234-0.858-0.273-1.248-0.391-1.95c-0.116-0.702-0.351,0.351-0.701-1.872c-0.352-2.223-0.702-0.857-0.702-1.949
			c0-1.093,0.312-1.365-0.078-2.028c-0.39-0.663-0.078-0.507-0.351-1.794c-0.273-1.287-0.391-1.56-0.391-1.56
			s0.586,1.286-0.155-0.234c-0.741-1.521-1.248-2.613-1.326-3.159s-0.312-1.6,0.156-2.262c0.468-0.663,0.116-1.482,0.39-1.989
			s1.268-0.253,0.585-0.936S80.5,47,80.267,47.235c-0.234,0.233-0.352,0.156-0.937,0.39s-0.761,0.877-1.326,0.312
			s-0.624-0.546-0.936-1.17c-0.312-0.624-1.248-2.223-1.6-1.872c-0.351,0.351-1.169,0.975-1.677,1.482
			c-0.507,0.507-0.546,0.936-0.897,0.585c-0.351-0.351-1.014-1.092-1.169-0.429c-0.156,0.663,0.663,0.546-0.117,1.17
			s-1.443,0.975-1.989,1.365c-0.546,0.39-1.054,0.585-1.638,0.234c-0.585-0.351-1.443-0.39-1.365-1.092s-0.272-0.975,0.195-1.443
			c0.468-0.468,0.975-1.794,0.077-1.482c-0.896,0.312-1.247,0.702-2.066,0.858c-0.819,0.156-0.858-0.234-1.911-0.078
			c-1.053,0.156-3.12,0.702-2.691-0.273c0.43-0.975,1.287-0.897,2.535-1.755s1.17-1.17,1.833-1.833s0.741-1.443,1.521-2.457
			c0.78-1.014,1.988-2.457,2.69-2.886c0.702-0.429,1.132,0.078,2.106-1.014c0.976-1.092,2.145-3.159,2.574-3.783
			c0.429-0.624,2.184-1.638,3.003-1.365c0.818,0.273,1.521,0.702,1.403,1.092c-0.116,0.39-1.794,0.234-0.351,0.663
			c1.443,0.429,1.56,0.312,2.262,0.312s1.521-0.156,1.6,0.819s0.272,1.092,1.365,1.599c1.092,0.507,2.027,1.131,2.457,0.546
			c0.429-0.585,0.585-1.053,0.078-2.418c-0.508-1.365-1.717-3.354-2.185-4.29s-1.443-2.496-1.638-3.12
			c-0.195-0.624-0.156-1.911-0.585-1.716c-0.43,0.195-1.521,1.833-1.833,0.351c-0.312-1.482-1.404-3.081-2.105-4.29
			c-0.702-1.209-1.21-3.745-1.443-4.563c-0.234-0.819-0.507-3.627-0.39-4.251c0.116-0.624,0.155-2.34,0.155-2.34
			s0.445-1.033-2.552-1.987s-5.927-2.793-8.651-3.27c-2.725-0.477-20.437-1.294-21.526-0.545c-1.09,0.75-2.112,0.817-3.338,1.703
			c-1.227,0.886-2.248,1.226-3.883,1.362c-1.635,0.136-4.019,1.227-4.7,3.134s-1.839,3.27-2.18,6.268
			c-0.34,2.997-2.997,5.518-3.474,7.561c-0.477,2.044-3.883,10.287-5.041,12.126c-1.158,1.839-3.678,5.109-5.109,7.152
			c-1.431,2.044-4.973,7.289-5.995,9.333c-1.022,2.044-5.246,7.357-6.812,8.72C0.446,62.012-0.403,62.689,0.19,62.759z"/>
		<path style="fill:#010101;" d="M81.969,9.279c1.295-0.454,1.942-1.231,2.785-0.583c0.842,0.647,1.684,0.712,2.331,1.36
			s1.749,1.23,2.202,2.073c0.453,0.842,1.425,0.777,2.072,2.137c0.647,1.36,0.777,1.166,1.619,3.109s1.102,2.396,1.749,2.396
			s1.229,0.064,1.229,1.295c0,1.23,0.648,2.591-0.259,3.951c-0.906,1.36-1.684,3.043-2.914,4.598
			c-1.23,1.555-2.202,2.332-2.914,2.85c-0.713,0.518-1.296,0.389-2.526,0.259c-1.23-0.129-1.425,0.454-1.748-1.036
			c-0.324-1.49-0.13-1.49-1.295-3.627c-1.166-2.137-1.879-3.432-1.879-3.886c0-0.453,0.519-0.647-0.129-0.971
			c-0.648-0.324-0.777-0.777-0.777-0.971c0-0.195,0.259-0.324-0.26-0.324c-0.518,0-1.748,0-1.748-0.777
			c0-0.777-0.13-1.101,0.323-1.555c0.454-0.453-0.194-1.101,0.583-1.101s3.498-0.065,2.396-0.259
			c-1.101-0.194-2.784-0.259-2.072-0.647c0.712-0.389,1.23-0.324,1.878-0.13s1.749,0.259,1.36-0.324s-0.972-0.777-1.23-0.712
			s-0.647-0.324,0.064-0.324c0.713,0,1.166-0.129,1.36,0.324c0.194,0.454,0.777,1.813,1.036,1.36c0.259-0.453,0-1.036,0-1.036
			s-0.713-0.713-0.064-0.907c0.647-0.194,0.842-0.388,0.842-0.842c0-0.453,0.712-0.583,0.712-1.23c0-0.647-0.323-2.332-0.906-1.619
			c-0.583,0.712,0.259,1.23-0.26,1.619c-0.518,0.389-0.647,0.777-1.165,0.389c-0.519-0.389-0.842-0.906-0.713-1.425
			c0.13-0.518,0.713-1.101-0.194-1.49c-0.906-0.389-0.971-0.194-1.295-0.971s-0.939,0.032-0.13,0.842s1.036,1.037,0.519,1.749
			c-0.519,0.712-0.647,1.36-1.555,1.037c-0.906-0.324-0.712-0.13-1.166-0.389c-0.452-0.259-0.582-0.324-1.229-0.583
			c-0.647-0.259-2.396-0.842-1.23-1.166c1.165-0.324,1.878-0.583,1.942-0.842c0.065-0.259,0.583-1.166,0.323-1.166
			c-0.258,0-0.582-0.064-1.035,0.389c-0.454,0.453-0.519,0.518-1.036,0.518c-0.519,0-1.36,0.453-0.907-0.324
			c0.453-0.777,0.259-0.842,1.101-1.49c0.843-0.647,0.195-1.619,1.49-1.619s2.007-0.129,2.914-0.129
			c0.906,0,1.878,0.454,1.489,0.647c-0.389,0.194-0.842-0.129-1.813,0.194c-0.971,0.324-1.684,0.583-1.684,1.101
			s0.001,0.777,0.453,0.777c0.454,0,0.681-0.032,0.842-0.194C81.612,9.441,81.58,9.538,81.969,9.279z"/>
		<path style="fill:#010101;" d="M76.529,13.748c0,1.295,0.776,1.749,0.971,2.267s-0.194,1.295,0,1.684s-0.064,0.842,0.259,1.489
			c0.324,0.648,1.036,1.037,1.166,0.454s0.259-0.907,0.259-1.425s-1.359-0.777-0.259-1.166c1.102-0.389,1.36,0,1.555-0.519
			c0.194-0.518,0.324-1.036-0.453-1.036s-1.425,0.13-1.685,0c-0.259-0.129-1.295-1.489-1.359-1.749
			C76.917,13.489,76.418,12.965,76.529,13.748z"/>
	</g>
</g>
<g id="Layer_1">
</g>
</svg>
