<?xml version="1.0" encoding="iso-8859-1"?>
<!-- Generator: Adobe Illustrator 16.0.3, SVG Export Plug-In . SVG Version: 6.00 Build 0)  -->
<!DOCTYPE svg PUBLIC "-//W3C//DTD SVG 1.1//EN" "http://www.w3.org/Graphics/SVG/1.1/DTD/svg11.dtd">
<svg version="1.1" xmlns="http://www.w3.org/2000/svg" xmlns:xlink="http://www.w3.org/1999/xlink" x="0px" y="0px" width="100px"
	 height="100px" viewBox="0 0 100 100" style="enable-background:new 0 0 100 100;" xml:space="preserve">
<g id="KZ">
	<g>
		<path style="fill-rule:evenodd;clip-rule:evenodd;fill:#010101;" d="M54.506,22.2c0.048,0.048,0.097,0.097,0.146,0.145
			C54.603,22.297,54.554,22.249,54.506,22.2z"/>
		<path style="fill-rule:evenodd;clip-rule:evenodd;fill:#010101;" d="M62.791,26.627c0.945,0.07,0.725,0.496,1.89,0.508
			c0.23-0.399,0.511-0.399,0.581-0.581c0.288,0.286,0.049,0.681,0.072,0.871c-0.218,0.024-0.436,0.048-0.653,0.072
			c-0.049,0.412-0.098,0.823-0.146,1.234c0.311,0.046,0.211,0.196,0.509,0.291c0-0.048,0-0.097,0-0.145
			c0.048,0.024,0.097,0.048,0.146,0.072c-0.011-0.175,0.135-0.544,0.363-0.726c0.314,0,0.629,0,0.944,0c0,0.097,0,0.193,0,0.29
			c0.194,0,0.388,0,0.582,0c-0.031-0.794,0.267-0.67,0.581-1.306c0.767,0.042,2.925-1.844,3.925-2.686
			c0.678,0.575,0.372,0.463,0.218,1.089c-0.32-0.005-0.367,0.069-0.582,0.363c0.273,0.113,0.381,0.584,0.654,0.799
			c0.536,0.42,1.668,0.582,2.107,1.016c0.121,0.024,0.242,0.048,0.363,0.073c0.654,0.822,1.309,1.645,1.963,2.468
			c-0.082,0.097,0.396,0.138,0.218,0.363c0.993,1.186,1.986,2.372,2.979,3.557c0.613,0.828,1.379,2.267,2.181,2.758
			c0.079-0.567,0.406-0.662,0.218-1.742c0.193-0.048,0.388-0.097,0.581-0.145c-0.048-0.169-0.097-0.339-0.146-0.508
			c0.811-0.009,0.611-0.029,1.018,0.291c0.097-0.073,0.194-0.145,0.291-0.218c-0.056,0.392-0.143,0.818,0.072,1.089
			c0.242-0.073,0.484-0.145,0.727-0.218c0.142,0.22,0.024,0.076,0.219,0.145c0.024,0.193,0.048,0.387,0.072,0.581
			c1.856-0.508,2.652-0.115,3.562-1.669c2.495-0.13,2.304,0.667,3.343,1.96c0.176,0.219,1.406-0.073,1.744,0.363
			c0.265,0.18,1.016,1.606,1.308,1.524c0.362,0.292,0.562-0.357,0.872-0.218c0.973,0.083,1.949-0.084,1.817-0.871
			c-0.04-0.24,0.102-0.503,0.291-0.436c0.121-0.048,0.242-0.097,0.363-0.145c0.042,0.504-0.013,0.607-0.146,0.871
			c0.774,0.232,1.233,1.005,2.107,1.307c0,0.024,0,0.048,0,0.072c-0.048,0-0.097,0-0.146,0c-0.471,0.2-0.914,0.022-1.017,0.581
			c-0.222,0.284,0.86,1.541-0.728,2.613c-0.122,0.083-0.197,0.297-0.363,0.145c-0.171,0.13-0.589,0.376-0.872,0.291
			c0,0.75,0,1.5,0,2.25c0.162,0.211,1.134,2.279,0.872,2.758c-0.115,0.21-0.794,0.275-1.09,0.508
			c-0.416,0.327-0.047,0.792-0.727,0.798c-0.027-0.182-0.017-0.151-0.146-0.363c-0.541,0.155-1.881,0.867-3.125,0.435
			c-0.403-0.14-0.667-0.611-1.381-0.435c0.562,1.859-0.44,4.539-0.581,6.678c0.097,0.097,0.193,0.193,0.29,0.29
			c0.264-0.091,0.395-0.073,0.582,0.073c-0.008,0.096,0.136,0.927-0.073,0.726c0,0-1.86,0.543-1.599,0.29
			c-0.159-0.047-0.186-0.335-0.363-0.29c-0.212-0.229-4.215,2.071-4.724,2.178c0,0.145,0,0.29,0,0.436
			c0.048,0.048,0.097,0.097,0.146,0.145c0.768-0.147,0.964-0.007,1.671,0c-0.024,0.049-0.049,0.097-0.073,0.146
			c-0.097,0.097-0.193,0.193-0.29,0.29c0.056,0.195,0.378,1.391,0.072,1.814c0.509,0.75,1.018,1.501,1.526,2.251
			c0,0.29,0,0.58,0,0.87c0.31,0.027,0.382-0.118,0.437,0.363c-0.049,0.048-0.098,0.097-0.146,0.146
			c-0.267,0.097-0.533,0.193-0.8,0.29c0.024,0.072,0.049,0.146,0.073,0.218c0.057,0.326,0.217,0.274,0.436,0.581
			c-0.282,0.027-0.582,0.058-0.727,0.29c-0.229,0.21-0.22,0.427-0.291,0.653c0.292,0.075,0.622,1.128,0.654,1.742
			c-0.072,0-0.146,0-0.218,0c-0.201-0.378-0.446-0.256-0.728-0.727c-1.479,0.492-1.94-0.491-2.252-1.016
			c-0.816,0.199-1.294-0.386-2.254-0.218c-2.076,0.363-4.348,0.303-5.668,0.798c-0.63,0-1.26,0-1.89,0
			c0.048,0.256,0.102,0.254-0.072,0.436c-0.785,0.459-2.394-0.312-2.907-0.436c-0.094-0.294-0.197-0.192-0.146-0.508
			c-1.227,0.14-1.382-0.023-2.398,0.653c-0.072-0.024-0.146-0.049-0.218-0.072c-0.163,1.102-0.469,1.702-0.072,2.54
			c-0.073,0-0.146,0-0.219,0c-0.252-0.493-5.527-1.692-6.177-0.653c-0.483,0.283-0.816,1.136-0.872,1.742
			c-0.573,0.239-0.36,0.398-0.8,0.726c-0.341-0.137-3.545,2.486-4.288,2.613c0.098,0.265,0.11,0.548-0.072,0.726
			c-0.037,0.39-0.952,0.607-1.018,0.944c-0.024,0.483-0.049,0.968-0.072,1.451c-0.073,0-0.146,0-0.218,0
			c-0.461-0.314-0.921-0.629-1.381-0.943c0.183-0.283,0.084-0.589,0.145-1.017c-0.342,0.02-0.262-0.181-0.727-0.436
			c-0.024,0.039-2.071,0.633-2.762,0.218c-0.153-0.443-0.977-2.145-0.799-3.121c-0.231,0.014-1.18,0.119-1.454-0.145
			c-0.411-1.004,0.208-2.167,0.219-3.63c-0.534,0.347-0.503,0.164-0.945,0.363c-0.006-0.248-1.518-2.824-1.962-2.831
			c-0.122-0.121-0.243-0.242-0.364-0.362c-0.695-0.039-0.615,0.527-1.09,0.726c-0.374,0.156-2.658-0.393-2.979-0.508
			c-0.582,0.048-1.163,0.097-1.745,0.145c-0.667-0.13-1.704,0.538-2.035,0.146c-0.821-0.198-1.003-1.703-1.526-2.105
			c-0.013,0-0.31-0.118-0.146-0.29c-0.521-0.621-1.586-1.129-2.253-1.96c0.097-0.048,0.194-0.097,0.291-0.145
			c-0.2-0.635-0.572-1.919-0.509-1.96c0.111-0.547,0.078-1.017-0.073-1.814c-0.627,0.178-1.045-0.038-1.308-0.363
			c0-0.024,0-0.048,0-0.072c0.436,0.024,0.873,0.048,1.308,0.072c0.024-0.024,0.049-0.048,0.073-0.072
			c-0.259-0.553-0.127-0.692-0.218-1.379c-0.388,0-0.775,0-1.163,0c-0.048-0.339-0.097-0.678-0.145-1.017
			c-0.169-0.024-0.339-0.049-0.509-0.073c0,0.073,0,0.146,0,0.219c0.636,0.091,0.238,1.777-0.218,2.032
			c-0.266-0.024-0.533-0.049-0.799-0.073c0.045-0.389,0.086-0.409,0.291-0.871c-0.533,0.024-1.066,0.049-1.599,0.073
			c-0.035,0.291-0.466,1.673-0.799,1.524c-0.812,0.386-5.675,1.304-6.468,1.233c0.149,0.963-0.204,2.003-0.363,2.903
			c-0.512,2.9-0.625,5.135-0.945,7.477c-0.122,0.89,0.119,2.681-0.436,3.339c-0.409,0.204-1.474,0.064-1.381-0.072
			c-0.279-0.05-1.827-3.321-3.052-4.283c-0.945,0.024-1.89,0.049-2.834,0.073c-0.269-0.242-0.729,0.42-1.017,0.508
			c-0.147-0.174-1.2,0.673-1.235,0.726c-0.049-0.097-0.097-0.193-0.146-0.29c0.048,0,0.097,0,0.146,0
			c-0.024-0.048-0.049-0.097-0.073-0.146c0.024-0.387,0.048-0.774,0.073-1.161c0.63-0.111,0.835-1.094,1.163-1.452
			c0.024-0.145,0.048-0.29,0.073-0.435c-0.347-0.482-0.531-0.72-1.163-0.509c-0.072-0.169-0.145-0.339-0.218-0.508
			c-0.533,0.172-0.643,0.217-0.945-0.29c-0.046-0.649-0.206-1.069-1.235-1.017c-0.024-0.146-0.049-0.29-0.073-0.436
			c0.691-0.505-0.553-3.001-0.363-3.557c0.043-0.127,0.01-0.423-0.146-0.29c-0.239-0.771-1.317-0.102-1.381-1.307
			c0.232-0.421,0.329-0.562,0.872-0.508c0.228,0.463,0.698,0.1,0.945,0.218c0.396,0.189,0.203,0.401,0.509,0.798
			c0.048-0.024,0.097-0.048,0.146-0.072c0.349,0.018,0.286-0.049,0.581-0.218c-0.325-0.666-0.39-0.821-0.727-1.452
			c0.214-0.428,0.618-0.343,0.945-0.362c0.021-0.557,0.257-0.878,0.654-1.017c0.02,0.101-0.028,0.055,0.073,0.072
			c0.009,0.008,3.986,0.404,4.36,0.944c0.024-0.049,0.049-0.097,0.073-0.146c0.238-0.109,0.058,0.062,0.218-0.146
			c-0.197-0.012-1.1-0.345-1.236-1.161c1.076-0.467,1.185-1.419,1.526-2.178c-0.073-0.024-0.146-0.048-0.218-0.072
			c-0.157,0.255-0.01,0.177-0.291,0.072c0.048,0,0.097,0,0.146,0c0.235-0.222,0.278-0.082,0.363-0.508
			c-0.109-0.113-0.078-0.317-0.146-0.581c0.194-0.097,0.388-0.193,0.582-0.29c-0.194-0.436-0.388-0.871-0.582-1.307
			c-0.6,0.016-0.84-0.116-0.945-0.363c-0.363,0.194-0.727,0.387-1.09,0.581c-0.116-0.283-0.305-0.365-0.509-0.508
			c0.024,0.048,0.048,0.097,0.073,0.145c-0.338-0.147-0.38-0.589-0.582-0.726c-0.627-0.428-1.193-0.287-2.253-0.363
			c0,0-2.42,1.099-2.834,1.234c-0.842,0.275-0.714-0.551-1.817,0.363c-0.527-0.259-0.918-0.775-1.454-1.162
			c0.048-0.048,0.097-0.097,0.146-0.145c0.121-0.121,0.242-0.242,0.363-0.363c0.167,0.282,0.538,0.39,0.872,0.218
			c0-2.152-0.591-3.056-1.454-4.5c-0.528,0.145-1.15-0.204-1.308-0.581c-0.169,0.097-0.339,0.194-0.509,0.291
			c-0.146-0.16-0.572-0.856-0.291-1.162c0.184-0.04,0.174-0.089,0.363-0.291c-0.171-0.298-0.015-0.584-0.146-0.798
			C0.763,41.939,0.179,42.205,0,41.653c0.296-0.126,0.94-1.13,0.945-1.597c0.554,0.002,0.757-0.182,1.09-0.436
			c-0.14-0.532-0.313-0.694-0.436-1.088c0.358-0.25,0.583-1.145,0.727-1.814c0.785-0.153,1.044-0.136,1.308-0.872
			c-0.087-0.523,0.812-0.874,0.945-0.798c0.262,0.057,1.13,1.942,1.09,2.686c0.476-0.127,1.129-0.118,1.308-0.363
			c0-0.822,0-1.646,0-2.468c0.024,0.048,0.049,0.097,0.073,0.145c0.622-0.094,0.929-0.077,1.962-0.508
			c0.01-0.523,0.201-0.619,0.582-0.871c0.751,0.347,1.146-0.175,2.253-0.363c0.183-0.788,0.597-0.769,1.09-1.234
			c0.048,0.024,0.097,0.048,0.146,0.072c0,0.073,0,0.146,0,0.218c0.355-0.103,0.803,0.027,0.872,0.218
			c0.009,0.228-0.012,0.212-0.146,0.436c0.339,0.121,0.678,0.242,1.018,0.363c0.121-0.193,0.242-0.387,0.363-0.581
			c0.681,0.126,0.725-0.084,1.308-0.145c-0.013,0.448,0.002,0.759,0.146,0.871c0.216,0.659,1.276,0.205,2.035,0.581
			c0.254,0.125,0.774,0.921,0.509,1.161c0.291,0.121,0.582,0.242,0.872,0.363c0.464,0.364,0.295,0.94,0.727,1.306
			c0.024,0.048,0.049,0.097,0.073,0.146c0,0.048,0,0.097,0,0.145c-0.262,0.144-0.118,0.545-0.145,0.798
			c0.048-0.024,0.097-0.048,0.145-0.073c0.155-0.028,0.255-0.116,0.436-0.145c-0.125-0.452-0.049-0.689-0.291-1.088
			c0.121-0.073,0.242-0.146,0.363-0.218c0.718,0.003,0.55,0.578,0.945,1.089c0.022,0.029,0.377,0.157,0.146,0.218
			c0.553,0.416,0.986,0.563,1.381,0.798c0.024-0.046,1.125-1.097,1.235-1.089c0.72-0.341,0.794-0.539,2.326-0.508
			c-0.008,0.736-0.001,0.599,0.218,1.016c0.024-0.024,0.049-0.048,0.073-0.073c0.354,0.055,0.681-0.083,0.799-0.218
			c0.169-0.169,0.339-0.338,0.509-0.508c0.249,0.385,0.85,0.032,1.163,0c0.043,0.295,0.093,0.379,0.437,0.436
			c-0.012,0.379-0.04,0.621,0.072,0.726c0.158,0.671,1.267,0.984,1.962,0.944c-0.065,0.246-0.062,0.096-0.073,0.29
			c-0.021,0.337-0.073,0.341,0.291,0.291c0.558-0.106,0.854-0.529,0.872-1.016c0.433,0.01,2.796,1.169,3.343,0.218
			c0.288-0.31,0.655-1.594,0.654-1.597c0-0.193,0-0.387,0-0.581c-1.186-0.396-3.253-1.535-3.489-2.468
			c1.084,0.012,2.101-0.538,2.544-1.234c-0.24-0.438-0.642-0.743-0.654-1.379c0.219-0.08,0.813-0.319,0.654-0.798
			c0.935-0.019,1.706-0.175,2.688,0.073c-0.069-0.252-0.045-0.488-0.145-0.581c-0.718-0.333-2.026-0.38-1.817-0.871
			c-0.173-0.179-0.125-0.182-0.073-0.436c0.315,0,0.63,0,0.945,0c-0.108-0.364,0.053-0.406-0.363-0.363
			c-0.54-0.008-0.82-0.242-1.235-0.291c0.145-0.073,0.291-0.145,0.436-0.218c0.334-0.225,0.301-0.896,0.291-1.234
			c0.535,0.002,1.231,0.179,1.744,0.436c0.017,0.008,0.921-0.332,1.163-0.363c0,0.169,0,0.338,0,0.508
			c0.372-0.147,0.242-0.339,0.437-0.581c0.931,0.109,1.618-0.489,2.398-0.581c0.15,0.328,0.397,0.402,0.582,0.508
			c-0.1-0.376,0.047-0.651,0.218-0.798c0.018,0.017,2.253,0,2.253,0c0.166,0.077-0.013,0.071,0.218,0.073
			c-0.036-0.464-0.059-0.798,0.291-0.726c0.145-0.145,0.29-0.29,0.436-0.436c0.218,0.048,0.437,0.097,0.654,0.146
			c0.021-0.205-0.039-0.054,0.146-0.146c0.048-0.024,0.097-0.048,0.146-0.072c0.028,0.276-0.082,0.09,0.072,0.29
			c0.998-0.344,4.698-1.145,5.015-1.887c-0.073-0.048-0.146-0.097-0.219-0.145c0.772-0.484,1.155-0.437,1.672-1.089
			c0.306,0.13,1.321,0.086,1.599,0.291c0.194,0.218,0.388,0.436,0.582,0.653c0.247-0.07,0.411-0.037,0.509-0.146
			c0.284-0.074,0.112-0.213,0.363-0.436c0.553-0.005,0.541-0.053,0.653,0.146c0.483,0.077,0.711,1.862,1.236,1.959
			c-0.07,0.725-0.038,0.667,0.072,1.234c-0.169,0.024-0.339,0.049-0.509,0.073c0.114,0.265,0.227,0.829,0.509,0.944
			c0.036-0.182,0.092-0.244,0.291-0.436c0.146,0.145,0.29,0.29,0.436,0.436c0.297-0.221,0.581-0.395,0.509-0.653
			c0.401,0.003,0.437-0.051,0.728,0.072c-0.049-0.242-0.098-0.484-0.146-0.726c0.142,0.178,0.041,0.029,0.072,0.218
			c0.218,0.145,0.436,0.29,0.654,0.436c-0.083,0.361,0.06,0.898,0.218,1.161c0.097-0.024,0.193-0.048,0.291-0.072
			C62.791,27.16,62.791,26.894,62.791,26.627z"/>
		<path style="fill-rule:evenodd;clip-rule:evenodd;fill:#010101;" d="M37.209,27.571c0.024,0.048,0.048,0.097,0.072,0.145
			C37.258,27.668,37.233,27.62,37.209,27.571z"/>
		<path style="fill-rule:evenodd;clip-rule:evenodd;fill:#010101;" d="M12.791,31.999c0.049,0,0.097,0,0.146,0
			C12.888,31.999,12.839,31.999,12.791,31.999z"/>
		<path style="fill-rule:evenodd;clip-rule:evenodd;fill:#010101;" d="M5.087,50.726c-0.031,0.067,0.058,0.049-0.073,0.146
			C5.039,50.823,5.063,50.774,5.087,50.726z"/>
		<path style="fill-rule:evenodd;clip-rule:evenodd;fill:#010101;" d="M5.814,56.388c0.048,0,0.097,0,0.146,0
			C5.911,56.388,5.862,56.388,5.814,56.388z"/>
		<path style="fill-rule:evenodd;clip-rule:evenodd;fill:#010101;" d="M5.741,56.532c0.048,0,0.097,0,0.146,0
			C5.838,56.532,5.79,56.532,5.741,56.532z"/>
		<path style="fill-rule:evenodd;clip-rule:evenodd;fill:#010101;" d="M6.541,56.532c0.024,0.212-0.067,0.381-0.218,0.509
			c0-0.146,0-0.291,0-0.436C6.512,56.574,6.362,56.676,6.541,56.532z"/>
		<path style="fill-rule:evenodd;clip-rule:evenodd;fill:#010101;" d="M5.596,56.605c0.049,0,0.097,0,0.146,0
			C5.693,56.605,5.645,56.605,5.596,56.605z"/>
		<path style="fill-rule:evenodd;clip-rule:evenodd;fill:#010101;" d="M5.523,56.75c0.148,0.131,0.051,0.002,0.145,0.219
			c-0.048,0-0.097,0-0.145,0C5.523,56.896,5.523,56.823,5.523,56.75z"/>
		<path style="fill-rule:evenodd;clip-rule:evenodd;fill:#010101;" d="M5.668,57.113c0.048,0,0.097,0,0.146,0
			C5.766,57.113,5.717,57.113,5.668,57.113z"/>
		<path style="fill-rule:evenodd;clip-rule:evenodd;fill:#010101;" d="M29.07,57.549c0.287,0.212,0.24,0.181,0.799,0.146
			c0.105,0.529,0.738,1.125,0.291,1.741c-0.551-0.365-0.877-0.779-1.453-1.233C28.92,57.897,28.973,57.86,29.07,57.549z"/>
		<path style="fill-rule:evenodd;clip-rule:evenodd;fill:#010101;" d="M30.16,59.436c0.024,0.049,0.049,0.098,0.073,0.146
			C30.208,59.533,30.184,59.484,30.16,59.436z"/>
	</g>
</g>
<g id="Layer_1">
</g>
</svg>
