<?xml version="1.0" encoding="iso-8859-1"?>
<!-- Generator: Adobe Illustrator 16.0.3, SVG Export Plug-In . SVG Version: 6.00 Build 0)  -->
<!DOCTYPE svg PUBLIC "-//W3C//DTD SVG 1.1//EN" "http://www.w3.org/Graphics/SVG/1.1/DTD/svg11.dtd">
<svg version="1.1" xmlns="http://www.w3.org/2000/svg" xmlns:xlink="http://www.w3.org/1999/xlink" x="0px" y="0px" width="100px"
	 height="100px" viewBox="0 0 100 100" style="enable-background:new 0 0 100 100;" xml:space="preserve">
<g id="LB">
	<g>
		<path style="fill-rule:evenodd;clip-rule:evenodd;fill:#010101;" d="M73.295,0c0.169,0,0.34,0,0.509,0
			c1.836,1.917,2.127,2.748,4.171,4.27c1.451-0.132,1.501-0.423,2.645-0.508c0,0.136,0,0.271,0,0.407
			c-0.382,0.906-0.263,1.802-0.916,2.338c0-0.068,0-0.135,0-0.203c-0.248-0.018-1.142-1.171-1.525-1.423
			c-0.104,0.608-1.384,2.757-0.508,3.253c-0.248,0.922-3.171,2.059-3.46,2.135c0.105,1.062,0.412,1.082,0.814,1.931
			c0.204,0,0.407,0,0.61,0c0.103-0.203,0.204-0.406,0.305-0.61c1.177,0.154,0.595,0.594,2.035,0.61
			c0.067-0.203,0.136-0.406,0.203-0.61c0.576,0,1.152,0,1.729,0c0.198,1.742,0.886,3.286,3.154,3.558
			c0.075,1.397,2.42,1.507,2.135,2.135c0.055,0.335,0.144,0.172-0.102,0.406c0,0.102,0,0.204,0,0.305
			c-0.101,0.068-0.203,0.136-0.305,0.203c-0.204,0.203-0.406,0.407-0.61,0.61c0,0.407,0,0.813,0,1.22
			c0.567,0.439,0.937,4.091,2.746,3.659c0.295-0.07,0.562,0.384,0.51,0.508c0.265,0.098,0.122-0.041,0.202,0.407
			c-0.14,0.012-0.765,0.513-0.712,0.711c-0.452,0.905,0.132,3.324,0.51,3.456c0.049,0.368,1.276,1.174,1.627,1.017
			c-0.099,0.24-0.004,0.352-0.102,0.508c-0.762,1.22-2.38,0.971-2.849,3.558c-0.034,0.102-0.068,0.204-0.102,0.305
			c-0.034,0-0.068,0-0.102,0c-0.109,0.455-1.587,0.724-2.238,1.627c-0.613,0.85-0.588,2.232-1.221,3.354
			c-0.443,0.024-0.976,0.246-1.221,0.813c-0.691-0.092-2.388-0.646-2.543-0.406c-0.373,0.135-0.746,0.271-1.119,0.406
			c0.209,1.729-1.722,1.516-1.933,3.151c-1.477,0.021-3.335,3.411-3.968,4.371c0,0.067-0.151,0.821,0.102,0.915
			c0.653,2.072,3.506,2.063,4.883,3.457c0.102,0.102-0.037,0.137,0.103,0.102c-0.097,0.49-0.424,1.718-0.915,1.626
			c-0.081,0.109-4.149-0.807-4.272-0.914c-0.224-0.125-0.314-0.467-0.51-0.407c-0.236-0.249-1.108-0.405-1.424-0.406
			c-2.07,2.233-2.874,0.941-4.374,0c-0.096,0.159-4.086,2.222-4.883,2.135c-0.371,0.803-0.853,2.463-1.729,2.846
			c-0.339,0.067-0.678,0.137-1.018,0.203c-0.034,0.068-0.067,0.136-0.101,0.203c0,0.136,0,0.271,0,0.407
			c-0.366,0.781-1.672,1.911-2.137,2.846c0.033,0.475,0.067,0.949,0.102,1.423c-0.082,0.234-0.985,1.946-1.729,2.135
			c0.067,0.306,0.136,0.61,0.203,0.916c1.18-0.371,5.037,1.93,5.799,2.438c0.106,0.765,0.553,2.197-0.406,2.338
			c-0.133,0.582-3.976,1.854-5.188,1.729c1.52,4.98-3.716,5.945-5.798,7.521c-1.153,0.873-0.616,3.201-2.035,4.168
			c-0.76,0.518-2.531,0.151-3.662,0.508c0.008,0.825-2.83,3.978-4.374,3.151c-0.319,0.385-0.483,1.288-0.509,1.626
			c-0.102-0.067-0.204-0.136-0.305-0.202c-0.955-0.48-0.953-1.27-2.035-1.831c0.12,0.804-0.731,1.898-1.424,2.745
			c0.108,1.645-0.536,2.954-0.509,3.762c0.032,0.936-0.433,3.109-0.916,3.252c-0.028,0.192-0.598,0.313-0.916,0.306
			c0.062,0.574-0.159,1.156-0.305,1.524c-0.678-0.034-1.356-0.067-2.035-0.102c-0.407,0.475-0.813,0.949-1.221,1.423
			c-0.537,0.308-3.259,0.897-3.56,0.61c-1.027-0.211-1.594-2.04-2.136-2.745c-1.017-0.067-2.035-0.135-3.052-0.203
			c-0.827,0.537-2.477,1.574-3.662,0.813c-0.808,0.37-4.267,0.371-4.781,0c0.665-1.089,3.618-3.085,3.255-4.371
			c2.195,0.256,1.861-3.938,2.238-5.794c-0.373-0.021-0.813-0.349-1.017-0.915c0.537,0.057,0.545,0.256,1.119,0
			c0.07-1.209,1.002-2.469,1.627-3.151c0.102-1.051,0.204-2.101,0.305-3.151c0.615-1.951,1.027-4.234,2.238-5.185
			c0.17,0.034,0.339,0.068,0.509,0.103c0-0.169,0-0.34,0-0.508c0.816,0.112,0.446-0.409,0.916-0.814
			c0.709-0.611,1.543-1.436,1.729-1.728c0.169-1.085,0.339-2.169,0.509-3.253c0.399-0.402,0.777-0.378,0.916-0.61
			c-0.049-0.566-0.015-1.881,0.712-1.829c-0.15-0.642,0.038-2.512,0.102-2.439c0.047-0.225,0.514-0.364,0.813-0.61
			c-0.274-1.09,0.295-2.094,0.204-2.439c0.501,0.007,0.544,0.08,0.712-0.102c0.664-0.491,0.06-1.583,0.509-2.542
			c0.274-0.583,2.946-4.241,1.526-6.2c0.136,0,0.271,0,0.407,0c-0.067-0.881-0.135-1.762-0.203-2.643
			c-0.436,0.004-0.542-0.379-0.61-0.813c0.761-0.346,2.238-0.508,2.238-0.508c0.169,0.136,0.339,0.271,0.509,0.407
			c0.155-0.324,0.091-0.248,0.61-0.204c0.007-0.386-0.204-0.203,0.203-0.407c0.31,0.607,0.758,0.526,1.221,0.712
			c0.373-0.305,0.746-0.61,1.119-0.915c-0.25-1.078,1.424-4.27,1.424-4.27c0.113-0.213,0.073-0.311,0.305-0.203
			c0.112-0.231,0.533,0.229,1.119-0.102c0.102-0.474,0.204-0.949,0.305-1.423c-0.421-0.079-0.869-0.156-1.119-0.406
			c0.081-1.13,0.555-2.653,1.322-3.761c0.745-1.075-0.583-2.627-0.305-3.558c-0.5,0.01-0.789-0.107-0.916-0.813
			c0.068,0,0.136,0,0.204,0c0.009-0.007,0.1-0.307,0.203-0.406c0.097-0.094-0.023-1.687,0-1.83c0.091-0.553,1.725-2.425,1.119-3.964
			c-0.21-0.535-0.06-2.152,0.407-2.033c0.11-0.333,0.314,0.009,0.204-0.406c0.13-0.09,0.248-0.915,0.407-0.813
			c0.198-0.589,0.358-0.343,1.119-0.61c0.178,0.433,0.365,0.6,0.61,0.407c1.122-0.417,1.051-3.384,1.322-4.168
			c0.036-0.102,0.132,0.04,0.102-0.102c0.888,0.038,4.117-1.384,3.865-1.931c0.733-0.322-0.084-2.589-0.407-2.439
			c0.102-0.398,0.099-0.222,0.102-0.61c0.034,0,0.068,0,0.102,0c0.433,0.285,0.388,0.291,0.916,0.407
			c-0.034-0.169-0.068-0.339-0.102-0.509c0.17,0.17,0.339,0.339,0.509,0.509c0.158-0.253,3.604-1.029,3.765-1.017
			c0.161-1.494,2.653-2.62,3.763-3.253c0,0,0.312-3.038,0.509-3.456c-0.306-1.322-0.61-2.644-0.916-3.965
			c0.238-0.305,0.476-0.61,0.713-0.915c0.15,0.085,1.537,0.379,1.729,0.711c0.136,0.169,0.272,0.339,0.408,0.508
			c1.674-0.086,4.766-0.021,4.883-0.813c0.136,0.068,0.271,0.135,0.406,0.203l2.237,0.508c0.214-0.272,0.837-0.496,1.629-0.508
			c0.068,0.281,0.802,0.425,0.711,0.711c1.665-0.389,3.562,0.479,4.782-1.118C72.892,2.302,73.206,0.167,73.295,0z"/>
	</g>
</g>
<g id="Layer_1">
</g>
</svg>
