<?xml version="1.0" encoding="iso-8859-1"?>
<!-- Generator: Adobe Illustrator 16.0.3, SVG Export Plug-In . SVG Version: 6.00 Build 0)  -->
<!DOCTYPE svg PUBLIC "-//W3C//DTD SVG 1.1//EN" "http://www.w3.org/Graphics/SVG/1.1/DTD/svg11.dtd">
<svg version="1.1" xmlns="http://www.w3.org/2000/svg" xmlns:xlink="http://www.w3.org/1999/xlink" x="0px" y="0px" width="100px"
	 height="100px" viewBox="0 0 100 100" style="enable-background:new 0 0 100 100;" xml:space="preserve">
<g id="LK">
	<g>
		<g>
			<path d="M60.382,28.117c-0.204-0.605-0.363-0.644-0.646-0.644c-0.28,0-0.925,0.161-1.124-0.162
				c-0.205-0.321-0.241-0.524,0.158-0.524c0.404,0,0.727,0.083,0.241-0.763c-0.482-0.845-0.763-1.689-1.207-1.689
				c-0.441,0-0.645,0.039-1.044-0.686c-0.404-0.724-0.967-1.529-1.288-1.529c-0.322,0-0.767,0.402-1.008,0.685
				s-0.926,0.083-0.926-0.283c0-0.361,0.44-0.843,0-1.007c-0.444-0.159-1.247-0.079-0.966-0.803c0.28-0.723,1.129-0.443,1.447,0.081
				c0.322,0.521,0.726,0.764,0.849,0.401c0.117-0.361-0.768-1.086-0.968-1.528c-0.199-0.444-0.239-0.804-0.807-0.925
				c-0.563-0.122-1.57-0.728-1.57-1.089c0-0.36,0.205-0.443,0.485-0.401c0.282,0.042,0.768,0.401,0.404-0.402
				c-0.363-0.808-0.562-1.408-0.562-1.853c0-0.443-0.607-0.845-0.885-0.725c-0.285,0.122-0.163,0.806-0.485,0.806
				s-0.522-0.564-0.766-0.764c-0.241-0.201-0.2-0.686,0.163-0.604c0.363,0.082,0.845,0.241,0.522-0.361
				c-0.323-0.604-0.926-1.009-1.37-1.491c-0.441-0.485-0.482-0.965-0.845-0.684c-0.358,0.283,0.445,1.007-0.04,1.007
				c-0.481,0-0.804-0.686-0.804-1.166c0-0.485-0.322-0.808-0.844-1.169c-0.522-0.363-2.014-1.328-2.98-2.135
				c-0.967-0.803-2.292-1.81-3.136-2.735c-0.848-0.927-1.211-1.556-1.533-2.066c-0.319-0.507-0.722-0.293-1.072-0.83
				c-0.347-0.539-0.452-0.915-0.452-1.37c0-0.457-0.323-0.833-0.833-0.671c-0.514,0.159-0.726,0.401-0.726,0.401
				s-0.269-0.212-0.913-0.023c-0.645,0.183-1.153,0.183-1.153,0.48c0,0.296,0.293,0.698,0.99,0.753
				c0.702,0.053,1.289-0.084,1.667,0.481c0.375,0.564,0.938,1.34,1.126,1.61c0.188,0.271,0.24,0.644,0.24,0.644
				s-1.101-0.563-1.476-1.233c-0.375-0.67-0.59-0.858-1.072-0.831c-0.485,0.027-0.778-0.027-0.856-0.214
				c-0.082-0.187-0.836,0.32-1.076-0.217C33,1.354,33.163,0.87,32.544,0.95c-0.616,0.082-1.072-0.455-1.875-0.402
				c-0.808,0.051-1.505,0.484-1.774,0.832c-0.27,0.348-0.265,0.484-0.457,0.378c-0.187-0.108-0.615,0.213-0.697,0.509
				c-0.077,0.294,0.135,0.537,0.322,0.643c0.188,0.108,0.323,0.241,0.323,0.589c0,0.351,0.322,0.539,0.59,0.457
				c0.269-0.08,0.482-0.75,0.779-0.321c0.293,0.43,0.351,0.539,0.375,0.887s0.514,0.642,0.726,0.642s0.429,0.029,0.828,0.134
				c0.404,0.108,0.62,0.54,0.889,0.728c0.265,0.184,0.538-0.03,0.457-0.271c-0.081-0.241-0.778-0.694-0.538-0.885
				c0.24-0.188,1.019,0.214,1.288,0.615c0.266,0.405,0.51,0.967,0.832,0.967c0.318,0,0.856,0.324,0.616-0.188
				c-0.241-0.51-0.591-0.967-0.778-1.233c-0.188-0.27-0.535-0.51-0.535-0.51s0.856-0.159,1.394,0.539
				c0.539,0.694,0.91,1.045,1.799,1.474c0.885,0.428,1.178,0.213,1.529,0.51c0.347,0.294,0.457,1.046,0.669,1.046
				c0.216,0,1.288,0.08,1.61-0.191c0.323-0.263,0.432-0.561,0.645-0.238c0.216,0.321,0.562,0.536,1.072,0.536
				c0.509,0,0.668,0.108,1.316,0.644c0.645,0.537,1.689,1.044,1.476,1.099c-0.216,0.055-1.02,0.082-1.585-0.294
				C43.276,9.271,43.223,9,42.872,9c-0.347,0-0.588,0.053-0.669-0.131c-0.082-0.192-0.106-0.433-0.697-0.219
				c-0.591,0.219-0.697,0.432-1.048,0.699c-0.346,0.268-0.697,0.51-1.476,0.402c-0.775-0.107-1.367,0.027-1.635,0.214
				c-0.27,0.192-0.616,0.192-0.75-0.079c-0.135-0.269-0.111-0.405,0.187-0.51c0.293-0.105,0.375-0.885-0.082-1.208
				c-0.457-0.321-1.395-0.294-1.395-0.294s-0.134-0.27-0.485-0.27c-0.346,0-0.534,0.055-0.534,0.055s-0.269-0.642-0.697-0.672
				c-0.433-0.027-0.726-0.134-0.726-0.134s-0.727-0.778-1.072-0.805c-0.351-0.025-0.722-0.083,0.188,0.832
				c0.913,0.913,1.88,1.583,2.174,1.85c0.293,0.27,0.375,0.701-0.082,1.156c-0.457,0.457-0.668,0.858-1.207,0.91
				c-0.538,0.055-1.183,0.218-1.235,0.539c-0.053,0.323-0.024,0.323-0.024,0.512c0,0.184-0.082,0.669-0.269,0.883
				c-0.188,0.214,0.135,0.803,0.697,0.803c0.562,0,1.558,0.109,1.423,0.565c-0.135,0.457-0.591,0.644-0.591,0.858
				c0,0.216-0.11,0.885-0.053,1.42c0.053,0.539-0.217,0.967-0.457,1.288c-0.241,0.323-0.591,0.94-0.51,1.584
				c0.082,0.646-0.375,1.181-0.885,1.611c-0.51,0.428-1.663,1.315-1.933,1.368c-0.269,0.05-0.457,0.188-1.048,0.081
				c-0.587-0.105-0.856,0.485-0.347,1.045c0.51,0.564,0.91,1.208,0.779,1.773c-0.134,0.56,0.265,1.313,0.428,1.743
				c0.163,0.428,0.053,1.342,0.293,1.931c0.245,0.589-0.052,1.716-0.375,2.121c-0.322,0.401-0.726,0.667-0.509,1.019
				c0.215,0.35,0.215,0.994-0.27,1.073c-0.481,0.082-1.096-0.266-1.179,0.161c-0.082,0.428,0.131,1.556-0.159,2.362
				c-0.298,0.805-0.567,1.263-0.404,2.119c0.159,0.858-0.082,1.854-0.375,2.364c-0.298,0.505-0.591,1.07-0.241,1.848
				c0.347,0.78,0.347,1.154,0.318,1.478c-0.024,0.321-0.481,0.266-0.587,0.937c-0.109,0.672,0.241,1.183,0.347,1.556
				c0.105,0.378-0.106,1.986-0.644,2.012c-0.535,0.029-1.126-0.858-1.126-1.259s0.135-1.422-0.163-1.743
				c-0.293-0.323-0.375-0.912-0.106-1.368c0.269-0.457,0.375-1.129,0.428-1.447c0.053-0.326,0-0.541,0-0.541s0.86,0.139,0.86-0.615
				c0-0.753-0.539-0.59-0.539-0.59s0.188-0.887,0.351-1.371c0.164-0.481-0.053-0.992-0.351-0.963
				c-0.293,0.027-0.559,0.94-0.779,1.233c-0.211,0.294-0.375,1.153-0.375,1.395c0,0.243,0,0.457,0,0.457s-0.775,0.132-0.75,0.617
				c0.028,0.481,0.322,0.75,0.322,1.126c0,0.376,0,1.718,0.081,2.522c0.082,0.806,0.404,2.708,1.02,4.562
				c0.616,1.85,0.857,3.084,1.126,3.997c0.269,0.913-0.025,2.471-0.106,3.273c-0.082,0.804-0.293,1.958-0.053,2.308
				c0.241,0.35,0.698,1.426,0.967,2.847c0.265,1.419,0.668,3.083,0.457,3.648c-0.216,0.563-0.106,1.338,0.184,1.422
				c0.297,0.08,0.539,0.884,0.62,1.26c0.082,0.376,0.188,1.395-0.216,0.833c-0.404-0.565-0.13-0.914-0.563-1.479
				c-0.428-0.561-0.563-0.427-0.481,0.536c0.077,0.966,0.457,2.148,0.832,2.605c0.375,0.454,0.428,1.794,0.159,2.335
				c-0.269,0.533-0.105,1.581,0.03,2.387c0.133,0.805,0.509,1.958,0.644,2.657c0.135,0.694,0.562,1.714,1.044,2.199
				c0.485,0.48,1.101,0.94,1.101,1.959s-0.106,1.07,0.159,1.66c0.269,0.593,0.404,1.237,0.404,1.772
				c0,0.537-0.159,0.889,0.298,1.316c0.453,0.427,1.097,1.394,1.149,1.795c0.058,0.405,0.298,2.013,0.62,3.007
				c0.323,0.993,0.913,2.147,1.852,3.273c0.938,1.126,1.716,1.664,2.336,2.171c0.616,0.511,1.366,0.86,1.981,0.833
				c0.62-0.024,1.798-0.024,2.149,0.213c0.347,0.243,0.641,0.621,1.289,0.565c0.64-0.052,1.37,0.241,1.582,0.43
				c0.213,0.189,0.833,0.028,1.155-0.054c0.318-0.08,0.962,0.054,1.15,0.133c0.191,0.08,0.729,0.483,1.24,0
				c0.505-0.48,0.827-0.723,1.553-0.723c0.726,0,1.154,0.106,1.77-0.778c0.62-0.887,1.394-1.502,2.067-1.502
				c0.669,0,0.86-0.673,1.126-0.803c0.27-0.14,0.889,0,1.451-0.271c0.562-0.27,1.477-0.994,1.852-0.994s0.587,0.004,1.02-0.051
				c0.428-0.056,0.938,0.43,1.284,0.43c0.35,0,0.836-0.271,0.86-0.589c0.028-0.323,0.562-0.565,0.832-0.541
				c0.27,0.029,0.86-0.426,1.125-0.802c0.273-0.379,0.701-0.458,0.914-0.458c0.216,0,1.316,0.269,1.557,0.025
				c0.241-0.237,0.856-0.937,1.313-0.937s1.179-0.188,1.529-0.831c0.35-0.646,1.101-1.557,1.611-1.879
				c0.509-0.324,0.912-0.779,1.557-1.288c0.645-0.511,1.102-0.887,1.741-1.234c0.645-0.348,1.235-0.75,1.235-0.992
				s0.779-0.967,0.99-1.183c0.217-0.214,0.217-0.962,0.322-1.396c0.11-0.43,0.674-0.667,1.105-0.938
				c0.428-0.268,0.452-0.833,0.399-1.18c-0.053-0.348,0.51-0.698,0.645-1.101c0.134-0.401-0.212-0.671,0-1.502
				c0.216-0.831,0.322-1.18-0.028-1.636c-0.347-0.457-0.24-1.152,0.269-1.45c0.51-0.295,0.567-0.883,0.567-1.286
				c0-0.405,0.159-0.698,0.452-0.751c0.298-0.056,0.24-0.511,0.053-0.7c-0.183-0.187-0.053-0.935,0.245-1.126
				c0.294-0.187,0.134-1.102-0.028-1.475c-0.159-0.375-0.188-1.423,0.081-1.637c0.27-0.217,0.212-1.318-0.11-1.823
				c-0.321-0.513-0.427-1.558-0.24-2.229c0.188-0.67,0.029-1.854-0.265-2.363c-0.298-0.507-1.048-1.875-1.13-2.25
				c-0.082-0.378-0.216-1.156-0.082-1.694c0.14-0.535-0.077-1.715-0.778-2.949c-0.693-1.234-2.011-3.113-2.866-3.677
				c-0.86-0.561-1.798-0.671-2.312-1.101c-0.511-0.427-0.371-0.857-0.185-1.18c0.185-0.321,0.429-0.751,0.106-0.913
				c-0.322-0.161-0.807-0.211-0.698-0.507c0.106-0.298,0.429-0.835,0.213-0.942c-0.213-0.104-1.178,0.028-1.554-0.696
				c-0.375-0.723-0.509-1.556-0.509-1.851c0-0.294-0.217-0.323-0.62-0.323c-0.4,0-0.587,0.161-0.429,0.534
				c0.163,0.378,0.217,0.728-0.105,0.621c-0.322-0.109-0.456-0.696-0.456-0.994c0-0.294-0.429-0.457-0.914-0.592
				c-0.481-0.13-0.751-0.585-0.562-0.696c0.188-0.109,0.644,0.189,0.778-0.132c0.135-0.324-0.105-0.647,0.159-0.647
				c0.27,0,0.375,0.162,0.592,0.83c0.215,0.674,0.644,0.781,0.696,0.487c0.054-0.294-0.269-1.235-0.615-1.798
				c-0.347-0.562-0.457-1.449-0.429-2.066c0.025-0.616-0.244-1.26-0.562-1.529c-0.327-0.268-0.886-1.019-0.327-1.556
				c0.566-0.535,0.298-1.423,0.081-1.93c-0.211-0.512-0.591-0.832-0.994-0.969c-0.399-0.132-0.804-0.08-0.804,0.403
				s-0.294,0.697-0.294,0.697s-0.537-0.132-0.644,0c-0.106,0.136-0.644,0.27-0.755,0.188c-0.105-0.079-0.317-0.589-0.885-0.748
				c-0.562-0.164-0.803-0.029-1.072,0.079c-0.265,0.107-0.533,0.107-0.644-0.163c-0.106-0.268,0.326-0.56,0.62-0.724
				c0.293-0.159,0.668,0.405,1.096,0.164c0.433-0.243,1.346-0.382,1.424-0.915c0.081-0.536,0.053-0.671-0.135-0.751
				c-0.188-0.079-0.452-0.188-0.452-0.188s-0.028-0.589-0.163-1.208c-0.135-0.617-0.376-1.288-0.511-1.288s-0.403,1.127-0.591,1.127
				s-0.081-0.99-0.081-1.206S60.382,28.117,60.382,28.117z"/>
			<path d="M27.018,2.106c-0.298,0-0.59,0.32-0.562,0.562c0.024,0.241,0,0.616,0.212,0.616c0.217,0,0.485-0.346,0.509-0.589
				C27.207,2.452,27.018,2.106,27.018,2.106z"/>
			<path d="M29.889,5.191c-0.244-0.109-0.59,0.241-0.697,0.432c-0.11,0.184-0.216,0.883,0,0.883c0.212,0,0.668-0.159,0.75-0.565
				C30.02,5.539,29.889,5.191,29.889,5.191z"/>
			<path d="M25.543,2.909c-0.245,0-0.457,0.296-0.51,0.562c-0.057,0.27,0.025,0.512,0.265,0.512c0.245,0,0.404-0.107,0.404-0.457
				S25.543,2.909,25.543,2.909z"/>
			<path d="M24.601,3.983c-0.241,0-0.563,0.401-0.563,0.537c0,0.132-0.024,0.642,0.293,0.51c0.326-0.136,0.457-0.432,0.596-0.616
				C25.058,4.226,24.601,3.983,24.601,3.983z"/>
			<path d="M24.278,5.512c-0.134,0-0.399,0.35-0.399,0.592c0,0.243-0.029,0.725,0.265,0.725c0.297,0,0.457-0.323,0.457-0.671
				C24.601,5.807,24.278,5.512,24.278,5.512z"/>
			<path d="M25.433,5.483c-0.2-0.172-0.457,0.191-0.505,0.51c-0.058,0.323-0.139,0.994,0.159,1.078
				c0.293,0.078,1.284,0.182,1.312-0.27c0.029-0.455,0.053-0.619-0.159-0.619c-0.216,0-0.375,0.159-0.538,0.134
				C25.543,6.292,25.6,5.631,25.433,5.483z"/>
			<path d="M21.999,7.847c-0.188-0.268-0.725-0.082-0.673,0.321C21.383,8.572,21.436,9,21.84,9.082c0.4,0.08,0.75,0.244,0.914,0
				c0.159-0.243,0.535-0.699,0.241-0.778c-0.298-0.083-0.591-0.187-0.702-0.242C22.187,8.006,21.999,7.847,21.999,7.847z"/>
			<path d="M27.153,4.226c-0.383-0.17-0.701-0.833-0.995-0.323c-0.293,0.512-0.106,0.535,0.029,0.696
				c0.134,0.162,0.077,1.049,0.481,1.049c0.404,0,1.26,0.027,1.422,0.05c0.16,0.028,0.698-0.238,0.404-0.318
				c-0.298-0.083-0.404-0.512-0.109-0.512c0.292,0,0.134-0.617-0.241-0.617C27.769,4.251,27.377,4.322,27.153,4.226z"/>
			<path d="M30.88,14.42c-0.27-0.189-0.591,0.053-0.75,0.375c-0.163,0.323-0.241,0.724,0,0.724c0.241,0,0.539-0.187,0.669-0.43
				C30.933,14.846,30.88,14.42,30.88,14.42z"/>
			<path d="M26.076,19.194c-0.562,0-1.394-0.079-1.77-0.239c-0.375-0.163-0.75-0.671-1.235-0.323
				c-0.481,0.351-1.072,0.562-0.534,0.94c0.534,0.376,1.072,0.428,1.851,0.832c0.779,0.401,2.414,1.288,2.414,1.288
				s0.024-0.886,0.351-0.886c0.319,0,1.044,0.35,0.991-0.161c-0.054-0.51-0.298-1.288-0.779-1.288
				C26.885,19.356,26.076,19.194,26.076,19.194z"/>
		</g>
		<path d="M25.306,34.538c-0.2,0-0.241,0.401-0.241,0.943s-0.061,1.327,0.119,1.327c0.183,0,0.285-0.199,0.285-1.005
			C25.469,34.998,25.306,34.538,25.306,34.538z"/>
		<path d="M25.408,37.17c-0.224-0.059-0.241,0.184-0.241,0.361c0,0.181,0.017,0.405,0.139,0.405s0.261-0.141,0.24-0.405
			C25.526,37.272,25.408,37.17,25.408,37.17z"/>
		<path d="M25.408,38.34c-0.261,0-0.343,0.243-0.282,0.383c0.058,0.141,0.323,0.28,0.461,0.121
			C25.73,38.679,25.408,38.34,25.408,38.34z"/>
		<path d="M25.167,39.464c-0.205-0.039-0.363,0.305-0.225,0.365c0.143,0.06,0.342,0.081,0.342-0.099
			C25.285,39.544,25.167,39.464,25.167,39.464z"/>
		<path d="M24.927,42.194c0,0.092-0.065,0.169-0.143,0.169s-0.143-0.077-0.143-0.169c0-0.097,0.065-0.175,0.143-0.175
			S24.927,42.097,24.927,42.194z"/>
		<path d="M25.546,42.535c0,0.104-0.073,0.189-0.171,0.189c-0.094,0-0.171-0.085-0.171-0.189c0-0.104,0.078-0.194,0.171-0.194
			C25.473,42.341,25.546,42.432,25.546,42.535z"/>
		<ellipse cx="27.51" cy="25.583" rx="0.189" ry="0.402"/>
		<path d="M28.303,26.981c0,0.171-0.094,0.31-0.208,0.31c-0.118,0-0.211-0.139-0.211-0.31c0-0.175,0.093-0.312,0.211-0.312
			C28.209,26.668,28.303,26.806,28.303,26.981z"/>
		<path d="M26.554,22.622c-0.229-0.021,0.02,0.485,0.261,0.985c0.24,0.504,0.424,0.564,0.583,0.564c0.163,0,0.163-0.462-0.221-0.863
			C26.794,22.906,26.786,22.647,26.554,22.622z"/>
	</g>
</g>
<g id="Layer_1">
</g>
</svg>
