<?xml version="1.0" encoding="iso-8859-1"?>
<!-- Generator: Adobe Illustrator 16.0.3, SVG Export Plug-In . SVG Version: 6.00 Build 0)  -->
<!DOCTYPE svg PUBLIC "-//W3C//DTD SVG 1.1//EN" "http://www.w3.org/Graphics/SVG/1.1/DTD/svg11.dtd">
<svg version="1.1" xmlns="http://www.w3.org/2000/svg" xmlns:xlink="http://www.w3.org/1999/xlink" x="0px" y="0px" width="100px"
	 height="100px" viewBox="0 0 100 100" style="enable-background:new 0 0 100 100;" xml:space="preserve">
<g id="LT">
	<path style="fill:#010101;" d="M92.812,34.497c-0.79,0-1.52-0.668-1.944-1.214c-0.425-0.546-1.337-1.155-1.579-2.066
		c-0.242-0.911-0.666-2.186-1.273-2.309c-0.611-0.123-1.218,0.061-1.52-1.152c-0.306-1.217-1.396-1.885-2.128-2.006
		c-0.729-0.123-1.638-0.243-1.762-1.154c-0.122-0.912-0.788-1.52-1.276-1.52c-0.483,0-0.849-0.363-0.849-0.789
		s-0.123-1.275-0.73-1.275s-0.727,0.424-1.456-0.245c-0.729-0.669-1.031-0.486-1.762-0.183c-0.729,0.305-1.944-0.423-4.07-0.668
		c-2.127-0.241-2.127-0.606-2.552-1.76c-0.424-1.153-0.729-1.397-1.396-2.066c-0.67-0.669-0.548-1.821-1.155-3.401
		c-0.605-1.58-0.789-1.7-1.519-0.791c-0.729,0.914-1.944,1.337-3.036,1.52c-1.094,0.183-1.46,1.701-2.007,2.432
		c-0.543,0.727-2.127,0.789-2.977,0.183c-0.849-0.611-1.762-0.366-2.853,0.241c-1.095,0.608-1.583,0.062-2.432,0
		c-0.85-0.061-0.182-1.032-0.607-1.518c-0.425-0.486-1.154,0.18-1.579-0.365c-0.425-0.546-0.488-0.668-1.82-0.183
		c-1.337,0.488-1.218-0.668-2.008-0.972c-0.789-0.303-1.379,0.553-2.551,0.791c-0.626,0.125-1.486-0.031-2.458-0.729
		c-0.973-0.7-2.127-0.7-2.857-0.7c-0.729,0-1.366,1.518-1.944,1.763c-0.577,0.243-1.154-0.274-1.668-1.217
		c-0.518-0.94-0.213-0.789-0.488-1.214c-0.272-0.426-1.032-0.364-1.52,0.274c-0.483,0.637-0.607,0.151-1.303,0.334
		c-0.7,0.183-1.396,0-2.097,0.243c-0.7,0.243-0.972-0.031-1.49-0.517c-0.514-0.486-1.455-0.06-1.851-0.183
		c-0.395-0.12-0.76-0.486-1.579-0.486c-0.819,0-2.704-0.029-3.281-0.515c-0.577-0.486-1.032-0.183-2.279-0.486
		c-1.245-0.305-1.397,0.18-1.792,0.789c-0.395,0.606-0.972,0.789-1.609,0.394c-0.637-0.394-0.667,0.062-1.732,0.82
		c-1.062,0.76-1.974,0.243-2.793,0.214c-0.819-0.031-1.367,0.332-1.792,0.972c-0.428,0.637-0.76,1.366-1.612,1.668
		c-0.849,0.306-1.091-0.12-1.426,0.151c-0.335,0.274-0.548,0.789-1.397,1.217c-0.849,0.423-0.849,0.668-0.849,1.458
		c0,0.789-0.547,1.792-0.822,2.034c-0.272,0.243-1.245-0.091-1.792-0.091c-0.361,0-0.574,0.185-0.678,0.31
		C0.81,20.595,0.78,20.646,0.78,20.646c0,0.698,0.063,1.518-0.272,2.309c-0.335,0.789-0.335,1.518-0.424,1.852
		c-0.197,0.718,0,2.126,0.119,3.312c0.123,1.184,0.123,2.003,0.395,2.703c0.276,0.698,0.76,1.154,0.76,1.64s0.275,1.458,0.366,2.035
		c0.092,0.577,0.275,0.94,0.275,1.731c0,0.789,0.059,1.032,0.212,1.669c0.149,0.64,0.243,1.428,0.119,2.249
		c-0.119,0.82-0.547,1.791-0.606,2.155c-0.061,0.366,0.092,0.457,0.424,0.216c0.334-0.246,0.334-0.062,0.245,0.271
		c-0.093,0.334,0,0.638,0.149,1.003c0.152,0.363,0.547,0.789,0.275,1.243c-0.275,0.457-0.029,0.88-0.029,0.88
		s0.242-0.303,0.908-0.727c0.671-0.425,1.214-0.608,1.579,0.121c0.365,0.731,0.548,1.64,1.761,2.065
		c1.218,0.426,1.944,0.426,2.798,1.032c0.849,0.608,1.396,2.186,2.67,2.674c1.278,0.485,2.309,0.729,3.464,1.578
		c1.154,0.851,1.579,0.788,2.611,0.485c1.035-0.304,2.492-0.606,4.01-0.181c1.52,0.426,2.004-0.242,2.552-0.061
		c0.547,0.181,0.242,2.187,1.273,2.489c1.035,0.304,1.154,0.184,1.278,0.972c0.123,0.789,1.094,1.521,2.126,1.521
		c1.031,0,0.302,1.7,0.243,2.734c-0.061,1.029-0.183,1.76-0.667,1.82c-0.488,0.061-2.25,1.034-2.369,1.703
		c-0.123,0.668,0.182,1.274,0.243,2.062c0.059,0.792-1.032,1.701-0.913,2.31c0.123,0.608-0.119,0.911-0.183,1.763
		c-0.061,0.849-0.242,1.274,0.305,2.429c0.547,1.154,1.154,2.43,2.247,1.518c1.094-0.909,2.006-0.727,2.431,0.123
		c0.424,0.851,0.909,2.005,1.516,1.942c0.611-0.06,1.218-0.242,1.337,0.486c0.123,0.731,0.789,1.217,1.702,1.154
		c0.912-0.061,1.579,0.791,2.127,1.397c0.547,0.606,1.579,1.64,1.519,2.552c-0.062,0.911-0.062,1.274,0.243,2.065
		c0.301,0.791,0.182,0.972,0,1.943c-0.183,0.972,0.729,1.337,1.943,2.126s2.186,1.034,3.035,0.365
		c0.853-0.668,0.606-1.396,1.095-1.034c0.485,0.366,0.79,0.429,1.031,0.184c0.242-0.243,0.608-0.669,1.096-0.243
		c0.483,0.426,1.943,1.031,3.948,0c2.004-1.032,1.579,1.337,2.61,2.006c1.035,0.668,2.25-0.366,4.254-1.643
		c2.003-1.275,1.884-1.518,2.186-0.972c0.306,0.548,1.095,0.245,1.944-0.121c0.853-0.365,1.276-1.457,0.67-1.942
		c-0.607-0.488-0.425-1.338,0.183-2.066s1.154-0.789,2.61-0.426c1.457,0.365,2.916-0.426,3.829-1.52
		c0.909-1.092,2.003-2.063,2.793-1.881c0.79,0.181,1.397,0.181,2.246-0.911c0.853-1.095,1.824-0.486,2.25,0.303
		c0.424,0.789-0.671,2.065-0.607,3.403c0.06,1.335,1.337,0.909,2.551,0.849c1.215-0.06,1.881-2.003,1.881-3.583
		s-1.698-2.371-2.61-2.371c-0.913,0-1.273-0.727-1.154-1.518c0.122-0.789,0.971-1.396,0.971-2.126c0-0.729,1.096-2.126,1.945-2.915
		c0.849-0.791,0.606-2.006,0.548-2.734c-0.061-0.729,0-2.734,0-4.069c0-1.337,0.423-2.978,1.455-4.071
		c1.036-1.092,1.278-1.64,2.369-1.458c1.095,0.183,1.277,0.486,2.127,0.183c0.853-0.303,1.825-1.52,2.368-2.611
		c0.548-1.094,0.789-1.277,0.789-2.126c0-0.852,1.584-1.337,1.944-1.033c0.365,0.305,1.154,0.305,1.825-0.243
		c0.667-0.547,1.396,0,1.638,0.183c0.243,0.183,1.58,0.183,1.945-1.215s1.095-2.249,2.127-2.672
		c1.031-0.426,0.483-1.277-0.306-1.703c-0.79-0.424-2.187,0.246-3.583-0.241c-1.396-0.488,0.122-1.034,0.365-1.52
		c0.241-0.485-0.607-1.094-0.425-1.642c0.182-0.544,0.425-0.849,0-1.275c-0.425-0.423-0.365-1.334-0.183-1.943
		c0.183-0.608,1.215-1.762,1.273-2.491c0.063-0.729-0.543-1.213-0.543-1.213s-0.015-0.009-0.015-0.011
		c-0.083-0.04-1.035-0.55-1.445-0.84C94.149,34.802,93.601,34.497,92.812,34.497z"/>
</g>
<g id="Layer_1">
</g>
</svg>
