<?xml version="1.0" encoding="iso-8859-1"?>
<!-- Generator: Adobe Illustrator 16.0.3, SVG Export Plug-In . SVG Version: 6.00 Build 0)  -->
<!DOCTYPE svg PUBLIC "-//W3C//DTD SVG 1.1//EN" "http://www.w3.org/Graphics/SVG/1.1/DTD/svg11.dtd">
<svg version="1.1" xmlns="http://www.w3.org/2000/svg" xmlns:xlink="http://www.w3.org/1999/xlink" x="0px" y="0px" width="100px"
	 height="100px" viewBox="0 0 100 100" style="enable-background:new 0 0 100 100;" xml:space="preserve">
<g id="LV">
	<path style="fill:#010101;" d="M85.128,32.846c-0.468,0-1.33,0.027-1.723-0.344c-0.396-0.368-0.371-0.884-0.935-0.836
		c-0.568,0.05-0.517-0.219-0.937-0.59c-0.419-0.368-0.861,0.887-1.354,1.427c-0.492,0.543-0.763-0.049-1.377-0.172
		c-0.614-0.124-1.254,1.28-1.625,1.353c-0.369,0.074-1.204-0.05-1.551-0.638c-0.344-0.592-1.229-0.592-1.599-0.592
		c-0.368,0-1.008-0.859-1.723-1.501c-0.712-0.638-0.22-1.328-0.54-1.992c-0.32-0.663-1.155-1.081-1.427-1.303
		s-0.812-0.542-0.812-1.034c0-0.49,0.073-1.132-0.516-1.352c-0.591-0.221-1.574,0.27-2.142,0.123
		c-0.563-0.149-0.764-1.501-1.107-1.795c-0.344-0.296-1.231,0-1.698-0.222c-0.464-0.222-0.491-0.787-0.812-0.787
		s-0.54,0.172-1.056-0.764c-0.52-0.936-0.64-0.909-1.307-1.083c-0.663-0.171-0.468-0.59-1.106-0.761
		c-0.64-0.172,0.026,0.714-0.121,1.404c-0.148,0.688-0.739-1.011-1.55-1.526c-0.812-0.518-1.771,0.958-2.411,1.599
		c-0.64,0.64-1.575,0.493-2.386,0.32c-0.816-0.174-1.282,0.64-1.798,1.007c-0.517,0.371-1.132,0.027-1.649,0.246
		c-0.515,0.222-0.738,1.034-1.23,1.353c-0.492,0.323-1.291,0.097-1.291,0.097c-0.175,0.604-0.317,1.094-0.332,1.479
		c-0.024,0.568-0.052,2.042-0.052,2.56c0,0.516,0.224,0.909,0.348,1.352c0.121,0.443,0,1.576-0.076,2.508
		c-0.071,0.936,0,1.75,0.148,2.734c0.148,0.981,0.124,3.075,0.124,4.108s-0.492,1.771-0.887,2.237
		c-0.393,0.468-1.476,1.551-1.771,1.895c-0.296,0.344-0.788,1.034-1.427,1.083c-0.64,0.05-0.936,0.271-0.836,0.59
		c0.097,0.321-0.516,0.764-0.663,1.083c-0.147,0.318-0.468,0.294-1.106,0.269c-0.641-0.023-1.06,0.247-1.575,0.518
		c-0.519,0.271-1.527,0.294-1.847,0.294s-0.812-0.319-0.86-0.515c-0.051-0.197-0.146-0.05-0.419-0.247
		c-0.271-0.197-0.368-0.393-0.492-0.812C35.501,45.197,35.109,45.1,34.862,45c-0.247-0.099-0.887-0.072-1.303-0.271
		c-0.419-0.194-0.739-0.712-0.864-1.155c-0.12-0.443-0.268-1.132-0.244-1.599c0.024-0.466-0.344-1.058-0.615-1.795
		c-0.271-0.737-0.419-1.059-0.22-1.427c0.196-0.371,0.098-0.566-0.027-0.764c-0.12-0.195-0.172-0.294-0.148-0.565
		c0.028-0.269-0.047-0.418-0.392-0.565c-0.343-0.147-0.983-0.394-1.379-0.737c-0.392-0.346-0.688-0.493-1.327-1.379
		c-0.639-0.884-1.083-1.377-1.771-2.214c-0.69-0.836-1.231-0.886-1.722-1.673c-0.492-0.787-0.544-1.746-0.568-2.535
		c-0.023-0.787,0.42-1.327,0.32-1.622c-0.097-0.296-0.491-0.099-0.983,0.147s-3.371,1.599-4.553,2.017
		c-1.18,0.419-2.016,0.837-2.558,1.057c-0.541,0.224-0.739,0.37-1.132,0.174c-0.393-0.197-0.639-0.122-1.034,0.025
		c-0.393,0.147-0.984,0.369-1.304,0.246c-0.32-0.124-0.711,0.147-1.107,0.884c-0.393,0.737-0.468,1.33-0.859,1.92
		c-0.396,0.59-1.108,1.771-1.527,2.288c-0.416,0.516-0.91,0.984-1.23,1.821s-0.541,1.746-0.516,2.067
		c0.024,0.318-0.025,1.205-0.172,1.917c-0.148,0.714-0.272,1.797-0.517,2.462c-0.248,0.663-1.058,1.45-1.478,1.795
		c-0.417,0.344-1.108,0.837-1.624,1.133c-1.059,0.604-1.303,1.081-1.55,1.599c-0.244,0.516-0.492,1.917-0.541,2.632
		c-0.047,0.712-0.516,2.338-0.811,2.952c-0.296,0.615-0.616,1.402-0.64,1.944c-0.024,0.54-0.124,2.386-0.196,3.322
		C0.196,60.033,0,61.166,0,62.568c0,1.401,0.024,1.695,0.024,2.264c0,0.565,0.39,2.066,0.567,2.682
		c0.015,0.052,0.057,0.143,0.111,0.251c0.088-0.102,0.26-0.251,0.552-0.251c0.443,0,1.231,0.27,1.452,0.072
		c0.219-0.197,0.664-1.009,0.664-1.648s0-0.835,0.691-1.181c0.688-0.344,0.859-0.762,1.13-0.983c0.27-0.222,0.468,0.122,1.156-0.124
		c0.688-0.244,0.96-0.835,1.304-1.353c0.344-0.516,0.787-0.812,1.451-0.787c0.667,0.024,1.403,0.443,2.266-0.172
		c0.86-0.617,0.884-0.983,1.403-0.665c0.516,0.321,0.983,0.172,1.304-0.318c0.318-0.493,0.443-0.889,1.45-0.64
		c1.008,0.246,1.379,0,1.847,0.391c0.468,0.394,1.991,0.421,2.655,0.421c0.666,0,0.958,0.296,1.278,0.394
		c0.32,0.097,1.083-0.247,1.502,0.146c0.42,0.394,0.641,0.615,1.208,0.419c0.563-0.197,1.131-0.05,1.694-0.197
		c0.568-0.146,0.664,0.246,1.06-0.271c0.392-0.518,1.008-0.564,1.23-0.222c0.221,0.347-0.024,0.222,0.393,0.986
		c0.419,0.762,0.887,1.181,1.354,0.983c0.468-0.196,0.983-1.427,1.574-1.427c0.589,0,1.523,0,2.312,0.565
		c0.787,0.565,1.483,0.694,1.993,0.59c0.95-0.19,1.428-0.886,2.066-0.638c0.641,0.244,0.541,1.179,1.624,0.787
		c1.083-0.394,1.131-0.296,1.475,0.145c0.347,0.446,0.935-0.097,1.282,0.297c0.344,0.394-0.199,1.18,0.491,1.229
		c0.688,0.05,1.083,0.493,1.968,0c0.887-0.492,1.624-0.688,2.313-0.196c0.688,0.493,1.967,0.443,2.411-0.147
		c0.442-0.59,0.738-1.82,1.622-1.969c0.888-0.146,1.871-0.491,2.462-1.229c0.589-0.739,0.735-0.64,1.228,0.638
		c0.495,1.28,0.396,2.216,0.935,2.757c0.544,0.543,0.789,0.737,1.136,1.673c0.343,0.935,0.343,1.229,2.066,1.427
		c1.719,0.197,2.705,0.787,3.294,0.541c0.591-0.244,0.839-0.394,1.427,0.148c0.592,0.541,0.69,0.195,1.183,0.195
		c0.491,0,0.591,0.689,0.591,1.033c0,0.346,0.294,0.64,0.688,0.64c0.392,0,0.936,0.493,1.032,1.232
		c0.099,0.737,0.839,0.835,1.427,0.935c0.591,0.097,1.479,0.64,1.723,1.623c0.247,0.983,0.738,0.837,1.23,0.934
		c0.491,0.1,0.835,1.134,1.035,1.873c0.195,0.737,0.935,1.228,1.279,1.671c0.343,0.443,0.935,0.983,1.574,0.983
		c0.639,0,1.083,0.247,1.427,0.493c0.328,0.236,1.104,0.647,1.167,0.683c0.55-0.326,0.868-0.569,1.439-0.633
		c1.083-0.125,1.796-0.593,2.438-1.502c0.64-0.911,1.548-2.042,2.091-2.312c0.54-0.271,1.819,0.024,2.51,0.59
		c0.688,0.565,1.204,0.543,1.647,0.246c0.442-0.294,1.747,0.1,2.361,0.394c0.616,0.296,1.575,0.222,1.699-0.172
		c0.123-0.394,0.072-1.917,0.172-2.878c0.097-0.959,0.935-1.746,1.574-2.042c0.64-0.297,0.444-0.837,0.616-1.502
		c0.171-0.662,1.008-0.344,1.375-0.762c0.371-0.418,0.443-1.034,0.986-1.303c0.541-0.273,1.575-0.911,2.067-1.451
		c0.491-0.543,0.392-1.034,0.736-1.602c0.344-0.565,0.69-1.501,0.394-1.845c-0.294-0.344-0.639-1.402-0.639-1.992
		c0-0.591,0.024-1.574-0.491-2.02c-0.519-0.44-0.788-1.081-0.592-1.572c0.196-0.492,0.295-0.911-0.516-1.255
		c-0.812-0.346-0.838-0.714-0.812-1.157c0.024-0.443-0.396-1.724-0.963-2.288c-0.563-0.566-0.023-1.896,0.124-2.633
		s-0.663-0.615-1.155-0.59s-0.688-0.294-1.231-0.247c-0.54,0.05-1.45,0.616-1.45,0.616s0.195-0.566,0.419-1.353
		c0.221-0.787,0.44-1.723,0.688-2.386c0.247-0.665,0.42-1.059-0.367-1.873c-0.788-0.811,0.096-1.499,0.711-1.893
		c0.616-0.395,0.864-1.845,0.788-2.855c-0.072-1.007-0.419-1.178-1.156-1.572c-0.738-0.393-0.787-1.107-1.206-1.501
		c-0.417-0.394-1.155-0.443-1.819-0.986c-0.663-0.541-0.171-1.353-0.171-2.042c0-0.688-0.544-0.958-1.455-0.737
		c-0.797,0.192-1.12,0.255-1.518,0.087c-0.058-0.023-0.118-0.052-0.178-0.087C86.406,32.873,85.595,32.846,85.128,32.846z"/>
</g>
<g id="Layer_1">
</g>
</svg>
