<?xml version="1.0" encoding="iso-8859-1"?>
<!-- Generator: Adobe Illustrator 16.0.3, SVG Export Plug-In . SVG Version: 6.00 Build 0)  -->
<!DOCTYPE svg PUBLIC "-//W3C//DTD SVG 1.1//EN" "http://www.w3.org/Graphics/SVG/1.1/DTD/svg11.dtd">
<svg version="1.1" xmlns="http://www.w3.org/2000/svg" xmlns:xlink="http://www.w3.org/1999/xlink" x="0px" y="0px" width="100px"
	 height="100px" viewBox="0 0 100 100" style="enable-background:new 0 0 100 100;" xml:space="preserve">
<g id="MD">
	<path style="fill:#010101;" d="M43.889,98.505c0.523-0.58,1.9-0.053,2.59,0.58c0.685,0.635,3.327,1.161,3.272,0.794
		c-0.053-0.37-0.737-1.479-0.16-1.849c0.583-0.371,0.792-0.95,0.315-2.062c-0.471-1.11-0.845-2.008,0-3.224
		c0.846-1.213,1.644-0.737,2.381-0.737s1.691-0.157,1.584-1.058c-0.106-0.897,1.899-1.16,2.322-1.426
		c0.423-0.265-0.053-1.268,0.106-2.589c0.16-1.321,1.85-1.956,3.274-2.377c1.428-0.423,2.272-0.632,2.272-1.849
		c0-1.216-0.213-2.009,0.952-3.432c1.161-1.43,0.687-2.379,0-2.959c-0.689-0.581-1.375-0.477-1.165-2.326
		c0.213-1.847-0.845-3.434-0.899-4.226c-0.048-0.792,1.061-0.633,1.644-0.633c0.577,0,1.321-0.477,0.844-1.058
		c-0.476-0.581,1.055-1.107,1.847-1.056c0.793,0.053,1.798-0.212,2.221-0.528s1.321,0.423,1.107,1.269
		c-0.209,0.845-0.845,3.854,0,3.854c0.846,0,1.427-0.527,1.53-2.165c0.105-1.64,0.742-2.165,1.219-1.85
		c0.478,0.319,0.155,2.432,0.686,2.432s1.214-0.688,1.531-1.744c0.319-1.058,1.48-0.105,1.48,0.687s-0.268,1.902,0.685,1.795
		c0.951-0.104,0.791,1.532,1.584,1.004c0.797-0.526,0.422-1.267,1.167-1.583c0.737-0.315,0.846-1.374,1.689-1.111
		c0.846,0.265,2.107,1.69,2.007,2.377c-0.108,0.689-0.16,1.324,0.577,1.374c0.743,0.054,1.219-1.318,2.064-1.003
		c0.842,0.318,1.74,0.21,2.216-0.371c0.477-0.579,0.953-1.478-0.476-2.271c-1.424-0.792-2.43-1.163-1.845-2.588
		c0.577-1.427,0.246-1.465,0.208-2.418c-0.04-0.948,0.038-1.465,0.277-1.86c0.236-0.397,0.358-0.556,0.358-1.189
		c0-0.636,0.555-1.149,0.631-1.821c0.085-0.672,0-1.784-0.791-1.704c-0.792,0.079-1.107-0.752-1.307-1.309
		c-0.199-0.554-1.268,0.118-2.022-0.473c-0.752-0.597-0.791-1.903-1.621-1.706c-0.837,0.198-1.352-0.712-2.22-0.83
		c-0.871-0.12-1.229-0.715-0.792-1.19c0.436-0.475,0-0.951,0.436-1.504c0.434-0.556,0.755-1.944-0.28-2.139
		c-1.03-0.2-1.938,0.079-1.9-1.11c0.039-1.188,1.43-0.079,1.585-1.229c0.16-1.148-0.317-2.653,0.198-2.972
		c0.516-0.315,0.912-0.554,0.554-2.06c-0.354-1.505-1.7-1.664-2.259-1.307c-0.554,0.358-0.554,2.258-1.822,2.06
		c-1.267-0.2-2.021-1.186-1.584-1.981c0.437-0.792,0.915-1.308,0.161-1.584c-0.753-0.277-1.744-1.148-2.181-1.702
		c-0.438-0.557-1.385-0.12-1.862-0.597c-0.476-0.474-1.82-2.97-1.349-3.645c0.476-0.673,1.666-1.107,1.943-2.179
		c0.276-1.068-0.039-2.655,0.913-3.763c0.947-1.109,1.976-1.625,1.384-2.058c-0.593-0.439-1.307-0.082-1.307-1.191
		c0-1.109,0.753-1.031-0.116-1.666c-0.874-0.633-1.151-1.582-1.229-2.416c-0.082-0.832-1.229-1.267-1.942-0.872
		c-0.714,0.398-0.554,1.983-1.546,1.229c-0.99-0.752-1.385-1.229-2.221-1.544c-0.83-0.319-0.709-1.941-1.307-2.852
		c-0.592-0.913-2.69-1.863-3.72-2.458c-1.03-0.593-2.736-1.227-3.449-0.076c-0.715,1.147-1.706,2.456-1.9,1.029
		c-0.198-1.427,0-2.417-0.715-2.061c-0.713,0.355-1.82,1.704-2.098,0.675c-0.281-1.031,1.938-2.456,0.987-2.851
		c-0.949-0.4-2.215,0.633-2.813,0.514c-0.593-0.118-0.394-1.388-0.91-1.548c-0.514-0.157-1.628,0.914-1.859,0.16
		c-0.239-0.751,0.393-2.218-0.797-2.458c-1.187-0.235-3.128-0.472-3.606-1.583c-0.475-1.109-0.868-1.903-2.02-2.298
		c-1.146-0.397-1.861-0.2-2.612-0.357c-0.754-0.158-0.557-1.187-0.953-1.426c-0.393-0.239-0.671-0.515-1.423,0.081
		c-0.755,0.592-1.032-0.28-1.546,0.592c-0.515,0.871-1.427,1.31-2.299,0.834c-0.872-0.477-1.665-0.912-2.218,0
		c-0.553,0.911-1.03,1.702-2.653,1.226c-1.627-0.473-2.02-0.633-2.574-1.149c-0.558-0.515-0.637,0.516-1.313,1.033
		c-0.67,0.514-1.783,0.197-1.975-0.633c-0.2-0.834-0.876-1.587-1.508-1.229c-0.635,0.355-1.666,0-2.098,0.158
		c-0.437,0.158-0.122,1.544,0.592,2.021c0.715,0.476,0.715,1.821,0.117,1.583c-0.592-0.235-1.507-1.783-1.978-1.783
		c-0.476,0-0.873,0.715-1.15,1.268c-0.276,0.557-0.476,1.229-0.16,1.429c0.321,0.197,0.952,0,1.628,0.197
		c0.67,0.199,1.859,0.436,2.335,0.911c0.478,0.475,0.953,1.544,1.308,1.663c0.356,0.12,0.915,0.557,1.428,1.31
		c0.515,0.754,0.71,1.268,1.307,1.384c0.593,0.12,0.632,0.835,0.632,1.19c0,0.357,0.238,1.069,0.553,1.625
		c0.321,0.553,0.515,1.861,0.515,2.771c0,0.911,0,1.586,0.714,2.179c0.714,0.596,0.515,1.191,0.637,1.825
		c0.117,0.634,0.393,0.831,1.146,1.663c0.753,0.832,0.277,0.913,0.637,1.309c0.355,0.395,0.515,0.671-0.161,1.028
		c-0.676,0.358-0.354,0.436,0.077,1.389c0.439,0.948,0.992,2.258,1.546,2.892c0.558,0.633,0.915,1.03,1.19,1.308
		c0.277,0.276,0.515,1.188,0.752,1.664c0.239,0.475,1.031,1.268,1.467,1.188c0.437-0.08,1.19,0.356,1.03,1.423
		c-0.159,1.072-0.398,1.348,0.039,1.903c0.437,0.556,0.2,0.753,0.398,1.545c0.195,0.794,1.662,1.625,2.061,1.744
		c0.393,0.121,1.186,0.437,1.307,1.506c0.116,1.07,0.079,0.594,0.632,1.625c0.555,1.03,0.082,1.425,0.516,1.741
		c0.436,0.317,1.112,0.476,1.074,1.19c-0.045,0.712,0.314,0.791,0.669,0.911c0.359,0.118,0.554,0.79,1.189,1.344
		c0.632,0.558,1.662,0.753,2.497,1.746c0.83,0.991,1.224,2.297,1.224,3.087c0,0.793,0.238,2.617,0.638,3.725
		c0.394,1.109,0.952,2.855,1.344,3.922c0.4,1.072,0.875,1.23,0.516,3.489c-0.355,2.257-0.477,2.337-0.079,3.724
		c0.394,1.388,0.079,1.94-0.398,2.773c-0.477,0.832-0.792,1.941-0.947,2.496c-0.16,0.552-0.559,1.028-1.39,1.703
		c-0.83,0.674-0.992,1.267-0.632,2.06c0.355,0.793-0.16,1.228-0.36,2.258c-0.194,1.029,0,2.021-0.194,2.616
		c-0.719,2.153,0.024,2.628-0.237,4.792c-0.268,2.168-0.359,2.774,0.276,3.885c0.631,1.109,0.723,3.762-0.123,4.606
		c-0.843,0.847-1.795,1.11-1.582,2.221c0.212,1.11,1.268,1.373,1.69,2.375c0.125,0.303,0.326,0.372,0.555,0.312
		C42.811,99.783,43.519,98.912,43.889,98.505z"/>
</g>
<g id="Layer_1">
</g>
</svg>
