<?xml version="1.0" encoding="iso-8859-1"?>
<!-- Generator: Adobe Illustrator 16.0.3, SVG Export Plug-In . SVG Version: 6.00 Build 0)  -->
<!DOCTYPE svg PUBLIC "-//W3C//DTD SVG 1.1//EN" "http://www.w3.org/Graphics/SVG/1.1/DTD/svg11.dtd">
<svg version="1.1" xmlns="http://www.w3.org/2000/svg" xmlns:xlink="http://www.w3.org/1999/xlink" x="0px" y="0px" width="100px"
	 height="100px" viewBox="0 0 100 100" style="enable-background:new 0 0 100 100;" xml:space="preserve">
<g id="ME">
	<path style="fill:#010101;" d="M49.905,97.843c0.355-0.547,0.391-0.943,0.195-1.493c-0.195-0.549-0.116-1.178,0.239-1.612
		c0.354-0.433,0.506-0.471,0.426-1.259c-0.072-0.786,0.238-1.412,0.238-1.412s0.037-0.396-0.079-1.381
		c-0.115-0.98,0.318-3.063,0.318-3.063s0.47,0.234,1.765,0.781c1.303,0.555,2.091,0.32,2.091,0.32s-0.984-1.966-0.63-2.757
		c0.347-0.782,0.428-1.491,0.152-1.925c-0.275-0.431-1.135-1.257-1.374-2.124c-0.239-0.864-0.354-0.431-2.083-1.771
		c-1.728-1.335-1.027-2.984-0.398-4.168c0.629-1.178,1.497-4.559,1.417-5.898c-0.079-1.338,1.497-1.022,2.516-2.357
		c1.022-1.339,2.207-4.72,3.777-7.157c1.576-2.438,3.774-7.157,5.033-8.101c1.258-0.943,2.358,0.396,3.226,2.203
		c0.861,1.808,0,3.146,0.08,4.875c0.079,1.729,1.259,3.615,1.569,4.169c0.317,0.551,3.226-0.709,3.854-1.102
		c0.629-0.396,2.126-1.729,3.146-1.573c1.02,0.158,1.729-0.076,2.828-1.808c0.651-1.014,1.237-1.028,1.873-0.785
		c0.059-0.325,0.116-0.633,0.173-0.905c0.384-1.711-0.325-2.449-1.916-4.219s-1.772-2.92-2.329-3.984
		c-0.564-1.058-0.238-2.917,0.884-3.803c1.12-0.881,3.305-0.205,4.54,0.327c1.238,0.53,2.714,0.914,4.015,1.178
		c1.294,0.268,1.15-1.178,1.15-1.71c0-0.531,0.498-1.299,1.15-1.476c0.65-0.173,2.3-0.795,3.27-1.471
		c0.976-0.681,0.448-0.945,0.094-2.095s0.086-2.683,0.086-3.717c0-1.03-0.947-1.476-1.62-1.476c-0.68,0-1.656,0.326-3.449,0.651
		c-1.802,0.323-2.807-0.353-4.579-0.973c-1.764-0.622-3.002-1.062-4.6-1.417c-1.591-0.355-2.09-0.413-2.119-1.385
		c-0.028-0.974,0.97-1.83,0.97-2.478c0-0.65-1.382-2.036-2.301-3.1c-0.91-1.059-2.653-0.498-3.804-0.412
		c-1.149,0.091-2.598-1.121-3.653-1.62c-1.063-0.502-1.178,0.914-2.423,1.591c-1.236,0.68-1.207-1.059-1.207-1.768
		c0-0.708,0-1.475-0.354-1.917c-0.354-0.444-1.15-0.588-1.477-1.269c-0.325-0.679-0.644-1.917-1.793-2.181
		c-1.156-0.266-1.858-1.504-2.654-2.802c-0.803-1.298-1.418-2.243-3.658-4.395c-2.243-2.155-1.888-1.886-3.452-2.859
		C47.468,7.785,47.2,6.903,46.7,5.839c-0.505-1.059-1.388-2.004-2.068-2.21c-0.578-0.176-1.677-1.236-2.407-1.667
		c-0.123-0.075-0.231-0.133-0.333-0.163c-0.68-0.205-2.031-0.119-3.124-0.119s-2.039,0.444-2.539,0.857
		c-0.499,0.412-1.149,0.739-1.83,0.619c-0.672-0.119-0.999-1.831-1.265-2.536c-0.269-0.708-0.825-0.828-1.209-0.267
		c-0.382,0.56-0.709,0.767-1.628,0.767c-0.91,0-1.056,0.206-1.381,1.181C28.59,3.276,28.8,3.54,29.741,3.54S31.1,4.19,31.801,5.691
		c0.709,1.504,1.504,3.521,2.336,5.331c0.825,1.807,1.216,3.46,0.941,4.798c-0.275,1.335-1.57,3.381-2.475,3.302
		c-0.903-0.081-2.046-2.991-2.517-4.879c-0.478-1.884-1.46-2.712-2.871-2.712c-1.417,0-1.454,1.458-2.4,2.517
		c-0.941,1.063-3.307,2.282-4.796,3.501c-1.497,1.218-0.788,1.337-0.239,2.002c0.55,0.669-0.586,1.417-1.019,3.031
		c-0.435,1.612-0.275,4.954-0.355,7.352c-0.079,2.397-1.497,1.809-4.05,1.809c-2.554,0-3.03,0.473-3.536,1.297
		c-0.514,0.829,0.15,4.169-0.044,6.607c-0.194,2.438-0.63,3.186-1.453,3.541c-0.824,0.354-0.391,1.768-0.239,3.776
		c0.158,2.001-0.666,3.141-0.666,3.141s1.294,0.278,2.908,0.041c1.612-0.234,1.728,1.101,2.357,2.32
		c0.637,1.219,0.557,1.339,0,2.479c-0.549,1.14-0.903,1.532-1.765,2.476c-0.803,0.879-1.568,1.98-1.67,2.13
		c-0.007,0.015-0.021,0.032-0.021,0.032s0.035,0.63,0.158,1.614c0.115,0.984,0.585,2.479,1.021,3.026
		c0.288,0.372,0.599,0.806,0.969,1.034c0.174,0.108,0.361,0.17,0.563,0.146c0.63-0.076,1.888,0.551,2.871,0.747
		c0.984,0.196,1.924-0.902,2.358-1.178c0.434-0.278,0-1.339-0.037-1.928c-0.042-0.589,0.861-0.354,1.216-0.041
		c0.355,0.316,0.709,0.784,1.259,0.864c0.549,0.079,1.381,1.26,1.221,1.535c-0.157,0.278-1.293-0.552-1.93-0.552
		c-0.629,0-0.347,0.865,0.044,1.929c0.39,1.062-0.238,1.652-0.825,1.767c-0.593,0.12-2.083-0.744-3.146-1.137
		c-1.063-0.396-2.357-0.511-2.792,0.079c-0.434,0.589,1.101,1.569,1.845,2.121c0.753,0.551,1.455,1.69,1.967,1.729
		c0.515,0.041,0.825-0.703,1.18-1.137c0.354-0.437,1.1-0.2,1.302,0.079c0.195,0.275-0.202,1.649,0.629,2.985
		c0.824,1.339,2.358,2.599,3.183,3.067c0.825,0.475,2.908-0.038,3.855-0.038c0.938,0,1.532,1.456,1.845,2.555
		c0.317,1.104,1.027,1.849,2.01,2.282c0.984,0.431,1.489,1.298,2.437,2.24c0.94,0.946,1.889,1.65,2.243,1.966
		c0.354,0.314,1.49,1.258,0.628,1.258c-0.867,0-0.788,0.984-0.157,1.26c0.628,0.275,1.729,1.063,2.356,1.572
		c0.63,0.511,1.223,1.574,1.1,2.477c-0.115,0.904,0.044,2.791,0.318,3.381c0.275,0.591,1.691,1.379,2.676,1.734
		c0.984,0.354,1.569,0.629,2.278,1.298c0.709,0.667,1.1,0.864,2.048,0.864c0.938,0,2.357,0.469,2.907,0.784
		c0.05,0.032,0.151,0.035,0.267,0.032C49.587,99.599,49.551,98.392,49.905,97.843z"/>
</g>
<g id="Layer_1">
</g>
</svg>
