<?xml version="1.0" encoding="iso-8859-1"?>
<!-- Generator: Adobe Illustrator 16.0.3, SVG Export Plug-In . SVG Version: 6.00 Build 0)  -->
<!DOCTYPE svg PUBLIC "-//W3C//DTD SVG 1.1//EN" "http://www.w3.org/Graphics/SVG/1.1/DTD/svg11.dtd">
<svg version="1.1" xmlns="http://www.w3.org/2000/svg" xmlns:xlink="http://www.w3.org/1999/xlink" x="0px" y="0px" width="100px"
	 height="100px" viewBox="0 0 100 100" style="enable-background:new 0 0 100 100;" xml:space="preserve">
<g id="MG">
	<path style="fill:#010101;" d="M66.584,0c0.228,0,0.449,0,0.671,0c0.06,0.164,0.182,0.154,0.269,0.268
		c0.022,0.077,0.045,0.156,0.067,0.233c0.173,0.266,0.468,0.454,0.567,0.803c0.036,0.127-0.1,0.545-0.1,0.803
		c0.312,0.211,1.039,0.953,1.238,1.272c0.031,0.122,0.063,0.245,0.1,0.367c0.046,0.068,0.159,0.125,0.199,0.2
		c0.01,0.068,0.023,0.134,0.032,0.202c0.068,0.054,0.136,0.111,0.204,0.166c0.127,0.195,0.182,0.431,0.299,0.638
		c0.046,0.082,0.187,0.143,0.236,0.233c0.009,0.077,0.019,0.154,0.032,0.233c0.067,0.057,0.131,0.111,0.199,0.168
		c0.031,0.1,0.068,0.2,0.1,0.299c0.06,0.046,0.113,0.091,0.168,0.134c0.014,0.068,0.023,0.134,0.036,0.202
		c0.037,0.075,0.154,0.131,0.199,0.2c0.032,0.122,0.068,0.245,0.101,0.367c0.041,0.086,0.168,0.146,0.199,0.236
		c0.014,0.111,0.023,0.222,0.032,0.333c0.041,0.084,0.168,0.129,0.204,0.202c0.022,0.177,0.041,0.356,0.063,0.536
		c0.036,0.072,0.168,0.134,0.204,0.199c0.031,0.188,0.063,0.379,0.1,0.569c0.031,0.064,0.141,0.156,0.168,0.234
		c0.059,0.177,0,0.317,0.063,0.467c0.045,0.1,0.168,0.2,0.204,0.301c0.063,0.188-0.014,0.347,0.063,0.501
		c0.036,0.066,0.136,0.159,0.168,0.234c0.022,0.156,0.045,0.313,0.067,0.469c0.05,0.154,0.187,0.293,0.236,0.467
		c0.022,0.146,0.045,0.29,0.063,0.436c0.032,0.063,0.146,0.158,0.168,0.233c0.055,0.161,0.091,0.495,0.1,0.637
		c0,0.143,0,0.288,0,0.434c0.032,0.095,0.136,0.204,0.168,0.335c0.031,0.125-0.022,0.29-0.032,0.368
		c-0.036,0.224,0.027,0.517,0.068,0.701c0,0.324,0,0.646,0,0.971c0.009,0.03,0.091,0.106,0.1,0.134c0,0.268,0,0.535,0,0.803
		c0.019,0.068,0.109,0.182,0.132,0.268c0.077,0.295-0.022,0.712,0.036,0.968c-0.013,0.279-0.022,0.558-0.036,0.837
		c0.032,0.123,0.136,0.229,0.168,0.335c0,0.166,0,0.333,0,0.501c0.055,0.22,0.1,0.458,0.1,0.769c0,0.167,0,0.333,0,0.501
		c0.091,0.281,0.354,0.631,0.467,0.903c0.023,0.123,0.046,0.245,0.068,0.368c0.05,0.12,0.195,0.204,0.236,0.335
		c0,0.077,0,0.156,0,0.233c0.036,0.106,0.195,0.164,0.231,0.268c0,0.068,0,0.134,0,0.202c0.077,0.259,0.195,0.483,0.304,0.769
		c0.045,0.118,0.19,0.224,0.231,0.333c0.014,0.102,0.022,0.202,0.036,0.302c0.055,0.045,0.108,0.088,0.168,0.134
		c0,0.379,0,0.757,0,1.136c-0.027,0.055-0.141,0.102-0.168,0.168c-0.055,0.134-0.014,0.234-0.068,0.368
		c-0.031,0.072-0.136,0.129-0.168,0.202c-0.031,0.154-0.067,0.311-0.1,0.467c-0.036,0.059-0.136,0.098-0.168,0.168
		c-0.022,0.145-0.045,0.29-0.067,0.433c-0.036,0.09-0.159,0.147-0.2,0.236c-0.009,0.122-0.022,0.245-0.031,0.367
		c-0.045,0.125-0.19,0.246-0.236,0.368c-0.022,0.134-0.045,0.268-0.068,0.401c-0.018,0.054-0.108,0.114-0.131,0.168
		c-0.146,0.317-0.3,1.057-0.567,1.204c-0.412,0.222-1.084-0.286-1.274-0.435c-0.082-0.068-0.187-0.012-0.3-0.066l-0.299-0.27
		c-0.263-0.345-0.195-0.853-0.336-1.336c-0.041-0.138-0.158-0.286-0.199-0.401c-0.023-0.236-0.046-0.469-0.068-0.703
		c-0.027-0.072-0.141-0.143-0.168-0.202c-0.182-0.374,0.109-0.835-0.436-0.903c-0.158-0.106-0.499,0-0.635,0.034
		c-0.463,0.703-0.2,1.238,0.036,1.939c0.022,0.168,0.041,0.336,0.063,0.503c0.046,0.123,0.168,0.252,0.204,0.399
		c0.068,0.32-0.571,1.266-0.403,1.54c0.186,0.503,1.002,0.744,1.17,1.304c0.082,0.272,0.096,1.376,0,1.64
		c-0.032,0.088-0.158,0.172-0.199,0.266c-0.022,0.102-0.045,0.202-0.068,0.301c-0.1,0.17-0.444,0.569-0.499,0.737
		c-0.186,0.558,0.218,0.787,0.3,1.037c0.063,0.202-0.037,0.438-0.068,0.567c-0.154,0.052-0.186,0.166-0.3,0.236
		c-0.163,0.098-0.553,0.093-0.771,0.1c-0.104,0.161-0.354,0.272-0.436,0.433c0,0.057,0,0.113,0,0.168
		c-0.045,0.12-0.182,0.222-0.231,0.335c-0.059,0.131-0.027,0.286-0.1,0.401c-0.045,0.032-0.091,0.066-0.137,0.1
		c-0.031,0.146-0.067,0.291-0.1,0.436c-0.036,0.088-0.158,0.143-0.199,0.234c-0.022,0.122-0.045,0.245-0.068,0.367
		c-0.045,0.084-0.168,0.12-0.199,0.234c-0.073,0.236-0.045,0.625,0,0.837c0,0.222,0,0.445,0,0.669
		c0.136,0.438,0.422,1.524,0.268,2.207c-0.072,0.308-0.195,0.544-0.268,0.837c-0.014,0.211-0.022,0.421-0.031,0.635
		c-0.042,0.109-0.169,0.213-0.205,0.333c-0.022,0.234-0.045,0.47-0.067,0.703c-0.023,0.072-0.141,0.156-0.164,0.234
		c-0.1,0.292,0.014,0.555-0.067,0.869c-0.051,0.181-0.182,0.326-0.236,0.503c-0.009,0.111-0.022,0.222-0.032,0.333
		c-0.04,0.1-0.158,0.177-0.199,0.268c-0.022,0.156-0.045,0.313-0.068,0.467c-0.026,0.059-0.136,0.116-0.167,0.167
		c-0.091,0.148-0.032,0.363-0.101,0.536c-0.036,0.093-0.162,0.17-0.199,0.268c-0.022,0.145-0.045,0.29-0.068,0.436
		c-0.036,0.079-0.163,0.149-0.199,0.234c-0.014,0.109-0.022,0.222-0.036,0.331c-0.041,0.132-0.187,0.277-0.231,0.404
		c-0.022,0.137-0.045,0.268-0.068,0.399c-0.026,0.06-0.136,0.1-0.168,0.168c-0.022,0.145-0.045,0.291-0.067,0.436
		c-0.036,0.104-0.154,0.199-0.2,0.304c-0.022,0.108-0.045,0.223-0.067,0.331c-0.041,0.1-0.159,0.182-0.2,0.304
		c-0.009,0.101-0.022,0.2-0.031,0.3c-0.036,0.1-0.159,0.208-0.2,0.3c-0.062,0.14-0.004,0.286-0.067,0.435
		c-0.036,0.087-0.163,0.2-0.2,0.305c-0.022,0.131-0.045,0.263-0.067,0.398c-0.032,0.073-0.141,0.128-0.168,0.2
		c-0.032,0.223-0.068,0.448-0.1,0.671c-0.046,0.087-0.168,0.182-0.2,0.3c-0.072,0.249,0.037,0.494-0.068,0.703
		c-0.045,0.087-0.167,0.15-0.199,0.268c-0.013,0.177-0.022,0.358-0.036,0.535c-0.032,0.1-0.163,0.199-0.199,0.3
		c-0.023,0.19-0.046,0.38-0.068,0.571c-0.027,0.076-0.141,0.159-0.168,0.231c-0.082,0.235,0.005,0.48-0.1,0.703
		c-0.032,0.072-0.163,0.149-0.2,0.235c-0.009,0.108-0.022,0.223-0.031,0.331c-0.041,0.109-0.19,0.187-0.236,0.305
		c0,0.055,0,0.108,0,0.167c-0.045,0.132-0.182,0.25-0.235,0.368c-0.022,0.108-0.041,0.223-0.063,0.331
		c-0.041,0.091-0.163,0.145-0.204,0.235c-0.019,0.146-0.041,0.291-0.063,0.436c-0.059,0.045-0.113,0.087-0.168,0.132
		c-0.072,0.113-0.014,0.217-0.068,0.367c-0.031,0.091-0.158,0.164-0.199,0.236c-0.031,0.168-0.068,0.335-0.1,0.503
		c-0.046,0.092-0.163,0.204-0.204,0.332c-0.009,0.158-0.019,0.312-0.032,0.467c-0.036,0.104-0.163,0.204-0.199,0.304
		c-0.022,0.236-0.045,0.468-0.068,0.703c-0.027,0.072-0.136,0.127-0.168,0.2c-0.022,0.154-0.04,0.312-0.063,0.467
		c-0.059,0.177-0.186,0.381-0.235,0.567c-0.014,0.145-0.022,0.29-0.032,0.436c-0.041,0.112-0.163,0.194-0.204,0.304
		c-0.022,0.231-0.045,0.467-0.063,0.703c-0.027,0.072-0.141,0.154-0.168,0.231c-0.086,0.235-0.013,0.444-0.1,0.671
		c-0.041,0.104-0.163,0.236-0.204,0.367c-0.019,0.2-0.041,0.399-0.063,0.6c-0.031,0.081-0.141,0.163-0.168,0.235
		c-0.022,0.19-0.045,0.381-0.068,0.567c-0.04,0.131-0.153,0.295-0.199,0.436c-0.022,0.176-0.045,0.358-0.068,0.535
		c-0.04,0.112-0.158,0.244-0.199,0.367c-0.022,0.19-0.045,0.381-0.068,0.571c-0.04,0.087-0.163,0.195-0.199,0.3
		c-0.055,0.159,0.005,0.299-0.068,0.436c-0.031,0.059-0.136,0.1-0.168,0.168c-0.059,0.131-0.009,0.244-0.067,0.398
		c-0.027,0.073-0.127,0.109-0.164,0.168c-0.062,0.096-0.018,0.177-0.067,0.3c-0.031,0.072-0.132,0.108-0.168,0.168
		c-0.072,0.112-0.041,0.227-0.1,0.367c-0.045,0.113-0.187,0.195-0.236,0.304c-0.127,0.281-0.145,0.495-0.268,0.767
		c-0.05,0.113-0.182,0.2-0.231,0.304c-0.022,0.109-0.045,0.223-0.068,0.332c-0.036,0.072-0.167,0.136-0.199,0.203
		c-0.022,0.146-0.045,0.287-0.068,0.432c-0.054,0.108-0.194,0.19-0.235,0.336c-0.068,0.24,0.027,0.59-0.063,0.803
		c-0.027,0.059-0.145,0.127-0.168,0.199c-0.1,0.295,0.073,0.567-0.036,0.902c-0.05,0.168-0.187,0.436-0.231,0.604
		c0,0.168,0,0.336,0,0.504c-0.086,0.372-0.172,0.734-0.268,1.07c0,0.108,0,0.223,0,0.331c-0.036,0.127-0.158,0.231-0.2,0.336
		c-0.022,0.154-0.045,0.312-0.067,0.467c-0.041,0.123-0.154,0.228-0.204,0.336c-0.032,0.19-0.063,0.381-0.1,0.567
		c-0.041,0.104-0.164,0.181-0.2,0.304c-0.009,0.132-0.022,0.268-0.031,0.399c-0.031,0.095-0.132,0.154-0.168,0.235
		c-0.032,0.191-0.068,0.376-0.1,0.567c-0.031,0.077-0.141,0.159-0.168,0.235c-0.032,0.191-0.068,0.377-0.1,0.567
		c-0.032,0.072-0.137,0.154-0.168,0.236c-0.022,0.154-0.045,0.312-0.068,0.467c-0.05,0.149-0.19,0.249-0.231,0.399
		c-0.013,0.168-0.022,0.336-0.036,0.503c-0.032,0.096-0.158,0.159-0.199,0.236c-0.022,0.154-0.045,0.308-0.068,0.467
		c-0.045,0.128-0.149,0.318-0.199,0.468c-0.009,0.123-0.023,0.244-0.032,0.367c-0.036,0.1-0.163,0.177-0.204,0.268
		c-0.022,0.168-0.041,0.336-0.063,0.504c-0.036,0.1-0.163,0.199-0.204,0.299c-0.019,0.177-0.041,0.359-0.063,0.535
		c-0.041,0.096-0.163,0.187-0.2,0.3c-0.022,0.168-0.045,0.336-0.067,0.504c-0.041,0.086-0.168,0.194-0.2,0.299
		c-0.013,0.136-0.022,0.268-0.036,0.404c-0.026,0.076-0.131,0.14-0.168,0.199c-0.09,0.168-0.026,0.363-0.1,0.567
		c-0.036,0.104-0.163,0.204-0.199,0.304c-0.022,0.199-0.045,0.399-0.068,0.599c-0.036,0.117-0.154,0.204-0.199,0.304
		c-0.022,0.132-0.045,0.268-0.068,0.399c-0.04,0.117-0.158,0.291-0.199,0.403c-0.014,0.132-0.022,0.268-0.032,0.399
		c-0.036,0.104-0.163,0.209-0.204,0.304c-0.141,0.322-0.05,0.549-0.299,0.803c-0.041,0.036-0.327,0.245-0.368,0.268
		c-0.095,0.041-0.186,0.014-0.268,0.064c-0.077,0.049-0.136,0.158-0.236,0.199c-0.1,0.023-0.2,0.045-0.299,0.068
		c-0.077,0.049-0.136,0.163-0.236,0.199c-0.077,0.014-0.154,0.023-0.231,0.036c-0.045,0.055-0.09,0.108-0.136,0.168
		c-0.1,0.032-0.199,0.063-0.299,0.1c-0.072,0.041-0.113,0.164-0.2,0.2c-0.09,0.013-0.181,0.022-0.268,0.031
		c-0.086,0.041-0.131,0.164-0.204,0.204c-0.131,0.023-0.268,0.041-0.399,0.063c-0.104,0.036-0.227,0.146-0.336,0.168
		c-0.086,0.018-0.767-0.009-0.834-0.031c-0.186-0.06-0.535-0.231-0.835-0.101c-0.068,0.027-0.113,0.137-0.167,0.168
		c-0.127,0.063-0.24,0.009-0.368,0.063c-0.086,0.036-0.131,0.164-0.204,0.204c-0.127,0.068-0.254,0.023-0.367,0.1
		c-0.045,0.056-0.086,0.109-0.132,0.168c-0.086,0.051-0.186,0.019-0.268,0.063c-0.077,0.046-0.15,0.168-0.236,0.204
		c-0.122,0.045-0.204,0-0.299,0.063c-0.045,0.06-0.091,0.113-0.136,0.168c-0.1,0.036-0.2,0.068-0.299,0.101
		c-0.032,0.045-0.068,0.091-0.1,0.136c-0.1,0.022-0.2,0.045-0.3,0.067c-0.09,0.037-0.131,0.159-0.204,0.2
		c-0.136,0.077-0.277,0.055-0.399,0.132c-0.059,0.04-0.095,0.14-0.168,0.167c-0.077,0.014-0.154,0.023-0.236,0.032
		c-0.086,0.05-0.15,0.195-0.231,0.236c-0.068,0.013-0.136,0.022-0.204,0.036c-0.073,0.045-0.113,0.158-0.2,0.199
		c-0.086,0.009-0.177,0.023-0.268,0.032c-0.073,0.036-0.131,0.158-0.2,0.199c-0.122,0.036-0.245,0.068-0.367,0.1
		c-0.032,0.045-0.068,0.091-0.1,0.137c-1.047,0-2.095,0-3.144,0c-0.218-0.313-0.639-0.504-0.971-0.703
		c-0.054-0.068-0.113-0.132-0.167-0.2c-0.063-0.045-0.131-0.022-0.2-0.068c-0.032-0.055-0.068-0.108-0.1-0.167
		c-0.072-0.068-0.14-0.041-0.236-0.101c-0.045-0.055-0.09-0.108-0.131-0.167c-0.09-0.032-0.181-0.064-0.268-0.101
		c-0.059-0.067-0.113-0.131-0.168-0.199c-0.163-0.104-0.358-0.032-0.571-0.1c-0.095-0.032-0.259-0.137-0.368-0.168
		c-0.177-0.055-0.327,0.013-0.467,0c-0.48-0.055-0.984-0.1-1.338-0.3c-0.2-0.112-0.395-0.422-0.536-0.603
		c-0.086-0.068-0.177-0.137-0.268-0.2c-0.05-0.068-0.063-0.159-0.131-0.204c-0.572-0.367-1.279-0.558-1.638-1.134
		c-0.045-0.072-0.004-0.141-0.036-0.236c-0.05-0.145-0.186-0.286-0.231-0.436c-0.014-0.131-0.022-0.268-0.036-0.398
		c-0.036-0.123-0.159-0.2-0.2-0.305c-0.014-0.131-0.022-0.268-0.032-0.398c-0.045-0.155-0.19-0.249-0.236-0.368
		c-0.009-0.122-0.022-0.244-0.032-0.367c-0.05-0.177-0.182-0.304-0.236-0.436c0-0.055,0-0.113,0-0.168
		c-0.05-0.136-0.798-0.843-0.935-0.935c-0.127-0.086-0.258-0.076-0.336-0.203c-0.09-0.137-0.009-0.318-0.068-0.5
		c-0.018-0.055-0.122-0.148-0.131-0.199c-0.027-0.117,0.077-0.367,0.032-0.535c-0.014-0.045-0.086-0.159-0.1-0.204
		c-0.136-0.458,0.078-1.066-0.036-1.569c-0.054-0.264,0.05-0.703-0.032-1.003c-0.027-0.104-0.15-0.231-0.168-0.336v-1.138
		c0.059-0.259,0.485-0.73,0.671-0.903c0-0.168,0-0.331,0-0.499c-0.045-0.036-0.73-0.839-0.734-0.871c0-0.091,0-0.176,0-0.268
		c-0.159-0.68,0.036-1.221-0.304-1.737c-0.172-0.271-0.454-0.439-0.703-0.64c-0.041-0.031-0.032-0.086-0.063-0.131
		c-0.127-0.159-0.354-0.264-0.472-0.436c-0.032-0.091-0.063-0.177-0.1-0.268c-0.045-0.032-0.086-0.068-0.131-0.101
		c-0.022-0.145-0.045-0.29-0.068-0.435c-0.036-0.092-0.163-0.146-0.199-0.231c-0.023-0.146-0.045-0.291-0.068-0.436
		c-0.031-0.082-0.136-0.159-0.167-0.236c-0.095-0.218-0.023-0.444-0.1-0.703c-0.027-0.091-0.141-0.181-0.168-0.268
		c-0.022-0.312-0.045-0.622-0.068-0.935c-0.022-0.067-0.141-0.113-0.163-0.168c0-0.68,0-1.36,0-2.041c0-0.254,0-0.512,0-0.767
		c0.022-0.055,0.141-0.1,0.163-0.168c0.014-0.223,0.023-0.448,0.036-0.671c0.041-0.118,0.187-0.213,0.231-0.331
		c0.023-0.101,0.045-0.204,0.068-0.305c0.204-0.317,0.59-0.666,0.735-1.034c0.104-0.263,0.199-0.458,0.268-0.734
		c0.014-0.236,0.022-0.472,0.036-0.703c0.027-0.1,0.136-0.2,0.168-0.304c0-0.109,0-0.223,0-0.331c0.05-0.218,0.127-0.5,0.268-0.636
		c0.1-0.108,1.18-0.454,1.402-0.472c0.1-0.159,0.299-0.363,0.367-0.535c0.036-0.223,0.068-0.444,0.1-0.667
		c0.041-0.095,0.164-0.187,0.204-0.299c0.009-0.137,0.023-0.268,0.032-0.404c0.046-0.127,0.191-0.271,0.236-0.399
		c0.009-0.136,0.023-0.268,0.032-0.403c0.022-0.055,0.104-0.091,0.136-0.132c0.068-0.108,0.059-0.227,0.131-0.335
		c0.177-0.272,0.526-0.468,0.703-0.735c0.077-0.117,0.022-0.235,0.068-0.403c0.05-0.2,0.177-0.349,0.231-0.535
		c0.014-0.101,0.022-0.2,0.036-0.3c0.218-0.49,0.703-0.771,0.966-1.202c0.091-0.149,0.005-0.349,0.068-0.54
		c0.037-0.1,0.164-0.204,0.2-0.299c0-0.055,0-0.108,0-0.168c0.05-0.132,0.204-0.19,0.268-0.3c0.014-0.055,0.023-0.112,0.036-0.168
		c0.046-0.081,0.15-0.127,0.2-0.199c0.023-0.068,0.045-0.136,0.068-0.199c0.086-0.082,0.177-0.159,0.268-0.236
		c0.154-0.263,0.254-0.567,0.467-0.771c0.004-0.694-0.681-1.222-0.467-1.838c0.032-0.091,0.163-0.177,0.199-0.268
		c0.023-0.168,0.046-0.336,0.068-0.503c0.077-0.204,0.367-0.73,0.163-1.103c-0.082-0.154-0.294-0.322-0.399-0.468
		c-0.159-0.227-0.213-0.467-0.368-0.703c-0.054-0.045-0.113-0.091-0.167-0.131c-0.032-0.104-0.068-0.204-0.1-0.305
		c-0.204-0.308-0.521-0.599-0.671-0.971c-0.276-0.702,0.536-1.615,0.136-2.34c-0.054-0.045-0.113-0.086-0.168-0.132
		c-0.05-0.1-0.009-0.186-0.068-0.268c-0.054-0.046-0.109-0.089-0.168-0.135c-0.045-0.077,0.005-0.166-0.032-0.268
		c-0.077-0.218-0.34-0.47-0.467-0.669c-0.063-0.1-0.004-0.208-0.068-0.333c-0.068-0.057-0.132-0.114-0.2-0.168
		c-0.032-0.1-0.068-0.2-0.1-0.302c-0.037-0.059-0.141-0.095-0.168-0.167c-0.113-0.279,0.041-0.642-0.068-0.969
		c-0.023-0.077-0.141-0.161-0.168-0.233c0-0.268,0-0.536,0-0.803c-0.15-0.642,0.014-1.624-0.132-2.275c0-0.279,0-0.558,0-0.837
		c-0.013-0.029-0.086-0.075-0.1-0.1c-0.077-0.129-0.041-0.236-0.1-0.401c-0.086-0.229-0.368-0.438-0.268-0.869
		c0.073-0.338,0.177-0.35,0.268-0.569c0.022-0.1,0.041-0.2,0.063-0.3c0.05-0.079,0.163-0.136,0.204-0.235
		c0.009-0.088,0.022-0.177,0.032-0.268c0.041-0.072,0.163-0.116,0.2-0.199c0.014-0.111,0.022-0.222,0.036-0.336
		c0.032-0.086,0.154-0.127,0.2-0.2c0.022-0.111,0.045-0.222,0.068-0.333c0.045-0.104,0.19-0.163,0.231-0.268
		c0.014-0.09,0.022-0.179,0.036-0.27c0.104-0.236,0.358-0.524,0.467-0.769c0.059-0.136,0.032-0.268,0.1-0.401
		c0.082-0.159,0.386-0.511,0.436-0.635c0.009-0.088,0.023-0.177,0.032-0.268c0.055-0.118,0.186-0.193,0.236-0.333
		c0.023-0.111,0.045-0.222,0.064-0.335c0.045-0.032,0.09-0.066,0.136-0.1c0.032-0.145,0.068-0.288,0.1-0.435
		c0.032-0.057,0.136-0.098,0.167-0.166c0.023-0.102,0.045-0.202,0.068-0.301c0.06-0.111,0.218-0.193,0.268-0.333
		c0-0.08,0-0.156,0-0.236c0.027-0.08,0.141-0.141,0.168-0.234c0.082-0.295-0.376-0.943-0.436-1.136
		c-0.14-0.436-0.018-1.139,0.032-1.572c0.227-0.08,0.227-0.254,0.535-0.268c0.204-0.125,0.553,0.027,0.703,0.066
		c0.222,0,0.445,0,0.667,0c0.499,0,1.247,0.116,1.674-0.034c0.227-0.077,0.685-0.603,0.834-0.801c0.44-0.583,1.066-1.021,1.574-1.54
		c0.159,0.043,0.24,0.147,0.367,0.202c0.077,0.011,0.154,0.022,0.231,0.034c0.073,0.037,0.118,0.166,0.204,0.2
		c0.381,0.154,0.871,0.016,1.27,0c0.186-0.27,0.522-0.354,0.803-0.535c0.173-0.114,0.354-0.374,0.536-0.467
		c0.109-0.022,0.222-0.045,0.331-0.068c0.063-0.032,0.132-0.143,0.204-0.168c0.34-0.12,0.776,0.059,1.134-0.066
		c0.122-0.043,0.208-0.161,0.335-0.2c0.2-0.063,0.399-0.011,0.567-0.102c0.045-0.021,0.086-0.114,0.136-0.134
		c0.2-0.032,0.399-0.065,0.604-0.1c0.059-0.032,0.122-0.138,0.2-0.168c0.199-0.02,0.399-0.043,0.603-0.065
		c0.327-0.146,0.581-0.59,0.834-0.737c0.068-0.009,0.132-0.021,0.2-0.032c0.055-0.068,0.114-0.134,0.168-0.202
		c0.213-0.144,0.417-0.19,0.635-0.333c0.054-0.068,0.113-0.134,0.167-0.202c0.078-0.05,0.182-0.016,0.268-0.065
		c0.046-0.057,0.091-0.111,0.132-0.168c0.082-0.022,0.159-0.045,0.236-0.066c0.054-0.068,0.113-0.134,0.168-0.202
		c0.213-0.146,0.417-0.193,0.635-0.333c0.168-0.111,0.332-0.324,0.503-0.436c0.078-0.022,0.154-0.045,0.231-0.068
		c0.055-0.066,0.114-0.132,0.168-0.2c0.114-0.034,0.222-0.068,0.335-0.1c0.399-0.254,0.849-0.465,1.238-0.737
		c0.223-0.156,0.608-0.755,0.699-1.037c0.022-0.177,0.045-0.356,0.067-0.535c0.168-0.377,0.554-0.592,0.771-0.903
		c0.263-0.376,0.467-0.869,1.103-0.869c0.136,0.123,0.376,0.24,0.467,0.401c0.213,0.374,0,0.706,0.604,0.703
		c0.199-0.313,0.395-0.617,0.503-1.039c0.041-0.177-0.099-0.66-0.136-0.835c-0.072-0.345-0.009-1.238,0.1-1.44
		c0.05-0.088,0.168-0.177,0.2-0.299c0-0.134,0-0.268,0-0.402c0.054-0.158,0.345-0.421,0.503-0.469c0.113,0,0.223,0,0.336,0
		c0.213-0.098,0.631-1.096,0.635-1.47c-0.1-0.068-0.39-0.521-0.436-0.635c-0.09-0.231-0.09-1.644,0-1.874
		c0.123-0.322,0.74-0.843,1.103-0.937c1.329-0.345,1.03,0.894,1.842,0.937c0.036-0.059,0.082-0.122,0.132-0.167
		c0.014-0.268,0.022-0.535,0.036-0.803c-0.195-0.12-0.463-0.313-0.672-0.401c-0.344-0.145-0.734-0.127-0.902-0.433
		c-0.077-0.143-0.036-0.46,0.036-0.569c0.255-0.399,1.053-0.775,1.401-1.139c0.69,0,0.958,0.726,1.375,1.039
		c0.082,0.063,0.209,0.202,0.299,0.233c0.191,0.012,0.377,0.022,0.567,0.034c0.336,0.127,0.635,0.424,1.103,0.433
		c0.286-0.442,0.036-0.603,0.168-1.136c0.031-0.118,0.127-0.211,0.168-0.302c0.022-0.122,0.045-0.245,0.067-0.367
		c0.037-0.098,0.159-0.159,0.2-0.234c0.072-0.125,0.031-0.274,0.1-0.401c0.06-0.045,0.113-0.088,0.168-0.134
		c0.163-0.227,0.381-0.669,0.467-0.937c0.082-0.252-0.09-0.411-0.132-0.536c-0.013-0.134-0.022-0.268-0.031-0.401
		c-0.027-0.077-0.131-0.14-0.168-0.2c-0.036-0.179-0.068-0.358-0.1-0.535c-0.173-0.276-0.771-0.676-1.039-0.905
		c-0.095-0.082-0.145-0.24-0.235-0.333c0-0.224,0.014-0.456,0.036-0.635c0.317-0.218,0.513-0.63,1.034-0.635
		c0.068,0.109,0.545,0.445,0.771,0.367c0.213-0.072,1.115-0.866,1.202-1.07c0-0.123,0-0.245,0-0.368
		c-0.113-0.177,0.014-0.508,0.067-0.635C65.858,0.617,66.308,0.408,66.584,0z"/>
</g>
<g id="Layer_1">
</g>
</svg>
