<?xml version="1.0" encoding="iso-8859-1"?>
<!-- Generator: Adobe Illustrator 16.0.3, SVG Export Plug-In . SVG Version: 6.00 Build 0)  -->
<!DOCTYPE svg PUBLIC "-//W3C//DTD SVG 1.1//EN" "http://www.w3.org/Graphics/SVG/1.1/DTD/svg11.dtd">
<svg version="1.1" xmlns="http://www.w3.org/2000/svg" xmlns:xlink="http://www.w3.org/1999/xlink" x="0px" y="0px" width="100px"
	 height="100px" viewBox="0 0 100 100" style="enable-background:new 0 0 100 100;" xml:space="preserve">
<g id="MK">
	<path style="fill:#010101;" d="M98.537,43.815c1.353-1.303,1.506-1.875,1.455-3.647c-0.051-1.767-1.769-1.404-2.707-2.082
		c-0.938-0.676-1.354-2.656-2.604-4.737c-1.245-2.084-1.769-5.261-2.133-6.665c-0.363-1.407-3.696-2.393-6.04-3.126
		c-2.343-0.728-5.413-1.716-6.875-2.549c-1.456-0.835-2.496-2.656-2.81-4.116c-0.313-1.456-2.133-3.121-3.384-3.954
		c-0.811-0.541-0.938-1.098-1.034-1.68c-0.032-0.164-0.058-0.324-0.096-0.491c-0.115-0.511-3.263,0.417-4.303,0.626
		c-1.041,0.207-2.012-0.071-3.333-0.209c-1.315-0.14-1.94,0.209-3.263,0.485c-1.321,0.278-1.807-0.625-3.473-0.692
		c-1.66-0.069-3.952,1.734-5.344,1.734c-1.386,0-1.041-1.667-1.667-2.082c-0.626-0.419-0.275,1.596-1.526,3.818
		s-2.847,1.525-5.483,1.389c-2.637-0.141-5.07-0.557-7.847,0.347c-2.777,0.899-5.133,5.621-6.181,6.385
		c-1.04,0.766-2.151-1.111-3.537-3.192c-1.391-2.083-2.917-0.904-3.402,0.138c-0.485,1.042-2.011,1.598-4.099,2.569
		c-2.082,0.971-5.133,2.362-6.94,3.261c-1.807,0.904-0.625,6.458-0.759,8.126c-0.14,1.665-2.222,5.863-3.269,6.175
		c-0.722,0.217-2.547,0.937-4.054,1.359c0,0.031,0,0.069-0.006,0.102c-0.102,0.728-1.354,3.156-1.456,4.579
		c-0.102,1.425,0.383,3.647,0.9,4.653c0.524,1.008,0.664,2.396,0.141,2.674c-0.523,0.278-1.385,0.59-2.253,0.867
		c-0.868,0.279-1.354,0.902-1.079,1.285c0.28,0.378,0.938,1.908,1.947,2.671c1.002,0.764,0.728,1.282,0.485,2.049
		c-0.243,0.764,0.103,1.77,0.517,2.396c0.415,0.625,0.485,1.979,0.07,3.019c-0.415,1.041-0.76,2.777-0.696,3.854
		c0.07,1.074,0.906,2.913,1.947,4.164c1.041,1.249,1.839,2.016,1.941,3.192c0.025,0.256,0.051,0.447,0.077,0.61l2.042-3.629
		c0,0,1.354,1.04,3.02,1.563c1.667,0.521,1.769,1.977,2.082,3.33c0.312,1.356,0.523,2.604,0.21,3.23
		c-0.312,0.623-0.21,3.021-0.21,3.956c0,0.937-2.496,1.562-2.496,1.562s0.019,0.212,0.102,0.498
		c0.613-0.014,1.296,0.022,1.947,0.094c0.971,0.103,2.043-1.146,2.912-1.251c0.868-0.106,1.979-0.278,2.815,0
		c0.364,0.12,0.741,0.064,1.092,0.008c-0.019-0.429-0.153-1.014-0.748-1.014c-0.938,0-0.625-1.045-0.102-2.083
		c0.518-1.043,1.769-1.669,3.436-1.354c1.666,0.312,2.292,2.084,2.809,3.851c0.523,1.772,1.04,3.542,1.04,3.542
		s0.735-0.622,2.292-1.146c1.564-0.521,1.979-0.103,4.168,0.523c2.184,0.622,2.912-0.73,4.789-2.187
		c1.877-1.46,3.019-0.939,4.635-0.733c0.951,0.126,2.029,2.45,2.547,2.45c0.523,0,4.221-1.979,4.533-2.501
		c0.312-0.519,1.041-1.194,2.184-1.302c1.149-0.105,1.666-0.677,2.343-1.404c0.677-0.731,0.989-1.563,2.088-2.136
		c1.092-0.571,1.193-1.197,1.404-2.551c0.205-1.354,0.574-2.707,1.979-3.852c1.404-1.146,3.122-1.667,4.373-1.46
		c1.251,0.209,2.395,0.521,2.86-0.156c0.473-0.677,0.938-1.716,2.241-1.768c1.303-0.056,4.475,0.362,6.875,0.986
		c2.395,0.625,5.102,0.938,6.558,0.886c1.455-0.054,3.332-1.251,4.584-2.395c1.244-1.145,1.558-0.938,2.444-0.261
		c0.888,0.677,1.354-0.207,1.718-1.407c0.364-1.198,0-4.894,0-6.872c0-1.977,3.384-0.83,4.846-0.935
		c1.456-0.107,2.343-0.784,2.343-0.784s-0.058-1.091-0.159-2.081c-0.103-0.989,0.262-2.394,0.938-4.166
		c0.677-1.771-0.523-3.695-1.041-5.623C97.336,46.626,97.183,45.117,98.537,43.815z"/>
</g>
<g id="Layer_1">
</g>
</svg>
