<?xml version="1.0" encoding="iso-8859-1"?>
<!-- Generator: Adobe Illustrator 16.0.3, SVG Export Plug-In . SVG Version: 6.00 Build 0)  -->
<!DOCTYPE svg PUBLIC "-//W3C//DTD SVG 1.1//EN" "http://www.w3.org/Graphics/SVG/1.1/DTD/svg11.dtd">
<svg version="1.1" xmlns="http://www.w3.org/2000/svg" xmlns:xlink="http://www.w3.org/1999/xlink" x="0px" y="0px" width="100px"
	 height="100px" viewBox="0 0 100 100" style="enable-background:new 0 0 100 100;" xml:space="preserve">
<g id="MN">
	<path style="fill:#010101;" d="M42.931,28.424c0.623,0.25,1.463,0.337,1.5,1.313c0.037,0.975,0.301,2.365,0.339,2.777
		c0.037,0.412,0.225,0.6,0.413,0.6c0.188,0,0.45,0.488,0.787,0.638c0.338,0.149,1.201,0.488,1.764,0.75
		c0.563,0.263,1.651,0.337,2.178,0.337c0.524,0,0.524-0.375,0.975-0.412c0.45-0.037,1.351-0.563,2.138-0.675
		c0.788-0.113,2.777-0.225,3.115-0.113c0.338,0.113,0.938,0.263,1.463,0.188c0.526-0.075,0.826,0.337,1.015,0.675
		c0.187,0.337,0.45,1.126,0.787,1.238c0.337,0.113,1.013,0.375,1.389,0.338c0.375-0.038,0.524-0.075,0.863,0.451
		c0.337,0.525,0.938,1.087,1.313,1.239c0.375,0.149,0.525,0.75,1.238,0.75s1.2-0.526,1.538-0.413
		c0.338,0.112,0.788,0.788,1.314,0.75c0.524-0.037,0.824-0.263,1.124-0.187c0.302,0.075,0.602,0.375,0.826,0.075
		c0.226-0.3,0.488-0.376,0.713-0.075c0.226,0.3,0.901,0.45,1.239,0.037c0.337-0.413,0.337-0.413,0.562-0.375
		c0.225,0.037,0.713-0.038,0.826-0.3c0.111-0.263,0.149-0.226,0.45-0.226c0.3,0,0.899,0.15,1.576-0.225
		c0.675-0.375,1.275-0.789,1.538-0.751c0.262,0.038,0.713,0,0.976-0.112c0.263-0.113,0.825-0.301,0.862-0.488
		c0.038-0.188,0.076-0.975,0.676-1.427c0.601-0.449,1.126-1.05,1.202-1.312c0.074-0.264,0.413-0.601,0.787-0.638
		c0.376-0.037,1.651-0.15,2.439,0.188c0.788,0.337,1.651,0.788,2.026,0.938c0.375,0.149,1.088,0.037,1.464-0.15
		c0.375-0.188,0.75-0.938,1.163-0.451c0.413,0.488,0.713,0.525,0.713,0.525s-0.037,0.826-0.413,1.764
		c-0.375,0.938-0.375,1.876-0.562,2.102c-0.188,0.224-0.226,0.862-0.188,1.238c0.037,0.376-0.562,0.976-0.562,1.389
		s0.149,0.938-0.264,1.388c-0.412,0.45-0.262,1.126,0.038,1.576c0.3,0.451,1.651,1.463,1.802,1.201
		c0.149-0.263,0.187-1.276,0.637-1.276s0.977-0.112,1.126-0.412c0.15-0.301,0.601-0.263,1.051,0.075
		c0.451,0.337,0.938,0.826,1.389,0.337c0.45-0.488,0.525-1.387,0.639-1.387c0.111,0,1.163-0.452,1.463-0.452
		s1.239,0.638,1.727,0.638s1.013,0.113,1.089,0.488c0.074,0.375,0.524,0.826,0.787,0.938c0.263,0.113,1.051,1.239,1.352,1.464
		c0.3,0.225,0.862,0.975,0.6,1.613s-0.788,0.563-1.201,0.638c-0.412,0.075-0.75-0.075-0.975-0.15
		c-0.226-0.075-0.864,0.375-1.389,0.375c-0.525,0-1.014-0.037-1.239,0.3c-0.225,0.338-0.899,1.013-1.312,1.013s-0.9,0.076-0.9,0.489
		c0,0.413-0.113,0.825-0.713,0.825c-0.602,0-1.239-0.149-1.539,0.301c-0.301,0.451-0.525,1.013-0.826,1.201
		c-0.3,0.188-0.224,0.75-0.188,1.087c0.038,0.339,0,1.127-0.488,1.127c-0.487,0-0.637,0.375-0.637,0.751
		c0,0.375-0.751,0.6-1.276,0.6s-2.626,0.037-3.002,0.3c-0.376,0.264-0.264,1.09-0.639,1.614c-0.375,0.525-0.787,1.163-1.125,1.576
		c-0.339,0.413-0.488,0.938-1.089,0.676c-0.6-0.263-0.863,0.037-1.389-0.3c-0.524-0.338-1.163,0.037-1.576-0.188
		c-0.412-0.226-0.487-0.488-0.787-0.712c-0.3-0.227-1.126-0.226-1.576-0.15c-0.45,0.074-0.976,0.675-1.051,1.575
		c-0.075,0.901-0.563,1.838-0.301,2.327c0.263,0.487,1.126,1.05,1.389,1.613s0.526,1.613-0.639,2.063
		c-1.163,0.45-2.176,0.977-2.363,1.426c-0.188,0.45-0.938,1.427-1.426,1.989s-1.051,1.163-1.689,1.163
		c-0.637,0-1.013,0.901-1.576,1.089c-0.562,0.187-2.213,0.149-2.664,0.149c-0.45,0-1.988-0.187-2.326,0
		c-0.338,0.188-1.164,0.226-1.276,0s-0.938-0.263-1.2-0.112c-0.263,0.149-0.526,0.788-1.389,0.788c-0.863,0-1.877,0.412-3.077,0.863
		c-1.201,0.45-2.438,1.613-3.002,1.988c-0.563,0.376-0.788,0.562-1.201,0.413c-0.413-0.15-0.638,0.075-1.013,0.075
		s-0.413-0.976-0.413-1.089c0-0.112-0.337-0.562-0.75-0.413c-0.412,0.15-1.426,0.563-2.176,0.189
		c-0.751-0.376-1.651-1.576-2.102-1.615c-0.45-0.037-1.989,0-2.365-0.15c-0.375-0.149-1.051,0.001-1.351-0.712
		s-0.825-1.051-1.726-1.051s-1.014-0.225-1.877-0.225c-0.862,0-1.839-0.338-2.288-0.338c-0.45,0-1.652-0.075-2.328,0.188
		c-0.675,0.262-1.876-0.038-2.326-0.038s-2.026-0.413-2.814-0.524c-0.787-0.113-2.29-0.339-2.89-0.339
		c-0.601,0-1.576-0.524-1.989-0.524c-0.412,0-1.126-0.038-1.126-0.45c0-0.413-0.337-0.901-0.637-1.014
		c-0.301-0.112-1.013-0.45-1.013-1.088c0-0.639-0.188-1.539-0.414-2.515c-0.225-0.977-0.525-1.351-0.375-1.689
		c0.15-0.337-0.112-0.749,0.075-0.975s0-0.412-0.413-0.412c-0.412,0-1.426,0.224-1.988-0.526c-0.563-0.75-1.39-1.313-1.802-1.576
		s-0.788-1.126-1.464-1.65c-0.676-0.526-2.438-1.238-3.002-1.238c-0.562,0-2.25-0.188-2.889-0.526
		c-0.638-0.337-2.14-1.087-2.289-1.087c-0.15,0-0.338-0.15-0.338-0.489c0-0.337-0.863-0.674-0.788-1.05
		c0.075-0.376,0.375-1.163,0.713-1.39c0.337-0.224,0.976-0.674,0.976-0.975c0-0.3-0.225-1.013-0.038-1.387
		c0.188-0.376,0.451-0.79,0.562-1.052c0.113-0.263,0.15-1.087-0.037-1.463c-0.188-0.376-0.901-1.576-0.901-2.064
		s-0.225-1.501,0-1.839s-0.45-1.239-0.826-1.276c-0.375-0.036-1.087,0.076-1.238-0.3c-0.15-0.375-0.075-1.239-0.45-1.501
		s-1.126,0.414-1.276,0.189c-0.149-0.226-0.187-0.563-0.487-0.563c-0.301,0-0.526-0.525-0.526-0.75s-0.337-0.413-0.525-0.413
		c-0.188,0-0.3-0.487-0.3-0.638c0-0.149-0.262-0.3-0.601-0.562C0.113,36.192,0,35.478,0,35.291c0-0.188,0.413-0.789,0.15-0.789
		c-0.264,0-0.113-0.601,0.075-0.675c0.188-0.075,0.45-0.525,0.563-0.676c0.112-0.149,0.674,0.001,0.9-0.3
		c0.224-0.3,0.375-0.601,1.238-0.413c0.862,0.188,1.05,0.638,1.538,0.601c0.489-0.038,0.601-0.562,1.014-0.562
		s0.825-0.001,0.825-0.489s0.301-0.75,0.714-0.675c0.412,0.075,0.75-0.337,1.463-0.488s1.427-0.263,1.577-0.713
		c0.15-0.451,0.3-0.638,0.75-0.413s0.676,0.038,0.788-0.15c0.112-0.187,0.488-0.113,0.863-0.149
		c0.375-0.038,0.825-0.451,1.238-0.451s1.013,0.151,1.163-0.413s-0.225-0.977,0.338-0.938c0.563,0.037,0.413,0.713,0.413,1.051
		c0,0.337,0.301,0.825,0.638,0.488c0.338-0.338,0.562-0.638,0.826-0.301c0.263,0.338-0.037,0.375-0.188,0.638
		c-0.15,0.263,0.112,0.488,0.338,0.488c0.225,0,1.764,0.037,2.177,0.225c0.413,0.188,1.426-0.038,1.463,0.225
		c0.039,0.263-0.149,0.901-0.149,1.351s0.338,1.276,0.788,1.388c0.45,0.112,1.276,0.713,1.951,0.938
		c0.676,0.227,1.051,0.226,1.426-0.075c0.375-0.3,0.676,0.301,0.825,0.525c0.15,0.225,0.563,0.113,0.751-0.075
		c0.188-0.188,1.126,0.225,1.389,0.675s1.352,1.238,1.876,1.013c0.525-0.225,0-1.238,0.413-1.238s0.338,0.525,0.713,0.601
		c0.376,0.075,1.052-0.262,1.389-0.676c0.338-0.412,1.051-2.214,1.051-2.401c0-0.188-0.188-0.45-0.487-0.45
		c-0.301,0-0.977-0.901-1.126-1.351c-0.15-0.45-0.45-1.126,0.037-1.764c0.488-0.637,1.389-0.449,1.389-0.788
		c0-0.337,0.074-1.313,0.676-1.538c0.601-0.226,1.463-0.901,1.463-1.164c0-0.263,0.225-0.788,0.45-0.75
		c0.226,0.038,0.188,0.788,0.487,0.901c0.302,0.113,0.752,0.225,1.089,0.338c0.337,0.112,0.639,0.562,0.976,0.562
		c0.338,0,1.201,0.75,1.764,0.825c0.563,0.075,1.238,0.638,1.839,0.826C42.442,28.273,42.666,28.317,42.931,28.424z"/>
</g>
<g id="Layer_1">
</g>
</svg>
