<?xml version="1.0" encoding="iso-8859-1"?>
<!-- Generator: Adobe Illustrator 16.0.3, SVG Export Plug-In . SVG Version: 6.00 Build 0)  -->
<!DOCTYPE svg PUBLIC "-//W3C//DTD SVG 1.1//EN" "http://www.w3.org/Graphics/SVG/1.1/DTD/svg11.dtd">
<svg version="1.1" xmlns="http://www.w3.org/2000/svg" xmlns:xlink="http://www.w3.org/1999/xlink" x="0px" y="0px" width="100px"
	 height="100px" viewBox="0 0 100 100" style="enable-background:new 0 0 100 100;" xml:space="preserve">
<g id="MR">
	<path style="fill:#010101;" d="M66.644,0c1.177,0.55,2.258,1.413,3.342,2.093c2.279,1.429,4.563,2.833,6.821,4.254
		c4.13,2.605,8.271,5.172,12.389,7.766c1.772,1.115,3.576,2.15,5.303,3.308c-0.015,0.011-0.022,0.022-0.034,0.035
		c-0.117,0.103-0.455,0.076-0.676,0.066c-0.213,0.011-0.428,0.022-0.641,0.035c-0.822,0.144-1.74-0.056-2.634,0.1
		c-2.848,0.081-5.696,0.158-8.542,0.236c-0.021,0.045-0.044,0.091-0.066,0.135c-0.097,0.231,0.08,0.85,0.132,1.115
		c0.139,1,0.271,2.003,0.408,3.004c0.483,3.679,0.966,7.361,1.452,11.041c0.402,3.027,0.81,6.055,1.213,9.082
		c1.058,7.629,2.115,15.26,3.174,22.889c0.315,2.375,0.632,4.749,0.947,7.126c0.415,3.093,0.831,6.188,1.248,9.284
		c0.16,0.799,0.186,3.061,0.541,3.544c0.664,0.461,1.328,0.923,1.992,1.383c-0.371,2.185-0.745,4.369-1.115,6.551
		c-0.392,0.192-1.301,0.073-1.823,0.069c-2.386,0.043-4.771,0.088-7.157,0.132c-2.803,0.081-5.604,0.158-8.407,0.238
		c-1.058,0.012-2.116,0.023-3.173,0.032c-0.562,0.011-1.126,0.023-1.688,0.034c-1.102,0.012-2.205,0.022-3.309,0.034
		c-1.17,0-2.34,0-3.512,0c-0.032-0.058-0.066-0.112-0.102-0.17c0.035-0.416,0.069-0.833,0.102-1.247
		c-0.047-0.034-0.09-0.068-0.134-0.104c-0.014,0.012-0.022,0.023-0.036,0.035c-0.264,0.114-0.683,0.702-0.741,1.015
		c0.114,0.325,0.225,0.651,0.338,0.978c-0.155,0.157-0.27,0.181-0.608,0.169c-0.563,0.044-1.124,0.089-1.688,0.135
		c-0.322,0.069-0.557,0.351-0.845,0.438c-0.38-0.032-0.765-0.066-1.147-0.101c-0.351,0.071-0.785,0.286-1.284,0.136
		c-0.138-0.042-0.261-0.223-0.371-0.271c-0.133-0.012-0.271-0.023-0.402-0.032c-0.147-0.053-0.403-0.197-0.541-0.238
		c-0.274-0.08-0.732,0.003-0.879,0.034c-0.364,0.081-0.679-0.196-1.012-0.101c-0.403,0.117-0.66,0.15-1.183,0.135
		c-0.135,0.289-0.126,0.589-0.304,0.812c-0.145,0.178-0.47,0.183-0.574,0.404c-0.024,0.135-0.044,0.271-0.067,0.405
		c-0.062,0.129-0.233,0.131-0.304,0.235c-0.17,0.252-0.105,0.507-0.303,0.71c-0.023-0.011-0.046-0.022-0.069-0.033
		c-0.365-0.177-0.51-0.757-0.778-1.047c-0.526-0.429-1.058-0.856-1.585-1.284c-0.224-0.143-0.48-0.238-0.64-0.438
		c-0.225-0.279-0.77-1.262-1.013-1.385c-0.103-0.023-0.203-0.044-0.307-0.067c-0.145,0.225-1.122,0.907-1.417,0.944
		c-0.067-0.054-0.149-0.09-0.204-0.067c-0.598,0.555-0.925,2.558-1.079,3.444c0.102,0.077,0.205,0.157,0.306,0.235
		c0.009,0.494-0.078,0.79-0.069,1.25c-0.192,0.201-0.382,0.405-0.572,0.606c-0.138,0.035-0.271,0.069-0.407,0.101
		c-0.11,0.138-0.225,0.271-0.337,0.406c-0.158,0.022-0.313,0.045-0.475,0.068c-0.155,0.099-0.08,0.245-0.336,0.302
		c-0.192-0.157-0.4-0.263-0.574-0.438c-0.296,0.074-0.577,0.19-0.912,0.067c-0.178-0.067-1.52-1.031-1.584-1.182
		c-0.151-0.355,0.023-0.54-0.238-0.811c-0.412-0.225-0.723-0.351-1.046-0.642c-0.238-0.009-0.251,0.048-0.506,0.069
		c-0.163-0.218-0.538-0.298-0.676-0.506c-0.085-0.131,0.003-0.401-0.136-0.474c-0.077,0.011-0.157,0.022-0.237,0.033
		c-0.197-0.05-0.518-0.416-0.472-0.609c0.062-0.144,0.164-0.176,0.238-0.301c0-0.013,0-0.023,0-0.035
		c-0.161-0.203-0.458-0.354-0.644-0.54c0.03-0.327,0.073-0.763-0.236-0.843c-0.169,0.055-0.339,0.109-0.505,0.167
		c-0.154-0.122-0.324-0.14-0.405-0.336c-0.119-0.187-0.01-0.335,0.031-0.541c-0.322-0.216-0.595-0.235-1.012-0.339
		c-0.289-0.494-0.009-0.516-0.17-0.943c-0.155-0.327-0.313-0.655-0.472-0.979c-0.068-0.184-0.022-0.303-0.101-0.506
		c-0.112-0.158-0.225-0.316-0.338-0.474c-0.067-0.19-0.133-0.383-0.202-0.576c-0.337-0.274-0.813-0.333-1.113-0.641
		c-0.428,0.012-0.52,0.208-0.879,0.271c-0.135-0.146-0.27-0.291-0.405-0.438c-0.373,0.043-0.533,0.245-0.978,0.271
		c-0.117-0.188-0.225-0.685-0.439-0.778c-0.362-0.154-0.529-0.023-0.508-0.572c-0.118-0.141-0.083-0.241-0.067-0.475
		c-0.572-0.254-1.055-0.773-1.451-1.216c-0.08-0.111-0.158-0.225-0.235-0.337c-0.147-0.011-0.293-0.022-0.44-0.034
		c0,0-0.472-0.4-0.472-0.404c-0.128-0.2,0.005-0.357-0.339-0.371c-0.366-0.202-0.69,0.169-1.147,0.068
		c-0.819-0.184-2.434-0.19-3.308-0.475c-0.192,0.266-0.366,0.175-0.675,0.339c-0.149,0.078-0.173,0.346-0.374,0.403
		c-0.109,0.035-0.824,0.218-1.012,0.17c-0.146-0.037-0.346-0.151-0.606-0.102c-0.188,0.037-0.461,0.221-0.707,0.136
		c-0.151-0.05-0.17-0.19-0.374-0.236c-0.194,0.204-0.318,0.497-0.707,0.506c-0.124-0.022-0.247-0.045-0.373-0.068
		c-0.124,0.081-0.248,0.158-0.371,0.238c-0.296,0.073-0.524-0.094-0.71-0.135c-0.225,0.011-0.451,0.022-0.676,0.033
		c-0.123-0.056-0.246-0.113-0.371-0.169c-0.198-0.038-0.354,0.169-0.506,0.201c-0.057,0.015-0.775-0.032-0.775-0.032
		c-0.284-0.125-0.293-0.464-0.642-0.507c-0.266,0.263-0.622,0.185-1.012,0.27c-0.344,0.595-0.371,1.642-0.744,2.196
		c-0.131,0.189-0.479,0.146-0.606,0.336c-0.151,0.343,0.06,0.875-0.371,0.945c-0.092-0.101-0.181-0.201-0.271-0.304
		c0-0.664,0-1.328,0-1.992c0.108-0.346,0.392-0.751,0.504-1.113c0.146-0.463,0.005-1.032,0.169-1.451
		c0.193-0.488,0.504-1.037,0.678-1.486c0.133-0.351,0.147-0.73,0.335-1.047c0.169-0.203,0.339-0.404,0.508-0.609
		c0.146-0.229,0.17-0.474,0.271-0.741c0.215-0.581,0.641-1.243,0.879-1.856c0.043-0.271,0.087-0.54,0.133-0.811
		c0.216-0.507,0.412-1.168,0.574-1.757c0.149-0.537-0.048-1.16,0.035-1.618c0.123-0.71,0.155-1.733,0-2.566c0-0.528,0-1.058,0-1.587
		c-0.13-0.661-0.406-1.146-0.574-1.722c0-0.203,0-0.404,0-0.608c-0.228-0.991-0.301-2.198-0.812-3.004
		c-0.569-0.896-1.678-1.037-1.926-2.263c0.015-0.022,0.023-0.045,0.035-0.065c0.022,0,0.046,0,0.068,0
		c0.17-0.069,0.416,0.103,0.642,0.133c0.4-0.413,0.977-0.406,1.078-1.147c-0.044-0.023-0.087-0.044-0.133-0.067
		c-0.11,0.166-0.275,0.425-0.508,0.473c-0.01-0.078-0.021-0.158-0.032-0.235c-0.349,0.201-0.271,0.688-0.573,0.775
		c-0.022-0.011-0.045-0.023-0.068-0.034c-0.012-0.156-0.022-0.314-0.034-0.472c0.203-0.162,0.189-0.349,0.337-0.575
		c0.091-0.065,0.181-0.135,0.27-0.201c0.392-0.489,0.68-0.879,0.979-1.485c0.106-0.216,0.251-0.28,0.271-0.609
		c-0.126-0.131-0.206-0.385-0.271-0.405c-0.113,0.085-0.119,0.142-0.301,0.17c-0.047-0.088-0.064-0.117-0.069-0.271
		c0.247-0.271,0.495-0.541,0.741-0.811c0.005-0.466-0.159-0.729-0.169-0.979c0.188-0.194,0.35-0.455,0.371-0.81
		c-0.248-0.362-0.873-1.12-1.012-1.452c0-0.112,0-0.225,0-0.339c-0.107-0.348-0.477-1.459-0.71-1.688
		c-0.078-0.034-0.155-0.066-0.234-0.101c-0.142-0.179,0.019-0.316-0.27-0.371c-0.041,0.078-0.051,0.076-0.069,0.202
		c0,0.293,0,0.585,0,0.877c-0.087,0.046-0.119,0.062-0.27,0.068c-0.183-0.179-0.781-0.751-0.811-1.012
		c0.037-0.067,0.051-0.095,0.034-0.136c-0.07-0.217-0.254-0.307-0.337-0.508c-0.114-0.337-0.227-0.673-0.339-1.012
		c-0.063-0.144-0.237-0.215-0.302-0.337c-0.275-0.508-0.417-0.932-0.608-1.52c-0.046-0.034-0.093-0.066-0.136-0.101
		C6.212,48.088,6.18,48.1,6.144,48.111c-0.074,0.171-0.371,0.817-0.573,0.708c-0.022-0.022-0.046-0.046-0.068-0.067
		c0.289-0.485,0.274-2.097,0.948-2.095c0.719,0.023,1.438,0.046,2.159,0.069c2.104,0.058,4.21,0.112,6.312,0.169
		c2.297,0.055,4.593,0.112,6.888,0.167c4.423,0.092,8.847,0.181,13.271,0.27c0.055-0.105,0.068-0.217,0.065-0.403
		c-0.089-1.813-0.181-3.625-0.27-5.438c-0.066-1.202-0.136-2.406-0.204-3.61c-0.128-0.527-0.687-1.646-0.503-2.228
		c0.48-1.537,1.531-2.067,2.733-2.872c0.439-0.293,0.932-0.808,1.417-1.012c0.483-0.204,1.138-0.105,1.655-0.27
		c0.513-0.165,0.984-0.532,1.451-0.745c0.38-0.088,0.766-0.178,1.147-0.27c0.199-0.405,0.07-1.749,0.066-2.329
		c0.036-4.435,0.068-8.867,0.101-13.302c0.014-1.498,0.022-2.992,0.036-4.49c0.087-0.119,1.401-0.071,1.688-0.067
		c2.093,0,4.188,0,6.28,0c5.34,0,10.528-0.096,15.798-0.103c0.165-0.342,0.069-1.09,0.069-1.553c0-1.181,0-2.362,0-3.544
		c-0.012-0.417-0.022-0.833-0.034-1.25c0-0.888,0-1.777,0-2.667C66.577,0.808,66.518,0.262,66.644,0z"/>
</g>
<g id="Layer_1">
</g>
</svg>
