<?xml version="1.0" encoding="iso-8859-1"?>
<!-- Generator: Adobe Illustrator 16.0.3, SVG Export Plug-In . SVG Version: 6.00 Build 0)  -->
<!DOCTYPE svg PUBLIC "-//W3C//DTD SVG 1.1//EN" "http://www.w3.org/Graphics/SVG/1.1/DTD/svg11.dtd">
<svg version="1.1" xmlns="http://www.w3.org/2000/svg" xmlns:xlink="http://www.w3.org/1999/xlink" x="0px" y="0px" width="100px"
	 height="100px" viewBox="0 0 100 100" style="enable-background:new 0 0 100 100;" xml:space="preserve">
<g id="MT">
	<g>
		<path style="fill:#010101;" d="M38.897,21.414c-0.042-0.09-0.145-0.262-0.196-0.347c-0.049-0.079-0.158-0.229-0.205-0.31
			c-0.034-0.06-0.095-0.185-0.125-0.246c-0.033-0.065-0.078-0.212-0.13-0.264c-0.025-0.025-0.103-0.039-0.13-0.062
			c-0.033-0.028-0.069-0.114-0.1-0.146c-0.044-0.045-0.15-0.112-0.201-0.15c-0.059-0.044-0.18-0.126-0.233-0.175
			c-0.06-0.054-0.177-0.166-0.218-0.234c-0.032-0.054-0.044-0.187-0.079-0.238s-0.14-0.129-0.192-0.163
			c-0.042-0.026-0.137-0.059-0.18-0.083c-0.027-0.017-0.082-0.053-0.104-0.075c-0.048-0.049-0.118-0.165-0.154-0.222
			c-0.056-0.087-0.137-0.279-0.205-0.355c-0.049-0.055-0.187-0.122-0.238-0.176c-0.032-0.033-0.067-0.125-0.104-0.154
			c-0.028-0.022-0.104-0.031-0.134-0.05c-0.058-0.036-0.166-0.126-0.2-0.185c-0.019-0.031-0.01-0.114-0.033-0.142
			c-0.03-0.034-0.137-0.031-0.168-0.062c-0.041-0.042-0.059-0.167-0.079-0.222c-0.015-0.039-0.044-0.117-0.062-0.155
			c-0.043-0.088-0.126-0.27-0.196-0.338c-0.069-0.067-0.248-0.151-0.339-0.184c-0.071-0.026-0.221-0.057-0.297-0.059
			c-0.054-0.001-0.159,0.025-0.213,0.03c-0.053,0.004-0.169-0.026-0.213,0.004c-0.032,0.022-0.038,0.112-0.059,0.146
			c-0.027,0.045-0.086,0.149-0.138,0.158c-0.04,0.007-0.108-0.054-0.139-0.079c-0.045-0.039-0.097-0.16-0.15-0.188
			c-0.034-0.018-0.116,0-0.154-0.008c-0.046-0.01-0.148-0.024-0.176-0.063c-0.013-0.019-0.008-0.07,0-0.092
			c0.013-0.037,0.085-0.084,0.097-0.121c0.011-0.036,0.008-0.119-0.013-0.15c-0.03-0.046-0.142-0.085-0.192-0.104
			c-0.033-0.013-0.106-0.018-0.138-0.034c-0.07-0.035-0.192-0.137-0.242-0.196c-0.035-0.041-0.1-0.135-0.104-0.188
			c-0.004-0.035,0.03-0.101,0.041-0.134c0.009-0.024,0.038-0.071,0.034-0.096c-0.008-0.04-0.091-0.087-0.104-0.125
			c-0.015-0.038-0.005-0.123,0-0.163c0.004-0.035,0.032-0.1,0.033-0.134c0-0.039-0.028-0.112-0.033-0.15
			c-0.009-0.06-0.024-0.179-0.018-0.238c0.007-0.054,0.07-0.151,0.067-0.205c-0.002-0.042-0.036-0.125-0.067-0.154
			c-0.021-0.021-0.095-0.017-0.112-0.042c-0.022-0.033,0.01-0.121,0-0.159c-0.009-0.035-0.046-0.1-0.071-0.125
			c-0.033-0.034-0.135-0.058-0.163-0.096c-0.021-0.027-0.007-0.111-0.033-0.134c-0.051-0.042-0.197-0.021-0.264-0.021
			c-0.066,0-0.2,0.022-0.267,0.025c-0.096,0.004-0.288-0.026-0.381-0.004c-0.05,0.012-0.142,0.066-0.184,0.096
			c-0.046,0.033-0.116,0.126-0.163,0.159c-0.07,0.048-0.228,0.12-0.31,0.142c-0.07,0.02-0.22,0.015-0.292,0.029
			c-0.042,0.009-0.124,0.034-0.163,0.05c-0.037,0.015-0.108,0.054-0.143,0.075c-0.029,0.018-0.081,0.066-0.112,0.08
			c-0.035,0.015-0.112,0.032-0.15,0.029c-0.045-0.004-0.136-0.031-0.167-0.063c-0.03-0.03-0.033-0.125-0.059-0.159
			c-0.026-0.035-0.119-0.067-0.143-0.104c-0.034-0.056-0.012-0.201-0.042-0.259c-0.021-0.041-0.093-0.106-0.134-0.129
			c-0.025-0.015-0.088-0.017-0.112-0.033c-0.054-0.038-0.104-0.169-0.154-0.209c-0.033-0.026-0.116-0.052-0.155-0.067
			c-0.058-0.023-0.193-0.037-0.233-0.083c-0.018-0.021-0.003-0.085-0.021-0.104c-0.024-0.026-0.104-0.023-0.138-0.034
			c-0.061-0.019-0.188-0.053-0.238-0.092c-0.036-0.028-0.075-0.115-0.108-0.146c-0.024-0.022-0.092-0.045-0.113-0.071
			c-0.054-0.064-0.097-0.232-0.129-0.31c-0.037-0.086-0.098-0.266-0.146-0.347c-0.033-0.055-0.114-0.156-0.163-0.196
			c-0.035-0.029-0.136-0.049-0.159-0.088c-0.023-0.04,0.027-0.147,0-0.184c-0.018-0.024-0.087-0.044-0.117-0.038
			c-0.019,0.005-0.036,0.047-0.054,0.055c-0.034,0.014-0.112,0.013-0.146,0c-0.027-0.011-0.059-0.073-0.088-0.08
			c-0.041-0.01-0.126,0.025-0.163,0.046c-0.027,0.016-0.067,0.067-0.092,0.088c-0.047,0.04-0.157,0.099-0.196,0.146
			c-0.045,0.056-0.101,0.191-0.121,0.259c-0.021,0.069-0.02,0.216-0.042,0.284c-0.024,0.075-0.096,0.22-0.146,0.28
			c-0.028,0.034-0.102,0.089-0.142,0.108c-0.069,0.033-0.222,0.062-0.297,0.071c-0.101,0.013-0.304,0.004-0.405,0.008
			c-0.083,0.003-0.252,0.046-0.33,0.021c-0.043-0.013-0.103-0.085-0.138-0.113c-0.053-0.04-0.155-0.124-0.214-0.154
			c-0.062-0.033-0.207-0.055-0.268-0.092c-0.05-0.031-0.131-0.12-0.167-0.167c-0.053-0.068-0.131-0.223-0.175-0.297
			c-0.025-0.041-0.064-0.132-0.101-0.163c-0.028-0.024-0.101-0.058-0.138-0.059c-0.04,0-0.107,0.061-0.146,0.059
			c-0.051-0.004-0.13-0.08-0.176-0.101c-0.041-0.018-0.131-0.034-0.171-0.054c-0.038-0.019-0.096-0.094-0.139-0.1
			c-0.04-0.007-0.113,0.05-0.154,0.05c-0.043,0-0.13-0.023-0.163-0.05c-0.046-0.038-0.07-0.167-0.112-0.209
			c-0.021-0.021-0.077-0.044-0.104-0.055c-0.032-0.012-0.107-0.007-0.134-0.029c-0.088-0.073-0.147-0.311-0.176-0.422
			c-0.026-0.105-0.016-0.327-0.046-0.431c-0.019-0.062-0.075-0.184-0.117-0.234c-0.053-0.063-0.216-0.129-0.264-0.196
			c-0.031-0.045-0.026-0.168-0.062-0.209c-0.037-0.043-0.16-0.061-0.209-0.092c-0.053-0.034-0.152-0.115-0.188-0.167
			c-0.05-0.073-0.063-0.264-0.121-0.33c-0.037-0.041-0.162-0.057-0.196-0.1c-0.03-0.037-0.009-0.155-0.047-0.184
			c-0.065-0.051-0.251,0.014-0.334,0c-0.065-0.011-0.185-0.077-0.251-0.083c-0.072-0.007-0.22,0.013-0.288,0.038
			C20.281,9.086,20.157,9.172,20.1,9.22c-0.063,0.053-0.163,0.188-0.226,0.243c-0.05,0.043-0.172,0.102-0.217,0.15
			c-0.03,0.032-0.052,0.125-0.088,0.15c-0.049,0.033-0.177,0.051-0.234,0.038c-0.054-0.013-0.15-0.083-0.18-0.129
			c-0.05-0.082-0.055-0.281-0.059-0.376c-0.003-0.082,0.033-0.245,0.025-0.326c-0.014-0.129-0.059-0.399-0.144-0.498
			c-0.078-0.091-0.323-0.158-0.436-0.201c-0.101-0.039-0.307-0.112-0.413-0.128c-0.057-0.008-0.17-0.003-0.227,0
			c-0.09,0.005-0.284,0.093-0.36,0.044c-0.048-0.031-0.034-0.173-0.068-0.219c-0.041-0.056-0.19-0.098-0.226-0.157
			c-0.026-0.045-0.029-0.155-0.022-0.207c0.007-0.047,0.037-0.143,0.069-0.179c0.036-0.04,0.165-0.053,0.191-0.1
			c0.015-0.028,0.01-0.105-0.013-0.128c-0.025-0.026-0.108-0.022-0.145-0.019c-0.068,0.007-0.192,0.096-0.26,0.088
			c-0.04-0.005-0.096-0.082-0.135-0.088c-0.036-0.005-0.116,0.012-0.139,0.041c-0.026,0.036,0.015,0.139,0,0.182
			c-0.015,0.044-0.069,0.131-0.112,0.147c-0.048,0.018-0.197-0.041-0.197-0.05s-0.108-0.203-0.17-0.245
			c-0.075-0.051-0.265-0.07-0.354-0.091c-0.189-0.045-0.57-0.131-0.762-0.166c-0.22-0.041-0.666-0.085-0.884-0.132
			c-0.162-0.035-0.487-0.112-0.64-0.179c-0.048-0.021-0.127-0.103-0.179-0.109c-0.048-0.007-0.147,0.023-0.185,0.053
			c-0.023,0.019-0.053,0.077-0.057,0.106s0.046,0.092,0.028,0.116c-0.021,0.028-0.105,0.006-0.142,0.006
			c-0.062-0.001-0.188-0.001-0.247-0.019c-0.089-0.026-0.243-0.132-0.326-0.172c-0.073-0.036-0.217-0.149-0.298-0.135
			c-0.033,0.006-0.066,0.08-0.097,0.094c-0.049,0.023-0.169-0.008-0.214,0.022c-0.048,0.033-0.078,0.157-0.109,0.207
			c-0.039,0.062-0.104,0.211-0.172,0.235c-0.057,0.02-0.17-0.063-0.229-0.065c-0.082-0.004-0.241,0.071-0.322,0.062
			c-0.128-0.013-0.358-0.142-0.474-0.197c-0.091-0.044-0.257-0.167-0.354-0.194c-0.047-0.014-0.153-0.039-0.194-0.013
			c-0.044,0.028-0.058,0.145-0.075,0.194c-0.021,0.058-0.039,0.187-0.078,0.235c-0.048,0.06-0.188,0.137-0.26,0.16
			C9.565,7.312,9.288,7.31,9.152,7.306C9.064,7.303,8.882,7.3,8.802,7.262C8.745,7.235,8.676,7.116,8.62,7.086
			c-0.038-0.02-0.129-0.059-0.166-0.038C8.433,7.061,8.439,7.125,8.423,7.143C8.38,7.187,8.252,7.218,8.19,7.228
			C8.104,7.241,7.93,7.211,7.843,7.212c-0.055,0-0.165-0.005-0.217,0.012c-0.024,0.009-0.06,0.051-0.084,0.06
			C7.469,7.311,7.31,7.309,7.231,7.315c-0.199,0.017-0.6,0.023-0.796,0.06C6.314,7.397,6.082,7.478,5.965,7.516
			c-0.13,0.043-0.382,0.162-0.517,0.185c-0.074,0.013-0.228-0.013-0.301,0C5.08,7.713,4.944,7.752,4.89,7.795
			C4.844,7.831,4.788,7.938,4.759,7.989C4.717,8.062,4.657,8.219,4.614,8.29C4.578,8.35,4.499,8.471,4.445,8.516
			c-0.073,0.061-0.26,0.118-0.339,0.169C4.04,8.728,3.918,8.83,3.862,8.886C3.829,8.918,3.787,9.015,3.743,9.03
			C3.661,9.056,3.494,8.962,3.411,8.942c-0.108-0.027-0.322-0.106-0.433-0.1C2.885,8.847,2.714,8.933,2.627,8.967
			C2.566,8.99,2.452,9.054,2.389,9.067c-0.092,0.02-0.282,0.018-0.376,0.006C1.94,9.064,1.804,8.996,1.73,8.999
			C1.645,9,1.49,9.094,1.404,9.105C1.312,9.117,1.119,9.106,1.028,9.08C0.953,9.058,0.831,8.937,0.753,8.929
			c-0.106-0.01-0.328,0.06-0.407,0.132c-0.081,0.072-0.15,0.29-0.176,0.395C0.146,9.55,0.155,9.748,0.145,9.845
			c-0.011,0.096-0.04,0.288-0.062,0.382c-0.016,0.064-0.089,0.185-0.081,0.25c0.007,0.06,0.102,0.151,0.125,0.207
			c0.026,0.061,0.054,0.192,0.069,0.257c0.015,0.064,0.026,0.196,0.05,0.257c0.022,0.061,0.121,0.161,0.132,0.226
			c0.01,0.063-0.029,0.192-0.057,0.25c-0.021,0.047-0.109,0.115-0.125,0.163c-0.018,0.049-0.027,0.163,0,0.207
			c0.029,0.048,0.146,0.088,0.2,0.1c0.067,0.015,0.21-0.026,0.275-0.006c0.059,0.017,0.143,0.121,0.201,0.138
			c0.06,0.018,0.188-0.01,0.251-0.006c0.08,0.005,0.245,0.019,0.319,0.05c0.125,0.054,0.354,0.22,0.433,0.332
			c0.084,0.121,0.164,0.417,0.176,0.564c0.006,0.077-0.021,0.233-0.044,0.307c-0.013,0.042-0.072,0.113-0.075,0.157
			c-0.005,0.071,0.058,0.205,0.088,0.27c0.036,0.08,0.16,0.215,0.182,0.301c0.017,0.07,0.01,0.222-0.02,0.289
			c-0.045,0.106-0.227,0.262-0.313,0.338c-0.064,0.058-0.204,0.166-0.281,0.207c-0.043,0.022-0.152,0.025-0.183,0.063
			c-0.031,0.039-0.002,0.155-0.024,0.201c-0.018,0.036-0.101,0.075-0.113,0.113c-0.016,0.048,0.047,0.152,0.031,0.201
			c-0.015,0.047-0.119,0.098-0.138,0.144c-0.02,0.048-0.026,0.163,0,0.207c0.014,0.023,0.082,0.026,0.094,0.05
			c0.013,0.026-0.026,0.085-0.019,0.113c0.018,0.061,0.116,0.154,0.169,0.188C1.46,16.4,1.61,16.397,1.655,16.445
			c0.056,0.059,0.086,0.232,0.082,0.313c-0.005,0.082-0.065,0.245-0.119,0.308c-0.039,0.044-0.15,0.097-0.207,0.112
			c-0.044,0.012-0.151-0.027-0.182,0.007c-0.02,0.021-0.015,0.093,0.006,0.112c0.033,0.031,0.138,0.009,0.182,0
			c0.052-0.01,0.144-0.062,0.194-0.075c0.057-0.014,0.174-0.029,0.232-0.025c0.092,0.007,0.279,0.039,0.357,0.088
			c0.085,0.055,0.216,0.221,0.257,0.313c0.035,0.081,0.062,0.264,0.05,0.352c-0.01,0.067-0.058,0.209-0.112,0.251
			c-0.032,0.023-0.117,0.027-0.157,0.024C2.17,18.222,2.044,18.15,1.976,18.15c-0.048,0-0.135,0.051-0.183,0.051
			c-0.042-0.001-0.121-0.06-0.162-0.051c-0.046,0.011-0.124,0.081-0.139,0.126c-0.022,0.069,0.052,0.215,0.057,0.288
			c0.012,0.171-0.047,0.513-0.037,0.683c0.007,0.123,0.093,0.361,0.081,0.483C1.586,19.802,1.528,19.938,1.492,20
			c-0.033,0.058-0.13,0.152-0.169,0.207c-0.09,0.124-0.216,0.413-0.326,0.52c-0.058,0.057-0.235,0.095-0.275,0.163
			c-0.026,0.045-0.032,0.162-0.007,0.207c0.04,0.07,0.219,0.107,0.282,0.157c0.1,0.076,0.239,0.297,0.345,0.363
			c0.11,0.068,0.367,0.137,0.495,0.156c0.092,0.015,0.286-0.037,0.37,0c0.069,0.031,0.134,0.19,0.2,0.226
			c0.077,0.042,0.259,0.061,0.346,0.051c0.071-0.009,0.198-0.093,0.27-0.106c0.097-0.019,0.296,0.004,0.395,0
			c0.105-0.005,0.317-0.014,0.42-0.038c0.072-0.017,0.21-0.073,0.275-0.106c0.062-0.03,0.17-0.117,0.232-0.145
			c0.105-0.045,0.33-0.114,0.445-0.119c0.068-0.002,0.207,0.021,0.27,0.051c0.104,0.048,0.259,0.229,0.357,0.288
			c0.054,0.033,0.169,0.09,0.231,0.101c0.095,0.016,0.287-0.03,0.383-0.031c0.125-0.002,0.392-0.03,0.501,0.031
			c0.045,0.025,0.104,0.12,0.119,0.169c0.015,0.047-0.018,0.149,0,0.194c0.034,0.085,0.178,0.21,0.251,0.264
			c0.059,0.043,0.192,0.109,0.264,0.125c0.077,0.018,0.25-0.039,0.319,0c0.043,0.024,0.089,0.121,0.101,0.169
			c0.016,0.067-0.065,0.226-0.02,0.276c0.044,0.047,0.207,0.046,0.258,0.006c0.038-0.029,0.012-0.151,0.044-0.188
			c0.039-0.045,0.166-0.071,0.226-0.082c0.049-0.009,0.161,0.032,0.2,0c0.036-0.029,0.001-0.152,0.038-0.182
			c0.04-0.032,0.161-0.019,0.206,0.007c0.058,0.03,0.147,0.147,0.15,0.213c0.003,0.056-0.066,0.162-0.112,0.194
			c-0.049,0.033-0.187,0-0.232,0.037c-0.046,0.038-0.051,0.174-0.081,0.226c-0.028,0.049-0.098,0.139-0.145,0.17
			c-0.062,0.041-0.213,0.081-0.288,0.088C7.728,23.67,7.512,23.56,7.423,23.61c-0.021,0.012-0.037,0.064-0.038,0.088
			c-0.001,0.074,0.058,0.221,0.106,0.276c0.026,0.029,0.112,0.046,0.139,0.075c0.04,0.044,0.049,0.18,0.094,0.219
			c0.033,0.028,0.132,0.021,0.169,0.044c0.077,0.048,0.196,0.195,0.238,0.276c0.042,0.08,0.026,0.284,0.088,0.351
			c0.042,0.045,0.171,0.071,0.231,0.075c0.085,0.006,0.249-0.063,0.333-0.057c0.062,0.005,0.201,0.03,0.238,0.082
			c0.042,0.06,0.036,0.23,0,0.294c-0.023,0.041-0.141,0.054-0.163,0.095c-0.029,0.052-0.017,0.183,0.006,0.238
			c0.021,0.049,0.092,0.146,0.145,0.156c0.041,0.008,0.109-0.065,0.15-0.075c0.071-0.017,0.229-0.033,0.295,0
			c0.066,0.034,0.112,0.203,0.175,0.244c0.056,0.036,0.191,0.062,0.257,0.057c0.111-0.007,0.316-0.109,0.421-0.15
			c0.123-0.048,0.361-0.169,0.488-0.207c0.122-0.036,0.375-0.095,0.502-0.088c0.096,0.006,0.281,0.068,0.369,0.107
			c0.071,0.031,0.188,0.148,0.264,0.162c0.071,0.014,0.21-0.061,0.282-0.056c0.086,0.006,0.261,0.056,0.326,0.112
			c0.036,0.031,0.054,0.137,0.088,0.17c0.038,0.037,0.142,0.082,0.194,0.094c0.114,0.025,0.357-0.042,0.47-0.007
			c0.079,0.025,0.191,0.166,0.27,0.194c0.101,0.038,0.319,0.036,0.427,0.038c0.136,0.002,0.408-0.031,0.545-0.031
			s0.41,0.015,0.545,0.031c0.178,0.021,0.526,0.104,0.702,0.132c0.234,0.036,0.706,0.085,0.94,0.112
			c0.162,0.02,0.491,0.026,0.646,0.075c0.14,0.044,0.423,0.163,0.515,0.276c0.061,0.074,0.104,0.273,0.106,0.369
			c0.002,0.064-0.056,0.187-0.057,0.251c0,0.04,0.007,0.125,0.031,0.157c0.054,0.068,0.243,0.1,0.313,0.15
			c0.052,0.037,0.113,0.172,0.176,0.182c0.072,0.011,0.187-0.12,0.257-0.138c0.087-0.022,0.27-0.018,0.357,0
			c0.092,0.019,0.272,0.085,0.345,0.144c0.085,0.068,0.2,0.261,0.251,0.357c0.031,0.06,0.049,0.202,0.094,0.251
			c0.035,0.038,0.137,0.087,0.188,0.088c0.044,0.001,0.134-0.035,0.163-0.069c0.045-0.054,0.021-0.218,0.062-0.275
			c0.092-0.131,0.395-0.276,0.539-0.345c0.239-0.113,0.767-0.219,1.009-0.326c0.179-0.079,0.525-0.267,0.678-0.389
			c0.058-0.047,0.207-0.146,0.2-0.22c-0.004-0.039-0.129-0.055-0.125-0.094c0.003-0.036,0.108-0.034,0.131-0.062
			c0.034-0.041,0.049-0.154,0.051-0.207c0.001-0.071-0.043-0.21-0.055-0.28c-0.008-0.049,0-0.153-0.025-0.196
			c-0.03-0.053-0.167-0.092-0.196-0.146c-0.017-0.031-0.024-0.11-0.008-0.142c0.011-0.021,0.059-0.052,0.083-0.05
			c0.037,0.001,0.088,0.065,0.117,0.087c0.04,0.031,0.137,0.08,0.159,0.126c0.021,0.043-0.011,0.146,0,0.192
			c0.011,0.051,0.059,0.145,0.088,0.188c0.023,0.035,0.101,0.082,0.116,0.121c0.019,0.046-0.021,0.153,0,0.196
			c0.032,0.063,0.162,0.138,0.227,0.168c0.091,0.043,0.293,0.075,0.393,0.096c0.047,0.01,0.144,0.016,0.188,0.033
			c0.036,0.015,0.094,0.073,0.13,0.088c0.042,0.018,0.14,0.061,0.18,0.038c0.028-0.017,0.013-0.109,0.042-0.126
			c0.045-0.024,0.161,0.017,0.2,0.051c0.024,0.021,0.025,0.098,0.051,0.116c0.032,0.025,0.129,0.045,0.162,0.021
			c0.058-0.041,0.049-0.206,0.055-0.276c0.007-0.07-0.031-0.218-0.004-0.284c0.019-0.046,0.096-0.122,0.142-0.142
			c0.103-0.043,0.335-0.031,0.443-0.009c0.094,0.02,0.254,0.139,0.347,0.159c0.152,0.033,0.472,0.038,0.623,0
			c0.088-0.022,0.254-0.11,0.321-0.171c0.06-0.054,0.12-0.212,0.18-0.264c0.038-0.033,0.139-0.059,0.18-0.088
			c0.052-0.036,0.122-0.151,0.18-0.176c0.048-0.02,0.155-0.017,0.205-0.004c0.028,0.007,0.074,0.047,0.101,0.059
			c0.044,0.02,0.157,0.018,0.184,0.059c0.024,0.038,0.005,0.143-0.021,0.18c-0.024,0.035-0.11,0.064-0.15,0.079
			c-0.028,0.011-0.102,0-0.117,0.025c-0.018,0.027,0.009,0.104,0.033,0.125c0.049,0.042,0.192,0.046,0.255,0.029
			c0.067-0.018,0.187-0.105,0.226-0.163c0.047-0.068,0.021-0.264,0.079-0.321c0.053-0.052,0.217-0.039,0.284-0.067
			c0.07-0.028,0.194-0.12,0.26-0.158c0.076-0.045,0.226-0.142,0.309-0.172c0.057-0.02,0.185-0.01,0.234-0.042
			c0.043-0.027,0.08-0.132,0.117-0.167c0.018-0.017,0.067-0.032,0.083-0.05c0.03-0.032,0.052-0.124,0.08-0.159
			c0.063-0.079,0.239-0.189,0.317-0.255c0.095-0.078,0.278-0.243,0.376-0.317c0.057-0.043,0.171-0.127,0.234-0.159
			c0.051-0.025,0.19-0.023,0.217-0.075c0.013-0.023-0.008-0.088-0.029-0.104c-0.028-0.022-0.109-0.01-0.146-0.004
			c-0.055,0.01-0.158,0.051-0.205,0.079c-0.054,0.032-0.141,0.124-0.188,0.163c-0.044,0.037-0.13,0.114-0.18,0.143
			c-0.031,0.018-0.099,0.058-0.134,0.05c-0.029-0.007-0.087-0.058-0.083-0.088c0.007-0.052,0.149-0.065,0.18-0.108
			c0.021-0.03,0.037-0.109,0.029-0.146c-0.006-0.024-0.033-0.08-0.059-0.083c-0.035-0.005-0.075,0.074-0.104,0.092
			c-0.039,0.023-0.146,0.025-0.172,0.062c-0.02,0.028,0.024,0.113,0,0.138c-0.034,0.035-0.155,0.032-0.196,0.005
			c-0.05-0.035-0.074-0.17-0.079-0.23c-0.005-0.062,0.003-0.197,0.042-0.246c0.047-0.06,0.217-0.075,0.279-0.117
			c0.038-0.025,0.09-0.108,0.13-0.13c0.047-0.024,0.161-0.016,0.209-0.037c0.07-0.032,0.171-0.162,0.242-0.192
			c0.061-0.025,0.194-0.032,0.26-0.033c0.044-0.002,0.144-0.019,0.175,0.012c0.015,0.015,0.007,0.06,0.007,0.08
			c0,0.026,0.001,0.081-0.007,0.106c-0.006,0.021-0.033,0.057-0.041,0.077c-0.01,0.022-0.026,0.068-0.029,0.092
			c-0.003,0.019-0.011,0.06,0,0.075c0.006,0.009,0.029,0.017,0.039,0.015c0.02-0.004,0.047-0.039,0.057-0.057
			c0.02-0.033,0.036-0.111,0.042-0.15c0.005-0.035,0-0.108,0.004-0.144c0.003-0.026-0.001-0.089,0.021-0.103
			c0.013-0.008,0.045,0.01,0.058,0.017c0.025,0.013,0.061,0.067,0.088,0.069c0.019,0.001,0.044-0.032,0.061-0.038
			c0.059-0.019,0.183-0.011,0.243-0.017c0.048-0.005,0.15-0.052,0.191-0.027c0.033,0.02,0.029,0.112,0.055,0.141
			c0.029,0.032,0.113,0.065,0.154,0.081c0.076,0.027,0.234,0.062,0.313,0.071c0.113,0.013,0.341,0.018,0.454,0.004
			c0.106-0.013,0.311-0.089,0.417-0.104c0.133-0.019,0.404-0.025,0.539-0.019c0.104,0.005,0.314,0.026,0.416,0.053
			c0.066,0.018,0.193,0.069,0.251,0.104c0.032,0.02,0.081,0.082,0.116,0.095c0.043,0.014,0.14,0.011,0.182-0.007
			c0.036-0.015,0.079-0.092,0.116-0.106c0.051-0.021,0.177-0.041,0.22-0.006c0.021,0.018,0.001,0.09,0.019,0.112
			c0.028,0.037,0.127,0.063,0.172,0.075c0.11,0.029,0.342,0.061,0.455,0.044c0.09-0.013,0.27-0.074,0.338-0.135
			c0.036-0.031,0.066-0.126,0.091-0.166c0.015-0.022,0.05-0.063,0.06-0.088c0.025-0.06,0.012-0.202,0.051-0.254
			c0.047-0.062,0.2-0.122,0.275-0.138c0.113-0.024,0.348,0.019,0.464,0.019c0.054,0,0.16-0.004,0.213-0.006
			c0.083-0.003,0.262,0.03,0.333-0.013c0.041-0.025,0.061-0.135,0.094-0.169c0.037-0.039,0.129-0.104,0.182-0.113
			c0.052-0.009,0.157,0.061,0.207,0.044c0.039-0.014,0.098-0.085,0.106-0.125c0.009-0.042-0.064-0.126-0.044-0.163
			c0.023-0.042,0.136-0.046,0.182-0.057c0.074-0.017,0.229-0.019,0.301-0.044c0.072-0.025,0.193-0.125,0.264-0.156
			c0.028-0.014,0.088-0.037,0.119-0.038c0.054-0.001,0.153,0.054,0.207,0.057c0.057,0.003,0.184,0.001,0.226-0.038
			c0.028-0.026,0.017-0.117,0.037-0.15c0.044-0.067,0.196-0.143,0.251-0.2c0.056-0.059,0.165-0.186,0.188-0.264
			c0.037-0.128-0.001-0.401-0.025-0.532C38.962,21.583,38.923,21.469,38.897,21.414z"/>
		<path style="fill:#010101;" d="M42.615,29.243c-0.035-0.079-0.109-0.242-0.173-0.301c-0.058-0.055-0.241-0.075-0.285-0.142
			c-0.052-0.077,0.013-0.287-0.025-0.373c-0.032-0.072-0.162-0.174-0.219-0.229c-0.072-0.068-0.23-0.189-0.299-0.262
			c-0.036-0.037-0.089-0.131-0.13-0.162c-0.047-0.036-0.164-0.066-0.218-0.093c-0.071-0.034-0.201-0.141-0.279-0.154
			c-0.05-0.008-0.147,0.029-0.196,0.033c-0.051,0.005-0.155,0.021-0.201,0c-0.067-0.031-0.132-0.186-0.192-0.229
			c-0.021-0.017-0.075-0.031-0.1-0.042c-0.05-0.02-0.177-0.03-0.197-0.079c-0.018-0.044,0.066-0.129,0.075-0.176
			c0.01-0.043,0.017-0.135,0-0.176c-0.013-0.032-0.083-0.067-0.096-0.1c-0.011-0.027,0.012-0.091,0-0.117
			c-0.021-0.049-0.117-0.105-0.15-0.146c-0.029-0.036-0.06-0.136-0.101-0.159c-0.046-0.025-0.174,0.036-0.213,0
			c-0.034-0.03,0.018-0.152-0.017-0.184c-0.043-0.038-0.18-0.027-0.229,0c-0.018,0.01-0.039,0.048-0.042,0.067
			c-0.005,0.034,0.019,0.104,0.037,0.134c0.023,0.034,0.112,0.066,0.13,0.104c0.026,0.057,0.022,0.193-0.004,0.25
			c-0.018,0.038-0.087,0.095-0.126,0.109c-0.077,0.029-0.251,0.027-0.33,0.004c-0.069-0.021-0.177-0.13-0.242-0.163
			c-0.062-0.032-0.195-0.079-0.264-0.096c-0.068-0.018-0.221-0.002-0.279-0.042c-0.054-0.037-0.076-0.189-0.13-0.226
			c-0.073-0.05-0.284-0.108-0.351-0.051c-0.028,0.024,0.002,0.11,0,0.146c-0.004,0.066,0.003,0.206-0.029,0.264
			c-0.021,0.037-0.109,0.07-0.134,0.104c-0.03,0.041-0.051,0.145-0.071,0.192c-0.019,0.043-0.054,0.134-0.084,0.171
			c-0.043,0.053-0.149,0.167-0.217,0.163c-0.06-0.004-0.15-0.111-0.172-0.167c-0.035-0.095,0.02-0.302,0.029-0.401
			c0.008-0.077,0.062-0.235,0.038-0.31c-0.015-0.044-0.083-0.119-0.126-0.138c-0.044-0.02-0.151-0.026-0.191,0
			c-0.048,0.031-0.062,0.16-0.093,0.209c-0.049,0.082-0.162,0.242-0.237,0.301c-0.046,0.035-0.152,0.096-0.209,0.092
			c-0.067-0.004-0.178-0.096-0.23-0.138c-0.05-0.04-0.113-0.169-0.176-0.184c-0.055-0.014-0.168,0.04-0.213,0.075
			c-0.046,0.036-0.116,0.139-0.129,0.196c-0.013,0.05,0.01,0.155,0.024,0.205c0.02,0.065,0.062,0.211,0.121,0.246
			c0.043,0.025,0.156-0.036,0.196-0.008c0.044,0.029,0.06,0.147,0.067,0.2c0.005,0.036,0.014,0.114-0.004,0.146
			c-0.019,0.033-0.108,0.052-0.126,0.086c-0.016,0.031-0.009,0.105,0,0.14c0.011,0.04,0.07,0.105,0.08,0.146
			c0.014,0.059-0.018,0.182-0.009,0.242c0.013,0.087,0.065,0.26,0.113,0.334c0.07,0.112,0.286,0.274,0.38,0.368
			c0.042,0.042,0.151,0.113,0.167,0.171c0.009,0.032-0.039,0.097-0.033,0.13c0.011,0.063,0.085,0.193,0.146,0.213
			c0.036,0.012,0.12-0.022,0.142-0.055c0.035-0.052-0.039-0.198-0.004-0.25c0.025-0.037,0.124-0.075,0.167-0.063
			c0.034,0.011,0.077,0.079,0.084,0.113c0.009,0.043-0.052,0.128-0.042,0.171c0.006,0.03,0.047,0.085,0.075,0.097
			c0.043,0.018,0.143-0.047,0.184-0.025c0.049,0.026,0.098,0.146,0.097,0.201c-0.001,0.042-0.049,0.121-0.08,0.15
			c-0.033,0.031-0.142,0.036-0.167,0.075c-0.028,0.044,0.005,0.156,0,0.209c-0.006,0.066-0.006,0.209-0.046,0.263
			c-0.028,0.038-0.122,0.073-0.167,0.084c-0.047,0.011-0.152-0.026-0.192,0c-0.05,0.033-0.074,0.164-0.092,0.222
			c-0.016,0.049-0.014,0.158-0.042,0.2c-0.039,0.059-0.172,0.125-0.234,0.159s-0.211,0.063-0.263,0.112
			c-0.032,0.03-0.105,0.12-0.079,0.155c0.021,0.028,0.108-0.012,0.142-0.025c0.038-0.016,0.099-0.08,0.138-0.092
			c0.091-0.028,0.285-0.001,0.381-0.005c0.079-0.003,0.239-0.007,0.317-0.021c0.069-0.013,0.202-0.067,0.271-0.079
			c0.075-0.013,0.229-0.021,0.305-0.017c0.055,0.002,0.166,0.008,0.214,0.033c0.044,0.023,0.091,0.129,0.138,0.146
			c0.056,0.021,0.182-0.007,0.238-0.025c0.105-0.035,0.276-0.196,0.385-0.226c0.033-0.009,0.113,0.024,0.138,0
			c0.019-0.02-0.013-0.083-0.005-0.108c0.012-0.036,0.055-0.105,0.088-0.121c0.033-0.017,0.112-0.004,0.146,0.008
			c0.066,0.022,0.165,0.134,0.23,0.159c0.059,0.022,0.188,0.038,0.25,0.033c0.102-0.008,0.29-0.093,0.389-0.113
			c0.187-0.037,0.57-0.046,0.757-0.087c0.133-0.03,0.396-0.112,0.518-0.172c0.062-0.029,0.165-0.128,0.23-0.15
			c0.087-0.03,0.282-0.063,0.367-0.029c0.045,0.018,0.108,0.102,0.155,0.113c0.083,0.02,0.268-0.01,0.338-0.059
			c0.076-0.053,0.148-0.234,0.188-0.318c0.044-0.091,0.089-0.296,0.146-0.38c0.03-0.045,0.132-0.101,0.161-0.146
			c0.023-0.038,0.053-0.13,0.052-0.175C42.666,29.362,42.632,29.282,42.615,29.243z"/>
		<path style="fill:#010101;" d="M84.894,93.459c0.078,0.021,0.242,0.005,0.323,0c0.118-0.007,0.355-0.039,0.473-0.057
			c0.159-0.023,0.479-0.067,0.633-0.111c0.09-0.026,0.256-0.118,0.347-0.143c0.048-0.013,0.147-0.031,0.196-0.025
			c0.063,0.008,0.183,0.061,0.238,0.093c0.026,0.015,0.066,0.067,0.096,0.075c0.047,0.014,0.145-0.021,0.192-0.021
			c0.049,0,0.145,0.027,0.192,0.021c0.051-0.006,0.143-0.056,0.192-0.067c0.061-0.015,0.187-0.049,0.246-0.033
			c0.051,0.013,0.116,0.114,0.167,0.125c0.047,0.01,0.137-0.044,0.185-0.042c0.052,0.003,0.166,0.025,0.196,0.067
			c0.013,0.018-0.019,0.075,0,0.088c0.048,0.032,0.167-0.053,0.213-0.088c0.041-0.032,0.083-0.137,0.125-0.167
			c0.07-0.051,0.249-0.075,0.326-0.113c0.031-0.015,0.084-0.066,0.117-0.075c0.065-0.017,0.203,0.001,0.268,0.021
			c0.04,0.012,0.105,0.074,0.146,0.083c0.047,0.01,0.149,0.003,0.192-0.021c0.085-0.048,0.171-0.242,0.242-0.31
			c0.041-0.039,0.136-0.105,0.188-0.13c0.043-0.019,0.145-0.016,0.18-0.046c0.038-0.03,0.054-0.138,0.084-0.175
			c0.024-0.031,0.107-0.062,0.125-0.097c0.02-0.038,0.01-0.13,0-0.171c-0.007-0.032-0.051-0.085-0.059-0.117
			c-0.009-0.04-0.034-0.142,0-0.163c0.039-0.023,0.132,0.048,0.159,0.084c0.027,0.034,0.018,0.134,0.042,0.171
			c0.022,0.034,0.089,0.097,0.13,0.101c0.067,0.007,0.18-0.094,0.242-0.121c0.077-0.035,0.246-0.075,0.313-0.126
			c0.033-0.025,0.096-0.092,0.104-0.134c0.011-0.052-0.068-0.153-0.055-0.204c0.012-0.047,0.1-0.104,0.134-0.139
			c0.068-0.067,0.209-0.201,0.28-0.267c0.08-0.076,0.245-0.226,0.325-0.302c0.091-0.085,0.271-0.256,0.36-0.342
			c0.093-0.091,0.276-0.274,0.367-0.368c0.063-0.065,0.193-0.196,0.251-0.268c0.024-0.029,0.085-0.087,0.088-0.125
			c0.001-0.018-0.017-0.059-0.034-0.062c-0.022-0.007-0.061,0.035-0.079,0.05c-0.044,0.035-0.119,0.118-0.158,0.159
			c-0.062,0.062-0.177,0.193-0.238,0.255c-0.082,0.081-0.258,0.231-0.339,0.313c-0.065,0.064-0.186,0.206-0.251,0.271
			c-0.054,0.054-0.156,0.173-0.226,0.204c-0.024,0.012-0.082,0.005-0.108,0.013c-0.033,0.011-0.092,0.05-0.121,0.067
			c-0.032,0.019-0.089,0.082-0.126,0.079c-0.041-0.003-0.104-0.072-0.125-0.108c-0.02-0.034-0.046-0.119-0.029-0.155
			c0.026-0.057,0.185-0.071,0.218-0.125c0.021-0.035-0.01-0.126,0.008-0.163c0.053-0.106,0.271-0.23,0.359-0.31
			c0.106-0.094,0.331-0.271,0.422-0.38c0.033-0.039,0.095-0.123,0.109-0.171c0.009-0.033,0.012-0.106,0-0.139
			c-0.023-0.06-0.128-0.146-0.172-0.192c-0.128-0.136-0.399-0.394-0.526-0.53c-0.057-0.061-0.158-0.192-0.218-0.251
			c-0.021-0.021-0.064-0.078-0.096-0.079c-0.026-0.001-0.059,0.056-0.084,0.062c-0.047,0.014-0.147-0.011-0.196-0.021
			c-0.064-0.014-0.191-0.056-0.255-0.075c-0.048-0.016-0.142-0.075-0.192-0.067c-0.036,0.006-0.086,0.07-0.116,0.092
			c-0.038,0.027-0.131,0.062-0.155,0.101c-0.014,0.023-0.021,0.083-0.013,0.108c0.023,0.076,0.152,0.184,0.205,0.243
			c0.065,0.073,0.197,0.219,0.268,0.288c0.066,0.065,0.21,0.185,0.275,0.251c0.066,0.064,0.185,0.207,0.251,0.271
			c0.041,0.039,0.129,0.112,0.172,0.15c0.023,0.021,0.097,0.052,0.096,0.083c-0.001,0.043-0.098,0.082-0.134,0.104
			c-0.046,0.029-0.149,0.068-0.196,0.097c-0.024,0.015-0.063,0.062-0.092,0.066c-0.046,0.009-0.14-0.026-0.18-0.05
			c-0.069-0.04-0.171-0.168-0.23-0.222c-0.136-0.125-0.413-0.371-0.556-0.489c-0.149-0.124-0.461-0.359-0.614-0.48
			c-0.074-0.059-0.225-0.172-0.297-0.233c-0.042-0.037-0.121-0.117-0.162-0.155c-0.031-0.027-0.084-0.108-0.126-0.108
			c-0.041,0-0.089,0.084-0.121,0.108c-0.033,0.026-0.111,0.063-0.142,0.092c-0.026,0.025-0.079,0.082-0.084,0.117
			c-0.003,0.019,0.014,0.056,0.025,0.071c0.019,0.027,0.088,0.054,0.104,0.084c0.015,0.027,0.028,0.098,0.012,0.125
			c-0.013,0.021-0.066,0.035-0.092,0.037c-0.061,0.008-0.183-0.021-0.242-0.037c-0.052-0.015-0.164-0.044-0.2-0.084
			c-0.082-0.089-0.118-0.342-0.146-0.459c-0.035-0.146-0.056-0.446-0.096-0.59c-0.016-0.053-0.072-0.15-0.084-0.204
			c-0.016-0.073-0.044-0.231-0.009-0.297c0.031-0.058,0.157-0.131,0.222-0.139c0.065-0.007,0.185,0.084,0.251,0.084
			c0.087,0.001,0.252-0.066,0.33-0.104c0.092-0.045,0.288-0.141,0.339-0.229c0.038-0.067,0.028-0.232,0.021-0.31
			c-0.012-0.114-0.085-0.334-0.121-0.443c-0.027-0.081-0.068-0.257-0.125-0.321c-0.046-0.052-0.175-0.123-0.243-0.13
			c-0.064-0.006-0.182,0.083-0.246,0.08c-0.049-0.003-0.172-0.031-0.18-0.08c-0.01-0.055,0.142-0.103,0.163-0.154
			c0.026-0.066-0.025-0.214-0.013-0.284c0.009-0.051,0.043-0.155,0.079-0.192c0.042-0.043,0.163-0.109,0.222-0.096
			c0.045,0.01,0.081,0.115,0.121,0.138c0.055,0.03,0.185,0.046,0.247,0.042c0.097-0.007,0.278-0.09,0.371-0.117
			c0.132-0.038,0.394-0.135,0.531-0.143c0.073-0.004,0.224,0.013,0.288,0.046c0.071,0.038,0.174,0.17,0.222,0.234
			c0.075,0.101,0.165,0.343,0.251,0.435c0.074,0.081,0.255,0.228,0.363,0.247c0.092,0.016,0.267-0.086,0.359-0.093
			c0.081-0.005,0.244,0.062,0.322,0.038c0.058-0.018,0.148-0.105,0.184-0.154c0.043-0.062,0.065-0.217,0.104-0.28
			c0.044-0.071,0.195-0.169,0.226-0.247c0.017-0.043,0.021-0.146,0-0.188c-0.022-0.045-0.13-0.081-0.159-0.121
			c-0.025-0.036-0.06-0.123-0.059-0.167c0.003-0.065,0.093-0.175,0.104-0.238c0.014-0.073,0.014-0.228-0.012-0.297
			c-0.026-0.071-0.158-0.169-0.188-0.238c-0.021-0.048-0.04-0.153-0.033-0.205c0.01-0.074,0.139-0.198,0.125-0.271
			c-0.016-0.083-0.21-0.156-0.242-0.234c-0.026-0.063-0.014-0.209,0.004-0.275c0.037-0.138,0.185-0.392,0.28-0.497
			c0.035-0.039,0.119-0.115,0.171-0.121c0.036-0.005,0.104,0.035,0.134,0.054c0.041,0.025,0.107,0.099,0.146,0.126
			c0.034,0.023,0.119,0.048,0.146,0.079c0.047,0.053,0.073,0.199,0.104,0.264c0.064,0.133,0.215,0.39,0.297,0.514
			c0.094,0.141,0.304,0.407,0.409,0.539c0.097,0.12,0.31,0.345,0.397,0.473c0.07,0.103,0.161,0.343,0.242,0.438
			c0.07,0.083,0.279,0.179,0.343,0.268c0.055,0.077,0.116,0.265,0.121,0.359c0.004,0.077-0.07,0.224-0.071,0.301
			c-0.001,0.084,0.018,0.265,0.071,0.33c0.03,0.037,0.132,0.055,0.176,0.075c0.067,0.031,0.221,0.075,0.268,0.134
			c0.05,0.063,0.065,0.233,0.075,0.313c0.011,0.103,0.031,0.316-0.005,0.414c-0.022,0.062-0.146,0.139-0.171,0.2
			c-0.038,0.093-0.066,0.308-0.029,0.401c0.047,0.119,0.301,0.247,0.376,0.351c0.062,0.086,0.152,0.282,0.18,0.385
			c0.026,0.098,0.006,0.305,0.033,0.401c0.019,0.063,0.069,0.193,0.121,0.233c0.05,0.039,0.184,0.055,0.247,0.059
			c0.046,0.003,0.141-0.004,0.184-0.021c0.032-0.013,0.103-0.047,0.113-0.079c0.017-0.055-0.058-0.163-0.084-0.214
			s-0.126-0.134-0.13-0.191c-0.003-0.049,0.051-0.142,0.088-0.172c0.026-0.021,0.1-0.02,0.13-0.033
			c0.026-0.012,0.094-0.034,0.096-0.062c0.005-0.061-0.128-0.131-0.18-0.163c-0.062-0.04-0.213-0.072-0.271-0.117
			c-0.07-0.055-0.188-0.199-0.217-0.284c-0.017-0.048-0.032-0.162,0-0.2c0.032-0.04,0.149-0.046,0.2-0.038
			c0.061,0.01,0.156,0.109,0.218,0.117c0.057,0.007,0.176-0.024,0.221-0.059c0.038-0.028,0.08-0.118,0.097-0.163
			c0.022-0.062,0.016-0.199,0.042-0.259c0.024-0.057,0.126-0.14,0.15-0.196c0.02-0.047,0.036-0.151,0.029-0.201
			c-0.01-0.062-0.105-0.166-0.109-0.229c-0.001-0.031,0.024-0.092,0.042-0.117c0.018-0.024,0.062-0.075,0.092-0.075
			c0.038,0,0.08,0.089,0.117,0.096c0.058,0.012,0.187-0.024,0.222-0.07c0.025-0.035,0.021-0.133,0.004-0.172
			c-0.027-0.061-0.143-0.146-0.204-0.171c-0.051-0.021-0.166,0.004-0.218-0.013c-0.042-0.014-0.12-0.063-0.15-0.097
			c-0.044-0.046-0.107-0.16-0.125-0.221c-0.016-0.051-0.052-0.174-0.013-0.209c0.033-0.031,0.139,0.05,0.18,0.029
			c0.057-0.029,0.094-0.169,0.112-0.23c0.012-0.039,0.038-0.125,0.021-0.163c-0.021-0.046-0.144-0.068-0.167-0.112
			c-0.011-0.02-0.012-0.069,0-0.088c0.015-0.024,0.075-0.053,0.104-0.05c0.039,0.003,0.087,0.091,0.126,0.092
			c0.051,0.001,0.154-0.064,0.171-0.113c0.017-0.047-0.063-0.139-0.062-0.188c0.002-0.082,0.144-0.23,0.113-0.306
			c-0.016-0.037-0.106-0.064-0.146-0.071c-0.07-0.01-0.209,0.046-0.28,0.042c-0.112-0.006-0.34-0.053-0.435-0.112
			c-0.072-0.046-0.188-0.184-0.222-0.264c-0.03-0.073-0.026-0.238-0.024-0.317c0.001-0.079-0.002-0.245,0.037-0.313
			c0.038-0.066,0.171-0.16,0.242-0.184c0.059-0.02,0.186-0.01,0.247,0c0.081,0.012,0.242,0.055,0.313,0.096
			c0.042,0.024,0.115,0.093,0.142,0.134c0.037,0.055,0.051,0.195,0.092,0.246c0.03,0.038,0.112,0.113,0.159,0.104
			c0.034-0.005,0.078-0.074,0.084-0.108c0.012-0.074-0.054-0.223-0.097-0.284c-0.035-0.051-0.139-0.126-0.192-0.158
			c-0.038-0.024-0.131-0.047-0.167-0.075c-0.059-0.047-0.15-0.171-0.184-0.238c-0.041-0.082-0.064-0.267-0.097-0.352
			c-0.021-0.057-0.118-0.158-0.104-0.217c0.013-0.054,0.127-0.104,0.175-0.13c0.052-0.027,0.172-0.049,0.222-0.079
			c0.057-0.034,0.131-0.156,0.192-0.18c0.059-0.023,0.188-0.009,0.251,0c0.093,0.013,0.276,0.061,0.359,0.104
			c0.081,0.043,0.203,0.19,0.284,0.233c0.027,0.016,0.098,0.016,0.121,0.038c0.024,0.023,0.04,0.096,0.046,0.129
			c0.007,0.04-0.023,0.127,0,0.159c0.027,0.039,0.144,0.032,0.18,0.062c0.034,0.029,0.071,0.116,0.088,0.159
			c0.016,0.042-0.001,0.152,0.037,0.176c0.039,0.022,0.147-0.014,0.172-0.051c0.049-0.073-0.037-0.263-0.042-0.351
			c-0.007-0.108,0.009-0.326,0-0.435c-0.006-0.073,0.006-0.237-0.046-0.289c-0.028-0.028-0.132,0.005-0.159-0.024
			c-0.018-0.02-0.007-0.078-0.008-0.104c-0.002-0.048,0.023-0.151,0-0.192c-0.031-0.053-0.169-0.079-0.214-0.121
			c-0.045-0.044-0.116-0.153-0.133-0.213c-0.016-0.054-0.013-0.168,0-0.222c0.017-0.077,0.104-0.211,0.133-0.284
			c0.028-0.071,0.057-0.226,0.093-0.293c0.059-0.109,0.22-0.306,0.313-0.389c0.075-0.067,0.252-0.17,0.342-0.217
			c0.031-0.017,0.119-0.021,0.13-0.055c0.012-0.037-0.051-0.111-0.083-0.134c-0.045-0.03-0.159-0.04-0.214-0.037
			c-0.045,0.002-0.13,0.044-0.175,0.05c-0.06,0.007-0.181,0.004-0.238-0.009c-0.041-0.008-0.114-0.055-0.155-0.062
			c-0.092-0.018-0.282,0-0.376,0c-0.051,0-0.154-0.012-0.205,0c-0.048,0.012-0.131,0.099-0.18,0.088
			c-0.077-0.017-0.149-0.186-0.2-0.246c-0.052-0.063-0.166-0.182-0.209-0.251c-0.031-0.052-0.085-0.162-0.096-0.222
			c-0.023-0.127-0.018-0.393,0.024-0.514c0.036-0.104,0.158-0.306,0.255-0.355c0.062-0.032,0.21,0.002,0.28,0
			c0.113-0.004,0.348,0.015,0.451-0.029c0.062-0.026,0.158-0.131,0.201-0.184c0.082-0.101,0.162-0.367,0.268-0.443
			c0.056-0.041,0.213-0.024,0.271-0.062c0.068-0.044,0.148-0.193,0.196-0.259c0.074-0.103,0.198-0.326,0.288-0.414
			c0.061-0.059,0.225-0.121,0.28-0.184c0.054-0.062,0.124-0.217,0.142-0.297c0.023-0.104,0.035-0.326,0-0.427
			c-0.043-0.125-0.239-0.316-0.33-0.413c-0.07-0.076-0.217-0.226-0.305-0.28c-0.078-0.05-0.252-0.12-0.343-0.138
			c-0.065-0.013-0.202-0.014-0.268,0c-0.067,0.013-0.196,0.068-0.255,0.104c-0.078,0.048-0.197,0.198-0.28,0.238
			c-0.087,0.042-0.283,0.077-0.38,0.075c-0.08-0.002-0.23-0.082-0.31-0.075c-0.055,0.004-0.146,0.076-0.2,0.087
			c-0.044,0.01-0.148,0.032-0.18,0c-0.039-0.038-0.022-0.167,0-0.217c0.021-0.047,0.111-0.109,0.154-0.138
			c0.049-0.033,0.154-0.094,0.213-0.101c0.064-0.008,0.19,0.05,0.255,0.05c0.065,0,0.197-0.021,0.255-0.05
			c0.104-0.053,0.246-0.253,0.343-0.317c0.085-0.057,0.271-0.162,0.372-0.167c0.095-0.005,0.265,0.12,0.359,0.121
			c0.067,0,0.197-0.046,0.255-0.08c0.065-0.037,0.151-0.177,0.222-0.204c0.04-0.016,0.129,0,0.172,0c0.078,0,0.234,0,0.312,0
			c0.059,0,0.182,0.024,0.234,0c0.041-0.02,0.117-0.093,0.117-0.139c0-0.107-0.194-0.26-0.275-0.33
			c-0.07-0.06-0.244-0.133-0.318-0.188c-0.057-0.043-0.176-0.13-0.209-0.192c-0.023-0.046-0.009-0.157-0.029-0.205
			c-0.022-0.054-0.12-0.133-0.142-0.188c-0.039-0.097-0.004-0.32-0.05-0.414c-0.051-0.102-0.246-0.237-0.326-0.317
			c-0.12-0.121-0.359-0.362-0.473-0.489c-0.126-0.142-0.35-0.448-0.48-0.585c-0.057-0.059-0.164-0.195-0.242-0.218
			c-0.035-0.01-0.109,0.04-0.143,0.025c-0.032-0.015-0.071-0.086-0.075-0.121s0.049-0.099,0.046-0.134
			c-0.003-0.04-0.045-0.115-0.075-0.142c-0.048-0.045-0.189-0.062-0.242-0.101c-0.067-0.05-0.146-0.208-0.213-0.259
			c-0.077-0.061-0.275-0.11-0.355-0.168c-0.036-0.025-0.088-0.104-0.125-0.129c-0.084-0.056-0.286-0.099-0.376-0.143
			c-0.043-0.021-0.116-0.094-0.163-0.096c-0.038-0.002-0.102,0.055-0.138,0.062c-0.037,0.008-0.122,0.024-0.151,0
			c-0.028-0.024-0.011-0.115-0.024-0.15c-0.021-0.053-0.109-0.134-0.126-0.188c-0.016-0.054,0.015-0.171,0-0.226
			c-0.018-0.066-0.1-0.181-0.138-0.238c-0.03-0.046-0.097-0.135-0.134-0.175c-0.023-0.026-0.071-0.083-0.104-0.097
			c-0.061-0.025-0.199,0.003-0.263-0.013c-0.069-0.017-0.203-0.073-0.26-0.116c-0.089-0.068-0.217-0.258-0.284-0.348
			c-0.115-0.154-0.275-0.527-0.433-0.639c-0.122-0.088-0.446-0.093-0.583-0.157c-0.105-0.05-0.301-0.186-0.382-0.27
			c-0.087-0.089-0.189-0.324-0.276-0.414c-0.084-0.087-0.299-0.207-0.395-0.281c-0.062-0.048-0.189-0.141-0.238-0.201
			c-0.06-0.074-0.111-0.268-0.176-0.338c-0.079-0.087-0.286-0.206-0.395-0.251c-0.08-0.033-0.265-0.031-0.339-0.075
			c-0.049-0.03-0.103-0.143-0.15-0.176c-0.072-0.05-0.244-0.131-0.332-0.119c-0.089,0.012-0.226,0.149-0.295,0.207
			c-0.049,0.04-0.12,0.19-0.182,0.176c-0.101-0.025-0.057-0.323-0.132-0.396c-0.059-0.057-0.236-0.065-0.313-0.094
			c-0.078-0.029-0.226-0.116-0.307-0.138c-0.087-0.023-0.283,0.014-0.357-0.038c-0.066-0.046-0.084-0.235-0.145-0.288
			c-0.07-0.062-0.263-0.123-0.357-0.125c-0.027-0.001-0.083,0.047-0.106,0.031c-0.029-0.021,0.019-0.126-0.012-0.145
			c-0.047-0.028-0.153,0.057-0.201,0.081c-0.036,0.02-0.097,0.087-0.138,0.088c-0.058,0.002-0.156-0.075-0.201-0.112
			c-0.043-0.037-0.099-0.142-0.144-0.176c-0.068-0.051-0.231-0.109-0.313-0.132c-0.078-0.021-0.252-0.087-0.319-0.044
			c-0.045,0.028-0.071,0.149-0.063,0.201c0.009,0.057,0.088,0.151,0.132,0.188s0.164,0.058,0.207,0.095
			c0.037,0.031,0.072,0.128,0.106,0.162c0.034,0.036,0.135,0.073,0.163,0.113c0.041,0.057,0.044,0.207,0.075,0.27
			c0.033,0.067,0.135,0.181,0.182,0.238c0.055,0.066,0.197,0.177,0.226,0.257c0.018,0.049,0.022,0.164-0.006,0.207
			c-0.025,0.037-0.118,0.07-0.163,0.075c-0.101,0.011-0.311-0.032-0.395-0.088c-0.059-0.038-0.109-0.182-0.163-0.226
			c-0.021-0.017-0.069-0.051-0.095-0.044c-0.046,0.014-0.07,0.125-0.1,0.163c-0.043,0.055-0.138,0.16-0.194,0.2
			c-0.048,0.034-0.182,0.051-0.214,0.101c-0.026,0.042-0.03,0.161,0,0.201c0.029,0.037,0.144,0.022,0.183,0.05
			c0.048,0.033,0.116,0.134,0.138,0.188c0.02,0.051,0.003,0.165,0.024,0.214c0.054,0.117,0.247,0.299,0.346,0.382
			c0.062,0.053,0.232,0.106,0.275,0.176c0.026,0.043,0.045,0.157,0.019,0.2c-0.017,0.028-0.087,0.055-0.119,0.051
			c-0.069-0.01-0.157-0.144-0.219-0.176c-0.068-0.035-0.222-0.063-0.295-0.088c-0.078-0.025-0.232-0.079-0.308-0.112
			c-0.123-0.056-0.37-0.173-0.477-0.258c-0.097-0.077-0.265-0.267-0.325-0.376c-0.049-0.087-0.062-0.301-0.119-0.382
			c-0.039-0.054-0.15-0.137-0.214-0.157c-0.056-0.019-0.18-0.013-0.237,0c-0.062,0.014-0.195,0.053-0.227,0.106
			c-0.029,0.054-0.004,0.191,0.025,0.245c0.027,0.049,0.129,0.107,0.176,0.138c0.083,0.053,0.278,0.11,0.351,0.176
			c0.091,0.081,0.214,0.297,0.264,0.407c0.049,0.108,0.096,0.344,0.132,0.458c0.027,0.085,0.104,0.25,0.119,0.338
			c0.008,0.05-0.01,0.151,0,0.201c0.014,0.072,0.092,0.203,0.106,0.275c0.009,0.046,0.004,0.141,0.006,0.188
			c0.005,0.096,0.042,0.287,0.025,0.382c-0.009,0.051-0.062,0.141-0.082,0.188c-0.026,0.063-0.039,0.238-0.106,0.257
			c-0.032,0.009-0.089-0.053-0.106-0.082c-0.056-0.092-0.083-0.318-0.075-0.426c0.006-0.067,0.081-0.189,0.088-0.257
			c0.009-0.083-0.001-0.257-0.037-0.332c-0.054-0.11-0.28-0.242-0.345-0.345c-0.061-0.095-0.093-0.325-0.151-0.421
			c-0.072-0.12-0.27-0.328-0.382-0.413c-0.099-0.075-0.356-0.134-0.438-0.226c-0.044-0.049-0.044-0.203-0.095-0.245
			c-0.023-0.019-0.092-0.031-0.119-0.019c-0.049,0.023-0.104,0.134-0.106,0.188c-0.003,0.075,0.114,0.2,0.126,0.275
			c0.011,0.075-0.056,0.228-0.038,0.301c0.015,0.06,0.097,0.156,0.138,0.201c0.062,0.064,0.225,0.151,0.282,0.219
			c0.049,0.058,0.12,0.192,0.145,0.264c0.027,0.081,0.015,0.261,0.05,0.339c0.034,0.074,0.173,0.179,0.213,0.25
			c0.047,0.084,0.116,0.269,0.119,0.364c0.003,0.064-0.055,0.187-0.062,0.25c-0.012,0.094,0.041,0.292,0,0.376
			c-0.02,0.042-0.099,0.107-0.145,0.113c-0.064,0.008-0.199-0.054-0.237-0.106c-0.068-0.093-0.019-0.347-0.051-0.458
			c-0.031-0.11-0.149-0.311-0.2-0.413c-0.069-0.138-0.182-0.43-0.282-0.546c-0.03-0.034-0.104-0.101-0.15-0.106
			c-0.043-0.005-0.12,0.056-0.163,0.062c-0.085,0.015-0.262-0.034-0.345-0.013c-0.089,0.024-0.234,0.146-0.313,0.194
			c-0.099,0.061-0.287,0.197-0.395,0.238c-0.062,0.024-0.205,0.082-0.264,0.051c-0.04-0.022-0.044-0.132-0.069-0.17
			c-0.016-0.023-0.054-0.074-0.081-0.081c-0.039-0.011-0.132,0.012-0.157,0.044c-0.042,0.056,0.017,0.214,0,0.282
			c-0.014,0.057-0.068,0.163-0.106,0.207c-0.046,0.053-0.161,0.151-0.231,0.162c-0.031,0.005-0.088-0.038-0.119-0.037
			c-0.051,0.002-0.146,0.046-0.188,0.075c-0.056,0.039-0.155,0.138-0.182,0.2c-0.025,0.062-0.02,0.203-0.013,0.27
			c0.006,0.049,0.039,0.141,0.051,0.188c0.015,0.064,0.064,0.195,0.054,0.261c-0.005,0.032-0.062,0.079-0.064,0.111
			c-0.002,0.023,0.017,0.071,0.033,0.088c0.016,0.015,0.07,0.008,0.079,0.027c0.019,0.036-0.022,0.128-0.054,0.154
			c-0.036,0.029-0.139,0.016-0.184,0.025c-0.064,0.014-0.193,0.048-0.253,0.075c-0.049,0.021-0.145,0.072-0.18,0.112
			c-0.023,0.026-0.025,0.116-0.059,0.125c-0.021,0.007-0.063-0.028-0.073-0.048c-0.014-0.024-0.009-0.086,0-0.112
			c0.009-0.028,0.062-0.067,0.066-0.097c0.006-0.03-0.012-0.095-0.031-0.119c-0.04-0.049-0.176-0.078-0.229-0.112
			c-0.061-0.039-0.154-0.157-0.222-0.182c-0.025-0.01-0.08-0.009-0.106-0.002c-0.038,0.008-0.113,0.041-0.138,0.07
			c-0.031,0.036-0.028,0.144-0.059,0.18c-0.022,0.026-0.087,0.067-0.121,0.065c-0.045-0.004-0.112-0.074-0.143-0.107
			c-0.032-0.034-0.11-0.111-0.104-0.158c0.01-0.074,0.158-0.162,0.222-0.203c0.076-0.049,0.245-0.124,0.334-0.144
			c0.068-0.016,0.209-0.02,0.278-0.011c0.065,0.008,0.198,0.039,0.255,0.073c0.041,0.025,0.096,0.11,0.134,0.14
			c0.024,0.02,0.077,0.06,0.108,0.062c0.024,0.003,0.071-0.018,0.092-0.031c0.038-0.023,0.118-0.085,0.126-0.129
			c0.008-0.048-0.05-0.138-0.08-0.176c-0.047-0.06-0.19-0.127-0.24-0.184c-0.073-0.085-0.169-0.293-0.221-0.394
			c-0.026-0.05-0.045-0.187-0.099-0.205c-0.029-0.011-0.082,0.049-0.113,0.053c-0.079,0.011-0.261,0.002-0.316-0.057
			c-0.042-0.044-0.043-0.184-0.031-0.244c0.009-0.043,0.047-0.131,0.085-0.153c0.039-0.023,0.138-0.015,0.182-0.003
			c0.04,0.01,0.104,0.073,0.145,0.084c0.035,0.01,0.112,0.011,0.146-0.003s0.073-0.084,0.107-0.097
			c0.026-0.012,0.087-0.008,0.115-0.004c0.036,0.005,0.103,0.034,0.139,0.041c0.039,0.008,0.121,0.024,0.159,0.013
			c0.076-0.024,0.189-0.146,0.245-0.204c0.128-0.134,0.31-0.466,0.448-0.589c0.056-0.051,0.19-0.125,0.26-0.157
			c0.101-0.045,0.32-0.087,0.42-0.135c0.091-0.043,0.279-0.138,0.339-0.219c0.082-0.113,0.086-0.416,0.147-0.543
			c0.051-0.106,0.199-0.297,0.281-0.382c0.108-0.112,0.367-0.291,0.489-0.389c0.107-0.086,0.343-0.236,0.427-0.345
			c0.058-0.075,0.093-0.274,0.156-0.345c0.088-0.097,0.327-0.222,0.451-0.264c0.107-0.036,0.358,0.009,0.451-0.057
			c0.067-0.046,0.131-0.209,0.15-0.288c0.035-0.134-0.003-0.414,0.013-0.552c0.017-0.146,0.062-0.44,0.119-0.576
			c0.056-0.131,0.287-0.332,0.32-0.471c0.016-0.067-0.001-0.217-0.038-0.275c-0.045-0.072-0.201-0.163-0.282-0.188
			c-0.06-0.019-0.188-0.014-0.251-0.006c-0.046,0.006-0.139,0.03-0.182,0.05c-0.071,0.034-0.217,0.114-0.257,0.182
			c-0.037,0.064,0.004,0.229-0.031,0.295c-0.031,0.057-0.137,0.153-0.2,0.163c-0.078,0.013-0.218-0.099-0.295-0.113
			c-0.102-0.019-0.318-0.04-0.414,0c-0.058,0.025-0.128,0.141-0.175,0.183c-0.09,0.077-0.292,0.201-0.383,0.275
			c-0.083,0.067-0.21,0.265-0.313,0.288c-0.092,0.021-0.271-0.126-0.363-0.106c-0.059,0.013-0.13,0.128-0.182,0.157
			c-0.081,0.044-0.271,0.062-0.352,0.106c-0.1,0.054-0.261,0.219-0.351,0.288c-0.124,0.095-0.4,0.251-0.508,0.363
			c-0.072,0.076-0.167,0.266-0.226,0.352c-0.053,0.075-0.15,0.234-0.22,0.295c-0.113,0.098-0.377,0.272-0.526,0.288
			c-0.082,0.009-0.265-0.029-0.313-0.094c-0.045-0.06,0.027-0.229-0.007-0.295c-0.033-0.063-0.163-0.147-0.231-0.169
			c-0.064-0.021-0.205-0.019-0.27,0c-0.072,0.02-0.192,0.118-0.257,0.156c-0.088,0.052-0.254,0.173-0.352,0.2
			c-0.1,0.029-0.311,0.031-0.414,0.02c-0.095-0.012-0.311-0.03-0.369-0.106c-0.039-0.052-0.035-0.2-0.007-0.258
			c0.036-0.072,0.193-0.147,0.264-0.188c0.103-0.059,0.32-0.153,0.433-0.188c0.095-0.029,0.29-0.065,0.389-0.075
			c0.144-0.015,0.433-0.005,0.576-0.006c0.152-0.001,0.461,0.036,0.608,0c0.095-0.023,0.272-0.117,0.345-0.182
			c0.061-0.055,0.166-0.19,0.182-0.27c0.02-0.096-0.033-0.295-0.075-0.383c-0.04-0.083-0.153-0.245-0.238-0.282
			c-0.113-0.049-0.375,0.055-0.495,0.025c-0.122-0.03-0.354-0.159-0.433-0.257c-0.047-0.06-0.089-0.213-0.094-0.289
			c-0.004-0.071,0.024-0.218,0.057-0.281c0.021-0.044,0.084-0.157,0.132-0.145c0.037,0.01,0.009,0.119,0.031,0.15
			c0.026,0.037,0.112,0.084,0.156,0.094c0.067,0.016,0.207-0.031,0.276-0.024c0.102,0.009,0.301,0.07,0.395,0.112
			c0.124,0.057,0.342,0.224,0.458,0.295c0.086,0.053,0.252,0.18,0.351,0.207c0.061,0.016,0.188,0,0.251,0
			c0.083-0.001,0.264,0.04,0.332-0.007c0.054-0.036,0.071-0.181,0.101-0.238c0.038-0.076,0.117-0.231,0.175-0.294
			c0.051-0.055,0.174-0.147,0.245-0.17c0.04-0.013,0.147,0.036,0.169,0c0.022-0.036-0.054-0.117-0.081-0.15
			c-0.055-0.065-0.191-0.169-0.264-0.213c-0.118-0.072-0.372-0.197-0.508-0.226c-0.176-0.037-0.541-0.003-0.721,0
			c-0.176,0.002-0.538-0.044-0.702,0.019c-0.048,0.019-0.115,0.103-0.156,0.132c-0.059,0.041-0.178,0.166-0.245,0.145
			c-0.032-0.011-0.054-0.092-0.057-0.126c-0.005-0.086,0.054-0.259,0.101-0.332c0.07-0.108,0.276-0.274,0.389-0.339
			c0.178-0.101,0.592-0.171,0.777-0.257c0.106-0.049,0.292-0.201,0.401-0.244c0.088-0.035,0.279-0.102,0.37-0.075
			c0.079,0.023,0.177,0.175,0.238,0.231c0.095,0.089,0.276,0.279,0.389,0.345c0.115,0.068,0.387,0.117,0.507,0.176
			c0.102,0.049,0.275,0.196,0.377,0.244c0.08,0.039,0.249,0.108,0.338,0.113c0.127,0.006,0.396-0.034,0.495-0.113
			c0.056-0.043,0.123-0.181,0.126-0.25c0.003-0.064-0.058-0.187-0.095-0.238c-0.029-0.043-0.111-0.111-0.156-0.138
			c-0.08-0.05-0.27-0.092-0.352-0.139c-0.055-0.031-0.145-0.125-0.2-0.156c-0.035-0.02-0.127-0.023-0.15-0.057
			c-0.042-0.059,0.016-0.22-0.006-0.288c-0.032-0.102-0.165-0.275-0.238-0.352c-0.05-0.052-0.165-0.144-0.232-0.169
			c-0.097-0.037-0.328,0.016-0.413-0.044c-0.044-0.03-0.082-0.137-0.095-0.188c-0.024-0.1-0.01-0.31-0.006-0.413
			c0.002-0.071,0.048-0.215,0.024-0.282c-0.037-0.109-0.222-0.268-0.312-0.339c-0.189-0.146-0.627-0.346-0.841-0.451
			c-0.185-0.091-0.587-0.215-0.752-0.339c-0.077-0.058-0.154-0.289-0.251-0.294c-0.038-0.002-0.089,0.076-0.112,0.106
			c-0.047,0.06-0.131,0.19-0.15,0.264c-0.021,0.078,0.002,0.244,0,0.325c-0.003,0.08,0.016,0.248-0.02,0.32
			c-0.028,0.059-0.129,0.165-0.194,0.175c-0.047,0.008-0.129-0.067-0.175-0.081c-0.067-0.02-0.207-0.047-0.276-0.038
			c-0.031,0.005-0.094,0.029-0.119,0.051c-0.033,0.028-0.053,0.133-0.094,0.15c-0.03,0.014-0.107-0.002-0.132-0.025
			c-0.042-0.041-0.053-0.173-0.05-0.231c0.003-0.066,0.085-0.186,0.081-0.251c-0.004-0.089-0.125-0.239-0.144-0.326
			c-0.012-0.054-0.022-0.169,0-0.22c0.015-0.035,0.088-0.076,0.112-0.106c0.063-0.078,0.167-0.252,0.207-0.345
			c0.031-0.07,0.068-0.22,0.088-0.294c0.02-0.072,0.059-0.216,0.069-0.289c0.012-0.085,0.032-0.259,0.019-0.345
			c-0.013-0.076-0.049-0.244-0.113-0.288c-0.057-0.039-0.209,0.018-0.275,0c-0.063-0.017-0.193-0.075-0.226-0.132
			c-0.019-0.032-0.02-0.118,0-0.15c0.03-0.051,0.165-0.071,0.207-0.112c0.049-0.05,0.097-0.185,0.131-0.245
			c0.023-0.039,0.062-0.125,0.095-0.156c0.036-0.034,0.147-0.053,0.175-0.095c0.024-0.035,0.03-0.128,0.02-0.169
			c-0.01-0.035-0.055-0.103-0.088-0.119c-0.049-0.024-0.174-0.029-0.22,0c-0.021,0.015-0.028,0.073-0.044,0.095
			c-0.039,0.054-0.134,0.152-0.194,0.182c-0.043,0.02-0.142,0.034-0.188,0.024c-0.064-0.013-0.161-0.125-0.226-0.131
			c-0.069-0.008-0.2,0.06-0.264,0.087c-0.072,0.031-0.209,0.109-0.275,0.15c-0.069,0.043-0.184,0.175-0.264,0.188
			c-0.044,0.007-0.138-0.02-0.169-0.05c-0.046-0.044-0.085-0.176-0.082-0.238c0.003-0.066,0.06-0.197,0.106-0.245
			c0.069-0.069,0.264-0.136,0.357-0.162c0.068-0.021,0.214-0.017,0.282-0.038c0.114-0.036,0.352-0.126,0.427-0.22
			c0.042-0.053,0.081-0.196,0.068-0.263c-0.01-0.052-0.09-0.13-0.125-0.17c-0.058-0.063-0.175-0.192-0.251-0.231
			c-0.049-0.025-0.16-0.056-0.213-0.044c-0.028,0.006-0.066,0.059-0.095,0.069c-0.052,0.019-0.172,0.041-0.219,0.012
			c-0.059-0.035-0.072-0.195-0.113-0.25c-0.038-0.052-0.134-0.147-0.194-0.17c-0.067-0.025-0.218-0.014-0.288,0
			c-0.053,0.011-0.147,0.089-0.2,0.082c-0.034-0.005-0.092-0.052-0.107-0.082c-0.015-0.03,0.012-0.104,0-0.138
			c-0.028-0.086-0.149-0.229-0.219-0.288c-0.076-0.063-0.255-0.158-0.352-0.182c-0.069-0.018-0.222,0.026-0.288,0
			c-0.057-0.023-0.149-0.114-0.176-0.17c-0.05-0.107-0.054-0.358-0.031-0.476c0.009-0.043,0.084-0.114,0.075-0.157
			c-0.013-0.061-0.137-0.128-0.188-0.163c-0.078-0.052-0.24-0.157-0.333-0.169c-0.056-0.007-0.163,0.044-0.219,0.05
			c-0.075,0.009-0.242,0.048-0.301,0c-0.064-0.051-0.012-0.262-0.069-0.319c-0.034-0.034-0.14-0.038-0.188-0.044
			c-0.104-0.012-0.323-0.042-0.42,0c-0.062,0.027-0.125,0.173-0.188,0.2c-0.1,0.043-0.335-0.046-0.433,0
			c-0.058,0.027-0.12,0.148-0.163,0.194c-0.055,0.059-0.157,0.191-0.232,0.22c-0.097,0.037-0.312,0.011-0.413-0.013
			c-0.079-0.018-0.216-0.114-0.295-0.132c-0.111-0.024-0.344,0.003-0.457-0.006c-0.191-0.016-0.57-0.077-0.759-0.113
			c-0.103-0.02-0.312-0.052-0.407-0.094c-0.068-0.03-0.175-0.144-0.245-0.169c-0.058-0.021-0.185-0.012-0.244-0.025
			c-0.046-0.01-0.148-0.024-0.176-0.062c-0.041-0.059,0-0.217,0-0.288c0-0.079,0.027-0.24,0-0.313
			c-0.021-0.059-0.135-0.133-0.163-0.188c-0.03-0.062-0.021-0.21-0.057-0.27c-0.021-0.038-0.087-0.123-0.131-0.119
			c-0.06,0.006-0.114,0.138-0.145,0.188c-0.027,0.045-0.053,0.154-0.088,0.194c-0.05,0.056-0.183,0.169-0.257,0.156
			c-0.063-0.011-0.135-0.143-0.163-0.2c-0.042-0.089-0.058-0.288-0.081-0.383c-0.013-0.048-0.056-0.139-0.057-0.188
			c-0.002-0.1,0.066-0.29,0.101-0.383c0.02-0.056,0.096-0.154,0.1-0.213c0.006-0.072-0.064-0.206-0.081-0.276
			c-0.021-0.09-0.024-0.282-0.069-0.363s-0.195-0.204-0.275-0.251c-0.053-0.03-0.171-0.076-0.232-0.075
			c-0.066,0.002-0.203,0.047-0.25,0.095c-0.044,0.042-0.085,0.165-0.088,0.226c-0.005,0.069,0.047,0.203,0.068,0.27
			c0.023,0.072,0.114,0.206,0.113,0.281c-0.002,0.065-0.073,0.183-0.106,0.238c-0.028,0.046-0.084,0.146-0.132,0.17
			c-0.07,0.034-0.25,0.046-0.313,0c-0.089-0.065-0.089-0.319-0.132-0.42c-0.062-0.146-0.194-0.446-0.307-0.559
			c-0.072-0.071-0.271-0.143-0.357-0.194c-0.09-0.053-0.315-0.128-0.352-0.226c-0.032-0.087,0.119-0.265,0.106-0.357
			c-0.014-0.103-0.154-0.271-0.219-0.351c-0.08-0.099-0.254-0.289-0.364-0.352c-0.104-0.059-0.349-0.091-0.464-0.125
			c-0.146-0.043-0.473-0.082-0.583-0.188c-0.069-0.066-0.066-0.291-0.131-0.363c-0.076-0.084-0.297-0.175-0.408-0.2
			c-0.102-0.024-0.315,0.011-0.42,0c-0.108-0.012-0.321-0.063-0.426-0.095c-0.072-0.021-0.211-0.131-0.282-0.106
			s-0.126,0.188-0.157,0.258c-0.051,0.116-0.088,0.374-0.144,0.488c-0.062,0.13-0.228,0.372-0.332,0.471
			c-0.066,0.062-0.251,0.117-0.308,0.188c-0.052,0.064-0.054,0.25-0.106,0.313c-0.036,0.044-0.142,0.094-0.194,0.113
			c-0.099,0.035-0.309,0.07-0.414,0.068c-0.113-0.001-0.334-0.062-0.444-0.088c-0.046-0.011-0.153-0.012-0.183-0.05
			c-0.049-0.064-0.009-0.245,0-0.326c0.009-0.079,0.056-0.234,0.069-0.313c0.018-0.107,0.066-0.324,0.05-0.433
			c-0.011-0.072-0.119-0.195-0.119-0.27c0-0.089,0.12-0.24,0.145-0.325c0.033-0.117,0.021-0.371,0.069-0.483
			c0.033-0.078,0.165-0.198,0.213-0.27c0.028-0.042,0.094-0.125,0.101-0.175c0.009-0.076-0.071-0.22-0.082-0.295
			c-0.009-0.063-0.025-0.198,0-0.257c0.029-0.066,0.146-0.169,0.213-0.194c0.064-0.025,0.208-0.013,0.276,0
			c0.056,0.01,0.156,0.081,0.213,0.081s0.166-0.05,0.213-0.081c0.034-0.023,0.107-0.079,0.113-0.119
			c0.005-0.035-0.037-0.103-0.062-0.126c-0.043-0.038-0.16-0.06-0.214-0.081c-0.041-0.017-0.121-0.083-0.162-0.069
			c-0.033,0.012-0.045,0.096-0.069,0.119c-0.042,0.04-0.15,0.093-0.207,0.106c-0.111,0.027-0.345-0.018-0.458,0
			c-0.104,0.017-0.307,0.084-0.4,0.132c-0.12,0.062-0.321,0.245-0.433,0.32c-0.098,0.065-0.294,0.196-0.401,0.244
			c-0.075,0.033-0.241,0.057-0.313,0.094c-0.046,0.023-0.117,0.103-0.163,0.126c-0.039,0.02-0.129,0.031-0.169,0.05
			c-0.031,0.015-0.102,0.043-0.113,0.075c-0.01,0.027,0.035,0.084,0.031,0.113c-0.011,0.096-0.157,0.246-0.188,0.338
			c-0.027,0.084-0.014,0.269-0.044,0.352c-0.021,0.058-0.095,0.162-0.138,0.206c-0.051,0.052-0.188,0.112-0.238,0.163
			c-0.046,0.047-0.096,0.176-0.145,0.22c-0.047,0.042-0.164,0.099-0.226,0.113c-0.043,0.01-0.136,0.019-0.176,0
			c-0.066-0.031-0.123-0.192-0.188-0.227c-0.049-0.025-0.165-0.021-0.22-0.019c-0.112,0.004-0.336,0.044-0.445,0.069
			c-0.091,0.021-0.302,0.037-0.357,0.112c-0.041,0.058-0.001,0.212,0,0.282c0.002,0.103,0.063,0.319,0.013,0.408
			c-0.03,0.053-0.154,0.104-0.213,0.118c-0.055,0.015-0.173,0.021-0.226,0c-0.036-0.014-0.075-0.116-0.113-0.106
			c-0.061,0.016-0.03,0.195-0.075,0.238c-0.037,0.036-0.148,0.054-0.2,0.057c-0.043,0.003-0.134-0.001-0.169-0.025
			c-0.045-0.03-0.06-0.163-0.107-0.188c-0.076-0.04-0.26,0.014-0.345,0.031c-0.075,0.016-0.218,0.085-0.294,0.094
			c-0.077,0.009-0.23-0.029-0.308-0.025c-0.049,0.003-0.148,0.058-0.194,0.038c-0.034-0.015-0.083-0.088-0.081-0.125
			c0.002-0.051,0.119-0.107,0.125-0.157s-0.039-0.169-0.088-0.182s-0.115,0.102-0.163,0.119c-0.047,0.018-0.154-0.002-0.2,0.019
			c-0.035,0.017-0.095,0.072-0.113,0.106c-0.022,0.044-0.001,0.156-0.031,0.194c-0.041,0.053-0.191,0.066-0.244,0.106
			c-0.028,0.022-0.059,0.093-0.088,0.113c-0.125,0.09-0.438,0.149-0.583,0.2c-0.102,0.036-0.306,0.108-0.407,0.145
			c-0.111,0.039-0.362,0.073-0.445,0.157c-0.047,0.047-0.053,0.193-0.088,0.25c-0.028,0.047-0.101,0.135-0.15,0.157
			c-0.07,0.03-0.23,0-0.307,0.006c-0.073,0.006-0.221,0.013-0.289,0.038s-0.175,0.139-0.244,0.163
			c-0.057,0.02-0.18,0.032-0.238,0.019c-0.108-0.025-0.314-0.139-0.383-0.226c-0.044-0.057-0.076-0.204-0.081-0.276
			c-0.005-0.069,0.013-0.213,0.044-0.275c0.068-0.136,0.327-0.317,0.426-0.433c0.079-0.092,0.19-0.318,0.289-0.389
			c0.054-0.038,0.188-0.061,0.251-0.081c0.053-0.019,0.171-0.038,0.213-0.076c0.06-0.054,0.155-0.215,0.138-0.294
			c-0.012-0.055-0.148-0.093-0.169-0.145c-0.021-0.053-0.004-0.177,0.024-0.226c0.049-0.083,0.236-0.168,0.313-0.226
			c0.067-0.051,0.241-0.126,0.264-0.207c0.017-0.06-0.107-0.173-0.088-0.231c0.021-0.065,0.191-0.09,0.232-0.145
			c0.045-0.062,0.084-0.224,0.075-0.301c-0.009-0.074-0.136-0.189-0.139-0.264c-0.001-0.046,0.094-0.126,0.075-0.169
			c-0.02-0.046-0.143-0.047-0.188-0.069c-0.079-0.038-0.284-0.095-0.301-0.182c-0.008-0.04,0.066-0.106,0.1-0.132
			c0.054-0.039,0.186-0.082,0.251-0.094c0.053-0.01,0.162-0.014,0.213,0c0.065,0.018,0.178,0.099,0.232,0.138
			c0.061,0.045,0.176,0.144,0.226,0.201c0.045,0.051,0.092,0.191,0.15,0.226c0.038,0.022,0.136,0.032,0.176,0.013
			c0.051-0.025,0.081-0.153,0.125-0.188c0.039-0.031,0.153-0.033,0.188-0.069c0.043-0.043,0.054-0.177,0.081-0.231
			c0.021-0.042,0.121-0.111,0.106-0.156c-0.015-0.048-0.148-0.039-0.188-0.069c-0.089-0.067-0.256-0.252-0.257-0.363
			c-0.002-0.1,0.138-0.275,0.219-0.333c0.038-0.026,0.146-0.015,0.182-0.044c0.048-0.036,0.085-0.159,0.113-0.213
			c0.029-0.057,0.114-0.162,0.119-0.226c0.004-0.055-0.039-0.161-0.069-0.207c-0.054-0.082-0.251-0.175-0.294-0.263
			c-0.019-0.037,0.006-0.127-0.013-0.163c-0.022-0.043-0.137-0.073-0.15-0.119c-0.017-0.052,0.03-0.164,0.062-0.207
			c0.03-0.041,0.134-0.076,0.169-0.113c0.05-0.051,0.188-0.184,0.15-0.244c-0.034-0.055-0.195,0.044-0.257,0.025
			c-0.059-0.019-0.131-0.135-0.188-0.157c-0.047-0.019-0.152-0.024-0.201-0.013c-0.045,0.012-0.114,0.081-0.156,0.101
			c-0.07,0.032-0.219,0.096-0.295,0.088c-0.059-0.006-0.15-0.098-0.207-0.113c-0.071-0.019-0.224,0.015-0.295-0.006
			c-0.038-0.011-0.099-0.074-0.138-0.081c-0.082-0.017-0.252,0.024-0.332,0.05c-0.059,0.018-0.158,0.11-0.22,0.106
			c-0.072-0.004-0.198-0.101-0.244-0.156c-0.042-0.053-0.052-0.199-0.094-0.251c-0.031-0.038-0.123-0.08-0.163-0.106
			c-0.044-0.029-0.123-0.113-0.176-0.119c-0.085-0.011-0.271,0.049-0.319,0.119c-0.027,0.038,0.015,0.144,0,0.188
			c-0.023,0.068-0.117,0.185-0.176,0.226c-0.046,0.032-0.157,0.066-0.213,0.069c-0.062,0.004-0.188-0.024-0.245-0.05
			c-0.055-0.025-0.167-0.091-0.194-0.145c-0.035-0.07,0.032-0.242,0-0.313c-0.028-0.063-0.164-0.132-0.206-0.188
			c-0.058-0.075-0.097-0.278-0.17-0.338c-0.036-0.03-0.135-0.05-0.182-0.05c-0.054-0.001-0.159,0.031-0.207,0.056
			c-0.071,0.037-0.18,0.162-0.251,0.201c-0.213,0.116-0.691,0.232-0.921,0.313c-0.321,0.113-0.956,0.362-1.279,0.47
			c-0.183,0.061-0.55,0.185-0.739,0.22c-0.198,0.036-0.602,0.061-0.803,0.062c-0.204,0.002-0.614-0.09-0.814-0.05
			c-0.123,0.024-0.329,0.19-0.451,0.219c-0.143,0.034-0.438,0.009-0.583,0.007c-0.131-0.003-0.408,0.04-0.521-0.025
			c-0.124-0.072-0.222-0.368-0.308-0.482c-0.068-0.092-0.229-0.255-0.301-0.345c-0.05-0.063-0.163-0.187-0.188-0.264
			c-0.053-0.162,0.056-0.522,0-0.684c-0.03-0.085-0.243-0.193-0.226-0.281c0.019-0.099,0.266-0.142,0.351-0.194
			c0.117-0.074,0.358-0.218,0.451-0.32c0.07-0.077,0.111-0.321,0.207-0.363c0.062-0.027,0.196,0.069,0.264,0.062
			c0.121-0.012,0.34-0.138,0.444-0.2c0.091-0.055,0.32-0.153,0.333-0.258c0.005-0.042-0.104-0.089-0.107-0.131
			c-0.002-0.035,0.042-0.109,0.075-0.119c0.039-0.012,0.104,0.07,0.145,0.068c0.033-0.001,0.089-0.047,0.113-0.068
			c0.042-0.038,0.09-0.15,0.138-0.182c0.082-0.056,0.303-0.042,0.382-0.101c0.093-0.068,0.165-0.306,0.245-0.389
			c0.076-0.08,0.278-0.181,0.363-0.251c0.092-0.076,0.287-0.23,0.339-0.339c0.038-0.081,0.017-0.27,0.037-0.356
			c0.017-0.069,0.05-0.215,0.101-0.264c0.052-0.049,0.211-0.048,0.27-0.088c0.078-0.053,0.165-0.237,0.244-0.288
			c0.058-0.037,0.196-0.064,0.264-0.075c0.096-0.016,0.292-0.019,0.389-0.013c0.131,0.008,0.391,0.104,0.521,0.081
			c0.063-0.011,0.175-0.085,0.226-0.125c0.057-0.046,0.131-0.183,0.194-0.22c0.083-0.048,0.286-0.046,0.376-0.081
			c0.096-0.038,0.273-0.146,0.351-0.213c0.067-0.058,0.2-0.186,0.226-0.27c0.02-0.062,0.001-0.198-0.024-0.258
			c-0.052-0.121-0.249-0.31-0.345-0.4c-0.105-0.101-0.37-0.242-0.458-0.357c-0.049-0.065-0.083-0.231-0.125-0.301
			c-0.028-0.046-0.119-0.113-0.138-0.163c-0.022-0.059,0.015-0.192-0.007-0.251c-0.03-0.084-0.175-0.204-0.22-0.282
			c-0.067-0.12-0.107-0.411-0.2-0.514c-0.034-0.038-0.143-0.062-0.182-0.095c-0.04-0.033-0.085-0.136-0.125-0.169
			c-0.05-0.04-0.199-0.052-0.232-0.106c-0.03-0.048,0.023-0.172,0.006-0.226c-0.013-0.043-0.066-0.124-0.106-0.145
			c-0.039-0.02-0.138-0.022-0.175,0c-0.048,0.028-0.097,0.141-0.107,0.194c-0.011,0.056,0.01,0.171,0.025,0.226
			c0.012,0.042,0.071,0.114,0.075,0.157c0.003,0.03-0.006,0.102-0.031,0.119c-0.05,0.033-0.184-0.006-0.238-0.031
			c-0.084-0.04-0.19-0.208-0.27-0.257c-0.062-0.039-0.203-0.112-0.275-0.101c-0.066,0.01-0.157,0.126-0.214,0.163
			c-0.053,0.034-0.182,0.074-0.219,0.125c-0.041,0.055-0.061,0.195-0.062,0.264c-0.004,0.082,0.013,0.252,0.05,0.325
			c0.031,0.062,0.131,0.169,0.194,0.194c0.061,0.025,0.2-0.018,0.264,0c0.099,0.029,0.298,0.131,0.351,0.22
			c0.05,0.085,0.077,0.311,0.022,0.393c-0.042,0.064-0.212,0.112-0.288,0.104c-0.069-0.006-0.178-0.114-0.242-0.142
			c-0.104-0.044-0.325-0.125-0.438-0.121c-0.085,0.003-0.256,0.057-0.318,0.112c-0.064,0.06-0.129,0.232-0.15,0.318
			c-0.016,0.062,0.004,0.192-0.012,0.255c-0.019,0.067-0.066,0.213-0.126,0.25c-0.04,0.026-0.144,0.006-0.192,0.005
			c-0.054-0.002-0.169-0.044-0.217-0.017c-0.03,0.017-0.033,0.104-0.062,0.121c-0.056,0.028-0.192,0-0.247-0.029
			c-0.047-0.025-0.117-0.114-0.138-0.163c-0.036-0.088,0.012-0.291-0.029-0.376c-0.037-0.076-0.174-0.188-0.247-0.23
			c-0.064-0.037-0.213-0.091-0.288-0.088c-0.077,0.004-0.243,0.051-0.288,0.113c-0.064,0.09,0,0.334-0.021,0.443
			c-0.016,0.08-0.091,0.229-0.104,0.309c-0.013,0.072-0.003,0.22-0.005,0.293c-0.001,0.079,0.017,0.242-0.008,0.317
			c-0.017,0.05-0.071,0.147-0.117,0.172c-0.053,0.027-0.187,0.024-0.238-0.005c-0.05-0.027-0.084-0.152-0.125-0.192
			c-0.089-0.085-0.309-0.204-0.423-0.25c-0.059-0.024-0.184-0.052-0.246-0.059c-0.097-0.012-0.322-0.07-0.389,0
			c-0.029,0.03-0.016,0.136,0.008,0.171c0.038,0.055,0.207,0.053,0.243,0.108c0.028,0.044,0.012,0.158,0,0.209
			c-0.012,0.049-0.051,0.147-0.088,0.18c-0.037,0.033-0.14,0.07-0.188,0.063c-0.085-0.013-0.202-0.168-0.284-0.197
			c-0.057-0.02-0.18-0.006-0.238-0.017c-0.094-0.017-0.272-0.091-0.367-0.104c-0.088-0.012-0.271-0.028-0.355,0
			c-0.065,0.022-0.157,0.134-0.218,0.168c-0.098,0.055-0.31,0.165-0.422,0.158c-0.123-0.007-0.329-0.169-0.438-0.226
			c-0.104-0.054-0.301-0.189-0.414-0.217c-0.115-0.029-0.358-0.018-0.477,0c-0.062,0.009-0.193,0.027-0.238,0.07
			c-0.053,0.052-0.1,0.206-0.096,0.28c0.004,0.073,0.078,0.208,0.125,0.264c0.051,0.06,0.189,0.137,0.255,0.18
			c0.042,0.026,0.153,0.054,0.172,0.1c0.026,0.064-0.045,0.203-0.071,0.268c-0.024,0.062-0.096,0.177-0.13,0.234
			c-0.046,0.08-0.118,0.262-0.191,0.317c-0.045,0.033-0.16,0.073-0.214,0.059c-0.083-0.023-0.155-0.227-0.238-0.251
			c-0.041-0.012-0.133,0.016-0.167,0.042c-0.059,0.045-0.098,0.202-0.146,0.259c-0.037,0.044-0.146,0.097-0.18,0.143
			c-0.032,0.044-0.054,0.156-0.079,0.205c-0.021,0.04-0.077,0.111-0.101,0.15c-0.045,0.076-0.117,0.239-0.167,0.313
			c-0.058,0.086-0.177,0.269-0.268,0.321c-0.047,0.027-0.159,0.047-0.213,0.038c-0.049-0.009-0.122-0.095-0.171-0.101
			c-0.062-0.008-0.183,0.047-0.243,0.066c-0.065,0.022-0.22,0.043-0.259,0.101c-0.042,0.062,0.039,0.234,0,0.297
			c-0.021,0.032-0.11,0.04-0.138,0.066c-0.058,0.056-0.127,0.205-0.154,0.28c-0.033,0.089-0.069,0.277-0.08,0.372
			c-0.006,0.061,0.036,0.193,0,0.242c-0.025,0.036-0.144,0.018-0.167,0.055c-0.033,0.052,0.045,0.187,0.029,0.246
			c-0.021,0.078-0.119,0.218-0.188,0.26c-0.048,0.029-0.185-0.007-0.226,0.033c-0.029,0.029-0.052,0.135-0.024,0.167
			c0.03,0.037,0.157-0.029,0.192,0.004c0.04,0.04-0.018,0.178,0.012,0.226c0.025,0.041,0.13,0.062,0.163,0.097
			c0.031,0.03,0.059,0.118,0.088,0.15c0.058,0.063,0.226,0.132,0.276,0.2c0.015,0.021,0.015,0.079,0.033,0.097
			c0.069,0.065,0.273,0.091,0.367,0.108c0.134,0.024,0.407,0.07,0.539,0.042c0.104-0.022,0.277-0.158,0.372-0.205
			c0.089-0.044,0.271-0.127,0.364-0.159c0.121-0.041,0.369-0.114,0.497-0.125c0.191-0.016,0.575,0.036,0.765,0.067
			c0.071,0.011,0.208,0.061,0.28,0.066c0.082,0.007,0.248-0.029,0.33-0.021c0.047,0.005,0.15,0.016,0.184,0.05
			c0.028,0.028,0.044,0.114,0.042,0.154c-0.002,0.037-0.023,0.117-0.055,0.139c-0.029,0.02-0.116-0.025-0.142,0
			c-0.018,0.018-0.013,0.078,0,0.1c0.018,0.032,0.092,0.062,0.125,0.075c0.048,0.021,0.172,0.008,0.201,0.051
			c0.012,0.018,0.001,0.07-0.013,0.087c-0.012,0.015-0.06,0.011-0.071,0.025c-0.044,0.054-0.055,0.208-0.038,0.276
			c0.014,0.054,0.098,0.135,0.13,0.18c0.038,0.052,0.131,0.147,0.15,0.209c0.023,0.072,0.003,0.229,0,0.305
			c-0.001,0.051-0.018,0.153-0.013,0.205c0.008,0.064,0.085,0.187,0.071,0.25c-0.011,0.05-0.084,0.134-0.13,0.155
			c-0.034,0.016-0.116-0.01-0.154,0c-0.046,0.011-0.12,0.086-0.167,0.088c-0.033,0.001-0.089-0.048-0.121-0.055
			c-0.024-0.005-0.087-0.021-0.101,0c-0.022,0.034,0.039,0.12,0.067,0.15c0.054,0.058,0.214,0.102,0.279,0.146
			c0.051,0.034,0.131,0.129,0.185,0.158c0.057,0.032,0.185,0.075,0.25,0.08c0.06,0.004,0.176-0.032,0.234-0.038
			c0.049-0.004,0.147,0.002,0.196-0.004c0.041-0.005,0.118-0.038,0.159-0.038c0.043,0.001,0.141,0.012,0.167,0.047
			c0.022,0.029,0.014,0.115,0,0.15c-0.012,0.028-0.058,0.075-0.084,0.092c-0.04,0.024-0.144,0.024-0.184,0.05
			c-0.021,0.014-0.042,0.062-0.062,0.075c-0.055,0.035-0.198,0.033-0.251,0.071c-0.038,0.027-0.067,0.127-0.104,0.154
			c-0.033,0.025-0.118,0.04-0.158,0.051c-0.03,0.007-0.102-0.003-0.122,0.021c-0.015,0.018-0.012,0.072,0,0.092
			c0.02,0.032,0.095,0.06,0.13,0.071c0.048,0.016,0.163-0.009,0.2,0.025c0.046,0.04,0.059,0.177,0.055,0.237
			c-0.004,0.062-0.051,0.182-0.083,0.234c-0.023,0.038-0.105,0.088-0.122,0.13c-0.015,0.039-0.021,0.131,0,0.167
			c0.037,0.062,0.211,0.079,0.251,0.138c0.026,0.037-0.013,0.154,0.025,0.18c0.027,0.019,0.095-0.021,0.125-0.033
			c0.045-0.018,0.125-0.076,0.172-0.088c0.064-0.016,0.218-0.045,0.268,0c0.027,0.025,0.02,0.113,0.012,0.15
			c-0.011,0.054-0.087,0.141-0.104,0.192c-0.015,0.045-0.004,0.147-0.029,0.188c-0.015,0.023-0.078,0.041-0.092,0.066
			c-0.022,0.045,0.015,0.152,0,0.2c-0.015,0.052-0.063,0.159-0.112,0.18c-0.057,0.024-0.181-0.069-0.238-0.05
			c-0.049,0.017-0.09,0.128-0.134,0.154c-0.056,0.034-0.202,0.02-0.255,0.059c-0.031,0.023-0.065,0.097-0.075,0.134
			c-0.012,0.046-0.021,0.146,0,0.188c0.025,0.054,0.168,0.093,0.184,0.15c0.011,0.037-0.025,0.119-0.054,0.146
			c-0.021,0.02-0.092,0.013-0.113,0.033c-0.031,0.029-0.023,0.133-0.055,0.163c-0.026,0.026-0.117,0.018-0.142,0.046
			c-0.04,0.045-0.006,0.19-0.046,0.234c-0.021,0.022-0.101,0.01-0.121,0.033c-0.041,0.047-0.039,0.185-0.034,0.246
			c0.009,0.104,0.129,0.294,0.122,0.397c-0.007,0.09-0.08,0.275-0.155,0.326c-0.056,0.037-0.2,0.007-0.268,0.012
			c-0.037,0.004-0.107,0.031-0.142,0.047c-0.052,0.022-0.141,0.117-0.196,0.112c-0.058-0.005-0.126-0.126-0.18-0.146
			c-0.055-0.02-0.174-0.016-0.23-0.004c-0.062,0.014-0.176,0.074-0.229,0.108c-0.075,0.048-0.199,0.18-0.276,0.226
			c-0.057,0.035-0.194,0.062-0.246,0.104c-0.061,0.049-0.185,0.178-0.18,0.255c0.004,0.07,0.169,0.142,0.188,0.209
			c0.017,0.059-0.005,0.191-0.042,0.238c-0.03,0.038-0.163,0.029-0.176,0.075c-0.023,0.085,0.143,0.227,0.209,0.284
			c0.052,0.045,0.182,0.099,0.242,0.13c0.051,0.026,0.174,0.053,0.205,0.101c0.021,0.032,0.013,0.116,0.008,0.154
			c-0.002,0.023-0.036,0.071-0.024,0.092c0.019,0.034,0.111,0.049,0.15,0.046c0.057-0.004,0.153-0.072,0.205-0.096
			c0.033-0.016,0.097-0.06,0.133-0.059c0.059,0.001,0.153,0.087,0.209,0.101c0.036,0.008,0.113,0.014,0.146,0
			c0.031-0.014,0.061-0.087,0.092-0.097c0.049-0.015,0.156,0.012,0.197,0.042c0.048,0.036,0.068,0.176,0.116,0.213
			c0.06,0.047,0.226,0.041,0.293,0.075c0.027,0.015,0.067,0.067,0.096,0.08c0.046,0.019,0.158-0.014,0.196,0.017
			c0.056,0.042,0.079,0.194,0.093,0.263c0.017,0.088-0.021,0.276,0.021,0.355c0.025,0.048,0.124,0.107,0.171,0.134
			c0.06,0.032,0.188,0.084,0.255,0.088c0.079,0.005,0.23-0.062,0.31-0.067c0.069-0.005,0.207,0.018,0.276,0.021
			c0.146,0.007,0.454-0.053,0.585,0.013c0.039,0.02,0.1,0.095,0.108,0.138c0.01,0.047-0.037,0.138-0.05,0.184
			c-0.017,0.061-0.031,0.19-0.067,0.242c-0.056,0.081-0.258,0.152-0.317,0.23c-0.047,0.062-0.112,0.214-0.108,0.292
			c0.003,0.058,0.061,0.164,0.1,0.205c0.047,0.049,0.185,0.089,0.238,0.13c0.032,0.024,0.098,0.079,0.113,0.116
			c0.014,0.035,0.008,0.114,0,0.15c-0.012,0.055-0.055,0.16-0.088,0.205c-0.051,0.068-0.182,0.191-0.264,0.218
			c-0.044,0.014-0.141,0.005-0.184-0.013c-0.066-0.027-0.15-0.163-0.217-0.188c-0.086-0.031-0.276-0.022-0.364,0
			c-0.062,0.017-0.179,0.078-0.222,0.126s-0.096,0.174-0.1,0.238c-0.005,0.066,0.026,0.208,0.07,0.259
			c0.058,0.064,0.232,0.132,0.318,0.13c0.051-0.002,0.142-0.059,0.184-0.088c0.05-0.035,0.123-0.14,0.176-0.172
			c0.032-0.021,0.107-0.052,0.146-0.05c0.036,0.002,0.108,0.035,0.133,0.062c0.041,0.044,0.077,0.166,0.084,0.226
			c0.004,0.032,0.001,0.103-0.017,0.13c-0.02,0.029-0.1,0.047-0.121,0.075c-0.018,0.023-0.046,0.086-0.033,0.112
			c0.008,0.019,0.052,0.037,0.07,0.034c0.031-0.006,0.06-0.076,0.088-0.088c0.031-0.013,0.11-0.023,0.134,0
			c0.026,0.026,0.01,0.114,0,0.15c-0.012,0.043-0.061,0.122-0.092,0.154c-0.026,0.028-0.112,0.05-0.13,0.084
			c-0.025,0.051-0.004,0.175,0.013,0.229c0.022,0.073,0.132,0.19,0.154,0.264c0.017,0.05,0.021,0.156,0.018,0.209
			c-0.004,0.049-0.041,0.143-0.042,0.192c-0.001,0.033,0.034,0.101,0.024,0.133c-0.012,0.046-0.088,0.113-0.125,0.143
			c-0.062,0.048-0.199,0.13-0.275,0.146c-0.056,0.012-0.173,0.006-0.226-0.013c-0.087-0.031-0.246-0.141-0.297-0.218
			c-0.042-0.062-0.043-0.22-0.071-0.288c-0.028-0.067-0.096-0.203-0.15-0.251c-0.053-0.045-0.188-0.094-0.255-0.108
			c-0.079-0.017-0.242-0.016-0.322-0.008c-0.052,0.004-0.174-0.001-0.204,0.041c-0.017,0.023,0.025,0.088,0.013,0.113
			c-0.021,0.037-0.111,0.088-0.151,0.075c-0.037-0.013-0.044-0.113-0.07-0.143c-0.027-0.029-0.098-0.082-0.139-0.083
			c-0.043-0.001-0.119,0.057-0.154,0.083c-0.045,0.035-0.12,0.122-0.154,0.168c-0.027,0.035-0.084,0.107-0.097,0.15
			c-0.018,0.062,0.006,0.194,0,0.259c-0.003,0.046-0.018,0.139-0.029,0.184c-0.006,0.025-0.03,0.074-0.033,0.101
			c-0.003,0.029,0.023,0.088,0.017,0.117c-0.01,0.041-0.076,0.101-0.096,0.138c-0.019,0.035-0.06,0.11-0.055,0.15
			c0.006,0.046,0.095,0.109,0.104,0.154c0.008,0.035-0.011,0.107-0.021,0.143c-0.011,0.037-0.051,0.104-0.059,0.142
			c-0.011,0.054-0.009,0.164,0,0.218c0.008,0.047,0.059,0.132,0.062,0.18c0.003,0.033-0.029,0.101-0.021,0.134
			c0.013,0.047,0.101,0.106,0.121,0.15c0.021,0.045,0.016,0.151,0.037,0.196c0.021,0.043,0.079,0.132,0.126,0.143
			c0.032,0.007,0.089-0.045,0.121-0.055c0.055-0.018,0.171-0.059,0.226-0.042c0.044,0.014,0.114,0.087,0.13,0.13
			c0.018,0.051-0.037,0.165-0.021,0.217c0.02,0.065,0.116,0.169,0.167,0.214c0.08,0.069,0.274,0.156,0.364,0.213
			c0.05,0.031,0.17,0.08,0.196,0.134c0.023,0.05-0.023,0.166-0.017,0.222c0.006,0.05,0.027,0.155,0.062,0.191
			c0.029,0.031,0.139,0.021,0.158,0.059c0.014,0.026-0.012,0.09-0.028,0.113c-0.021,0.028-0.104,0.044-0.122,0.075
			c-0.022,0.042-0.014,0.146,0,0.192c0.011,0.034,0.08,0.085,0.08,0.121c0,0.019-0.027,0.051-0.042,0.062
			c-0.023,0.02-0.088,0.029-0.113,0.046c-0.04,0.027-0.116,0.094-0.138,0.138c-0.018,0.037-0.003,0.125-0.017,0.163
			c-0.016,0.047-0.073,0.129-0.104,0.167c-0.031,0.039-0.099,0.113-0.142,0.139c-0.048,0.026-0.156,0.049-0.209,0.059
			c-0.115,0.02-0.349,0.042-0.464,0.033c-0.128-0.011-0.375-0.084-0.498-0.117c-0.138-0.038-0.411-0.124-0.547-0.172
			c-0.053-0.018-0.153-0.075-0.209-0.079s-0.175,0.015-0.218,0.051c-0.033,0.028-0.058,0.119-0.066,0.162
			c-0.014,0.07-0.024,0.218,0,0.284c0.011,0.029,0.055,0.077,0.079,0.097c0.044,0.035,0.157,0.068,0.201,0.104
			c0.085,0.069,0.22,0.25,0.279,0.343c0.025,0.039,0.049,0.136,0.084,0.167c0.032,0.029,0.138,0.026,0.163,0.062
			c0.037,0.054,0.021,0.2,0.004,0.264c-0.011,0.039-0.071,0.099-0.084,0.138c-0.012,0.039,0.002,0.123-0.008,0.163
			c-0.018,0.068-0.081,0.199-0.126,0.255c-0.058,0.072-0.222,0.169-0.288,0.234c-0.046,0.045-0.141,0.141-0.167,0.2
			s-0.05,0.194-0.037,0.259c0.018,0.097,0.156,0.251,0.191,0.343c0.019,0.047,0.084,0.162,0.046,0.196
			c-0.017,0.016-0.069-0.015-0.087-0.029c-0.031-0.023-0.047-0.14-0.084-0.129c-0.039,0.01-0.018,0.123-0.009,0.163
			c0.013,0.056,0.07,0.158,0.109,0.2c0.059,0.063,0.223,0.133,0.292,0.184c0.061,0.044,0.18,0.138,0.23,0.192
			c0.039,0.043,0.094,0.149,0.134,0.192c0.079,0.085,0.284,0.203,0.363,0.288c0.146,0.159,0.382,0.527,0.48,0.719
			c0.095,0.184,0.229,0.577,0.293,0.773c0.051,0.158,0.15,0.479,0.175,0.644c0.023,0.154,0.026,0.467,0.021,0.623
			c-0.006,0.169-0.011,0.513-0.067,0.673c-0.016,0.044-0.089,0.113-0.104,0.158c-0.028,0.086-0.034,0.271-0.024,0.359
			c0.006,0.057,0.032,0.17,0.062,0.218c0.062,0.099,0.284,0.215,0.347,0.313c0.032,0.051,0.039,0.179,0.071,0.229
			c0.056,0.089,0.242,0.203,0.309,0.284c0.052,0.062,0.134,0.204,0.172,0.276c0.021,0.04,0.034,0.14,0.071,0.167
			c0.045,0.033,0.182-0.016,0.226,0.021c0.041,0.035,0.042,0.157,0.059,0.209c0.017,0.055,0.068,0.16,0.07,0.218
			c0.002,0.037-0.041,0.109-0.033,0.146c0.011,0.05,0.076,0.141,0.121,0.163c0.044,0.022,0.149,0.014,0.196,0
			c0.041-0.011,0.105-0.077,0.146-0.088c0.027-0.006,0.09-0.008,0.113,0.009c0.025,0.02,0.04,0.089,0.046,0.121
			c0.008,0.044-0.023,0.142,0,0.18c0.037,0.062,0.194,0.096,0.255,0.134c0.096,0.062,0.276,0.202,0.363,0.275
			c0.06,0.051,0.153,0.185,0.226,0.214c0.113,0.045,0.367-0.009,0.489,0.004c0.094,0.01,0.278,0.062,0.372,0.075
			c0.092,0.014,0.278,0.042,0.372,0.038c0.094-0.005,0.277-0.062,0.371-0.071c0.043-0.004,0.138-0.026,0.172,0
			c0.035,0.026,0.052,0.127,0.046,0.171c-0.011,0.079-0.108,0.215-0.159,0.276c-0.054,0.065-0.18,0.189-0.259,0.222
			c-0.044,0.018-0.141,0.011-0.188,0.012c-0.037,0.002-0.134-0.033-0.15,0c-0.019,0.038,0.07,0.109,0.104,0.134
			c0.021,0.017,0.083,0.018,0.101,0.038c0.026,0.029,0.01,0.123,0.033,0.154c0.042,0.056,0.186,0.095,0.242,0.134
			c0.045,0.03,0.11,0.142,0.163,0.138c0.034-0.002,0.061-0.089,0.093-0.1c0.111-0.039,0.361,0.026,0.468,0.079
			c0.109,0.055,0.295,0.228,0.355,0.334c0.036,0.065,0.004,0.246,0.062,0.293c0.03,0.024,0.118-0.015,0.154,0
			c0.057,0.022,0.129,0.129,0.176,0.167c0.078,0.063,0.256,0.161,0.33,0.229c0.088,0.082,0.254,0.264,0.305,0.372
			c0.025,0.053,0.04,0.172,0.046,0.23c0.006,0.054-0.019,0.166,0,0.217c0.023,0.062,0.124,0.158,0.172,0.205
			c0.1,0.097,0.314,0.276,0.435,0.347c0.105,0.062,0.348,0.124,0.455,0.184c0.097,0.054,0.264,0.199,0.355,0.26
			c0.125,0.082,0.409,0.198,0.514,0.305c0.084,0.084,0.178,0.308,0.238,0.409c0.069,0.115,0.179,0.373,0.284,0.456
			c0.069,0.054,0.251,0.081,0.335,0.108c0.097,0.031,0.298,0.079,0.389,0.125c0.106,0.055,0.289,0.212,0.384,0.285
			c0.117,0.089,0.349,0.271,0.46,0.367c0.078,0.067,0.233,0.202,0.301,0.28c0.044,0.05,0.129,0.155,0.15,0.217
			c0.018,0.049-0.014,0.164,0.017,0.205c0.033,0.044,0.15,0.076,0.205,0.079c0.072,0.005,0.211-0.046,0.28-0.066
			c0.08-0.024,0.23-0.105,0.313-0.113c0.095-0.008,0.29,0.021,0.376,0.062c0.068,0.033,0.182,0.143,0.226,0.205
			c0.028,0.04,0.044,0.143,0.075,0.18c0.03,0.036,0.116,0.082,0.159,0.101c0.049,0.021,0.164,0.023,0.209,0.055
			c0.04,0.027,0.073,0.129,0.112,0.158c0.047,0.035,0.166,0.059,0.222,0.075c0.124,0.037,0.384,0.075,0.502,0.13
			c0.111,0.052,0.308,0.207,0.4,0.288c0.069,0.06,0.179,0.209,0.251,0.264c0.044,0.032,0.144,0.084,0.196,0.1
			c0.065,0.021,0.207,0.013,0.271,0.034c0.106,0.034,0.312,0.137,0.389,0.217c0.068,0.071,0.164,0.254,0.18,0.352
			c0.013,0.074-0.017,0.229-0.041,0.301c-0.016,0.043-0.08,0.114-0.093,0.158c-0.02,0.076-0.009,0.236,0,0.313
			c0.01,0.076,0.023,0.238,0.071,0.297c0.045,0.055,0.188,0.1,0.255,0.121c0.075,0.024,0.23,0.057,0.31,0.059
			c0.087,0.003,0.263-0.07,0.347-0.046c0.086,0.025,0.212,0.168,0.271,0.234c0.056,0.062,0.139,0.206,0.188,0.271
			c0.024,0.032,0.068,0.106,0.104,0.125c0.084,0.044,0.282,0.021,0.376,0.029c0.107,0.01,0.325,0.021,0.431,0.046
			c0.062,0.015,0.176,0.076,0.238,0.088c0.066,0.013,0.204-0.008,0.271,0.004c0.059,0.011,0.172,0.054,0.226,0.08
			c0.052,0.024,0.142,0.103,0.196,0.121c0.088,0.029,0.276,0.022,0.368,0.033c0.046,0.006,0.141,0.008,0.184,0.025
			c0.069,0.028,0.173,0.15,0.242,0.18c0.076,0.032,0.243,0.056,0.326,0.054c0.07-0.001,0.206-0.06,0.275-0.054
			c0.062,0.005,0.182,0.051,0.234,0.083c0.04,0.025,0.114,0.088,0.134,0.13c0.03,0.065,0.048,0.224,0.017,0.288
			c-0.016,0.034-0.097,0.06-0.121,0.088c-0.026,0.031-0.043,0.122-0.075,0.146c-0.029,0.021-0.127-0.004-0.143,0.029
			c-0.012,0.025,0.033,0.082,0.055,0.101c0.051,0.042,0.205,0.031,0.251,0.079c0.025,0.026,0.039,0.105,0.037,0.142
			c-0.002,0.044-0.072,0.123-0.059,0.163c0.019,0.052,0.148,0.075,0.188,0.113c0.027,0.026,0.072,0.089,0.084,0.125
			c0.019,0.062-0.007,0.192,0.004,0.255c0.008,0.048,0.022,0.156,0.062,0.185c0.04,0.027,0.147-0.009,0.196-0.005
			c0.053,0.005,0.164,0.01,0.205,0.042c0.032,0.026,0.033,0.126,0.066,0.15s0.123,0.025,0.163,0.017
			c0.034-0.007,0.088-0.058,0.121-0.066c0.084-0.022,0.262-0.017,0.348-0.004c0.087,0.013,0.256,0.071,0.338,0.104
			c0.035,0.014,0.135,0.029,0.134,0.066c-0.001,0.032-0.104,0.021-0.117,0.05c-0.009,0.022,0.015,0.074,0.034,0.088
			c0.033,0.025,0.129,0.031,0.167,0.013c0.018-0.009,0.027-0.058,0.046-0.066c0.055-0.028,0.207,0.051,0.246,0.004
			c0.019-0.022-0.012-0.086-0.021-0.113c-0.011-0.032-0.08-0.092-0.062-0.121c0.019-0.031,0.109-0.005,0.146,0
			c0.028,0.005,0.09,0.013,0.109,0.033c0.021,0.024,0.012,0.099,0.029,0.126c0.023,0.038,0.095,0.1,0.138,0.112
			c0.046,0.015,0.147,0.001,0.192-0.017c0.029-0.011,0.072-0.061,0.1-0.075c0.048-0.023,0.152-0.066,0.205-0.059
			c0.045,0.007,0.128,0.062,0.15,0.101c0.022,0.04-0.015,0.145,0.009,0.184c0.027,0.049,0.133,0.114,0.188,0.121
			c0.075,0.011,0.213-0.084,0.289-0.092c0.077-0.007,0.254-0.018,0.309,0.038c0.021,0.021-0.01,0.101,0.013,0.121
			c0.033,0.03,0.138,0.016,0.18,0c0.038-0.014,0.086-0.094,0.126-0.104c0.057-0.017,0.177,0.019,0.233,0.033
			c0.084,0.022,0.251,0.076,0.322,0.126c0.032,0.021,0.109,0.078,0.104,0.116c-0.005,0.032-0.099,0.037-0.109,0.067
			c-0.009,0.027,0.015,0.092,0.038,0.108c0.032,0.023,0.122-0.016,0.159,0c0.044,0.02,0.118,0.096,0.133,0.143
			c0.01,0.027-0.023,0.09-0.012,0.116c0.014,0.035,0.082,0.079,0.116,0.093c0.044,0.016,0.142-0.009,0.185,0.008
			c0.04,0.016,0.11,0.076,0.134,0.113c0.027,0.043,0.02,0.159,0.054,0.196c0.022,0.023,0.094,0.058,0.121,0.042
			c0.041-0.023,0.022-0.14,0.038-0.185c0.008-0.023,0.026-0.073,0.046-0.088c0.05-0.036,0.182-0.035,0.242-0.041
			c0.108-0.011,0.328-0.03,0.435-0.009c0.094,0.019,0.274,0.094,0.347,0.154c0.05,0.042,0.098,0.168,0.143,0.214
			c0.037,0.038,0.127,0.102,0.176,0.125c0.035,0.018,0.115,0.064,0.15,0.046c0.029-0.016,0.011-0.109,0.037-0.13
			c0.038-0.027,0.146-0.021,0.188,0c0.036,0.019,0.075,0.096,0.096,0.13c0.029,0.048,0.062,0.159,0.101,0.201
			c0.041,0.045,0.151,0.101,0.205,0.129c0.155,0.083,0.478,0.227,0.644,0.284c0.078,0.027,0.238,0.085,0.321,0.084
			c0.034-0.001,0.097-0.044,0.13-0.038c0.037,0.007,0.088,0.07,0.121,0.088c0.07,0.037,0.222,0.104,0.301,0.104
			c0.062,0.001,0.173-0.066,0.234-0.075c0.052-0.007,0.157,0.017,0.209,0.009c0.059-0.01,0.211-0.023,0.226-0.082
			c0.011-0.043-0.11-0.088-0.119-0.132c-0.008-0.038,0.017-0.128,0.05-0.15c0.019-0.012,0.068-0.004,0.088,0.007
			c0.031,0.017,0.052,0.109,0.088,0.112c0.051,0.005,0.13-0.091,0.15-0.138c0.018-0.04,0.002-0.132,0-0.176
			c-0.002-0.036-0.029-0.111-0.013-0.144c0.01-0.02,0.055-0.038,0.075-0.044c0.059-0.019,0.185-0.03,0.245-0.019
			c0.039,0.007,0.114,0.042,0.144,0.068c0.084,0.075,0.149,0.314,0.238,0.383c0.06,0.046,0.213,0.082,0.288,0.088
			c0.145,0.009,0.427-0.102,0.571-0.095c0.16,0.009,0.486,0.08,0.62,0.17c0.096,0.063,0.223,0.265,0.282,0.363
			c0.039,0.066,0.068,0.229,0.125,0.282c0.073,0.067,0.308,0.059,0.376,0.132c0.044,0.046,0.026,0.197,0.069,0.244
			c0.044,0.048,0.187,0.062,0.244,0.094c0.062,0.033,0.167,0.126,0.226,0.163c0.074,0.047,0.221,0.16,0.308,0.169
			c0.059,0.007,0.167-0.071,0.226-0.068c0.062,0.003,0.177,0.063,0.232,0.094c0.078,0.043,0.209,0.177,0.294,0.207
			c0.103,0.036,0.324,0.029,0.433,0.031c0.082,0.001,0.246,0.004,0.326-0.013c0.048-0.01,0.134-0.06,0.182-0.068
			c0.059-0.011,0.18-0.01,0.238,0c0.034,0.005,0.098,0.05,0.132,0.043c0.077-0.014,0.172-0.169,0.244-0.2
			c0.089-0.037,0.288-0.062,0.383-0.044c0.103,0.021,0.303,0.119,0.369,0.201c0.047,0.057,0.032,0.234,0.088,0.281
			c0.105,0.09,0.408,0.088,0.546,0.075c0.184-0.017,0.519-0.21,0.702-0.231c0.211-0.025,0.634,0.062,0.846,0.069
			c0.191,0.007,0.584-0.068,0.765-0.007c0.093,0.031,0.214,0.214,0.308,0.238c0.062,0.017,0.192-0.044,0.257-0.037
			c0.098,0.009,0.284,0.084,0.37,0.131c0.139,0.076,0.358,0.319,0.501,0.389c0.076,0.037,0.246,0.057,0.326,0.082
			c0.118,0.037,0.354,0.119,0.464,0.176c0.134,0.067,0.377,0.243,0.502,0.325c0.09,0.06,0.277,0.167,0.357,0.238
			c0.034,0.031,0.079,0.119,0.119,0.145c0.035,0.022,0.12,0.044,0.162,0.044c0.038,0,0.107-0.032,0.145-0.038
			c0.061-0.009,0.187-0.032,0.244-0.013c0.036,0.013,0.093,0.069,0.113,0.101c0.034,0.054,0.03,0.199,0.075,0.245
			c0.084,0.086,0.34,0.126,0.458,0.15c0.089,0.018,0.273,0.018,0.363,0.031c0.082,0.012,0.248,0.039,0.326,0.068
			C84.727,93.354,84.83,93.442,84.894,93.459z"/>
	</g>
</g>
<g id="Layer_1">
</g>
</svg>
