<?xml version="1.0" encoding="iso-8859-1"?>
<!-- Generator: Adobe Illustrator 16.0.3, SVG Export Plug-In . SVG Version: 6.00 Build 0)  -->
<!DOCTYPE svg PUBLIC "-//W3C//DTD SVG 1.1//EN" "http://www.w3.org/Graphics/SVG/1.1/DTD/svg11.dtd">
<svg version="1.1" xmlns="http://www.w3.org/2000/svg" xmlns:xlink="http://www.w3.org/1999/xlink" x="0px" y="0px" width="100px"
	 height="100px" viewBox="0 0 100 100" style="enable-background:new 0 0 100 100;" xml:space="preserve">
<g id="MY">
	<g>
		<circle cx="16.675" cy="39.377" r="0.241"/>
		<ellipse cx="15.519" cy="39.39" rx="0.178" ry="0.229"/>
		<ellipse cx="14.807" cy="38.221" rx="0.076" ry="0.102"/>
		<ellipse cx="15.213" cy="37.967" rx="0.102" ry="0.126"/>
		<ellipse cx="15.595" cy="38.462" rx="0.102" ry="0.115"/>
		<g>
			<path d="M14.603,38.729c-0.559-1.119-0.355-0.966-1.118-1.728c-0.763-0.763-1.169-0.229-1.169-0.229s-0.356,0.534-0.61,0.838
				c-0.254,0.306-0.763,1.373-1.322,1.221s-0.661-1.221-1.729-0.712c-1.068,0.508-0.813,1.068-1.474,1.017
				c-0.661-0.051-0.254-0.711-0.051-1.118c0.203-0.407,0.254-1.271-0.305-1.424c-0.56-0.152-0.305-0.813-0.56-1.118
				c-0.254-0.305-0.661-0.254-1.067-0.051c-0.407,0.203-0.61-0.356-1.169-0.661c-0.56-0.305-0.813-0.763-1.118-0.254
				c-0.306,0.508-0.407,1.626-0.407,1.626s0.102,0.916,0.407,1.729c0.305,0.814,0.457,1.373,0.254,1.373
				c-0.204,0-0.407,0.102-0.204,0.66c0.204,0.56,0.458,1.475,0.204,2.085C2.91,42.593,3.571,43,3.774,43.406
				c0.203,0.407-0.102,0.56,0.153,1.068c0.254,0.508,0,0.763-0.102,1.119c-0.102,0.355,0.254,0.915,0.559,1.271
				s0.356,0.661,0.102,0.864s-0.152,0.508,0.152,0.916c0.306,0.407,1.017,0.966,1.271,1.576c0.254,0.611,0.508,0.916,0.864,1.119
				c0.355,0.203,0.559,1.118,0.508,1.678c-0.051,0.56,0.407,1.475,0.966,1.779s1.423,0.661,1.423,0.864s0,0.661,0.356,0.661
				c0.355,0,0.813-0.152,1.017,0.56c0.203,0.711,0.61,0.711,1.119,0.864c0.508,0.152,1.119,0.152,1.119,0.763
				s0.457,0.66,0.915,0.915c0.458,0.254,1.017,0.661,1.475,0.712s1.525,0.559,1.627,1.017c0.102,0.457,0.102,1.271,0.458,1.271
				c0.355,0,0.457-0.559,0.762-0.559s0.763-0.306,1.474-0.306c0.712,0,1.22,0.254,1.322,0.56c0.102,0.305,0.762-0.051,0.762-0.457
				c0-0.407-0.203-1.322-0.508-1.78c-0.305-0.457,0.254-0.408-0.305-1.067c-0.279-0.331-0.508-0.966-0.559-1.245
				c-0.051-0.28-0.254-0.662-0.432-1.246c-0.178-0.585-0.661-0.864-0.916-0.864c-0.254,0-1.067-1.5-1.067-2.237
				s0.076-1.729,0.102-2.109c0.025-0.382-0.127-0.89-0.28-1.297c-0.153-0.406,0.254-0.838,0.407-1.271
				c0.152-0.432-0.127-0.635,0.152-1.144s0.331-1.397,0.153-1.754c-0.178-0.355-0.254-0.889-0.254-1.271
				c0-0.381-0.382-0.712-0.636-1.144c-0.254-0.433-0.406-0.687-0.661-1.322c-0.254-0.635-0.534-1.144-1.042-1.449
				c-0.508-0.306-0.661-0.636-1.067-1.093C14.756,38.907,14.603,38.729,14.603,38.729z"/>
			<g>
				<g>
					<path d="M99.787,44.347c-0.127-0.407-0.584-0.331-0.788-0.254c-0.203,0.076-1.678,0.025-1.982-0.179
						c-0.306-0.203-0.89-0.686-1.271-0.915c-0.381-0.229-0.914,0.077-0.914,0.077s0.126-0.306,0-0.611
						c-0.128-0.305-0.941,0.153-1.349,0.254c-0.406,0.103-0.812-0.127-0.838-0.305s0.432-0.254,0.584-0.355
						c0.152-0.103,0.152-0.483-0.203-0.611c-0.355-0.126-0.89-0.076-1.169,0.077c-0.28,0.152-0.661,0.203-0.661,0
						c0-0.204-0.076-0.407-0.28-0.687c-0.202-0.279-0.127-0.635,0.179-0.762c0.305-0.127,0.305-0.229,0.381-0.584
						c0.076-0.356-0.127-0.611-0.229-1.042c-0.102-0.433-0.254-0.509-0.458-0.28c-0.203,0.229-0.178,0.534-0.406,0.305
						c-0.229-0.229-0.458-0.559-0.763-0.61c-0.305-0.05-0.483-0.305-0.483-0.813c0-0.508-0.152-0.711-0.457-1.042
						c-0.306-0.331-0.534-0.331-0.763-0.153s0.102,0.483,0.127,0.712c0.025,0.229-0.229,0.865-0.56,1.068
						c-0.33,0.203-0.432-0.153-0.432-0.535s0.102-0.635-0.051-1.144s-0.56-0.407-0.839-0.381c-0.279,0.025-0.076,0.584-0.076,0.966
						s-0.229,0.737-0.203,0.966c0.024,0.229-0.076,0.61-0.382,0.61c-0.305,0-0.864,0.712-1.118,1.068
						c-0.255,0.355-0.406,0.763-0.813,0.89c-0.407,0.127-0.382,0.203-0.356,0.813c0.026,0.61-0.152,0.864-0.482,1.169
						c-0.331,0.305-0.56,1.169-1.017,1.5c-0.458,0.33-0.915,0.203-1.094-0.127c-0.178-0.331,0.077-0.686-0.254-0.763
						c-0.33-0.076-1.271,1.577-1.322,1.907c-0.05,0.33,0.204,0.584,0.483,0.687c0.279,0.102,0.483,0.482,0.433,0.508
						c-0.052,0.025-0.45,0.381-0.45,0.381s0.34,0.576,0.34,1.254c0,0.678,0.372,1.186,0.169,1.288
						c-0.203,0.102-0.746,0.204-1.254-0.102c-0.228-0.137-0.136-1.017-0.136-1.254c0-0.237-0.339-0.338-0.644-0.338
						c-0.306,0-0.645,0.305-0.983,0.508c-0.339,0.203-0.202,0.711-0.034,1.321c0.17,0.611-0.067,0.746-0.44,1.221
						c-0.373,0.475-0.982,0.102-1.355-0.102c-0.373-0.204-0.848-0.78-1.051-1.152c-0.197-0.362-0.677-0.878-0.707-0.91
						c-0.181,0.053-0.533,0.163-0.699,0.273c-0.229,0.153-0.179,0.559-0.204,0.813c-0.025,0.254-0.254,0.89-0.533,1.17
						c-0.28,0.279-0.763,0.915-0.864,1.144s-0.356,0.458-0.763,0.584c-0.407,0.128-0.813,0.382-1.042,0.839
						c-0.229,0.458-0.509,0.991-0.89,1.271c-0.382,0.28-0.61,0.254-0.763,0.585c-0.153,0.33-0.254,0.533-0.534,0.533
						c-0.279,0-1.017,0.382-1.703,0.483s-1.627,0.279-2.034,0.56c-0.406,0.279-1.093,0.33-1.703,0.33
						c-0.609,0-1.423,0.356-1.855,0.61c-0.432,0.254-0.509,0.839-0.406,1.169c0.102,0.331-0.025,0.865-0.203,0.941
						c-0.179,0.075-0.483-0.127-0.865-0.306c-0.381-0.178-0.381,0-0.381,0.306c0,0.305,0.152,0.686,0.025,1.347
						c-0.128,0.661-0.33,1.169-0.61,1.551c-0.279,0.381-0.482,0.457-0.381,0.839c0.102,0.381,0.152,0.305,0.508,0.509
						c0.355,0.203,0.56,0.152,0.458,0.457c-0.103,0.306-0.966-0.102-1.321-0.56c-0.356-0.457-0.561-0.559-1.068-0.559
						c-0.509,0-0.966-0.204-1.627-0.661s-1.118,0-1.729,0s-1.169-0.306-1.678-0.661s-0.61-0.305-0.61-0.712
						c0-0.406-0.457-0.813-0.457-0.813s-0.203,1.145-0.203,1.373s0.457,0.382,0.508,0.636s0.483,0.712,0.763,0.864
						s0.458,0.636,0.61,1.22c0.152,0.585,1.195,1.246,1.83,1.551c0.636,0.305,1.424,0.407,2.263,0.152
						c0.838-0.254,1.448-0.152,2.186,0.051c0.737,0.204,1.297,0.407,1.678,0.204c0.382-0.204,0.737-0.153,1.195-0.025
						c0.457,0.126,1.576-0.077,1.754-0.585c0.178-0.509,0.687-1.525,1.017-1.856c0.331-0.329,0.534-0.482,1.475-0.381
						s2.109,0.076,2.466,0.025c0.355-0.051,0.509,0.28,0.203,0.737c-0.305,0.457-0.355,0.915-0.051,0.864s0.89-0.763,1.348-0.737
						c0.457,0.025,1.372,0.94,2.033,0.763s1.221-0.813,2.263-0.66c1.042,0.151,1.83-0.026,2.212-0.509
						c0.381-0.483,0.33-1.525,0.89-1.932c0.559-0.407,0.966-1.068,0.89-1.551c-0.076-0.483,0.051-0.687,0.406-0.992
						c0.356-0.305,0.915-0.89,0.56-0.966s-0.763-0.432-0.254-1.118c0.508-0.687,1.475-0.94,1.855-1.043
						c0.381-0.102,0.788-0.788,1.067-2.236c0.28-1.449,0.432-2.466,0.61-2.694c0.178-0.229,0.584-0.179,0.661-0.737
						c0.076-0.56,0.432-1.246,0.736-1.068c0.306,0.178,0.737,0.89,1.195,0.458c0.457-0.432,1.195-0.534,1.729-0.102
						c0.533,0.432,0.89,0.33,1.348,0.152c0.457-0.178,1.932-0.482,2.771,0.204c0.505,0.414,0.86,0.641,1.064,0.847
						c0.178-0.065,0.311-0.115,0.358-0.135c0.306-0.128,0.331-0.306,0.229-0.611s0-0.534,0.203-0.61
						c0.203-0.076,0.433-0.076,0.458,0.28s0.305,0.56,0.712,0.788c0.406,0.229,0.635,0.051,1.118,0.025s1.576-0.432,1.982-0.737
						c0.407-0.305-0.127-0.991-0.584-1.042c-0.458-0.05-0.839-0.482-1.068-0.736c-0.229-0.254-0.406-0.483-0.33-0.839
						s0.508-0.229,0.864-0.458c0.355-0.229,0.457-0.051,0.661,0.026c0.203,0.076,0.812,0.102,1.245,0.076
						c0.433-0.025,0.839-0.407,1.221-0.508c0.381-0.102,1.627-0.763,2.109-0.941C100.22,45.237,99.914,44.754,99.787,44.347z"/>
					<ellipse cx="21.2" cy="53.905" rx="0.14" ry="0.152"/>
					<ellipse cx="21.95" cy="54.629" rx="0.254" ry="0.471"/>
					<ellipse cx="22.7" cy="55.71" rx="0.14" ry="0.152"/>
					<ellipse cx="23.488" cy="56.638" rx="0.165" ry="0.14"/>
					<ellipse cx="20.336" cy="55.05" rx="0.14" ry="0.152"/>
					<ellipse cx="20.729" cy="55.646" rx="0.178" ry="0.166"/>
					<ellipse cx="20.958" cy="56.626" rx="0.076" ry="0.127"/>
					<ellipse cx="21.645" cy="57.223" rx="0.229" ry="0.318"/>
					<path d="M2.834,40.077c-0.305-0.152-0.712-0.381-0.966-0.305c-0.254,0.076-0.584,0.254-0.254,0.737
						c0.331,0.483,0.813,0.635,0.813,0.89c0,0.254,0.356,0.229,0.407,0.025c0.05-0.203,0.203-0.305,0.203-0.61
						C3.037,40.509,2.834,40.077,2.834,40.077z"/>
					<path d="M0.469,34.967c-0.239-0.03-0.584,0-0.432,0.229c0.152,0.229,0.33,0.406,0.61,0.28c0.279-0.127,0.204-0.28,0.178-0.407
						C0.8,34.942,0.561,34.978,0.469,34.967z"/>
					<ellipse cx="19.992" cy="43.852" rx="0.153" ry="0.165"/>
					<ellipse cx="20.005" cy="44.487" rx="0.165" ry="0.14"/>
				</g>
				<ellipse cx="58.666" cy="57.879" rx="0.237" ry="0.712"/>
				<path d="M88.492,34.085c-0.011-0.289-0.406-0.102-0.881,0.068c-0.475,0.169-0.779,0.407-0.609,0.678
					c0.169,0.271,0.406,0.136,0.881-0.068S88.502,34.313,88.492,34.085z"/>
				<path d="M89.476,34.221c0.339,0.204,0,0.747-0.407,0.916c-0.406,0.169-0.576,0.474-0.779,0.339s0.068-0.78,0.306-0.983
					C88.832,34.289,89.278,34.104,89.476,34.221z"/>
				<path d="M90.662,37.645c0.417-0.146,0.169-0.61-0.068-0.915c-0.237-0.306-0.542,0.102-0.542,0.237s-0.474,0.339-0.237,0.542
					C90.052,37.712,90.459,37.717,90.662,37.645z"/>
				<path d="M94.933,47.745c-0.351,0.291,0.067,0.711,0.339,0.711s0.61-0.102,0.61-0.338c0-0.237-0.237-0.305-0.475-0.373
					S95.024,47.67,94.933,47.745z"/>
				<ellipse cx="96.644" cy="49.338" rx="0.356" ry="0.271"/>
			</g>
		</g>
	</g>
</g>
<g id="Layer_1">
</g>
</svg>
