<?xml version="1.0" encoding="iso-8859-1"?>
<!-- Generator: Adobe Illustrator 16.0.3, SVG Export Plug-In . SVG Version: 6.00 Build 0)  -->
<!DOCTYPE svg PUBLIC "-//W3C//DTD SVG 1.1//EN" "http://www.w3.org/Graphics/SVG/1.1/DTD/svg11.dtd">
<svg version="1.1" xmlns="http://www.w3.org/2000/svg" xmlns:xlink="http://www.w3.org/1999/xlink" x="0px" y="0px" width="100px"
	 height="100px" viewBox="0 0 100 100" style="enable-background:new 0 0 100 100;" xml:space="preserve">
<g id="NA">
	<path style="fill:#010101;" d="M10.334,3.251c0.218,0.009,0.434,0.021,0.652,0.033C11.042,3.33,11.1,3.376,11.155,3.42
		c0.343-0.044,0.684-0.09,1.027-0.137c0.269,0.081,0.626,0.262,0.923,0.378c0.102,0.216,0.297,0.38,0.375,0.58
		c0.023,0.102,0.046,0.207,0.067,0.309c0.123,0.183,0.468,0.248,0.651,0.375c0.169,0.118,0.294,0.334,0.478,0.445
		c0.125,0.035,0.25,0.067,0.375,0.102c0.241,0.16,0.48,0.32,0.719,0.478c0.16,0.058,0.32,0.116,0.478,0.171
		c0.186,0.125,0.193,0.42,0.411,0.513c0.603,0.38,1.716,0.035,2.393-0.102c2.154-0.033,4.311-0.067,6.462-0.102
		c3.717-0.058,7.432-0.114,11.148-0.171c1.901-0.012,3.805-0.023,5.709-0.035c0.716-0.141,1.632,0.116,2.393-0.032
		c0.638-0.127,1.489-0.025,2.189-0.035c1.002-0.017,2.222-0.079,3.179-0.035c0.202,0.297,0.505,0.559,0.684,0.856
		c0.023,0.09,0.046,0.183,0.069,0.273c0.095,0.148,0.343,0.169,0.443,0.306c0.061,0.083,0.017,0.174,0.07,0.273
		c0.06,0.116,0.236,0.195,0.341,0.276c0.218,0.216,0.434,0.432,0.651,0.649c0.228,0.162,0.547,0.195,0.818,0.306
		c0.081,0.058,0.16,0.116,0.238,0.171c0.219,0.07,1.049,0.197,1.336,0.102c0.079-0.056,0.16-0.113,0.239-0.171
		c0.285,0.014,0.57,0.023,0.853,0.035c0.43,0.093,0.847,0.294,1.231,0.411c0.276,0.083,1.165,0.056,1.402,0
		c0.157-0.037,0.412-0.184,0.648-0.102c0.14,0.046,0.246,0.234,0.413,0.273c0.241,0.058,0.311-0.127,0.445-0.171
		c0.194-0.063,0.395,0.062,0.51,0.069c0.125,0.005,0.307-0.132,0.515-0.069c0.204,0.062,0.39,0.22,0.649,0.273
		c0.339,0.069,0.774-0.037,1.025-0.102c0.157,0,0.319,0,0.478,0c0.19-0.051,0.496-0.225,0.82-0.137
		c0.126,0.079,0.251,0.16,0.376,0.239c0.162,0.035,0.32,0.069,0.482,0.102c0.255,0.165,0.45,0.536,0.783,0.617
		c0.204-0.012,0.413-0.023,0.617-0.035c0.422,0.1,0.265,0.199,0.719,0.069c0.32-0.095,0.533,0.202,0.821,0.135
		c0.176-0.04,0.408-0.188,0.579-0.239c0.437-0.13,0.821-0.063,1.299-0.169c0.12-0.028,0.287-0.127,0.445-0.104
		c0.83,0.127,1.345,0.61,2.05,0.719c2.008-0.352,4.012-0.707,6.02-1.06c2.439-0.41,4.879-0.821,7.317-1.231
		c1.823-0.445,3.817-0.51,5.677-0.958c0.58-0.139,1.21-0.165,1.846-0.306c0.241-0.055,0.617-0.199,0.923-0.137
		c0.194,0.04,0.478,0.028,0.719,0.102c0.278,0.083,0.538,0.271,0.886,0.309c0.042-0.086,0.084-0.139,0.14-0.207
		c0.741,0.067,1.743,0.114,2.462,0.411c0.125,0.102,0.251,0.206,0.376,0.308c0.125,0.033,0.25,0.067,0.376,0.102
		c0.139,0.093,0.338,0.492,0.444,0.649c0.103,0.155,0.353,0.081,0.445,0.273c0.278,0.355,0.199,0.879,0.033,1.266
		c-0.033,0.021-0.07,0.044-0.103,0.067c-0.496,0.007-0.862-0.127-1.299-0.239c-0.37-0.095-1.771,0.473-1.984,0.614
		c-0.362,0.244-0.821,1.222-1.267,1.266c-0.12-0.077-0.343-0.025-0.478-0.102c-0.241-0.137-0.241-0.57-0.515-0.684
		c-0.078-0.058-0.287-0.093-0.338-0.069c-0.214,0.065-0.408,0.329-0.548,0.48c-0.199-0.023-0.356-0.186-0.616-0.102
		c-0.297,0.093-0.516,0.517-0.789,0.682c-0.329,0.199-0.645,0.359-0.955,0.547c-0.093,0.023-0.181,0.046-0.273,0.069
		c-0.116,0.081-0.093,0.248-0.172,0.375c-0.079,0.137-0.241,0.116-0.375,0.204c-0.089,0.063-0.107,0.186-0.172,0.274
		c-0.111,0.093-0.228,0.183-0.344,0.276c-0.273,0.362-0.913,1.016-1.47,1.057c-0.278-0.234-0.491-0.195-0.478-0.751
		c-0.093-0.137,0-0.318-0.069-0.513c-0.065-0.079-0.135-0.16-0.204-0.239c-0.01-0.104-0.023-0.207-0.033-0.309
		c-0.139-0.222-0.51-0.35-0.719-0.512c-0.218-0.169-0.677-1.111-0.751-1.438c-0.315-0.155-1.09-0.285-1.642-0.169
		c-1.146,0.239-2.222,0.241-3.315,0.513c-2.769,0.512-5.542,1.025-8.311,1.54c-0.307,0-0.617,0-0.923,0
		c-0.946,0.021-1.893,0.044-2.839,0.067c-0.009,0.035-0.022,0.07-0.032,0.102c-0.204,0.369,0.037,1.544-0.037,2.052
		c-0.019,1.278-0.042,2.553-0.064,3.831c0,0.466,0,0.932,0,1.4c-0.074,0.362-0.037,0.881-0.037,1.299
		c-0.01,1.289-0.023,2.576-0.033,3.865c-0.056,3.977-0.115,7.954-0.171,11.933c0,0.329,0,0.661,0,0.99
		c0,1.025,0.106,2.238-0.069,3.146c-0.056,0.046-0.111,0.091-0.172,0.137c-2.301-0.023-4.601-0.046-6.905-0.07
		c-0.047,0.058-0.093,0.116-0.135,0.172c-0.014,3.429-0.023,6.861-0.037,10.293c0,1.149,0,2.302,0,3.452
		c0,0.58,0.069,1.294-0.032,1.811c0,0.548,0,1.095,0,1.643c0,1.289,0,2.576,0,3.865c0,0.631,0.079,1.412-0.032,1.982
		c0,1.231,0,2.462,0,3.691c-0.037,3.033-0.07,6.063-0.107,9.095c-0.032,4.719-0.064,9.439-0.102,14.155
		c-0.074,0.202-0.288,0.411-0.58,0.411c-0.282-0.133-0.491,0.374-0.719,0.443c-0.181-0.009-0.366-0.022-0.547-0.032
		c-0.079,0.056-0.158,0.111-0.236,0.172c-0.315,0.102-0.594,0.069-0.858,0.167c-0.088,0.186-0.265,0.282-0.338,0.445
		c-0.037,0.171-0.07,0.343-0.107,0.515c-0.18,0.491-0.852,0.607-1.469,0.579c-0.109,0.167-0.216,0.283-0.238,0.548
		c0.171,0.181,0.308,0.329,0.308,0.687c-0.269,0.171-0.233,0.06-0.547,0.171c-0.091,0.088-0.184,0.181-0.273,0.27
		c-0.418,0.245-0.948,0.083-1.334-0.103c-0.271-0.13-0.225-0.459-0.581-0.51c-0.362,0.181-1.029-0.26-1.471-0.172
		c-0.7,0.144-1.553,0.255-2.326,0.408c-0.283,0.061-0.503-0.106-0.716-0.064c-0.172,0.032-0.325,0.204-0.547,0.171
		c-0.419-0.069-0.663-0.26-1.129-0.273c-0.359-0.565-0.756-0.631-1.505-0.82c-0.13-0.037-0.236-0.145-0.443-0.103
		c-0.296,0.056-0.586,0.186-0.89,0.135c-0.086-0.135-0.25-0.482-0.411-0.548c-0.246-0.12-0.795,0.145-1.06,0.103
		c-0.09-0.148-0.232-0.311-0.169-0.617c0.019-0.097,0.119-0.292,0.067-0.44c-0.044-0.135-0.241-0.167-0.308-0.273
		c-0.012-0.093-0.023-0.186-0.035-0.273c-0.109-0.302-0.255-0.195-0.239-0.65c0.228-0.135,0.643-0.388,0.445-0.821
		c-0.056-0.069-0.114-0.137-0.171-0.206c-0.109-0.29-0.019-0.508-0.376-0.547c-0.113,0.104-0.297,0.137-0.512,0.137
		c-0.146-0.135-0.271-0.271-0.411-0.411c0.012-0.204,0.023-0.408,0.035-0.614c-0.296-0.197-0.392-0.575-0.788-0.614
		c-0.239,0.211-0.647,0.228-0.99,0.341c-0.067,0.16-0.023,0.501-0.102,0.684c-0.081,0.079-0.16,0.16-0.239,0.239
		c-0.102,0.148-0.044,0.302-0.139,0.479c-0.097,0.184-0.25,0.037-0.271,0.376c0.327,0.359-0.185,1.534-0.684,1.571
		c-0.077-0.056-0.158-0.084-0.274-0.103c-0.471,0.445-0.58,0.445-1.266,0.687c-0.118,0.037-0.308,0.14-0.41,0.103
		c-0.265-0.103-0.411-0.357-0.615-0.515c-0.499-0.381-0.951-0.871-1.335-1.367c-0.111-0.091-0.227-0.184-0.341-0.273
		c-0.125-0.163-0.225-0.381-0.375-0.513c-0.306-0.27-0.656-0.438-0.993-0.685c-0.165-0.12-0.315-0.415-0.443-0.582
		c-0.109-0.139-0.304-0.231-0.445-0.341c-0.183-0.141-0.28-0.348-0.41-0.547c-0.067-0.046-0.137-0.091-0.207-0.137
		c-0.056-0.25-0.114-0.503-0.169-0.754c-0.228-0.368-0.638-0.7-0.923-1.024c-0.227-0.255-0.072-0.68-0.241-0.958
		c-0.315-0.523-0.742-1.027-1.06-1.537c-0.056-0.137-0.113-0.273-0.169-0.41c-0.109-0.16-0.297-0.281-0.378-0.48
		c-0.183-0.452-0.083-0.969-0.204-1.502c-0.046-0.212-0.155-0.42-0.207-0.617c0-0.172,0-0.343,0-0.513
		c-0.083-0.309-0.392-0.366-0.545-0.582c-0.262-0.364-0.227-0.807-0.41-1.264c-0.063-0.157-0.246-0.26-0.172-0.582
		c0.056-0.183,0.114-0.364,0.172-0.547c0.106-0.165,0.264-0.079,0.306-0.341c-0.074-0.096-0.014-0.167-0.067-0.309
		c-0.107-0.273-0.274-0.626-0.445-0.855c-0.199-0.265-0.751-0.255-0.888-0.582c0-0.307,0-0.614,0-0.923
		c-0.069-0.118-0.095-0.403-0.102-0.545c0.283-0.228,0.22-0.751,0.067-1.095c-0.086-0.194-0.332-0.387-0.411-0.582
		c-0.023-0.228-0.046-0.457-0.067-0.684c-0.044-0.098-0.142-0.103-0.207-0.172c-0.216-0.229-0.207-0.603-0.204-1.06
		c0-0.408,0.299-0.8,0.239-1.06c-0.037-0.16-0.188-0.337-0.239-0.478c-0.012-0.137-0.023-0.274-0.035-0.411
		c-0.086-0.306-0.229-0.707-0.309-1.095c-0.009-0.051,0.165-1.235,0.204-1.368c0.04-0.12,0.183-0.192,0.139-0.41
		c-0.051-0.245-0.232-0.312-0.308-0.478c0-0.093,0-0.183,0-0.273c-0.058-0.093-0.114-0.184-0.172-0.273
		c-0.06-0.251,0.046-0.656-0.067-0.958c-0.227-0.601-0.927-1.424-1.368-1.848c-0.012-0.126-0.023-0.251-0.035-0.376
		c0.037-0.12,0.211-0.239,0.137-0.478c-0.286-0.925-1.285-1.985-1.162-3.146c0.077-0.732-0.243-0.719,0.274-1.231
		c0.002-0.503-0.234-0.918-0.172-1.264c0.051-0.292,0.184-0.928,0.07-1.299c-0.107-0.338-0.392-0.653-0.48-1.027
		c-0.111-0.471,0.294-0.598,0.375-0.855c0.065-0.201-0.285-1.387-0.341-1.674c-0.074-0.38,0.204-0.708,0.306-0.958
		c0.248-0.591,0.308-1.185,0.308-2.05c0-0.195,0-0.39,0-0.582c-0.58-1.938-1.651-3.543-2.736-4.992
		c-0.353-0.473-0.855-0.944-1.298-1.333c-0.107-0.095-0.258-0.157-0.341-0.273c-0.15-0.211,0.026-0.332-0.069-0.617
		c-0.088-0.267-0.385-0.424-0.512-0.649c-0.241-0.427-0.269-0.985-0.513-1.4c-0.165-0.283-0.531-0.478-0.719-0.753
		c-0.155-0.23-0.223-0.455-0.375-0.682c-0.302-0.454-0.742-0.851-1.025-1.335c-0.23-0.385-0.336-0.737-0.582-1.092
		c-0.151-0.223-0.401-0.424-0.547-0.651c-0.239-0.371-0.183-1.22-0.341-1.674c-0.172-0.487-0.635-0.858-0.821-1.368
		c-0.098-0.267-0.009-0.533-0.104-0.855c-0.13-0.445-0.262-0.893-0.478-1.264c-0.028-0.049-0.383-0.531-0.411-0.547
		c-0.218-0.125-0.38-0.111-0.512-0.308c-0.211-0.309-0.188-0.761-0.376-1.095C9.833,25.95,9.37,25.344,9.001,24.79
		c-0.056-0.148-0.114-0.294-0.169-0.443c-0.297-0.501-0.645-1.046-0.958-1.54c-0.125-0.387-0.253-0.774-0.378-1.162
		c-0.114-0.093-0.228-0.183-0.341-0.274c-0.116-0.208-0.102-0.366-0.204-0.582c-0.142-0.296-0.346-0.582-0.515-0.888
		c-0.137-0.116-0.273-0.229-0.408-0.343c-0.128-0.318-0.253-0.638-0.378-0.958c-0.765-1.171-1.994-1.943-2.838-3.042
		c-0.137-0.125-0.273-0.25-0.408-0.375C2.272,15,2.36,14.863,2.265,14.602c-0.067-0.067-0.137-0.137-0.204-0.204
		c-0.171-0.281-0.162-0.605-0.343-0.855c-0.241-0.336-0.658-0.568-0.888-0.923c-0.204-0.318-0.348-0.897-0.443-1.266
		c-0.063-0.237,0.048-0.434-0.035-0.717C0.1,9.788-0.2,7.355,0.181,6.43c0.165-0.401,1.523-1.28,1.982-1.436
		c0.353-0.12,1.134,0.009,1.368,0.169C3.705,5.285,3.84,5.519,4.079,5.575S4.976,5.387,5.24,5.371
		C5.356,5.51,5.389,5.635,5.65,5.644C5.854,5.535,6.188,5.616,6.37,5.507c0.09-0.056,0.127-0.181,0.204-0.239
		c0.218-0.093,0.434-0.183,0.651-0.274c0.232-0.153,0.503-0.341,0.751-0.512C8.157,4.288,8.34,4.093,8.523,3.9
		c0.163-0.114,0.304-0.09,0.513-0.171C9.214,3.659,9.331,3.48,9.548,3.42C9.822,3.349,10.133,3.388,10.334,3.251z"/>
</g>
<g id="Layer_1">
</g>
</svg>
