<?xml version="1.0" encoding="iso-8859-1"?>
<!-- Generator: Adobe Illustrator 16.0.3, SVG Export Plug-In . SVG Version: 6.00 Build 0)  -->
<!DOCTYPE svg PUBLIC "-//W3C//DTD SVG 1.1//EN" "http://www.w3.org/Graphics/SVG/1.1/DTD/svg11.dtd">
<svg version="1.1" xmlns="http://www.w3.org/2000/svg" xmlns:xlink="http://www.w3.org/1999/xlink" x="0px" y="0px" width="100px"
	 height="100px" viewBox="0 0 100 100" style="enable-background:new 0 0 100 100;" xml:space="preserve">
<g id="NI">
	<path style="fill:#010101;" d="M94.484,58.882c0.04,0.04,0.04,0.188,0,0.229c-0.032,0.032-0.144,0.024-0.182,0
		c-0.029-0.019-0.06-0.089-0.059-0.123c0.001-0.03,0.032-0.09,0.059-0.105C94.342,58.858,94.452,58.85,94.484,58.882z M93.74,60.604
		c-0.045-0.017-0.159-0.034-0.193,0c-0.027,0.027-0.017,0.122,0,0.157c0.019,0.038,0.09,0.092,0.129,0.105
		c0.033,0.012,0.112,0.021,0.141,0c0.033-0.024,0.059-0.118,0.047-0.157S93.778,60.617,93.74,60.604z M95.292,60.866
		c-0.044-0.012-0.143,0.042-0.164,0.082c-0.017,0.033,0,0.118,0.023,0.146c0.027,0.034,0.122,0.078,0.164,0.064
		c0.036-0.012,0.082-0.091,0.082-0.129C95.397,60.981,95.339,60.88,95.292,60.866z M88.975,60.825
		c-0.04,0.022-0.035,0.132-0.047,0.176c-0.013,0.05-0.046,0.148-0.053,0.199c-0.012,0.096-0.052,0.305,0,0.387
		c0.024,0.038,0.119,0.075,0.164,0.076c0.03,0,0.093-0.023,0.111-0.047c0.038-0.047,0.041-0.175,0.047-0.234
		c0.007-0.067,0.014-0.203,0-0.27c-0.015-0.067-0.06-0.206-0.111-0.252C89.064,60.841,89,60.812,88.975,60.825z M87.357,65.705
		c-0.023-0.032-0.113-0.046-0.153-0.053c-0.035-0.005-0.11-0.018-0.141,0c-0.034,0.021-0.051,0.109-0.079,0.137
		c-0.023,0.022-0.083,0.054-0.114,0.062c-0.037,0.009-0.117-0.017-0.153-0.005c-0.032,0.011-0.078,0.061-0.105,0.079
		c-0.022,0.016-0.079,0.033-0.093,0.058c-0.006,0.012-0.009,0.042,0,0.053c0.033,0.038,0.151,0.027,0.202,0.03
		c0.035,0.002,0.106-0.014,0.141-0.004c0.039,0.011,0.111,0.056,0.136,0.088c0.034,0.043,0.042,0.159,0.07,0.206
		c0.02,0.031,0.079,0.076,0.102,0.105c0.037,0.05,0.108,0.155,0.127,0.215c0.021,0.07,0.016,0.221,0.018,0.294
		c0.002,0.058,0.004,0.172,0,0.229s-0.03,0.168-0.03,0.224c-0.001,0.031-0.012,0.105,0.013,0.123
		c0.027,0.021,0.101-0.015,0.132-0.026c0.033-0.012,0.092-0.049,0.123-0.065c0.038-0.021,0.127-0.045,0.153-0.079
		c0.03-0.038,0.04-0.141,0.049-0.188c0.01-0.055,0.006-0.169,0.026-0.22c0.021-0.055,0.104-0.143,0.141-0.188
		c0.021-0.027,0.078-0.073,0.087-0.105c0.013-0.045-0.015-0.14-0.026-0.185c-0.011-0.045-0.029-0.142-0.061-0.176
		c-0.032-0.034-0.141-0.039-0.172-0.075c-0.035-0.04-0.021-0.165-0.057-0.206c-0.021-0.024-0.09-0.038-0.119-0.053
		c-0.055-0.027-0.184-0.069-0.215-0.123C87.339,65.822,87.379,65.736,87.357,65.705z M87.88,70.07
		c0.046-0.086,0.147-0.253,0.202-0.334c0.024-0.036,0.111-0.097,0.105-0.141c-0.006-0.045-0.102-0.099-0.146-0.113
		c-0.061-0.021-0.203-0.034-0.259,0c-0.029,0.018-0.035,0.1-0.062,0.122c-0.021,0.019-0.086,0.016-0.105,0.035
		c-0.026,0.029-0.034,0.115-0.039,0.154c-0.009,0.067,0.007,0.204,0,0.272c-0.004,0.03-0.009,0.094-0.026,0.118
		c-0.025,0.034-0.115,0.058-0.149,0.083c-0.021,0.016-0.064,0.047-0.074,0.07c-0.021,0.05-0.011,0.163,0,0.216
		c0.009,0.048,0.062,0.133,0.074,0.18c0.019,0.072,0.047,0.225,0.035,0.299c-0.011,0.063-0.081,0.175-0.109,0.232
		c-0.019,0.037-0.068,0.104-0.075,0.145c-0.008,0.049,0.007,0.15,0.031,0.193c0.016,0.029,0.085,0.059,0.101,0.088
		c0.029,0.055,0.02,0.186,0.03,0.246c0.009,0.045,0.016,0.141,0.044,0.176c0.022,0.026,0.097,0.041,0.128,0.057
		c0.061,0.032,0.188,0.093,0.237,0.141c0.027,0.027,0.056,0.104,0.083,0.132c0.023,0.024,0.078,0.065,0.109,0.075
		c0.019,0.005,0.059,0.009,0.075,0c0.019-0.011,0.043-0.054,0.044-0.075c0.009-0.173-0.235-0.466-0.285-0.632
		c-0.057-0.188-0.111-0.578-0.128-0.773c-0.013-0.155-0.033-0.471,0-0.623C87.742,70.321,87.836,70.153,87.88,70.07z M58.158,87.705
		c-0.024-0.002-0.035,0.066-0.055,0.082c-0.037,0.027-0.146,0.022-0.176,0.058c-0.033,0.04-0.018,0.155-0.029,0.205
		c-0.009,0.035-0.041,0.1-0.047,0.135c-0.007,0.038-0.021,0.12,0,0.152c0.012,0.02,0.064,0.025,0.082,0.041
		c0.021,0.019,0.032,0.084,0.059,0.094c0.026,0.011,0.092-0.008,0.111-0.029c0.035-0.041,0.024-0.162,0.023-0.217
		c-0.002-0.034-0.027-0.101-0.023-0.135c0.004-0.042,0.043-0.118,0.059-0.158c0.012-0.032,0.055-0.094,0.052-0.128
		C58.213,87.775,58.188,87.706,58.158,87.705z M59.158,87.797c-0.019-0.057,0.015-0.19-0.021-0.237
		c-0.046-0.059-0.238-0.036-0.281-0.097c-0.017-0.022,0.024-0.099,0-0.114c-0.039-0.024-0.121,0.075-0.167,0.079
		c-0.04,0.004-0.117-0.042-0.158-0.039c-0.051,0.004-0.16,0.036-0.188,0.079c-0.026,0.038,0,0.14,0,0.187
		c0,0.058,0.014,0.175,0,0.23c-0.011,0.04-0.069,0.104-0.079,0.145c-0.015,0.057-0.018,0.178,0,0.233
		c0.013,0.04,0.079,0.102,0.097,0.14c0.016,0.034,0.01,0.122,0.039,0.146c0.03,0.022,0.114,0.012,0.149,0
		c0.054-0.018,0.135-0.1,0.181-0.132c0.062-0.045,0.181-0.152,0.254-0.176c0.05-0.016,0.157,0.016,0.207,0
		c0.03-0.01,0.093-0.045,0.105-0.074c0.02-0.049-0.021-0.157-0.04-0.207C59.238,87.915,59.173,87.842,59.158,87.797z M59.94,88.231
		c-0.017-0.02-0.032-0.071-0.031-0.097c0.002-0.039,0.058-0.105,0.066-0.145c0.007-0.034,0.024-0.116,0-0.141
		c-0.019-0.019-0.08-0.004-0.105,0c-0.041,0.006-0.12,0.033-0.158,0.048c-0.027,0.011-0.09,0.026-0.105,0.051
		c-0.021,0.034-0.014,0.122,0,0.16c0.009,0.025,0.062,0.058,0.065,0.084c0.005,0.038-0.069,0.102-0.065,0.141
		c0.003,0.032,0.046,0.102,0.079,0.104c0.02,0.003,0.041-0.049,0.062-0.053c0.036-0.006,0.104,0.047,0.141,0.053
		c0.045,0.009,0.151,0.033,0.184,0c0.025-0.024,0.019-0.11,0-0.14C60.053,88.267,59.964,88.26,59.94,88.231z M61.283,89.035
		c-0.002-0.032-0.074-0.064-0.104-0.074c-0.028-0.01-0.091,0.005-0.119-0.005c-0.027-0.009-0.083-0.04-0.097-0.065
		c-0.011-0.021-0.011-0.072,0-0.093c0.014-0.025,0.082-0.041,0.097-0.065c0.015-0.023,0.029-0.087,0.014-0.11
		c-0.015-0.021-0.075-0.029-0.102-0.026c-0.023,0.003-0.061,0.039-0.083,0.044c-0.049,0.013-0.156,0.021-0.202,0
		c-0.037-0.016-0.078-0.094-0.109-0.118c-0.043-0.033-0.139-0.086-0.189-0.105c-0.041-0.017-0.14-0.075-0.171-0.044
		c-0.039,0.038,0.02,0.167,0.053,0.211c0.035,0.047,0.155,0.087,0.206,0.118c0.064,0.041,0.208,0.108,0.25,0.172
		c0.022,0.032,0.013,0.121,0.035,0.153c0.02,0.028,0.083,0.062,0.114,0.074c0.046,0.02,0.144,0.046,0.193,0.044
		c0.038-0.001,0.112-0.024,0.146-0.044C61.234,89.089,61.285,89.06,61.283,89.035z M61.332,89.555
		c-0.021-0.017-0.074-0.028-0.1-0.032c-0.023-0.004-0.077-0.017-0.094,0c-0.021,0.021-0.016,0.095,0,0.12
		c0.014,0.022,0.068,0.041,0.094,0.047c0.022,0.005,0.069,0.007,0.091,0c0.019-0.006,0.058-0.028,0.062-0.047
		C61.39,89.617,61.352,89.57,61.332,89.555z M61.894,89.974c-0.014-0.013-0.051-0.029-0.069-0.026
		c-0.029,0.004-0.067,0.054-0.091,0.07c-0.022,0.015-0.08,0.029-0.094,0.053c-0.013,0.021-0.002,0.072,0,0.097
		c0.003,0.033-0.003,0.109,0.023,0.132c0.021,0.018,0.089,0.014,0.114,0c0.021-0.013,0.036-0.063,0.047-0.086
		c0.013-0.026,0.026-0.086,0.044-0.11c0.013-0.019,0.063-0.037,0.066-0.059C61.938,90.023,61.909,89.986,61.894,89.974z
		 M54.442,75.006c-0.03-0.028-0.116-0.05-0.158-0.057c-0.021-0.004-0.068-0.016-0.083,0c-0.02,0.019-0.013,0.085,0,0.109
		c0.029,0.056,0.153,0.11,0.206,0.145c0.023,0.016,0.072,0.071,0.097,0.058c0.024-0.015,0.006-0.087,0-0.114
		C54.496,75.108,54.471,75.032,54.442,75.006z M55.062,75.349c-0.032-0.026-0.116-0.054-0.158-0.053
		c-0.02,0-0.062,0.011-0.074,0.026c-0.014,0.018-0.013,0.069-0.026,0.088c-0.011,0.013-0.043,0.027-0.058,0.035
		c-0.019,0.01-0.067,0.017-0.079,0.035c-0.012,0.018-0.013,0.07,0,0.088c0.022,0.03,0.113,0.024,0.146,0.044
		c0.023,0.014,0.051,0.078,0.079,0.078c0.029,0,0.06-0.065,0.083-0.083c0.021-0.015,0.072-0.028,0.088-0.048
		c0.022-0.029,0.044-0.104,0.04-0.141C55.099,75.398,55.077,75.361,55.062,75.349z M45.801,70.545
		c-0.011-0.008-0.038-0.015-0.05-0.014c-0.029,0.004-0.088,0.032-0.103,0.058c-0.012,0.021-0.017,0.079,0,0.097
		c0.027,0.026,0.119,0.017,0.153,0c0.02-0.011,0.053-0.049,0.053-0.07C45.854,70.593,45.82,70.557,45.801,70.545z M45.67,70.413
		c0.025,0.004,0.081-0.009,0.099-0.026c0.023-0.023,0.044-0.097,0.033-0.128c-0.008-0.021-0.052-0.05-0.074-0.053
		c-0.031-0.003-0.097,0.02-0.114,0.044c-0.018,0.025-0.014,0.096,0,0.123C45.621,70.389,45.653,70.41,45.67,70.413z M45.683,69.935
		c0.033,0.017,0.11-0.019,0.145-0.031c0.02-0.007,0.063-0.021,0.075-0.039c0.03-0.044,0.05-0.166,0.022-0.211
		c-0.017-0.027-0.09-0.044-0.123-0.044c-0.044,0-0.138,0.023-0.167,0.057c-0.02,0.023-0.026,0.089-0.022,0.119
		C45.618,69.826,45.646,69.916,45.683,69.935z M99.988,2.216c-0.014-0.019-0.064-0.036-0.086-0.029
		c-0.029,0.01-0.039,0.094-0.068,0.104c-0.046,0.017-0.14-0.045-0.188-0.054c-0.025-0.005-0.084-0.026-0.103-0.009
		c-0.019,0.017-0.014,0.078,0,0.099c0.013,0.021,0.071,0.028,0.09,0.046c0.016,0.016,0.027,0.063,0.041,0.081
		c0.019,0.024,0.062,0.074,0.092,0.079c0.021,0.003,0.065-0.02,0.082-0.035c0.021-0.02,0.036-0.081,0.055-0.104
		c0.018-0.02,0.074-0.04,0.086-0.063C100.001,2.306,100.005,2.239,99.988,2.216z M99.66,2.718c0.006,0.031-0.043,0.087-0.065,0.111
		c-0.036,0.04-0.124,0.107-0.175,0.123c-0.048,0.015-0.155,0.023-0.199,0c-0.028-0.015-0.072-0.074-0.07-0.105
		c0.003-0.042,0.112-0.086,0.111-0.129C99.26,2.685,99.2,2.632,99.168,2.624c-0.02-0.005-0.057,0.022-0.076,0.023
		c-0.04,0.002-0.13,0-0.158-0.029c-0.025-0.025,0.002-0.115-0.023-0.141c-0.048-0.048-0.205-0.071-0.27-0.047
		c-0.034,0.013-0.073,0.082-0.091,0.114c-0.018,0.034-0.046,0.107-0.044,0.145c0.002,0.04,0.057,0.106,0.062,0.145
		c0.005,0.034,0,0.109-0.021,0.136c-0.034,0.042-0.149,0.067-0.202,0.079c-0.025,0.006-0.079,0.008-0.105,0.004
		c-0.032-0.004-0.11-0.01-0.123-0.04C98.1,2.977,98.189,2.907,98.19,2.866c0-0.029-0.024-0.09-0.049-0.105
		c-0.02-0.013-0.07-0.009-0.092,0c-0.066,0.028-0.158,0.147-0.198,0.207c-0.036,0.055-0.064,0.189-0.105,0.241
		c-0.05,0.065-0.2,0.145-0.259,0.202c-0.055,0.053-0.18,0.162-0.193,0.237c-0.005,0.028,0.013,0.089,0.035,0.105
		c0.039,0.028,0.154,0.028,0.193,0c0.023-0.016,0.012-0.101,0.04-0.105c0.032-0.006,0.07,0.073,0.088,0.101
		c0.021,0.036,0.055,0.113,0.061,0.154c0.006,0.032,0,0.099-0.007,0.13c-0.049,0.212-0.257,0.601-0.334,0.805
		c-0.083,0.222-0.214,0.68-0.304,0.899c-0.041,0.099-0.146,0.285-0.188,0.383c-0.034,0.08-0.095,0.242-0.117,0.325
		C96.74,6.522,96.733,6.689,96.7,6.763c-0.026,0.061-0.104,0.173-0.158,0.211c-0.033,0.023-0.115,0.045-0.155,0.044
		c-0.019-0.001-0.052-0.023-0.07-0.026c-0.05-0.009-0.151-0.008-0.202,0c-0.028,0.004-0.082,0.034-0.111,0.035
		c-0.021,0-0.069-0.004-0.084-0.021c-0.014-0.015-0.019-0.061-0.013-0.079c0.006-0.016,0.035-0.038,0.05-0.044
		c0.029-0.012,0.1,0.008,0.126-0.009c0.022-0.013,0.055-0.062,0.053-0.088c-0.001-0.029-0.066-0.064-0.07-0.093
		c-0.003-0.026,0.022-0.079,0.041-0.097c0.022-0.021,0.092-0.019,0.114-0.038c0.023-0.02,0.049-0.077,0.056-0.105
		c0.005-0.019,0.013-0.064,0-0.079c-0.016-0.019-0.074-0.024-0.097-0.015c-0.03,0.013-0.047,0.095-0.079,0.105
		c-0.026,0.009-0.088-0.015-0.108-0.035c-0.029-0.031-0.045-0.124-0.044-0.167c0.001-0.036,0.024-0.107,0.044-0.138
		c0.022-0.034,0.104-0.071,0.12-0.108c0.011-0.023-0.013-0.083,0.003-0.103c0.02-0.022,0.088-0.035,0.114-0.023
		C96.25,5.9,96.258,5.956,96.275,5.97c0.028,0.022,0.102,0.038,0.138,0.041c0.035,0.003,0.108-0.033,0.141-0.018
		c0.044,0.021,0.066,0.134,0.103,0.167c0.018,0.016,0.063,0.051,0.085,0.041c0.04-0.019,0.046-0.128,0.041-0.173
		c-0.007-0.062-0.081-0.17-0.111-0.225c-0.049-0.086-0.172-0.243-0.211-0.334c-0.051-0.118-0.11-0.373-0.127-0.5
		c-0.008-0.058,0.002-0.175-0.005-0.232c-0.01-0.084-0.032-0.256-0.074-0.33c-0.029-0.051-0.116-0.143-0.172-0.163
		c-0.106-0.038-0.344-0.002-0.452,0.031c-0.093,0.029-0.261,0.134-0.334,0.198C95.171,4.583,94.974,4.858,94.884,5
		c-0.072,0.113-0.177,0.362-0.241,0.479c-0.036,0.064-0.088,0.219-0.154,0.25c-0.032,0.015-0.108-0.001-0.141-0.018
		c-0.022-0.012-0.047-0.064-0.07-0.075c-0.033-0.014-0.119-0.025-0.145,0c-0.02,0.02-0.011,0.085,0,0.11
		c0.017,0.037,0.107,0.071,0.118,0.11C94.265,5.904,94.205,6,94.198,6.049c-0.006,0.046,0.018,0.145,0,0.188
		c-0.015,0.039-0.075,0.106-0.114,0.123c-0.034,0.015-0.116-0.011-0.153,0c-0.035,0.01-0.102,0.049-0.123,0.079
		c-0.034,0.05-0.074,0.181-0.053,0.237c0.018,0.045,0.111,0.118,0.158,0.11c0.028-0.005,0.053-0.067,0.066-0.092
		C93.995,6.664,94,6.589,94.023,6.563c0.022-0.026,0.097-0.075,0.127-0.057c0.033,0.02,0.004,0.115,0.009,0.153
		c0.004,0.032-0.007,0.112,0.021,0.127c0.039,0.021,0.12-0.057,0.163-0.066c0.034-0.006,0.112-0.021,0.141,0
		c0.047,0.037,0.05,0.174,0.062,0.233c0.012,0.061,0.012,0.187,0.03,0.246c0.017,0.051,0.086,0.137,0.101,0.188
		c0.022,0.078-0.012,0.248,0.022,0.321c0.019,0.04,0.094,0.094,0.127,0.123c0.059,0.049,0.188,0.131,0.246,0.18
		c0.076,0.063,0.198,0.234,0.29,0.272c0.053,0.022,0.171,0.01,0.229,0.009c0.064-0.001,0.197-0.002,0.259-0.022
		c0.033-0.011,0.103-0.04,0.118-0.07c0.03-0.055,0.002-0.188-0.009-0.25c-0.011-0.064-0.035-0.201-0.079-0.25
		c-0.038-0.043-0.154-0.083-0.21-0.097c-0.051-0.013-0.155-0.008-0.207-0.013c-0.054-0.006-0.169-0.002-0.215-0.031
		c-0.026-0.017-0.068-0.074-0.07-0.105c-0.001-0.026,0.026-0.079,0.049-0.092c0.048-0.029,0.168-0.002,0.224,0
		c0.082,0.003,0.258-0.016,0.329,0.026c0.052,0.031,0.098,0.152,0.132,0.202c0.037,0.055,0.109,0.166,0.153,0.215
		c0.021,0.024,0.065,0.08,0.097,0.087c0.033,0.009,0.112-0.003,0.132-0.031c0.017-0.023,0-0.088-0.013-0.114
		c-0.018-0.033-0.087-0.069-0.11-0.097c-0.022-0.028-0.065-0.088-0.074-0.123C96.083,7.483,96.092,7.387,96.1,7.34
		c0.008-0.046,0.022-0.148,0.058-0.18c0.023-0.022,0.095-0.038,0.127-0.031c0.041,0.009,0.107,0.071,0.132,0.105
		C96.464,7.3,96.51,7.459,96.53,7.538c0.029,0.111,0.062,0.338,0.07,0.452c0.011,0.145-0.019,0.436,0,0.58
		c0.02,0.158,0.113,0.462,0.158,0.615c0.062,0.213,0.231,0.626,0.281,0.843c0.034,0.153,0.045,0.47,0.078,0.624
		c0.049,0.218,0.194,0.643,0.272,0.852c0.094,0.25,0.339,0.728,0.426,0.979c0.037,0.105,0.083,0.323,0.114,0.43
		c0.035,0.12,0.105,0.36,0.154,0.474c0.04,0.095,0.143,0.275,0.193,0.365c0.032,0.058,0.123,0.163,0.136,0.228
		c0.006,0.033,0.01,0.122-0.022,0.132c-0.024,0.008-0.057-0.055-0.074-0.075c-0.019-0.02-0.045-0.072-0.07-0.083
		c-0.042-0.019-0.139,0.001-0.185,0.004c-0.047,0.003-0.143,0.032-0.188,0.022c-0.068-0.015-0.192-0.092-0.237-0.145
		c-0.035-0.042-0.097-0.149-0.083-0.202c0.008-0.032,0.091-0.052,0.101-0.083c0.029-0.088-0.057-0.274-0.092-0.36
		c-0.056-0.132-0.202-0.382-0.295-0.492c-0.038-0.045-0.124-0.133-0.18-0.154c-0.031-0.012-0.108-0.023-0.132,0
		c-0.032,0.033-0.008,0.139,0,0.185c0.008,0.041,0.027,0.128,0.058,0.158c0.032,0.033,0.148,0.023,0.175,0.062
		s0.015,0.142-0.004,0.185c-0.018,0.039-0.118,0.076-0.123,0.119c-0.006,0.051,0.059,0.172,0.109,0.175
		c0.03,0.002,0.06-0.067,0.075-0.092c0.016-0.024,0.02-0.101,0.048-0.105c0.032-0.005,0.079,0.062,0.088,0.092
		c0.016,0.049-0.037,0.15-0.035,0.202c0.002,0.033,0.031,0.095,0.035,0.127c0.009,0.065-0.024,0.201-0.004,0.264
		c0.011,0.033,0.068,0.079,0.083,0.109c0.018,0.037,0.038,0.118,0.04,0.158c0.002,0.045-0.038,0.136-0.026,0.18
		c0.009,0.036,0.058,0.104,0.092,0.119c0.033,0.014,0.116,0.009,0.145-0.013c0.035-0.026,0.034-0.129,0.062-0.163
		c0.024-0.029,0.092-0.069,0.128-0.079c0.031-0.009,0.106,0.021,0.132,0c0.021-0.019-0.005-0.095,0.018-0.114
		c0.018-0.016,0.073-0.005,0.097,0c0.031,0.007,0.097,0.028,0.118,0.053c0.025,0.028,0.02,0.116,0.044,0.145
		c0.044,0.05,0.201,0.061,0.241,0.114c0.042,0.055,0.043,0.203,0.049,0.272c0.009,0.103,0,0.31,0,0.413c0,0.063-0.02,0.194,0,0.254
		c0.016,0.048,0.095,0.118,0.118,0.163c0.065,0.125,0.148,0.398,0.181,0.536c0.045,0.194,0.104,0.591,0.104,0.791
		c0.001,0.198-0.073,0.59-0.101,0.786c-0.024,0.172-0.044,0.523-0.105,0.685c-0.063,0.167-0.305,0.444-0.391,0.602
		c-0.134,0.246-0.336,0.771-0.457,1.023c-0.094,0.197-0.296,0.584-0.399,0.777c-0.065,0.122-0.19,0.371-0.272,0.483
		c-0.032,0.045-0.098,0.142-0.149,0.163c-0.024,0.01-0.087,0.015-0.104-0.004c-0.019-0.02-0.001-0.083,0.004-0.11
		c0.008-0.04,0.029-0.123,0.058-0.153c0.027-0.031,0.126-0.04,0.148-0.075c0.025-0.038-0.001-0.136,0.009-0.18
		c0.015-0.065,0.072-0.186,0.102-0.246c0.02-0.04,0.076-0.111,0.088-0.154c0.015-0.052,0.001-0.162,0.004-0.215
		c0.004-0.058,0.012-0.175,0.022-0.232c0.007-0.042,0.021-0.127,0.044-0.163c0.025-0.041,0.121-0.085,0.145-0.127
		c0.035-0.062,0.045-0.21,0.053-0.281c0.008-0.07-0.006-0.213,0.013-0.281c0.022-0.079,0.145-0.205,0.158-0.286
		c0.016-0.088-0.028-0.27-0.057-0.355c-0.033-0.101-0.134-0.292-0.197-0.377c-0.04-0.053-0.165-0.123-0.189-0.185
		c-0.017-0.042-0.03-0.158,0.009-0.18c0.025-0.014,0.073,0.065,0.102,0.057c0.02-0.006,0.038-0.054,0.039-0.075
		c0.002-0.046-0.051-0.129-0.07-0.171c-0.055-0.115-0.194-0.33-0.241-0.448c-0.032-0.081-0.035-0.272-0.093-0.338
		c-0.042-0.048-0.185-0.063-0.236-0.101c-0.048-0.034-0.129-0.123-0.154-0.176c-0.026-0.057,0.005-0.205-0.039-0.25
		c-0.025-0.026-0.105-0.023-0.141-0.026c-0.028-0.003-0.092-0.018-0.114,0c-0.042,0.031-0.04,0.152-0.057,0.202
		c-0.014,0.04-0.065,0.113-0.062,0.154c0.003,0.033,0.043,0.092,0.07,0.11c0.03,0.02,0.111,0.006,0.145,0.022
		c0.071,0.035,0.187,0.154,0.232,0.22c0.031,0.044,0.079,0.144,0.088,0.197c0.004,0.025,0.011,0.085-0.009,0.101
		c-0.028,0.024-0.117,0.006-0.149-0.013c-0.04-0.023-0.072-0.121-0.105-0.154c-0.039-0.04-0.133-0.104-0.184-0.127
		c-0.064-0.029-0.212-0.036-0.272-0.07c-0.031-0.018-0.07-0.083-0.102-0.101c-0.038-0.023-0.139-0.084-0.171-0.053
		c-0.048,0.048,0.055,0.196,0.079,0.259c0.02,0.052,0.061,0.157,0.092,0.202c0.023,0.033,0.086,0.085,0.114,0.114
		c0.03,0.03,0.124,0.081,0.119,0.123c-0.006,0.044-0.107,0.084-0.149,0.097c-0.043,0.013-0.142,0.022-0.181,0
		c-0.03-0.018-0.067-0.088-0.07-0.123c-0.001-0.026,0.055-0.075,0.04-0.097c-0.02-0.029-0.109-0.017-0.141,0
		c-0.036,0.02-0.059,0.112-0.092,0.136c-0.032,0.023-0.122,0.016-0.149,0.044c-0.02,0.02-0.029,0.078-0.031,0.105
		c-0.001,0.023,0.002,0.075,0.018,0.092c0.035,0.038,0.167,0.012,0.198,0.053c0.022,0.03-0.023,0.12,0,0.149
		c0.021,0.027,0.103,0.041,0.136,0.031c0.02-0.006,0.049-0.039,0.057-0.057c0.018-0.041-0.026-0.145,0.005-0.176
		c0.023-0.023,0.099-0.004,0.132,0c0.031,0.004,0.102,0.007,0.123,0.031c0.028,0.031,0.022,0.125,0.026,0.167
		c0.004,0.055,0.015,0.167,0,0.22c-0.023,0.08-0.162,0.199-0.176,0.281c-0.01,0.062,0.026,0.188,0.057,0.242
		c0.023,0.04,0.116,0.084,0.132,0.127c0.02,0.053-0.042,0.171-0.021,0.224c0.016,0.041,0.089,0.099,0.127,0.119
		c0.043,0.022,0.142,0.049,0.188,0.04c0.027-0.005,0.09-0.034,0.093-0.062c0.004-0.033-0.105-0.066-0.093-0.097
		c0.016-0.036,0.12-0.008,0.158,0c0.038,0.009,0.111,0.041,0.141,0.066c0.029,0.025,0.056,0.101,0.084,0.127
		c0.034,0.033,0.135,0.058,0.162,0.097c0.019,0.026,0.018,0.096,0.026,0.127c0.014,0.049,0.037,0.154,0.07,0.193
		c0.034,0.04,0.176,0.049,0.185,0.101c0.007,0.042-0.105,0.086-0.114,0.127c-0.014,0.06,0.067,0.175,0.07,0.237
		c0.005,0.112-0.058,0.333-0.093,0.439c-0.026,0.083-0.106,0.238-0.145,0.316c-0.043,0.089-0.146,0.259-0.18,0.352
		c-0.045,0.118-0.107,0.366-0.123,0.492c-0.009,0.07,0.033,0.219,0,0.281c-0.03,0.056-0.165,0.098-0.211,0.141
		c-0.092,0.086-0.229,0.301-0.308,0.399c-0.07,0.089-0.217,0.262-0.285,0.352c-0.113,0.148-0.33,0.452-0.435,0.606
		c-0.057,0.083-0.148,0.264-0.216,0.338c-0.077,0.087-0.271,0.221-0.364,0.29c-0.116,0.086-0.374,0.228-0.479,0.329
		c-0.108,0.106-0.279,0.361-0.355,0.492c-0.075,0.129-0.179,0.412-0.246,0.545c-0.046,0.092-0.167,0.263-0.202,0.36
		c-0.042,0.119-0.063,0.373-0.088,0.496c-0.024,0.128-0.045,0.394-0.105,0.509c-0.022,0.044-0.086,0.147-0.136,0.145
		c-0.016,0-0.034-0.034-0.039-0.048c-0.013-0.038-0.01-0.123,0.009-0.158c0.007-0.014,0.04-0.026,0.048-0.039
		c0.027-0.046,0.029-0.158,0.04-0.211c0.009-0.048,0.042-0.143,0.035-0.19c-0.009-0.057-0.068-0.161-0.105-0.205
		c-0.038-0.045-0.149-0.096-0.188-0.141c-0.035-0.041-0.104-0.135-0.1-0.188c0.003-0.041,0.086-0.09,0.1-0.129
		c0.014-0.042-0.021-0.137,0-0.175c0.022-0.042,0.116-0.083,0.158-0.105c0.036-0.02,0.117-0.042,0.152-0.064
		c0.055-0.036,0.166-0.121,0.192-0.182c0.024-0.056,0.049-0.208,0-0.246c-0.041-0.033-0.156,0.026-0.205,0.047
		c-0.072,0.031-0.203,0.124-0.263,0.175c-0.057,0.049-0.136,0.184-0.199,0.223c-0.045,0.027-0.157,0.076-0.205,0.053
		c-0.024-0.012-0.036-0.073-0.041-0.1c-0.007-0.045,0.029-0.14,0.012-0.182c-0.022-0.055-0.12-0.137-0.176-0.158
		c-0.045-0.017-0.149,0.022-0.193,0c-0.018-0.009-0.029-0.054-0.047-0.064c-0.07-0.044-0.246-0.079-0.327-0.059
		c-0.072,0.018-0.197,0.117-0.234,0.181c-0.068,0.119-0.102,0.411-0.07,0.545c0.01,0.044,0.06,0.129,0.1,0.152
		c0.046,0.026,0.16,0.027,0.211,0.012c0.042-0.013,0.101-0.086,0.141-0.105c0.049-0.024,0.155-0.06,0.21-0.058
		c0.055,0.001,0.176,0.024,0.205,0.07c0.024,0.037-0.004,0.134-0.018,0.176c-0.013,0.04-0.055,0.115-0.082,0.146
		c-0.026,0.031-0.107,0.064-0.129,0.1c-0.021,0.037-0.036,0.127-0.028,0.169c0.01,0.062,0.073,0.177,0.116,0.223
		c0.032,0.033,0.113,0.087,0.158,0.094c0.056,0.007,0.167-0.032,0.217-0.059c0.039-0.021,0.092-0.105,0.135-0.117
		c0.052-0.014,0.161,0.021,0.211,0.041c0.035,0.014,0.116,0.046,0.129,0.082c0.02,0.057-0.07,0.169-0.082,0.228
		c-0.012,0.056-0.014,0.171-0.012,0.229c0.002,0.062,0.011,0.187,0.029,0.246c0.017,0.054,0.081,0.148,0.105,0.199
		c0.011,0.024,0.043,0.072,0.041,0.099c-0.003,0.028-0.049,0.068-0.059,0.094c-0.014,0.035-0.014,0.111-0.023,0.146
		c-0.046,0.164-0.192,0.473-0.252,0.632c-0.154,0.415-0.458,1.247-0.577,1.673c-0.027,0.1-0.068,0.303-0.088,0.404
		c-0.029,0.157-0.11,0.469-0.101,0.628c0.004,0.064,0.062,0.183,0.07,0.246c0.005,0.046,0.023,0.152-0.009,0.185
		c-0.033,0.033-0.146,0.027-0.188,0.009c-0.029-0.012-0.063-0.069-0.084-0.092c-0.024-0.028-0.084-0.079-0.097-0.114
		c-0.016-0.042,0.026-0.144,0-0.18c-0.022-0.032-0.109-0.055-0.149-0.053c-0.035,0.002-0.093,0.054-0.127,0.066
		c-0.039,0.014-0.124,0.015-0.162,0.031c-0.037,0.015-0.094,0.08-0.132,0.088c-0.046,0.009-0.138-0.038-0.185-0.035
		c-0.03,0.001-0.089,0.02-0.114,0.035c-0.032,0.019-0.104,0.068-0.105,0.105c-0.001,0.044,0.082,0.107,0.118,0.132
		c0.032,0.021,0.114,0.026,0.146,0.048c0.037,0.026,0.104,0.1,0.114,0.145c0.005,0.025-0.011,0.078-0.026,0.097
		c-0.033,0.039-0.144,0.057-0.185,0.088c-0.028,0.021-0.061,0.091-0.093,0.105c-0.052,0.023-0.174,0.013-0.228-0.004
		c-0.048-0.016-0.115-0.1-0.163-0.114c-0.076-0.022-0.241-0.002-0.32,0.013c-0.06,0.012-0.174,0.057-0.229,0.083
		c-0.044,0.021-0.143,0.059-0.167,0.101c-0.024,0.044,0.003,0.151,0,0.202c-0.002,0.042,0.01,0.135-0.018,0.167
		c-0.03,0.036-0.161,0.006-0.184,0.048c-0.024,0.045,0.033,0.154,0.065,0.193c0.05,0.061,0.207,0.115,0.272,0.158
		c0.066,0.043,0.203,0.128,0.255,0.188c0.026,0.032,0.066,0.108,0.074,0.149c0.009,0.047-0.018,0.143-0.021,0.19
		c-0.003,0.05-0.021,0.156,0,0.202c0.017,0.036,0.081,0.088,0.117,0.103c0.055,0.022,0.188-0.025,0.234,0.012
		c0.022,0.019,0.032,0.084,0.032,0.114c-0.001,0.019-0.025,0.054-0.023,0.073c0.002,0.023,0.026,0.07,0.047,0.082
		c0.025,0.015,0.091,0.008,0.12,0c0.023-0.006,0.061-0.055,0.085-0.05c0.019,0.004,0.028,0.055,0.046,0.062
		c0.022,0.007,0.065-0.022,0.088-0.026c0.036-0.007,0.113-0.034,0.144-0.015c0.031,0.02,0.046,0.104,0.047,0.141
		c0.002,0.049-0.03,0.146-0.053,0.19c-0.015,0.03-0.05,0.097-0.082,0.105c-0.033,0.009-0.094-0.054-0.128-0.053
		c-0.019,0-0.056,0.017-0.064,0.032c-0.017,0.027-0.007,0.097,0.005,0.126c0.009,0.021,0.042,0.056,0.062,0.064
		c0.033,0.014,0.108,0.005,0.144,0c0.03-0.004,0.087-0.039,0.117-0.035c0.046,0.006,0.117,0.072,0.155,0.097
		c0.038,0.024,0.108,0.083,0.149,0.102c0.037,0.017,0.126,0.017,0.158,0.042c0.037,0.028,0.083,0.118,0.094,0.164
		c0.011,0.047,0.002,0.147-0.012,0.193c-0.021,0.07-0.116,0.186-0.146,0.251c-0.03,0.065-0.071,0.202-0.094,0.27
		c-0.049,0.147-0.126,0.449-0.188,0.591c-0.021,0.05-0.06,0.163-0.105,0.193c-0.043,0.029-0.156,0.041-0.205,0.023
		c-0.029-0.011-0.062-0.074-0.087-0.094c-0.046-0.035-0.153-0.078-0.199-0.111c-0.058-0.041-0.149-0.153-0.211-0.188
		c-0.039-0.021-0.126-0.049-0.17-0.053c-0.055-0.004-0.173-0.003-0.217,0.029c-0.017,0.013-0.04,0.056-0.035,0.076
		c0.012,0.05,0.115,0.101,0.158,0.129c0.048,0.031,0.155,0.077,0.205,0.105c0.045,0.026,0.129,0.088,0.176,0.111
		c0.025,0.013,0.084,0.021,0.105,0.041c0.027,0.026,0.075,0.099,0.064,0.135c-0.009,0.028-0.077,0.041-0.1,0.059
		c-0.032,0.025-0.101,0.079-0.111,0.117c-0.007,0.021-0.002,0.077,0.018,0.088c0.055,0.03,0.19-0.048,0.234-0.094
		c0.021-0.022,0.019-0.095,0.04-0.117c0.028-0.027,0.108-0.046,0.146-0.053c0.023-0.004,0.072-0.008,0.094,0
		c0.029,0.011,0.083,0.053,0.094,0.082c0.015,0.037-0.007,0.12-0.018,0.158c-0.018,0.068-0.097,0.189-0.111,0.257
		c-0.012,0.061,0.02,0.188,0,0.246c-0.012,0.035-0.068,0.086-0.088,0.117c-0.016,0.026-0.04,0.083-0.053,0.111
		c-0.02,0.049-0.038,0.157-0.069,0.199c-0.031,0.041-0.146,0.071-0.17,0.117c-0.018,0.033-0.017,0.113,0,0.146
		c0.016,0.034,0.092,0.066,0.117,0.094c0.028,0.032,0.069,0.11,0.093,0.146c0.014,0.02,0.047,0.054,0.053,0.077
		c0.081,0.313-0.115,0.964-0.128,1.288c-0.025,0.625,0.002,1.879,0.052,2.503c0.035,0.433,0.182,1.289,0.24,1.718
		c0.024,0.177,0.058,0.534,0.094,0.708c0.062,0.296,0.26,0.869,0.331,1.162c0.037,0.152,0.086,0.46,0.123,0.612
		c0.015,0.062,0.038,0.139,0.063,0.223c0.07,0.225,0.163,0.5,0.197,0.665c0.029,0.146,0.072,0.442,0.07,0.591
		c-0.002,0.065-0.039,0.192-0.041,0.257c-0.004,0.11,0.02,0.331,0.038,0.439c0.015,0.089,0.074,0.261,0.084,0.351
		c0.008,0.064,0.024,0.199-0.002,0.258c-0.016,0.032-0.07,0.091-0.105,0.094c-0.046,0.003-0.128-0.063-0.155-0.1
		c-0.031-0.041-0.055-0.143-0.062-0.193c-0.006-0.04-0.009-0.124,0.006-0.161c0.015-0.039,0.094-0.089,0.108-0.129
		c0.013-0.034,0.007-0.11,0.003-0.146c-0.004-0.037-0.019-0.11-0.035-0.144c-0.009-0.017-0.032-0.05-0.05-0.059
		c-0.032-0.015-0.113-0.021-0.141,0c-0.021,0.016-0.039,0.079-0.026,0.103c0.014,0.026,0.092,0.017,0.108,0.041
		c0.014,0.02,0.006,0.073,0.003,0.097c-0.006,0.047-0.041,0.138-0.053,0.185c-0.013,0.05-0.044,0.152-0.047,0.205
		c-0.004,0.074,0.036,0.221,0.035,0.296c-0.001,0.044,0.001,0.141-0.026,0.175c-0.03,0.038-0.132,0.083-0.179,0.07
		c-0.029-0.008-0.05-0.079-0.076-0.094c-0.051-0.028-0.173-0.035-0.231-0.029c-0.041,0.004-0.135,0.021-0.158,0.056
		c-0.019,0.029-0.017,0.117,0.009,0.141c0.031,0.028,0.126-0.012,0.167-0.006c0.078,0.011,0.222,0.083,0.299,0.097
		c0.05,0.009,0.155,0.027,0.202,0.009c0.024-0.01,0.051-0.067,0.076-0.076s0.087-0.005,0.109,0.01
		c0.021,0.015,0.043,0.067,0.044,0.092c0.002,0.036-0.054,0.101-0.048,0.136c0.006,0.037,0.058,0.103,0.092,0.118
		c0.024,0.011,0.086,0.013,0.105-0.004c0.025-0.021,0.022-0.098,0.026-0.131c0.006-0.05-0.004-0.152,0.005-0.202
		c0.006-0.041,0.024-0.124,0.048-0.158c0.013-0.019,0.049-0.049,0.07-0.057c0.022-0.008,0.077-0.014,0.097,0
		c0.042,0.031,0.062,0.146,0.065,0.198c0.009,0.101-0.044,0.3-0.062,0.399c-0.038,0.216-0.121,0.647-0.171,0.861
		c-0.039,0.17-0.138,0.506-0.18,0.676c-0.069,0.278-0.219,0.832-0.26,1.115c-0.045,0.312-0.046,0.946-0.074,1.261
		c-0.01,0.106-0.013,0.326-0.053,0.426c-0.027,0.067-0.125,0.18-0.176,0.232c-0.032,0.034-0.125,0.076-0.145,0.119
		c-0.016,0.031-0.021,0.111,0,0.14c0.026,0.038,0.131,0.05,0.176,0.062c0.026,0.008,0.092,0.001,0.109,0.022
		c0.154,0.185,0.001,0.722,0.018,0.962c0.021,0.304,0.123,0.907,0.149,1.212c0.012,0.138-0.013,0.42,0.026,0.553
		c0.058,0.196,0.297,0.536,0.408,0.707c0.079,0.122,0.243,0.363,0.343,0.47c0.051,0.055,0.186,0.132,0.228,0.193
		c0.057,0.08,0.119,0.272,0.137,0.369c0.036,0.202,0.019,0.616,0.004,0.821c-0.012,0.177-0.035,0.537-0.101,0.702
		c-0.026,0.065-0.102,0.194-0.162,0.229c-0.054,0.029-0.185,0.033-0.242,0.013c-0.047-0.016-0.103-0.114-0.149-0.132
		c-0.1-0.037-0.32-0.013-0.426,0.005c-0.056,0.009-0.159,0.076-0.215,0.07c-0.045-0.005-0.11-0.081-0.153-0.093
		c-0.131-0.035-0.409-0.025-0.54,0.005c-0.145,0.032-0.408,0.176-0.536,0.25c-0.089,0.052-0.233,0.22-0.334,0.237
		c-0.068,0.012-0.206-0.043-0.268-0.074c-0.043-0.022-0.129-0.08-0.149-0.123c-0.025-0.054-0.018-0.181,0-0.237
		c0.017-0.055,0.088-0.148,0.128-0.189c0.064-0.066,0.24-0.149,0.303-0.219c0.058-0.065,0.149-0.219,0.171-0.304
		c0.013-0.05,0.007-0.155-0.004-0.206c-0.019-0.081-0.105-0.226-0.137-0.303c-0.051-0.125-0.127-0.384-0.185-0.505
		c-0.047-0.101-0.169-0.286-0.224-0.382c-0.054-0.096-0.148-0.095-0.174-0.201c-0.034-0.144-0.014-0.626-0.015-0.774
		c-0.002-0.185-0.055-0.553-0.04-0.737c0.01-0.121-0.004-0.414,0.102-0.475c0.035-0.02,0.128,0.021,0.153,0.053
		c0.024,0.031,0.008,0.119,0.014,0.158c0.005,0.038-0.003,0.124,0.026,0.149c0.034,0.03,0.138,0.013,0.184,0.009
		c0.052-0.004,0.15-0.038,0.202-0.039c0.093-0.003,0.276,0.045,0.369,0.048c0.059,0.002,0.183,0.013,0.232-0.018
		c0.04-0.024,0.078-0.115,0.097-0.158c0.027-0.062,0.035-0.207,0.075-0.264c0.047-0.066,0.232-0.114,0.268-0.188
		c0.076-0.163-0.049-0.54-0.058-0.72c-0.009-0.184,0.014-0.552-0.013-0.733c-0.018-0.117-0.121-0.339-0.128-0.457
		c-0.004-0.076,0.018-0.232,0.049-0.303c0.026-0.06,0.138-0.143,0.162-0.202c0.036-0.086,0.026-0.277,0.04-0.369
		c0.008-0.051,0.019-0.154,0.039-0.201c0.016-0.034,0.078-0.084,0.088-0.119c0.009-0.029,0.014-0.102-0.009-0.123
		c-0.021-0.02-0.09-0.016-0.114,0c-0.022,0.015-0.021,0.082-0.044,0.097c-0.031,0.021-0.123,0.026-0.149,0
		c-0.026-0.027-0.001-0.115,0-0.153c0.002-0.035-0.002-0.109,0.014-0.141c0.019-0.038,0.092-0.086,0.123-0.114
		c0.051-0.046,0.17-0.122,0.206-0.18c0.046-0.073,0.078-0.248,0.088-0.334c0.013-0.113,0.011-0.346-0.018-0.457
		c-0.023-0.094-0.096-0.286-0.171-0.347c-0.107-0.086-0.4-0.106-0.536-0.132c-0.062-0.012-0.197-0.002-0.255-0.03
		c-0.068-0.035-0.146-0.182-0.21-0.225c-0.059-0.038-0.193-0.093-0.264-0.097c-0.077-0.003-0.242,0.026-0.299,0.079
		c-0.051,0.048-0.038,0.216-0.088,0.264c-0.047,0.046-0.188,0.058-0.25,0.075c-0.029,0.008-0.101,0.006-0.119,0.03
		c-0.021,0.028,0.021,0.109,0.005,0.141c-0.015,0.029-0.073,0.085-0.105,0.079c-0.037-0.007-0.072-0.091-0.083-0.127
		s-0.003-0.112,0-0.149c0.002-0.05,0.023-0.148,0.021-0.198c-0.002-0.049-0.037-0.144-0.039-0.193
		c-0.004-0.085,0.044-0.253,0.039-0.338c-0.006-0.1-0.053-0.299-0.092-0.391c-0.034-0.08-0.127-0.23-0.189-0.29
		c-0.092-0.088-0.314-0.231-0.438-0.259c-0.071-0.016-0.231-0.017-0.29,0.026c-0.037,0.027-0.062,0.125-0.07,0.171
		c-0.01,0.047,0.021,0.15,0,0.193c-0.019,0.038-0.116,0.066-0.132,0.105c-0.015,0.035,0.011,0.112,0.018,0.149
		c0.014,0.08,0.023,0.25,0.07,0.316c0.031,0.044,0.131,0.104,0.185,0.114c0.045,0.008,0.134-0.031,0.18-0.035
		c0.051-0.005,0.159-0.026,0.202,0c0.019,0.012,0.038,0.057,0.039,0.079c0.002,0.031-0.018,0.1-0.044,0.119
		c-0.043,0.032-0.161,0.013-0.215,0.014c-0.047,0-0.143-0.021-0.188-0.009c-0.036,0.009-0.113,0.04-0.128,0.074
		c-0.01,0.024,0.007,0.085,0.026,0.101c0.034,0.027,0.129,0.009,0.172,0.005c0.048-0.005,0.141-0.032,0.188-0.04
		c0.06-0.009,0.182-0.028,0.241-0.021c0.062,0.007,0.186,0.036,0.233,0.074c0.04,0.033,0.096,0.129,0.105,0.181
		c0.006,0.033,0.006,0.115-0.022,0.136c-0.035,0.025-0.131-0.01-0.171-0.026c-0.046-0.02-0.112-0.101-0.158-0.118
		c-0.051-0.02-0.161-0.021-0.215-0.022c-0.093-0.003-0.277,0.021-0.369,0.009c-0.084-0.011-0.247-0.059-0.325-0.092
		c-0.071-0.031-0.203-0.114-0.268-0.158c-0.044-0.03-0.118-0.111-0.167-0.132c-0.061-0.025-0.194-0.021-0.259-0.031
		c-0.043-0.007-0.138-0.003-0.172-0.031c-0.025-0.021-0.025-0.099-0.048-0.123c-0.016-0.017-0.06-0.037-0.082-0.042
		c-0.046-0.011-0.145-0.019-0.188,0c-0.031,0.014-0.066,0.079-0.094,0.1c-0.034,0.026-0.126,0.047-0.152,0.082
		c-0.026,0.036-0.029,0.131-0.035,0.175c-0.008,0.064-0.055,0.205-0.018,0.258c0.035,0.05,0.174,0.066,0.234,0.064
		c0.058-0.002,0.171-0.042,0.217-0.076c0.054-0.04,0.1-0.183,0.158-0.217c0.062-0.035,0.223-0.061,0.287-0.029
		c0.035,0.018,0.088,0.097,0.082,0.135c-0.008,0.041-0.104,0.073-0.129,0.105c-0.029,0.037-0.045,0.142-0.082,0.17
		c-0.031,0.023-0.126,0.001-0.152,0.029c-0.016,0.017-0.022,0.068-0.012,0.088c0.021,0.039,0.115,0.066,0.158,0.076
		c0.062,0.015,0.212-0.04,0.258,0.006c0.033,0.034,0.012,0.146,0,0.193c-0.011,0.042-0.095,0.11-0.082,0.152
		c0.012,0.04,0.105,0.071,0.146,0.082c0.071,0.018,0.221,0.011,0.293,0c0.065-0.01,0.204-0.031,0.252-0.076
		c0.058-0.055,0.057-0.236,0.105-0.299c0.053-0.068,0.204-0.168,0.287-0.193c0.081-0.024,0.26-0.03,0.339,0
		c0.075,0.028,0.169,0.175,0.24,0.211s0.248,0.021,0.311,0.07c0.048,0.037,0.097,0.157,0.111,0.217s0.019,0.187,0,0.245
		c-0.017,0.052-0.107,0.125-0.123,0.176c-0.014,0.045-0.026,0.149,0,0.188c0.035,0.051,0.168,0.077,0.229,0.088
		c0.033,0.006,0.106,0.019,0.135,0c0.021-0.013,0.02-0.076,0.041-0.088c0.052-0.028,0.184-0.002,0.234,0.029
		c0.058,0.036,0.132,0.163,0.151,0.229c0.023,0.077,0.023,0.245,0,0.322c-0.015,0.05-0.102,0.125-0.117,0.175
		c-0.012,0.04-0.017,0.127,0,0.164c0.024,0.051,0.131,0.103,0.17,0.141c0.076,0.074,0.227,0.229,0.275,0.322
		c0.055,0.105,0.136,0.345,0.117,0.463c-0.011,0.068-0.125,0.168-0.146,0.233c-0.018,0.054-0.032,0.169-0.018,0.223
		c0.013,0.047,0.101,0.111,0.111,0.158c0.014,0.059-0.049,0.181-0.035,0.24c0.009,0.036,0.083,0.086,0.088,0.123
		s-0.019,0.125-0.053,0.141c-0.041,0.019-0.125-0.069-0.17-0.064c-0.065,0.007-0.182,0.094-0.223,0.146
		c-0.046,0.06-0.041,0.237-0.1,0.286c-0.047,0.041-0.184,0.051-0.245,0.041c-0.044-0.007-0.114-0.087-0.158-0.082
		c-0.052,0.006-0.136,0.088-0.158,0.135c-0.031,0.065,0.034,0.229-0.006,0.287c-0.041,0.061-0.219,0.059-0.27,0.111
		c-0.043,0.045-0.054,0.182-0.088,0.234c-0.024,0.038-0.088,0.108-0.129,0.129c-0.065,0.033-0.222,0.024-0.293,0.047
		c-0.052,0.016-0.154,0.061-0.198,0.094c-0.062,0.045-0.135,0.197-0.205,0.228c-0.06,0.026-0.194,0.008-0.258-0.006
		c-0.048-0.01-0.133-0.066-0.182-0.076c-0.052-0.01-0.159-0.013-0.211,0c-0.048,0.013-0.127,0.082-0.175,0.094
		c-0.032,0.008-0.098-0.008-0.129,0c-0.087,0.022-0.248,0.111-0.316,0.17c-0.054,0.047-0.116,0.182-0.17,0.229
		c-0.036,0.032-0.146,0.052-0.17,0.094c-0.086,0.156,0.034,0.535,0.041,0.714c0.005,0.122-0.036,0.375,0.012,0.486
		c0.017,0.038,0.076,0.116,0.117,0.117c0.057,0,0.128-0.114,0.164-0.158c0.042-0.052,0.077-0.206,0.141-0.229
		c0.058-0.021,0.195,0.032,0.231,0.082c0.01,0.015-0.015,0.06,0,0.07c0.021,0.016,0.075-0.025,0.103-0.029
		c0.024-0.003,0.075-0.007,0.099,0c0.03,0.009,0.089,0.039,0.105,0.064c0.044,0.068,0.026,0.242,0.041,0.322
		c0.018,0.093,0.078,0.274,0.088,0.368c0.016,0.136-0.031,0.411-0.006,0.545c0.016,0.079,0.109,0.219,0.123,0.299
		c0.011,0.063,0.005,0.195-0.012,0.258c-0.016,0.059-0.085,0.161-0.111,0.216c-0.021,0.047-0.07,0.138-0.082,0.188
		c-0.026,0.12-0.034,0.371-0.012,0.492c0.021,0.109,0.104,0.32,0.17,0.409c0.058,0.078,0.208,0.214,0.299,0.246
		c0.034,0.013,0.11,0.007,0.146,0c0.041-0.007,0.131-0.026,0.158-0.059c0.021-0.025-0.001-0.11,0.023-0.135
		c0.036-0.036,0.153-0.026,0.205-0.035c0.051-0.009,0.159-0.009,0.204-0.035c0.03-0.017,0.058-0.091,0.088-0.104
		c0.035-0.017,0.122-0.022,0.152,0c0.035,0.025,0.052,0.12,0.053,0.164c0.001,0.048-0.037,0.141-0.053,0.187
		c-0.019,0.059-0.074,0.169-0.088,0.229c-0.012,0.053-0.005,0.164-0.018,0.217c-0.013,0.051-0.071,0.142-0.082,0.193
		c-0.012,0.057-0.008,0.176,0,0.234c0.009,0.062,0.01,0.224,0.07,0.239c0.035,0.01,0.089-0.067,0.105-0.1
		c0.033-0.062,0.028-0.211,0.041-0.28c0.009-0.049,0.017-0.15,0.041-0.193c0.018-0.03,0.087-0.063,0.105-0.094
		c0.034-0.057,0.063-0.191,0.064-0.258c0.001-0.067-0.069-0.196-0.059-0.264c0.011-0.063,0.1-0.167,0.135-0.223
		c0.042-0.065,0.119-0.203,0.176-0.257c0.056-0.055,0.188-0.147,0.263-0.17c0.034-0.01,0.11-0.017,0.141,0
		c0.051,0.026,0.119,0.131,0.129,0.188c0.009,0.051-0.03,0.152-0.053,0.199c-0.032,0.068-0.134,0.182-0.175,0.245
		c-0.073,0.112-0.208,0.345-0.27,0.463c-0.102,0.194-0.297,0.586-0.366,0.793c-0.107,0.318-0.231,0.979-0.29,1.309
		c-0.078,0.445-0.21,1.341-0.237,1.792c-0.021,0.372,0.023,1.119,0.018,1.493c-0.001,0.109-0.016,0.329-0.018,0.438
		c-0.002,0.147-0.004,0.442,0.005,0.589c0.006,0.104,0.045,0.312,0.044,0.417c-0.001,0.072-0.017,0.216-0.035,0.285
		c-0.008,0.028-0.019,0.093-0.044,0.105c-0.027,0.015-0.097-0.005-0.118-0.026c-0.028-0.025-0.043-0.106-0.044-0.145
		c-0.002-0.038,0.019-0.115,0.035-0.149c0.013-0.027,0.071-0.066,0.074-0.097c0.005-0.042-0.06-0.113-0.074-0.153
		c-0.018-0.043-0.027-0.138-0.053-0.176c-0.029-0.043-0.126-0.091-0.163-0.127c-0.067-0.066-0.179-0.221-0.237-0.295
		c-0.075-0.097-0.238-0.283-0.298-0.391c-0.021-0.038-0.055-0.12-0.062-0.162c-0.011-0.062,0.019-0.19,0.004-0.251
		c-0.009-0.038-0.072-0.101-0.074-0.141c-0.002-0.032,0.023-0.101,0.048-0.123c0.027-0.023,0.111-0.014,0.141-0.035
		c0.026-0.018,0.04-0.113,0.07-0.105c0.028,0.009-0.013,0.095,0.005,0.119c0.018,0.025,0.087,0.05,0.118,0.044
		c0.024-0.005,0.051-0.06,0.074-0.066c0.027-0.007,0.092-0.003,0.11,0.018c0.019,0.022-0.021,0.098,0,0.119
		c0.027,0.027,0.13,0.027,0.158,0c0.036-0.037,0.011-0.156,0-0.207c-0.006-0.024-0.05-0.066-0.044-0.092s0.071-0.042,0.083-0.065
		c0.015-0.031,0.023-0.112,0-0.137c-0.019-0.019-0.08,0.005-0.105-0.004c-0.028-0.01-0.079-0.046-0.097-0.07
		c-0.024-0.036-0.064-0.129-0.044-0.167c0.017-0.03,0.111-0.016,0.132-0.044c0.021-0.029,0.011-0.11,0-0.145
		c-0.014-0.045-0.079-0.115-0.105-0.154c-0.031-0.048-0.103-0.14-0.123-0.193c-0.032-0.085-0.006-0.284-0.057-0.359
		c-0.049-0.073-0.228-0.134-0.299-0.185c-0.069-0.05-0.208-0.154-0.264-0.22c-0.027-0.033-0.05-0.128-0.087-0.149
		c-0.062-0.035-0.215-0.006-0.286,0c-0.057,0.005-0.168,0.027-0.224,0.035c-0.043,0.006-0.128,0.022-0.171,0.022
		c-0.041-0.001-0.122-0.029-0.163-0.026c-0.048,0.002-0.149,0.02-0.185,0.053c-0.043,0.041-0.065,0.169-0.074,0.228
		c-0.007,0.047,0.016,0.144,0.004,0.189c-0.01,0.041-0.098,0.108-0.083,0.149c0.017,0.044,0.133,0.047,0.176,0.065
		c0.062,0.027,0.182,0.092,0.241,0.123c0.075,0.038,0.229,0.106,0.299,0.153c0.028,0.02,0.082,0.062,0.103,0.09
		c0.059,0.077,0.141,0.257,0.164,0.351c0.021,0.087,0.026,0.269,0.018,0.357c-0.01,0.085-0.089,0.243-0.088,0.328
		c0.001,0.125,0.117,0.357,0.141,0.48c0.015,0.077,0.034,0.236,0.029,0.315c-0.005,0.064-0.013,0.207-0.059,0.252
		c-0.038,0.036-0.154,0.05-0.205,0.041c-0.039-0.007-0.115-0.048-0.135-0.082s0.018-0.123,0-0.158
		c-0.022-0.044-0.115-0.092-0.158-0.117c-0.072-0.042-0.223-0.117-0.305-0.135c-0.059-0.012-0.181-0.011-0.239,0
		c-0.05,0.01-0.159,0.034-0.188,0.076c-0.015,0.022-0.018,0.086,0,0.105c0.032,0.039,0.148,0.035,0.198,0.035
		c0.053,0,0.153-0.04,0.205-0.035c0.055,0.006,0.167,0.042,0.205,0.082c0.04,0.042,0.041,0.171,0.076,0.217
		c0.04,0.052,0.166,0.105,0.217,0.146c0.036,0.029,0.114,0.087,0.135,0.129c0.03,0.063,0.038,0.212,0.026,0.281
		c-0.015,0.085-0.114,0.234-0.144,0.315c-0.026,0.073-0.072,0.223-0.082,0.299c-0.007,0.053,0.005,0.158,0,0.211
		c-0.007,0.074-0.063,0.22-0.053,0.293c0.006,0.037,0.057,0.099,0.07,0.135c0.015,0.036,0.046,0.113,0.041,0.152
		c-0.008,0.062-0.083,0.168-0.123,0.217c-0.034,0.041-0.122,0.105-0.164,0.14c-0.047,0.039-0.145,0.114-0.193,0.152
		c-0.051,0.041-0.174,0.106-0.204,0.164c-0.039,0.071,0.012,0.253-0.03,0.322c-0.042,0.071-0.202,0.146-0.274,0.188
		c-0.093,0.053-0.309,0.108-0.387,0.182c-0.074,0.069-0.188,0.255-0.199,0.356c-0.006,0.053,0.021,0.167,0.059,0.205
		c0.035,0.036,0.143,0.06,0.193,0.059c0.062-0.001,0.176-0.095,0.234-0.076c0.047,0.015,0.114,0.109,0.117,0.158
		c0.004,0.086-0.169,0.212-0.176,0.299c-0.006,0.071,0.071,0.205,0.105,0.269c0.038,0.073,0.122,0.22,0.188,0.27
		c0.061,0.047,0.215,0.078,0.286,0.105c0.04,0.016,0.134,0.029,0.158,0.064c0.034,0.048-0.03,0.193,0.012,0.234
		c0.032,0.032,0.137,0.005,0.182,0.006c0.049,0.001,0.146,0.013,0.193,0c0.029-0.009,0.075-0.06,0.105-0.064
		c0.069-0.012,0.205,0.057,0.275,0.059c0.038,0.001,0.127,0.006,0.152-0.023c0.041-0.049,0.021-0.197,0-0.258
		c-0.017-0.046-0.108-0.105-0.123-0.152c-0.018-0.055,0.007-0.172,0.018-0.229c0.007-0.039,0.038-0.113,0.047-0.151
		c0.018-0.08,0.028-0.243,0.047-0.322c0.021-0.09,0.036-0.297,0.111-0.352c0.025-0.019,0.098-0.009,0.128,0
		c0.061,0.019,0.16,0.103,0.211,0.141c0.042,0.031,0.109,0.117,0.158,0.135c0.048,0.018,0.16-0.024,0.205,0
		c0.049,0.026,0.105,0.134,0.123,0.188c0.025,0.079-0.002,0.252,0.018,0.333c0.017,0.073,0.085,0.208,0.117,0.275
		c0.026,0.059,0.089,0.171,0.117,0.229c0.039,0.081,0.131,0.24,0.151,0.328c0.027,0.116-0.033,0.369,0.012,0.479
		c0.022,0.054,0.134,0.118,0.158,0.17c0.082,0.173,0.077,0.567,0.105,0.756c0.021,0.141,0.084,0.42,0.094,0.562
		c0.004,0.058,0.049,0.212-0.006,0.229c-0.046,0.014-0.068-0.136-0.111-0.158c-0.031-0.016-0.112-0.021-0.141,0
		c-0.034,0.025-0.062,0.125-0.047,0.164c0.021,0.052,0.159,0.067,0.193,0.111c0.033,0.042,0.036,0.156,0.059,0.205
		c0.018,0.038,0.078,0.102,0.094,0.141c0.038,0.092,0.059,0.294,0.076,0.392c0.029,0.167,0.053,0.507,0.105,0.668
		c0.021,0.065,0.069,0.21,0.129,0.245c0.039,0.024,0.156-0.037,0.182,0c0.029,0.045-0.059,0.151-0.082,0.199
		c-0.033,0.068-0.095,0.209-0.146,0.264c-0.027,0.028-0.096,0.08-0.135,0.082c-0.066,0.003-0.186-0.079-0.24-0.117
		c-0.043-0.03-0.102-0.13-0.152-0.146c-0.049-0.016-0.163-0.001-0.205,0.029c-0.043,0.032-0.059,0.152-0.093,0.193
		c-0.039,0.046-0.149,0.101-0.193,0.141c-0.08,0.072-0.24,0.225-0.287,0.322c-0.023,0.048,0.006,0.177-0.035,0.21
		c-0.035,0.029-0.144,0.02-0.182-0.005c-0.025-0.018-0.028-0.093-0.053-0.111c-0.04-0.031-0.148-0.043-0.199-0.041
		c-0.08,0.003-0.237,0.053-0.31,0.088c-0.088,0.042-0.264,0.146-0.316,0.228c-0.045,0.071-0.039,0.249-0.064,0.328
		c-0.023,0.074-0.106,0.207-0.129,0.281c-0.037,0.123-0.062,0.382-0.082,0.51c-0.021,0.134-0.038,0.409-0.082,0.538
		c-0.021,0.061-0.068,0.19-0.123,0.223c-0.032,0.02-0.118-0.018-0.152,0c-0.059,0.03-0.131,0.153-0.151,0.217
		c-0.028,0.083,0.005,0.265-0.012,0.351c-0.012,0.059-0.03,0.195-0.082,0.223c-0.026,0.014-0.086-0.017-0.111-0.029
		c-0.059-0.026-0.149-0.127-0.211-0.146c-0.049-0.015-0.156-0.014-0.205,0c-0.055,0.017-0.152,0.083-0.193,0.123
		c-0.097,0.095-0.229,0.335-0.299,0.451c-0.112,0.189-0.345,0.569-0.415,0.778c-0.055,0.162-0.085,0.505-0.111,0.674
		c-0.025,0.162-0.088,0.485-0.094,0.649c-0.012,0.302,0.039,0.907,0.082,1.206c0.046,0.326,0.198,0.969,0.281,1.288
		c0.115,0.447,0.376,1.334,0.532,1.769c0.055,0.152,0.21,0.44,0.252,0.597c0.039,0.145,0,0.464,0.076,0.592
		c0.032,0.054,0.171,0.093,0.205,0.146c0.05,0.079,0.029,0.281,0.064,0.368c0.022,0.056,0.103,0.148,0.135,0.199
		c0.026,0.043,0.059,0.1,0.093,0.161c0.097,0.174,0.214,0.395,0.287,0.519c0.153,0.257,0.456,0.776,0.64,1.013
		c0.147,0.188,0.522,0.497,0.659,0.693c0.025,0.037,0.073,0.118,0.079,0.162c0.004,0.034-0.02,0.1-0.026,0.132
		c-0.008,0.031-0.039,0.093-0.031,0.123c0.008,0.032,0.059,0.084,0.088,0.097c0.048,0.021,0.158,0.019,0.206,0
		c0.02-0.007,0.054-0.034,0.062-0.053c0.014-0.032,0.013-0.112-0.009-0.141c-0.024-0.032-0.13-0.02-0.153-0.053
		c-0.014-0.019-0.015-0.073,0-0.092c0.028-0.036,0.134-0.044,0.18-0.044c0.069,0,0.203,0.039,0.269,0.062
		c0.041,0.015,0.118,0.056,0.158,0.074c0.027,0.014,0.088,0.031,0.11,0.052c0.072,0.063,0.149,0.248,0.176,0.34
		c0.015,0.051,0.019,0.157,0.018,0.21c-0.001,0.081-0.063,0.246-0.035,0.322c0.02,0.053,0.132,0.106,0.164,0.152
		c0.028,0.04,0.07,0.133,0.076,0.182c0.009,0.07-0.02,0.215-0.047,0.281c-0.022,0.055-0.124,0.136-0.141,0.192
		c-0.026,0.092-0.002,0.289,0.023,0.381c0.031,0.114,0.182,0.309,0.217,0.422c0.022,0.071,0.062,0.226,0.041,0.299
		c-0.023,0.083-0.156,0.207-0.217,0.269c-0.047,0.049-0.144,0.147-0.205,0.176c-0.102,0.048-0.332,0.075-0.444,0.07
		c-0.081-0.003-0.236-0.087-0.316-0.076c-0.123,0.018-0.324,0.187-0.434,0.246c-0.104,0.058-0.311,0.178-0.421,0.223
		c-0.087,0.035-0.266,0.089-0.357,0.105c-0.094,0.017-0.288-0.001-0.381,0.023c-0.075,0.02-0.222,0.084-0.281,0.135
		c-0.066,0.058-0.122,0.249-0.198,0.292c-0.064,0.037-0.22,0.019-0.293,0.018c-0.07,0-0.211-0.017-0.281-0.018
		c-0.044,0-0.136-0.013-0.176,0.006c-0.104,0.051-0.228,0.264-0.304,0.352c-0.053,0.061-0.147,0.192-0.211,0.24
		c-0.04,0.029-0.132,0.078-0.182,0.082c-0.063,0.005-0.183-0.057-0.246-0.064c-0.063-0.009-0.196-0.021-0.258,0
		c-0.068,0.023-0.161,0.151-0.229,0.182c-0.103,0.046-0.332,0.073-0.444,0.076c-0.071,0.001-0.219-0.002-0.281-0.035
		c-0.045-0.024-0.102-0.114-0.135-0.152c-0.024-0.029-0.067-0.096-0.1-0.117c-0.062-0.041-0.215-0.055-0.281-0.088
		c-0.06-0.031-0.173-0.111-0.216-0.164c-0.046-0.056-0.079-0.202-0.123-0.258c-0.062-0.077-0.223-0.199-0.311-0.245
		c-0.08-0.042-0.267-0.062-0.346-0.105c-0.059-0.033-0.17-0.118-0.205-0.176c-0.041-0.069-0.024-0.249-0.069-0.316
		c-0.033-0.049-0.137-0.12-0.193-0.135c-0.074-0.02-0.246-0.02-0.305,0.029c-0.056,0.047-0.02,0.235-0.076,0.281
		c-0.028,0.022-0.109,0.007-0.146,0.006c-0.047-0.001-0.141-0.02-0.188-0.018c-0.056,0.002-0.171,0.016-0.222,0.041
		c-0.08,0.039-0.188,0.188-0.264,0.234c-0.062,0.037-0.197,0.106-0.27,0.105c-0.072-0.002-0.205-0.075-0.264-0.117
		c-0.046-0.034-0.102-0.144-0.152-0.17c-0.065-0.034-0.222-0.014-0.293-0.035c-0.061-0.019-0.187-0.068-0.228-0.117
		c-0.038-0.045-0.052-0.167-0.07-0.223c-0.016-0.044-0.026-0.148-0.064-0.176c-0.048-0.033-0.176,0-0.234,0
		c-0.083,0-0.251,0.013-0.334,0c-0.091-0.013-0.26-0.092-0.351-0.105c-0.062-0.009-0.186,0.007-0.246,0
		c-0.062-0.006-0.186-0.024-0.24-0.053c-0.053-0.026-0.125-0.128-0.176-0.157c-0.041-0.025-0.143-0.036-0.182-0.064
		c-0.046-0.034-0.094-0.148-0.141-0.182c-0.048-0.034-0.18-0.035-0.223-0.076c-0.03-0.03-0.064-0.121-0.058-0.164
		c0.006-0.045,0.068-0.12,0.105-0.146c0.056-0.039,0.215-0.027,0.263-0.076c0.034-0.033,0.048-0.135,0.053-0.182
		c0.012-0.109,0.011-0.336-0.029-0.438c-0.033-0.087-0.157-0.233-0.229-0.293c-0.105-0.089-0.356-0.211-0.485-0.258
		c-0.099-0.036-0.309-0.062-0.41-0.088c-0.073-0.019-0.231-0.036-0.292-0.082c-0.052-0.038-0.1-0.163-0.135-0.217
		c-0.034-0.049-0.094-0.156-0.141-0.192c-0.055-0.043-0.193-0.08-0.258-0.105c-0.094-0.037-0.294-0.082-0.375-0.141
		c-0.076-0.057-0.188-0.216-0.234-0.299c-0.029-0.056-0.033-0.199-0.082-0.24c-0.047-0.039-0.205,0.012-0.245-0.035
		c-0.037-0.042-0.014-0.168,0-0.222c0.01-0.042,0.074-0.11,0.082-0.152c0.012-0.073-0.011-0.229-0.047-0.293
		c-0.031-0.055-0.157-0.146-0.226-0.192l-0.46,0.491l-0.55,0.094l-0.469,0.362l-0.69,0.012l-0.867-1.036l-0.72-0.223l-0.721-0.392
		L68.7,91.042l-0.825,0.229L66.351,90.3l-4.966,3.002l-6.02-2.424l-3.972-1.599l-1.235,0.018l-0.972-0.293l-1.3-0.55l-1.083-1.024
		l-0.796-0.012l-0.269-0.188l-1.682,3.023c-0.031-0.023-0.06-0.042-0.081-0.05c-0.083-0.028-0.265,0.017-0.351,0
		c-0.065-0.012-0.185-0.067-0.246-0.093c-0.059-0.025-0.171-0.093-0.234-0.105c-0.056-0.013-0.178,0.025-0.229,0
		c-0.045-0.023-0.081-0.13-0.117-0.164c-0.05-0.048-0.17-0.119-0.234-0.146c-0.056-0.023-0.179-0.034-0.234-0.059
		c-0.075-0.033-0.196-0.158-0.275-0.182c-0.038-0.012-0.122,0.016-0.158,0c-0.041-0.017-0.1-0.086-0.123-0.123
		c-0.034-0.055-0.092-0.182-0.082-0.246c0.005-0.034,0.071-0.078,0.082-0.111c0.027-0.083,0.025-0.267,0-0.351
		c-0.048-0.164-0.276-0.431-0.369-0.574c-0.128-0.198-0.362-0.611-0.515-0.79c-0.096-0.111-0.323-0.302-0.439-0.393
		c-0.076-0.06-0.229-0.188-0.322-0.217c-0.042-0.013-0.139,0.024-0.176,0c-0.042-0.026-0.077-0.132-0.082-0.181
		c-0.006-0.059,0.081-0.178,0.053-0.229c-0.029-0.054-0.188-0.038-0.231-0.082c-0.035-0.036-0.026-0.156-0.061-0.193
		c-0.044-0.046-0.201-0.036-0.237-0.088c-0.027-0.04,0.017-0.147,0-0.193c-0.032-0.084-0.173-0.209-0.237-0.272
		c-0.051-0.05-0.152-0.159-0.219-0.184c-0.043-0.017-0.145,0.023-0.185,0c-0.086-0.053-0.125-0.279-0.185-0.36
		c-0.104-0.142-0.351-0.399-0.5-0.492c-0.069-0.042-0.227-0.115-0.307-0.105c-0.047,0.007-0.111,0.108-0.158,0.105
		c-0.078-0.004-0.178-0.15-0.237-0.202c-0.055-0.047-0.167-0.143-0.219-0.192c-0.064-0.062-0.172-0.207-0.246-0.255
		c-0.069-0.045-0.241-0.066-0.307-0.114c-0.066-0.048-0.175-0.178-0.202-0.255c-0.023-0.066,0.033-0.219,0-0.281
		c-0.044-0.081-0.223-0.164-0.308-0.201c-0.089-0.04-0.304-0.033-0.377-0.097c-0.085-0.073-0.111-0.321-0.176-0.413
		c-0.093-0.133-0.353-0.335-0.477-0.439c-0.167-0.14-0.507-0.419-0.697-0.526c-0.149-0.085-0.504-0.149-0.638-0.258
		c-0.086-0.07-0.214-0.263-0.246-0.369c-0.034-0.11,0.047-0.356,0-0.462c-0.001-0.003-0.002-0.005-0.004-0.008l0,0
		c-0.04-0.073-0.178-0.162-0.242-0.209c-0.156-0.116-0.493-0.312-0.662-0.41c-0.187-0.108-0.599-0.267-0.761-0.41
		c-0.07-0.062-0.144-0.245-0.216-0.304c-0.088-0.07-0.313-0.13-0.416-0.176c-0.153-0.068-0.461-0.207-0.608-0.287
		c-0.156-0.085-0.459-0.271-0.604-0.375c-0.203-0.145-0.624-0.432-0.772-0.632c-0.068-0.092-0.109-0.329-0.176-0.422
		c-0.135-0.188-0.516-0.465-0.697-0.608c-0.206-0.164-0.633-0.473-0.854-0.615c-0.003-0.002-0.006-0.004-0.009-0.006
		c-0.167-0.104-0.511-0.263-0.664-0.374c-0.184-0.135-0.502-0.464-0.667-0.621c-0.101-0.096-0.334-0.264-0.398-0.387
		c-0.06-0.115-0.037-0.393-0.082-0.515c-0.058-0.159-0.251-0.443-0.351-0.58c-0.115-0.157-0.378-0.446-0.515-0.585
		c-0.118-0.119-0.366-0.343-0.498-0.445c-0.068-0.053-0.214-0.146-0.287-0.193c-0.088-0.057-0.306-0.13-0.357-0.222
		c-0.036-0.064,0.013-0.221,0-0.293c-0.023-0.132-0.129-0.381-0.182-0.504c-0.078-0.183-0.237-0.551-0.351-0.714
		c-0.092-0.132-0.328-0.353-0.445-0.463c-0.08-0.074-0.266-0.195-0.333-0.281c-0.026-0.032-0.054-0.085-0.082-0.142
		c-0.036-0.074-0.069-0.154-0.094-0.203c-0.061-0.121-0.175-0.367-0.24-0.486c-0.066-0.121-0.203-0.361-0.281-0.475
		c-0.068-0.097-0.229-0.272-0.298-0.368c-0.094-0.13-0.273-0.396-0.346-0.539c-0.076-0.15-0.201-0.466-0.241-0.63
		c-0.032-0.127-0.023-0.396-0.062-0.522c-0.038-0.124-0.175-0.347-0.237-0.461c-0.035-0.063-0.123-0.181-0.145-0.25
		c-0.019-0.059-0.042-0.188-0.022-0.246c0.013-0.038,0.091-0.082,0.11-0.118c0.033-0.063,0.05-0.21,0.057-0.281
		c0.008-0.075,0.013-0.229,0-0.303c-0.007-0.04-0.02-0.13-0.053-0.154c-0.023-0.017-0.091-0.017-0.114,0
		c-0.033,0.024-0.051,0.113-0.052,0.154c-0.002,0.05,0.046,0.144,0.052,0.193c0.005,0.035,0.016,0.111,0,0.145
		c-0.011,0.024-0.056,0.072-0.083,0.07c-0.045-0.003-0.089-0.103-0.123-0.132c-0.137-0.115-0.446-0.299-0.597-0.396
		c-0.248-0.157-0.759-0.447-1.001-0.614c-0.228-0.157-0.646-0.524-0.878-0.677c-0.298-0.195-0.942-0.508-1.247-0.693
		c-0.189-0.115-0.549-0.376-0.738-0.492c-0.133-0.081-0.42-0.212-0.544-0.307c-0.14-0.107-0.371-0.377-0.496-0.501
		c-0.062-0.062-0.183-0.188-0.25-0.241c-0.075-0.061-0.242-0.155-0.32-0.211s-0.226-0.177-0.303-0.232
		c-0.077-0.057-0.235-0.164-0.316-0.216c-0.136-0.087-0.413-0.253-0.553-0.333c-0.107-0.062-0.326-0.179-0.435-0.237
		c-0.107-0.059-0.323-0.175-0.43-0.232c-0.08-0.044-0.24-0.133-0.32-0.176c-0.077-0.041-0.232-0.115-0.308-0.158
		c-0.03-0.018-0.094-0.05-0.119-0.075c-0.028-0.029-0.091-0.102-0.079-0.141c0.008-0.024,0.071-0.029,0.092-0.044
		c0.026-0.017,0.062-0.076,0.092-0.083c0.058-0.012,0.175,0.042,0.224,0.074c0.036,0.024,0.093,0.091,0.114,0.128
		c0.024,0.043,0.03,0.15,0.061,0.188c0.038,0.046,0.155,0.085,0.207,0.114c0.06,0.034,0.176,0.109,0.237,0.141
		c0.089,0.045,0.277,0.113,0.369,0.153c0.099,0.044,0.291,0.142,0.391,0.181c0.054,0.021,0.173,0.104,0.219,0.07
		c0.029-0.021,0.009-0.11,0-0.146c-0.009-0.035-0.042-0.104-0.07-0.127c-0.031-0.026-0.126-0.027-0.153-0.058
		c-0.025-0.026-0.018-0.111-0.04-0.14c-0.032-0.042-0.142-0.07-0.18-0.105c-0.029-0.027-0.061-0.104-0.088-0.132
		c-0.013-0.015-0.037-0.037-0.06-0.055c-0.013-0.01-0.026-0.018-0.037-0.021c-0.047-0.012-0.144,0.03-0.193,0.031
		s-0.149-0.002-0.193-0.022c-0.049-0.022-0.134-0.101-0.158-0.149c-0.013-0.025-0.032-0.093-0.013-0.113
		c0.018-0.021,0.083,0.014,0.105,0c0.012-0.008,0.023-0.039,0.026-0.053c0.004-0.018,0.011-0.057,0-0.07
		c-0.037-0.048-0.18-0.03-0.233-0.058c-0.046-0.023-0.129-0.093-0.158-0.136c-0.036-0.053-0.069-0.179-0.079-0.242
		c-0.009-0.056,0.014-0.173,0-0.228c-0.01-0.038-0.045-0.111-0.075-0.137c-0.018-0.015-0.065-0.032-0.088-0.03
		c-0.034,0.003-0.086,0.055-0.119,0.065c-0.035,0.012-0.121-0.01-0.145,0.018c-0.017,0.02-0.016,0.085,0,0.105
		c0.018,0.023,0.089,0.016,0.114,0.031c0.048,0.028,0.129,0.112,0.154,0.162c0.026,0.053,0.05,0.175,0.04,0.232
		c-0.008,0.044-0.052,0.128-0.088,0.154c-0.026,0.019-0.097,0.037-0.127,0.026c-0.043-0.017-0.089-0.106-0.114-0.146
		c-0.024-0.038-0.062-0.12-0.079-0.162c-0.02-0.049-0.036-0.158-0.066-0.202c-0.036-0.053-0.146-0.126-0.198-0.162
		c-0.051-0.036-0.169-0.085-0.215-0.128c-0.056-0.051-0.152-0.174-0.175-0.245c-0.017-0.053,0.026-0.172,0-0.22
		c-0.035-0.064-0.184-0.12-0.246-0.158c-0.123-0.076-0.375-0.216-0.496-0.294c-0.085-0.056-0.241-0.188-0.33-0.237
		c-0.081-0.045-0.256-0.108-0.342-0.141c-0.057-0.021-0.192-0.03-0.229-0.079c-0.016-0.022-0.021-0.088-0.004-0.109
		c0.011-0.014,0.049-0.015,0.066-0.014c0.053,0.003,0.151,0.051,0.202,0.065c0.057,0.017,0.17,0.051,0.228,0.058
		c0.035,0.004,0.116,0.024,0.141,0c0.02-0.02,0.015-0.087,0-0.109c-0.016-0.026-0.08-0.047-0.11-0.053
		c-0.058-0.014-0.178,0.009-0.237,0c-0.045-0.008-0.133-0.033-0.171-0.058c-0.047-0.03-0.114-0.123-0.154-0.162
		c-0.045-0.045-0.135-0.137-0.188-0.172c-0.052-0.034-0.169-0.08-0.229-0.101c-0.023-0.009-0.076-0.04-0.097-0.026
		c-0.016,0.011-0.015,0.057-0.009,0.074c0.01,0.03,0.061,0.076,0.088,0.093c0.033,0.021,0.119,0.02,0.149,0.044
		c0.028,0.022,0.063,0.092,0.07,0.127c0.003,0.019,0.005,0.062-0.009,0.075c-0.021,0.019-0.086,0.006-0.114,0
		c-0.035-0.008-0.098-0.042-0.127-0.062c-0.065-0.044-0.173-0.16-0.232-0.211c-0.044-0.038-0.133-0.112-0.18-0.145
		c-0.04-0.027-0.13-0.066-0.167-0.097c-0.03-0.025-0.114-0.082-0.101-0.119c0.015-0.039,0.126-0.037,0.167-0.026
		c0.03,0.008,0.069,0.065,0.097,0.079c0.031,0.016,0.104,0.051,0.136,0.035c0.02-0.01,0.034-0.061,0.035-0.083
		c0.001-0.042-0.034-0.123-0.057-0.158c-0.02-0.03-0.091-0.064-0.105-0.097c-0.015-0.033-0.024-0.118,0-0.145
		c0.032-0.036,0.144-0.007,0.188-0.022c0.031-0.011,0.09-0.044,0.11-0.07c0.018-0.023,0.032-0.084,0.035-0.114
		c0.005-0.038,0.008-0.119-0.009-0.153c-0.02-0.041-0.125-0.075-0.136-0.119c-0.009-0.037,0.061-0.105,0.057-0.145
		c-0.002-0.028-0.034-0.08-0.057-0.097c-0.015-0.012-0.057-0.025-0.074-0.018c-0.037,0.018-0.065,0.105-0.075,0.146
		c-0.01,0.039-0.008,0.122,0,0.162s0.067,0.108,0.066,0.149c-0.001,0.029-0.037,0.083-0.057,0.105
		c-0.037,0.039-0.131,0.092-0.18,0.114c-0.045,0.02-0.158,0.015-0.189,0.053c-0.042,0.05,0.009,0.201-0.022,0.259
		c-0.018,0.033-0.081,0.092-0.118,0.097c-0.03,0.004-0.086-0.03-0.11-0.049c-0.043-0.033-0.102-0.129-0.136-0.171
		c-0.042-0.052-0.133-0.151-0.171-0.206c-0.033-0.049-0.084-0.156-0.114-0.207c-0.045-0.077-0.154-0.222-0.193-0.303
		c-0.022-0.047-0.036-0.155-0.066-0.197c-0.034-0.047-0.146-0.094-0.185-0.137c-0.066-0.073-0.129-0.271-0.198-0.342
		c-0.09-0.096-0.321-0.229-0.439-0.286c-0.062-0.03-0.216-0.041-0.263-0.092c-0.034-0.037-0.067-0.146-0.053-0.193
		c0.01-0.034,0.104-0.061,0.105-0.097c0.002-0.065-0.132-0.145-0.18-0.188c-0.118-0.108-0.377-0.298-0.496-0.404
		c-0.059-0.052-0.179-0.155-0.224-0.22c-0.027-0.039-0.094-0.13-0.079-0.176c0.006-0.019,0.05-0.037,0.07-0.039
		c0.029-0.004,0.09,0.014,0.114,0.03c0.047,0.034,0.09,0.152,0.132,0.193c0.057,0.058,0.19,0.151,0.263,0.185
		c0.021,0.01,0.065,0.021,0.088,0.022c0.045,0.002,0.15,0.008,0.18-0.026c0.017-0.02,0.006-0.077,0-0.102
		c-0.007-0.027-0.03-0.083-0.053-0.101c-0.046-0.036-0.173-0.034-0.229-0.053c-0.039-0.013-0.121-0.036-0.149-0.066
		c-0.024-0.025-0.042-0.097-0.048-0.132c-0.009-0.048-0.028-0.156,0-0.197c0.014-0.021,0.076-0.023,0.096-0.039
		c0.032-0.024,0.084-0.09,0.097-0.128c0.01-0.03,0.025-0.107,0-0.127c-0.029-0.023-0.114,0.01-0.145,0.03
		c-0.024,0.017-0.037,0.083-0.062,0.097c-0.04,0.022-0.136,0.015-0.18,0.005c-0.043-0.011-0.125-0.054-0.158-0.084
		c-0.043-0.039-0.086-0.155-0.127-0.197c-0.028-0.029-0.095-0.076-0.131-0.092c-0.034-0.016-0.116-0.008-0.145-0.031
		c-0.031-0.024-0.047-0.109-0.066-0.145c-0.026-0.049-0.083-0.144-0.114-0.189c-0.028-0.04-0.104-0.108-0.123-0.153
		c-0.021-0.049-0.029-0.158-0.026-0.211c0.002-0.043,0.027-0.126,0.04-0.167c0.016-0.051,0.074-0.148,0.075-0.202
		c0.001-0.036-0.015-0.114-0.044-0.136c-0.031-0.023-0.119-0.022-0.154-0.004c-0.029,0.015-0.047,0.091-0.074,0.11
		c-0.04,0.027-0.145,0.023-0.189,0.043c-0.038,0.018-0.092,0.089-0.132,0.101c-0.043,0.014-0.135-0.006-0.18-0.009
		c-0.042-0.002-0.128-0.029-0.167-0.013c-0.044,0.019-0.109,0.104-0.123,0.149c-0.01,0.033-0.015,0.117,0.013,0.136
		c0.029,0.021,0.118-0.006,0.141-0.035c0.011-0.014-0.011-0.057,0-0.07c0.018-0.021,0.082-0.027,0.109-0.022
		c0.035,0.007,0.098,0.051,0.119,0.079c0.02,0.027,0.017,0.104,0.04,0.127c0.028,0.029,0.127,0.021,0.154,0.053
		c0.026,0.03,0.028,0.118,0.026,0.158c-0.001,0.02-0.017,0.056-0.018,0.074c-0.001,0.04,0.008,0.122,0.031,0.154
		c0.019,0.027,0.083,0.059,0.114,0.07c0.042,0.015,0.136,0.009,0.18,0.021c0.038,0.011,0.111,0.041,0.141,0.066
		c0.047,0.04,0.091,0.163,0.136,0.206c0.031,0.03,0.114,0.062,0.149,0.088c0.042,0.031,0.125,0.099,0.158,0.141
		c0.027,0.034,0.077,0.11,0.079,0.153c0.001,0.027-0.017,0.086-0.04,0.102c-0.026,0.018-0.098,0.012-0.127,0
		c-0.05-0.021-0.108-0.123-0.149-0.158c-0.065-0.055-0.214-0.138-0.281-0.189c-0.093-0.071-0.255-0.243-0.351-0.312
		c-0.144-0.102-0.463-0.253-0.615-0.343c-0.238-0.14-0.703-0.441-0.94-0.584c-0.263-0.159-0.808-0.446-1.06-0.622
		c-0.177-0.124-0.521-0.392-0.667-0.55c-0.083-0.089-0.242-0.284-0.279-0.399c-0.015-0.046-0.016-0.146-0.004-0.193
		c0.016-0.066,0.11-0.175,0.127-0.241c0.017-0.067-0.016-0.21,0.004-0.277c0.016-0.055,0.1-0.141,0.123-0.193
		c0.027-0.06,0.068-0.188,0.07-0.254c0.001-0.041-0.048-0.122-0.031-0.158c0.022-0.044,0.147-0.048,0.176-0.088
		c0.026-0.036,0.01-0.134,0.026-0.176c0.028-0.072,0.11-0.211,0.171-0.259c0.064-0.05,0.233-0.077,0.307-0.11
		c0.146-0.065,0.436-0.206,0.562-0.303c0.107-0.083,0.289-0.287,0.369-0.396c0.051-0.068,0.149-0.212,0.171-0.294
		c0.013-0.047-0.002-0.145,0-0.193c0.003-0.05,0.015-0.148,0.022-0.198c0.006-0.039,0.014-0.118,0.031-0.153
		c0.021-0.045,0.103-0.111,0.127-0.154c0.022-0.039,0.047-0.125,0.062-0.167c0.012-0.035,0.018-0.115,0.044-0.141
		c0.023-0.022,0.091-0.039,0.123-0.035c0.04,0.005,0.12,0.045,0.14,0.079s0.02,0.122,0.004,0.158s-0.088,0.08-0.118,0.105
		c-0.039,0.032-0.128,0.083-0.158,0.123c-0.04,0.054-0.1,0.183-0.097,0.25c0.001,0.025,0.02,0.082,0.044,0.088
		c0.027,0.007,0.065-0.057,0.092-0.066c0.03-0.01,0.096-0.006,0.127,0c0.04,0.008,0.109,0.058,0.149,0.066
		c0.073,0.016,0.227-0.021,0.299,0c0.07,0.021,0.186,0.12,0.246,0.163c0.074,0.053,0.205,0.184,0.286,0.224
		c0.065,0.033,0.224,0.03,0.281,0.075c0.085,0.068,0.16,0.287,0.206,0.387c0.021,0.044,0.032,0.151,0.07,0.18
		c0.058,0.044,0.219,0.011,0.29,0.026c0.028,0.006,0.09,0.018,0.109,0.04c0.037,0.042,0.024,0.166,0.048,0.215
		c0.027,0.053,0.121,0.131,0.154,0.18c0.034,0.051,0.103,0.158,0.11,0.219c0.007,0.059-0.046,0.173-0.053,0.233
		c-0.013,0.113-0.018,0.344,0,0.457c0.009,0.056,0.031,0.175,0.07,0.215c0.036,0.036,0.142,0.065,0.193,0.066
		c0.03,0,0.084-0.036,0.114-0.035c0.067,0.002,0.189,0.069,0.25,0.097c0.108,0.047,0.312,0.167,0.421,0.21
		c0.111,0.045,0.347,0.098,0.458,0.142c0.046,0.018,0.127,0.079,0.176,0.085c0.061,0.007,0.179-0.044,0.24-0.05
		c0.056-0.005,0.169-0.002,0.225,0.006c0.029,0.004,0.093,0.012,0.114,0.032c0.028,0.027,0.033,0.114,0.05,0.149
		c0.014,0.028,0.055,0.077,0.067,0.105c0.017,0.037,0.039,0.113,0.044,0.152c0.004,0.032-0.005,0.097,0,0.129
		c0.004,0.024,0.009,0.085,0.032,0.094c0.03,0.011,0.091-0.041,0.108-0.067c0.023-0.038,0.028-0.132,0.021-0.176
		c-0.008-0.044-0.057-0.122-0.079-0.161c-0.019-0.031-0.075-0.084-0.082-0.12c-0.005-0.026,0.003-0.085,0.021-0.105
		c0.021-0.024,0.088-0.039,0.12-0.044c0.037-0.007,0.114,0.003,0.152,0c0.048-0.004,0.144-0.048,0.19-0.035
		c0.052,0.014,0.142,0.091,0.164,0.141c0.014,0.03-0.013,0.102,0,0.132c0.01,0.022,0.05,0.054,0.07,0.067
		c0.025,0.017,0.082,0.04,0.111,0.05c0.039,0.013,0.124,0.019,0.161,0.038c0.022,0.012,0.064,0.044,0.073,0.067
		c0.013,0.033-0.018,0.106-0.012,0.141c0.004,0.025,0.036,0.069,0.041,0.094c0.008,0.037-0.013,0.115,0.003,0.149
		c0.012,0.026,0.057,0.08,0.085,0.076c0.047-0.007,0.089-0.117,0.1-0.164c0.013-0.058-0.022-0.175-0.023-0.234
		c-0.001-0.039,0.025-0.12,0.009-0.155c-0.018-0.037-0.093-0.085-0.132-0.099c-0.04-0.015-0.128-0.002-0.17-0.012
		c-0.038-0.009-0.119-0.029-0.143-0.059c-0.015-0.018-0.02-0.065-0.018-0.088c0.002-0.03,0.028-0.085,0.041-0.111
		c0.012-0.025,0.036-0.077,0.058-0.094c0.05-0.037,0.179-0.053,0.24-0.062c0.042-0.005,0.128-0.011,0.17-0.003
		c0.04,0.008,0.12,0.04,0.149,0.067c0.029,0.028,0.049,0.113,0.076,0.144c0.02,0.022,0.072,0.052,0.097,0.067
		c0.025,0.015,0.083,0.031,0.103,0.053c0.026,0.028,0.041,0.109,0.059,0.143c0.018,0.034,0.063,0.095,0.085,0.126
		s0.05,0.123,0.088,0.123c0.021,0,0.044-0.049,0.051-0.07c0.011-0.034,0.008-0.108,0-0.144c-0.012-0.049-0.062-0.141-0.092-0.181
		c-0.048-0.065-0.184-0.162-0.234-0.226c-0.038-0.048-0.115-0.15-0.125-0.211c-0.008-0.041,0.008-0.127,0.029-0.164
		s0.087-0.094,0.126-0.108c0.047-0.018,0.153,0.01,0.202,0c0.044-0.009,0.124-0.058,0.167-0.073c0.059-0.022,0.181-0.052,0.24-0.073
		c0.06-0.021,0.189-0.05,0.234-0.094c0.035-0.034,0.076-0.132,0.079-0.181c0.003-0.049-0.02-0.155-0.056-0.188
		c-0.05-0.046-0.208-0.021-0.267-0.056c-0.042-0.025-0.084-0.124-0.126-0.149c-0.056-0.034-0.19-0.051-0.254-0.062
		c-0.089-0.014-0.274,0-0.36-0.029c-0.052-0.018-0.163-0.069-0.187-0.12c-0.009-0.018-0.006-0.053-0.001-0.089l5.176-0.171
		c0,0,0.117,0.277,0.202,0.316c0.125,0.058,0.416-0.029,0.544-0.079c0.141-0.055,0.395-0.234,0.5-0.343
		c0.06-0.062,0.117-0.237,0.185-0.29c0.117-0.091,0.431-0.116,0.562-0.185c0.126-0.066,0.377-0.224,0.457-0.343
		c0.083-0.124,0.065-0.456,0.149-0.58c0.095-0.14,0.436-0.273,0.547-0.401c0.064-0.073,0.193-0.243,0.188-0.34
		c-0.008-0.146-0.32-0.334-0.34-0.48c-0.015-0.111,0.122-0.313,0.152-0.421c0.039-0.138,0.104-0.419,0.117-0.562
		c0.015-0.157-0.03-0.475-0.012-0.632c0.011-0.093,0.064-0.274,0.094-0.363c0.043-0.132,0.184-0.379,0.21-0.515
		c0.029-0.149-0.062-0.47,0-0.609c0.037-0.083,0.185-0.211,0.27-0.246c0.07-0.029,0.24,0.028,0.305-0.012
		c0.11-0.069,0.193-0.338,0.246-0.457c0.029-0.065,0.03-0.238,0.094-0.27c0.077-0.038,0.242,0.114,0.328,0.105
		c0.077-0.008,0.202-0.115,0.27-0.152c0.061-0.033,0.178-0.116,0.246-0.129c0.099-0.018,0.305,0.012,0.398,0.047
		c0.196,0.075,0.512,0.37,0.691,0.48c0.119,0.074,0.353,0.25,0.492,0.27c0.055,0.008,0.134-0.001,0.215-0.019
		c0.117-0.024,0.239-0.065,0.312-0.099c0.173-0.08,0.515-0.291,0.609-0.457c0.093-0.164,0.097-0.562,0.082-0.75
		c-0.018-0.221-0.117-0.667-0.234-0.854c-0.056-0.09-0.231-0.218-0.316-0.281c-0.091-0.067-0.338-0.132-0.387-0.234
		c-0.05-0.107,0.01-0.366,0.07-0.468c0.06-0.101,0.32-0.177,0.375-0.281c0.089-0.168,0.09-0.579,0.035-0.761
		c-0.04-0.132-0.285-0.314-0.328-0.445c-0.064-0.195,0.021-0.616,0-0.82c-0.022-0.217-0.089-0.654-0.175-0.854
		c-0.067-0.155-0.346-0.388-0.387-0.551c-0.037-0.146,0.023-0.454,0.07-0.597c0.041-0.125,0.216-0.332,0.257-0.457
		c0.03-0.089,0.08-0.286,0.047-0.375c-0.024-0.066-0.075-0.083-0.137-0.117c-0.024-0.013-0.068-0.002-0.115,0.012
		c-0.066,0.02-0.137,0.045-0.165,0.018c-0.081-0.079-0.192-0.491-0.18-0.603c0.016-0.152,0.235-0.397,0.293-0.539
		c0.061-0.149,0.169-0.459,0.176-0.621c0.006-0.161-0.142-0.472-0.129-0.632c0.009-0.115,0.079-0.355,0.164-0.433
		c0.166-0.152,0.643-0.222,0.866-0.246c0.137-0.015,0.413,0.028,0.55,0.035c0.158,0.008,0.477-0.007,0.632,0.023
		c0.067,0.013,0.189,0.087,0.258,0.094c0.163,0.015,0.482-0.083,0.644-0.105c0.128-0.018,0.386-0.051,0.515-0.059
		c0.12-0.007,0.363,0.026,0.48,0c0.114-0.025,0.31-0.166,0.421-0.199c0.159-0.047,0.503-0.159,0.656-0.093
		c0.152,0.065,0.247,0.449,0.387,0.538c0.13,0.084,0.456,0.144,0.609,0.117c0.174-0.03,0.432-0.378,0.609-0.363
		c0.188,0.016,0.404,0.407,0.574,0.492c0.134,0.067,0.436,0.138,0.585,0.129c0.121-0.008,0.337-0.144,0.457-0.164
		c0.159-0.026,0.489,0.055,0.644,0.012c0.183-0.05,0.524-0.251,0.644-0.398c0.085-0.104,0.111-0.393,0.188-0.503
		c0.048-0.07,0.205-0.156,0.257-0.223c0.056-0.072,0.143-0.239,0.164-0.328c0.024-0.103-0.062-0.335,0-0.421
		c0.063-0.088,0.333-0.064,0.41-0.141c0.067-0.065,0.064-0.283,0.129-0.351c0.103-0.108,0.433-0.142,0.55-0.234
		c0.192-0.151,0.422-0.602,0.585-0.784c0.075-0.083,0.24-0.235,0.328-0.305c0.127-0.101,0.451-0.226,0.539-0.363
		c0.059-0.092,0.03-0.332,0.07-0.433c0.037-0.092,0.15-0.261,0.222-0.328c0.112-0.104,0.444-0.177,0.527-0.304
		c0.045-0.069,0.049-0.247,0.035-0.328c-0.021-0.119-0.234-0.315-0.21-0.433c0.035-0.177,0.389-0.379,0.539-0.48
		c0.122-0.082,0.387-0.212,0.527-0.258c0.189-0.062,0.591-0.093,0.785-0.141c0.134-0.033,0.39-0.143,0.527-0.164
		c0.147-0.022,0.476-0.087,0.597,0c0.131,0.093,0.229,0.449,0.211,0.609c-0.025,0.219-0.352,0.562-0.469,0.749
		c-0.05,0.079-0.188,0.224-0.199,0.316c-0.008,0.064,0.036,0.2,0.082,0.246c0.077,0.076,0.325,0.063,0.41,0.129
		c0.087,0.067,0.143,0.313,0.234,0.375c0.136,0.092,0.49,0.062,0.644,0.117c0.192,0.067,0.55,0.267,0.714,0.386
		c0.128,0.093,0.395,0.293,0.457,0.439c0.026,0.062-0.036,0.212,0,0.27c0.036,0.056,0.182,0.085,0.24,0.117
		c0.03,0.016,0.084,0.06,0.117,0.07c0.053,0.017,0.18,0.048,0.222,0.012c0.028-0.023,0.011-0.11,0.018-0.146
		c0.017-0.086,0.033-0.271,0.088-0.34c0.037-0.046,0.152-0.101,0.211-0.105c0.137-0.011,0.408,0.094,0.527,0.164
		c0.116,0.069,0.33,0.252,0.386,0.375c0.072,0.156,0,0.52,0.047,0.685c0.041,0.145,0.154,0.415,0.268,0.557
		c0.017,0.021,0.033,0.038,0.049,0.052c0.123,0.109,0.453,0.205,0.615,0.234c0.129,0.024,0.396,0.017,0.527,0
		c0.089-0.012,0.261-0.125,0.345-0.094c0.067,0.024,0.098,0.207,0.164,0.234c0.055,0.023,0.186-0.007,0.234-0.041
		c0.055-0.039,0.114-0.17,0.134-0.234c0.031-0.095,0.05-0.298,0.041-0.398c-0.006-0.071-0.028-0.223-0.076-0.275
		c-0.066-0.073-0.289-0.083-0.369-0.141c-0.045-0.032-0.125-0.117-0.141-0.169c-0.03-0.104,0.037-0.321,0.053-0.428
		c0.021-0.137,0.086-0.406,0.1-0.544c0.015-0.151-0.085-0.487,0.006-0.609c0.026-0.036,0.125-0.05,0.17-0.053
		c0.092-0.005,0.271,0.068,0.363,0.07c0.139,0.003,0.412-0.069,0.55-0.082c0.095-0.008,0.296,0.032,0.381-0.012
		c0.065-0.034,0.159-0.163,0.175-0.234c0.026-0.113-0.077-0.341-0.088-0.457c-0.01-0.112-0.006-0.338,0-0.451
		c0.004-0.063-0.018-0.209,0.03-0.251c0.109-0.1,0.477,0.083,0.591-0.012c0.038-0.032,0.009-0.156,0.041-0.193
		c0.066-0.078,0.283-0.117,0.381-0.146c0.075-0.022,0.233-0.037,0.304-0.07c0.065-0.03,0.161-0.147,0.229-0.169
		c0.061-0.021,0.198,0.025,0.258,0c0.083-0.035,0.207-0.18,0.251-0.258c0.021-0.037,0.013-0.138,0.047-0.164
		c0.042-0.032,0.168-0.031,0.211,0c0.037,0.027,0.023,0.146,0.059,0.176c0.025,0.022,0.103,0.011,0.134,0.023
		c0.064,0.026,0.159,0.153,0.229,0.158c0.093,0.006,0.245-0.142,0.334-0.17c0.053-0.017,0.179,0.006,0.222-0.029
		c0.025-0.021,0.021-0.098,0.041-0.123c0.04-0.049,0.185-0.075,0.217-0.128c0.045-0.074-0.021-0.268,0.018-0.346
		c0.019-0.038,0.086-0.11,0.129-0.111c0.075-0.002,0.165,0.176,0.24,0.182c0.123,0.01,0.344-0.154,0.438-0.234
		c0.075-0.064,0.2-0.225,0.24-0.316c0.021-0.046-0.011-0.178,0.035-0.199c0.085-0.039,0.229,0.19,0.322,0.188
		c0.14-0.004,0.351-0.234,0.468-0.31c0.097-0.062,0.31-0.162,0.387-0.246c0.045-0.05,0.118-0.173,0.123-0.24
		c0.006-0.085-0.132-0.239-0.111-0.322c0.028-0.116,0.255-0.25,0.346-0.328c0.045-0.039,0.166-0.091,0.188-0.146
		c0.021-0.059-0.056-0.184-0.047-0.246c0.003-0.027,0.041-0.073,0.047-0.1c0.013-0.064,0.025-0.206-0.007-0.263
		c-0.013-0.025-0.079-0.04-0.093-0.064c-0.022-0.039-0.039-0.141-0.012-0.176c0.038-0.05,0.193-0.081,0.245-0.047
		c0.056,0.036,0.013,0.211,0.059,0.257c0.023,0.023,0.099,0.042,0.129,0.03c0.085-0.033,0.159-0.221,0.205-0.299
		c0.053-0.089,0.11-0.3,0.188-0.369c0.108-0.097,0.402-0.172,0.544-0.205c0.07-0.017,0.221-0.057,0.287-0.029
		c0.045,0.018,0.079,0.128,0.123,0.146c0.036,0.014,0.118-0.001,0.152-0.018c0.073-0.034,0.155-0.205,0.234-0.223
		c0.062-0.014,0.178,0.066,0.24,0.076c0.073,0.012,0.226-0.01,0.298,0.006c0.091,0.02,0.249,0.131,0.34,0.146
		c0.117,0.02,0.357-0.013,0.475-0.035c0.054-0.01,0.155-0.066,0.211-0.064c0.085,0.002,0.236,0.123,0.321,0.117
		c0.057-0.004,0.162-0.063,0.199-0.105c0.058-0.066,0.073-0.256,0.123-0.328c0.063-0.091,0.26-0.21,0.334-0.293
		c0.055-0.062,0.205-0.194,0.188-0.275c-0.019-0.085-0.223-0.139-0.299-0.181c-0.086-0.048-0.3-0.097-0.352-0.182
		c-0.048-0.079,0.042-0.287,0-0.369c-0.02-0.039-0.11-0.069-0.141-0.1c-0.027-0.028-0.074-0.092-0.088-0.129
		c-0.041-0.116,0.01-0.379-0.041-0.492c-0.017-0.039-0.076-0.111-0.117-0.123c-0.031-0.01-0.096,0.029-0.128,0.029
		c-0.058,0-0.188-0.008-0.223-0.053c-0.025-0.032-0.019-0.127,0-0.164c0.033-0.066,0.196-0.115,0.24-0.175
		c0.038-0.054,0.045-0.197,0.081-0.252c0.059-0.086,0.254-0.187,0.316-0.27c0.04-0.053,0.091-0.177,0.111-0.24
		c0.026-0.08,0.065-0.244,0.07-0.328c0.007-0.125-0.068-0.374-0.053-0.498c0.014-0.108,0.068-0.339,0.152-0.41
		c0.09-0.076,0.362-0.026,0.463-0.088c0.049-0.03,0.109-0.133,0.141-0.182c0.049-0.075,0.146-0.229,0.169-0.316
		c0.025-0.095,0.006-0.294,0.012-0.392c0.007-0.107,0.044-0.32,0.041-0.428c-0.002-0.09-0.013-0.276-0.053-0.357
		c-0.02-0.04-0.128-0.085-0.123-0.129c0.008-0.059,0.145-0.106,0.199-0.129c0.082-0.033,0.258-0.076,0.346-0.07
		c0.068,0.004,0.205,0.045,0.258,0.088c0.058,0.047,0.113,0.193,0.152,0.258c0.028,0.048,0.064,0.171,0.116,0.193
		c0.144,0.062,0.462-0.085,0.609-0.134c0.131-0.044,0.389-0.152,0.504-0.229c0.094-0.062,0.262-0.217,0.333-0.304
		c0.081-0.099,0.247-0.312,0.264-0.439c0.006-0.042-0.008-0.146-0.046-0.164h-0.001c-0.066-0.029-0.188,0.153-0.258,0.134
		c-0.044-0.011-0.093-0.107-0.099-0.152c-0.011-0.07,0.042-0.211,0.081-0.27c0.047-0.069,0.234-0.131,0.258-0.211
		c0.022-0.075-0.039-0.242-0.094-0.298c-0.05-0.051-0.215-0.047-0.27-0.094c-0.049-0.042-0.12-0.164-0.122-0.229
		c-0.003-0.051,0.05-0.147,0.082-0.187c0.081-0.104,0.363-0.198,0.421-0.316c0.035-0.072,0.028-0.249-0.006-0.322
		c-0.013-0.028-0.08-0.054-0.094-0.082c-0.017-0.038-0.018-0.127,0-0.164c0.043-0.086,0.228-0.177,0.305-0.234
		c0.193-0.142,0.582-0.423,0.784-0.551c0.091-0.057,0.271-0.184,0.375-0.21c0.116-0.031,0.373,0.053,0.48,0
		c0.121-0.061,0.28-0.306,0.327-0.433c0.037-0.099-0.018-0.325,0.023-0.422c0.071-0.166,0.347-0.421,0.492-0.527
		c0.073-0.053,0.239-0.133,0.328-0.152c0.226-0.048,0.701,0.072,0.925,0.012c0.132-0.036,0.337-0.245,0.469-0.281
		c0.104-0.029,0.334-0.045,0.433,0c0.103,0.047,0.228,0.249,0.293,0.339c0.063,0.088,0.146,0.298,0.223,0.375
		c0.077,0.077,0.297,0.146,0.374,0.223c0.068,0.067,0.201,0.232,0.199,0.328c-0.001,0.059-0.111,0.142-0.129,0.199
		c-0.024,0.084-0.036,0.271,0,0.352c0.032,0.07,0.193,0.134,0.234,0.199c0.058,0.09,0.053,0.325,0.117,0.41
		c0.1,0.13,0.432,0.24,0.562,0.339c0.121,0.093,0.38,0.283,0.444,0.422c0.032,0.067-0.029,0.24,0.018,0.298
		c0.029,0.035,0.131,0.051,0.176,0.047c0.065-0.007,0.198-0.062,0.234-0.117c0.037-0.057-0.024-0.212,0.012-0.269
		c0.036-0.058,0.173-0.142,0.24-0.129c0.056,0.011,0.117,0.126,0.146,0.175c0.03,0.053,0.04,0.189,0.088,0.229
		c0.06,0.049,0.228,0.062,0.304,0.053c0.092-0.01,0.255-0.176,0.34-0.141c0.08,0.034,0.056,0.275,0.129,0.322
		c0.066,0.042,0.237-0.026,0.316-0.018c0.08,0.009,0.229,0.089,0.31,0.088c0.042-0.001,0.117-0.056,0.158-0.053
		c0.041,0.002,0.107,0.061,0.146,0.07c0.11,0.025,0.338,0.003,0.451,0c0.121-0.004,0.364-0.037,0.485-0.029
		c0.09,0.005,0.305-0.012,0.352,0.064c0.02,0.031-0.015,0.115-0.041,0.14c-0.036,0.035-0.167,0.01-0.193,0.053
		c-0.028,0.045,0.017,0.163,0.041,0.211c0.032,0.062,0.127,0.178,0.193,0.199c0.061,0.019,0.188-0.053,0.252-0.047
		c0.06,0.006,0.168,0.062,0.223,0.088c0.105,0.05,0.297,0.197,0.409,0.229c0.11,0.031,0.36,0.079,0.457,0.018
		c0.058-0.037,0.062-0.198,0.105-0.252c0.037-0.047,0.137-0.122,0.193-0.14c0.1-0.033,0.316,0.011,0.421,0
		c0.096-0.011,0.289-0.041,0.375-0.082c0.066-0.032,0.197-0.121,0.229-0.188c0.023-0.049-0.021-0.167,0-0.217
		c0.022-0.053,0.117-0.129,0.164-0.164c0.085-0.062,0.302-0.117,0.374-0.193c0.071-0.074,0.112-0.29,0.17-0.375
		c0.025-0.037,0.106-0.087,0.123-0.129c0.022-0.056-0.031-0.189,0-0.24c0.02-0.032,0.097-0.075,0.135-0.07
		c0.066,0.008,0.139,0.148,0.199,0.175c0.05,0.023,0.182-0.013,0.217,0.029c0.033,0.041,0.014,0.165-0.012,0.211
		c-0.022,0.041-0.128,0.071-0.152,0.111c-0.033,0.053-0.057,0.186-0.041,0.246c0.014,0.056,0.089,0.156,0.141,0.182
		c0.074,0.037,0.251,0.021,0.334,0.006c0.07-0.013,0.215-0.058,0.269-0.105c0.025-0.022,0.034-0.104,0.064-0.117
		c0.048-0.021,0.164,0.014,0.205,0.047c0.062,0.05,0.076,0.24,0.141,0.287c0.083,0.059,0.305,0.076,0.404,0.053
		c0.08-0.02,0.22-0.125,0.274-0.188c0.039-0.044,0.1-0.152,0.105-0.211c0.007-0.066-0.064-0.191-0.07-0.257
		c-0.007-0.085,0.052-0.256,0.035-0.34c-0.012-0.066-0.098-0.177-0.123-0.24c-0.029-0.075-0.115-0.232-0.093-0.311
		c0.016-0.057,0.122-0.133,0.175-0.158c0.045-0.021,0.155,0,0.193-0.029c0.044-0.033,0.045-0.166,0.088-0.199
		c0.051-0.039,0.196-0.005,0.252-0.035c0.029-0.016,0.058-0.086,0.088-0.1c0.063-0.027,0.231-0.042,0.275,0.012
		c0.025,0.033-0.009,0.128-0.029,0.164c-0.027,0.046-0.149,0.084-0.164,0.135c-0.011,0.033,0.014,0.112,0.041,0.134
		c0.041,0.033,0.159,0.007,0.211,0.018c0.076,0.015,0.232,0.052,0.298,0.094c0.064,0.041,0.137,0.189,0.205,0.223
		c0.086,0.042,0.285,0.029,0.381,0.029c0.141,0,0.431,0.009,0.562-0.041c0.15-0.058,0.367-0.317,0.51-0.393
		c0.07-0.037,0.225-0.106,0.305-0.099c0.076,0.007,0.193,0.134,0.269,0.146s0.263,0.014,0.299-0.053
		c0.033-0.06-0.063-0.197-0.105-0.251c-0.034-0.046-0.143-0.098-0.181-0.141c-0.068-0.074-0.194-0.241-0.217-0.34
		c-0.024-0.103-0.019-0.338,0.047-0.421c0.07-0.09,0.314-0.138,0.427-0.158c0.049-0.009,0.159-0.029,0.199,0
		c0.055,0.039,0.08,0.186,0.088,0.252c0.009,0.081-0.065,0.247-0.035,0.322c0.015,0.036,0.086,0.086,0.123,0.1
		c0.097,0.033,0.312,0.026,0.41-0.006c0.064-0.021,0.154-0.151,0.223-0.158c0.048-0.004,0.15,0.04,0.175,0.082
		c0.024,0.04-0.025,0.143-0.012,0.187c0.014,0.043,0.071,0.121,0.111,0.141c0.089,0.043,0.299,0.028,0.393,0
		c0.099-0.029,0.259-0.168,0.346-0.223c0.045-0.028,0.129-0.102,0.182-0.111c0.083-0.016,0.249,0.072,0.333,0.064
		c0.078-0.007,0.216-0.102,0.293-0.117c0.14-0.027,0.428,0.023,0.568,0c0.062-0.01,0.203-0.03,0.239-0.082
		c0.035-0.049,0.022-0.187-0.006-0.24c-0.014-0.027-0.09-0.041-0.1-0.07c-0.016-0.05,0.028-0.167,0.07-0.199
		c0.067-0.05,0.271,0.037,0.334-0.018c0.043-0.037-0.006-0.2,0.047-0.223c0.046-0.02,0.12,0.109,0.17,0.105
		c0.051-0.003,0.107-0.12,0.158-0.129c0.038-0.006,0.128,0.018,0.146,0.053c0.021,0.042-0.036,0.136-0.047,0.182
		c-0.01,0.039-0.055,0.122-0.035,0.158c0.019,0.036,0.112,0.066,0.152,0.059c0.044-0.008,0.114-0.082,0.134-0.123
		c0.023-0.048-0.021-0.175,0.019-0.211c0.021-0.02,0.091-0.014,0.116,0c0.056,0.03,0.082,0.188,0.141,0.211
		c0.138,0.052,0.447-0.069,0.569-0.152c0.065-0.045,0.125-0.208,0.189-0.255c0.092-0.067,0.325-0.102,0.43-0.145
		c0.099-0.041,0.326-0.098,0.382-0.188c0.028-0.045-0.035-0.172,0-0.211c0.04-0.044,0.194,0.019,0.237-0.022
		c0.02-0.018-0.003-0.088,0.018-0.105c0.04-0.034,0.16-0.015,0.211,0c0.062,0.019,0.156,0.127,0.22,0.141
		c0.06,0.012,0.196,0.002,0.241-0.04c0.046-0.042,0.026-0.19,0.062-0.242c0.02-0.028,0.076-0.077,0.11-0.079
		c0.031-0.002,0.078,0.057,0.109,0.062c0.053,0.008,0.177-0.002,0.211-0.044c0.021-0.026,0.016-0.103,0-0.132
		c-0.027-0.05-0.162-0.074-0.189-0.123c-0.017-0.032-0.022-0.116,0-0.145c0.024-0.03,0.113-0.045,0.149-0.035
		c0.054,0.015,0.107,0.133,0.158,0.154c0.064,0.026,0.213-0.022,0.276,0.004c0.042,0.018,0.085,0.115,0.128,0.127
		c0.038,0.011,0.133-0.002,0.153-0.035c0.036-0.057-0.01-0.215-0.057-0.264c-0.024-0.024-0.111-0.004-0.132-0.031
		c-0.033-0.041-0.024-0.164,0-0.21c0.02-0.038,0.104-0.076,0.141-0.097c0.054-0.03,0.177-0.062,0.224-0.101
		c0.045-0.038,0.074-0.183,0.132-0.193c0.06-0.011,0.138,0.13,0.197,0.141c0.135,0.024,0.401-0.087,0.527-0.141
		c0.051-0.021,0.137-0.095,0.188-0.114c0.071-0.027,0.228-0.079,0.299-0.053c0.062,0.022,0.142,0.143,0.171,0.202
		c0.033,0.067,0.003,0.245,0.062,0.29c0.042,0.032,0.166,0.019,0.211-0.009c0.066-0.042,0.13-0.201,0.149-0.277
		c0.022-0.088-0.021-0.276,0-0.364c0.016-0.062,0.064-0.193,0.118-0.229C90,4.293,90.129,4.34,90.177,4.31
		c0.043-0.027,0.058-0.146,0.097-0.18c0.056-0.048,0.203-0.09,0.276-0.101c0.099-0.015,0.307,0.054,0.399,0.018
		c0.042-0.017,0.108-0.086,0.127-0.127c0.028-0.062-0.015-0.212,0.018-0.272c0.045-0.08,0.246-0.14,0.299-0.215
		c0.023-0.034,0.012-0.132,0.044-0.158c0.046-0.037,0.187,0.021,0.233-0.013c0.041-0.031,0.074-0.142,0.069-0.193
		c-0.004-0.052-0.1-0.128-0.104-0.18c-0.007-0.061,0.034-0.187,0.074-0.233c0.033-0.039,0.152-0.052,0.185-0.092
		c0.045-0.057,0.021-0.228,0.07-0.281c0.031-0.035,0.14-0.031,0.176-0.062c0.06-0.052,0.081-0.24,0.148-0.281
		c0.071-0.042,0.251-0.023,0.33,0c0.067,0.02,0.192,0.095,0.236,0.149c0.037,0.044,0.047,0.171,0.084,0.215
		c0.058,0.068,0.221,0.16,0.308,0.184c0.051,0.014,0.162,0.02,0.211,0s0.114-0.113,0.153-0.149c0.034-0.032,0.097-0.107,0.141-0.123
		c0.07-0.027,0.23,0.023,0.303,0c0.049-0.016,0.119-0.103,0.167-0.123c0.05-0.021,0.174,0,0.215-0.035
		c0.023-0.02,0.042-0.087,0.04-0.119c-0.004-0.047-0.079-0.121-0.088-0.167c-0.013-0.065-0.023-0.22,0.026-0.264
		c0.033-0.029,0.135-0.012,0.176,0.004c0.056,0.022,0.138,0.115,0.18,0.158c0.038,0.039,0.093,0.141,0.141,0.167
		c0.069,0.037,0.233,0.028,0.312,0.035c0.044,0.004,0.142-0.014,0.176,0.013c0.043,0.035,0.05,0.158,0.065,0.211
		c0.011,0.035,0.009,0.121,0.04,0.141c0.041,0.026,0.146-0.019,0.193-0.035c0.039-0.014,0.109-0.057,0.146-0.076
		c0.048-0.025,0.136-0.091,0.188-0.1c0.072-0.011,0.215,0.046,0.287,0.053c0.051,0.004,0.153,0,0.205,0c0.071,0,0.215,0,0.287,0
		c0.053,0,0.159-0.011,0.211,0c0.031,0.007,0.106,0.022,0.116,0.053c0.01,0.029-0.036,0.085-0.058,0.105
		c-0.038,0.035-0.162,0.042-0.188,0.088c-0.014,0.024-0.004,0.087,0.012,0.111c0.021,0.032,0.097,0.069,0.135,0.076
		c0.046,0.009,0.143-0.012,0.187-0.029c0.053-0.02,0.145-0.087,0.188-0.123c0.026-0.021,0.063-0.082,0.094-0.094
		c0.071-0.028,0.229-0.001,0.305,0.012c0.053,0.009,0.154,0.047,0.205,0.064c0.046,0.015,0.133,0.062,0.182,0.064
		c0.062,0.003,0.183-0.036,0.239-0.059c0.046-0.018,0.125-0.08,0.17-0.099c0.054-0.024,0.165-0.062,0.223-0.07
		c0.046-0.007,0.142-0.008,0.188,0c0.052,0.009,0.152,0.046,0.199,0.07c0.056,0.029,0.154,0.108,0.205,0.146
		c0.031,0.024,0.103,0.066,0.123,0.1c0.021,0.035,0.008,0.124,0.029,0.158C99.586,2.676,99.654,2.691,99.66,2.718z M27.548,63.944
		c0.097,0.044,0.304,0.14,0.409,0.119c0.064-0.013,0.163-0.113,0.206-0.163c0.04-0.044,0.088-0.154,0.123-0.201
		c0.067-0.093,0.209-0.276,0.299-0.348c0.149-0.118,0.495-0.293,0.676-0.351c0.098-0.032,0.305-0.054,0.408-0.058
		c0.111-0.004,0.338-0.008,0.443,0.026c0.061,0.021,0.169,0.096,0.215,0.141c0.103,0.103,0.266,0.349,0.32,0.483
		c0.065,0.159,0.135,0.504,0.132,0.676c-0.001,0.119-0.058,0.356-0.105,0.466c-0.04,0.091-0.155,0.257-0.224,0.329
		c-0.054,0.058-0.18,0.156-0.25,0.193c-0.048,0.025-0.16,0.038-0.207,0.065c-0.031,0.019-0.095,0.066-0.105,0.102
		c-0.015,0.05,0.03,0.154,0.052,0.201c0.032,0.067,0.111,0.203,0.176,0.237c0.069,0.037,0.234,0.014,0.312,0.018
		c0.153,0.009,0.465,0,0.615,0.035c0.07,0.017,0.193,0.098,0.263,0.114c0.093,0.022,0.287,0.033,0.382,0.026
		c0.088-0.006,0.26-0.055,0.347-0.074c0.086-0.02,0.255-0.072,0.343-0.084c0.114-0.015,0.35,0.023,0.461-0.009
		c0.1-0.028,0.255-0.187,0.355-0.215c0.113-0.031,0.353,0.002,0.47,0c0.126-0.002,0.381,0.012,0.505-0.014
		c0.146-0.029,0.458-0.106,0.558-0.219c0.068-0.078,0.083-0.302,0.101-0.404c0.038-0.214,0.054-0.651,0.092-0.865
		c0.027-0.149,0.131-0.438,0.149-0.588c0.016-0.126,0.011-0.38,0-0.505c-0.007-0.082-0.086-0.246-0.057-0.322
		c0.014-0.035,0.103-0.057,0.117-0.091c0.011-0.026,0.006-0.093-0.015-0.111c-0.019-0.017-0.081,0.014-0.103,0
		c-0.024-0.016-0.045-0.077-0.047-0.105c-0.002-0.027,0.028-0.078,0.029-0.105c0.002-0.041-0.003-0.129-0.029-0.161
		c-0.029-0.035-0.132-0.041-0.172-0.064c-0.035-0.02-0.09-0.081-0.126-0.099c-0.043-0.022-0.143-0.033-0.188-0.053
		c-0.028-0.014-0.073-0.06-0.103-0.068c-0.041-0.012-0.131-0.018-0.169,0c-0.047,0.021-0.104,0.115-0.135,0.155
		c-0.052,0.066-0.13,0.22-0.193,0.274c-0.076,0.065-0.284,0.114-0.36,0.18c-0.087,0.074-0.196,0.281-0.264,0.373
		c-0.083,0.113-0.258,0.331-0.342,0.443c-0.024,0.032-0.053,0.123-0.092,0.128c-0.041,0.005-0.106-0.069-0.123-0.105
		c-0.043-0.094,0.011-0.311,0-0.413c-0.026-0.238-0.127-0.709-0.207-0.936c-0.062-0.18-0.262-0.508-0.333-0.685
		c-0.055-0.135-0.099-0.433-0.18-0.554c-0.068-0.101-0.266-0.258-0.373-0.315c-0.076-0.041-0.248-0.069-0.33-0.097
		c-0.043-0.015-0.137-0.035-0.171-0.066c-0.037-0.032-0.084-0.123-0.092-0.171c-0.006-0.037,0.012-0.114,0.026-0.149
		c0.027-0.066,0.143-0.168,0.162-0.237c0.023-0.081-0.002-0.255-0.018-0.338c-0.013-0.071-0.067-0.207-0.087-0.276
		c-0.029-0.098-0.07-0.298-0.11-0.391s-0.119-0.297-0.207-0.348c-0.041-0.022-0.142,0.004-0.189,0
		c-0.089-0.006-0.266-0.053-0.355-0.053c-0.076,0.001-0.233,0.011-0.298,0.049c-0.049,0.028-0.11,0.128-0.141,0.176
		c-0.044,0.068-0.108,0.22-0.149,0.29c-0.03,0.051-0.079,0.171-0.132,0.197c-0.02,0.01-0.047,0.016-0.078,0.018
		c-0.094,0.007-0.221-0.018-0.287-0.04c-0.047-0.016-0.119-0.095-0.167-0.109c-0.06-0.018-0.189-0.016-0.25,0
		c-0.096,0.025-0.257,0.151-0.347,0.193c-0.109,0.051-0.335,0.143-0.452,0.171c-0.088,0.022-0.275,0.012-0.36,0.044
		c-0.103,0.04-0.262,0.204-0.36,0.255c-0.049,0.025-0.16,0.046-0.207,0.074c-0.075,0.047-0.197,0.176-0.254,0.242
		c-0.04,0.045-0.118,0.138-0.141,0.193c-0.019,0.044-0.027,0.141-0.031,0.188c-0.003,0.036,0.011,0.11,0,0.145
		c-0.017,0.058-0.096,0.15-0.132,0.198c-0.061,0.078-0.172,0.259-0.263,0.298c-0.08,0.034-0.26-0.018-0.347-0.013
		c-0.073,0.004-0.217,0.038-0.29,0.044c-0.057,0.004-0.174,0.017-0.229,0c-0.109-0.033-0.282-0.194-0.382-0.25
		c-0.059-0.033-0.178-0.095-0.242-0.114c-0.065-0.021-0.205-0.02-0.268-0.044c-0.043-0.017-0.132-0.061-0.154-0.102
		c-0.011-0.021-0.012-0.072,0-0.092c0.016-0.026,0.094-0.03,0.11-0.058c0.022-0.036,0.026-0.137,0-0.171
		c-0.032-0.042-0.149-0.055-0.202-0.057c-0.067-0.003-0.207,0.017-0.264,0.053c-0.064,0.04-0.153,0.174-0.18,0.245
		c-0.021,0.054-0.029,0.172-0.022,0.229c0.006,0.058,0.059,0.164,0.075,0.22c0.024,0.089,0.083,0.269,0.074,0.36
		c-0.009,0.099-0.13,0.271-0.149,0.368c-0.01,0.05-0.025,0.158,0,0.202c0.024,0.043,0.127,0.078,0.171,0.102
		c0.039,0.02,0.13,0.041,0.158,0.074c0.065,0.075,0.086,0.284,0.119,0.378c0.03,0.086,0.052,0.297,0.132,0.342
		c0.069,0.039,0.232-0.056,0.312-0.057c0.093-0.001,0.281,0.026,0.369,0.057c0.13,0.045,0.333,0.189,0.494,0.283
		c0.046,0.026,0.089,0.049,0.125,0.064c0.136,0.056,0.429,0.102,0.566,0.153c0.091,0.034,0.266,0.124,0.351,0.171
		c0.157,0.088,0.455,0.286,0.606,0.383C27.229,63.74,27.433,63.893,27.548,63.944z M64.52,89.083
		c-0.048-0.039-0.19,0.019-0.245,0.049c-0.03,0.016-0.06,0.091-0.093,0.097c-0.04,0.008-0.12-0.041-0.149-0.07
		c-0.042-0.043-0.091-0.16-0.101-0.22c-0.009-0.049,0.015-0.148,0.018-0.197c0.005-0.102,0.004-0.304,0.004-0.404
		c0-0.11,0.005-0.333-0.004-0.443c-0.009-0.105-0.081-0.313-0.062-0.417c0.006-0.031,0.054-0.08,0.062-0.11
		c0.01-0.038,0.023-0.126,0-0.158c-0.01-0.013-0.051-0.006-0.062-0.018c-0.018-0.018-0.036-0.073-0.026-0.096
		c0.015-0.036,0.109-0.047,0.136-0.075c0.025-0.027,0.055-0.1,0.062-0.136c0.006-0.027,0.013-0.089-0.004-0.11
		c-0.022-0.027-0.106-0.02-0.137-0.039c-0.041-0.027-0.106-0.108-0.127-0.154c-0.049-0.11-0.051-0.358-0.07-0.479
		c-0.017-0.1-0.025-0.308-0.07-0.399c-0.033-0.069-0.144-0.184-0.206-0.229c-0.06-0.042-0.199-0.091-0.269-0.114
		c-0.064-0.021-0.211-0.026-0.268-0.065c-0.047-0.032-0.092-0.147-0.132-0.188c-0.043-0.045-0.141-0.126-0.197-0.149
		c-0.049-0.021-0.163-0.007-0.211-0.031c-0.04-0.02-0.12-0.083-0.127-0.127c-0.006-0.034,0.031-0.105,0.062-0.123
		c0.025-0.015,0.097,0.029,0.118,0.009c0.036-0.035,0.005-0.153-0.009-0.202c-0.016-0.059-0.069-0.173-0.114-0.215
		c-0.041-0.039-0.156-0.065-0.206-0.093c-0.069-0.036-0.205-0.114-0.264-0.166c-0.065-0.059-0.18-0.194-0.22-0.272
		c-0.047-0.094-0.09-0.301-0.105-0.404c-0.019-0.126-0.004-0.383-0.021-0.509c-0.011-0.074-0.06-0.217-0.07-0.29
		c-0.008-0.054,0.002-0.164-0.014-0.216c-0.018-0.06-0.069-0.186-0.123-0.219c-0.023-0.016-0.087-0.019-0.113-0.009
		c-0.039,0.013-0.104,0.073-0.123,0.109c-0.024,0.044-0.02,0.15-0.035,0.197c-0.014,0.041-0.035,0.139-0.075,0.154
		c-0.059,0.023-0.193-0.046-0.237-0.093c-0.045-0.047-0.066-0.183-0.083-0.245c-0.02-0.077-0.029-0.238-0.057-0.312
		c-0.033-0.089-0.145-0.247-0.193-0.329c-0.063-0.104-0.183-0.317-0.26-0.413c-0.151-0.188-0.535-0.492-0.693-0.676
		c-0.119-0.139-0.301-0.459-0.426-0.593c-0.122-0.13-0.408-0.344-0.549-0.452c-0.043-0.033-0.141-0.086-0.176-0.128
		c-0.041-0.048-0.09-0.168-0.109-0.228c-0.016-0.047-0.023-0.146-0.035-0.193c-0.021-0.083-0.054-0.258-0.105-0.325
		c-0.042-0.054-0.183-0.095-0.229-0.145c-0.056-0.061-0.12-0.215-0.154-0.29c-0.022-0.053-0.042-0.171-0.078-0.215
		c-0.04-0.049-0.155-0.113-0.216-0.132c-0.049-0.016-0.159-0.034-0.206-0.014c-0.025,0.012-0.042,0.086-0.07,0.088
		c-0.03,0.002-0.069-0.04-0.097-0.078c-0.012-0.016-0.021-0.029-0.026-0.04c-0.033-0.061-0.035-0.206-0.057-0.272
		c-0.032-0.1-0.118-0.292-0.172-0.382c-0.03-0.052-0.102-0.15-0.145-0.193c-0.053-0.052-0.186-0.123-0.237-0.176
		c-0.026-0.026-0.076-0.083-0.088-0.118c-0.017-0.049,0.012-0.157-0.004-0.207c-0.033-0.102-0.166-0.276-0.242-0.351
		c-0.025-0.025-0.084-0.07-0.118-0.079c-0.031-0.009-0.104-0.014-0.127,0.009c-0.019,0.017,0.008,0.085-0.014,0.097
		c-0.039,0.02-0.122-0.054-0.153-0.084c-0.033-0.031-0.085-0.112-0.093-0.158c-0.006-0.038,0.038-0.114,0.031-0.153
		c-0.009-0.048-0.068-0.131-0.102-0.167c-0.026-0.029-0.107-0.062-0.127-0.097c-0.04-0.07,0.001-0.248-0.035-0.32
		c-0.053-0.104-0.237-0.266-0.343-0.316c-0.057-0.027-0.188-0.053-0.25-0.039c-0.054,0.012-0.13,0.113-0.185,0.123
		c-0.064,0.011-0.204-0.021-0.255-0.062c-0.03-0.025-0.046-0.109-0.068-0.143c-0.035-0.051-0.114-0.152-0.17-0.182
		c-0.087-0.044-0.292-0.026-0.387-0.053c-0.072-0.02-0.216-0.07-0.274-0.116c-0.117-0.091-0.271-0.351-0.357-0.469
		c-0.125-0.169-0.362-0.516-0.486-0.685c-0.064-0.089-0.176-0.285-0.264-0.352c-0.09-0.069-0.322-0.114-0.421-0.17
		c-0.12-0.068-0.312-0.279-0.439-0.334c-0.153-0.066-0.494-0.098-0.661-0.111c-0.155-0.012-0.466,0.006-0.621,0.006
		c-0.051,0.001-0.164-0.03-0.205,0c-0.034,0.027-0.049,0.126-0.047,0.17c0.002,0.027,0.05,0.074,0.041,0.1
		c-0.014,0.04-0.104,0.077-0.146,0.082c-0.035,0.004-0.105-0.017-0.135-0.035c-0.039-0.024-0.085-0.108-0.117-0.141
		c-0.042-0.041-0.144-0.103-0.182-0.146c-0.051-0.058-0.106-0.207-0.158-0.263c-0.039-0.043-0.143-0.099-0.188-0.135
		c-0.097-0.079-0.293-0.24-0.369-0.34c-0.095-0.126-0.222-0.418-0.286-0.562c-0.063-0.141-0.143-0.441-0.223-0.573
		c-0.088-0.144-0.332-0.38-0.445-0.504c-0.109-0.12-0.34-0.35-0.445-0.474c-0.132-0.156-0.339-0.521-0.498-0.65
		c-0.104-0.086-0.354-0.207-0.486-0.24c-0.085-0.021-0.268-0.039-0.351-0.012c-0.054,0.018-0.125,0.115-0.176,0.141
		c-0.098,0.048-0.314,0.091-0.422,0.105c-0.071,0.01-0.217,0.022-0.287,0.006c-0.063-0.015-0.19-0.071-0.229-0.123
		c-0.018-0.024-0.042-0.094-0.023-0.117c0.025-0.03,0.132,0.029,0.158,0c0.024-0.027,0.006-0.118-0.018-0.146
		c-0.02-0.023-0.088-0.025-0.117-0.035c-0.052-0.018-0.152-0.061-0.207-0.08c-0.001-0.001-0.003-0.001-0.004-0.002
		c-0.076-0.026-0.236-0.062-0.31-0.094c-0.081-0.034-0.238-0.118-0.305-0.175c-0.062-0.054-0.174-0.182-0.205-0.258
		c-0.017-0.043,0.012-0.146-0.018-0.182c-0.015-0.018-0.065-0.023-0.088-0.023c-0.058,0.001-0.165,0.058-0.223,0.064
		c-0.094,0.011-0.289,0.003-0.38-0.023c-0.098-0.029-0.272-0.143-0.357-0.199c-0.074-0.049-0.219-0.153-0.281-0.217
		c-0.047-0.048-0.098-0.186-0.158-0.216c-0.031-0.017-0.109-0.016-0.14,0c-0.022,0.01-0.04,0.061-0.059,0.075
		c-0.008,0.007-0.021,0.015-0.034,0.022c-0.028,0.016-0.062,0.03-0.083,0.036c-0.065,0.019-0.21-0.009-0.27,0.023
		c-0.038,0.021-0.074,0.106-0.105,0.135c-0.058,0.053-0.193,0.136-0.264,0.17c-0.077,0.037-0.249,0.067-0.322,0.111
		c-0.055,0.033-0.127,0.152-0.187,0.176c-0.072,0.028-0.234,0.013-0.311,0c-0.068-0.012-0.194-0.081-0.263-0.088
		c-0.063-0.007-0.193,0.005-0.252,0.029c-0.06,0.024-0.164,0.107-0.205,0.158c-0.134,0.165-0.281,0.573-0.369,0.767
		c-0.145,0.318-0.433,0.956-0.556,1.282c-0.062,0.166-0.189,0.499-0.217,0.674c-0.021,0.139-0.027,0.424,0,0.562
		c0.022,0.112,0.101,0.336,0.176,0.422c0.043,0.05,0.163,0.146,0.229,0.135c0.028-0.005,0.048-0.078,0.076-0.088
		c0.061-0.021,0.193,0.021,0.252,0.047c0.068,0.028,0.191,0.115,0.24,0.17c0.056,0.062,0.144,0.211,0.164,0.293
		c0.011,0.045,0.013,0.144-0.006,0.187c-0.01,0.025-0.049,0.073-0.076,0.076c-0.035,0.005-0.1-0.043-0.123-0.07
		c-0.028-0.032-0.034-0.128-0.064-0.158c-0.016-0.015-0.062-0.02-0.082-0.029c-0.031-0.015-0.083-0.065-0.117-0.075
		c-0.045-0.014-0.14,0-0.188,0c-0.027,0-0.091-0.021-0.111,0c-0.043,0.043-0.008,0.185,0,0.245c0.009,0.066,0.036,0.201,0.07,0.258
		c0.029,0.048,0.129,0.108,0.164,0.152c0.099,0.123,0.249,0.402,0.316,0.545c0.04,0.083,0.089,0.262,0.129,0.345
		c0.039,0.081,0.158,0.224,0.181,0.311c0.016,0.06,0.016,0.187,0,0.246c-0.015,0.057-0.103,0.147-0.117,0.205
		c-0.016,0.068-0.021,0.219,0.012,0.28c0.018,0.034,0.109,0.058,0.123,0.094c0.038,0.104-0.063,0.322-0.093,0.428
		c-0.015,0.05-0.028,0.164-0.07,0.193c-0.057,0.039-0.215-0.033-0.275,0c-0.055,0.03-0.088,0.169-0.135,0.211
		c-0.045,0.041-0.178,0.063-0.216,0.111c-0.038,0.046-0.065,0.169-0.064,0.228c0.001,0.114,0.074,0.338,0.135,0.434
		c0.035,0.055,0.135,0.146,0.193,0.176c0.056,0.028,0.198,0.012,0.246,0.053c0.021,0.019,0.051,0.079,0.041,0.105
		c-0.014,0.034-0.115,0.032-0.135,0.064c-0.01,0.016-0.014,0.049-0.012,0.078c0.001,0.021,0.005,0.039,0.012,0.051
		c0.041,0.064,0.206,0.103,0.275,0.134c0.049,0.022,0.156,0.114,0.199,0.082c0.05-0.035-0.007-0.185-0.018-0.245
		c-0.009-0.056-0.066-0.161-0.059-0.217c0.006-0.043,0.051-0.126,0.088-0.146c0.023-0.013,0.08-0.005,0.105,0
		c0.044,0.008,0.14,0.025,0.17,0.059c0.042,0.047,0.055,0.183,0.058,0.246c0.008,0.133-0.072,0.396-0.058,0.528
		c0.015,0.153,0.145,0.44,0.188,0.588c0.092,0.311,0.231,0.942,0.338,1.247c0.037,0.107,0.124,0.318,0.18,0.417
		c0.109,0.191,0.385,0.536,0.518,0.712c0.076,0.101,0.257,0.285,0.312,0.399c0.069,0.144,0.116,0.463,0.145,0.619
		c0.018,0.096,0.035,0.291,0.053,0.387c0.018,0.095,0.071,0.282,0.092,0.377c0.017,0.077,0.049,0.23,0.062,0.308
		c0.019,0.116,0.005,0.36,0.057,0.466c0.022,0.044,0.113,0.099,0.141,0.141c0.086,0.128,0.163,0.435,0.237,0.57
		c0.083,0.152,0.296,0.431,0.399,0.571c0.125,0.17,0.363,0.524,0.518,0.667c0.044,0.041,0.159,0.09,0.202,0.132
		c0.04,0.039,0.087,0.146,0.127,0.185c0.052,0.05,0.19,0.107,0.246,0.153c0.08,0.066,0.212,0.227,0.281,0.303
		c0.072,0.081,0.203,0.256,0.285,0.325c0.082,0.068,0.284,0.15,0.365,0.22c0.066,0.056,0.159,0.206,0.224,0.264
		c0.107,0.095,0.341,0.274,0.479,0.316c0.039,0.012,0.126,0.018,0.162,0c0.04-0.021,0.068-0.12,0.105-0.146
		c0.034-0.022,0.118-0.041,0.158-0.039c0.087,0.004,0.258,0.063,0.329,0.114c0.046,0.032,0.096,0.142,0.141,0.175
		c0.043,0.033,0.146,0.069,0.198,0.084c0.067,0.019,0.208,0.025,0.276,0.039c0.054,0.012,0.164,0.03,0.211,0.058
		c0.101,0.059,0.254,0.243,0.33,0.333c0.066,0.081,0.145,0.295,0.237,0.343c0.058,0.03,0.199-0.025,0.259,0
		c0.041,0.018,0.092,0.097,0.123,0.128c0.062,0.059,0.185,0.175,0.251,0.228c0.041,0.034,0.126,0.103,0.175,0.123
		c0.045,0.019,0.142,0.037,0.189,0.035c0.033-0.001,0.095-0.04,0.127-0.035c0.07,0.011,0.181,0.114,0.241,0.149
		c0.089,0.052,0.271,0.146,0.36,0.193c0.07,0.037,0.204,0.129,0.281,0.145c0.138,0.029,0.422-0.054,0.562-0.039
		c0.126,0.014,0.359,0.123,0.483,0.141c0.154,0.021,0.469-0.027,0.624,0c0.078,0.014,0.229,0.071,0.298,0.109
		c0.058,0.032,0.145,0.142,0.207,0.163c0.062,0.021,0.197,0.007,0.263,0c0.08-0.009,0.232-0.069,0.312-0.07
		c0.061-0.002,0.184,0.022,0.241,0.044c0.138,0.051,0.388,0.21,0.505,0.298c0.143,0.107,0.357,0.419,0.522,0.488
		c0.078,0.032,0.254,0.015,0.338,0.013c0.082-0.002,0.247-0.048,0.325-0.026c0.096,0.026,0.234,0.188,0.325,0.229
		c0.062,0.028,0.196,0.058,0.264,0.065c0.075,0.009,0.235,0.031,0.303-0.004c0.007-0.004,0.014-0.01,0.02-0.018
		c0.028-0.036,0.051-0.107,0.081-0.128c0.044-0.028,0.17-0.002,0.207-0.039c0.026-0.028-0.004-0.129,0.026-0.153
		c0.029-0.025,0.119-0.019,0.153,0c0.035,0.019,0.056,0.107,0.088,0.131c0.042,0.032,0.153,0.04,0.202,0.062
		c0.046,0.021,0.135,0.071,0.171,0.105c0.055,0.053,0.106,0.211,0.171,0.251c0.089,0.053,0.308,0.065,0.409,0.048
		c0.053-0.009,0.142-0.08,0.192-0.097c0.027-0.009,0.084-0.021,0.111-0.016c0.042,0.007,0.111,0.066,0.152,0.076
		c0.058,0.013,0.176-0.009,0.234-0.006c0.07,0.002,0.215,0.004,0.281,0.029c0.043,0.016,0.122,0.069,0.152,0.105
		c0.031,0.038,0.043,0.15,0.082,0.181c0.035,0.028,0.136,0.055,0.177,0.035c0.017-0.008,0.018-0.056,0.033-0.064
		c0.03-0.016,0.106,0,0.135,0.018c0.021,0.014,0.032,0.069,0.053,0.082c0.049,0.031,0.171,0.036,0.229,0.035
		c0.086-0.001,0.254-0.051,0.34-0.059c0.098-0.008,0.298-0.025,0.392,0c0.04,0.011,0.124,0.045,0.141,0.082
		c0.025,0.056-0.056,0.18-0.047,0.24c0.009,0.052,0.056,0.154,0.1,0.182c0.077,0.048,0.273,0.032,0.363,0.018
		c0.113-0.019,0.32-0.128,0.428-0.17c0.053-0.021,0.154-0.086,0.21-0.082c0.032,0.003,0.089,0.042,0.112,0.064
		c0.062,0.059,0.125,0.223,0.181,0.287c0.071,0.081,0.229,0.244,0.331,0.275c0.091,0.027,0.286-0.018,0.378-0.041
		c0.105-0.027,0.301-0.132,0.403-0.17c0.123-0.046,0.369-0.144,0.498-0.164c0.076-0.013,0.232,0.005,0.311,0
		c0.094-0.007,0.289-0.012,0.374-0.053c0.08-0.038,0.189-0.185,0.258-0.24c0.074-0.061,0.241-0.157,0.311-0.223
		c0.028-0.026,0.062-0.11,0.1-0.123c0.066-0.021,0.2,0.062,0.27,0.07c0.043,0.006,0.153,0.038,0.176,0
		c0.017-0.028-0.04-0.095-0.064-0.116c-0.025-0.022-0.102-0.022-0.123-0.048c-0.019-0.021-0.026-0.081-0.023-0.109
		c0.005-0.053,0.061-0.148,0.088-0.194c0.036-0.062,0.144-0.162,0.169-0.229c0.015-0.037-0.007-0.127,0.018-0.158
		c0.02-0.024,0.114-0.01,0.117-0.041c0.006-0.045-0.131-0.06-0.152-0.1c-0.017-0.03-0.019-0.11,0-0.141
		c0.023-0.035,0.13-0.034,0.152-0.07C64.537,89.183,64.544,89.104,64.52,89.083z M98.326,3.16c-0.038,0.003-0.106,0.042-0.136,0.066
		c-0.033,0.025-0.077,0.097-0.105,0.127c-0.037,0.039-0.123,0.105-0.154,0.149c-0.017,0.023-0.032,0.081-0.048,0.105
		c-0.02,0.03-0.087,0.075-0.093,0.11c-0.004,0.035,0.022,0.125,0.058,0.127c0.047,0.003,0.072-0.121,0.101-0.158
		c0.04-0.052,0.126-0.151,0.176-0.193c0.044-0.036,0.149-0.083,0.193-0.119c0.045-0.036,0.172-0.111,0.158-0.167
		C98.466,3.17,98.365,3.157,98.326,3.16z M92.073,32.114c0.02-0.059,0.111-0.152,0.128-0.211c0.01-0.038,0.027-0.13,0-0.158
		c-0.022-0.022-0.097-0.008-0.128,0c-0.065,0.019-0.196,0.083-0.232,0.141c-0.028,0.045,0.001,0.163-0.022,0.211
		c-0.023,0.048-0.129,0.103-0.157,0.149c-0.029,0.045-0.059,0.149-0.066,0.202c-0.011,0.067,0.012,0.205,0,0.272
		c-0.007,0.043-0.05,0.123-0.057,0.167c-0.009,0.05,0.009,0.152,0,0.202c-0.013,0.069-0.085,0.194-0.097,0.264
		c-0.014,0.074-0.005,0.227,0,0.303c0.004,0.07,0.021,0.208,0.03,0.277c0.015,0.093,0.025,0.287,0.07,0.369
		c0.022,0.041,0.093,0.11,0.136,0.127c0.028,0.011,0.095,0.017,0.119,0c0.041-0.03,0.061-0.143,0.065-0.193
		c0.006-0.052-0.021-0.154-0.021-0.207c-0.001-0.096,0.019-0.287,0.035-0.382c0.026-0.154,0.134-0.451,0.153-0.606
		c0.017-0.131-0.007-0.396,0-0.527C92.035,32.414,92.041,32.209,92.073,32.114z M90.497,32.9c-0.009,0.034-0.024,0.116,0,0.141
		c0.031,0.031,0.14,0.025,0.176,0c0.044-0.031,0.043-0.157,0.072-0.202c0.018-0.027,0.07-0.069,0.095-0.092
		c0.037-0.035,0.132-0.09,0.153-0.136c0.021-0.048,0.03-0.167,0-0.211c-0.018-0.025-0.084-0.046-0.114-0.044
		c-0.046,0.004-0.12,0.066-0.158,0.092c-0.039,0.028-0.129,0.079-0.149,0.123c-0.021,0.045,0.014,0.153,0,0.202
		C90.562,32.809,90.507,32.864,90.497,32.9z M49.187,81.552c-0.023-0.057-0.113-0.144-0.146-0.193
		c-0.031-0.047-0.099-0.139-0.111-0.193c-0.011-0.047,0.022-0.146,0.012-0.193c-0.006-0.026-0.029-0.081-0.053-0.094
		c-0.029-0.016-0.11-0.012-0.135,0.012c-0.031,0.031,0.009,0.141-0.018,0.176c-0.026,0.036-0.119,0.075-0.164,0.07
		c-0.036-0.005-0.085-0.07-0.117-0.088c-0.046-0.025-0.146-0.068-0.198-0.076c-0.074-0.011-0.228-0.001-0.299,0.023
		c-0.038,0.013-0.095,0.084-0.135,0.088c-0.047,0.005-0.129-0.062-0.176-0.07c-0.039-0.007-0.119-0.006-0.158,0
		c-0.034,0.005-0.095,0.042-0.129,0.041c-0.045-0.001-0.139-0.031-0.17-0.064c-0.021-0.023-0.023-0.093-0.035-0.123
		c-0.038-0.094-0.158-0.261-0.187-0.357c-0.047-0.156-0.073-0.486-0.064-0.649c0.004-0.071,0.05-0.21,0.058-0.281
		c0.005-0.04,0.015-0.124,0.006-0.164c-0.008-0.033-0.038-0.1-0.064-0.123c-0.032-0.026-0.12-0.035-0.158-0.052
		c-0.032-0.015-0.094-0.051-0.123-0.07c-0.058-0.039-0.167-0.127-0.223-0.17c-0.037-0.029-0.105-0.094-0.146-0.117
		c-0.078-0.045-0.245-0.138-0.334-0.129c-0.048,0.005-0.116,0.098-0.164,0.105c-0.044,0.007-0.128-0.033-0.17-0.047
		c-0.056-0.019-0.159-0.084-0.217-0.088c-0.056-0.004-0.164,0.034-0.217,0.053c-0.041,0.015-0.117,0.06-0.158,0.076
		c-0.066,0.027-0.205,0.063-0.27,0.094c-0.109,0.05-0.318,0.171-0.416,0.24c-0.09,0.063-0.277,0.191-0.334,0.286
		c-0.042,0.071-0.046,0.243-0.07,0.322c-0.023,0.077-0.084,0.226-0.117,0.299c-0.037,0.082-0.131,0.237-0.164,0.322
		c-0.018,0.046-0.058,0.143-0.053,0.192c0.009,0.087,0.104,0.242,0.158,0.311c0.057,0.071,0.209,0.178,0.281,0.234
		c0.055,0.044,0.156,0.147,0.223,0.17c0.073,0.024,0.233,0.007,0.311,0c0.069-0.007,0.205-0.054,0.275-0.053
		c0.064,0,0.189,0.038,0.252,0.053c0.037,0.008,0.12,0.009,0.146,0.035c0.027,0.026,0.011,0.117,0.035,0.146
		c0.015,0.017,0.061,0.04,0.082,0.035c0.02-0.005,0.035-0.05,0.053-0.059c0.038-0.02,0.134,0.006,0.17-0.018
		c0.023-0.016,0.049-0.072,0.053-0.1c0.004-0.034-0.051-0.108-0.029-0.135c0.049-0.061,0.233,0.002,0.31,0
		c0.047-0.002,0.141-0.006,0.188-0.012c0.066-0.008,0.197-0.053,0.264-0.047c0.127,0.011,0.384,0.091,0.48,0.176
		c0.041,0.036,0.102,0.139,0.1,0.193c-0.003,0.068-0.139,0.165-0.146,0.233c-0.014,0.115,0.118,0.327,0.146,0.439
		c0.012,0.048,0.007,0.153,0.035,0.193c0.033,0.047,0.156,0.078,0.199,0.117c0.058,0.052,0.138,0.188,0.182,0.252
		c0.04,0.059,0.096,0.195,0.152,0.239c0.057,0.045,0.203,0.084,0.275,0.094c0.179,0.025,0.545,0.007,0.721-0.035
		c0.141-0.033,0.414-0.148,0.532-0.233c0.065-0.048,0.186-0.166,0.217-0.24c0.049-0.116,0.04-0.378,0.035-0.504
		C49.263,81.958,49.241,81.679,49.187,81.552z M41.816,75.416c-0.023-0.061-0.026-0.193-0.023-0.258
		c0.002-0.056,0.055-0.163,0.041-0.217c-0.013-0.05-0.095-0.125-0.135-0.158c-0.028-0.024-0.091-0.072-0.129-0.076
		c-0.027-0.003-0.093,0.011-0.105,0.035c-0.017,0.035,0.069,0.111,0.053,0.146c-0.016,0.034-0.103,0.051-0.14,0.053
		c-0.061,0.004-0.174-0.054-0.234-0.059c-0.064-0.005-0.193,0.026-0.258,0.023c-0.058-0.002-0.178-0.012-0.228-0.041
		c-0.036-0.021-0.07-0.106-0.105-0.129c-0.027-0.017-0.093-0.04-0.123-0.029c-0.023,0.009-0.038,0.067-0.059,0.082
		c-0.043,0.031-0.165,0.028-0.205,0.064c-0.023,0.021-0.044,0.086-0.047,0.117s0.025,0.092,0.023,0.123
		c-0.003,0.049-0.036,0.144-0.059,0.188c-0.03,0.056-0.137,0.139-0.158,0.199c-0.013,0.038-0.019,0.127,0,0.163
		c0.012,0.022,0.062,0.045,0.082,0.06c0.048,0.033,0.169,0.08,0.193,0.134c0.015,0.034-0.013,0.11-0.018,0.146
		c-0.004,0.037-0.033,0.113-0.018,0.146c0.013,0.029,0.074,0.069,0.105,0.07c0.055,0.003,0.14-0.092,0.193-0.105
		c0.119-0.031,0.369-0.005,0.492-0.006c0.091,0,0.273-0.014,0.363,0c0.044,0.007,0.125,0.047,0.17,0.053
		c0.063,0.009,0.201,0.025,0.257-0.006c0.074-0.04,0.158-0.202,0.188-0.281c0.021-0.058,0.045-0.186,0.029-0.246
		C41.946,75.551,41.838,75.473,41.816,75.416z M26.98,61.511c-0.049-0.034-0.155-0.093-0.214-0.103
		c-0.043-0.007-0.14-0.005-0.176,0.021c-0.033,0.022-0.069,0.104-0.07,0.144c-0.002,0.053,0.044,0.156,0.079,0.196
		c0.037,0.041,0.138,0.104,0.193,0.104c0.047,0.002,0.135-0.049,0.17-0.081c0.04-0.038,0.116-0.139,0.108-0.193
		C27.066,61.567,27.006,61.528,26.98,61.511z M6.915,48.646c0.116,0.035,0.362,0.04,0.483,0.04c0.128,0,0.385-0.035,0.514-0.04
		c0.113-0.004,0.339-0.009,0.452,0c0.025,0.002,0.078,0.029,0.101,0.018c0.041-0.02,0.061-0.121,0.088-0.158
		c0.032-0.045,0.106-0.128,0.149-0.163c0.039-0.031,0.126-0.08,0.171-0.101c0.08-0.037,0.249-0.091,0.334-0.114
		c0.092-0.025,0.294-0.025,0.373-0.079c0.028-0.019,0.086-0.082,0.075-0.114c-0.01-0.03-0.089-0.03-0.119-0.04
		c-0.05-0.018-0.155-0.045-0.202-0.07c-0.043-0.023-0.112-0.101-0.158-0.119c-0.051-0.019-0.162-0.009-0.215-0.018
		c-0.061-0.01-0.184-0.035-0.242-0.057c-0.03-0.012-0.083-0.054-0.114-0.062c-0.085-0.021-0.266-0.02-0.352,0
		c-0.062,0.015-0.169,0.09-0.228,0.114c-0.046,0.019-0.143,0.044-0.189,0.062c-0.101,0.037-0.303,0.112-0.395,0.167
		c-0.074,0.043-0.186,0.187-0.268,0.21c-0.096,0.028-0.311-0.046-0.399,0c-0.035,0.018-0.077,0.09-0.088,0.127
		c-0.021,0.065-0.035,0.214,0,0.272C6.72,48.579,6.853,48.628,6.915,48.646z"/>
</g>
<g id="Layer_1">
</g>
</svg>
