<?xml version="1.0" encoding="iso-8859-1"?>
<!-- Generator: Adobe Illustrator 16.0.3, SVG Export Plug-In . SVG Version: 6.00 Build 0)  -->
<!DOCTYPE svg PUBLIC "-//W3C//DTD SVG 1.1//EN" "http://www.w3.org/Graphics/SVG/1.1/DTD/svg11.dtd">
<svg version="1.1" xmlns="http://www.w3.org/2000/svg" xmlns:xlink="http://www.w3.org/1999/xlink" x="0px" y="0px" width="100px"
	 height="100px" viewBox="0 0 100 100" style="enable-background:new 0 0 100 100;" xml:space="preserve">
<g id="NL">
	<g>
		<g>
			<g>
				<path style="fill:#010101;" d="M60.883,7.78c-0.439,0.289-1.242,0.932-1.837,0.99c-0.592,0.054-1.213,0.451-1.606,0.621
					c-0.398,0.168-0.851,0.537-1.159,0.989c-0.312,0.453-1.073,1.13-1.779,1.722s-1.13,1.101-1.102,1.639
					c0.029,0.536-0.341,0.564-0.368,0.79c-0.026,0.227,0.114,0.875-0.255,1.414c-0.366,0.534-0.789,1.073-0.564,1.467
					c0.228,0.395,0.511,0.678,0.65,0.904c0.143,0.226,0.283,0.481,0.113,0.818c-0.17,0.34-0.057,0.764,0.029,0.849
					c0.083,0.083-0.086,0.31-0.199,0.564c-0.112,0.255-0.198,0.566,0.085,1.073c0.283,0.509,0.028,0.594-0.028,0.763
					s-0.255,0.509-0.028,0.818c0.225,0.312-0.141,0.706-0.31,0.904c-0.172,0.197-0.903,0.423-0.424,0.961
					c0.479,0.538,0.931,0.961,1.638,0.933c0.706-0.029,1.186-0.226,1.609,0.028c0.423,0.252,0.818,0.226,1.241,0.169
					c0.427-0.057,0.341-0.14,0.707-0.395c0.368-0.255,0.847-0.34,1.101-0.143c0.255,0.198,0.341,0.283,0.707,0.283
					c0.369,0,0.707,0.029,0.452,0.338c-0.255,0.312-0.51,0.085-0.79,0.143c-0.283,0.057-0.255,0.707-0.537,1.073
					c-0.283,0.366-0.875,0.764-0.875,1.299c0,0.538,0.057,1.47,0.057,2.062s0.283,1.722,0.48,1.919
					c0.197,0.2,0.396,0.849,0.959,1.076c0.565,0.226,1.864,0.28,2.994,0.197c1.131-0.085,2.769-0.594,3.191-0.932
					c0.424-0.341,0.339-0.678,0.508-0.735c0.171-0.057,0.396,0.198,0.706,0.369c0.312,0.169,0.537,0.507,0,0.65
					c-0.535,0.14-0.79,0.225-1.13,0.423c-0.338,0.197-0.48,0.338-0.904,0.338s-0.904,0.057-1.102,0.34
					c-0.196,0.283-0.279,0.395-0.649,0.452c-0.366,0.055-0.534,0.535-0.226,0.535c0.312,0,0.481-0.226,0.481,0.085
					c0,0.312,0.255,0.338,0.423,0.637c0.168,0.295,0.268,0.579,0.213,1.382c-0.057,0.805-0.144,1.935-0.271,2.091
					c-0.124,0.156-0.465,0.213-0.534,0.382c-0.071,0.168,0.028,0.691-0.312,0.862c-0.338,0.168-1.285,0.888-1.751,1.185
					c-0.464,0.296-1.384,0.875-1.919,1.244c-0.538,0.366-1.187,0.79-1.412,1.257c-0.227,0.465-0.439,0.859-0.665,1.356
					c-0.227,0.493-0.227,0.719-0.847,0.888c-0.621,0.169-0.934,0.086-1.3,0.395c-0.366,0.311-0.805,0.283-1.157,0.127
					c-0.354-0.156-0.806-0.608-1.159-0.608s-0.69-0.099-0.806-0.367c-0.111-0.267-0.352-0.563-0.633-0.734
					c-0.284-0.169-0.538-0.579-0.962-0.452c-0.423,0.127-0.917,0.423-1.241,0.381c-0.325-0.042-0.525-0.353-0.834-0.636
					c-0.311-0.281-0.932-0.535-1.496-0.535c-0.566,0-0.977-0.057-1.371-0.34c-0.395-0.281-0.535-0.38-1.073-0.634
					c-0.538-0.255-0.904-0.551-1.356-0.551c-0.451,0-0.365-0.198-0.833-0.722c-0.464-0.521-0.633-0.888-0.452-0.987
					c0.185-0.099,0.522,0.395,0.649,0.62c0.127,0.227,0.353,0.494,0.919,0.764c0.563,0.267,1.368,0.226,1.665,0.436
					c0.297,0.213,0.665,0.382,0.722-0.169c0.055-0.55,0.351-0.69,0.621-0.833c0.267-0.141,0.608-0.267,0.719-0.649
					c0.115-0.382-0.07-0.649-0.395-0.805c-0.324-0.156-0.169-0.182-0.226-0.395c-0.057-0.212-0.324-0.311-0.184-0.48
					c0.14-0.169,0.395,0.057,0.509-0.083c0.112-0.143-0.099-0.354,0.042-0.525c0.143-0.168,0.763-0.677,0.439-1.085
					c-0.325-0.411-0.58-0.468-0.58-0.805c0-0.34-0.085-0.382-0.34-0.707c-0.254-0.324-0.452-0.932-0.465-1.595
					c-0.016-0.665,0.169-1.301,0.255-1.412c0.083-0.115,0.28,0.083,0.28,0.184c0,0.099-0.054,0.408,0.201,0.268
					c0.254-0.144,0.325-0.439,0.564-0.423c0.241,0.013,0.636,0.309,0.818,0.521c0.185,0.211,0.595,0.141,1.104-0.14
					c0.506-0.283,1.114-0.693,1.339-0.948c0.227-0.253,0.156-0.423,0.296-0.818c0.143-0.395,0.227-0.381,0.439-0.493
					c0.211-0.114,0.354-0.299,0.325-0.481c-0.029-0.185-0.127-0.34-0.044-0.649c0.086-0.312,0.299-0.834-0.07-0.821
					c-0.366,0.016-0.608-0.127-0.974-0.296c-0.367-0.169-0.847-0.14-1.115,0.169c-0.27,0.312-0.48,0.41-0.763,0.127
					c-0.283-0.281-0.579-0.805-0.707-1.085c-0.127-0.284-0.083-0.621-0.028-1.229c0.057-0.608,0.028-1.244-0.268-1.852
					c-0.295-0.605-0.649-1.298-1.088-1.805c-0.436-0.509-0.662-0.537-0.846-0.566c-0.182-0.029-0.564-0.522-1.06-0.099
					c-0.494,0.424-0.494,0.847-0.663,0.946c-0.168,0.099-0.594,0.395-1.129,0.395c-0.539,0-1.242-0.309-1.512-0.733
					c-0.268-0.423-0.395-0.833-0.395-1.199c0-0.369,0.099-0.497-0.239-0.481c-0.34,0.013-0.509,0.28-0.878,0.21
					c-0.366-0.07-0.79,0.073-0.776,0.777c0.016,0.707,0.099,1.455-0.055,2.132c-0.156,0.678-0.312,1.597-0.636,2.26
					c-0.325,0.665-0.58,1.554-0.736,2.275c-0.156,0.719-0.21,1.707-0.366,2.894c-0.156,1.187-0.423,2.613-0.423,3.657
					c0,1.046-0.07,1.836-0.312,2.345c-0.239,0.509-0.551,1.341-0.296,1.2c0.254-0.14,0.566-0.296,0.566-0.156
					c0,0.143-0.057,0.396-0.41,0.509c-0.354,0.111-0.593,0.493-0.622,0.764c-0.029,0.267-0.27,1.27-0.467,1.848
					c-0.197,0.58-0.62,1.611-1.002,2.442c-0.382,0.834-0.481,1.019-0.917,1.907c-0.438,0.891-0.821,1.849-1.384,2.727
					c-0.563,0.875-1.541,1.92-2.174,2.61c-0.636,0.693-1.568,1.454-2.276,2.387c-0.706,0.933-1.2,1.499-1.298,1.709
					c-0.099,0.213-0.185,0.566-0.057,0.735c0.127,0.169,0.241,0.437,0.098,0.437c-0.14,0-0.423-0.352-0.633-0.28
					c-0.213,0.069-0.468,0.226-0.51,0.62c-0.042,0.396-0.085,0.777,0.296,0.735c0.382-0.044,0.904-0.143,0.904,0.099
					c0,0.239-0.013,0.353-0.465,0.353c-0.452,0-0.792-0.113-1.102,0.311c-0.311,0.423-0.821,0.817-0.522,1.171
					c0.297,0.353,0.551,0.821,0.733,1.173c0.184,0.354,0.226,0.523,0.028,0.749c-0.198,0.226-0.662,0.551-0.862,0.185
					c-0.198-0.369-0.407-0.878-0.847-0.878c-0.436,0-1.114,0.101-1.792,0.439c-0.678,0.34-1.117,0.664-1.216,1.072
					c-0.098,0.41-0.423,0.693-0.748,1.116c-0.324,0.424-1.27,0.987-1.948,1.271s-1.13,0.48-1.327,0.945
					c-0.198,0.468-0.185,0.989,0.226,1.188c0.407,0.197,0.875,0.141,1.212,0.041c0.341-0.099,1.146-0.268,1.61-0.21
					c0.465,0.058,1.044,0.156,1.244,0.649c0.198,0.493,0.211,1.06,0.55,1.242c0.338,0.184,0.58,0.043,0.947,0.212
					c0.366,0.169,0.579,0.354,0.833,0.312c0.252-0.044,0.621-0.298,0.86-0.282c0.241,0.013,0.353-0.227,0.579-0.227
					s0.636,0.042,0.792-0.227c0.153-0.268,0.479-0.677,0.325-0.862c-0.156-0.184-0.254-0.366,0.169-0.395
					c0.423-0.028,0.945,0.111,1.413,0.07c0.465-0.042,1.242-0.086,1.509,0.099c0.27,0.185,1.216,0.469,1.667,0.382
					c0.452-0.085,0.933-0.468,1.158-0.734c0.226-0.269,1.06-0.211,1.031,0c-0.028,0.212-0.354,0.693-0.877,0.974
					c-0.522,0.283-1.525,0.806-2.019,0.792c-0.493-0.016-0.592,0.07-0.862-0.041c-0.268-0.114-0.847-0.382-1.155-0.382
					c-0.312,0-0.509-0.016-0.792-0.227c-0.283-0.213-0.691-0.295-0.933-0.085c-0.239,0.213-0.083,0.394,0.168,0.595
					c0.255,0.197,0.439,0.423,0.595,0.55c0.156,0.125,0.65,0.013,0.848,0.111c0.196,0.1,0.395,0.325,0.521,0.65
					c0.127,0.324,0.496,0.707,0.764,0.944c0.268,0.242,0.452,0.723,0.283,1.104c-0.172,0.38-0.439,0.732-0.226,0.888
					c0.21,0.156,0.605,0.284,0.621,0.594c0.013,0.311,0.366,0.594,0.535,0.833c0.171,0.241,0.143,0.521-0.042,0.678
					c-0.185,0.156-0.579,0.198-0.707,0.198c-0.127,0-0.382,0.492-0.831,0.295c-0.454-0.197-0.707-0.337-1.158-0.226
					c-0.452,0.114-0.961,0.496-1.273,0.086c-0.309-0.41-0.592-0.649-0.847-0.917c-0.255-0.271-0.268-0.451-0.395-0.947
					c-0.127-0.495-0.197-0.594-0.608-0.707c-0.41-0.112-0.776-0.535-1.088-0.65c-0.309-0.111-0.452-0.041-0.663,0.115
					c-0.212,0.156-0.381-0.1-0.464-0.354c-0.085-0.254-0.369-0.185-0.497-0.057c-0.127,0.127-0.169,0.171-0.337,0.085
					c-0.168-0.085-0.312-0.184-0.48,0.014c-0.169,0.196-0.382,0.143-0.538,0.016c-0.156-0.128-0.338-0.242-0.536-0.087
					c-0.196,0.156-0.537,0.198-0.748,0.115c-0.213-0.086-0.75-0.044-0.948,0.07c-0.197,0.111-0.423,0.098-0.324,0.437
					c0.098,0.34,0.184,0.523-0.112,0.451c-0.296-0.07-0.748-0.563-1.216-1.213c-0.464-0.649-1.06-1.215-0.888-1.327
					c0.168-0.114,0.591-0.197,0.604-0.016c0.016,0.185,0.172,0.806,0.411,0.892c0.242,0.083,0.608,0.465,0.649,0.563
					s0.296,0.197,0.48,0.016c0.184-0.185,0.847-0.452,1.215-0.496c0.367-0.042,0.65,0.044,0.859,0.016
					c0.213-0.029,0.395-0.058,0.468,0.141c0.07,0.196,0.535,0.113,0.69,0.028c0.156-0.086,0.636-0.539,0.494-0.889
					c-0.14-0.354-0.551-0.849-0.875-0.891s-0.889-0.185-1.538,0.028c-0.649,0.21-1.13,0.21-1.639,0.127
					c-0.509-0.085-1.467-0.127-2.047-0.127c-0.579,0-1.285,0.086-1.626,0.354c-0.338,0.268-0.776,0.636-1.242,0.888
					c-0.467,0.254-1.314,0.748-1.314,0.961s0,0.608,0.452,0.945c0.452,0.341,1.019,0.792,1.229,1.117
					c0.213,0.325,0.537,0.917,0.693,1.016c0.156,0.099,0.14,0.395,0.408,0.381c0.27-0.013,0.636-0.253,0.903-0.196
					c0.271,0.057,0.452,0.238,0.904,0.013c0.452-0.226,1.075-0.579,1.229-0.679c0.156-0.098,0.452-0.124,0.213,0.172
					c-0.241,0.297-0.566,0.535-0.198,0.732c0.366,0.2,0.325,0.48,0.452,0.665s0.452,0.366,0.761,0.312
					c0.312-0.057,0.764,0.198,0.891,0.507c0.127,0.312,0.649,0.424,0.904,0.324c0.255-0.099,1.016-0.182,1.242-0.168
					c0.225,0.013,0.665-0.239,0.677-0.903c0.016-0.663,0.143-1.13,0.439-1.13c0.295,0,0.506-0.283,0.621-0.283
					s0.423-0.014,0.592,0.241c0.172,0.254,0.666,0.254,0.849,0.337c0.182,0.086,0.424,0.595,0.719,0.748
					c0.297,0.155,0.762,0.242,0.934,0.397c0.168,0.156,0.592,0.38,0.986,0.354c0.397-0.028,0.945-0.172,1.216-0.156
					c0.268,0.014,0.464,0.058,0.649-0.028s0.481-0.283,0.424,0.07s-0.013,0.566,0.254,0.706c0.268,0.141,0.847,0.283,1.298,0.255
					c0.453-0.028,0.608,0.028,0.719,0.354c0.115,0.324,1.032,0.226,1.174,0.169c0.141-0.058,0.605-0.621,0.296-1.144
					c-0.312-0.524-0.522-0.734-0.551-1.413c-0.028-0.678,0.07-0.974,0.481-1.088c0.408-0.111,2.019-0.607,2.314-0.633
					c0.296-0.029,0.395,0.196,0.296,0.719s-0.125,0.834,0.764,1.031c0.891,0.197,1.595,0.354,2.005-0.255
					c0.411-0.607,1.355-1.54,1.893-1.865c0.535-0.324,1.212-0.748,1.735-0.365c0.522,0.381,0.763,0.479,0.636,1.044
					c-0.127,0.565-0.028,1.623-0.735,1.512c-0.704-0.112-1.073-0.494-1.031,0.085c0.044,0.579,0.226,0.579,0.849,0.579
					c0.621,0,1.623-0.172,2.187,0.055c0.566,0.227,0.948,0.666,1.54-0.395c0.593-1.06,0.834-1.595,1.257-2.104
					c0.423-0.509,0.436-0.269,0.621-0.057s0.649-0.029,0.847,0.495c0.197,0.521,0.271,1.452-0.013,1.961
					c-0.283,0.51-0.522,0.72,0.028,1.031c0.551,0.312,0.834,0.41,1.016,0.891c0.185,0.481-0.127,0.959,0.354,1.185
					c0.48,0.227,0.847-0.025,1.228,0.214c0.382,0.237,0.694,0.776,0.678,1.213c-0.012,0.438,0.168,0.566,0.708,0.551
					c0.537-0.014,1.285-0.1,1.553-0.339c0.268-0.238,0.846-0.185,1.34-0.042c0.496,0.141,1.088-0.196,1.428-0.438
					c0.339-0.238,0.563-0.903,1.356-0.069c0.79,0.833,0.903,1.582,0.958,1.878c0.058,0.296,0.637,0.693,0.875,0.693
					c0.242,0,0.538,0.325,0.752,0.239c0.209-0.086,0.309,0.438,0.604,0.592c0.296,0.156,1.188,0.156,1.639,0.058
					c0.452-0.1,0.862-0.256,1.003,0.238c0.141,0.496,0.296,0.649,0.678,0.579s0.79,0.241,0.734,0.595
					c-0.057,0.354-0.368,0.551-0.34,0.707c0.029,0.152,0.283,0.859,0.029,0.958c-0.255,0.098-0.494,0.113-0.494,0.468
					c0,0.353-0.016,0.648-0.282,0.748c-0.268,0.099-0.494,0.309-0.494,0.69s0.099,0.919,0,1.299
					c-0.099,0.383-0.41,1.075-0.665,1.286c-0.254,0.212-0.354,0.423-0.436,0.649c-0.086,0.226-0.144,0.594-0.185,0.764
					c-0.042,0.168-0.058,0.295-0.522,0.69c-0.468,0.397-0.99,0.919-1.061,1.047c-0.068,0.127-0.068,0.423-0.068,0.859
					c0,0.439,0.352,1.639,0.479,1.639c0.127,0,0.083-0.168,0.48-0.069c0.395,0.099,0.621,0.181,0.621,0.48
					c0,0.296,0.365,0.719,0.69,0.944c0.324,0.228,0.608,0.31,0.82,0.186c0.211-0.128,0.536,0.026,0.748,0.169
					c0.211,0.14,0.354-0.114,0.649-0.297c0.296-0.185,0.807-0.327,1.2-0.127c0.396,0.197,0.465,0.592,0.706,0.437
					c0.239-0.153,0.79-0.437,1.356-0.296c0.563,0.143,0.761,0.311,1.002,0.169c0.239-0.141,0.228-0.564-0.226-0.818
					c-0.451-0.255-0.933-0.579-0.636-0.764c0.295-0.182,0.933,0.327,1.018,0.113c0.083-0.212-0.185-0.903,0-1.27
					c0.183-0.369,0.975-1.075,0.959-1.327c-0.014-0.255-0.07-0.948,0.085-1.342c0.156-0.396-0.155-0.439-0.354-0.539
					c-0.196-0.099-0.619-0.437-0.619-0.831c0-0.396,0.111-1.019-0.269-0.947c-0.382,0.072-0.454,0.241-0.805,0.016
					c-0.354-0.228-0.651-0.37-0.977-0.17c-0.325,0.198-0.732,0.252-0.762,0.183c-0.027-0.07,0.169-0.679,0.084-0.904
					c-0.084-0.226-0.45-0.662-0.564-1.016c-0.111-0.353-0.226-0.452,0.185-0.579c0.407-0.127,0.592-0.255,0.703,0.086
					c0.115,0.337,0.596,0.691,0.779,0.337c0.183-0.353,0.408-1.27,0.847-1.722c0.438-0.451,1.385-1.355,2.019-1.598
					c0.637-0.238,1.455-0.579,1.188-0.916c-0.268-0.341-0.1-0.579,0.086-0.678c0.182-0.1,0.099-0.666-0.325-0.566
					c-0.426,0.101-0.903,0.48-1.244,0.467c-0.338-0.016-0.579-0.903-0.325-1.553c0.255-0.649,0.666-1.483,1.131-2.119
					c0.464-0.634,1.157-1.553,1.425-2.089c0.269-0.537,0.354-0.776,0.269-1.667c-0.083-0.889-0.028-1.837,0.028-2.598
					c0.058-0.764-0.111-1.977-0.691-2.6c-0.579-0.621-1.03-1.299-1.482-2.047c-0.451-0.748-0.493-1.143-0.354-1.54
					c0.14-0.395,0.111-0.58-0.111-0.679c-0.227-0.098-1.104-0.465-1.344-0.521c-0.238-0.057-0.168-0.521-0.196-0.847
					c-0.029-0.325,0.196-1.172-0.354-1.356c-0.551-0.184-1.496-0.295-1.355-0.706c0.14-0.41,0.592-0.451,0.62-0.69
					c0.029-0.242,0.058-0.876-0.337-1.172c-0.396-0.298-0.892-0.468-0.862-0.82c0.027-0.354,0.932-0.382,1.313-0.48
					s1.299-1.016,1.426-1.016c0.128,0,1.369,0.748,1.61,0.776c0.239,0.029,0.38,0.156,0.366-0.213
					c-0.013-0.366,0.086-0.704-0.296-1.017c-0.382-0.311-0.592-0.479-0.566-0.648c0.029-0.169,0.551-0.48,0.793-0.41
					c0.238,0.069,1.044,0.862,1.072,1.002c0.028,0.144,0.538,0.197,0.962,0.086c0.423-0.114,1.059-0.057,1.24,0.239
					c0.185,0.296,0.862,0.722,1.273,0.891c0.407,0.169,0.859,0.1,0.888-0.369c0.029-0.465,0.186-0.649,0.354-0.521
					c0.168,0.127,0.592,0.369,0.834,0.255c0.238-0.112,1.03-0.341,1.722-0.748c0.691-0.41,1.426-0.904,2.133-1.13
					c0.706-0.227,1.553-0.297,1.906-0.07s1.27-0.028,1.553-0.579c0.283-0.552,0.522-1.286,0.863-1.569
					c0.337-0.28,0.464-0.945,0.028-1.184c-0.439-0.242-1.031-0.551-1.627-0.904c-0.591-0.353-1.368-0.58-1.354-1.13
					c0.016-0.551,0.692-0.607,0.891-0.748c0.197-0.143,0.283-0.607,0.452-0.891c0.168-0.284,0.677-0.563,1.199-0.579
					c0.521-0.014,1.368-0.268,1.582-0.806c0.213-0.535,0.099-1.229,0.521-1.257c0.424-0.028,1.372-0.522,1.483-1.044
					c0.114-0.522,0.382-0.65,0.678-0.691c0.296-0.043,1.455-0.438,0.904-1.145c-0.551-0.707-0.678-1.538-0.438-2.019
					c0.24-0.481,0.55-1.06,0.764-1.61c0.213-0.551,0.069-1.369-0.283-1.582c-0.354-0.212-0.835-0.636-0.96-1.187
					c-0.127-0.551-0.269-1.143-0.664-0.903c-0.395,0.241-0.662,0.948-1.468,0.693c-0.805-0.255-1.651-0.453-2.202-0.497
					c-0.554-0.041-1.4-0.181-2.008-0.675c-0.605-0.496-0.592-0.425-0.634-0.961c-0.044-0.538-0.268-1.397-0.34-1.54
					c-0.071-0.141-0.029-0.338,0.424-0.325c0.45,0.016,1.187,0.07,1.074-0.522c-0.113-0.592-0.41-0.169-0.693-0.875
					c-0.282-0.706,0.016-1.216,0.169-1.568c0.156-0.354,0.369-0.182,0.707-0.268c0.339-0.086,1.101-0.07,1.384-0.042
					c0.283,0.028,0.537-0.057,0.862-0.227c0.325-0.171,0.748-0.085,0.933,0.227c0.182,0.309,0.903,0.197,1.185,0.127
					c0.282-0.073,0.948,0.083,1.174,0.112c0.223,0.029,0.535-0.013,0.662-0.564c0.128-0.55,0.185-2.033,0.155-3.023
					c-0.027-0.987-0.069-2.301,0.127-3.049c0.198-0.748,0.564-1.569,0.904-2.148c0.339-0.579,1.045-1.932,1.356-2.811
					c0.31-0.875,0.451-2.286,0.338-3.161c-0.111-0.878-0.593-1.878-0.761-2.628c-0.172-0.748-0.271-1.862-0.029-2.174
					c0.239-0.311,0.551-1.384,0.382-1.75c-0.172-0.366-0.397-0.55-0.764-0.55s-1.088-0.143-1.496-0.312
					c-0.41-0.168-0.805-0.521-0.735-1.031c0.07-0.506,0.51-0.917,0.268-0.974c-0.238-0.057-0.761,0.268-1.257,0.07
					c-0.493-0.197-1.369-0.309-1.862-0.621c-0.496-0.31-0.989-0.818-1.2-1.299C84.34,6,84.17,5.211,84.17,4.714
					c0-0.493-0.296-0.875-0.579-0.888c-0.283-0.016-0.509-0.168-0.537-0.368c-0.029-0.197-0.14-0.31-0.354-0.21
					c-0.21,0.099-0.424,0.226-0.691,0.085c-0.267-0.143-0.96-0.143-1.298-0.044c-0.341,0.099-2.529,0.974-3.418,1.257
					c-0.892,0.283-1.667,0.494-2.585,0.621c-0.916,0.127-1.639,0.452-2.018,0.607c-0.383,0.156-0.624,0.367-1.216,0.127
					s-0.72-0.283-1.016-0.058c-0.299,0.227-1.06,0.029-1.413,0.029c-0.353,0-1.101,0-1.569-0.099
					c-0.465-0.099-1.212,0.198-1.595,0.268c-0.381,0.073-1.072,0.269-1.82,0.396c-0.751,0.128-1.003,0.154-1.272,0.154
					c-0.268,0-0.579,0.354-0.916,0.58C61.532,7.398,61.127,7.621,60.883,7.78z"/>
				<path style="fill:#010101;" d="M60.191,3.925c-0.464,0.028-1.059-0.226-1.54-0.296c-0.48-0.069-1.13-0.114-1.327,0.309
					c-0.197,0.424-0.197,0.85,0.197,1.088c0.397,0.239,1.117,0.211,1.413,0.029c0.297-0.185,0.665-0.509,1.031-0.481
					c0.365,0.028,0.933,0.169,1.468,0.028c0.537-0.142,1.454-0.41,2.033-0.62c0.579-0.213,0.764-0.354,0.551-0.538
					c-0.211-0.184-1.581,0.169-2.16,0.254C61.277,3.782,60.61,3.896,60.191,3.925z"/>
				<path style="fill:#010101;" d="M66.108,3.261c-0.213,0.028-0.522,0.226-0.494,0.354c0.026,0.126,0.367,0.196,0.593,0.196
					s0.537-0.238,0.339-0.407C66.348,3.232,66.223,3.248,66.108,3.261z"/>
				<path style="fill:#010101;" d="M67.831,2.541c-0.103-0.049-0.383,0.155-0.48,0.34c-0.099,0.182-0.153,0.281-0.026,0.367
					c0.124,0.085,0.423-0.127,0.551-0.312C68.002,2.753,67.921,2.585,67.831,2.541z"/>
				<path style="fill:#010101;" d="M68.722,2.203c-0.021-0.12-0.128-0.029-0.271,0.042c-0.14,0.07-0.124,0.057-0.083,0.185
					c0.042,0.124,0.127,0.026,0.238-0.044C68.722,2.315,68.729,2.255,68.722,2.203z"/>
				<path style="fill:#010101;" d="M73.493,1.325c-0.151-0.037-0.339,0.143-0.339,0.354c0,0.212,0.042,0.283,0.17,0.283
					c0.127,0,0.354-0.057,0.382-0.283C73.734,1.453,73.594,1.351,73.493,1.325z"/>
				<path style="fill:#010101;" d="M74.935,1.115c-0.087-0.008-0.214,0.112-0.198,0.325c0.013,0.213,0.156,0.283,0.227,0.283
					c0.069,0,0.197-0.184,0.156-0.382C75.074,1.144,75.007,1.123,74.935,1.115z"/>
				<path style="fill:#010101;" d="M70.459,2.315c-0.405,0.07-1.33,0.213-1.639,0.283c-0.312,0.069-0.948,0.254-0.974,0.621
					c-0.029,0.367,0.054,0.665,0.507,0.522c0.451-0.14,1.157-0.509,1.539-0.509s0.793-0.013,1.061-0.169
					c0.267-0.156,0.974-0.551,1.256-0.551c0.281,0,0.536-0.127,0.438-0.395c-0.099-0.268-0.494-0.226-0.818-0.114
					c-0.325,0.114-0.693,0.242-0.92,0.242C70.683,2.245,70.571,2.297,70.459,2.315z"/>
				<path style="fill:#010101;" d="M75.95,0.252c-0.28,0.008-0.831,0.099-1.242,0.185c-0.41,0.085-0.734,0.41-0.537,0.537
					c0.197,0.125,0.354-0.028,0.607-0.044c0.254-0.013,0.678,0.114,0.92,0.226c0.238,0.114,0.817-0.013,0.875-0.28
					c0.055-0.27,0.013-0.411-0.156-0.524C76.249,0.239,76.069,0.25,75.95,0.252z"/>
				<path style="fill:#010101;" d="M53.429,5.026c-0.603,0.268-1.061,0.325-1.527,0.423c-0.465,0.099-0.704,0.127-1.143,0.297
					c-0.439,0.171-0.904,0.439-1.258,0.496c-0.353,0.054-0.862,0.069-1.27,0.407C47.82,6.99,47.34,7.257,47.327,7.738
					c-0.016,0.48,0.395,0.706,0.55,0.706s0.551-0.114,0.719-0.452c0.169-0.34,0.509-0.452,0.863-0.468
					c0.353-0.013,1.059-0.029,1.411-0.127c0.352-0.099,0.96-0.338,1.33-0.649c0.366-0.31,0.93-0.437,1.298-0.621
					c0.367-0.185,1.369-0.637,1.765-0.933c0.397-0.296,1.018-0.691,0.849-0.932c-0.172-0.239-0.678-0.055-1.146,0.099
					C54.501,4.517,53.811,4.855,53.429,5.026z"/>
				<path style="fill:#010101;" d="M49.615,10.858c-0.252-0.005-0.171,0.142-0.143,0.438s0.184,0.312,0.312,0.296
					c0.127-0.013,0.227-0.296,0.127-0.481C49.812,10.93,49.711,10.86,49.615,10.858z"/>
				<path style="fill:#010101;" d="M47.34,9.673c-0.18-0.102-0.367,0.112-0.465,0.337c-0.099,0.227-0.115,0.439,0.042,0.481
					c0.156,0.042,0.493-0.086,0.55-0.366C47.524,9.842,47.443,9.73,47.34,9.673z"/>
				<path style="fill:#010101;" d="M43.896,10.59c-0.426,0.464-0.821,0.974-1.215,1.342c-0.395,0.366-0.847,0.875-1.015,1.073
					c-0.172,0.197-0.057,0.465,0.452,0.283c0.506-0.184,0.958-0.525,1.241-0.878c0.284-0.351,0.493-0.663,0.493-0.917
					s0.51-0.48,0.821-0.62c0.309-0.143,1.212-0.595,1.439-0.65c0.226-0.057,0.411-0.423,0.156-0.522
					c-0.254-0.099-0.69-0.114-1.016,0.083c-0.325,0.197-0.595,0.295-0.891,0.438C44.064,10.364,43.994,10.481,43.896,10.59z"/>
				<path style="fill:#010101;" d="M40.633,14.785c-0.244,0.423-0.904,1.312-1.298,1.99c-0.397,0.678-1.003,1.428-1.203,2.078
					c-0.197,0.649-0.507,1.257-0.112,1.722c0.395,0.464,0.777,0.818,1.016,0.707c0.242-0.115,0.144-0.227,0.144-0.522
					c0-0.299,0.209-0.312,0.337-0.283s0.184,0.325,0.411,0.268c0.225-0.057-0.042-0.296,0.168-0.536
					c0.213-0.241,0.805-0.849,1.2-1.199c0.397-0.354,0.722-0.777,0.735-1.4c0.013-0.621,0.013-1.031,0.168-1.327
					c0.156-0.296,0.185-0.691,0-0.86c-0.182-0.171-0.353-0.566-0.353-0.805c0-0.241-0.379-0.48-0.564-0.509
					c-0.184-0.029-0.212,0.057-0.395,0.296C40.704,14.644,40.691,14.686,40.633,14.785z"/>
				<path style="fill:#010101;" d="M24.166,70.381c-0.407-0.034-0.591,0.114-0.945,0.239c-0.353,0.128-0.621,0.128-0.764,0.324
					c-0.141,0.2-0.297,0.468,0.016,0.608c0.309,0.143,0.55,0.34,0.69,0.509c0.143,0.168,0.283,0.396,0.51,0.452
					c0.225,0.057,0.197,0.353,0.366,0.493c0.171,0.143,0.509,0.341,0.849,0.341c0.338,0,1.002,0.168,1.328,0.28
					c0.325,0.114,0.748,0.353,1.031-0.268c0.28-0.621,0.493-1.2,0.14-1.497c-0.354-0.295-0.538-0.311-0.764-0.734
					c-0.225-0.423-0.152-0.649-0.776-0.521c-0.621,0.127-0.805,0.028-1.101-0.07C24.45,70.438,24.317,70.394,24.166,70.381z"/>
				<path style="fill:#010101;" d="M27.472,78.924c0.198,0.357,0.408,0.538,0.099,0.862c-0.311,0.324-1.158,1.438-1.654,1.964
					c-0.494,0.521-1.102,1.002-1.608,1.228c-0.509,0.227-0.693,0.297-1.146,0.268c-0.452-0.028-0.521-0.14-0.748,0.128
					c-0.227,0.267-0.974,0.706-1.172,0.817c-0.197,0.115-0.595,0.382-0.974,0.382c-0.381,0-0.566-0.409-0.891-0.423
					c-0.324-0.013-0.353,0.255-0.691,0.255c-0.34,0-0.678-0.185-0.933-0.369c-0.254-0.182-0.099-0.535-0.042-0.888
					c0.055-0.354-0.452-0.608-0.974-0.834c-0.524-0.227-0.722-0.325-1.203-0.481c-0.48-0.152-1.426-0.465-1.75-0.563
					c-0.325-0.099-0.523-0.143-0.749,0.211c-0.226,0.353-0.707,0.311-0.961,0.299c-0.254-0.016-0.381-0.044-0.395,0.379
					c-0.013,0.424,0.07,0.792-0.296,0.903c-0.366,0.115-0.438-0.083-0.72,0.185c-0.283,0.269-0.834-0.098-1.203-0.312
					c-0.366-0.21-0.904-0.818-0.917-1.382c-0.013-0.566,0.114-1.413-0.184-1.766c-0.296-0.354-0.536-0.975-0.338-0.961
					c0.197,0.016,0.366,0.085,0.423-0.169c0.057-0.255,0.34-0.284,0.621-0.366c0.283-0.086,1.13-0.099,1.582-0.296
					c0.452-0.2,1.003-0.51,1.413-0.354c0.411,0.153,1.439,0.494,1.99,0.69c0.554,0.197,1.13,0.325,1.315,0.396
					c0.184,0.069,0.268,0.184,0.394,0.312c0.127,0.127,0.539,0.238,0.694,0.452c0.156,0.21,0.098,0.338,0.254,0.479
					c0.153,0.141,0.197,0.169,0.029,0.367c-0.172,0.197-0.467,0.255-0.426,0.451c0.044,0.197,0.324,0.213,0.579-0.14
					c0.255-0.354,0.439-0.977,0.707-1.031c0.268-0.058,0.65-0.044,0.891,0.112c0.24,0.155,0.635,0.085,0.917,0.085
					c0.283,0,0.395-0.197,0.707-0.439c0.312-0.238,0.522-0.238,0.847-0.324c0.324-0.083,0.509-0.465,0.509-0.748
					c0-0.282,0.182-0.621,0.636-0.69c0.45-0.073,0.847,0.028,0.987,0.382c0.141,0.351,0.255,0.662,0.51,0.703
					c0.254,0.045,0.761,0.029,0.987,0.213c0.226,0.185,0.722,0.876,0.833,1.045c0.115,0.168,0.296,0.057,0.325-0.127
					c0.029-0.183,0.057-0.211,0.242-0.211c0.182,0,0.239,0.013,0.055-0.325c-0.182-0.34-0.127-0.396-0.013-0.438
					s0.367,0.156,0.522,0.07c0.155-0.083,0.467-0.268,0.636-0.227C27.359,78.742,27.428,78.846,27.472,78.924z"/>
				<path style="fill:#010101;" d="M59.478,35.14c-0.483-0.135-0.762-0.317-1.016-0.465c-0.254-0.148-0.551-0.233-0.805-0.021
					c-0.255,0.21-0.468,0.127-0.616,0.252c-0.147,0.127-0.402,0.55-0.486,0.763c-0.084,0.213-0.339,0.424-0.931,0.785
					c-0.594,0.359-1.208,0.53-1.271,0.74c-0.065,0.213-0.255,0.891-0.826,1.421c-0.574,0.53-1.504,1.312-2.078,1.842
					c-0.571,0.529-1.504,1.335-2.182,1.948c-0.678,0.615-1.164,1.06-1.143,1.293c0.021,0.234,0.275,0.953,0.464,0.847
					c0.192-0.106,0.743-0.296,1.229-0.148c0.488,0.148,0.912,0.381,1.335,0.636s1.462,1.164,1.843,1.229
					c0.383,0.062,0.909,0.062,1.461-0.085c0.551-0.148,0.785-0.276,0.806-0.805c0.021-0.53,0.254-1.291,0.594-1.738
					c0.338-0.444,0.909-0.698,1.271-0.527c0.361,0.169,0.698,0.062,0.933-0.234c0.233-0.296,0.806-0.847,1.418-1.207
					c0.616-0.361,1.146-0.489,1.548-0.551c0.402-0.065,0.762-0.509,1.291-1.376c0.53-0.87,0.678-1.865,0.593-2.625
					c-0.084-0.764-0.466-1.252-0.848-1.442c-0.382-0.189-0.55-0.213-1.396-0.36C59.817,35.161,59.766,35.22,59.478,35.14z"/>
			</g>
			<path style="fill:#010101;" d="M78.027,0.125c-0.254-0.104-0.573-0.209-0.573-0.021c0,0.193,0.085,0.424,0.34,0.51
				s0.656,0.042,0.678-0.189C78.492,0.19,78.027,0.125,78.027,0.125z"/>
		</g>
	</g>
</g>
<g id="Layer_1">
</g>
</svg>
