<?xml version="1.0" encoding="iso-8859-1"?>
<!-- Generator: Adobe Illustrator 16.0.3, SVG Export Plug-In . SVG Version: 6.00 Build 0)  -->
<!DOCTYPE svg PUBLIC "-//W3C//DTD SVG 1.1//EN" "http://www.w3.org/Graphics/SVG/1.1/DTD/svg11.dtd">
<svg version="1.1" xmlns="http://www.w3.org/2000/svg" xmlns:xlink="http://www.w3.org/1999/xlink" x="0px" y="0px" width="100px"
	 height="100px" viewBox="0 0 100 100" style="enable-background:new 0 0 100 100;" xml:space="preserve">
<g id="PL">
	<path d="M99.947,67.559c-0.062-0.175-0.382-0.198-0.46-0.413c-0.072-0.209-0.072-0.655-0.456-0.88
		c-0.388-0.225-0.311-0.459-0.584-0.708c-0.274-0.245,0.036-0.744,0.196-0.856c0.165-0.112,0.735-0.123,0.909-0.271
		c0.172-0.148,0.237-0.509-0.065-0.569c-0.297-0.062-0.706-0.039-1.067-0.412c-0.356-0.371-0.32-0.742-0.529-0.953
		c-0.215-0.212-0.498-0.36-0.561-0.685c-0.061-0.321-0.138-0.766-0.458-0.903c-0.324-0.137-0.31-0.374-0.41-0.658
		c-0.101-0.288-0.26-0.685-0.595-0.833c-0.337-0.149-0.696-0.321-0.784-0.656c-0.088-0.336-0.283-0.535-0.586-0.707
		c-0.294-0.175-0.432-0.596-0.345-0.82s0.188-0.571,0.215-0.917c0.021-0.347-0.042-0.684-0.202-0.883
		c-0.159-0.198-0.26-0.618-0.569-0.78c-0.311-0.162-0.174-0.522-0.484-0.747c-0.312-0.222-0.434-0.431-0.498-0.752
		c-0.06-0.326-0.434-0.486-0.245-0.995c0.186-0.507,0.149-0.797-0.065-1.042c-0.209-0.249-0.182-0.397,0.201-0.569
		c0.384-0.175,0.507-0.622,0.396-0.982c-0.113-0.36-0.201-0.646-0.073-0.943c0.125-0.3,0.061-0.583,0.01-0.883
		c-0.05-0.297,0.101-0.297,0.174-0.781c0.078-0.483,0.051-1.115-0.196-1.29c-0.251-0.172-0.512-0.358-0.845-0.41
		c-0.333-0.05-0.482-0.682-0.735-0.781c-0.245-0.1-0.543,0.01-0.752-0.1c-0.214-0.114-0.435-0.522-0.968-0.522
		c-0.535,0-0.771,0.112-1.032-0.097c-0.261-0.211-0.483-0.462-0.47-0.833c0.01-0.374,0.42-0.966,0.845-1.773
		c0.42-0.81,1.019-1.938,1.424-2.497c0.41-0.559,1.018-1.016,1.712-1.167c0.697-0.146,1.429-0.729,1.825-1.089
		c0.397-0.36,1.082-1.228,0.918-2.136c-0.16-0.903-0.621-2.16-0.846-3.311c-0.224-1.157-0.605-1.713-0.655-2.272
		c-0.051-0.559,0.013-0.745-0.457-1.313c-0.476-0.57-0.821-1.293-0.821-1.293c-0.796-1.638-1.639-3.126-2.132-4.863
		c-0.498-1.736-0.749-2.682-0.795-3.873c-0.051-1.191-0.396-1.836-0.598-2.528c-0.196-0.697-0.05-1.491-1.292-2.188
		c-1.237-0.692-2.182-1.684-2.825-1.684c-0.649,0-0.649,0.146-1.242-0.745c-0.598-0.893-1.834-0.546-2.382-0.148
		c-0.548,0.397-2.73,1.339-4.173,1.438c-1.438,0.099-2.282-0.052-3.568,0.345c-1.293,0.396-4.42,0.896-5.611,0.793
		c-1.19-0.097-3.724,0-4.914-0.196c-1.192-0.201-3.077-0.598-4.616-0.697c-1.537-0.097-3.724-0.494-4.268-0.444
		c-0.548,0.05-1.041-0.099-1.041,0.248c0,0.345-0.2,1.241-0.548,1.389c-0.347,0.149-0.794,0.149-1.242,0.596
		c-0.446,0.446-0.296,0.671-0.693,1.092c-0.396,0.423-0.519,0.496-0.519,0.496s0.347-0.692-0.101-0.843
		c-0.447-0.149-0.595-0.102-0.772,0.199c-0.172,0.297-0.493,0.149-0.666,0.076c-0.173-0.076-0.301-0.423-0.151-0.423
		c0.151,0,0.622,0.172,0.549-0.198c-0.079-0.371-0.354-0.497-0.354-0.497s0.975-0.297,1.517-0.47
		c0.549-0.175,0.721-0.274,1.214-0.598c0.498-0.321,0.722-0.595,0.972-0.817c0.247-0.225,0.444-0.572,0.444-0.572l-0.32-0.199
		c0,0-0.496,0.82-1.044,1.191c-0.545,0.374-1.337,0.697-2.703,0.894c-1.364,0.201-2.059,0.396-2.606,0.396s-0.918,0.05-1.219-0.049
		c-0.297-0.1-0.839-0.543-1.164-0.397c-0.324,0.151-0.771-0.371-0.895-0.619s0.201-0.423,0-0.718c-0.196-0.3-0.397-0.823-0.324-1.17
		c0.077-0.347-0.023-0.569-0.183-0.817c-0.163-0.248-0.301-0.47-0.301-0.608c0-0.133,0.027-0.199-0.184-0.149
		c-0.209,0.049-0.31,0.123-0.26-0.159c0.051-0.288,0.146-0.447-0.05-0.698c-0.2-0.248-0.497-0.408-0.521-0.572
		c-0.027-0.16-0.077-0.334,0.038-0.384c0.108-0.05,0.158-0.245,0.172-0.371c0.013-0.125,0.274-0.125,0.311-0.099
		c0.037,0.023,0.173,0.261,0.36,0.261c0.183,0,0.31,0.097,0.434,0.172c0.123,0.073,0.137,0.311,0.247,0.311
		c0.113,0,0.273,0.073,0.41,0.175c0.137,0.099,0.411,0.135,0.535,0.396c0.123,0.259,0.295,0.543,0.396,0.831
		c0.101,0.285,0.282,0.483,0.471,0.459c0.187-0.026,0.15-0.062,0.05-0.436C43.7,8.232,43.59,8.034,43.439,7.935
		c-0.151-0.1-0.397-0.483-0.721-0.721c-0.319-0.238-0.606-0.47-1.063-0.731c-0.461-0.261-0.809-0.311-1.009-0.41
		c-0.195-0.099-0.195-0.172-0.384-0.384c-0.188-0.211-0.283-0.373-0.766-0.324c-0.485,0.052-1.032,0.238-1.457,0.238
		c-0.42,0-0.839-0.115-1.237-0.026c-0.396,0.086-1.241,0.384-1.725,0.569c-0.483,0.188-0.809,0.337-1.451,0.486
		c-0.648,0.149-1.502,0.235-2.014,0.397c-0.506,0.159-1.771,0.705-2.295,0.966c-0.521,0.261-0.918,0.423-1.489,0.708
		c-0.57,0.288-1.452,0.88-1.936,1.032c-0.483,0.149-0.931,0.225-1.3,0.196c-0.375-0.023-0.758,0.152-0.982,0.303
		c-0.225,0.144-0.658,0.58-0.955,0.815c-0.3,0.238-0.437,0.658-0.72,0.982c-0.288,0.321-0.635,0.695-0.817,0.904
		c-0.187,0.212-0.324,0.339-0.165,0.339c0.165,0,0.448,0.047,0.324,0.172c-0.121,0.123-0.36,0.123-0.47,0.246
		c-0.114,0.125-0.324,0.397-0.274,0.188c0.051-0.211,0.146-0.559-0.086-0.434c-0.238,0.123-0.172,0.209-0.483,0.405
		c-0.311,0.204-0.424,0.3-0.274,0.376c0.15,0.073,0.448,0.021,0.361,0.149c-0.086,0.125-0.164,0.298-0.348,0.397
		c-0.187,0.097-0.483,0.136-0.657,0.113c-0.178-0.027-0.187-0.113-0.027-0.274c0.165-0.16,0.152-0.298-0.013-0.235
		c-0.161,0.06-0.667,0.311-1.265,0.559c-0.593,0.245-0.94,0.36-1.639,0.533c-0.693,0.175-1.018,0.198-1.996,0.483
		c-0.98,0.285-2.257,0.781-2.728,0.867c-0.476,0.088-0.476-0.01-1.343,0.297c-0.867,0.311-1.301,0.661-1.661,0.671
		c-0.361,0.013-0.374,0.162-0.635,0.162c-0.259,0-0.483-0.036-0.46,0.262c0.027,0.297,0.178,0.334-0.046,0.559
		s-0.474,0.36-0.561,0.643c-0.087,0.287-0.16,0.311-0.42,0.425c-0.262,0.11-0.434,0.319-0.498,0.497
		c-0.065,0.173-0.101,0.483-0.101,0.616c0,0.139-0.086,0.151-0.223,0.426c-0.133,0.271-0.097,0.42-0.037,0.593
		c0.062,0.172,0.114,0.376-0.262,0.611c-0.369,0.235-0.36,0.334-0.36,0.682c0,0.344,0.077,0.72,0.324,0.867
		c0.247,0.151,0.173,0.274,0.188,0.512c0.013,0.232-0.115,0.543-0.361,0.47c-0.246-0.073-0.087-0.324-0.297-0.556
		c-0.209-0.238-0.388-0.238-0.793-0.585c-0.412-0.348-0.794-0.771-0.909-0.896c-0.109-0.123-0.174-0.159-0.32-0.149
		c-0.149,0.013-0.25-0.073-0.238,0.149c0.014,0.209,0.029,0.407-0.044,0.457c-0.004,0.005-0.009,0.013-0.019,0.016
		c-0.095,0.026-0.31,0.086-0.31,0.086s0.287,0.754,0.325,1.144c0.037,0.384,0,0.904,0.048,1.165c0.051,0.261,0.325,0.87,0.398,1.154
		s0.246,0.729,0.224,1.029c-0.026,0.3-0.16,0.509-0.238,0.906c-0.072,0.397-0.022,0.47,0.137,0.548
		c0.16,0.073,0.325,0.209,0.325,0.209s0.008,0.397-0.224,0.856c-0.238,0.46-0.498,0.891-0.643,1.39
		c-0.151,0.499-0.311,1.115-0.462,1.488s-0.288,0.846-0.644,1.105c-0.36,0.258-0.785,0.41-0.921,0.619
		c-0.137,0.211-0.159,0.473-0.159,0.781c0,0.313-0.16,0.387-0.16,0.658c0,0.274,0.145,0.475,0.319,0.575
		c0.177,0.097,0.57,0.297,0.634,0.483c0.064,0.185,0.448,0.347,0.658,0.444c0.21,0.102,0.583,0.348,0.721,0.736
		c0.137,0.384,0.36,0.979,0.557,1.089c0.202,0.11,0.735,0.188,1.104,0.434c0.375,0.248,0.548,0.585,0.425,1.005
		c-0.128,0.426-0.274,0.522-0.274,0.823c0,0.295,0.096,0.58-0.186,0.814c-0.289,0.238-0.521,0.47-0.426,0.995
		c0.101,0.522,0.238,1.029,0.252,1.277c0.013,0.249-0.065,0.447,0.382,0.757c0.447,0.309,0.781,0.395,0.598,1.065
		c-0.187,0.671-0.483,0.969-0.165,1.342c0.325,0.371,0.301,0.41,0.498,0.559c0.201,0.149,0.346,0.246,0.346,0.246
		s-0.224,0.36-0.295,0.622c-0.073,0.261-0.375,0.833-0.36,1.356c0.013,0.52,0.049,0.866-0.188,1.075
		c-0.232,0.212-0.63,0.335-0.656,0.483c-0.022,0.151-0.397,0.36,0.026,0.76c0.42,0.397,0.572,0.596,0.572,0.93
		c0,0.335,0.11,0.471,0.274,0.643c0.159,0.175,0.52,0.599,0.52,0.883c0,0.287-0.137,0.608-0.434,0.771
		c-0.301,0.159-0.36,0.893-0.027,1.118c0.333,0.222,1.429,0.509,1.703,0.78c0.269,0.271,0.657,0.781,0.657,1.042
		s-0.114,0.93,0.06,1.167c0.172,0.235,0.556,0.683,0.693,1.026c0.137,0.348,0.027,0.724-0.073,1.105
		c-0.101,0.386-0.433,1.279-0.556,1.59c-0.124,0.312-0.412,0.856-0.412,1.181c0,0.321-0.247,0.718-0.47,0.955
		c-0.223,0.232-0.41,0.494-0.693,0.68c-0.289,0.188-0.439,0.562-0.412,0.846c0.014,0.186,0.082,0.267,0.128,0.303
		c0.022,0.021,0.045,0.031,0.045,0.031s0.238-0.125,0.547-0.125c0.307,0,0.832-0.06,0.942-0.295
		c0.113-0.237,0.035-0.896,0.149-1.193c0.111-0.295,0.298-0.708,0.758-0.671c0.458,0.039,1.028,0.114,1.315,0.125
		c0.281,0.011,0.607,0.271,0.446,0.697c-0.165,0.421-0.345,1.019,0.024,1.238c0.375,0.224,1.041,0.559,1.054,0.846
		c0.014,0.285,0.188,0.88,0.188,0.88s0.224-0.125,0.67-0.225c0.448-0.096,1.106-0.247,1.475-0.075
		c0.375,0.175,0.781,0.571,1.082,0.671c0.296,0.102,0.745,0.125,0.967,0.125c0.224,0,0.333,0.513,0.421,0.771
		c0.086,0.261,0.396,0.407,0.684,0.311c0.284-0.102,0.803-0.029,0.918,0.348c0.11,0.367,0.187,0.568,0.497,0.406
		c0.31-0.162,0.84-0.222,1.092-0.136c0.246,0.089,0.41,0.199,0.656,0.089c0.247-0.115,0.274-0.462,0.854-0.25
		c0.585,0.211,1.242,0.844,1.219,1.22c-0.027,0.368-0.435,0.443-0.512,0.692c-0.073,0.244-0.21,0.545-0.543,0.605
		c-0.337,0.065-0.981,0.251-1.044,0.473c-0.06,0.222-0.406,0.571-0.06,0.757c0.347,0.186,0.896,0.248,1.09,0.656
		c0.202,0.412,0.288,0.684,0.622,0.969c0.333,0.286,0.832,0.671,1.156,0.908c0.322,0.235,0.492,0.184,0.519,0.655
		c0.023,0.474,0.16,0.833,0.16,0.833s0.435,0.186,0.736,0.432c0.295,0.251,0.816,0.313,1.017,0.165
		c0.196-0.149,0.333-0.573,0.406-0.808c0.077-0.237,0.483-0.533,1.068-0.533c0.585,0,1.118-0.237,1.141-0.608
		c0.028-0.373-0.109-0.708-0.457-1.031c-0.346-0.321-0.583-0.556-0.707-1.104c-0.128-0.547-0.151-1.056,0.05-1.167
		c0.197-0.11,1.388,0.3,1.697,0.386c0.311,0.087,1.315,0.188,1.526,0.188c0.214,0,0.51,0.357,0.744,0.506
		c0.236,0.149,0.733-0.086,0.966,0.463c0.238,0.54,0.439,0.705,0.771,0.705c0.333,0,0.535,0.05,0.584,0.37
		c0.051,0.324,1.026,0.476,1.511,0.447c0.483-0.023,1.292-0.235,1.667-0.371c0.369-0.136,0.854-0.559,1.004-0.311
		s0.137,0.582,0.225,0.841c0.086,0.264,0.209,0.413-0.038,0.671c-0.251,0.262-0.831,0.522-1.117,0.598
		c-0.289,0.073-0.593,0.371-0.375,0.447c0.223,0.076,1.241,0.56,1.328,0.744c0.087,0.186,0.093,0.682,0.216,0.883
		c0.123,0.196,0.259,0.421,0.281,0.572c0.027,0.144,0.572,0.569,0.572,0.569s0.332-0.162,0.62-0.324
		c0.287-0.159,0.621-0.211,0.944-0.188c0.319,0.028,0.521-0.097,0.442-0.348c-0.072-0.246-0.218-0.669,0.041-0.669
		c0.261,0,0.535,0.261,0.608,0.473c0.072,0.212,0.47,0.533,0.706,0.544c0.233,0.013,0.595,0.224,0.672,0.512
		c0.072,0.281,0.319,0.794,0.319,0.794s0.251-0.523,0.302-0.672c0.045-0.151,0.045-0.151,0.045-0.151s0.324,0.065,0.584,0.3
		c0.261,0.235,0.521,0.312,0.744,0.312s0.348-0.076,0.635-0.076c0.283,0,0.644,0.1,0.707-0.086c0.061-0.186,0.101-0.632,0.361-0.608
		c0.26,0.026,0.319,0.434,0.319,0.744c0,0.312,0.041,0.933-0.06,1.293c-0.1,0.36-0.31,0.546-0.31,0.546s0.073,0.755,0.36,1.092
		c0.282,0.334,0.446,0.456,0.854,0.532c0.41,0.076,1.291,0.633,1.341,0.979c0.033,0.222,0.042,0.504,0.064,0.749
		c0.004,0.029,0.004,0.062,0.009,0.094c0.015,0.103,0.037,0.191,0.064,0.262c0.101,0.248,0.261,0.36,0.448,0.271
		c0.182-0.086,0.396,0.274,0.52,0.549c0.124,0.271,0.323,0.608,0.323,0.979c0,0.373-0.149,0.697,0.308,0.708
		c0.461,0.011,1.327,0.011,1.701-0.112c0.37-0.123,0.644-0.683,0.722-1.118c0.073-0.434,0.232-0.817,0.57-1.142
		c0.334-0.321,0.867-0.186,0.968-0.348c0.096-0.159,0.27-0.671,0.456-0.829c0.188-0.162,0.585-0.112,0.896,0.347
		c0.31,0.459,0.635,0.78,1.031,1.476c0.396,0.696,0.27,1.193,0.383,1.366c0.111,0.175,0.463-0.061,0.694-0.113
		c0.237-0.049,0.636-0.049,0.636,0.385c0,0.436,0.369,0.66,0.395,0.966c0.023,0.313-0.121,0.598-0.172,0.982
		c-0.051,0.386-0.435,0.991-0.25,1.104c0.186,0.112,0.596-0.034,0.857-0.322c0.26-0.284,0.757-0.681,1.076-0.645
		c0.324,0.037,0.845,0.585,1.104,0.521c0.262-0.061,0.427-0.05,0.636-0.894c0.21-0.842,0.658-1.45,0.991-1.549
		c0.338-0.099,0.979-0.274,1.055-0.661c0.076-0.384,0.128-0.42,0.446-0.306c0.324,0.11,0.534,0,0.686-0.125
		c0.15-0.128,0.259-0.062,0.52-0.062c0.26,0,0.36,0.136,0.657,0.097c0.298-0.034,0.558-0.53,0.896-0.407
		c0.333,0.123,0.62,0.506,0.867,0.506s0.224-0.133,0.375-0.099c0.146,0.039,0.208,0.264,0.354,0.449
		c0.151,0.183,0.266,0.222,0.513,0.162c0.246-0.065,0.598-0.34,0.757-0.103c0.159,0.238,0.037,0.45,0.333,0.397
		c0.298-0.05,0.607-0.36,0.735-0.619c0.122-0.262,0.405-0.248,0.556-0.335c0.152-0.085,0.103-0.286,0.037-0.559
		c-0.062-0.271,0.124-0.532,0.397-0.459s0.868,0.312,1.081,0.139c0.211-0.175,0.521-0.635,0.804-0.586
		c0.287,0.05,0.735,0.5,0.995,0.435c0.261-0.061,0.868-0.176,1.264-0.312c0.397-0.136,1.278-0.01,1.611,0.173
		c0.34,0.188,1.169,0.535,1.544,0.261c0.369-0.271,0.565-0.42,1.04-0.086c0.471,0.337,1.265,0.945,1.265,1.392
		c0,0.447-0.274,1.152,0.124,1.215c0.396,0.062,1.306,0.273,1.798,0.498c0.497,0.223,1.019,0.693,1.414,0.729
		c0.398,0.039,1.019-0.109,1.718,0.086c0.224,0.068,0.447,0.144,0.675,0.225c0.47,0.172,0.939,0.355,1.396,0.473
		c0.666,0.172,1.511,0.396,1.735,0.148c0.224-0.248,0.15-0.968-0.225-1.452c-0.369-0.483-1.054-0.932-1.249-1.042
		c-0.203-0.111-0.262-0.161-0.262-0.161s0.656-0.632,0.68-1.155c0.022-0.52-0.136-1.091-0.483-1.637
		c-0.347-0.546-0.953-1.326-1.118-1.674c-0.161-0.348-0.123-0.844,0.15-1.53c0.274-0.679,0.658-1.313,1.17-2.095
		c0.505-0.781,1.387-2.059,2.094-3.351c0.709-1.29,1.215-2.309,1.963-3.149c0.745-0.844,1.835-2.026,2.392-2.57
		c0.557-0.545,1.206-1.613,1.443-2.136c0.232-0.52,0.383-0.942,0.831-0.916c0.441,0.026,1.588,0.123,1.907-0.05
		c0.324-0.175,0.685-0.97,0.685-1.427C99.999,69.58,100.013,67.731,99.947,67.559z"/>
</g>
<g id="Layer_1">
</g>
</svg>
