<?xml version="1.0" encoding="iso-8859-1"?>
<!-- Generator: Adobe Illustrator 16.0.3, SVG Export Plug-In . SVG Version: 6.00 Build 0)  -->
<!DOCTYPE svg PUBLIC "-//W3C//DTD SVG 1.1//EN" "http://www.w3.org/Graphics/SVG/1.1/DTD/svg11.dtd">
<svg version="1.1" xmlns="http://www.w3.org/2000/svg" xmlns:xlink="http://www.w3.org/1999/xlink" x="0px" y="0px" width="100px"
	 height="100px" viewBox="0 0 100 100" style="enable-background:new 0 0 100 100;" xml:space="preserve">
<g id="SD">
	<path style="fill:#010101;" d="M77.414,0c0.051,0.009,0.096,0.021,0.146,0.03c0.1,0.278,0.199,0.555,0.3,0.833
		c0.137,0.109,0.277,0.219,0.414,0.328c0.306,0.4,0.378,0.762,0.865,0.984c0.465,0.209,1.18,0.127,1.553,0.418
		c0.223,0.173,0.159,0.442,0.327,0.685c0.118,0.178,0.428,0.169,0.565,0.328c0.109,0.127,0.06,0.325,0.209,0.417
		c0.187,0.08,0.378,0.157,0.565,0.239c0.249,0.219,0.496,0.437,0.746,0.656c0.109,0.018,0.218,0.038,0.328,0.059
		c0.095,0.066,0.596,0.569,0.623,0.685c-0.26,0.362-0.081,1.179,0.06,1.64c0.237,0.757,0.383,1.375,0.773,1.965
		c0.287,0.428,0.901,0.742,0.925,1.402c-0.073,0.096-0.082,0.155-0.21,0.208c-0.027,0.011-0.059,0.021-0.086,0.03
		c-0.164-0.169-0.191-0.392-0.301-0.627c-0.05,0.021-0.1,0.042-0.146,0.062c-0.064,0.139-0.123,0.278-0.183,0.417
		c0.11,0.375,0.22,0.753,0.328,1.131c0.022,0.239,0.041,0.479,0.06,0.715c0.059,0.185,0.246,0.359,0.3,0.567
		c0.128,0.489-0.286,1.22-0.118,1.876c0.05,0.17,0.096,0.339,0.146,0.508c-0.018,0.169-0.036,0.339-0.059,0.507
		c0.118,0.248,0.241,0.496,0.359,0.745c0.15,0.509-0.218,0.924-0.118,1.311c0.041,0.171,0.205,0.282,0.269,0.417
		c0.101,0.225,0.155,0.726,0.205,0.954c0,0.207,0,0.416,0,0.626c0.087,0.384,0.651,2.274,0.897,2.383
		c0.318,0.196,0.496-0.039,0.833-0.062c0.118,0.062,0.236,0.121,0.359,0.18c0.087,0.1,0.178,0.198,0.264,0.298
		c0.251,0.06,0.496,0.119,0.747,0.178c0.205,0.121,0.273,0.36,0.419,0.537c0.187,0.13,0.373,0.259,0.564,0.387
		c-0.009,0.021-0.022,0.042-0.031,0.059c-0.068,0.163-0.155,0.157-0.179,0.39c0.078,0.137,0.378,0.644,0.656,0.417
		c0.159-0.132,0.027-0.23,0.328-0.269c0.063,0.093,0.096,0.089,0.118,0.239c-0.05,0.059-0.101,0.118-0.15,0.177
		c0.014,0.021,0.022,0.042,0.032,0.06c0.055,0.054,0.04,0.045,0.15,0.059c0.149-0.096,0.437-0.055,0.623-0.059
		c0.178,0.198,0.783,0.704,0.715,0.983c-0.113,0.265-0.486,0.399-0.655,0.626c-0.178,0.417-0.355,0.836-0.537,1.252
		c-0.087,0.039-0.178,0.08-0.265,0.119c-0.113,0.08-0.173,0.316-0.268,0.418c-0.265,0.014-0.343-0.043-0.569-0.091
		c-0.087,0.143-0.105,0.424-0.297,0.478c-0.018-0.011-0.04-0.02-0.059-0.031c-0.055-0.127-0.105-0.228-0.178-0.328
		c-0.023,0.012-0.041,0.021-0.063,0.033c-0.332,0.127-0.265,0.437-0.802,0.446c-0.068-0.068-0.141-0.139-0.209-0.209
		c-0.019,0.012-0.042,0.021-0.06,0.031c-0.346,0.312,0.068,0.588-0.747,0.565c-0.341,0.156-0.542,0.093-0.773,0.328
		c0.104,0.48-0.364,1.293-0.774,1.311c-0.313-0.357-0.732,0.086-1.192-0.029c-0.155-0.042-0.232-0.141-0.479-0.148
		c-0.009,0.029-0.018,0.059-0.027,0.088c-0.154,0.374-0.055,0.904,0.027,1.4c-0.141,0.118-0.101,0.25-0.205,0.417
		c-0.082,0.129-0.305,0.221-0.419,0.328c0.019,0.152-0.036,0.248-0.059,0.387c-0.055,0.312,0.25,0.564,0.387,0.715
		c-0.104,0.294-0.087,0.437-0.031,0.717c-0.533,0.551-0.625,1.53-0.952,2.292c-0.159,0.378-0.423,0.753-0.564,1.193
		c-0.201,0.624-0.255,1.314-0.569,1.849c-0.114,0.194-0.465,0.175-0.533,0.417c0.051,0.387,0.096,0.774,0.146,1.162
		c0,0.159,0,0.319,0,0.478c0.182,0.893,0.195,2.049,0.418,2.83c0.119,0.41-0.45,1.209-0.505,1.548
		c-0.041,0.247,0.191,0.463,0.21,0.748c-0.287,0.319-0.506,0.775-0.629,1.251c-0.018,0.148-0.04,0.296-0.059,0.446
		c-0.351,0.861-0.82,1.706-1.043,2.711c-0.037,0.171,0.091,0.229,0.118,0.328c0.104,0.396-0.041,1.086-0.354,1.131
		c-0.364-0.425-1.353,0.043-2.026,0.06c-0.133,0.198-0.355,0.3-0.479,0.479c-0.178,0.328-0.359,0.655-0.537,0.982
		c-0.118,0.169-0.236,0.337-0.355,0.506c0,0.121,0,0.239,0,0.357c-0.141,0.13-0.282,0.26-0.419,0.39
		c-0.091,0.146-0.004,0.316-0.091,0.505c-0.018,0.049-0.269,0.398-0.327,0.477c-0.183,0.25-0.557,0.375-0.802,0.566
		c-0.155,0.118-0.214,0.316-0.328,0.477c0.06,0.149,0.118,0.298,0.178,0.447c0.215,0.856-0.487,1.315-0.628,1.847
		c-0.077,0.303,0.214,0.332,0.149,0.656c-0.067,0.279-0.136,0.558-0.209,0.835c0.032,0.147,0.06,0.299,0.091,0.445
		c-0.255,0.263-0.646,0.897-1.042,0.955c-0.178-0.303-0.574-0.845-1.016-0.863c-0.205,0.157-0.415,0.316-0.624,0.477
		c-0.109,0.206-0.219,0.416-0.327,0.626c-0.123,0.168-0.451,0.312-0.479,0.563c-0.014,0.155,0.154,0.224,0.182,0.328
		c0.05,0.212-0.182,0.301-0.123,0.567c0.069,0.293,0.347,0.642,0.241,1.071c-0.091,0.371-0.478,0.397-0.596,0.687
		c-0.023,0.239-0.041,0.479-0.059,0.715c-0.137,0.549-0.501,1.084-0.598,1.698c0.041,0.398,0.078,0.795,0.119,1.193
		c0.146,0.799,0.086,1.601,0.091,2.413c0,0.383,0.132,0.981-0.032,1.312c-0.072,0.148-0.523,0.521-0.683,0.566
		c-0.15,0-0.3,0-0.451,0c-0.204,0.178-0.414,0.357-0.623,0.535c-0.077,0.053-0.296,0.141-0.446,0.089
		c-0.265-0.089-0.15-0.431-0.506-0.476c-0.218,0.125-0.296-0.104-0.537-0.059c-0.17,0.069-0.338,0.138-0.506,0.206
		c-0.169,0.036-0.26-0.07-0.36-0.088c-0.159,0.02-0.318,0.04-0.478,0.062c-0.083,0.115-0.137,0.115-0.146,0.327
		c0.036,0.089-0.109,0.893-0.092,1.161c-0.455,0.327-0.905,0.688-0.893,1.4c0.474,0.397,0.638,0.147,1.188,0.387
		c0.123,0.079,0.242,0.159,0.36,0.239c0.228-0.05,0.456-0.101,0.687-0.148c0.184,0.034,0.311,0.185,0.447,0.237
		c0.196,0.009,0.396,0.02,0.597,0.029c0.073,0.027,0.61,0.417,0.742,0.508c0.101,0.118,0.2,0.237,0.301,0.357
		c0.118,0.029,0.236,0.06,0.355,0.088c0.05,0.037,0.45,0.647,0.478,0.716c0.019,0.238,0.037,0.479,0.06,0.715
		c0.154,0.093,0.592,0.353,0.715,0.478c0.146,0.15,0.063,0.467,0.236,0.594c0.593,0.436,1.648,0.319,1.58,1.344
		c0.109,0.077,0.123,0.114,0.328,0.118c0.06,0,0.118,0,0.178,0c0.313,0.126,0.387,0.485,0.655,0.627
		c0.159,0.009,0.319,0.018,0.478,0.028c0.297,0.112,0.798,0.554,0.833,0.925c-0.182,0.262-0.372,1.187-0.268,1.577
		c0.041,0.148,0.178,0.358,0.209,0.567c0.036,0.228-0.087,0.353,0,0.597c0.2,0.328,0.401,0.655,0.597,0.983c0,0.098,0,0.198,0,0.296
		c0.146,0.355,0.806,0.394,0.956,0.746c0.091,0.219-0.077,0.376-0.091,0.627c0.086,0.054,0.086,0.075,0.236,0.088
		c0.679-0.575,2.076-0.378,2.654,0.21c-0.041,0.127-0.21,0.269-0.149,0.446c0.022,0.063,0.159,0.166,0.149,0.269
		c-0.081,0.139-0.159,0.278-0.241,0.416c0,0.506,0,1.014,0,1.521c0.114,0.344,0.569,0.476,0.656,0.862
		c-0.273,0.164-0.92,0.089-1.339,0.089c-1.052,0-2.108,0-3.16,0c-1.12,0.012-2.244,0.021-3.364,0.03
		c-0.392,0.122-0.966,0.951-1.312,1.222c-1.202,0.941-2.149,2.121-3.278,3.127c-0.548-0.036-1.094-0.077-1.641-0.118
		c-0.25-0.178-0.495-0.355-0.746-0.537c-0.273-0.068-0.546,0.286-0.742,0.359c-0.441,0.159-0.893,0.178-1.401,0.27
		c-0.328,0.018-0.656,0.04-0.984,0.059c-0.328,0.219-0.655,0.438-0.983,0.656c-0.155,0.25,0.055,0.464-0.296,0.537
		c-0.132-0.031-0.26-0.059-0.387-0.091c-0.21-0.101-0.138-0.265-0.51-0.269c-0.068,0-0.137,0-0.205,0
		c-0.2-0.446-0.169-1.117-0.779-1.134c-0.199,0.272-1.097,0.751-1.488,0.806c-0.205-0.22-1.144-0.943-1.667-0.774
		c-0.227,0.159-0.459,0.318-0.688,0.478c-0.1,0.01-0.195,0.02-0.296,0.027c-0.178,0.101-0.496,0.834-0.629,1.044
		c-0.017-0.009-0.035-0.019-0.059-0.027c-0.155-0.123-0.137-0.615-0.564-0.688c0,0-0.838,0.206-0.892,0.211
		c-0.056-0.083-0.073-0.074-0.092-0.211c0.232-0.278,0.023-0.802-0.06-1.129c-0.018,0-0.04,0-0.059,0c-0.091,0-0.178,0-0.27,0
		c-0.208-0.109-0.418-0.219-0.628-0.328c-0.264-0.113-0.45-0.095-0.741-0.15c-0.073-0.237-0.197-0.692-0.387-0.806
		c-0.151-0.086-0.319-0.014-0.419-0.146c-0.027-0.092-0.059-0.182-0.091-0.269c-0.136-0.21-0.4-0.118-0.446-0.449
		c0-0.049,0-0.099,0-0.148c-0.205-0.137-0.597-0.153-0.742-0.357c-0.127-0.203,0-0.69-0.032-0.924
		c-0.514-0.224-0.774-0.49-1.521-0.538c-0.101,0.223-0.077,0.47-0.205,0.718c-0.137,0.257-0.916,0.917-1.225,0.951
		c-0.177-0.166-0.774-0.701-1.011-0.744c-0.327-0.06-0.723,0.103-1.016,0c-0.063-0.164-0.068-0.282-0.295-0.299
		c-0.123,0.146-0.269,0.482-0.418,0.597c-0.215,0.166-0.447,0.139-0.715,0.269c-0.296,0.144-0.137,0.453-0.715,0.506
		c-0.096-0.103-0.169-0.292-0.296-0.357c-0.2,0-0.4,0-0.596,0c-0.178-0.053-0.31-0.267-0.447-0.358
		c-0.109-0.018-0.218-0.038-0.327-0.059c-0.223-0.146-0.073-0.561-0.387-0.626c-0.387-0.152-1.066,0.137-1.075-0.564
		c-0.009-0.189-0.018-0.379-0.032-0.567c-0.1-0.043-0.264-0.087-0.328-0.18c-0.096-0.144-0.068-0.305-0.236-0.387
		c-0.151-0.101-0.355,0.009-0.505-0.089c-0.296-0.191-0.405-0.612-0.597-0.925c-0.364-0.597-0.929-0.821-1.102-1.668
		c-0.068-0.33,0.183-0.528,0.21-0.833c-0.228-0.169-0.182-0.439-0.328-0.686c-0.186-0.31-1.389-0.858-1.789-0.925
		c-0.087-0.13-0.137-0.416-0.269-0.508c-0.236-0.161-0.478-0.013-0.774-0.088c-0.351-0.089-0.478-0.256-0.688-0.476
		c-0.078,0.028-0.155,0.059-0.236,0.088c-0.051-0.082-0.068-0.075-0.092-0.209c0.109-0.101,0.269-0.217,0.328-0.357
		c0-0.01,0-0.018,0-0.029c-0.273-0.52-1.097-0.66-1.102-1.282c-0.045-0.086-0.037-0.152-0.027-0.237
		c0.169-0.17,0.506-0.53,0.538-0.806c-0.583-0.361-1.885-0.787-1.79-1.668c-0.359-0.23-0.692-0.422-1.074-0.624
		c-0.068-0.08-0.137-0.159-0.21-0.239c-0.332-0.173-0.673-0.173-1.01-0.327c-0.328-0.15-0.751-0.371-1.075-0.567
		c-0.151-0.091-0.178-0.32-0.296-0.446c-0.15-0.159-0.533-0.252-0.624-0.449c-0.042-0.146-0.083-0.295-0.123-0.445
		c0.137-0.091,0.424-0.243,0.51-0.388c0.254-0.525-0.255-0.938-0.51-1.161c-0.137,0.019-0.278,0.04-0.415,0.06
		c-0.25-0.357-0.756-0.516-0.984-0.895c-0.208-0.337-0.013-0.621-0.569-0.626c-0.141,0.046-0.4-0.137-0.564-0.178
		c-0.209,0.029-0.419,0.06-0.624,0.09c-0.31-0.068-0.305-0.34-0.719-0.358c-0.464,0.394-1.139-0.284-1.339-0.508
		c-0.009-0.564,0.2-0.83,0.478-1.102c-0.023-0.18-0.068-0.289-0.032-0.476c-0.009-0.012-0.019-0.021-0.027-0.029
		c-0.742-0.044-1.662-0.305-2.354-0.15c-0.359,0.079-0.565-0.198-0.865-0.119c-0.114,0.03-0.15,0.105-0.328,0.119
		c-0.104-0.142-0.232-0.376-0.118-0.567c0.109-0.257,0.328-0.305,0.354-0.683c-0.059-0.034-0.054-0.041-0.146-0.062
		c-0.187,0.164-0.432,0.022-0.51-0.178c-0.086-0.185,0.091-0.648,0.15-0.835c0.296-0.18,0.724-0.303,0.806-0.686
		c-0.009-0.109-0.022-0.219-0.032-0.327c0.041-0.09,0.082-0.179,0.118-0.27c0.014-0.182-0.246-0.426-0.146-0.744
		c0.096-0.159,0.196-0.316,0.296-0.476c0.191-0.584-0.332-1.467-0.505-1.73c-0.46-0.755-0.915-1.511-1.37-2.264
		c-0.214-0.303-0.597-0.504-0.838-0.804c-0.172-0.226-0.446-0.31-0.683-0.479c-0.146-0.102-0.719-0.98-0.747-1.19
		c0.132-0.207,0.651-1.425,0.537-1.76c-0.059-0.08-0.119-0.157-0.178-0.237c-0.073-0.214,0.059-0.288-0.118-0.387
		c-0.21,0-0.419,0-0.628,0c-0.305-0.469-1.029-0.612-1.22-1.163c-0.246-0.701,0.478-1.435,0.328-1.996
		c-0.041-0.085-0.004-0.046-0.091-0.089c-0.168-0.071-0.405,0.115-0.656,0.147c-0.009-0.029-0.018-0.059-0.027-0.089
		c-0.059-0.173,0.15-0.398,0.091-0.685c-0.082-0.18-0.159-0.358-0.241-0.538c-0.041-0.188-0.077-0.375-0.118-0.564
		c-0.055-0.141-0.191-0.173-0.237-0.357c0.168-0.218,0.333-0.478,0.387-0.806c-0.009-0.019-0.023-0.038-0.032-0.06
		c-0.35-0.154-0.728-0.443-1.102-0.505c-0.178,0.234-0.916,0.679-1.43,0.416c-0.483-0.199-0.642-0.936-0.387-1.461
		c0.196-0.41,0.406-0.896,0.774-1.131c0.168-0.05,0.337-0.098,0.505-0.148c0.168-0.08,0.738-0.812,0.807-1.016
		c-0.137-0.116-0.3-0.316-0.328-0.535c0-0.13,0-0.257,0-0.387c-0.1-0.079-0.2-0.159-0.301-0.239
		c-0.178-0.227-0.269-0.622-0.328-0.924c0.255-0.287,0.465-0.706,0.779-0.922c0.537-0.374,1.193-0.581,1.639-1.043
		c-0.014-0.062-0.023-0.121-0.032-0.18c-0.278-0.162-0.637-0.096-0.656-0.538c0.127-0.157,0.059-0.523,0.059-0.803
		c-0.1-0.089-0.195-0.18-0.296-0.269c0.037-0.118,0.078-0.239,0.119-0.357c0.314-0.191,1.466-0.355,1.548-0.686
		c-0.109-0.164-0.173-0.432-0.209-0.656c0.096-0.121,0.369-0.261,0.419-0.387c0.023-0.062-0.027-0.181,0.027-0.269
		c0.2-0.189,0.4-0.378,0.597-0.565c0.091-0.041,0.182-0.079,0.268-0.121c0.069-0.098-0.013-0.209,0.06-0.328
		c0.132-0.198,0.242-0.155,0.242-0.534c0-0.201,0-0.399,0-0.597c-0.11-0.109-0.219-0.219-0.328-0.328
		c0.009-0.15,0.019-0.298,0.027-0.446c0.383-0.262,0.724-0.515,1.043-0.836c0.505,0.012,0.988,0.226,1.494,0.089
		c0.277-0.075,0.542-0.26,0.892-0.328c0.729-0.139,1.402,0.316,1.967,0.239c0.009-0.029,0.018-0.059,0.027-0.089
		c0.014-7.221,0.023-14.442,0.032-21.664c0.027-0.009,0.059-0.018,0.091-0.029c1.648-0.009,3.296-0.019,4.945-0.03
		c0.026-0.068,0.013-0.047,0.059-0.089c0-3.337,0-6.674,0-10.012c0.032-0.009,0.059-0.021,0.091-0.03
		C34.204,5.79,44.876,5.771,55.541,5.751c0.241-0.433,0.336-1,0.892-1.102c0.077,0.073,0.137,0.099,0.183,0.208
		c0.009,0.041,0.019,0.08,0.026,0.121c-0.182,0.187-0.419,0.41-0.473,0.715c0.382,0.227,1.898,0.088,2.499,0.088
		c2.117,0,4.235,0,6.348,0c0.665,0.467,1.335,0.934,2,1.4c0.336-0.039,0.673-0.08,1.01-0.119c0.409-0.082,1.012,0.037,1.226-0.239
		c0.227-0.665,0.455-1.332,0.683-1.997c0.628-0.353,1.931-0.394,2.714-0.564c0.418-0.656,0.715-1.471,1.069-2.177
		c0.132-0.264,0.123-0.632,0.506-0.656c0.273,0.176,0.774,0.292,1.165,0.299C76.062,1.153,76.735,0.577,77.414,0z"/>
</g>
<g id="Layer_1">
</g>
</svg>
