<?xml version="1.0" encoding="iso-8859-1"?>
<!-- Generator: Adobe Illustrator 16.0.3, SVG Export Plug-In . SVG Version: 6.00 Build 0)  -->
<!DOCTYPE svg PUBLIC "-//W3C//DTD SVG 1.1//EN" "http://www.w3.org/Graphics/SVG/1.1/DTD/svg11.dtd">
<svg version="1.1" xmlns="http://www.w3.org/2000/svg" xmlns:xlink="http://www.w3.org/1999/xlink" x="0px" y="0px" width="100px"
	 height="100px" viewBox="0 0 100 100" style="enable-background:new 0 0 100 100;" xml:space="preserve">
<g id="SG">
	<g>
		<path style="fill:#010101;" d="M48.116,19.462c-1.247-1.149-3.318-2.075-4.563-2.548c-1.242-0.473-2.427-1.243-2.427-0.414
			c0,0.829-0.236,1.244-0.476,1.6c-0.238,0.356-0.594,0.651-0.594-0.118c0-0.771,0.002-0.948-0.473-0.594
			c-0.474,0.356-1.067,1.305-1.067,0.771c0-0.533,0.416-1.183,0.712-1.482c0.297-0.295,0.355-0.594-0.534-0.473
			c-0.887,0.118-2.488,0.354-3.853,1.421c-1.361,1.067-3.141,2.193-4.8,3.438c-1.656,1.244-2.073,1.955-3.141,1.955
			s-1.896-0.534-2.251,0.294c-0.354,0.832-0.178,1.009,0.178,1.245c0.355,0.238,1.364,1.009,0.533,1.482
			c-0.828,0.473-1.776,0.356-2.665,1.246c-0.89,0.887-0.355,1.184-0.831,1.302c-0.473,0.121-0.653-0.059-0.712,0.533
			c-0.058,0.594-0.297,0.771,0.059,1.365c0.356,0.591,0.89,1.243,0.831,1.658c-0.059,0.416-0.831,1.364-0.831,1.364
			s-0.116-2.668-0.887-2.133c-0.77,0.533-1.481,1.896-1.481,1.896s0.058-1.481,0.533-2.134c0.475-0.65,1.008-0.887,0.651-1.539
			c-0.354-0.653-1.065-0.476-1.54-0.476s-0.77-0.948-0.236-0.948c0.533,0,1.834,0.415,2.073,0.06
			c0.237-0.354,0.771-1.244,1.481-1.659c0.712-0.416,0.119-0.949,0.355-1.66c0.237-0.712,1.423-1.364,0.534-2.311
			c-0.89-0.949-1.126-0.593-1.779-1.127c-0.65-0.533-1.006-1.067-3.079-0.473c-2.076,0.593-4.208,1.719-5.275,2.549
			c-1.067,0.828-2.312,1.896-3.141,2.726c-0.829,0.829-1.245,1.481-1.54,2.251c-0.297,0.771-0.831,1.896-1.66,2.371
			c-0.831,0.474-1.365,1.48-1.72,2.725c-0.356,1.245-0.77,3.082-0.651,3.378c0.118,0.297,0.176,0.473,1.006,0.473
			c0.831,0,1.898-0.473,2.607-0.236c0.711,0.236,1.481,0.177,1.837,0.355c0.355,0.178,0.711,0.593,0.297,0.829
			c-0.415,0.238-1.482-0.295-1.482,0.417c0,0.711,0.061,1.066-0.355,1.126c-0.415,0.058-0.295-0.71-0.711-0.949
			c-0.415-0.238-0.592-0.06-1.304,0.117c-0.711,0.179-1.125,0.594-1.659,0.594c-0.533,0-1.542-0.238-1.245,0.534
			c0.297,0.771,0.475,0.711-0.059,0.711c-0.533,0-1.362,0.474-1.362,1.125c0,0.652,0.709,1.661,1.303,1.661
			c0.592,0,1.185,0.355,1.065,0.77c-0.117,0.414,0,1.184,0.355,1.184c0.356,0,0.948,0.415,0.534,0.771
			c-0.415,0.356-1.245,0.356-1.659-0.416c-0.415-0.771-0.709-1.126-1.126-1.303c-0.414-0.178-1.125-1.185-1.362-0.533
			C0.297,44.884,0,45.653,0,46.602s0.414,2.903,0.889,3.437c0.473,0.534,1.065,0.712,1.777,0.771
			c0.711,0.06,1.186,0.295,1.778,0.949c0.592,0.651,0.711,0.946,0.711,1.539s-0.119,1.065,1.067,1.481
			c1.184,0.416,1.66,0.949,2.371,0.296c0.709-0.651,1.479-1.244,2.488-1.244c1.006,0,0.831-0.236,1.659-0.712
			c0.829-0.474,1.659-1.186,2.369-0.474c0.714,0.711,1.423,0.356,1.779,0c0.355-0.355,1.542-0.295,2.253-0.117
			c0.711,0.177,1.301-0.296,1.715-1.066c0.416-0.771,0.061-1.66-0.175-2.609c-0.237-0.947-0.119-2.133,0.061-2.133
			c0.175,0,0.946,1.125,0.946,1.837c0,0.711-0.295,2.134,0.355,3.082c0.653,0.948,1.542,1.6,2.254,1.423
			c0.709-0.178,0.473-1.007,0.059-1.777c-0.417-0.771-0.417-1.66,0-1.66c0.414,0,0.77,0.119,0.948,0.77
			c0.177,0.653,1.006,0.829,1.242,0.829c0.238,0,0.892,0.536,1.128,1.661s0.354,1.362,1.185,2.015c0.83,0.65,2.073,1.361,3.85,2.962
			c1.778,1.602,3.023,2.551,4.565,3.201c1.54,0.652,4.089,1.48,4.739,1.48c0.653,0,1.423-0.117,1.659-0.591
			c0.237-0.476,1.423-0.536,1.957-0.237c0.531,0.295,1.064,0.771,1.718,0.237c0.65-0.534,0.77-1.305,1.006-2.194
			c0.239-0.89,1.128-2.251,2.076-3.379c0.947-1.124,1.776-1.775,2.073-2.19c0.295-0.415,0.712-1.126-0.119-1.423
			s-1.659-0.593-1.304-1.244c0.355-0.651,0.062-0.415,0.65-0.236c0.595,0.178,0.653,0.532,1.364,0.297
			c0.712-0.239,0.712-0.534,0.712-0.534s1.54,0.059,2.073,0.059s0.712,0.119,0.593,0.533c-0.117,0.414-1.421,0.355-2.133,0.474
			c-0.711,0.119-0.89,0.477-0.652,1.126c0.236,0.652,1.601,0.059,1.364,0.83c-0.238,0.771-1.187,0.238-1.602,0.593
			c-0.416,0.356-0.414,1.127,0.179,1.067c0.592-0.061,2.37-0.236,3.082-0.533c0.709-0.297,2.549-0.593,3.853-1.364
			c1.301-0.77,1.834-1.242,2.013-1.48c0.178-0.238,0.652-0.417,1.364-0.417c0.709,0,2.251-0.234,3.021-0.592
			c0.771-0.355,3.08-1.066,4.03-1.6c0.948-0.532,2.605-1.836,3.911-3.734c1.304-1.895,1.778-2.547,2.549-3.434
			c0.77-0.89,1.775-2.668,2.251-3.557c0.473-0.889,1.54-1.127,1.776-1.481c0.238-0.358,0.595-0.771,0.475-1.126
			c-0.119-0.356-0.475-1.6-0.355-2.135c0.119-0.534,0.061-1.42-1.067-1.48c-1.125-0.059-2.37-0.592-3.141-0.652
			c-0.77-0.059-1.126-0.119-0.828,0.712c0.295,0.829-0.417,1.244-1.187,1.777c-0.771,0.532-2.132,1.66-3.91,1.126
			c-1.777-0.533-3.378-1.362-4.325-2.017c-0.948-0.65-0.712-1.006-2.076-0.472c-1.362,0.533-2.251,0.355-1.896-0.237
			c0.355-0.593,0.83-1.006,0.297-1.838c-0.533-0.828-0.592-1.895-0.592-2.429c0-0.533,0.117-1.601-1.126-1.719
			c-1.245-0.117-1.067,1.245-1.659,1.719c-0.592,0.475-0.473,0.771-1.481,1.423c-1.009,0.65-1.362,0.236-1.009-0.296
			c0.356-0.534,1.188-0.83,0.89-1.245c-0.297-0.415-0.887-0.712-1.481-0.712c-0.593,0-1.364-0.237-1.837-1.067
			c-0.473-0.828-1.599-0.887-2.252-0.887c-0.652,0-1.422,1.008-2.192,1.838c-0.771,0.829-1.718,1.657-2.666,2.428
			c-0.948,0.772-1.483,1.599-1.956,1.599s-0.355-0.591-0.89-0.533c-0.533,0.061-0.889-0.356-0.889-0.356s1.127-0.709,1.542-0.649
			c0.414,0.058,0.592,0.116,0.947-0.476c0.356-0.592,1.067-1.124,1.424-1.245c0.355-0.118,0.947-0.652,1.006-1.42
			c0.059-0.771,0.533-1.245,0.889-2.017c0.356-0.771,1.243-2.191,0.771-2.962c-0.473-0.77-1.304-0.058-1.954,0.592
			c-0.653,0.653-0.831,1.719-1.481,1.365c-0.653-0.356-0.178-1.126,0.531-1.779c0.711-0.652,1.304-1.006,1.126-1.481
			C48.947,20.409,48.437,19.757,48.116,19.462z"/>
		<path style="fill:#010101;" d="M75.255,27.224c-1.205,0.056-3.494,0.178-4.501,0.121c-1.008-0.059-2.668-0.178-2.668,0.354
			c0,0.534,0.534,1.187,1.126,1.187c0.595,0,1.601,1.007,1.956,1.303c0.354,0.297,1.776,0.947,2.666,0.947s2.785-0.947,3.438-0.947
			c0.651,0,1.896,0.12,1.954-0.414c0.061-0.534,0.059-1.54-1.125-1.956C76.916,27.401,75.981,27.193,75.255,27.224z"/>
		<path style="fill:#010101;" d="M97.892,25.684c-1.062-0.599-1.778-1.006-2.726-0.889c-0.948,0.119-1.896,0-2.488,0
			c-0.592,0-1.067,0.119-1.837,0.534s-1.362,0.296-1.659,0.238c-0.297-0.061-0.89,0.117-0.711,2.073
			c0.178,1.957,0.355,2.668,0.65,2.668c0.297,0,1.128-0.298,1.364-0.12c0.236,0.178-0.236,0.769-0.475,1.125
			c-0.237,0.356,0.18,1.305,1.127,1.305c0.948,0,3.556-0.415,5.095-1.244c1.54-0.83,2.963-1.126,3.438-1.956
			c0.473-0.831,0.473-1.6-0.238-2.432C98.723,26.158,98.331,25.931,97.892,25.684z"/>
		<path style="fill:#010101;" d="M85.565,26.573c-0.758,0.132-0.235,1.423,0,2.014c0.239,0.593,0.948,1.423,1.602,1.187
			c0.652-0.237,0.414-1.602,0.058-2.254C86.869,26.868,86.036,26.491,85.565,26.573z"/>
		<path style="fill:#010101;" d="M68.976,29.832c-0.533,0.333-0.119,0.949,0.178,1.006c0.295,0.062,0.712,0.297,0.712,0.652
			c0,0.356,0.828,0.712,1.064,0.476c0.238-0.238,0.119-1.423-0.473-1.896C69.865,29.596,69.293,29.633,68.976,29.832z"/>
		<path style="fill:#010101;" d="M63.939,28.587c-0.464,0-0.003,0.712,0.295,1.068c0.297,0.355,0.77,0.769,1.066,0.415
			c0.295-0.356-0.058-1.008-0.414-1.305C64.531,28.469,64.354,28.587,63.939,28.587z"/>
		<path style="fill:#010101;" d="M26.132,51.934c-0.475-0.24-0.651,0.119-0.712,0.712c-0.059,0.593-0.236,1.186,0.239,1.186
			c0.473,0,0.948-0.771,0.948-1.008C26.607,52.587,26.356,52.05,26.132,51.934z"/>
		<path style="fill:#010101;" d="M18.43,52.823c-0.534,0-0.948,0.238-0.534,1.008c0.415,0.771,0.831,0.237,1.245-0.118
			c0.414-0.356,0.176-0.651-0.061-0.771C18.844,52.823,18.594,52.823,18.43,52.823z"/>
		<ellipse style="fill:#010101;" cx="13.866" cy="53.447" rx="0.475" ry="0.503"/>
		<ellipse style="fill:#010101;" cx="20.03" cy="56.766" rx="0.356" ry="0.325"/>
		<ellipse style="fill:#010101;" cx="21.924" cy="58.72" rx="0.355" ry="0.325"/>
		<ellipse style="fill:#010101;" cx="18.28" cy="58.838" rx="0.267" ry="0.327"/>
		<circle style="fill:#010101;" cx="21.54" cy="59.549" r="0.267"/>
		<ellipse style="fill:#010101;" cx="20.652" cy="74.661" rx="0.977" ry="0.622"/>
		<path style="fill:#010101;" d="M32.177,74.098c0,0.328-0.29,0.593-0.653,0.593c-0.36,0-0.65-0.265-0.65-0.593
			c0-0.327,0.29-0.593,0.65-0.593C31.887,73.505,32.177,73.771,32.177,74.098z"/>
		<ellipse style="fill:#010101;" cx="35.554" cy="74.748" rx="0.712" ry="0.654"/>
		<path style="fill:#010101;" d="M13.688,55.373c-0.201-0.377-1.776,0.295-2.193,0.769c-0.414,0.475-0.236,0.949,0,1.245
			c0.237,0.296,1.185,0.296,1.896-0.355C14.103,56.378,13.887,55.745,13.688,55.373z"/>
		<path style="fill:#010101;" d="M17.838,56.085c-0.721-0.822-1.482-0.593-2.076-0.356c-0.592,0.236,0,1.006,0.061,1.362
			c0.059,0.354,0.294,1.422,0.709,1.422c0.417,0,1.957-0.236,1.957-0.83C18.488,57.091,18.121,56.41,17.838,56.085z"/>
		<path style="fill:#010101;" d="M20.444,57.921c-0.547,0.038-0.889,0.236-1.186,0.592c-0.295,0.354,0.119,1.007,0.594,1.007
			c0.473,0,1.182-0.237,1.124-1.007C20.917,57.743,20.643,57.906,20.444,57.921z"/>
		<path style="fill:#010101;" d="M15.525,58.454c-0.419-0.677-0.712-1.363-1.362-0.594c-0.653,0.771-0.534,1.127-1.009,1.246
			c-0.475,0.117-0.533,1.54-0.177,1.54c0.355,0,1.659-0.297,2.132-0.297c0.475,0,0.772-0.355,0.772-0.888
			C15.881,58.929,15.665,58.682,15.525,58.454z"/>
		<path style="fill:#010101;" d="M17.955,61.653c-0.878-0.414-1.243-1.304-0.89-1.778c0.356-0.474,1.304-0.236,1.601,0.119
			s1.006,0.592,1.482,0.415c0.475-0.179,1.064,0.533,0.475,1.126C20.028,62.129,18.558,61.938,17.955,61.653z"/>
		<path style="fill:#010101;" d="M28.267,67.815c-0.591,0.501,0.355,1.424,1.303,1.838c0.948,0.414,2.016,1.244,2.43,0.89
			c0.414-0.356-0.12-1.305-1.007-2.074c-0.89-0.771-1.009-0.83-1.659-0.83C28.681,67.639,28.471,67.642,28.267,67.815z"/>
		<path style="fill:#010101;" d="M13.807,62.186c-0.416,0.535,0.295,0.949,0.712,1.067c0.414,0.12,0.948,0,1.065-0.178
			c0.119-0.178-0.295-0.594-0.829-0.829C14.222,62.009,13.807,62.186,13.807,62.186z"/>
		<path style="fill:#010101;" d="M21.332,78.305c-0.181-0.477-0.829-0.771-1.777-0.06c-0.948,0.711-1.364,1.542-1.187,2.075
			c0.178,0.532,1.126,0.828,2.135,0.236C21.51,79.964,21.546,78.865,21.332,78.305z"/>
		<path style="fill:#010101;" d="M28.146,72.378c-0.705-0.115-1.304,0.535-1.067,1.839c0.239,1.303,0.948,1.54,1.423,1.48
			c0.476-0.06,0.95-1.243,0.653-2.192C28.858,72.558,28.519,72.439,28.146,72.378z"/>
		<path style="fill:#010101;" d="M22.755,81.742c-0.662-0.314-1.543-0.297-1.778,0c-0.235,0.296,0.535,1.896,1.186,2.014
			c0.651,0.12,1.776,0.297,1.776-0.414S23.205,81.956,22.755,81.742z"/>
		<ellipse style="fill:#010101;" cx="47.02" cy="71.638" rx="0.563" ry="0.683"/>
		<ellipse style="fill:#010101;" cx="49.095" cy="71.163" rx="0.444" ry="0.505"/>
		<path style="fill:#010101;" d="M39.525,63.075c-0.491,0.318,0.178,1.186,1.54,2.135c1.364,0.946,2.606,2.191,3.079,2.191
			c0.476,0,1.245-0.473,1.543-1.361c0.297-0.89-0.595-1.661-1.188-1.779c-0.591-0.118-2.015-0.356-2.665-0.771
			C41.185,63.075,40.016,62.754,39.525,63.075z"/>
		<path style="fill:#010101;" d="M44.028,62.662c-0.462,0.121-1.067,0.771-0.119,1.065c0.947,0.295,1.601-0.119,1.303-0.593
			C44.917,62.662,44.337,62.58,44.028,62.662z"/>
		<path style="fill:#010101;" d="M46.279,63.904c-0.548,0.107,0.653,1.246,0.772,0.95C47.169,64.557,46.579,63.849,46.279,63.904z"
			/>
		<circle style="fill:#010101;" cx="16.119" cy="63.313" r="0.296"/>
	</g>
</g>
<g id="Layer_1">
</g>
</svg>
