<?xml version="1.0" encoding="iso-8859-1"?>
<!-- Generator: Adobe Illustrator 16.0.3, SVG Export Plug-In . SVG Version: 6.00 Build 0)  -->
<!DOCTYPE svg PUBLIC "-//W3C//DTD SVG 1.1//EN" "http://www.w3.org/Graphics/SVG/1.1/DTD/svg11.dtd">
<svg version="1.1" xmlns="http://www.w3.org/2000/svg" xmlns:xlink="http://www.w3.org/1999/xlink" x="0px" y="0px" width="100px"
	 height="100px" viewBox="0 0 100 100" style="enable-background:new 0 0 100 100;" xml:space="preserve">
<g id="SI">
	<path style="fill:#010101;" d="M4.812,77.219c0.758,0,3.476-0.444,4.769-0.088c1.291,0.355,3.964,1.381,4.721,1.113
		c0.757-0.267,1.56-1.025,1.871-1.826c0.312-0.803,0.847-0.713,1.158-0.401c0.313,0.312,1.783,1.737,3.164,1.916
		c1.38,0.178,2.583,0.133,3.252-0.268c0.668-0.4,2.049-0.49,2.718-0.223s2.005,0.134,3.119-0.134c1.112-0.267,2.851-0.98,3.03-2.361
		c0.177-1.381,0.578-2.228,1.201-2.763c0.624-0.533,0.669-0.891,1.025-1.336c0.356-0.446,2.094-0.312,2.539,0.847
		s0.936,2.985,1.737,3.965c0.803,0.979,2.005,1.382,2.495,2.45c0.49,1.069,0.98,2.54,1.916,2.451s1.737-0.892,1.781-1.782
		c0.046-0.892,0.313-1.737,1.917-0.758c1.604,0.98,1.604,1.158,2.806,1.737c1.204,0.579,1.649,1.827,2.496,2.139
		c0.845,0.312,1.337,0.045,1.915-0.445c0.58-0.49,1.47-1.158,2.361-0.713c0.891,0.445,1.872,0.045,2.049-0.758
		c0.179-0.802,0.313-1.024-0.489-2.004c-0.801-0.98-0.936-2.229-0.579-3.431c0.356-1.203,1.024-1.917,1.604-2.095
		s0.446-0.936,0.044-1.826c-0.4-0.892-1.959-2.229-1.336-3.03c0.625-0.802,1.336-1.336,2.496-1.336c1.158,0,1.515-0.446,2.405-1.426
		c0.892-0.981,2.093-1.426,3.297-1.113c1.203,0.312,2.984,1.024,3.698,0.222c0.711-0.801,1.158-3.208,1.158-4.231
		c0-1.025,0.712-4.812,0.178-5.169c-0.535-0.357-2.094-1.024-2.718-2.272c-0.623-1.248-0.044-2.494,0.401-2.985
		c0.445-0.49,0.223-1.336,0.579-1.737c0.355-0.402,2.049,0.178,2.896,0.178s1.648-0.623,2.14-1.292
		c0.489-0.667,2.137-0.98,3.608-1.738c1.47-0.757,3.341-0.936,4.544-1.693c1.203-0.758,1.871-0.98,1.871-1.648
		c0-0.668,1.158-1.203,1.827-1.025c0.668,0.178,2.094,1.471,2.405,0.267c0.311-1.202-0.4-2.405-0.312-3.429
		c0.089-1.025,0.178-1.248,1.203-1.827c1.025-0.579,1.604-1.559,2.717-1.337c1.114,0.223,2.585,0.267,3.431,1.249
		c0.847,0.979,1.338,1.916,2.006,2.137c0.539,0.18,1.256,0.387,2.071,0.554c-0.841-0.476-0.995-2.402-1.627-3.538
		c-0.667-1.203-2.672-2.585-3.073-2.94c-0.401-0.357-2.674-1.649-1.648-2.272c1.024-0.625,1.113-0.98,1.113-1.916
		s-1.247-1.113-2.139-1.426c-0.891-0.312-1.692-0.936-1.336-2.45c0.355-1.515,0.044-2.316-0.535-3.52
		c-0.579-1.203-1.561-0.089-2.45,0.312c-0.702,0.315-0.188-1.135,0.084-2.224c-1.601,0.348-3.161,0.853-4.005,1.556
		c-1.604,1.336-2.939,2.272-2.939,3.208s0.089,2.406,0.534,2.94c0.444,0.535,0,1.917,0,1.917s-1.158-1.56-1.381-2.14
		c-0.223-0.579-0.981-1.069-1.828-0.711c-0.845,0.355-1.515,0.177-1.959,0.044c-0.445-0.134-1.471-0.134-2.317,0.222
		c-0.846,0.357-2.717,0.936-3.296,0.757c-0.579-0.177-1.561,0.089-1.961,0.49c-0.401,0.401-1.916,1.47-2.229,1.782
		c-0.311,0.312-1.157,0.714-2.094,0.357c-0.936-0.357-1.826-1.158-3.252-0.847c-1.426,0.313-2.184,0.579-3.119-0.089
		c-0.936-0.668-2.718-0.891-3.876-0.668c-1.158,0.224-2.094,1.203-2.762,1.56c-0.668,0.356-2.451-0.089-3.163,0.445
		c-0.714,0.535-1.782,2.584-2.673,3.342c-0.892,0.757-1.917,2.093-3.743,2.762s-3.52,1.47-3.921,2.227
		c-0.401,0.758-1.336,1.693-1.915,1.114c-0.58-0.579-1.471-1.916-2.05-2.361c-0.579-0.447-0.847-0.401-1.426-0.134
		c-0.579,0.267-2.228,0.222-3.342,0.044c-1.113-0.178-2.985-0.713-4.366-1.114s-2.272-1.515-2.584-2.539
		c-0.312-1.026-1.915-0.714-2.672-0.268c-0.758,0.445-1.426,0-1.96-0.625c-0.535-0.623-2.941-0.355-3.876-0.445
		c-0.935-0.088-2.985-1.114-3.564,0.935c-0.579,2.05-1.604,2.05-2.451,2.05s-1.648,0.668-1.961,1.603
		c-0.312,0.937-1.47,0.847-2.629,0.847c-1.157,0-1.736,0.089-1.826,1.158c-0.089,1.07-0.357,1.827-1.292,1.827
		s-0.312,1.56,0.044,2.317c0.356,0.757,1.425,1.247,2.184,1.291c0.757,0.045,1.247,0.936,1.514,1.427
		c0.267,0.489,1.872,0.356,2.629,0.356s0.936,0.668,0.49,1.604c-0.445,0.936-1.782,2.407-2.984,2.94
		c-1.203,0.535-2.762,0.535-2.762,1.025c0,0.491,0.088,0.846,0.535,1.158c0.445,0.312,0.579,1.293,0,1.425
		c-0.579,0.135,0.355,1.382,1.114,1.382c0.757,0,1.069-0.668,1.737-0.847c0.667-0.178,1.693,0.134,1.96,0.758
		c0.268,0.624,0.4,1.826-0.446,2.228s-2.093,0.757-2.093,1.471c0,0.713,0.312,2.984,1.336,3.029c1.025,0.044,1.426-0.445,2.05,0.624
		c0.624,1.069,2.36,2.673,3.029,3.52c0.668,0.847,1.782,3.074,2.272,3.965c0.49,0.892-0.089,1.782-0.535,2.272
		c-0.445,0.491-1.292,1.114-2.361,0.891c-1.069-0.222-1.515,0.759-1.826,0.759c-0.312,0-1.114,0.222-1.872,0.222
		c-0.757,0-2.138-0.623-2.628-0.445c-0.491,0.178-0.624,0.847-0.356,1.47c0.258,0.605-0.023,0.879,0.122,1.543
		c0.003,0.021,0.004,0.039,0.01,0.062C3.833,76.372,4.055,77.219,4.812,77.219z"/>
</g>
<g id="Layer_1">
</g>
</svg>
