<?xml version="1.0" encoding="iso-8859-1"?>
<!-- Generator: Adobe Illustrator 16.0.3, SVG Export Plug-In . SVG Version: 6.00 Build 0)  -->
<!DOCTYPE svg PUBLIC "-//W3C//DTD SVG 1.1//EN" "http://www.w3.org/Graphics/SVG/1.1/DTD/svg11.dtd">
<svg version="1.1" xmlns="http://www.w3.org/2000/svg" xmlns:xlink="http://www.w3.org/1999/xlink" x="0px" y="0px" width="100px"
	 height="100px" viewBox="0 0 100 100" style="enable-background:new 0 0 100 100;" xml:space="preserve">
<g id="SL">
	<g>
		<path style="fill:#010101;" d="M47.488,0c4.454,0.236,9.766,0.14,14.563,0.14c2.666,0,5.596-0.227,7.387,0.558
			C69.84,1.585,69.74,3.2,70.206,4.076c1.522,0.511,4.524,3.08,5.263,4.358c0.207,0.742,0.415,1.486,0.626,2.228
			c0.251,0.452,0.949,0.57,1.255,1.012c0.227,0.333,0.21,0.824,0.418,1.148c0.3,0.199,0.603,0.397,0.905,0.593
			c0.198,0.359,0.396,0.721,0.594,1.08c0.021,0.22,0.044,0.442,0.068,0.662c0.197,0.139,0.396,0.279,0.592,0.418
			c0.386,0.541-0.184,1.592,0,2.37c0.126,0.527,0.93,0.622,1.256,0.976c-0.035,0.244-0.071,0.487-0.104,0.733
			c0.104,0.045,0.208,0.092,0.312,0.137c0.94-1.049,3.995,2.361,4.494,2.928c-0.014,0.633-0.399,1.134-0.52,1.638
			c0.057,0.291,0.112,0.581,0.172,0.872c-0.241,0.196-1.756,1.328-1.812,1.498c-0.01,0.487-0.023,0.976-0.033,1.463
			c-0.161,0.418-0.439,0.894-0.313,1.463c0.044,0.035,0.092,0.071,0.14,0.106c0.812,0,1.625,0,2.438,0
			c0.175,0.104,0.351,0.208,0.523,0.312c0.688,0.177,1.469-0.127,1.951,0.175c0.183,1.068-0.399,2.42-0.593,3.346
			c-0.119,0.562,0.175,0.681,0.278,1.009c-0.033,0.234-0.068,0.465-0.104,0.697c-0.1,0.669,0.062,2.212,0.245,2.789
			c0.189,0.605,0.804,0.881,1.114,1.394c0.197,0.329,0.195,0.66,0.417,0.94c0.185,0.116,0.375,0.231,0.559,0.348
			c0.24,0.375,0.08,0.728,0.453,1.011c0.507,0.385,1.735,0.745,1.291,1.812c-0.43,0.475-0.861,0.953-1.291,1.427
			c-0.245,0-0.487,0-0.732,0c-0.486,0.21-0.977,0.418-1.465,0.628c-0.01,0.012-0.024,0.024-0.033,0.033
			c-0.012,0.012-0.024,0.023-0.035,0.036c-0.268,0.335-0.447,0.924-0.697,1.29c-0.194,0.284-0.524,0.312-0.695,0.662
			c-0.023,0.024-0.047,0.047-0.071,0.069c-0.132,0.449,0.109,0.995-0.104,1.326c-0.185,0.286-0.553,0.319-0.699,0.661
			c0.062,0.374,0.118,2.398-0.033,2.649c-0.335,0.558-2.803,1.593-2.057,2.718c0.058,0.033,0.116,0.068,0.176,0.104
			c0.357-0.185,0.284-0.786,0.626-1.011c0.366-0.238,2.909-0.486,3.311-0.243c0.208,0.278,0.419,0.557,0.629,0.836
			c0.867-0.007,3.853-2.581,4.181-3.205c0.023-0.186,0.046-0.372,0.068-0.56c0.093-0.21,1.22-2.139,1.361-2.229
			c0.244-0.158,2.392-0.515,2.786-0.279c0.579,0.345,1.669,1.404,1.288,2.543c-0.148,0.453-0.567,0.814-0.661,1.358
			c-0.175,1.002-0.005,1.751-0.279,2.51c-0.22,0.418-0.439,0.837-0.662,1.255c-0.09,0.624,0.459,1.054,0.63,1.462
			c0.4,0.974-0.733,2.258-1.149,2.579c-0.288,0.22-0.927,0.668-1.5,0.523c-0.135-0.035-0.234-0.202-0.489-0.139
			c-0.326,0.078-0.983,0.352-1.499,0.207c-0.651-0.184-1.56-0.356-2.193,0.105c-0.014,0.011-0.022,0.023-0.034,0.035
			c-0.672,0.633-1.058,1.899-1.743,2.613c-0.336,0.346-1.016,0.479-1.15,1.009c-0.013,2.649-0.023,5.298-0.035,7.947
			c-0.233,0.369-0.724,0.251-1.185,0.418c-0.758,0.274-1.812,0.78-2.299,1.359c-0.98,1.162-1.626,2.552-2.581,3.762
			c-0.184,0.104-0.371,0.21-0.557,0.314c-0.627,0.694-0.892,1.545-1.636,2.124c-0.401,0.314-0.983,0.792-1.535,0.908
			c-0.568,0.117-0.597-0.436-1.393,0.139c-0.65,0.591-1.303,1.184-1.95,1.776c-1.004,0.676-1.937,1.28-2.93,1.984
			c-0.737,0.529-0.894,1.162-1.392,1.951c-0.278,0.199-0.56,0.397-0.837,0.597c-0.258,0.372-0.193,0.869-0.453,1.285
			c-0.177,0.288-3.074,1.206-3.623,1.569c-0.754,0.502-0.38,1.092-0.769,1.706c-0.167,0.271-0.615,0.374-0.904,0.525
			c-0.113,0.586,0.591,0.936,0.312,1.635c-0.158,0.406-0.821,0.364-0.973,0.771c-0.013,0.303-0.023,0.604-0.036,0.902
			c-0.22,0.454-0.441,0.908-0.664,1.361c-0.3,0.288-0.603,0.581-0.902,0.87c-0.168,0.345,0.085,0.775-0.071,1.152
			c-1.687,0.983-4.405-0.192-5.681-0.907c0.082-0.245,0.165-0.486,0.246-0.731c-0.035-0.024-0.071-0.048-0.104-0.071
			c-0.339,0.062-0.676,0.117-1.012,0.175c-0.14-0.151-0.278-0.303-0.419-0.454c-0.011-0.208-0.023-0.416-0.035-0.623
			c-0.732-0.516-1.465-1.026-2.195-1.537c-2.469-1.876-5.406-3.171-8.675-4.287c-0.616-0.312-1.233-0.624-1.848-0.939
			c-0.955-0.336-1.995-0.247-2.821-0.592c-0.49-0.279-0.977-0.558-1.465-0.836c-1.997-0.813-3.994-1.626-5.993-2.439
			c-1.626-0.534-3.252-1.067-4.878-1.602c-0.012-0.015-0.023-0.024-0.036-0.038c0.05-0.364,0.301-0.501,0.49-0.728
			c0.538,0.113,1.186-0.076,1.739,0.065c0.283,0.076,1.643,0.832,1.919,0.279c-0.012-0.009-0.023-0.023-0.035-0.033
			c-0.338-0.175-0.674-0.35-1.01-0.523c-1.184-0.382-2.25,0.084-2.824-0.869c0.119-0.579,1.635-2.663,1.987-2.824
			c0.572-0.262,1.272,0.177,1.777,0.104c0.324-0.104,0.647-0.208,0.974-0.312c0.676-0.035,1.348-0.071,2.023-0.106
			c0.377-0.111,0.625-0.326,1.148-0.418c0.319-0.702,0.768-0.771,1.673-0.905c0.033-0.068,0.071-0.139,0.104-0.208
			c-0.033-0.184-0.05-0.175-0.14-0.279c-0.57,0.022-1.333-0.094-1.674-0.104c-0.373,0.439-1.004,0.958-1.67,1.077
			c-0.361-0.01-0.723-0.021-1.082-0.032c-0.288,0.207-0.581,0.419-0.87,0.626c-2.42,0.857-4.154-0.979-4.461-2.718
			c-0.069-0.012-0.137-0.023-0.208-0.035c-0.151,0.238-0.396,0.298-0.765,0.21c-0.199-0.243-0.396-0.488-0.593-0.731
			c0.178-1.556,1.194-1.813,1.742-2.893c0.223,0.07,0.442,0.139,0.662,0.21c0.187-0.409,0.406-1.992,0.315-2.162
			c-0.977-0.131-1.01,0.9-1.36,1.533c-0.514,0.932-1.882,2.025-3.171,2.127c-0.089-0.123-0.104-0.158-0.279-0.211
			c-0.477,0.619-0.865-0.543-1.777-0.382c-0.243,0.042-0.316,0.328-0.628,0.278c-0.733-0.116-3.296-2.049-3.448-2.718
			c-0.262-1.153,1.165-1.293,1.463-1.916c-0.01-0.012-0.024-0.023-0.033-0.035c-1.044,0.062-1.593,1.108-2.438,1.29
			c-0.728,0.154-1.915-1.097-2.127-1.534c-0.123-0.25-0.005-0.539-0.104-0.731c-0.695,0.023-0.884-0.129-1.257-0.384
			c-0.215-0.681-0.118-0.974,0.21-1.43c1.352-1.873,2.475,0.203,3.207-0.172C15.9,66.154,14.418,66.216,14,65.474
			c-0.009-0.162-0.021-0.325-0.033-0.488c-0.09-0.391-0.407-0.861-0.662-1.114c-0.01-0.914,0.548-1.606,0.801-2.301
			c-0.012-0.01-0.023-0.021-0.035-0.033c-0.243-0.013-0.487-0.023-0.732-0.036c-0.293-0.188-0.787-1.391-1.044-1.741
			c-0.395-0.397-0.79-0.792-1.187-1.187c0-0.475,0-0.951,0-1.427c-0.033-0.023-0.068-0.048-0.104-0.07
			c-0.754,0.022-1.507,0.047-2.264,0.07c-0.085,0.22-0.203,0.409-0.383,0.521c-0.222,0.036-0.442,0.071-0.662,0.105
			c-0.664,0.264-1.352,1.277-2.16,1.15c-0.038-0.048-0.071-0.093-0.106-0.141c-0.002-1.895-0.308-3.574-1.08-4.808
			c-1.144-0.278-1.273-1.328-1.848-2.16c-0.312-0.303-0.626-0.605-0.94-0.907c0.014-0.522,0.25-0.674,0.349-0.974
			c0.236-0.721-0.67-0.913-0.246-1.604c0.312-0.501,1.163-0.104,1.569-0.036c0.246-0.021,0.487-0.045,0.732-0.069
			c1.342,0.329,1.668,1.437,2.613,2.091c0.034-0.012,0.069-0.023,0.104-0.036c-0.01-0.283-0.114-0.704,0.035-0.907
			c0.021-0.01,0.045-0.021,0.069-0.033c0.314-0.291,0.628-0.582,0.94-0.872c0.331-0.231,0.732-0.212,1.047-0.454
			c0.293-0.223,1.281-1.562,1.496-1.638c0.302,0,0.605,0,0.907,0c1.352,0,2.467,0.366,3.346-0.139
			c-0.014-0.034-0.024-0.069-0.035-0.104c-0.442,0-0.881,0-1.326,0c-0.09-0.104-0.184-0.208-0.276-0.312
			c0.47-0.976,1.401-1.598,1.533-2.963c-0.014,0-0.023,0-0.038,0c-0.01,0-0.021,0-0.033,0c-0.558,0.789-0.99,2.136-1.985,2.438
			c-0.804-0.012-1.604-0.021-2.406-0.035c-0.56,0.161-0.548,0.751-1.29,0.803c-0.22-0.104-0.354-0.185-0.383-0.489
			c0.118-0.208,0.231-0.418,0.35-0.626c0.416-0.574,1.163-0.511,1.219-1.499c-0.187-0.146-0.407-0.302-0.697-0.245
			c-0.21,0.531-0.21,1.122-0.768,1.325c-0.959-0.109-1.541-1.163-2.507-1.463c-0.024,0.021-0.047,0.045-0.068,0.068
			c0,0.083,0,0.163,0,0.244c0.345,0.326,0.694,0.652,1.044,0.976c-0.104,0.732,0.198,0.463,0.73,0.768
			c0.337,1.396-0.404,0.9-0.801,1.637c-0.359,0.667,0.063,1.156-0.974,1.253c-0.236-0.142-0.61-0.284-0.732-0.522
			c-0.445-0.846-0.615-1.536-0.979-2.474c-0.293-0.766-1.063-1.38-1.252-2.264c-0.201-0.934,0.212-1.257,0.35-1.673
			c0.161-0.489-0.286-0.789-0.35-1.219c-0.26-1.749,0.314-2.84,1.291-3.45c0.704-0.439,1.028,0.56,1.531,0.626
			c0.51-0.045,1.023-0.092,1.534-0.137c0.418,0.01,0.836,0.024,1.255,0.033c0.742-0.104,1.489-0.208,2.23-0.312
			c0.024-0.036,0.047-0.071,0.069-0.106c-0.012-0.092-0.021-0.185-0.036-0.279c-0.009-0.011-0.023-0.021-0.033-0.033
			c-0.406-0.012-0.812-0.024-1.219-0.036c-0.293,0.08-0.582,0.163-0.872,0.243c-0.151-0.08-0.302-0.163-0.451-0.243
			c-0.943,0.111-0.884,0.891-1.919,0c-0.184-0.175-0.371-0.35-0.558-0.522c0.393-0.979,1.995-0.787,2.543-1.569
			c-0.021-0.023-0.045-0.045-0.066-0.068c-0.43-0.012-0.86-0.024-1.29-0.035c-0.374,0.302-0.745,0.604-1.115,0.904
			c-1.243,0.608-2.07-0.85-2.335-1.462c-0.172,0.106-0.213,0.18-0.418,0.175c-0.087-0.142-0.063-0.146-0.279-0.175
			c-0.132,0.194-0.229,0.271-0.558,0.279c-0.877-0.492-0.276-1.071-0.522-2.124c-0.104-0.163-0.208-0.326-0.314-0.489
			c0.399-1.333,1.472-1.267,2.857-1.638c0.319-0.085,0.536-0.558,1.012-0.383c0.784,0.291,1.24,1.825,2.403,1.638
			c0.737-0.118,0.938-0.919,1.429-1.29c0.312-0.237,0.974-0.104,1.323-0.348c0.012-0.012,0.024-0.024,0.036-0.036
			c0.267-0.227,0.626-0.872,0.73-1.219c0.015-0.175,0.023-0.348,0.038-0.522c0.359-0.407,0.719-0.813,1.078-1.22
			c-0.081-0.409-0.341-0.406-0.383-0.872c0.491-0.942,0.319-2.072,1.394-2.474c0.418-0.156,0.711-0.005,0.94,0.314
			c0.454-0.047,0.707-0.416,1.083-0.489c0.298-0.056,0.364,0.229,0.556,0.279c0.125,0.033,1.534-0.383,1.534-0.383
			c0.056-0.208,0.118-0.418,0.175-0.626c0.274-0.562,0.775-0.716,1.29-1.047c0.09-0.451,0.184-0.905,0.279-1.359
			c0.201-0.291,0.662-0.182,1.044-0.312c0.321-0.111,0.908-0.773,1.08-1.047c0.128-0.522,0.256-1.045,0.383-1.567
			c0.38-1.219,0.99-3.379,1.777-4.218c0.22,0.012,0.442,0.024,0.662,0.036c0.023-0.036,0.046-0.068,0.068-0.104
			c-0.031-1.089,0.512-3.081,1.222-3.311c0.21,0.012,0.418,0.023,0.625,0.036c0.185-0.326,0.326-0.591,0.629-0.801
			c-0.104-1.205,0.617-1.917,0.52-2.856c-0.035-0.379-0.298-0.622-0.416-0.908c0.023-0.057,0.046-0.116,0.07-0.175
			c0.312-0.081,0.626-0.161,0.94-0.244c0.335-0.243,0.671-0.487,1.01-0.73c0.278-0.142,0.777-0.239,1.011-0.314
			c1.014-0.324,1.979-0.113,3.032-0.454c0.454-0.146,2.156-0.749,2.646-0.558c0.407,0.158,0.657,0.86,0.873,1.219
			c0.231,0.012,0.465,0.023,0.697,0.035c0.482,0.149,0.869,0.603,1.569,0.697c1.072,0.149,3.261-0.744,4.216-0.976
			c1.106-0.27,2.339-0.284,3.239-0.766c0.021-0.652,0.045-1.302,0.069-1.952c0.047-0.035,0.094-0.071,0.142-0.104
			C46.629,0.024,47.057,0.012,47.488,0z"/>
		<path style="fill:#010101;" d="M3.374,34.775c0.522-0.019,0.721,0.073,1.012,0.244c0.111,0.498-0.234,0.742-0.697,0.768
			c-0.281-0.278-0.614-0.297-0.487-0.908C3.258,34.846,3.315,34.811,3.374,34.775z"/>
		<path style="fill:#010101;" d="M8.216,46.17c0.468,0,0.654,0,1.047,0.069c0.023,0.035,0.044,0.071,0.068,0.106
			c-0.01,0.128-0.024,0.255-0.033,0.383c-0.17,0.142-1.625,1.172-1.673,0.172C7.773,46.585,7.951,46.366,8.216,46.17z"/>
		<path style="fill:#010101;" d="M4.175,59.795c0.187,0.034,0.373,0.069,0.558,0.104c0.012,0.009,0.024,0.023,0.036,0.033
			c-0.087,0.926-0.815,1.51-1.219,2.23c-0.204,0.055-0.338,0.005-0.489-0.068C3.036,62.048,3.012,62,2.991,61.956
			C3.281,61.056,3.305,60.311,4.175,59.795z"/>
		<path style="fill:#010101;" d="M9.402,75.649c0.163,0.012,0.326,0.023,0.487,0.033c0.024,0.035,0.047,0.07,0.071,0.106
			c0.005,0.508-0.375,1.269-0.908,1.287c-0.231-0.127-0.482-0.297-0.52-0.625C8.733,76.122,9.078,75.859,9.402,75.649z"/>
		<path style="fill:#010101;" d="M20.657,76.276c0.824-0.022,2.635-0.223,2.996,0.278c0.168,0.23,0.123,0.704,0.173,1.044
			c0.037,0.023,0.07,0.048,0.105,0.071c0.188-0.14,0.372-0.278,0.558-0.418c0.754-0.216,2.237,0.978,2.334,1.394
			c-0.023,0.279-0.045,0.558-0.068,0.837c0.071,0.411,0.251,0.949,0.137,1.394c-0.137,0.372-0.278,0.742-0.416,1.113
			c-0.118,0.095-0.234,0.187-0.35,0.278c0,0.28,0,0.559,0,0.837c0,1.277-0.435,1.764-1.673,1.533
			c-0.175-0.204-0.35-0.232-0.383-0.592c0.127-0.142,0.255-0.279,0.383-0.416c-0.033-1.416-1.702-1.717-2.789-2.092
			c-2.099-0.728-4.457-1.318-6.723-1.883c-0.894-0.223-2.382-0.189-2.893-0.73c0.012-0.116,0.021-0.233,0.036-0.35
			c0.383-0.169,0.69-0.229,1.148-0.278c0.056-0.304,0.118-0.604,0.175-0.905c0.227-0.301,3.126-0.895,3.833-0.767
			c0.435,0.076,0.69,0.44,1.253,0.312c0.188-0.104,0.373-0.208,0.558-0.312c0.269,0,0.534,0,0.803,0
			C20.123,76.507,20.39,76.391,20.657,76.276z"/>
		<path style="fill:#010101;" d="M11.528,77.566c0.081,0.022,0.161,0.045,0.244,0.068c0.383,0.721,0.078,0.806-0.489,1.322
			c-0.53,0.041-0.927-0.177-0.802-0.66C10.607,77.88,11.203,77.771,11.528,77.566z"/>
		<path style="fill:#010101;" d="M27.276,79.168c0.279,0.128,0.449,0.323,0.525,0.661c-0.064,0.263-0.146,0.396-0.454,0.418
			c-0.012-0.011-0.024-0.022-0.036-0.035C27.123,79.853,27.051,79.524,27.276,79.168z"/>
	</g>
</g>
<g id="Layer_1">
</g>
</svg>
