<?xml version="1.0" encoding="iso-8859-1"?>
<!-- Generator: Adobe Illustrator 16.0.3, SVG Export Plug-In . SVG Version: 6.00 Build 0)  -->
<!DOCTYPE svg PUBLIC "-//W3C//DTD SVG 1.1//EN" "http://www.w3.org/Graphics/SVG/1.1/DTD/svg11.dtd">
<svg version="1.1" xmlns="http://www.w3.org/2000/svg" xmlns:xlink="http://www.w3.org/1999/xlink" x="0px" y="0px" width="100px"
	 height="100px" viewBox="0 0 100 100" style="enable-background:new 0 0 100 100;" xml:space="preserve">
<g id="SN">
	<path style="fill:#010101;" d="M40.735,11.897c0.288,0.023,0.577,0.047,0.864,0.071c0.075,0.2,0.122,0.474,0.244,0.622
		c0.543,0,1.085,0,1.628,0c0.092,0.094,0.186,0.186,0.277,0.277c0.345,0.012,0.692,0.023,1.04,0.035
		c0.09,0.104,0.184,0.207,0.275,0.312c0,0,0.796-0.43,1.454-0.312c0.07,0.104,0.141,0.207,0.209,0.312
		c0.253-0.012,0.507-0.023,0.763-0.035c0.068-0.104,0.137-0.207,0.207-0.312c0.563,0.066,0.667,0.446,1.419,0.312
		c0.07-0.104,0.141-0.207,0.209-0.312c0.658,0.012,1.317,0.023,1.976,0.035c0.468,0.2,0.5,0.968,0.897,1.248
		c0.263,0.181,0.888,0.202,1.146,0.38c0.253,0.289,0.507,0.578,0.761,0.867c0.851,0.883,1.729,1.767,2.598,2.631
		c0.242,0.242,0.695,0.202,0.9,0.486c0.035,0.484,0.07,0.97,0.105,1.454c0.724,0.282,1.076,0.709,1.593,1.179
		c0.009,0.263,0.023,0.529,0.032,0.796c0.048,0.021,0.095,0.045,0.142,0.068c0.465-0.526,0.326-0.11,1.003-0.346
		c0.272-0.096,0.688-0.47,0.97-0.589c0.122,0.209,0.272,0.27,0.451,0.416c0.01,0.254,0.023,0.508,0.033,0.761
		c0.035,0.023,0.07,0.047,0.104,0.07c0.587-0.007,1.193-0.383,1.595-0.589c0.045,0.023,0.092,0.047,0.139,0.07
		c0.31,0.245,0.808,0.144,1.315,0.242c0.282,0.552,1.038,0.811,1.628,1.038c0.082,0.357,0.251,0.5,0.348,0.729
		c0.021,0.345,0.045,0.693,0.068,1.038c0.174,0.059,0.348,0.115,0.521,0.174c0.403,0.726,0.719,1.593,1.038,2.356
		c0.023,0.369,0.047,0.738,0.068,1.109c0.324,0.265,0.646,0.531,0.97,0.796c-0.012,0.265-0.023,0.531-0.033,0.796
		c-0.105,0.068-0.209,0.138-0.314,0.207c0.047,0.07,0.094,0.139,0.141,0.209c1.123-0.017,2.298,0.397,2.457,1.28
		c0.155,0.836-0.817,0.583,0.174,1.283c0.451-0.214,0.982-0.407,1.696-0.242c0.105,0.261-0.019,0.73,0.105,1.074
		c0.104,0.091,0.209,0.186,0.312,0.277c0.012,0.369,0.023,0.738,0.033,1.109c0.503,0.266,0.935,0.587,1.526,0.829
		c0.193,0.754-0.183,1.015-0.592,1.353c0.015,0.139,0.023,0.275,0.038,0.416c0.032,0.021,0.068,0.044,0.104,0.068
		c0.356,0.023,0.714,0.047,1.073,0.071c0.035,0.277,0.068,0.552,0.104,0.829c0.157,0.439,1.247,1.06,1.834,1.076
		c0.095-0.094,0.188-0.186,0.277-0.277c0.023,0,0.047,0,0.07,0c0.391,0.636,2.373,1.759,3.082,2.25
		c0.406,0.282,0.102,1.25,0.381,1.663c0.846,0.738,1.687,1.478,2.529,2.218c0.731,0.597,2.448,1.52,2.216,2.873
		c-0.916,0.446-1.315,2.5-0.517,3.362c0.46-0.008,0.403,0.172,0.657,0.277c0.74,0.308,0.733,0.359,0.864,1.279
		c0.456,0.158,0.944,0.242,1.283,0.52c0.07,0.961,1.059,1.832,0.657,2.91c-0.104,0.092-0.206,0.186-0.312,0.277
		c0,0.289,0,0.578,0,0.867c-0.065,0.324-0.526,0.608-0.312,1.212c0.16,0.439,1.026,0.964,1.25,1.593
		c0.535,1.527-1.569,2.711-2.218,3.221c0.62,1.414,1.485,2.922,2.666,3.777c0.139,0.012,0.277,0.021,0.416,0.033
		c0.15,0.15,0.301,0.3,0.451,0.45c-0.033,0.56-0.399,0.69-0.277,1.386c0.404,0.17,0.71,0.438,1.212,0.346
		c0.048-0.277,0.095-0.555,0.139-0.829c0.15-0.127,0.299-0.257,0.449-0.383c0.087-0.03,1.645,0.284,1.976,0.348
		c0.072,0.202,0.119,0.441,0.241,0.587c0.15,0.012,0.301,0.023,0.451,0.035c0.127,0.15,0.254,0.301,0.381,0.451
		c0.023,0.254,0.047,0.508,0.07,0.762c0.195,0.174,0.393,0.348,0.587,0.519c-0.009,0.395-0.023,0.787-0.032,1.18
		c0.052,0.281,0.216,0.3,0.31,0.519c-0.15,0.08-0.204,0.11-0.277,0.277c0.174,0.366,1.302,0.978,1.664,1.28
		c-0.08,1.057,0.521,1.247,1.212,1.628c0.244,0.899-0.207,1.247-0.623,1.595c0.021,0.393,0.045,0.785,0.068,1.177
		c0.094,0.07,0.186,0.139,0.277,0.209c0.152,0.454-0.357,0.388-0.311,0.693c0.038,0.244,0.346,0.199,0.277,0.657
		c-0.348,0.172-0.749,0.578-0.901,0.936c0.408,0.617,0.164,1.435,0.312,2.355c0.411,0.212,0.576,0.58,0.9,0.865
		c-0.376,1.498-1.88,1.486-3.707,1.489c-0.425,0-0.855,0-1.28,0c-0.092,0.105-0.186,0.209-0.277,0.312
		c-1.08,0.414-1.919,0.51-2.979,0c-0.105,0.092-0.209,0.187-0.312,0.277c-0.281-0.171-0.742-0.345-0.97-0.589
		c-0.381,0.171-1.534,0.605-2.318,0.312c-0.15-0.056-0.139-0.319-0.348-0.312c-0.269,0.009-1.499,1.052-1.802,1.247
		c-0.486,0.012-0.971,0.023-1.454,0.035c-0.094,0.104-0.186,0.207-0.277,0.312c-0.578,0-1.156,0-1.733,0
		c-0.104-0.204-0.371-0.752-0.517-0.938c-0.72,0-0.978-0.625-1.734-0.346c-0.45,0.167-0.373,0.475-1.315,0.312
		c-0.277-0.336-0.554-0.669-0.831-1.005c-0.578-0.012-1.156-0.023-1.733-0.035c-0.195-0.195-0.391-0.393-0.588-0.588
		c-0.597-0.263-0.681-0.032-1.142-0.45c-0.014-0.15-0.023-0.301-0.037-0.451c-0.348-0.132-0.524-0.284-0.794-0.416
		c-0.456,0.209-0.348,0.637-0.625,1.006c-0.682-0.023-1.362-0.048-2.044-0.071c-0.139-0.336-0.563-0.869-0.38-1.383
		c0.105-0.301,0.343-0.555,0.276-1.076c-0.035-0.021-0.07-0.045-0.103-0.068c-0.715,0.017-0.954-0.147-1.354-0.348
		c-0.037,0.017-2.485,0.155-2.943-0.032c-0.092-0.095-0.186-0.187-0.277-0.277c-1.294-0.012-2.586-0.023-3.878-0.035
		c-0.799,0-1.595,0-2.392,0c-0.092-0.092-0.183-0.184-0.277-0.277c-0.69,0-1.386,0-2.076,0c-1.76,0-3.674,0.03-5.06-0.346
		c-0.762,0-1.522,0-2.286,0c-2.088,0-4.722,0.165-6.476-0.312c-1.166,0-2.333,0-3.5,0c-1.661-0.023-3.324-0.047-4.985-0.068
		c-0.66,0.346-1.317,0.693-1.978,1.039c-0.979,0.483-1.962,0.97-2.941,1.454c-0.984,0.563-2.104,1.324-3.293,1.592
		c0,0-4.444-0.054-4.571-0.103c-0.07-0.104-0.139-0.207-0.207-0.311c-0.306-0.211-1.99-0.74-2.462-0.66
		c-0.066,0.105-0.136,0.209-0.207,0.312c-0.587,0.012-1.177,0.023-1.767,0.035c-0.437,0.279-0.987,0.62-1.419,0.899
		c-0.174,0.024-0.348,0.048-0.521,0.071c-0.195,0.194-0.39,0.392-0.587,0.587c-0.644,0.244-1.715-0.021-2.253-0.104
		c-2.126-0.321-3.028,0.038-4.155-1.351c-0.216-0.266-0.559-0.597-0.381-1.247c0.16-0.588,0.766-0.939,0.9-1.663
		c-0.23-0.148-0.463-0.299-0.693-0.449c-0.132-0.277-0.094-1.339,0.033-1.56c0.409-0.298,0.836-0.505,1.214-0.796
		c0-0.035,0-0.07,0-0.104c-0.012-0.012-0.023-0.023-0.035-0.035c-0.378,0.009-0.785,0.061-1.038-0.035
		c-0.667-1.125,0.263-1.785,0.451-2.596c0-0.312,0-0.625,0-0.938c0.221-1.578,0.169-3.002,1.386-3.636
		c4.881,0.162,9.767,0.324,14.648,0.486c0.023-0.023,0.047-0.048,0.07-0.071c-0.009-0.933-0.293-2.292,0-3.081
		c0.451-0.024,0.902-0.048,1.353-0.071c0.249-0.089,0.644-0.533,1.245-0.312c0.202,0.075,0.232,0.468,0.693,0.312
		c0.271-0.089,2.058-0.989,2.218-0.935c0.068,0.092,0.139,0.184,0.209,0.277c0.343,0.228,2.368,0.923,3.082,0.657
		c0.067-0.091,0.136-0.186,0.206-0.276c1.109-0.905,0.197-0.596,0.625-1.803c0.217-0.61,1.203-2.01,2.218-1.801
		c0.834,0.176,1.386,1.475,2.044,1.906c0.38,0.25,0.935,0.184,1.383,0.381c0.092,0.104,0.186,0.207,0.277,0.312
		c0.242,0,0.486,0,0.727,0c0.094,0.104,0.186,0.207,0.276,0.311c0.336,0.012,0.672,0.023,1.006,0.035
		c0.521,0.531,1.038,1.062,1.56,1.592c0.78,0.28,1.01-0.41,1.8-0.276c0.481,0.848,0.784,0.796,1.939,0.97
		c0.17,0.326,1.396,1.478,1.94,1.283c0.217-0.078,0.367-0.503,0.902-0.312c0.092,0.104,0.184,0.209,0.277,0.312
		c0.483-0.012,0.968-0.023,1.451-0.035c0.207-0.371,0.952-0.879,1.387-0.971c0.395,0,0.784,0,1.179,0
		c0.232-0.082,0.23-0.291,0.625-0.312c0.644,0,1.292,0,1.938,0c0.355-0.134,0.336-0.439,0.486-0.829
		c0.104-0.094,0.207-0.186,0.311-0.279c0.122-0.353-0.306-0.996-0.451-1.177c-0.15-0.012-0.301-0.023-0.448-0.035
		c-0.322-0.66-0.942-1.741-1.94-1.558c-0.068,0.103-0.139,0.206-0.209,0.312c-1.367-0.014-1.88,0.442-3.082,0.658
		c-0.247,0.482-0.381,0.411-0.936,0.623c-0.091,0.105-0.183,0.209-0.276,0.312c-1.612,0.704-3.552-1.008-3.984-1.699
		c-0.023-0.356-0.045-0.714-0.068-1.073c-0.266-0.265-0.533-0.53-0.796-0.796c-0.463,0-0.926,0-1.386,0
		c-0.071,0.092-0.139,0.186-0.207,0.277c-0.486,0.333-1.28,0.488-2.114,0.348c-0.221-0.266-0.437-0.533-0.657-0.799
		c-0.012-0.449-0.024-0.9-0.036-1.352c-0.38-0.356-0.763-0.716-1.144-1.072c-0.844-0.312-1.175,0.441-1.8,0.312
		c-0.385-0.08-0.941-0.82-1.489-0.625c-0.094,0.105-0.186,0.209-0.276,0.312c-0.23,0-0.463,0-0.693,0
		c-0.538,0.201-0.871,0.756-1.698,0.624c-0.068-0.105-0.137-0.209-0.207-0.312c-0.692,0.012-1.386,0.023-2.079,0.035
		c-0.232,0.438-0.744,0.643-1.003,1.037c-0.023,0.162-0.047,0.324-0.07,0.486c-0.104,0.068-0.206,0.137-0.312,0.207
		c-0.146,0.379,0.134,0.775-0.139,1.006c-4.571-0.082-9.142-0.162-13.716-0.244c-1.28-0.172-3.777,0.31-4.642-0.242
		c-0.425-1.118,1.158-1.654,1.318-2.91c-0.059-0.021-0.117-0.045-0.174-0.068c-0.014,0.023-0.023,0.047-0.035,0.068
		c-0.646,0.48-0.693,1.391-1.87,1.491c-0.071-0.047-0.139-0.095-0.209-0.139c-0.348-1.257,0.287-2.502,1.56-2.704
		c0.226,0.127,0.265,0.297,0.519,0.312c0.012-0.023,0.021-0.047,0.035-0.068c0.023-0.692,0.045-1.385,0.068-2.078
		c-0.045,0-0.092,0-0.139,0c-0.207,0.975-1.969,2.293-2.84,2.562c-0.883-0.446-1.264-1.75-1.074-3.082
		c0.69-0.453,1.896-0.378,2.631-0.867c1.123-0.739,1.398-1.968,3.152-2.182c-0.009-0.057-0.023-0.115-0.033-0.174
		c-0.693-0.021-0.62-0.284-1.005-0.484c-0.012,0.012-0.023,0.023-0.033,0.035c-0.141,0.64-2.546,2.848-3.396,2.563
		c-0.293-0.099-0.319-0.458-0.658-0.555c-0.012,0.047-0.023,0.092-0.033,0.139c-0.136,0.362-0.385,1.264-1.005,0.831
		c-0.188-0.251,0.047-0.697-0.104-1.04c-0.104-0.08-0.209-0.159-0.312-0.242c0-0.265,0-0.53,0-0.796
		c-0.324-0.254-0.646-0.508-0.97-0.762c-0.475-0.578-0.089-0.873-0.348-1.456c-0.146-0.324-0.698-0.667-0.968-0.899
		c-0.012-0.59-0.023-1.177-0.035-1.767c-0.275-0.162-0.477-0.58-0.728-0.693c-0.526-0.24-0.796,0.012-1.177-0.416
		c-0.305-0.34-0.202-0.62-0.38-1.144c-0.268-0.787-0.719-1.351-0.973-2.286c-0.705-0.322-3.626-1.9-3.878-2.459
		c0.07-0.162,0.139-0.322,0.209-0.484c0.735-0.172,4.463-1.734,4.674-2.114c0.024-0.15,0.047-0.298,0.071-0.449
		c0.197-0.174,0.392-0.348,0.587-0.519c0.037-0.162,0.07-0.324,0.103-0.486c0.15-0.023,0.301-0.047,0.451-0.068
		c0.747-0.387,1.503-1.898,2.079-2.565c0.312-0.254,0.623-0.507,0.935-0.761c0.023-0.162,0.047-0.324,0.07-0.484
		c0.251-0.364,0.731-0.766,0.935-1.179c0.023-0.15,0.045-0.298,0.068-0.449c0.186-0.186,0.371-0.371,0.554-0.554
		c0.023-0.15,0.047-0.301,0.07-0.451c0.197-0.174,0.393-0.345,0.587-0.519c0.023-0.15,0.047-0.301,0.07-0.451
		c0.211-0.289,0.743-0.531,0.902-0.867c0.176-0.375,0.197-0.749,0.413-1.073c0.118-0.174,0.51-0.383,0.59-0.555
		c0.023-0.253,0.047-0.507,0.068-0.761c0.423-0.672,1.137-1.13,1.56-1.87c-0.104-0.127-0.207-0.253-0.31-0.38
		c0.023-0.423,0.218-0.31,0.31-0.554c0-0.428,0-0.855,0-1.283c0.146-0.735,1.076-3.859,1.457-4.294
		c0.178-0.211,0.488-0.045,0.726-0.209c0.127-0.087,0.284-0.338,0.416-0.451c0.012-0.437,0.023-0.876,0.035-1.315
		c0.054-0.155,0.592-0.893,0.623-0.97c0.352-0.9,0.298-2.265,1.038-2.737c0.602-0.021,1.203-0.044,1.804-0.068
		c0.709-1.438,1.94,0.099,2.457,0.693c0.526-0.009,0.451-0.209,0.728-0.312c0.864,0,1.733,0,2.598,0
		c0.091,0.104,0.183,0.207,0.277,0.312c0.286,0,0.578,0,0.864,0c0.141,0.104,0.277,0.207,0.418,0.31
		c0.484-0.009,0.968-0.021,1.455-0.033c0.072-0.202,0.119-0.442,0.241-0.59c0.578-0.012,1.156-0.023,1.731-0.035
		c0.444-1.311,1.377-1.247,2.149-0.31c0.508-0.014,0.413-0.19,0.69-0.312c0.566,0,1.133,0,1.698,0
		c0.068,0.104,0.139,0.207,0.209,0.312c0.045-0.012,0.09-0.023,0.137-0.035c0.385-0.771,1.02-0.247,1.663-0.348
		c0.023-0.033,0.047-0.068,0.07-0.104c-0.03-0.832,0.015-1.062,0.413-1.489c0.15,0.012,0.301,0.023,0.451,0.035
		c0.174,0.207,0.348,0.416,0.521,0.623c0.045-0.012,0.09-0.021,0.137-0.035C40.166,12.553,40.435,12.05,40.735,11.897z"/>
</g>
<g id="Layer_1">
</g>
</svg>
