<?xml version="1.0" encoding="iso-8859-1"?>
<!-- Generator: Adobe Illustrator 16.0.3, SVG Export Plug-In . SVG Version: 6.00 Build 0)  -->
<!DOCTYPE svg PUBLIC "-//W3C//DTD SVG 1.1//EN" "http://www.w3.org/Graphics/SVG/1.1/DTD/svg11.dtd">
<svg version="1.1" xmlns="http://www.w3.org/2000/svg" xmlns:xlink="http://www.w3.org/1999/xlink" x="0px" y="0px" width="100px"
	 height="100px" viewBox="0 0 100 100" style="enable-background:new 0 0 100 100;" xml:space="preserve">
<g id="SY">
	<path d="M5.063,82.789c2.411,1.207,6.672,4.664,8.281,5.869c1.607,1.206,3.134,0,6.269-1.366c3.136-1.367,9.647-5.145,13.265-6.591
		c3.617-1.448,12.782-6.191,12.782-6.191s7.395-3.428,14.468-7.071c7.075-3.646,8.575-5.684,10.504-6.218
		c1.931-0.536,2.145-0.644,3.859-1.394c1.715-0.749,4.822-1.499,4.931-3.644c0.107-2.145,0.644-3.537,1.929-5.253
		c1.287-1.713,0.642-2.037,0.214-4.501c-0.428-2.464,0.321-3.965,1.287-5.894c0.963-1.929,2.036-4.179,1.285-6.538
		c-0.75-2.358-1.607-3.858-1.607-5.787c0-1.931,1.501-4.075,1.715-4.717c0.214-0.645,1.823-1.179,3.108-1.071
		c1.287,0.106,3.537,0.104,4.608-1.073c1.073-1.179,3.859-2.786,5.145-3.43c1.287-0.644,2.895-1.929,2.895-1.929
		s-1.285-1.609-1.929-2.36c-0.644-0.748-1.501-2.357-1.501-2.357v-0.428c0,0-4.18,1.071-7.503,1.713
		c-3.322,0.645-5.465,1.287-6.002,1.287c-0.536,0-2.037,0.642-3.644,0.43c-1.607-0.214-3.324-1.179-6.11-0.214
		c-2.786,0.963-4.715,2.035-8.146,2.786c-3.43,0.751-7.715,0.963-10.609,0.963c-2.894,0-5.468-0.429-8.254-1.607
		c-2.786-1.179-3.43-0.214-4.823-0.214c-1.393,0-3.644,0.32-5.145-0.108c-1.501-0.428-2.894,0.106-3.857,0.965
		c-0.966,0.857-2.572,1.071-3.752,0.642c-1.181-0.428-4.074-1.713-5.36-2.465c-1.285-0.75-3.214-1.073-3.751,1.393
		c-0.536,2.466-0.32,4.931,0.107,6.004c0.43,1.071,1.501,1.929,0.322,2.678c-1.18,0.75-2.358-0.536-3.538,0.75
		c-1.179,1.287-2.037,2.894-3.108,3.216c-1.072,0.322-2.251,0.75-2.787,1.287c-0.536,0.536-1.715,0.642-2.466-0.107
		c-0.75-0.75-1.394-1.178-1.821,0.536c-0.43,1.715-0.43,1.608-0.536,2.358c-0.108,0.75,0.536,1.93,1.178,2.464
		c0.643,0.536,1.608,0.859,1.608,2.896c0,2.035,0.214,1.713-0.857,3.428c-1.073,1.715-1.823,1.395-0.965,3.002
		c0.857,1.609,1.073,2.25,1.073,3.322c0,1.073,0,1.073,0,1.073s1.929,1.177,3.43,1.605c1.5,0.431,2.786,1.179,4.18,2.251
		c1.393,1.071,1.393,3.646,1.393,4.396c0,0.749-0.322,1.501-1.607,2.572c-1.287,1.071-2.252,1.608-2.572,2.786
		c-0.322,1.179-1.073,0.859-2.358,0.965c-1.287,0.108-3.216,0.536-3.216,1.715c0,1.18,0.32,2.787-0.75,3.752
		C5.251,70.331,3,71.512,1.607,72.583S0,74.189,0,74.189s0.415-0.083,0.839,0.021c0.383,0.093,0.772,0.336,0.875,0.943
		c0.214,1.287-0.322,2.679-0.322,3.43c0,0.441,0,2.092,0,3.385C2.111,81.905,2.995,81.756,5.063,82.789z"/>
</g>
<g id="Layer_1">
</g>
</svg>
