<?xml version="1.0" encoding="iso-8859-1"?>
<!-- Generator: Adobe Illustrator 16.0.3, SVG Export Plug-In . SVG Version: 6.00 Build 0)  -->
<!DOCTYPE svg PUBLIC "-//W3C//DTD SVG 1.1//EN" "http://www.w3.org/Graphics/SVG/1.1/DTD/svg11.dtd">
<svg version="1.1" xmlns="http://www.w3.org/2000/svg" xmlns:xlink="http://www.w3.org/1999/xlink" x="0px" y="0px" width="100px"
	 height="100px" viewBox="0 0 100 100" style="enable-background:new 0 0 100 100;" xml:space="preserve">
<g id="TD">
	<path style="fill:#010101;" d="M82.309,24.923v23.385l-6.459,0.923l-0.924,3.384l-3.08,4v2.462l-0.92,1.231l-1.543,5.537v1.846
		l2.463-0.308l0.615,3.386l3.076,5.846l-1.23,1.539l-4.615,0.615l-1.23,3.999l-7.691,6.771l-8.615,1.231l0.307,2.153l-2.766,3.075
		l-5.539,0.616l-5.234,2.462l-1.847-1.847l-3.38,2.462l-4,0.308l-2.158-7.691l-4.309-2.462l-1.538-3.08l0.927-2.151l6.767-0.308
		l-3.077-6.153l0.619-5.847l-1.851-5.539l2.77-0.923l-0.308-3.076l-5.534-0.615l-1.23-3.385l-3.081-1.539l1.542-4.615l10.462-11.692
		l0.923-10.461l1.23-8.924l1.847-2.77l-4-2.768l-1.851-3.692V1.846L34,0L82.309,24.923z"/>
</g>
<g id="Layer_1">
</g>
</svg>
