<?xml version="1.0" encoding="iso-8859-1"?>
<!-- Generator: Adobe Illustrator 16.0.3, SVG Export Plug-In . SVG Version: 6.00 Build 0)  -->
<!DOCTYPE svg PUBLIC "-//W3C//DTD SVG 1.1//EN" "http://www.w3.org/Graphics/SVG/1.1/DTD/svg11.dtd">
<svg version="1.1" xmlns="http://www.w3.org/2000/svg" xmlns:xlink="http://www.w3.org/1999/xlink" x="0px" y="0px" width="100px"
	 height="100px" viewBox="0 0 100 100" style="enable-background:new 0 0 100 100;" xml:space="preserve">
<g id="TH">
	<g>
		<g>
			<g>
				<path style="fill:#010101;" d="M30.324,84.474c0.013-0.308,0.174-0.416,0.161-0.591c-0.013-0.176-0.27-0.147-0.323-0.337
					c-0.054-0.187-0.162-0.335-0.323-0.429s-0.269-0.094-0.214,0.147c0.053,0.242-0.015,0.201-0.015,0.523
					c0,0.323-0.013,0.296,0.054,0.443c0.067,0.148-0.133,0.31-0.133,0.471c0,0.162-0.054,0.578,0.026,0.807S29.88,85.765,30,85.603
					c0.122-0.161,0.484-0.189,0.417-0.564C30.35,84.662,30.324,84.474,30.324,84.474z"/>
				<path style="fill:#010101;" d="M31.708,83.977c-0.082-0.182-0.404-0.362-0.538-0.349s-0.053,0.336,0.054,0.402
					c0.107,0.067,0.16,0.242,0.146,0.443c-0.012,0.202,0.148,0.483,0.27,0.256C31.761,84.501,31.785,84.148,31.708,83.977z"/>
				<path style="fill:#010101;" d="M31.896,82.996c-0.198-0.142-0.229,0.107-0.283,0.322c-0.053,0.216-0.053,0.403,0.095,0.403
					c0.147,0,0.269-0.31,0.269-0.431C31.977,83.171,31.958,83.041,31.896,82.996z"/>
				<path style="fill:#010101;" d="M34.718,86.302c-0.135,0.01-0.471,0.296-0.337,0.699c0.135,0.402,0.364,0.671,0.457,0.59
					c0.095-0.08,0.162-0.281,0.068-0.429c-0.096-0.148-0.027-0.311,0.08-0.431c0.108-0.121,0.108-0.377,0-0.417
					S34.784,86.296,34.718,86.302z"/>
				<ellipse style="fill:#010101;" cx="31.042" cy="82.795" rx="0.114" ry="0.134"/>
				<ellipse style="fill:#010101;" cx="30.74" cy="84.05" rx="0.107" ry="0.116"/>
				<ellipse style="fill:#010101;" cx="30.142" cy="87.067" rx="0.128" ry="0.148"/>
				<ellipse style="fill:#010101;" cx="29.873" cy="87.738" rx="0.127" ry="0.122"/>
				<ellipse style="fill:#010101;" cx="32.406" cy="86.025" rx="0.175" ry="0.168"/>
				<circle style="fill:#010101;" cx="32.796" cy="85.75" r="0.121"/>
				<ellipse style="fill:#010101;" cx="33.837" cy="85.28" rx="0.128" ry="0.188"/>
				<ellipse style="fill:#010101;" cx="35.308" cy="87.705" rx="0.108" ry="0.114"/>
				<ellipse style="fill:#010101;" cx="36.094" cy="88.189" rx="0.101" ry="0.114"/>
				<circle style="fill:#010101;" cx="36.061" cy="88.693" r="0.134"/>
				<ellipse style="fill:#010101;" cx="36.968" cy="89.163" rx="0.208" ry="0.242"/>
				<ellipse style="fill:#010101;" cx="38.237" cy="90.131" rx="0.134" ry="0.148"/>
				<path style="fill:#010101;" d="M38.937,93.934c0.182-0.043,0.121-0.417,0.027-0.524c-0.094-0.107-0.041-0.295-0.041-0.483
					s-0.013-0.431-0.269-0.256s-0.282,0.698-0.242,0.847c0.04,0.147,0.134,0.322,0.228,0.363
					C38.735,93.92,38.863,93.95,38.937,93.934z"/>
				<path style="fill:#010101;" d="M40.952,93.986c-0.162,0.094,0.04,0.31,0.174,0.376c0.134,0.067,0.349,0.122,0.39-0.013
					c0.04-0.134,0-0.309-0.202-0.336S41.03,93.941,40.952,93.986z"/>
				<ellipse style="fill:#010101;" cx="36.82" cy="75.472" rx="0.195" ry="0.175"/>
				<ellipse style="fill:#010101;" cx="39.93" cy="70.078" rx="0.161" ry="0.247"/>
				<ellipse style="fill:#010101;" cx="38.634" cy="72.677" rx="0.128" ry="0.135"/>
				<ellipse style="fill:#010101;" cx="38.681" cy="73.47" rx="0.188" ry="0.162"/>
				<path style="fill:#010101;" d="M38.95,73.766c0.066,0.037,0.04,0.201-0.108,0.297c-0.148,0.093-0.215,0.214-0.282,0.093
					c-0.066-0.121-0.094-0.27,0.067-0.35S38.879,73.726,38.95,73.766z"/>
				<path style="fill:#010101;" d="M40.629,72.112c-0.208,0.117-0.041,0.403,0.175,0.551c0.215,0.148,0.659,0.444,0.779,0.215
					c0.121-0.228,0.041-0.47-0.228-0.686C41.085,71.979,40.789,72.023,40.629,72.112z"/>
				<path style="fill:#010101;" d="M40.831,74.692c0.191-0.021,0.43-0.148,0.497-0.323c0.068-0.174,0.242-0.281,0.336-0.47
					c0.095-0.188,0.148-0.39,0.014-0.416c-0.134-0.026-0.511,0.12-0.673,0.067c-0.16-0.054-0.685-0.054-0.752,0.147
					c-0.066,0.201,0,0.323,0.081,0.511c0.081,0.188,0.135,0.241,0.202,0.363C40.603,74.692,40.75,74.702,40.831,74.692z"/>
				<ellipse style="fill:#010101;" cx="36.201" cy="67.625" rx="0.155" ry="0.162"/>
				<ellipse style="fill:#010101;" cx="37.028" cy="67.471" rx="0.135" ry="0.142"/>
				<ellipse style="fill:#010101;" cx="41.307" cy="48.008" rx="0.128" ry="0.121"/>
				<ellipse style="fill:#010101;" cx="45.701" cy="49.373" rx="0.114" ry="0.127"/>
				<circle style="fill:#010101;" cx="44.868" cy="50.756" r="0.168"/>
				<ellipse style="fill:#010101;" cx="45.499" cy="52.268" rx="0.128" ry="0.121"/>
				<ellipse style="fill:#010101;" cx="46.809" cy="53.471" rx="0.121" ry="0.113"/>
				<ellipse style="fill:#010101;" cx="49.961" cy="53.376" rx="0.141" ry="0.154"/>
				<path style="fill:#010101;" d="M55.771,55.802c-0.242,0.09-0.121,0.617-0.013,0.833c0.107,0.215,0.174,0.376,0.416,0.51
					c0.241,0.134,0.322,0.282,0.416,0.202c0.095-0.081,0.067-0.377-0.107-0.726c-0.174-0.35-0.215-0.483-0.375-0.673
					C55.947,55.762,55.857,55.77,55.771,55.802z"/>
				<circle style="fill:#010101;" cx="57.216" cy="58.065" r="0.114"/>
				<ellipse style="fill:#010101;" cx="57.579" cy="58.005" rx="0.101" ry="0.08"/>
				<path style="fill:#010101;" d="M30.404,72.261c-0.175-0.014-0.254,0.08-0.309,0.229c-0.054,0.147-0.108,0.296-0.014,0.362
					c0.095,0.067,0.255-0.066,0.336-0.255C30.498,72.408,30.404,72.261,30.404,72.261z"/>
				<path style="fill:#010101;" d="M30.875,72.287c-0.114-0.039-0.269,0.148-0.269,0.296s0,0.256,0.107,0.256
					c0.107,0,0.201-0.041,0.269-0.229C31.049,72.422,30.955,72.314,30.875,72.287z"/>
				<path style="fill:#010101;" d="M30.028,74.048c-0.092-0.119-0.229,0.026-0.295,0.134c-0.067,0.107-0.108,0.297-0.041,0.323
					c0.067,0.026,0.268-0.081,0.323-0.175C30.068,74.235,30.071,74.103,30.028,74.048z"/>
				<ellipse style="fill:#010101;" cx="29.618" cy="75.902" rx="0.155" ry="0.161"/>
				<ellipse style="fill:#010101;" cx="29.054" cy="77.789" rx="0.168" ry="0.183"/>
				<path style="fill:#010101;" d="M29.344,76.452c-0.096-0.079-0.27,0.242-0.27,0.417s-0.053,0.417,0.108,0.417
					s0.215-0.161,0.242-0.363S29.435,76.53,29.344,76.452z"/>
				<path style="fill:#010101;" d="M26.844,74.182c-0.121-0.005-0.309,0.229-0.255,0.297c0.053,0.065,0.148,0.039,0.282,0.039
					c0.135,0,0.39,0.067,0.322-0.12C27.125,74.209,26.946,74.187,26.844,74.182z"/>
				<path style="fill:#010101;" d="M26.548,74.72c-0.117,0.112,0.041,0.255,0.175,0.281c0.134,0.027,0.296,0.108,0.296-0.053
					s-0.067-0.188-0.188-0.242C26.709,74.652,26.599,74.67,26.548,74.72z"/>
			</g>
			<path style="fill:#010101;" d="M76.604,35.989c-0.242-0.443-0.343-0.847,0-1.149c0.343-0.302,0.121-0.806-0.222-1.007
				s-0.323-0.363-0.021-0.605c0.303-0.241,0.444-0.18,0.444-0.786c0-0.605,0-1.451-0.161-1.511c-0.162-0.061-0.525,0.02-1.028-0.303
				c-0.504-0.322-0.745-0.524-0.604-0.766c0.141-0.242,0.342-0.563-0.242-0.665c-0.584-0.1-1.311-0.301-1.692-0.826
				c-0.383-0.524-0.646-1.008-1.25-1.511c-0.604-0.504-1.089-0.846-1.028-1.773c0.061-0.928,0.182-1.694,0.102-2.157
				c-0.081-0.464,0.12-0.987,0.343-1.491c0.222-0.505,0.061-1.572-0.625-1.955c-0.686-0.382-1.109-0.564-1.512-1.068
				c-0.404-0.504-0.464-0.947-1.068-1.128c-0.604-0.181-0.906-0.322-1.289-0.947c-0.384-0.625-0.384-0.786-0.525-1.189
				c-0.141-0.403-0.361-0.746-1.007-0.826c-0.645-0.081-1.733-0.283-2.6-0.584c-0.867-0.302-1.391-0.504-1.533-0.061
				c-0.141,0.443,0.143,0.787-0.302,0.846c-0.443,0.061-0.847,0.384-0.927,0.746c-0.081,0.363-0.02,1.148-0.604,1.209
				c-0.585,0.061-1.229,0.343-1.451,0.545c-0.223,0.201-0.424,0.583-0.746,0.604c-0.321,0.02-0.423,0.02-0.262-0.322
				c0.161-0.343-0.121-0.706-0.685-0.766c-0.564-0.061-1.371-0.444-1.733-0.705c-0.362-0.262-0.706-0.888-1.129-0.585
				c-0.423,0.302-0.564,0.766-0.786,0.887c-0.223,0.121-0.463,0.423-0.786,0.04c-0.322-0.383-0.686-0.141-0.866,0.262
				c-0.182,0.403-0.524,1.229-0.847,1.571c-0.323,0.344-0.565,0.968-0.968,1.13c-0.403,0.161-0.705,0.765-0.947,0.967
				c-0.242,0.202-0.685,0.544-1.31,0.322c-0.624-0.222-0.948-0.504-0.766-0.847s0.081-0.806-0.121-1.068
				c-0.202-0.262-0.081-0.544,0.282-0.947s0.987-0.907,0.886-1.29c-0.1-0.383-0.061-0.927,0.041-1.27
				c0.101-0.342,0-0.584-0.322-0.887c-0.323-0.301-0.102-0.382,0.262-1.047c0.363-0.665,0.524-1.068,0.505-1.532
				c-0.021-0.464,0.1-1.028,0.381-1.512c0.283-0.483,0.687-0.907,0.323-1.29c-0.362-0.382-0.422-0.927-0.323-1.149
				c0.102-0.221,0.505-0.443,0.364-0.967c-0.141-0.524-0.927-0.907-1.432-0.907c-0.503,0-1.35,0.02-1.612,0.322
				c-0.262,0.303-0.504,0.787-0.625,0.766c-0.12-0.02-0.543-0.343-0.685-0.242c-0.141,0.102-0.463,0.444-0.604,0.181
				c-0.142-0.261-0.564-1.067-0.625-1.551c-0.061-0.483,0-0.806,0.182-1.39c0.18-0.585,0.382-0.484,0.644-0.847
				c0.262-0.363,0.262-0.807,0.443-1.109c0.181-0.302-0.08-0.282-0.402-0.282c-0.323,0-0.505-0.081-0.887-0.524
				c-0.383-0.443-0.342-0.645-0.625-0.645c-0.282,0-0.484,0.544-0.766,0.806c-0.283,0.262-0.564,0.363-0.564-0.081
				c0-0.443,0-0.705,0-0.705s-0.646-0.282-0.967-0.384c-0.323-0.1-0.585,0.041-0.807,0.183c-0.222,0.14-0.483,0.806-1.25,0.705
				C36.9,0.821,36.618,0.76,36.658,1.002c0.041,0.242,0.726,0.827,0.081,1.249c-0.645,0.423-0.766,0.565-1.411,0.303
				c-0.645-0.262-1.552,0.101-1.612,0.625c-0.06,0.524,0.122,1.471-0.523,1.571c-0.645,0.101-0.625-0.382-1.049-0.039
				c-0.422,0.342-1.128,0.704-1.511,0.704S29.544,5.234,29.1,5.234c-0.443,0-0.644-0.182-0.766-0.403
				c-0.121-0.222-0.785-0.201-0.846,0.222c-0.061,0.423,0.081,0.806-0.363,0.827c-0.443,0.02-0.726,0.141-0.706,0.503
				c0.021,0.362-0.182,0.746-0.463,0.988s-0.161,0.947-0.02,1.169c0.142,0.222,0.362,0.745,0.182,0.947
				c-0.182,0.202-0.604,0.484-0.766,0.786c-0.161,0.302,0.04,0.483,0.181,0.786c0.141,0.302,0.282,0.786,0.282,1.271
				c0,0.483-0.062,0.926-0.302,0.806c-0.242-0.121-0.383-0.02-0.625,0.162c-0.242,0.181-0.564,0.504-0.786,0.403
				c-0.222-0.102-0.403-0.585-0.665-0.565c-0.262,0.02-0.322-0.061-0.303,0.101c0.02,0.161,0.081,0.987,0.343,1.35
				c0.262,0.362,0.443,0.665,0.807,0.141c0.362-0.524,1.087-0.302,0.846,0.182c-0.242,0.483-0.484,0.927-0.142,1.169
				c0.343,0.241,0.525,0.604,0.303,1.35s-0.02,1.108-0.02,1.108s0.443,0.222,0.685,0.625c0.242,0.404,0.585,0.847,0.887,0.968
				c0.302,0.121,0.563,0.403,0.645,0.786c0.081,0.383,0.262,0.867,0.524,0.967c0.262,0.101,0.584,0.584,0.605,0.867
				c0.019,0.282,0.442,0.584,0.846,0.584c0.402,0,0.927,0.504,0.927,0.988c0,0.482-0.02,0.766-0.081,0.987
				c-0.06,0.222-0.06,0.564,0.222,0.766c0.283,0.201,0.504,0.564,0.646,1.068c0.141,0.504,0.443,0.766,0.463,1.129
				c0.02,0.362,0.141,0.625,0.302,0.443c0.162-0.182,0.242-0.886,0.564-0.988c0.323-0.1,0.323-0.221,0.323-0.221
				s0.383,0.181,0.301,0.766c-0.08,0.584-0.04,1.371-0.383,1.371c-0.342,0-0.826,0-0.907-0.081
				c-0.081-0.081-0.383,0.181-0.463,0.463s-0.544,0.162-0.423,0.544c0.121,0.383,0.242,0.302,0.262,0.605
				c0.02,0.302-0.061,0.564-0.282,0.826c-0.222,0.262-0.101,0.806,0.02,1.209c0.121,0.404-0.041,1.331-0.343,1.331
				s-0.585,0.06-0.927,0.504c-0.343,0.443-0.745,0.746-0.987,0.746c-0.242,0-0.322,0.342-0.322,0.644
				c0,0.303,0.302,0.948,0.383,1.331c0.081,0.382,0.182,0.563,0.081,0.805c-0.101,0.242,0.302,0.625,0.706,1.007
				c0.403,0.384,1.047,0.888,1.109,1.25c0.06,0.363,0.482,0.846,0.846,1.149c0.362,0.302,1.592,0.887,2.196,1.613
				c0.606,0.725,1.312,2.056,1.411,2.781c0.101,0.725,0.201,1.753,0.201,2.277c0,0.523,0,0.786-0.282,0.807
				c-0.282,0.02-0.503,0.201-0.422,0.544c0.08,0.342,0.463,0.887,0.503,1.35c0.041,0.464,0.484,1.17,0.867,1.371
				c0.382,0.202,0.846,0.343,0.846,0.604s-0.202,0.887-0.041,1.392c0.161,0.503,0.262,0.906,0.262,1.147
				c0,0.242,0.101,0.102,0.444,0.102c0.342,0,0.16,0.361,0.141,0.483c-0.021,0.122,0,0.483,0.141,0.746
				c0.141,0.262,0.081,0.604-0.141,1.108c-0.223,0.503-0.424,0.786-0.767,1.107c-0.342,0.324-0.704,1.09-0.704,1.352
				s-0.323,1.129-0.685,1.391c-0.364,0.262-0.846,0.987-0.846,1.471s-0.565,1.108-0.827,1.33c-0.263,0.223-0.847,0.726-0.847,1.089
				c0,0.294-0.169,1.006-0.246,1.557c-0.017,0.13-0.032,0.254-0.036,0.358c-0.021,0.543-0.343,1.209-0.525,1.733
				c-0.181,0.522-0.201,1.33-0.422,1.571c-0.222,0.242-0.484,0.201-0.524,0.362c-0.041,0.162,0.121,0.384,0.04,0.686
				c-0.081,0.303-0.161,0.584-0.383,0.867c-0.221,0.282-0.302,0.403-0.04,0.403c0.262,0,0.462-0.121,0.342,0.141
				c-0.12,0.262-0.12,0.604-0.242,0.604c-0.121,0-0.201-0.544-0.463-0.182c-0.263,0.363-0.04,0.604-0.201,0.786
				s-0.403,0.443-0.384,1.129c0.021,0.685,0.142,1.089-0.08,1.37c-0.222,0.283-0.383,0.484-0.423,0.886
				c-0.04,0.403-0.122,0.727-0.201,0.929c-0.081,0.201,0.04,0.866,0.04,0.866s0.04,0.262-0.242,0.121
				c-0.282-0.141-0.241,0.08-0.1,0.423c0.141,0.343,0.463,0.786,0.482,1.188c0.021,0.404,0.081,0.443,0.081,0.605
				c0,0.161,0.222,0.383,0.383,0.383s0.323-0.181,0.464,0.061c0.142,0.242,0.464,0.383,0.484,0.02c0.02-0.362-0.242-0.966,0-1.068
				c0.242-0.1,0.523-0.1,0.705-0.14c0.182-0.04,0.364-0.344,0.364-0.344s0.141,0.202,0.1,0.483c-0.04,0.283-0.04,0.343,0.101,0.343
				s0.221-0.343,0.302-0.343s0.263-0.019,0.162,0.747s-0.263,1.329,0.261,1.39c0.525,0.061,0.726-0.182,0.786-0.182
				c0.062,0,0.203,0.263,0.364,0.403c0.162,0.142,0.383,0.464,0.565,0.464c0.181,0,0.282,0.142,0.221,0.484
				c-0.06,0.342-0.182,0.564-0.101,0.745c0.081,0.182,0.242,0.182,0.323-0.101c0.08-0.282,0.323-0.483,0.341-0.121
				c0.021,0.362,0.102,0.564,0.363,0.624c0.264,0.061,0.626,0.242,0.706,0.868c0.08,0.624,0.121,1.208,0.403,1.248
				c0.283,0.041,0.847,0.102,1.088,0.041s0.463-0.362,0.463-0.362s0.283,0.442,0,0.504c-0.282,0.061-0.463,0.281-0.422,0.423
				c0.039,0.141,0.221,0.442,0.242,0.604c0.021,0.161,0.222,0.201,0.302,0.02s0.484-0.141,0.565,0.121
				c0.08,0.263,0.161,0.626,0.019,0.947c-0.141,0.323-0.302,0.747-0.12,0.908s0.625,0.28,0.847,0.563
				c0.221,0.282,0.362,0.624,0.523,0.645c0.161,0.021,0.403,0.242,0.424,0.484c0.02,0.241,0.342,0.503,0.544,0.503
				s0.604,0.122,0.706,0.424c0.101,0.303,0.342,0.101,0.382-0.484c0.04-0.583,0.181-1.007,0.544-0.967
				c0.362,0.04,0.543,0.484,0.725,0.727c0.182,0.24,0.766,0.745,1.189,0.745c0.424,0,0.565,0.241,0.747,0.121
				c0.181-0.121,0.967-0.504,1.127-0.021c0.161,0.483-0.04,1.028,0.181,1.209c0.222,0.182,0.867,0.142,1.15,0.121
				c0.282-0.02,0.644,0.263,0.665,0.686c0.021,0.423,0.262,1.209-0.04,1.512c-0.303,0.302-0.867,0.785-0.726,1.047
				c0.141,0.263,1.008,1.089,1.25,1.069c0.242-0.021,0.503-0.484,0.503-0.786s0.263-0.646,0.544-0.686
				c0.283-0.041,0.888-0.221,1.149-0.443c0.263-0.222,0.947-0.323,1.088,0.121c0.143,0.443,0.062,0.967,0.364,0.967
				c0.302,0,1.088,0.162,1.209-0.382c0.121-0.545,0.424-1.129,0.424-1.432c0-0.302,0.281-0.504,0.503-0.545
				c0.223-0.04,0.605-0.845,0.505-1.067c-0.102-0.222-0.767-0.504-1.229-0.987c-0.464-0.484-1.23-1.088-1.552-1.652
				c-0.323-0.564-0.565-1.129-0.989-1.391c-0.422-0.262-0.886-0.424-1.773-0.383c-0.887,0.039-1.833,0.261-2.458-0.081
				c-0.625-0.343-1.432-0.928-1.733-1.29c-0.302-0.362-0.463-0.544-0.806-0.423c-0.343,0.12-0.887,0.08-1.049-0.021
				c-0.161-0.101-0.242-0.423-0.02-0.604s0.02-0.444-0.161-0.847c-0.182-0.403-0.383-0.906-0.403-0.484
				c-0.021,0.425,0.242,0.988,0.04,0.988c-0.202,0-0.464-0.221-0.483-0.504c-0.02-0.282-0.504-0.847-0.686-1.148
				c-0.181-0.303-0.201-0.907,0.081-1.27c0.283-0.363,0.746-0.504,0.887-0.121c0.141,0.382,0.162,0.725,0.021,1.027
				c-0.142,0.303-0.202,0.464-0.061,0.464c0.141,0,0.543-0.383,0.564-0.101c0.02,0.281,0.041,0.483,0.363,1.169
				c0.323,0.686,0.908,1.289,1.028,1.128c0.122-0.161-0.222-0.442-0.503-1.008c-0.283-0.564-0.545-0.866-0.827-1.995
				c-0.281-1.128-0.342-2.499-0.625-3.486s-0.242-1.371-0.564-1.774c-0.323-0.402-0.564-0.482-0.564-0.342s0.463,0.887,0.04,0.826
				c-0.423-0.06-0.625-0.726-0.867-0.987c-0.241-0.263-0.302-0.383-0.362-0.847c-0.061-0.463-0.165-0.665-0.222-0.888
				c-0.25-0.965-0.041-1.409-0.201-2.055c-0.161-0.646-0.403-1.129-0.948-1.21c-0.543-0.08-0.807,0.081-1.108,0.081
				c-0.302,0-0.362,0.101-0.544,0c-0.181-0.101-0.343,0.323-0.503,0.403c-0.161,0.08-0.604,0.08-1.068-0.102
				c-0.463-0.181-0.423-0.343-0.384-0.745c0.042-0.403,0.525-0.363,0.203-0.705c-0.323-0.344-0.666-0.968-0.726-1.612
				c-0.061-0.645,0.02-1.391,0.12-1.733c0.101-0.343-0.019-0.866-0.12-1.149c-0.1-0.281,0.041-0.584,0.201-0.645
				c0.162-0.061,0.403-0.241,0.142-0.443c-0.263-0.202-0.483-0.322-0.463-0.645c0.021-0.323,0.261-0.283,0.383-0.121
				c0.12,0.161,0.463,0.242,0.443-0.1c-0.019-0.344-0.141-0.426,0.081-0.868c0.221-0.443,0.443-0.786,0.665-1.35
				c0.221-0.564,0.242-0.827,0.464-0.767c0.221,0.06,0.483,0.241,0.321-0.363c-0.161-0.604-0.321-0.967-0.141-1.309
				c0.182-0.344,0.242-0.363,0.404-0.363c0.161,0,0.161-0.484,0.12-0.786c-0.04-0.303,0.222-0.787,0.525-1.351
				c0.302-0.564,0.422-1.089,0.604-1.33c0.182-0.242,0.443-0.222,0.443-0.726s0.221-0.847,0.443-1.391s0.564-1.009,0.666-1.331
				c0.1-0.322,0.1-0.644-0.161-1.128c-0.263-0.483-0.162-1.088-0.162-1.673c0-0.584,0.302-1.391,0.544-1.935
				c0.243-0.544,0.544-0.968,0.383-1.451c-0.161-0.483-0.282-0.565-0.584-0.685c-0.302-0.121-0.262-0.504-0.262-0.887
				c0-0.383,0.202-0.242,0.343-0.242c0.142,0,0.423-0.202,0.463-0.464c0.041-0.262,0.364-0.221,0.525-0.221s0.423,0.181,0.564,0.06
				c0.141-0.121,0.282-0.182,0.282-0.182s0.425,0.122,0.887,0.041c0.464-0.08,1.069-0.141,1.25-0.221s0.302-0.021,0.504,0.12
				c0.201,0.141,0.625,0.283,1.128,0.283c0.505,0,0.766-0.041,0.747,0.201c-0.02,0.242-0.464,0.282-0.323,0.444
				c0.141,0.161,0.141,0.423-0.101,0.625c-0.242,0.201-0.323,0.986-0.162,1.27c0.162,0.282,0.142,0.685,0.061,0.927
				c-0.081,0.242,0.021,0.564,0.021,0.765c0,0.202-0.262,0.403-0.342,0.625c-0.082,0.223-0.021,0.362,0.363,0.523
				c0.382,0.162,0.583,0.223,0.745,0.062c0.162-0.162,0.746-0.343,1.109-0.343c0.362,0,0.866,0.101,1.088,0.262
				c0.222,0.16,0.464,0.201,0.826,0.102c0.364-0.102,0.766-0.203,0.989-0.203c0.222,0,0.302-0.04,0.443-0.18
				c0.141-0.142,0.806-0.102,0.987,0.2c0.182,0.303,0.281,0.847,0.463,0.827c0.182-0.021,0-0.484,0.121-0.484
				s0.423,0.263,0.483,0.424s0.08,0.543,0.322,0.604s0.564,0.183,0.807,0.465c0.242,0.281,0.423,0.442,0.604,0.302
				c0.182-0.142,0.102-0.323-0.161-0.483c-0.263-0.162-0.302-0.283-0.181-0.344c0.12-0.06,0.443,0.243,0.745,0.424
				c0.302,0.182,0.625,0.464,0.344,0.464c-0.283,0-0.585,0.222-0.585,0.443s0.361,0.242,0.664,0.242
				c0.302,0,0.746,0.141,0.947,0.483c0.202,0.342,0.302,0.383,0.483,0.342c0.182-0.04,0.121-0.403,0-0.604
				c-0.121-0.202-0.281-0.403-0.241-0.504c0.04-0.102,0.423,0.121,0.564,0.363c0.141,0.24,0.12,0.482,0.181,0.663
				c0.06,0.183,0.464,0.384,0.464,0.626s-0.242,0.523-0.04,0.585c0.201,0.061,0.524,0.402,0.727,0.766
				c0.2,0.362,0.503,0.786,0.503,0.786s0.283-0.062,0.202-0.343c-0.081-0.282-0.303-0.483-0.464-1.009
				c-0.161-0.523-0.262-1.007-0.525-1.47c-0.261-0.464-0.685-1.392-0.523-1.795c0.162-0.403,0.201-0.423,0.403-0.646
				c0.202-0.221-0.182-0.503-0.665-0.624s-1.008-0.483-1.008-0.887c0-0.402,0.262-1.048-0.262-1.633
				c-0.523-0.584-0.847-1.148-0.847-1.773c0-0.624,0.142-1.088,0.061-1.572c-0.081-0.483,0.362-0.665,0.786-0.887
				c0.424-0.221,1.37-0.423,1.432-1.37c0.06-0.947,0.402-1.532,0.604-1.754c0.201-0.221,0.443-0.604,0.443-0.967
				c0-0.364,0.382-0.523,0.664-0.665c0.283-0.141,0.223-0.665,0.827-0.786c0.604-0.121,1.29-0.161,1.834-0.161
				s1.028-0.282,1.29-0.363c0.262-0.081,0.544-0.04,0.563,0.242c0.021,0.282,0.565,0.202,1.129,0.202
				c0.564,0,0.988,0.061,1.229-0.202c0.242-0.262,0.424-0.685,0.686-0.423c0.262,0.262,0.685,0.242,1.048,0.101
				c0.363-0.141,0.624,0.142,0.826,0.142c0.201,0,0.564-0.283,0.988-0.363c0.423-0.081,0.544-0.322,0.967-0.201
				c0.423,0.12,0.947,0.081,1.209,0.04c0.263-0.04,0.443,0.263,0.282,0.505c-0.161,0.241-0.121,0.785,0.061,0.846
				c0.181,0.061,0.604,0.182,0.686-0.182c0.08-0.363,0.1-0.826,0.625-0.907c0.523-0.08,0.886,0.02,1.431-0.342
				c0.544-0.363,0.726-0.867,0.726-1.33c0-0.464,0.161-1.088,0.262-1.411C76.927,36.776,76.847,36.433,76.604,35.989z"/>
		</g>
		<path style="fill:#010101;" d="M57.479,58.381c-0.161,0-0.081,0.443-0.081,0.443s0.081,0.263,0.021,0.424
			c-0.062,0.16,0.021,0.362,0.181,0.262c0.162-0.102,0.323-0.242,0.263-0.464s-0.242-0.343-0.222-0.504
			C57.659,58.381,57.535,58.381,57.479,58.381z"/>
	</g>
</g>
<g id="Layer_1">
</g>
</svg>
