<?xml version="1.0" encoding="iso-8859-1"?>
<!-- Generator: Adobe Illustrator 16.0.3, SVG Export Plug-In . SVG Version: 6.00 Build 0)  -->
<!DOCTYPE svg PUBLIC "-//W3C//DTD SVG 1.1//EN" "http://www.w3.org/Graphics/SVG/1.1/DTD/svg11.dtd">
<svg version="1.1" xmlns="http://www.w3.org/2000/svg" xmlns:xlink="http://www.w3.org/1999/xlink" x="0px" y="0px" width="100px"
	 height="100px" viewBox="0 0 100 100" style="enable-background:new 0 0 100 100;" xml:space="preserve">
<g id="TR">
	<g>
		<g>
			<g>
				<path style="fill:#010101;" d="M44.906,65.418c0.104-0.1,0.417-0.267,0.657-0.267s0.657,0.053,0.836,0.204
					c0.179,0.15,0.293,0.436,0.587,0.523c0.293,0.09,0.8,0.259,1.138,0.508s0.774,0.648,0.818,0.568
					c0.045-0.08-0.16-0.293-0.276-0.427c-0.114-0.132-0.274-0.337-0.169-0.354c0.106-0.019,0.384,0.267,0.516,0.426
					c0.135,0.161,0.171,0.428,0.4,0.355c0.23-0.07,0.383-0.116,0.649-0.08c0.268,0.036,0.516,0.044,0.686-0.223
					c0.168-0.266,0.124-0.328,0.239-0.398c0.115-0.072,0.01-0.179-0.169-0.187c-0.179-0.01-0.23-0.152-0.036-0.276
					c0.196-0.125,0.604-0.152,0.853-0.277c0.25-0.124,0.712-0.522,0.882-0.646c0.168-0.126,0.64-0.339,0.942,0.168
					s0.168,1.183-0.01,1.352c-0.177,0.169-0.293,0.436-0.516,0.622s-0.444,0.241-0.559,0.479c-0.116,0.24-0.321,0.419-0.455,0.507
					c-0.133,0.09-0.489,0.445-0.329,0.943s0.196,0.614,0.329,0.837c0.134,0.222,0.543,0.639,0.471,1.04
					c-0.07,0.399-0.124,0.47-0.124,0.47s0.143,0.099,0.498,0.277c0.355,0.176,0.782,0.515,0.782,0.158
					c0-0.354,0.099-0.569,0.328-0.719c0.232-0.15,0.394-0.179,0.384-0.365c-0.009-0.187-0.045-0.373,0.134-0.32
					c0.177,0.054,0.285,0.142,0.303-0.159c0.018-0.302,0.07-0.382,0.034-0.578c-0.034-0.195-0.034-0.285,0.179-0.285
					c0.214,0,0.587,0.072,0.8,0.072c0.214,0,0.568,0.018,0.568-0.285c0-0.302-0.205-0.568-0.318-0.747
					c-0.116-0.179-0.393-0.721-0.401-0.978c-0.008-0.259-0.044-0.721,0.116-0.988c0.161-0.267,0.213-0.417,0.169-0.702
					c-0.044-0.284,0.214-0.755,0.577-0.692c0.364,0.062,0.535,0.337,1.031,0.284c0.498-0.054,0.65,0.009,0.632,0.337
					c-0.018,0.33,0.276,0.792,0.551,0.712c0.276-0.081,0.16-0.249,0.508-0.089c0.347,0.16,0.871,0.276,1.351,0.143
					c0.48-0.135,1.396-0.588,1.832-0.73c0.437-0.142,1.246-0.488,1.689-0.631c0.444-0.142,0.633-0.23,0.89-0.15
					c0.259,0.08,0.915,0.097,1.12,0.15c0.204,0.055,0.89,0.515,1.28,0.623c0.391,0.106,1.175,0.365,1.752,0.436
					c0.579,0.072,1.307,0.124,1.974-0.009c0.667-0.134,2.268-0.623,2.828-0.835c0.561-0.215,1.021-0.508,1.742-0.927
					c0.721-0.416,1.369-0.825,2.056-1.208c0.683-0.383,1.412-0.579,1.831-0.587c0.417-0.01,1.432-0.205,1.77-0.205
					c0.337,0,0.96-0.106,1.227-0.196c0.267-0.088,0.862,0.019,1.244-0.08c0.383-0.096,0.624-0.08,1.095-0.284
					s0.818-0.56,1.094-0.712c0.274-0.15,0.533-0.318,0.533-0.318s0.303,0.204,0.285,0.471c-0.019,0.267-0.116,0.373,0.036,0.65
					c0.15,0.273,0.203,0.444,0.203,0.444s0.115-0.703,0.524-0.81s0.791-0.106,0.791-0.106s0.062-0.438,0.25-0.729
					c0.187-0.294,0.418-0.552,0.756-0.507c0.337,0.044,0.809,0.044,1.022-0.152c0.212-0.195,0.435-0.257,0.587-0.187
					c0.15,0.072,0.498,0.08,0.773,0.054c0.274-0.026,0.729,0.089,0.979,0.179c0.248,0.088,0.81,0.194,1.234,0.194
					c0.427,0,1.076-0.124,1.299-0.267s0.649-0.604,1.075-0.471c0.428,0.135,0.712,0.499,0.811,0.756
					c0.099,0.258,0.044,0.267-0.143,0.489c-0.187,0.222-0.088,0.319,0.196,0.436c0.282,0.115,0.435,0.258,0.489,0.392
					c0.052,0.133,0.15,0.274,0.318,0.204c0.171-0.071,0.197-0.258,0.143-0.374c-0.052-0.115,0.055-0.302,0.329-0.302
					c0.275,0,0.418-0.319,0.695-0.355c0.274-0.036,0.727-0.062,0.843-0.464c0.116-0.398,0.071-0.869-0.356-1.03
					c-0.425-0.16-0.906-0.142-0.924-0.604s0-1.066,0.106-1.369c0.108-0.303-0.24-0.569-0.461-0.659
					c-0.223-0.088-0.437-0.365-0.481-0.541c-0.044-0.179-0.267-0.179-0.48-0.179c-0.212,0-0.888,0.089-0.826-0.354
					c0.062-0.445,0.205-0.828,0.338-1.139c0.134-0.312,0.107-0.791,0.134-1.086c0.026-0.293,0.259-0.649,0.427-0.817
					c0.168-0.169,0.142-0.399,0.098-0.543c-0.044-0.143-0.187-0.169-0.32-0.15c-0.134,0.018-0.551,0.08-0.657-0.267
					c-0.108-0.347-0.125-0.685-0.259-0.854c-0.135-0.169-0.143-0.533-0.143-0.818s0.019-0.437-0.178-0.623
					c-0.194-0.187-0.463-0.587-0.479-0.942c-0.018-0.356-0.054-0.711-0.303-1.094c-0.248-0.383-0.524-0.986-0.214-1.263
					c0.312-0.275,0.473-0.311,0.739-0.24c0.267,0.072,0.675-0.008,0.693-0.303c0.018-0.292-0.01-0.996,0.008-1.182
					c0.019-0.187,0.106-0.613,0.357-0.756c0.248-0.142,0.595-0.132,0.737-0.205c0.142-0.07,0.204-0.222-0.116-0.435
					c-0.32-0.214-0.657-0.533-0.81-0.711c-0.15-0.178-0.728-0.551-0.933-0.641c-0.204-0.088-0.489-0.16-0.871-0.106
					c-0.383,0.054-0.811,0.223-1.164,0.187c-0.357-0.034-0.883,0.028-1.06,0.028c-0.178,0-0.729-0.188-0.729-0.25
					s0.034-0.15,0.204-0.267c0.169-0.115,0.257-0.417,0.257-0.533s-0.008-0.293-0.16-0.471c-0.15-0.179-0.329-0.365-0.355-0.631
					c-0.025-0.267-0.372-0.631-0.168-0.996s0.124-0.205,0.187-0.516c0.062-0.312,0.16-0.881,0.124-1.308s-0.152-0.764-0.506-1.012
					c-0.355-0.25-0.891-0.401-0.943-0.837c-0.054-0.435-0.151-0.711-0.408-0.703c-0.259,0.01-0.649,0.028-0.738-0.124
					c-0.089-0.151-0.249-0.044-0.355-0.026s-0.312-0.088-0.259-0.293c0.054-0.205,0.116-0.437-0.026-0.48
					c-0.143-0.044-0.604,0-0.685-0.169c-0.08-0.169-0.019-0.427-0.213-0.437c-0.196-0.008-0.445,0.01-0.686-0.008
					c-0.24-0.018-0.373-0.142-0.284-0.338c0.09-0.194,0.124-0.373-0.008-0.399c-0.135-0.028-1.051-0.16-1.201,0.114
					c-0.152,0.277-0.143,0.569-0.347,0.694c-0.205,0.126-0.685,0.152-0.89,0.108c-0.204-0.046-0.577-0.196-0.871-0.312
					c-0.293-0.115-0.702-0.24-0.889-0.044c-0.188,0.196-0.444,0.631-0.846,0.515c-0.401-0.114-0.941-0.311-1.084-0.347
					c-0.143-0.034-0.205-0.124-0.249-0.052c-0.046,0.07-0.134,0.355-0.303,0.605c-0.169,0.249-0.346,0.399-0.641,0.631
					c-0.293,0.231-0.701,0.391-0.836,0.515c-0.132,0.125-0.818,0.649-1.04,0.756c-0.223,0.108-0.686,0.276-1.031,0.499
					c-0.348,0.222-0.666,0.4-1.041,0.569c-0.373,0.168-0.729,0.212-0.979,0.355c-0.248,0.142-0.631,0.427-0.934,0.455
					c-0.303,0.026-0.745-0.018-0.96-0.01c-0.212,0.01-0.409,0.062-0.621-0.106c-0.214-0.168-0.455-0.267-0.659-0.285
					c-0.205-0.018-0.452-0.008-0.773-0.205c-0.32-0.196-0.632-0.284-0.8-0.196c-0.168,0.09-0.605,0.347-0.766,0.276
					c-0.158-0.072-0.551-0.168-0.916-0.036c-0.364,0.134-0.825,0.258-1.182,0.383c-0.355,0.124-0.666,0.258-0.889,0.274
					c-0.222,0.018-0.517,0.09-0.659,0.214c-0.143,0.125-0.372,0.24-0.568,0.161c-0.195-0.08-0.399-0.168-0.757-0.152
					c-0.354,0.018-1.163,0.09-1.439,0.018c-0.275-0.07-0.338-0.168-0.399-0.257c-0.062-0.09-0.179-0.214-0.348-0.222
					c-0.169-0.01-0.239-0.214-0.239-0.357c0-0.142,0.036-0.194-0.187-0.194s-0.357-0.16-0.552,0.222
					c-0.196,0.381-0.711,0.453-0.791,0.231c-0.08-0.223-0.474-0.525-0.693-0.561c-0.223-0.035-0.569-0.044-0.766-0.07
					c-0.196-0.026-0.471-0.223-0.543-0.427c-0.07-0.205-0.497-0.551-0.924-0.667s-1.059-0.293-1.387-0.213
					c-0.329,0.081-0.409,0.301-0.518,0.427c-0.106,0.124-0.507,0.257-0.745,0.222c-0.241-0.036-0.419-0.356-0.66-0.667
					c-0.237-0.312-0.442-0.641-0.631-0.935c-0.187-0.293-0.657-0.87-0.569-1.012c0.09-0.143,0.25-0.062,0.347,0.088
					c0.099,0.15,0.145,0.222,0.188,0.15c0.044-0.07-0.232-0.577-0.463-0.755s-0.284-0.417-0.623-0.194
					c-0.337,0.222-0.569,0.639-0.968,0.711c-0.4,0.07-0.561,0.08-0.826-0.028c-0.268-0.106-0.676-0.293-0.917-0.417
					c-0.239-0.124-0.488-0.266-0.595-0.445c-0.106-0.178-0.215-0.391-0.383-0.525c-0.169-0.132-0.231-0.479-0.089-0.605
					c0.143-0.125,0.355-0.133,0.454-0.194c0.098-0.062,0.01-0.179-0.089-0.179s-0.134-0.142-0.179-0.212
					c-0.044-0.072-0.08-0.098-0.258-0.09c-0.179,0.01-0.274-0.044-0.303-0.186c-0.025-0.143-0.062-0.285-0.168-0.275
					c-0.106,0.008-0.267-0.036-0.409-0.116c-0.143-0.08-0.215,0.052-0.303,0.329c-0.089,0.276-0.125,0.569-0.543,0.693
					c-0.417,0.124-0.604,0.214-1.093,0.204c-0.489-0.008-1.28,0.026-1.521,0.026c-0.241,0-0.773-0.194-1.022-0.23
					c-0.25-0.036-1.227,0.054-1.459,0.054c-0.23,0-0.524-0.046-0.861-0.214c-0.339-0.169-0.979-0.303-1.353-0.249
					c-0.373,0.054-1.121,0.373-1.537,0.543c-0.419,0.168-0.82,0.363-1.441,0.454c-0.623,0.088-1.28,0.212-1.682,0.507
					c-0.398,0.292-0.675,0.551-1.173,0.854s-1.058,0.738-1.439,0.916c-0.383,0.178-0.854,0.347-1.299,0.515
					c-0.445,0.168-0.898,0.284-1.146,0.409c-0.251,0.125-0.373,0.25-0.259,0.4c0.116,0.152,0.24,0.161,0.106,0.393
					c-0.133,0.23-0.257,0.515-0.774,0.701c-0.515,0.187-1.376,0.419-2.025,0.249c-0.649-0.169-1.076-0.427-1.44-0.489
					c-0.365-0.062-1.033-0.195-1.201-0.337s-0.354-0.204-0.667-0.054c-0.312,0.152-0.916,0.409-1.617,0.241
					c-0.704-0.168-1.415-0.409-1.798-0.595c-0.382-0.188-0.631-0.241-0.764-0.241c-0.135,0-0.375-0.24-0.552-0.24
					c-0.179,0-0.711,0.125-0.871,0.311c-0.161,0.187-0.179,0.276-0.187,0.587c-0.01,0.311-0.161,0.445-0.205,0.596
					c-0.046,0.152-0.116,0.258,0.034,0.375c0.152,0.114,0.116,0.32,0.277,0.391c0.16,0.071,0.702,0.062,0.747,0.321
					c0.044,0.257-0.134,0.373,0.025,0.445c0.161,0.07,0.321,0.239,0.321,0.381c0,0.143-0.019,0.241,0.284,0.161
					c0.304-0.08,0.836-0.07,1.157-0.018c0.319,0.054,0.861,0.08,1.048,0.16s0.285,0.455-0.036,0.455
					c-0.318,0-0.683-0.178-0.968-0.178s-0.642-0.072-0.872-0.054c-0.232,0.018-0.354,0.088-0.507,0.088s-0.241,0.001-0.515,0.045
					c-0.276,0.044-0.588,0.036-0.802-0.054c-0.213-0.088-0.667-0.044-0.782,0.018c-0.116,0.062-0.32,0.346-0.489,0.382
					c-0.168,0.034-0.452,0.133-0.346,0.311c0.106,0.178,0.142,0.4,0.621,0.382c0.48-0.018,0.89-0.045,0.827,0.179
					c-0.062,0.22-0.292,0.23-0.284,0.319c0.009,0.09,0.258,0.285,0.044,0.356c-0.212,0.071-0.347-0.018-0.507-0.169
					c-0.16-0.151-0.523-0.115-0.657-0.088c-0.134,0.026-0.355,0.026-0.525,0.054c-0.169,0.026-0.293,0.222-0.524,0.222
					c-0.23,0-0.382,0.008-0.712-0.188c-0.329-0.195-0.942-0.319-1.315-0.319c-0.374,0-0.675,0.026-0.817,0.07
					c-0.143,0.044-0.25,0.072-0.25,0.072s-0.019-0.081-0.213-0.081c-0.195,0-0.266,0.044-0.266,0.044s0.025-0.196,0.212-0.365
					c0.187-0.168,0.303-0.373,0.106-0.453c-0.194-0.081-0.621-0.116-0.836-0.214c-0.213-0.099-0.604-0.115-0.497,0.178
					c0.105,0.292,0.354,0.499,0.453,0.675c0.098,0.178,0.152,0.499-0.089,0.525c-0.24,0.026-0.622,0.054-1.04,0.054
					c-0.419,0-0.915-0.338-1.04-0.427c-0.126-0.09-0.347-0.248-0.284-0.499c0.062-0.249-0.072-0.435-0.427-0.427
					c-0.356,0.01-0.642,0.098-0.784,0.276c-0.143,0.177-0.532,0.177-0.657,0.169c-0.124-0.008-0.16-0.106-0.32-0.106
					s-0.303,0.026-0.453-0.054c-0.151-0.08-0.364,0.036-0.561,0.241c-0.195,0.205-0.701,0.764-1.005,0.908
					c-0.303,0.141-0.64,0.275-0.791,0.533c-0.15,0.257-0.453,0.436-0.702,0.445c-0.25,0.008-0.408,0.124-0.444,0.399
					c-0.036,0.276-0.143,0.517-0.223,0.676c-0.08,0.16-0.01,0.33,0.026,0.517s0,0.311-0.062,0.391
					c-0.062,0.08-0.08,0.187-0.018,0.347c0.062,0.16-0.026,0.417-0.187,0.561c-0.16,0.142-0.276,0.497-0.187,0.647
					c0.088,0.152,0.577,0.108,0.934,0.098c0.355-0.008,1.209-0.044,1.548-0.034c0.337,0.008,1.065-0.108,1.271-0.098
					c0.204,0.008,0.347,0.034,0.303,0.249c-0.044,0.213-0.16,0.277-0.355,0.321c-0.196,0.044-0.32,0.212-0.356,0.329
					s-0.223,0.409-0.302,0.479c-0.08,0.072-0.195,0.072-0.319,0.064c-0.126-0.01-0.251,0.168-0.028,0.381
					c0.223,0.214,0.321,0.277,0.251,0.339c-0.072,0.062-0.116,0.24,0.22,0.507c0.339,0.267,0.518,0.383,0.331,0.542
					c-0.188,0.16-0.401,0.4-0.312,0.615c0.09,0.212,0.134,0.355,0.551,0.355c0.419,0,0.375,0.018,0.543,0.072
					c0.169,0.053,0.311-0.018,0.419,0.017c0.106,0.036,0.169,0.268,0.053,0.32c-0.116,0.054-0.418,0.054-0.516,0.098
					c-0.098,0.044-0.204,0.293-0.32,0.293s-0.311,0.054-0.187,0.214c0.124,0.161,0.15,0.267,0,0.267
					c-0.152,0-0.329-0.088-0.516-0.054c-0.188,0.036-0.41,0.098-0.444,0.285c-0.036,0.186-0.187,0.401-0.134,0.631
					c0.054,0.232,0.223,0.276,0.329,0.276c0.107,0,0.203,0.205,0.258,0.364c0.054,0.161,0.196,0.401,0.569,0.374
					c0.373-0.026,0.568-0.053,0.729,0.044c0.161,0.098,0.089,0.231-0.044,0.302c-0.134,0.072-0.711,0.223-0.907,0.303
					s-0.445,0.179-0.613-0.025c-0.168-0.205-0.276-0.472-0.481-0.392c-0.204,0.079-0.124,0.195-0.142,0.382
					c-0.019,0.188-0.143,0.328-0.239,0.107c-0.099-0.223-0.072-0.33-0.126-0.455c-0.052-0.124-0.008-0.194,0.072-0.328
					c0.08-0.133,0.16-0.427,0-0.569s-0.303-0.177-0.453-0.4c-0.152-0.221-0.25-0.443-0.445-0.373
					c-0.196,0.072-0.303,0.116-0.294,0.471c0.01,0.356,0.018,0.659,0.178,0.739c0.161,0.079,0.472,0.026,0.384,0.354
					c-0.089,0.329-0.357,0.472-0.525,0.472s-0.479-0.133-0.577-0.124c-0.099,0.008-0.108,0.071-0.124,0.302
					c-0.019,0.231,0.034,0.419,0.311,0.507c0.275,0.089,0.462-0.035,0.551,0.285c0.088,0.32,0.07,0.274,0.213,0.409
					c0.143,0.132,0.116,0.354,0.25,0.435c0.133,0.08,0.329,0.062,0.418-0.177c0.089-0.24,0.222-0.524,0.39-0.4
					c0.171,0.124,0.295,0.284,0.508,0.364c0.214,0.081,0.266,0.213,0.408,0.311c0.143,0.099,0.383,0.161,0.615,0.293
					c0.23,0.134,0.398,0.356,0.649,0.411c0.248,0.052,0.471,0.15,0.318,0.435c-0.15,0.285-0.106,0.419-0.088,0.623
					c0.018,0.205,0.07,0.533-0.09,0.702c-0.159,0.168-0.425,0.276-0.567,0.276s-0.375,0.114-0.17,0.204
					c0.204,0.089,0.25,0.32,0.382,0.364c0.134,0.045,0.24,0.267,0.124,0.267s-0.462-0.09-0.302,0.293s0.24,0.347,0.24,0.686
					c0,0.337,0.008,0.604,0.4,0.587c0.392-0.019,0.392-0.17,0.454-0.258c0.062-0.089,0.266-0.293,0.382-0.249
					s0.088,0.16-0.036,0.293c-0.124,0.134-0.204,0.471-0.054,0.48c0.152,0.008,0.214-0.152,0.303-0.072
					c0.09,0.08-0.019,0.196-0.106,0.285c-0.089,0.09,0.026,0.214,0.116,0.259c0.088,0.044,0.23-0.055,0.319-0.106
					c0.09-0.055,0.25-0.028,0.17,0.143c-0.08,0.168-0.223,0.222-0.267,0.398c-0.046,0.178-0.152,0.471-0.348,0.551
					c-0.196,0.081-0.338,0.072-0.338-0.088s-0.018-0.275-0.116-0.275c-0.097,0-0.114-0.035-0.23-0.035s-0.169,0.124-0.32,0.114
					c-0.151-0.009-0.205-0.079-0.285-0.026c-0.08,0.054,0,0.16,0.062,0.24c0.062,0.08-0.053,0.179-0.009,0.275
					c0.044,0.098,0.07,0.284,0.062,0.4s-0.008,0.204,0.124,0.258c0.135,0.053,0.295-0.071,0.373-0.178
					c0.081-0.106,0.215-0.179,0.321-0.099c0.105,0.08,0.168,0.135,0.444,0.171c0.276,0.034,0.409,0.132,0.613,0.114
					c0.204-0.019,0.471-0.053,0.657,0.01c0.188,0.062,0.393,0.044,0.686-0.09c0.294-0.133,0.427-0.097,0.667-0.053
					c0.241,0.044,0.444,0.07,0.605,0c0.158-0.072,0.337-0.01,0.497,0.008c0.16,0.019,0.321-0.018,0.329,0.179
					c0.01,0.195-0.194,0.205-0.329,0.355c-0.134,0.152-0.23,0.374-0.463,0.294c-0.23-0.08-0.595-0.151-0.665,0.025
					c-0.072,0.179-0.108,0.321-0.036,0.472c0.07,0.152,0.052,0.249-0.09,0.249c-0.143,0-0.338-0.124-0.577-0.124
					c-0.241,0-0.445-0.035-0.632,0.018c-0.187,0.054-0.481,0.036-0.657,0.044c-0.179,0.01-0.508,0.036-0.712,0.036
					c-0.205,0-0.462,0.026-0.623,0.169c-0.16,0.142-0.354,0.214-0.187,0.399c0.169,0.187,0.418,0.169,0.56,0.116
					c0.142-0.054,0.473-0.071,0.677,0c0.205,0.07,0.392,0.187,0.533-0.062c0.143-0.25,0.249-0.312,0.588-0.284
					c0.337,0.026,0.532,0.088,0.905-0.01c0.375-0.099,0.711-0.16,0.694,0c-0.017,0.159-0.089,0.275-0.338,0.302
					c-0.248,0.026-0.587,0.036-0.507,0.135c0.08,0.098,0.479,0.204,0.303,0.391c-0.179,0.187-0.347,0.452-0.17,0.524
					c0.178,0.07,0.463-0.098,0.587-0.294c0.125-0.194,0.338-0.293,0.489-0.293s0.4-0.178,0.409-0.48
					c0.01-0.303-0.035-0.701,0.107-0.701s0.274,0.23,0.391,0.328c0.116,0.099,0.285,0.196,0.365,0.125
					c0.08-0.07,0.044-0.196-0.019-0.355c-0.062-0.16-0.152-0.419,0.009-0.427c0.16-0.01,0.338,0.194,0.383,0.427
					c0.044,0.23,0.248,0.479,0.338,0.471c0.088-0.01-0.054-0.347,0.098-0.338c0.151,0.01,0.418,0.16,0.436,0.418
					c0.019,0.257,0.019,0.417,0.259,0.472c0.239,0.052,0.354,0.08,0.479,0.284c0.125,0.205,0.205,0.471,0.329,0.461
					c0.124-0.008,0.152-0.221,0.25-0.452c0.097-0.231,0.035-0.552,0.169-0.552c0.133,0,0.179,0.044,0.24,0.187
					s0.23,0.232,0.427,0.303c0.194,0.072,0.249,0.294,0.124,0.356c-0.124,0.062-0.32,0.15-0.374,0.267
					c-0.053,0.114,0.035,0.194,0.178,0.194s0.169,0.152,0.125,0.259c-0.045,0.106-0.081,0.214-0.019,0.339
					c0.064,0.123,0.019,0.193-0.017,0.372s0.026,0.355,0.159,0.436c0.134,0.08,0.349,0.179,0.561,0.356
					c0.213,0.178,0.249,0.267,0.365,0.373c0.116,0.105,0.15,0.204,0.248,0.044c0.099-0.159,0.179-0.08,0.259-0.017
					c0.08,0.062,0.435,0.143,0.667,0.133c0.23-0.009,0.533-0.125,0.498,0.16c-0.036,0.285-0.135,0.577,0.054,0.623
					c0.186,0.044,0.621,0.158,0.87,0.158c0.25,0,0.356-0.052,0.32-0.204c-0.036-0.15-0.08-0.222,0.055-0.267
					c0.132-0.044,0.256-0.194,0.416-0.194s0.499,0.026,0.686,0.008c0.187-0.018,0.596-0.168,0.693-0.373
					c0.099-0.204,0.525-0.232,0.693-0.17c0.169,0.062,0.463,0.204,0.516,0.339c0.054,0.134,0.054,0.356,0.152,0.347
					c0.098-0.008,0.426-0.133,0.506-0.373c0.081-0.24,0.106-0.427,0.053-0.685c-0.053-0.259,0.018-0.489,0.116-0.641
					s0.232-0.408,0.303-0.612c0.07-0.206,0.036-0.365,0.008-0.65c-0.025-0.284,0.028-0.586,0.205-0.863
					c0.179-0.274,0.348-0.427,0.472-0.427c0.125,0,0.355,0.249,0.702,0.24c0.347-0.008,0.756-0.134,1.005-0.124
					c0.25,0.008,0.479,0.116,0.666,0.196c0.188,0.079,0.232,0.106,0.392,0.106c0.16,0,0.437,0.143,0.623,0.311
					c0.187,0.169,0.364,0.419,0.818,0.561c0.452,0.143,0.578,0.348,0.845,0.454s0.515,0.187,0.649,0.303
					c0.133,0.113,0.489,0.283,0.756,0.398c0.266,0.116,0.524,0.214,0.871,0.535c0.348,0.318,0.604,0.665,0.8,0.994
					c0.196,0.33,0.312,0.721,0.445,0.917c0.133,0.195,0.416,0.428,0.764,0.57c0.347,0.14,0.693,0.273,0.871,0.398
					c0.179,0.124,0.419,0.328,0.774,0.214c0.355-0.116,0.711-0.329,1.032-0.267c0.32,0.062,0.462,0.213,0.827,0.017
					c0.363-0.195,0.425-0.274,0.613-0.292c0.186-0.019,0.142,0.025,0.292-0.026c0.151-0.055,0.249,0.034,0.384,0.079
					c0.132,0.044,0.381,0.008,0.479-0.079c0.097-0.09,0.338-0.08,0.444-0.062c0.107,0.019,0.178,0.026,0.338-0.046
					c0.161-0.07,0.355,0.01,0.596-0.143c0.24-0.15,0.24-0.257,0.437-0.354c0.195-0.099,0.293-0.293,0.319-0.357
					c0.027-0.062,0.116-0.149,0.179-0.149c0.062,0,0.399-0.099,0.39,0.053c-0.008,0.151-0.124,0.418,0.08,0.319
					c0.205-0.097,0.428-0.319,0.516-0.647c0.091-0.33,0.126-0.747,0.347-0.845c0.223-0.099,0.605-0.419,0.784-0.632
					c0.178-0.215,0.39-0.587,0.692-0.8c0.303-0.214,0.383-0.339,0.605-0.48C44.745,65.568,44.817,65.499,44.906,65.418z"/>
				<circle style="fill:#010101;" cx="19.653" cy="68.934" r="0.062"/>
				<path style="fill:#010101;" d="M17.509,68.929c0.073,0.058,0.17,0,0.223-0.106c0.054-0.105,0.027-0.258-0.026-0.258
					s-0.124,0.01-0.187,0.143C17.456,68.841,17.466,68.895,17.509,68.929z"/>
				<path style="fill:#010101;" d="M3.887,51.999c0.118,0.044,0.16-0.187,0.16-0.311s-0.116-0.285-0.204-0.276
					c-0.089,0.01-0.106,0.152-0.089,0.32C3.771,51.902,3.816,51.975,3.887,51.999z"/>
				<path style="fill:#010101;" d="M3.887,46.095c0.084,0.031,0.135-0.062,0.169-0.179c0.036-0.114-0.017-0.168-0.097-0.168
					s-0.134,0.072-0.152,0.168C3.789,46.015,3.841,46.079,3.887,46.095z"/>
				<path style="fill:#010101;" d="M1.406,45.065c0.101-0.015,0.01-0.125-0.053-0.196c-0.062-0.072-0.08-0.072-0.135-0.044
					c-0.054,0.026,0.011,0.115,0.055,0.161C1.317,45.029,1.368,45.07,1.406,45.065z"/>
				<path style="fill:#010101;" d="M1.245,42.618c0.101,0.106,0.206,0.223,0.295,0.108c0.088-0.116,0.034-0.356-0.062-0.427
					c-0.098-0.072-0.408-0.106-0.462-0.044C0.962,42.317,1.174,42.54,1.245,42.618z"/>
				<path style="fill:#010101;" d="M0.793,40.548c0.18,0.013,0.462,0.16,0.675,0.07c0.215-0.088,0.339-0.231,0.215-0.409
					c-0.125-0.178-0.215-0.354-0.348-0.445c-0.134-0.088-0.454-0.07-0.685,0c-0.23,0.072-0.533,0.259-0.613,0.303
					c-0.08,0.044-0.019,0.249,0.08,0.347c0.098,0.098,0.23,0.134,0.354,0.134C0.597,40.548,0.713,40.541,0.793,40.548z"/>
				<path style="fill:#010101;" d="M2.873,39.596c-0.038,0.273-0.07,0.515-0.187,0.631c-0.116,0.116-0.133,0.178-0.133,0.178
					s-0.24,0.231-0.24,0.373s0.052,0.187,0.24,0.106c0.187-0.08,0.436-0.132,0.685-0.391c0.248-0.258,0.631-0.499,0.801-0.577
					c0.169-0.08,0.479-0.4,0.665-0.615c0.187-0.212,0.499-0.515,0.803-0.657c0.302-0.143,1.2-0.631,1.546-0.792
					c0.348-0.16,1.093-0.649,1.307-0.854c0.213-0.205,0.399-0.409,0.606-0.533c0.203-0.125,0.424-0.321,0.54-0.587
					s0.516-0.354,0.792-0.417c0.276-0.062,0.642-0.026,0.846,0.178c0.205,0.205,0.364,0.275,0.604,0.079
					c0.24-0.194,0.364-0.311,0.543-0.365c0.179-0.052,0.427-0.044,0.515-0.159c0.09-0.116,0.438,0.07,0.525,0.132
					c0.089,0.062,0.241,0.116,0.444,0.116c0.205,0,0.489,0.081,0.694,0.196c0.204,0.114,0.488,0.132,0.524-0.063
					c0.036-0.195,0.018-0.319,0.106-0.301c0.088,0.017,0.134,0.293,0.213,0.461c0.08,0.17,0.178,0.258,0.294,0.187
					c0.116-0.07,0.045-0.257,0.07-0.355c0.028-0.098,0.197-0.168,0.251,0.008c0.052,0.178,0.105,0.525,0.364,0.48
					c0.257-0.044,0.364-0.187,0.56-0.391c0.196-0.204,0.276-0.444,0.32-0.605c0.044-0.16,0.15-0.354,0.248-0.543
					c0.099-0.186,0.231-0.365-0.168-0.4c-0.4-0.035-0.693-0.097-0.996-0.319c-0.302-0.223-0.561-0.437-0.8-0.525
					c-0.24-0.09-0.677-0.312-0.871-0.455c-0.196-0.14-0.569-0.354-0.916-0.567c-0.347-0.214-0.802-0.569-0.926-0.899
					c-0.125-0.329-0.035-0.479-0.009-0.684c0.026-0.204-0.036-0.463,0.106-0.561s0.187-0.177,0.15-0.292
					c-0.034-0.116,0.019-0.125-0.052-0.321c-0.072-0.196-0.143-0.347-0.143-0.347s-0.125,0.125-0.382,0.134
					c-0.259,0.008-0.668,0.052-0.971-0.064c-0.301-0.114-0.701-0.168-0.924-0.114c-0.223,0.054-0.507-0.106-0.561-0.205
					c-0.053-0.098-0.462-0.437-0.676-0.596c-0.213-0.16-0.756-0.222-1.022-0.151c-0.267,0.071-0.551,0.382-0.88,0.4
					s-0.81-0.036-1.227,0.036c-0.419,0.07-0.463,0.176-0.543,0.453c-0.08,0.275-0.453,0.427-0.667,0.427
					c-0.213,0-0.667-0.106-0.782,0.062c-0.116,0.168,0,0.409,0.195,0.631c0.195,0.222,0.31,0.364,0.48,0.621
					c0.168,0.258,0.516,0.437,0.507,0.978c-0.01,0.543-0.098,0.997-0.214,1.014c-0.115,0.018-0.249-0.062-0.383,0.018
					c-0.133,0.081-0.187,0.267-0.381,0.267c-0.196,0-0.409,0.196-0.455,0.605c-0.044,0.409,0.08,1.05-0.114,1.254
					c-0.196,0.204-0.454,0.356-0.649,0.507c-0.196,0.15-0.294,0.248-0.375,0.409c-0.078,0.16-0.337,0.303-0.435,0.303
					s-0.142,0.026-0.142,0.026s0.044,0.365,0.044,0.693c0,0.331,0.062,0.455,0.364,0.561c0.303,0.106,0.552,0.088,0.791,0.052
					c0.24-0.034,0.409-0.008,0.578,0.036c0.17,0.044,0.437-0.053,0.738-0.07c0.303-0.018,0.774-0.081,0.935-0.044
					c0.16,0.034,0.267,0.231,0.15,0.417c-0.115,0.186-0.471,0.311-0.773,0.311s-0.488,0.188-0.773,0.356s-0.472,0.258-0.73,0.383
					c-0.256,0.125-0.479,0.292-0.55,0.453C2.9,39.472,2.885,39.521,2.873,39.596z"/>
				<ellipse style="fill:#010101;" cx="11.044" cy="37.963" rx="0.089" ry="0.084"/>
				<path style="fill:#010101;" d="M9.978,38.377c0.16-0.018,0.534-0.054,0.524-0.212c-0.008-0.161-0.273-0.25-0.452-0.25
					s-0.632,0.125-0.642,0.276c-0.008,0.151,0.204,0.168,0.312,0.187C9.827,38.396,9.914,38.384,9.978,38.377z"/>
				<path style="fill:#010101;" d="M9.098,39.337c0.101,0.067,0.303-0.08,0.356-0.223c0.052-0.142,0.017-0.399-0.054-0.399
					c-0.071,0-0.294,0.097-0.356,0.293S9.027,39.292,9.098,39.337z"/>
				<path style="fill:#010101;" d="M9.783,39.239c0.106-0.003,0.178-0.097,0.132-0.249c-0.044-0.15-0.177-0.23-0.274-0.194
					c-0.099,0.034-0.124,0.311-0.062,0.381C9.641,39.249,9.729,39.241,9.783,39.239z"/>
				<path style="fill:#010101;" d="M14.334,39.035c0.092,0.106,0.205-0.044,0.259-0.124s0.08-0.187,0.026-0.213
					c-0.053-0.028-0.133-0.026-0.221,0.115C14.309,38.955,14.297,38.993,14.334,39.035z"/>
				<ellipse style="fill:#010101;" cx="17.599" cy="37.026" rx="0.062" ry="0.072"/>
				<circle style="fill:#010101;" cx="17.46" cy="36.719" r="0.076"/>
				<circle style="fill:#010101;" cx="17.26" cy="36.461" r="0.08"/>
			</g>
		</g>
	</g>
</g>
<g id="Layer_1">
</g>
</svg>
