<?xml version="1.0" encoding="iso-8859-1"?>
<!-- Generator: Adobe Illustrator 16.0.3, SVG Export Plug-In . SVG Version: 6.00 Build 0)  -->
<!DOCTYPE svg PUBLIC "-//W3C//DTD SVG 1.1//EN" "http://www.w3.org/Graphics/SVG/1.1/DTD/svg11.dtd">
<svg version="1.1" xmlns="http://www.w3.org/2000/svg" xmlns:xlink="http://www.w3.org/1999/xlink" x="0px" y="0px" width="100px"
	 height="100px" viewBox="0 0 100 100" style="enable-background:new 0 0 100 100;" xml:space="preserve">
<g id="TT">
	<g>
		<g>
			<path d="M63.054,50.378c0.043,0.422-0.085,0.819-0.393,1.115c-0.202,0.195-0.263,0.315-0.262,0.605
				c0.003,0.753,0.04,1.51,0.19,2.241c0.055,0.26,0.097,0.522,0.159,0.782c0.088,0.37,0.176,0.74,0.248,1.111
				c0.08,0.409,0.235,0.803,0.335,1.211c0.069,0.278,0.127,0.56,0.176,0.839c0.052,0.286-0.026,0.57-0.011,0.861
				c0.015,0.292,0.053,0.579,0.107,0.863c0.101,0.527,0.258,1.04,0.407,1.556c0.041,0.142,0.118,0.308,0.104,0.456
				c-0.013,0.109-0.073,0.21-0.088,0.322c-0.025,0.219,0.035,0.438,0.018,0.657c-0.037,0.42-0.396,0.034-0.64,0.087
				c-0.151,0.034-0.218,0.163-0.321,0.244c-0.102,0.082-0.215,0.122-0.335,0.177c-0.195,0.092-0.507,0.18-0.638,0.357
				c-0.115,0.156-0.11,0.42-0.138,0.603c-0.037,0.271-0.088,0.542-0.122,0.81c-0.035,0.274,0.034,0.557,0.034,0.834
				c0.001,0.899,0.205,1.721,0.421,2.587c0.096,0.388,0.258,0.755,0.357,1.139c0.065,0.263,0.197,0.483,0.285,0.738
				c0.043,0.139,0.027,0.251,0.051,0.39c0.031,0.18,0.187,0.281,0.281,0.421c0.096,0.144,0.169,0.32,0.235,0.48
				c0.131,0.315,0.251,0.669,0.306,1.007c0.052,0.32,0.24,0.55,0.365,0.848c0.117,0.279,0.234,0.549,0.359,0.824
				c0.096,0.217,0.19,0.427,0.299,0.636c0.194,0.378,0.455,0.685,0.705,1.023c0.08,0.111,0.234,0.271,0.383,0.192
				c0.172-0.089,0.115-0.423,0.377-0.423c0.155-0.001,0.13,0.159,0.266,0.178c0.09,0.013,0.215-0.133,0.279-0.164
				c0.094-0.046,0.218-0.047,0.288-0.157c0.125,0.199,0.123,0.303-0.053,0.483c-0.183,0.19-0.218,0.305-0.235,0.563
				c-0.02,0.315-0.207,0.177-0.42,0.07c-0.428-0.211-0.658,0.694-0.819,0.955c-0.151,0.245-0.44,0.269-0.557,0.556
				c-0.124,0.303-0.199,0.621-0.219,0.949c-0.019,0.318,0.135,0.539,0.16,0.833c0.026,0.297-0.116,0.521-0.233,0.778
				c-0.143,0.314-0.007,0.474,0.04,0.779c0.05,0.343,0.01,0.715-0.07,1.052c-0.084,0.353-0.088,0.675-0.055,1.036
				c0.027,0.288,0.01,0.609,0.075,0.886c0.03,0.131,0.109,0.232,0.154,0.354c0.058,0.152,0.009,0.253-0.035,0.408
				c-0.074,0.258-0.25,0.541-0.255,0.812c-0.004,0.241,0.141,0.462,0.188,0.691c0.058,0.284,0.045,0.536,0.048,0.832
				c0.007,0.597,0.122,1.117,0.377,1.645c0.075,0.155,0.152,0.277,0.275,0.396c0.104,0.099,0.239,0.201,0.213,0.362
				c-0.363,0.223-0.598-0.301-0.829-0.522c-0.194-0.188-0.322-0.496-0.579-0.611c-0.155-0.069-0.23,0.012-0.373,0.017
				c-0.18,0.006-0.293-0.158-0.465-0.172c-0.216-0.017-0.45,0.21-0.58,0.356c-0.188,0.21-0.41,0.314-0.646,0.471
				c-0.25,0.17-0.396,0.357-0.585,0.586c-0.165,0.201-0.326,0.399-0.45,0.628c-0.098,0.185-0.179,0.548-0.361,0.665
				c-0.103,0.062-0.231,0.033-0.338,0.087c-0.095,0.048-0.199,0.113-0.292,0.168c-0.168,0.099-0.335,0.222-0.525,0.271
				c-0.24,0.065-0.498,0.02-0.738,0.092c-0.262,0.077-0.455-0.004-0.705,0.177c-0.107,0.079-0.223,0.161-0.319,0.252
				c-0.099,0.094-0.184,0.258-0.317,0.303c-0.139,0.046-0.283-0.068-0.406-0.055c-0.106,0.01-0.307,0.087-0.404,0.128
				c-0.178,0.075-0.175,0.287-0.318,0.372c-0.175,0.104-0.407-0.061-0.595,0.029c-0.197,0.093-0.202,0.342-0.353,0.476
				c-0.126,0.112-0.482,0.125-0.648,0.165c-0.207,0.048-0.439,0.15-0.656,0.14c-0.256-0.011-0.344,0.044-0.577,0.128
				c-0.205,0.075-0.418,0.03-0.627-0.005c-0.251-0.037-0.465-0.073-0.711-0.073c-0.124,0-0.262,0.021-0.387,0.005
				c-0.115-0.018-0.238-0.108-0.354-0.108c-0.463,0-0.865,0.366-1.31,0.461c-0.161,0.036-0.33,0.043-0.496,0
				c-0.183-0.046-0.255-0.185-0.407-0.284c-0.171-0.11-0.409-0.062-0.601-0.06c-0.262,0.004-0.414-0.068-0.657-0.157
				c-0.534-0.194-1.173,0.01-1.699-0.202c-0.174-0.069-0.308-0.208-0.479-0.288c-0.197-0.091-0.455-0.076-0.668-0.114
				c-0.275-0.048-0.486-0.028-0.747,0.075c-0.313,0.124-0.658,0.124-0.976,0.238c-0.357,0.128-0.759,0.056-1.107,0.177
				c-0.271,0.093-0.245,0.371-0.414,0.562c-0.174,0.197-0.443,0.116-0.67,0.112c-0.307-0.008-0.598-0.063-0.904-0.107
				c-0.147-0.022-0.311-0.005-0.46-0.005c-0.773,0.001-1.588-0.191-2.354-0.297c-0.209-0.029-0.407-0.003-0.62-0.003
				c-0.138,0-0.27-0.007-0.403-0.02c-0.446-0.035-0.927-0.016-1.357,0.105c-0.42,0.116-0.873,0.295-1.317,0.224
				c-0.314-0.052-0.596-0.241-0.923-0.076c-0.138,0.069-0.226,0.179-0.385,0.213c-0.464,0.099-0.998-0.079-1.474-0.058
				c-0.264,0.011-0.512,0.029-0.779,0.035c-0.231,0.004-0.465,0.038-0.691-0.005c-0.257-0.048-0.463-0.118-0.713-0.018
				c-0.286,0.115-0.474,0.084-0.756-0.049c-0.514-0.244-1.07-0.193-1.627-0.159c-0.144,0.009-0.285,0.047-0.428,0.066
				c-0.305,0.045-0.586-0.02-0.875-0.061c-0.265-0.038-0.508,0.101-0.767,0.133c-0.259,0.031-0.485,0.081-0.695,0.193
				c-0.208,0.112-0.478,0.096-0.721,0.186c-0.263,0.098-0.592,0.048-0.869,0.093c-0.288,0.048-0.472,0.144-0.726,0.289
				c-0.294,0.166-0.674,0.174-0.979,0.029c-0.221-0.104-0.39-0.422-0.6-0.115c-0.079,0.115-0.107,0.25-0.257,0.288
				c-0.433,0.111-0.805-0.597-1.018-0.849c-0.18-0.213-0.317-0.453-0.486-0.663c-0.158-0.196-0.5-0.331-0.75-0.316
				c-0.126,0.008-0.258,0.096-0.389,0.092c-0.143-0.007-0.265-0.103-0.389-0.158c-0.234-0.103-0.487-0.158-0.742-0.184
				c-0.255-0.023-0.542-0.119-0.794-0.099c-0.153,0.012-0.362,0.226-0.467,0.017c-0.158-0.028-0.272,0.109-0.408,0.151
				c-0.184,0.058-0.275-0.032-0.42-0.137c-0.13-0.095-0.25-0.159-0.407-0.178c-0.317-0.034-0.527,0.349-0.832,0.337
				c-0.152-0.006-0.269-0.073-0.425-0.068c-0.127,0.007-0.275,0.024-0.375,0.1c-0.167,0.124-0.252,0.27-0.471,0.337
				c-0.51,0.157-0.896,0.138-1.401-0.05c-0.144-0.053-0.309-0.131-0.443-0.208c-0.325-0.183-0.521-0.562-0.935-0.557
				c-0.37,0.007-0.696,0.23-1.047,0.319c-0.413,0.101-0.829,0.239-1.191,0.465c-0.183,0.114-0.325,0.254-0.48,0.4
				c-0.118,0.112-0.229,0.285-0.4,0.303c-0.141,0.014-0.293-0.05-0.428,0.017c-0.133,0.064-0.163,0.232-0.275,0.307
				c-0.155,0.101-0.368,0.02-0.539,0.029c-0.207,0.014-0.331,0.131-0.479,0.265c-0.145,0.133-0.348,0.203-0.504,0.322
				c-0.198,0.152-0.375,0.326-0.571,0.479c-0.482,0.377-0.951,0.312-1.525,0.32c-0.274,0.004-0.449,0.083-0.683-0.104
				c-0.169-0.136-0.374-0.378-0.394-0.604c-0.073-0.825,0.816-1.123,1.137-1.735c0.066-0.126,0.024-0.259,0.066-0.389
				c0.062-0.189,0.181-0.126,0.354-0.182c0.045-0.015,0.115-0.07,0.159-0.068c0.113,0.007,0.071,0.052,0.147,0.104
				c0.127,0.089,0.151,0.12,0.296,0.022c0.205-0.138,0.32-0.289,0.549-0.375c0.247-0.093,0.485-0.226,0.757-0.25
				c0.283-0.023,0.584-0.035,0.872-0.049c0.593-0.026,1.042-0.269,1.575-0.477c0.213-0.084,0.39-0.187,0.535-0.386
				c0.15-0.205,0.161-0.465,0.328-0.677c0.076-0.097,0.192-0.153,0.252-0.265c0.063-0.119,0.058-0.276,0.071-0.408
				c0.011-0.106-0.02-0.313,0.035-0.406c0.079-0.136,0.365-0.093,0.495-0.095c0.245-0.001,0.527,0.052,0.761-0.035
				c0.247-0.092,0.471-0.264,0.69-0.406c0.275-0.177,0.581-0.308,0.899-0.383c0.316-0.072,0.627-0.024,0.946-0.056
				c0.293-0.028,0.576-0.097,0.868-0.124c0.504-0.046,1.011-0.039,1.514-0.098c0.446-0.05,0.871-0.186,1.313-0.255
				c0.28-0.046,0.622-0.114,0.846-0.302c0.245-0.205,0.342-0.451,0.468-0.725c0.06-0.132,0.162-0.236,0.267-0.332
				c0.102-0.097,0.267-0.104,0.35-0.214c0.07-0.094,0.083-0.301,0.105-0.411c0.037-0.176,0.046-0.249,0.227-0.286
				c0.294-0.065,0.592-0.111,0.89-0.206c0.582-0.181,1.235-0.461,1.7-0.871c0.351-0.31,0.727-0.677,0.915-1.114
				c0.117-0.273,0.136-0.578,0.105-0.872c-0.022-0.208-0.193-0.388-0.137-0.59c0.096-0.34,0.628-0.695,0.957-0.77
				c0.225-0.052,0.578,0.083,0.796,0.177c0.254,0.112,0.503,0.183,0.744,0.306c0.462,0.232,0.951,0.374,1.448,0.532
				c0.252,0.08,0.482,0.236,0.747,0.277c0.28,0.046,0.549,0.092,0.849,0.106c1.211,0.062,2.481-0.125,3.417-0.974
				c0.428-0.388,0.973-0.755,1.544-0.81c0.183-0.019,0.393-0.007,0.522-0.134c0.142-0.139,0.17-0.346,0.217-0.526
				c0.086-0.334,0.221-0.656,0.311-0.99c0.085-0.312,0.25-0.49,0.411-0.766c0.129-0.219,0.213-0.512,0.289-0.757
				c0.043-0.142,0.052-0.3,0.101-0.441c0.05-0.148,0.111-0.245,0.093-0.407c-0.015-0.141-0.059-0.289-0.146-0.403
				c-0.164-0.217-0.326-0.292-0.22-0.581c0.083-0.224,0.202-0.451,0.136-0.698c-0.035-0.135-0.1-0.221-0.106-0.371
				c-0.009-0.189-0.045-0.232-0.12-0.394c-0.066-0.145-0.026-0.288-0.062-0.438c-0.031-0.133-0.146-0.257-0.222-0.372
				c-0.155-0.231-0.374-0.389-0.566-0.589c-0.223-0.231-0.24-0.463-0.298-0.762c-0.046-0.241,0.077-0.609-0.03-0.823
				c-0.131-0.26-0.432-0.371-0.593-0.605c-0.152-0.221-0.441-0.539-0.287-0.813c0.125-0.225,0.63-0.468,0.492-0.796
				c-0.115-0.276-0.738,0.116-0.704-0.266c0.022-0.261,0.359-0.599,0.534-0.779c0.11-0.113,0.21-0.196,0.227-0.354
				c0.013-0.142-0.059-0.273-0.072-0.408c-0.025-0.266-0.003-0.629,0.138-0.853c0.106-0.17,0.24-0.225,0.27-0.439
				c0.032-0.232-0.01-0.327,0.173-0.5c0.164-0.155,0.178-0.225,0.181-0.455c0.003-0.328,0.277-0.562,0.353-0.868
				c0.058-0.232,0.038-0.425,0.002-0.654c-0.034-0.214-0.133-0.418-0.146-0.634c-0.017-0.266,0.188-0.455,0.304-0.667
				c0.117-0.213,0.286-0.426,0.387-0.646c0.092-0.208,0.115-0.462,0.127-0.689c0.027-0.497-0.093-0.96-0.338-1.391
				c-0.198-0.352-0.33-0.69-0.463-1.069c-0.139-0.395-0.27-0.789-0.434-1.174c-0.147-0.345-0.213-0.716-0.357-1.058
				c-0.121-0.283-0.167-0.637-0.324-0.902c-0.126-0.218-0.419-0.292-0.513-0.535c-0.139-0.354,0.098-0.757-0.071-1.112
				c-0.104-0.221-0.383-0.36-0.616-0.376c-0.313-0.022-0.444-0.118-0.688-0.335c-0.105-0.093-0.185-0.185-0.315-0.231
				c-0.168-0.058-0.238-0.031-0.358-0.189c-0.096-0.126-0.223-0.21-0.326-0.324c-0.098-0.109-0.146-0.242-0.227-0.367
				c-0.142-0.218-0.327-0.413-0.535-0.567c-0.167-0.123-0.363-0.285-0.572-0.305c-0.238-0.023-0.47,0.02-0.711-0.03
				c-0.468-0.093-1.081,0.065-1.486-0.233c-0.158-0.117-0.302-0.319-0.515-0.315c-0.197,0.002-0.441,0.184-0.634,0.081
				c-0.2-0.105-0.296-0.509-0.588-0.336c-0.125,0.075-0.151,0.248-0.281,0.32c-0.142,0.079-0.329,0.029-0.479,0.076
				c-0.167,0.052-0.376,0.054-0.397,0.251c-0.014,0.131,0.086,0.304,0.233,0.23c0.014,0.022,0.034,0.04,0.045,0.066
				c0.008-0.037,0.044-0.089,0.051-0.137c0.321-0.108,0.52,0.301,0.139,0.422c-0.183,0.058-0.247,0.021-0.35,0.181
				c-0.157,0.241-0.455,0.348-0.602,0.047c-0.104-0.214-0.061-0.479-0.165-0.688c-0.101-0.206-0.17-0.269-0.371-0.349
				c-0.132-0.053-0.311-0.138-0.45-0.066c-0.112,0.06-0.102,0.162-0.167,0.253c-0.213,0.296-0.417-0.073-0.672-0.083
				c-0.12-0.003-0.248,0.08-0.394,0.034c-0.184-0.06-0.194-0.138-0.088-0.284c0.076-0.106,0.259-0.205,0.266-0.337
				c0.007-0.157-0.172-0.061-0.243-0.211c-0.13-0.276,0.256-0.409,0.364-0.606c0.052-0.095,0.081-0.29-0.084-0.297
				c-0.109-0.005-0.226,0.267-0.284,0.25c-0.114-0.036,0.031-0.29-0.004-0.356c-0.084-0.162-0.261-0.042-0.244-0.3
				c0.026-0.391,0.339-0.334,0.62-0.318c0.061,0.003,0.153,0.013,0.2-0.018c0.061-0.04,0.002-0.127,0.101-0.161
				c0.143-0.049,0.251,0.146,0.354,0.199c0.29,0.152,0.137-0.152,0.269-0.301c0.055-0.062,0.154-0.104,0.226-0.129
				c0.037-0.012,0.07,0.018,0.124-0.004c0.121-0.047,0.246-0.16,0.306-0.274c0.042-0.078,0.017-0.16,0.052-0.23
				c0.07-0.14,0.173-0.129,0.277-0.211c0.151-0.119,0.14-0.308,0.36-0.311c0.222-0.004,0.353,0.207,0.523-0.019
				c0.107-0.142,0.094-0.349,0.199-0.491c0.173-0.234,0.5-0.067,0.721-0.174c0.104,0.093,0.328,0.018,0.466,0.018
				c0.148-0.002,0.315-0.036,0.478-0.056c0.136-0.017,0.305-0.107,0.446-0.021c0.063,0.039,0.084,0.096,0.154,0.128
				c0.204,0.094,0.655,0.085,0.868,0.031c0.125-0.031,0.248-0.049,0.359-0.119c0.112-0.071,0.187-0.193,0.332-0.213
				c0.17-0.025,0.202,0.083,0.323,0.137c0.269,0.121,0.414-0.244,0.722-0.208c0.209,0.024,0.156,0.121,0.278,0.217
				c0.106,0.083,0.233,0.034,0.337-0.027c0.045-0.026,0.079-0.081,0.124-0.106c0.06-0.034,0.119-0.023,0.181-0.049
				c0.138-0.055,0.184-0.121,0.35-0.128c0.062-0.002,0.198-0.029,0.256,0.017c0.072,0.057,0.03,0.145,0.12,0.199
				c0.122,0.074,0.362-0.066,0.457-0.146c0.191-0.161,0.194-0.687,0.515-0.666c0.349,0.022,0.397,0.604,0.781,0.6
				c0.149-0.001,0.374-0.042,0.473-0.141c0.079-0.078,0.039-0.155,0.182-0.164c0.09-0.006,0.147,0.045,0.18,0.143
				c0.409,0.091,0.617-0.219,0.762-0.561c0.024-0.058,0.087-0.149,0.085-0.216c-0.003-0.085-0.083-0.131-0.094-0.212
				c-0.021-0.169,0.069-0.195,0.211-0.202c0.065-0.004,0.127,0.029,0.193,0.024c0.105-0.006,0.199-0.068,0.308-0.07
				c0.096,0,0.117-0.031,0.181,0.07c0.052,0.083-0.022,0.136-0.001,0.195c0.047,0.137,0.224,0.364,0.386,0.39
				c0.235,0.039,0.458-0.144,0.536-0.35c0.04-0.109,0.024-0.194,0.138-0.27c0.184-0.123,0.5-0.04,0.491,0.217
				c-0.002,0.078-0.032,0.085-0.053,0.151c-0.012,0.032-0.073,0.038-0.083,0.075c-0.01,0.043,0.04,0.043,0.038,0.084
				c-0.015,0.28,0.15,0.454,0.441,0.38c0.21-0.053,0.62-0.056,0.763-0.233c0.085-0.107,0.037-0.274,0.083-0.391
				c0.038-0.096,0.051-0.062,0.124-0.124c0.093-0.08,0.07-0.022,0.105-0.142c0.049-0.164,0.021-0.173,0.191-0.233
				c0.171-0.061,0.189-0.05,0.287-0.19c0.07-0.101,0.167-0.235,0.319-0.232c0.198,0.005,0.186,0.164,0.279,0.254
				c0.238,0.229,0.509-0.098,0.646-0.254c0.092-0.104,0.177-0.151,0.244-0.264c0.059-0.101-0.033-0.083,0.088-0.142
				c0.163-0.078,0.393-0.013,0.567-0.053c0.135-0.031,0.268-0.099,0.391-0.154c0.216-0.097,0.449-0.162,0.654-0.283
				c0.26-0.154,0.357-0.273,0.371-0.573c0.006-0.133-0.015-0.318,0.043-0.44c0.086-0.185,0.26-0.05,0.455-0.073
				c0.153-0.016,0.196,0.01,0.335,0.053c0.235,0.075,0.354,0.173,0.552,0.314c0.198,0.14,0.51,0.11,0.74,0.142
				c0.261,0.036,0.421,0.287,0.684,0.301c0.234,0.013,0.452-0.112,0.679-0.138c0.15-0.016,0.293-0.009,0.442,0
				c0.143,0.007,0.288-0.043,0.425-0.016c0.127,0.024,0.212,0.101,0.341,0.119c0.139,0.02,0.241,0.044,0.366,0.075
				c0.195,0.047,0.434,0,0.617,0.081c0.086,0.038,0.116,0.123,0.188,0.152c0.084,0.035,0.172-0.003,0.258,0.015
				c0.125,0.025,0.207,0.125,0.336,0.142c0.137,0.019,0.237-0.025,0.367,0.041c0.135,0.067,0.134,0.08,0.292,0.069
				c0.054-0.004,0.137-0.02,0.19-0.005c0.099,0.028,0.07,0.058,0.146,0.103c0.11,0.065,0.226,0.103,0.351,0.04
				c0.153-0.079,0.073-0.187,0.177-0.27c0.208-0.167,0.649,0.173,0.885,0.181c0.141,0.004,0.168-0.079,0.283-0.129
				c0.112-0.049,0.25-0.032,0.368-0.044c0.012-0.001,0.133-0.021,0.145-0.018c0.126,0.024,0.058,0.004,0.125,0.084
				c0.044,0.054-0.024,0.083,0.052,0.125c0.049,0.026,0.156-0.007,0.196-0.036c0.106-0.076,0.071-0.166,0.211-0.213
				c0.1-0.034,0.292-0.049,0.27,0.104c0.141,0.064,0.326,0.033,0.476,0.003c0.149-0.03,0.231-0.125,0.372-0.16
				c0.075-0.021,0.15,0.007,0.226-0.021c0.069-0.026,0.112-0.082,0.198-0.102c0.197-0.049,0.428,0.054,0.603-0.028
				c0.173-0.081,0.24-0.329,0.354-0.47c0.22-0.27,0.428-0.27,0.76-0.304c0.31-0.031,0.559,0.005,0.833-0.155
				c0.273-0.161,0.494-0.374,0.795-0.492c0.239-0.095,0.451-0.098,0.707-0.111c0.236-0.012,0.468-0.031,0.692,0.018
				c0.092,0.019,0.168,0.077,0.266,0.037c0.079-0.032,0.117-0.148,0.194-0.183c0.058-0.025,0.122,0.008,0.177-0.012
				c0.06-0.02,0.088-0.084,0.146-0.104c0.093-0.031,0.249-0.006,0.348,0c0.036,0.046,0.084,0.059,0.127,0.102
				c0.082,0.08-0.007,0.071,0.141,0.108c0.066,0.016,0.147,0.029,0.212,0c0.077-0.036,0.061-0.107,0.108-0.138
				c0.111-0.07,0.263-0.053,0.388-0.096c0.139-0.048,0.266-0.125,0.407-0.173c0.121-0.042,0.239-0.071,0.372-0.089
				c0.071-0.01,0.127,0.009,0.188-0.021c0.058-0.028,0.106-0.118,0.183-0.155c0.124-0.059,0.271-0.067,0.407-0.089
				c0.141-0.023,0.242-0.067,0.37-0.108c0.133-0.042,0.332-0.053,0.457-0.072c0.266-0.04,0.586,0.229,0.833,0.072
				c0.13-0.084,0.215-0.247,0.317-0.352c0.269-0.267,0.78-0.156,0.981-0.509c0.27-0.058,0.505,0.105,0.755,0.171
				c0.198,0.052,0.48,0.048,0.693,0.039c0.218-0.011,0.325,0.03,0.5,0.153c0.189,0.134,0.217,0.202,0.457,0.182
				c0.198-0.018,0.317,0.089,0.496,0.125c0.199,0.039,0.5-0.042,0.686-0.11c0.22-0.083,0.437-0.155,0.677-0.156
				c0.206,0,0.485,0.042,0.671,0.121c0.293,0.123,0.453,0.243,0.782,0.164c0.283-0.067,0.527-0.32,0.833-0.301
				c0.133-0.178,0.551-0.023,0.72,0.058c0.101,0.049,0.133,0.145,0.214,0.211c0.352,0.279,0.657-0.235,1.029-0.057
				c0.198,0.096,0.323,0.307,0.144,0.501c-0.11,0.122-0.509,0.147-0.535,0.296c-0.013,0.059,0.106,0.235,0.109,0.317
				c0.005,0.148-0.064,0.154-0.109,0.24c-0.065,0.123-0.073,0.27-0.153,0.384c-0.08,0.115-0.22,0.179-0.329,0.257
				c-0.289,0.206-0.641,0.289-0.926,0.512c-0.283,0.22-0.498,0.555-0.658,0.873c-0.098,0.196-0.132,0.389-0.109,0.603
				c0.032,0.335,0.084,0.605,0,0.938c-0.035,0.138-0.115,0.265-0.195,0.375c-0.155,0.211-0.344,0.397-0.545,0.567
				c-0.086,0.076-0.174,0.155-0.269,0.222c-0.053,0.036-0.122,0.059-0.165,0.106c-0.039,0.043-0.042,0.129-0.083,0.164
				c-0.089,0.075-0.245,0.053-0.352,0.146c-0.099,0.084-0.139,0.197-0.211,0.3c-0.084,0.119-0.199,0.167-0.302,0.269
				c-0.108,0.111-0.183,0.251-0.291,0.36c-0.133,0.131-0.287,0.284-0.334,0.465c-0.04,0.159,0.127,0.522,0.02,0.62
				c-0.04,0.037-0.24,0.009-0.3,0.035c-0.141,0.058-0.223,0.218-0.331,0.307c-0.12,0.097-0.222,0.188-0.32,0.307
				c-0.162,0.192-0.412,0.579-0.713,0.443c-0.111-0.049-0.156-0.137-0.267-0.173c-0.101-0.033-0.273-0.051-0.373-0.019
				c-0.12,0.041-0.122,0.088-0.263,0.088c-0.137,0.001-0.229-0.026-0.355-0.052"/>
			<path d="M16.483,50.219c-0.229,0.155-0.045,0.502-0.172,0.729c-0.044,0.08-0.198,0.23-0.199,0.315
				c-0.001,0.141,0.193,0.129,0.318,0.092c0.12-0.035,0.231-0.097,0.354-0.127c0.077-0.021,0.077,0.004,0.155-0.04
				c0.046-0.025,0.078-0.098,0.142-0.125c0.078-0.035,0.312-0.096,0.393-0.084c0.133,0.016,0.182,0.207,0.319,0.161
				c0.247-0.084-0.296-0.452,0-0.62c0.121-0.069,0.3,0.01,0.336-0.16c0.045-0.213-0.163-0.115-0.261-0.217
				c-0.124-0.128,0.031-0.246-0.025-0.385c-0.103-0.252-0.192,0.042-0.265,0.103c-0.118,0.098-0.243,0.044-0.386,0.075
				c-0.161,0.032-0.129,0.117-0.283,0.159c-0.142,0.038-0.335,0.047-0.407,0.177"/>
			<path d="M19.492,52.29c-0.165-0.01-0.189-0.234-0.393-0.146c-0.168,0.073-0.326,0.264-0.155,0.359
				c0.143,0.078,0.31,0.071,0.459,0.122c0.211,0.072,0.211,0.208,0.458,0.14c-0.006-0.079,0.308-0.669-0.047-0.512
				c-0.054-0.154-0.331-0.016-0.358,0.09"/>
			<path d="M12.43,50.201c-0.106,0.065-0.034,0.334-0.093,0.46c-0.073,0.156-0.229,0.095-0.292,0.216
				c-0.129,0.243,0.268,0.443,0.062,0.734c-0.084,0.119-0.618,0.534-0.261,0.644c0.099,0.029,0.236-0.096,0.314-0.147
				c0.14-0.093,0.245-0.072,0.412-0.098c0.078-0.013,0.34-0.015,0.39-0.043c0.203-0.117-0.052-0.25-0.125-0.319
				c-0.093-0.088-0.176-0.287-0.032-0.4c0.103-0.08,0.312-0.021,0.418-0.07c0.025,0.075,0.249,0.242,0.322,0.263
				c0.129,0.038,0.304-0.055,0.387-0.146c-0.032-0.063-0.098-0.099-0.135-0.159c-0.058-0.096-0.04-0.177-0.079-0.279
				c-0.074-0.197-0.271-0.261-0.426-0.385c-0.135-0.109-0.235-0.23-0.35-0.359c-0.15-0.168-0.361-0.137-0.531,0.018"/>
			<path d="M14.447,49.793c-0.095,0.125,0.007,0.206,0.106,0.263c0.033,0.018,0.273,0.123,0.301,0.111
				c0.269-0.117-0.286-0.409-0.336-0.461"/>
			<path d="M15.084,50.591c-0.135-0.039-0.318,0.372-0.208,0.478c0.151,0.146,0.339-0.154,0.386-0.266
				c0.029-0.068,0.216-0.392,0.194-0.46c-0.069-0.229-0.375,0.204-0.407,0.301"/>
			<path d="M81.832,12.534c-0.089,0.314-0.34,0.175-0.582,0.313c-0.213,0.122-0.175,0.46-0.388,0.594
				c-0.155,0.098-0.411,0.007-0.543,0.133c-0.172,0.166-0.091,0.555-0.223,0.761c-0.095,0.146-0.243,0.242-0.383,0.326
				c-0.092,0.274-0.08,0.356-0.338,0.529c-0.06,0.04-0.06,0.021-0.107,0.07c-0.039,0.04-0.005,0.087-0.07,0.128
				c-0.111,0.069-0.242-0.043-0.319,0.067c-0.068,0.1,0.037,0.227,0.002,0.336c-0.037,0.108-0.177,0.123-0.228,0.212
				c-0.065,0.114,0.005,0.186-0.13,0.265c-0.154,0.091-0.391,0.057-0.497,0.194c-0.101,0.135-0.021,0.34-0.054,0.493
				c-0.045,0.201-0.26,0.234-0.439,0.27c-0.147,0.03-0.59-0.005-0.567,0.194c0.026,0.212,0.375,0.159,0.512,0.216
				c-0.002,0.168-0.274,0.037-0.369,0.032c-0.153-0.008-0.255,0.04-0.406,0.018c-0.152-0.024-0.22-0.057-0.339-0.158
				c-0.043-0.04-0.193-0.264-0.246-0.268c-0.268-0.022,0.019,0.68,0,0.798c-0.024,0.177-0.23,0.548-0.357,0.687
				c-0.048,0.054-0.145,0.109-0.207,0.148c-0.014,0.333,1.315,0.053,1.521,0.032c0.26-0.026,0.52-0.049,0.779,0
				c0.271,0.05,0.477,0.211,0.691,0.372c0.222,0.168,0.327,0.417,0.547,0.588c0.068,0.055,0.188,0.111,0.271,0.116
				c0.098,0.005,0.176-0.064,0.278-0.004c0.082-0.052,0.231-0.085,0.263-0.187c0.042-0.131-0.105-0.194-0.081-0.319
				c0.068-0.355,0.4,0.015,0.591,0c0.279-0.021,0.225-0.31,0.271-0.515c0.057-0.242,0.26-0.527,0.449-0.685
				c0.126-0.105,0.175-0.144,0.273-0.289c0.077-0.111,0.169-0.146,0.27-0.228c0.128-0.105,0.178-0.176,0.338-0.235
				c0.159-0.06,0.258-0.142,0.388-0.261c0.255-0.232,0.462-0.575,0.851-0.425c0.132,0.051,0.207,0.176,0.332,0.234
				c0.25,0.118,0.501,0.297,0.783,0.297c0.079,0,0.378,0.022,0.439-0.021c0.13-0.092-0.013-0.263,0.086-0.355
				c0.109-0.098,0.297,0.032,0.412,0.036c0.125,0.005,0.315-0.072,0.351-0.208c0.04-0.155-0.095-0.258,0.074-0.394
				c0.063-0.051,0.115-0.006,0.16-0.083c0.041-0.073-0.022-0.156-0.015-0.23c0.022-0.175,0.138-0.196,0.296-0.231
				c0.191-0.04,0.485-0.098,0.675-0.018c0.221,0.093,0.282,0.264,0.565,0.146c0.207-0.084,0.365-0.172,0.585-0.146
				c0.223,0.026,0.383,0.271,0.613,0.218c0.115-0.027,0.196-0.135,0.31-0.169c0.122-0.037,0.245-0.007,0.363-0.07
				c0.244-0.129,0.499-0.26,0.715-0.438c0.413-0.342,0.703-0.795,1.065-1.184c0.181-0.194,0.363-0.425,0.615-0.55
				c0.271-0.135,0.528-0.078,0.813-0.092c0.107-0.006,0.353-0.016,0.444-0.071c0.158-0.097,0.037-0.18-0.013-0.313
				c-0.088-0.234-0.107-0.642,0.17-0.745c0.173-0.064,0.323-0.04,0.479-0.176c0.149-0.131,0.217-0.3,0.396-0.394
				c0.22-0.118,0.446-0.072,0.685-0.106c0.117-0.017,0.223-0.077,0.354-0.05c0.133,0.027,0.195,0.093,0.333,0.074
				c-0.01,0.213,0.42-0.03,0.503-0.085c0.26-0.174,0.2-0.467,0.256-0.731c0.039-0.182,0.143-0.576,0.412-0.358
				c0.173,0.139,0.016,0.363,0.322,0.408c0.245,0.037,0.383-0.159,0.479-0.365c0.06-0.125,0.075-0.218,0.175-0.319
				c0.087-0.091,0.186-0.147,0.252-0.266c0.126-0.23,0.07-0.542,0.101-0.801c0.015-0.131-0.018-0.281,0-0.407
				c0.016-0.117,0.141-0.22,0.143-0.335c0.005-0.291-0.362-0.172-0.493-0.359c-0.133-0.192-0.002-0.487,0.138-0.629
				c0.073-0.073,0.163-0.1,0.2-0.198c0.038-0.104-0.07-0.283,0.068-0.352c0.164-0.081,0.215,0.32,0.342,0.074
				c0.05-0.097-0.032-0.18-0.05-0.268c-0.011-0.059-0.033-0.131-0.008-0.19c0.018-0.043,0.09-0.062,0.1-0.1
				c0.021-0.107-0.036-0.069-0.055-0.151c-0.034-0.148,0.005-0.086,0.043-0.212c0.024-0.077,0.018-0.187,0.032-0.288
				c0.027-0.196,0.053-0.421-0.141-0.513c-0.202-0.096-0.462-0.051-0.572-0.263c-0.09-0.171-0.11-0.509-0.372-0.233
				c-0.081,0.085,0.008,0.082-0.136,0.106c-0.075,0.012-0.155-0.029-0.228-0.041c-0.092-0.013-0.312-0.031-0.293,0.13
				c-0.062-0.017-0.174-0.062-0.242-0.038c-0.109,0.039-0.075,0.119-0.157,0.179c-0.104,0.076-0.431,0.033-0.393,0.266
				c0.021,0.114,0.122,0.104,0.197,0.154c0.091,0.062,0.109,0.066,0.163,0.177c0.11,0.224,0.047,0.384-0.168,0.45
				s-0.418,0.159-0.633,0.231c-0.138,0.046-0.186,0.111-0.306,0.187c-0.22,0.139-0.645-0.115-0.805-0.266
				c-0.123-0.115-0.18-0.312-0.341-0.389c-0.152-0.074-0.308-0.036-0.46-0.009c-0.12,0.02-0.085,0.059-0.2-0.017
				c-0.062-0.04-0.095-0.122-0.155-0.165c-0.134,0.115-0.122,0.247-0.207,0.378c-0.198,0.312-0.596,0.239-0.908,0.243
				c-0.34,0.004-0.415,0.307-0.694,0.421c-0.063,0.027-0.144,0.027-0.208,0.058c-0.085,0.042-0.083,0.064-0.155,0.124
				c-0.098,0.083-0.189,0.156-0.271,0.248c-0.11,0.124-0.125,0.108-0.106,0.301c0.021,0.186,0.021,0.202-0.174,0.265
				c-0.219,0.069-0.412,0.048-0.638-0.001c-0.138-0.029-0.247-0.092-0.392-0.07c-0.344,0.054-0.326,0.359-0.653,0.391
				c-0.312,0.029-0.493,0.037-0.758,0.215c-0.096,0.064-0.215,0.117-0.292,0.203c-0.086,0.096-0.059,0.291-0.188,0.338
				c-0.105,0.037-0.16-0.07-0.25-0.068c-0.145,0.005-0.147,0.168-0.297,0.07c-0.11-0.071-0.071-0.261-0.264-0.207
				c-0.074,0.02-0.205,0.131-0.271,0.171c-0.121,0.075-0.16,0.071-0.299,0.111c-0.112,0.031-0.223,0.098-0.268,0.208
				c-0.117,0.293-0.047,0.442-0.352,0.633c-0.205,0.126-0.408,0.24-0.601,0.383c-0.155,0.114-0.394,0.181-0.482,0.366
				c-0.078,0.166-0.028,0.232-0.211,0.317c-0.12,0.059-0.247,0.062-0.337,0.179c-0.093,0.122-0.08,0.207-0.248,0.3
				c-0.145,0.081-0.292,0.104-0.44,0.155c-0.117,0.04-0.208,0.115-0.32,0.163c-0.197,0.086-0.51,0.111-0.682,0.234
				C81.935,12.066,81.882,12.354,81.832,12.534z"/>
			<path d="M97.659,3.684c-0.123-0.004-0.277,0.105-0.226,0.23c0.011,0.026,0.188,0.186,0.211,0.207
				c0.195,0.166,0.137-0.03,0.244-0.067c0.105-0.037,0.193,0.064,0.316,0.034c-0.003-0.067,0.004-0.131,0.024-0.188
				c0.016-0.045,0.128-0.032,0.087-0.146c-0.04-0.107-0.205-0.08-0.271-0.209c-0.073,0.086-0.075,0.179-0.208,0.193
				c-0.125,0.014-0.208-0.117-0.318,0.017"/>
			<path d="M99.447,7.613c-0.095-0.035-0.186-0.219-0.266-0.214c-0.174,0.01-0.082,0.234-0.066,0.315
				c0.012,0.059,0.052,0.132,0.032,0.2c-0.016,0.05-0.093,0.078-0.103,0.108c-0.075,0.201,0.032,0.19,0.188,0.123
				c0,0.216,0.189,0.016,0.29,0.134c0.047,0.055-0.002,0.186,0.07,0.214c0.08,0.03,0.137-0.076,0.142-0.135
				c0.088-0.008,0.153-0.042,0.195-0.123c0.013-0.025,0.071-0.247,0.07-0.269c-0.007-0.192-0.325-0.23-0.445-0.373"/>
		</g>
	</g>
</g>
<g id="Layer_1">
</g>
</svg>
