<?xml version="1.0" encoding="iso-8859-1"?>
<!-- Generator: Adobe Illustrator 16.0.3, SVG Export Plug-In . SVG Version: 6.00 Build 0)  -->
<!DOCTYPE svg PUBLIC "-//W3C//DTD SVG 1.1//EN" "http://www.w3.org/Graphics/SVG/1.1/DTD/svg11.dtd">
<svg version="1.1" xmlns="http://www.w3.org/2000/svg" xmlns:xlink="http://www.w3.org/1999/xlink" x="0px" y="0px" width="100px"
	 height="100px" viewBox="0 0 100 100" style="enable-background:new 0 0 100 100;" xml:space="preserve">
<g id="TZ">
	<g>
		<path style="fill:#010101;" d="M11.731,0c9.202,0,18.408,0,27.611,0c8.09,4.596,16.181,9.194,24.271,13.788
			c2.487,1.41,4.978,2.819,7.464,4.229c1.072,0.639,2.548,1.121,3.41,1.991c0,1.362,0,2.726,0,4.087
			c0.333,0.272,0.663,0.544,0.995,0.817c0.924,0.735,1.849,1.468,2.771,2.203c2.653,2.133,5.308,4.266,7.961,6.396
			c0.816,0.653,1.636,1.304,2.452,1.955c0.36,0.276,0.863,0.53,1.103,0.925c0,0.034,0,0.07,0,0.106
			c-0.277,0.284-0.812,0.773-0.926,1.173c0,0.236,0,0.473,0,0.711c-0.13,0.14-0.261,0.282-0.391,0.424c0,0.511,0,1.02,0,1.528
			c-0.104,0.301-0.438,0.713-0.496,1.032c0.135,0.248,0.118,0.465-0.036,0.675c-0.726,0.007-0.801,0.747-1.138,1.137
			c0.041,0.366,0.104,0.822-0.248,1.032c-0.152,0.089-0.301,0.034-0.391,0.175c-0.023,0.167-0.048,0.333-0.072,0.5
			c-0.118,0.118-0.236,0.236-0.354,0.354c0,0.19,0,0.381,0,0.569c-0.06,0.178-0.371,0.451-0.32,0.711
			c0.038,0.192,0.325,0.747,0.284,0.923c-0.028,0.127-0.149,0.17-0.179,0.393c0.502,0.831,0.666,1.853,1.28,2.557
			c0.125,0.145,0.424,0.268,0.568,0.393c0.106-0.024,0.215-0.048,0.321-0.072c0.222,0.205,0.867,1.047,0.959,1.315
			c0.128,0.376-0.123,0.432,0.142,0.639c0.118-0.048,0.236-0.093,0.354-0.142c0.036,0.036,0.072,0.071,0.108,0.106
			c-0.064,0.695,0.437,0.665,0.711,1.066c0.159,0.237,0.145,0.562,0.391,0.712c0.159,0.058,0.274,0.029,0.427,0.105
			c0,0.224,0,0.451,0,0.675c0.844-0.014,1.197,0.528,1.598,0.96c0.02,0.828-0.021,1.556-0.318,2.096
			c-0.332,0.013-0.665,0.025-0.997,0.036c-0.01,0.037-0.022,0.07-0.034,0.106c-0.099,0.312,0.212,0.532,0.143,0.959
			c-0.152,0.051-0.165,0.028-0.32,0.036c-0.155,0.617-0.186,1.246-0.427,1.849c-0.188,0.166-0.378,0.33-0.569,0.497
			c-0.243,0.534-0.121,1.067-0.069,1.526c-0.287,0.244-0.789,0.981-0.854,1.387c0.236,0.227,0.476,0.45,0.711,0.677
			c0.13,0.348-0.038,0.775,0.105,1.029c0.379,0.075,0.637,0.294,0.854,0.535c-0.013,0.094-0.024,0.188-0.035,0.281
			c-0.037,0.013-0.071,0.025-0.106,0.037c-0.405,0.174-0.849-0.215-1.102-0.354c-0.024,0.012-0.049,0.021-0.072,0.036
			c-0.01,0.046-0.024,0.094-0.034,0.141c0.147,0.235,0.348,0.491,0.391,0.818c-0.048,0.058-0.097,0.118-0.142,0.176
			c-0.271,0.059-0.338,0.309-0.463,0.499c0.051,0.151,0.18,0.184,0.214,0.285c0,0.199,0,0.402,0,0.602
			c0.094,0.085,0.188,0.166,0.284,0.249c0.271,0.363,0.039,0.987-0.108,1.246c0.152,0.279,0.102,0.606,0.215,0.851
			c0.193,0.427,0.66,0.585,0.924,0.925c0.322,0.42,0.334,1.097,0.782,1.386c0.2,0.061,0.402,0.118,0.603,0.179
			c0.149,0.749-0.542,1.472-0.744,2.167c0.176,0.271,0.354,0.545,0.532,0.816c0.143-0.046,0.284-0.094,0.426-0.143
			c0.466,0.275,0.51,1.258,0.355,1.99c-0.422,0.141-0.849-0.008-0.923,0.5c0.525,0.523,2.552,3.535,1.812,4.654
			c-0.469,0.099-0.28,0.459-0.464,0.852c-0.048,0.103-0.488,0.303-0.675,0.642c0.012,0.034,0.024,0.07,0.036,0.105
			c0.022,0.013,0.047,0.024,0.07,0.037c0.691,0.002,0.841-0.472,1.207-0.784c0.223-0.011,0.489-0.019,0.605,0.073
			c0.788,0.378,0.421,1.993,1.21,2.097c0.01-0.013,0.021-0.024,0.033-0.037c0.154-0.118,0.115-0.341,0.214-0.532
			c0.309,0,0.616,0,0.924,0c0.318,0.73,1.087,1.001,1.67,1.456c0.318,0.248,0.309,0.643,0.711,0.853
			c0.164-0.105,0.239-0.158,0.427-0.069c0.002,0.364,0.118,0.397,0.178,0.675c-1.166,1.157-2.525,0.901-3.376,2.63
			c-0.701,0.125-1.496,0.44-1.848,0.889c-0.181,0.229-0.247,0.563-0.533,0.675c-0.167,0-0.333,0-0.496,0
			c-0.097,0.069-0.191,0.143-0.285,0.212c-0.393,0-0.782,0-1.174,0c-0.284,0.297-0.568,0.593-0.853,0.889c-0.154,0-0.309,0-0.463,0
			c-0.094,0.095-0.188,0.189-0.284,0.285c-0.152,0.024-0.306,0.048-0.46,0.069c-0.369,0.239-0.396,0.738-0.89,0.89
			c-0.872,0.268-1.593-0.236-2.026-0.391c-0.33,0-0.663,0-0.993,0c-0.215,0-0.427,0-0.642,0c-0.212,0.201-0.427,0.403-0.639,0.604
			c-0.309,0-0.616,0-0.923,0c-0.634,0.188-1.879,1.386-2.737,1.067c-0.063-0.34-1.195-1.578-1.492-1.671
			c-0.471-0.144-0.887,0.169-1.137,0.212c-0.256,0.046-0.343-0.19-0.642-0.212c-0.694,0.367-0.954,0.717-1.386,1.351
			c-0.225,0.19-0.448,0.378-0.675,0.568c-0.123,0.337-0.014,0.783-0.176,1.031c-0.822,0.002-0.894,0.41-1.386,0.568
			c-0.422,0.136-0.694-0.202-0.926-0.178c-0.215,0.021-0.653,0.333-0.854,0.391c-0.672,0.197-0.898-0.376-1.455-0.213
			c-0.106,0.059-0.215,0.118-0.32,0.176c-0.202-0.117-0.402-0.235-0.604-0.354c-0.215-0.063-0.425,0.008-0.569-0.073
			c-0.022,0-0.046,0-0.069,0c-0.185-0.114-0.323-0.358-0.569-0.427c-0.415,0.037-0.829,0.073-1.243,0.109
			c-0.19-0.056-0.215-0.186-0.499-0.215c-0.177,0.105-0.354,0.215-0.532,0.32c0.007,0.392-0.111,0.448-0.285,0.639
			c-0.544-0.082-0.614,0.313-1.138,0.037c-0.225,0.178-0.451,0.354-0.674,0.532c-0.246-0.074-0.283-0.291-0.497-0.354
			c-0.516-0.154-0.614,0.343-1.068,0.177c-0.247-0.152-0.496-0.307-0.744-0.461c-0.023-0.166-0.048-0.333-0.072-0.499
			c-0.012,0-0.024,0-0.034,0c-0.181-0.227-0.486-0.236-0.746-0.391c-0.28-0.163-0.277-0.66-0.642-0.78
			c-0.261-0.013-0.521-0.024-0.781-0.036c-0.421-0.225-0.273-0.656-0.568-0.995c-0.159-0.184-0.619-0.106-0.854-0.212
			c-0.074-0.293-0.19-0.28-0.391-0.427c-0.392,0.089-0.532,0.388-0.816,0.496c-0.261,0.099-0.466-0.02-0.639,0.108
			c-0.024,0-0.049,0-0.072,0c-0.171,0.147-0.089,0.552-0.284,0.675c-0.26,0.13-0.521,0.26-0.78,0.391c-0.439,0-0.878,0-1.316,0
			c-0.45,0.158-1.836,0.453-2.593,0.212c-0.097-0.069-0.19-0.143-0.284-0.212c-0.796-0.249-2.044,0.365-2.382-0.32
			c-0.154-0.367,0.01-0.97,0.034-1.316c-0.328-0.149-1.326-0.318-1.457-0.675c-0.144-0.395,0.119-0.813-0.072-1.065
			c-0.354-0.272-0.711-0.544-1.065-0.816c0-0.118,0-0.236,0-0.356c-0.143-0.166-0.285-0.331-0.427-0.497
			c-0.135-0.386,0.391-1.575,0.532-1.742c0.155-0.106,0.309-0.212,0.463-0.318c-0.013-0.272-0.024-0.545-0.037-0.819
			c-0.118-0.069-0.236-0.14-0.354-0.212c0-0.296,0-0.593,0-0.888c-0.162-0.349-0.474-0.474-0.783-0.677
			c0.01-0.399,0.128-0.737,0.036-0.959c-0.142-0.069-0.284-0.143-0.426-0.212c-0.13-0.296,0.357-1.299,0.179-1.919
			c-0.087-0.298-0.375-0.609-0.569-0.818c0.002-0.584,0.238-0.786,0.178-1.35c-0.583-0.608-1.037-1.931-1.672-2.382
			c-0.188-0.023-0.378-0.048-0.567-0.069c-0.619-0.33-0.778-1.282-1.421-1.637c-0.386,0.082-0.912-0.004-1.174,0.248
			c0.157,0.284-0.053,0.566-0.142,0.962c-0.372,0.102-1.311-0.532-1.74-0.711c-0.682-0.287-1.678,0.184-2.097,0.212
			c-0.201-0.229-0.791-1.099-1.032-1.171c-0.179,0-0.354,0-0.533,0c-0.168-0.061-0.188-0.241-0.354-0.146
			c-0.294,0.119-1.061,0.415-1.389,0.285c-0.534-0.224-0.932-0.954-1.455-1.136c-0.699-0.242-1.159-0.561-1.743-0.782
			c-0.419-0.16-0.841-0.271-1.171-0.392c-0.202-0.011-0.402-0.023-0.604-0.035c-0.374-0.202-0.372-0.737-0.96-0.924
			c-0.4-0.127-0.621-0.043-1.064-0.178c-0.488-0.26-0.974-0.521-1.458-0.78c-0.558,0-1.114,0-1.67,0
			c-0.137-0.047-0.188-0.201-0.284-0.285c-1.01-0.892-0.577-1.28-2.312-1.101c-0.877-1.349-1.465-2.188-2.842-3.059
			c-0.213-0.135-0.566,0.028-0.852-0.071c-0.263-0.089-1.379-0.515-1.492-0.747c-0.154-0.399-0.043-0.818-0.25-1.17
			c-0.241-0.413-0.851-0.514-1.101-0.89c-0.083-0.202-0.167-0.402-0.249-0.604c-0.129-0.094-0.26-0.188-0.39-0.285
			c0.011-0.151,0.024-0.306,0.036-0.46c-0.13-0.154-0.26-0.308-0.393-0.463c0.083-0.227,0.183-0.296,0.143-0.568
			c-0.805-0.407-0.884-2.584-1.74-3.162c0.012-0.167,0.024-0.332,0.036-0.499c-0.065-0.297-0.474-0.242-0.604-0.46
			c-0.176-0.294-0.328-0.408-0.497-0.642c-0.024-0.118-0.048-0.236-0.073-0.354c-0.011,0-0.024,0-0.036,0
			c-0.118-0.047-0.236-0.093-0.354-0.142c-0.013-0.036-0.024-0.072-0.037-0.106c0.118-0.511,0.456-0.706,0.391-1.278
			c-0.354-0.362-0.708-1.159-0.781-1.777c0.142-0.119,0.284-0.237,0.427-0.355c-0.104-0.336,0.045-0.519,0.178-0.712
			c-0.328-0.952-0.938-0.685-1.28-1.138c-0.327-0.432-0.345-0.854-0.463-1.421c-0.462-0.485-0.923-0.972-1.385-1.457
			c-0.118-0.036-0.236-0.072-0.354-0.106c-0.162-0.195-0.084-0.412-0.32-0.535c-0.844-0.429-1.222,0.207-1.885,0
			c-0.28-0.086-0.689-0.525-0.959-0.71c0.005-0.74-0.579-0.656-0.781-1.171c-0.07-0.179-0.197-2.068-0.142-2.203
			c0.356-0.716,1.345-0.709,1.846-1.495c0.8-1.246-1.005-3.217-1.704-3.942c0.012-0.263,0.024-0.523,0.034-0.783
			c0.084-0.154,0.204-0.171,0.356-0.249c-0.007-0.356,0.082-0.443,0.215-0.641c-0.249-0.42,0.229-0.964,0-1.74
			c-0.282-0.947-1.586-1.354-2.348-1.848c-0.039-2.623,0.053-3.109,2.275-3.519c0.169-0.39,0.263-0.8,0.533-1.102
			c0.802,0.123,1.542-0.549,1.99-1.171c0.024-0.226,0.048-0.45,0.07-0.677c0.132-0.082,0.263-0.164,0.393-0.248
			c0.01-0.07,0.022-0.142,0.034-0.212c0.369-0.356,0.735-0.711,1.101-1.065c0.328-0.516,0.54-1.096,0.926-1.563
			c0.275-0.335,0.825-0.533,1.065-0.89c0.315-0.463,0.17-0.853,0.39-1.492c0.013,0,0.024,0,0.036,0
			c0.106-0.118,0.215-0.239,0.321-0.356c0.12-0.205,0.039-0.444,0.176-0.603c0-0.012,0-0.023,0-0.036
			c0.231-0.225,0.602-0.217,0.783-0.497c0.137-0.214,0.414-0.728,0.462-0.925c0.075-0.318-0.058-0.605,0.106-0.854
			c0.058,0.036,0.118,0.073,0.178,0.106c0.003,0.19,0.019,0.263,0.106,0.357c0.393-0.186,0.97-0.822,1.17-1.208
			c-0.074-0.33-0.12-1.087-0.46-1.246c-0.39-0.012-0.783-0.022-1.174-0.034c-0.214-0.065-0.6-0.226-0.852-0.321
			c-0.013,0.024-0.024,0.048-0.034,0.07c0.02,0.149,0.053,0.125-0.072,0.214c-0.253,0.116-0.759,0.024-0.923-0.072
			c-0.094-0.443-0.262-0.889-0.072-1.171c0.335-0.048,0.92-0.788,0.641-1.353c-0.262-0.14-0.522-0.282-0.783-0.426
			c0.012-0.14,0.023-0.282,0.036-0.427c0.167-0.176,0.333-0.354,0.497-0.533c0.106-0.166-0.031-0.219,0.036-0.426
			c0.249-0.249,0.5-0.497,0.747-0.745c0.823-0.313,1.531,0.448,2.131-0.393c0.246-0.339,1.285-2.255,1.031-2.914
			c-0.118-0.13-0.236-0.26-0.354-0.39c-0.012-0.449-0.024-0.899-0.036-1.35c0.094-0.106,0.19-0.212,0.284-0.32
			c0-0.638,0-1.279,0-1.918c-0.132-0.477-0.644-0.53-0.675-1.173c0.176-0.142,0.294-0.304,0.427-0.497
			c-0.024-0.142-0.048-0.284-0.073-0.426c-0.344-0.774-0.939-0.914-1.812-0.675c-0.145-0.279-0.168-0.706-0.354-0.995
			c-0.223-0.347-1.117-0.648-0.889-1.279c0.024-0.049,0.048-0.095,0.073-0.143C10.999,0.397,11.07,0.574,11.731,0z"/>
		<path style="fill:#010101;" d="M94.531,36.851c0.094,0.037,0.188,0.072,0.284,0.106c0.015,0.205,0.021,0.198,0.143,0.287
			c0.166-0.089,0.479-0.227,0.745-0.108c0.047,0.023,0.094,0.048,0.142,0.072c0.012,0.055-0.176,2.352-0.213,2.417
			c-0.137,0.236-0.457,0.208-0.641,0.39c-0.296,0.299-0.23,0.707-0.317,1.171c-0.036,0.012-0.073,0.024-0.108,0.036
			c-0.188,0.087-0.604,0.037-0.745-0.036c-0.099-0.521-0.261-1.07-0.179-1.528c0.516-0.236,0.594-0.747,0.747-1.349
			c-0.133-0.106-0.262-0.215-0.393-0.321c0.013-0.2,0.024-0.403,0.037-0.605C94.198,37.208,94.364,37.029,94.531,36.851z"/>
		<path style="fill:#010101;" d="M90.408,44.278c0.246,0.007,0.257,0.049,0.39,0.143c0.003,0.66,0.024,1.328,0.179,1.743
			c-0.012,0.224-0.023,0.45-0.036,0.674c0.069,0.347,0.6,0.81,0.393,1.313c-0.123,0.265-0.315,0.272-0.356,0.641
			c0.012,0.036,0.023,0.07,0.036,0.106c0.034,0.012,0.07,0.023,0.105,0.036c0.382,0.121,0.897-0.381,1.353-0.32
			c0.01,0.036,0.021,0.072,0.034,0.106c0.012,0.369,0.023,0.735,0.036,1.104c0.2,0.27,0.402,0.545,0.603,0.817
			c-0.152,0.238-0.681,0.599-0.923,0.745c-0.047-0.024-0.095-0.046-0.143-0.069c-0.396-0.219-0.415-0.909-0.781-1.174
			c-0.181-0.127-0.576-0.41-0.746-0.46c-0.313-0.096-0.606,0.015-0.818-0.108c-0.033-0.388-0.25-0.453-0.32-0.781
			c-0.072-0.34-0.284-2.593-0.284-2.593c0.173-0.376,0.668-0.421,0.89-0.747C90.256,45.098,90.174,44.633,90.408,44.278z"/>
		<path style="fill:#010101;" d="M95.1,62.828c0.164,0.012,0.33,0.024,0.497,0.036c0.013,0.036,0.024,0.072,0.035,0.106
			c0.237,0.568-0.469,1.085-0.567,1.494c-0.077,0.309,0.057,0.575-0.106,0.817c-0.309,0-0.617,0-0.925,0
			c-0.338,0.099-0.994,0.731-1.423,0.211c-0.015-0.345,0.02-0.53,0.143-0.71c0.335-0.057,0.366-0.271,0.604-0.391
			c0.284-0.095,0.569-0.188,0.854-0.285C94.61,63.851,94.796,63.194,95.1,62.828z"/>
	</g>
</g>
<g id="Layer_1">
</g>
</svg>
