<?xml version="1.0" encoding="iso-8859-1"?>
<!-- Generator: Adobe Illustrator 16.0.3, SVG Export Plug-In . SVG Version: 6.00 Build 0)  -->
<!DOCTYPE svg PUBLIC "-//W3C//DTD SVG 1.1//EN" "http://www.w3.org/Graphics/SVG/1.1/DTD/svg11.dtd">
<svg version="1.1" xmlns="http://www.w3.org/2000/svg" xmlns:xlink="http://www.w3.org/1999/xlink" x="0px" y="0px" width="100px"
	 height="100px" viewBox="0 0 100 100" style="enable-background:new 0 0 100 100;" xml:space="preserve">
<g id="UG">
	<g>
		<path style="fill:#010101;" d="M79.361,0c0.536,0.07,1.237,0.543,1.338,1.065c0.056,0.291-0.149,0.487-0.033,0.722
			c0.166,0.34,0.748,0.804,0.515,1.304c-0.239,0.065-0.396,0.187-0.412,0.482c0.298,0.447,1.127,0.71,1.169,1.339
			c-0.093,0.287-0.186,0.573-0.274,0.857c0.032,0.036,0.067,0.07,0.103,0.105c0.522,0.004,1.295-0.119,1.682,0.103
			c0.051,0.196,0.1,0.316,0.103,0.585c-0.289,0.431-0.727,0.151-0.994,0.479c0.43,0.711,0.999,0.259,1.578,0.585
			C84.29,8.517,85,8.977,85.576,8.208c0.274,0.036,0.414,0.008,0.619,0c0.182,0.299,0.366,0.597,0.549,0.895
			c0.494-0.014,0.876,0.303,0.998,0.652c0.125,0.291-0.089,0.471-0.141,0.652c0,0.505,0,1.009,0,1.511
			c-0.125,0.58-0.567,0.757-0.926,1.099c0.048,0.243,0.337,0.445,0.242,0.754c-0.072,0.231-0.383,0.499-0.242,0.962
			c0.083,0.271,0.424,0.397,0.516,0.62c0.01,0.136,0.021,0.275,0.033,0.413c0.079,0.217,0.279,0.568,0.346,0.79
			c0,0.343,0,0.687,0,1.029c0.167,1,0.717,1.078,1.648,1.202c0.157,0.573,0.437,0.948,0.581,1.442c0,0.298,0,0.596,0,0.895
			c0.07,0.102,0.138,0.205,0.205,0.31c0.114,0.37-0.096,0.84,0.07,1.131c0.364,0.31,0.73,0.618,1.099,0.928
			c0.251-0.023,0.503-0.044,0.755-0.067c0.188,0.037,1.118,0.957,1.237,1.131c0.192,0.289,0.115,1.567,0.206,1.994
			c0.126,0.601,1.025,1.976,1.477,2.231c0.176-0.105,0.215-0.197,0.447-0.172c0.111,0.272,0.103,0.787,0.238,1.032
			c0.429,0.098,0.796,0.808,0.824,1.269c-0.205,0.349-0.639,0.533-0.685,1.031c0.126,0.527,0.251,1.053,0.377,1.58
			c-0.012,0.205-0.023,0.412-0.035,0.616c0.039,0.217,0.244,0.669,0.31,0.895c0.023,0.342,0.047,0.687,0.067,1.029
			c0.166,0.569,0.405,1.446,0.553,1.959c0,0.342,0,0.687,0,1.03c0.153,0.554,1.169,0.777,0.927,1.716
			c-0.19,0.727-0.342,1.824-0.55,2.541c-0.014,0.31-0.023,0.621-0.036,0.93c-0.05,0.163-0.958,1.877-1.062,1.956
			c-0.424,0.241-0.848,0.48-1.271,0.723c-0.15,0.319-0.299,0.64-0.447,0.962c-0.096,0.326,0.032,0.662-0.07,0.892
			c-0.471,0.025-0.859,0.124-1.201,0.343c0,0.058,0,0.116,0,0.172c0.186,0.447,0.824,1.232,0.926,1.685
			c0.2,0.858-0.569,1.609-1.131,1.75c-0.457,0.014-0.915,0.023-1.375,0.032c-0.023,0.015-0.044,0.023-0.067,0.038
			c-0.207,0.204-0.412,0.409-0.617,0.619c-0.345,0.237-1.016,0.224-1.202,0.614c-0.014,0.149-0.023,0.299-0.037,0.447
			c-0.237,0.168-0.582,0.14-0.958,0.205c-0.382,0.563-0.499,1.449-0.652,2.166c0.01,0.182,0.023,0.368,0.033,0.55
			c-0.127,0.195-0.252,0.387-0.378,0.582c-0.079,0.266-0.158,0.526-0.24,0.793c-0.148,0.125-0.298,0.25-0.447,0.377
			c-0.109,0.162-0.114,0.489-0.207,0.652c-0.475,0.12-0.663,0.381-1.029,0.582c-0.203,0.115-0.447,0.13-0.617,0.242
			c-0.058,0.219,0.021,0.647-0.067,0.927c-0.075,0.228-0.396,0.261-0.518,0.446c-0.278,0.424-0.027,0.485-0.515,0.788
			c0,0.015,0,0.023,0,0.037c-0.146,0.084-0.31,0.009-0.515,0.065c-0.481,0.144-1.183,0.517-1.443,0.895
			c-0.41,0.596-0.035,0.964-0.238,1.615c-0.093,0.294-0.502,0.294-0.584,0.615c-0.163,0.634,0.436,0.802,0.24,1.444
			c-0.275,0.289-0.55,0.573-0.825,0.856c-0.536,0.647-0.892,1.375-1.477,1.962c-0.126-0.038-0.251-0.07-0.377-0.107
			c-0.405,0.559-1.281,1.258-1.821,1.719c-0.033-0.009-0.069-0.022-0.103-0.032c-0.442-0.19-0.305-0.793-0.583-1.132
			c-0.127-0.047-0.253-0.094-0.379-0.14c-0.096-0.089-0.148-0.284-0.24-0.378c-0.056,0.009-0.116,0.023-0.172,0.032
			c-0.222,0.369-0.298,0.798-0.688,0.998c-0.034,0-0.067,0-0.103,0c-0.155-0.15-0.306-0.243-0.412-0.447
			c0.089-0.182,0.285-0.513,0.205-0.723c-0.089-0.135-0.182-0.275-0.275-0.41c0.267-0.252,0.723-0.344,1.032-0.549
			c0.023-0.094,0.044-0.182,0.067-0.275c-0.056-0.056-0.111-0.116-0.17-0.172c-0.239,0.069-0.482,0.14-0.722,0.205
			c-0.193-0.043-0.39-0.089-0.585-0.136c-0.205,0.112-0.409,0.228-0.617,0.345c-0.268-0.07-0.412-0.363-0.654-0.312
			c-0.187,0.065-0.229,0.146-0.307,0.312c0.088,0.41,0.367,0.792,0.411,1.305c-0.53,0.769-1.22,1.317-2.163,0.582
			c-0.148,0.047-0.299,0.093-0.447,0.14c-0.661-0.335-0.314-0.466-0.582-1.034c-0.094-0.191-0.385-0.312-0.31-0.582
			c0.023-0.047,0.044-0.094,0.067-0.135c0.396,0.074,0.668,0.387,1.134,0.102c0.012-0.023,0.023-0.047,0.035-0.069
			c-0.121-0.284-0.326-0.392-0.378-0.722c0.173-0.215,0.625-0.2,0.857-0.346c0.126-0.367,0.728-1.107,0.585-1.541
			c-0.023-0.047-0.044-0.094-0.067-0.141c-0.059,0-0.117,0-0.173,0c-0.617,0.22-0.429,0.713-0.722,1.24
			c-0.123,0.046-0.266,0.205-0.48,0.135c-0.195-0.205-0.391-0.41-0.584-0.619c-0.226-0.178-0.669-0.271-0.825-0.514
			c-0.011-0.037-0.023-0.068-0.034-0.102c0.125-0.079,0.387-0.112,0.518-0.21c0.018-0.014,0.745-1.453,0.754-1.509
			c-0.098-0.107-0.153-0.219-0.31-0.172c-0.496,0.195-0.394,0.866-1.032,0.963c-0.325-0.172-0.475-0.554-0.857-0.619
			c-0.219,0.182-0.656,0.904-0.582,1.201c0.108,0.233,0.35,0.257,0.48,0.447c0.114,0.262,0.229,0.527,0.345,0.788
			c0.557,0.098,0.942,0.326,1.166,0.759c-0.011,0.057-0.023,0.111-0.034,0.168c-0.034,0.014-0.07,0.023-0.103,0.037
			c-0.727,0.304-1.565-0.19-2.129-0.312c-0.607-0.13-1.446,0.229-1.821,0.447c-0.54,0.317-0.438,1.156-0.857,1.58
			c-0.512-0.023-0.449-0.387-0.926-0.443c-0.105,0.057-0.208,0.111-0.312,0.168c-0.129,0.438,0.165,0.582,0.481,0.76
			c0,0.064,0,0.135,0,0.205c-0.478,0.387-0.649,1.159-1.167,1.508c-0.148,0.038-0.297,0.07-0.447,0.104
			c-0.435,0.247-0.449,0.754-1.373,0.587c-0.806-0.624-0.062-1.346-0.515-2.097c-0.309-0.093-0.499-0.042-0.72,0.104
			c-0.067,0.265,0.019,0.624-0.07,0.824c-0.848,0.078-0.577-0.075-0.928,0.549c-0.307-0.019-0.335-0.144-0.584-0.205
			c-0.594,0.536-0.78,0.126-1.166,0.275c0,0.126,0,0.252,0,0.377c-0.082,0.08-0.163,0.158-0.243,0.238c-0.047,0-0.091,0-0.135,0
			c-0.56-0.933,1.104-1.175,1.509-1.542c-0.012-0.038-0.022-0.07-0.032-0.103c-0.112-0.266-0.445-0.388-0.792-0.312
			c-0.187,0.145-0.27,0.358-0.479,0.48c-0.229-0.028-0.298-0.094-0.308-0.341c0.094-0.224,0.21-0.335,0.237-0.619
			c-0.098-0.187-0.228-0.251-0.274-0.479c0.014-0.023,0.023-0.047,0.037-0.07c0.33-0.023,0.299-0.187,0.48-0.345
			c0.273,0.027,0.614,0.191,0.892,0.069c0.058-0.047,0.114-0.092,0.17-0.135c0-0.047,0-0.093,0-0.139
			c-0.438-0.457-1.784-1.217-2.334-0.275c-0.138,0.237,0.042,0.414,0,0.685c-0.053,0.35-0.232,0.693-0.377,0.964
			c-0.2,0.015-0.317-0.135-0.518-0.07c-0.111,0.057-0.111,0.07-0.17,0.174c0.054,0.27,0.305,0.549,0.208,0.824
			c-0.054,0.116-0.057,0.116-0.173,0.172c-0.205,0.01-0.412,0.023-0.619,0.033c-0.622,0.158-0.533-0.005-1.099-0.136
			c-0.229,0.274-0.457,0.55-0.687,0.824c-0.422-0.032-0.542-0.046-0.859,0.103c-0.023-0.014-0.045-0.023-0.069-0.037
			c0.034-0.135,0.069-0.271,0.104-0.41c-0.022-0.106-0.171-0.162-0.138-0.344c0.057-0.312,0.3-0.634,0.241-1.029
			c-0.069-0.07-0.138-0.136-0.207-0.205c-0.057,0.009-0.115,0.022-0.172,0.031c-0.304,0.499-0.317,1.017-0.79,1.342
			c-0.269-0.042-0.346-0.2-0.55-0.312c-0.057,0.037-0.114,0.069-0.172,0.103c-0.079,0.447-0.16,0.895-0.24,1.342
			c-0.542,0.205-1.155,0.247-1.614,0.479c-0.023-0.009-0.045-0.022-0.069-0.031c-0.012-0.023-0.023-0.047-0.034-0.07
			c0.102-0.434,0.547-0.61,0.754-0.96c-0.066-0.451-0.479-0.47-0.618-0.824c-0.057-0.438-0.114-0.871-0.171-1.304
			c-0.112-0.075-0.128-0.112-0.309-0.141c-0.219,0.187-0.449,0.271-0.481,0.652c0.126,0.163,0.251,0.322,0.377,0.48
			c0.44,1.191-0.311,2.688-0.858,3.228c-0.057,0-0.114,0-0.172,0c-0.022-0.019-0.046-0.042-0.068-0.065
			c-0.064-0.424,0.108-1.024,0-1.514c-0.058-0.042-0.115-0.089-0.172-0.135c-0.079,0.032-0.16,0.069-0.24,0.102
			c-0.157,1.053,0.035,1.463-0.928,1.72c-0.136,0.032-0.28,0.135-0.446,0.065c-1.134-0.546-3.417-2.633-5.254-2.232
			c-0.303,0.066-0.526,0.309-0.756,0.378c-0.302,0.093-0.51-0.178-0.79-0.069c-0.047,0.023-0.092,0.047-0.138,0.069
			c-0.045,0.42,0.693,0.722,1.167,0.62c0.263-0.2,0.421-0.442,0.824-0.518c0.521-0.094,1.966,0.48,2.095,0.754
			c0.168,0.317-0.083,0.647-0.034,0.862c0.022,0.047,0.045,0.089,0.069,0.136c0.069,0.014,0.137,0.023,0.205,0.037
			c0.253-0.237,0.548-0.484,0.893-0.242c0.014,0.456,0.216,0.735,0.31,1.099c0.157,0.62,0.202,1.132,0.515,1.579
			c0.658,0.945,1.869,1.229,2.474,2.371c-0.092,0.093-0.184,0.182-0.275,0.274c-0.857-0.046-0.756-0.349-1.339,0.308
			c-0.171-0.093-0.231-0.148-0.412-0.065c0.045,0.127,0.091,0.252,0.138,0.378c-0.287,0.363-0.573,0.731-0.859,1.099
			c-0.609,0.824-2.369,2.456-1.648,3.778c-0.219,0.378-0.791,0.451-1.064,0.927c-0.25,0.424-0.653,0.987-0.791,1.439
			c-0.174,0.576,0.041,0.895-0.309,1.238c-0.622,0.609-2.389,0.428-3.091,0c-0.362-0.225-0.293-0.656-0.548-0.926
			c-0.5-0.01-1.15-0.071-1.408,0.101c0,0.043,0,0.09,0,0.137c0.366,0.382,0.601,0.223,1.029,0.479c0.33,0.2,0.388,0.74,0.791,0.894
			c0.308,0.014,0.618,0.023,0.927,0.037c1.274,0.242,2.322-0.023,3.022-0.722c0.126,0.01,0.252,0.022,0.378,0.032
			c0.057,0.034,0.114,0.071,0.171,0.103c0.043,0.55,0.098,1.351,0.103,1.682c-1.122,0.015-2.243,0.023-3.366,0.037
			c-0.263,0.074-1.059,0.303-1.51,0.136c-0.155-0.057-0.163-0.191-0.413-0.205c-1.661,0-3.32,0-4.979,0c-1.214,0-2.428,0-3.642,0
			c-0.08,0.056-0.159,0.116-0.24,0.172c-1.041,0-2.083,0-3.125,0c-0.562,0.237-1.123,0.48-1.684,0.723
			c-0.304,0.228-0.341,0.647-0.754,0.787c-0.013,0-0.023,0-0.035,0l-1.958,0.07c-0.303-0.062-0.718-0.336-1.064-0.411
			c-0.28-0.064-0.916,0.183-1.168,0.237c-0.183-0.046-0.365-0.093-0.55-0.135c-0.305,0.331-0.249,0.857-0.446,1.234
			c-0.827,0.271-0.424,0.615-0.824,1.17c-0.171,0.232-0.418,0.265-0.652,0.446c-0.058,0.112-0.115,0.229-0.172,0.341
			c-0.265,0.382-0.75,0.591-1.168,0.824c-0.057,0.345-0.114,0.689-0.171,1.029c-0.119,0.177-0.333,0.125-0.515,0.242
			c-0.092,0.116-0.184,0.229-0.274,0.345c-0.218,0.009-0.436,0.023-0.653,0.032c-0.454,0.219-0.354,0.509-0.583,0.895
			c-0.035,0.01-0.069,0.023-0.103,0.033c-0.18-0.08-0.255-0.168-0.481-0.205c-0.33,0.312-1.362,1.196-1.889,0.894
			c-0.12-0.335-0.457-0.559-0.55-0.824c0-0.148,0-0.298,0-0.447c-0.166-0.573-0.414-1.117-0.927-1.341
			c-0.363,0.158-0.436,0.433-0.654,0.722c-0.034,0-0.068,0-0.102,0c-1.053-1.426-1.629,0.937-2.988,0.378
			c-0.242-0.108-0.253-0.327-0.378-0.551c0.08-0.158,0.16-0.316,0.24-0.479c0.017-0.075,0.02-1.724-0.034-1.924
			c-0.064-0.229-0.343-0.285-0.412-0.48c0-0.549,0-1.1,0-1.648c0.178-0.834,0.032-1.971,0.274-3.057
			c0.081-0.358,0.327-0.442,0.48-0.689c0.07-0.292,0.139-0.592,0.206-0.889c0.045-0.293-0.122-0.512-0.171-0.689
			c0-0.591,0-1.187,0-1.784c0.084-0.4,0.479-0.479,0.55-0.894C3.487,85,3.188,84.8,3.257,84.553c0.139-0.162,0.275-0.32,0.413-0.479
			c-0.022-0.415-0.045-0.824-0.068-1.239c0.035-0.126,0.116-0.178,0.136-0.378c-0.102-0.102-0.206-0.205-0.309-0.307
			c-0.015-1.258,0.443-2.446,0.721-3.54c0.115-0.452-0.026-0.988,0.103-1.51c0.208-0.848,0.426-1.766,0.583-2.608
			c0.069-0.373-0.308-0.563-0.378-0.824c-0.084-0.331,0.178-1.584,0.276-1.858c0.277-0.782,1.443-0.629,1.854-1.305
			c0.535-0.876,0.231-2.543,0.653-3.503c0.297-0.354,0.595-0.708,0.892-1.062c0.081-0.21,0.161-0.415,0.241-0.619
			c0.217-0.183,0.434-0.369,0.652-0.551c0.396-0.717-0.298-1.416-0.412-1.854c-0.121-0.466,0.15-0.745,0.206-0.997
			c0.169-0.764-0.359-1.662,0.035-2.198c0.444-0.601,1.42-1.021,2.163-1.305c0.467-0.177,1.057-0.023,1.305-0.41
			c0.034-0.116,0.069-0.232,0.104-0.344c0.262-0.243,0.526-0.48,0.79-0.723c0.32-0.493,0.139-1.183,0.343-1.751
			c0.446-0.503,0.893-1.007,1.339-1.509c0.126-0.023,0.252-0.047,0.377-0.07c0.201-0.14,0.136-0.512,0.379-0.652
			c0.306-0.182,0.524,0.112,0.824,0.032l1.236-0.307c0.357-0.232,0.534-0.821,0.791-1.169c0.285-0.273,0.572-0.548,0.858-0.824
			c0.319-0.424,0.499-0.932,0.825-1.375c0.56-0.573,1.121-1.144,1.683-1.716c0.366-0.333,0.732-0.663,1.098-0.997
			c0.172-0.067,0.343-0.137,0.516-0.205c0.661-0.487,1.171-1.232,1.82-1.719c0.389-0.217,0.778-0.433,1.168-0.652
			c0.217-0.24,0.434-0.48,0.652-0.723c1.045-1.011,1.887-2.126,2.782-3.294c0.16-0.114,0.32-0.229,0.479-0.346
			c0.504-0.593,1.008-1.19,1.511-1.783c0.122-0.245-0.072-0.58,0.035-0.825c0.05-0.117,0.265-0.209,0.344-0.345
			c-0.093-1.12-1.144-1.034-1.649-1.716c-0.225-0.301-0.183-0.778-0.378-1.132c-0.034-0.014-0.069-0.023-0.103-0.035
			c-0.389,0.114-0.778,0.228-1.168,0.342c-0.188-0.272-0.547-0.391-0.72-0.652c-0.046-0.24-0.091-0.48-0.138-0.723
			c-0.138-0.233-1.357-1.148-1.787-0.959c-0.202,0.091-0.284,0.282-0.377,0.48c0.039,0.163,0.128,0.255,0.069,0.412
			c-0.091,0.103-0.183,0.205-0.274,0.31c-0.577-0.034-0.947-0.33-1.305-0.584c0.007-1.281-1.067-0.906-1.889-1.339
			c-0.217-0.54,0.007-0.571,0.103-1.201c0.079-0.526-0.21-1.225-0.034-1.751c0.193-0.219,0.389-0.436,0.583-0.652
			c-0.023-0.104-0.045-0.208-0.069-0.31c0.114-0.161,0.229-0.322,0.343-0.482c0-0.114,0-0.228,0-0.342
			C23.6,26.25,23.714,26.125,23.829,26c0-0.137,0-0.275,0-0.413c0.32-0.366,0.64-0.733,0.961-1.099
			c-0.022-0.102-0.045-0.207-0.069-0.31c0.041-0.193,0.22-0.3,0.241-0.617c-0.146-0.261-0.265-0.662-0.447-0.927
			c-0.103-0.104-0.207-0.208-0.309-0.31c-0.117-0.282-0.052-0.417-0.207-0.618c-0.293-0.384-0.973-0.561-1.133-1.067
			c-0.052-0.165,0.354-0.97,0.412-1.131c0.139-0.38,0.076-0.661,0.034-0.997c0.484-0.37,0.456-1.331,0.687-2.026
			c0.355-0.354,0.711-0.71,1.066-1.064c0.127-0.18-0.006-0.408,0.103-0.652c0.24-0.208,0.481-0.413,0.721-0.62
			c0.019-0.706-0.055-1.221-0.275-1.614c-0.358-0.065-0.625,0.21-0.824,0.412c-0.154-0.005-0.186-0.022-0.275-0.067
			c-0.119-0.664,0.296-0.729,0.447-1.167c0-0.116,0-0.23,0-0.344c0.119-0.385,0.541-0.466,0.721-0.755
			c0.167-0.268,0.126-0.486,0.24-0.756c0.298-0.308,0.596-0.618,0.893-0.927c0.172-0.012,0.344-0.023,0.516-0.035
			c0.335-0.1,0.52-0.505,0.756-0.72c0.524,0.211,0.503-0.229,0.858-0.413c0.126,0,0.252,0,0.377,0
			c0.261-0.08,0.425-0.358,0.619-0.515c0.505,0.091,0.896,0.082,1.511,0.067c0.136-0.023,0.275-0.044,0.412-0.067
			c0.413,0.088,0.765,0.426,1.064,0.617c0.193,0.124,0.431,0.014,0.618,0.103c0.24,0.219,0.48,0.435,0.721,0.652
			c0.125,0.023,0.251,0.047,0.377,0.07c0.161,0.125,0.321,0.251,0.48,0.377c0.138,0,0.275,0,0.413,0
			c0.212,0.054,0.477,0.461,0.721,0.585c0.373-0.075,0.367-0.361,0.618-0.483c0.167-0.082,0.667,0.003,0.996-0.102
			c0.184-0.137,0.367-0.275,0.551-0.413c0.297-0.039,0.774,0.131,0.996-0.067c0.371-0.333,0.824-0.78,1.133-1.168
			c0.133-0.168,0.263-0.471,0.446-0.583c0.149,0,0.298,0,0.447,0c0.106,0.054,1.882,2.027,1.922,2.129
			c0.24,0.601,0.233,1.409,0.55,1.924c0.458,0.124,1.079-0.1,1.271-0.07c0.229,0.15,0.458,0.298,0.687,0.447
			c0.231,0.269,0.192,0.68,0.619,0.755c0.114-0.033,0.228-0.067,0.343-0.103c0.069,0.056,0.136,0.114,0.206,0.172
			c0.286,0.012,0.572,0.023,0.858,0.036c0.081-0.117,0.161-0.231,0.241-0.345c-0.034-0.373-0.29-1.125-0.207-1.406
			c0.25-0.554,0.802-0.431,1.236-0.757c0.138-0.148,0.275-0.297,0.412-0.447c0.126,0.012,0.252,0.023,0.378,0.036
			c0.409-0.142,0.592-0.846,0.961-0.998c0.205-0.082,0.273,0.122,0.448,0.036c0.091-0.091,0.184-0.182,0.273-0.275
			c0.092,0.034,0.184,0.07,0.274,0.104c0.207-0.047,0.413-0.093,0.619-0.137c0.104,0.044,0.205,0.09,0.31,0.137
			c0.205-0.047,0.409-0.093,0.617-0.137c0.138,0.044,0.277,0.09,0.412,0.137c1.002-0.137,2.842-0.03,3.676-0.31
			c0.09-0.082,0.184-0.161,0.274-0.24c0.126,0,0.251,0,0.377,0c0.069-0.082,0.138-0.161,0.205-0.242
			c0.126,0.023,0.254,0.047,0.38,0.069c0.113-0.102,0.228-0.207,0.342-0.31c0.242-0.069,0.504,0.078,0.825,0
			c0.298-0.069,0.433-0.374,0.687-0.446c0.091,0.011,0.184,0.022,0.274,0.035c0.231-0.217,0.46-0.436,0.688-0.652
			c0.077-0.053,0.783-0.286,0.895-0.31c0.354,0.287,0.708,0.573,1.062,0.859c0.149,0.047,0.299,0.091,0.447,0.138
			c0.419,0.296,0.731,0.906,1.271,1.065c0.871,0,1.741,0,2.609,0c0.125,0.067,0.252,0.137,0.377,0.207
			c0.354,0.103,2.509,0.067,2.509,0.067c0.577-0.258,0.901-1.015,1.409-1.374c0.158-0.056,0.321-0.114,0.479-0.172
			c0.107-0.152,0.044-0.359,0.172-0.48c0.242-0.23,0.685-0.28,0.825-0.549c-0.089-0.45,0.978-1.13,1.234-1.442
			c0.298-0.358,1.126-1.36,1.477-1.581c0.182-0.114,0.433,0.023,0.619-0.103c0.263-0.287,0.526-0.57,0.789-0.857
			C78.332,0.979,78.845,0.499,79.361,0z"/>
		<path style="fill:#010101;" d="M66.618,68.856c0.315,0.014,0.633,0.037,0.861,0.172c0.01,0.037,0.023,0.07,0.033,0.103
			c-0.047,0.093-0.091,0.187-0.136,0.274c0.116,0.247,0.271,0.363,0.513,0.484c0.363-0.181,0.249-0.386,0.414-0.759
			c0.368,0.069,0.517,0.601,0.548,0.997c-0.319,0.671-0.466,0.433-1.065,0.754c-0.011,0.023-0.023,0.047-0.031,0.07
			c0.025,0.266,0.158,0.349,0.205,0.549c0.041,0.187-0.02,1.161-0.036,1.305c-0.044,0.023-0.091,0.047-0.138,0.07
			c-0.542-0.266-0.782-0.834-1.271-1.132c-0.229-0.145-0.521-0.043-0.72-0.173c-0.046-0.148-0.091-0.298-0.138-0.447
			c0.07-0.07,0.138-0.14,0.205-0.205c0.15,0.047,0.299,0.089,0.447,0.135c0.351-0.535-0.533-1.02-0.856-1.336
			c0-0.037,0-0.07,0-0.103C65.833,69.289,66.301,69.294,66.618,68.856z"/>
		<path style="fill:#010101;" d="M75.821,72.294c0.117,0.009,0.231,0.022,0.346,0.032c0.069,0.069,0.137,0.14,0.205,0.204
			c0.009,0.247,0.005,0.509-0.068,0.652c-0.286,0.033-0.784-0.12-1.029-0.273c0-0.01,0-0.023,0-0.033
			c0.012-0.033,0.021-0.07,0.035-0.103C75.415,72.54,75.645,72.452,75.821,72.294z"/>
		<path style="fill:#010101;" d="M66.655,73.081c0.286,0.042,0.524,0.382,0.652,0.587c-0.171,0.228-0.462,0.447-0.723,0.582
			c-0.056-0.069-0.114-0.14-0.172-0.205c0-0.219,0-0.438,0-0.652C66.474,73.234,66.557,73.192,66.655,73.081z"/>
		<path style="fill:#010101;" d="M49.654,73.286c0.538,0.139,1.47,0.195,1.786,0.382c0.017,0.4-0.021,0.643-0.172,0.856
			c-0.011,0-0.021,0-0.034,0c-0.171,0.01-0.343,0.023-0.515,0.033l-1.408-0.89c0-0.038,0-0.07,0-0.107
			C49.425,73.472,49.539,73.379,49.654,73.286z"/>
		<path style="fill:#010101;" d="M58.893,73.771c0.142,0.009,0.156,0.022,0.239,0.064c0.331,0.806-0.091,0.551-0.479,0.997
			c-0.126,0.145-0.093,0.316-0.274,0.415c-0.057,0.009-0.116,0.022-0.173,0.032c-0.151-0.14-0.247-0.205-0.274-0.479
			C58.252,74.454,58.573,74.11,58.893,73.771z"/>
		<path style="fill:#010101;" d="M49.311,74.32c0.115,0.019,0.228,0.042,0.343,0.065c0.164,0.106,0.238,0.167,0.24,0.446
			c-0.083,0.228-0.14,0.331-0.446,0.345c-0.293-0.131-0.549-0.298-0.618-0.652c0.035-0.023,0.068-0.047,0.104-0.07
			C49.059,74.408,49.185,74.362,49.311,74.32z"/>
		<path style="fill:#010101;" d="M73.214,74.454c0.23,0.052,0.424,0.015,0.619,0.104c-0.012,0.219-0.054,0.224-0.14,0.345
			c-0.112,0.079-0.229,0.157-0.343,0.242c-0.237-0.005-0.249-0.052-0.379-0.14c-0.021-0.07-0.044-0.136-0.067-0.205
			C72.992,74.632,73.078,74.571,73.214,74.454z"/>
		<path style="fill:#010101;" d="M47.25,74.869c0.615,0.089,1.012,0.079,1.235,0.55c-0.125,0.243-0.636,0.755-1.029,0.582
			c-0.253-0.195-0.504-0.391-0.756-0.582c0.012-0.061,0.022-0.116,0.034-0.172C46.908,75.042,46.992,75.005,47.25,74.869z"/>
		<path style="fill:#010101;" d="M42.786,75.106c0.531,0.07,0.488,0.551,0.858,0.652c0.256,0.075,0.684-0.106,0.859-0.135
			c0.042-0.009,1.292,0.293,1.304,0.308c-0.079,0.228-0.241,0.284-0.447,0.377c-0.654-0.153-1.302-0.027-1.785,0.345
			c-0.241-0.014-0.245-0.07-0.377-0.172C43.078,76.094,42.623,75.503,42.786,75.106z"/>
		<path style="fill:#010101;" d="M57.655,75.35c0.059,0.009,0.117,0.022,0.173,0.032c0.103,0.052,0.775,0.717,0.927,0.857
			c0,0.014,0,0.023,0,0.037c-0.48,0.54-1.742,0.834-2.474,0.205c0-0.033,0-0.07,0-0.103c0.21-0.135,0.644-0.243,0.792-0.447
			c-0.052-0.163-0.014-0.279,0.033-0.41C57.253,75.447,57.472,75.429,57.655,75.35z"/>
		<path style="fill:#010101;" d="M73.968,76.104c0.224,0.005,0.282,0.056,0.415,0.136c0.103,0.172,0.205,0.344,0.308,0.517
			c-0.023,0.023-0.047,0.047-0.07,0.07c-0.163,0.228-0.636,0.279-1.029,0.274c-0.07-0.149-0.135-0.298-0.205-0.447
			C73.525,76.406,73.763,76.286,73.968,76.104z"/>
		<path style="fill:#010101;" d="M49.173,77.44c0.247,0.033,0.307,0.148,0.412,0.312c-0.039,0.224-0.139,0.233-0.308,0.307
			c-0.126-0.032-0.123-0.046-0.207-0.102c0-0.136,0-0.275,0-0.41C49.104,77.511,49.139,77.478,49.173,77.44z"/>
		<path style="fill:#010101;" d="M45.636,78.232c0.392,0.107,0.828,0.345,1.202,0.173c0.126,0.116,0.251,0.228,0.377,0.345
			c0.305-0.023,0.451-0.085,0.687,0.032c0,0.015,0,0.023,0,0.037c-0.052,0.442-0.357,0.489-0.446,0.89
			c0.045,0.047,0.091,0.094,0.136,0.14c0.491,0.015,1.953-0.019,2.13,0.103c0.231,0.112,0.49,0.396,0.515,0.723
			c-0.115,0.148-0.213,0.186-0.24,0.442c0.103,0.093,0.207,0.187,0.309,0.274c-0.01,0.126-0.023,0.256-0.034,0.383
			c-0.045,0.055-0.092,0.111-0.138,0.167c-0.126-0.065-0.251-0.136-0.377-0.205c-0.059,0.056-0.116,0.116-0.173,0.173
			c0.32,0.651,0.143,1.146-0.412,1.406c-0.355-0.079-0.518-0.443-0.893-0.274c-0.128,0.624-0.569,0.982-1.029,1.271
			c-0.047-0.009-0.092-0.023-0.138-0.032c-0.08-0.07-0.161-0.141-0.241-0.205c-0.01-0.778,0.323-0.681,0.55-1.1
			c0.035-0.195,0.069-0.392,0.104-0.587c0.137-0.229,0.223-0.145,0.48-0.275c0.135-0.065,0.293-0.433,0.412-0.549
			c0.309,0.088,0.312,0.224,0.583,0.036c0-0.014,0-0.022,0-0.036c0.009-0.275-0.036-0.336-0.136-0.48
			c-0.49-0.032-0.451-0.456-0.824-0.582c-0.832-0.279-1.183,0.107-1.787-0.518c0.096-0.685-1.022-0.838-0.687-1.648
			C45.59,78.303,45.613,78.265,45.636,78.232z"/>
		<path style="fill:#010101;" d="M50.066,78.475c0.525,0.107,1.001,0.354,1.271,0.723c0,0.019,0,0.042,0,0.064
			c-0.16,0.103-0.303,0.187-0.55,0.21C50.458,79.309,50.136,78.87,50.066,78.475z"/>
		<path style="fill:#010101;" d="M51.304,80.259c0.338,0.047,0.4,0.274,0.652,0.415c0.23-0.094,0.923-0.2,1.2-0.07
			c0.074,0.047,0.056,0.037,0.102,0.103c-0.095,0.419-0.325,0.693-0.65,0.894c-0.109-0.055-0.146-0.064-0.206-0.172
			c-0.012-0.148-0.021-0.298-0.034-0.447c-0.068-0.046-0.138-0.093-0.206-0.135c-0.162,0.099-0.148,0.224-0.274,0.34
			c-0.105,0.098-0.407,0.136-0.515,0.205c0,0.047,0,0.093,0,0.14c0.067,0.103,0.138,0.205,0.206,0.308
			c-0.013,0.037-0.022,0.07-0.035,0.103c-0.08,0.037-0.161,0.069-0.239,0.106c-0.273-0.019-0.454-0.097-0.619-0.209
			c0-0.088,0-0.182,0-0.274C51.394,81.041,50.962,80.789,51.304,80.259z"/>
		<path style="fill:#010101;" d="M53.878,81.223c0.047,0.033,0.094,0.065,0.14,0.104c-0.109,1.015-0.438,1.634-1.066,2.263
			c-0.079-0.009-0.16-0.023-0.24-0.032c-0.126-0.103-0.253-0.205-0.378-0.307c0-0.038,0-0.07,0-0.108
			c0.201-0.153,0.361-0.339,0.48-0.582c-0.038-0.279-0.176-0.303-0.239-0.55c0.351-0.298,0.332-0.088,0.722-0.274
			C53.489,81.563,53.685,81.391,53.878,81.223z"/>
		<path style="fill:#010101;" d="M49.997,83.314c0.057,0.023,0.114,0.047,0.173,0.07c-0.023,0.172-0.047,0.344-0.07,0.516
			c-0.057,0.047-0.114,0.09-0.171,0.136C49.518,83.905,49.862,83.505,49.997,83.314z"/>
	</g>
</g>
<g id="Layer_1">
</g>
</svg>
