<?xml version="1.0" encoding="iso-8859-1"?>
<!-- Generator: Adobe Illustrator 16.0.3, SVG Export Plug-In . SVG Version: 6.00 Build 0)  -->
<!DOCTYPE svg PUBLIC "-//W3C//DTD SVG 1.1//EN" "http://www.w3.org/Graphics/SVG/1.1/DTD/svg11.dtd">
<svg version="1.1" xmlns="http://www.w3.org/2000/svg" xmlns:xlink="http://www.w3.org/1999/xlink" x="0px" y="0px" width="100px"
	 height="100px" viewBox="0 0 100 100" style="enable-background:new 0 0 100 100;" xml:space="preserve">
<g id="US">
	<path style="fill-rule:evenodd;clip-rule:evenodd;" d="M99.664,26.67c-0.356-0.057-0.442,0.246-0.68,0
		c0.091-0.394-0.168-0.436-0.113-0.793c-0.301-0.001-0.646,0.043-0.792-0.113c-0.188-1.209-0.669-2.126-0.906-3.284
		c-0.448-0.006-0.657-0.25-1.02-0.34c-0.279,0.249-0.497,0.56-0.906,0.679c-0.319-0.02-0.141-0.538-0.566-0.452
		c-0.445,1.093-1.239,2.821-0.679,4.19c-0.291,0.464-0.595,0.915-0.566,1.698c-0.406-0.094-0.548,0.256-0.793,0
		c-0.112,0.341-0.084,0.822-0.453,0.906c-1.175,0.208-2.486,0.734-3.737,1.02c-0.6,0.136-1.224,0.036-1.699,0.34
		c-0.549,0.35-0.739,1.157-1.133,1.698c-0.272,0.376-0.835,0.434-0.679,1.02c0.522,0.182,0.425,0.788,0.453,1.133
		c-1.069,1.54-3.057,0.79-4.757,1.585c0.031,0.534,0.373,0.76,0.566,1.133c-1.46,1.976-3.564,3.307-5.89,4.417
		c-0.359-0.472-1.497-0.164-1.699-0.793c0.589-0.563,0.476-2.106,1.359-2.038c-0.109-1.477-0.303-2.868-1.246-3.512
		c-0.741,0.089-0.641,1.021-1.245,1.246c-0.452,0.074-0.325-0.431-0.34-0.793c1.297-0.335,0.427-2.337,0.68-2.944
		c-0.299,0.034-0.292-0.236-0.34-0.453c-1.221-0.005-2.265-1.36-2.945-0.113c-0.1,0.364,0.374,0.155,0.34,0.453
		c-0.392-0.09-0.478,0.126-0.679,0.227c-0.086,0.689,0.309,1.155-0.341,1.246c-0.173-0.544,0.481-0.971,0-1.133
		c-1.04,1.139-1.096,2.35-1.245,4.304c1.263,1.221,0.887,4.276-0.793,4.757c-2.372-2.132-1.042-6.519-0.453-8.947
		c-0.46,0.561-0.935,1.707-1.472,1.812c0.38-1.092,1.07-1.874,1.358-3.059c0.971,0.248,1.522-0.483,2.718-0.792
		c1.007,0.166,1.896-0.01,2.605-0.113c-0.513-0.092-0.651-0.557-0.566-1.246c-0.604,0.017-1.057,0.473-1.586,0.227
		c0-0.227,0-0.453,0-0.68c-1.648,0.184-2.504,1.247-3.964,1.02c-0.191-0.918-1.488-1.105-1.812-0.68
		c0.174-0.732,0.766-1.047,1.133-1.586c-1.119,0.014-1.514,0.752-2.039,1.359c-0.774,0.434-1.675,0.741-2.378,1.246
		c-0.122-0.429-0.672,0.004-0.793-0.227c0.101-0.239,0.345-0.335,0.34-0.68c-0.581-0.215-1.326,0.919-2.152,0.453
		c0.826-0.459,1.163-1.487,1.926-2.039c0.64-0.463,1.571-0.373,2.038-1.133c-0.667-0.131-1.73-0.046-2.151-0.452
		c-0.586,0.603-1.77,0.539-1.926-0.227c-0.974,0.299-1.795-1.09-2.718-0.227c-0.47-0.173-0.817-0.466-1.473-0.453
		c-0.493-0.337-0.029-1.632-0.905-1.586c-0.26,0.118,0.054,0.809-0.227,0.906c-16.773,0.313-30.934-2.59-43.717-5.89
		c0.526,0.83,0.049,1.832,0.227,2.492c-0.539-0.429-0.271-0.786-0.227-1.133c-0.456-0.078-0.278,0.477-0.68,0.453
		c-1.165-0.194-1.806-0.913-2.718-1.359c-0.082,1.056-0.178,2.821,0.34,3.624c-0.197-0.008-0.352,0.025-0.453,0.113
		c-0.121,0.424,0.281,0.323,0.227,0.68c-0.468,0.297-0.636,0.882-0.113,1.133c-0.363-0.1-0.234,0.294-0.453,0.34
		c-0.787,2.573-1.705,5.015-3.171,6.908c0.031,0.673-0.124,1.16-0.227,1.699C2.038,35.674,0.534,37.053,0,38.335
		c1.278,0.812,0.09,2.304,0.227,3.397c0.059,0.473,0.868,1.188,0.906,1.926c0.037,0.719,0.105,0.942,0.566,1.358
		c-0.599,0.971-0.014,2.229,0.68,2.604c-0.063,0.391-0.521,0.386-0.566,0.793c0.046,1.488,1.489,2.67,1.585,3.965
		c0.044,0.597-0.542,1.029-0.113,1.585c1.982-0.056,2.197,1.654,3.625,2.152c0.067,0.361-0.213,0.35,0,0.566
		c1.319,0.304,1.788,1.458,1.699,3.171c1.389,0.499,3.299,0.476,4.87,0.793c-0.001,0.225-0.309,0.144-0.226,0.453
		c1.781,0.878,3.457,2.092,5.096,3.058c2.113,1.244,4.608,1.547,7.814,1.925c0.058-0.396,0.051-0.854,0.227-1.132
		c1.106,0.178,2.189,0.378,3.398,0.453c0.784,0.989,1.382,2.166,2.604,2.718c0.64,0.684,0.438,1.428,0.68,2.378
		c0.321,1.258,1.915,1.553,2.945,2.266c0.809-0.512,0.707-1.937,1.925-2.039c2.398,0.282,3.571,1.79,3.964,4.077
		c0.816,0.43,1.025,1.467,1.812,1.926c-0.5,2.85,2.711,3.545,4.644,3.964c-0.357-1.508-0.279-2.999-0.113-4.644
		c1.911-1.298,4.241-2.178,5.776-3.851c1.612-1.348,4.451-0.35,6.116-0.34c-0.064-0.637-0.758-0.02-0.906-0.453
		c0.71-0.657,1.275,0.446,1.925,0.566c0.025,0.214-0.127,0.25-0.113,0.453c0.395,0.172,0.703,0.43,1.246,0.453
		c0.28-0.211,0.426-0.556,0.906-0.566c0.374,0.226-0.281,0.483,0,0.566c0.897-0.279,0.202-0.863,0.906-1.133
		c0.17,0.538,1.694,1.257,1.812,0.453c-0.317-0.438-1.256-0.254-1.472-0.793c0.354-0.298,0.803-0.398,0.565-1.246
		c-0.502-0.05-0.279,0.626-0.905,0.453c0.504-1.348,1.685-1.178,3.284-1.245c0.224-0.192,0.042-0.788,0.453-0.793
		c0.237,0.187,0.548,0.829,0.113,1.02c1.872-0.612,4.598-1.113,5.549,0.679c1.004-0.083,1.918-0.497,2.039-1.132
		c1.938-0.202,1.814,1.658,3.397,1.812c0.949,0.773-0.132,2.883,0.793,3.624c0.277-0.315-0.087-0.763,0-0.792
		c0.17,0.019,0.418-0.041,0.453,0.113c0.047,0.537-0.428,0.554-0.453,1.019c0.589,0.657,1.065,1.426,1.473,2.266
		c0.319,0.094,0.293-0.16,0.565-0.113c0.231,0.372,0.354,0.855,0.566,1.246c0.995-0.229,1.419,0.859,1.699,1.698
		c0.43-0.14,1.172-0.561,1.473-0.453c-0.151,0.682-1.285,0.979-1.246,1.473c0.789-0.57,1.514-1.205,1.699-2.379
		c-0.403-0.176-0.068,0.385-0.341,0.34c0.856-2.968-0.779-5.001-1.812-6.795c0.001-0.225,0.309-0.145,0.227-0.453
		c-1.714-1.535-3.522-4.608-2.491-7.588c0.239-0.692,1.005-1.081,1.019-1.812c1.079-0.355,1.359-1.51,2.266-2.038
		c-0.064-1.499,0.751-2.118,2.038-2.266c-0.101-2.242,2.765-1.815,2.832-3.284c-0.089,0.199-0.98,0.337-1.133,0
		c0.473,0.378,0.79-0.607,0.34-0.793c0.732,0.211,1.517-0.118,1.585-0.906c-0.181-0.31-0.69,0.265-0.905-0.112
		c0.402,0.025,0.678-0.077,0.792-0.34l-0.057-0.17l0.17,0.057c-0.48-0.728-0.865-1.551-1.245-2.379
		c-0.258,0.001-0.547-0.03-0.717,0.059c0.45-0.374-0.521-0.814-0.303-1.078c0.113,0,0.135,0.092,0.227,0.113
		c-0.065-0.841-0.317-1.494-0.906-1.812c0.305,0.077,0.219-0.234,0.34-0.34c-0.786-0.504-0.909-2.604-0.113-2.719
		c-0.514,0.474,0.328,1.04-0.227,1.586c0.508,0.007,0.187,0.161,0.227,0.793c0.603,0.039,0.479,0.805,0.906,1.019
		c0.166-0.402-0.364-0.678-0.113-0.792c1.188,0.418-0.218,2.074,0.68,2.718c0.225-1.461,1.273-2.832,0.679-4.417
		c-0.793-0.226-0.907-1.131-1.358-1.699c0.307,0.448,0.741,0.769,1.472,0.793c0.047,0.273-0.206,0.246-0.113,0.566
		c0.852-0.804,1.523-2.284,1.133-3.964c-0.134-0.278-0.428,0.232-0.566-0.113c0.231-0.033,0.223-0.307,0.453-0.34l-0.057-0.306
		l0.17-0.261c0.8-1.616,3.134-1.698,4.53-2.718c0.142-0.34-0.054-0.566,0.453-0.68c0.064,0.366-0.034,0.57-0.227,0.68
		c0.515-0.278,0.762-0.824,1.473-0.906c-0.018-0.587-0.176-1.032-0.793-1.02c0.054,0.362,0.581,0.25,0.566,0.68
		c-0.98,0.868-1.18-1.054-1.926-0.793c0.069-0.999-0.058-2.366,0.453-3.851c0.631,0.109,1.055-0.58,1.586-0.905
		c0.083-0.393-0.124-1.074,0-1.133c0.133,0.169,0.471,0.134,0.453,0.453c-0.269,0.171-0.418,0.172-0.227,0.566
		c0.57-0.137,0.306-0.913,0.68-1.246c-0.032,0.296-0.039,0.566,0.34,0.453c0.214-0.667-0.138-0.316-0.227-0.68
		C99.046,29.243,100.713,27.517,99.664,26.67z"/>
</g>
<g id="Layer_1">
</g>
</svg>
