<?xml version="1.0" encoding="iso-8859-1"?>
<!-- Generator: Adobe Illustrator 16.0.3, SVG Export Plug-In . SVG Version: 6.00 Build 0)  -->
<!DOCTYPE svg PUBLIC "-//W3C//DTD SVG 1.1//EN" "http://www.w3.org/Graphics/SVG/1.1/DTD/svg11.dtd">
<svg version="1.1" xmlns="http://www.w3.org/2000/svg" xmlns:xlink="http://www.w3.org/1999/xlink" x="0px" y="0px" width="100px"
	 height="100px" viewBox="0 0 100 100" style="enable-background:new 0 0 100 100;" xml:space="preserve">
<g id="VE">
	<g>
		<path d="M86.15,24.021c0-0.046,0-0.093,0-0.138c-0.155-0.079-0.404-0.35-0.413-0.584c0.122-0.082,0.123-0.132,0.344-0.138
			c0.114,0.087,0.288,0.088,0.413,0.172c0.068,0.081,0.138,0.161,0.206,0.241c0.22,0.149,0.41,0.229,0.619,0.378
			c0.138,0.097,0.17,0.477,0.241,0.516c0.092-0.011,0.183-0.023,0.274-0.034c0,0,0.385,0.188,0.413,0.207
			c0.149,0.096,0.303,0.28,0.447,0.378c0.068,0.023,0.138,0.046,0.206,0.069c0.073,0.049,0.115,0.172,0.206,0.207
			c0.069,0,0.138,0,0.207,0c0.117,0.041,0.322,0.171,0.447,0.206c0.189,0.053,0.223-0.121,0.412-0.068
			c0.166,0.047,0.68,0.272,0.826,0.379c0.071,0.052,0.067,0.232,0.137,0.275c0.078,0.049,0.207-0.009,0.275,0.034
			c0.381,0.235,0.919,0.794,0.997,1.307c-0.074,0.085-0.038,0.241-0.103,0.344c-0.112,0.176-0.311,0.093-0.345,0.378
			c0.072,0.038,0.063,0.049,0.172,0.068c0.09-0.087,0.227-0.15,0.379-0.172c0.135,0.126,0.241,0.14,0.274,0.379
			c-0.111,0.092-0.061,0.212-0.137,0.344c-0.166,0.287-0.417,0.177-0.413,0.688c0.037,0.031,0.003-0.003,0.034,0.034
			c0.149-0.041,0.177-0.109,0.344-0.138c0.03,0.042,0.028,0.039,0.069,0.069c-0.021,0.06-0.007,0.033-0.034,0.069
			c-0.061,0.189-0.21,0.236-0.275,0.413c0.012,0,0.023,0,0.034,0c0.06,0.058,0.096,0.051,0.138,0.137
			c0.027,0.041,0.026,0.057,0.034,0.137c-0.104,0.104-0.127,0.207-0.31,0.242c-0.072-0.042-0.076-0.018-0.172,0
			c-0.038,0.071-0.049,0.062-0.068,0.171c0.101,0.11-0.154,0.439-0.069,0.515c0.058,0.067,0.05,0.058,0.172,0.069
			c0-0.011,0-0.023,0-0.034c0.012,0,0.023,0,0.035,0c-0.036-0.336,0.146-0.468,0.516-0.482c0.131,0.196,0.466,0.383,0.516,0.619
			c-0.027,0.041-0.026,0.057-0.034,0.138c0.046,0,0.092,0,0.138,0c0.045,0.083,0.062,0.098,0.068,0.241
			c-0.09,0.093-0.156,0.248-0.172,0.412c0.09,0.021,0.146,0.087,0.206,0.104c0.092-0.012,0.184-0.023,0.275-0.035
			c0.048,0.022,0.098,0.135,0.138,0.172c-0.021,0.06-0.007,0.034-0.034,0.069c-0.129,0.203-0.383,0.183-0.723,0.172
			c0,0.011,0,0.022,0,0.035c-0.012,0-0.022,0-0.034,0c0,0.023,0,0.046,0,0.068c0.334,0.033,0.405,0.345,0.688,0.413
			c0.159,0.039,0.468-0.077,0.653-0.035c0.119,0.027,0.204,0.146,0.31,0.104c0.312-0.112,0.322-0.469,0.551-0.653
			c0.259-0.212,0.568-0.006,0.929-0.069c1.062-0.185,2.551,0.821,3.164,1.444c0.163,0.167,0.888,0.858,0.618,1.273
			c-0.198,0.543-0.979,0.359-1.134,0.722c-0.047,0.074,0.001,0.2-0.035,0.309c-0.034,0.107-0.171,0.238-0.206,0.345
			c-0.012,0.115-0.023,0.229-0.034,0.344c-0.057,0.075-0.441,0.174-0.551,0.172c-0.041-0.001-0.121-0.069-0.206-0.035
			c-0.135,0.056-0.196,0.267-0.31,0.345c-0.16,0.056-0.321,0.115-0.481,0.171c-0.094,0.063-0.137,0.183-0.206,0.275
			c-0.07,0.093-0.18,0.135-0.275,0.207c-0.184,0.195-0.367,0.39-0.55,0.585c-0.287,0.18-0.812,0.062-1.136,0.137
			c-0.103,0.162-0.281,0.356-0.344,0.549c0,0.104,0,0.207,0,0.311c-0.047,0.147-0.146,0.449-0.24,0.584
			c-0.041,0.059-0.114,0.058-0.173,0.103c-0.103,0.126-0.205,0.252-0.309,0.378c-0.146,0.098-0.271,0.027-0.345,0.206
			c0.064,0.078,0.075,0.193,0.138,0.276c0.051,0.066,0.136,0.053,0.207,0.103c0.011,0.007,0.478,0.543,0.481,0.55
			c0.011,0.08,0.022,0.16,0.034,0.24c0.036,0.098,0.178,0.271,0.103,0.482c-0.061,0.174-0.233,0.203-0.274,0.447
			c0.154,0.165,0.252,0.43,0.516,0.482c0.12-0.139,0.479-0.513,0.825-0.379c0.048,0.018,0.138,0.124,0.207,0.138
			c0.103-0.023,0.206-0.046,0.31-0.069c0.105,0.03,0.156,0.188,0.24,0.241c0.092,0.023,0.184,0.045,0.275,0.069
			c0.092,0.103,0.183,0.206,0.275,0.309c0.005,0.132,0.018,0.334-0.035,0.413c-0.093,0.29-0.334,0.31-0.481,0.516
			c-0.034,0.092-0.068,0.184-0.103,0.275c-0.131,0.188-0.391,0.247-0.585,0.378c-0.302,0.204-0.588,0.566-0.963,0.688
			c-0.221,0.072-0.414-0.006-0.585,0.103c-0.217,0.14-0.214,0.479-0.55,0.585c-0.289,0.09-0.422-0.128-0.585-0.172
			c-0.096-0.026-0.233,0.026-0.275,0.035c-0.15,0.025-0.202-0.043-0.31-0.069c-0.144,0.232-0.336,0.36-0.516,0.55
			c-0.499-0.007-0.933,0.004-1.341,0.103c-0.177,0.268-0.423,0.579-0.447,0.998c0.173,0.112,0.612,0.653,0.516,0.998
			c-0.039,0.14-0.168,0.37-0.104,0.619c0.063,0.243,0.299,0.33,0.379,0.55c-0.142,0.146-0.086,0.35-0.068,0.584
			c-0.069,0.058-0.139,0.115-0.207,0.173c-0.091,0.036-0.172-0.016-0.241,0.034c-0.125,0.089-0.213,0.315-0.378,0.412
			c-0.118,0.069-0.262,0.036-0.344,0.138c-0.2,0.251-0.254,0.593-0.447,0.859c-0.105,0.146-0.26,0.078-0.31,0.31
			c0.117,0.112,0.176,0.245,0.275,0.379c0.138,0.114,0.275,0.229,0.412,0.344c0.443,0.583,0.999,1.061,1.445,1.651
			c0.303,0.4,0.803,0.667,1.1,1.065c0.195,0.262,0.39,0.463,0.585,0.723c0.126,0.114,0.253,0.229,0.379,0.344
			c0.114,0.163,0.188,0.331,0.344,0.447c0.283,0.21,0.726,0.228,0.929,0.515c0.189,0.27,0.25,0.769,0.378,1.101
			c0.071,0.187,0.303,0.423,0.206,0.757c-0.094,0.327-0.859,1.239-1.135,1.41c-0.103,0.022-0.206,0.047-0.31,0.069
			c-0.198,0.082-0.391,0.248-0.585,0.344c-0.085,0.042-0.189,0.017-0.274,0.069c-0.265,0.159-0.185,0.557-0.31,0.859
			c-0.103,0.248-0.343,0.435-0.517,0.619c-0.216,0.013-0.654-0.046-0.928,0.034c-0.129,0.037-0.46,0.131-0.688,0.068
			c-0.133-0.036-0.2-0.099-0.413-0.103c-0.057,0.106-0.072,0.223-0.069,0.412c-0.17,0.095-0.348,0.289-0.516,0.344
			c-0.34,0.11-0.837-0.134-1.135,0.104c-0.181,0.144,0.035,0.43-0.034,0.653c-0.07,0.223-0.265,0.494-0.55,0.516
			c-0.267,0.146-0.994-0.105-1.238-0.034c-0.344,0.101-0.554,0.593-0.929,0.757c-0.529,0.231-0.977-0.111-1.479,0.103
			c-0.326,0.14-0.162,0.387-0.756,0.413c-0.069,0.012-0.139,0.023-0.206,0.034c-0.364-0.112-0.774-0.322-1.101-0.447
			c-0.138-0.022-0.275-0.045-0.413-0.068c-0.107-0.049-0.121-0.119-0.31-0.138c-0.193,0.214-0.511,0.289-0.722,0.481
			c0.082,0.378-0.054,0.497-0.241,0.688c-0.173-0.04-0.45-0.139-0.585-0.171c-0.111-0.027-0.737,0.101-0.791,0.206
			c-0.079,0.158-0.012,0.316-0.068,0.481c-0.027,0.079-0.136,0.127-0.104,0.274c0.051,0.232,0.266,0.552,0.344,0.791
			c0.028,0.087,0.097,0.732,0.069,0.826c-0.183,0.604-0.728,0.98-1.376,1.101c-0.194,0.035-0.343-0.113-0.447-0.173
			c-0.092-0.022-0.183-0.045-0.274-0.068c-0.222-0.142-0.331-0.398-0.481-0.619c-0.106-0.155-0.336-0.231-0.447-0.379
			c-0.183-0.238-0.312-0.441-0.551-0.618c-0.092-0.068-0.229-0.092-0.31-0.172c-0.116-0.118-0.111-0.303-0.206-0.447
			c-0.198-0.302-0.679-0.577-1.169-0.481c-0.046,0.301-0.086,0.635-0.344,0.723c-0.569,0.361-1.028-0.49-1.238-0.585
			c-0.161,0-0.321,0-0.481,0c-0.266,0.252-0.904,0.146-1.101-0.068c-0.57,0.121-0.765,0.555-1.376,0.618
			c-0.117-0.174-0.358-0.241-0.447-0.447c-0.178-0.412-0.193-1.09-0.55-1.341c-0.116-0.082-0.258-0.055-0.413-0.104
			c-0.137-0.042-0.969-0.227-1.169-0.172c-0.35,0.095-0.931,0.312-1.342,0.206c-0.096,0.036-0.119,0.091-0.274,0.104
			c-0.115-0.103-0.346-0.205-0.413-0.344c-0.011-0.104-0.022-0.206-0.034-0.31c-0.107-0.255-0.646-0.76-0.929-0.585
			c-0.066,0.058-0.058,0.051-0.068,0.173c-0.026,0.036-0.021,0.031-0.035,0.103c0.069,0.081,0.139,0.161,0.206,0.241
			c0.15,0.098,0.348,0.101,0.447,0.24c0.012,0.069,0.023,0.138,0.035,0.206c0.081,0.207,0.27,0.414,0.344,0.62
			c0,0.057,0,0.114,0,0.171c0.122,0.311,0.573,0.489,0.757,0.757c0.094,0.138,0.106,0.286,0.24,0.379
			c0.069,0.022,0.138,0.046,0.207,0.068c0.232,0.159,0.384,0.417,0.688,0.55c0.169,0.075,0.291,0.021,0.446,0.104
			c0.174,0.09,0.293,0.327,0.413,0.48c0.195,0.249,0.686,0.515,0.826,0.826c0.239,0.531-0.232,0.836-0.311,1.169
			c0.012,0.264,0.023,0.527,0.035,0.791c0.028,0.09,0.144,0.208,0.172,0.31c0.1,0.364-0.044,0.858-0.069,1.135
			c0.087,0.09,0.521,0.603,0.551,0.688c0.051,0.145,0.001,0.234,0.068,0.343c0.09,0.146,0.288,0.232,0.378,0.379
			c0.035,0.126,0.069,0.252,0.104,0.378c0.065,0.145,0.241,0.254,0.31,0.379c0.023,0.114,0.046,0.229,0.068,0.344
			c0.047,0.127,0.17,0.328,0.207,0.447c0.173,0.55-0.351,1.459-0.31,1.581c0.12,0.234,0.643,0.208,0.894,0.31
			c0.659,0.269,0.903,0.151,1.617,0.034c0.121-0.02,0.174,0.052,0.24,0.069c0.386,0.1,0.717,0.03,1.101,0.104
			c0.295,0.056,0.721-0.121,0.963,0.034c0.38,0.122,0.213,0.564,0.172,0.825c0.012,0.184,0.023,0.367,0.035,0.551
			c-0.052,0.154-0.219,0.344-0.275,0.48c-0.103,0.251,0.079,0.385-0.172,0.481c-0.207,0.169-0.864,0.105-1.17,0.207
			c-0.212,0.07-0.32,0.271-0.481,0.379c-0.209,0.139-0.48,0.14-0.653,0.31c-0.146,0.144-0.27,0.373-0.481,0.446
			c-0.129,0.045-0.37-0.021-0.446-0.034c-0.158-0.028-0.904,0.027-0.964,0.068c-0.315,0.1-0.527,0.417-0.516,0.859
			c0.09,0.158-0.071,0.391-0.104,0.517c-0.053,0.211,0.092,0.549,0,0.825c-0.238,0.724-1.023,0.997-1.547,1.444
			c-0.099,0.084-0.273,0.239-0.345,0.344c-0.138,0.204-0.061,0.445-0.378,0.481c-0.09,0.064-0.145,0.047-0.24,0.034
			c-0.291-0.592-0.131-0.436-0.035-0.997c-0.206,0.017-1.096,0.518-1.169,0.653c-0.095,0.177-0.065,0.357-0.172,0.517
			c-0.094,0.14-0.264,0.082-0.412,0.172c-0.189,0.113-0.342,0.329-0.517,0.446c-0.428,0.289-0.941-0.09-0.963-0.068
			c-0.172,0.064-0.178,0.221-0.31,0.31c-0.175,0.119-0.51,0.074-0.688,0.206c-0.187,0.139-0.349,0.59-0.757,0.481
			c-0.078-0.02-0.155-0.065-0.31-0.068c-0.069,0.08-0.138,0.16-0.206,0.24c-0.179,0.491,0.089,1.163-0.413,1.342
			c-0.237,0.17-0.646,0.038-0.825,0.138c-0.322,0.117-0.543,0.485-0.619,0.859c0.012,0.068,0.023,0.138,0.034,0.206
			c-0.112,0.428-0.715,0.883-1.272,0.895c-0.236-0.225-0.444-0.355-0.515-0.757c0.13-0.178,0.665-1.006,0.55-1.238
			c-0.077-0.227-0.297-0.358-0.447-0.516c-0.308,0.052-0.588-0.043-0.929,0.069c-0.127,0.041-0.231,0.192-0.344,0.241
			c-0.244,0.104-0.472,0.133-0.688,0.274c-0.263,0.274-0.526,0.551-0.79,0.825c-0.122,0.075-0.325-0.021-0.481,0.034
			c-0.22,0.077-0.366,0.357-0.62,0.447c-0.325,0.115-0.435-0.154-0.584-0.206c-0.251-0.087-0.584,0.176-0.86,0.104
			c-0.418-0.111-1.123-0.97-1.478-1.238c-0.764-0.576-1.411-1.288-2.167-1.858c-0.277-0.208-0.686-0.453-0.825-0.79
			c-0.148-0.359,0.116-0.476,0.034-0.723c-0.066-0.201-0.36-0.361-0.413-0.55c-0.038-0.14,0.1-0.289,0.069-0.447
			c-0.044-0.223-0.273-0.467-0.344-0.688c0-0.16,0-0.321,0-0.481c-0.256-0.849-0.56-1.89-1.134-2.441
			c0.004-0.291,0.236-0.591,0.172-0.791c-0.052-0.163-0.387-0.265-0.481-0.413c-0.012-0.069-0.023-0.138-0.035-0.206
			c-0.039-0.091-0.173-0.148-0.206-0.241c-0.094-0.262-0.039-0.513-0.034-0.791c0.088-0.059,0.132-0.136,0.206-0.206
			c-0.113-0.472-0.496-0.448-0.826-0.688c-0.142-0.104-0.203-0.269-0.309-0.413c-0.199-0.271-0.547-0.489-0.792-0.723
			c-0.126-0.148-0.252-0.298-0.378-0.447c-0.171-0.11-0.429-0.048-0.551-0.206c-0.217-0.294-0.013-0.792-0.55-0.79
			c-0.313,0.181-0.594-0.359-0.962-0.138c-0.127,0.042-0.198,0.15-0.275,0.24c-0.126-0.028-0.197-0.056-0.241-0.172
			c-0.062-0.086-0.061-0.464,0-0.55c0.108-0.297,0.44-0.43,0.619-0.654c0.389-0.489,0.866-0.87,1.307-1.307
			c0.252-0.264,0.504-0.527,0.757-0.791c0.434-0.317,1.303-0.705,1.34-1.375c-0.027-0.035-0.012-0.01-0.034-0.069
			c-0.16-0.077-0.485-0.168-0.584-0.31c-0.296-0.422-0.457-1.67-0.997-1.788c-0.123,0.11-0.31,0.044-0.516,0.034
			c-0.1-0.156-0.28-0.289-0.344-0.481c-0.083-0.247-0.004-0.413-0.104-0.619c-0.071-0.148-0.247-0.266-0.31-0.446
			c-0.022-0.064-0.104-0.472-0.103-0.482c0.003-0.033,0.087-0.107,0.069-0.172c-0.016-0.056-0.149-0.144-0.172-0.206
			c0-0.069,0-0.138,0-0.206c-0.172-0.404-0.57-0.625-0.688-1.101c-0.035-0.141,0.012-0.621,0.069-0.791
			c0.023-0.069,0.129-0.117,0.103-0.241c-0.005-0.027-0.093-0.137-0.103-0.172c-0.066-0.235,0.009-0.36-0.103-0.516
			c-0.205-0.285-0.478-0.229-0.481-0.757c0.127-0.128,0.181-0.433,0.207-0.653c-0.012-0.068-0.023-0.137-0.035-0.206
			c0.023-0.1,0.144-0.291,0.172-0.378c0.039-0.125,0.042-0.379,0.069-0.482c0.113-0.43-0.2-0.729-0.069-1.135
			c0.026-0.079,0.146-0.166,0.172-0.24c0.054-0.158,0.025-0.654-0.034-0.757c-0.029-0.05-0.151-0.115-0.172-0.172
			c-0.079-0.207,0.113-0.572,0.137-0.688c0.068-0.319-0.391-0.506-0.275-0.893c0.022-0.075,0.326-0.65,0.378-0.688
			c0.479-0.352,1.254-0.394,1.272-1.204c-0.128-0.145-0.072-0.328-0.138-0.551c-0.296-0.995,0.708-1.734,1.135-2.27
			c0.16-0.2,0.416-0.127,0.447-0.481c-0.109-0.105-0.358-0.308-0.412-0.447c-0.083-0.211-0.022-0.479-0.138-0.653
			c-0.063-0.095-0.826-0.681-0.929-0.722c-0.137,0-0.275,0-0.413,0c-0.122-0.076-0.349,0.013-0.516-0.035
			c-0.836-0.239-0.977,0.856-1.995,0.654c-0.101-0.021-0.238,0.041-0.378,0c-0.101-0.029-0.178-0.149-0.378-0.104
			c-0.367,0.085-0.767,0.275-1.1,0.379c-0.419,0.13-0.664-0.236-1.101-0.138c-0.171,0.038-0.329,0.129-0.48,0.172
			c-0.161,0.011-0.321,0.022-0.482,0.034c-0.08,0.025-0.166,0.146-0.241,0.173c-0.41,0.137-0.789-0.136-1.032-0.207
			c-0.215-0.063-0.536-0.141-0.791-0.103c-0.062,0.008-0.198,0.065-0.309,0.034c-0.336-0.096-0.712-0.256-1.101-0.275
			c-0.129,0.136-0.297,0.19-0.447,0.31c-0.208,0.162-0.321,0.477-0.584,0.584c-0.143,0.058-0.401,0.161-0.55,0.069
			c-0.229-0.071-0.344-0.286-0.482-0.447c-0.168,0.032-0.639,0.242-0.756,0.206c-0.134-0.041-0.247-0.349-0.344-0.446
			c-0.213-0.216-0.337-0.393-0.516-0.654c-0.151-0.222-0.431-0.389-0.585-0.619c-0.067-0.101-0.066-0.217-0.137-0.31
			c-0.108-0.14-0.309-0.234-0.413-0.379c-0.068-0.095-0.069-0.209-0.137-0.31c-0.195-0.183-0.39-0.367-0.584-0.549
			c-0.023-0.069-0.046-0.138-0.069-0.207c-0.126-0.115-0.252-0.229-0.378-0.344c-0.051-0.073-0.042-0.148-0.103-0.206
			c-0.058-0.034-0.115-0.069-0.172-0.104c-0.073-0.113-0.063-0.234-0.137-0.344c-0.115-0.103-0.229-0.207-0.344-0.31
			c-0.069-0.095-0.069-0.209-0.137-0.31c-0.195-0.183-0.39-0.367-0.585-0.55c-0.096-0.141-0.106-0.308-0.207-0.446
			c-0.059-0.083-0.203-0.132-0.275-0.207c-0.167-0.01-0.273-0.061-0.447,0c-0.201,0.069-0.434,0.4-0.757,0.309
			c-0.366-0.103-0.609-0.37-0.894-0.481c-0.25-0.098-0.625-0.029-0.825-0.172c-0.081-0.115-0.161-0.229-0.241-0.344
			c-0.128-0.089-0.375,0.019-0.55-0.034c-0.125-0.038-0.376-0.223-0.55-0.172c-0.051,0.015-0.099,0.121-0.138,0.138
			c-0.252,0-0.504,0-0.757,0c-0.291,0.095-0.509,0.415-0.791,0.516c-0.183,0.011-0.367,0.022-0.55,0.035
			c-0.374,0.083-0.927-0.03-1.375,0.068c-0.09,0.02-0.338,0.075-0.481,0.034c-0.206-0.103-0.413-0.206-0.619-0.309
			c-0.241,0.023-0.482,0.046-0.722,0.068c-0.115-0.022-0.229-0.045-0.344-0.068c-0.071,0.023-0.07,0.144-0.241,0.104
			c-0.13-0.03-0.283-0.167-0.413-0.207c-0.252-0.077-0.356,0.104-0.481,0.137c-0.095,0.025-0.156-0.058-0.206-0.069
			c-0.012,0-0.023,0-0.035,0c0,0.012,0,0.023,0,0.035c-0.075,0.026-0.118,0.088-0.172,0.104c-0.081-0.012-0.161-0.023-0.241-0.035
			c-0.154,0.049-0.258,0.256-0.447,0.31c-0.411,0.118-0.724-0.138-0.963-0.207c-0.137,0-0.275,0-0.413,0
			c-0.121-0.043-0.174-0.216-0.275-0.275c-0.083-0.049-0.166-0.019-0.24-0.069c-0.251-0.17-0.749-1.14-0.86-1.478
			c-0.136-0.416,0.26-0.705-0.172-0.929c-0.192-0.113-0.46,0.028-0.723-0.035c-0.333-0.081-0.727-0.131-0.962-0.309
			c-0.12-0.091-0.088-0.211-0.171-0.345c-0.05-0.077-0.175-0.138-0.207-0.241c-0.08-0.258,0.135-0.509,0.068-0.825
			c-0.053-0.252-0.024-0.678,0-0.929c-0.012-0.091-0.023-0.184-0.034-0.275c0.025-0.083,0.145-0.222,0.172-0.31
			c0.089-0.286-0.019-0.524-0.069-0.688c0.011-0.184,0.023-0.367,0.035-0.55c0.068-0.042,0.274-0.136,0.31-0.207
			c0.084-0.169-0.023-0.221,0.137-0.344c0.118-0.089,0.377-0.144,0.448-0.275c0.147-0.261-0.343-0.972-0.413-1.204
			c-0.056-0.186,0.106-0.506,0.069-0.722c-0.585-0.373-1.065-0.937-1.479-1.479c-0.177-0.232-0.552-0.394-0.654-0.688
			c-0.105-0.301-0.043-0.583-0.138-0.894c-0.139-0.457-0.304-1.043-0.446-1.513c-0.134-0.44-0.145-0.845-0.413-1.135
			c-0.292,0.082-0.396,0.319-0.792,0.344c-0.126-0.141-0.24-0.318-0.378-0.447c0.004-0.167,0.091-0.384,0.069-0.413
			c-0.005-0.018-0.192-0.473-0.206-0.481c-0.037-0.026-0.033-0.02-0.104-0.035c-0.149,0.191-0.384,0.201-0.584,0.344
			c-0.058,0.081-0.115,0.161-0.172,0.241c-0.126,0.087-0.38,0.199-0.516,0.241c-0.29,0.087-0.651-0.091-0.928-0.034
			c-0.072,0.014-0.123,0.085-0.241,0.104c-0.197-0.18-0.287-0.173-0.275-0.585c0.028-0.035,0.012-0.009,0.034-0.068
			c0.138-0.087,0.427-0.172,0.516-0.31c0.012-0.069,0.023-0.138,0.035-0.207c0.102-0.26,0.221-0.622,0.378-0.859
			c0.047-0.072,0.14-0.084,0.207-0.138c0.067-0.055,0.164-0.238,0.206-0.31c0.079-0.131,0.048-0.347,0.138-0.481
			c0.128-0.194,0.493-0.216,0.619-0.413c0.129-0.201,0.084-0.501,0.206-0.688c0.222-0.34,0.549-0.718,0.688-1.135
			c0.042-0.063-0.108-0.199-0.137-0.31c-0.06-0.223,0.072-0.345,0.103-0.447c-0.011-0.161-0.023-0.321-0.035-0.482
			c0.138-0.557,0.297-1.069,0.448-1.616c0-0.218,0-0.436,0-0.654c0.003-0.194,0.067-0.232,0.103-0.344
			c0.011-0.195,0.023-0.39,0.035-0.584c0.06-0.199,0.212-0.302,0.31-0.448c0.11-0.163,0.096-0.375,0.206-0.549
			c0.156-0.247,0.425-0.427,0.584-0.688c0.091-0.15,0.068-0.257,0.137-0.447c0.12-0.325,0.29-0.677,0.448-0.997
			c0.145-0.294,0.573-0.381,0.757-0.654c0.104-0.155,0.064-0.273,0.137-0.481c0.112-0.32,0.418-0.718,0.688-0.894
			c0.088-0.058,0.854-0.286,0.963-0.31c0.133-0.028,0.294,0.075,0.516,0.035c0.397-0.848,0.96-1.687,1.444-2.477
			c0.136-0.221,0.456-0.987,0.619-1.1c0.237-0.164,0.855-0.272,1.169-0.344c0.114,0,0.229,0,0.344,0
			c0.357-0.116,0.83-0.456,1.238-0.55c0.068,0.012,0.137,0.022,0.207,0.034c0.205-0.049,0.467-0.183,0.653-0.241
			c0.092,0,0.184,0,0.275,0c0.172-0.05,0.283-0.196,0.413-0.275c0.131-0.08,0.415-0.083,0.584-0.103
			c0.019,0.052,0.023,0.059,0.034,0.137c-0.087,0.081-0.021,0.104-0.069,0.241c-0.077,0.222-0.294,0.6-0.481,0.722
			c-0.083,0.054-0.177,0.027-0.275,0.069c-0.234,0.101-0.436,0.27-0.723,0.344c-0.235,0.06-0.504-0.057-0.619-0.035
			c-0.05,0.009-0.122,0.12-0.172,0.137c-0.104,0-0.207,0-0.31,0c-0.311,0.102-0.744,0.226-1.032,0.344
			c-0.375,0.156-1.016,0.085-1.032,0.585c-0.118,0.191,0.114,0.566,0.068,0.757c-0.064,0.273,0.16,0.425,0.241,0.619
			c0.083,0.198,0.064,0.354,0.172,0.515c0.058,0.046,0.115,0.092,0.172,0.138c0.049,0.103-0.02,0.228,0.034,0.31
			c0.058,0.034,0.115,0.069,0.172,0.103c0.084,0.112,0.09,0.24,0.172,0.344c0.08,0.057,0.161,0.115,0.241,0.172
			c0.096,0.124,0.084,0.205,0.275,0.241c0.037-0.026,0.032-0.02,0.103-0.034c0.145,0.344,0.47,0.335,0.688,0.584
			c0.04,0.061,0.055,0.233,0.069,0.31c0.052,0.018,0.058,0.022,0.137,0.034c0.071-0.15,0.112-0.178,0.344-0.172
			c0.044,0.071,0.072,0.079,0.103,0.172c0.075,0.093,0.058,0.155,0.035,0.274c-0.06,0.022-0.033,0.007-0.069,0.035
			c-0.106-0.031-0.223-0.144-0.275-0.104c-0.05,0.083-0.008,0.199,0,0.344c-0.083,0.04-0.059,0.07-0.137,0.034
			c-0.108-0.074-0.109-0.152-0.103-0.343c-0.034,0-0.069,0-0.104,0c-0.043,0.131-0.069,0.134-0.241,0.136
			c-0.106-0.197-0.231-0.392-0.378-0.549c-0.061,0.021-0.034,0.006-0.069,0.034c-0.026,0.037-0.021,0.032-0.035,0.104
			c0.213,0.177,0.207,0.774,0.275,0.997c0.085,0.276,0.427,0.436,0.516,0.688c0,0.207,0,0.413,0,0.62
			c0.072,0.275,0.178,0.75,0.068,1.101c-0.008,0.024-0.099,0.112-0.103,0.137c-0.021,0.113,0.056,0.069,0.069,0.103
			c0.028,0.077-0.004,0.363,0,0.482c-0.495,0.168-1.159,0.66-1.41,1.066c-0.122,0.197-0.127,0.575-0.275,0.791
			c-0.104,0.08-0.207,0.16-0.31,0.24c-0.074,0.121-0.035,0.158-0.138,0.241c0,0.012,0,0.023,0,0.034
			c-0.125,0.086-0.326,0.05-0.412,0.172c-0.116,0.164-0.073,0.288-0.104,0.447c-0.042,0.223-0.267,0.399-0.344,0.584
			c-0.058,0.138-0.03,0.232-0.103,0.344c-0.125,0.189-0.397,0.379-0.447,0.619c0.117,0.131,0.102,0.328,0.207,0.481
			c0.068,0.045,0.137,0.091,0.206,0.137c0.143,0.151,0.643,0.743,0.688,0.929c0.018,0.073-0.064,0.16-0.034,0.275
			c0.033,0.129,0.056,0.323,0.068,0.447c0.503,0.066,0.931,0.502,1.239,0.791c0.104,0.098,0.249,0.091,0.309,0.241
			c0.132,0.146,0.044,0.455,0.034,0.688c-0.1,0.053-0.174,0.076-0.207,0.207c0.144,0.037,0.163,0.067,0.172,0.241
			c-0.162,0.175-0.024,0.165,0.034,0.31c-0.011,0.104-0.023,0.207-0.034,0.309c0.019,0.061,0.103,0.165,0.138,0.241
			c0.347,0.169,1.09,0.412,1.616,0.241c0.131-0.043,0.281-0.195,0.413-0.241c0.332-0.114,0.646-0.063,0.894-0.241
			c0.069-0.092,0.138-0.183,0.206-0.275c0.094-0.052,0.167-0.008,0.241-0.069c0.183-0.15,0.217-0.471,0.413-0.619
			c0.213-0.161,0.788-0.432,0.86-0.688c-0.086-0.1-0.018-0.185-0.069-0.344c-0.185-0.578-0.11-1.123,0.034-1.651
			c0.049-0.179,0.007-0.568,0.035-0.653c0.019-0.06,0.184-0.1,0.103-0.172c-0.054-0.204-0.219-0.277-0.275-0.447
			c0-0.115,0-0.229,0-0.344c-0.047-0.194-0.287-0.598-0.413-0.722c-0.16-0.081-0.32-0.161-0.481-0.241
			c-0.109-0.153-0.185-0.398-0.241-0.584c0-0.104,0-0.207,0-0.31c-0.033-0.091-0.158-0.134-0.207-0.207
			c-0.011-0.057-0.022-0.114-0.034-0.172c-0.162-0.272-0.599-0.388-0.791-0.653c-0.128-0.178-0.27-0.525-0.344-0.722
			c0-0.069,0-0.138,0-0.207c-0.111-0.181-0.321,0.037-0.344-0.482c0.063-0.083,0.125-0.329,0.103-0.378
			c-0.122-0.311-0.507-0.247-0.585-0.757c0.263-0.313,0.108-0.38,0.069-0.688c0-0.16,0-0.321,0-0.481
			c-0.026-0.074-0.136-0.113-0.171-0.172c-0.023-0.137-0.045-0.275-0.069-0.413c0.124-0.066,0.303-0.073,0.516-0.069
			c0.119-0.105,0.182-0.029,0.344,0c0.019-0.054,0.027-0.082,0.034-0.171c-0.07-0.119,0.031-0.228,0-0.31
			c-0.093-0.257-0.33-0.251-0.378-0.584c0.037-0.031,0.003,0.002,0.034-0.035c0.232,0.071,0.478-0.164,0.722-0.206
			c0.146-0.025,0.476,0.149,0.723,0.068c0.428-0.139,0.797-0.305,1.135-0.516c0.175-0.109,0.367-0.134,0.55-0.241
			c0.131-0.076,0.291-0.227,0.413-0.309c0.151-0.101,0.324-0.105,0.481-0.206c0.06-0.039,0.098-0.143,0.172-0.172
			c0.311-0.123,0.556-0.104,0.894-0.207c0.541-0.163,1.274-0.333,1.926-0.309c0.107-0.196,0.251-0.344,0.55-0.344
			c0.069,0.011,0.137,0.023,0.206,0.034c0.418-0.122,0.827-0.364,1.204-0.516c0.243-0.097,0.526-0.066,0.619-0.31
			c0.036-0.058,0.001-0.152,0.034-0.241c0.033-0.089,0.153-0.187,0.207-0.275c0.06,0.021,0.033,0.006,0.068,0.034
			c0.146,0.041,0.154,0.106,0.31,0.138c0.053-0.048,0.133-0.072,0.207-0.103c-0.031-0.038,0.002-0.003-0.034-0.035
			c-0.108-0.236-0.417-0.069-0.482-0.378c0.059-0.123-0.067-0.158-0.103-0.31c0.076-0.027,0.187-0.035,0.309-0.034
			c0.27,0.274,0.647,0.311,1.032,0.481c0.243,0.107,0.515,0.327,0.688,0.515c0.32,0.009,0.858-0.168,0.722-0.584
			c-0.008-0.025-0.097-0.085-0.103-0.103c0-0.126,0-0.252,0-0.378c-0.064-0.194-0.174-0.483-0.378-0.55
			c-0.25-0.153-0.501,0.176-0.723,0.207c-0.162,0.023-0.205-0.162-0.378-0.103c-0.425,0.145-1.248,0.467-1.753,0.378
			c-0.081-0.118-0.151-0.118-0.172-0.31c0.081-0.072,0.191-0.285,0.137-0.378c-0.106-0.31-0.316-0.689-0.378-1.032
			c-0.017-0.091,0.053-0.213,0.069-0.275c0.086-0.341,0.025-0.639,0.138-0.962c0.04-0.115,0.162-0.243,0.207-0.344
			c0.074-0.168,0.045-0.298,0.069-0.447c0.094-0.054,0.247-0.172,0.344-0.207c0.08,0.011,0.16,0.023,0.241,0.035
			c0.034-0.046,0.069-0.092,0.103-0.138c0.214-0.205,0.32-0.344,0.757-0.344c0.234-0.162,0.949,0.222,1.031,0.344
			c0.147,0.199,0.046,0.364,0.138,0.619c0.021,0.057,0.109,0.093,0.138,0.138c0.126,0.195,0.212,0.478,0.275,0.722
			c0.062,0.241-0.104,0.489-0.035,0.757c0.095,0.365,0.242,0.774,0.413,1.101c0.019,0.036,0.122,0.101,0.137,0.138
			c0.157,0.364,0.151,0.927,0.448,1.134c0.104,0.073,0.237,0.067,0.344,0.138c0.104,0.068,0.074,0.139,0.241,0.171
			c0.349-0.539,0.76-0.154,1.341-0.24c0.057-0.009,0.167,0.03,0.275,0c0.186-0.054,0.349-0.268,0.55-0.31
			c0.351-0.073,1.248,0.383,1.582,0.516c0.339,0.135,0.654,0.128,1.135,0.104c0.103-0.012,0.207-0.023,0.31-0.034
			c0.367,0.096,0.613,0.453,0.928,0.584c0.091,0,0.184,0,0.275,0c0.144,0.048,0.489,0.227,0.584,0.344
			c0.053,0.064,0.102,0.204,0.172,0.24c0.08,0,0.16,0,0.24,0c0.046,0.058,0.092,0.115,0.138,0.172c0.057,0,0.114,0,0.172,0
			c0.103,0.127,0.206,0.253,0.31,0.378c0.191,0.135,0.647,0.183,0.756,0.378c0.012,0.126,0.023,0.252,0.034,0.378
			c0.069,0.034,0.138,0.069,0.207,0.104c0.076,0.107,0.073,0.256,0.138,0.378c0.03,0.058,0.15,0.099,0.171,0.172
			c-0.011,0.057-0.023,0.115-0.035,0.171c0.085,0.301,0.529,0.699,0.55,1.066c-0.162,0.098-0.272,0.101-0.481,0.171
			c0.035,0.099,0.108,0.128,0.138,0.207c0.116,0.311,0.025,0.639-0.035,0.86c0.306,0.243,0.393,0.667,0.619,0.997
			c0.118,0.172,0.833,0.479,1.066,0.55c0.184,0,0.367,0,0.55,0c0.664,0.139,1.399-0.047,1.925-0.171
			c0.195-0.012,0.391-0.023,0.585-0.035c0.54-0.166,1.287-0.177,1.857-0.31c0.218-0.011,0.436-0.023,0.654-0.034
			c0.147-0.039,0.409-0.106,0.585-0.137c0.068,0.011,0.137,0.022,0.206,0.034c0.057-0.014,0.184-0.12,0.241-0.138
			c0.081,0,0.161,0,0.241,0c0.558-0.146,1.252-0.208,1.823-0.344c0.25-0.059,0.503,0.06,0.722,0
			c0.531-0.146,1.478-0.211,2.132-0.069c0.298,0,0.596,0,0.894,0c0.176-0.043,0.348-0.203,0.619-0.138
			c0.531,0.128,1.092,0.325,1.616,0.447c0.019,0.052,0.023,0.058,0.034,0.138c-0.146,0.091-0.375,0.284-0.412,0.48
			c0.454,0.249,0.855,0.697,1.238,1.032c0.108,0.096,0.273,0.104,0.344,0.241c0.04,0.069,0.004,0.114,0.034,0.171
			c0.037,0.026,0.032,0.021,0.103,0.035c0.043-0.062,0.09-0.085,0.138-0.137c0.387,0.146,0.763,0.393,1.135,0.516
			c0.115,0,0.229,0,0.345,0c0.129,0.044,0.344,0.193,0.481,0.241c0.245,0.084,0.381,0.026,0.653,0.103
			c0.285,0.081,0.612,0.264,0.894,0.344c0.375,0.106,0.668,0.044,1.032,0.138c0.212,0.054,1.151,0.369,1.341,0.309
			c0.256-0.08,0.557-0.236,0.826-0.309c0.374-0.102,0.706,0.175,1.031,0.068c0.22-0.071,0.29-0.238,0.413-0.412
			c0.122-0.175,0.378-0.317,0.55-0.447c0.15-0.113,0.246-0.314,0.413-0.413c0.312-0.185,0.759-0.015,1.065-0.069
			c0.019-0.052,0.023-0.058,0.035-0.137c-0.067-0.057-0.058-0.05-0.069-0.172c0.24-0.15,0.441-0.296,0.688-0.447
			c0.145-0.088,0.23-0.306,0.412-0.378c0.138,0,0.275,0,0.413,0c0.12-0.043,0.175-0.212,0.274-0.275
			c0.09-0.056,0.314-0.081,0.413-0.103c0.259-0.06,0.575,0.027,0.791,0.033c0.487,0.018,0.755-0.095,1.101,0
			c0.33,0.092,1.027-0.086,1.101-0.275c-0.237-0.136-0.553-0.275-0.826-0.377c-0.113,0.022-0.229,0.045-0.344,0.069
			c-0.103-0.023-0.355-0.228-0.412-0.172c-0.08,0.039-0.114,0.073-0.206,0.104c-0.085-0.104-0.43-0.164-0.653-0.104
			c-0.082,0.021-0.308,0.08-0.413,0.104c-0.126,0-0.252,0-0.379,0c-0.175,0.057-0.497,0.314-0.688,0.241
			c-0.446-0.096-0.024-1.176,0.138-1.102c0.097,0.034,0.107,0.11,0.172,0.138c0.126,0,0.253,0,0.378,0
			c0.101,0.039,0.237,0.231,0.482,0.137c0.125-0.048,0.274-0.245,0.481-0.206c0.254,0.048,0.846,0.184,1.203,0.069
			c0.278-0.09,0.339-0.375,0.688-0.414c0.197,0.191,1.778,0.384,2.062,0.275c0.182-0.069,0.913-0.413,1.102-0.378
			c0.483,0.091,0.731-0.056,1.203-0.172c0.376-0.093,0.815-0.025,1.169-0.103c0.43-0.094,0.725,0.192,1.17,0.069
			c0.377-0.104,0.775-0.424,1.134-0.516c0.203-0.05,0.37,0.188,0.62,0.138c0.264-0.054,0.482-0.003,0.791,0.068
			c0.16,0,0.32,0,0.481,0c0.372,0.082,0.92,0.088,1.237,0.172c0.297,0.078,0.582-0.12,0.826-0.069
			c0.055,0.012,0.141,0.117,0.274,0.069c0.051-0.019,0.066-0.12,0.104-0.138c0.206,0,0.413,0,0.619,0
			c0.048-0.016,0.102-0.124,0.137-0.137c0.115,0.011,0.23,0.023,0.345,0.035c0.205-0.057,0.64-0.074,0.895-0.104
			c0.033,0.062,0.043,0.058,0.068,0.138c-0.102,0.075-0.094,0.178-0.138,0.309c-0.186,0.092-0.35,0.277-0.551,0.344
			c-0.079,0-0.16,0-0.24,0c-0.196,0.055-0.53,0.176-0.757,0.241c-0.132,0.038-0.396,0.004-0.481-0.035
			c-0.011-0.022-0.022-0.046-0.034-0.068c-0.088-0.022-0.674,0.148-0.722,0.207c-0.033,0.052-0.049,0.215-0.069,0.275
			c-0.193,0.109-0.384,0.285-0.619,0.343c-0.114-0.012-0.229-0.023-0.344-0.034c-0.1,0.027-0.219,0.159-0.413,0.103
			c-0.025-0.007-0.111-0.097-0.137-0.103c-0.182-0.043-0.177,0.147-0.344,0.103c-0.01-0.002-0.084-0.097-0.104-0.103
			c-0.114,0-0.229,0-0.344,0c-0.293-0.063-0.471-0.135-0.757-0.034c-0.206,0.011-0.413,0.022-0.619,0.034
			c-0.058,0.023-0.151,0.137-0.206,0.172c-0.141,0.088-0.2,0.044-0.241,0.24c0.035,0.011,0.069,0.023,0.104,0.035
			c0.118,0.069,0.229-0.031,0.31,0c0.271,0.093,1.033,0.913,1.065,1.237c-0.213,0.139-0.182,0.468-0.172,0.826
			c0.012,0,0.023,0,0.035,0c0,0.011,0,0.022,0,0.034c0.022,0,0.046,0,0.068,0c0.086-0.164,0.14-0.356,0.379-0.379
			c0.127,0.082,0.32,0.057,0.446,0.138c0.363,0.235,0.49,0.69,0.585,1.204c0.173,0.052,0.287,0.037,0.379,0.171
			c0.085,0.129,0.149,0.353,0.172,0.516c-0.067,0.053-0.122,0.096-0.207,0.138c0.022,0.061,0.007,0.034,0.035,0.069
			c0.039,0.159,0.186,0.308,0.344,0.344c0.099-0.167,0.097-0.043,0.274-0.138c0.069-0.036,0.05-0.158,0.104-0.207
			c0.146-0.132,0.253,0.044,0.31-0.207c-0.184-0.067-0.224-0.125-0.344-0.24c0.061-0.139,0.119-0.265,0.24-0.344
			c0.071-0.058,0.143-0.066,0.275-0.069c0.087,0.078,0.179,0.178,0.31,0.206c0.155-0.165,0.525,0.034,0.688,0.103
			c0.11,0.047,0.202,0.017,0.344,0.068c0.177,0.066,0.339,0.248,0.48,0.345c0.092,0.034,0.184,0.068,0.275,0.103
			c0.158,0.108,0.262,0.337,0.413,0.448c0.097,0.071,0.491,0.371,0.516,0.344c0.105-0.052,0.199-0.125,0.275-0.207
			C85.297,23.719,85.475,24.01,86.15,24.021z"/>
		<path d="M63.658,8.991c0.081,0.011,0.161,0.023,0.241,0.034C64,9.169,64.327,9.412,64.243,9.61
			c-0.056,0.172-0.213,0.25-0.412,0.275c-0.074-0.092-0.187-0.095-0.311-0.137c-0.068-0.135-0.127-0.171-0.137-0.379
			C63.482,9.289,63.586,9.093,63.658,8.991z"/>
		<path d="M69.023,14.252c0.046,0,0.092,0,0.138,0c0.142,0.232,0.4,0.312,0.551,0.516c0.144,0.196,0.12,0.35,0.068,0.585
			c0.063,0.145,0.159,0.139,0.172,0.378c-0.114,0.072-0.198,0.257-0.31,0.31c-0.193,0.092-0.259-0.064-0.344,0.138
			c-0.129,0.219-0.016,0.375-0.379,0.378c-0.278-0.245-0.705,0.28-0.997,0.172c-0.316-0.113-0.543-0.563-0.859-0.62
			c-0.376,0.292-1.048,0.092-1.445-0.068c-0.173-0.07-0.226,0.055-0.309-0.103c-0.115-0.18,0.039-0.374,0.104-0.482
			c0.228-0.389,0.868-0.561,1.478-0.55c0.052,0.163,0.104,0.372,0.311,0.448c0.07,0.025,0.107-0.048,0.138-0.035
			c0.076,0.034,0.139,0.167,0.206,0.207c0.127,0.076,0.305,0.006,0.481,0c0.09-0.206,0.148-0.447,0.275-0.619
			c0.089-0.122,0.257-0.182,0.378-0.275C68.796,14.542,68.92,14.362,69.023,14.252z"/>
		<path d="M58.706,15.904c0.261,0.004,0.827,0.277,0.895,0.481c0.03,0.044,0.03,0.084,0.034,0.171
			c-0.124,0.075-0.178,0.173-0.344,0.207c-0.188-0.107-0.354,0.117-0.619,0.034c-0.028-0.009-0.109-0.093-0.138-0.103
			c-0.234-0.075-0.447,0.006-0.585-0.068c-0.039-0.058-0.036-0.168-0.034-0.275c0.012,0,0.023,0,0.034,0
			C58.102,15.924,58.447,16.138,58.706,15.904z"/>
		<path d="M66.822,16.832c0.115,0.012,0.229,0.024,0.345,0.035c0.046,0.081,0.091,0.16,0.137,0.241
			c-0.182,0.108-0.265,0.175-0.585,0.171c-0.035-0.027-0.009-0.012-0.068-0.034c0-0.022,0-0.045,0-0.068
			c-0.053-0.081-0.02-0.147,0-0.24C66.714,16.907,66.776,16.878,66.822,16.832z"/>
		<path d="M68.439,16.97c0.431,0.003,0.775,0.196,0.824,0.584c-0.06,0.038-0.124,0.087-0.172,0.138
			c-0.36,0.016-0.637-0.056-0.722-0.31c-0.053-0.065-0.062-0.124-0.068-0.241C68.353,17.094,68.4,17.03,68.439,16.97z"/>
	</g>
</g>
<g id="Layer_1">
</g>
</svg>
