<?xml version="1.0" encoding="iso-8859-1"?>
<!-- Generator: Adobe Illustrator 16.0.3, SVG Export Plug-In . SVG Version: 6.00 Build 0)  -->
<!DOCTYPE svg PUBLIC "-//W3C//DTD SVG 1.1//EN" "http://www.w3.org/Graphics/SVG/1.1/DTD/svg11.dtd">
<svg version="1.1" xmlns="http://www.w3.org/2000/svg" xmlns:xlink="http://www.w3.org/1999/xlink" x="0px" y="0px" width="100px"
	 height="100px" viewBox="0 0 100 100" style="enable-background:new 0 0 100 100;" xml:space="preserve">
<g id="VN">
	<g>
		<g>
			<g>
				<ellipse cx="63.408" cy="14.801" rx="0.103" ry="0.084"/>
				<circle cx="62.573" cy="15.223" r="0.08"/>
				<ellipse cx="62.32" cy="13.998" rx="0.134" ry="0.08"/>
				<ellipse cx="61.832" cy="14.149" rx="0.08" ry="0.062"/>
				<ellipse cx="61.362" cy="14.339" rx="0.107" ry="0.085"/>
				<ellipse cx="60.222" cy="18.312" rx="0.067" ry="0.098"/>
				<circle cx="60.581" cy="17.726" r="0.08"/>
				<ellipse cx="59.928" cy="17.841" rx="0.057" ry="0.08"/>
				<circle cx="58.485" cy="17.917" r="0.075"/>
				<ellipse cx="59.533" cy="17.579" rx="0.124" ry="0.137"/>
				<circle cx="59.503" cy="17.047" r="0.146"/>
				<circle cx="59.143" cy="17.083" r="0.066"/>
				<circle cx="59.2" cy="16.759" r="0.071"/>
				<ellipse cx="58.947" cy="16.909" rx="0.054" ry="0.062"/>
				<circle cx="58.415" cy="17.064" r="0.067"/>
				<circle cx="59.071" cy="17.571" r="0.093"/>
				<path d="M63.537,14.042c0.034-0.147-0.188-0.134-0.338-0.134s-0.417,0.001-0.417,0.125s0.267,0.239,0.461,0.221
					C63.438,14.238,63.516,14.13,63.537,14.042z"/>
				<path d="M62.906,15.586c-0.056-0.099-0.159-0.106-0.302,0.081c-0.143,0.186-0.098,0.248-0.019,0.32
					c0.081,0.071,0.214-0.062,0.276-0.16C62.924,15.729,62.937,15.64,62.906,15.586z"/>
				<path d="M62.099,16.492c0.151-0.017,0.169-0.283,0.159-0.381c-0.008-0.099-0.053-0.231-0.098-0.293
					c-0.044-0.062-0.381,0.018-0.354,0.142c0.026,0.125,0.123,0.169,0.115,0.231c-0.009,0.062-0.098,0.257-0.044,0.284
					C61.93,16.5,62.043,16.498,62.099,16.492z"/>
				<path d="M61.886,14.557c0.004-0.064-0.338,0.045-0.408,0.115c-0.071,0.072-0.178,0.267-0.071,0.338
					c0.106,0.071,0.151-0.036,0.24-0.16C61.734,14.725,61.879,14.651,61.886,14.557z"/>
				<path d="M61.237,15.551c-0.066-0.095-0.293,0.124-0.293,0.222s-0.062,0.222-0.124,0.354c-0.062,0.134,0.054,0.293,0.16,0.178
					c0.106-0.115,0.142-0.212,0.204-0.381C61.247,15.755,61.291,15.628,61.237,15.551z"/>
				<path d="M60.944,14.646c-0.012-0.155-0.222,0.052-0.328,0.062s-0.16,0.062-0.187-0.071c-0.026-0.133-0.23-0.213-0.257-0.027
					c-0.027,0.187-0.035,0.337-0.178,0.391s-0.222,0.258-0.214,0.382c0.009,0.124,0.045,0.364,0.196,0.302s0.151-0.258,0.328-0.409
					c0.178-0.151,0.337-0.205,0.462-0.319C60.891,14.841,60.951,14.735,60.944,14.646z"/>
				<path d="M60.741,15.977c-0.079-0.158-0.267-0.071-0.356,0.115c-0.089,0.187-0.195,0.382-0.372,0.489
					c-0.178,0.106-0.248,0.239-0.009,0.266c0.239,0.027,0.292,0.044,0.426-0.168C60.562,16.465,60.825,16.149,60.741,15.977z"/>
				<path d="M60.82,16.572c-0.057-0.12-0.258,0.266-0.355,0.365c-0.097,0.097-0.194,0.354-0.07,0.363
					c0.124,0.009,0.186-0.097,0.301-0.319C60.812,16.758,60.866,16.668,60.82,16.572z"/>
				<path d="M60.936,15.436c-0.028-0.077-0.159-0.062-0.293,0.053c-0.133,0.116-0.133,0.212-0.08,0.231
					c0.054,0.018,0.143,0.053,0.258-0.062C60.936,15.542,60.957,15.495,60.936,15.436z"/>
				<path d="M59.596,16.439c0.023-0.058-0.045-0.098-0.169-0.062c-0.125,0.035-0.062,0.107-0.062,0.107s0.133,0.018,0.168,0
					C59.568,16.465,59.588,16.457,59.596,16.439z"/>
				<path d="M59.773,16.563c0.031-0.053-0.071-0.045-0.223,0.008c-0.15,0.053-0.194,0.071-0.15,0.125s0.159,0.009,0.248-0.053
					S59.754,16.594,59.773,16.563z"/>
				<ellipse cx="56.835" cy="16.66" rx="0.16" ry="0.115"/>
				<path d="M58.121,17.672c0.074-0.108,0.125-0.274-0.035-0.355c-0.159-0.079-0.274-0.133-0.417-0.115
					c-0.142,0.018-0.248-0.071-0.337-0.168c-0.09-0.097-0.214-0.081-0.267,0.08c-0.054,0.16,0.044,0.311,0.151,0.399
					c0.105,0.089,0.168,0.142,0.337,0.275c0.169,0.134,0.266,0.267,0.373,0.205c0.106-0.062,0.142-0.168,0.142-0.213
					C58.068,17.735,58.104,17.697,58.121,17.672z"/>
				<path d="M56.647,17.558c0.099-0.062,0.072-0.24-0.017-0.365c-0.089-0.124-0.275-0.523-0.436-0.408
					c-0.159,0.116,0.009,0.329,0.098,0.417c0.089,0.089,0.16,0.24,0.222,0.32C56.577,17.602,56.619,17.576,56.647,17.558z"/>
				<path d="M62.418,46.993c0.189-0.047-0.195-0.445-0.347-0.569c-0.15-0.124-0.523-0.337-0.576-0.452
					c-0.054-0.116-0.417-0.302-0.471-0.169c-0.053,0.133,0.124,0.24,0.274,0.355c0.151,0.115,0.472,0.408,0.666,0.594
					C62.16,46.94,62.293,47.023,62.418,46.993z"/>
				<ellipse cx="64.952" cy="47.716" rx="0.084" ry="0.093"/>
				<path d="M66.731,51.831c0.084-0.01-0.026-0.319-0.115-0.418c-0.088-0.098-0.222-0.23-0.222-0.098
					c0,0.134,0.098,0.373,0.143,0.417C66.582,51.777,66.678,51.837,66.731,51.831z"/>
				<path d="M66.342,51.155c0.104-0.004-0.035-0.381-0.071-0.541c-0.036-0.159-0.204-0.364-0.319-0.249
					c-0.116,0.115-0.106,0.382-0.035,0.497C65.986,50.979,66.212,51.161,66.342,51.155z"/>
				<path d="M67.549,52.327c-0.074-0.139-0.178-0.026-0.248,0.089c-0.071,0.116-0.036,0.249,0.034,0.249
					c0.072,0,0.152-0.027,0.188-0.125C67.558,52.443,67.574,52.375,67.549,52.327z"/>
				<path d="M66.856,50.047c0.07-0.031,0.062-0.196-0.026-0.267c-0.089-0.072-0.214-0.124-0.258-0.053s-0.035,0.204,0.062,0.275
					C66.731,50.073,66.805,50.069,66.856,50.047z"/>
				<path d="M71.942,65.599c0.073,0.01,0.001-0.133-0.018-0.213c-0.018-0.08-0.07-0.106-0.133-0.099
					c-0.062,0.01-0.035,0.134,0.009,0.196C71.846,65.545,71.897,65.593,71.942,65.599z"/>
				<path d="M72.244,72.655c0.11-0.062,0.054-0.257-0.114-0.354c-0.169-0.098-0.303-0.143-0.355-0.08
					c-0.054,0.062-0.009,0.257,0.105,0.363C71.996,72.691,72.164,72.701,72.244,72.655z"/>
				<ellipse cx="72.484" cy="72.824" rx="0.062" ry="0.08"/>
				<ellipse cx="71.144" cy="73.845" rx="0.07" ry="0.08"/>
				<circle cx="71.477" cy="75.385" r="0.093"/>
				<ellipse cx="71.437" cy="77.747" rx="0.106" ry="0.084"/>
				<path d="M71.694,75.122c0.086-0.126-0.098-0.292-0.239-0.292c-0.143,0-0.303,0-0.303,0.106s0.116,0.213,0.294,0.222
					C71.624,75.168,71.659,75.176,71.694,75.122z"/>
				<path d="M68.938,86.419c0.109-0.032,0-0.279-0.12-0.279s-0.253,0.119-0.133,0.173C68.806,86.365,68.872,86.438,68.938,86.419z"
					/>
				<ellipse cx="56.109" cy="86.193" rx="0.113" ry="0.133"/>
				<ellipse cx="56.043" cy="86.759" rx="0.113" ry="0.153"/>
				<path d="M55.783,86.339c0.06-0.029,0-0.159-0.054-0.239c-0.053-0.08-0.039-0.054-0.133-0.054s-0.066,0.12-0.014,0.227
					C55.637,86.379,55.736,86.362,55.783,86.339z"/>
				<path d="M55.157,86.286c0.186-0.006,0.027-0.253,0-0.347c-0.027-0.093-0.133-0.227-0.227-0.199
					c-0.094,0.026-0.08,0.279-0.014,0.386S55.085,86.288,55.157,86.286z"/>
				<path d="M55.53,86.965c0.014-0.092-0.24-0.347-0.346-0.08c-0.107,0.267-0.014,0.547,0.133,0.56
					c0.146,0.014,0.186-0.066,0.213-0.146c0.026-0.08-0.04-0.199-0.04-0.199S55.524,87,55.53,86.965z"/>
				<path d="M54.598,88.177c0.043-0.126-0.173-0.227-0.347-0.2c-0.173,0.026-0.492-0.039-0.585-0.08
					c-0.094-0.039-0.399,0.014-0.228,0.134c0.174,0.12,0.453,0.333,0.733,0.333C54.451,88.363,54.56,88.286,54.598,88.177z"/>
				<path d="M54.172,88.496c-0.292-0.044-0.586-0.106-0.759-0.227c-0.174-0.119-0.44-0.466-0.613-0.625
					c-0.173-0.16-0.492-0.307-0.759-0.307c-0.266,0-0.692-0.027-0.985,0.04c-0.292,0.066-0.572,0.106-0.306,0.214
					c0.267,0.106,0.759,0.198,0.972,0.411s0.426,0.587,0.666,0.813c0.239,0.226,0.705,0.585,0.905,0.705
					c0.199,0.12,0.545,0.293,0.679,0.214c0.134-0.081,0.106-0.307,0.106-0.44c0-0.133,0.08-0.226,0.253-0.226
					c0.174,0,0.32-0.094,0.24-0.307S54.29,88.514,54.172,88.496z"/>
				<path d="M54.025,90.587c0.013-0.214-0.04-0.426-0.293-0.546s-0.945-0.439-1.118-0.612c-0.174-0.174-0.68-0.68-0.786-0.933
					s-0.346-0.493-0.586-0.532c-0.239-0.04-0.799-0.239-1.052-0.359s-0.613-0.294-0.666-0.12c-0.053,0.173,0.16,0.347,0.439,0.492
					c0.28,0.146,0.693,0.333,0.905,0.532c0.214,0.2,0.214,0.308,0.453,0.613c0.239,0.307,0.6,0.666,0.905,0.865
					c0.307,0.2,0.772,0.399,0.999,0.573c0.227,0.173,0.372,0.267,0.586,0.239C54.025,90.773,54.021,90.661,54.025,90.587z"/>
				<path d="M53.413,91.146c0.119-0.099,0-0.306-0.16-0.399c-0.16-0.093-0.772-0.479-0.772-0.399c0,0.08,0.16,0.307,0.347,0.466
					c0.187,0.16,0.293,0.347,0.386,0.36C53.306,91.186,53.375,91.178,53.413,91.146z"/>
				<path d="M51.575,92.903c0.146-0.066-0.026-0.479-0.134-0.546c-0.106-0.066-0.266-0.173-0.425-0.319
					c-0.16-0.146-0.414-0.373-0.467-0.306c-0.053,0.066,0.066,0.279,0.2,0.386c0.133,0.106,0.253,0.187,0.333,0.319
					c0.079,0.134,0.146,0.307,0.266,0.399C51.468,92.93,51.575,92.903,51.575,92.903z"/>
				<path d="M50.816,88.855c0.04-0.026,0.08-0.187-0.08-0.293c-0.16-0.106-0.146-0.226-0.16-0.106
					c-0.013,0.12,0.053,0.146,0.106,0.253C50.736,88.816,50.816,88.855,50.816,88.855z"/>
				<path d="M49.618,90.493c0.059-0.009-0.239-0.426-0.28-0.373C49.298,90.174,49.502,90.513,49.618,90.493z"/>
				<path d="M51.096,93.023c0.05,0.022,0.027-0.134-0.027-0.333c-0.052-0.2-0.199-0.2-0.239-0.2c-0.039,0-0.026,0.081,0.094,0.254
					C51.043,92.917,51.021,92.988,51.096,93.023z"/>
				<ellipse cx="54.777" cy="98.176" rx="0.1" ry="0.107"/>
				<ellipse cx="54.457" cy="98.323" rx="0.086" ry="0.081"/>
				<ellipse cx="53.325" cy="98.616" rx="0.099" ry="0.093"/>
				<ellipse cx="50.47" cy="99.082" rx="0.106" ry="0.12"/>
				<circle cx="50.003" cy="99.241" r="0.12"/>
				<path d="M54.132,97.844c-0.116-0.136-0.387,0.013-0.479,0.279s0,0.493,0.106,0.493s0.307-0.134,0.373-0.347
					S54.201,97.925,54.132,97.844z"/>
				<ellipse cx="41.782" cy="99.874" rx="0.14" ry="0.126"/>
				<ellipse cx="40.57" cy="96.519" rx="0.127" ry="0.113"/>
				<ellipse cx="40.576" cy="90.746" rx="0.172" ry="0.106"/>
				<ellipse cx="39.092" cy="87.697" rx="0.153" ry="0.093"/>
				<ellipse cx="40.071" cy="88.083" rx="0.067" ry="0.093"/>
				<ellipse cx="39.905" cy="88.43" rx="0.087" ry="0.12"/>
				<ellipse cx="39.958" cy="88.936" rx="0.087" ry="0.12"/>
				<ellipse cx="38.945" cy="90.813" rx="0.086" ry="0.133"/>
				<ellipse cx="39.405" cy="91.646" rx="0.067" ry="0.087"/>
				<ellipse cx="39.372" cy="92.052" rx="0.126" ry="0.08"/>
				<ellipse cx="36.868" cy="90.494" rx="0.086" ry="0.093"/>
				<ellipse cx="36.462" cy="90.554" rx="0.094" ry="0.1"/>
				<ellipse cx="36.749" cy="90.027" rx="0.086" ry="0.093"/>
				<ellipse cx="36.769" cy="89.754" rx="0.066" ry="0.086"/>
				<ellipse cx="34.013" cy="93.796" rx="0.094" ry="0.08"/>
				<ellipse cx="33.759" cy="93.855" rx="0.08" ry="0.073"/>
				<path d="M33.599,94.288c0.065-0.055-0.026-0.213-0.08-0.278c-0.053-0.067-0.186-0.055-0.186,0.133
					C33.333,94.328,33.542,94.338,33.599,94.288z"/>
				<path d="M36.462,88.296c0.102,0.366,0.053,0.653,0.133,0.959c0.08,0.307,0.319,0.107,0.359-0.025
					c0.04-0.134,0.013-0.32-0.067-0.454c-0.08-0.133-0.04-0.252,0.093-0.56c0.133-0.306,0.227-0.438,0.2-0.624
					c-0.027-0.188-0.106-0.36-0.081-0.521c0.027-0.159,0.093-0.412-0.026-0.493c-0.12-0.079-0.24-0.118-0.24-0.172
					s-0.186-0.2-0.319-0.16s-0.253,0.187-0.28,0.279c-0.026,0.093-0.173,0.254-0.32,0.174c-0.146-0.081-0.426-0.134-0.373,0.053
					s0.08,0.187,0.319,0.52c0.24,0.333,0.347,0.346,0.44,0.599S36.432,88.187,36.462,88.296z"/>
			</g>
		</g>
		<path d="M43.227,99.072c0.249,0.019,0.55,0.054,0.639-0.248c0.089-0.302,0.568-0.55,0.852-0.675
			c0.284-0.124,0.746-0.213,0.764-0.692c0.018-0.479,0.23-1.047,0.586-1.527c0.355-0.479,0.87-0.904,1.633-1.117
			c0.763-0.214,1.456-0.338,1.864-0.551s0.728-0.338,0.852-0.479s0.32-0.194,0.374-0.071c0.053,0.125,0.318,0.124,0.283-0.124
			s-0.337-0.888-0.479-1.137c-0.142-0.248-0.426-0.815-0.479-0.994c-0.053-0.177-0.267-0.442-0.55-0.674
			c-0.284-0.231-0.337-0.267-0.55-0.604c-0.213-0.338-0.195-0.675-0.195-0.675s0.461,0.213,0.639,0.426
			c0.177,0.213,0.426,0.515,0.71,0.923c0.284,0.408,0.799,0.959,1.048,1.137c0.248,0.178,0.728,0.567,0.994,0.567
			c0.266,0,0.639,0.054,0.87-0.212c0.23-0.267,0.426-0.427,0.124-0.853s-0.905-0.816-1.101-1.137
			c-0.195-0.319-0.781-0.834-1.083-1.136s-0.782-0.799-1.101-0.959c-0.32-0.159-0.764-0.515-0.835-0.675
			c-0.071-0.159-0.088-0.301,0.213-0.301c0.302,0,0.604-0.036,1.225-0.107c0.623-0.07,1.155-0.142,1.563-0.053
			c0.408,0.088,0.941,0.373,1.296,0.497s0.799,0.213,1.048,0.16c0.248-0.054,0.497-0.178,0.461-0.497
			c-0.035-0.32-0.267-0.516-0.373-0.657c-0.106-0.143-0.372-0.054-0.604-0.071c-0.23-0.018-0.124-0.16,0.16-0.267
			s0.586-0.053,0.55-0.408c-0.035-0.354-0.034-0.603,0.036-0.852s0.23-0.479,0.337-0.479s0.178,0.142,0.09,0.283
			c-0.09,0.142-0.267,0.515,0.017,0.711c0.284,0.195,0.693,0.249,0.888,0.177c0.196-0.07,0.444-0.088,0.444,0.089
			c0,0.178,0.07,0.551,0.195,0.622c0.124,0.07-0.071,0.267,0.054,0.373c0.124,0.106,0.372,0,0.514,0
			c0.143,0,0.195,0.018,0.195,0.124s-0.23,0.248-0.373,0.248c-0.142,0-0.283,0.125-0.229,0.249c0.053,0.124,0.318,0.036,0.514-0.071
			c0.196-0.106,0.408-0.337,0.64-0.337c0.23,0,0.373-0.054,0.479-0.195s0.355-0.23,0.657-0.23c0.301,0,0.728-0.267,0.834-0.463
			c0.106-0.194,0.497-0.408,0.692-0.408s0.533-0.177,0.764-0.373c0.23-0.194,0.656-0.425,0.94-0.425s0.675,0.07,0.729-0.019
			c0.053-0.088,0.373-0.479,0.479-1.047c0.105-0.568,0.497-0.586,0.674-0.586c0.178,0,0.532,0,0.622,0.124
			c0.089,0.125,0.23,0.195,0.283,0c0.054-0.195,0.32-0.497,0.409-0.55c0.088-0.054,0.372-0.071,0.372-0.071s0.319-0.498,0.444-0.64
			s0.621-0.373,0.87-0.373s0.461,0.249,0.604,0.213c0.142-0.035,0.054-0.39,0.213-0.55c0.16-0.16,0.426-0.142,0.568-0.283
			c0.143-0.143,0.372-0.089,0.497-0.089c0.124,0,0.462-0.125,0.567-0.231c0.106-0.106,0.16-0.337,0.143-0.462
			c-0.019-0.124-0.035-0.408,0-0.532c0.036-0.124-0.019-0.515-0.019-0.64c0-0.123,0.036-0.373,0.214-0.302
			c0.178,0.072,0.23,0.373,0.426,0.338c0.195-0.036,0.266-0.249,0.32-0.409c0.053-0.16,0.142-0.407,0.354-0.567
			s0.018-0.249-0.018-0.462s-0.195-0.319-0.302-0.23c-0.107,0.089-0.267,0.035-0.267-0.195c0-0.231,0.213-0.373,0.319-0.551
			s-0.035-0.461-0.106-0.55s0-0.444,0.177-0.178c0.179,0.267,0.32,0.604,0.32,0.888s0.054,0.533,0.249,0.515
			c0.195-0.017,0.23-0.337,0.106-0.568c-0.124-0.23-0.373-0.585-0.409-0.834c-0.035-0.248,0.001-0.355-0.035-0.639
			c-0.035-0.285-0.283-0.303-0.159-0.692c0.124-0.392,0.142-0.764,0.036-0.835c-0.108-0.071-0.444-0.692-0.285-0.692
			c0.16,0,0.16,0,0.16,0s0.089,0.284,0.23,0.284s0.249,0.124,0.319,0.267c0.072,0.142,0.338,0.106,0.409-0.071
			c0.07-0.178-0.089-0.373-0.195-0.408c-0.107-0.035-0.107-0.214-0.125-0.302c-0.017-0.089-0.195-0.213-0.248-0.373
			c-0.054-0.159-0.266,0.018-0.338-0.125c-0.07-0.142,0.089-0.391,0.284-0.532s0.302-0.443,0.373-0.604
			c0.071-0.159,0.373-0.23,0.373-0.089c0,0.143-0.124,0.675-0.018,0.71c0.106,0.036,0.284-0.177,0.372-0.088
			c0.09,0.088-0.053,0.302,0.106,0.496c0.16,0.195,0.267,0.143,0.267-0.105c0-0.249,0.089-0.32-0.124-0.497
			c-0.213-0.179-0.319-0.231-0.337-0.427c-0.019-0.195-0.178-0.639-0.019-0.621c0.16,0.018,0.213,0.054,0.267,0.23
			c0.053,0.179,0.177,0.195,0.23-0.035c0.054-0.231,0.107-0.816-0.142-0.905s-0.604-0.054-0.604-0.125
			c0-0.07,0.284-0.177,0.194-0.337c-0.088-0.16-0.461-0.249-0.514-0.479c-0.054-0.23-0.071-0.621,0.124-0.87
			c0.195-0.248,0.16-0.515-0.035-0.515c-0.196,0-0.373,0.195-0.373,0.054s0.337-0.338,0.035-0.479
			c-0.302-0.143-0.231-0.443-0.231-0.568c0-0.124,0.214-0.426,0.303-0.248c0.089,0.177-0.072,0.497,0.284,0.461
			c0.354-0.035,0.106-0.461-0.036-0.621c-0.142-0.16-0.124-0.373-0.212-0.515c-0.09-0.143-0.285-0.267-0.303-0.444
			s-0.159-0.426-0.124-0.763s-0.035-0.692-0.035-0.692s0.283,0.124,0.283,0.408s0.089,0.336,0.249,0.319
			c0.16-0.018,0.124-0.391-0.018-0.639c-0.143-0.249-0.267-0.622-0.249-0.781c0.018-0.16-0.054-0.604-0.178-0.711
			c-0.123-0.106-0.479-0.302-0.426-0.426c0.053-0.124,0.338,0.071,0.408-0.089c0.071-0.159-0.124-0.249-0.124-0.391
			s-0.124-0.337-0.248-0.532c-0.125-0.196,0.035-0.533-0.143-0.852c-0.178-0.32-0.354-0.712-0.373-1.066
			c-0.018-0.354,0.054-0.674-0.284-1.207c-0.337-0.532-0.532-1.35-0.515-1.58s-0.036-0.604-0.302-0.692
			c-0.267-0.089-0.267-0.23-0.213-0.301c0.054-0.072-0.001-0.285,0.07-0.338c0.072-0.054,0.303-0.213,0.143-0.391
			c-0.159-0.178-0.214-0.444-0.195-0.639c0.018-0.196,0.071-0.675-0.178-0.675c-0.248,0-0.248,0.336-0.267,0.426
			c-0.017,0.089-0.159,0.355-0.301,0.195c-0.143-0.16,0.106-0.302-0.143-0.568c-0.248-0.266-0.151-0.311-0.222-0.399
			c-0.071-0.089-0.267-0.23-0.294-0.098c-0.025,0.133-0.061,0.284-0.23,0.178c-0.169-0.106-0.408-0.213-0.47-0.497
			c-0.062-0.284-0.347-0.692-0.56-0.915c-0.213-0.222-0.409-0.47-0.497-0.639c-0.089-0.168-0.195-0.381-0.045-0.604
			c0.151-0.223,0.143-0.515-0.044-0.701s-0.275-0.586-0.195-0.808c0.08-0.221,0.284-0.453,0.479-0.47s0.328-0.054,0.23-0.222
			c-0.097-0.168-0.347-0.106-0.461-0.053c-0.116,0.053-0.568,0.045-0.613,0.098c-0.044,0.053-0.035,0.346-0.204,0.505
			c-0.168,0.16-0.354,0.373-0.487,0.258c-0.134-0.116-0.463-0.417-0.329-0.542c0.133-0.124,0.382-0.363,0.488-0.443
			c0.107-0.08,0.178-0.285-0.116-0.285c-0.292,0-0.363-0.018-0.487-0.31c-0.124-0.293-0.373-0.498-0.453-0.417
			c-0.08,0.08,0.08,0.515-0.133,0.453s-0.391-0.32-0.497-0.364s-0.258-0.018-0.248,0.222c0.009,0.24,0.026,0.479-0.195,0.479
			c-0.223,0-0.382-0.062-0.48-0.16c-0.098-0.098-0.194-0.205-0.079-0.284c0.115-0.081,0.053-0.178-0.027-0.284
			c-0.079-0.106-0.212-0.4-0.266-0.479c-0.053-0.081-0.205-0.151-0.311-0.178c-0.106-0.026-0.195-0.195-0.223-0.266
			c-0.026-0.072-0.169-0.089-0.311-0.072c-0.142,0.018-0.311-0.017-0.373-0.07c-0.062-0.053-0.337-0.106-0.505-0.196
			c-0.169-0.089-0.56-0.391-0.524-0.488c0.035-0.098,0.249-0.009,0.595,0.168c0.346,0.178,0.746,0.417,0.826,0.337
			c0.08-0.08-0.383-0.346-0.551-0.444c-0.169-0.097-0.612-0.523-0.852-0.693c-0.24-0.168-0.711-0.656-0.817-0.745
			c-0.106-0.09-0.311-0.285-0.479-0.098c-0.168,0.186-0.311,0.382-0.328,0.292c-0.018-0.089-0.009-0.187,0.062-0.337
			c0.071-0.151,0.019-0.399-0.097-0.586c-0.116-0.186-0.125-0.409-0.125-0.515c0-0.106-0.133-0.577-0.391-0.781
			c-0.257-0.205-0.958-0.702-1.251-0.95c-0.294-0.249-1.093-0.951-1.474-1.457c-0.382-0.506-0.87-1.296-0.933-1.908
			s-0.044-0.772-0.044-0.772s0.293-0.018,0.302-0.195c0.009-0.178-0.098-0.426-0.23-0.568c-0.134-0.143-0.116-0.374-0.116-0.498
			c0-0.124-0.123-0.311-0.319-0.133c-0.195,0.177-0.408,0.035-0.524-0.044c-0.114-0.08-0.266-0.435-0.381-0.568
			c-0.115-0.133-0.337-0.417-0.665-0.461c-0.329-0.045-0.693-0.337-0.755-0.514c-0.062-0.178-0.302-0.693-0.373-0.799
			s-0.293-0.24-0.302,0.009c-0.009,0.249-0.062,0.488-0.168,0.497c-0.107,0.009-0.275-0.018-0.186-0.231
			c0.088-0.213,0.115-0.515,0.026-0.701c-0.089-0.186-0.275-0.55-0.302-0.86c-0.026-0.311-0.16-0.471-0.249-0.595
			c-0.088-0.125-0.337-0.204-0.293-0.311c0.045-0.106,0.231-0.248,0.267-0.248s-0.151-0.205-0.267-0.302
			c-0.114-0.097-0.425-0.177-0.514-0.311c-0.089-0.133-0.169-0.426-0.143-0.63c0.026-0.204,0.062-0.399,0.24-0.408
			c0.177-0.009,0.444,0,0.444-0.258c0-0.257,0.044-0.604,0.16-0.728c0.115-0.125,0.364-0.169,0.355-0.435
			c-0.009-0.267-0.115-0.604-0.018-0.799c0.098-0.195,0.311-0.425,0.346-0.736c0.036-0.311,0.044-0.631,0.044-0.897
			c0-0.267,0.081-0.417,0.213-0.489c0.133-0.071,0.143-0.088,0.124-0.221c-0.018-0.133-0.168-0.24-0.098-0.329
			c0.071-0.088,0.214-0.08,0.435-0.612c0.223-0.532,0.32-0.896,0.542-0.878c0.221,0.018,0.141,0.16,0.346,0.284
			c0.204,0.124,0.372,0.142,0.621-0.134c0.249-0.275,0.71-0.701,0.879-0.861c0.169-0.159,0.223-0.381,0.329-0.452
			c0.105-0.07,0.266-0.008,0.318,0.062c0.055,0.071,0.338,0.044,0.489-0.107c0.15-0.151,0.239-0.292,0.319-0.497
			s0.097-0.195,0.187-0.506c0.089-0.311,0.08-0.462,0.044-0.56c-0.035-0.097,0.019-0.204,0.133-0.364
			c0.116-0.159,0.249-0.346,0.24-0.541c-0.01-0.195-0.01-0.195-0.01-0.195s0.072-0.018,0.205-0.009
			c0.133,0.009,0.134,0.045,0.257-0.027c0.125-0.071,0.205-0.071,0.267-0.026c0.062,0.045,0.231,0.08,0.293,0.035
			c0.062-0.043-0.079-0.319-0.089-0.408c-0.009-0.089-0.098-0.454-0.062-0.666c0.036-0.213,0.09-0.275-0.009-0.479
			c-0.098-0.204-0.142-0.267-0.142-0.267s0.115-0.115,0.125-0.239c0.009-0.124-0.098-0.302-0.169-0.373
			c-0.071-0.071-0.284-0.23-0.284-0.23s0.328-0.063,0.488,0.123c0.159,0.187,0.257,0.294,0.354,0.409
			c0.099,0.115,0.32,0.222,0.347,0.053s0.018-0.338-0.035-0.462c-0.054-0.123,0.018-0.292,0.15-0.212
			c0.133,0.079,0.169,0.293,0.311,0.354c0.143,0.062,0.497,0.275,0.621,0.169c0.125-0.107,0.231-0.364,0.382-0.408
			c0.151-0.044,0.24,0.035,0.24,0.097c0,0.063-0.249,0.24-0.24,0.356c0.01,0.115,0.045,0.151,0.214,0.151
			c0.168,0,0.293-0.018,0.435-0.151c0.142-0.133,0.311-0.231,0.586-0.222c0.275,0.009,0.426-0.115,0.417-0.363
			c-0.009-0.249-0.106-0.595-0.106-0.773c0-0.177,0.032-0.335,0.08-0.434c0.123-0.252,0.497-0.409,0.674-0.409
			c0.179,0,0.267,0.089,0.303-0.071c0.035-0.16,0.124-0.373,0.249-0.213c0.124,0.16,0.194,0.267,0.408,0.177
			c0.213-0.088-0.125-0.443,0-0.461c0.124-0.018,0.177,0.142,0.407,0.124c0.231-0.018,0.48-0.124,0.516-0.444
			c0.035-0.319,0.106-0.391,0.248-0.337c0.143,0.053,0.32,0.106,0.373-0.018c0.054-0.124,0.178-0.231,0.213-0.089
			c0.036,0.142-0.089,0.55,0.071,0.55s0.16-0.177,0.319-0.177c0.16,0-0.089,0.319,0.071,0.284c0.159-0.036,0.248-0.301,0.443-0.532
			c0.195-0.231,0.089-0.604,0.089-0.675c0-0.07-0.461,0.019-0.585-0.195c-0.125-0.213-0.392-0.533-0.711-0.461
			c-0.319,0.07-0.691,0.249-1.064,0.284c-0.373,0.036-1.173,0.408-1.19,0.231c-0.018-0.178,0.249-0.622-0.088-0.515
			c-0.338,0.106-0.8,0.337-0.853-0.036c-0.054-0.373-0.408-0.479-0.799-0.55c-0.391-0.072-0.799-0.249-0.853-0.693
			c-0.053-0.444-0.302-0.497-0.692-0.497s-0.16-0.266-0.284-0.443s-0.675-0.426-0.94-0.426c-0.267,0-0.693,0.107-0.568-0.497
			c0.124-0.604,0.533-1.083,0.089-1.279S54.5,6.896,54.606,6.275c0.106-0.621,0.32-0.834,0.657-0.87
			c0.337-0.035,0.764-0.071,0.532-0.337c-0.23-0.266,0.036-0.71,0.267-0.852c0.23-0.143,0.497-0.213,0.337-0.391
			c-0.16-0.177-0.284-0.461-0.604-0.39c-0.319,0.071-0.621-0.106-0.763-0.249c-0.143-0.142-0.479-0.23-0.995,0.071
			c-0.515,0.302-1.047,0.461-1.136,0.072c-0.089-0.391,0.054-0.781-0.497-0.835c-0.551-0.053-1.048,0.054-1.048,0.213
			c0,0.16,0.089,0.497-0.16,0.391c-0.248-0.106-0.94-0.142-1.118-0.391c-0.178-0.248-0.515-0.728-0.835-0.728
			c-0.319,0-0.604,0.125-0.604-0.018c0-0.142-0.018-0.781-0.142-1.011c-0.125-0.231-0.799-0.48-0.87-0.657
			c-0.072-0.177-0.569-0.497-0.71-0.106s-0.55,0.425-0.87,0.444c-0.319,0.018-1.243,0.266-1.491,0.515
			c-0.249,0.248-0.781,0.658-0.764,0.906s0.088,0.657-0.089,0.852c-0.177,0.195-0.533,0.55-0.888,0.497s-0.817-0.302-0.852-0.089
			c-0.036,0.213-0.16,0.479-0.426,0.586c-0.266,0.106-0.284,0.071-0.284,0.213c0,0.141-0.302,0.23-0.586,0.141
			c-0.283-0.088-0.337-0.177-0.337-0.39s-0.035-0.604-0.266-0.604s-0.728,0.054-0.959,0.48c-0.231,0.426-0.391,1.047-0.408,1.26
			c-0.018,0.213-0.568,0.461-0.568,0.461s-0.195-0.195-0.302-0.373c-0.106-0.177-0.354-0.373-0.621-0.621
			c-0.267-0.248-0.355-0.55-0.568-0.816c-0.213-0.266-0.356-0.249-0.356-0.249s-0.176,0.266-0.319,0.532
			c-0.142,0.266-0.213,0.71-0.462,0.746c-0.248,0.035-0.391-0.498-0.497-0.71c-0.107-0.213-0.497-0.532-0.639-0.479
			c-0.143,0.053-0.267,0.142-0.196,0.337s0.106,0.568-0.248,0.533c-0.355-0.035-0.693,0.195-0.728,0.426
			c-0.036,0.23-0.302,0.657-0.409,0.87c-0.106,0.212-0.036,0.337-0.408,0.337c-0.373,0-0.639-0.16-0.639-0.337
			s-0.089-0.693-0.586-0.977c-0.497-0.284-1.651-0.924-1.864-0.924c-0.213,0-0.781,0.249-0.781,0.569
			c0,0.319-0.444,0.656-0.586,0.941c-0.142,0.283-0.23,0.781-0.461,0.781c-0.066,0-0.115,0.023-0.149,0.062
			c-0.084,0.094-0.07,0.294,0.043,0.559c0.16,0.373,0.674,1.047,0.923,1.225c0.249,0.177,0.87,0.426,0.87,0.728
			c0,0.302,0.284,0.515,0.497,0.746c0.212,0.23,0.408,0.479,0.408,0.887c0,0.409,0.195,0.834,0.444,0.586
			c0.249-0.248,0.337-0.461,0.337-0.71c0-0.248,0.035-0.515,0.213-0.515s0.213,0.639,0.249,0.817
			c0.036,0.178,0.266,0.267,0.479,0.142c0.213-0.124,0.497-0.053,0.497,0.302c0,0.355,0.053,0.764-0.248,0.871
			c-0.302,0.106-0.729,0.551-0.729,0.639c0,0.089,0.125,0.23,0.302,0.07c0.177-0.16,0.372-0.266,0.372-0.018
			c0,0.249-0.515,0.799-0.674,1.012c-0.16,0.213-0.195,0.373,0.249,0.71c0.444,0.337,0.622,0.622,0.852,1.278
			c0.231,0.657,0.373,1.261,0.853,1.261c0.479,0,1.296,0.053,1.562,0.053s0.373,0.071,0.479,0.267
			c0.106,0.195,0.586,0.053,0.835,0.319c0.248,0.267,0.088,0.729,0.39,0.71c0.302-0.018,0.284-0.266,0.603-0.657
			c0.32-0.391,0.498-0.479,0.799-0.551c0.302-0.071,0.551-0.301,0.799-0.461c0.249-0.16,0.941-0.301,1.208,0.071
			c0.266,0.373,1.136,1.03,1.438,1.225c0.301,0.196,0.852,0.462,0.87,0.782c0.018,0.319-0.462,0.302-0.728,0.479
			c-0.267,0.178-0.799,0.32-0.746,0.533c0.053,0.212,0.373,0.426,0.923,0.426s0.905,0.106,0.923,0.373
			c0.018,0.267-0.213,0.444-0.39,0.461c-0.178,0.018-0.071,0.355-0.018,0.409s0.799,0.124,1.136,0.124
			c0.337,0,0.799,0.301,0.816,0.853c0.018,0.55,0.071,0.833-0.408,0.852c-0.479,0.018-0.835,0.071-0.71,0.408
			c0.125,0.337,0.622,0.781,0.231,0.941c-0.391,0.16-0.585,0.106-0.799,0.391c-0.213,0.284-0.497,0.266-0.71,0.16
			c-0.213-0.106-0.728-0.249-1.012-0.16c-0.284,0.089-0.64,0.071-0.64,0.071s-0.036-0.142-0.319-0.107
			c-0.284,0.036-0.942,0.267-1.261-0.053c-0.32-0.319-0.337-0.426-0.462-0.39c-0.124,0.035-0.23,0.177-0.23,0.266
			c0,0.088,0.373,0.426,0.444,0.532s0.196,0.231,0.089,0.302c-0.107,0.071-0.32,0.213-0.249,0.373
			c0.071,0.16,0.071,0.603-0.088,0.674c-0.161,0.072-0.391,0.036-0.533-0.035c-0.142-0.071-0.585,0.267-0.497,0.355
			c0.089,0.089,0.391,0.391,0.604,0.586c0.213,0.194,0.87,0.23,1.065,0.408c0.195,0.178,0.728,0.64,1.154,0.906
			c0.426,0.267,0.834,0.816,1.385,1.065c0.55,0.249,1.154,0.355,1.651,0.728s1.029,0.515,1.456,0.586
			c0.426,0.07,0.852,0.408,0.852,0.55s-0.372,0.391-0.426,0.799c-0.053,0.408,0.568,1.082,1.048,1.668
			c0.479,0.586,0.656,0.924,0.905,0.959c0.249,0.036,0.55-0.213,0.799,0.337c0.248,0.55,0.603,0.764,0.603,1.013
			c0,0.248,0,0.585,0.284,1.065c0.284,0.479,0.941,1.295,1.545,1.846c0.603,0.55,1.367,1.313,1.615,1.544
			c0.249,0.23,0.426,0.337,0.64,0.195c0.213-0.142,0.461-0.053,0.497,0.32c0.035,0.373,0.213,0.853,0.479,1.154
			c0.267,0.302,0.496,0.196,0.691,0.16s0.23,0.124,0.214,0.355c-0.019,0.23-0.071,1.367-0.195,1.829
			c-0.125,0.461-0.09,0.887,0.035,1.029c0.124,0.143,0.443,0.053,0.427,0.444c-0.019,0.391-0.072,0.764,0.318,0.781
			c0.392,0.018,0.676-0.142,0.676-0.284s0.053-0.87,0.301-0.87c0.249,0,0.303,0.533,0.338,0.71c0.035,0.177,0.284,0.764,0.568,0.817
			s0.923-0.019,1.047,0.248c0.125,0.267,0.089,0.728,0.408,0.781c0.319,0.053,0.551-0.054,0.675,0.266s0.303,0.444,0.586,0.373
			c0.284-0.07,0.604-0.212,0.568,0.125c-0.035,0.337-0.195,1.136-0.479,1.136s-0.551,0.018-0.746,0.249
			c-0.195,0.231-0.568,0.125-0.639,0.125c-0.071,0-0.178,0.64-0.124,0.764c0.053,0.124,0.55,0.373,0.656,0.657
			c0.106,0.283,0.16,0.639,0.462,0.87c0.302,0.229,1.101,0.745,1.207,1.349s0.142,1.615-0.124,1.669
			c-0.267,0.054-0.746-0.09-0.692,0.426c0.053,0.515,0.23,0.408,0.497,0.515s0.284,0.64,0.23,0.764
			c-0.053,0.124-0.318,0.143-0.213,0.746c0.034,0.193,0.078,0.407,0.117,0.621c0.085,0.456,0.157,0.917,0.096,1.207
			c-0.088,0.426-0.266,0.728-0.497,0.728c-0.23,0-0.426,0.284-0.443,0.835c-0.018,0.55,0.178,0.853,0.337,0.994
			c0.16,0.142,0.267,0.177,0.267,0.177s-0.213,0.179-0.213,0.533c0,0.355-0.106,0.657,0.142,0.924
			c0.249,0.267,0.799,0.763,0.959,1.207c0.16,0.443,0.213,1.313-0.054,2.06c-0.267,0.745-0.994,1.687-0.958,2.059
			c0.036,0.373,0.124,0.711,0.178,1.048c0.053,0.337,0.302,1.331,0.302,1.863c0,0.533-0.285,1.137-0.479,1.243
			c-0.195,0.107-0.178,0.355-0.178,0.462s-0.267,0.408-0.462,0.213c-0.195-0.194-0.319-0.497-0.728-0.354
			c-0.408,0.142-0.444,0.018-0.835,0.408s-0.674,0.924-0.674,0.924s-0.355,0.23-0.568,0.247c-0.213,0.019-0.586-0.283-0.764-0.195
			c-0.178,0.089-0.408,0.462-0.675,0.676c-0.266,0.212-0.71,0.373-1.101,0.283c-0.391-0.088-0.816-0.302-0.799-0.071
			c0.018,0.231,0.035,0.64-0.035,0.889c-0.071,0.249-0.054,0.585,0.035,0.691c0.089,0.107,0.231,0.285,0.231,0.285
			s-1.013-0.178-1.581-0.302c-0.568-0.125-1.171-0.142-1.456,0.053c-0.284,0.195-0.497,0.461-0.817,0.355
			c-0.32-0.106-0.372-0.019-0.444,0.159c-0.071,0.178-0.195,0.586-0.088,0.693c0.106,0.105,0.337-0.054,0.355,0.479
			c0.017,0.533-0.053,1.243,0.337,1.438c0.391,0.195,0.746,0.372,0.995,0.568c0.248,0.195,0.692,0.229,0.692,0.318
			c0,0.09,0.053,0.48-0.125,0.533c-0.177,0.054-0.196,0.213-0.053,0.319s0.373,0.249,0.337,0.462
			c-0.035,0.213-0.248,0.319-0.568,0.143c-0.319-0.179-0.941-0.427-1.047-0.285c-0.106,0.143-0.071,0.408-0.355,0.338
			c-0.284-0.071-0.373-0.124-0.39-0.302s-0.143-0.462-0.515-0.462s-0.906,0.143-1.189,0.071c-0.284-0.071-0.781-0.178-1.012-0.054
			c-0.23,0.125-0.354,0.48-0.515,0.48c-0.159,0-0.621-0.054-0.888-0.125c-0.266-0.071-0.87-0.23-1.012-0.213
			c-0.142,0.018-0.373,0.319-0.301,0.586c0.071,0.266,0.337,0.799-0.107,1.082c-0.444,0.285-0.746,0.64-0.817,0.853
			s-0.373,0.657-0.852,0.497c-0.479-0.159-0.746-0.213-0.941,0c-0.195,0.213-0.497,0.462-0.727,0.498
			c-0.231,0.035-0.426,0.142-0.426,0.142s0.018,0.178,0.23,0.178c0.213,0,0.409-0.124,0.409-0.018s-0.142,0.23-0.142,0.337
			s0.124,0.267,0.23,0.408c0.107,0.143,0.143,0.515,0.143,0.604s0.088,0.372,0.39,0.159c0.302-0.212,0.551-0.496,0.764-0.496
			c0.213,0,0.409,0.16,0.569,0.443c0.16,0.284,0.55,0.338,0.87,0.426c0.319,0.09,0.745,0.604,0.745,0.71
			c0,0.107-0.248,0.16-0.426,0.409c-0.177,0.248-0.728,0.728-0.941,1.136c-0.213,0.409-0.301,0.728-0.391,1.367
			c-0.089,0.639-0.249,1.58-0.249,2.29s-0.052,1.509-0.052,1.918c0,0.408-0.036,0.87,0.248,0.888
			c0.285,0.018,0.285-0.213,0.444-0.213c0.16,0,0.32,0.39,0.124,0.532c-0.195,0.143-0.443,0.159-0.461,0.23
			c-0.018,0.071-0.106,0.338-0.177,0.338s-0.32,0.035-0.337,0.106c-0.017,0.071-0.142,0.16-0.266,0.142
			c-0.124-0.018-0.178,0.019-0.178,0.124c0,0.106,0.071,0.143,0.427,0.213c0.354,0.071,0.674,0.179,0.922,0.179
			C42.676,99.145,42.978,99.056,43.227,99.072z"/>
	</g>
</g>
<g id="Layer_1">
</g>
</svg>
