<?xml version="1.0" encoding="iso-8859-1"?>
<!-- Generator: Adobe Illustrator 16.0.3, SVG Export Plug-In . SVG Version: 6.00 Build 0)  -->
<!DOCTYPE svg PUBLIC "-//W3C//DTD SVG 1.1//EN" "http://www.w3.org/Graphics/SVG/1.1/DTD/svg11.dtd">
<svg version="1.1" xmlns="http://www.w3.org/2000/svg" xmlns:xlink="http://www.w3.org/1999/xlink" x="0px" y="0px" width="100px"
	 height="100px" viewBox="0 0 100 100" style="enable-background:new 0 0 100 100;" xml:space="preserve">
<g id="ZA">
	<g>
		<g>
			<path style="fill:#010101;" d="M100,40.326c-0.036,1.536-0.814,2.484-1.199,3.669c-0.421,1.29-0.385,2.722-0.801,4.07
				c-0.153,0.495-0.561,0.859-0.732,1.301c-0.182,0.461-0.077,0.837-0.335,1.169c-0.778,0.668-1.557,1.332-2.335,2
				c-0.466,0.156-0.937,0.312-1.402,0.469c-0.9,0.889-1.801,1.777-2.701,2.666c-0.552,0.693-1.303,1.469-1.633,2.338
				c-0.014,0.221-0.022,0.443-0.036,0.666c-0.376,0.4-0.756,0.799-1.131,1.199c-0.235,0.469-0.471,0.935-0.701,1.4
				c-0.869,1.504-1.973,2.904-3.004,4.271c-0.593,0.787-1.43,1.762-2.267,2.303c-0.245,0.1-0.489,0.199-0.733,0.299
				c-0.488,0.334-0.905,0.885-1.402,1.234c-0.235,0.123-0.466,0.244-0.701,0.367c-1.158,1.047-2.005,2.494-3.235,3.469
				c-1.023,0.809-1.986,1.627-3,2.437c-0.426,0.336-1.009,0.379-1.471,0.701c-0.189,0.254-0.375,0.51-0.565,0.766
				c-0.646,0.482-1.361,0.768-2.036,1.232c-1.117,0.777-2.312,1.416-3.501,2.17c-0.263,0.166-0.553,0.418-0.869,0.533
				c-0.565,0.207-1.059,0.266-1.633,0.5c-0.489,0.234-0.978,0.467-1.466,0.703c-0.864,0.199-1.67-0.24-2.339-0.369
				c-1.104-0.211-3.258,0.486-3,1.369c0.122,0.131,0.244,0.268,0.366,0.398c-0.045,0.076-0.09,0.158-0.131,0.234
				c-0.479,0.051-1.036,0.086-1.602-0.035c-0.67-0.137-1.583-0.666-2.502-0.299c-0.488,0.193-0.624,1.086-1.067,1.365
				c-0.598-0.189-1.371-0.027-1.969-0.23c-0.234-0.135-0.466-0.266-0.701-0.402c-0.968-0.271-1.963-0.244-3.035-0.434
				c-0.833-0.145-1.679-0.43-2.57-0.164c-0.339,0.1-0.325,0.426-0.597,0.566c-0.217,0.041-2.113-0.037-2.438-0.1
				c-0.502-0.1-1.679-0.639-2.267-0.502c-0.29,0.068-0.493,0.303-0.833,0.365c-0.877,0.164-1.52-0.258-1.936,0.467
				c0.05,0.123,0.059,0.158,0.031,0.303c-0.018,0.031-0.041,0.068-0.063,0.1c-0.371,0.045-0.851,0.031-1.067,0.236
				c-0.33,0.307-0.082,0.719-0.733,0.863c-0.787,0.176-1.217-0.248-1.936-0.131c-0.521,0.082-0.761,0.584-1.435,0.434
				c-0.651-0.145-1.38-0.523-2.235-0.334c-0.167,0.135-0.217,0.389-0.334,0.564c-0.639-0.027-1.186-0.199-1.833-0.031
				c-0.765,0.195-1.361,0.896-1.968,1.299c-0.289,0.113-0.579,0.227-0.868,0.334c-0.136,0.178-0.268,0.357-0.398,0.535
				c-0.521,0-0.624-0.25-1.005-0.336c-0.43,0.014-0.864,0.023-1.298,0.037c-0.177-0.145-0.357-0.289-0.534-0.436
				c-0.42-0.307-0.855-0.43-1.366-0.564c0.05-0.258,0.186-0.309,0.231-0.602c-0.195-0.258-0.276-0.395-0.566-0.566
				c-0.769,0.264-0.896-0.379-1.47-0.434c-0.375,0.062-0.755,0.131-1.131,0.199c-0.068-0.055-0.136-0.113-0.199-0.168
				c0.014-0.52,0.158-0.842,0.131-1.334c-0.502-0.498-2.023-0.463-2.403,0.135c0.063,0.299,0.448,0.801,0.068,1.068
				c-0.054,0-0.113,0-0.167,0c-0.453-0.619-0.502-1.199-0.602-1.936c0.353-0.322,0.249-0.594,0.869-0.703
				c0.032-0.098,0.068-0.197,0.099-0.297c-0.212-0.281-0.163-0.535-0.298-0.936c-0.131-0.383-0.565-0.514-0.733-0.836
				c-0.09-0.166-0.036-0.393-0.136-0.531c-0.244-0.189-0.489-0.377-0.733-0.568c-0.308-0.379-0.38-0.906-0.701-1.268
				c-0.163-0.184-0.417-0.096-0.565-0.334c0-0.033,0-0.064,0-0.1c0.131-0.055,0.267-0.109,0.398-0.166
				c-0.009-0.213-0.05-0.215-0.131-0.332c-0.036-0.012-0.068-0.023-0.1-0.035c-0.167,0.07-0.321,0.197-0.502,0.133
				c-0.045-0.021-0.09-0.045-0.131-0.066c-0.108-0.43-0.226-2.025,0.498-1.867c0.222,0.135,0.444,0.268,0.67,0.4
				c1.276-0.115,1.665-1.831,1.602-3.104c-0.032-0.527-0.317-1.322-0.435-1.834c-0.149-0.629-0.136-1.076-0.434-1.533
				c-0.81-1.229-1.891-2.23-2.701-3.438c-1.031-1.529-1.9-3.227-2.836-4.802c-0.122-0.366-0.245-0.735-0.367-1.102
				c-0.285-0.715-0.706-1.511-0.937-2.235c-0.294-0.934-0.402-1.736-0.765-2.566c-0.199-0.324-0.402-0.646-0.602-0.969
				c-0.09-0.299-0.176-0.6-0.267-0.9c-0.267-0.396-1.104-1.102-1.299-1.469c-0.059-0.232-0.113-0.465-0.167-0.698
				C0.479,51.23,0.073,51.223,0,50.769c0.29-0.38,1.176-0.675,1.633-0.735c0.417-0.308,0.308-0.767,0.199-1.199
				c0.452-0.339,0.611-0.828,0.937-1.303c0.33-0.065,0.665-0.134,1-0.199c0.86,0.438,0.403,0.579,0.801,1.201
				c0.231,0,0.466,0,0.702,0c0.181,0.081,0.597,0.701,0.498,1c-0.131,0.134-0.267,0.267-0.398,0.4
				c0.077,0.375,0.403,0.478,0.498,0.767c0.077,0.224-0.009,0.507,0.068,0.667c0.032,0.012,0.068,0.023,0.099,0.035
				c0.167-0.068,0.584-0.143,0.77-0.068c0.199,0.106,0.235,0.314,0.434,0.434c1.334-0.47,2.081,0.517,3.031,0.801
				c0.344,0.103,0.547-0.083,0.801-0.133c0.335,0.034,0.669,0.068,1.004,0.1c0.512-0.122,1.023-0.244,1.534-0.367
				c1.891-0.293,1.783,1.317,3.434,0.4c0.032-0.298-0.113-0.459-0.031-0.801c0.312-0.215,0.905-0.109,1.235-0.365
				c0.349-0.274,0.321-0.939,0.765-1.137c0.212-0.009,0.425-0.02,0.633-0.031c0.48-0.134,1.561-0.344,1.869-0.767
				c0-5.282,0-10.564,0-15.847c0-1.423,0-2.846,0-4.269c0-0.543-0.108-1.432,0.1-1.801c0.014,0,0.022,0,0.036,0
				c0.041,0,0.086,0,0.131,0c0.471,0.615,1.426,0.778,1.937,1.366c0.538,0.625,0.72,1.466,1.199,2.17
				c0.189,0.176,0.38,0.354,0.565,0.533c0.186,0.464,0.072,0.907,0.267,1.366c0.24,0.562,0.729,0.993,0.9,1.67
				c0.321,1.249-0.294,1.918-0.832,2.633c-0.132,0.18-0.417,0.276-0.498,0.503c-0.127,0.349,0.081,0.595,0.131,0.832
				c0.122,0.579-0.212,1.149,0.268,1.502c0.511,0.354,0.854-0.461,1.502-0.332c0.353,0.067,0.692,0.287,1.136,0.366
				c0.466,0.084,1.122-0.16,1.497-0.235c0.892-0.172,2.076,0.725,2.538-0.232c0.104-0.299,0.005-0.469,0.163-0.699
				c1.212-0.106,1.719-0.314,2.203-1.102c0.077-0.201,0.153-0.4,0.235-0.603c0.009-0.009,0.022-0.021,0.031-0.031
				c0.204-0.24,0.521-0.192,0.801-0.369c0.199-0.21,0.403-0.421,0.602-0.631c0.01-0.014,0.023-0.022,0.032-0.034
				c0.213,0,0.421,0,0.633,0c0.358-0.468,0.711-0.934,1.069-1.402c0.04-0.098,0.186-1.269,0.167-1.301
				c0.122-0.145,0.244-0.289,0.366-0.432c0.032-0.29,0.068-0.579,0.1-0.869c0.159-0.543,0.787-1.222,1.204-1.533
				c0.552,0.047,0.669-0.118,1.067-0.233c0.466-0.138,0.892,0.194,1.167,0.233c0.145,0.021,0.254-0.129,0.43-0.068
				c0.312,0.235,0.625,0.469,0.937,0.701c0.299,0.146,0.603,0.29,0.9,0.435c0.29,0.278,0.579,0.555,0.869,0.832
				c0.471,0.29,1.23-0.133,1.701,0.034c0.375,0.136,0.615,0.674,1.031,0.801c0.244-0.022,0.488-0.045,0.732-0.067
				c0.656,0.169,1.362,0.679,2.371,0.434c0.376-0.09,0.629-0.4,1.067-0.466c0.271-0.043,0.385,0.122,0.565,0.168
				c1.072,0.258,2.027-0.283,2.534-0.668c0.66-0.497,0.547-1.475,0.904-2.303c0.357-0.844,1.294-1.961,0.864-3.035
				c0.059-0.065,0.113-0.134,0.168-0.199c0.533-0.019,3.085-0.584,3.401-0.801c0.403-0.273,0.557-0.995,1.036-1.335
				c0.258-0.183,1.525-0.816,1.602-1.033c0-0.222,0-0.446,0-0.668c0.132-0.378,0.263-0.755,0.398-1.133
				c0.141-0.509,0.05-1.199,0.335-1.567c0.104-0.139,0.335-0.06,0.466-0.168c0.045-0.11,0.091-0.222,0.131-0.335
				c0.182-0.244,1.385-1.122,1.67-1.198c0.321-0.089,0.773,0.031,1.067-0.168c0.172-0.117,0.276-0.581,0.335-0.801
				c0.289-0.106,0.823-0.138,1.067-0.301c0.1-0.59,0.747-0.461,1-0.866c0.022-0.145,0.045-0.29,0.068-0.435
				c0.167-0.122,0.33-0.244,0.497-0.366c0.055-0.156,0.113-0.312,0.168-0.466c0.189-0.145,0.38-0.29,0.565-0.435
				c0.375-0.507,0.669-0.997,1.334-1.201c0.357,0.012,0.715,0.022,1.068,0.034c0.71-0.181,1.384-0.532,2.005-0.767
				c0.122-0.012,0.244-0.023,0.366-0.034c0.443-0.247,0.227-1.19,0.765-1.401c0.19,0,0.38,0,0.57,0
				c0.9-0.224,2.344-0.133,3.135-0.502c1.218,0.068,1.892,0.625,2.733,0.969c0.235,0.011,0.466,0.022,0.701,0.033
				c0.189,0.111,0.38,0.223,0.565,0.333c0.353,0.014,0.705-0.146,0.968-0.198c0.326,0.011,0.647,0.022,0.969,0.031
				c1.181-0.168,1.552-0.168,2.638,0.102c0.574,0.143,0.863-0.093,1.298,0.268c0.344,0.282,0.402,0.937,0.565,1.399
				c0.39,1.145,0.778,2.29,1.167,3.437c-0.009,0.557-0.018,1.11-0.031,1.667c0.258,0.323,0.512,0.645,0.77,0.969
				c0.234,0.477,0.222,1.031,0.43,1.468c0.153,0.316,0.552,0.361,0.737,0.633c0.203,0.306,0.09,0.826,0.199,1.233
				c0.153,0.581,0.543,0.964,0.665,1.701c-0.032,0.567-0.063,1.136-0.1,1.701c0.077,1.002,0.158,2.002,0.235,3.002
				c-0.046,0.368-0.091,0.734-0.136,1.102c-0.077,0.179-0.154,0.354-0.231,0.533c0.068,0.29,0.132,0.579,0.199,0.866
				c0.1,0.711-0.606,0.978-0.235,1.903c-0.126,0.271-0.289,0.406-0.696,0.4c-0.538-0.268-2.375-1.72-2.937-1.602
				c-0.348,0.072-0.461,0.325-0.669,0.533c-0.254,0.211-0.512,0.423-0.765,0.634c-0.082,0.222-0.158,0.445-0.235,0.667
				c-0.276,0.478-0.557,0.957-0.833,1.435c-0.275,0.384-0.773,0.667-0.937,1.167c-0.136,0.428-0.23,1.471-0.062,1.969
				c0.054,0.172,0.773,0.346,0.999,0.701c0.168,0.26-0.014,0.629,0.168,0.866c0.945,1.246,3.384,2.065,5.836,1.602
				c0.452-0.765-0.276-2.952,0.832-3.036c0.146,0.1,0.29,0.202,0.435,0.301C95.738,40.075,99.656,40.08,100,40.326z M78.252,56.17
				c0.199-0.332,0.837-0.33,0.837-0.9c-0.004-0.554-0.38-0.617-0.569-0.932c-0.032-0.156-0.068-0.312-0.1-0.469
				c-0.136-0.21-0.381-0.102-0.603-0.232c-0.389-0.232-0.678-0.688-1.099-0.934c0-0.012,0-0.023,0-0.035
				c-0.168-0.033-0.335-0.064-0.503-0.1c-0.122-0.244-0.244-0.488-0.366-0.732c-0.203-0.052-0.357-0.012-0.565-0.033
				c-0.29-0.451-0.666-0.677-0.969-1.137c-0.086,0-0.177,0-0.268,0c-0.022,0.023-0.045,0.046-0.062,0.068
				c-0.371,0.045-0.738,0.088-1.104,0.134c-0.285,0.112-0.371,0.459-0.701,0.534c-0.289,0.011-0.574,0.021-0.864,0.033
				c-0.435,0.174-0.552,0.771-0.937,0.967c-0.199,0.104-0.339-0.084-0.533-0.032c-0.132,0.1-0.268,0.198-0.398,0.298
				c-0.271,0.082-0.516-0.04-0.701,0.103c-0.299,0.226-0.376,0.653-0.565,0.999c-0.154,0.277-0.498,0.393-0.67,0.635
				c-0.425,0.609-0.814,1.422-1.397,1.867c-0.462,0.347-1.394,0.344-1.706,0.833c0,0.057,0,0.11,0,0.167
				c0.136,0.145,0.267,0.29,0.402,0.435c0.512,0.765,0.725,1.604,1.304,2.301c0.099,0.126,0.298,0.089,0.397,0.235
				c0.055,0.227-0.072,0.518,0,0.832c0.312,0.204,0.611,0.321,0.933,0.568c0.461,0.351,0.777,1.067,1.334,1.301
				c0.304,0,0.602,0,0.9,0c0.326,0.088,0.67,0.475,1.203,0.232c0.123-0.222,0.245-0.443,0.367-0.667
				c0.009-0.167,0.022-0.333,0.031-0.5c0.181-0.134,0.357-0.267,0.534-0.4c-0.041-0.366-0.28-0.454-0.1-0.767
				c0.633-0.129,0.565-0.539,0.937-0.668c0.606-0.21,1.063-0.006,1.633-0.1c0.901-0.15,2.594-0.771,2.969-1.4
				c-0.1-0.537-0.208-1.189,0.335-1.502c0.208-0.119,0.435-0.137,0.565-0.334C78.288,56.637,78.135,56.371,78.252,56.17z"/>
		</g>
	</g>
</g>
<g id="Layer_1">
</g>
</svg>
