<?xml version="1.0" encoding="iso-8859-1"?>
<!-- Generator: Adobe Illustrator 16.0.3, SVG Export Plug-In . SVG Version: 6.00 Build 0)  -->
<!DOCTYPE svg PUBLIC "-//W3C//DTD SVG 1.1//EN" "http://www.w3.org/Graphics/SVG/1.1/DTD/svg11.dtd">
<svg version="1.1" xmlns="http://www.w3.org/2000/svg" xmlns:xlink="http://www.w3.org/1999/xlink" x="0px" y="0px" width="100px"
	 height="100px" viewBox="0 0 100 100" style="enable-background:new 0 0 100 100;" xml:space="preserve">
<g id="ZW">
	<path d="M58.574,6.503c0.777-0.004,1.154,0.242,1.767,0.377c0.468,0.102,1.032-0.061,1.39-0.146c0.165-0.008,0.33-0.02,0.491-0.027
		c0.109-0.023,0.369-0.065,0.521-0.029c0.165,0.037,0.33,0.077,0.491,0.116c0.204,0.086,0.263,0.247,0.554,0.261
		c0.094-0.155,0.239-0.259,0.49-0.261c0.091,0.086,0.204,0.139,0.291,0.231c0.184-0.041,0.467-0.139,0.722-0.086
		c0.134,0.028,0.377,0.047,0.55,0c0.2-0.057,0.255-0.212,0.49-0.231c0.181,0.292,0.118,0.92,0.118,1.388c0,0.744,0,1.486,0,2.23
		c0,0.375-0.035,0.83,0.027,1.158c0.02,0,0.039,0,0.059,0c0.106,0.065,0.389,0.028,0.55,0.028c0.456,0,0.907,0,1.362,0
		c0.742,0,1.484,0,2.226,0c0.46,0,0.95-0.026,1.335,0.059c0.365,0.081,0.711-0.01,1.04,0.116c0.114,0.043,0.134,0.167,0.2,0.259
		c0.06,0.077,0.165,0.11,0.231,0.175c0.613-0.006,1.021-0.55,1.566-0.752c0.083-0.031,0.275-0.114,0.404-0.088
		c0.232,0.047,0.519,0.167,0.75,0.232c0.68,0.19,1.253,0.231,1.739,0.579c0.298,0.214,0.42,0.542,0.636,0.84
		c0.173,0.237,0.585,0.459,0.868,0.579c1.149,0.483,2.85,0.343,3.851,0.956c0.255,0.155,0.511,0.34,0.754,0.521
		c0.153,0.163,0.306,0.328,0.459,0.493c0.224,0.143,0.432,0.168,0.581,0.375c0.286,0.398,0.346,1.033,0.867,1.188
		c1.197,0.028,2.396,0.057,3.589,0.086c0.216,0.047,0.482,0.002,0.726,0.059c0.546,0.124,1.115,0.149,1.621,0.318
		c0.707,0.235,1.265,0.624,1.908,0.897c0.604,0.255,1.397,0.385,1.739,0.897c0.181,0.273,0.02,0.71,0.086,0.868
		c0.055,0.147,0.106,0.1,0.231,0.175c0.052,0.031,0.11,0.12,0.173,0.143c0.334,0.135,0.785,0.075,1.127,0
		c0.157,0.01,0.31,0.02,0.463,0.029c0.354-0.004,0.793-0.08,1.045,0.088c0.294,0.198,0.353,0.809,0.2,1.215
		c-0.177,0.48-0.507,1.079-0.896,1.36c-0.082,0.059-0.173,0.061-0.263,0.116c-0.134,0.083-0.231,0.214-0.346,0.318
		c0,0.047,0,0.096,0,0.145c0.663,0.699,1.523,1.833,1.821,2.864c0.074,0.251,0.031,0.604,0.031,0.899
		c-0.09,0.055-0.133,0.088-0.145,0.231c0.22,0.155,0.329,0.504,0.49,0.723c0.103,0.137,0.278,0.174,0.318,0.376
		c0.059,0.165-0.229,0.469-0.318,0.609c-0.318,0.504-0.719,0.954-0.636,1.764c0.235,0.149,0.577,0.285,0.726,0.521
		c0.311,0.506-0.039,1.299-0.145,1.766c-0.075,0.326,0.129,0.613,0,0.927c-0.138,0.33-0.538,0.357-0.64,0.636
		c-0.188,0.25,0.102,1.05,0,1.476c-0.06,0.253-0.177,0.481-0.232,0.724c-0.043,0.216,0.099,0.513,0.146,0.666
		c0.177,0.532,0.338,1.022,0.495,1.535c0.051,0.172,0.16,0.757,0.113,0.954c-0.016,0.077-0.094,0.185-0.059,0.318
		c0.094,0.35,0.667,0.811,0.64,1.129c-0.031,0.369-0.255,0.414-0.35,0.638c0,0.096,0,0.192,0,0.289
		c-0.004,0.314-0.133,0.512-0.345,0.608c-0.196,0.088-0.393,0.175-0.581,0.232c-0.342,0.104-0.68-0.059-0.75,0.318
		c-0.122,0.188,0.055,0.632,0.113,0.781c0.185,0.489,0.856,1.28,0.577,1.969c-0.424,1.054-1.845,0.4-2.72,0.956
		c-0.354,0.224-0.032,0.583-0.146,1.07c-0.091,0.395-0.181,0.771-0.142,1.274c0.039,0.025,0.083,0.052,0.114,0.087
		c1.676-0.35,2.229,0.684,1.88,2.171c-0.255,1.104-0.49,1.936-1.158,2.603c0,0.256,0.012,0.499,0.032,0.695
		c0.329,0.22,0.84,0.562,0.953,0.985c0.142,0.53-0.451,1.79,0.087,1.998c0.306,0.271,0.832-0.267,1.071-0.177
		c0.354,0.066,0.26,0.307,0.377,0.608c0.106,0.275,0.326,0.647,0.55,0.812c0.142,0.103,0.393,0.118,0.463,0.287
		c0.039,0.082-0.109,0.683-0.146,0.84c-0.008,0.173-0.02,0.35-0.027,0.522c-0.148,0.659-0.173,1.318-0.581,1.707
		c-0.141,0.134-0.816,0.299-0.867,0.404c0,0.118,0,0.231,0,0.35c-0.114,0.126-0.105,0.311-0.29,0.377
		c-0.071,0.039-0.318,0.008-0.433,0.027c-0.066,0.106-0.09,0.177-0.086,0.377c0.066,0.086,0.105,0.235,0.114,0.377
		c-0.448,0.432-0.036,1.362-0.433,1.907c-0.129,0.177-0.396,0.236-0.521,0.404c-0.252,0.334-0.412,0.719-0.636,1.072
		c-0.264,0.416-0.613,0.777-0.899,1.158c-0.066,0.086-0.118,0.224-0.204,0.29c-0.235,0.188-0.495-0.055-0.836,0.027
		c-0.456,0.11-0.896,0.283-1.131,0.608c-0.365,0.507-0.286,0.97-0.114,1.562c0.153,0.546,0.279,1.982,0.114,2.606
		c-0.153,0.589-0.408,1.076-0.781,1.445c-0.29,0.294-0.73,0.482-0.84,0.958c-0.062,0.286,0.165,0.564,0.263,0.722
		c0.161,0.271,0.235,0.624,0.432,0.868c0.232,0.282,0.593,0.381,0.495,0.926c-0.031,0.012-0.059,0.02-0.091,0.031
		c-0.181,0.114-0.518-0.031-0.69,0c-0.271,0.456-0.688,0.727-1.104,1.041c-0.204,0.152-0.475,0.514-0.636,0.722
		c-0.31,0.299-0.616,0.601-0.927,0.899c-0.333,0.443-0.832,0.758-1.157,1.186c-0.236,0.313-0.577,0.533-0.809,0.84
		c-0.633,0.832-1.512,1.452-2.144,2.285c-0.224,0.298-0.55,0.506-0.781,0.812c-0.255,0.337-0.636,0.577-0.896,0.926
		c-0.569,0.558-1.138,1.119-1.707,1.677c-0.357,0.471-0.833,0.946-1.304,1.303c-0.098,0.106-0.192,0.212-0.29,0.318
		c-0.271,0.271-0.562,0.55-0.868,0.781c-0.396,0.302-0.683,0.898-1.217,1.044c-0.231,0.062-0.502-0.039-0.636-0.086
		c-0.475-0.181-0.836-0.416-1.271-0.64c-0.157-0.079-0.393-0.232-0.668-0.173c-0.228,0.051-0.436,0.125-0.663,0.173
		c-0.268,0.055-0.491-0.118-0.668-0.173c-0.4-0.122-0.793-0.188-1.157-0.291c-0.396-0.047-0.789-0.094-1.186-0.146
		c-0.444-0.094-1.001,0.063-1.304,0.146c-0.173,0.012-0.35,0.02-0.522,0.031c-0.156,0.04-0.377,0.106-0.549,0.146
		c-0.585,0.134-1.308,0-1.908,0c-0.177-0.012-0.35-0.02-0.522-0.031c-0.185,0.078-0.368,0.157-0.549,0.231
		c-0.287,0.095-0.597,0.11-0.899,0.173c-0.522,0.114-1.146-0.126-1.417-0.318c-0.161-0.109-0.208-0.298-0.463-0.317
		c-0.408,0.282-1.39-0.146-1.649-0.26c-0.137-0.059-0.29-0.172-0.436-0.231c-0.134-0.055-0.29-0.039-0.404-0.117
		c-0.098-0.106-0.192-0.212-0.29-0.318c-0.114-0.082-0.279-0.177-0.404-0.231c-0.468-0.204-0.985-0.235-1.504-0.404
		c-0.255-0.083-0.585-0.181-0.812-0.318c-0.079-0.047-0.165-0.145-0.259-0.173c-0.142-0.043-0.385-0.008-0.495-0.031
		c-0.346-0.074-1.483,0.008-1.735,0.091c-0.22,0.07-0.436,0.224-0.694,0.286c-0.396,0.031-0.789,0.059-1.186,0.087
		c-0.208,0.051-0.809,0.36-0.927,0.29c-0.562-0.192-0.981-1.236-1.535-1.562c-0.463-0.274-1.075,0.153-1.621-0.027
		c-0.797-0.267-1.633-1.343-1.244-2.521c0.1-0.298,0.432-0.585,0.463-0.84c-0.517-0.278-1.143-0.404-1.794-0.577
		c-0.386-0.102-0.74-0.082-1.101-0.204c-0.83-0.274-1.556-0.687-2.314-1.067c-0.208-0.106-0.791-0.393-1.158-0.291
		c-0.3,0.083-0.589,0.318-0.897,0.346c-0.129-0.114-0.314-0.098-0.493-0.173c-0.316-0.134-0.649-0.385-0.983-0.49
		c-0.416-0.138-0.913-0.075-1.36-0.177c-0.308,0-0.619,0-0.927,0c-0.226-0.047-0.577,0.031-0.84-0.027
		c-0.459-0.103-0.964-0.161-1.331-0.377c-0.206-0.122-0.555-0.393-0.665-0.608c-0.092-0.181-0.018-0.389-0.086-0.604
		c-0.008-0.023-0.081-0.095-0.088-0.118c0.01-0.114,0.02-0.231,0.029-0.346c-0.084-0.317-0.302-0.533-0.434-0.781
		c-0.135-0.255-0.173-0.518-0.318-0.753c-0.346-0.558-0.856-1.386-1.36-1.767c-0.42-0.318-1.188-0.719-1.36-1.245
		c-0.19-0.577,0.279-1.028,0.116-1.621c-0.031-0.105-0.145-0.22-0.174-0.317c-0.065-0.208,0.074-0.468,0.116-0.608
		c0.137-0.456,0.212-0.88,0.318-1.358c0.079-0.35,0.008-1.189-0.086-1.422c-0.039-0.094-0.145-0.208-0.173-0.317
		c-0.023-0.087,0.022-0.181,0.028-0.231c0.01-0.231,0.02-0.464,0.029-0.695c0.055-0.231,0.133-0.498,0.086-0.75
		c-0.067-0.039-0.151-0.129-0.231-0.145c-0.159-0.035-0.318,0.105-0.521,0.059c-0.179-0.043-0.414-0.13-0.608-0.177
		c-0.269,0-0.54,0-0.811,0c-0.328-0.07-0.946-0.181-1.388-0.086c-0.534,0.113-1.126,0.181-1.651,0.059
		c-0.059-0.09-0.167-0.149-0.202-0.259c-0.092-0.295-0.035-1.343,0.03-1.653c0.01-0.051,0.049-0.188,0.027-0.286
		c-0.045-0.208-0.027-0.451-0.086-0.667c-0.145-0.538-0.348-1.029-0.606-1.449c-0.165-0.263-0.324-0.766-0.724-0.781
		c-0.136,0.103-0.459,0.067-0.609,0c-0.402-0.173-0.603-0.612-0.983-0.809c-0.226-0.117-0.497,0.039-0.752-0.027
		c-0.246-0.066-0.571-0.165-0.84-0.231c-0.441-0.114-0.861-0.103-1.244-0.263c-0.214-0.087-0.428-0.217-0.608-0.346
		c-0.049-0.035-0.081-0.122-0.146-0.146c-0.086,0-0.172,0-0.259,0c-0.212-0.004-0.396-0.051-0.522-0.146
		c-0.159-0.121-0.064-0.467-0.288-0.521c-0.155,0.105-0.803-0.071-0.956-0.114c-0.175-0.389-0.426-0.863-0.752-1.099
		c-0.514-0.373-1.248-0.472-1.794-0.812c-0.283-0.177-0.728-0.695-0.899-0.981c-0.155-0.268-0.122-0.483-0.375-0.668
		c-0.125-0.09-0.339-0.188-0.493-0.231c-0.182-0.008-0.367-0.02-0.549-0.027c-0.298-0.074-0.56-0.243-0.781-0.408
		c-0.461-0.334-0.63-1.59-0.84-2.226c-0.124-0.377-0.341-0.73-0.492-1.072c-0.234-0.538-0.456-1.048-0.752-1.535
		c-0.229-0.376-0.667-0.683-0.722-1.213c0.131-0.125,0.159-0.24,0.229-0.436c0.428-1.159-0.697-1.922-1.388-2.344
		c-0.283-0.173-0.524-0.218-0.695-0.493c-0.153-0.246-0.216-0.646-0.291-0.954c0-0.145,0-0.291,0-0.436
		c0-0.418-0.01-0.834-0.173-1.099c-0.116-0.187-0.343-0.311-0.579-0.377c-0.092-0.025-0.167,0.014-0.231-0.028
		c-0.071-0.045-0.067-0.133-0.116-0.204c-0.135-0.124-0.271-0.249-0.406-0.375c-0.079-0.108-0.094-0.234-0.173-0.348
		c-0.106-0.155-0.283-0.291-0.434-0.406c-0.253-0.19-0.502-0.497-0.695-0.752c-0.077-0.066-0.155-0.135-0.232-0.202
		c-0.646-0.857-0.871-2.01-1.446-2.922c-0.212-0.335-0.616-0.932-0.927-1.158c-0.222-0.161-0.567-0.367-0.724-0.579
		c-0.436-0.584-0.708-1.282-0.897-2.114c-0.122-0.54,0.228-1.288,0.638-1.301c0.318,0.452,0.973,0.469,1.619,0.606
		c0.185,0,0.367,0,0.549,0c0.136,0.029,0.925,0.173,1.015,0.146c0.047-0.014,0.125-0.096,0.172-0.116
		c0.173-0.037,0.348-0.076,0.521-0.116c0.32-0.027,0.638-0.057,0.956-0.086c0.222-0.059,0.387-0.187,0.638-0.202
		c0.416,0.601,1.794,0.683,2.025,1.388c0.053,0.165-0.037,0.302-0.029,0.436c0.235,0.183,0.736,0.642,1.274,0.491
		c0.137-0.038,0.229-0.192,0.347-0.232c0.153,0.01,0.308,0.02,0.463,0.03c0.241-0.053,0.461-0.134,0.636-0.259
		c0.389-0.283,0.877-1.066,1.708-0.87c0.45,0.108,0.803,0.354,1.245,0.463c0.275,0.069,0.591-0.033,0.84,0.029
		c0.614,0.155,1.169,0.387,1.708,0.606c0.235,0.098,0.593,0.11,0.809,0.232c0.127,0.072,0.175,0.287,0.261,0.406
		c0.178,0.243,0.553,0.416,0.897,0.493c0.557,0.12,0.742-0.43,0.985-0.579c0.182-0.029,0.365-0.059,0.549-0.086
		c0.259-0.079,0.497-0.222,0.722-0.32c0.677-0.292,1.771-0.171,2.461-0.463c1.288-0.543,1.853-2.326,2.575-3.472
		c0.789-1.25,2.102-2.029,3.27-2.895c0.373-0.275,0.77-0.587,1.042-0.954c0.261-0.349,0.491-0.761,0.638-1.217
		c0.069-0.214,0.012-0.469,0.086-0.695c0.088-0.267,0.552-0.726,0.724-0.983c0.642-0.964,1.266-2.051,2.198-2.72
		c0.383-0.275,0.846-0.506,1.333-0.666c0.222-0.073,0.562-0.029,0.751-0.146c0.13-0.078,0.218-0.237,0.348-0.318
		c0.41-0.257,0.928-0.353,1.331-0.608c0.334-0.21,0.558-0.565,0.897-0.781c0.877-0.557,1.876-0.97,2.896-1.39
		c1.007-0.414,2.108-0.666,3.097-1.07c0.479-0.196,0.987-0.282,1.272-0.665c0.104-0.138,0.237-0.324,0.291-0.493
		c0.02-0.155,0.037-0.308,0.057-0.463c0.027-0.084,0.122-0.185,0.146-0.261c0.112-0.349-0.018-0.824,0.059-1.158
		c-0.02-0.434-0.039-0.868-0.059-1.301c0.029-0.138,0.018-0.338,0.059-0.493c0.038-0.146,0.136-0.336,0.173-0.463
		c0.057-0.192-0.084-0.361-0.116-0.491c-0.049-0.204,0.008-0.485,0.059-0.638c0.187-0.565,0.615-1.021,0.983-1.417
		c0.242,0.01,0.483,0.02,0.725,0.028c0.746-0.19,1.036-0.817,1.562-1.215c0.359-0.272,0.773-0.542,1.159-0.781
		c0.739-0.461,1.614-0.779,2.517-1.071c0.479-0.153,0.978-0.126,1.476-0.289c0.247-0.081,0.476-0.287,0.754-0.377
		c0.314-0.1,0.644-0.004,1.013-0.086c0.169-0.037,0.459,0.018,0.663-0.029C57.608,6.834,58.186,6.827,58.574,6.503z"/>
</g>
<g id="Layer_1">
</g>
</svg>
