<?xml version="1.0" encoding="iso-8859-1"?>
<!-- Generator: Adobe Illustrator 16.0.3, SVG Export Plug-In . SVG Version: 6.00 Build 0)  -->
<!DOCTYPE svg PUBLIC "-//W3C//DTD SVG 1.1//EN" "http://www.w3.org/Graphics/SVG/1.1/DTD/svg11.dtd">
<svg version="1.1" xmlns="http://www.w3.org/2000/svg" xmlns:xlink="http://www.w3.org/1999/xlink" x="0px" y="0px" width="100px"
	 height="100px" viewBox="0 0 100 100" style="enable-background:new 0 0 100 100;" xml:space="preserve">
<g id="CA">
	<path id="CA_1_" d="M72.867,100l1.691-0.21l0.639-0.863l0.233-1.263l-1.524-0.253l-0.221-0.286l0.205-0.873l-0.068-0.253
		l0.825-0.267l1.306-1.215l0.25-2.145l0.592-1.46l0.834-0.931l1.512-0.682l0.709-0.689l0.029-0.904l-0.426-0.25l-0.439-0.459
		l-0.496-2.511l-1.152-2.073l0.243-1.504l-1.038-0.442L46.928,35.753l8.113-29.016L26.25,0l-0.647,2.032l-0.069,3.192l-2.221,5.065
		l-1.318,1.11l-0.139,0.486l-0.763,0.347l-0.625,1.804l-0.347,1.388l1.18,1.804l0.694,1.804l0.486,1.526l-0.139,2.775l-0.763,1.318
		l-0.277,2.498l-0.416,1.596l0.763,1.666l1.179,1.943l0.972,2.082l0.555,1.735l-0.139,1.387l-0.139,0.208v0.902l2.429,2.706
		l-0.208,1.041l-0.277,0.971l-0.277,0.833l0.069,3.539l0.902,1.596l0.833,1.11l1.18,0.208l0.416,1.179l-0.486,1.527l-0.902,0.693
		h-0.485l-0.348,1.666l0.208,1.248l1.387,1.874l0.694,2.29l0.625,2.012l0.555,1.319l1.457,2.498l0.625,1.11l0.208,1.248l0.694,0.416
		v1.041l-0.347,0.833l-0.763,3.054l-0.208,0.832l1.041,1.18l1.804,0.208l1.943,0.763l1.665,0.902h1.25l1.249,1.318l1.11,2.082
		l0.486,0.972l1.665,0.901l2.082,0.348l0.625,0.902l0.277,1.388l-0.625,0.277l0.139,0.416l1.388,0.348l1.179,0.069l1.357-0.725
		l1.665,1.805l0.347,0.971l1.11,1.805l0.139,1.387v4.025l0.208,0.763l4.302,0.624l8.465,1.181L72.867,100L72.867,100z M35.04,81.236
		l0.555,0.659l-0.069,0.556l-1.388-0.036l-0.243-0.52l-0.277-0.624L35.04,81.236L35.04,81.236z M35.872,81.236l0.52-0.277
		l1.527,0.902l1.318,0.52l-0.381,0.277l-1.943-0.104l-0.693-0.694L35.872,81.236L35.872,81.236z M44.753,89.736l0.764,1.006
		l0.347,0.416l0.659,0.242l0.243-0.624l-0.416-0.763l-1.145-0.867l-0.452,0.069V89.736z M44.129,93.448l0.764,1.353l0.52,0.833
		l-0.625,0.104l-0.555-0.521c0,0-0.312-0.624-0.312-0.798s0-0.938,0-0.938L44.129,93.448L44.129,93.448z"/>
</g>
<g id="Layer_1">
</g>
</svg>
