<?xml version="1.0" encoding="iso-8859-1"?>
<!-- Generator: Adobe Illustrator 16.0.3, SVG Export Plug-In . SVG Version: 6.00 Build 0)  -->
<!DOCTYPE svg PUBLIC "-//W3C//DTD SVG 1.1//EN" "http://www.w3.org/Graphics/SVG/1.1/DTD/svg11.dtd">
<svg version="1.1" xmlns="http://www.w3.org/2000/svg" xmlns:xlink="http://www.w3.org/1999/xlink" x="0px" y="0px" width="100px"
	 height="100px" viewBox="0 0 100 100" style="enable-background:new 0 0 100 100;" xml:space="preserve">
<g id="OK">
	<path id="OK_1_" d="M11.737,24.311L0.589,23.46L0,30.778l13.676,0.773l21.42,0.871l-1.561,16.316l-0.306,11.916l0.153,1.068
		l2.902,2.445l1.375,0.764l0.46-0.153l0.458-1.375l0.917,1.223h1.375V63.71l1.833,0.917l-0.305,2.597l2.749,0.152l1.68,0.765
		l2.75,0.459l1.681,1.221l1.527-1.374l2.292,0.458l1.681,2.291h0.61v1.529l1.528,0.457l1.527-1.528l1.222,0.458h1.682l0.61,1.681
		l4.211,1.39l0.916-0.46l1.223-2.749h0.764l0.766,1.375l2.748,0.459l2.444,0.916l1.986,0.611l1.222-0.611l0.459-1.681h2.902
		l1.375,0.611l1.834-1.375h0.764l0.459,1.07h2.749l1.069-1.376l1.223,0.306l1.375,1.681l2.139,1.223l2.139,0.61L100,76.54
		l-0.261-24.869l-0.916-7.332l-0.107-5.93l-0.962-4.368l-0.52-4.798l-0.046-2.55l-8.11,0.213l-31.01-0.305l-30.096-1.375
		L11.737,24.311L11.737,24.311z"/>
</g>
<g id="Layer_1">
</g>
</svg>
