<?xml version="1.0" encoding="iso-8859-1"?>
<!-- Generator: Adobe Illustrator 16.0.3, SVG Export Plug-In . SVG Version: 6.00 Build 0)  -->
<!DOCTYPE svg PUBLIC "-//W3C//DTD SVG 1.1//EN" "http://www.w3.org/Graphics/SVG/1.1/DTD/svg11.dtd">
<svg version="1.1" xmlns="http://www.w3.org/2000/svg" xmlns:xlink="http://www.w3.org/1999/xlink" x="0px" y="0px" width="100px"
	 height="100px" viewBox="0 0 100 100" style="enable-background:new 0 0 100 100;" xml:space="preserve">
<g id="RW">
	<path style="fill:#010101;" d="M78.146,6.507c0.738,0.002,1.318,0.049,1.752,0.412c-0.023,0.17-0.047,0.342-0.067,0.515
		c-0.352,0.198-0.613,0.354-0.825,0.687c-0.034,0.103-0.067,0.205-0.104,0.308c-0.093,0.163-0.217,0.268-0.237,0.517
		c0.187,0.177,0.259,0.473,0.479,0.617c0.37,0.242,0.683,0.338,0.688,0.962c-0.101,0.103-0.091,0.247-0.173,0.377
		c-0.116,0.184-0.438,0.412-0.207,0.754c0.051,0.163,0.172,0.268,0.274,0.377c0.319-0.091,0.797-0.692,1.271-0.48
		c0.187,0.063,0.489,0.301,0.55,0.48c0.012,0.333,0.023,0.666,0.035,0.997c0.138,0.526,0.114,1.311,0.31,1.821
		c0.153,0.412,0.597,0.596,0.789,0.892c0.091,0.14,0.198,0.405,0.24,0.55c0,0.091,0,0.184,0,0.275
		c0.098,0.277,0.456,0.545,0.55,0.754c0.281,0.629-0.284,1.032-0.103,1.546c0.025,0.074,0.138,0.133,0.17,0.207
		c0.212,0.45,0.365,1.006,0.757,1.27c0.18,0.121,0.479,0.249,0.685,0.31c0.149,0.042,0.245-0.051,0.312-0.07
		c0.133-0.035,0.568,0.121,0.651,0.172c0.341,0.216,0.55,0.703,0.787,1.029c0.161,0.219,0.563,0.349,0.723,0.584
		c0.109,0.158-0.089,0.387,0.103,0.479c0.355,0,0.712,0,1.066,0c0.368-0.295,0.4,0.093,0.722,0c0.098-0.028,0.126-0.112,0.272-0.135
		c0.067,0.053,0.168,0.049,0.24,0.103c0.121,0.086,0.19,0.282,0.312,0.377c0.033,0.012,0.065,0.023,0.103,0.035
		c0.07,0.083,0.079,0.214,0.17,0.275c0.138,0.091,0.324,0.07,0.447,0.17c0.217,0.179,0.316,0.515,0.547,0.687
		c0.264,0.195,0.967,0.733,1.067,1.029c0.022,0.277,0.046,0.552,0.069,0.824c0.158,0.71,0.149,1.53,0.308,2.233
		c0.114,0.51,0.014,1.064,0.242,1.441c0.971,1.609,1.884,3.268,2.883,4.876c0.271,0.433,0.513,0.892,0.79,1.339
		c0.146,0.237,0.386,0.435,0.412,0.789c-0.39,0.538-0.778,1.079-1.167,1.616c0.319,1.544,0.641,3.09,0.962,4.634
		c-0.133,0.806-0.312,1.721-0.518,2.506c-0.174,0.678-0.165,1.32-0.342,1.994c-0.104,0.403-0.131,0.829-0.24,1.269
		c-0.03,0.119-0.153,0.354-0.103,0.517c0.04,0.133,0.2,0.293,0.275,0.412c0.254,0.41,0.475,0.838,0.72,1.235
		c0.771,1.255,1.39,2.562,2.163,3.812c0.279,0.45,1.164,1.633,1.029,2.369c-0.107,0.603-0.565,0.801-0.755,1.306
		c-0.14,0.37,0.015,0.841-0.137,1.202c-0.096,0.226-0.324,0.33-0.445,0.515c-0.193,0.293-0.091,0.545-0.207,0.895
		c-0.072,0.214-0.259,0.696-0.377,0.892c-0.049,0.077-0.175,0.153-0.208,0.239c-0.012,0.252-0.022,0.504-0.032,0.755
		c-0.07,0.242-0.182,0.636-0.242,0.93c-0.037,0.186,0.098,0.461,0.138,0.617c0.062,0.256,0.076,0.451,0.137,0.651
		c0,0.114,0,0.23,0,0.345c0.026,0.079,0.112,0.23,0.138,0.343c0.012,0.365,0.023,0.733,0.035,1.099
		c0.021,0.103,0.079,0.757,0.035,0.927c-0.107,0.39-0.191,0.851-0.345,1.237c-0.087,0.219-0.329,0.444-0.445,0.651
		c-0.202,0.354-0.251,0.755-0.584,0.962c-0.101,0.061-0.543,0.145-0.652,0.173c-0.104,0-0.207,0-0.31,0
		c-0.4,0.13-0.661,0.517-1.1,0.651c-0.624,0.193-1.194-0.36-1.546-0.481c-0.301-0.103-0.513-0.061-0.787-0.17
		c-0.518-0.208-1.102-1.006-1.892-0.79c-1.159,0.317-0.991,2.054-2.333,2.403c-0.442,0.114-1.066-0.328-1.409-0.412
		c-0.342,0.012-0.687,0.023-1.029,0.035c-0.16-0.042-0.424-0.242-0.654-0.105c-0.308,0.105-0.444,0.504-0.617,0.585
		c-0.354,0-0.71,0-1.064,0c-0.279-0.2-1.02-0.473-1.374-0.585c-0.256-0.079-0.53,0.028-0.754-0.067
		c-0.597-0.254-0.669-0.719-1.1-1.031c-0.34-0.244-0.824-0.303-1.169-0.547c-0.308-0.222-0.461-0.617-0.685-0.93
		c-0.07-0.093-0.187-0.13-0.274-0.205c-0.068-0.056-0.217-0.372-0.242-0.446c-0.061-0.18-0.005-0.359-0.068-0.48
		c-0.132,0.037-0.202,0.14-0.31,0.173c-0.4,0.121-1.159-0.345-1.374-0.482c-0.182-0.119-0.535-0.431-0.892-0.342
		c-0.195,0.049-0.449,0.51-0.515,0.687c0,0.067,0,0.138,0,0.205c-0.205,0.478-0.713,0.859-1.201,1.064
		c-0.641,0.27-1.344,0.47-2.026,0.651c-0.114,0-0.229,0-0.345,0c-0.249,0.07-0.68,0.284-1.062,0.208
		c-0.305-0.061-1.087-0.196-1.306-0.345c-0.198-0.133-0.729-0.757-1.135-0.617c-0.312,0.106-0.242,0.643-0.239,1.064
		c-0.103,0.106-0.133,0.312-0.24,0.412c-0.272,0.254-0.859,0.2-1.099,0.584c-0.045,0.072,0,0.145-0.033,0.24
		c-0.103,0.281-0.312,0.779-0.481,1.029c-0.091,0.081-0.185,0.16-0.275,0.239c-0.172,0.196-0.342,0.392-0.515,0.585
		c-0.126,0.096-0.237,0.163-0.345,0.274c-0.456,0.01-0.95,0.124-1.406-0.035c-0.03-0.009-0.107-0.093-0.14-0.103
		c-0.296-0.095-0.587-0.027-0.857-0.137c-1.359-0.557-2.459-1.914-3.297-3.022c-0.392-0.518-1.058-0.806-1.51-1.27
		c-0.382-0.007-0.841,0.347-1.029,0.55c-0.55-0.01-1.053-0.559-1.271-0.895c-0.177-0.268-0.335-0.713-0.687-0.789
		c-0.049,0.093-0.067,0.146-0.067,0.31c-0.25,0.352,0.009,0.937-0.141,1.374c-0.083,0.244-0.601,0.752-0.479,1.132
		c0.096,0.305,0.358,0.646,0.447,0.961c0.01,0.287,0.023,0.573,0.032,0.859c0.077,0.28,0.166,0.799,0.242,1.1
		c0.023,0.321,0.047,0.641,0.068,0.962c0.019,0.054,0.118,0.116,0.137,0.17c0,0.38,0,0.757,0,1.134
		c-0.266,0.836-1.238,0.913-1.511,1.717c-0.021,0.333-0.045,0.663-0.067,0.996c-0.145,0.531-0.243,1.007-0.243,1.717
		c0,0.16,0,0.321,0,0.482c0.152,0.565,0.259,1.728,0.103,2.436c0.015,0.23,0.023,0.459,0.038,0.687
		c-0.057,0.25-0.033,0.78-0.141,0.997c-0.022,0.051-0.146,0.116-0.17,0.172c0,0.068,0,0.138,0,0.205
		c-0.021,0.059-0.118,0.149-0.137,0.208c0,0.137,0,0.274,0,0.412c-0.037,0.135-0.105,0.333-0.173,0.479
		c-0.205,0.449-0.647,0.792-0.927,1.169c-0.138,0.184-0.182,0.377-0.31,0.582c-0.184,0.294-0.859,1.083-1.134,1.271
		c-0.266,0.185-0.634,0.392-0.927,0.515c-0.136,0.056-0.262,0.04-0.378,0.103c-0.158,0.086-0.298,0.284-0.479,0.345
		c-1.024,0.345-1.539-0.498-2.269-0.722c-0.367-0.114-0.898,0.111-0.994,0.342c-0.119,0.2,0.059,0.454,0,0.688
		c-0.086,0.352-0.422,0.838-0.687,1.031c-0.312,0.227-0.613,0.17-1.132,0.173c-0.126,0-0.252,0-0.378,0
		c-0.093,0.027-0.209,0.142-0.312,0.17c-0.205,0-0.41,0-0.617,0c-1.554,0-1.646-1.115-2.851-1.305
		c-0.589-0.093-0.98,0.792-1.441,0.962c-0.252,0.094-0.468,0.173-0.722,0.24c-0.387,0.104-0.941-0.198-1.271-0.207
		c-0.205,0.224-0.466,0.333-0.72,0.517c-0.296,0.214-0.496,0.607-0.893,0.72c-0.764,0.217-1.483-0.494-1.923-0.755
		c-0.112-0.067-0.806-0.186-0.997-0.137c-0.047,0.012-0.07,0.091-0.172,0.067c-0.605-0.136-0.958-0.602-1.647-0.617
		c-0.389,0.414-0.887,0.247-1.441,0.377c-0.377,0.748-1.57,1.472-2.508,0.824c-0.226-0.155-0.436-0.617-0.652-0.824
		c-0.002-0.444,0.166-0.659,0.035-1.029c-0.019-0.056-0.111-0.093-0.14-0.138c-0.021-0.081-0.044-0.16-0.067-0.239
		c-0.161-0.279-0.617-0.802-0.412-1.409c0.061-0.175,0.237-0.51,0.377-0.617c0.107-0.079,0.266-0.14,0.345-0.24
		c0.07-0.095,0.089-0.195,0.172-0.274c0.005-0.142,0.021-0.363-0.035-0.447c-0.13-0.36-1.02-0.964-1.271-1.339
		c-0.105-0.161-0.324-0.782-0.208-1.134c0.075-0.215,0.193-0.303,0.14-0.617c-0.424-0.059-0.806-0.282-1.202-0.447
		c-0.41-0.17-0.838-0.352-1.236-0.479c-0.105,0-0.208,0-0.31,0c-0.054-0.019-0.117-0.119-0.172-0.138
		c-0.056-0.021-1.162-0.104-1.167-0.104c-0.072,0.014-0.287,0.072-0.412,0.034c-0.042-0.011-0.182-0.088-0.24-0.103
		c-0.172-0.011-0.342-0.022-0.515-0.034c-0.308-0.107-0.683-0.306-0.997-0.412c-0.382-0.131-0.759-0.038-1.132-0.17
		c-0.13-0.05-0.3-0.205-0.414-0.277c-0.08-0.021-0.159-0.045-0.238-0.067c-0.345-0.227-0.478-0.771-0.964-0.859
		c-0.135,0.114-0.275,0.23-0.41,0.345c-0.731,0.272-1.241-0.447-2.026-0.208c-0.275,0.084-0.796,0.185-1.032,0.345
		c-0.179,0.121-0.289,0.363-0.445,0.515c-0.014,0.299-0.023,0.597-0.035,0.893c0.021,0.103,0.084,0.397,0.035,0.549
		c-0.056,0.171-0.219,0.415-0.275,0.585c-0.167,0.505,0.175,1.155,0.275,1.441c0.23,0.68-0.198,1.399-0.415,1.786
		c-0.037,0.072,0.007,0.154-0.033,0.24c-0.103,0.226-0.743,1.02-1.029,0.894c-0.454-0.158-0.479-0.626-0.722-0.996
		c-0.168-0.254-0.473-0.403-0.722-0.585c-0.251-0.182-0.608-0.523-0.824-0.754c-0.293-0.007-0.666-0.094-0.997,0
		c-0.096,0.027-0.28,0.145-0.445,0.103c-0.762-0.189-1.279-0.592-1.819-0.995c-0.196-0.219-0.391-0.436-0.587-0.654
		c-0.324-0.221-0.88-0.188-0.927-0.685c0.088-0.107,0.046-0.188,0.104-0.345c0.059-0.165,0.254-0.305,0.31-0.479
		c0.065-0.217,0-0.661-0.035-0.824c0.012-0.219,0.021-0.436,0.035-0.652c-0.082-0.308-0.161-0.74-0.242-1.066
		c-0.07-0.284,0.028-0.925-0.103-1.132c-0.279-0.755-1.43-0.636-1.716-1.512c-0.056-0.17-0.102-0.801,0-0.962
		c0.268-0.687,1.448-0.523,1.474-1.613c-0.135-0.133-0.191-0.361-0.308-0.515c-0.265-0.354-0.652-0.605-0.79-1.1
		c0-0.274,0-0.55,0-0.824c0-0.94,0.28-1.872,0.655-2.438c0.079-0.068,0.158-0.138,0.237-0.205c0.023-0.07,0.047-0.138,0.07-0.208
		c0.038-0.051,0.489-0.389,0.55-0.412c0.154-0.058,0.554-0.197,0.722-0.17c0.457,0.07,1.379,0.501,1.921,0.308
		c0.219-0.077,0.566-0.232,0.687-0.412c0.172-0.249,0.214-0.743,0.447-0.927c0.3-0.237,0.782-0.151,0.927-0.55
		c0.116-0.198-0.061-0.563-0.103-0.72c-0.135-0.496,0.266-1.337,0.479-1.477c0.368-0.242,1.612-0.451,2.231-0.31
		c0.314,0.072,1.057,0.264,1.514,0.138c0.2-0.056,0.528-0.203,0.719-0.274c0.105-0.023,0.208-0.047,0.31-0.07
		c0.959-0.594,1.257-1.777,1.751-2.851c0.401-0.868,1.025-1.684,1.374-2.608c0.009-0.091,0.023-0.184,0.033-0.274
		c0.13-0.316,0.321-0.736,0.415-1.1c0-0.148,0-0.298,0-0.447c0.368-1.613-0.112-2.846-0.587-3.981
		c-0.033-0.149-0.067-0.299-0.103-0.447c-0.209-0.515-0.335-1.024-0.515-1.614c-0.119-0.387-0.37-0.771-0.482-1.166
		c-0.107-0.385-0.168-0.757-0.272-1.1c-0.012-0.298-0.023-0.596-0.035-0.892c-0.237-0.825-0.146-2.031,0.035-2.851
		c0-0.275,0-0.549,0-0.824c0.284-0.832,0.57-1.866,1.032-2.543c0.116-0.172,0.324-0.314,0.445-0.48
		c0.135-0.184,0.212-0.366,0.377-0.515c0.133-0.116,0.31-0.203,0.412-0.345c0.308-0.417,0.704-0.748,0.997-1.167
		c0.104-0.151,0.135-0.324,0.24-0.48c0.079-0.07,0.161-0.137,0.24-0.207c0.023-0.091,0.047-0.182,0.07-0.275
		c0.159-0.279,0.387-0.552,0.55-0.824c0.107-0.184,0.125-0.373,0.237-0.55c0.124-0.184,0.298-0.405,0.447-0.582
		c0.051-0.058,0.167-0.07,0.207-0.138c0.089-0.149,0.086-0.303,0.17-0.447c0.373-0.608,0.729-1.276,1.099-1.889
		c0.13-0.214,0.17-0.447,0.31-0.652c0.259-0.382,0.706-0.424,1.167-0.617c0.312-0.132,1.374-0.698,1.546-0.929
		c0.212-0.279,0.382-0.64,0.48-1.029c0-0.137,0-0.274,0-0.412c0.033-0.119,0.082-0.268,0.14-0.412
		c0.075-0.198,0.219-0.447,0.342-0.617c0.124-0.167,0.356-0.279,0.447-0.482c0.095-0.217-0.007-0.48,0.067-0.754
		c0.07-0.251,0.314-0.629,0.517-0.757c0.308-0.193,0.801-0.007,1.234-0.103c0.647-0.14,1.56-0.042,2.231-0.103
		c0.386-0.035,1.004,0.107,1.271-0.067c0.177-0.119,0.289-0.443,0.412-0.62c0.289-0.41,0.599-0.815,0.892-1.237
		c0.252-0.354,0.681-0.964,1.032-1.202c0.298-0.202,0.612-0.305,0.892-0.515c0.219-0.274,0.436-0.549,0.652-0.824
		c0.261-0.186,0.685-0.14,0.964-0.31c0.256-0.156,0.392-0.487,0.582-0.617c0.354-0.245,0.851-0.312,1.305-0.447
		c0.405-0.119,0.894,0.149,1.169,0.07c0.084-0.025,0.158-0.133,0.308-0.104c0.116,0.023,0.283,0.132,0.446,0.104
		c0.639-0.109,1.396-0.119,1.956-0.275c0.163-0.011,0.322-0.023,0.482-0.035c0.524-0.184,0.491-0.501,0.757-0.892
		c0.177-0.265,1.006-0.878,1.374-0.962c0.316-0.072,0.932,0.08,1.202,0.138c0.088,0.019,0.202-0.028,0.237-0.035
		c0.093,0.012,0.184,0.023,0.274,0.035c0.317-0.056,0.711-0.042,0.927,0.103c0.354,0.233,0.361,0.75,0.927,0.79
		c0-0.023,0-0.047,0-0.068c0.126-0.207-0.019-0.666,0.07-0.894c0.126-0.321,0.934-0.929,1.201-1.202
		c0.867-0.056,1.515,0.13,1.752,0.824c0.069,0.198-0.026,0.424,0.069,0.584c0.338,0.566,1.09,0.675,1.339,1.407
		c0.227,0.664-0.212,1.357-0.034,2.096c0.184,0.767,0.848,2.133,1.408,2.506c0.923,0.613,1.15-0.27,1.786-0.445
		c0.424-0.119,0.681,0.214,1.03,0.103c0.491-0.158,0.68-0.736,1.063-0.997c0.173-0.117,0.415-0.121,0.585-0.24
		c0.293-0.21,0.75-0.843,1.339-0.722c0.235,0.049,0.34,0.191,0.617,0.208c0.266-0.272,0.252-0.347,0.242-0.895
		c0.18-0.249,0.256-0.484,0.513-0.652c0.27-0.175,0.656-0.214,0.824-0.48c0.069-0.112,0.019-0.242,0.069-0.377
		c0.065-0.17,0.403-0.459,0.583-0.517c0.696-0.221,1.233,0.219,1.855,0.104c0.123-0.205,0.145-0.563,0.274-0.757
		c0.191-0.284,0.846-0.494,1.237-0.584c0.032-0.072,0.116-0.172,0.137-0.24c0.096-0.305-0.13-0.487-0.034-0.824
		c0.098-0.338,0.414-0.564,0.515-0.927c0.081-0.293-0.14-0.633,0-0.859c0.179-0.557,0.887-0.811,1.479-0.959
		c0.286-0.075,0.619,0.13,0.959,0.067c0.094-0.154,0.168-0.359,0.275-0.515c0.049-0.07,0.135-0.084,0.205-0.137
		c0.135-0.103,0.323-0.375,0.414-0.515c0.154-0.244,0.149-0.554,0.377-0.722c0.415-0.303,1.016-0.331,1.305-0.754
		c0.111-0.166,0.081-0.314,0.172-0.515c0.149-0.333,0.489-0.58,0.62-0.962c0.137-0.415,0.1-1.043,0.34-1.374
		c0.058-0.035,0.116-0.07,0.172-0.103c0.042-0.049,0.03-0.116,0.07-0.172c0.098-0.14,0.526-0.356,0.685-0.412
		c0.081,0,0.163,0,0.242,0c0.123-0.044,0.605-0.356,0.652-0.479c0.146-0.256-0.149-0.608-0.07-0.962
		c0.109-0.478,0.321-0.841,0.447-1.237c0-0.114,0-0.228,0-0.345c0.061-0.268,0.109-0.458,0.242-0.652
		c0.177-0.256,0.773-0.433,1.304-0.308c0.356,0.084,0.704,0.25,0.997,0.343c0.126,0,0.252,0,0.377,0
		c0.105,0.025,0.28,0.111,0.378,0.137c0.219-0.012,0.433-0.023,0.651-0.035c0.14-0.209,0.38-0.335,0.55-0.515
		C77.882,6.572,78.072,6.558,78.146,6.507z"/>
</g>
<g id="Layer_1">
</g>
</svg>
