<?xml version="1.0" encoding="iso-8859-1"?>
<!-- Generator: Adobe Illustrator 16.0.3, SVG Export Plug-In . SVG Version: 6.00 Build 0)  -->
<!DOCTYPE svg PUBLIC "-//W3C//DTD SVG 1.1//EN" "http://www.w3.org/Graphics/SVG/1.1/DTD/svg11.dtd">
<svg version="1.1" xmlns="http://www.w3.org/2000/svg" xmlns:xlink="http://www.w3.org/1999/xlink" x="0px" y="0px" width="100px"
	 height="100px" viewBox="0 0 100 100" style="enable-background:new 0 0 100 100;" xml:space="preserve">
<g id="VT">
	<path id="VT_1_" d="M45.562,100l0.578-9.798l-5.297-19.761l-1.185-0.591l-5.331-2.369l1.481-5.333l-1.481-3.853l-4.948-8.502
		l1.777-7.109l-1.48-9.479l-4.445-11.85l-1.476-9.019L72.166,0l0.567,10.12l3.511,5.026v7.405l-6.793,9.27l-4.74,2.094l-0.02,2.052
		l2.402,2.785l-0.571,14.84l-1.115,16.966l-0.421,10.182l1.777,2.37l-0.295,8.375l-0.888,3.098l1.859,1.331l-13.629,2.761
		L45.562,100L45.562,100z"/>
</g>
<g id="Layer_1">
</g>
</svg>
