<?xml version="1.0" encoding="iso-8859-1"?>
<!-- Generator: Adobe Illustrator 16.0.3, SVG Export Plug-In . SVG Version: 6.00 Build 0)  -->
<!DOCTYPE svg PUBLIC "-//W3C//DTD SVG 1.1//EN" "http://www.w3.org/Graphics/SVG/1.1/DTD/svg11.dtd">
<svg version="1.1" xmlns="http://www.w3.org/2000/svg" xmlns:xlink="http://www.w3.org/1999/xlink" x="0px" y="0px" width="100px"
	 height="100px" viewBox="0 0 100 100" style="enable-background:new 0 0 100 100;" xml:space="preserve">
<g id="AK">
	<path id="AK_1_" d="M72.721,22.604l-0.154,40.804l0.771,0.464l1.469,0.077l0.695-0.541h1.236l0.078,1.39l3.323,3.247l0.231,1.236
		l1.623-0.927l0.309-0.079l0.154-1.467l0.695-0.772l0.541-0.077l0.928-0.695l1.469,1.004l0.309,1.392l0.928,0.541l0.541,1.159
		l1.855,0.85l1.622,2.859l1.312,1.855l1.082,1.313l0.696,1.777l2.396,0.85l2.473,1.005l0.463,2.086L100,83.423l-0.465,1.623
		l-0.85,1.082l-0.772-0.387l-0.696-1.469l-1.312-0.695l-0.85-0.541l-0.387,0.387l0.695,1.313l0.078,1.778L94.9,86.746l-0.928-0.927
		L92.967,85.2l0.232,0.773l0.617,0.85L93.43,87.21c0,0-0.385-0.154-0.617-0.464c-0.232-0.309-1.005-1.624-1.005-1.624l-0.464-1.081
		c0,0-0.155,0.618-0.463,0.464c-0.309-0.154-0.618-0.695-0.618-0.695l0.849-0.928l-0.695-0.695v-2.396h-0.385l-0.389,1.623
		l-0.539,0.23l-0.465-1.776l-0.309-1.777l-0.387-0.233l0.154,2.706v0.541l-0.696-0.619l-1.699-2.858l-1.006-0.231l-0.308-1.777
		l-0.773-1.391l-0.772-0.541v-1.083l1.004-0.618l-0.231-0.154l-1.237,0.309l-1.622-1.159L79.52,69.59l-2.318-1.236l-1.932-1.236
		l0.617-1.546v-0.772l-0.85,0.772l-1.391,0.541l-1.777-0.541l-2.705-1.159h-2.628l-0.31,0.232l-3.091-1.855l-1.005-0.154
		l-1.313-2.782l-1.7,0.153l-1.7,0.697l0.231,2.163l0.542-1.391l0.463,0.153l-0.697,2.087l1.548-1.313l0.309,0.771l-1.856,2.088
		l-0.616-0.154l-0.232-0.928l-0.617-0.386l-0.619,0.54l-1.313-0.85l-1.468,1.005l-0.851,1.005l-1.623,1.005l-2.241-0.077
		l-0.232-1.005l1.778-0.309v-0.619l-1.082-0.309l0.463-1.159l1.082-1.854v-0.851l0.077-0.387l2.087-1.082l0.463,0.619h1.313
		l-0.616-1.236l-1.777-0.154l-2.396,1.313l-1.159,1.622l-0.85,1.236l-0.541,1.083l-2.009,0.695l-1.469,1.237l-0.155,0.772
		l1.082,0.464l0.387,1.005l-1.314,1.545l-3.091,2.009l-3.709,2.009l-1.005,0.542l-2.55,0.541l-2.55,1.082l0.85,0.618l-0.696,0.695
		l-0.232,0.542l-1.313-0.465L27.666,76.7l-0.386,1.083h-0.464l0.155-1.16l-1.7,0.618l-1.391,0.465l-1.623-0.618l-1.391,0.926h-1.545
		l-1.005,0.619l-0.772,0.387l-1.005-0.154l-1.236-0.542l-1.082,0.31l-0.464,0.464l-0.773-0.541v-0.927l1.468-0.619l3.014,0.308
		l2.087-0.771l1.005-1.005l1.391-0.309l0.85-0.387l1.314,0.078l0.772,0.617l0.463-0.155l1.082-1.312l1.468-0.464l1.624-0.31
		l0.618-0.153l0.309,0.23h0.387l0.618-1.777l1.933-0.694l0.927-1.778l1.083-2.163l0.771-0.696l0.156-1.236l-0.773,0.618l-1.623,0.31
		L33.617,64.8l-0.618-0.154l-0.463,0.463L32.458,66.5l-0.695-0.078l-0.696-2.781l-0.618,0.618l-0.541-0.231L29.753,63.1
		l-1.932,0.077l-1.005,0.541l-1.236-0.154l0.696-0.696l0.231-1.235l-0.309-0.928l0.695-0.463l0.618-0.079l-0.309-0.849v-2.089
		l-0.464-0.464l-0.386,0.694h-2.937l-0.695-0.617l-0.309-1.854l-1.005-1.7v-0.465l1.005-0.387l0.078-1.004l0.541-0.541l-0.386-0.231
		l-0.619,0.231l-0.54-1.313l0.464-2.397l2.164-1.544l1.236-0.773l0.927-1.777l1.314-0.619l1.236,0.541l0.155,1.16l1.159-0.156
		l1.545-1.159l0.772,0.309l0.464,0.31h0.773l1.082-0.619l0.385-2.085c0,0,0.156-1.392,0.464-1.624
		c0.309-0.231,0.464-0.464,0.464-0.464l-0.541-0.927l-1.236,0.387l-1.546,0.387l-0.927-0.231l-1.7-0.851l-2.396-0.077l-1.7-1.777
		l0.232-1.854l0.309-1.159l-1.005-0.851l-0.927-1.777l0.231-0.387l3.246-0.231h1.003l0.464,0.464h0.309l-0.077-0.773l1.854-0.309
		l1.236,0.154l0.695,0.542l-0.695,1.004l-0.232,0.696l1.314,0.772l2.396,0.85l0.85-0.464l-1.083-2.087l-0.463-1.545l0.463-0.387
		l-1.623-0.927l-0.232-0.541l0.232-0.772l-0.387-1.855l-1.392-2.241l-1.159-2.009l1.391-0.927h1.545l0.85,0.309l2.009-0.077
		l1.777-1.7l0.541-1.469l1.777-1.159l0.772,0.464l1.313-0.309l1.778-1.005l0.541-0.077l0.464,0.387l2.164-0.077l1.314-1.468h0.542
		l1.7,1.159l0.927,1.004l-0.23,0.541l0.309,0.541l0.772-0.772l1.854,0.154l0.154,1.778l0.928,0.695l3.4,0.309l3.014,2.009
		l0.695-0.463l2.472,1.236l1.006-0.31l0.929-0.386l2.318,0.927L72.721,22.604L72.721,22.604z M17.697,36.437l1.005,2.55
		l-0.077,0.463l-1.392-0.154l-0.85-1.932l-0.85-0.696h-1.159l-0.078-1.236l0.85-1.159l0.541,1.159l0.696,0.695L17.697,36.437z
		 M16.46,52.434l1.777,0.385l1.778,0.466l0.386,0.463l-0.772,1.778l-1.469-0.078l-1.623-1.7L16.46,52.434z M6.568,45.71l0.541,1.236
		l0.541,0.772l-0.541,0.388l-1.005-1.469V45.71H6.568L6.568,45.71z M0,80.641l1.623-1.082l1.623-0.464l1.236,0.154l0.232,0.772
		l0.927,0.232l0.927-0.928l-0.154-0.772l1.314-0.309l1.391,1.236l-0.541,0.85l-2.086,0.541l-1.314-0.231L3.401,80.1l-2.087,0.695
		l-0.773,0.154L0,80.641L0,80.641z M23.416,78.477l0.773,0.928l1.004-0.773l-0.695-0.618L23.416,78.477z M24.807,79.945l0.541-1.082
		l1.005,0.153l-0.387,0.928L24.807,79.945L24.807,79.945z M36.089,79.017l0.695,0.851l0.464-0.541l-0.386-0.927L36.089,79.017z
		 M40.262,73.067l0.541,2.781l1.391,0.387l2.396-1.391l2.086-1.237l-0.772-1.159l0.232-1.159l-1.005,0.618l-1.391-0.386l0.772-0.541
		l0.927,0.387l1.855-0.851l0.232-0.695l-1.159-0.388l0.386-0.926l-1.314,0.926l-2.24,1.701l-2.318,1.392L40.262,73.067
		L40.262,73.067z M60.51,63.562l1.159-0.695l-0.464-0.851l-0.85,0.463L60.51,63.562z"/>
</g>
<g id="Layer_1">
</g>
</svg>
