<?xml version="1.0" encoding="iso-8859-1"?>
<!-- Generator: Adobe Illustrator 16.0.3, SVG Export Plug-In . SVG Version: 6.00 Build 0)  -->
<!DOCTYPE svg PUBLIC "-//W3C//DTD SVG 1.1//EN" "http://www.w3.org/Graphics/SVG/1.1/DTD/svg11.dtd">
<svg version="1.1" xmlns="http://www.w3.org/2000/svg" xmlns:xlink="http://www.w3.org/1999/xlink" x="0px" y="0px" width="100px"
	 height="100px" viewBox="0 0 100 100" style="enable-background:new 0 0 100 100;" xml:space="preserve">
<g id="AL">
	<path id="AL_1_" d="M23.837,97.299l-1.383-13.29l-2.55-17.397l0.15-13.049l0.749-28.8L20.654,9.314l0.153-5.956L62.081,0
		l-0.137,2.025l0.149,1.95l0.599,3.15l3.151,7.35l2.25,9.149l1.35,5.699l1.5,4.5l1.35,6.45l1.949,5.851l2.402,3.15l0.449,3.149
		l1.799,0.751l0.15,1.951l-1.648,4.499l-0.451,3l-0.15,1.8l1.5,4.049l0.301,4.949l-0.752,2.252l0.6,0.75l1.352,0.748l0.303,2.684
		l-5.193-0.329l-6.301,0.601l-23.698,2.699l-9.659,1.305L35.038,86.8l1.65,1.65l2.399,1.8l0.539,7.363L34.485,100l-2.551-0.3
		l2.551-1.799V97l-2.851-5.548l-2.1-0.601l-1.351,4.05l-1.199,2.55l-0.6-0.149h-2.549V97.299z"/>
</g>
<g id="Layer_1">
</g>
</svg>
