<?xml version="1.0" encoding="iso-8859-1"?>
<!-- Generator: Adobe Illustrator 16.0.3, SVG Export Plug-In . SVG Version: 6.00 Build 0)  -->
<!DOCTYPE svg PUBLIC "-//W3C//DTD SVG 1.1//EN" "http://www.w3.org/Graphics/SVG/1.1/DTD/svg11.dtd">
<svg version="1.1" xmlns="http://www.w3.org/2000/svg" xmlns:xlink="http://www.w3.org/1999/xlink" x="0px" y="0px" width="100px"
	 height="100px" viewBox="0 0 100 100" style="enable-background:new 0 0 100 100;" xml:space="preserve">
<g id="AR">
	<path id="AR_1_" d="M100,18.662l-4.682,0.843l-6.017-0.746l0.497-1.885l3.504-3.021l1.109-4.301l-2.15-3.497L0,9.015l1.885,8.069
		v9.683l1.612,12.912l0.27,44.517l2.688,2.285l3.497-1.613l3.228,1.345l0.801,7.733l65.44-1.342l1.349-2.46l-0.338-4.177
		l-2.147-3.496l1.883-1.746l-1.883-2.957l0.806-2.952l1.61-6.594l2.963-2.427l-0.807-2.688l4.303-6.32l3.229-1.611l-0.133-1.757
		l-0.407-2.147l3.36-6.588l2.827-1.478l0.451-4.034l2.083-1.461l-3.698-0.569l-1.579-4.718l3.299-2.796l0.648-2.375l1.505-4.76
		L100,18.662L100,18.662z"/>
</g>
<g id="Layer_1">
</g>
</svg>
