<?xml version="1.0" encoding="iso-8859-1"?>
<!-- Generator: Adobe Illustrator 16.0.3, SVG Export Plug-In . SVG Version: 6.00 Build 0)  -->
<!DOCTYPE svg PUBLIC "-//W3C//DTD SVG 1.1//EN" "http://www.w3.org/Graphics/SVG/1.1/DTD/svg11.dtd">
<svg version="1.1" xmlns="http://www.w3.org/2000/svg" xmlns:xlink="http://www.w3.org/1999/xlink" x="0px" y="0px" width="100px"
	 height="100px" viewBox="0 0 100 100" style="enable-background:new 0 0 100 100;" xml:space="preserve">
<g id="AZ">
	<path id="AZ_1_" d="M7.403,64.46l-2.004,1.648l-0.247,1.109l0.37,0.74l14.434,8.143l9.252,5.798l11.226,6.537l12.829,7.649
		l9.376,1.851L81.68,100L94.848,9.094L30.949,0l-2.36,12.524l-1.226,0.012l-1.308,2.006l-1.919-0.087l-0.959-2.094L21.084,12.1
		l-0.698-0.873h-0.699l-0.698,0.436l-1.483,0.785l-0.086,5.321l-0.175,1.309l-0.437,9.595l-1.134,1.657l-0.437,2.53l2.094,3.751
		l0.96,4.449l0.61,0.785l0.785,0.437L19.6,44.027l-1.222,1.047l-2.616,1.309l-1.483,1.483l-1.134,2.791l-0.436,3.752l-2.182,2.093
		l-1.57,0.524l0.104,0.634l-0.349,1.309l0.349,0.609l2.792,0.438l-0.437,2.094l-1.133,1.658L7.403,64.46L7.403,64.46z"/>
</g>
<g id="Layer_1">
</g>
</svg>
