<?xml version="1.0" encoding="iso-8859-1"?>
<!-- Generator: Adobe Illustrator 16.0.3, SVG Export Plug-In . SVG Version: 6.00 Build 0)  -->
<!DOCTYPE svg PUBLIC "-//W3C//DTD SVG 1.1//EN" "http://www.w3.org/Graphics/SVG/1.1/DTD/svg11.dtd">
<svg version="1.1" xmlns="http://www.w3.org/2000/svg" xmlns:xlink="http://www.w3.org/1999/xlink" x="0px" y="0px" width="100px"
	 height="100px" viewBox="0 0 100 100" style="enable-background:new 0 0 100 100;" xml:space="preserve">
<g id="FL">
	<path id="FL_1_" d="M73.215,8.431l1.421,4.592l2.34,6.112l3.347,5.882l2.333,3.956l3.044,3.447l2.535,2.333l1.014,1.825
		l-0.71,0.813l-0.508,0.81l1.825,4.666l1.827,1.827l1.623,3.347l2.229,3.651l2.84,5.172l0.812,4.768l0.304,7.504l0.404,1.115
		l-0.202,2.132l-1.521,0.812l0.202,1.216l-0.404,1.217l0.202,1.52l0.304,1.218l-1.724,2.028l-1.927,0.913l-2.435,0.101l-0.914,1.014
		l-1.52,0.609l-0.812-0.305l-0.709-0.609l-0.203-1.824l-0.506-2.131l-2.131-3.244l-2.231-1.42l-2.435-0.203l-0.508,0.812
		l-1.927-2.739l-0.405-2.23L76.466,66.6l-1.115-0.711l-1.014,1.318l-1.113-0.202l-1.319-3.144l-1.825-2.436l-1.825-3.346
		l-1.623-1.928l-2.233-2.332l1.319-1.521l2.027-3.449l-0.1-1.014l-2.839-0.609l-1.016,0.406l0.204,0.406l1.623,0.608l-0.914,2.84
		l-0.507,0.305l-1.116-2.537l-0.812-3.042l-0.202-1.724l0.912-2.941v-5.983l-1.927-2.333l-0.812-1.927l-3.245-0.812l-1.218-0.405
		l-1.014-1.623l-2.131-1.014l-0.709-2.13L50.2,24.711l-1.521-2.333l-2.637-0.912l-1.826-0.913h-1.623l-2.536,0.508l-0.102,1.216
		l0.508,0.609l-0.304,0.71l-1.927-0.102L35.9,25.726l-2.231,1.217h-2.435l-2.027,0.812l-0.204-1.725l-1.014-1.217l-1.825-0.709
		L25.15,23.19l-5.071-2.435l-4.767-1.115l-2.738,0.406l-3.753,0.304l-3.752,1.318l-2.182,0.385l-0.15-5.051l-1.623-1.217L0,14.67
		l0.202-1.926l6.39-0.812l16.024-1.825l4.26-0.405l3.41,0.176l1.624,2.434l0.913,0.913l5.08,0.322l6.789-0.404l13.496-0.812
		l3.415-0.423l3.205,0.128l0.269,1.825l1.401,0.508l0.146-2.905l-0.958-2.617l0.822-0.903l3.484,0.285L73.215,8.431L73.215,8.431z
		 M81.084,91.498l1.523-0.406l0.812-0.152l0.911-1.471l1.471-1.014l0.812,0.305l1.064,0.201l0.255,0.66l-2.182,0.762l-2.637,0.913
		l-1.471,0.761L81.084,91.498L81.084,91.498z M89.553,88.354l0.761,0.657l1.726-1.318l3.346-2.637l2.333-2.434l1.572-4.158
		l0.609-1.064L100,75.27l-0.457,0.305l-0.607,1.776l-0.913,2.888l-2.027,3.297l-2.739,2.638l-2.131,1.216L89.553,88.354
		L89.553,88.354z"/>
</g>
<g id="Layer_1">
</g>
</svg>
