<?xml version="1.0" encoding="iso-8859-1"?>
<!-- Generator: Adobe Illustrator 16.0.3, SVG Export Plug-In . SVG Version: 6.00 Build 0)  -->
<!DOCTYPE svg PUBLIC "-//W3C//DTD SVG 1.1//EN" "http://www.w3.org/Graphics/SVG/1.1/DTD/svg11.dtd">
<svg version="1.1" xmlns="http://www.w3.org/2000/svg" xmlns:xlink="http://www.w3.org/1999/xlink" x="0px" y="0px" width="100px"
	 height="100px" viewBox="0 0 100 100" style="enable-background:new 0 0 100 100;" xml:space="preserve">
<g id="IA">
	<path id="IA_1_" d="M91.912,36.321l0.253,2.676l2.137,0.555l0.915,1.175l0.48,1.783l3.644,3.226L100,48.032l-0.649,3.291
		l-1.519,3.104l-0.768,2.633l-2.088,1.539l-1.647,0.549l-5.358,1.787l-1.337,3.697l0.7,1.318l1.769,1.615l-0.271,3.877l-1.695,1.479
		l-0.739,1.578l0.122,2.667l-1.811,0.438l-1.563,1.062l-0.266,1.301l0.266,2.031l-1.489,1.07l-2.373-3.008l-1.213-2.354
		l-63.137,2.414l-0.882,0.16l-1.972-4.338l-0.22-6.367l-1.538-3.953l-0.658-5.049l-2.197-3.514l-0.878-4.611l-2.636-7.246
		l-1.097-5.161l-1.317-2.086L0,35.321l1.877-4.652l1.317-5.489l-2.636-1.977L0.12,20.567l0.878-2.415h1.647l79.387-1.221
		l0.801,4.019l2.164,1.499l0.247,1.367l-1.949,3.256l0.182,3.079l2.416,3.647l2.427,1.243l2.958,0.483L91.912,36.321z"/>
</g>
<g id="Layer_1">
</g>
</svg>
