<?xml version="1.0" encoding="iso-8859-1"?>
<!-- Generator: Adobe Illustrator 16.0.3, SVG Export Plug-In . SVG Version: 6.00 Build 0)  -->
<!DOCTYPE svg PUBLIC "-//W3C//DTD SVG 1.1//EN" "http://www.w3.org/Graphics/SVG/1.1/DTD/svg11.dtd">
<svg version="1.1" xmlns="http://www.w3.org/2000/svg" xmlns:xlink="http://www.w3.org/1999/xlink" x="0px" y="0px" width="100px"
	 height="100px" viewBox="0 0 100 100" style="enable-background:new 0 0 100 100;" xml:space="preserve">
<g id="KY">
	<path id="KY_2_" d="M100,47.583l-1.78,1.865l-2.777,3.101l-3.824,4.242l-0.943,1.332l-0.049,1.632l-3.4,1.681l-4.393,2.635
		l-5.613,1.396l-40.269,3.804l-12.235,1.381l-3.587,0.398l-3.004-0.022l-0.176,3.276l-6.351,0.112l-5.396,0.502L0,74.871
		l0.938-1.024l1.941-1.197l0.177-2.484l0.71-1.42l-1.246-1.971l0.621-1.481l1.758-1.38l1.632-0.502l2.135,1.004l2.76,1.004
		l0.879-0.252l0.126-1.758l-1.004-1.882l0.251-1.757l1.505-1.13l2.009-0.501l1.255-0.501l-0.628-1.382l-0.502-1.506l1.17-0.773
		c0.002-0.028,0.974-2.733,0.961-2.84l2.371-1.147l4.13-0.754l3.489-0.376l1.081,1.263l1.187,0.677l1.234-2.413l2.475-0.996
		l1.712,1.152l0.319,0.775l0.91-0.205l-0.124-2.292l2.431-1.358l1.666-0.834l1.188,1.29l2.576-0.034l0.456-1.22l-0.286-1.757
		l2.02-3.104l3.709-2.669l0.547-3.755l2.271-0.354l2.943-1.277l1.897-1.326l-0.154-1.216l-0.887-1.13l0.438-2.324l3.251-0.092
		l1.785-0.579l2.599,1.109l1.595,3.389l3.985,0.009l1.593,1.714l1.254-0.113l2.02-0.993l4.066,0.445l1.999,0.169l1.31-1.596
		l2.032-1.107l1.461-0.549l0.503,2.202l1.586,0.822l2.052,1.616l0.091,4.404l0.628,1.221l2.011,1.209l0.599,1.78l3.229,2.668
		l1.402,2.813L100,47.583L100,47.583z"/>
</g>
<g id="Layer_1">
</g>
</svg>
