<?xml version="1.0" encoding="iso-8859-1"?>
<!-- Generator: Adobe Illustrator 16.0.3, SVG Export Plug-In . SVG Version: 6.00 Build 0)  -->
<!DOCTYPE svg PUBLIC "-//W3C//DTD SVG 1.1//EN" "http://www.w3.org/Graphics/SVG/1.1/DTD/svg11.dtd">
<svg version="1.1" xmlns="http://www.w3.org/2000/svg" xmlns:xlink="http://www.w3.org/1999/xlink" x="0px" y="0px" width="100px"
	 height="100px" viewBox="0 0 100 100" style="enable-background:new 0 0 100 100;" xml:space="preserve">
<g id="ME">
	<path id="ME_1_" d="M77.406,40.6l1.933,2.095l2.256,3.704v1.934L79.5,53.006l-1.933,0.644l-3.383,3.061l-4.835,5.478
		c0,0-0.643,0-1.288,0c-0.644,0-0.967-2.094-0.967-2.094l-1.772,0.162l-0.967,1.448l-2.416,1.45l-0.967,1.45l1.61,1.45l-0.481,0.643
		l-0.484,2.74l-1.934-0.161v-1.61l-0.321-1.289l-1.448,0.32l-1.773-3.221l-2.094,1.289l1.289,1.449l0.322,1.129l-0.807,1.288
		l0.322,3.062l0.161,1.61l-1.61,2.577l-2.9,0.484l-0.322,2.899l-5.317,3.061l-1.289,0.482l-1.611-1.45l-3.06,3.545l0.966,3.222
		l-1.45,1.288l-0.161,4.35L37.461,100l-2.454-1.152l-0.483-3.062l-3.866-1.127l-0.322-2.739l-7.25-23.359l-4.682-14.59l1.415-0.117
		l1.509,0.408v-2.578l1.304-4.48l2.578-4.671l1.45-4.029l-1.934-2.417v-5.959l0.807-0.967l0.805-2.738l-0.16-1.45l-0.162-4.833
		l1.772-4.833l2.899-8.861l2.096-4.188h1.289l1.289,0.162v1.128L36.651,5.8l2.739,0.644l0.806-0.805V4.672l4.027-2.899L45.995,0
		l1.45,0.162l5.959,2.416l1.934,0.967l9.021,29.804h5.961l0.807,1.933l0.16,4.833l2.899,2.256h0.806l0.161-0.483l-0.481-1.128
		L77.406,40.6L77.406,40.6z M56.547,70.644l1.53-1.53l1.37,1.047l0.562,2.416l-1.691,0.887L56.547,70.644z M63.232,64.764
		l1.771,1.853c0,0,1.289,0.079,1.289-0.241c0-0.322,0.24-2.015,0.24-2.015l0.889-0.805l-0.808-1.772l-2.013,0.727L63.232,64.764z"/>
</g>
<g id="Layer_1">
</g>
</svg>
