<?xml version="1.0" encoding="iso-8859-1"?>
<!-- Generator: Adobe Illustrator 16.0.3, SVG Export Plug-In . SVG Version: 6.00 Build 0)  -->
<!DOCTYPE svg PUBLIC "-//W3C//DTD SVG 1.1//EN" "http://www.w3.org/Graphics/SVG/1.1/DTD/svg11.dtd">
<svg version="1.1" xmlns="http://www.w3.org/2000/svg" xmlns:xlink="http://www.w3.org/1999/xlink" x="0px" y="0px" width="100px"
	 height="100px" viewBox="0 0 100 100" style="enable-background:new 0 0 100 100;" xml:space="preserve">
<g id="MI">
	<g id="MI_1_">
		<path id="MI-" d="M97.26,74.493l-2.352-5.992l-1.645-6.58l-1.762-2.35l-1.881-1.292l-1.176,0.822l-2.82,1.292l-1.408,3.643
			l-1.998,2.701l-0.822,0.471l-1.057-0.471c0,0-1.881-1.057-1.764-1.527c0.117-0.47,0.352-3.642,0.352-3.642l2.469-0.939
			l0.588-2.469l0.471-1.879l1.762-1.176l-0.234-7.284l-1.176-1.645l-0.941-0.588l-0.586-1.528l0.586-0.587l1.176,0.235l0.119-1.175
			l-1.764-1.645l-0.939-1.879h-1.881l-3.289-1.058l-3.996-2.467h-1.996l-0.471,0.469l-0.705-0.352l-2.23-1.646l-2.115,1.293
			l-2.115,1.645l0.234,2.585l0.705,0.235l1.527,0.353l0.354,0.587l-1.881,0.588l-1.881,0.235L59.66,42.77l-0.234,1.527l0.234,1.175
			l0.236,3.996l-2.588,1.527l-0.469-0.118v-3.054l0.941-1.762l0.469-1.764l-0.588-0.587l-1.408,0.587l-0.707,3.056l-1.996,0.822
			l-1.293,1.41l-0.117,0.706l0.47,0.588l-0.47,1.879l-1.646,0.353v0.822l0.589,1.763l-0.823,4.465l-1.175,2.938l0.469,3.407
			l0.353,0.822l-0.588,1.762l-0.234,0.589l-0.235,1.997l2.586,4.347l2.115,4.7l1.057,3.524l-0.588,3.407L53.314,92l-1.762,3.761
			l-0.235,1.997L48.948,100l3.204-0.118l15.566-1.646l5.291-0.717l0.07,1.212l4.98-0.883l7.484-1.092l2.801-0.335l0.1-0.427
			l0.117-1.057l1.529-2.702l1.453-1.264l-0.16-3.673l1.16-1.159l0.793-0.25l0.162-2.586l1.115-2.203l0.764,0.44l0.117,0.47
			l0.588,0.118l1.41-0.705L97.26,74.493L97.26,74.493z"/>
		<path id="SP-" d="M12.773,5.317l1.33-1.495l1.578-0.582l3.905-2.826L21.248,0l0.332,0.332L17.841,4.07l-2.408,1.413l-1.496,0.666
			L12.773,5.317L12.773,5.317z M75.406,28.668l0.469,1.822l2.35,0.118l0.939-0.881c0,0-0.057-1.058-0.293-1.175
			c-0.234-0.117-1.174-1.351-1.174-1.351l-1.588,0.176l-1.174,0.117l-0.234,0.823L75.406,28.668L75.406,28.668z M2.506,26.506
			l0.521-0.422l1.998-0.588l2.585-1.645v-0.705l0.47-0.469l4.347-0.705l1.763-1.41l3.172-1.528l0.118-0.94l1.409-2.115l1.292-0.587
			l0.94-1.292l1.645-1.646l3.173-1.763l3.407-0.353l0.821,0.823l-0.234,0.706l-2.702,0.704l-1.057,2.232l-1.646,0.588l-0.351,1.764
			l-1.764,2.35l-0.234,1.879l0.587,0.353l0.706-0.823l2.584-2.115l0.941,0.94h1.645l2.35,0.705l1.058,0.823l1.058,2.232l1.997,1.997
			l2.819-0.117l1.058-0.705l1.175,0.94l1.176,0.353l0.939-0.587h0.822l1.175-0.705l2.938-2.585l2.467-0.822l4.818-0.234l3.289-1.41
			l1.879-0.939l1.059,0.117v4.113l0.352,0.234l2.115,0.587l1.41-0.353l4.465-1.175l0.822-0.822l1.059,0.353v5.052l2.35,2.232
			l0.939,0.47l0.939,0.705l-0.939,0.236l-0.588-0.236l-2.703-0.353l-1.527,0.471l-1.646-0.118l-2.35,1.058h-1.291l-4.229-0.939
			l-3.762,0.118l-1.41,1.879l-5.051,0.47l-1.763,0.588l-0.823,2.232l-0.939,0.822l-0.354-0.118l-1.056-1.174l-3.29,1.763h-0.47
			l-0.823-1.175l-0.588,0.117l-1.409,3.173l-0.705,2.938l-2.312,5.088l-0.855-0.752l-0.997-0.75l-1.41-7.477l-2.575-0.996
			l-1.492-1.662L19,33.404l-2.074-0.748l-5.982-1.58l-5.734-0.831L2.506,26.506L2.506,26.506z"/>
	</g>
</g>
<g id="Layer_1">
</g>
</svg>
