<?xml version="1.0" encoding="iso-8859-1"?>
<!-- Generator: Adobe Illustrator 16.0.3, SVG Export Plug-In . SVG Version: 6.00 Build 0)  -->
<!DOCTYPE svg PUBLIC "-//W3C//DTD SVG 1.1//EN" "http://www.w3.org/Graphics/SVG/1.1/DTD/svg11.dtd">
<svg version="1.1" xmlns="http://www.w3.org/2000/svg" xmlns:xlink="http://www.w3.org/1999/xlink" x="0px" y="0px" width="100px"
	 height="100px" viewBox="0 0 100 100" style="enable-background:new 0 0 100 100;" xml:space="preserve">
<g id="MS">
	<path id="MS_1_" d="M78.916,94.14l-0.238,1.181h-4.861l-1.367-0.76l-1.975-0.304l-6.381,1.824l-1.671-0.762l-2.431,3.95L58.955,100
		L57.9,97.662l-1.075-3.652l-3.223-3.006l1.075-5.211l-0.645-0.859l-1.719,0.216l-7.44,0.819l-23.065,0.354l-0.725-2.094
		l0.821-7.871l2.929-5.33l4.911-8.594l-0.418-2.286l1.162-0.616l0.41-1.805l-2.177-1.953l-0.108-2.012l-1.725-3.873l-0.103-5.603
		l1.247-2.331l-0.211-3.21l-1.662-2.896l1.433-1.392l-1.475-2.349l0.43-1.552l1.483-6.132l2.335-1.915l-0.604-2.224l3.437-4.982
		l2.661-1.274l-0.209-1.574l-0.27-1.58l2.702-5.232l2.204-1.157l0.143-0.839L75.521,0l0.174,5.903l0.152,15.646l-0.76,29.166
		l-0.15,13.217l2.582,17.62L78.916,94.14L78.916,94.14z"/>
</g>
<g id="Layer_1">
</g>
</svg>
