<?xml version="1.0" encoding="iso-8859-1"?>
<!-- Generator: Adobe Illustrator 16.0.3, SVG Export Plug-In . SVG Version: 6.00 Build 0)  -->
<!DOCTYPE svg PUBLIC "-//W3C//DTD SVG 1.1//EN" "http://www.w3.org/Graphics/SVG/1.1/DTD/svg11.dtd">
<svg version="1.1" xmlns="http://www.w3.org/2000/svg" xmlns:xlink="http://www.w3.org/1999/xlink" x="0px" y="0px" width="100px"
	 height="100px" viewBox="0 0 100 100" style="enable-background:new 0 0 100 100;" xml:space="preserve">
<g id="MT">
	<path id="MT_1_" d="M100,33.001l-17.314-1.585L66.168,29.41l-16.516-2.282l-18.25-3.011L21,22.2L2.528,18.286L0,30.337l1.936,4.258
		l-0.774,2.581l1.033,2.582l1.807,0.773l2.607,6.08l1.522,1.793l0.258,0.645l1.935,0.646l0.258,1.161l-4,9.938v1.42l1.419,1.807
		h0.516l2.71-1.678l0.388-0.646l0.903,0.388l-0.129,2.968l1.548,7.098l1.677,1.419l0.517,0.388l1.033,1.29l-0.259,1.936l0.387,1.936
		l0.646,0.516l1.291-1.29h1.549l1.807,0.904l1.419-0.517h2.322l2.065,0.902l1.549-0.258l0.258-1.678l1.678-0.387l0.774,0.774
		l0.258,1.807l0.804,0.471l1.066-6.229l60.253,7.58L100,33.001L100,33.001z"/>
</g>
<g id="Layer_1">
</g>
</svg>
