<?xml version="1.0" encoding="iso-8859-1"?>
<!-- Generator: Adobe Illustrator 16.0.3, SVG Export Plug-In . SVG Version: 6.00 Build 0)  -->
<!DOCTYPE svg PUBLIC "-//W3C//DTD SVG 1.1//EN" "http://www.w3.org/Graphics/SVG/1.1/DTD/svg11.dtd">
<svg version="1.1" xmlns="http://www.w3.org/2000/svg" xmlns:xlink="http://www.w3.org/1999/xlink" x="0px" y="0px" width="100px"
	 height="100px" viewBox="0 0 100 100" style="enable-background:new 0 0 100 100;" xml:space="preserve">
<g id="NC">
	<path id="NC_1_" d="M91.724,28.184l1.344,3.17l2.293,4.168l1.562,1.563l0.417,1.459l-1.563,0.104l0.521,0.417l-0.208,2.709
		l-1.668,0.834l-0.416,1.354l-0.833,1.876l-2.398,1.043l-1.562-0.209l-0.938-0.104l-1.042-0.833l0.209,0.833v0.625h1.25l0.521,0.834
		l-1.25,4.064h2.709l0.416,1.043l1.459-1.459l0.834-0.312l-1.25,2.293l-1.979,3.127h-0.834l-0.729-0.314l-1.771,0.418l-3.335,1.562
		l-4.168,3.439l-2.189,3.021l-1.25,4.168l-0.312,1.564l-3.022,0.312l-3.515,0.861l-6.412-5.289l-8.129-4.896l-1.875-0.521
		l-8.128,0.939l-2.757,0.482l-1.042-2.084l-1.915-1.365l-10.629,0.312l-4.688,0.521l-5.837,2.918l-3.96,1.666L0,66.168l0.322-2.613
		l1.146-0.938l1.771-0.416l0.418-2.396l2.709-1.773l2.5-0.938l2.711-2.293l2.812-1.355l0.416-1.979l2.502-2.503l0.416-0.104
		c0,0,0,0.73,0.521,0.73s1.25,0.207,1.25,0.207l1.459-2.292l1.355-0.417l1.459,0.208l1.042-2.292l1.876-1.667l0.312-1.355
		l0.121-2.352l2.756-0.015l4.641-0.551l10.157-1.452l9.757-1.345l13.95-3.041l12.882-2.746l7.205-1.552L91.724,28.184L91.724,28.184
		z M94.476,49.59l1.668-1.614l2.032-1.668l0.989-0.416l0.104-1.303l-0.417-3.96l-0.938-1.512l-0.416-1.198l0.469-0.156l1.771,3.543
		L100,44.172l-0.104,2.188l-2.188,0.99l-1.824,1.562l-0.729,0.782L94.476,49.59L94.476,49.59z"/>
</g>
<g id="Layer_1">
</g>
</svg>
