<?xml version="1.0" encoding="iso-8859-1"?>
<!-- Generator: Adobe Illustrator 16.0.3, SVG Export Plug-In . SVG Version: 6.00 Build 0)  -->
<!DOCTYPE svg PUBLIC "-//W3C//DTD SVG 1.1//EN" "http://www.w3.org/Graphics/SVG/1.1/DTD/svg11.dtd">
<svg version="1.1" xmlns="http://www.w3.org/2000/svg" xmlns:xlink="http://www.w3.org/1999/xlink" x="0px" y="0px" width="100px"
	 height="100px" viewBox="0 0 100 100" style="enable-background:new 0 0 100 100;" xml:space="preserve">
<g id="NH">
	<path id="NH_1_" d="M70.043,84.217L71.5,82.41l1.828-5.518l-4.265-1.533l-0.811-5.148l-6.508-1.9l-0.54-4.607L49.004,24.395
		L41.288,0.008L39.784,0l-1.082,2.712l-1.086-0.814L35.99,0.272l-2.44,3.252l-0.08,8.438l0.522,9.502l3.252,4.609v6.778
		l-6.234,8.491l-4.338,1.896v1.898l1.898,2.982v14.367l-1.357,15.453l-0.271,8.133l1.628,2.168l-0.272,7.589l-0.812,2.982L29.11,100
		l28.151-7.418l3.646-1.011l3.094-4.651L70.043,84.217L70.043,84.217z"/>
</g>
<g id="Layer_1">
</g>
</svg>
