<?xml version="1.0" encoding="iso-8859-1"?>
<!-- Generator: Adobe Illustrator 16.0.3, SVG Export Plug-In . SVG Version: 6.00 Build 0)  -->
<!DOCTYPE svg PUBLIC "-//W3C//DTD SVG 1.1//EN" "http://www.w3.org/Graphics/SVG/1.1/DTD/svg11.dtd">
<svg version="1.1" xmlns="http://www.w3.org/2000/svg" xmlns:xlink="http://www.w3.org/1999/xlink" x="0px" y="0px" width="100px"
	 height="100px" viewBox="0 0 100 100" style="enable-background:new 0 0 100 100;" xml:space="preserve">
<g id="PA">
	<path id="PA_1_" d="M90.247,65.573l1.315-0.271l2.343-1.26l1.219-2.496l1.625-2.276L100,56.183v-0.814l-2.438-1.626l-3.577-2.438
		l-0.975-2.6l-2.764-0.325l-0.163-1.138l-0.812-2.764l2.276-1.138l0.162-2.438l-1.301-1.3l0.163-1.625l1.949-3.09v-3.088
		l2.713-2.661l-0.926-0.68l-2.537-0.193l-2.308-1.951l-1.559-6.149l-3.524,0.102l-2.468-2.719l-18.191,4.221l-43.238,8.778
		l-8.941,1.463l-0.624-6.557l-5.391,5.096l-1.301,0.487L0,34.062l2.927,19.243l2.494,9.781l3.593,19.367l3.286-0.641l12.01-1.511
		l38.135-7.707l14.959-2.838l8.347-1.632l0.27-0.241l2.113-1.625L90.247,65.573L90.247,65.573z"/>
</g>
<g id="Layer_1">
</g>
</svg>
