<?xml version="1.0" encoding="iso-8859-1"?>
<!-- Generator: Adobe Illustrator 16.0.3, SVG Export Plug-In . SVG Version: 6.00 Build 0)  -->
<!DOCTYPE svg PUBLIC "-//W3C//DTD SVG 1.1//EN" "http://www.w3.org/Graphics/SVG/1.1/DTD/svg11.dtd">
<svg version="1.1" xmlns="http://www.w3.org/2000/svg" xmlns:xlink="http://www.w3.org/1999/xlink" x="0px" y="0px" width="100px"
	 height="100px" viewBox="0 0 100 100" style="enable-background:new 0 0 100 100;" xml:space="preserve">
<g id="QA">
	<g>
		<g>
			<path d="M73.126,61.997c-0.365-1.766-0.304-3.105-0.304-4.446c0-1.34-0.182-2.861-0.913-2.861s-1.826,1.034-1.826,1.034
				l-1.341-0.244c0,0-0.366-3.529-0.122-4.809c0.244-1.279,0.305-2.559-0.366-4.142c-0.669-1.584-2.375-3.349-1.825-4.202
				c0.547-0.854,0.913-2.131,0.913-3.473c0-1.339,0.546-2.315,1.218-2.618c0.67-0.305,1.645-0.974,0.365-2.131
				c-1.28-1.158-1.037-2.801,0-2.74c1.035,0.059,1.645,1.217,2.74,0.364s1.463-2.253,0.123-2.253s-2.377-0.671-1.522-1.462
				c0.851-0.792,2.557-0.67,2.8-1.645c0.243-0.974-0.425-1.947-0.852-2.679c-0.426-0.73-0.061-1.157-0.243-2.01
				c-0.183-0.852,0.304-2.071-0.671-3.532c-0.975-1.463-2.558-2.132-4.567-2.132c-2.011,0-3.166,0-3.896-0.974
				c-0.731-0.976-1.221-1.401-1.707-3.106c-0.486-1.706-0.547-2.862-1.399-4.568c-0.854-1.705-1.767-2.923-3.472-3.593
				c-1.705-0.669-3.411-1.34-5.056-0.669c-1.644,0.669-2.374,2.435-2.619,3.044c-0.243,0.609-1.523,2.132-2.497,2.375
				c-0.973,0.244-2.8,2.07-3.106,3.228c-0.304,1.157-0.792,2.923-1.644,2.923c-0.852,0-0.974,2.498-0.974,3.046
				c0,0.548-0.853,1.095-1.278,1.705c-0.428,0.61-0.062,2.739,0.609,3.106c0.669,0.365,1.034,2.436,0.426,3.045
				c-0.609,0.609-1.708,1.584-1.828,0.547c-0.121-1.034-1.34-1.704-2.435-0.547c-1.097,1.157-0.366,2.559-0.671,4.142
				c-0.304,1.583-0.549,1.765-0.183,2.924c0.365,1.156,0.731,1.888,0.854,2.435s1.155,0.547,1.826-0.306
				c0.671-0.851,1.522-1.522,2.011-1.461c0.486,0.061,0.669,1.279,0.669,2.132c0,0.852-0.427,1.887-1.34,1.827
				c-0.915-0.061-1.887-0.792-2.315,0.305c-0.426,1.097-0.426,1.4-0.243,2.801c0.184,1.401,0.306,2.132-0.852,1.705
				c-1.157-0.426-1.888-1.156-1.828-2.314c0.062-1.156,0.184-3.898,0-4.628c-0.183-0.731-1.826-1.705-2.131-1.401
				c-0.304,0.304,0,1.219,0.182,1.524c0.183,0.304,0.121,0.974-0.852,0.73c-0.975-0.245-1.646,0-1.34,0.73
				c0.305,0.73,0.974,1.279,1.34,1.827c0.365,0.548,0.06,1.705-0.183,1.766c-0.243,0.062-0.123,1.278,0.425,1.766
				c0.549,0.486,1.401,2.01,1.035,2.498c-0.365,0.487-1.644-0.428-2.131-1.402c-0.486-0.974-0.915-2.131-2.618-1.156
				c-1.706,0.974-0.854,4.446-0.731,6.333c0.123,1.889,1.097,4.447,0.488,6.274c-0.609,1.826-1.462,3.168-1.646,4.201
				c-0.182,1.035-0.486,3.228,0.671,5.055c1.157,1.827,1.278,2.253,1.767,3.716c0.485,1.461,1.097,3.104,0.426,4.506
				c-0.671,1.403-0.915,2.618,0.548,3.716c1.46,1.096,2.861,2.861,2.861,4.201c0,1.341-0.303,2.742-0.061,4.202
				c0.244,1.463-0.123,3.533-0.123,3.533s6.03,2.985,8.772,4.019c2.74,1.037,11.081,4.325,11.081,4.325s1.646-1.035,2.438-0.669
				c0.792,0.364,1.157,0.854,2.437,0.548c1.278-0.305,2.497-0.185,2.558,0.79s-0.549,1.278-0.914,1.707
				C57.719,98.904,57.778,100,58.572,100c0.791,0,0.975-0.671,1.523-1.766c0.547-1.098,1.826-2.193,2.678-2.681
				c0.854-0.486,1.889-1.765,2.009-3.287c0.123-1.524,0.794-4.264,2.314-6.64c1.523-2.375,2.986-3.896,3.594-5.604
				c0.609-1.704,0.547-3.287,1.584-4.201c1.034-0.914,3.288-2.19,1.766-4.324c-1.521-2.132-1.34-3.348-1.035-5.663
				C73.309,63.52,73.126,61.997,73.126,61.997z"/>
			<ellipse cx="51.385" cy="0.868" rx="0.729" ry="0.868"/>
			<ellipse cx="55.725" cy="1.782" rx="0.777" ry="0.868"/>
		</g>
	</g>
</g>
<g id="Layer_1">
</g>
</svg>
