<?xml version="1.0" encoding="iso-8859-1"?>
<!-- Generator: Adobe Illustrator 16.0.3, SVG Export Plug-In . SVG Version: 6.00 Build 0)  -->
<!DOCTYPE svg PUBLIC "-//W3C//DTD SVG 1.1//EN" "http://www.w3.org/Graphics/SVG/1.1/DTD/svg11.dtd">
<svg version="1.1" xmlns="http://www.w3.org/2000/svg" xmlns:xlink="http://www.w3.org/1999/xlink" x="0px" y="0px" width="100px"
	 height="100px" viewBox="0 0 100 100" style="enable-background:new 0 0 100 100;" xml:space="preserve">
<g id="SC">
	<path id="SC_1_" d="M60.309,86.81l-2.016,1.1l-2.932-1.468l-0.734-2.383l-1.466-4.034l-2.566-2.383l-2.933-0.733l-1.833-5.499
		l-3.117-6.781l-4.766-2.2l-2.383-2.2l-1.467-2.932l-2.384-2.199l-2.566-1.467l-2.566-3.3l-3.482-2.566l-5.134-2.017l-0.548-1.65
		l-2.749-3.3l-0.551-1.649l-3.851-5.865l-3.85,0.184l-4.582-2.751l-1.467-1.466L0,27.233l0.918-2.199l2.566-1.101l-0.579-2.596
		l6.54-2.648l10.336-5.204l8.815-0.916l18.272-0.479l2.992,2.129l1.904,3.808l4.878-0.692l14.299-1.649l3.299,0.917l14.298,8.616
		L100,34.429l-6.146,6.188l-2.934,6.966l-0.549,7.149l-1.834,0.915l-1.282,3.116l-2.751,0.734l-2.384,4.031l-3.116,3.117
		l-2.565,3.851l-1.834,0.916l-4.033,3.85l-3.299,0.182l1.1,3.667l-5.683,6.231L60.309,86.81L60.309,86.81z"/>
</g>
<g id="Layer_1">
</g>
</svg>
