<?xml version="1.0" encoding="iso-8859-1"?>
<!-- Generator: Adobe Illustrator 16.0.3, SVG Export Plug-In . SVG Version: 6.00 Build 0)  -->
<!DOCTYPE svg PUBLIC "-//W3C//DTD SVG 1.1//EN" "http://www.w3.org/Graphics/SVG/1.1/DTD/svg11.dtd">
<svg version="1.1" xmlns="http://www.w3.org/2000/svg" xmlns:xlink="http://www.w3.org/1999/xlink" x="0px" y="0px" width="100px"
	 height="100px" viewBox="0 0 100 100" style="enable-background:new 0 0 100 100;" xml:space="preserve">
<g id="WA">
	<path id="WA_1_" style="fill:#010101;" d="M30.354,13.716l3.76,1.254l8.354,2.366l7.381,1.671l17.266,4.874l19.771,4.874
		L100,31.517L88.257,86.284l-10.718-3.035l-13.357-3.076L51.062,80.2l-0.393-1.156l-4.823,1.875l-3.958-0.635l-1.849-1.363
		l-1.131,0.565l-4.079-0.12l-1.463-1.162l-4.533-1.82l-0.634,0.13l-3.78-1.314l-1.631,1.566l-5.397-0.259l-5.104-3.553l0.671-0.808
		l0.104-6.61L11.1,62.229l-3.545-0.521l-0.584-2.162L5.012,59.15L1.95,60.212L0,57.438l0.279-2.506l2.367-0.279l1.392-3.481
		L1.81,50.197l0.139-3.202l3.76-0.557L3.341,44.07l-1.252-6.125l0.557-2.507v-6.823l-1.532-2.784l1.949-8.077l1.81,0.417
		l2.089,2.507l2.368,2.228l2.784,1.671l3.899,1.811l2.646,0.556l2.507,1.254l2.924,0.834l1.949-0.139v-2.09l1.114-0.973l1.811-1.115
		l0.278,0.975l0.279,1.532l-1.95,0.418l-0.279,1.81l1.533,1.253l0.974,2.089l0.557,1.67l1.253-0.139l0.14-1.114l-0.835-1.114
		l-0.417-2.785l0.696-1.532l-0.557-1.253v-1.949l1.532-3.063l-0.975-2.229l-2.088-4.177l0.278-0.696L30.354,13.716L30.354,13.716z
		 M22.21,18.866l1.74-0.14l0.418,1.184l1.323-1.393h2.019l0.696,1.323l-1.322,1.462l0.557,0.696l-0.626,1.74l-1.184,0.349
		c0,0-0.766,0.07-0.766-0.208c0-0.279,1.253-2.229,1.253-2.229l-1.462-0.487l-0.279,1.252l-0.626,0.558l-1.322-1.95L22.21,18.866z"
		/>
</g>
<g id="Layer_1">
</g>
</svg>
