<?xml version="1.0" encoding="iso-8859-1"?>
<!-- Generator: Adobe Illustrator 16.0.3, SVG Export Plug-In . SVG Version: 6.00 Build 0)  -->
<!DOCTYPE svg PUBLIC "-//W3C//DTD SVG 1.1//EN" "http://www.w3.org/Graphics/SVG/1.1/DTD/svg11.dtd">
<svg version="1.1" xmlns="http://www.w3.org/2000/svg" xmlns:xlink="http://www.w3.org/1999/xlink" x="0px" y="0px" width="100px"
	 height="100px" viewBox="0 0 100 100" style="enable-background:new 0 0 100 100;" xml:space="preserve">
<g id="WI">
	<path id="WI_1_" d="M90.059,97.226l-0.07-3.276l-1.223-4.697l-0.672-6.376l-1.174-2.517l1.006-3.188l0.842-3.02l1.51-2.685
		l-0.674-3.522l-0.668-3.69l0.502-1.847l2.014-2.516l0.168-2.852l-0.842-1.342l0.672-2.683l-0.469-4.331l2.852-5.872l3.02-7.045
		l0.168-2.349l-0.334-1.006l-0.842,0.504l-4.361,6.542l-2.852,4.195l-2.014,1.846l-0.84,2.348l-2.027,0.838l-1.174,2.014
		l-1.51-0.335l-0.17-1.845l1.344-2.517l2.182-4.864l1.846-1.679l1.025-2.447l-2.656-1.973L82.588,24.28l-3.684-1.393l-2.018-2.395
		l-12.588-2.825l-2.984-1.05l-8.524-2.249l-8.218-1.203l-3.907-5.324l-0.778,0.575l-1.242-0.168l-0.671-1.174l-1.386,0.307
		L35.414,7.55l-1.846,1.006l-1.006-0.67l0.67-2.014l2.013-3.187l1.174-1.175L34.408,0l-2.182,0.838l-3.021,2.014l-7.718,3.354
		l-3.02,0.67l-3.02-0.503l-1.019-0.912l-2.196,2.943l-0.238,2.847v8.778l-1.187,1.662l-5.458,4.033L2.98,31.894l0.474,0.238
		l2.61,2.136l0.713,3.321l-1.899,3.323v4.033l0.477,6.881l3.084,3.083h3.559l1.898,3.323l3.56,0.475l4.033,5.931l7.354,4.271
		l2.136,2.849l0.949,7.71l0.713,3.44l2.371,1.661l0.238,1.424l-2.136,3.559l0.238,3.322l2.609,4.034l2.61,1.186l3.083,0.476
		L43.051,100L90.059,97.226L90.059,97.226z"/>
</g>
<g id="Layer_1">
</g>
</svg>
