<?xml version="1.0" encoding="iso-8859-1"?>
<!-- Generator: Adobe Illustrator 16.0.3, SVG Export Plug-In . SVG Version: 6.00 Build 0)  -->
<!DOCTYPE svg PUBLIC "-//W3C//DTD SVG 1.1//EN" "http://www.w3.org/Graphics/SVG/1.1/DTD/svg11.dtd">
<svg version="1.1" xmlns="http://www.w3.org/2000/svg" xmlns:xlink="http://www.w3.org/1999/xlink" x="0px" y="0px" width="100px"
	 height="100px" viewBox="0 0 100 100" style="enable-background:new 0 0 100 100;" xml:space="preserve">
<g id="WV">
	<path id="WV_1_" d="M60.413,22.004l1.401,6.231l1.365,7.601l2.685-3.254l2.853-3.87l3.197-0.775l1.833-1.834l2.241-3.258
		l1.821,0.814l3.667-0.407l3.259-2.648l2.528-1.831l2.326-0.611l1.644,1.28l4.592,2.296l2.442,2.24l1.732,1.63l-0.961,6.999
		l-7.353-3.203l-5.35-2.044l-0.127,6.524l-3.462,6.978L79.56,43.92l-1.5,3.466l-3.333,0.63l-1.131,4.538l-1.315,4.978l-5,0.429
		l-2.927-3.073l-1.351,0.705l-0.797,6.893l-1.702,4.455l-6.249,13.804l1.13,1.464l-0.258,2.403l-3.541,4.896l-2.278-0.685
		l-3.741,2.722l-3.203-0.722l-2.52,5.741c0,0-4.108,1.803-4.942,1.724c-0.203-0.02-3.113-1.574-3.113-1.574l-2.943,1.738
		l-3.037,1.315l-4.717-1.12l-1.414-1.472l-2.763-3.81l-3.96-2.506l-2.157-4.565l-5.398-4.371L4.584,79.07l-3.26-1.834l-1.018-2.038
		L0,68.578l2.75-0.101l2.445-1.02l0.203-3.463l2.038-1.833l0.201-6.315l1.224-4.89l1.631-0.813l1.629,1.426l0.61,2.241l2.241-1.223
		l0.61-2.037l-1.427-2.241v-3.056l1.224-1.629l2.851-4.277l1.631-1.834l2.649,0.61l2.851-2.037l3.87-4.277l2.853-4.89l0.407-7.13
		l0.61-6.315V7.567l-1.426-3.87l1.222-1.833l1.617-1.63l4.4,24.983l5.835-0.944L60.413,22.004L60.413,22.004z"/>
</g>
<g id="Layer_1">
</g>
</svg>
