<?xml version="1.0" encoding="iso-8859-1"?>
<!-- Generator: Adobe Illustrator 16.0.3, SVG Export Plug-In . SVG Version: 6.00 Build 0)  -->
<!DOCTYPE svg PUBLIC "-//W3C//DTD SVG 1.1//EN" "http://www.w3.org/Graphics/SVG/1.1/DTD/svg11.dtd">
<svg version="1.1" xmlns="http://www.w3.org/2000/svg" xmlns:xlink="http://www.w3.org/1999/xlink" x="0px" y="0px" width="100px"
	 height="100px" viewBox="0 0 100 100" style="enable-background:new 0 0 100 100;" xml:space="preserve">
<g id="AF">
	<path d="M42.607,21.131l7.394,1.404l2.817,2.817l5.635-3.166l3.169,1.758l1.057-4.578l4.576,1.056l1.057-1.761l-0.708-1.408
		l4.934-5.282l2.817,1.762l-0.704,2.465l2.112,1.056l-0.704,6.691l1.761,3.877l12.324-7.047l2.112,0.356l0.705,1.757l4.226-1.058
		H100l-0.7,1.058l-2.113,1.057l1.408,0.708L91.9,26.057l-7.396,0.352l-9.15,5.99l-0.704,0.7l3.169,4.93l-0.352,2.817l-4.227,5.634
		l1.053,1.056l-1.404,2.817h-7.042l2.815,5.281L62.679,58.1l-2.118,5.986l0.71,3.873l-2.817,2.467l-2.113-1.76h-3.17l-3.521,2.814
		l1.057,1.055l-6.688,0.705l-2.817,2.818l-0.353,7.744l-0.703,0.705l-8.1,2.113l-4.925-0.346l-2.117,1.754l-4.574-1.408
		l-7.045,1.408L2.821,84.508l4.574-6.336l1.056-4.227l-2.465-3.52l-4.226-1.76l-1.405-9.51l1.757-4.931L0,52.467v-2.462v-1.061
		l2.821-1.409l1.405-4.225l1.409-8.451l-0.356,1.76l2.117,1.409l8.45,2.112l2.113-1.761l1.409-2.112l-1.053-1.408l9.857-4.577
		l2.817-7.747h3.516l2.113-2.113L42.607,21.131"/>
</g>
<g id="Layer_1">
</g>
</svg>
