<?xml version="1.0" encoding="iso-8859-1"?>
<!-- Generator: Adobe Illustrator 16.0.3, SVG Export Plug-In . SVG Version: 6.00 Build 0)  -->
<!DOCTYPE svg PUBLIC "-//W3C//DTD SVG 1.1//EN" "http://www.w3.org/Graphics/SVG/1.1/DTD/svg11.dtd">
<svg version="1.1" xmlns="http://www.w3.org/2000/svg" xmlns:xlink="http://www.w3.org/1999/xlink" x="0px" y="0px" width="100px"
	 height="100px" viewBox="0 0 100 100" style="enable-background:new 0 0 100 100;" xml:space="preserve">
<g id="AU">
	<path d="M80.276,92.148l-0.378,0.501l-0.376-1.005l0.376,2.136l1.132,1.509l1.005,0.376l-0.504,0.627l2.011,0.253l0.503-1.256
		l0.627,0.124l0.631-1.508l0.877-0.125l0.881-2.512l0.125-2.388l-0.628-1.507l-3.77,1.004l-4.397-1.508v1.887L80.276,92.148z
		 M2.262,33.982l0.879-1.758l2.262-0.754l1.131-1.508l2.01-1.258l2.262,0.378l2.765-1.131l0.878-0.753l1.131,0.124l3.392-1.129
		l1.508-1.005l0.754-1.759l1.258-1.257l-0.504-1.383l0.504-1.128l1.129-0.754l0.252-0.88l1.635,2.889l0.124-1.13h0.503l-0.627-1.256
		V17.65l1.003-0.25l0.502,0.879l0.754,0.125l-0.251-0.627l0.628-1.256l-0.125-0.754l1.258-0.251l-0.253-1.006l0.879,0.251
		l-0.375-1.254l1.381-0.253v0.378l0.627-0.378v-1.506l0.379,0.628l1.883-0.879l1.759,0.753l1.382,1.382l-0.628,2.386l0.754-1.382
		l0.754-0.628h1.633l1.256,0.88l-0.125-0.628l0.251-0.251l-0.879-1.13l1.257-2.137l1.003-0.25V9.861h-0.25l0.127-1.004l1.004-0.629
		l0.753,0.629l-0.125-0.879l0.377-0.378l2.513,0.128l1.256-0.628V5.968l-1.508-0.754l-0.502-0.127l0.628-0.375l0.377,0.375
		l0.251-0.25l1.131,1.005l0.25-0.504l0.631,0.755l1.634,0.251l1.128,0.754l1.383-0.125l1.131,0.626l1.884-0.879l-0.377,0.504h0.502
		v1.13l1.132-1.634l0.252,1.007h0.754l-0.881,1.254l0.25,0.504l-0.25,0.375l-0.626-0.125L56.91,10.49l-0.504-0.378l-0.376,1.257
		l0.503-0.25l-1.13,3.39l1.884,0.881l0.251,1.632l2.008-0.25l2.139,1.885l2.134,0.502l0.754,1.131l2.011,1.254l1.885-0.627
		l1.006-2.386l0.88-3.895l-0.253-3.643l0.628-2.638l-0.375-0.502l1.631-3.643l1.006-0.754l0.251,0.754l0.126,1.885l0.628,0.502
		v1.003l0.754,0.755l1.007,4.271l0.626,0.376l1.382-0.376l1.885,1.883l0.502,4.022l0.88,0.752l0.628,4.02l0.504,0.378l0.124,1.131
		l1.256,0.628h1.383l0.502,1.381l1.257,0.25l1.76,1.007l-0.378,1.005l0.879,0.501l1.007,1.635l0.501,2.763l0.628-0.251l0.377-0.878
		l1.257,1.254l0.251-0.503l0.503,3.017l3.643,3.14l1.883,3.141v3.767L100,51.068l-1.382,7.41l-1.257,3.017l-3.015,3.516l0.251,0.756
		l-1.506,4.146l-0.253-0.378l-1.005,2.01l-0.628,5.278l-1.508,0.879l-3.015,0.375l-3.267,2.513h-1.255v0.629l0.626-0.125
		l-0.376,0.88l-2.136-1.886l-0.378-1.006l-1.381,0.377l0.504-0.752l-0.504-0.881l-1.13,0.754l0.627,0.377l-3.14,1.886l-2.261-1.257
		l-1.635-0.504l-0.754,0.377l-2.638-1.382l-1.129-1.507l-0.631-1.382l0.127-1.255l-0.252-1.258l-1.131-1.383l0.253-1.004
		l-2.891,0.753l0.753-1.129V68.53l-1.003-1.759l-0.881,2.763l-2.01,0.251l0.126-0.879l1.132-0.126l0.126-2.26l1.129-1.761
		l0.251-1.129l-0.627-1.886l-0.127,1.258l-1.258,2.26l-2.008,1.13l-1.132,1.634v1.258l-2.009-1.258v-0.503l0.754,0.503l-0.126-1.004
		l-1.634-3.266l-1.508-0.754l0.252-1.132L50,60.615l0.126,0.376l-1.885-0.88l-0.752,0.379l-1.635-1.258l-1.884-0.376L39.7,58.98
		l-2.766,1.51l-4.899,0.501l-5.025,2.262l-1.131,2.261l-8.917,0.253l-1.51,1.633l-1.256,0.124l-1.634,1.383H11.81l-0.126,0.504
		l-4.396-0.756l-1.509-1.632l-1.005-0.251v-1.886h0.88l0.628-1.255v-4.398l-1.759-3.769l-0.252-3.142l-1.885-3.516l-0.626-2.513
		L0,43.907l0.504,0.251l0.503,0.879l0.627-0.251l-0.376-1.258l0.503,0.879l0.626-0.879l-2.008-4.396v-1.256l0.879-1.633L1.131,33.48
		l0.754-1.256l0.127-0.378L2.262,33.982z"/>
</g>
<g id="Layer_1">
</g>
</svg>
