<?xml version="1.0" encoding="iso-8859-1"?>
<!-- Generator: Adobe Illustrator 16.0.3, SVG Export Plug-In . SVG Version: 6.00 Build 0)  -->
<!DOCTYPE svg PUBLIC "-//W3C//DTD SVG 1.1//EN" "http://www.w3.org/Graphics/SVG/1.1/DTD/svg11.dtd">
<svg version="1.1" xmlns="http://www.w3.org/2000/svg" xmlns:xlink="http://www.w3.org/1999/xlink" x="0px" y="0px" width="100px"
	 height="100px" viewBox="0 0 100 100" style="enable-background:new 0 0 100 100;" xml:space="preserve">
<g id="BA">
	<path style="fill:#010101;" d="M51.492,87.175c1.48,0,3.804,2.467,4.649,4.153c0.846,1.694,3.312,2.329,4.648,2.329
		c1.338,0,1.621,2.253,2.536,3.168c0.917,0.916,2.043,0.985,3.382,0.985c1.336,0,1.479-0.424,2.959,0.986
		c0.481,0.463,0.954,0.86,1.374,1.203c0.062-0.09,0.518-0.75,0.998-1.273c0.516-0.561,0.727-0.798,1.057-1.478
		c0.325-0.683,0.374-0.753,0-1.479c-0.378-0.728-0.446-1.525-1.41-1.388c-0.962,0.144-1.738-0.022-1.738-0.022
		s0.495-0.683,0.399-1.878c-0.095-1.197-0.352-2.043,0.143-2.253c0.493-0.214,0.75-0.657,0.869-2.112
		c0.115-1.454-0.284-3.454,0.021-3.949c0.307-0.49,0.588-0.771,2.113-0.771c1.528,0,2.374,0.35,2.422-1.078
		c0.045-1.436-0.048-3.43,0.209-4.393c0.259-0.964,0.939-1.41,0.612-1.81c-0.329-0.398-0.753-0.469,0.14-1.196
		s2.302-1.457,2.864-2.093c0.564-0.635,0.586-1.502,1.433-1.502c0.844,0,1.432,0.494,1.715,1.619
		c0.281,1.127,0.961,2.869,1.503,2.917c0.54,0.041,1.314-1.178,1.479-1.975c0.164-0.798-0.071-1.784-0.563-2.865
		c-0.494-1.081-0.97-2.284-1.393-3.18c-0.421-0.9-0.667-1.289-1.23-1.289s-0.688-0.153-0.495-0.736
		c0.194-0.584,0.283-0.706,0.829-0.706c0.544,0,0.738-0.124,0.968-0.455c0.229-0.339,0.563-0.266,0.723,0.158
		c0.158,0.419,0.353,1.442,0.757,1.513c0.405,0.073,0.791-0.122,1.093-0.37c0.297-0.248,0.86-0.514,1.513-0.514
		c0.651,0,1.463-0.051,1.868,0.073c0.06,0.02,0.127,0.055,0.198,0.097c-0.009-0.709-0.017-1.385-0.017-1.634
		c0-0.613-0.096-1.786,1.127-1.175c1.223,0.609,1.504-0.143,2.067-0.095c0.562,0.048,0.516,2.019,0.655,1.598
		c0.142-0.422,0.987-0.048,1.222-0.048c0.236,0,1.081-1.69,1.409-3.053c0.327-1.359-1.08-3.189-1.596-4.131
		c-0.519-0.938-1.269-2.064-2.067-2.772c-0.798-0.704-1.362-1.643-1.502-2.393c-0.142-0.753-0.987-1.646-1.504-2.584
		c-0.515-0.941,0.657-1.27,1.597-0.798c0.941,0.469,1.738,0.562,2.441,0.562c0.706,0,1.176,0,2.209,0s0.562-0.329,1.409-0.657
		c0.844-0.329,1.549-1.595,1.502-2.345c-0.047-0.752-1.454-2.07-2.162-2.775c-0.702-0.702-1.315-1.736-1.5-2.629
		c-0.19-0.893-0.471-0.144-1.551-0.472c-1.078-0.326-1.268-1.551-1.55-2.91c-0.281-1.359-1.597-0.846-2.677-0.705
		c-1.081,0.144-2.441-1.126-2.958-2.204c-0.519-1.081-0.753-2.351-0.471-3.193c0.281-0.846,0.705-1.126,0.657-1.88
		c-0.046-0.749,0.283-1.786,0.985-2.628c0.705-0.85,1.034-1.27,1.363-1.832c0.329-0.567,0.612-1.365,0.987-1.789
		c0.374-0.418,0.893-1.078,0.937-1.736c0.048-0.657,0-1.406,0.472-2.255c0.469-0.845,0.517-0.982,0.61-2.112
		c0.094-1.126,0.565-3.193,0.565-3.193s-0.189,0.093-0.94,0.141c-0.753,0.048-1.27-0.377-1.975-0.377c-0.704,0-1.878,0-1.878,0
		s-0.084,0.055-0.224,0.144c-0.279,0.179-0.793,0.521-1.419,0.985c-0.94,0.703-1.315,1.078-2.724,1.078
		c-1.409,0-3.522,0.192-4.088,0.192c-0.562,0-1.5-0.989-2.159-1.975c-0.655-0.985,0.377-1.03,0.799-1.407
		c0.424-0.376-0.188-1.177-0.938-1.741c-0.753-0.562-0.799-0.75-0.939-1.312c-0.141-0.567-1.173-0.944-1.69-0.985
		c-0.518-0.048-0.705-0.94-0.892-1.317c-0.189-0.377-1.223-0.329-1.597,0.424c-0.375,0.75-0.612,1.031-1.127,1.079
		c-0.517,0.047-1.127-0.186-1.411-1.079c-0.28-0.896-2.206-0.849-3.287-1.177c-1.078-0.325-1.737-0.798-2.112-0.798
		c-0.376,0-0.376,0.144-0.47,0.846c-0.095,0.705-1.222,1.033-1.738,1.033c-0.516,0-1.971-1.643-2.629-2.393
		c-0.657-0.752-2.066,0-2.676,0.794c-0.61,0.798-1.082,2.115-2.161,2.211c-1.08,0.093-1.924-1.085-2.303-1.55
		c-0.373-0.469-0.844-0.469-1.877-0.894c-1.035-0.424-1.082-0.096-1.785,0.377c-0.705,0.469-1.033-0.233-1.877-0.281
		c-0.846-0.048-0.986,0.048-1.737-0.424c-0.752-0.473-1.315-0.562-2.162-0.562c-0.844,0-1.831-0.66-2.723-1.037
		c-0.891-0.377-1.643,0.613-2.207,0.752c-0.563,0.141-1.222-0.608-2.16-0.8c-0.939-0.185-1.597-0.561-2.021-0.938
		c-0.421-0.373-0.985-1.455-1.456-1.455c-0.469,0-0.704-0.048-1.08-0.845c-0.375-0.801-1.22,0.705-1.926,1.27
		c-0.704,0.561-0.892,1.551-1.783,0.938c-0.893-0.609-1.363-0.377-2.443-0.609c-1.079-0.24-0.939-0.942-2.019-1.222
		c-1.08-0.281-1.739,0.373-2.254,1.222c-0.516,0.845-0.611,1.262-1.55,2.676c-0.94,1.407-0.985,2.255-2.323,3.308
		c-1.339,1.06-2.043,0.211-2.819-0.49c-0.775-0.706-2.677-2.607-2.958-3.101c-0.283-0.495-0.283-1.267-1.55-3.028
		c-1.268-1.764-1.62-1.483-3.099-1.34c-1.479,0.144-2.326,0.636-3.029,1.34C2.677,2.151,2.465,6.447,2.253,9.762
		c-0.212,3.308-0.212,3.942-1.056,4.434c-0.846,0.494,0.351,1.059,1.339,2.256c0.985,1.196,3.239,3.805,4.437,6.058
		c1.196,2.255,1.972,5.283,2.747,6.689c0.775,1.413,1.761,2.68,1.199,4.44c-0.564,1.761,0.352,3.381,1.69,3.873
		c1.337,0.495,2.536,2.82,3.028,3.596c0.492,0.771-0.632,3.311,0.916,4.153c1.55,0.845,3.945,3.663,4.721,5.002
		c0.774,1.337,1.762,1.905,3.169,2.54c1.409,0.629,1.339,1.758,1.339,2.322c0,0.562,1.127,0.985,1.127,1.55
		c0,0.562,0,1.477,1.127,2.256c1.127,0.772,2.463,2.603,3.451,4.01c0.986,1.41,1.831,2.399,3.381,3.104
		c1.551,0.702,2.678,1.27,3.662,1.551c0.987,0.281,1.268,0.771,0.776,1.337c-0.493,0.561-1.128,1.196-0.564,1.831
		c0.564,0.635,0.846,2.181,0.846,2.816c0,0.635,0.07,1.551,0.633,1.621c0.563,0.072,2.042,1.125,2.678,1.691
		c0.633,0.561,0.775,1.971,1.268,2.044c0.493,0.066,1.619,0.421,2.678,1.336c1.056,0.916,1.62,2.046,2.603,2.536
		c0.988,0.492,1.198,2.255,0.636,2.817c-0.564,0.564-2.747,1.617-2.747,1.617s0.693,0.558,1.048,0.706c0.002,0,0.007,0,0.009,0.003
		C48.746,88.091,50.014,87.175,51.492,87.175z"/>
</g>
<g id="Layer_1">
</g>
</svg>
