<?xml version="1.0" encoding="iso-8859-1"?>
<!-- Generator: Adobe Illustrator 16.0.3, SVG Export Plug-In . SVG Version: 6.00 Build 0)  -->
<!DOCTYPE svg PUBLIC "-//W3C//DTD SVG 1.1//EN" "http://www.w3.org/Graphics/SVG/1.1/DTD/svg11.dtd">
<svg version="1.1" xmlns="http://www.w3.org/2000/svg" xmlns:xlink="http://www.w3.org/1999/xlink" x="0px" y="0px" width="100px"
	 height="100px" viewBox="0 0 100 100" style="enable-background:new 0 0 100 100;" xml:space="preserve">
<g id="BD">
	<g>
		<path d="M38.346,10.368c-0.493-1.235-1.07-0.906-1.481-1.893c-0.411-0.987-1.069-1.645-1.563-1.07
			c-0.494,0.577-0.741,1.483-0.165,1.728c0.576,0.249,0.081,0.494-0.33,1.153c-0.412,0.658-1.728,0.824-2.221,0.412
			c-0.494-0.412-1.482,0.246-1.977-0.166c-0.493-0.411-1.728-1.729-2.056-2.139c-0.33-0.412-0.823-0.989-0.988-2.305
			c-0.164-1.316-1.646-2.881-2.468-2.881c-0.824,0-1.481,1.153-0.987,1.482c0.493,0.331,1.646,1.399,1.892,1.729
			c0.247,0.328,0.658,1.48-0.493,1.316c-1.153-0.164-0.987-0.988-1.398-1.153c-0.412-0.163-1.894,0.989-2.798-0.658
			c-0.905-1.646-1.811-2.797-2.881-3.044c-1.069-0.247-1.646-1.234-1.646-1.811C16.786,0.492,15.633,0,15.633,0
			s-0.083,2.058-0.494,2.22c-0.412,0.165-0.246,1.483,0,1.483c0.247,0,1.316,0,1.893,0.082c0.575,0.082,0.824,0.988,0.329,1.481
			c-0.494,0.494-1.316,0.576-1.811,1.315c-0.494,0.743-0.904,1.812-1.892,2.058c-0.988,0.249-1.811,1.071-1.317,1.399
			c0.494,0.33,0.412,0.823-0.247,1.482c-0.659,0.657-1.234,1.809-0.577,2.878c0.659,1.072,0.659,1.317,1.07,1.317
			s2.715,0,3.21,1.153c0.494,1.152,1.646,1.892,1.975,1.892c0.329,0,1.398,0.495,1.81,1.235c0.411,0.74,1.317,0.246,1.729,0
			c0.411-0.247,1.563-0.74,1.563,0.495c0,1.233,0.412,2.468,0.987,2.548c0.578,0.084,0.412,0.908,0.412,1.317
			c0,0.412,0.988,1.647,0.248,1.81c-0.741,0.167-2.222-0.163-2.717-0.245c-0.493-0.083-1.398-0.741-2.057-0.494
			c-0.658,0.248-0.987-0.247-1.81-0.33c-0.823-0.082-0.905,0.248-0.905,0.248s1.235,1.399,0.412,2.468
			c-0.824,1.07-0.824,2.058-0.824,2.468c0,0.413-0.987,1.893-0.987,1.893s-0.658,0.083-0.906,0.083
			c-0.246,0-0.411-1.235-1.069-1.399c-0.659-0.165-0.741,0.41-1.07,1.069c-0.329,0.658-0.906,0.986-1.235,1.398
			c-0.329,0.412-0.74,1.729-0.74,1.729s1.152,1.315,1.399,1.728c0.247,0.411,1.646,2.058,2.304,2.058
			c0.659,0,2.716,1.151,3.209,1.563c0.494,0.412,1.729,1.4,2.632,1.4c0.906,0,1.729,0.494,1.729,1.234
			c0,0.74-0.165,2.303-0.165,2.303s1.234,1.812,0.577,1.812c-0.659,0-0.165,1.069-0.741,1.234c-0.575,0.166-1.4,0.657-1.481,1.399
			c-0.083,0.74-0.411,3.044-0.165,3.622c0.245,0.575,0.741,0.904,1.399,1.646c0.658,0.739,0.329,1.069,0.658,1.069
			c0.33,0,0.988-0.905,0.988-0.905l1.235,1.564c0,0-1.07,0.411-1.07,1.398s-0.247,1.316-0.576,1.893
			c-0.33,0.575,0.247,1.234,0.576,1.316c0.328,0.083,0.328,1.811,0.74,1.811c0.412,0,0.988,1.153,0.988,1.81
			c0,0.658,0.329,1.317,0.988,1.482c0.657,0.163,0.575,1.398,0.164,1.811c-0.411,0.411,0.494,1.317,0.658,1.729
			c0.165,0.41-0.735,1.557,0.165,2.385c2.771,2.552,0.989,2.937,1.235,4.418c0.247,1.479,1.701,1.04,0.822,1.918
			c-0.209,0.21-0.74,0.741-0.164,1.895c0.576,1.152,0.576,1.81,0.576,2.467c0,0.659,0.083,1.236,0.412,1.565
			c0.329,0.328,1.152,0.246,1.152,0.246s0.659,0.329,0.659,1.235c0,0.905-0.576,1.893-0.165,1.893c0.412,0,1.235-0.248,1.235-0.822
			c0-0.576,0.081-2.224,0.081-2.224s0.412-0.987,0.577-1.564c0.164-0.574,0.905-0.821,0.905-0.821s-0.576,1.81-0.576,2.469
			c0,0.657,0.905,1.564,1.317,1.564s0.137-0.549,0.412-1.043c0.274-0.495,0.549-0.548,0.219-0.988
			c-0.33-0.438-0.383-1.205-0.109-1.48c0.274-0.274,0.658-0.384,0.658-0.878s0.219-0.604,0.768-0.604
			c0.549,0,0.658,0.822,0.604,0.987c-0.055,0.164-0.33,0.988-0.055,1.207c0.273,0.219,0.712,0.604,0.712,0.988
			c0,0.383,0.22,0.823,0.713,0.823s1.097,0.054,0.494-0.605c-0.604-0.658-0.712-0.987-0.109-0.987c0.602,0,0.932,0.275,1.206-0.109
			c0.275-0.385,0.933-0.056,1.152-0.056c0.221,0,0.879-0.659,0.934-1.535c0.054-0.879-0.604-1.756-0.274-1.756
			c0.329,0,0.987-0.108,1.042,0.274c0.056,0.384,0.659-0.11,0.769-0.383c0.11-0.276,0.494-0.222,0.494,0.217
			c0,0.441,0.657,0.275,0.877,0.275s-0.273,1.153-0.109,1.646c0.165,0.494,0.877,0.549,0.933,0.164
			c0.055-0.384,0.823-0.987,0.877-0.823c0.054,0.166,0.604,0.713,0.219,0.879c-0.383,0.165-1.151,0.548-1.042,0.987
			c0.11,0.439,0.712,0.933,1.262,0.604c0.548-0.33,0.877,0.055,0.877-0.109c0-0.165,0.219-0.822,0.603-0.822
			c0.385,0-0.273-1.153,0.22-1.209c0.494-0.054,0.274-0.713-0.165-0.823c-0.439-0.108,0.329-0.769,0.659-0.769
			c0.328,0,1.206-1.534,1.206-1.534s0.769,0.382,0.987-0.109c0.22-0.494,1.097-1.426,1.317-2.029
			c0.218-0.606,1.591-0.879,1.151-2.636c-0.439-1.754-0.604-2.194-0.604-2.577c0-0.385-0.493-1.316-1.316-1.7
			s-0.768-1.428-0.768-1.646c0-0.22-0.877-1.755-1.316-2.14c-0.439-0.384-0.658-1.7-0.658-2.303c0-0.605-0.11-1.099,0.328-1.482
			c0.439-0.385,1.152-0.44,0.824-1.263c-0.33-0.823,0.054-0.986-0.056-1.701c-0.109-0.712,0.219-1.865,0.056-2.194
			c-0.165-0.328-1.097-0.383-1.976-1.206c-0.877-0.823-0.11-1.043-0.11-1.043s1.592,0.768,1.975,0.768
			c0.384,0,1.152,0.111,1.262-0.548c0.109-0.658,0.33-1.481,0.823-1.428c0.493,0.056,0.219,0.878,0.219,1.372
			s0.165,1.152,0.604,1.757c0.439,0.603,0.934,1.369,0.329,1.863c-0.604,0.496-0.988,1.044-0.933,1.537
			c0.054,0.495,0.329,0.713,0.438,1.316c0.11,0.604,0.385,1.153,0.549,0.988s0.383-0.821,0.494-0.219
			c0.109,0.602,0.603,0.932,1.152,1.591c0.548,0.657,1.151,1.262,1.81,1.262c0.659,0,0.988-0.057,1.317-0.057
			s0.713-0.822,0.932-0.383c0.221,0.439-0.108,0.714,0.33,1.372c0.438,0.657,0.384,0.767,0.988,0.767
			c0.603,0,0.877-0.382,1.15-0.382c0.275,0,0.495,0,0.495-0.385c0-0.384,0.273-0.494,0.658-0.439
			c0.383,0.056,1.042-0.055,1.096,0.165c0.057,0.219,0.769,0.11,0.934,0.11c0.166,0,0.878,0.054,0.658-0.439
			c-0.22-0.494-0.055-0.714-0.055-0.714s0.878,0.934,1.151,0.823c0.274-0.109,0.658-0.769,0.604-1.262s0-1.206,0.221-1.206
			c0.219,0,0.603,0.274,0.603,0.985c0,0.714-0.273,0.987-0.384,1.208c-0.109,0.22-0.274,1.481,0.494,1.81
			c0.768,0.329,2.249,2.414,2.743,3.184c0.494,0.769,1.097,2.522,1.371,3.346c0.275,0.824,0.493,1.208,0.713,1.593
			c0.219,0.383,0.55,0,0.55,0s-0.385-0.55-0.221-0.989c0.165-0.438,0.55-1.043,0.659-0.494c0.109,0.55,0.22,1.263,0.22,1.702
			c0,0.438-0.494,0.933-0.494,1.15c0,0.22,0.274,0.934,0.438,0.879c0.165-0.056,0.493-0.056,0.493-0.056s-0.163,0.769,0.221,1.592
			c0.383,0.822,0.439,1.755,0.494,2.139c0.055,0.385,0.822,1.208,0.438,1.593c-0.384,0.383-0.384,1.041,0.109,0.986
			s0.714-0.107,0.659,0.275c-0.056,0.384,0.383,0.549,0.713,0.549c0.328,0,0.604,0.932,0.438,1.59
			c-0.164,0.659-0.383,1.756-0.987,2.25c-0.604,0.494-0.438,0.933,0.055,1.698c0.495,0.769,1.152,0.825,1.481,1.373
			c0.329,0.549,0.385,1.81,0.548,2.304c0.167,0.494,0.551,1.099,1.208,2.031c0.659,0.932,1.591,2.851,2.086,3.291
			c0.492,0.438,1.096,0.988,0.932,0.273c-0.164-0.711-0.822-2.028-0.932-2.687s-0.934-1.811-0.934-2.579s-0.384-2.961,0-3.511
			s1.811-1.811,2.358-1.811c0.55,0,1.371,0.385,1.646,0.879c0.274,0.492,0.22,0.767,0.823,0.657c0.604-0.11,1.207,0.219,1.207,0.657
			c0,0.44,0.604,1.48,1.262,0.879c0.658-0.604,0.328-1.701-0.055-2.798c-0.383-1.099-1.317-3.236-1.263-5.047
			c0.056-1.812,0.275-3.84,0.275-4.608s-0.988-1.755-1.153-2.303c-0.164-0.55,0.493-1.429,0.22-2.031
			c-0.273-0.604-1.042-1.976-1.042-2.744c0-0.768,0.22-1.317-0.109-2.029c-0.329-0.714-0.658-2.195-0.658-2.742
			c0-0.551-0.439-1.593-0.932-2.307c-0.496-0.713-0.109-0.985-0.936-2.084c-0.82-1.097-0.768-1.812-0.768-2.468
			c0-0.658-0.877-1.647-0.548-2.579c0.33-0.933,0.109-2.357,0.109-3.073c0-0.713-1.207-1.919-1.207-2.633s-0.109-2.58-0.109-3.02
			c0-0.436-0.273-1.26-0.658-0.931s-0.328,1.427-0.933,1.152c-0.604-0.274-1.207-1.208-1.536-0.988
			c-0.328,0.221-0.329,0.934-0.713,1.425c-0.386,0.495-0.822,0.222-1.427-0.272c-0.604-0.494-1.646-0.056-1.646,0.272
			c0,0.329,0.438,1.593,0.549,2.416c0.108,0.823-0.055,1.591-0.494,2.14c-0.439,0.548-1.536,1.317-1.481,1.757
			c0.055,0.438,0.22,1.755,0.604,2.029c0.384,0.272,0.438,1.372,0.273,1.92c-0.164,0.549-0.11,0.878-0.823,0.603
			c-0.713-0.273-0.385,1.538-0.385,1.538s-0.877,0.164-1.151,0.164c-0.273,0-0.659,0.658-1.098,0s-1.371-2.086-1.426-2.251
			c-0.055-0.164-0.549-1.479-0.933-1.701c-0.385-0.218-1.098-0.328-1.262,0.385c-0.165,0.713-0.769,1.427-0.987,0.495
			c-0.221-0.933-0.165-2.361-0.494-3.237c-0.33-0.878-1.043-1.92-1.043-2.742c0-0.824-0.769-0.769-1.096-1.428
			c-0.331-0.658-0.715-1.37-0.386-1.699c0.33-0.33-0.548-1.482,0.274-1.922c0.824-0.44,0.55-1.317,0.55-1.755
			c0-0.439,0.494-1.372,1.262-1.647c0.768-0.273,0.273-1.425,1.042-1.866c0.769-0.438,1.755,0.11,2.47-0.438
			c0.712-0.548,1.316-1.482,1.755-1.866c0.439-0.382,0.986-0.711,1.919-0.711c0.934,0,1.538-0.878,1.538,0
			c0,0.876,0.493,1.865,0.987,1.479c0.492-0.384,0-1.919-0.165-2.742c-0.166-0.824,0.274-0.769,0.768-0.824
			c0.493-0.053,0.768-0.876,1.646-1.042c0.878-0.165,1.536-1.7,1.261-2.359c-0.274-0.658,0.385-1.919,0.714-2.579
			c0.328-0.658,1.041-2.304,0.493-3.017c-0.549-0.714,0.165-1.59,0.658-1.59c0.494,0,1.372,0.549,1.646,0.495
			c0.275-0.056,1.538-0.332,1.538-0.551c0-0.219-0.385-1.919-1.044-1.81c-0.658,0.11-1.261-0.109-1.371-0.494
			c-0.109-0.384-0.879-0.823-1.48-1.041c-0.604-0.221-1.536-0.002-1.921-0.769c-0.384-0.77-1.81-1.153-2.304-0.714
			c-0.494,0.438-1.372,0-1.865-0.165c-0.495-0.165-1.372,0.165-1.592,0.33c-0.219,0.164-1.15,0.273-1.92,0.658
			c-0.769,0.383-1.372-0.494-2.414,0.221c-1.042,0.712-1.15,0.164-2.193-0.275c-1.044-0.439-2.194-0.384-3.292-0.054
			s-2.469,0.986-3.072,0.823c-0.604-0.167-1.811,0.053-2.634,0.328s-1.481-0.165-2.415-0.165c-0.932,0-2.358-0.384-3.125,0.165
			c-0.768,0.549-1.866,0.496-2.195,0.221c-0.329-0.276-1.263-0.11-1.811-0.056c-0.548,0.056-1.975,0.166-2.688-0.492
			c-0.713-0.659-1.371-1.482-2.304-1.427s-1.975,0.769-1.975,0.769s0.219-1.373,0-2.032c-0.22-0.656,0.548-0.713,0.823-0.986
			c0.274-0.275,1.646-1.481,0.988-3.292c-0.659-1.812-0.877-3.348-1.317-4.555C39.088,11.767,38.346,10.368,38.346,10.368z"/>
		<ellipse cx="36.762" cy="82.91" rx="0.309" ry="0.494"/>
		<path d="M36.865,84.144c-0.277-0.077-0.329,0.453-0.205,0.782c0.124,0.329,0.205,0.452,0.164,0.864
			c-0.041,0.412,0.371,0.7,0.699,0.7c0.33,0,0.412-0.535,0.206-0.822c-0.206-0.29,0-0.988-0.329-1.195
			C37.071,84.268,37.016,84.186,36.865,84.144z"/>
		<path d="M50.937,80.072c-0.151-0.233-0.658,0.41-0.822,0.904c-0.165,0.494-0.372,1.109-0.372,1.44
			c0,0.328,0.124,0.617,0.248,0.617c0.124,0,0.412-0.904,0.699-1.563C50.978,80.812,51.133,80.366,50.937,80.072z"/>
		<path d="M52.088,81.181c-0.082,0.33,0.082,0.7-0.205,1.029c-0.288,0.33-0.783,0.617-0.823,0.287
			c-0.041-0.328,0.04-1.15,0.124-1.521c0.082-0.37,0.042-0.988,0.288-0.988S52.17,80.853,52.088,81.181z"/>
		<path d="M29.953,86.776c0.287-0.45,0.123-1.233-0.331-1.562c-0.452-0.33-0.493-0.783-0.493-1.194s-0.082-0.781-0.494-0.659
			c-0.412,0.124-0.206,0.701-0.041,0.947c0.164,0.247,0.164,0.782,0.164,1.029s0.042,0.165,0.412,0.781
			C29.542,86.736,29.953,86.776,29.953,86.776z"/>
		<path d="M53.035,78.59c-0.167-0.184-0.659,0.329-0.659,0.574c0,0.248,0.247,0.494,0.412,0.411
			C52.952,79.494,53.206,78.776,53.035,78.59z"/>
		<path d="M53.816,79.865c-0.452,0-0.617,0.041-0.493,0.535c0.122,0.493,0.205,0.411,0,0.78c-0.206,0.37,0,0.741,0.165,0.7
			c0.164-0.04,0.575-0.783,0.575-1.069C54.063,80.523,53.816,79.865,53.816,79.865z"/>
		<path d="M54.434,81.8c-0.287-0.043-0.658,0.081-0.822,0.41c-0.166,0.33-0.247,0.535-0.166,0.946
			c0.083,0.411,0.166,0.248,0.536,0.083c0.369-0.165,0.74-0.248,0.658-0.822C54.558,81.841,54.434,81.8,54.434,81.8z"/>
		<path d="M54.598,66.37c-0.287,0.491-0.37,0.74-0.74,0.944c-0.369,0.207-0.452,0.905-0.164,0.905s0.864-0.041,0.411,0.371
			c-0.452,0.412-0.411,0.616-0.123,1.11s0.535,1.111,0.535,1.275c0,0.165,0.205,0.455,0.452,0.783s0.658,0.616,0.494,1.191
			c-0.165,0.577-0.082,1.358-0.082,1.812c0,0.452,0.287,0.699-0.083,1.029c-0.371,0.329-0.617,0.534-0.617,0.904
			c0,0.371-0.123,0.741-0.164,1.07c-0.042,0.329,0.041,0.575,0.534,0.453c0.494-0.124,1.152-0.494,1.028,0.494
			c-0.123,0.988,0.124,0.286-0.083,0.698c-0.204,0.411-0.451,0.66-0.656,0.822c-0.206,0.166-0.413,0.863-0.248,0.863
			c0.164,0,0.947-0.162,0.947-0.162s0-0.947,0.37-0.947s0.534,0.246,0.534-0.206c0-0.453,0.124-0.657,0.535-0.576
			c0.412,0.083,0.248-0.287,0.288-0.575c0.041-0.289,0.576-0.411,0.412-0.864c-0.165-0.453-0.084-1.357,0.205-2.059
			c0.289-0.699,0.864-1.233,0.74-1.809c-0.123-0.578,0.413-0.905,0.124-1.523c-0.288-0.616-0.617-1.604-1.399-1.852
			c-0.781-0.246-0.617-1.028-0.699-1.481c-0.082-0.452-0.946-1.111-1.399-1.604c-0.452-0.493-0.576-1.068-0.74-1.068
			C54.845,66.37,54.598,66.37,54.598,66.37z"/>
		<path d="M52.665,57.193c-0.088,0.088,0.164,0.741,0.287,0.741c0.124,0,0.536,0.575,0.536,0.575s0.493-0.74,0.04-1.029
			C53.076,57.193,52.825,57.031,52.665,57.193z"/>
		<path d="M51.924,57.235c-0.237-0.163-0.329,0.369-0.329,0.659c0,0.286-0.452,0.164-0.165,0.698
			c0.288,0.535,0.124,0.575,0.124,1.027c0,0.453,0.123,0.617,0.287,0.617c0.165,0,0.454-0.575,0.454-1.316
			C52.295,58.181,52.281,57.478,51.924,57.235z"/>
		<path d="M51.513,60.648c-0.239-0.01-0.165,0.495,0.041,0.659c0.206,0.165,0.083,0.74,0.329,0.74s0.412-0.534,0.165-0.862
			C51.801,60.855,51.701,60.657,51.513,60.648z"/>
		<path d="M52.048,63.035c-0.453-0.04-0.741-0.164-0.741-0.04c0,0.123,0.041,0.536,0.041,0.988c0,0.451,0,0.822,0,1.069
			s0,0.78,0.289,0.33c0.287-0.454,0.575-0.659,0.781-0.864c0.205-0.206,0-0.535-0.082-0.907
			C52.253,63.242,52.048,63.035,52.048,63.035z"/>
		<path d="M53.652,64.887c-0.329,0-0.823,0.371-1.07,0.371c-0.246,0-0.287,0.41-0.082,0.453c0.205,0.041,0.37-0.124,0.535,0.37
			c0.164,0.494,0.576,0.289,0.658,0.124s0.37-0.537,0.657-0.699c0.289-0.166,0.536-0.7,0.33-0.742
			C54.475,64.724,53.652,64.887,53.652,64.887z"/>
		<path d="M50.443,62.912c0,0-0.493,0.247-0.288,0.865c0.207,0.616-0.082,1.151,0.123,1.522c0.207,0.368,0.535,0.905,0.781,0.905
			c0.247,0-0.246-1.195-0.246-1.481c0-0.289-0.082-0.823,0.041-1.152C50.978,63.242,50.443,62.912,50.443,62.912z"/>
		<path d="M52.376,66.41c-0.312-0.103-0.328,0.617-0.123,0.986c0.206,0.371,0.289,1.359,0.535,1.359c0.247,0,0.37-0.658,0.288-1.275
			C52.994,66.861,52.681,66.51,52.376,66.41z"/>
		<path d="M59.248,65.711c-0.274-0.183-1.111-0.043-1.234,0.287c-0.123,0.329,0,0.657-0.247,0.987
			c-0.247,0.329-0.37,0.946,0.041,0.946s0.783,0.782,0.783,1.151c0,0.372-0.289,1.236,0.122,1.317
			c0.411,0.082,1.316,0.042,1.316,0.412s0.741,0.289,0.741,0.123c0-0.163,0.328-1.028,0.081-1.275c-0.246-0.247,0-1.192-0.081-1.481
			c-0.082-0.288-0.741-0.574-1.028-1.274C59.453,66.205,59.517,65.89,59.248,65.711z"/>
		<path d="M67.065,67.396c-0.332-0.162-0.699,1.112-0.863,1.523c-0.166,0.412-0.37,1.562-0.166,1.933
			c0.208,0.372,0.742,0.949,0.865,1.483c0.124,0.534,0.411,1.274,0.699,1.274c0.289,0,0.823,0,0.823,0s0.534,0.289,0.575-0.247
			c0.041-0.533,0.493-1.192,0.041-1.562c-0.452-0.37-0.287-0.989-0.287-1.565s-0.905-1.029-0.945-1.48
			C67.765,68.303,67.413,67.568,67.065,67.396z"/>
		<path d="M63.856,67.11c-0.412-0.37-0.864-0.413-0.905-0.165c-0.041,0.246,0.741,0.863,1.111,0.905
			c0.371,0.04,1.276,0.493,1.316,0.04C65.42,67.438,63.856,67.11,63.856,67.11z"/>
		<path d="M64.68,68.673c0.422,0.316,0.906,1.563,0.699,1.688c-0.206,0.122-1.029,0.205-1.029-0.453s-0.37-1.028-0.657-1.234
			c-0.288-0.205-0.331-0.534-0.331-0.534S64.395,68.461,64.68,68.673z"/>
		<path d="M62.335,68.098c-0.413,0-0.865,0.205-0.824,0.535c0.041,0.328,0.289,0.616,0.289,0.863s0.288,0.74,0.781,0.74
			s1.439-0.204,0.78-0.863c-0.657-0.659-0.657-0.782-0.534-0.988C62.951,68.179,62.335,68.098,62.335,68.098z"/>
		<path d="M61.8,71.472c-0.248,0.205-0.535,0.656-0.494,1.398c0.041,0.74,0.288,1.234,0.288,1.439c0,0.207-0.205,0.617-0.205,0.947
			c0,0.328,0.163,0.945,0.45,0.987c0.29,0.041,0.372,0.289,0.7,0.124c0.329-0.166,0.905-0.289,1.194-0.289
			c0.287,0,0.493-0.205,0.287-0.494c-0.205-0.287-0.164-0.822-0.164-1.068c0-0.248-0.905-0.988-0.905-1.233
			c0-0.249,0-1.277-0.041-1.647C62.868,71.264,61.8,71.472,61.8,71.472z"/>
		<path d="M59.824,73.653c-0.183-0.03-0.371,0.904-0.371,1.15c0,0.248-0.082,1.152,0,1.398c0.084,0.246,0.617,0.166,0.864-0.123
			c0.247-0.287,0.042-1.316,0.042-1.604S60.066,73.69,59.824,73.653z"/>
		<path d="M64.35,71.512c-0.287,0-0.616,0.453-0.576,0.905c0.042,0.453,0.535,0.987,0.782,0.987s0.124-0.494,0-0.698
			c-0.122-0.206-0.165-0.289-0.122-0.659C64.474,71.677,64.35,71.512,64.35,71.512z"/>
		<path d="M60.524,72.128c-0.212-0.129-0.371,0.578-0.371,0.866c0,0.289,0.371,0.493,0.576,0.493c0.206,0-0.041-0.287-0.041-0.657
			C60.688,72.459,60.677,72.225,60.524,72.128z"/>
		<path d="M62.088,77.313c-0.188,0.137-0.288,0.989-0.166,0.989c0.124,0,0.494-0.289,0.741-0.577s0.864-0.741,0.617-0.822
			C63.034,76.82,62.342,77.128,62.088,77.313z"/>
		<path d="M55.216,78.507c-0.412,0.042-0.782,0.452-0.782,0.863c0,0.412-0.041,1.03,0.206,1.03s0.37-0.328,0.452-0.698
			c0.082-0.373,0.411-0.618,0.453-0.866C55.586,78.59,55.216,78.507,55.216,78.507z"/>
		<path d="M60.029,77.355c-0.154-0.055-0.164,0.452-0.164,0.699c0,0.248-0.288,1.315-0.041,1.315c0.246,0,0.822-0.739,0.74-1.193
			C60.482,77.726,60.261,77.438,60.029,77.355z"/>
		<ellipse cx="60.791" cy="76.43" rx="0.185" ry="0.349"/>
		<ellipse cx="61.737" cy="76.737" rx="0.144" ry="0.288"/>
		<ellipse cx="64.165" cy="76.573" rx="0.226" ry="0.164"/>
		<ellipse cx="65.502" cy="74.289" rx="0.289" ry="0.393"/>
		<ellipse cx="56.45" cy="81.636" rx="0.329" ry="0.369"/>
		<ellipse cx="55.586" cy="82.149" rx="0.37" ry="0.308"/>
		<ellipse cx="54.166" cy="84.432" rx="0.185" ry="0.453"/>
		<circle cx="53.344" cy="63.017" r="0.35"/>
		<ellipse cx="54.146" cy="63.735" rx="0.124" ry="0.329"/>
		<ellipse cx="53.323" cy="63.94" rx="0.206" ry="0.248"/>
		<ellipse cx="51.533" cy="62.273" rx="0.227" ry="0.269"/>
		<ellipse cx="52.747" cy="61.966" rx="0.165" ry="0.247"/>
		<ellipse cx="52.479" cy="60.301" rx="0.144" ry="0.266"/>
		<ellipse cx="52.706" cy="58.838" rx="0.206" ry="0.494"/>
		<ellipse cx="51.163" cy="56.536" rx="0.227" ry="0.205"/>
		<ellipse cx="52.047" cy="56.639" rx="0.206" ry="0.185"/>
		<ellipse cx="49.908" cy="83.691" rx="0.329" ry="0.247"/>
		<ellipse cx="50.752" cy="83.837" rx="0.144" ry="0.307"/>
		<ellipse cx="51.348" cy="83.178" rx="0.165" ry="0.227"/>
		<circle cx="51.698" cy="83.837" r="0.308"/>
		<path d="M52.14,84.667c0.086,0.122,0.29,0.122,0.455,0.001c0.165-0.116,0.229-0.311,0.142-0.43
			c-0.086-0.121-0.289-0.121-0.455-0.003C52.117,84.355,52.054,84.548,52.14,84.667z"/>
		<ellipse cx="53.487" cy="83.958" rx="0.288" ry="0.104"/>
		<path d="M75.459,81.511c-0.259-0.201-0.739,0.246-0.739,0.74s0.123,0.576,0.123,1.11c0,0.537-0.288,1.194,0.082,1.235
			s0.659-0.288,0.741-1.111C75.748,82.664,75.851,81.816,75.459,81.511z"/>
		<path d="M75.871,84.226c-0.131-0.099-0.699,0.659-0.699,0.782c0,0.124-0.04,0.782,0.164,0.824c0.205,0.04,0.535-0.372,0.618-0.7
			C76.035,84.803,76.053,84.363,75.871,84.226z"/>
		<path d="M76.694,84.845c-0.167-0.203-0.412,0.287-0.535,0.615c-0.124,0.33-0.371,0.784-0.164,1.481
			c0.206,0.701,0.699,1.358,0.822,1.358s0.452-0.451,0.535-0.904c0.082-0.454-0.042-1.151-0.288-1.358
			C76.817,85.832,76.892,85.085,76.694,84.845z"/>
		<path d="M75.707,88.629c-0.061,0.254,0.575,0.699,0.699,0.453c0.124-0.247-0.164-0.329-0.329-0.494S75.728,88.54,75.707,88.629z"
			/>
	</g>
</g>
<g id="Layer_1">
</g>
</svg>
