<?xml version="1.0" encoding="iso-8859-1"?>
<!-- Generator: Adobe Illustrator 16.0.3, SVG Export Plug-In . SVG Version: 6.00 Build 0)  -->
<!DOCTYPE svg PUBLIC "-//W3C//DTD SVG 1.1//EN" "http://www.w3.org/Graphics/SVG/1.1/DTD/svg11.dtd">
<svg version="1.1" xmlns="http://www.w3.org/2000/svg" xmlns:xlink="http://www.w3.org/1999/xlink" x="0px" y="0px" width="100px"
	 height="100px" viewBox="0 0 100 100" style="enable-background:new 0 0 100 100;" xml:space="preserve">
<g id="BE">
	<path d="M84.242,45.374l-1.685-14.288l-2.095-1.673l1.674-6.724l-1.674-6.301l-10.09-8.823l-4.618,1.681l1.677-2.521l-9.657,7.138
		h-5.888l2.521-5.457l-7.979-0.42l-1.681-2.101V1.681l-2.521-0.845L35.081,0l2.943,5.883l-2.943,2.521l3.779,6.723l-4.194,1.261
		l0.416,6.301l-1.257-2.941l-2.945,1.261l-0.836-2.942l-2.521-0.417l-3.782,0.417l-1.681,2.942l3.778,3.357l-3.778-0.416
		l-1.26,6.724l-2.521,1.676l3.357,4.207l-3.782,5.46l-4.616-0.424v15.969l2.095,3.779l-1.675,3.365l2.099,5.462l-0.424,2.521
		l3.782,4.198l10.929,2.939l-4.206,10.93v5.878l10.502-0.418l5.467,2.099l2.942-0.836L48.529,100l2.096-2.521l5.462,1.682
		l9.243-3.366l4.202,1.685l1.685-0.845l-0.845-7.56l7.563-6.3l-10.505-9.672L62.81,62.599l2.521,2.106l15.132-9.242l0.413-3.366
		l4.202,3.78l1.686-7.137L84.242,45.374z"/>
</g>
<g id="Layer_1">
</g>
</svg>
