<?xml version="1.0" encoding="iso-8859-1"?>
<!-- Generator: Adobe Illustrator 16.0.3, SVG Export Plug-In . SVG Version: 6.00 Build 0)  -->
<!DOCTYPE svg PUBLIC "-//W3C//DTD SVG 1.1//EN" "http://www.w3.org/Graphics/SVG/1.1/DTD/svg11.dtd">
<svg version="1.1" xmlns="http://www.w3.org/2000/svg" xmlns:xlink="http://www.w3.org/1999/xlink" x="0px" y="0px" width="100px"
	 height="100px" viewBox="0 0 100 100" style="enable-background:new 0 0 100 100;" xml:space="preserve">
<g id="BI">
	<g>
		<path style="fill-rule:evenodd;clip-rule:evenodd;fill:#010101;" d="M71.015,0c0.887,0.043,1.645,1.319,2.655,0.475
			c0.095,0.032,0.189,0.063,0.284,0.095c0,0.38,0,0.761,0,1.141c0.586,0.769,4.302,3.396,5.688,2.946c0,0.127,0,0.253,0,0.38
			c-0.671,0.105-1.79,1.956-2.181,2.662c-0.063-0.032-0.127-0.064-0.189-0.096c0,0.602,0,1.204,0,1.806
			c-0.033,0.088-0.499,0.624-0.285,0.855c-0.136,0.149-0.185,0.365-0.474,0.286c-0.095,0.126-0.189,0.253-0.284,0.38
			c-0.549,0.454-0.163,1.718-0.569,2.472c-0.51,0.949-1.508,1.549-2.274,2.471c-0.223,0.268-0.286,1.894,0.379,1.711
			c0.218,0.389,0.912,0.248,1.232,0.286c0.14-0.542,2.465-1.711,2.465-1.711c0,0.032,0,0.063,0,0.095c0,0.222,0,0.443,0,0.666
			c-0.848,0.418-0.892,1.395-1.422,1.996c-0.568,0.19-1.138,0.38-1.707,0.57c0.001,0.706-0.338,1.141-0.758,1.616
			c0.181,0.224,0.8,0.879,0.379,1.045c0,0.095,0,0.19,0,0.285l-0.284,0.476c-0.091,0.047-1.721,2.76-0.948,3.042
			c0.179,0.67,1.823,0.964,1.517,1.996c0.253,0,0.506,0,0.759,0c0.128,0.343,0.182,0.684,0,1.046
			c0.683,0.316,0.578,0.266,0.758,0.951c0.253,0.031,0.506,0.063,0.759,0.095c0.931-0.873,1.596-2.469,2.939-2.567
			c0.216,0.481,3.355,2.391,4.077,2.662c-0.043,0.819-0.083,0.947,0.284,1.046c0.575,0.656,1.541-0.466,1.802-0.095
			c0.802,0.028,1.338,0.618,2.275,0.951c1.018,0.362,3.653-1.25,4.456-0.57c-0.807,0.592-1.902,3.144-2.275,3.042
			c0.286,0.836,0.989,1.5,1.802,1.901c-0.05,1.589-0.393,1.785,0.663,2.756c0,0.063,0,0.127,0,0.19
			c0.439,1.618-1.452,3.338-1.138,3.707c0.062,0.43,0.604,0.828,0.285,1.236c-0.229,0.95-2.137,0.788-2.655,1.996
			c-0.812-0.243-0.636-0.632-1.612-0.856c0.147,1.547-2.952,1.254-3.887,2.092c-0.936,0.838-1.037,1.324-1.423,2.186
			c1.024-0.147,2.643,0.971,1.802,1.711c-0.023,0.646-1.455,1.24-1.802,2.187c-0.536,0.063-1.074,0.128-1.61,0.189
			c-0.593,0.161-0.534,0.626-1.044,1.142c-0.571-0.299-1.458,0.084-1.517,0.38c-0.19,0.317-0.38,0.634-0.569,0.95
			c-0.095,0-0.189,0-0.285,0c-0.188-0.189-0.378-0.381-0.568-0.57c-0.253,0.096-0.506,0.189-0.759,0.285
			c-0.155,0.747-0.866,0.875-1.327,1.331c-0.036,0.036-0.346,0.468-0.379,0.189c-0.51,0.802,0.352,2.21-0.189,3.328
			c-0.348,0.38-0.695,0.76-1.043,1.141c-0.448,0.711-0.58,2.079-1.422,3.042c0,0,0.539,3.067,0.568,3.611
			c-0.005-0.001-3.033-0.57-3.033-0.57c-1.336,0.898-0.976,2.252-1.802,3.708c-0.386,0.677-1.47,0.702-2.086,1.615
			c-0.461,0.683-0.388,1.023-1.232,1.901c0,0.665,0,1.331,0,1.996c-0.11,0.287-0.714,0.786-0.664,1.046
			c0.36,1.862-2.478,3.969-1.991,4.562c-0.189,0.207-2.37,2.566-2.37,2.566c-1.045,0.756-2.239,0.675-2.938,2.377
			c-0.308,0.748-0.022,1.886-0.189,2.281c-0.613,0.284-0.58,0.657-1.139,1.045c-0.354,0.247-2.364,1.753-2.845,1.332
			c-0.766,0.634-1.397,1.604-2.085,2.185c-0.296,0.252-2.898,0.354-2.654,1.237c-0.557-0.093-1.103-0.447-1.232-0.761
			c-0.685,0.175-0.978-0.019-1.233,0.476c-0.363,0.293,0.058,0.709-0.285,1.235c-0.568,0.443-1.138,0.887-1.707,1.331
			c0.063,0.476,0.126,0.95,0.19,1.426c-0.302,0.124-0.257,0.248-0.475,0.19c-0.095,0.062-0.189,0.126-0.284,0.189
			c-0.189-0.095-0.379-0.189-0.569-0.285c-0.009-0.417-2.926,0.468-3.603-0.951c0.365-2.197-1.211-3.562-3.128-3.896
			c0.032-0.062,0.063-0.127,0.094-0.191c-0.452-1.113-1.701-1.75-1.422-3.421c0.032-0.158,0.063-0.316,0.095-0.475
			c-0.393-0.521-0.827-0.783-1.137-1.236c0.168-0.139,0.382-1.229,0.095-1.9c-2.317-0.305-3.096-8.196-5.405-8.366
			c-0.018-0.841,0.117-1.415,0.19-2.187c-0.264-0.094-0.858-0.037-0.759-0.475c-0.513-0.404-0.362-2.091-0.758-2.566
			c-0.495-0.009-3.106-5.335-3.224-5.798c-0.071-0.28,0.266-0.993,0-1.332c-0.154-0.195-0.759-0.476-0.759-0.476
			c0-0.189,0-0.38,0-0.569c-0.009-0.036,1.145-3.911,1.707-5.038c0.325-0.651-0.43-3.093-0.569-3.518
			c-0.305-0.933,0.23-1.543,0.285-2.282c-0.412-0.055-0.569-0.855-0.569-0.855c0.151-0.178,0.364-0.264,0.569-0.38
			c-0.012-0.704,0.101-2.979,0-2.852c0.126-0.158,0.253-0.316,0.379-0.475c-0.115-0.24,0.073-0.571-0.189-0.38
			c-0.114-0.306-0.201-0.548-0.475-1.046c-0.543,0.07-1.61-0.89-2.085-0.285c-0.117,0.02-0.804,0.378-0.758,0.476
			c-0.479-0.071-2.406-0.143-2.939-0.57c0.819-0.674-0.082-1.98,0.189-2.282c0.411-0.443,0.822-0.887,1.232-1.331
			c-0.474-1.206-0.274-2.773-0.853-3.517c0.177-0.542,1.327-3.091,1.232-3.517c0.434-0.014,0.244,0.045,0.569-0.095
			c-0.031-0.159-0.063-0.316-0.095-0.475c-0.253-0.043-0.143,0.058-0.379-0.19c0.376-0.144,0.064,0.031,0.284-0.285
			c-0.207-0.089-0.095,0.041-0.284-0.285c0.673-0.413,0.185-2.18-0.189-2.091c-0.24-0.65-0.515-0.24-0.474-1.046
			c-0.601-0.063-1.201-0.126-1.801-0.19c-0.053-0.344-0.588-1.186-1.043-1.331c-0.065,0.293-0.11-0.015-0.095,0.286
			c-0.095-0.064-0.189-0.127-0.284-0.191c0.172-0.279,0.293-2.094-0.379-1.901c-0.69-0.849-1.955-0.943-2.844-1.521
			c-0.195-0.738-0.388-1.264,0-2.091c-0.452-0.095-1.069-0.615-1.043-0.665c-0.316-0.634-0.632-1.268-0.948-1.901
			c-0.743,0.238-1.012,0.118-1.896,0.095c-0.32-0.682-0.36-0.614-0.474-1.616c0.679-0.064,0.671-1.191,1.802-1.236
			c-0.187-0.96,0.337-1.958,0.568-2.281c-0.095-0.855-0.189-1.711-0.285-2.566c0.127-0.729,0.253-1.458,0.38-2.186
			c0.379-0.222,0.758-0.444,1.137-0.666c1.287-0.532,1.723,0.481,2.939-0.095c0.67,1.232,2.769,1.376,3.887,1.806
			c0.664,0,1.328,0,1.991,0c0.352,0.165,2.646,0.814,2.56,1.616c0,0.38,0,0.76,0,1.141c1.493,1.67,1.434,1.056,0.474,3.612
			c0.448,0.298,0.711,2.493,1.138,2.376c0.184,0.289,0.031,0.1,0.284,0.19c0.099,0.115,0.667,0.241,0.758,0
			c0.345-0.104,0.887-0.763,1.138-0.95c0.966-0.723,4.614,0.692,5.878,1.141c0.569-0.444,1.138-0.888,1.707-1.331
			c1.593,1.056,2.123-1.294,3.224-0.951c1.255,0.392,3.104,2.926,5.214,1.331c0.298-0.127,0.506-1.364,0.664-1.901
			c0.818,0.104,0.817-0.241,1.518-0.475c0.098,0.877,0.768,0.838,1.706,0.951c0.537-1.119,1.719-0.989,2.466-1.426
			c-0.151-0.957,1.147-2.124,1.517-2.566c0.063-0.507,0.126-1.014,0.189-1.521c0.095-0.095,0.19-0.19,0.285-0.285
			c-0.323-0.762-0.661-3.8-0.758-4.278c0.765-0.698,0.112-1.417,0.664-2.281c0.443-0.285,0.884-0.57,1.328-0.855
			c0.163-0.121,0.153,0.014,0.095-0.19c0.55-2.102-0.617-4.275-0.948-5.704c0.871-0.402,0.017-0.922,0.663-1.806
			c0.228,0.525,1.23,0.604,1.044,1.046c2.737-0.824,2.937,1.052,4.076,2.186c0.569,0.444,1.138,0.888,1.707,1.331
			c0.146,0.139,2.441,0.418,2.275,0.19c1.886-0.57,1.093-2.519,2.749-2.662c-0.102-0.72,0.033-1.26,0.475-1.331
			c0.191-0.197,0.094-0.13,0.474-0.189C65.639,4.427,70.488,1.339,71.015,0z"/>
		<path style="fill-rule:evenodd;clip-rule:evenodd;fill:#010101;" d="M18.015,33.84c0.031,0.063,0.063,0.127,0.095,0.19
			C18.078,33.967,18.046,33.904,18.015,33.84z"/>
	</g>
</g>
<g id="Layer_1">
</g>
</svg>
