<?xml version="1.0" encoding="iso-8859-1"?>
<!-- Generator: Adobe Illustrator 16.0.3, SVG Export Plug-In . SVG Version: 6.00 Build 0)  -->
<!DOCTYPE svg PUBLIC "-//W3C//DTD SVG 1.1//EN" "http://www.w3.org/Graphics/SVG/1.1/DTD/svg11.dtd">
<svg version="1.1" xmlns="http://www.w3.org/2000/svg" xmlns:xlink="http://www.w3.org/1999/xlink" x="0px" y="0px" width="100px"
	 height="100px" viewBox="0 0 100 100" style="enable-background:new 0 0 100 100;" xml:space="preserve">
<g id="BR">
	<path d="M34.578,0l-0.725,1.37l-5.105,1.854l-4.218-1.128l0.108,0.887l1.128,0.725l-0.134,1.37l0.27,1.612l2.095,0.134v0.511
		l-1.612,0.618l-0.752,0.994l-3.224,1.72h-1.854l-1.237-1.236l-0.51,0.375l-0.995-2.122l-1.236,0.511l-0.618-0.511L15.69,8.329
		h-3.708L12.09,9.94l1.127,0.108l0.484,1.129l-2.23,0.134v1.72l1.128,0.886l0.484,1.72l-1.478,6.959L7.63,23.724L5.642,24.96
		l-1.505,1.988L4.03,28.56l-0.886,0.511l-0.86,1.988l0.618,1.747l1.612,1.611l-0.108,1.102l1.344,0.135l0.645,1.127l1.236,0.108
		l2.74-1.612v3.977l0.349,0.375l1.747-0.375l3.117,0.375l1.989-0.993l2.095-2.123l2.982-0.375l0.511,1.262l-0.376,2.848l0.618,1.505
		l1.612,1.102l2.982,0.51l0.618,0.86l2.123,0.511l0.993,0.859h1.478l0.995,0.483l1.263,2.633l-0.511,1.479l0.886,2.472l4.218,0.268
		v2.23l0.995,0.376l0.752,1.854l-0.511,4.97l-0.51,0.242l0.51,4.971l1.989,0.645l1.747-0.376l1.37,0.484l0.859,3.976l2.607,0.135
		L50,74.047l-0.511,2.982l1.612,0.242l0.617,1.746l-0.349,2.121l-2.256,1.102l-7.201,7.577l1.988-0.242l1.612,1.372l0.242,1.102
		l1.128-0.485l1.129,1.236l3.224,1.988l0.482,1.236l1.264,0.993l-0.994,1.264L52.23,100l2.229-2.472l0.51-1.746l2.982-2.364
		l1.854-2.714l1.236-3.116l2.74-2.982l0.376-2.741l0.241-0.375l-0.375-0.727l-0.242-2.256l0.994-1.854l3.977-3.735l4.97-2.095
		l0.376-0.888l5.589-0.24l0.483-0.861l1.988-1.504l0.511-1.853l2.848-4.595l0.51-3.251l0.995-1.478l0.617-4.595l-0.375-3.492
		l0.51-3.091l1.854-0.993l1.988-3.735l2.472-2.229l2.632-3.359l0.995-4.729l-0.646-3.359l-0.859-1.236l-3.842-0.483l-5.857-4.728
		l-1.102-0.376h-4.863l-3.976-1.478l-2.23,0.994l0.377-1.128l-0.995-0.242l0.376-0.618l-0.752-0.995l-1.129,0.484l-0.349-0.995
		l-3.977-1.477l-2.364,0.107l-0.887,1.88l-1.235,0.484l-0.994,1.854l-0.107-1.612l-4.863,0.27L57.2,17.625l0.134-0.725h1.854v-1.263
		l-0.618-0.484l0.483-0.618l-1.477,0.994l-0.243-1.881l3.225-3.466l0.484-1.505l-1.236-0.483l-1.746-5.212l-0.727-0.618
		l-0.375,0.349L54.701,6.34l-1.478,1.102l-2.229,0.242l-1.128-0.726l-1.236-0.51l-1.989,0.241l-0.375,1.37l-1.37-0.107l-1.747-0.269
		l-3.6,1.747l-1.612-0.484l-0.86-0.752V7.066l-0.618-0.618l0.376-2.741l0.618-0.618l-0.376-1.37L36.19,1.477L36.083,0H34.578z
		 M60.316,11.418l-0.51,0.376l0.242,0.618l1.128,0.134L60.316,11.418z M61.929,12.305l-0.376,0.618l0.618-0.269L61.929,12.305z
		 M59.323,12.654l-0.753,0.376l-0.618,0.752l0.242,0.618l1.129-1.102l-0.511-0.134L59.323,12.654z M63.541,12.923l-3.492,0.242
		l-0.726,0.483l0.107,2.74l1.746,0.511l1.854-0.618l1.37-1.746l0.242-1.236L63.541,12.923z"/>
</g>
<g id="Layer_1">
</g>
</svg>
