<?xml version="1.0" encoding="iso-8859-1"?>
<!-- Generator: Adobe Illustrator 16.0.3, SVG Export Plug-In . SVG Version: 6.00 Build 0)  -->
<!DOCTYPE svg PUBLIC "-//W3C//DTD SVG 1.1//EN" "http://www.w3.org/Graphics/SVG/1.1/DTD/svg11.dtd">
<svg version="1.1" xmlns="http://www.w3.org/2000/svg" xmlns:xlink="http://www.w3.org/1999/xlink" x="0px" y="0px" width="100px"
	 height="100px" viewBox="0 0 100 100" style="enable-background:new 0 0 100 100;" xml:space="preserve">
<g id="BW">
	<path d="M55.219,0c0.154,0.012,0.314,0.021,0.47,0.034c0.077,0.112,0.224,0.227,0.27,0.37c0.146,0.465-0.307,0.752-0.201,1.211
		c0.063,0.276,0.214,0.431,0.301,0.639c0.055,0.127,0.014,0.226,0.068,0.37c0.041,0.121,0.183,0.233,0.232,0.336
		c0.051,0.091,0.019,0.188,0.068,0.269c0.22,0.337,0.85,0.494,1.077,0.841c0.078,0.119,0.073,0.232,0.137,0.371
		c0.068,0.154,0.206,0.274,0.27,0.437c0.032,0.146,0.063,0.292,0.101,0.438c0.077,0.162,0.292,0.264,0.369,0.437
		c0.164,0.373,0.118,0.836,0.338,1.144c0.091,0.128,0.26,0.192,0.369,0.303c0.146,0.149,0.196,0.414,0.37,0.538
		c0.137,0.099,0.337,0.103,0.438,0.236c0.206,0.279,0.293,0.703,0.57,0.908c0.224,0.164,0.657,0.205,0.808,0.437
		c0.369,0.561,0.174,1.642,0.57,2.187c0.104,0.143,0.246,0.14,0.406,0.236c0.256,0.154,0.789,0.585,0.939,0.839
		c0.151,0.25,0.379,0.695,0.27,1.146c-0.082,0.339-0.401,0.763-0.132,1.177c0.204,0.323,0.578,0.616,0.739,0.975
		c0.095,0.215,0.04,0.5,0.132,0.74c0.063,0.161,0.205,0.326,0.269,0.472c0.073,0.16,0.037,0.278,0.101,0.47
		c0.092,0.26,0.302,0.57,0.406,0.807c0.104,0.238,0.064,0.568,0.2,0.773c0.11,0.161,0.662,0.481,0.876,0.54
		c0.201-0.013,0.402-0.023,0.607-0.035c0.283,0.076,0.524,0.377,0.538,0.74c-0.055,0.056-0.077,0.11-0.104,0.202
		c0.219,0.124,0.562,0.208,0.707,0.403c0.114,0.153,0.109,0.368,0.269,0.472c0.143,0.089,0.375,0.033,0.539,0.101
		c0.25,0.101,0.557,0.307,0.775,0.471c0.242,0.18,0.169,0.694,0.47,0.808c0.188,0.138,0.584,0.083,0.776,0.202
		c0.191,0.121,0.196,0.454,0.4,0.537c0.164,0.118,0.543,0.063,0.739,0.135c0.407,0.148,0.73,0.452,1.146,0.571
		c0.438,0.126,0.898,0.009,1.277,0.169c0.328,0.138,0.447,0.589,0.776,0.706c0.146,0,0.291,0,0.434,0
		c0.218,0.053,0.461,0.148,0.574,0.303c0.168,0.231,0.178,0.474,0.301,0.773c0.114,0.276,0.324,0.539,0.406,0.841
		c0.06,0.213,0.032,0.564,0.064,0.74c0.063,0.33-0.201,1.312-0.064,1.615c0.055,0.065,0.046,0.056,0.169,0.067
		c0.296-0.229,0.652,0.125,0.972,0.067c0.045-0.008,0.16-0.09,0.206-0.102c0.382-0.103,0.803,0.119,1.107,0.169
		c0.206,0.033,0.365-0.178,0.64-0.102c0.132,0.038,0.236,0.165,0.369,0.202c0.183,0.051,0.26-0.07,0.406,0
		c0.224,0.11,0.333,0.401,0.502,0.572c0,0.156,0,0.313,0,0.471c-0.068,0.238-0.352,0.436-0.232,0.874
		c0.09,0.345,0.364,0.774,0.232,1.346c-0.143,0.615-0.471,1.241-0.302,1.951c0.105,0.453-0.273,0.961-0.137,1.311
		c0.214,0.527,0.529,0.64,0.944,0.942c0.183,0.135,0.548,0.606,0.671,0.808c0.036,0.102,0.068,0.202,0.101,0.304
		c0.113,0.174,0.301,0.311,0.405,0.504c0.082,0.158,0.065,0.275,0.133,0.471c0.105,0.284,0.379,0.614,0.471,0.908
		c0,0.135,0,0.27,0,0.404c0.077,0.254,0.41,0.901,0.606,1.009c0.188,0.103,0.511-0.041,0.739,0.033
		c0.091,0.029,0.204,0.139,0.305,0.169c0.179,0.054,0.438,0.033,0.604,0.067c0.168,0.034,0.328-0.043,0.438-0.067
		c0.241-0.055,0.579,0.002,0.775,0.067c0.402,0.13,0.688,0.275,1.076,0.437c0.155,0.066,0.297,0.221,0.471,0.269
		c0.374,0.103,0.516-0.172,0.707-0.236c0.046-0.015,0.936,0.14,1.009,0.169c0.146,0.056,0.236,0.256,0.369,0.336
		c0.169,0.104,0.374,0.083,0.574,0.168c0.133,0.057,0.247,0.196,0.37,0.269c0.2,0.123,0.447,0.132,0.671,0.235
		c0.109,0.051,0.196,0.18,0.301,0.236c0.15,0.079,0.434,0.163,0.575,0.202c0.191-0.012,0.379-0.021,0.57-0.034
		c0.219,0.068,0.93,0.411,0.977,0.64c0.086,0.284-0.356,0.718-0.438,1.01c-0.287,1.022,0.553,1.597,1.245,1.783
		c0.389,0.104,0.648-0.226,0.808-0.169c0.311,0.113,0.265,0.454,0.438,0.706c0.109,0.161,0.365,0.201,0.502,0.337
		c0.068,0.067,0.1,0.169,0.169,0.235c0,0.044,0,0.09,0,0.134c-0.087,0.104-0.087,0.185-0.233,0.235
		c-0.333,0.237-1.081-0.19-1.346-0.033c-0.155,0.053-0.206,0.214-0.338,0.268c-0.123,0-0.246,0-0.369,0
		c-0.22,0.05-0.726,0.014-0.908,0.136c-0.236,0.085-0.748,0.671-0.808,0.94c-0.045,0.209,0.119,0.312,0.063,0.539
		c-0.063,0.279-0.347,0.817-0.602,0.911c-0.178,0.134-0.492-0.002-0.707,0.034c-0.324,0.666-0.57,0.329-1.209,0.57
		c-0.287,0.109-0.57,0.415-0.844,0.538c-0.27,0.121-0.517-0.059-0.84,0.034c-0.124,0.034-0.241,0.167-0.37,0.203
		c-0.228,0.06-0.424-0.068-0.574-0.103c-0.055-0.014-1.164-0.003-1.177,0c-0.083,0.027-0.652,0.403-0.703,0.472
		c-0.087,0.111-0.123,0.256-0.237,0.336c-0.292,0.198-0.748,0.144-0.876,0.504c-0.128,0.176,0.01,0.531-0.133,0.739
		c-0.091,0.132-0.236,0.113-0.369,0.203c-0.101,0.122-0.205,0.246-0.306,0.369c-0.142,0.103-0.301,0.089-0.369,0.271
		c-0.109,0.173-0.037,0.488-0.169,0.671c-0.302,0.42-1.013,0.183-1.009,0.942c0.097,0.139,0,0.381-0.032,0.504
		c-0.2,0.157-0.405,0.314-0.606,0.47c-0.154,0.046-0.314,0.091-0.47,0.137c-0.092,0.101-0.183,0.201-0.27,0.302
		c-0.045,0.036-0.104,0.022-0.136,0.068c-0.047,0.068,0.004,0.144-0.032,0.234c-0.037,0.089-0.155,0.162-0.201,0.235
		c-0.169,0.26-0.132,0.511-0.538,0.538c-0.438-0.477-0.429-0.046-1.113-0.032c-0.101,0.146-0.201,0.29-0.302,0.437
		c-0.063,0.152-0.014,0.28-0.067,0.472c-0.056,0.188-0.452,0.683-0.604,0.773c-0.159,0.094-0.387-0.048-0.574,0.034
		c-0.196,0.085-0.154,0.258-0.47,0.27c-0.15-0.146-0.342-0.01-0.438,0.101c-0.168-0.042-0.205-0.114-0.401-0.138
		c-0.265,0.432-0.483,0.616-0.944,0.845c-0.096,0.046-0.191,0.014-0.269,0.066c-0.078,0.096-0.068,0.255-0.164,0.335
		c-0.064,0.041-0.188-0.005-0.27,0.034c-0.123,0.058-0.123,0.235-0.206,0.335c-0.109,0.137-0.575,0.256-0.671,0.473
		c0,0.111,0,0.223,0,0.335c-0.063,0.21-0.236,0.42-0.506,0.438c-0.046-0.082-0.105-0.133-0.169-0.201
		c-0.055,0.021-0.032,0.005-0.063,0.031c-0.434,0.382-0.425,0.968-0.607,1.616c-0.278,0.985-0.487,2.053-0.739,3.062
		c-0.108,0.438-0.068,1.454-0.27,1.747c-0.113,0.332-0.633,0.512-0.976,0.606c-0.142,0.041-0.265,0-0.37,0.069
		c-0.026,0.017-0.556,0.478-0.569,0.501c-0.096,0.133-0.138,0.315-0.27,0.406c-0.133,0.087-0.306,0.087-0.438,0.169
		c-0.252,0.15-0.538,0.438-0.708,0.67c-0.195,0.272-0.182,0.562-0.337,0.877c-0.165,0.333-0.579,0.68-0.977,0.772
		c-0.201-0.022-0.401-0.043-0.603-0.065c-0.47,0.118-1.021,0.287-1.482,0.436c-0.192,0.034-0.379,0.066-0.57,0.103
		c-0.178,0.055-0.343,0.2-0.507,0.27c-0.169,0.068-0.355,0.04-0.501,0.132c-0.114,0.068-0.233,0.233-0.37,0.27
		c-0.109,0.032-0.205-0.05-0.269-0.068c-0.233-0.05-0.749,0.136-0.808,0.271c0,0.077,0,0.157,0,0.234
		c0.141,0.181,0.159,1.026,0.063,1.346c-0.082,0.283-0.278,0.589-0.37,0.877c-0.009,0.178-0.022,0.355-0.031,0.535
		c-0.032,0.108-0.128,0.23-0.17,0.336c-0.214,0.567-0.323,1.122-0.606,1.583c-0.442,0.728-0.456,1.815-0.771,2.692
		c-0.037,0.1-0.159,0.204-0.201,0.301c-0.229,0.483-0.47,0.944-0.743,1.378c-0.118,0.196-0.188,0.475-0.37,0.606
		c-0.214,0.154-0.524,0.186-0.738,0.337c-0.53,0.379-1.123,0.913-2.017,0.739c-0.461,0.023-0.922,0.047-1.383,0.066
		c-0.365-0.102-0.644-0.331-1.141-0.369c-0.246,0.244-0.589,0.365-0.876,0.572c-0.155,0.112-0.224,0.311-0.438,0.37
		c-0.156,0-0.315,0-0.47,0c-0.183,0.046-0.365,0.241-0.639,0.168c-0.101-0.026-0.215-0.144-0.302-0.168
		c-0.288-0.082-0.511,0.255-0.944,0.134c-0.306-0.086-0.475-0.294-0.708-0.438c-0.223-0.14-0.547-0.125-0.807-0.235
		c-0.079-0.034-0.159-0.135-0.234-0.168c-0.427-0.188-0.637,0.231-1.111,0.134c-0.216-0.043-0.323-0.198-0.47-0.303
		c-0.107-0.073-0.256-0.058-0.37-0.133c-0.101-0.063-0.123-0.219-0.203-0.304c-0.219-0.234-0.451-0.47-0.673-0.704
		c-0.333,0-0.539,0.045-0.808,0.1c-0.1-0.013-0.201-0.022-0.301-0.036c-0.091,0.031-0.18,0.174-0.27,0.203
		c-0.157-0.011-0.314-0.021-0.472-0.034c-0.076-0.135-0.114-0.302-0.304-0.336c-0.096,0.09-0.411,0.265-0.604,0.135
		c-0.265-0.096-0.304-0.392-0.504-0.538c-0.192-0.137-0.37-0.183-0.504-0.37c-0.057-0.077-0.066-0.202-0.135-0.269
		c-0.114-0.111-0.308-0.105-0.404-0.235c-0.1-0.137-0.127-0.349-0.269-0.438c-0.16-0.101-0.427-0.034-0.572-0.135
		c-0.066-0.092-0.135-0.178-0.201-0.27c-0.267-0.196-0.536-0.34-0.808-0.538c-0.1-0.111-0.203-0.223-0.303-0.337
		c-0.146-0.033-0.292-0.066-0.438-0.101c-0.267-0.137-0.157-0.484-0.57-0.505c-0.125,0.116-0.429,0.135-0.641,0.066
		c-0.217-0.068-0.436-0.21-0.671-0.269c-0.191,0-0.383,0-0.572,0c-0.103-0.021-0.385-0.078-0.538-0.032
		c-0.146,0.041-0.226,0.191-0.336,0.269c-0.118,0.082-0.821,0.397-0.976,0.404c-0.086-0.116-0.119-0.208-0.301-0.235
		c-0.146,0.123-0.292,0.247-0.438,0.369c-0.094,0.129-0.101,0.32-0.237,0.404c-0.142,0.089-0.276,0.104-0.37,0.235
		c-0.132,0.187-0.105,0.512-0.235,0.707c-0.082,0.121-0.342,0.146-0.404,0.269c0,0.066,0,0.135,0,0.201
		c-0.077,0.181-0.157,0.36-0.237,0.538c-0.019,0.192,0.164,0.27,0.169,0.539c-0.388,0.367-0.023,0.321-0.132,0.673
		c-0.153,0.477-0.644,0.454-0.708,1.243c0.137,0.125,0.233,0.241,0.235,0.506c-0.057,0.078-0.111,0.156-0.166,0.235
		c-0.173,0.13-0.311,0.157-0.338,0.436c0.187,0.196,0.128,0.953,0,1.178c-0.096,0.17-0.424,0.207-0.504,0.371c0,0.09,0,0.181,0,0.27
		c-0.062,0.139-0.258,0.239-0.338,0.369c-0.048,0.082-0.016,0.183-0.066,0.27c-0.169,0.146-0.338,0.292-0.506,0.438
		c-0.214,0.331-0.123,0.86-0.706,0.874c-0.089-0.093-0.184-0.13-0.369-0.135c-0.119,0.097-0.276,0.112-0.404,0.203
		c0,0.01,0,0.023,0,0.032c-0.114,0.096-0.116,0.215-0.201,0.338C27.6,93.053,27.5,93.13,27.397,93.21
		c-0.089,0.13-0.073,0.315-0.201,0.404c-0.109,0.077-0.362,0.201-0.469,0.236c-0.124,0-0.247,0-0.37,0
		c-0.16,0.069-0.201,0.339-0.337,0.437c-0.096,0.066-0.205,0.072-0.27,0.167c-0.232,0.353-0.228,0.874-0.404,1.279
		c-0.111,0.255-0.921,1.274-1.143,1.412c-0.379,0.232-0.889,0.301-1.38,0.403c-0.458,0.097-1.193-0.328-1.211,0.372
		c0.178,0.221,0.167,0.796,0,1.041c-0.096,0.141-0.805,0.684-0.977,0.741c-0.187,0-0.379,0-0.57,0
		c-0.144-0.034-0.27-0.135-0.37-0.169c-0.297-0.099-0.402,0.169-0.673,0.103c-0.424-0.11-0.81-0.471-1.38-0.338
		c-0.223,0.053-0.388,0.215-0.57,0.27c-0.246-0.012-0.493-0.023-0.739-0.034c-0.324,0.101-0.712,0.467-1.314,0.303
		c-0.078-0.022-0.191-0.114-0.269-0.134c-0.274-0.076-0.552,0.038-0.773-0.066c-0.335-0.164-0.541-0.491-1.008-0.539
		c-0.573-0.062-1.113,1.096-1.85,0.874c-0.58-0.173-0.849-0.71-1.008-1.312c0-0.181,0-0.36,0-0.538
		c-0.032-0.105-0.168-0.196-0.137-0.37c0.041-0.205,0.274-0.808,0.203-1.044c-0.059-0.188-0.246-0.302-0.303-0.539
		c-0.118-0.494,0.091-1.177,0.338-1.344c0.171-0.116,0.351-0.139,0.47-0.303c0.123-0.169,0.117-0.429,0.235-0.607
		c0.146-0.132,0.292-0.267,0.438-0.401c0.34-0.497,0.447-1.318,0.874-1.716c-0.002-0.453-0.278-0.627-0.37-1.008
		c0.011-0.361,0.022-0.722,0.034-1.077c-0.039-0.155-0.089-0.632-0.169-0.775c-0.036-0.066-0.167-0.128-0.203-0.201
		c-0.073-0.146,0.023-0.168-0.132-0.234c-0.109-0.065-0.205-0.014-0.269-0.135c-0.096-0.166,0.083-0.291,0.032-0.47
		c-0.009-0.041-0.165-0.47-0.201-0.541c-0.091-0.171-0.337-0.216-0.438-0.369c-0.089-0.137,0.014-0.328-0.066-0.505
		c-0.075-0.168-0.239-0.134-0.27-0.403c0.117-0.106,0.226-0.222,0.235-0.436c-0.13-0.104-0.417-0.343-0.47-0.507
		c0-0.234,0-0.47,0-0.707c-0.005-0.004-0.37-0.639-0.37-0.639c-0.146-0.096-0.342-0.059-0.438-0.201
		c-0.034-0.146-0.068-0.291-0.1-0.438c-0.045-0.118-0.169-0.235-0.203-0.337c-0.012-0.11-0.022-0.225-0.034-0.336
		c-0.077-0.066-0.155-0.135-0.235-0.203c-0.041-0.082,0.009-0.167-0.034-0.232c-0.164-0.258-0.457-0.16-0.47-0.607
		c0.151-0.25-0.493-0.985-0.57-1.245c-0.15-0.475-0.518-0.614-0.876-0.874c-0.242-0.175-0.365-0.526-0.638-0.673
		c-0.176-0.091-0.502-0.223-0.673-0.27c-0.112,0-0.226,0-0.336,0c-0.199-0.063-0.333-0.303-0.472-0.438
		c-0.329-0.31-0.769-0.543-0.911-1.04c-0.009-0.607-0.021-1.214-0.032-1.818c-0.077-0.357,0.053-0.878-0.032-1.276
		c-0.082-0.37,0.055-0.902-0.036-1.312c-0.06-0.282-0.03-0.708-0.032-1.045c-0.005-0.438,0.022-1.122-0.069-1.547
		c-0.087-0.401,0.045-0.916-0.032-1.276c0-0.439,0-0.877,0-1.312c-0.169-0.782,0.009-1.679-0.069-2.522
		c-0.118-1.294-0.016-2.71-0.135-4.004c-0.075-0.844,0.103-1.738-0.066-2.522c-0.011-0.863-0.023-1.725-0.034-2.59
		C2.965,55.302,3.1,54.77,3.011,54.359c-0.089-0.415-0.063-1.084-0.068-1.515c0-0.358,0-0.716,0-1.077
		c-0.118-0.561-0.066-1.314-0.066-1.917c0-0.214,0-0.427,0-0.639c-0.08-0.37,0.055-0.9-0.034-1.313c-0.055-0.264-0.05-0.741,0-1.008
		c0.023,0,0.046,0,0.069,0c0.342-0.224,1.663,0.013,2.185-0.102c0.429-0.092,1.018-0.067,1.48-0.067c0.18,0,0.358,0,0.539,0
		c0.273-0.06,0.693,0.035,1.011-0.033c0.586-0.128,1.469-0.067,2.085-0.102c0.903-0.05,1.989,0.132,2.486-0.335
		c-0.255-13.208-0.513-26.418-0.771-39.625c0.165-0.104,0.411-0.107,0.708-0.102c0.127-0.076,0.387-0.006,0.57-0.033
		c0.386-0.058,0.903,0.023,1.312-0.067c0.37-0.082,0.874-0.02,1.243-0.102c0.215,0,0.429,0,0.642,0
		c0.792-0.185,1.649-0.277,2.455-0.504c1.969-0.553,4.117-0.762,6.088-1.312c0.716-0.201,1.403-0.203,2.119-0.404
		c0.983-0.276,2.042-0.354,3.061-0.64c1.713-0.478,3.42-0.726,5.619-0.739c0.078,0.123,0.201,0.271,0.269,0.404
		c0.089,0.18,0.068,0.377,0.167,0.537c0.132,0.218,0.354,0.418,0.47,0.64c0.048,0.084,0.016,0.164,0.069,0.235
		c0.093,0.132,0.374,0.107,0.504,0.202c0.08,0.113,0.157,0.225,0.235,0.336c0.077,0.054,0.184,0.016,0.269,0.067
		c0.217,0.13,0.217,0.433,0.337,0.673c0.053,0.107,0.209,0.192,0.269,0.303c0.235,0.445-0.064,1.591,0.573,1.649
		c0.109-0.088,0.258-0.116,0.37-0.202c0.066-0.09,0.134-0.18,0.201-0.269c0.162-0.109,0.356-0.126,0.504-0.236
		c0.285-0.211,0.427-0.558,0.673-0.808c0.1-0.101,0.253-0.154,0.337-0.268c0.114-0.16,0.183-0.389,0.335-0.505
		c0.091-0.069,0.208-0.068,0.303-0.134c0.194-0.134,0.13-0.493,0.303-0.639c0.189-0.162,0.445-0.167,0.671-0.302
		c0.155-0.092,0.347-0.194,0.506-0.303c0.11-0.077,0.171-0.244,0.301-0.302c0.15-0.067,0.347-0.021,0.472-0.102
		c0.392-0.251,0.561-0.791,1.008-0.975c0.317-0.131,0.75-0.014,1.011-0.034c0.216-0.343,0.438-0.773,1.008-0.773
		c0.196,0.159,0.46,0.194,0.606,0.404c0.105,0.153,0.401,0.75,0.536,0.808c0.19,0,0.382,0,0.574,0c0-0.012,0-0.023,0-0.034
		c0.315-0.115,0.425-0.514,0.603-0.773c0.086-0.12,0.269-0.341,0.406-0.404c0.118-0.056,0.232-0.032,0.337-0.101
		c0.124-0.157,0.246-0.315,0.37-0.471c0.1-0.034,0.201-0.068,0.301-0.101c0.228-0.134,0.448-0.38,0.708-0.471
		c0.26-0.056,0.516-0.112,0.771-0.168c0.159-0.063,0.438-0.307,0.676-0.236c0.077,0.024,0.164,0.144,0.237,0.169
		c0.21-0.012,0.424-0.023,0.639-0.034c0.15,0.048,0.201,0.133,0.47,0.135c0.219-0.209,0.553-0.486,0.839-0.605
		C55.067-0.001,55.158,0.038,55.219,0z"/>
</g>
<g id="Layer_1">
</g>
</svg>
