<?xml version="1.0" encoding="iso-8859-1"?>
<!-- Generator: Adobe Illustrator 16.0.3, SVG Export Plug-In . SVG Version: 6.00 Build 0)  -->
<!DOCTYPE svg PUBLIC "-//W3C//DTD SVG 1.1//EN" "http://www.w3.org/Graphics/SVG/1.1/DTD/svg11.dtd">
<svg version="1.1" xmlns="http://www.w3.org/2000/svg" xmlns:xlink="http://www.w3.org/1999/xlink" x="0px" y="0px" width="100px"
	 height="100px" viewBox="0 0 100 100" style="enable-background:new 0 0 100 100;" xml:space="preserve">
<g id="BY">
	<path d="M0,75.662l6.289-7.332L3.665,47.913l14.659-1.047l-0.519-2.627l5.23-2.609l3.666,2.609l1.57-0.515l-2.095-4.189
		l2.624-9.948l7.846-3.14l1.577-3.142l-3.147-1.047v-2.621l3.147-2.095l3.136-3.662l4.194,1.047l4.707-6.283l3.142-0.529
		l0.529,1.053l9.94,1.571l2.095,1.57l-0.523,3.666l8.378-2.618l7.33,4.707l-0.523,4.715l1.571,3.142l-1.571,6.283l5.76,10.473
		l3.662,3.141l0.529,4.19l4.707-0.527l2.624,1.047l0.518,2.62L100,53.67v2.617L94.24,61l-6.807-2.094l-2.61,2.617l2.089,3.143
		l3.139,13.611L82.2,79.852l-3.143,3.139l-1.041,7.324l-2.101,1.57l-2.094-1.57l-7.331,1.053l-4.187-4.189l-3.142,3.666
		l-6.284-3.143l-5.235,2.613l-1.571-2.613h-2.618l-3.142-3.141l-11.512-3.143l-13.619,0.52l-2.613,3.141l-9.945,2.1l0.518-6.812
		L0,75.662z"/>
</g>
<g id="Layer_1">
</g>
</svg>
