<?xml version="1.0" encoding="iso-8859-1"?>
<!-- Generator: Adobe Illustrator 16.0.3, SVG Export Plug-In . SVG Version: 6.00 Build 0)  -->
<!DOCTYPE svg PUBLIC "-//W3C//DTD SVG 1.1//EN" "http://www.w3.org/Graphics/SVG/1.1/DTD/svg11.dtd">
<svg version="1.1" xmlns="http://www.w3.org/2000/svg" xmlns:xlink="http://www.w3.org/1999/xlink" x="0px" y="0px" width="100px"
	 height="100px" viewBox="0 0 100 100" style="enable-background:new 0 0 100 100;" xml:space="preserve">
<g id="CF">
	<path style="fill:#010101;" d="M55.424,24.613l-9.688,8.528l-10.852,1.551l0.386,2.713l-3.482,3.874l-6.978,0.775l-6.594,3.102
		l-2.325-2.326l-4.258,3.101l-5.039,0.388L0,57.95l0.392,8.134l6.202,10.854l5.423,4.262l7.362-5.812L21.705,75l4.651,1.938
		L31.787,75l1.546-0.775l0.386-5.818l4.264-5.039l4.651,0.392l4.265,4.647l1.941-0.384l5.421,1.938h6.594l3.484-3.877l3.881,1.163
		l9.296-3.101l1.551,1.55l2.713-1.162l0.388-1.167l8.145-0.771l1.932,1.938l1.163-0.775l1.167,0.775l1.547-1.167l3.88,0.392
		l-1.942-3.874l-5.039-3.489l-2.707-5.81l-7.757-5.431l-0.775-3.877l-7.358-2.323l-0.779-1.938l-4.651-1.938v-9.303l-6.202-6.975
		l-5.814,0.775L55.424,24.613z"/>
</g>
<g id="Layer_1">
</g>
</svg>
