<?xml version="1.0" encoding="iso-8859-1"?>
<!-- Generator: Adobe Illustrator 16.0.3, SVG Export Plug-In . SVG Version: 6.00 Build 0)  -->
<!DOCTYPE svg PUBLIC "-//W3C//DTD SVG 1.1//EN" "http://www.w3.org/Graphics/SVG/1.1/DTD/svg11.dtd">
<svg version="1.1" xmlns="http://www.w3.org/2000/svg" xmlns:xlink="http://www.w3.org/1999/xlink" x="0px" y="0px" width="100px"
	 height="100px" viewBox="0 0 100 100" style="enable-background:new 0 0 100 100;" xml:space="preserve">
<g id="CI">
	<path style="fill:#010101;" d="M40.16,92.125l21.251-4.726l25.203,0.787l7.088-0.787l-0.788-7.87l-3.938-2.371l-3.158-12.591
		l7.096-21.263l4.726-3.934l-4.726-14.175l0.788-5.512h-3.15l-4.733-7.088l-7.075-0.787l-11.815,5.512l-4.722-0.788L54.331,6.296
		l-8.663-1.575l-7.083,3.15L37.793,0l-6.299,1.575l-0.783,3.933l-4.726,3.15l-7.875-4.721l-7.088,4.721l-3.149,3.937l0.787,7.088
		l4.725,1.583l1.575,6.282l-3.149,3.946h2.362l1.575,6.291l-8.663-1.558v3.142l3.938,2.358l-3.149,7.875H3.148l3.937,7.087
		L2.36,66.921l9.451,2.371L14.96,75.6l4.725,0.779l-1.574,22.834L22.835,100L40.16,92.125z"/>
</g>
<g id="Layer_1">
</g>
</svg>
