<?xml version="1.0" encoding="iso-8859-1"?>
<!-- Generator: Adobe Illustrator 16.0.3, SVG Export Plug-In . SVG Version: 6.00 Build 0)  -->
<!DOCTYPE svg PUBLIC "-//W3C//DTD SVG 1.1//EN" "http://www.w3.org/Graphics/SVG/1.1/DTD/svg11.dtd">
<svg version="1.1" xmlns="http://www.w3.org/2000/svg" xmlns:xlink="http://www.w3.org/1999/xlink" x="0px" y="0px" width="100px"
	 height="100px" viewBox="0 0 100 100" style="enable-background:new 0 0 100 100;" xml:space="preserve">
<g id="CL">
	<path style="fill:#010101;" d="M53.559,0l-0.52,0.949L51.57,1.355l0.633,3.886l0.203,3.434l-0.316,2.938l-0.633,0.926l0.227,4.406
		l-0.543,1.243v2.305l-1.559,4.79l0.316,2.417l-0.633,0.927l-0.203,0.836l0.52,4.406l-0.316,3.118l-2.598,7.32h-0.543l0.113,1.266
		l-0.949,0.406v3.254l0.543,2.485l-0.633,1.062l-0.43,4.066l0.949,1.039l0.949-0.609l1.355,0.203l-1.062,0.926l0.746,0.113
		l0.09,1.266l-0.293-0.43l-0.316,0.203l0.316,0.52l-0.543,0.43l0.227,0.723l-0.746,1.355l0.43,0.949l-0.746,1.04l1.062,0.745
		l0.09,1.039l-1.445,0.723v0.746l0.52,0.316l-0.746,0.294l-0.203,0.429l0.836-0.316l-0.52,0.521l0.406,0.112l-0.723,0.407
		l-0.113,0.948l0.633-0.632l-0.203,0.745l-0.836,0.836V70.65l-0.316,0.52l-0.406-0.226l0.203-0.52l-0.316-0.836h-1.56l0.52,0.948
		l-1.581,1.04l-0.203,0.724l0.52,0.429l-0.091-0.724l0.52-0.316l0.927,0.611l0.949-0.092l0.52,0.724l-0.316,0.316l0.316,0.316
		l-0.949,0.632l0.949,0.407l-0.203,0.633l0.52-0.204l0.949,1.447l-1.582-0.407l-0.09,0.632l-0.633-0.836l0.203,1.356l1.039-0.113
		l0.316,0.633l-1.039-0.316v2.937l0.836-0.948l-0.203,1.039l0.203,0.521l-0.836,0.316l-0.724,1.355l1.446,1.152l-0.52,0.316
		l0.113,0.429h0.723l0.113,0.294l-0.836,0.226v0.724l0.926,0.948l0.316,2.079l0.316,0.113l-0.203-1.582l0.633,1.469l0.316-0.52
		l-0.316-0.52l0.926,0.203l-0.609-0.723l1.039,0.723l-0.43,0.745l0.52,0.927l-0.609,1.039h2.395l0.949,0.949l-0.52,0.949
		l-1.582,1.039l-0.09-0.52l-0.316,0.09l0.203,0.836l1.152,0.746h1.152l0.52-3.457l3.23-1.875l1.876,0.316l-2.915-0.836l-4.812-0.204
		l-0.406-0.836l-0.113-3.344l-1.988,0.294l-0.09-2.079l0.293-1.875l1.379-2.305l0.406-1.469l-0.113-2.079l1.469-3.141l0.113-3.344
		l0.406-1.152l-1.039-1.039l1.266-0.429l-0.227-0.52l-0.926-0.204l0.09-1.355l-0.52-3.863l0.836-1.875l-0.52-1.469l0.316-3.344
		l0.836-2.938l0.633-1.129l-0.227-1.988l0.113-2.824l1.266-1.582l-0.113-2.079l1.469-2.711l-0.316-1.988L51.57,31.97l0.113-1.04
		l1.039-2.304l0.203-2.282l0.724-2.824l0.948-1.039l0.407-1.062l1.152-0.723l-0.521-3.141l0.227-2.282l2.485-1.152l0.429-1.672
		L58.462,11.5l-1.56-0.113L56.157,7.32l-1.04-1.559l0.113-0.632l0.406-0.316V3.66l-0.926-0.723l-0.226-1.988L53.559,0z
		 M43.527,74.604l-0.316,0.226l0.633,0.407L43.527,74.604z M41.742,76.073l-0.203,0.316l0.723,1.355L41.742,76.073z M41.651,77.316
		l-0.112,0.429v0.52l0.406-0.407L41.651,77.316z M42.781,77.948l-0.294,0.949l-0.429,0.52l0.429,0.633l-0.542-0.113l0.836,0.633
		v1.355l0.542,0.407l0.204-3.548L42.781,77.948z M41.651,80.977l-0.226,0.316l0.633,0.316L41.651,80.977z M42.781,82.965
		l-1.13,0.112l0.927,0.633L42.781,82.965z M43.098,83.484l0.52,0.948l0.633,0.316l-0.203-0.52L43.098,83.484z M42.781,84.229
		l0.43,1.672h0.316l0.09-0.633L42.781,84.229z M43.211,85.901l-0.52,0.927l0.632-0.091L43.211,85.901z M44.77,86.737l0.43,1.04
		l-0.113-0.633L44.77,86.737z M44.16,87.348l0.09,0.633l0.52,0.316l-0.406-0.633L44.16,87.348z M45.086,90.285l-0.406,0.112
		l0.09,0.61L45.086,90.285z M43.098,91.324l0.43,0.745l2.824,1.356L43.098,91.324z M45.289,93.426l0.633,2.078l0.836,0.52
		l1.039-0.203l0.43-0.836l-1.355-1.355L45.289,93.426z M51.57,94.035l-0.52,1.672l0.836,0.543l-0.43-0.43l0.521-0.113L51.57,94.035z
		 M48.859,95.098l-0.52,0.203l0.09,0.836l2.191,0.406L48.859,95.098z M52.723,98.848l0.203,0.52l1.243-0.203L52.723,98.848z
		 M51.457,99.48l0.521,0.52v-0.52H51.457z"/>
</g>
<g id="Layer_1">
</g>
</svg>
