<?xml version="1.0" encoding="iso-8859-1"?>
<!-- Generator: Adobe Illustrator 16.0.3, SVG Export Plug-In . SVG Version: 6.00 Build 0)  -->
<!DOCTYPE svg PUBLIC "-//W3C//DTD SVG 1.1//EN" "http://www.w3.org/Graphics/SVG/1.1/DTD/svg11.dtd">
<svg version="1.1" xmlns="http://www.w3.org/2000/svg" xmlns:xlink="http://www.w3.org/1999/xlink" x="0px" y="0px" width="100px"
	 height="100px" viewBox="0 0 100 100" style="enable-background:new 0 0 100 100;" xml:space="preserve">
<g id="CN">
	<path style="fill:#010101;" d="M81.675,15.179l-4.482,0.663l-1.326,1.488l-0.161,0.502h1.164l0.072,1.237l-1.326,1.166
		l-0.987,2.814l-0.161,0.915l-2.24,1.326l-2.404-1.004l-1.255,1.99l-0.161,2.654l0.251,1.004l2.151,0.251l1.99-1.165l1.488,1.577
		l0.09,0.986l0.502,0.664l-4.321,0.34l-1.99,2.062l-1.327,0.431l-2.062,1.739l-1.99-0.754l-0.592,0.252l-0.735,1.577l0.735,1.166
		l-3.066,2.653L57.719,42.2l-2.169-0.071l-4.555,1.739l-3.98-1.256l-2.655-1.398l-6.132,0.251l-1.668-1.578l-1.237-1.99
		l-3.819-1.667l-1.075,0.09l-2.654-0.825l0.251-0.915l-0.089-1.99l-0.825-2.402l-0.251-0.502l-2.151-0.412l-1.166-1.327
		l-0.485-1.166l-0.592,0.413l-0.753-0.251l-0.646,1.165l-1.165,0.09l-0.412,1.398v1.739l-1.166,0.592l-0.502-0.502l-2.564-0.323
		l-1.165,2.888l0.09,1.667l-3.909,0.915l0.502,0.663l0.663,2.815l-0.502,1.991l-0.322,1.004L8.123,44.19l-0.664,0.825l-2.151,0.43
		l-1.004,1.076L2.08,46.271l-0.251,0.412l-1.327,0.575l-0.179,1.004L0,49.749l0.502,0.753l1.147-0.09l0.18,0.251l0.323,2.403H1.829
		l-0.502,0.252l0.323,0.16l1.166,0.252l0.09,0.502h0.574l0.341,0.412l-0.09,0.824l0.413,0.413l0.574-0.072l0.341,0.412l1.416,0.502
		l2.726-1.094l1.166,0.755l0.09,0.411l0.483-0.161l-0.483,1.488L9.7,58.787l-0.089,0.662l-0.986,0.162l0.071,1.255l0.753,0.412
		L9.7,62.104l-1.004,0.754l-0.412-0.664l-0.412,0.322l0.502,1.076l-0.09,1.004l0.412,0.825l0.843-0.072l2.564,1.561l0.412,0.34
		l0.09-0.502l1.649,0.341l1.327,0.986l0.592,1.004l1.075-0.43l-0.089,0.914l1.667,0.341l-0.09,0.502l0.915,0.323l0.412,0.503
		l1.166-0.163l1.165,0.323l1.237-0.16l0.986-0.342v1.165l0.341,0.161l1.649-1.739l2.402,0.592l0.502,0.323l2.152-0.825l2.492-1.918
		l1.165,0.089l1.237-0.502l0.341,0.915l0.251,0.09l-0.09,0.824l1.238,0.251l0.43,0.413l0.412-0.252l0.484,0.252l0.663,1.166h0.431
		l0.324,1.487l-0.09,1.165l-1.327,1.829L39.143,78.6l1.327-0.573h0.735l0.251,1.416l0.825,0.574l-0.323,1.326l0.986,0.341
		l0.591,0.825l1.075-0.413l0.323,0.252l0.251,0.824l0.592-0.251l-0.09-1.829l0.324-0.251l0.753,0.251l0.341-0.663l0.986,0.412
		l0.573-0.322l0.663,0.251l2.243-1.166l2.168,0.825l0.484,1.488l0.843,0.592l0.987,0.251l0.411-0.341l0.091,0.341l0.502-0.592
		l0.986,0.663l0.824-0.322v1.165l0.663,1.147l0.592-0.251l-0.412-0.896l0.412-0.843l4.052-0.914l0.252-1.237l0.753,0.574v-0.986
		l0.735,0.914l0.502-0.09l-0.09-0.322h0.09l0.34,0.251l0.162-0.251l0.252-0.341l0.07,0.251l0.592-0.412l0.484,0.251l1.506-0.502
		l0.986-0.986l0.826-0.251l0.178-0.251v0.161l0.736-0.753v-0.573l0.914-0.251l1.004-1.579l0.322,0.18l0.502-1.578l-0.251-0.592
		l0.502-0.322l0.073,0.502l1.918-3.156l0.412,0.162l0.412-1.488l-0.161-0.413l0.573-0.09v-0.322v-0.412l-0.573,0.232l0.824-0.734
		l-1.326-0.754l-1.577,0.341l2.814-1.578l-1.237-1.255l-0.914-0.573l-0.735-0.09l0.735-0.161l2.151,0.663l-1.649-1.9l-1.165-3.246
		l-1.65-0.986l0.824-1.326l0.754-0.664l0.072-0.663l0.752,0.251l0.413-0.753l-0.09-0.323l1.326-0.25l0.413-0.502h0.43l0.233,0.412
		l0.502-1.166l-1.739-0.16l-1.165-0.736l-2.152,1.398l-0.824-0.322l-0.413-1.076l-1.164-0.663l-0.754-0.843l0.09-0.484l0.574-0.915
		l0.842,0.162l0.986-0.413l0.663-1.004l1.489-0.824l1.165-1.579l1.165-0.323l0.574,1.237l-1.488,1.991l0.663,0.413l-0.161,0.663
		L77.694,50l0.251,0.09l3.39-2.169l1.667-0.322l0.824-1.167l1.578-0.824l1.668-1.578l0.985,0.502l1.237-0.161l-0.071-1.256
		l1.328-0.071l0.914-0.753l0.824-1.328l0.824,0.825v-0.501l1.076-1.237V38.22l-0.412-1.147l1.416-1.327l1.65,0.574l0.412-0.341
		l1.094-2.224l0.824-2.833l0.735-0.735l-0.161-1.668L100,28.035l-4.481,1.9l-1.579-0.09l-0.484-0.824v-0.986l-0.412-1.166
		l-2.24-1.255l-2.745-0.484l-0.573-3.155l-1.004-2.242l-0.251-1.487l-1.236-1.74l-1.991-0.412L81.675,15.179z"/>
</g>
<g id="Layer_1">
</g>
</svg>
