<?xml version="1.0" encoding="iso-8859-1"?>
<!-- Generator: Adobe Illustrator 16.0.3, SVG Export Plug-In . SVG Version: 6.00 Build 0)  -->
<!DOCTYPE svg PUBLIC "-//W3C//DTD SVG 1.1//EN" "http://www.w3.org/Graphics/SVG/1.1/DTD/svg11.dtd">
<svg version="1.1" xmlns="http://www.w3.org/2000/svg" xmlns:xlink="http://www.w3.org/1999/xlink" x="0px" y="0px" width="100px"
	 height="100px" viewBox="0 0 100 100" style="enable-background:new 0 0 100 100;" xml:space="preserve">
<g id="CR">
	<g>
		<path style="fill-rule:evenodd;clip-rule:evenodd;fill:#010101;" d="M98.061,49.945c-0.008,0.656,0.015,0.546,0.107,0.646
			c0.422,0.971,1.116,0.806,1.832,1.725c0,0.145,0,0.289,0,0.434c-0.216-0.253-0.431-0.504-0.646-0.756
			c-0.179,0.036-0.359,0.072-0.539,0.108c0.012,1.003-0.24,1.423-0.43,1.831c-0.399,0.014-0.997,0.098-0.755,0
			c-0.117-0.051-0.404-0.139-0.216-0.537c-0.416,0.324-0.435,0.553-0.861,0.322c-0.253-0.107-0.503-0.215-0.755-0.322
			c-0.029-0.238,0.045-0.962-0.216-0.756c-0.645-0.813-3.291-2.688-4.634-2.049c-0.17,0.494-0.146,0.326-0.537,0.54
			c0.116,1.312,0.319,2.282,1.077,2.696c-0.037,0.07-0.072,0.143-0.109,0.215c-1.007,0.072-1.843,0.209-2.479,0.646
			c0,3.986,0,7.977,0,11.965c0.144,0.037,0.287,0.072,0.433,0.109c0.21-0.379,0.208-0.498,0.754-0.324
			c0.716,0.355,1.756,1.381,2.692,2.262c0.504,0.109,1.007,0.219,1.51,0.324c0.359,0.684,0.719,1.367,1.077,2.049
			c-1.083,1.295-3.115,2.252-4.849,2.695c0.054,0.32,0.267,1.365,0.108,1.078c-0.057,0.471-0.837,0.84-1.293,1.078
			c0,0.215,0,0.432,0,0.646c2.038,0.979,4.511,8.828,1.078,9.162c-0.993-0.637-4.85,3.342-4.85,3.342
			c0.056,0.246,0.005,0.555,0.43,0.432c0.539,0.986,2.207,1.096,3.018,1.402c-0.036,0.574-0.071,1.148-0.108,1.725
			c1.178-0.043,1.237,3.061,1.187,4.957c-0.072,0.037-0.144,0.072-0.216,0.109c-0.179-0.18-0.359-0.359-0.538-0.539
			c0-0.145,0-0.289,0-0.432c0.143-0.072,0.286-0.145,0.43-0.217c-0.819-2.676-1.164-3.686-2.586-5.389c0,0-0.812-0.123-0.431-0.215
			c-1.319-0.82-4.181-1.869-4.203-3.451c0.975-1.357,1.211-1.268,1.509-2.586c-0.503-0.576-1.006-1.15-1.509-1.725
			c0.037-0.107,0.072-0.217,0.107-0.324c0.396-0.072,0.792-0.145,1.186-0.215c-0.073-0.107-0.144-0.217-0.215-0.324
			c-0.251,0.107-0.503,0.217-0.754,0.324c-0.094-0.518-0.401-0.443-0.755-0.971c0.395-0.043,0.523-0.074,0.971-0.432
			c-0.072,0-0.146,0-0.216,0c-0.324-0.432-0.646-0.861-0.971-1.293c-0.49,0.203-0.479,0.482-0.861,0.215
			c-0.449-0.053-0.396,0.162-0.433-0.322c-0.548,0.148-0.674,0.086-1.076,0.322c-0.036-0.25-0.071-0.502-0.108-0.754
			c-0.523,0.043-1.301-0.02-1.186-0.107c-0.322-0.18-0.646-0.359-0.969-0.539c-0.029-0.725-0.084-0.953,0.215-1.51
			c-0.515,0.062-1.171-0.104-1.724-0.539c-0.855,0.432-0.644,0.24-1.293,0.863c-0.047,0.043-1.344-0.582-1.94,0.107
			c0.319,0.43,0.342,0.561,0.539,0.971c0.561-0.102,0.43-0.004,0.54,0.322c0.478,0.295,0.289,0.988,0.537,1.51
			c1.094,0.201,3.102,2.281,4.312,2.371c-0.201,1.363,0.3,1.451,0.431,2.371c-0.353,0.072-0.248,0.059-0.539,0.432
			c0.503,0.732,0,1.094,0.431,1.725c-0.106,0.107-0.216,0.217-0.322,0.324c-1.438-0.408-4.37-2.201-5.389-2.049
			c-1.02,0.152-3.222-0.334-3.341-0.215c-0.603-0.586-3.256-4.229-4.526-3.99c-0.07-0.393-0.144-0.789-0.214-1.184
			c0.602-0.273,0.998-1.535,0.969-1.834c0.575-0.07,1.149-0.143,1.724-0.215c-0.256-0.717,0.093-0.982,0.54-1.293
			c-0.108-0.287-0.216-0.576-0.324-0.863c0.072,0.035,0.144,0.072,0.216,0.107c0.215-0.145,0.431-0.287,0.646-0.432
			c-0.035-0.107-0.072-0.215-0.107-0.324c0.579-0.203,1.515-0.221,1.939-0.105c-0.041-0.486-0.043-0.363,0.431-0.646
			c0-0.107,0-0.217,0-0.324c-0.071,0.072-0.144,0.145-0.217,0.217c-0.477-0.021-0.417-0.051-0.536,0.537
			c-0.882-0.328-0.755,0.277-1.726-0.107c0.062,0.436-0.109,0.205-0.322,0.754c-0.312-0.275-0.209-0.285-0.54-0.324
			c0.37-0.887,1.228-1.564,2.048-1.615c0.126,0.367,0.294-0.057,0.216,0.322c0.181-0.215,0.359-0.43,0.538-0.646
			c0.8,0.078,1.087,0.682,1.401-0.107c-0.431,0.004-0.14-0.049-0.646-0.324c-0.109,0.234-0.971,0.344-1.185-0.105
			c-0.183,0.227-0.166,0.211-0.217,0.646c-0.265-0.232-0.995-0.424-1.401-0.863c0.202-0.234,0.082-0.021,0.108-0.539
			c0.863,0.332,0.863,0.438,1.832,0.539c0-0.143,0-0.287,0-0.432c-0.071,0-0.144,0-0.217,0c0.504-0.246,0.414-0.15,0.646-0.43
			c-0.577,0.184-1.19,0.473-1.293,0.43c-0.165-0.699-0.612-0.42-1.077-0.863c0.445-0.172,0.429-0.711,0.324-1.508
			c-0.216,0.107-0.432,0.217-0.646,0.324c-0.035-0.646-0.072-1.293-0.107-1.941c0.035-0.072,0.072-0.143,0.107-0.217
			c0.071,0.037,0.144,0.074,0.215,0.109c0.037,0.287,0.072,0.576,0.107,0.861c0-0.07,0-0.145,0-0.215c0.108,0,0.217,0,0.324,0
			c-0.102-1.018-3.068-3.842-3.557-4.203c-0.287,0.035-0.574,0.072-0.86,0.107c0.119-0.586-0.006-1.16-0.324-1.293
			c-0.223-0.416-1.23-0.994-2.154-0.971c0.004-1.236-5.805-4.59-6.574-4.42c-0.747,0.164-2.407-0.641-2.372-0.756
			c-0.573-0.32-0.542-1.242-1.723-2.047c-0.188,0.18-0.026,0.15-0.431,0c0.032-0.508-0.482-1.072-0.754-1.295
			c-0.339,0.426-0.136,0.377-0.646,0.434c0.072,0.107,0.144,0.213,0.215,0.322c-0.143,0-0.287,0-0.431,0
			c-0.072-0.035-0.144-0.072-0.216-0.109c-1.128-0.494-3.322-0.295-4.956-1.4c-0.625,0.115-2.12,0.305-2.371,0
			c-1.026-0.523-3.694-2.62-4.203-4.096c0.183-0.21,0.178-0.522,0-0.755c0.662-0.843,0.484-0.99,1.401-1.509
			c-0.462-2.45-2.098-2.737-2.694-4.312c-0.035-0.144-0.072-0.287-0.107-0.431c0.144-0.036,0.287-0.072,0.43-0.108
			c0-0.037,0-0.071,0-0.108c-0.323-0.395-0.646-0.79-0.969-1.186c0.077-0.272,0.366-0.796-0.108-0.538
			c-0.229-0.485-1.833-0.137-2.803-0.108c0.072-0.179,0.145-0.359,0.216-0.538c-1.097,0.003-3.62-2.393-3.987-3.343
			c-1.199,0.214-1.865-1.736-2.693-1.186c-0.145,0.036-0.288,0.071-0.432,0.108c-0.066-0.379-0.897-1.233-1.185-1.294
			c-0.893,0.238-2.497,0.356-3.018-0.431c-0.188-0.127-0.691-2.812-1.939-2.479c0.071-0.072,0.143-0.144,0.215-0.217
			c-0.395-0.539-0.79-1.077-1.185-1.616c-0.467,0.072-0.934,0.145-1.4,0.216c0.035,0.071,0.071,0.143,0.107,0.215
			c0.882-0.037,1.457-0.215,1.832,0.756c0.342,0.194,0.384,0.827,0.432,0.862c0.27,0.545,0.62,0.188,0.861,0.753
			c0.845,0.808-0.265,3.649,0.432,4.098c0.315,0.695,1.44,1.067,2.048,1.94c-0.576-0.078-0.198-0.185-0.54,0.216
			c0.791,0.574,1.581,1.148,2.371,1.725c0.28,0.305,1.132,0.103,1.833,0.107c0.215,0.323,0.431,0.646,0.646,0.971
			c1.833-0.183,2.409,0.202,3.018,1.077c-0.18,0.18-0.359,0.358-0.538,0.539c0.32,0.72,0.352,0.274,0.753,0.971
			c-0.179,0.144-0.358,0.286-0.539,0.431c0.072,0.108,0.144,0.216,0.215,0.322c0.495-0.123,1.429-0.339,1.833,0
			c-0.073,0-0.145,0-0.216,0c0,0-2.119,1.858-2.586,2.266c0.194,0.144,0.164-0.02,0.108,0.215c-0.044,0.293-0.037,0.422-0.431,0.539
			c-0.045-0.469-0.893-0.693-1.617-0.107c0.037,0.144,0.072,0.287,0.108,0.43c0.363,0.425,0.18,0.117,0.431,0.648
			c-2.646,0.781-1.805,3.069-2.802,3.557c-0.028,0.077-0.251,0.448-0.539,0.324c-0.954-1.741-2.957-4.997-4.741-5.93
			c0.085-0.344,0.004-0.55,0.107-0.862c-0.235-0.052-4.698-2.914-5.388-2.048c-0.419,0.083-0.072,0.042-0.43,0.323
			c-0.037-0.071-0.072-0.145-0.108-0.216c-0.267-0.045-0.093,0.145-0.323-0.107c-0.063-0.754-4.24-0.45-5.388-1.402
			c0.174-0.159,0.224-0.004,0.107-0.215c0.036-0.516-2.663-4.524-2.91-4.527c-0.221,0.172-0.352-0.893-0.646-0.539
			c-0.939-1.11-0.285-2.166-1.509-3.45c-0.175-0.183-0.61-3.132-0.324-2.803c0-0.377,0.112-0.274,0.432-0.754
			c-0.072,0-0.145,0-0.216,0c-0.12-0.779-0.645-0.81-1.077-1.294c0.548-0.197,1.132-0.63,1.508-1.616
			c0.271,0.115,0.418,0.086,0.754,0.106c0.054-0.651,0.494-1.067,0.754-1.617c-0.443-0.207-0.777-1.246-0.97-1.725
			c0.774-0.056,0.342-0.214,0.97-0.753c0.288,0.143,0.575,0.286,0.863,0.43c0.101-0.075,3.315-2.603,3.232-2.802
			c0.072,0,0.144,0,0.215,0c-0.143-0.412,0-0.225-0.323-0.432c-0.251-0.072-0.503-0.144-0.754-0.215
			c-0.327,0.523-0.324,0.657-0.755,0.754c0.036-0.072,0.073-0.144,0.108-0.216c0.05-0.219,0.405-1.344,0.97-1.186
			c-0.135-1.457-0.535-1.688-0.107-3.126c-0.711-0.448-0.828-0.773-1.401-1.294c0,0-2.432-0.026-2.91-0.216
			c-0.037-0.18-0.072-0.358-0.108-0.539c0.682,0.004,0.35,0.092,0.648-0.215c-0.073-0.071-0.145-0.145-0.216-0.216
			c-0.61,0-1.222,0-1.832,0C1.972,11.802,1.29,13.084,0,12.001c0.719-0.006,1.986-0.925,2.37-0.755c0-0.251,0-0.503,0-0.755
			c0.417,0.015,1.438,0.126,1.294,0.323c0.232,0.125,0.085,0.156,0.215,0.755c0.072,0.036,0.144,0.073,0.215,0.108
			c0.454-0.256,0.311-0.15,0.54-0.432c-0.073-0.036-0.145-0.072-0.216-0.107c0.072,0,0.144,0,0.216,0
			c0.681-0.62,1.585-0.034,2.37,0.107c-0.037-0.072-0.073-0.144-0.108-0.216c0.221-0.193,0.077-0.001,0.216-0.323
			c-0.145-0.106-0.288-0.216-0.432-0.323c0.473-0.165,0.52-0.016,0.862-0.431c-0.374-0.87-1.416-1.575-1.939-1.51
			c0.181-0.648,0.508-0.685,0.862-0.861c0.018,0.229,0.158,0.623,0.54,0.538c0.584,0.075,0.692-0.318,1.078-0.216
			c-0.128-0.466-0.23-0.858-0.431-1.186C7.412,6.684,7.25,6.456,7.435,6.61C7.64,5.299,9.007,3.453,9.914,2.299
			c0.387,0.167,0.963,0.12,1.293,0.432c0.467,0.467,0.934,0.934,1.401,1.401c0.538,0.477,1.801,0.441,2.585,0.97
			c0.718,0,1.438,0,2.156,0c1.58,0.862,3.161,1.725,4.741,2.587c2.874,0.971,5.748,1.94,8.622,2.912
			c0.808-0.634,6.479-3.953,6.68-3.882c0.966,0.207,1.93,1.643,3.125,0.646c0.107,0.288,0.215,0.575,0.323,0.862
			c1.429-0.265,2.897,1.943,3.34,1.833c1.324,0.595,1.709-0.854,2.479-0.862c0.073,0.035,0.144,0.071,0.216,0.107
			c0.072,0.072,0.144,0.144,0.216,0.216c0.249,0.521-0.183,1.45,0.431,1.833c1.176,0.732,3.346,1.11,3.341,2.264
			c0.01,0.529-0.379,0.633-0.323,1.186c0.195,0.062,2.799,0.862,2.799,0.862c0.334,0.106-0.013,0.029,0.324,0.323
			c1.062-0.275,0.925,0.477,1.939,0c0.002-0.33-0.103-0.151,0.108-0.431c0.201,0.229,0.086,0.068,0.433,0.216
			c0.322-0.296,0.148-0.131,0.322-0.54c0.108,0.036,0.214,0.072,0.324,0.108c0.312,0.85,1.607,1.808,2.908,2.479
			c0.058-0.295-0.074-0.125,0.217-0.215c0.07-0.037,0.142-0.073,0.214-0.108c1.373-0.552,5.376-2.494,7.004-2.371
			c0.032-1.073-0.51-4.027-0.43-4.204c1.457,0.856,2.112,1.706,2.478,3.664c-0.427-0.011-0.475,0.168-0.538,0.323
			c0.107,0.432,0.216,0.863,0.322,1.294c-0.322,0.36-0.646,0.719-0.969,1.079c-0.646-0.217-1.293-0.433-1.94-0.647
			c0,0.107,0,0.215,0,0.324c0.258,0.007,1.282,0.314,1.51,0.538c-0.136,0.437-0.084,0.295-0.216,0.431
			c-0.278,0.502-0.529,0.273-1.186,0.54c0.179,0.179,0.359,0.358,0.539,0.538c0.314-0.181,1.024-0.65,1.185-1.186
			c-0.076-0.118-0.074-0.374,0.108-0.215c0.095-0.258,0.732-0.715,0.969-0.863c0,0.294,0.035,0.598,0.433,0.755
			c-0.33-0.652-0.229-1.312,0.216-1.617c-0.037,0.071-0.073,0.144-0.11,0.215l1.94,5.068c-0.036,0.143-0.071,0.286-0.106,0.43
			c1.274,0.865,1.492,3.544,2.586,4.959c1.551,2.007,3.022,3.881,4.742,5.714c1.032,1.102,4.472,6.695,5.604,6.574
			c0.145,0.004,1.051-0.403,1.615,0.108c0.011,1.428,5.075,7.93,5.819,7.87c0.304-0.029,0.409-0.269,0.754,0
			c-0.542,0.47,0.304,1.25,0.322,1.186C93.996,49.931,94.558,49.845,98.061,49.945z"/>
		<path style="fill-rule:evenodd;clip-rule:evenodd;fill:#010101;" d="M66.379,10.814c0.072,0,0.145,0,0.216,0
			C66.406,10.92,66.57,10.914,66.379,10.814z"/>
		<path style="fill-rule:evenodd;clip-rule:evenodd;fill:#010101;" d="M68.965,14.588c0.431,0.271,0.261,0.403,0.538,0.755
			c-0.105,0.144-0.214,0.287-0.322,0.432c0-0.18,0-0.36,0-0.54C69.11,15.019,69.037,14.804,68.965,14.588z"/>
		<path style="fill-rule:evenodd;clip-rule:evenodd;fill:#010101;" d="M7.435,20.518c0.073,0,0.145,0,0.216,0
			C7.579,20.518,7.507,20.518,7.435,20.518z"/>
		<path style="fill-rule:evenodd;clip-rule:evenodd;fill:#010101;" d="M3.879,23.536c0.036,0.07,0.072,0.143,0.107,0.215
			C3.951,23.679,3.915,23.606,3.879,23.536z"/>
		<path style="fill-rule:evenodd;clip-rule:evenodd;fill:#010101;" d="M4.203,25.583c0.072,0,0.144,0,0.215,0
			C4.229,25.689,4.395,25.683,4.203,25.583z"/>
		<path style="fill-rule:evenodd;clip-rule:evenodd;fill:#010101;" d="M22.629,35.286c0.989,0.094,1.352,0.123,1.725,0.538
			c-0.501,0.303-0.169-0.041-0.432,0.432c0.072-0.037,0.144-0.071,0.215-0.108c0.312,0.341,0.39-0.111,0.755,0.215
			c-0.072-0.034-0.144-0.071-0.215-0.106c-0.098,0.564-2.277,0.899-2.048,0.106c-0.338-0.069-0.347-0.229-0.646-0.753
			C22.341,35.52,22.37,35.679,22.629,35.286z"/>
		<path style="fill-rule:evenodd;clip-rule:evenodd;fill:#010101;" d="M24.461,35.717c0.071,0,0.144,0,0.215,0
			C24.605,35.717,24.532,35.717,24.461,35.717z"/>
		<path style="fill-rule:evenodd;clip-rule:evenodd;fill:#010101;" d="M24.354,35.933c0.072,0,0.144,0,0.215,0
			C24.497,35.933,24.425,35.933,24.354,35.933z"/>
		<path style="fill-rule:evenodd;clip-rule:evenodd;fill:#010101;" d="M28.771,36.902c0.072,0,0.144,0,0.215,0
			c-0.107,0.072-0.215,0.144-0.323,0.216C28.7,37.046,28.736,36.975,28.771,36.902z"/>
		<path style="fill-rule:evenodd;clip-rule:evenodd;fill:#010101;" d="M22.845,37.656c0.107,0,0.215,0,0.323,0
			c-0.072,0.072-0.145,0.144-0.216,0.217C22.917,37.8,22.88,37.729,22.845,37.656z"/>
		<path style="fill-rule:evenodd;clip-rule:evenodd;fill:#010101;" d="M23.06,37.873c0.072,0.071,0.144,0.144,0.215,0.216
			C23.204,38.017,23.132,37.944,23.06,37.873z"/>
		<path style="fill-rule:evenodd;clip-rule:evenodd;fill:#010101;" d="M25.431,39.166c0.598,0.058,0.586,0.098,0.862,0.432
			c-0.072,0.071-0.143,0.144-0.215,0.216c-0.401-0.173-0.696-0.06-0.54-0.432C25.503,39.311,25.467,39.237,25.431,39.166z"/>
		<path style="fill-rule:evenodd;clip-rule:evenodd;fill:#010101;" d="M27.586,39.166c0.323,0.036,0.646,0.071,0.97,0.108
			c0.035,0.107,0.072,0.216,0.107,0.323C28.228,39.514,27.987,39.486,27.586,39.166z"/>
		<path style="fill-rule:evenodd;clip-rule:evenodd;fill:#010101;" d="M25.539,39.704c0.072,0,0.144,0,0.216,0
			C25.682,39.704,25.61,39.704,25.539,39.704z"/>
		<path style="fill-rule:evenodd;clip-rule:evenodd;fill:#010101;" d="M30.496,40.46c0.144,0,0.287,0,0.432,0
			c-0.037,0.18-0.072,0.358-0.108,0.539c-0.417-0.051-0.288-0.01-0.432-0.107c-0.269-0.129-0.106,0.067-0.215-0.217
			C30.49,40.61,30.288,40.787,30.496,40.46z"/>
		<path style="fill-rule:evenodd;clip-rule:evenodd;fill:#010101;" d="M8.297,42.077c0.072,0,0.144,0,0.215,0
			C8.441,42.077,8.369,42.077,8.297,42.077z"/>
		<path style="fill-rule:evenodd;clip-rule:evenodd;fill:#010101;" d="M32.759,44.341c0.072,0.071,0.144,0.144,0.215,0.216
			C32.902,44.484,32.831,44.412,32.759,44.341z"/>
		<path style="fill-rule:evenodd;clip-rule:evenodd;fill:#010101;" d="M30.712,45.85c0.144,0,0.287,0,0.431,0
			c-0.108,0.144-0.215,0.288-0.323,0.432C30.783,46.138,30.748,45.993,30.712,45.85z"/>
		<path style="fill-rule:evenodd;clip-rule:evenodd;fill:#010101;" d="M24.461,52.641c0.036,0.072,0.071,0.145,0.107,0.216
			C24.532,52.785,24.497,52.713,24.461,52.641z"/>
		<path style="fill-rule:evenodd;clip-rule:evenodd;fill:#010101;" d="M49.785,54.367c0.243,0.158,0.16,0.146,0.323,0.537
			c-0.144-0.107-0.287-0.215-0.431-0.324C49.713,54.51,49.75,54.438,49.785,54.367z"/>
		<path style="fill-rule:evenodd;clip-rule:evenodd;fill:#010101;" d="M50.54,55.012c0.072,0,0.144,0,0.215,0
			C50.567,55.119,50.731,55.109,50.54,55.012z"/>
		<path style="fill-rule:evenodd;clip-rule:evenodd;fill:#010101;" d="M52.262,56.953c0.037,0.072,0.073,0.143,0.11,0.217
			C52.335,57.096,52.299,57.025,52.262,56.953z"/>
		<path style="fill-rule:evenodd;clip-rule:evenodd;fill:#010101;" d="M67.779,67.732c0.108,0,0.217,0,0.324,0
			c-0.064,0.318,0.114,0.115-0.216,0.322C67.896,67.715,67.806,68.072,67.779,67.732z"/>
		<path style="fill-rule:evenodd;clip-rule:evenodd;fill:#010101;" d="M68.212,70.428c0.144,0.035,0.287,0.072,0.431,0.107
			c0,0.145,0,0.289,0,0.432c-0.304-0.031-0.08,0.057-0.217-0.217C68.16,70.629,68.305,70.805,68.212,70.428z"/>
		<path style="fill-rule:evenodd;clip-rule:evenodd;fill:#010101;" d="M68.318,71.506c-0.045,0.1,0.087,0.072-0.106,0.215
			C68.247,71.65,68.283,71.576,68.318,71.506z"/>
		<path style="fill-rule:evenodd;clip-rule:evenodd;fill:#010101;" d="M69.936,73.338c0.326,0.137,0.129-0.002,0.324,0.217
			C70.149,73.48,70.044,73.41,69.936,73.338z"/>
		<path style="fill-rule:evenodd;clip-rule:evenodd;fill:#010101;" d="M60.345,77.109c0.108,0,0.217,0,0.322,0
			c-0.035,0.109-0.07,0.219-0.105,0.324c-0.108,0.037-0.217,0.072-0.324,0.109C60.274,77.398,60.308,77.256,60.345,77.109z"/>
		<path style="fill-rule:evenodd;clip-rule:evenodd;fill:#010101;" d="M77.048,78.512c0.07,0,0.144,0,0.216,0
			C77.191,78.512,77.118,78.512,77.048,78.512z"/>
		<path style="fill-rule:evenodd;clip-rule:evenodd;fill:#010101;" d="M81.79,80.561c0.106,0.037,0.214,0.072,0.322,0.107
			c0.037,0.287,0.07,0.574,0.108,0.863c-0.66-0.123-0.613-0.225-0.755-0.756C81.574,80.705,81.682,80.633,81.79,80.561z"/>
	</g>
</g>
<g id="Layer_1">
</g>
</svg>
