<?xml version="1.0" encoding="iso-8859-1"?>
<!-- Generator: Adobe Illustrator 16.0.3, SVG Export Plug-In . SVG Version: 6.00 Build 0)  -->
<!DOCTYPE svg PUBLIC "-//W3C//DTD SVG 1.1//EN" "http://www.w3.org/Graphics/SVG/1.1/DTD/svg11.dtd">
<svg version="1.1" xmlns="http://www.w3.org/2000/svg" xmlns:xlink="http://www.w3.org/1999/xlink" x="0px" y="0px" width="100px"
	 height="100px" viewBox="0 0 100 100" style="enable-background:new 0 0 100 100;" xml:space="preserve">
<g id="CZ">
	<g>
		<path style="fill:#010101;" d="M32.027,78.478c-0.195-0.235-1.002-0.514-1.792-0.619c-1.561-0.207-2.047-0.696-2.075-1.434
			c-0.016-0.404-0.827-1.269-1.206-1.573c-0.148-0.119-0.508-0.261-0.869-0.579c-0.322-0.284-1.088-0.561-1.303-0.97
			c-0.101-0.19-0.261-0.691-0.58-1.059c-0.318-0.367-0.884-1-1.148-1.158c-0.269-0.161-0.725-0.291-0.915-0.646
			c-0.685-1.28-1.699-1.801-2.135-1.096c-0.333,0.539-1.468-0.597-1.595-1.424c-0.122-0.796-1.399-2.442-2.116-2.508
			c-0.19-0.018-0.509-0.052-0.708-0.076s-0.32-0.314-0.423-0.604c-0.11-0.308-0.238-0.541-0.495-0.735
			c-0.255-0.193-0.689-0.562-0.854-1.033c-0.165-0.472-0.497-0.724-0.737-0.979c-0.115-0.122-0.248-0.578-0.374-0.758
			c-0.386-0.549-1.231-1.15-1.704-1.107c-1.185,0.109-1.805-0.022-1.907-0.411c-0.061-0.231-0.336-0.834-0.807-1.28
			c-0.471-0.446-0.833-1.193-0.959-1.629c-0.13-0.45-0.341-0.762-0.469-1.044c-0.098-0.215-0.315-0.618-0.457-1.054
			c-0.147-0.455-0.236-0.635-0.414-0.936c-0.095-0.161-0.232-0.394-0.323-0.714c-0.172-0.609-0.424-0.961-0.941-1.394
			c-0.906-0.756-0.922-0.807-0.435-1.347c0.279-0.309,0.3-0.903,0.438-1.131c0.172-0.284,1.228-1.696,1.228-2.294
			c0-0.231-0.204-0.421-0.454-0.421c-0.313,0-0.4-0.17-0.281-0.546c0.166-0.521-0.507-1.113-2.506-2.202
			c-0.289-0.157-0.52-0.401-0.593-0.516c-0.121-0.188-0.225-0.504-0.583-0.797c-0.504-0.412-0.574-0.612-0.309-0.882
			c0.265-0.27,0.232-0.522-0.141-1.107c-0.266-0.417-0.668-0.9-0.894-1.075c-0.285-0.221-0.198-0.277-0.089-0.516
			c0.073-0.161,0.127-0.39,0.158-0.624c0.038-0.284,0.013-0.425,0.312-0.425c0.261,0,0.562,0.228,0.668,0.507
			s0.432,0.763,0.722,1.076c0.291,0.313,0.382,0.658,0.394,0.92c0.009,0.207,0.053,0.507,0.283,0.697
			c0.298,0.248,0.427,0.253,0.453,0.021c0.072-0.642,0.116-0.784,0.679-2.148c0.387-0.938,0.783-1.437,1.231-1.55
			c0.387-0.097,0.661-0.385,0.661-0.696c0-0.712,0.354-0.889,1.812-0.904c0.676-0.007,1.381-0.136,1.566-0.286
			c0.658-0.533,1.895-0.57,2.443-0.073c0.501,0.454,0.584,0.454,1.277,0c0.407-0.267,0.507-0.602,0.605-0.704
			c0.52-0.538,0.526-0.703,1.421-1c0.906-0.302,1.143-0.154,1.501-1.012c0.237-0.567,0.607-0.689,0.772-0.842
			c0.253-0.232,0.505-0.257,0.914-0.6c0.514-0.431,0.816-0.63,1.191-0.146c0.373,0.481,0.443,0.462,1.123-0.3
			c0.399-0.447,0.725-1.08,0.725-1.407c0-0.403,0.119-0.471,0.425-0.511c0.234-0.031,0.295-0.02,0.53-0.095
			c0.159-0.05,0.569-0.19,1.005-0.207c0.717-0.027,1.943-0.135,2.891-0.253c0.199-0.025,0.362-0.306,0.362-0.625
			c0-0.322,0.193-0.579,0.434-0.579c0.239,0,0.485-0.149,0.599-0.259c0.192-0.185,0.136-0.203,0.487-0.277
			c0.818-0.172,3.403-1.079,3.403-1.482c0-0.165,0.452-0.3,1.003-0.3c0.703,0,1.096-0.171,1.31-0.572
			c0.261-0.488,0.199-0.599-0.424-0.755c-0.402-0.101-0.73-0.365-0.73-0.586s-0.184-0.403-0.407-0.403
			c-0.266,0-0.354-0.203-0.254-0.584c0.203-0.778,0.385-0.851,1.241-0.497c0.398,0.165,0.945,0.273,1.215,0.24
			c1.25-0.151,2.819,1.331,1.966,1.857c-0.492,0.304-0.037,0.678,0.617,0.507c0.543-0.142,0.576-0.092,0.29,0.442
			c-0.498,0.93-0.417,1.061,0.981,1.578c1.125,0.417,1.303,0.424,1.303,0.056c0-0.547,1.29-1.044,2.15-0.828
			c0.604,0.151,0.679,0.044,0.853-1.229c0.122-0.887,0.019-1.298-0.115-1.497c-0.124-0.184-0.205-0.224,0.017-0.491
			c0.336-0.405,1.137-0.257,1.512,0.28c0.146,0.209,0.312,0.168,0.507-0.124c0.233-0.349,0.337-0.36,0.534-0.057
			c0.134,0.208,0.362,0.355,0.507,0.328c0.777-0.146,0.987,0.093,0.987,1.125c0,0.819,0.188,1.27,0.725,1.736
			c0.398,0.346,0.724,0.891,0.724,1.211c0,0.658,0.3,0.745,0.811,0.233c0.271-0.271,0.425-0.271,0.696,0
			c0.191,0.191,0.749,0.348,1.239,0.348s1.191,0.21,1.557,0.466c0.419,0.293,0.969,0.406,1.482,0.303
			c0.701-0.14,0.868-0.042,1.171,0.689c0.296,0.715,0.499,0.841,1.261,0.783c0.829-0.063,0.915,0.013,0.998,0.873
			c0.11,1.145,0.284,1.17,1.091,0.159c0.604-0.756,0.649-0.766,1.356-0.303c0.69,0.452,0.74,0.449,0.872-0.053
			c0.2-0.764,1.586-0.451,2.632,0.594c0.694,0.694,0.753,0.857,0.362,1.007c-0.256,0.099-0.466,0.43-0.466,0.736
			s-0.229,0.645-0.507,0.751c-0.279,0.106-0.638,0.298-0.797,0.425c-0.159,0.128-0.629,0.378-1,0.66c0,0-0.594,0.348-0.638,0.598
			c-0.027,0.156,0.715,0.771,0.715,0.771c0.474,0.511,0.909,0.721,1.288,0.622c0.436-0.114,0.47,0.004,0.798,0.489
			c0.213,0.314,0.443,0.661,0.625,0.809c0.494,0.401,2.396,2.138,2.404,2.967c0.008,0.777,1.068,2.005,1.731,2.005
			c0.397,0,1.372-0.968,1.929-1.915c0.177-0.301,0.586-0.614,0.713-0.679c0.228-0.115,0.335-0.217,0.694-0.288
			c0.39-0.077,0.884-0.229,1.117-0.139c0.234,0.09,0.908-0.163,0.489-0.455c-0.144-0.101-0.298-0.163-0.272-0.362
			c0.099-0.758-0.039-1.053-0.571-1.222c-0.304-0.096-0.542-0.564-0.747-0.958c-0.206-0.395-0.396-0.809-0.506-0.974
			c-0.11-0.167-0.234-0.385-0.144-0.622c0.141-0.367,0.47-0.326,2.223,0.282c1.131,0.392,2.398,1.029,2.815,1.416
			s1,0.703,1.296,0.703c0.362,0,0.538,0.212,0.541,0.651c0.004,0.532,0.058,0.572,0.295,0.217c0.252-0.375,0.354-0.355,0.753,0.145
			c0.321,0.402,0.36,0.34,0.599,0.217c0.226-0.116,0.654-0.362,1.398-0.362c0.956,0,1.367-0.148,1.69-0.61
			c0.541-0.772,0.948-0.529,1.124,0.669c0.152,1.037-0.188,1.518-1.395,1.977c0,0-0.757,0.153-0.787,0.299
			c-0.028,0.132,0.663,0.707,0.663,0.707c0.365,0.389,0.755,0.511,0.893,0.564c0.334,0.129,0.467,0.205,0.755,0.629
			c1.103,1.619,2.055,2.433,2.603,2.226c0.746-0.283,1.254-0.838,1.254-1.371c0-0.689,0.794-0.545,1.504,0.271
			c0.412,0.474,1.861,1.011,2.081,1.011s0.615,0.293,0.88,0.652c0.33,0.447,0.369,0.288,0.627,0.205
			c0.594-0.193,1.021-0.369,1.808,0.183c0.525,0.368,0.741,0.389,1.085,0.104c0.553-0.458,0.671-0.318,0.761,0.9
			c0.091,1.228,1.145,4.012,1.457,3.705c0.232-0.228,0.229-0.309,0.657,0.045c0.289,0.239,0.76,0.395,1.045,0.346
			c0.396-0.067,0.565,0.17,0.717,1.014c0.109,0.606,0.351,1.229,0.461,1.434c0.343,0.632,0.136,1.079-1,1.604
			c-0.669,0.309-1.423,0.441-1.931,0.34c-0.76-0.151-0.923-0.027-1.81,1.386c-0.536,0.854-1.054,1.801-1.284,2.131
			c-0.206,0.297-0.961,0.817-1.759,1.108c0,0-1.104,0.222-1.451,0.528c-0.228,0.2-0.626,2.513-0.626,2.513
			c-0.429,1.721-0.983,2.901-1.607,3.457c-0.267,0.237-0.565,0.449-0.822,0.58c-0.238,0.123-0.517,0.256-1.035,0.778
			c-0.544,0.548-0.97,0.82-1.412,1.157c-0.452,0.345-0.685,0.383-1.195,0.886c-0.437,0.429-0.99,1.128-1.599,1.489
			c-0.561,0.332-1.179,0.353-1.543,0.148c-0.355-0.199-0.753-0.157-1.327,0.14c-0.749,0.388-0.904,0.372-1.789-0.175
			c-0.803-0.496-1.109-0.545-1.79-0.286c-1.183,0.449-2.334,1.929-2.853,3.665c-0.518,1.73-1.021,2.242-1.026,1.046
			c-0.006-1.022-0.381-1.593-0.853-1.4c-0.206,0.083-0.921,0.125-1.626,0.02c-1.01-0.152-1.283-0.312-1.283-0.754
			c0-0.402-0.2-0.477-0.707-0.562c-0.383-0.064-0.729-0.195-0.893-0.302c-0.271-0.177-1.363-0.031-2.077,0.817
			c-0.596,0.709-0.775,0.752-2.866,0.686c-2.339-0.075-3.665-0.541-4.158-1.461c-0.159-0.299-0.656-0.528-1.059-0.678
			c-0.389-0.146-0.655-0.37-0.793-0.444c-0.401-0.216-1.051-0.155-1.398-0.086c-0.155,0.03-0.618,0.022-1.256-0.28
			c-0.637-0.303-0.965-0.392-1.456-0.56c-0.436-0.149-0.959-0.394-1.425-0.607c-0.436-0.2-1.267-0.688-1.522-0.9
			c-0.533-0.441-1.592-0.412-1.732-0.142c-0.069,0.135-0.301,0.37-0.733,0.492c-0.633,0.179-0.82,0.115-0.961-0.329
			c-0.162-0.512-0.497-0.686-1.108-0.575c-0.136,0.024-0.412-0.093-0.613-0.26c-0.669-0.555-0.988,0.369-1.079,3.118
			c-0.083,2.504-0.241,3.069-0.667,2.379c-0.099-0.159-0.562-0.289-1.031-0.289c-0.65,0-0.718,0.182-0.852,0.562
			c-0.103,0.292-0.32,0.681-0.603,0.985c-0.315,0.34-0.663,0.865-0.764,1.616c-0.195,1.456-0.528,1.712-1.208,0.928
			c-0.379-0.438-0.602-0.51-0.839-0.273c-0.236,0.237-0.516,0.196-1.051-0.155c-0.917-0.601-0.771-0.511-1.208,0.065
			c-0.241,0.318-0.265,0.336-0.508,0.616c-0.16,0.184-0.439,0.261-0.625,0.579C32.671,78.951,32.512,79.062,32.027,78.478
			L32.027,78.478z"/>
	</g>
</g>
<g id="Layer_1">
</g>
</svg>
