<?xml version="1.0" encoding="iso-8859-1"?>
<!-- Generator: Adobe Illustrator 16.0.3, SVG Export Plug-In . SVG Version: 6.00 Build 0)  -->
<!DOCTYPE svg PUBLIC "-//W3C//DTD SVG 1.1//EN" "http://www.w3.org/Graphics/SVG/1.1/DTD/svg11.dtd">
<svg version="1.1" xmlns="http://www.w3.org/2000/svg" xmlns:xlink="http://www.w3.org/1999/xlink" x="0px" y="0px" width="100px"
	 height="100px" viewBox="0 0 100 100" style="enable-background:new 0 0 100 100;" xml:space="preserve">
<g id="DE">
	<path style="fill-rule:evenodd;clip-rule:evenodd;" d="M46.077,0.945L46.077,0.945c0.595,0.172,2.851,0.958,3.332,2.25
		c0.16,0.429,0.108,1.439-0.165,1.959c-0.271,0.515-0.631,0.46-0.44,0.906c0.281,0.657,0.616,0.268,0.929,0.488
		c0.159,0.111,0.009,0.604,0.192,0.697c0.179,0.09,0.55,0.137,0.723-0.001c0.09-0.072-0.022-0.342,0.073-0.368
		c0.34-0.094,0.783-0.134,1.256,0.126c0.175,0.094,0.262,0.316,0.44,0.442c0.638,0.452,0.678,0.907,1.177,1.014
		c0.745,0.159,1.492,0.045,2.121-0.086c0.171-0.035,0.081-0.488,0.234-0.521c0.458-0.099,1.031,0.126,1.218,0.245
		c0.217,0.138,0.314,1.099,0.017,1.686c-0.349,0.688-1.411,1.273-1.906,1.918c-0.542,0.709-0.488,1.456-0.227,1.654
		c0.12,0.09,0.29,0.422,0.658,0.294c0.389-0.136,0.981-0.737,1.394-0.716c0.454,0.023,0.567,0.325,0.939,0.428
		c0.622,0.171,1.186,0.565,1.456-0.1c0.295-0.728,1.919-2.124,2.714-2.386c1.173-0.385,2.116-0.466,2.466,0.169
		c0.479,0.873,2.024-2.998,2.937-3.457c0.333-0.168,2.111-0.352,2.257-0.048c0.15,0.315-2.387,1.808-2.242,2.138
		c0.231,0.534,2.932-1.733,3.441-1.4c0.215,0.14,0.647,0.176,1.146,0.694c0.331,0.343,1.018,0.922,1.215,1.392
		c0.222,0.521,1.019,1.307,1.782,1.485c0.525,0.123,1.159-0.052,1.495,0.226c0.423,0.351,0.873,0.958,1.016,1.732
		c0.144,0.774-0.018,1.715,0.328,2.04c1.245,1.159,3.148,0.453,3.317,1.144c0.107,0.44-0.057,0.996,0.051,1.466
		c0.06,0.263,0.372,0.451,0.462,0.691c0.26,0.686,0.676,1.237,0.82,2c0.206,1.083,0.091,2.428-0.038,3.413
		c-0.206,1.561-1.768,2.676-1.643,4.217c0.085,1.035,2.333,2.108,2.39,3.126c0.08,1.504-0.091,2.822,0.01,4.328
		c0.022,0.31,0.64,0.371,0.661,0.683c0.16,2.419,0.304,4.889,0.477,7.465c0.106,1.551,2.48,2.762,2.48,4.426
		c0,1.643-0.403,3.496-0.83,5.01c-0.169,0.594-0.188,0.89-0.548,1.418c-0.259,0.381-1.263,0.18-2.198-0.762
		c-0.599-0.602-0.852-1.467-1.23-1.968c-0.312-0.416-0.798-0.562-0.854-0.294c-0.063,0.3-0.335,0.604-0.404,0.906
		c-0.483,2.172-0.423,2.283-6.296,4.345c-0.416,0.144-0.667,0.862-1.056,1.222c-0.738,0.688-1.598,1.168-2.434,1.555
		c-1.691,0.783-3.624,0.462-4.892,1.576c-0.659,0.58-0.673,1.527-1.319,2.026c-0.689,0.53-2.326-2.068-2.645-1.631
		c-0.443,0.615-0.468,1.627,2.653,3.555c0.373,0.232,0.597,1.43,0.58,2.529c-0.017,1.172-0.045,2.104,0.356,2.9
		c0.464,0.913,1.253,1.624,1.981,2.367c3.512,3.577,7.393,7.161,9.304,9.079c0,0,0.076,1.176-0.345,1.664
		c-0.539,0.628-1.681,0.662-2.551,1.334c-0.938,0.725-0.451,2.077-1.738,2.589c-2.371,0.938-3.707,1.404-3.926,3.188
		c-0.37,2.998,0.978,3.121,1.06,4.361c0.094,1.362,0.228,1.961-0.663,2.401c-0.503,0.249-0.996,0.099-1.299-0.258
		c-0.18-0.216-0.094-0.578-0.453-0.77c-0.516-0.273-1.921-0.19-2.759-0.278c-0.503-0.053-0.471-0.283-0.847-0.362
		c-0.388-0.079-0.575,0.756-1.004,0.825c-1.289,0.207-2.918,0.074-3.908,0.101c-2.445,0.066-3.541,2.499-5.725,2.13
		c-1.815-0.309-3.127-1.605-4.539-1.717c-1.586-0.124-1.558,2.22-3.186,2.151c-1.836-0.078-1.736-2.306-3.75-2.619
		c-2.156-0.334-2.924,0.81-2.924,0.81c-0.376-0.574-1.155-0.982-1.87-1.431c-1.23-0.772-2.751-1.326-4.295-1.675
		c-1.11-0.25-2.33,0.33-3.572,0.319c-2.452-0.021-6.634,0.255-7.515-0.668c-0.52-0.547-0.738-1.349-0.729-2.315
		c0.008-0.818,0.174-1.432,0.378-2.432c0.108-0.524,0.141-1.387,0.35-1.936c0.681-1.81,1.419-3.77,2.5-5.508
		c1.028-1.647,2.395-3.092,3.251-4.185c0.289-0.369,0.094-0.925,0.129-1.3c0,0-3.227-1.796-6.292-2.802
		c-1.3-0.427-2.208-0.878-3.112-1.059c-0.507-0.103-1.321,0.167-1.454-0.119c-0.448-0.968-0.915-2.058-1.664-3.183
		c-0.479-0.72-1.422-0.653-1.435-2.182c-0.006-0.545,0.461-0.566,0.521-1.119c0.095-0.878-0.049-1.892,0.14-2.803
		c0.094-0.453-1.039-0.54-0.925-0.994c0.125-0.49-0.109-1.056,0.066-1.553c0.083-0.229,0.641,0.249,0.734,0.02
		c0.089-0.222,0.004-0.876-0.028-1.064c-0.033-0.203-0.29-0.175-0.393-0.297c-0.316-0.371-0.307-0.302-0.368-0.495
		c-0.084-0.262-0.141-0.454-0.094-0.555c0.312-0.654,0.861-0.857,1.296-1.476c0.276-0.395,0.112-0.856,0.115-1.377
		c0.004-0.532-0.292-0.82-0.388-1.374c-0.096-0.553,0.006-1.372-0.209-1.817c-0.073-0.146-0.241-0.082-0.331-0.185
		c-0.1-0.114,0.051-0.531-0.021-0.656c-0.105-0.179-0.302-0.042-0.302-0.198c0-1.53-0.007-2.556,0.08-4.067
		c0.063-1.089,1.09-0.744,1.244-1.775c0.08-0.531,0.011-1.194,0.087-1.87c0.042-0.369,0.31-0.504,0.37-0.893
		c0.099-0.644-0.011-1.549-0.009-2.219c0.009-1.45-0.229-2.863-0.027-3.914c0.077-0.404,0.406-0.744,1.27-0.392
		c0.481,0.197,1.45,0.917,2.064,1.104c0.901,0.272,1.468-0.132,2.109-1.108c0.679-1.031,0.715-1.562,1.389-2.305
		c0.595-0.656,1.847-1.517,2.154-2.455c0.11-0.34,0.329-0.713-0.174-1.208c-0.301-0.293-0.948-0.453-1.356-0.766
		c-0.598-0.458-0.928-1.062-0.871-1.394c0.126-0.768,0.454-0.698,0.985-1.006c0.528-0.307,1.26-0.989,1.73-1.693
		c0.215-0.319,0.544-0.68,0.673-1.263c0.088-0.398-0.014-1.009,0.079-1.348c0.108-0.4,0.287-0.382,0.39-0.727
		c0.098-0.32-0.016-0.563,0.062-0.917c0.045-0.206,0.335-0.127,0.412-0.34c0.127-0.356,0.052-0.996,0.122-1.217
		c0.051-0.161,1.429-0.271,2.241,0.179c0.651,0.361,0.771,1.309,0.812,1.182c0.187-0.577-0.417-1.168-1.479-2.244
		c-0.337-0.342-1.155-0.477-1.395-0.839c-0.413-0.621,0.231-1.132,0.852-1.902c0.425-0.525,0.42-1.1,1.314-1.312
		c0.323-0.076,1.247-0.019,2.157-0.009c0.856,0.009,1.701-0.034,2.013,0.027c0.579,0.11,1.55,0.417,1.804,1.06
		c0.412,1.036-0.01,2.544,0.783,2.49c0.213-0.014,0.481,0.078,0.551-0.194c0.047-0.186-0.109-0.723-0.004-0.875
		c0.101-0.146,0.537-0.191,0.643-0.223c0.346-0.102,1.427,3.614,1.86,3.079c0.214-0.261-0.339-0.625-0.354-0.897
		c-0.051-0.851-0.322-1.719-0.296-3.276c0.014-0.874,0.158-1.975,1.472-2.464c0.64-0.241,2.975,0.348,2.977-0.138
		c0.001-0.634-1.297-0.811-1.392-1.486c-0.052-0.375-0.078-0.752,0.189-1.105c0.141-0.183,0.688-0.327,0.652-0.531
		c-0.066-0.39-0.684-0.645-0.77-1.04c-0.051-0.241-0.144-0.583-0.017-0.877c0.045-0.107,0.451-0.208,0.433-0.295
		c-0.101-0.454-1.4-0.397-1.515-0.839c-0.122-0.468,0.359-0.998,1.061-1.397c0.603-0.345,1.436-0.56,1.385-0.941
		c-0.163-1.169-1.144-1.939-1.581-2.862C39.792,1.156,39.819,0,39.819,0c0.326,0.395,0.829,0.182,1.87,0.401
		c0.692,0.145,1.096,0.496,1.879,0.681c0.784,0.183,1.947,0.2,2.363,0.142C46.031,1.209,46.054,1.086,46.077,0.945L46.077,0.945z"/>
</g>
<g id="Layer_1">
</g>
</svg>
