<?xml version="1.0" encoding="iso-8859-1"?>
<!-- Generator: Adobe Illustrator 16.0.3, SVG Export Plug-In . SVG Version: 6.00 Build 0)  -->
<!DOCTYPE svg PUBLIC "-//W3C//DTD SVG 1.1//EN" "http://www.w3.org/Graphics/SVG/1.1/DTD/svg11.dtd">
<svg version="1.1" xmlns="http://www.w3.org/2000/svg" xmlns:xlink="http://www.w3.org/1999/xlink" x="0px" y="0px" width="100px"
	 height="100px" viewBox="0 0 100 100" style="enable-background:new 0 0 100 100;" xml:space="preserve">
<g id="DJ">
	<g>
		<path style="fill-rule:evenodd;clip-rule:evenodd;fill:#010101;" d="M79.866,0c0.211,0.312,0.297,0.218,0.096,0.479
			c-0.173,0.195-0.001,0.068-0.287,0.191c-0.012-0.255-0.148-0.14-0.479-0.479C79.419,0.128,79.643,0.064,79.866,0z"/>
		<path style="fill-rule:evenodd;clip-rule:evenodd;fill:#010101;" d="M14.718,98.466c-2.4,0.088-2.903-0.451-4.311-0.958
			c-0.67-0.242-1.952,0.304-2.683-0.097c-0.416-0.447-0.831-0.895-1.246-1.342c0.688-2.326-0.365-4.745,0-9.301
			c-0.127-2.301-0.256-4.602-0.383-6.903c0.352-1.661,0.703-3.323,1.054-4.984c-0.543-2.238-1.086-4.476-1.629-6.712
			c0.97-3.935,2.515-9.258,3.354-13.04c1.062-0.229,1.942-1.539,2.97-1.246c0.03-0.297,0.227-2.281,0.767-2.205
			c0.047-0.127-0.039-0.079,0.096-0.096c0.16-0.096,0.319-0.191,0.479-0.287c1.29-0.239,2.193-1.156,3.545-2.302
			c0.327-0.277,1.457-2.005,1.149-2.397c0.875-1.21,2.755-4.679,3.641-5.369c0-0.032,0-0.064,0-0.096
			c0.096-0.127,0.191-0.255,0.288-0.383c0.785-0.835,1.263-1.551,1.724-2.109c0.064,0.032,0.128,0.064,0.192,0.096
			c0.664-0.947,0.567-2.715,2.299-2.972c-0.504-2.366,3.663-5.64,4.024-7.479c0.064-0.096,0.128-0.191,0.192-0.288
			c-0.149-0.165,1.311-1.487,1.054-1.822c1.333-1.628,4.513-2.567,4.12-4.89c-0.2-1.177,3.877-6.412,4.024-6.424
			c0.351-0.479,0.703-0.958,1.054-1.438c0.083-0.875,2.314-2.583,3.928-2.397c0.325,0.645,0.999,0.475,1.341,0.863
			c0.064,0.032,0.128,0.064,0.192,0.096c0.288,0.255,0.575,0.511,0.862,0.767c0.479,0.224,0.958,0.447,1.437,0.671
			c1.505,1.516,3.81,4.71,5.365,4.89c0.128,0.096,0.256,0.192,0.384,0.288c0.379,0.406,0.785,1.742,1.437,1.15
			c0.063,0,0.128,0,0.191,0c0-0.032,0-0.063,0-0.096c0.064-0.128,0.128-0.255,0.191-0.383c0.032,0.032,0.063,0.064,0.096,0.096
			c0.097-0.128,0.192-0.255,0.288-0.384c0.511-0.063,1.021-0.127,1.533-0.191c0.562-0.427,0.712-1.166,1.148-1.63
			c0,0,0.226-0.056,0.097-0.096c0.088-0.057,1.534-0.373,1.82-0.096c0.446-0.447,0.894-0.895,1.341-1.342
			c-0.063-0.512-0.127-1.023-0.191-1.534c-0.352-0.191-0.703-0.383-1.054-0.575c0.001-0.718-0.016-0.953-0.096-1.438
			c1.584-0.883,1.191-2.01,3.161-2.589c-0.036-0.922,0.067-1.782,0.575-2.205c0.096,0,0.192,0,0.287,0
			c-0.046-1.378,0.457-1.719,1.149-2.013c1.447,1.282,2.832-0.35,3.545-0.671c0.023,0.134,1.262-0.802,1.438-0.863
			c0.382-0.133,0.461,0.366,0.862,0c0.026-0.248-0.008-0.264,0.287-0.383c1.296-0.527,4.507-2.614,6.994-2.493
			c0.531,3.264,3.25,6.226,4.694,8.246c0.352,0.224,0.702,0.448,1.054,0.671c1.141,2.018,1.923,3.631,3.449,4.986
			c0.128-0.096,0.256-0.192,0.383-0.288c0.032-0.352,0.063-0.703,0.096-1.055c0.968,0.667,0.198,2.763,0.767,3.452
			c1.046,1.265,1.653,2.691,2.3,5.369c0.032,0.831,0.063,1.662,0.095,2.493c0.543,1.286,1.463,1.984,1.917,3.164
			c0.265,0.689-0.262,2.242,0,2.589c2.051,2.714-1.581,10.037-1.82,10.354c-0.097,0-0.191,0-0.287,0
			C90.72,42,89.377,40.49,88.201,41.323c-0.213,0.104-0.729,0.666-0.671,0.958c-1.257,0.017-2.533,0.073-3.449-0.096
			c0,0.128,0,0.256,0,0.384c-0.43-0.176-2.065-0.243-2.396,0c-0.246,0.182-6.946,7.662-6.993,7.958
			c-1.099,0.002-4.298,0.376-4.407,0.288c-0.81,0.644-0.375,1.638-1.724,1.822c-0.093-0.617-2.848-0.404-3.642-0.863
			c-0.159,0.225-0.319,0.447-0.479,0.672c-0.673,0.412-1.198-0.09-1.437,0.287c-0.031,0.031-0.063,0.064-0.096,0.096
			c0.012,0.013-0.358,0.168-0.192,0.384c-0.591,0.687-1.784,0.083-2.777,0.959c-0.063-0.032-0.128-0.063-0.191-0.097
			c0,0-1.959,3.539-1.725,3.836c-0.122,0.144-1.03,0.622-1.15,0.479c-1.123,1.313-1.325,1.784-1.819,3.26
			c0.063,0.288,0.128,0.576,0.19,0.863c-0.235,0.986-0.817,0.684-0.574,2.014c-0.638-0.281-0.858-0.499-1.341,0
			c-0.438-0.396-0.646-0.556-0.958-0.671c0.127,0.191,0.255,0.383,0.383,0.575c-0.16,0.031-0.319,0.064-0.479,0.096
			c-0.344-0.542-1.335-0.756-1.916-1.055c-0.229,0.335-0.788,0.531-1.149,0.575c-0.224-0.761-1.512-1.363-2.491-1.534
			c0.029,0.328,0.118,0.143-0.096,0.384c-0.02-0.303-0.035-0.202-0.287-0.096c-0.288,0.16-0.575,0.319-0.862,0.479
			c0.108,0.527-0.061,0.865,0.575,1.055c0.239,0.406,0.457,0.193,0.671,0.671c-0.483,0.082-0.574,0.46-0.767,0.863
			c0.096,0.096,0.192,0.191,0.288,0.287c0.016,0.096,3.671,3.066,4.216,3.164c0.845,0.259,1.454-0.196,1.82-0.096
			c-0.064-0.416-0.264-0.395,0.096-0.575c0.26-0.303,1.914,0.244,2.683,0c-0.132-0.446-0.126-0.939,0-1.343
			c-0.44-0.07-1.596-0.506-1.629-1.342c0.94-0.148,1.166-0.433,1.341-1.055c0.304,0.286,0.227,0.343,0.671,0.287
			c0.864-0.111,2.211-1.304,2.97-0.959c0.002-0.293-0.092-0.134,0.096-0.383c1.241,0.287,1.808-0.149,2.778-1.151
			c1.118,0.422,1.624-0.425,2.587,0c-0.032-0.191-0.064-0.383-0.097-0.575c0.064,0.063,0.129,0.128,0.192,0.192
			c0.075,0.261,0.009-0.009,0.192,0.191c0.006,0.422,2.003,0.128,2.49,0.097c1.663-0.11,8.055,0.235,9.485-0.48
			c0.28,0.583,1.162,0.882,1.054,1.151c0.83-0.288,1.661-0.576,2.491-0.863c-0.032-0.191-0.064-0.384-0.097-0.575
			c-0.128-0.096-0.255-0.192-0.383-0.287c-0.032-0.063-0.064-0.128-0.096-0.192c0.224,0,0.447,0,0.671,0
			c-0.029-0.262-0.055-0.314,0.096-0.575c0.032,0.032,0.063,0.064,0.096,0.096c-0.003,0.225,0.375,1.246,0.096,0.959
			c0.376,1.483,2.071,5.009,2.778,5.178c0.118,0.151,1.511,0.422,1.629,0.479c0.076,0.688,0.22,1.467,0.957,1.821
			c-3.958,6.583-7.92,13.168-11.88,19.751c-0.318,0.479-0.638,0.958-0.958,1.438c-0.072,0.67-2.778,5.562-2.778,5.562
			c-1.367,0.014-3.821,0.761-5.173,0.095c-0.331,0.117-0.82,0.445-1.438,0.289c-0.873-0.225-1.487-0.591-2.395-0.575
			c-0.141-2.352-1.227-2.872-1.917-4.603c-0.736,0.229-3.28,0.87-3.544,0.671c-0.483-0.093-0.514-0.445-0.767-0.862
			c-1.004,0.308-1.832-0.403-2.107-0.863c-0.965,0.289-6.471,3.214-6.994,2.685c-0.111,0.09-0.035,0.241-0.191,0.096
			c0,0.063,0,0.128,0,0.191c-0.064-0.032-0.128-0.063-0.192-0.096c-1.623,1.243-2.823,2.382-4.407,3.164
			c-0.823,0.407-2.395-1.05-3.065-1.056c-0.192,0-0.383,0-0.575,0c-0.304,0.221-2.201,1.057-2.778,0.479
			c-0.606,0.466-1.071,0.43-1.82,1.151c-0.17,0.164-3.335,0.424-3.641,0.575c-0.223-0.352-0.447-0.703-0.67-1.055
			c-0.553,0.164-2.135,0.392-2.683,0c0,0-2.727,1.596-3.353,1.055c-0.29,0.221-0.6,1.685-0.671,1.917
			c-2.399,0.096-3.934,0.874-4.599-0.19c-0.786,0.295-0.631,0.401-1.246,0.862c-0.35-0.088-0.196,0.004-0.383-0.192
			c-0.159-0.095-0.319-0.19-0.479-0.287C14.718,99.169,14.718,98.817,14.718,98.466z"/>
		<path style="fill-rule:evenodd;clip-rule:evenodd;fill:#010101;" d="M88.585,13.423c0.031,0.064,0.062,0.127,0.095,0.191
			C88.647,13.55,88.616,13.487,88.585,13.423z"/>
		<path style="fill-rule:evenodd;clip-rule:evenodd;fill:#010101;" d="M66.549,52.157c0.063,0,0.128,0,0.191,0
			C66.677,52.157,66.612,52.157,66.549,52.157z"/>
		<path style="fill-rule:evenodd;clip-rule:evenodd;fill:#010101;" d="M81.878,64.525c0.096,0.064,0.191,0.128,0.287,0.191
			c-0.063,0.063-0.128,0.128-0.191,0.192c-0.063-0.064-0.128-0.129-0.192-0.192C81.813,64.653,81.846,64.59,81.878,64.525z"/>
	</g>
</g>
<g id="Layer_1">
</g>
</svg>
