<?xml version="1.0" encoding="iso-8859-1"?>
<!-- Generator: Adobe Illustrator 16.0.3, SVG Export Plug-In . SVG Version: 6.00 Build 0)  -->
<!DOCTYPE svg PUBLIC "-//W3C//DTD SVG 1.1//EN" "http://www.w3.org/Graphics/SVG/1.1/DTD/svg11.dtd">
<svg version="1.1" xmlns="http://www.w3.org/2000/svg" xmlns:xlink="http://www.w3.org/1999/xlink" x="0px" y="0px" width="100px"
	 height="100px" viewBox="0 0 100 100" style="enable-background:new 0 0 100 100;" xml:space="preserve">
<g id="DK">
	<path style="fill-rule:evenodd;clip-rule:evenodd;fill:#010101;" d="M47.935,37.5c0.148,0,0.297,0,0.446,0
		c0.249,0.493,0.291,1.211,0.446,1.339c0-0.037,0-0.075,0-0.112c0.038,0.037,0.075,0.075,0.112,0.112
		c0.121,0.132,0.216,0.444,0.558,0.669c0.165,0.151,0.322,0.223,0.669,0.223c-0.003,0.224-0.114,0.031,0,0.224
		c0.132-0.09,0.188-0.087,0.447-0.112c-0.004,0.224-0.115,0.031,0,0.224c0.113-0.09,0.03-0.041,0.223-0.112
		c-0.003,0.223-0.114,0.031,0,0.223c0,0,0.864-0.055,1.228,0.111c1.072-0.628,4.094-1.125,5.247-0.558
		c0.234,0.375,0.803,0.888,0.561,1.451c0.531,0.005,0.804,0.657,1.115,0.894c0,0.037,0,0.074,0,0.111
		c0.075-0.037,0.148-0.074,0.224-0.111c0,0.037,0,0.074,0,0.111c0.085,0.12,0.067,0.106,0.112,0.335
		c-0.312-0.019-0.314,0.015-0.67,0.223v2.679c-0.39,0.608-0.853,0.866-1.006,1.562c-0.186,0-0.372,0-0.559,0
		c0.02,0.492-0.286,1.277-0.67,1.563c-0.178,0.175-0.576,0.221-0.893,0.334c-0.229,0.768-0.002,2.333-0.447,2.79
		c-0.145,0.098-0.275,0.101-0.559,0.111c-0.042-0.25-0.079-0.73-0.111-0.781c-0.1,0.072-0.22,0.034-0.446,0.112
		c0.038-0.112,0.075-0.223,0.112-0.335c-0.283-0.043-0.177,0.065-0.224-0.334c0.111,0.037,0.224,0.074,0.335,0.111
		c0.021-0.259,0.021-0.315,0.111-0.446c0.037,0.037,0.074,0.074,0.111,0.112c-0.127-0.404-0.117-0.556-0.223-1.005
		c-0.111,0.037-0.224,0.074-0.335,0.112c0.003-0.224,0.114-0.031,0-0.224c-0.188,0.099-0.648,0.072-0.894,0
		c-0.193,0.675-0.529,0.694-0.781,1.005c-0.084,0.136-0.016,0.111,0,0.446c-0.274-0.032-0.055-0.073-0.336,0
		c0.12,0.548,0.768,2.214,0.113,2.456c-0.153-0.025-0.221,0.014-0.561,0c0.02-0.471-0.213-0.44-0.334-0.782
		c0.004-0.065-0.077-0.177-0.11-0.558c0.185,0,0.371,0,0.558,0c0.125-0.463,0.199-0.188,0.223-0.893c-0.036,0-0.073,0-0.111,0
		c-0.15,0.181-0.071,0.125-0.335,0.223c-0.056-0.357-0.805-0.755-1.117-0.446c-0.263,0.264-0.039,0.515-0.781,0.559
		c-0.286-0.555-0.224-0.58-0.559-1.116c0.075,0,0.149,0,0.224,0c0.121-0.1,0.431-0.121,0.558-0.224
		c0.072-0.1,0.034-0.22,0.111-0.446c0.196,0.07,0.109,0.021,0.224,0.112c0.248,0.294,0.097,0.381,0.335,0.446
		c0.304,0.089,0.325,0.061,0.671,0c-0.039-0.037-0.076-0.074-0.113-0.112c-0.003-0.312-0.107-0.693-0.223-1.116
		c0.074,0.038,0.148,0.075,0.223,0.112c0-0.037,0-0.074,0-0.112c-0.016-0.365,0.397-0.794,0.557-1.227
		c-0.303,0.01-0.364-0.025-0.669-0.112c-0.088-0.234,0.004-0.202-0.111-0.335c-0.251,0.161-0.679,0.108-1.341,0.112
		c-0.035,0.402-0.081,0.373,0,0.669c-0.373-0.023-0.268-0.24-0.446,0.112c-0.199,0.145-0.249,0.788-0.334,1.004
		c-0.008,0.003-1.077,0.455-0.782,0.781c-1.125,0.874-1.206,0.701-1.451,2.456c0.356,0.195,0.35,0.176,0.447,0.445
		c-0.043,0.102,0.018,0.74,0,0.893c0.247,0.037,0.12-0.115,0.223,0.112c-0.191,0.161,0.511,1.065,0.447,1.563
		c-0.475,0.312,0.336,0.215,0.111,0.557c-0.083,0.126-0.375,0.248-0.447,0.335c-0.047,1.155,0.003,1.491,0,3.014
		c-0.554,0.026-0.102-0.055-0.446,0.335c-0.074-0.037-0.149-0.074-0.223-0.111c0,0.037,0,0.074,0,0.111
		c0.089,0.114,0.039,0.031,0.111,0.224c-0.272,0.015-0.41-0.096-0.559,0.334c-0.037,0.038-0.074,0.075-0.111,0.112
		c0.282,0.043,0.176-0.064,0.223,0.334c-0.1,0.148,0.209,0.648-0.334,0.781c-0.217-0.605-0.53-0.219-0.782-0.781
		c0.057-0.269,0.181-0.137-0.111-0.334c-0.114,0.09-0.03,0.039-0.223,0.111c-0.004-0.211,0.033-0.324-0.112-0.447
		c-0.394,0.335-2.066,0.342-2.456,0.224c0.037,0.038,0.074,0.075,0.111,0.112c0.215,0.086-0.223,0.111-0.223,0.111
		c-0.038-0.037-0.075-0.074-0.112-0.111c-0.021,0.401,0.166,0.23-0.223,0.334c-0.35-0.27-0.676-0.121-0.782,0
		c-0.173,0.127-0.094,0.121-0.335,0.225c0.114,0.089,0.03,0.039,0.223,0.11c0.061,0.147,1.378,0.698,1.787,0.671
		c-0.038,0.073-0.075,0.148-0.112,0.223c0.037,0,0.074,0,0.112,0c0.335-0.168,1.05,0.15,1.228,0.223
		c-0.075,0.224-0.149,0.447-0.224,0.67c-0.075-0.037-0.149-0.074-0.224-0.112c-0.029,0.66-0.16,0.157-0.446,0.559
		c0,0,0.113,0.525,0.111,0.67c0.038,0.037,0.075,0.074,0.112,0.111c0.26,0,0.521,0,0.781,0c-0.037,0.074-0.075,0.148-0.111,0.224
		c0.037,0,0.074,0,0.111,0c0-0.038,0-0.075,0-0.112c0.037,0.037,0.075,0.074,0.112,0.112c0.089,0.114,0.04,0.03,0.111,0.224
		c-0.037,0-0.074,0-0.111,0c-0.228-0.14-0.34-0.047-0.559-0.112c0.032,0.274,0.074,0.054,0,0.334
		c-0.371,0.115-0.658,0.006-0.781,0.224c-0.028,0.108-0.088,0.043,0,0.112c0.126,0.371,0.24,0.396,0.558,0.559
		c-0.037,0.036-0.075,0.073-0.111,0.11c-0.402,0.263-0.807,0.183-1.117,0.335c0-0.111,0-0.223,0-0.335
		c-0.873-0.035-2.21,0.104-2.457,0.781c-0.199-0.154-0.249-0.11-0.335-0.224c-0.037,0-0.074,0-0.111,0
		c0.037-0.073,0.075-0.148,0.111-0.223c-0.037,0-0.074,0-0.111,0c-0.393,0.256-1.369-0.21-1.563-0.445
		c-0.22-0.166,0.063-0.16-0.334-0.224c-0.514-0.375-2.144-0.071-2.568,0.11c0.074,0.113,0.149,0.224,0.223,0.336
		c0.284-0.073,1.541,0.021,1.787-0.112c0.307,0.264,0.203,0.273,0.335,0.558c0.283-0.091,0.388-0.09,0.67,0
		c-0.004,0.132,0.355,1.371,0.446,1.451c0.638,0.367,1.237-0.182,1.787,0.224c-0.074,0-0.149,0-0.224,0
		c-0.074,0.148-0.148,0.298-0.223,0.446c-0.224-0.003-0.031-0.114-0.224,0c-0.317,0.274-0.515,0.696-0.558,0.782
		c0.028,0.107,0.088,0.041,0,0.11c-0.419,0.51-0.876,0.502-1.117,0.781c0.18,0.157,0.192,0.37,0.335,0.559
		c0.105-0.084,1.212-0.681,1.898-0.67c-0.006,0.54,0.119,1.113,0.224,1.228c0,0.038,0,0.075,0,0.111
		c0.286-0.046,1.382,0.008,1.563-0.111c0.181-0.15,0.125-0.071,0.223-0.334c0.922,0.541,1.344-0.978,2.122-0.782
		c0-0.037,0-0.074,0-0.111c-0.037-0.037-0.075-0.074-0.111-0.111c0.074,0,0.148,0,0.223,0c0.414,0.044,1.064-0.409,1.451-0.335
		c0-0.037,0-0.074,0-0.111c-0.037-0.037-0.074-0.074-0.111-0.112c0.074,0,0.149,0,0.223,0c0.118,0.094,1.284-0.65,2.233-0.669
		c-0.046-0.346-0.08-0.267,0-0.558c1.592,0.453,2.232,1.79,3.797,2.455c0,0.036,0,0.074,0,0.111c-0.418,0.06-0.522,0.122-0.67,0.446
		c0.117,0.181,0.223,0.973,0.113,1.116c-0.397,0.322-0.483,0.264-0.783,0.559c0.064,0.161,0.011,0.44,0,1.004
		c0.234-0.039,0.256-0.018,0.67,0c0.143-0.231,0.233-0.257,0.335-0.559c-0.141-0.151-0.153-0.196-0.223-0.445
		c0.037,0,0.073,0,0.11,0c0.594,0.531,1.143-0.077,1.451,0c0-0.038,0-0.075,0-0.112c-0.037-0.037-0.073-0.074-0.11-0.111
		c0.073,0,0.147,0,0.224,0c0,0,0.451-0.03,0.781,0c-0.041-0.225-0.052-0.669,0-0.893c-0.248-0.037-0.121,0.115-0.224-0.112
		c0.036-0.037,0.073-0.074,0.11-0.111c0.293-0.043,0.147,0.083,0.224-0.224c-0.095-0.21-0.052-0.082,0-0.334
		c-0.292-0.044-0.146,0.082-0.224-0.224c0.147-0.344-0.028-0.278-0.223-0.559c0.148,0,0.299,0,0.446,0
		c-0.003-0.37,0.032-0.665,0.112-0.892c0.196,0.069,0.107,0.021,0.224,0.11c0.358,0.377,0.38,0.902,0.781,1.34
		c0.074-0.037,0.149-0.075,0.224-0.111c-0.037,0.111-0.074,0.223-0.111,0.335c0.562,0.762,0.514,1.472,0.893,1.785
		c-0.158,0.107-0.365,0.108-0.67,0.112c-0.181,0.01-0.213,0.197-0.559,0.11c0.037,0.038,0.075,0.075,0.111,0.112
		c0.215,0.086-0.223,0.111-0.223,0.111c0-0.037,0-0.074,0-0.111c-0.037,0.037-0.074,0.074-0.111,0.111
		c0.076,0.172,0.072,0.186,0,0.446c0.292,0.043,0.146-0.082,0.223,0.224c-0.037,0.021,0.183,0.411,0.224,0.446
		c0.099,0.097,0.466,0.233,0.559,0.335c0.177,0.177,0.042,0.341,0.335,0.558c0,0.037,0,0.075,0,0.112
		c0.074-0.037,0.148-0.075,0.224-0.112c0,0.037,0,0.075,0,0.112c0.22,0.164-0.063,0.159,0.334,0.223
		c-0.007,0.318-0.043,0.478-0.11,0.67c0.629-0.003,0.537,0.931,0.558,1.674c-0.308,0.112-0.245,0.161-0.447,0.335
		c0.101,0.373,0.298,1.221,0.224,1.451c0.248,0.036,0.121-0.116,0.224,0.111c-0.188,0.235,0.381,1.104,0.111,2.009
		c-0.159,0.536-0.345,0.522-0.335,1.116c0,0.037,0,0.074,0,0.112c-0.224-0.004-0.031-0.114-0.224,0
		c0.022,0.072-0.3,1.793-0.446,2.008c-0.227,0.335-0.804,0.468-1.005,0.559c0.032,0.274,0.074,0.054,0,0.334
		c0.29,0.031,0.198-0.052,0.224,0.447c-0.357,0.028-0.357,0.11-0.559,0c-0.301-0.094,0.047-0.069-0.223-0.224
		c-0.211,0.097-0.083,0.053-0.336,0c0,0.038,0,0.075,0,0.111c0.037,0,0.074,0,0.112,0c-0.038,0.075-0.075,0.149-0.112,0.224
		c0.248,0.036,0.121-0.115,0.224,0.112c-0.304,0.178-0.092-0.018-0.111,0.334c-0.224-0.003-0.032-0.114-0.224,0
		c0.084,0.12,0.066,0.106,0.111,0.335c-0.294-0.002-0.131-0.041-0.447,0.111c0.124,0.682,0.179,0.749,0.224,1.451
		c-0.316,0.002-0.043-0.088-0.334,0.111c-0.271-0.36-0.283-0.196-0.671-0.335c-0.078,0.262-0.113,0.25-0.223,0.447
		c-0.037,0-0.074,0-0.111,0c-0.168-0.786-0.424-0.765-0.67-1.451c0.074,0.037,0.149,0.074,0.223,0.112
		c-0.045-0.22-0.019-0.385-0.111-0.671c0.648,0.002,0.648-0.318,0.893-0.781c-0.186,0-0.371,0-0.557,0
		c-0.076,0.014-0.288,0.203-0.782,0.224c-0.075-0.148-0.149-0.297-0.223-0.446c-0.184,0.011-0.896,0.289-1.229,0.111
		c-0.157-0.083-0.668-0.614-0.893-0.558c-0.326,0.23,0.023,0.201-0.334,0.334c-0.308-0.6-1.302-1.3-2.122-1.45
		c0.027,0.465-0.001,0.809-0.447,0.893c-0.113-0.288,0.043-0.231-0.223-0.446c-0.734-0.418-1.266-0.136-2.01,0.111
		c0-0.074,0-0.148,0-0.223c0.343-0.391,0.617-0.864,1.005-0.893c0-0.038,0-0.075,0-0.112c-0.038-0.037-0.075-0.074-0.112-0.111
		c0.074,0,0.149,0,0.223,0c0.169-0.025,0.486-0.082,0.558-0.446c-0.331-0.148-0.27,0.108-0.335-0.446c0.038,0,0.074,0,0.112,0
		c-0.038-0.075-0.074-0.148-0.112-0.224c-0.223,0.003-0.031,0.114-0.223,0c-0.184-0.275-0.001-0.704-0.223-0.893
		c-0.12-0.084-0.106-0.067-0.335-0.112c-0.093,0.155-0.233,0.509-0.335,0.336c-0.439,0.142-0.848,0.074-1.005-0.112
		c-0.083-0.109-0.09-0.206-0.223-0.446c-0.075,0-0.149,0-0.223,0c-0.125,0.32-0.02,0.205-0.335,0.335c0-0.075,0-0.148,0-0.224
		c0.129-0.201,0.038-0.338,0.112-0.446c-0.101-0.103-0.219-0.014-0.335-0.111c0.037-0.075,0.074-0.148,0.112-0.224
		c-0.038,0-0.075,0-0.112,0c-0.021,0.019-0.361,0.008-0.67,0.112c-0.216-0.733-0.36-0.433-0.781-1.005
		c0.361-0.243-0.123-2.803-0.223-3.125c-0.318,0.023-0.262-0.027-0.67,0c0.037-0.074,0.075-0.149,0.112-0.223
		c-0.037,0-0.075,0-0.112,0c-0.216,0.089-0.233-0.001-0.669,0c0.038-0.271,0.036-0.1,0-0.447c0.376-0.2,0.639-0.282,0.893-0.224
		c-0.252-0.537-0.465-0.956-0.67-1.339c0.276-0.145,0.076,0.049,0.224-0.223c-0.017-0.104,0.072-0.055-0.111-0.223
		c-0.116-0.081-0.593-0.124-1.117-0.112c-0.199-0.834-0.565-0.534-0.67-1.34c0.075,0,0.149,0,0.224,0
		c-0.037,0.075-0.075,0.149-0.111,0.224c0.037,0,0.074,0,0.111,0c0-0.037,0-0.074,0-0.111c0.074,0.037,0.149,0.074,0.223,0.111
		c0.167,0.439,0.251,0.525,0.558,1.005c0.293-0.072,0.341-0.028,0.782,0c0-0.038,0-0.075,0-0.112
		c-0.142-0.105-0.523-0.592-0.559-0.78c-0.452-0.064-0.372-0.141-0.67-0.112c-0.055-0.37-0.261-0.714-0.335-0.781
		c-0.212,0.104-0.131,0.042-0.447,0c0.003,0.295,0.042,0.131-0.111,0.446c-0.075,0-0.149,0-0.224,0
		c-0.115-0.312-0.169-0.233-0.223-0.669c0.124-0.156-0.021-0.298,0.111-0.447c0.166-0.22,0.159,0.062,0.224-0.334
		c-0.186,0-0.372,0-0.559,0c0.001,0.251-0.089,0.459-0.558,0.558c-0.198-0.136-0.195-0.002-0.335-0.112
		c-0.124-0.123-0.087-0.336-0.224-0.445c-0.172,0.078-0.015,0.015-0.334,0c-0.062,0.35-0.024,0.271-0.224,0.445
		c0.112,0.149,0.224,0.298,0.335,0.447c-0.371,0.004-0.666-0.031-0.893-0.111c0,0.111,0,0.223,0,0.334
		c0.816,0.019,1.66-0.256,1.898,0c0.34,0.321,0.568,0.654,1.005,0.893c0,0.038,0,0.075,0,0.112
		c-0.668,0.262-0.933,0.667-1.787,1.004c0.218,0.596,0.518,1.021,0.559,1.897c-0.223-0.003-0.031-0.114-0.223,0
		c0.05,0.064,0.032,0.415,0,0.558c0.292,0.001,0.218-0.085,0.447,0.224c0.083,0.1,0.25,0.31,0.334,0.67
		c-0.223-0.003-0.031-0.114-0.223,0c0,0,0.379,1.106,0.446,1.228c-0.402,0.021-0.231-0.166-0.335,0.224
		c0.037,0.036,0.075,0.074,0.111,0.111c0.385-0.017,0.379,0.103,0.894,0.224c-0.037,0.074-0.075,0.148-0.112,0.224
		c0.037,0,0.075,0,0.112,0c0-0.038,0-0.075,0-0.112c0.037,0.037,0.075,0.074,0.111,0.112c0.037,0,0.075,0,0.112,0
		c-0.033,0.302,0.01,0.211,0,0.78c-0.255,0.087-0.38,0.14-0.447,0.223c0.03,0.077,0.063,0.775,0,0.894c0,0.074,0,0.149,0,0.223
		c-0.606,0.016-0.483,0.378-1.229,0.559c-0.014-0.286,0.16-0.495-0.446-0.559c-0.098-0.152-1.42,0.872-1.34,0.894
		c-0.145,0.117-0.292-0.038-0.335,0c-0.086,0.074,0.002,0.139-0.111,0.223c0.189,0.495,0.218,0.259,0.223,0.781
		c-0.352-0.01-0.582-0.053-0.67,0c0.076,0.086,0.146,0.249,0.224,0.335c0.254-0.047,0.94,0.341,1.004,0.559
		c0.056,0.737,0.336,0.878-0.67,1.674c-0.312-0.219-1.119-0.021-1.228,0.111c-0.09,0.114-0.04,0.03-0.111,0.224
		c0.181,0.15,0.125,0.071,0.223,0.334c0.112-0.037,0.224-0.074,0.335-0.11c-0.038,0.073-0.075,0.148-0.112,0.223
		c0.037,0,0.074,0,0.112,0c0.057-0.033,0.954,0.036,1.005,0c0.334-0.242,0.722-0.549,1.339-0.781
		c0.179,0.305-0.017,0.092,0.335,0.111c-0.004,0.226,0.206,0.747,0.335,0.893c0.556,0.626,0.986,0.494,1.898,0.781
		c0.214,0.646,0.172,1.587,0.447,1.897c0-0.037,0-0.074,0-0.11c0.09-0.114,0.04-0.032,0.111-0.224c0.091-0.152-0.104-0.777,0-1.116
		c0.224,0.003,0.032,0.114,0.224,0c0.142,0.152,0.188,0.409,0.335,0.558c0.116,0.117,0.351-0.053,0.558,0.224
		c0.037,0,0.075,0,0.112,0c-0.037,0.074-0.075,0.148-0.112,0.223c0.037,0,0.075,0,0.112,0c0.149-0.187,0.298-0.372,0.447-0.559
		c-0.262,0.003-0.304,0.034-0.559-0.222c0,0,0.444-0.05,0.224-0.112c-0.038,0-0.075,0-0.112,0c-0.287-0.686-0.655-0.236-1.005-0.893
		c0.141-0.152,0.152-0.198,0.224-0.447c-0.038-0.037-0.075-0.073-0.112-0.111c-0.558,0.074-1.117,0.148-1.675,0.224
		c-0.088-0.235,0.003-0.202-0.112-0.335c0,0.037,0,0.074,0,0.111c-0.074-0.037-0.149-0.074-0.224-0.111
		c-0.038-0.271-0.036-0.099,0-0.446c0.075,0.037,0.149,0.074,0.224,0.111c-0.132-0.296,0.1-0.2-0.224-0.335
		c-0.114,0.09-0.03,0.04-0.223,0.111c0.038-0.073,0.075-0.148,0.112-0.223c-0.037,0-0.074,0-0.112,0
		c-0.08,0.063-0.005,0.161-0.223,0.111c0-0.037,0-0.074,0-0.111c-0.037-0.037-0.075-0.074-0.111-0.112
		c0.949-0.671,0.904-0.999,2.121-1.115c0,0,1.993,1.76,2.345,2.009c0.203,0.005,0.714-0.072,0.782,0
		c1.031,1.093,2.068,2.352,1.898,3.571c0.247,0.036,0.121-0.115,0.224,0.111c-0.038,0.038-0.075,0.074-0.112,0.111
		c0.283,0.044,0.176-0.063,0.224,0.336c-0.384,0.129,0.039,0.153-0.559,0.223c-0.186,0.013-0.459,0.294-0.782,0.112
		c-0.275-0.231-0.081-0.157-0.223-0.447c-0.432,0.002-0.647-0.317-1.005-0.558c-1.125,0.118-0.855,0.379-1.898,0.446
		c0.017-0.238-0.106-0.448-0.67-0.558c-0.307,0.487-0.544,0.191-1.228,0.111c0,0.111,0,0.223,0,0.334
		c0.231,0.042,0.215,0.027,0.335,0.112c0.365,0.318,0.33,0.62,0.559,0.781c0-0.037,0-0.074,0-0.112
		c0.037,0.038,0.074,0.075,0.111,0.112c0.084,0.119,0.067,0.105,0.111,0.335c-0.42,0.164,0.006,0.338-0.558,0.446
		c-0.224-0.298-0.398-0.191-0.67-0.67c-0.302-0.165-0.628,0.343-0.782-0.111c-0.113-0.159-0.111-0.67-0.111-0.67
		c-0.186-0.232-0.49-0.416-0.67-0.669c0.037,0,0.074,0,0.111,0c0.417-0.391,0.844-0.02,1.117-0.447
		c-0.25-0.008-0.764-0.397-1.117-0.223c-0.3,0.375-0.536,0.699-0.558,1.339c-0.223-0.003-0.032-0.114-0.223,0
		c0.028,0.108,0.087,0.043,0,0.112c-0.136,0.088-0.782,0-0.782,0c-0.197,0.145,0.039,0.398-0.223,0.223
		c-0.074,0.037-0.149,0.074-0.224,0.112c-0.123,0.317-0.035,0.448-0.334,0.669c-0.191,0.203-0.619,0.464-1.005,0.558
		c-0.15-0.312-0.156-0.273-0.558-0.335c-0.313,0.592-0.451,0.573-0.782,1.116c-0.551-0.197-1.068-0.067-1.786-0.334
		c0.011-0.355-0.055-0.671,0.111-1.116c-0.111,0.037-0.223,0.074-0.335,0.111c0.037-0.074,0.074-0.148,0.112-0.224
		c-0.038,0-0.075,0-0.112,0c-0.298,0.184-0.8-0.304-1.117-0.558c-0.292,0.072-0.657-0.14-0.781-0.111
		c-1.21,0.272-1.938-0.185-2.68-0.781c-0.396,0.021-1.84,0.154-2.01,0.111c-0.037,0-0.075,0-0.111,0
		c0.037-0.074,0.074-0.149,0.111-0.223c-0.037,0-0.075,0-0.111,0c-0.179,0.09-0.524-0.09-0.782,0c-0.303,0.104-0.21,0.35-0.67,0.445
		c-0.151-0.287-0.109-0.088-0.447-0.223c-0.043,0.282,0.065,0.177-0.334,0.223c-0.226-0.663-0.543-0.512-1.005-0.669
		c-0.042,0.292,0.083,0.146-0.224,0.224c0.056-0.447-0.053,0.01-0.111-0.447c0.167-0.229,0.245-0.594,0.335-0.893
		c0.157-0.516-0.188-1.369,0-1.562c-0.201-0.193-0.343-0.182-0.446-0.335c-0.101-0.147,0.116-1.916,0.111-2.009
		c0.075,0.037,0.149,0.074,0.223,0.111c0-0.037,0-0.074,0-0.111c-0.189-0.518,0.441-1.288,0.447-2.12
		c-0.296-0.132-0.2,0.1-0.335-0.224c0.037-0.037,0.075-0.074,0.112-0.111c0.111,0,0.223,0,0.335,0
		c-0.047-0.662-0.335-1.429-0.224-1.897c-0.32-0.052-0.248-0.573-0.223-1.228c-0.013-0.144-0.113-0.14-0.224-0.446
		c0.075,0.036,0.149,0.074,0.224,0.111c0-0.037,0-0.075,0-0.111c-0.299-0.465,0.1-1.586,0.223-2.01
		c-0.037,0.037-0.074,0.075-0.111,0.112c-0.086,0.214-0.112-0.224-0.112-0.224c0.037-0.037,0.075-0.074,0.112-0.111
		c-0.308-0.407-0.604-1.275-0.558-1.786c-0.038,0.038-0.075,0.075-0.112,0.111c-0.086,0.215-0.112-0.222-0.112-0.222
		c0.171-0.152-0.347-0.84-0.558-1.229c-0.271,0.038-0.099,0.036-0.447,0c0.017-0.206-0.055-0.295-0.224-0.335
		c-0.278,0-0.768-0.011-1.116,0c0.037-0.074,0.075-0.148,0.112-0.224c-0.037,0-0.075,0-0.112,0
		c-0.487,0.353-0.728,0.122-1.452,0.112c0,0.037,0,0.074,0,0.111c0.167,0.242,0.09,0.533,0,0.782c0.074,0,0.149,0,0.224,0
		c0.125-0.217-0.025-0.091,0.223-0.112c0-0.037,0-0.074,0-0.111c0,0-0.009-0.02,0.223-0.112c0.075,0.074,0.149,0.149,0.223,0.224
		c-0.04,0.494-0.088,1.016-0.223,1.339c0.247,0.037,0.121-0.115,0.223,0.112c-0.122,0.126,0.834,1.275,0.335,1.562
		c-0.132,0.091-0.188,0.087-0.447,0.112c-0.365-0.524-0.532-0.142-0.558-1.005c-0.113-0.137-0.158-0.215-0.112-0.446
		c-0.247-0.036-0.121,0.116-0.224-0.111c0.2-0.149-0.096,0.021-0.111-0.224c0.03-0.034-0.389-1.182-0.67-1.45
		c-0.235-0.034-0.065,0.124-0.335,0c-0.146-0.44-0.14-0.027-0.223-0.559c0.342-0.149,0.059-0.034,0.223-0.334
		c0.331,0.188,0.002,0.113,0.447,0.11c0.031-0.288-0.052-0.197,0.446-0.223c0.339-0.239,0.382,0.091,0.559-0.224
		c0.062-0.052-0.696-1.166-0.782-1.339c-0.212-0.004-0.325,0.033-0.447-0.112l-0.893-1.115c0.002-0.094-0.055-0.097-0.112-0.446
		c0.224-0.156,0.23-0.15,0.335-0.446c-0.255-0.137-0.251-0.184-0.67-0.224c-0.197,0.105-0.001,0.025-0.223,0
		c0.001,0.424-0.175,0.356-0.335,0.558c0.09,0.114,0.04,0.031,0.111,0.224c-0.074-0.037-0.149-0.074-0.223-0.111
		c0,0.037,0,0.074,0,0.111c0.189,0.286,0.014,0.818,0.223,1.005c0-0.037,0-0.074,0-0.112c0.037,0.038,0.075,0.075,0.112,0.112
		c0.13,0.228,0.039,0.413,0.112,0.669c0.311,0.017,0.49,0.021,0.558,0.447c0.104,0.109,0.289,0.508,0.112,0.669
		c-0.114,0.09-0.031,0.039-0.224,0.111c-0.18-0.46-1.445-1.512-1.898-1.896c-0.765-0.103-1.478-0.118-1.787-1.005
		c0.289-0.314,0.468-1.065,0.782-1.562c0.046-0.073-0.208-0.232-0.112-0.446c0.074,0,0.149,0,0.223,0c0.12-0.186-0.147-0.47,0-0.781
		c0.075,0,0.149,0,0.224,0c0.086-0.131,0.38-1.674,0.558-2.231c0.149-0.469-0.253-1.752-0.112-2.456
		c0.227-1.128-0.405-4.369-0.67-5.357c0.075,0,0.149,0,0.224,0c0.037-0.037,0.074-0.074,0.112-0.111
		c-0.038,0.111-0.075,0.223-0.112,0.335c0.247,0.036,0.121-0.116,0.223,0.112c0.009,0.148,0.747,2.404,0.558,3.012
		c0.26,0.033,0.277,0.051,0.447,0.112c-0.085-0.274-0.071-0.233-0.111-0.669c0.148,0,0.298,0,0.446,0
		c0.256,0.857,0.583,0.136,0.782,0.669c-0.274,0.192-0.094,0.483-0.112,0.782c0.037,0,0.075,0,0.112,0
		c0.137-0.111,0.427-0.229,0.67-0.225c0-0.037,0-0.074,0-0.111c0.059-0.281,0.494-0.56,0.782-1.115
		c0.074,0.036,0.148,0.073,0.223,0.111c0-0.038,0-0.075,0-0.111c0,0,0.189-1.486,0-1.675c-0.165-0.22-0.159,0.062-0.223-0.335
		c0.037-0.037,0.074-0.074,0.112-0.111c-0.248-0.037-0.121,0.115-0.224-0.111c-0.017-0.105,0.072-0.055-0.112-0.223
		c0-0.039,0-0.075,0-0.112c-0.218-0.047-0.08,0.171-0.223,0c-0.119-0.12-1.04-1.716-0.447-2.679c-0.252-0.332-0.38,0.019-0.67-0.223
		c-0.037-0.112-0.074-0.225-0.111-0.336c-0.16-0.119-0.944-0.403-0.559-0.558c-0.112,0.037-0.223,0.074-0.335,0.112
		c0-0.075,0-0.148,0-0.224c-0.037,0-0.075,0-0.111,0c-0.35,0.1-0.639-0.063-1.005-0.224c0,0.074,0,0.149,0,0.224
		c-0.599,0.667-0.065,2.841-0.335,3.237c0,0.037,0,0.073,0,0.11c-0.195-0.069-0.108-0.021-0.223-0.11
		c-0.946-1.402-0.012-4.506,0.335-6.14c-0.206-0.641-0.208-2.163-0.112-2.678c0.032-0.173-0.229-0.43-0.223-0.781
		c0.014-0.876,0.2-2.371,0.223-3.237c0.036-1.357-0.595-3.067-0.223-4.464c0.349-1.309,1.025-2.743,1.005-3.906
		c0.075,0.038,0.149,0.075,0.223,0.112c0-0.037,0-0.074,0-0.112c-0.073-0.125,0.108-0.326,0.112-0.781
		c0.302-0.005,0.074,0.02,0.447-0.111c0.178,0.304-0.018,0.092,0.335,0.111c0-0.148,0-0.297,0-0.446
		c-0.526-0.239-0.182-1.222,0-1.786c-0.426-0.844,0.655-2.558,0.67-3.125c0.074,0.037,0.149,0.075,0.223,0.112
		c0-0.037,0-0.075,0-0.112c-0.059-0.048,0.223-0.562,0.224-0.893c0.074,0.037,0.148,0.075,0.223,0.111c0-0.037,0-0.075,0-0.111
		c-0.121-0.47,1.03-1.958,1.34-2.567c0.075,0.037,0.149,0.075,0.223,0.112c0-0.037,0-0.075,0-0.112c-0.124-0.088-0.123-0.09,0-0.224
		c0.421-0.455,1.051-1.012,1.005-1.786c0.075,0.037,0.149,0.075,0.224,0.112c0-0.037,0-0.075,0-0.112c0,0-0.012-0.044,0.335-0.112
		c0.197,0.105,0.001,0.025,0.223,0c0.446-0.707,1.252-1.542,1.229-2.231c0.074,0.037,0.149,0.074,0.223,0.111
		c0-0.037,0-0.074,0-0.111c-0.037,0-0.075,0-0.112,0c0.037-0.038,0.075-0.075,0.112-0.112c0.186-0.216,0.161-0.187,0.558-0.223
		c0.248,0.277,0.409,0.248,0.894,0.223c-0.037,0.074-0.075,0.149-0.112,0.223c0.037,0,0.075,0,0.112,0
		c0.218-0.127,0.524,0.113,0.894,0.112c-0.038,0.075-0.075,0.149-0.112,0.223c0.038,0,0.075,0,0.112,0
		c0.15-0.065,1.621-0.232,1.786-0.111c0.171-0.155,1.688-0.949,1.786-0.893c0.144-0.13,0.558-0.846,0.67-0.669
		c1.398-0.492,1.531,0.289,2.68,0.224c-0.037,0.074-0.074,0.148-0.112,0.223c0.038,0,0.075,0,0.112,0c0,0,1.892-0.052,2.01,0
		c0.472-0.273,2.501-0.804,2.903-0.67c0-0.037,0-0.074,0-0.112c-0.038-0.037-0.075-0.074-0.111-0.112c0.074,0,0.148,0,0.223,0
		c0.849-0.183,3.367-3.243,3.238-3.459c0.48-0.506,0.905-0.632,0.894-1.339c0.074,0.037,0.148,0.074,0.223,0.112
		c0-0.038,0-0.075,0-0.112c0.006-0.98,1.486-2.096,1.452-3.349c0.075,0.038,0.149,0.075,0.224,0.111c0-0.037,0-0.074,0-0.111
		c-0.133-0.219,0.492-1.395,0.67-1.562c-0.038-0.074-0.074-0.148-0.112-0.223c1.209-1.009,1.541-1.898,2.233-2.567l0.67-1.34
		c0.335,0,0.67,0,1.005,0c0.363,0.259,1.026,0.093,1.786,0.112c0.165,0.141,2.852-0.895,2.903-0.893c0.037,0,0.074,0,0.112,0
		c0-0.037,0-0.074,0-0.111c-0.038-0.038-0.075-0.075-0.112-0.111c0.074,0,0.149,0,0.223,0c0.413-0.421,1.15-0.521,1.675-1.452
		c0.075,0.037,0.149,0.075,0.224,0.112c0-0.037,0-0.075,0-0.112c-0.038,0-0.074,0-0.112,0c0.482-0.54,1.155-1.2,1.563-1.227
		c0-0.038,0-0.075,0-0.112c-0.037,0-0.074,0-0.112,0c0.038-0.075,0.075-0.149,0.112-0.223c0.074,0.037,0.149,0.075,0.223,0.112
		c0-0.037,0-0.075,0-0.112c-0.261-0.14,0.766-0.695,1.005-0.669c0-0.038,0-0.075,0-0.112c-0.037-0.038-0.073-0.075-0.11-0.112
		c0.073,0,0.148,0,0.223,0C52.355,0.18,52.543,0.029,53.183,0c0.122,0.383,0.126-0.056,0.224,0.335
		c0.083,0.12,0.067,0.105,0.11,0.335c-0.976,0.394-2.377,1.902-2.902,2.678c0.079,0.172,0.014,0.015,0,0.334
		c-0.224-0.003-0.032-0.114-0.224,0c0.174,0.195-0.559,1.004-0.559,1.004c0.028,0.174,0.115,0.362,0.112,0.669
		c-0.002,0.183-0.129,0.392-0.112,0.447c0.294,0.907,0.458,1.758,0.893,2.121c0-0.038,0-0.075,0-0.111
		C50.8,7.85,50.875,7.887,50.95,7.924c0.142,0.366,0.147,0.798,0.223,0.893C51.59,9.338,52,9.309,52.178,10.044
		c-1.225,0.492-0.302,4.93,0,5.692c0.283,0.718-0.18,1.723-0.336,1.786c-0.092,0.235-0.762,0.626-0.892,0.781
		c0.037,0,0.073,0,0.11,0c-0.037,0.075-0.074,0.149-0.11,0.224c-0.225-0.003-0.032-0.114-0.225,0
		c-1.304,1.392-1.353,4.418-2.344,6.473c-0.532,0.001-0.242-0.038-0.67,0.112c0.117,0.52-0.288,1.161-0.558,1.562
		c0.271,0.772,0.033,2.333,0.112,3.237c0.018,0.209-0.128,0.504-0.112,0.558c0.212,0.663,0.485,1.414,0.67,2.121
		c-0.038,0.074-0.074,0.149-0.112,0.224c0.11,0.151,0.327,0.105,0.447,0.334c0.077,0.146-0.187,0.123,0,0.335
		c0.074,0,0.149,0,0.224,0c0.135,0.223-0.137,0.734-0.112,0.781c0.223,0.413,0.743,0.583,0.558,1.005c0,0.037,0,0.074,0,0.111
		c-0.074-0.038-0.148-0.075-0.223-0.111c0,0.037,0,0.074,0,0.111c0.148,0.204,0.231,0.506,0.223,1.117
		C48.389,36.671,47.98,36.908,47.935,37.5z M62.45,14.174c0.332,0.092,0.486,0.081,0.894,0.224
		c-0.044,0.198-0.008,0.583-0.112,0.893c-0.485-0.23-1.037,0.058-1.675-0.112c0.037,0.037,0.074,0.074,0.112,0.112
		c0.215,0.086-0.224,0.111-0.224,0.111c-0.037-0.037-0.074-0.074-0.112-0.111c0,0.074,0,0.149,0,0.223c-0.037,0-0.074,0-0.111,0
		c0.07,0.196,0.021,0.108,0.111,0.224c0.257,0.345,0.269-0.064,0.336,0.558c-0.416,0.19-0.231,0.028-0.224,0.446
		c-0.074-0.037-0.149-0.075-0.224-0.112c0,0.037,0,0.075,0,0.112c0.104,0.197,0.024,0.001,0,0.223
		c-0.437,0.243-1.265,1.016-1.675,0.781c-0.274-0.262-0.273-0.577-0.781-1.004c-0.389,0.274-0.617,0.013-1.117-0.112
		c0-0.037,0-0.074,0-0.112c0.084-0.12,0.068-0.105,0.111-0.334c0.074,0.037,0.15,0.074,0.224,0.111c0-0.038,0-0.075,0-0.111
		c-0.263-0.122,0.343-0.22,0.446-0.335c0.021-0.284-0.003-0.381,0.112-0.669c0.075,0.037,0.148,0.074,0.224,0.112
		c0-0.038,0-0.075,0-0.112c0.072-0.161,0.029-0.102,0.559-0.111c0.252-0.179,0.727-0.144,0.894-0.112c0-0.037,0-0.075,0-0.112
		c0.016-0.104-0.072-0.054,0.11-0.223C60.94,14.175,62.199,14.828,62.45,14.174z M63.231,15.291c0.084,0.12,0.067,0.105,0.112,0.334
		c-0.038,0-0.075,0-0.112,0C63.231,15.513,63.231,15.401,63.231,15.291z M60.104,17.857c0.149,0,0.299,0,0.447,0
		c0,0.074,0,0.148,0,0.223c0.037,0,0.074,0,0.111,0c-0.037,0.037-0.074,0.074-0.111,0.112c-0.103,0.078-0.36,0.199-0.558,0.111
		c0,0-0.443-0.048-0.224-0.111c0.037,0,0.074,0,0.111,0C59.979,17.802,60.263,18.228,60.104,17.857z M71.047,33.036
		c0.075,0,0.149,0,0.224,0C71.139,33.215,71.224,33.172,71.047,33.036z M70.713,33.147c0.148,0.038,0.297,0.075,0.446,0.112
		c-0.113,0.09-0.03,0.04-0.223,0.112c-0.108,0.028-0.043,0.087-0.112,0C70.734,33.256,70.785,33.34,70.713,33.147z M70.489,33.259
		c0.468,0.381-0.495,1.324-0.558,1.228c-0.235,0.087-0.202-0.003-0.336,0.112c-0.242-0.225-0.346-0.39-0.669-0.559
		c0.037-0.27,0.036-0.098,0-0.446c0.266-0.094,0.183-0.045,0.335-0.223C69.693,33.581,70.358,33.625,70.489,33.259z M49.274,47.433
		c0.09,0.114,0.041,0.031,0.112,0.223c-0.038,0-0.074,0-0.112,0C49.274,47.582,49.274,47.507,49.274,47.433z M50.503,48.884
		c0.125,0.186,0.197,0.12,0,0.223c-0.038,0.037-0.074,0.074-0.112,0.112C50.429,49.107,50.465,48.996,50.503,48.884z M48.604,50
		c0.125,0.186,0.198,0.119,0,0.224C48.604,50.148,48.604,50.074,48.604,50z M78.64,82.812c0.025-0.466,0.015-0.443,0-1.005
		c0.075,0.038,0.149,0.074,0.224,0.111c-0.162-0.278-0.065-0.24-0.446-0.335c-0.196,0.199-0.795,0.435-1.005,0.67
		c0.037,0,0.074,0,0.112,0c-0.038,0.037-0.075,0.075-0.112,0.112c0.118,0.087,0.413,0.166,0.558,0.224c0,0.11,0,0.223,0,0.334
		c0.261,0,0.522,0,0.782,0c-0.037,0.074-0.074,0.149-0.112,0.224c0.038,0,0.075,0,0.112,0c0.288-0.199,1.05-0.261,1.229-0.112
		c0.21,0.18,0.271,0.323,0.558,0.447c-0.191,0.273-0.231,0.469-0.224,1.004c-0.446-0.055,0.011,0.054-0.446,0.111
		c-0.239-0.262-0.272-0.139-0.559-0.223c0,0.037,0,0.074,0,0.111c0.113,0.171,0.015,0.404,0.112,0.67
		c0.111,0.111,0.224,0.224,0.335,0.334c0.087,0.207-0.154,0.386-0.111,0.447c0.378,0.548,0.455,0.509,0.669,1.228
		c-1.05-0.174-1.296,0.36-1.897,0.894c-0.288,0.009-0.529-0.052-0.893,0c0.037-0.075,0.074-0.149,0.11-0.224
		c-0.036,0-0.073,0-0.11,0c-0.115,0.09-0.03,0.039-0.224,0.111c0.037-0.074,0.074-0.148,0.111-0.224c-0.037,0-0.074,0-0.111,0
		c-0.147,0.027-0.487-0.134-0.56-0.223c-0.107-0.122-0.16-0.379-0.334-0.559c-0.328,0.172-0.18,0-0.446-0.111
		c-0.973,0.401-0.75-0.285-1.675-0.893c-0.26-0.171-0.792-0.233-0.895-0.558c0.038-0.038,0.075-0.075,0.113-0.112
		c0.421,0.133,0.112,0.107,0.558,0.112c-0.037,0.073-0.074,0.148-0.111,0.223c0.037,0,0.074,0,0.111,0c0-0.037,0-0.074,0-0.112
		c0.09-0.113,0.04-0.029,0.111-0.223c0.038,0,0.075,0,0.112,0c-0.037-0.037-0.074-0.074-0.112-0.111
		c-0.179-0.384-0.549-0.549-0.782-0.893c-0.036,0-0.073,0-0.11,0c-0.115,0.071-0.023,0.241-0.112,0.111
		c-0.236-0.121-0.895-0.991-1.005-1.451c0.037,0,0.074,0,0.111,0c0.046-0.218-0.171-0.08,0-0.224c0-0.037,0-0.074,0-0.11
		c0.195,0.069,0.109,0.021,0.223,0.11c0.091,0.132,0.087,0.188,0.113,0.447c0.416-0.013,0.432-0.05,0.67,0c0-0.037,0-0.074,0-0.112
		c-0.037,0-0.075,0-0.112,0c0.037-0.037,0.075-0.073,0.112-0.111c0.172-0.116,0.456-0.115,0.781-0.111
		c0.013-0.417,0.05-0.432,0-0.67c-0.3,0.127-0.283,0.235-0.781,0.335c-0.344-0.362-0.54-0.124-1.006-0.446
		c0.195-0.218,0.12-0.332,0.223-0.447c-0.113-0.089-0.029-0.039-0.223-0.11c-0.131,0.089-0.187,0.086-0.446,0.11
		c0-0.037,0-0.074,0-0.11c0.175-0.195,0.302-0.573,0.446-0.781c-0.259-0.033-0.276-0.051-0.446-0.112
		c-0.159,0.376-0.733,1.083-0.893,1.116c-0.244-0.662-0.711-0.355-1.229-0.67c0,0.075,0,0.148,0,0.224c-0.075,0-0.149,0-0.224,0
		c-0.207-0.07-0.302-0.336-0.67-0.447c-0.429-0.128-0.265,0.344-0.446,0.112c-0.254-0.276-0.276-0.425-0.447-0.558
		c-0.15,0.181-0.071,0.125-0.334,0.223c-0.042-0.232-0.027-0.214-0.112-0.335c-0.246,0.26-1.099,0.832-1.34,0.558
		c-0.173-0.126-0.095-0.12-0.335-0.223c-0.146,0.275,0.048,0.076-0.224,0.223c0.037-0.037,0.074-0.073,0.112-0.11
		c0.214-0.087-0.224-0.112-0.224-0.112c0,0.037,0,0.074,0,0.112c-0.162,0.206-0.08,0.299-0.336,0.445
		c-0.146-0.381-0.501-0.466-0.893-0.445c0.106-0.705-0.098-1.018-0.224-1.674c0.075,0.036,0.149,0.073,0.224,0.11
		c-0.143-0.41-0.116-0.808-0.335-1.116c-0.102,0.122,0.024-0.031-0.111-0.11c-0.255,0.001-1.581-0.73-1.675-1.005
		c0.084-0.12,0.066-0.106,0.111-0.335c-0.278-0.004-0.438-0.117-0.67-0.447c0.345-0.256-0.064-0.268,0.559-0.334
		c0.126,0.08,0.211-0.033,0.446,0c0-0.037,0-0.075,0-0.112c-0.037-0.036-0.074-0.073-0.111-0.111c0.074,0,0.149,0,0.223,0
		c0.156-0.018,0.198-0.145,0.447-0.11c0-0.038,0-0.075,0-0.113c-0.037-0.037-0.075-0.073-0.111-0.11c0.074,0,0.148,0,0.223,0
		c0.101,0.016,0.247,0.04,0.446-0.112c-0.06-0.089-0.319-1.005-0.334-1.339c0.073,0.037,0.148,0.074,0.224,0.111
		c-0.059-0.316-0.024-1.139-0.112-1.228c-0.188-0.189-0.372-0.203-0.446-0.335c-0.06-0.104-0.021-0.767-0.112-0.893
		c-0.107-0.12-0.55-0.569-1.004-0.67c0,0.037,0,0.074,0,0.111c0.083,0.12,0.067,0.105,0.11,0.335
		c-0.582-0.055-0.555,0.054-0.558-0.669c0.48,0.014,0.97,0.041,1.116-0.224c0.089-0.114,0.039-0.03,0.111-0.224
		c0.255-0.419-0.324-1.938-0.558-2.12c0,0-1.924-1.162-2.011-1.228c-0.104-0.08-0.961,0.34-1.45-0.335
		c0.834-0.055,2.169-0.005,3.015,0.224c0-0.112,0-0.224,0-0.336c-0.694-0.368-1.314-0.649-1.451-1.116c0.037,0,0.073,0,0.11,0
		c-0.037-0.036-0.073-0.073-0.11-0.11c-0.527-0.534-1.931-0.341-2.122-0.782c-0.09-0.113-0.04-0.03-0.112-0.223
		c0.167-0.001,1.675-0.196,1.787-0.111c0,0.073,0,0.148,0,0.224c0,0,1.14,0.48,1.562,0.334c0.143-0.049,0.617-0.293,0.782-0.446
		c0-0.074,0-0.149,0-0.224c0.229-0.135,0.671,0.034,0.894,0c-0.001,0.264,0.434,0.842,0.781,0.67
		c0.227-0.183-0.078-0.13,0.223-0.224c0-0.037,0-0.074,0-0.11c0.038,0.036,0.075,0.073,0.112,0.11
		c0.102,0.104,0.148,0.196,0.223,0.335c0.313-0.145,0.139-0.157,0.447-0.111c0-0.037,0-0.074,0-0.112c-0.037,0-0.075,0-0.112,0
		c0.037-0.036,0.075-0.073,0.112-0.111c0.187-0.239,0.461-0.344,0.67-0.558c0.111,0.037,0.224,0.074,0.335,0.111
		c0-0.037,0-0.074,0-0.111c-0.037-0.037-0.074-0.074-0.111-0.111c0.074,0,0.148,0,0.223,0c0.144-0.01,0.398-0.086,0.67-0.223
		c-0.037-0.671-0.074-1.34-0.111-2.009c0.896-0.186,1.452-0.724,2.345-0.559c0-0.037,0-0.074,0-0.112
		c0.012-0.213,0.112-0.235,0.112-0.669c0.073,0.037,0.148,0.074,0.223,0.111c-0.159-0.517-0.079-1.814-0.223-2.01
		c-0.269-0.264-2.651-0.859-3.351-1.004c0.032-0.273,0.074-0.054,0-0.334c-0.274,0.031-0.054,0.072-0.334,0
		c-0.038-0.075-0.075-0.15-0.113-0.224c0.038-0.037,0.075-0.075,0.113-0.112c0.748,0.25,1.094,0.701,1.897,0.67
		c-0.037,0.074-0.074,0.149-0.112,0.224c0.038,0,0.075,0,0.112,0c0.448-0.288,1.13-0.014,1.451,0.111c0,0,0.982,0.085,1.229,0.223
		c0.149-0.148,0.298-0.298,0.446-0.446c0.086,0.298,0.214,0.504,0.335,0.781c0.464-0.162,1.061-0.193,1.34-0.111
		c0-0.037,0-0.074,0-0.111c-0.037-0.037-0.073-0.074-0.111-0.112c0.074,0,0.148,0,0.224,0c0.092-0.096,0.592-0.427,0.893-0.334
		c0-0.037,0-0.074,0-0.112c-0.037-0.037-0.074-0.074-0.111-0.111c0.074,0,0.148,0,0.224,0c0.053,0.083,0.217-0.178,0.447-0.111
		c0.281,0.164,0.204,0.141,0.223,0.559c-0.263,0.062-0.351,0.127-0.559,0.223c0.07,0.279,0.03,1.059-0.111,1.451
		c-0.247-0.057-0.537-0.001-0.67-0.111c-0.167-0.174-0.087-0.205-0.335-0.336c-0.103-0.016-0.247-0.04-0.446,0.111
		c0.187,0.335-0.167,0.324-0.112,0.559c0.03,0.133,0.183,0.346,0.224,0.559c0.426,0.01,0.986,1.033,1.116,1.674
		c-0.274,0.081-0.391,0.16-0.559,0.335c-0.351-0.157-0.629-0.066-1.005-0.112c0.067,0.459-0.119,0.715-0.67,1.005
		c0.038,0.112,0.075,0.224,0.112,0.335c0.037,0,0.074,0,0.111,0c0.19-0.133,0.596,0.039,0.67,0c0.399-0.209,0.957-0.94,1.228-0.559
		c0.217,0.086,0.43,0.572,0.336,0.671c-0.098,0.25-0.199,0.287-0.112,0.445c0.132,0.18,0.229,0.325,0.336,0.558
		c-0.371-0.004-0.666,0.032-0.894,0.112c0,0.074,0,0.148,0,0.224c0.037,0,0.074,0,0.11,0c0.265-0.169,1.151,0.05,1.229,0.111
		c0.265,0.403,0.093,1.052,0.111,1.339c0.112,0.038,0.224,0.075,0.335,0.111c0.221-0.968,0.525-1.096,0.782-1.562
		c0,0,0.003-1.999,0-2.345c0.273,0.032,0.053,0.074,0.334,0c-0.06-0.169-0.075-0.188-0.11-0.446
		c0.073,0.038,0.147,0.075,0.223,0.112c0-0.037,0-0.074,0-0.112c-0.037-0.036-0.075-0.073-0.112-0.111c0.075,0,0.149,0,0.224,0
		c0.037,0.038,0.075,0.075,0.111,0.111c0-0.036,0-0.073,0-0.111c0.07-0.156,0.148-0.121,0.671-0.111
		c0.111-0.111,0.223-0.223,0.335-0.334c-0.104-0.217-0.011-0.967-0.112-1.117c-0.313-0.439-0.403-0.041-0.446-0.781
		c-0.396-0.408-0.435-0.654-0.447-1.34c0.372,0.039,0.745,0.075,1.116,0.112c-0.036,0.074-0.073,0.149-0.11,0.224
		c0.037,0,0.074,0,0.11,0c0.337,0.346,0.408,0.339,0.894,0.334c-0.036,0.074-0.073,0.149-0.11,0.224c0.037,0,0.074,0,0.11,0
		c0-0.037,0-0.074,0-0.112c0.037,0.038,0.074,0.075,0.112,0.112c0.084,0.12,0.066,0.105,0.111,0.335
		c-0.307,0.119-0.638,0.674-0.446,1.004c0,0,0.049,0.443,0.112,0.225c0-0.038,0-0.075,0-0.113c0.118,0.004,0.689,0.051,0.781,0
		c0.098-0.144,0.1-0.274,0.111-0.558c0.026-0.325,0.008-0.052-0.224-0.334c-0.159-0.196,0.061-0.936,0.112-1.005
		c-0.248-0.277-0.518-0.566-0.559-1.004c-0.262-0.401,0.134-0.424-0.67-0.447c-0.046,0.055-0.761,0.611-1.116,0.447
		c0.036,0.037,0.073,0.074,0.111,0.11c0.215,0.087-0.224,0.112-0.224,0.112c-0.119,0.1-0.186,0.145-0.559,0.223
		c0.037-0.074,0.075-0.148,0.112-0.223c-0.037,0-0.075,0-0.112,0c-0.279,0.12-0.363,0.197-0.446-0.223
		c0.037-0.038,0.074-0.075,0.112-0.112c-0.038,0.037-0.075,0.074-0.112,0.112c-0.086,0.215-0.111-0.224-0.111-0.224
		c0.104-0.212,0.042-0.13,0-0.446c0.246,0.008,0.8-0.225,0.893-0.335c0.228-0.183-0.077-0.13,0.224-0.224
		c0.038,0.037,0.075,0.074,0.112,0.111c0-0.037,0-0.074,0-0.111c-0.037,0-0.074,0-0.112,0c0.075-0.074,0.148-0.148,0.224-0.223
		c0-0.037,0-0.074,0-0.112c0.074,0.038,0.148,0.075,0.224,0.112c0-0.037,0-0.074,0-0.112c-0.038-0.037-0.075-0.073-0.112-0.11
		c0.074,0,0.149,0,0.224,0c0.179-0.008,0.285-0.211,0.67-0.113c0-0.037,0-0.074,0-0.111c-0.037-0.037-0.074-0.074-0.112-0.111
		c0.075,0,0.149,0,0.224,0c0.087-0.086,0.261-0.211,0.446-0.111c1.251-1.026,2.143-2.184,3.127-2.902c0.234-0.17,0.8-0.034,0.894,0
		c0-0.037,0-0.074,0-0.111c-0.037-0.037-0.074-0.074-0.112-0.111c0.075,0,0.149,0,0.224,0c0.173,0.223,0.277-0.429,0.893-0.223
		c0.038,0.074,0.075,0.148,0.112,0.223c0.102-0.004,0.25-0.24,0.446-0.112c0.038,0.112,0.075,0.224,0.112,0.335
		c0.074-0.037,0.148-0.074,0.223-0.111c0.178,0.195,0.243,0.51,0.447,0.67c0.174-0.017,0.462-0.112,0.781-0.111
		c-0.003,0.223-0.114,0.031,0,0.223c1.188-0.542,2.52,1.217,3.461,1.675c0,0.073,0,0.148,0,0.224
		c-0.088,0.001-0.644,0.62-0.446,0.781c-0.816,0.504-0.859,0.682-1.005,1.45c-0.274-0.032-0.054-0.073-0.334,0
		c0.125,0.388,0.054,1.468-0.112,1.674c0.282,0.319,1.451,2.313,1.005,3.125c0.237,0.34,0.471,0.403,0.224,1.005
		c0.036-0.038,0.074-0.075,0.111-0.111c0.087-0.216,0.111,0.223,0.111,0.223c-0.037,0.037-0.074,0.074-0.111,0.112
		c0.291,0.03,0.22-0.002,0.224,0.558c-0.075-0.038-0.149-0.075-0.224-0.112c0,0.037,0,0.074,0,0.112
		c0.005,0.064-0.105,0.632-0.111,1.116c0.273-0.032,0.054-0.074,0.335,0c-0.154,0.198-0.111,0.247-0.224,0.334
		c0.131,0.18,0.229,0.325,0.335,0.558c0.253-0.044,0.121-0.102,0.335,0c0.185,0.27,0.167,1.282,0.223,1.34
		c0.306,0.319,0.55,0.225,0.671,0.781c-0.223,0.088-0.2,0.411-0.112,0.559c0.107,0.162,0.398,0.242,0.224,0.334
		c-0.282,0.182-0.783,0.008-0.894,0.112c-0.444,0.421-0.36,0.478-1.005,0.78c-0.094-0.28-0.269-0.508-0.335-0.558
		c-0.129,0.092-0.138,0.054-0.446,0.112c0.037-0.075,0.074-0.149,0.111-0.224c-0.037,0-0.074,0-0.111,0c0,0.037,0,0.074,0,0.111
		c-0.037-0.037-0.074-0.074-0.112-0.111c-0.113-0.129-0.205-0.262-0.11-0.558c-0.038,0.037-0.075,0.074-0.112,0.111
		c-0.087,0.215-0.111-0.224-0.111-0.224c0.078-0.172,0.015-0.015,0-0.335c0.074,0.038,0.148,0.075,0.224,0.112
		c0-0.037,0-0.074,0-0.112c0.002-0.113,0.137-0.562,0.334-1.004c-0.037,0-0.074,0-0.111,0c0,0.037,0,0.074,0,0.111
		c-0.074-0.037-0.149-0.074-0.223-0.111c-0.027,0.325-0.039,0.229-0.447,0.446c-0.233,0.414,0.482,0.88-0.559,0.893
		c-0.352-0.741-1.132-0.053-1.786-0.223c-0.067,0.329-0.27,0.572-0.559,0.669c-0.037-0.037-0.074-0.074-0.111-0.11
		c-0.023,0.486-1.15,0.727-1.563,1.227c-0.042,0.241-1.232,2.753-0.447,3.571c0.159,0.157,0.136-0.092,0.224,0
		c0.037,0.112,0.074,0.224,0.112,0.335c0.111-0.037,0.223-0.074,0.335-0.111c0.005,0.198,0.416,0.483,0.781,0.781
		c0.672,0.103,1.438,0.055,1.675,0.335c0.173,0.14,1.079,1.392,0.894,1.786c0.282,0.043,0.177-0.065,0.223,0.335
		c-0.204,0.118-0.138,0.664-0.111,1.227c-0.28,0.095-0.509,0.269-0.559,0.335c0.037,0,0.075,0,0.112,0
		c-0.037,0.037-0.075,0.074-0.112,0.112c0,0.037,0,0.074,0,0.111c-0.074-0.037-0.148-0.074-0.224-0.111
		c0.002,0.292,0.146,0.098-0.11,0.334c-0.115,0.103-0.582,0.318-0.671,0.447c0.037,0,0.074,0,0.112,0
		c-0.038,0.037-0.075,0.073-0.112,0.111c-0.158,0.107-0.365,0.108-0.67,0.111c-0.161-0.131-1.14-0.234-1.34-0.111
		c-0.587,0.429-0.983,0.658-1.897,1.005c0.06,0.52-0.52,0.933-0.336,1.897c-0.35-0.041,0.009,0.03-0.334,0.11
		c-0.038-0.037-0.074-0.074-0.112-0.11C78.82,82.881,78.946,82.735,78.64,82.812z M9.859,55.916
		c0.084,0.119,0.067,0.105,0.112,0.334c-0.075,0-0.149,0-0.224,0c-0.037,0.037-0.074,0.074-0.111,0.111
		C9.715,56.1,9.75,56.112,9.859,55.916z M64.795,56.026c0.204,0.175,0.156,0.099,0.224,0.446c-0.037,0-0.074,0-0.112,0
		c0-0.074,0-0.148,0-0.223C64.815,56.136,64.866,56.219,64.795,56.026z M53.406,58.816c-0.027,0.686,0.04,1.2,0.781,1.229
		c0.07-0.196,0.021-0.109,0.111-0.224c0,0.224,0,0.446,0,0.669c-0.223-0.003-0.031-0.113-0.223,0
		c0.09,0.114,0.039,0.031,0.111,0.224c-0.224-0.003-0.031-0.114-0.224,0c-0.013,0.233-0.046-0.022-0.224,0.224
		c-0.428,0.592,0.381,2.073-0.447,2.566c-0.183-0.31-1.127-0.104-1.338-0.445c-0.471-0.286-0.37-1.145-0.336-1.898
		c0.32-0.121,0.148-0.439,0.446-0.67c0-0.037,0-0.074,0-0.111c0.075,0.037,0.149,0.074,0.224,0.111c0-0.037,0-0.074,0-0.111
		c0.074-0.16,0.029-0.102,0.559-0.111c0.002-0.316-0.088-0.044,0.111-0.335c-0.266-0.563,0.314-1.47-0.558-1.786
		c-0.137-0.082-0.11-0.015-0.446,0c0.037-0.073,0.073-0.148,0.11-0.223c-0.037,0-0.073,0-0.11,0c0,0.037,0,0.074,0,0.111
		c-0.075-0.037-0.15-0.074-0.225-0.111c-0.069-0.231-0.084-0.521-0.223-0.893c0.296-0.107,0.627-0.795,0.894-0.893
		c-0.024,1.245,0.151,1.428,0.446,2.12c0.328,0.122,0.582,0.05,0.893,0.446c0.037,0.037,0.074,0.074,0.112,0.111
		C53.703,58.816,53.555,58.816,53.406,58.816z M49.609,57.478c0.479,0.017,0.415,0.041,0.782,0c0.038,0.149,0.074,0.298,0.112,0.446
		c-0.215-0.033-0.432,0.066-0.559,0C49.72,57.769,49.714,57.774,49.609,57.478z M61.445,58.705c0.271,0.039,0.098,0.037,0.447,0
		c-0.031,0.325,0.565,0.793,1.228,1.228c-0.037,0.038-0.075,0.075-0.111,0.112c-0.114,0.09-0.031,0.039-0.224,0.111
		c0.037-0.074,0.074-0.148,0.111-0.224c-0.037,0-0.074,0-0.111,0c-0.114,0.091-0.03,0.04-0.224,0.112
		c0.038-0.074,0.075-0.148,0.111-0.224c-0.036,0-0.073,0-0.111,0c-0.134,0.085-0.59-0.369-1.005-0.558
		C61.452,58.976,61.39,58.975,61.445,58.705z M43.803,60.156c0.359,0.131,0.271,0.098,0.558,0.223c0,0.074,0,0.149,0,0.225
		c-0.385,0-0.742,0.501-1.005,0.557c-0.339-0.179-0.314-0.183-0.447-0.557C43.313,60.455,43.71,60.379,43.803,60.156z
		 M63.344,60.156c0.124,0.186,0.197,0.119,0,0.223C63.344,60.305,63.344,60.23,63.344,60.156z M42.687,60.268
		c0.09,0.114,0.04,0.031,0.112,0.223c-0.037,0-0.075,0-0.112,0C42.687,60.416,42.687,60.342,42.687,60.268z M66.357,61.049
		c0.091,0.114,0.04,0.031,0.112,0.224c-0.037,0-0.074,0-0.112,0C66.357,61.197,66.357,61.123,66.357,61.049z M43.692,61.272
		c0.363,0.108,0.598,0.255,0.669,0.446c-0.275,0.145-0.076-0.049-0.223,0.223c-0.09-0.113-0.041-0.03-0.112-0.223
		C43.803,61.562,43.796,61.568,43.692,61.272z M74.286,62.165c0.242,0.203,0.244,0.046,0.334,0.335c0,0-0.055,0.83-0.111,1.116
		c-0.074-0.037-0.149-0.074-0.223-0.112c0,0.038,0,0.075,0,0.112c0.09,0.113,0.04,0.03,0.111,0.223
		c-0.401-0.05,0.01,0.072-0.559,0.112c-0.012-0.337-0.366-0.793-0.111-1.116c0.119-0.084,0.104-0.067,0.335-0.112
		c-0.037,0.075-0.074,0.149-0.111,0.224c0.037,0,0.074,0,0.111,0c0.086-0.076,0.249-0.146,0.335-0.224
		C74.3,62.578,74.297,62.448,74.286,62.165z M47.935,62.835c0.379,0.208,0.466,0.344,0.446,1.116
		c-0.307,0.111-0.245,0.16-0.446,0.334c-0.343-0.355-0.712-0.129-1.117-0.334c-0.038-0.038-0.075-0.075-0.112-0.112
		c0.377-0.119,0.144-0.102,0.446-0.111c0-0.037,0-0.074,0-0.111c0.074-0.161,0.029-0.103,0.558-0.112
		c0.038,0.038,0.074,0.075,0.112,0.112c0-0.074,0-0.149,0-0.223C47.921,63.249,47.923,63.117,47.935,62.835z M65.129,63.616
		c0.09,0.113,0.04,0.03,0.113,0.223c-0.038,0-0.075,0-0.113,0C65.129,63.765,65.129,63.69,65.129,63.616z M90.364,65.959
		c0.386,0.34,0.528,0.261,0.559,0.894c0.13,0.196-0.031,0.957,0,1.004c0.112,0.176,0.163-0.029,0.223,0.335
		c-0.195,0.071-0.108,0.021-0.223,0.112c-0.195-0.07-0.109-0.022-0.223-0.112c-0.08-0.081-0.399-0.429-0.447-0.558
		C90.466,67.163,90.375,66.813,90.364,65.959z M45.366,67.075c0.112,0,0.224,0,0.335,0c-0.041,0.352,0.031-0.009,0.112,0.335
		c-0.186,0.099-0.015,0.248-0.224,0.112C45.298,67.332,45.492,67.35,45.366,67.075z M53.293,67.969
		c0.104,0.104,0.15,0.195,0.224,0.335c-0.073,0-0.147,0-0.224,0C53.293,68.191,53.293,68.08,53.293,67.969z M53.293,68.415
		c0.232,0.042,0.216,0.027,0.336,0.111c-0.037,0.037-0.074,0.074-0.112,0.112c-0.073,0.037-0.147,0.074-0.224,0.111
		C53.293,68.639,53.293,68.526,53.293,68.415z M53.517,68.639c0.075,0,0.149,0,0.224,0c-0.037,0.037-0.074,0.074-0.111,0.111
		C53.553,68.765,53.412,68.756,53.517,68.639z M52.959,69.085c0.182,0.15,0.125,0.071,0.224,0.335
		c-0.037,0.037-0.074,0.073-0.112,0.111c-0.037,0-0.074,0-0.111,0C52.959,69.383,52.959,69.233,52.959,69.085z M53.183,69.42
		c0.038,0.033,0.224,0.058,0.11,0.223C53.17,69.589,52.946,69.444,53.183,69.42z M51.73,70.536c0.125,0.185,0.198,0.119,0,0.223
		C51.73,70.685,51.73,70.609,51.73,70.536z M52.512,70.646c0.15,0,0.298,0,0.447,0c-0.008,0.249,0.128,0.406,0.111,0.559
		c-0.119,0.084-0.105,0.067-0.334,0.112C52.758,71.004,52.419,71.185,52.512,70.646z M52.065,70.87c0.075,0,0.149,0,0.224,0
		c0,0.075,0,0.148,0,0.224c-0.074,0-0.148,0-0.224,0C52.065,71.019,52.065,70.945,52.065,70.87z M37.215,71.875
		c0.075,0,0.149,0,0.223,0C37.306,72.055,37.392,72.012,37.215,71.875z M38.667,73.884c0.362,0.093,0.171-0.055,0.335,0.224
		C38.735,74.013,38.818,74.062,38.667,73.884z M37.438,75.893c0.063,0.08,0.161,0.005,0.112,0.223c-0.038,0-0.075,0-0.112,0
		c-0.162,0.285,0.024,0.126-0.334,0.224c0-0.037,0-0.074,0-0.111c0.089-0.113,0.04-0.031,0.111-0.223
		C37.411,75.934,37.324,75.982,37.438,75.893z M61.893,76.786c0.073,0,0.147,0,0.223,0c-0.038,0.036-0.075,0.074-0.112,0.111
		c0,0.037,0,0.074,0,0.111C61.913,76.895,61.964,76.979,61.893,76.786z M38.891,77.009c0.186,0,0.372,0,0.558,0
		c0.08,0.229,0.111,0.521,0.111,0.894c-0.037-0.038-0.074-0.075-0.111-0.112c-0.253,0.044-0.121,0.103-0.335,0
		C39.005,77.661,38.913,77.515,38.891,77.009z M18.122,77.79c0.275,0.145,0.076-0.048,0.223,0.223c-0.074,0-0.148,0-0.223,0
		c0,0.038,0,0.075,0,0.111c-0.075-0.036-0.149-0.073-0.223-0.111c0,0.038,0,0.075,0,0.111c-0.163,0.129-0.246,0.224-0.447,0.336
		c0.037,0.111,0.074,0.223,0.112,0.335c-0.254-0.04-0.169-0.025-0.558,0c0.037-0.038,0.074-0.075,0.111-0.112
		c-0.079-0.281-0.109-0.413,0-0.559C17.351,77.877,17.824,77.976,18.122,77.79z M37.774,78.683c0.307,0.11,0.545,0.005,0.669,0.559
		c-0.27,0.101-0.177,0.119-0.446,0.223c0.037-0.074,0.074-0.148,0.112-0.223c-0.038,0-0.075,0-0.112,0c0,0.037,0,0.074,0,0.111
		c-0.037-0.037-0.075-0.074-0.112-0.111c-0.037,0-0.075,0-0.111,0C37.844,78.95,37.826,79.028,37.774,78.683z M62.785,79.688
		c0.089,0.114,0.039,0.03,0.111,0.223c-0.037,0-0.074,0-0.111,0C62.785,79.836,62.785,79.762,62.785,79.688z M62.896,80.134
		c0.271,0.038,0.099,0.036,0.447,0c-0.018,0.867,0.175,0.217,0.334,1.004c-0.186,0-0.372,0-0.558,0
		C62.953,80.695,62.796,80.59,62.896,80.134z M16.559,80.469c0.433,0.125,1.071,0.305,1.451,0.446
		c0.037,0.037,0.075,0.074,0.112,0.111c-0.32,0.396-0.617,0.94-0.782,1.451c-0.359,1.115,0.285,1.752,0,1.897
		c-0.121,0.284-0.131,0.637-0.781,0.67c0-0.038,0-0.075,0-0.112c-0.075,0.037-0.149,0.074-0.224,0.112c0-0.038,0-0.075,0-0.112
		c-0.152-0.186-0.579-0.693-0.558-1.897c0.408-0.416,0.027-1.49,0.335-2.009C16.334,80.653,16.563,80.945,16.559,80.469z
		 M67.251,80.692c0.112,0,0.224,0,0.336,0c-0.038,0.073-0.075,0.148-0.112,0.223c0.037,0,0.074,0,0.112,0
		c0.114-0.09,0.03-0.04,0.223-0.112c-0.041,0.352,0.031-0.009,0.111,0.335c-0.22,0.166,0.062,0.159-0.334,0.224
		c-0.097-0.072-0.353-0.149-0.447-0.224C67.005,80.962,67.147,80.984,67.251,80.692z M42.128,81.696
		c0.502,0.235,0.603,0.416,0.781,0.67c0.113,0.137,0.262,0.55,0.112,0.781c0,0.037,0,0.074,0,0.111c-0.254-0.04-0.169-0.024-0.558,0
		c-0.099-0.304-0.191-0.328-0.335-0.559C42.469,82.502,42.223,82.168,42.128,81.696z M62.562,81.696
		c0.148,0.037,0.298,0.074,0.447,0.111c-0.231,0.295-0.24,0.491-0.447,0.782c-0.218-0.309-0.566-0.143-0.446-0.671
		c0.037,0,0.074,0,0.111,0C62.392,81.973,62.398,81.934,62.562,81.696z M54.969,90.736c0.033-0.26,0.051-0.276,0.111-0.446
		c-0.247-0.036-0.12,0.115-0.223-0.112c-0.018-0.104,0.071-0.054-0.111-0.223c-0.112-0.077-0.447-0.144-0.559-0.223
		c0.637-0.24,0.817-2.168,2.121-2.232c0,0.037,0,0.074,0,0.111c0.074-0.037,0.149-0.074,0.224-0.111
		c0.442-0.858,0.372-1.443,1.005-2.455c-0.002-0.395-0.136-0.793,0.111-1.229c0.104-0.182,0.428-0.188,0.559-0.334
		c-0.154-1.078,0.297-0.729,0.67-1.563c0.037,0,0.074,0,0.111,0c0,0.484,0,0.968,0,1.451c-0.66,0.882-0.171,1.554-0.781,2.679
		c0.004,0.105,0.24,0.333,0.112,0.558c-0.075,0-0.149,0-0.224,0c0.02,0.675-0.486,0.721-1.006,1.34
		c-0.264,1.937-1.394,3.489-1.339,5.245c-0.224-0.003-0.032-0.114-0.224,0c0.146,0.251-0.334,1.396-0.335,1.897
		c-0.496-0.016,0.009,0.143-0.671,0.224c-0.234-0.352-0.33-0.147-0.445-0.447c0.104-0.212,0.042-0.13,0-0.445
		c0.074,0.037,0.148,0.073,0.223,0.111c-0.265-0.848-0.332-1.892-1.006-2.344c-0.172-0.079-0.014-0.015-0.334,0
		c0.037-0.074,0.074-0.149,0.111-0.224c-0.037,0-0.074,0-0.111,0c0,0.038,0,0.074,0,0.111c-0.037-0.037-0.074-0.073-0.111-0.111
		c-0.038-0.037-0.075-0.074-0.111-0.111c0.168-0.06,0.189-0.075,0.446-0.112c0.12,0.084,0.104,0.067,0.334,0.112
		c-0.036,0.074-0.073,0.149-0.11,0.223c0.037,0,0.074,0,0.11,0c0.146-0.158,0.132,0.011,0.336,0.112c0-0.037,0-0.074,0-0.112
		c0.01-0.118,0.22-1.403,0.335-1.674C54.492,90.592,54.467,90.685,54.969,90.736z M34.536,82.924
		c0.409,0.165,0.518,0.191,0.558,0.669c-0.037,0-0.074,0-0.111,0C34.334,83.121,34.788,83.688,34.536,82.924z M34.759,83.593
		c0.075,0,0.149,0,0.224,0c0,0.038,0,0.075,0,0.112C34.787,83.635,34.874,83.684,34.759,83.593z M73.281,84.486
		c0.089,0.114,0.038,0.03,0.11,0.223c-0.036,0-0.073,0-0.11,0C73.281,84.636,73.281,84.561,73.281,84.486z M71.606,84.598
		c0.438,0.06,0.58,0.106,0.669,0.335c-0.037,0.037-0.074,0.074-0.111,0.112c-0.074,0-0.149,0-0.224,0
		C71.772,84.557,71.74,84.975,71.606,84.598z M72.388,84.821c0.501,0.131,0.67,0.31,0.894,0.446
		c0.079-0.063,0.005-0.161,0.224-0.111c0,0.037,0,0.074,0,0.111c-0.038,0.037-0.075,0.074-0.113,0.112
		c-0.11,0.037-0.223,0.073-0.334,0.11C72.841,85.048,72.243,85.418,72.388,84.821z M81.097,85.045
		c0.296,0.132,0.2-0.101,0.335,0.223c-0.09,0.114-0.039,0.031-0.111,0.223c0.273-0.031,0.054-0.073,0.335,0c0-0.037,0-0.073,0-0.11
		c-0.037,0-0.074,0-0.112,0c0.038-0.075,0.075-0.149,0.112-0.224c0.209,0.093,0.297,0.154,0.559,0.224
		c-0.016,0.255-0.043,0.359,0.223,0.558c1.086,0.532,3.707-0.111,4.131,1.116c0.172,0.232,0.256,0.659,0.224,0.893
		c0.038-0.037,0.074-0.074,0.111-0.111c0.087-0.215,0.112,0.224,0.112,0.224c-0.378,0.372-0.227,0.437-0.558,0.558
		c-0.195-0.098-0.19-0.053-0.559,0c0.037-0.074,0.074-0.149,0.111-0.224c-0.037,0-0.074,0-0.111,0
		c-0.114,0.09-0.031,0.04-0.224,0.111c0.037-0.073,0.074-0.148,0.111-0.224c-0.037,0-0.074,0-0.111,0
		c-0.271,0.063-0.686-0.118-1.005-0.334c-0.777-0.523-2.547,0.846-2.68,1.005c0.037,0,0.074,0,0.111,0
		c-0.037,0.037-0.074,0.073-0.111,0.111c0,0.037,0,0.074,0,0.112c-0.075-0.038-0.148-0.075-0.224-0.112
		c0.038,0.271,0.036,0.099,0,0.446c-0.347-0.02-0.273,0.47-0.67,0.781c0,0.037,0,0.074,0,0.111
		c-0.074-0.037-0.148-0.074-0.224-0.111c-0.043,0.282,0.065,0.176-0.335,0.224c-0.392-0.251-0.64-0.023-0.781-0.336
		c-0.005-0.005-0.518-0.765-0.559-0.893c0.305-0.178,0.093,0.018,0.111-0.334c0.293-0.001,0.219,0.086,0.447-0.224
		c-0.267-0.198-0.059-0.21-0.224-0.335c0,0.038,0,0.074,0,0.111c-0.037-0.037-0.074-0.073-0.111-0.111
		c-0.09-0.114-0.04-0.03-0.112-0.224c0.438,0.006,0.404-0.224,0.895-0.446c0,0,0.048,0.443,0.11,0.224c0-0.037,0-0.074,0-0.111
		c0.216-0.163,0.243-0.341,0.447-0.224c0.037,0,0.074,0,0.111,0c0.047,0.219-0.171,0.08,0,0.224
		c0.171-0.118,0.782-0.112,0.782-0.112c0.246-0.203-0.023-0.25,0.446-0.335c0.142,0.404-0.13,0.377,0.447,0.447
		c0.114-0.09,0.03-0.04,0.223-0.112c0-0.111,0-0.223,0-0.335c-0.427,0.114-0.629,0.057-0.67-0.558
		c0.02-0.209,0.072,0.01,0.224-0.224c0.013-0.02-0.137-0.459-0.111-0.558c-0.429-0.03-0.493-0.339-1.117-0.446
		c0.045,0.253,0.103,0.121,0,0.335c-0.14-0.181-0.234-0.225-0.446-0.335c0-0.074,0-0.149,0-0.223
		C80.968,85.375,80.896,85.42,81.097,85.045z M44.808,85.156c0.188,0.093,0.693,0.197,0.894,0.334c-0.074,0-0.149,0-0.224,0
		c-0.074,0.112-0.149,0.224-0.223,0.335c-0.224-0.003-0.032-0.113-0.224,0C44.695,85.526,44.728,85.513,44.808,85.156z
		 M80.427,85.49c0.124,0.186,0.198,0.12,0,0.224C80.427,85.64,80.427,85.565,80.427,85.49z M50.391,86.495
		c0.112,0.038,0.224,0.074,0.334,0.111c0.038,0.112,0.075,0.224,0.112,0.335c-0.336-0.107-0.172,0.201-0.334-0.111
		c-0.196-0.07-0.108-0.021-0.224-0.111c0.074,0,0.149,0,0.224,0C50.465,86.644,50.429,86.569,50.391,86.495z M54.41,86.83
		c0.184,0.298,0.075,0.63,0.111,1.005c-0.074,0-0.148,0-0.223,0c0-0.037,0-0.074,0-0.112c-0.072-0.113-0.242-0.022-0.111-0.111
		C54.104,87.122,54.223,87.251,54.41,86.83z M68.702,87.165c0.471,0.063,0.787,0.202,0.894,0.335
		c0.098,0.145,0.101,0.275,0.112,0.559c-0.316,0-0.26,0.085-0.67,0.222c-0.027-0.452-0.151-0.326-0.559-0.78
		C68.822,87.351,68.538,87.466,68.702,87.165z M79.31,87.277c0.075,0,0.149,0,0.224,0c-0.037,0.037-0.074,0.073-0.111,0.11
		c0,0.038,0,0.075,0,0.112C79.332,87.386,79.382,87.469,79.31,87.277z M80.314,87.388c0.075,0,0.149,0,0.224,0
		c-0.037,0.038-0.074,0.075-0.111,0.112c0,0.037,0,0.074,0,0.111C80.337,87.497,80.387,87.581,80.314,87.388z M79.198,87.5
		c0.268,0.229,0.024,0.105,0.111,0.335C79.107,87.902,79.219,87.608,79.198,87.5z M49.386,87.611c0.26,0,0.521,0,0.781,0
		c0,0.074,0,0.149,0,0.224c-0.037,0.037-0.074,0.074-0.111,0.111C49.725,87.85,49.498,87.937,49.386,87.611z M45.924,87.835
		c0.09,0.114,0.04,0.03,0.112,0.224c-0.037,0-0.074,0-0.112,0C45.924,87.983,45.924,87.909,45.924,87.835z M65.911,87.835
		c0.111,0.037,0.224,0.074,0.335,0.111c-0.114,0.09-0.03,0.039-0.224,0.112c-0.036,0.036-0.073,0.073-0.111,0.11
		C65.911,88.059,65.911,87.946,65.911,87.835z M66.916,87.835c0.233,0.125,0.204,0.159,0.559,0.224
		c0.27-0.153,0.276-0.159,0.446,0.11c0.085,0.121,0.075,0.193,0.111,0.559c-0.037,0-0.074,0-0.111,0
		c-0.373-0.358-0.307,0.018-0.781-0.111c-0.062,0.324-0.227,0.478-0.446,0.559c0-0.038,0-0.075,0-0.112
		c-0.034-0.036-0.336-0.559-0.336-0.559c0-0.037,0-0.073,0-0.111c0.075,0.038,0.149,0.074,0.224,0.111c0-0.037,0-0.073,0-0.111
		c0,0-0.009-0.02,0.224-0.112c-0.038,0.075-0.074,0.15-0.111,0.224c0.037,0,0.073,0,0.111,0c0-0.037,0-0.073,0-0.111
		C66.902,88.249,66.904,88.117,66.916,87.835z M60.552,92.969c0.47-0.056,0.635-0.128,0.894-0.223
		c0.121-0.353,0.053-0.54,0.224-1.006c-0.262-0.016-0.572-0.018-0.67-0.334c0.018-0.139-0.011-0.467-0.224-0.558
		c-0.071-0.196-0.021-0.108-0.112-0.224c-0.132,0.089-0.188,0.086-0.445,0.111c-0.021-0.736,0.026-1.172,0.223-1.34
		c0.241-0.263,0.194-0.208,0.446-0.222c0-0.038,0-0.075,0-0.112c0.012-0.051,0.083-0.132,0.224-0.335
		c0.274,0.066,0.654-0.003,1.005,0.111c0-0.037,0-0.074,0-0.111c0.017-0.124-0.027-0.15,0.223-0.335
		c0.535-0.545,2.509-0.331,2.791,0.446c-0.037,0.037-0.073,0.074-0.11,0.112c0.037-0.038,0.073-0.075,0.11-0.112
		c0.087-0.215,0.113,0.224,0.113,0.224c-0.038,0-0.075,0-0.113,0c0.038,0.074,0.075,0.148,0.113,0.223
		c0.174,0.03,0.54-0.043,0.78,0.111c0.254,0.368-0.065,0.611,0.224,0.781c0.159,0.29,0.532,0.604,0.781,0.447
		c0.214,0.223,0.116,0.461,0.224,0.558c0.174-0.117,0.456-0.115,0.781-0.111c0,0.074,0,0.149,0,0.223
		c-0.04,0.151-0.072,0.503,0.224,0.67c0.053,0.023,1.29,0.032,1.34,0c0.134-0.225,0.015-0.371,0.112-0.558
		c0.119-0.084,0.104-0.067,0.335-0.112c0.177,0.446,0.881,0.013,1.116,0c-0.059-0.297-0.093-0.259,0-0.558
		c-0.292-0.043-0.146,0.083-0.223-0.223c0.257-0.144,0.096-0.205,0.223-0.559c0.216,0.15,0.263,0.4,0.447,0.559
		c0.162,0.139,0.517-0.069,0.781,0.223c0.037,0,0.074,0,0.11,0c-0.036,0.074-0.073,0.149-0.11,0.223
		c0.283,0.044,0.176-0.064,0.224,0.335c0.036,0,0.073,0,0.11,0c0.047,0.219-0.17,0.081,0,0.224c0.277,0.315,0.35,0.168,0.56,0.446
		c0.222,0.245-0.058,0.394,0.224,0.893c0.195,0.35,0.523,0.302,0.781,0.67c0.123,0.123,0.086,0.337,0.223,0.446
		c0.119,0.085,0.105,0.067,0.335,0.112c0-0.037,0-0.074,0-0.112c-0.096-0.21-0.053-0.082,0-0.335
		c-0.395-0.007-0.319-0.227-0.446-0.558c-0.271,0.038-0.099,0.036-0.446,0c-0.003-0.137-0.195-1.504-0.336-1.674
		c-0.167-0.14-0.682-0.239-0.894-0.67c0.275-0.23,0.082-0.155,0.224-0.446c-0.229-0.132-0.21-0.076-0.334-0.335
		c0.102-0.127,0.289-0.408,0.334-0.893c-0.225,0.016-0.473,0.032-0.67-0.111c0.371-0.412,0.269-0.532,0.446-0.893
		c0.303-0.005,0.074,0.018,0.447-0.112c0,0.113,0.378,0.61,0.446,0.67c0.165,0.125,0.341,0.232,0.447,0.111
		c0.318-0.235,0.26-0.423,0.335-0.447c0.074-0.036,0.148-0.073,0.223-0.111c0,0.038,0,0.075,0,0.111
		c0.331,0.244,0.233,0.252,0.336,0.559c0.296,0.132,0.2-0.1,0.334,0.224c0.037,0,0.075,0,0.112,0c0.046,0.218-0.172,0.08,0,0.223
		c0.132,0.09,0.187,0.087,0.446,0.111c0.12-0.087,0.548-0.222,0.559-0.222c0.183,0.099,1.013,1.293,1.117,1.115
		c0.556,0.164,1.382-0.092,1.562,0.111c0.037,0.037,0.074,0.075,0.111,0.112c0.038,0,0.075,0,0.111,0
		c-0.036,0.074-0.073,0.148-0.111,0.223c0.038-0.037,0.075-0.074,0.111-0.111c0.087-0.215,0.112,0.224,0.112,0.224
		c0.096,0.209,0.053,0.082,0,0.334c0.082-0.001,0.571,0.377,0.67,0.893c-0.228,0.097-0.647,0.42-0.67,0.447
		c0.09,0.114,0.04,0.03,0.111,0.224c-0.074-0.038-0.148-0.075-0.224-0.112c0,0.037,0,0.074,0,0.112c0.037,0,0.075,0,0.112,0
		c-0.037,0.036-0.075,0.073-0.112,0.11c-0.494,0.52-1.257,0.808-1.562,1.229c-0.093,0.17-0.155,1.029-0.223,1.228
		c-0.075-0.038-0.149-0.075-0.224-0.111c0.037,0.073,0.074,0.148,0.111,0.223c-0.263,0.275-0.549,0.596-0.781,0.894
		c0,0,0.11,0.83,0.11,1.004c0,0.979-0.159,1.813,0,2.679c-0.036,0-0.073,0-0.11,0c-0.288-0.21-0.33-0.152-0.67-0.111
		c0.014-0.472-0.082-0.049-0.224-0.447c0.408-0.655-0.614-1.667-0.671-1.897c-0.257-0.85,0.322-1.047,0.336-1.785
		c0.074,0.037,0.148,0.074,0.223,0.111c-0.04-0.253-0.024-0.169,0-0.558c-0.39,0.062-0.97-0.141-1.116-0.335
		c-0.103,0.101-0.014,0.219-0.111,0.335c-0.075-0.038-0.148-0.075-0.224-0.111c0,0.036,0,0.073,0,0.111
		c0.03,0.043-0.05,0.465,0,0.781c0.282-0.092,0.388-0.091,0.67,0c-0.262,0.603-0.37,0.509-0.335,1.228
		c-0.241-0.017-0.247,0.325-1.117,0.335c-0.349-0.278-0.213,0.012-0.67-0.112c-0.416-0.112-0.625-0.443-0.781-0.558
		c-0.111,0.037-0.223,0.074-0.334,0.111c-0.266-0.009-1.382,0.197-1.675,0.112c-0.57-0.167-0.705,1.414-1.452,0.781
		c-0.116,0.108-0.051,0.291-0.224,0.111c-0.201,0.28,0.018,0.4-0.335,0.558c-0.092,0.195-0.122-0.237-0.334-0.111
		c-0.598-0.177-2.754-2.427-3.462-2.902c-0.246,0.091-0.633-0.165-1.229-0.223c0.037-0.074,0.074-0.149,0.112-0.223
		c-0.038,0-0.075,0-0.112,0c-0.417,0.109-1.957-0.775-2.233-1.005c-0.111,0.037-0.223,0.074-0.335,0.111c0,0-0.747-1.01-1.004-1.228
		c0.037-0.111,0.074-0.224,0.111-0.334c0.215,0.162,0.242,0.34,0.446,0.223c0.089-0.109,0.161-0.307,0.223-0.446
		c-0.195-0.071-0.107-0.021-0.223-0.112c0.187,0,0.373,0,0.559,0C60.39,92.812,60.512,92.401,60.552,92.969z M78.863,88.059
		c0.074,0,0.149,0,0.224,0c0,0.073,0,0.148,0,0.222c-0.47,0.053-0.372,0.133-0.781,0.224c0-0.073,0-0.148,0-0.224
		C78.542,88.23,78.712,88.181,78.863,88.059z M66.022,88.169c0.075,0,0.149,0,0.224,0c0,0.038,0,0.075,0,0.111
		C66.05,88.211,66.138,88.26,66.022,88.169z M46.483,88.28c0.307,0.141,0.586,0.277,0.894,0.447
		c-0.038,0.074-0.075,0.148-0.112,0.224c0.922,0.061,0.829,1.367,2.345,1.115c-0.015,0.397,0.1,0.602,0.335,1.005
		c0.224-0.074,0.348-0.042,0.447-0.112c0.102-0.104,0.148-0.195,0.224-0.334c0.074,0,0.148,0,0.223,0
		c0.286,0.4,0.534,0.238,0.782,0.781c-0.225-0.004-0.031-0.114-0.225,0c0.039,0,0.076,0,0.113,0
		c-0.037,0.074-0.074,0.148-0.113,0.224c-0.422,0.143-0.063,0.107-0.444,0.223c-0.172-0.164-0.485-0.229-0.671-0.112
		c-0.336,0.336-0.39,0.799-0.67,0.559c-0.667-0.569-1.067-1.149-1.674-1.897c-0.134-0.165-0.447-0.111-0.447-0.111
		c-0.162-0.179-0.779-0.863-0.669-0.894c-0.095-0.111-0.224,0-0.224,0c-0.103-0.244,0.146-0.321,0.112-0.445
		C46.597,88.561,46.471,88.621,46.483,88.28z M77.188,88.728c0.039,0.034,0.224,0.059,0.112,0.224
		C77.176,88.896,76.952,88.753,77.188,88.728z M78.082,88.728c0.278,0.088,0.318,0.052,0.558,0.111
		c0.089,0.273,0.055,0.195,0.112,0.558c-0.3,0.021-1.061-0.063-1.117,0c-0.172-0.126-0.094-0.12-0.334-0.222
		c0.037-0.112,0.074-0.224,0.111-0.336C77.913,88.854,77.846,88.984,78.082,88.728z M52.848,89.396
		c0.404,0.142,0.377-0.13,0.445,0.447c0.09,0.114,0.041,0.03,0.113,0.223c-0.275,0.145-0.076-0.048-0.224,0.224
		c-0.091-0.114-0.04-0.031-0.112-0.224C52.758,89.933,52.754,89.735,52.848,89.396z M68.256,89.844
		c0.364,0.107,0.599,0.255,0.671,0.446c-0.038,0-0.075,0-0.112,0c-0.195,0.142-0.458,0.168-0.559,0.111
		c-0.089-0.114-0.039-0.03-0.111-0.224C68.45,90,68.236,90.195,68.256,89.844z M40.677,90.066c0.736,0.519,0.899,0.979,1.675,1.228
		c0,0.037,0,0.075,0,0.112c-0.298,0-0.595,0-0.893,0c-0.182-0.518-0.483-0.482-1.228-0.447c0.037-0.037,0.074-0.073,0.112-0.11
		c0.01-0.36,0.104-0.233,0.111-0.671c0.037,0.038,0.074,0.075,0.111,0.112C40.652,90.504,40.677,90.066,40.677,90.066z
		 M50.503,90.401c0.231,0.042,0.214,0.027,0.334,0.112C50.605,90.472,50.623,90.486,50.503,90.401z M59.212,92.522
		c0.125,0.185,0.197,0.119,0,0.224C59.212,92.671,59.212,92.597,59.212,92.522z M68.032,98.772c0.075,0,0.149,0,0.224,0
		c0,0.036,0,0.074,0,0.111C68.061,98.813,68.147,98.862,68.032,98.772z"/>
</g>
<g id="Layer_1">
</g>
</svg>
