<?xml version="1.0" encoding="iso-8859-1"?>
<!-- Generator: Adobe Illustrator 16.0.3, SVG Export Plug-In . SVG Version: 6.00 Build 0)  -->
<!DOCTYPE svg PUBLIC "-//W3C//DTD SVG 1.1//EN" "http://www.w3.org/Graphics/SVG/1.1/DTD/svg11.dtd">
<svg version="1.1" xmlns="http://www.w3.org/2000/svg" xmlns:xlink="http://www.w3.org/1999/xlink" x="0px" y="0px" width="100px"
	 height="100px" viewBox="0 0 100 100" style="enable-background:new 0 0 100 100;" xml:space="preserve">
<g id="EC">
	<path style="fill-rule:evenodd;clip-rule:evenodd;fill:#010101;" d="M38.781,0c1.477,0.492,2.167,1.833,3.006,2.903
		c1.623-0.208,1.709,1.128,3.113,0.968c-0.035,0.251-0.071,0.503-0.107,0.753c0.582-0.374,1.355-0.782,2.04-0.753
		c-0.009,0.905,0.627,1.006,0.859,1.613c-0.257,0.036-0.088-0.019-0.43,0.107c0.143,0.684,0.873,1.251,1.288,1.184
		c-0.013,0.633-0.037,0.738,0.107,1.074c3.107-0.375,2.772,3.021,7.408,1.183c0.072,0.405,0.153,0.335,0.536,0.646
		c-0.107,0.394-0.215,0.788-0.321,1.183c1.36,0.42,1.367,1.047,3.327,1.29c0,0.036,0,0.071,0,0.107
		c-0.401,1.335-0.488,2.64-0.751,3.549c0.106,0.035,0.215,0.071,0.321,0.107c0.139-0.192,0.192-0.209,0.536-0.322
		c0.145,0.035,0.287,0.071,0.43,0.107c0.694,0.562,2.354,0.895,3.651,0.859c0.143-0.107,0.286-0.215,0.43-0.322
		c0.25,0.036,0.501,0.071,0.751,0.107c0.437,0.47,0.312,1.182,0.966,1.505c0.769-0.291,1.333,0.256,2.148,0
		c-0.005,0.383-0.1,0.225,0.106,0.537c0.635-0.079,1.025-0.025,1.396,0.107c0.058-0.289-0.045-0.264,0.43-0.43
		c0.215,0.107,0.43,0.215,0.645,0.322c0.106-0.215,0.215-0.43,0.321-0.645c0.997,0.495,1.275,0.332,2.256,1.075
		c0.483-0.237,0.357-0.382,1.074-0.646c0.012,0.323,1.717,0.43,1.717,0.43c-0.04-0.704-0.13-1.897,0.215-2.257
		c0.16-0.265,0.126-0.098,0.43-0.322c0.178,0.255,0.202,0.299,0.645,0.215c0.036-0.327-0.001-0.359,0.321-0.645
		c0.514,0.12,0.599,0.277,1.288,0.322c-0.023,0.357-0.101,0.248,0.107,0.537c0.368-0.169,0.742,0.084,0.966-0.322
		c0.446,0.478,0.29,0.947,1.074,1.183c0.212-0.296,0.771-0.125,1.073,0.322c1.018,0.715,2.034,2.633,3.544,3.872
		c0.619,0.508,2.597-0.321,3.113,0.537c0.257,0.422,0.011,0.502,0.537,0.43c0.355,0.11,4.508,1.721,4.508,1.721
		c-0.071,0-0.143,0-0.215,0c-1.063,0.866-4.138,0.194-4.938-0.323c-0.072,0.036-0.144,0.073-0.215,0.107c0,0.395,0,0.789,0,1.184
		c0.071-0.036,0.143-0.072,0.215-0.107c0.377,0.039,0.805-0.054,0.966,0.107c0.536,0.328,2.256,3.96,2.254,3.979
		c0.65-0.084,1.746,0.743,2.362,1.29c0.666,0.589-0.41,0.773,0.215,1.183c-0.275,0.727-0.312,0.316-0.859,0.86
		c0.147,0.517-0.023,1.521,0.43,1.398c-0.331,0.773,0.369,2.411,0.645,3.333c-0.071,0-0.143,0-0.215,0
		c-0.526,0.265-0.939,0.229-1.289,0.322c-0.321-0.358-0.644-0.716-0.966-1.075c-0.106,0.036-0.215,0.071-0.322,0.108
		c-0.699,2.46-1.496,7.86-2.79,9.784c-0.698,0.036-1.982,1.74-2.362,2.473c-0.996,1.922-3.93,5.49-5.905,7.204
		c-2.499,2.169-5.532,4.031-8.052,6.345c-0.43,0.395-1.561,0.291-2.147,0.537c-3.507,1.256-7.015,2.51-10.522,3.764
		c-2.003,0.609-4.008,1.219-6.012,1.827c-1.723,1.049-1.56,1.876-3.006,3.119c-0.999,0.86-2.36,2.037-2.684,3.011
		c0.342,0.149,0.765,0.798,0.859,1.505c-0.43,0.144-0.859,0.287-1.288,0.43c-0.107-0.501-0.215-1.002-0.322-1.505
		c-0.537-0.107-1.074-0.215-1.611-0.322c0.223,2.011-1.042,4.188-0.858,6.236c-1.63,0.695-0.513,1.577-1.288,2.688
		c-0.118,0.169-0.751,0.012-0.967,0.323c-0.429,0.293-0.404,0.879,0.107,0.967c-0.414,2.526-2.323,4.639-1.288,5.807
		c0.107,0,0.215,0,0.322,0c-0.446,0.859-0.729,2.33-1.074,2.688c-0.485,0.98-2.635,0.323-2.898,1.505
		c-0.682,0.442-0.578,1.503-0.43,2.259c-0.275,0.128-0.102-0.067-0.215,0.215c0.072,0.251,0.144,0.502,0.215,0.752
		c-2.035-0.188-0.925,0.98-1.824,1.507c-0.107,0.106-0.215,0.215-0.322,0.321c-0.078-0.144-3.105-1.512-3.65-0.752
		c-1.281-1.286-4.005-4.579-3.329-6.882c-1.221-0.027-1.371-0.908-2.146-1.397c-0.492-0.311-2.201,1.104-2.792,0.968
		c-0.558-0.13-0.566-1.053-1.073-1.506c-0.572-0.512-0.752,0.103-1.396,0c-1.804-1.45-1.528-1.236-3.435-1.722
		c-0.166,1.082-0.628,1.253-1.289,1.938c-0.143-0.072-0.286-0.145-0.429-0.216c-0.169,1.576-1.676,1.321-2.47,0.753
		c0.361-1.707,1.277-2.546,2.041-3.656c-0.764,0.012-0.947-0.557-2.041-0.107c-0.023-1.024-0.514-1.916-0.321-2.044
		c0.046-0.413,0.496-1.159,0.751-1.396c2.327,0.643,2.406,0.073,4.617-1.183c-0.48-1.618-1.453-2.905-0.859-4.947
		c-0.385-0.068-0.866-1.374-0.859-2.043c0.581-0.313,0.896-0.521,1.504-0.431c-0.7-0.723-1.844-0.074-2.47-0.967
		c0.143-0.107,0.286-0.215,0.429-0.322c0.003,0.721-0.062,0.347,0.322,0.645c0.036-0.286,0.071-0.573,0.107-0.859
		c0.107,0.143,0.215,0.286,0.322,0.43c0.469-0.265,1.621-0.229,1.825-0.43c0.562-0.555,0.647-1.546,1.396-1.828
		c-0.023,0.357-0.1,0.247,0.107,0.538c0.572-0.538,1.146-1.076,1.718-1.614c0.146-0.382-0.084-0.806,0.107-1.183
		c0.336,0.053,0.184-0.009,0.322-0.107c0.486-0.363,0.696-5.432,1.503-6.344c-0.179-0.107-0.358-0.216-0.537-0.322
		c0.036-0.503,0.071-1.005,0.107-1.506c-0.222,0.26-0.275,0.348-0.215,0.645c-0.52,0.383,0.003,1.065-1.181,1.291
		c-0.035-0.18-0.071-0.358-0.107-0.538c0.348-0.487,1.235-2.561,0.537-3.226c0.243,0.979-1.241,4.24-1.933,3.549
		c-0.501-0.288-1.002-0.574-1.503-0.86c0.071,0,0.143,0,0.215,0c0.435-0.704,0.705-0.864,1.073-1.398c0.215,0,0.429,0,0.644,0
		c-0.035-0.107-0.07-0.215-0.106-0.322c-0.072-0.036-0.143-0.071-0.215-0.107c-0.215,0.144-0.43,0.286-0.644,0.43
		c-0.036,0-0.072,0-0.108,0c-0.126-1.431,0.73-1.98,1.073-2.58c-0.106,0-0.215,0-0.321,0c-0.192,0.184-0.424,0.164-0.752,0.322
		c0.008,2.101-2.226,3.155-3.436,4.731c0.084,0.74,0.177,0.939,0,1.183c-0.868,0.422-5.795-4.926-7.407-5.377
		c-0.046,0.28,0.104,0.06-0.107,0.323c-0.36-0.678-2.011-1.354-2.577-1.291c0.029-0.895-0.967-1.466-1.288-1.935
		c0.743,0.054,0.705,0.087,0.858,0.43c0.964-0.167,0.948-0.354,1.611-1.075c0.321-0.108,0.644-0.216,0.966-0.323
		c1.864-2.33-0.938-6.498-1.288-8.817c0.915-0.332,0.178-1.392,1.288-1.29c0.044-0.964,0.221-0.928,0-1.613
		c0.235-0.068,0.432,0.1,0.322-0.323c0.252-0.496-2.561-3.544-2.255-3.87c-0.036-0.036-0.071-0.072-0.107-0.107
		c0-0.072,0-0.144,0-0.216c-0.071,0.036-0.144,0.072-0.215,0.107c0.074-0.402,0.049-0.607,0.215-0.753
		c0.872-1.323,2.72-2.21,4.401-1.504c0.66-0.367,2.792-5.442,2.685-5.806c0.216-0.708-0.438-2.17-0.858-2.689
		c0,0,2.783-3.546,2.791-3.547c1.268,1.153,3.809-4.206,4.401-5.162c0.542-0.874-0.766-3.267-0.106-3.441
		c0.068-0.019-0.057-0.526,0.215-0.322c-0.147-0.611-0.115-0.318-0.43-0.537c-0.136,0.324,0.002,0.127-0.215,0.322
		c0-0.037,0-0.073,0-0.107c0-0.107,0-0.215,0-0.322c0.462-0.255,0.402-0.855,0.858-1.291c-0.277-1.333-0.112-1.446-1.396-2.258
		c-0.015-1.419,0.479-1.777,0.645-2.366c3.096,0.978,4.258-3.181,6.764-2.15c0.196-0.627,2.854-0.999,3.328-1.936
		c2.275,1.406,5.022-0.751,6.12-2.796c0.286,0.215,0.572,0.43,0.858,0.645c0.107-0.036,0.215-0.071,0.322-0.107
		c-0.303-0.513-0.51-0.329-0.645-0.86c0.243-0.432,0.635-1.016,1.288-1.183c0,0.215,0,0.431,0,0.646
		c0.072-0.072,0.144-0.144,0.215-0.215c0.322-0.359,0.645-0.717,0.966-1.076C38.853,0.287,38.816,0.143,38.781,0z"/>
</g>
<g id="Layer_1">
</g>
</svg>
