<?xml version="1.0" encoding="iso-8859-1"?>
<!-- Generator: Adobe Illustrator 16.0.3, SVG Export Plug-In . SVG Version: 6.00 Build 0)  -->
<!DOCTYPE svg PUBLIC "-//W3C//DTD SVG 1.1//EN" "http://www.w3.org/Graphics/SVG/1.1/DTD/svg11.dtd">
<svg version="1.1" xmlns="http://www.w3.org/2000/svg" xmlns:xlink="http://www.w3.org/1999/xlink" x="0px" y="0px" width="100px"
	 height="100px" viewBox="0 0 100 100" style="enable-background:new 0 0 100 100;" xml:space="preserve">
<g id="EE">
	<g>
		<path style="fill:#010101;" d="M79.725,23.719c0,0,3.226,0.223,4.115,0s3.28-1.057,4.393-0.278c0,0,1.224,0.667,2.447,0.667
			c1.223,0,1.891,0,2.669,0.056s2.613,0.389,2.78,0.111c0.167-0.278,0.277-0.89,0.778-1.223c0.5-0.334,0.778-0.445,1.168-0.334
			c0.389,0.111,1.445,0.778,1.668,1.557c0.223,0.778,0.389,1.334,0.111,1.724c-0.278,0.389-0.723,0.612-0.668,0.89
			c0.056,0.278,0.223,1.557-0.11,1.557c-0.334,0-0.668-0.056-0.668-0.056s-0.444-0.278-0.723,0
			c-0.278,0.278-0.389,0.223-0.723,0.278c-0.334,0.055-1.057,0.111-1.057,0.834c0,0.723,0.056,3.225-0.39,3.893
			c-0.444,0.667-1.501,2.001-1.501,2.558s-0.111,1.612-0.945,1.501c-0.834-0.111-1.168-0.445-2.225-0.389s-2.446,0.611-3.336,0.834
			c-0.89,0.222-2.336,0.056-3.059,0.778c-0.723,0.723-2.279,2.614-2.391,3.559s0.444,1.39,0.444,1.39s0.723,0.333,0.945,0.667
			c0.223,0.334,0.278,0.779,0.334,1.057s0.333-0.167,0.723,0.167c0.389,0.333,0.611,0.834,0.723,1.446
			c0.111,0.611,0.39,1.167,0.39,1.167s0.778,0.612,0.834,1.668c0.056,1.056,0.223,0.834,0.278,1.335
			c0.056,0.5,0.11,1.334,0.11,1.334s0.223,0.278,0.334,1.001c0.111,0.724-0.5,1.502-0.056,1.446
			c0.445-0.056,2.725,0.778,2.836,1.445s0,1.335,0.167,2.002s0.334,0.945,0.334,1.612c0,0.668-0.167,0.834-0.167,1.224
			c0,0.389,0.167,1.224,0.223,1.668c0.056,0.445,0,0.89,0.223,1.057c0.222,0.167,2.057,1.168,2.224,1.557
			c0.167,0.39,0.557,0.668,0.557,0.668s0.723,0.111,0.834,0.556c0.11,0.445,0.11,2.503,0.444,2.78
			c0.334,0.278,1.891,0.668,2.002,1.724c0.111,1.057-0.445,1.279-0.945,1.446c-0.501,0.167-2.169,0.389-2.169,0.389
			s-0.945,0.111-0.945,0.501c0,0.389-0.444,2.169-1.056,2.78c-0.612,0.611-1.446,0.778-1.446,1.445c0,0.668,0.111,0.89-0.223,1.224
			c-0.333,0.334-0.223,1.612-0.223,1.612s0.111,1.502-0.277,1.335c-0.39-0.167-0.945-0.167-1.335-0.167
			c-0.389,0-2.002-0.334-2.78-0.945s-2.78-1.445-2.78-1.445s-0.667-0.111-1.001,0.222c-0.334,0.334-0.611,0.945-1.501,1.057
			s-2.28,0.612-2.392,1.001c-0.111,0.39-0.277,0.945-0.277,0.945s-1.057,0.39-1.502-0.111c0,0-0.333-0.333-1.168-1.001
			c-0.834-0.667-1.167-1.001-1.167-1.001s-1.224-0.056-1.391-0.5c-0.167-0.445-0.056-0.667-0.334-0.945
			c-0.277-0.278-0.723-0.778-0.889-1.224c-0.167-0.444-0.111-0.611-0.334-0.667s-0.723-0.556-0.778-0.778s-0.557-0.445-1.112-1.001
			c-0.557-0.556-1.001-1.057-1.001-1.057s-0.056,0-0.056-0.39c0-0.389,0-0.667,0-0.667s-2.002-0.334-2.725-0.723
			c-0.724-0.39-1.224-0.834-1.502-1.057c-0.277-0.223-0.277-0.611-0.834-0.611c-0.556,0-2.279,0.277-2.391-0.39
			s-0.111-0.723-0.278-1.001c-0.167-0.277-1.001-0.667-1.335-1.001c-0.333-0.333-0.444-0.778-0.444-0.778l-0.945-0.556
			c0,0-0.445-0.223-0.445-0.557c0-0.333-0.556-0.834-0.778-0.556c-0.222,0.278-0.222,1.334-0.222,1.334s-0.278,1.335-0.89,1.279
			c-0.612-0.056-0.39-0.723-0.39-1.168c0-0.444,0.056-0.778-0.278-0.945c-0.333-0.167-0.723-0.723-1.168-0.333
			c-0.444,0.389-1.001,1.167-1.668,1.167c-0.667,0-1.723,0.39-1.89,0.612s-0.444,0.278-1.001,0.333
			c-0.556,0.056-1.224-0.055-1.39,0.278c-0.167,0.334-0.89,1.224-1.613,1.224c-0.723,0-1.835,0.667-1.945,0.834
			c-0.111,0.167-0.278,0.723-0.779,0.834c-0.5,0.111-1.278,0.834-1.278,0.834s-1.057,0.834-1.391,0.834c-0.333,0-0.5-0.444-0.5-0.89
			c0-0.444,0.389-1.724,0.611-2.112c0.223-0.39,1.446-1.78,1.446-2.225c0-0.445,0.056-1.335,0.222-2.058
			c0.167-0.723,0.39-1.224,0.39-1.891s-0.111-3.726,0.778-4.337c0.89-0.612,0.945-1.168,0.723-1.391
			c-0.222-0.223-0.834-0.834-1.057-1.001c-0.222-0.167-1.278-0.611-1.891-0.278c-0.611,0.334-0.611,0.834-0.611,0.834
			s-0.056,1.112-0.334,1.613c-0.277,0.5-0.389,1.279-0.89,1.112c-0.5-0.167-1.334-0.278-1.445-0.056s-0.611,0.723-1.279,0.167
			c-0.667-0.557-1.501-1.224-1.668-1.558c-0.167-0.333-0.167-0.667-0.5-0.444c-0.334,0.222-1.057,0.333-1.224,0
			c-0.167-0.334-0.667-0.223-0.667-0.223s-1.668,0-1.668-0.39c0-0.389-0.056-1.334-0.167-1.612s-0.612-1.224-0.612-1.224
			s-0.167-0.166,0.056-0.723c0.223-0.556,0.334-1.112,0.223-1.334c-0.111-0.223-0.445-0.557-0.723-0.668
			c-0.278-0.111-0.834-0.5-1.501-0.556c-0.667-0.056-1.335-0.223-1.335-0.778c0-0.557,0.056-0.946,0.223-1.113
			c0.167-0.167,0.445-0.333,0.333-0.611c-0.111-0.278-0.222-0.111-0.222-0.612s0.056-0.612,0.167-0.779c0.111-0.167,0-0.611,0-0.611
			s-0.333-0.278-0.056-0.612c0.278-0.333,0.612-0.667,0.723-1.001s0.056-0.612,0.056-0.612s0.056-0.333-0.5-0.111
			c-0.556,0.222-0.945,0.056-0.945-0.445s-0.056-0.667,0.222-1.057c0.278-0.389,0.39-0.445,0.39-0.723
			c0-0.278-0.111-0.333-0.223-0.611c-0.111-0.278-0.278-0.834-0.278-0.834s-0.39-1.001-0.445-1.39
			c-0.056-0.39,0.222-0.723,0.611-0.834s1.112-0.222,1.001-0.445c-0.111-0.222-0.556-0.222-0.834-0.5
			c-0.278-0.278-0.945-0.167-0.945-0.167s0.389,0.39-0.612,0.612c-1.001,0.223-1.167,0.556-1.223,0.278
			c-0.056-0.278-0.278-0.779-0.5-0.39c-0.223,0.39-1.057,0.612-1.39,0.334c-0.334-0.278-0.612-0.389-0.612-0.723
			c0-0.333-0.167-0.167-0.167-0.723s0.39-1.279,0.39-1.279s0.556-0.5,1-0.223c0.445,0.278,0.5,0.445,1.335,0.445
			c0.834,0,0.556-0.167,1.167-0.111c0.612,0.056,1.057,0.223,1.279-0.111c0.223-0.334,0.111-0.612,0.334-1.001
			c0.222-0.389,0.445-0.223,0.556-0.779c0.111-0.556,0.111-1,0.111-1s-1.001-2.113-0.222-2.447c0.778-0.333,0.778-0.389,1.39-0.445
			s0.723-0.167,0.723-0.389c0-0.223,0.334-0.556,0.723-0.723s0.389-0.167,0.389-0.167s0.056-0.222,0.556-0.222
			s1.612-0.111,1.612-0.111l1.391-0.167c0,0-0.445-0.055-0.445-0.667s-0.056-0.723,0-0.89c0.056-0.167,0.056-0.5,0.445-0.334
			c0.389,0.167,1.223,0.612,1.612,0.834c0.39,0.222,0.945,0.834,0.89,0.333s-0.778-0.945-0.778-0.945s-0.557-0.333-0.278-0.556
			c0.278-0.222,0.445-0.167,0.723-0.389c0.278-0.223,0.501-0.333,0.89-0.056c0.39,0.278,1.78,0.89,1.558,0.333
			c-0.223-0.556-0.223-0.556-0.223-0.556s-0.778-0.779,0-0.667s0.667,0.167,1.279-0.278c0.611-0.445,1.223-1.057,1.223-1.057
			s0.223-0.445,0.557-0.5s0.778,0,0.834,0.333s0.223,0.389,0.723,0.389c0.501,0,1.779-0.389,2.558-1
			c0.779-0.612,1.112-0.89,1.112-0.89s0.111,0.278,0.334,0.278c0.222,0,0.222,0.389,0.222,0.389s0.334,1.223,0.501,0.723
			c0.167-0.5-0.056-0.89-0.056-0.89s-0.334-0.445-0.334-0.834s0.223-0.556-0.056-0.612c-0.277-0.055-1.056,0.556-0.889-0.389
			c0.166-0.945,0.556-0.834,0.778-0.834c0.222,0,0.5-0.222,0.556,0.167s0.223,0.445,0.39,0.5c0.166,0.055,0.611,0.945,1.056,0.945
			c0.445,0,1.613,0.167,1.78,0.167c0.166,0,1.667,0.111,1.667,0.111s-0.334-0.5,0.278-0.389c0.611,0.111,1.001,0.056,1.278,0.278
			c0.278,0.223,2.28,0.834,2.447,0.556c0.166-0.278-0.445-0.5,0.333-0.5s1.502-0.278,1.502-0.278s0.111-0.612,0-0.945
			c-0.111-0.334-0.501-0.779-0.501-0.945c0-0.167,0.056-0.89,0.056-1.501s0.056-1.279,0.501-0.667
			c0.444,0.612,0.834,0.723,1.001,1.001c0.166,0.278-0.167,0.389,0.333,0.723c0.501,0.333,1.112,0.89,1.446,1.001
			c0.333,0.111,0.611,0.222,0.556-0.111s-0.444-1.001-0.444-1.001s-0.111-0.389-0.111-0.778c0-0.39-0.111-1.057,0.222-0.834
			c0,0,0.557-0.148,0.965,0.334c0.407,0.482,0.778,0.667,0.778,0.927c0,0.259,0.481,0.927,0.704,0.704
			c0.222-0.222,0.186-0.63,0.186-0.63s-0.037-0.779,0.186-0.667c0.222,0.111,0.593,0.741,0.778,0.741
			c0.185,0,0.519-0.148,0.63-0.185s0.481-0.223,1.112,0.111c0.63,0.333,0.408,0.074,0.815,0.556
			c0.408,0.482-0.223,0.408,0.408,0.482c0.63,0.074,2.149,0.259,3.003,0.333c0.853,0.074,1.038,0,1.668,0.333
			s1.037,0.074,1.371,0.371s0.297,0.705,0.557,0.445c0.259-0.259,0.186-0.556,0.519-0.704c0.334-0.148,0.482-0.705,1.001-0.519
			s0.445,0.111,0.89,0.741c0.445,0.63,0.408,0.63,0.853,0.89c0.445,0.26,1.001,0.148,0.594,0.334
			c-0.408,0.185-0.742,0.074-0.631,0.259s1.038,0.667,1.038,0.667L79.725,23.719z"/>
		<path style="fill:#010101;" d="M44.054,20.355c0,0-0.501-0.611-0.695-0.639c-0.195-0.028-0.334,0.139-0.473,0.306
			c-0.14,0.167-0.334,0.5-0.278,0.834s0.306,0.584,0.528,0.751c0.223,0.167,0.39,0.583,0.611,0.389
			c0.223-0.195,0.028-0.361,0.307-0.584C44.332,21.189,44.276,20.578,44.054,20.355z"/>
		<path style="fill:#010101;" d="M14.61,35.091c0,0,0.25,1.807,0.695,2.196s0.667,0.445,0.834,0.417c0.167-0.028,1.14,0,1.279,0.167
			s0.083,0.222,0.361,0.278s0.75-0.083,0.806,0.306c0.056,0.389-0.083,0.917,0.278,1.362c0.361,0.445,0.862,0.75,0.862,0.75
			s0.473,0.195,0.389,0.5c-0.083,0.306-0.139,0.334-0.139,0.528c0,0.195,0.111,0.361-0.445,0.445s-0.945,0.083-1.612,0.223
			c-0.667,0.139-2.03,0.083-2.558,0.611s-1.195,1.474-1.223,2.085s0.028,1.223-0.25,1.307c-0.278,0.083-1.584,0.167-1.584,0.167
			s-0.695,0.25-0.695-0.083s0.028-0.5,0.056-0.917s0.333-0.695,0.028-1.084c-0.306-0.389-0.361-0.389-0.361-1.001
			c0-0.611-0.056-1.863-0.056-1.863s-0.278-0.278-0.64-0.695s-0.083-0.528-0.612-0.64c-0.528-0.111-1.529-0.25-1.974-0.083
			c-0.445,0.167-0.779,0.39-1.029,0.139c-0.25-0.25-0.667-0.584-0.917-0.723c-0.25-0.139-1.084-0.556-0.667-0.556
			s1.585,0.056,2.002-0.111s1.001-0.306,1.613-0.361c0.611-0.056,2.752-0.223,3.002-0.917c0.25-0.695,0.139-0.779,0.612-1.057
			s0.612-0.278,0.75-0.612C13.554,35.536,14.082,35.091,14.61,35.091z"/>
		<path style="fill:#010101;" d="M21.478,48.659c0,0,0.278-0.667,0.89-0.723c0.612-0.056,0.862-0.278,1.057,0.027
			c0.195,0.306,0.306,0.528,0.5,0.556s0.417,0.056,0.473,0.39s0.222,0.528,0.222,0.528s0.25,0.361,0.195,0.639
			s-0.222,0.556-0.111,0.584c0.111,0.028,0.445-0.111,0.445-0.111s0.695-0.056,0.39,0.139c-0.306,0.194-0.5,0.028-0.556,0.278
			c-0.056,0.25,0,0.584-0.223,0.529c-0.222-0.056-0.222-0.167-0.5-0.39c-0.278-0.223-0.278-0.389-0.584-0.25
			c-0.306,0.139-0.667,0.223-0.667,0.223s-0.278,0.277-0.528-0.056c-0.25-0.334-0.278-0.557-0.361-0.668
			c-0.083-0.111-0.111-0.25-0.556-0.25s-0.973-0.028-0.89-0.306c0.083-0.278,0.25-0.333,0.5-0.5
			C21.422,49.131,21.478,48.659,21.478,48.659z"/>
		<path style="fill:#010101;" d="M15.931,50.091c0,0,0.216-0.049,0.271-0.327c0.056-0.278,0.469-0.497,0.747-0.497
			c0.278,0,1.583,0.502,2.028,0.975s1.389,1.113,1.778,1.419c0.39,0.306,0.667,0.64,0.973,0.724c0.306,0.083,0.806,0.333,1.084,0.5
			c0.278,0.167,1.14,0.723,0.778,0.807c-0.362,0.083-0.445-0.056-0.64,0.167s-0.306,0.473-0.473,0.223
			c-0.167-0.251-0.111-0.307-0.417-0.501c-0.306-0.194-0.362-0.389-0.5-0.223c-0.139,0.167-0.083,0.64-0.361,0.974
			c-0.278,0.333-0.223,0.473-0.528,0.5c-0.306,0.028-0.417,0.14-0.417,0.251c0,0.11,0.028,1.417-0.306,1.584
			c-0.333,0.167-0.75-0.139-0.75-0.139s-1.057-0.584-1.084-0.223s0.111,0.918-0.167,1.224c-0.278,0.306-0.667,0.667-0.862,0.89
			c-0.195,0.223-0.111,0.862-0.751,0.862s-1.529-0.028-1.612-0.028c-0.083,0-0.445,0.25-0.306,0.528
			c0.139,0.278,0.528,0.501,0.5,0.723c-0.028,0.223-0.194,0.473-0.473,0.25c-0.278-0.222-0.834-0.694-0.834-0.694
			s-1.696-0.361-2.642-0.195c-0.945,0.167-2.085,0.807-2.085,0.807s-0.779,0.278-1.168,0.5c-0.389,0.223-0.583-0.194-0.556,0.39
			c0.027,0.584,0.111,1.14-0.195,1.529c-0.306,0.389-0.361-0.194-0.361-0.194s-0.028-0.39-0.445-0.473
			c-0.417-0.084-1.418-0.028-1.641-0.528c-0.222-0.501-0.222-1.029-0.5-1.307c-0.278-0.278-0.278-0.501-0.583-0.584
			c-0.306-0.084-1.474-0.028-1.78-0.39c-0.306-0.361-0.473-0.667-0.528-0.834s-0.611-0.333-0.584-0.5
			c0.028-0.167,0.417-0.056,0.5-0.056c0.083,0,0.695,0.027,0.89-0.111c0.194-0.14,0.028-0.14,0.25-0.39
			c0.223-0.25,0.278-0.194,0.612-0.444c0.333-0.251,0.64-0.501,0.64-0.918s-0.111-1.224-0.5-1.779c-0.39-0.556-0.334-0.64-0.39-0.89
			c-0.055-0.25-0.222-0.39-0.361-0.584s-0.445-0.695-0.278-0.695c0.167,0,0.667,0.223,0.667-0.194s0.139-0.39,0.25-0.557
			c0.111-0.166,0.222-0.527,0.25-0.389s0.056,1.14,0.056,1.14s-0.181,0.25,0.208,0.39c0.389,0.139,0.82-0.084,0.82,0.306
			s0,1.307,0,1.307s0.056,0.278,0.389,0.223s0.333-0.278,0.333-0.556c0,0,0-0.334,0.278-0.584c0.278-0.251,0.361-0.64,0.361-0.64
			s0.139-0.056,0.25-0.278c0.111-0.223,0.055-0.64,0.194-0.584s1.168,0.695,1.168,0.695s0.723,0.473,0.945-0.056
			c0.223-0.528,0.223-1.001,0.223-1.112s-0.139-0.945,0.278-1.057c0.417-0.111,0.445-0.139,1.14-0.25s1.474-0.306,1.613-0.528
			c0.139-0.222,0.417-0.75,1.001-0.834c0.583-0.083,0.778-0.139,0.695,0.111c-0.083,0.25,0.111,0.445,0.361,0.751
			c0.25,0.306,0.195,0.473,0.5,0.306c0.306-0.167,0.362-0.389,0.64-0.194c0.278,0.194,0.695,0.417,0.806,0.417
			S15.931,50.091,15.931,50.091z"/>
		<path style="fill:#010101;" d="M1.056,55.082c0,0,0.841-0.223,1.008-0.084s0.003,0.111,0.17,0.278s0.532,0.361,0.059,0.361
			s-1.585,0-1.585,0s-0.083-0.084-0.361-0.111c-0.278-0.027-0.473-0.167-0.25-0.306C0.319,55.082,1.056,55.082,1.056,55.082z"/>
		<path style="fill:#010101;" d="M10.718,62.005c0,0-0.028-0.584,0.278-0.557c0.306,0.028,0.334,0.084,0.361,0.25
			c0.028,0.167-0.055,0.417,0.334,0.695s0.473,0.39,0.473,0.667c0,0.278,0.389,0.584-0.083,0.695s-0.89,0.223-1.112,0.084
			c-0.222-0.14-0.222,0.056-0.417-0.334c-0.194-0.39-0.222-0.751-0.111-0.974C10.551,62.311,10.718,62.005,10.718,62.005z"/>
		<path style="fill:#010101;" d="M5.922,64.465c0,0-0.202-0.396,0.021-0.507c0.223-0.111,0.441-0.115,0.497-0.254
			c0.056-0.14,0.164-0.198,0.164-0.198v1.14c0,0,0.222,1.085,0,1.279c-0.223,0.194-1.029,0.39-1.029,0.89
			c0,0.501,0.25,1.112-0.223,1.391c-0.473,0.277-0.611,0.361-0.945,0.639c-0.333,0.278-0.723,0.584-1.056,0.362
			c-0.334-0.223-0.584-0.501-0.167-0.612s0.862,0,0.778-0.389c-0.083-0.39-0.167-0.612-0.139-0.862s0.056-1.168,0.333-1.501
			c0.278-0.334,0.361-0.751,0.556-0.64c0.194,0.111,0.528,0,0.75-0.25C5.686,64.701,5.922,64.465,5.922,64.465z"/>
		<path style="fill:#010101;" d="M21.839,73.877c0,0,0.028-0.418,0.333-0.445c0.306-0.028,0.5-0.028,0.779,0.194
			c0.278,0.223,0.361,0.14,0.445,0.473c0.083,0.334,0.584,0.361,0.361,0.64c-0.222,0.278-0.194,0.25-0.528,0.361
			c-0.333,0.111-0.5,0.278-0.89,0.139c-0.389-0.139-0.278-0.11-0.361-0.5S21.839,73.877,21.839,73.877z"/>
		<path style="fill:#010101;" d="M34.434,63.589c0,0,0.027-0.473,0.333-0.5c0.307-0.028,0.668-0.194,0.668,0.278
			s0.027,1.111,0.027,1.111s0.028,0.584-0.389,0.64c-0.418,0.056-0.695,0.195-0.945,0.084c-0.251-0.111-0.557-0.167-0.64-0.39
			c-0.084-0.223-0.139-0.306,0.167-0.445c0.306-0.139,0.5-0.306,0.556-0.416C34.267,63.84,34.434,63.589,34.434,63.589z"/>
	</g>
</g>
<g id="Layer_1">
</g>
</svg>
