<?xml version="1.0" encoding="iso-8859-1"?>
<!-- Generator: Adobe Illustrator 16.0.3, SVG Export Plug-In . SVG Version: 6.00 Build 0)  -->
<!DOCTYPE svg PUBLIC "-//W3C//DTD SVG 1.1//EN" "http://www.w3.org/Graphics/SVG/1.1/DTD/svg11.dtd">
<svg version="1.1" xmlns="http://www.w3.org/2000/svg" xmlns:xlink="http://www.w3.org/1999/xlink" x="0px" y="0px" width="100px"
	 height="100px" viewBox="0 0 100 100" style="enable-background:new 0 0 100 100;" xml:space="preserve">
<g id="EG">
	<path d="M49.094,8.065c-0.271,0.181-0.583,0.215-0.878,0.374c-0.175,0.091-0.249,0.241-0.474,0.305c0,0.033,0,0.067,0,0.102
		c0.335,0.032,0.791,0.127,1.149,0c0.056-0.02,0.115-0.12,0.17-0.137c0.23-0.072,0.276,0.16,0.474,0.102
		c0.125-0.037,0.185-0.232,0.309-0.271c0.147-0.048,0.234,0.075,0.304,0.033c0.105-0.095,0.253-0.475,0.34-0.61
		c0.248,0.074,0.409,0.232,0.745,0.17c0-0.021,0-0.045,0-0.068c0.046-0.077,0.019-0.111,0-0.203
		c-0.308-0.071-0.552-0.229-0.846-0.305c-0.327-0.083-0.616,0.176-0.814,0.271c-0.102,0.022-0.207,0.045-0.308,0.067
		C49.19,7.928,49.154,8.026,49.094,8.065z M90.156,76.114c-0.234,0.138-0.271-0.205-0.543-0.136
		c-0.62,0.156-1.394,0.094-1.761-0.338c-0.088,0.036-0.129,0.046-0.17,0.133c-0.111,0.143-0.093,0.29-0.171,0.477
		c-0.022,0.048-0.119,0.064-0.138,0.101c-0.234,0.483,0.234,0.738,0.34,0.984c0,0.066,0,0.136,0,0.202
		c0.023,0.085,0.115,0.224,0.139,0.306c0.087,0.327-0.064,0.748-0.069,0.984c0.023,0.271,0.046,0.543,0.069,0.814
		c-0.028,0.085-0.156,0.16-0.106,0.338c0.102,0.328,0.442,0.579,0.543,0.915c0,0.168,0,0.338,0,0.508
		c0.037,0.147,0.069,0.391,0.138,0.577c0.18,0.499,0.479,0.901,0.713,1.322c0.188,0.34,0.088,0.871,0.234,1.256
		c0.042,0.104,0.18,0.151,0.239,0.236c0.12,0.166,0.046,0.26,0.341,0.27c0.073-0.046,0.11-0.019,0.202,0
		c0.216,0.474,0.396,1.122,0.814,1.391c0.184,0.122,0.469,0.085,0.644,0.205c0.115,0.075,0.197,0.301,0.34,0.34
		c0.069,0.017,0.129-0.068,0.234-0.037c0.028,0.01,0.11,0.095,0.139,0.102c0.17,0,0.335,0,0.506,0
		c0.114,0.025,0.354,0.08,0.441,0.104c0.248,0.062,0.386-0.09,0.579,0.034c0.18,0.115,0.594,0.465,0.708,0.645
		c0.161,0.246,0.207,0.549,0.377,0.779c0.102,0.145,0.341,0.195,0.438,0.338c0.037,0.102,0.069,0.204,0.101,0.306
		c0.106,0.159,0.64,0.823,0.782,0.918c0.138,0.092,0.326,0.036,0.511,0.101c0.138,0.049,0.35,0.18,0.474,0.271
		c0.326,0.237,0.722,0.816,1.117,0.947c0.188,0.064,0.404-0.03,0.579,0c0.042,0.064,0.226,0.409,0.271,0.441
		c0.258,0.195,0.598,0.336,0.745,0.644c0.11,0.244-0.005,0.566-0.17,0.645c-0.147,0.124-0.387,0.036-0.611,0.034
		c-0.268-0.002-0.538,0.025-0.713,0.066c-0.188-0.009-0.382-0.022-0.575-0.032c-0.975,0.21-2.207-0.041-3.187,0.171
		c-0.263,0.055-0.626-0.015-0.847,0.032c-0.331,0.071-0.768-0.028-1.053,0.034c-0.612,0.012-1.224,0.022-1.83,0.034
		c-0.253,0.056-0.653-0.029-0.948,0.032c-0.896,0.195-2.019-0.06-2.92,0.138c-0.262,0.056-0.625-0.014-0.846,0.032
		c-0.285,0.064-0.672-0.018-0.915,0.035c-0.575,0.126-1.343-0.053-1.899,0.066c-0.511,0.11-1.159-0.066-1.628,0.037
		c-0.234,0-0.474,0-0.713,0c-0.626,0-1.638-0.056-2.203,0.066c-0.271,0-0.543,0-0.813,0c-0.465,0.012-0.925,0.021-1.39,0.034
		c-0.381,0-0.864-0.036-1.187,0.032c-0.409,0-0.813,0-1.223,0c-0.584,0.01-1.348,0.049-1.932,0.069
		c-0.492,0.016-1.095-0.06-1.522,0.032c-0.547,0-1.085,0-1.628,0c-0.441,0.094-1.048-0.069-1.526,0.036
		c-0.598,0.125-1.568,0.064-2.203,0.064c-0.404,0-0.915-0.039-1.255,0.037c-2.58,0.023-5.155,0.044-7.73,0.066
		c-0.543,0-2.194,0.117-2.341-0.204c0-0.102,0-0.202,0-0.304c0.211-0.317,0.239-0.771,0.239-1.288
		c-0.023-0.014-0.047-0.022-0.069-0.034c-0.312-0.232-0.552,0.053-0.681,0.237c-0.226,0.331-0.483,0.681-0.676,1.051
		c-0.083,0.158-0.143,0.469-0.304,0.542c-0.681,0-1.361,0-2.037,0c-0.207-0.131-0.828-0.034-1.118-0.034c-0.984,0-1.968,0-2.949,0
		c-3.539-0.022-7.077-0.046-10.614-0.069c-0.678-0.009-1.356-0.021-2.035-0.032c-0.433,0-0.98,0.047-1.354-0.032
		c-0.416-0.092-0.952,0.047-1.322-0.036c-0.216,0-0.43,0-0.646,0c-0.577,0-1.403,0.046-1.932-0.066c-0.361,0-0.724,0-1.085,0
		c-0.435-0.003-1.108,0.022-1.525-0.067c-0.416-0.092-0.952,0.046-1.324-0.034c-0.428,0-0.858,0-1.288,0
		c-0.363-0.08-0.885,0.053-1.288-0.034c-0.433-0.093-1.115-0.064-1.562-0.069c-0.34,0-0.768,0.027-1.051-0.032
		c-0.428,0-0.857,0-1.288,0c-0.352-0.078-0.862,0.051-1.255-0.034c-0.373-0.081-0.908,0.058-1.322-0.035
		c-0.343-0.073-0.823,0.005-1.219-0.032c-0.639-0.06-1.451,0.032-2.069-0.101c-0.296-0.066-0.697,0.019-0.95-0.037
		c-0.938-0.021-1.878-0.044-2.814-0.066c-2.847-0.113-5.698-0.228-8.544-0.338c-0.062-0.115-0.071-0.273-0.066-0.477
		c0.14-0.231,0.034-1.138,0.066-1.492c0.069-0.742-0.021-1.674,0.136-2.405c0-0.228,0-0.452,0-0.681
		c0.101-0.469,0-1.085,0.101-1.559c0-0.236,0-0.474,0-0.713c0.104-0.476-0.043-1.039,0.069-1.559c0.099-0.455-0.04-0.998,0.069-1.49
		c0.043-0.212-0.023-0.562,0.032-0.814c0.041-0.188-0.016-0.515,0.034-0.747c0.253-1.17-0.048-2.559,0.203-3.729
		c0-0.282,0-0.563,0-0.849c0.092-0.418,0.087-1.037,0.104-1.489c0-0.283,0-0.566,0-0.849c0.228-1.056-0.025-2.376,0.202-3.424
		c0.071-0.329-0.027-0.764,0.035-1.054c0.096-0.455-0.021-0.951,0.066-1.354c0.117-0.538-0.042-1.185,0.069-1.695
		c0.023-0.768,0.046-1.538,0.069-2.306c0.248-1.15-0.046-2.514,0.202-3.663c0.053-0.244-0.009-0.58,0.035-0.779
		c0.105-0.497-0.032-1.037,0.066-1.492c0.012-0.485,0.023-0.971,0.035-1.458c0.25-1.161-0.048-2.534,0.202-3.695
		c0.012-0.508,0.023-1.017,0.035-1.524c0.246-1.136-0.042-2.492,0.205-3.63c0.106-0.498-0.032-1.036,0.067-1.491
		c0.105-0.485-0.028-1.013,0.069-1.458c0-0.238,0-0.475,0-0.711c0.069-0.462,0.002-1.069,0.101-1.527c0-0.237,0-0.474,0-0.712
		c0.042-0.447,0.005-1.051,0.101-1.492c0-0.26,0-0.52,0-0.779c0.15-0.699-0.016-1.568,0.136-2.272c0-0.237,0-0.475,0-0.712
		c0.203-0.941-0.034-2.076,0.17-3.018c0-0.249,0-0.497,0-0.746c0.042-0.2-0.019-0.537,0.032-0.78
		c0.202-0.941-0.032-2.074,0.17-3.018c0-0.226,0-0.452,0-0.679c0.32-1.505-0.531-2.645-0.814-3.728
		c-0.124-0.469,0.285-0.916,0.136-1.391c-0.115-0.361-0.441-0.668-0.542-1.051C1.549,22.277,2,22.128,1.866,21.661
		c-0.108-0.369-0.297-0.74-0.407-1.085c-0.108-0.33-0.113-0.556-0.237-0.848c-0.11-0.251-0.347-0.52-0.205-0.949
		c0.069-0.21,0.26-0.44,0.373-0.611c0.122-0.183,0.115-0.416,0.239-0.609c0.156-0.248,0.49-0.418,0.676-0.645
		c0.195-0.238,0.396-0.586,0.545-0.847c0.044-0.204,0.09-0.407,0.133-0.61c0.09-0.217,0.274-0.432,0.34-0.678
		c0.012-0.158,0.023-0.316,0.035-0.475c0.066-0.194,0.345-0.507,0.304-0.745c-0.025-0.141-0.152-0.349-0.203-0.475
		c-0.124-0.305-0.12-0.591-0.237-0.917c-0.074-0.2-0.237-0.454-0.306-0.644c-0.06-0.163-0.29-1.456-0.237-1.628
		c0.039-0.135,0.099-0.249,0.101-0.474c0-0.407-0.159-0.821-0.035-1.221c0.125-0.4,0.446-0.394,0.748-0.61
		c0.113-0.124,0.225-0.249,0.338-0.373c0.099-0.072,0.271-0.104,0.34-0.204C4.205,6.867,4.239,6.72,4.273,6.573
		c0.124-0.305,0.635-0.891,0.984-0.948c0.043,0.086,0.064,0.118,0.066,0.27c0.048,0.09-0.058,0.169,0,0.306
		c0.044,0.035,0.09,0.068,0.136,0.101c0.092,0.161-0.011,0.33-0.035,0.475c1.122,0.638,2.417,0.26,3.527-0.135
		c0.34-0.123,0.591-0.033,0.915-0.137c0.122-0.038,0.322-0.167,0.439-0.204c0.163-0.05,1.164-0.053,1.356,0
		c1,0.275,1.955,0.776,2.916,1.085c0.271,0,0.543,0,0.814,0c0.426,0.132,1.037,0.271,1.493,0.374
		c0.147-0.011,0.294-0.023,0.441-0.034c0.315,0.083,0.591,0.351,0.915,0.44c0.35,0.098,0.621-0.164,0.915-0.068
		c0.138,0.046,0.198,0.208,0.306,0.271c0.122,0.074,0.166-0.044,0.306,0c0.087,0.03,0.131,0.159,0.202,0.204
		c0.085,0.054,0.614,0.21,0.713,0.238c0.228,0.066,0.304-0.167,0.508-0.102c0.042,0.014,0.14,0.12,0.202,0.137
		c0.196,0.053,0.485,0.002,0.646,0.033c0.193,0.316,0.209,0.875,0.407,1.153c0.071,0.103,0.421,0.3,0.541,0.338
		c0.124,0,0.25,0,0.375,0c0.11,0.035,0.294,0.169,0.407,0.204c0.113,0,0.225,0,0.338,0c0.053,0.017,0.115,0.119,0.17,0.136
		c0.407,0.134,1.325-0.486,1.66-0.542c0.074,0.071,0.125,0.059,0.17,0.17c0.179,0.271,0.136,0.931,0.373,1.119
		c0.366,0.239,0.982,0.022,1.492,0.136c0.499,0.114,0.869,0.253,1.458,0.271c0.329,0.012,0.552-0.297,0.915-0.17
		c0.105,0.038,0.205,0.183,0.306,0.238c0.187,0.103,0.313,0.028,0.542,0.103c0.205,0.064,0.366,0.272,0.543,0.338
		c0.066,0,0.136,0,0.202,0c0.46,0.155,1.012,0.327,1.391,0.577c0.117,0.08,0.12,0.219,0.203,0.338
		c0.014,0.021,0.517,0.428,0.542,0.442c0.101,0.023,0.205,0.044,0.306,0.067c0.193,0.086,0.417,0.267,0.644,0.339
		c0.147,0,0.294,0,0.441,0c0.805,0,1.212-0.24,1.764-0.441c0.055,0,0.113,0,0.168,0c0.221-0.082,0.48-0.29,0.678-0.407
		c0.159-0.056,0.317-0.112,0.476-0.169c0.407-0.261,0.821-0.555,1.219-0.847c0.161-0.117,0.28-0.329,0.441-0.44
		c0.099-0.069,0.205-0.069,0.306-0.137c0.099-0.069,0.195-0.205,0.306-0.27c0.125-0.045,0.249-0.091,0.373-0.137
		c0.147-0.157,0.294-0.315,0.441-0.474c0.276-0.202,0.607-0.341,0.812-0.61c0.087-0.116,0.459-0.487,0.611-0.509
		c0.092,0.1,0.191,0.302,0.306,0.374c0.241,0.157,0.492-0.073,0.508,0.339c-0.023,0.032-0.004,0.065,0,0.169
		c0.172,0.023,0.373,0.035,0.543,0c0.03-0.054,0.138-0.13,0.135-0.204c-0.002-0.017-0.06-0.13-0.034-0.203
		c0.081-0.257,0.315-0.492,0.441-0.712c0.198-0.351,0.23-0.827,0.271-1.322c0.089-0.049,0.143-0.068,0.303-0.068
		c0.207,0.22,0.453,0.368,0.814,0.44c0.203,0.042,0.791-0.176,0.95-0.237c0.576-0.221,1.114-0.327,1.694-0.542
		c0.138-0.051,0.188-0.221,0.308-0.271c0.147-0.022,0.295-0.045,0.441-0.068c0.18-0.055,0.819-0.315,1.017-0.271
		c0.648,0.144,1.343,0.245,1.964,0.51c0.639,0.27,1.122,0.783,1.835,0.983c0.271,0.077,0.52-0.085,0.708-0.136
		c0.888-0.239,1.149-0.258,1.697-0.847c0.238,0,0.46,0.053,0.644,0.101c0.17,0.37,0.579,0.827,0.611,1.254
		c-0.06,0.037-0.124,0.085-0.17,0.135c-0.06-0.021-0.032-0.007-0.069-0.033c-0.28-0.208-0.321-0.908-0.611-1.018
		c-0.156-0.111-0.294,0.029-0.372,0.102c0.055,0.188,0.317,0.631,0.17,0.882c-0.023,0.057-0.331,0.448-0.373,0.475
		c-0.184,0.113-0.299-0.056-0.303,0.339c0.036,0.047,0.05,0.098,0.068,0.17c0.18,0.094,0.295,0.348,0.474,0.407
		c0.129,0.041,0.253-0.021,0.373,0c0.046,0.127,0.041,0.269,0.202,0.305c0.119-0.119,0.275-0.2,0.511-0.204
		c0.133,0.188,0.354,0.164,0.372,0.475c0.092,0.153-0.069,0.256-0.037,0.373c0.01,0.03,0.12,0.107,0.139,0.136
		c0.022,0.102,0.046,0.204,0.068,0.306c0.032,0.01,0.064,0.022,0.102,0.033c0.216-0.173,0.557-0.054,0.676-0.374
		c-0.372,0.006-0.496-0.159-0.676-0.338c0-0.023,0-0.046,0-0.069c0.119-0.064,0.299-0.071,0.506-0.067
		c0.097-0.061,0.363,0.012,0.409,0.101c0.073,0.128-0.046,0.214-0.069,0.373c0.175,0.126,0.52,0.243,0.575-0.101
		c-0.151-0.202-0.212-0.486-0.506-0.542c-0.087,0.06-0.212,0.021-0.309,0c-0.014-0.051-0.022-0.058-0.031-0.136
		c0.068-0.024,0.156-0.033,0.271-0.033c0.069,0.044,0.382,0.001,0.543,0c-0.019-0.303-0.188-0.298-0.202-0.611
		c0.037-0.03,0.037-0.029,0.068-0.068c0.097,0.018,0.171-0.026,0.268,0c0.234,0.062,0.367,0.321,0.547,0.442
		c0.29,0.2,0.57,0.3,0.81,0.542c0.243,0.241,0.528,0.824,0.851,0.949c0.662,0.26,1.448-0.185,1.932-0.339
		c0.197-0.063,0.464,0.039,0.574,0.068c0.203,0.05,0.29-0.058,0.479-0.068c0.088,0.154,0.161,0.401,0.373,0.441
		c0.087-0.137,0.156-0.171,0.17-0.407c-0.166-0.144-0.129-0.265-0.069-0.475c0.202-0.119,0.341-0.294,0.645-0.306
		c0.156,0.154,0.432,0.321,0.506,0.542c0.073,0.217-0.083,0.336,0.036,0.508c0.032,0.026,0.032,0.021,0.102,0.034
		c0.041-0.054,0.851-0.523,0.915-0.542c0.147-0.047,0.243,0.067,0.404,0c0.139-0.055,0.281-0.265,0.377-0.373
		c0.147,0.055,0.336,0.039,0.506,0.101c0.152,0.055,0.332,0.19,0.511,0.238c0.377,0.101,0.896-0.039,1.149-0.103
		c0.285-0.071,0.497-0.006,0.782-0.101c0.129-0.045,0.28-0.186,0.404-0.238c0.12-0.048,0.18,0.024,0.271,0
		c0.083-0.021,0.166-0.142,0.239-0.169c0.056,0,0.115,0,0.17,0c0.295-0.108,0.603-0.319,0.847-0.475
		c0.124-0.046,0.248-0.091,0.372-0.136c0.35-0.214,0.74-0.49,1.021-0.779c0.331,0.188,0.418,0.754,0.574,1.119
		c0.23,0.542,0.516,1.122,0.745,1.661c0.175,0.409,0.234,0.806,0.409,1.221c0.249,0.608,0.451,1.266,0.709,1.898
		c0.078,0.182,0.211,0.424,0.271,0.61c0.014,0.227,0.023,0.452,0.037,0.679c0.051,0.143,0.221,0.262,0.271,0.407
		c0.078,0.255-0.147,0.44-0.037,0.644c0.17,0.124,0.341,0.248,0.511,0.372c0.197,0.288,0.234,0.684,0.372,1.018
		c0.271,0.653,0.635,1.358,0.847,2.035c0,0.225,0,0.452,0,0.677c0.248,0.898,0.745,1.795,1.021,2.679c0,0.238,0,0.475,0,0.711
		c0.046,0.188,0.152,0.45,0.202,0.645c0.088,0.354-0.681,1.137-0.851,1.424c-0.046,0.083-0.019,0.182-0.064,0.271
		c-0.073,0.124-0.257,0.215-0.308,0.373c0,0.283,0,0.565,0,0.847c-0.069,0.214-0.28,0.477-0.373,0.679c-0.165,0.364,0,0.79,0,1.186
		c-0.17,0.125-0.308,0.266-0.303,0.576c0.175,0.271-0.056,0.75-0.102,0.95c-0.051,0.202,0.041,0.498,0.032,0.644
		c-0.027,0.421-0.262,0.68-0.373,0.984c0,0.068,0,0.136,0,0.204c-0.096,0.206-0.377,0.461-0.441,0.678
		c0.015,0.169,0.023,0.338,0.037,0.508c-0.051,0.132-0.234,0.196-0.308,0.305c-0.171,0.25-0.157,0.566-0.271,0.882
		c-0.037,0.109-0.166,0.257-0.202,0.374c-0.152,0.488,0.257,0.966,0.34,1.22c0.051,0.166-0.037,0.789-0.069,0.95
		c0.015,0.26,0.023,0.52,0.032,0.779c-0.078,0.238-0.367,0.357-0.506,0.543c-0.372,0.494-0.713,0.999-1.154,1.424
		c-0.413,0.031-1.265-0.013-1.559-0.204c-0.244-0.155-0.368-0.491-0.611-0.645c-0.11-0.066-0.23-0.066-0.336-0.134
		c-0.147-0.091-0.299-0.238-0.479-0.306c-0.078-0.011-0.156-0.023-0.234-0.033c0-0.011,0-0.023,0-0.035
		c-0.17-0.125-0.285-0.331-0.441-0.475c-0.046-0.022-0.092-0.045-0.138-0.068c-0.032-0.091-0.064-0.181-0.102-0.271
		c-0.156-0.134-0.317-0.271-0.474-0.407c-0.151-0.22-0.193-0.453-0.34-0.678c-0.102-0.09-0.203-0.181-0.304-0.271
		c-0.139-0.254-0.373-0.847-0.575-0.983c-0.083-0.054-0.18-0.021-0.271-0.069c-0.138-0.069-0.257-0.225-0.372-0.305
		c-0.161-0.104-0.327-0.129-0.479-0.237c-0.197-0.145-0.404-0.694-0.575-0.814c-0.092-0.035-0.179-0.068-0.271-0.103
		c-0.217-0.145-0.268-0.38-0.41-0.61c-0.087-0.144-0.308-0.146-0.372-0.338c0-0.114,0-0.227,0-0.339
		c-0.055-0.219-0.28-0.458-0.202-0.779c0.036-0.154,0.211-0.336,0.138-0.577c-0.069-0.211-0.304-0.402-0.377-0.61
		c-0.088-0.251,0.005-0.577,0.037-0.78c0.022-0.17-0.102-0.485-0.139-0.678c-0.423-0.22-0.574-0.581-0.846-0.948
		c-0.147-0.137-0.295-0.272-0.441-0.407c-0.092-0.124-0.166-0.233-0.271-0.34c-0.193-0.193-0.565-0.273-0.713-0.508
		c-0.097-0.157-0.069-0.362-0.165-0.508c-0.102-0.146-0.281-0.285-0.341-0.475c-0.055-0.167,0.041-0.381-0.032-0.509
		c-0.161-0.255-0.699-0.296-0.75-0.644c0.056-0.082,0.015-0.198,0-0.271c0.015-0.113,0.023-0.227,0.037-0.338
		c-0.06-0.194-0.248-0.399-0.308-0.577c-0.124-0.376,0.046-0.914-0.032-1.187c-0.078-0.256-0.424-0.543-0.612-0.713
		c0.019-0.225,0.129-0.417,0-0.609c-0.032-0.053-0.128-0.056-0.17-0.102c-0.119-0.136-0.037-0.268-0.234-0.339
		c-0.046-0.029-0.088-0.029-0.17-0.033c-0.092,0.088-0.198,0.13-0.271,0.237c-0.06,0.075-0.069,0.162-0.069,0.306
		c0.064,0.06,0.106,0.143,0.17,0.204c-0.16,0.715-0.805,1.002-1.016,1.626c0.009,0.147,0.022,0.294,0.032,0.44
		c-0.037,0.131-0.124,0.151-0.134,0.374c0.166,0.168,0.212,0.433,0.405,0.576c0.501,0.377,1.375,1.046,1.596,1.661
		c0.068,0.202,0.032,0.352,0.101,0.543c0.156,0.433,0.304,1.01,0.441,1.458c0.143,0.475-0.561,0.755-0.271,1.221
		c0.064,0.185,0.244,0.26,0.336,0.407c0.023,0.113,0.046,0.227,0.069,0.339c0.032,0.082,0.45,0.668,0.511,0.712
		c0.138,0.104,0.367,0.1,0.474,0.238c0.114,0.155,0.243,0.421,0.303,0.61c0.015,0.135,0.023,0.271,0.037,0.407
		c0.097,0.27,0.23,0.618,0.304,0.915c0.138,0.078,0.404,0.15,0.511,0.271c0.087,0.104,0.128,0.287,0.234,0.372
		c0.119,0.095,0.267,0.136,0.34,0.271c0.124,0.233,0.161,0.457,0.304,0.678c0.083,0.125,0.258,0.207,0.341,0.338
		c0.114,0.185,0.151,0.39,0.271,0.577c0.074,0.119,0.226,0.195,0.304,0.305c0.102,0.138,0.134,0.306,0.239,0.441
		c0.097,0.127,0.312,0.169,0.404,0.305c0.056,0.075,0.019,0.147,0.069,0.238c0.041,0.072,0.166,0.085,0.239,0.134
		c0.102,0.125,0.202,0.25,0.304,0.374c0.046,0.036,0.101,0.023,0.138,0.068c0.064,0.087,0.051,0.205,0.134,0.271
		c0.267,0.215,0.727,0.205,1.016,0.407c0.102,0.07,0.102,0.234,0.171,0.339c0.11,0.166,0.299,0.332,0.409,0.508
		c0.064,0.109,0.064,0.233,0.133,0.339c0.037,0.06,0.139,0.097,0.17,0.169c0.023,0.182,0.047,0.362,0.069,0.542
		c0.056,0.142,0.152,0.114,0.17,0.339c-0.073,0.039-0.064,0.048-0.17,0.068c-0.216-0.246-0.372-0.557-0.813-0.576
		c-0.019,0.051-0.023,0.058-0.037,0.136c0.102,0.068,0.143,0.209,0.239,0.271c0.105,0.065,0.234-0.006,0.308,0.101
		c0.097,0.156-0.05,0.391,0,0.542c0.061,0.201,0.258,0.1,0.267,0.441c-0.073,0.041-0.073,0.055-0.202,0.067
		c-0.073-0.065-0.197-0.108-0.304-0.135c-0.032,0.041-0.027,0.038-0.068,0.068c0.022,0.059,0.005,0.032,0.032,0.067
		c0.064,0.172,0.221,0.208,0.308,0.34c0.12,0.176,0.01,0.385,0.102,0.576c0.055,0.121,0.262,0.126,0.372,0.204
		c0.088,0.059,0.433,0.625,0.511,0.745c0.156,0.25,0.105,0.707,0.271,0.95c0.216,0.323,1.09,0.406,1.219,0.746
		c0.124,0.225-0.271,0.685-0.069,1.085c0.11,0.212,0.428,0.292,0.543,0.508c0.087,0.164-0.074,0.196-0.032,0.374
		c0.037,0.169,0.193,0.28,0.271,0.407c0.046,0.124,0.092,0.249,0.133,0.373c0.226,0.325,0.465,0.12,0.479,0.814
		c-0.105,0.058-0.354,0.124-0.409,0.237c-0.12,0.186-0.069,1.308-0.032,1.457c0.105,0.064,0.253,0.095,0.372,0.168
		c0.175,0.115,0.161,0.285,0.271,0.477c0.102,0.182,0.317,0.324,0.405,0.508c0.165,0.343,0.188,0.671,0.34,1.017
		c0.051,0.119,0.202,0.175,0.271,0.271c0.087,0.128,0.083,0.312,0.17,0.441c0.042,0.064,0.134,0.126,0.17,0.204
		c0.139,0.315,0.185,0.697,0.373,0.982c0.101,0.16,0.28,0.34,0.372,0.51c0.069,0.131,0.06,0.253,0.134,0.373
		c0.068,0.105,0.221,0.221,0.271,0.34c0.073,0.17,0.046,0.352,0.138,0.506c0.06,0.105,0.202,0.147,0.271,0.239
		c0.064,0.088,0.068,0.184,0.133,0.271c0.078,0.104,0.239,0.195,0.309,0.304c0.124,0.207,0.101,0.462,0.234,0.644
		c0.092,0.08,0.184,0.161,0.271,0.239c0.092,0.138,0.078,0.308,0.207,0.407c0.133,0.105,0.308,0.163,0.404,0.306
		c0.17,0.248,0.212,0.565,0.341,0.846c0.082,0.188,0.253,0.35,0.34,0.543c0.073,0.172,0.069,0.377,0.166,0.543
		c0.073,0.121,0.216,0.262,0.271,0.406c0.079,0.195,0.047,0.407,0.139,0.609c0.092,0.21,0.363,0.334,0.474,0.543
		c0.321,0.621,0.552,1.202,0.883,1.83c0.124,0.244,0.377,0.451,0.506,0.681c0.046,0.083,0.019,0.161,0.069,0.234
		c0.064,0.102,0.197,0.219,0.238,0.341c0.01,0.114,0.023,0.226,0.032,0.34c0.102,0.161,0.341,0.239,0.41,0.439
		c0.018,0.283,0.041,0.565,0.063,0.849c0.064,0.105,0.207,0.129,0.309,0.202c0.087,0.064,0.377,0.446,0.441,0.543
		c0.064,0.282,0.134,0.565,0.202,0.849c0.069,0.177,0.304,0.319,0.441,0.438c0.023,0.35-0.055,0.338-0.105,0.612
		c0.4,0.262,0.46,0.662,0.782,0.949c0.409,0.37,0.951,0.607,1.287,1.051c0.097,0.131,0.226,0.273,0.309,0.407
		c0.124,0.209,0.114,0.467,0.303,0.609c0.166,0.131,0.387,0.146,0.575,0.271c0.073,0.048,0.115,0.165,0.207,0.204
		c0.064,0.012,0.134,0.021,0.202,0.034c0.295,0.193,0.18,0.777,0.644,0.814c0.166-0.129,0.304-0.023,0.442,0.032
		c0.124,0.034,0.248,0.069,0.372,0.102c0.234,0.156,0.368,0.547,0.575,0.747c-0.023,0.058-0.01,0.032-0.032,0.066
		C90.18,76.13,90.239,76.068,90.156,76.114z"/>
</g>
<g id="Layer_1">
</g>
</svg>
