<?xml version="1.0" encoding="iso-8859-1"?>
<!-- Generator: Adobe Illustrator 16.0.3, SVG Export Plug-In . SVG Version: 6.00 Build 0)  -->
<!DOCTYPE svg PUBLIC "-//W3C//DTD SVG 1.1//EN" "http://www.w3.org/Graphics/SVG/1.1/DTD/svg11.dtd">
<svg version="1.1" xmlns="http://www.w3.org/2000/svg" xmlns:xlink="http://www.w3.org/1999/xlink" x="0px" y="0px" width="100px"
	 height="100px" viewBox="0 0 100 100" style="enable-background:new 0 0 100 100;" xml:space="preserve">
<g id="ES">
	<g>
		<g>
			<g>
				<g>
					<path style="fill:#010101;" d="M90.3,24.541c-0.077,0-0.202-0.008-0.374-0.077c-0.169-0.069-0.332,0.039-0.387,0.007
						c-0.055-0.03-0.117-0.365-0.249-0.481c-0.132-0.117-0.488-0.133-0.706-0.256c-0.218-0.125-0.729-0.125-1.072-0.063
						c-0.341,0.063-1.249,0.164-1.429,0.452c-0.178,0.288-0.404,0.418-0.736,0.465c-0.334,0.047-0.745,0.209-0.901,0.155
						c-0.155-0.054-0.612-0.318-1.018-0.427c-0.403-0.108-0.954-0.101-1.242-0.016c-0.287,0.086-0.396,0.389-0.645,0.451
						c-0.248,0.062-0.792-0.086-0.932-0.319c-0.14-0.232-0.527-0.249-0.793-0.357c-0.263-0.108-0.605-0.411-0.791-0.271
						c-0.187,0.141-0.807,0.591-1.227,0.699s-0.793,0.155-0.886-0.419c-0.094-0.574-0.348-1.552-0.59-1.933
						c-0.241-0.381-0.411-0.357-0.714-0.326c-0.303,0.031-0.521,0.101-0.854-0.133c-0.333-0.233-0.513-0.489-0.854-0.528
						C73.559,21.125,73.07,21,72.58,20.954c-0.488-0.047-1.342-0.187-1.46,0.046c-0.115,0.233-0.061,0.629-0.115,0.854
						c-0.055,0.225-0.279,0.326-0.613,0.364c-0.335,0.039-0.816,0.179-1.087,0.257c-0.271,0.078-0.514,0.032-0.84-0.101
						c-0.326-0.132-0.534-0.319-0.884-0.217c-0.351,0.1-0.894,0.287-1.173,0.404c-0.28,0.117-0.823-0.015-1.025-0.248
						c-0.202-0.234-0.536-0.786-1.049-0.792c-0.513-0.009-1.103,0.225-1.428,0.302c-0.325,0.077-0.576,0.022-0.987-0.241
						c-0.411-0.263-0.729-0.35-0.729-0.613s-0.349-0.636-0.581-0.606c-0.233,0.032-0.901,0.133-1.306,0.024s-1.04-0.28-1.576-0.559
						s-0.877-0.706-1.033-0.706c-0.153,0-0.208,0.132-0.287,0.31c-0.076,0.179-0.232,0.194-0.442,0.086
						c-0.208-0.109-0.154-0.451-0.062-0.722c0.094-0.272,0.343-1.01,0.117-1.134c-0.226-0.125-0.689-0.21-0.9-0.202
						c-0.21,0.008-0.296,0.054-0.381,0.225c-0.084,0.171-0.311,0.179-0.411-0.015c-0.103-0.195-0.179-0.295-0.521-0.583
						c-0.341-0.287-0.645-0.566-0.776-0.55c-0.131,0.015-0.351,0.054-0.45,0.201c-0.102,0.148-0.102,0.148-0.102,0.148
						s-0.17,0.108-0.294,0.123c-0.125,0.016-0.303-0.015-0.39,0.086c-0.084,0.101-0.225,0.062-0.355,0.093
						c-0.133,0.031-0.273,0.124-0.382,0.163c-0.108,0.04-0.31,0.047-0.427,0.016c-0.116-0.032-0.24-0.163-0.473-0.117
						c-0.234,0.046-0.312,0.156-0.537,0.156c-0.224,0-0.349-0.015-0.511-0.171c-0.165-0.155-0.22-0.18-0.304-0.225
						c-0.126-0.066-0.436-0.077-0.521-0.201c-0.085-0.125-0.038-0.171-0.186-0.155c-0.148,0.015-0.24,0.116-0.513-0.008
						c-0.271-0.125-0.264-0.14-0.334-0.272c-0.069-0.132-0.286,0-0.325,0.062c-0.039,0.062-0.125,0.117-0.125,0.117
						s0.062-0.241-0.14-0.279s-0.201-0.039-0.201-0.039s0.014-0.256-0.086-0.217c-0.102,0.038-0.219,0.116-0.265,0.116
						s-0.208-0.14-0.303-0.132c-0.092,0.008-0.248,0.031-0.427,0.225c-0.179,0.193-0.271,0.248-0.441,0.287
						c-0.172,0.039-0.227,0.092-0.257,0.17c-0.031,0.078-0.056,0.157-0.056,0.157s-0.239,0-0.396-0.032
						c-0.155-0.032-0.255-0.132-0.357-0.28c-0.101-0.147-0.162-0.225-0.38-0.279c-0.218-0.054-0.35-0.054-0.715-0.141
						c-0.365-0.085-0.357-0.1-0.473-0.1c-0.116,0-0.155,0.039-0.241,0.115c-0.085,0.079-0.202,0.125-0.202-0.054
						c0-0.178-0.022-0.178,0.078-0.217c0.102-0.039,0.257-0.077,0.194-0.194s-0.117-0.07-0.24-0.093
						c-0.125-0.023-0.257-0.125-0.366-0.233c-0.108-0.109-0.186-0.148-0.434-0.148c-0.249,0-0.428,0.117-0.513,0.187
						c-0.086,0.069-0.163,0.117-0.296,0.117c-0.132,0-0.24,0.016-0.31,0.077c-0.07,0.062-0.242,0.116-0.303,0.116
						c-0.062,0-0.07-0.124-0.024-0.147c0.047-0.023,0.148-0.023,0.148-0.094c0-0.069-0.055-0.069-0.164-0.146
						c-0.109-0.078-0.139-0.241-0.357-0.187c-0.218,0.055-0.263,0.195-0.263,0.195s-0.234,0.008-0.35,0.131
						c-0.117,0.125-0.146,0.296-0.326,0.296c-0.178,0-0.312-0.062-0.528,0.015c-0.217,0.078-0.241,0.093-0.535,0.187
						c-0.295,0.093-0.614,0.101-0.777,0.109c-0.162,0.008-0.232,0.069-0.35,0.14c-0.115,0.07-0.155,0.062-0.272,0.024
						c-0.114-0.039-0.224-0.054-0.333-0.031c-0.108,0.023-0.504-0.016-0.66-0.039c-0.155-0.024-0.428-0.024-0.605-0.024
						s-0.396-0.054-0.745-0.193c-0.351-0.14-0.753-0.318-1.049-0.381c-0.294-0.062-0.389-0.115-0.582-0.179
						c-0.193-0.062-0.116-0.132-0.287-0.193c-0.17-0.062-0.17,0.054-0.356,0.078c-0.187,0.022-0.405,0.007-0.598-0.062
						c-0.194-0.07-0.529-0.178-0.777-0.147c-0.248,0.03-0.466-0.062-0.583-0.187c-0.116-0.124-0.139-0.357-0.411-0.357
						c-0.271,0-0.35,0.039-0.466-0.078c-0.117-0.116-0.085-0.202-0.279-0.187c-0.193,0.016-0.287,0.171-0.513,0.117
						c-0.226-0.055-0.543-0.14-0.761-0.164c-0.217-0.023-0.396,0.039-0.466,0.093c-0.069,0.055-0.163-0.008-0.179-0.132
						c-0.017-0.125-0.094-0.14-0.21-0.202c-0.115-0.062-0.217-0.187-0.217-0.341c0-0.155-0.078-0.226-0.226-0.287
						c-0.147-0.062-0.147-0.148-0.233-0.148c-0.085,0-0.124-0.007-0.21,0.102c-0.084,0.108-0.2,0.155-0.341,0.209
						c-0.14,0.054-0.295,0.077-0.326,0.241s-0.054,0.225-0.132,0.241c-0.078,0.015-0.164-0.093-0.334-0.109
						c-0.171-0.015-0.264,0.04-0.474,0.085c-0.21,0.046-0.342,0.133-0.489,0.046c-0.147-0.084-0.302-0.317-0.473-0.317
						c-0.172,0-0.287,0.031-0.404,0.101c-0.116,0.07-0.351,0.14-0.552,0.117c-0.201-0.024-0.357-0.109-0.542-0.164
						c-0.188-0.054-0.281-0.155-0.328-0.031c-0.045,0.124-0.007,0.24-0.248,0.21c-0.241-0.031-0.443-0.07-0.699-0.125
						c-0.257-0.055-0.426-0.193-0.629-0.116c-0.202,0.077-0.217,0.256-0.31,0.178c-0.093-0.078-0.171-0.186-0.356-0.186
						c-0.188,0-0.644,0.008-0.777-0.04c-0.131-0.046-0.147-0.132-0.264-0.132c-0.115,0-0.208,0.194-0.333,0.202
						c-0.126,0.008-0.443-0.055-0.699-0.078c-0.256-0.022-0.45,0.007-0.613-0.022c-0.165-0.033-0.194-0.141-0.35-0.141
						c-0.157,0-0.195,0.164-0.281,0.039c-0.085-0.124,0.017-0.133-0.07-0.241c-0.083-0.108-0.147-0.062-0.31-0.241
						c-0.163-0.179-0.28-0.318-0.326-0.45c-0.047-0.131-0.171-0.302-0.38-0.372c-0.21-0.07-0.303-0.21-0.435-0.342
						c-0.132-0.133-0.218-0.233-0.38-0.202c-0.164,0.032-0.202,0.085-0.202,0.233c0,0.148,0,0.312-0.14,0.312
						c-0.14,0-0.171-0.132-0.162-0.312c0.007-0.177-0.079-0.24-0.312-0.225c-0.233,0.015-0.597-0.054-0.498-0.194
						c0.102-0.139,0.327-0.318,0.209-0.373c-0.115-0.054-0.177,0.085-0.333,0.195c-0.155,0.109-0.31,0.101-0.434,0.202
						c-0.125,0.101-0.21,0.28-0.272,0.357c-0.063,0.078-0.156,0.249-0.226,0.249c-0.069,0-0.366-0.146-0.31-0.272
						c0.054-0.123,0.139-0.085,0.232-0.093c0.093-0.009,0.14-0.078,0.062-0.163c-0.076-0.085-0.07-0.217-0.054-0.311
						c0.016-0.093-0.048-0.17-0.265-0.046c-0.217,0.124-0.372,0.294-0.48,0.35c-0.109,0.054-0.256,0.023-0.435,0.069
						c-0.178,0.046-0.225,0.125-0.279,0.241c-0.054,0.117,0,0.133-0.194,0.241c-0.195,0.109-0.132,0.225-0.272,0.327
						c-0.14,0.101-0.164,0.14-0.311,0.131c-0.147-0.008-0.18,0.055-0.287,0.179c-0.108,0.124-0.179,0.201-0.396,0.201
						s-0.42-0.084-0.405-0.007c0.016,0.077,0.171,0.209,0.054,0.31c-0.115,0.101-0.14,0.186-0.178,0.326
						c-0.038,0.141-0.101,0.327,0.147,0.319s0.357-0.094,0.483-0.124c0.123-0.032,0.457-0.117,0.457,0.023s-0.265,0.132-0.45,0.178
						c-0.187,0.047-0.396,0.109-0.342,0.218c0.055,0.108,0.139,0.256,0.265,0.256c0.123,0,0.348-0.093,0.411-0.046
						c0.061,0.046-0.015,0.179-0.07,0.218c-0.054,0.039-0.039,0.147-0.039,0.248c0,0.102,0.008,0.249-0.116,0.264
						c-0.125,0.016-0.203-0.162-0.249-0.272c-0.047-0.108-0.109-0.163-0.281-0.217c-0.17-0.054-0.21-0.194-0.31-0.148
						c-0.101,0.046-0.092,0.148-0.108,0.225c-0.016,0.078-0.14,0.156-0.311,0.109c-0.17-0.046-0.303-0.218-0.482-0.125
						c-0.179,0.093-0.302,0.179-0.411,0.271c-0.109,0.094-0.125,0.14-0.326,0.14c-0.202,0-0.475,0-0.652,0.093
						c-0.178,0.094-0.357,0.117-0.474,0.046c-0.115-0.07-0.402-0.225-0.583-0.286c-0.178-0.063-0.396-0.04-0.596,0.03
						c-0.202,0.07-0.39,0.132-0.497,0.132c-0.109,0-0.164,0.179-0.125,0.302c0.039,0.125,0.156,0.233-0.032,0.295
						c-0.186,0.062-0.396,0.078-0.497,0.178c-0.1,0.102-0.326,0.171-0.543,0.171c-0.219,0-0.458-0.069-0.551,0.015
						c-0.095,0.086-0.273,0.265-0.249,0.365c0.022,0.101,0.224,0.078,0.294,0.14c0.07,0.063-0.023,0.116-0.154,0.132
						c-0.133,0.016-0.312,0.116-0.435,0.241c-0.125,0.124-0.117,0.163-0.28,0.28c-0.163,0.117-0.147,0.202-0.109,0.295
						c0.038,0.093,0.155,0.255,0.047,0.427c-0.108,0.171-0.249,0.396-0.217,0.582c0.03,0.186,0.125,0.443,0.208,0.404
						c0.087-0.04,0.009-0.272,0.149-0.342c0.139-0.07,0.473,0.023,0.551,0.117c0.077,0.093,0.14,0.179,0.093,0.288
						c-0.046,0.108,0,0.287,0.109,0.364c0.108,0.079,0.131,0.288,0.015,0.349c-0.117,0.062-0.156,0.178-0.054,0.295
						c0.102,0.116,0.303,0.35,0.404,0.318c0.1-0.031,0.155-0.108,0.155-0.224c0-0.117,0.116-0.219,0.155-0.179
						c0.039,0.038,0.226,0.202,0.357,0.17c0.134-0.031,0.382-0.202,0.513-0.225c0.131-0.023,0.271,0.055,0.202,0.171
						c-0.07,0.117-0.194,0.093-0.319,0.194c-0.124,0.101-0.069,0.187-0.217,0.264c-0.147,0.077-0.271,0.077-0.433,0.279
						c-0.164,0.202-0.217,0.303-0.274,0.489c-0.053,0.187-0.138,0.428-0.232,0.505c-0.093,0.078-0.124,0.202,0.008,0.241
						c0.133,0.038,0.186,0.155,0.125,0.271c-0.062,0.117-0.055,0.319,0.061,0.312c0.118-0.009,0.357-0.264,0.482-0.381
						c0.123-0.116,0.288-0.131,0.357-0.325c0.069-0.194,0.109-0.389,0.21-0.31c0.101,0.077,0.092,0.248,0.171,0.186
						c0.077-0.063,0.216-0.249,0.264-0.419c0.045-0.172,0.077-0.194,0.17-0.102c0.093,0.093,0.178,0.264,0.302,0.225
						c0.124-0.039,0.124,0.132,0.055,0.249c-0.069,0.117-0.078,0.21-0.24,0.334c-0.164,0.124-0.194,0.17-0.218,0.365
						c-0.024,0.194,0,0.256-0.055,0.396c-0.054,0.139,0.008,0.218,0.008,0.333c0,0.116,0,0.164-0.125,0.164
						c-0.123,0-0.155-0.14-0.177-0.195c-0.024-0.054-0.032-0.115-0.164-0.062c-0.133,0.054-0.194,0.046-0.265,0.07
						c-0.069,0.022-0.046,0.139,0.062,0.201c0.109,0.062,0.193,0.17,0.234,0.302c0.039,0.133,0.202,0.241,0.333,0.234
						c0.132-0.008,0.257-0.032,0.404-0.039c0.147-0.008,0.226,0.054,0.28,0.007c0.054-0.046,0.194-0.178,0.318-0.178
						s0.147,0.039,0.086,0.132c-0.063,0.092-0.172,0.086-0.312,0.187c-0.141,0.1-0.28,0.224-0.389,0.341
						c-0.108,0.117-0.194,0.132-0.341,0.132s-0.178,0.017-0.248,0.148c-0.071,0.132-0.211,0.513-0.141,0.582
						c0.07,0.07,0.474,0.14,0.591,0.124c0.117-0.015,0.272-0.193,0.426-0.241c0.156-0.046,0.481-0.023,0.42,0.063
						c-0.062,0.085-0.379,0.163-0.504,0.256C3.453,25.458,3.172,25.621,3,25.753c-0.169,0.132-0.302,0.295-0.379,0.465
						c-0.079,0.171-0.21,0.241-0.341,0.303c-0.134,0.062-0.242,0.17-0.172,0.419c0.07,0.249,0.086,0.622,0.077,0.878
						c-0.007,0.256-0.069,0.543-0.131,0.761c-0.062,0.217-0.07,0.435,0.062,0.435c0.134,0,0.323-0.253,0.427-0.248
						c0.006,0,0.011,0,0.018,0c0.191,0.006,0.406,0.002,0.48-0.133c0.078-0.14,0.101-0.365,0.357-0.412
						c0.256-0.047,0.419-0.164,0.451-0.404c0.031-0.241-0.032-0.326,0.154-0.326S4.46,27.499,4.67,27.43
						c0.21-0.069,0.389-0.241,0.56-0.248c0.17-0.007,0.473,0.038,0.644-0.007c0.17-0.048,0.473-0.125,0.613-0.203
						c0.14-0.078,0.442-0.086,0.528-0.109c0.086-0.023,0.241-0.015,0.241,0.147c0,0.165,0.131,0.209,0.287,0.295
						c0.156,0.085,0.628,0.249,0.379,0.504c-0.248,0.256-0.714,0.824-0.736,1.111c-0.024,0.287,0.07,0.831,0.318,0.955
						C7.753,30,8.366,30.047,8.624,29.799c0.256-0.249,0.589-0.661,0.752-0.521c0.162,0.14,0.093,0.358,0.372,0.304
						c0.281-0.055,0.924-0.272,1.135-0.132c0.209,0.139,0.434,0.573,0.597,0.573c0.163,0,0.614-0.116,0.807,0.008
						c0.195,0.124,0.792,0.078,1.033,0.04c0.241-0.04,1.313-0.117,1.234-0.583c-0.078-0.466-0.225-0.418-0.125-0.528
						c0.101-0.109,0.552-0.101,0.723,0.046c0.171,0.148,0.458,0.233,0.644,0.194c0.187-0.039,0.497-0.164,0.667,0.023
						c0.17,0.187,0.605,0.226,0.699,0.148c0.092-0.078,0.178-0.389,0.349-0.389c0.17,0,0.224,0.389,0.389,0.404
						c0.162,0.016,0.303,0.008,0.434,0.023c0.133,0.016,0.279-0.039,0.419-0.054c0.14-0.017,0.279,0.124,0.195,0.318
						c-0.086,0.194,0.061,0.489,0.061,0.684c0,0.194-0.061,0.497-0.07,0.877c-0.007,0.38-0.024,0.761,0.085,0.792
						c0.108,0.031,0.809,0.055,0.987,0.046c0.178-0.008,0.706,0.016,1.049,0.614c0.341,0.598,0.457,0.651,0.37,0.761
						c-0.084,0.109-0.303,0.366-0.379,0.622c-0.077,0.255-0.233,0.387-0.381,0.644c-0.148,0.257-0.327,0.373-0.451,0.342
						c-0.124-0.031-0.208,0.016-0.208,0.124c0,0.109-0.008,0.265-0.273,0.412c-0.264,0.148-0.535,0.21-0.575,0.287
						c-0.038,0.079-0.038,0.396-0.193,0.396c-0.156,0-0.405,0-0.574,0.023c-0.171,0.023-0.226,0.015-0.397,0.015
						c-0.17,0-0.224,0.11-0.295,0.303c-0.069,0.194-0.132,0.28-0.318,0.458c-0.187,0.178-0.334,0.241-0.334,0.474
						c0,0.232-0.016,0.356-0.21,0.497c-0.194,0.14-0.418,0.318-0.698,0.24c-0.28-0.078-0.365-0.17-0.381-0.078
						c-0.015,0.094,0.016,0.281,0.116,0.443c0.102,0.164,0.265,0.435,0.265,0.7c0,0.263,0.186,0.38,0.217,0.566
						c0.031,0.186-0.008,0.964-0.039,1.375c-0.031,0.412-0.092,0.901-0.092,1.188c0,0.287-0.039,0.357,0.015,0.536
						c0.055,0.178-0.031,0.396-0.124,0.489c-0.095,0.093-0.234,0.356-0.165,0.566c0.07,0.211,0.296,0.444,0.141,0.606
						c-0.154,0.164-0.52,0.194-0.52,0.388c0,0.194-0.077,0.357-0.296,0.505c-0.217,0.147-0.635,0.436-0.65,0.854
						c-0.016,0.419,0.007,0.514,0.131,0.552c0.124,0.039,0.427,0.256,0.56,0.457c0.132,0.203,0.271,0.513,0.249,0.707
						c-0.024,0.194-0.102,0.365-0.165,0.544c-0.061,0.179-0.1,0.458-0.131,0.637c-0.031,0.178-0.202,0.31-0.341,0.348
						s-0.295,0.163-0.287,0.389c0.007,0.225,0.039,0.442-0.04,0.543c-0.077,0.101-0.287,0.474-0.457,0.535
						c-0.171,0.062-0.242,0.125-0.481,0.117c-0.241-0.009-0.529-0.094-0.691-0.103c-0.163-0.006-0.366,0.056-0.685-0.084
						c-0.318-0.14-0.551-0.225-0.916-0.117c-0.366,0.109-0.652,0.008-0.645,0.117c0.009,0.109,0.164,0.248,0.232,0.404
						c0.07,0.154,0.125,0.302,0.289,0.419c0.164,0.116,0.278,0.372,0.233,0.566c-0.047,0.193,0.022,0.319,0.154,0.505
						c0.133,0.186,0.156,0.334,0.156,0.613s-0.016,0.396,0.156,0.652c0.171,0.257,0.442,0.574,0.442,0.823
						c0,0.248-0.062,0.613,0.055,0.753c0.115,0.141,0.396,0.288,0.466,0.334c0.069,0.047,0.039,0.605,0.333,0.636
						c0.295,0.032,0.808-0.295,1.026,0.319c0.218,0.612,0.17,0.675,0.054,0.83c-0.117,0.156-0.575,0.528-0.699,0.769
						c-0.124,0.242-0.193,0.621-0.373,0.777c-0.179,0.155-0.798,0.761-1.072,0.916c-0.271,0.155-0.465,0.295-0.426,0.792
						s-0.032,0.543-0.226,0.791c-0.193,0.25-0.201,0.507-0.169,0.708c0.031,0.201-0.016,0.474,0.085,0.651
						c0.1,0.18,0.387,0.514,0.621,0.932c0.233,0.42,0.552,1.359,0.699,1.43c0.147,0.069,0.807-0.039,0.938,0.077
						c0.132,0.116,0.062,0.536-0.101,0.854c-0.163,0.317-0.404,0.565-0.69,0.598c-0.288,0.03-0.568,0.101-0.499,0.163
						c0.071,0.062,0.513,0.419,0.374,0.435c-0.14,0.016-0.435-0.062-0.583-0.062c-0.146,0-0.192-0.023-0.418,0.125
						c-0.226,0.146-0.341,0.108-0.512,0.279c-0.172,0.17-0.172,0.388-0.202,0.474c-0.031,0.086-0.108,0.209-0.218,0.326
						c-0.108,0.116-0.186,0.295-0.363,0.436c-0.179,0.139-0.296,0.17-0.436,0.247c-0.139,0.077-0.248,0.257-0.278,0.466
						c-0.032,0.21-0.04,0.381-0.164,0.606c-0.125,0.225-0.186,0.24-0.271,0.389c-0.085,0.146-0.102,0.496-0.077,0.644
						c0.022,0.148,0.07,0.171,0.07,0.474c0,0.304,0.022,0.466,0.092,0.583c0.069,0.116-0.007,0.38,0.062,0.535
						c0.07,0.155,0.117,0.389,0.056,0.605c-0.062,0.218,0.011,0.397,0,0.707C9.539,74.84,9.5,74.98,9.577,75.144
						c0.079,0.162,0.149,0.318,0.149,0.318c0.033-0.016,0.071-0.027,0.11-0.037c0.163-0.045,0.339-0.056,0.339-0.056
						s0.117,0.209,0.342,0.154c0.226-0.054,0.241-0.264,0.241-0.264s0.21-0.093,0.387-0.093c0.18,0,0.366,0.116,0.537,0.101
						s0.459-0.132,0.622-0.132c0.163,0,0.217,0.155,0.504,0.256c0.287,0.101,0.433,0.148,0.302-0.093
						c-0.131-0.24,0.164-0.374,0.217-0.365c0.054,0.008,0.054,0.21,0.095,0.365c0.038,0.155,0.31,0.435,0.621,0.684
						c0.309,0.248,0.822,0.683,1.25,0.985c0.427,0.304,0.761,0.467,1.134,0.831c0.373,0.365,0.559,0.676,0.651,0.9
						c0.094,0.227,0.165,0.613,0.249,0.762c0.085,0.146,0.148,0.194,0.218,0.248c0.069,0.054-0.048,0.163-0.156,0.194
						c-0.109,0.031-0.373,0.146-0.373,0.411s0.28,0.729,0.28,0.729s-0.07,0.28,0.1,0.373c0.171,0.094,0.412-0.047,0.412-0.047
						s0.085,0,0.225,0.147c0.14,0.148,0.124,0.265,0.249,0.265c0.124,0,0.241,0.03,0.202,0.164c-0.04,0.131-0.132,0.302-0.062,0.433
						c0.071,0.133,0.156,0.078,0.233,0.04c0.077-0.04,0.186,0.038,0.101,0.162c-0.086,0.125-0.171,0.156-0.249,0.109
						c-0.078-0.047-0.366-0.248-0.366-0.248s0.102-0.233-0.015-0.365c-0.116-0.131-0.403-0.218-0.543-0.008
						s-0.032,0.365,0.084,0.435c0.118,0.07,0.404,0.326,0.513,0.49c0.109,0.163,0.101,0.504,0.312,0.667
						c0.21,0.163,0.363,0.396,0.363,0.513s-0.022,0.388,0.141,0.458c0.163,0.07,0.287,0.132,0.342,0.194
						c0.053,0.062,0.053,0.279,0.139,0.334c0.085,0.054,0.155,0.342,0.178,0.457c0.024,0.117,0.156,0.109,0.303,0.109
						c0.149,0,0.389-0.055,0.615-0.016c0.225,0.039,0.465,0.264,0.621,0.381c0.155,0.116,0.264,0.364,0.264,0.474
						c0,0.108,0.108,0.171,0.218,0.171c0.108,0,0.28,0.116,0.38,0.193c0.102,0.078,0.28,0.008,0.403,0.024
						c0.125,0.015,0.312,0.256,0.45,0.389c0.141,0.131,0.289,0.2,0.49,0.123s0.186-0.163,0.48-0.21
						c0.296-0.046,0.591-0.015,0.6-0.217c0.007-0.203-0.094-0.699,0.015-0.846c0.108-0.148,0.278-0.179,0.381-0.179
						c0.101,0,0.193-0.094,0.35-0.188c0.153-0.093,0.318-0.24,0.341-0.365c0.023-0.123,0.077-0.256,0.272-0.38
						c0.193-0.124,0.419-0.373,0.465-0.599c0.047-0.224,0.187-0.52,0.506-0.628c0.318-0.109,0.707-0.319,0.938-0.35
						c0.234-0.031,0.505-0.086,0.684-0.187s0.265-0.295,0.645-0.295s0.947,0.101,1.181,0.108c0.232,0.008,0.87,0.062,0.962-0.303
						c0.094-0.364,0.42-0.435,0.498-0.443c0.077-0.008,0.388-0.232,0.605-0.503c0.217-0.272,0.519-0.421,0.527-0.575
						c0.008-0.155,0.164-0.311,0.226-0.311c0.062,0,0.467,0.265,0.645,0.271c0.179,0.008,0.784,0,1.049-0.039
						c0.263-0.039,0.645-0.217,0.845-0.279c0.203-0.062,0.583,0.023,0.724,0.102c0.14,0.077,0.372,0.046,0.503-0.009
						c0.134-0.054,0.491-0.14,0.73-0.108c0.241,0.03,0.45,0.117,0.668,0.171c0.217,0.055,0.637-0.077,0.784-0.085
						c0.146-0.008,0.272,0.055,0.435,0.17c0.164,0.117,0.326,0.086,0.436,0.086c0.108,0,0.296,0.117,0.481,0.14
						c0.187,0.023,0.543-0.108,0.729-0.179c0.188-0.069,0.528-0.279,0.963-0.257c0.436,0.025,0.668,0.079,0.847,0.079
						c0.178,0,0.465-0.017,0.465-0.017s0.147,0.147,0.272,0.141c0.124-0.009,0.219-0.055,0.219-0.055s0.79-0.264,1.008-0.264
						s0.645,0.21,0.956,0.287c0.311,0.077,0.474-0.062,0.589,0.031c0.117,0.093,0.171,0.155,0.358,0.318
						c0.187,0.163,0.225,0.233,0.396,0.217c0.17-0.015,0.249-0.008,0.342,0.055s0.325,0.047,0.45-0.022
						c0.123-0.07,0.356-0.148,0.551-0.148s0.35-0.147,0.442-0.349c0.095-0.202,0.133-0.475,0.227-0.614
						c0.093-0.141,0.287-0.271,0.449-0.326c0.162-0.054,0.396,0.038,0.521,0.047c0.123,0.008,0.24,0,0.45-0.03
						c0.21-0.033,0.472-0.017,0.62,0.077c0.147,0.092,0.46,0.256,0.543,0.42c0.086,0.162,0.219,0.435,0.373,0.435
						c0.155,0,0.412,0.022,0.506-0.148c0.092-0.171,0.255-0.256,0.342-0.264c0.085-0.008,0.107-0.078,0.161-0.249
						c0.055-0.171,0.18-0.201,0.304-0.295s0.21-0.248,0.202-0.389c-0.009-0.139,0.008-0.326,0.187-0.457
						c0.178-0.132,0.325-0.226,0.481-0.249c0.155-0.023,0.124-0.202,0.133-0.294c0.007-0.095-0.002-0.227,0.147-0.451
						c0.146-0.225,0.178-0.265,0.169-0.527c-0.008-0.266,0.017-0.475,0.124-0.614c0.11-0.141,0.172-0.396,0.165-0.621
						c-0.009-0.226,0.061-0.474,0.178-0.621c0.116-0.147,0.062-0.232,0.311-0.365c0.248-0.132,0.365-0.155,0.396-0.317
						c0.03-0.164,0.095-0.304,0.257-0.459s0.365-0.312,0.45-0.312c0.086,0,0.311-0.17,0.365-0.225c0.055-0.054,0.28-0.24,0.458-0.24
						c0.179,0,0.256-0.078,0.218-0.116c-0.039-0.039-0.079-0.164,0.022-0.28s0.286-0.318,0.373-0.35
						c0.086-0.03,0.233-0.286,0.334-0.356c0.101-0.069,0.419-0.179,0.552-0.171c0.132,0.008,0.209-0.008,0.239-0.093
						c0.032-0.086,0.242-0.102,0.413-0.086c0.17,0.015,0.301,0.147,0.31,0.241c0.008,0.094,0.086,0.147,0.194,0.147
						s0.21-0.117,0.288-0.21s0.48-0.147,0.652-0.187c0.169-0.039,0.442-0.209,0.474-0.093c0.03,0.115-0.07,0.311,0.217,0.24
						s0.412-0.287,0.605-0.279c0.195,0.008,0.287-0.047,0.474-0.163c0.187-0.117,0.706-0.342,0.543-0.474
						c-0.162-0.133-0.232-0.094-0.356-0.078s-0.187,0.04-0.396-0.147c-0.21-0.187-0.42-0.442-0.356-0.604
						c0.061-0.164,0.115-0.242,0.208-0.319c0.095-0.077-0.03-0.389,0.054-0.458c0.086-0.069,0.194,0.124,0.234,0.047
						c0.039-0.078,0.022-0.303,0.077-0.582c0.055-0.28,0.022-0.396,0.163-0.513c0.14-0.117,0.265-0.102,0.279-0.304
						c0.017-0.202,0.147-0.295,0.288-0.41c0.14-0.117,0.102-0.296,0.102-0.583s-0.017-0.691,0.022-0.932
						c0.038-0.241,0.231-0.411,0.427-0.458c0.194-0.047,0.536,0.069,0.528-0.318c-0.009-0.389-0.118-0.948-0.031-1.119
						c0.086-0.171,0.334-0.278,0.475-0.225c0.138,0.054,0.287-0.015,0.287-0.226c0-0.209,0.006-0.396,0.271-0.652
						c0.265-0.256,0.435-0.457,0.644-0.589c0.211-0.133,0.351-0.218,0.515-0.233c0.162-0.015,0.364-0.141,0.511-0.141
						c0.147,0,0.28,0.039,0.366-0.022c0.084-0.062,0.233-0.077,0.233-0.279s0.061-0.365,0.262-0.544
						c0.203-0.178,0.357-0.233,0.459-0.233c0.101,0,0.233,0.04,0.279-0.17c0.048-0.21,0.188-0.287,0.342-0.42
						c0.155-0.132,0.437-0.38,0.567-0.427c0.133-0.046,0.24-0.21,0.093-0.287c-0.146-0.077-0.232-0.085-0.24-0.249
						c-0.009-0.163-0.14-0.295-0.318-0.333c-0.178-0.038-0.296-0.117-0.506-0.232c-0.208-0.117-0.387-0.172-0.613-0.233
						c-0.225-0.062-0.496-0.296-0.737-0.529c-0.239-0.232-0.466-0.497-0.807-1.001c-0.342-0.505-0.552-0.979-0.552-1.126
						c0-0.146,0.062-0.201,0.094-0.279c0.031-0.077,0.069-0.218-0.078-0.466c-0.146-0.249-0.334-0.551-0.52-0.955
						c-0.188-0.404-0.403-0.822-0.373-1.111c0.03-0.286,0.202-0.597,0.271-0.722c0.069-0.124,0.077-0.449,0.187-0.722
						c0.109-0.271,0.288-0.372,0.365-0.598c0.076-0.226,0.038-0.629,0.241-0.862c0.201-0.232,0.396-0.512,0.504-0.752
						c0.109-0.24,0.303-0.419,0.513-0.722c0.21-0.303,0.363-0.645,0.38-0.754c0.016-0.108,0.117-0.233,0.117-0.326
						c0-0.093-0.009-0.054,0.07-0.225c0.076-0.171,0.153-0.271,0.31-0.373c0.155-0.101,0.574-0.303,0.583-0.637
						c0.007-0.333,0.217-0.629,0.356-0.729c0.14-0.101,0.389-0.287,0.504-0.56c0.118-0.271,0.163-0.481,0.319-0.629
						c0.155-0.147,0.403-0.341,0.489-0.52c0.086-0.178,0.193-0.21,0.419-0.629c0.226-0.419,0.35-0.729,0.56-1.103
						c0.21-0.373,0.28-0.621,0.529-0.722c0.246-0.101,0.434-0.132,0.611-0.169c0.179-0.04,0.226,0.038,0.117,0.185
						c-0.109,0.148-0.156,0.28-0.257,0.28s-0.396-0.024-0.389,0.102c0.009,0.123,0.086,0.163,0.28,0.1
						c0.194-0.062,0.38-0.085,0.496-0.271c0.118-0.187,0.133-0.349,0.335-0.512c0.201-0.164,0.48-0.334,0.528-0.474
						c0.046-0.141,0.256-0.187,0.287-0.302c0.03-0.118-0.04-0.118-0.179-0.133c-0.14-0.016-0.264-0.093-0.42-0.256
						c-0.155-0.164-0.404-0.295-0.404-0.295s0.087,0.169,0,0.225c-0.084,0.053-0.364,0.039-0.348-0.125
						c0.016-0.164,0.046-0.333,0.277-0.606c0.234-0.271,0.397-0.434,0.676-0.845c0.28-0.412,0.545-0.784,0.777-1.087
						c0.232-0.303,0.428-0.373,0.723-0.466c0.294-0.093,0.427-0.116,0.56-0.022c0.132,0.092,0.186,0.045,0.24-0.117
						c0.054-0.164,0.218-0.28,0.404-0.342c0.185-0.062,0.402-0.054,0.597-0.162c0.193-0.109,0.497-0.319,0.886-0.404
						c0.388-0.085,1.049-0.264,1.646-0.474c0.597-0.21,1.467-0.535,2.056-0.753c0.592-0.217,0.886-0.287,1.073-0.373
						c0.187-0.085,0.31-0.381,0.31-0.381s0.335,0.07,0.404-0.217c0.069-0.286-0.062-0.403-0.062-0.403s0.078-0.35,0.279-0.521
						c0.202-0.17,0.336-0.319,0.628-0.419c0.297-0.102,0.568-0.288,0.662-0.475c0.093-0.186,0.435-0.434,0.884-0.659
						c0.451-0.225,0.901-0.388,1.312-0.691c0.412-0.303,0.545-0.45,0.793-0.598c0.248-0.147,0.497-0.287,0.707-0.473
						c0.208-0.187,0.441-0.326,0.605-0.497c0.163-0.171,0.311-0.327,0.457-0.552c0.149-0.225,0.179-0.35,0.334-0.411
						c0.156-0.062,0.327-0.172,0.304-0.475c-0.022-0.302-0.047-0.449-0.195-0.551c-0.147-0.101-0.185-0.357-0.162-0.575
						c0.021-0.217-0.022-0.434-0.164-0.551c-0.14-0.116-0.388-0.194-0.458-0.566c-0.069-0.374-0.093-0.668,0-0.832
						s0.218-0.147,0.366-0.054c0.146,0.093,0.373,0.101,0.481,0.031c0.109-0.069,0.21-0.271,0.17-0.388
						c-0.038-0.116,0.024-0.28,0.11-0.326C90.423,24.681,90.378,24.541,90.3,24.541z"/>
					<circle style="fill:#010101;" cx="12.741" cy="11.331" r="0.056"/>
					<ellipse style="fill:#010101;" cx="61.362" cy="72.864" rx="0.049" ry="0.043"/>
					<ellipse style="fill:#010101;" cx="63.563" cy="71.755" rx="0.05" ry="0.058"/>
					<circle style="fill:#010101;" cx="67.296" cy="63.299" r="0.062"/>
					<ellipse style="fill:#010101;" cx="90.02" cy="27.396" rx="0.056" ry="0.047"/>
					<circle style="fill:#010101;" cx="90.037" cy="27.621" r="0.055"/>
				</g>
				<g>
					<ellipse style="fill:#010101;" cx="72.503" cy="49.645" rx="0.085" ry="0.069"/>
					<circle style="fill:#010101;" cx="72.76" cy="49.574" r="0.094"/>
					<ellipse style="fill:#010101;" cx="72.596" cy="49.962" rx="0.086" ry="0.094"/>
					<ellipse style="fill:#010101;" cx="72.543" cy="50.266" rx="0.062" ry="0.07"/>
					<ellipse style="fill:#010101;" cx="72.744" cy="50.21" rx="0.046" ry="0.079"/>
					<circle style="fill:#010101;" cx="76.936" cy="58.154" r="0.07"/>
					<ellipse style="fill:#010101;" cx="77.364" cy="58.019" rx="0.078" ry="0.059"/>
					<ellipse style="fill:#010101;" cx="77.236" cy="58.379" rx="0.082" ry="0.07"/>
					<ellipse style="fill:#010101;" cx="77.399" cy="59.3" rx="0.082" ry="0.065"/>
					<ellipse style="fill:#010101;" cx="80.632" cy="57.348" rx="0.07" ry="0.076"/>
					<circle style="fill:#010101;" cx="79.223" cy="58.978" r="0.057"/>
					<circle style="fill:#010101;" cx="79.537" cy="59.773" r="0.062"/>
					<ellipse style="fill:#010101;" cx="79.146" cy="59.951" rx="0.074" ry="0.059"/>
					<ellipse style="fill:#010101;" cx="78.995" cy="59.668" rx="0.062" ry="0.047"/>
					<path style="fill:#010101;" d="M79.29,56.718c-0.218,0.102-0.296,0.264-0.404,0.271c-0.108,0.009-0.227,0.047-0.364,0.163
						c-0.14,0.116-0.188,0.226-0.35,0.326c-0.163,0.101-0.249,0.24-0.249,0.42c0,0.179,0.07,0.302-0.054,0.302
						s-0.258-0.037-0.258,0.094c0,0.133,0.009,0.318-0.03,0.489c-0.038,0.171-0.085,0.374,0.03,0.404
						c0.117,0.031,0.194,0.047,0.288-0.023s0.147-0.094,0.218-0.016c0.069,0.078,0.163,0.047,0.279,0.078
						c0.116,0.03,0.218,0.084,0.278,0.162c0.063,0.078,0.109,0.086,0.22,0.062c0.107-0.023,0.029-0.288,0.067-0.396
						c0.04-0.107,0.07-0.317,0.219-0.388c0.147-0.07,0.326-0.086,0.435-0.24c0.108-0.156,0.124-0.288,0.164-0.404
						c0.037-0.117,0.14-0.201,0.24-0.279s0.153-0.179,0.256-0.232c0.102-0.056,0.155-0.094,0.009-0.187
						c-0.149-0.095-0.134-0.164-0.109-0.256c0.023-0.095,0.062-0.257-0.024-0.265c-0.084-0.009-0.239,0.1-0.364-0.048
						C79.646,56.593,79.29,56.718,79.29,56.718z"/>
					<path style="fill:#010101;" d="M79.638,60.616c-0.103-0.092-0.201-0.094-0.287-0.218c-0.085-0.124-0.107-0.201-0.232-0.077
						c-0.124,0.124-0.209,0.132-0.217,0.194c-0.007,0.062-0.016,0.248-0.039,0.356s-0.008,0.303,0.062,0.39
						c0.07,0.084,0.078,0.069,0.217-0.103c0.14-0.171,0.219-0.265,0.366-0.265s0.217,0.124,0.379,0.187
						c0.165,0.062,0.265,0.062,0.366-0.015c0.103-0.078,0.086-0.232-0.047-0.232c-0.132,0-0.208,0.107-0.294,0.038
						C79.825,60.802,79.709,60.678,79.638,60.616z"/>
					<path style="fill:#010101;" d="M85.423,51.36c-0.113-0.066-0.171,0.124-0.216,0.256c-0.048,0.132-0.039,0.163,0.022,0.163
						c0.061,0,0.131,0,0.188-0.163C85.471,51.453,85.479,51.393,85.423,51.36z"/>
					<path style="fill:#010101;" d="M88.879,48.612c-0.194,0.105-0.365,0.14-0.622,0.38c-0.256,0.241-0.396,0.459-0.559,0.661
						c-0.162,0.202-0.559,0.551-0.777,0.668c-0.216,0.116-0.395,0.24-0.434,0.295c-0.038,0.054,0,0.108-0.069,0.147
						c-0.07,0.039-0.063,0.124-0.188,0.162c-0.124,0.04-0.325,0.218-0.442,0.35s-0.317,0.31-0.209,0.496s0.278,0.404,0.428,0.404
						c0.146,0,0.403-0.125,0.466-0.055c0.061,0.07,0.015,0.116,0.007,0.225c-0.007,0.109,0.389,0.45,0.436,0.327
						c0.046-0.125-0.032-0.358,0.101-0.474c0.131-0.116,0.271-0.172,0.411-0.272s0.21-0.232,0.349-0.232
						c0.141,0,0.133-0.008,0.312,0.085c0.178,0.094,0.465,0.241,0.434,0.388c-0.03,0.147-0.086,0.475-0.038,0.607
						c0.046,0.131,0.046,0.418,0.248,0.589c0.201,0.171,0.388,0.116,0.513,0.094c0.124-0.023,0.334-0.016,0.504,0.007
						c0.172,0.024,0.241,0.062,0.327-0.007c0.084-0.07,0.24-0.016,0.333,0.068c0.094,0.087,0.094,0.265,0.171,0.304
						c0.078,0.039,0.226,0.141,0.302,0.218c0.078,0.077,0.125,0.257,0.227,0.225c0.101-0.03,0.07-0.256,0.202-0.403
						s0.334-0.248,0.504-0.343c0.172-0.092,0.272-0.224,0.451-0.456c0.179-0.234,0.356-0.443,0.364-0.762s0.047-0.505,0.289-0.746
						c0.239-0.24,0.472-0.442,0.401-0.566c-0.07-0.123-0.093-0.403,0.017-0.465c0.108-0.062,0.341-0.023,0.365-0.226
						c0.022-0.202,0-0.358,0.062-0.435c0.062-0.077-0.008-0.288-0.141-0.342c-0.131-0.054-0.31-0.108-0.388-0.249
						c-0.077-0.139-0.155-0.249-0.316-0.249c-0.165,0-0.211,0.202-0.352,0.304c-0.14,0.1-0.24,0.201-0.381,0.24
						c-0.138,0.04-0.263,0.047-0.558-0.147c-0.296-0.194-0.536-0.326-0.475-0.566c0.062-0.242,0.303-0.218,0.35-0.335
						c0.048-0.116,0.07-0.279-0.047-0.279c-0.115,0-0.271,0.109-0.441,0.171c-0.172,0.062-0.265-0.109-0.234-0.209
						c0.031-0.102,0.389-0.357,0.545-0.466c0.155-0.108,0.303-0.217,0.146-0.265c-0.154-0.046-0.287,0.017-0.349,0.094
						c-0.062,0.079-0.295,0.287-0.458,0.287s-0.341-0.068-0.459,0c-0.114,0.07-0.225,0.148-0.411,0.187
						c-0.188,0.04-0.357,0.117-0.435,0.202c-0.078,0.086-0.139,0.125-0.256,0.202C88.988,48.526,88.939,48.579,88.879,48.612z"/>
					<path style="fill:#010101;" d="M96.854,46.088c-0.342,0-0.621-0.031-0.753,0.17c-0.133,0.203-0.079,0.289,0.038,0.405
						c0.115,0.117,0.179,0.24,0.14,0.411c-0.038,0.17-0.038,0.272,0.087,0.334c0.124,0.062,0.271,0.04,0.48-0.04
						c0.208-0.077,0.511-0.139,0.721-0.077c0.21,0.062,0.491,0.194,0.669,0.303c0.179,0.109,0.217,0.325,0.38,0.365
						c0.162,0.039,0.536,0.084,0.809,0.209c0.271,0.124,0.38,0.055,0.481-0.132c0.102-0.187-0.055-0.357-0.063-0.435
						c-0.007-0.078,0.055-0.093,0.125-0.093s0.03-0.101-0.125-0.241c-0.154-0.14-0.356-0.366-0.349-0.535
						c0.007-0.171-0.047-0.343-0.171-0.389c-0.124-0.046-0.311,0.054-0.449-0.148c-0.14-0.201-0.048-0.373-0.204-0.402
						c-0.153-0.033-0.17,0.077-0.293,0.1c-0.125,0.023-0.204-0.031-0.327-0.077c-0.125-0.047-0.194,0.031-0.248,0.093
						c-0.055,0.062-0.132,0.07-0.327,0.07c-0.193,0-0.239,0.024-0.372,0.047C96.971,46.05,96.917,46.088,96.854,46.088z"/>
				</g>
			</g>
			<path style="fill:#010101;" d="M24.821,88.512c0,0,0.046,0.101,0.046,0.141c0,0.039-0.024,0.095,0.003,0.134
				c0.026,0.041,0.135,0.114,0.187,0.13c0.053,0.016,0.132,0.034,0.132,0.034s0.021-0.105,0.08-0.101
				c0.057,0.006,0.087-0.013,0.108-0.037c0.021-0.023,0.06-0.045,0.098-0.034c0.037,0.011,0.059-0.005,0.071-0.013
				c0.014-0.008,0.034-0.016,0.074-0.016c0.038,0,0.098-0.029,0.107-0.061c0.012-0.031,0.012-0.113-0.051-0.111
				c-0.06,0.002-0.065,0.021-0.103,0.019c-0.037-0.002-0.05,0.029-0.044,0.056c0.005,0.026-0.014,0.053-0.039,0.053
				c-0.028,0-0.055-0.021-0.083-0.021c-0.03,0-0.076-0.008-0.076-0.031s-0.019-0.029-0.054-0.008
				c-0.034,0.021-0.086,0.011-0.086-0.037s-0.022-0.077-0.061-0.096c-0.041-0.019-0.09-0.063-0.136-0.071
				c-0.045-0.008-0.06,0.004-0.091,0.019C24.871,88.475,24.821,88.512,24.821,88.512z"/>
		</g>
	</g>
</g>
<g id="Layer_1">
</g>
</svg>
