<?xml version="1.0" encoding="iso-8859-1"?>
<!-- Generator: Adobe Illustrator 16.0.3, SVG Export Plug-In . SVG Version: 6.00 Build 0)  -->
<!DOCTYPE svg PUBLIC "-//W3C//DTD SVG 1.1//EN" "http://www.w3.org/Graphics/SVG/1.1/DTD/svg11.dtd">
<svg version="1.1" xmlns="http://www.w3.org/2000/svg" xmlns:xlink="http://www.w3.org/1999/xlink" x="0px" y="0px" width="100px"
	 height="100px" viewBox="0 0 100 100" style="enable-background:new 0 0 100 100;" xml:space="preserve">
<g id="FR">
	<path style="fill:#010101;" d="M52.818,0.541l-6.795,2.162l-1.081,7.491l-9.266,5.328l-0.696,2.857l2.162,0.387l-10.733,0.694
		l-1.776-3.243l-3.938-0.309l2.471,11.737l-8.185,0.386L9.267,25.56l-8.958,2.857L0,30.502l2.857-0.309l-1.467,1.39l1.467,1.467
		l-2.162,0.309l2.471,2.857l2.548-0.695l10.347,3.553l0.309,2.162l5.02,0.695l-2.857,0.386l0.695,3.938l1.853,3.166l4.633,2.161
		v5.406l3.167,4.941l-2.084-2.857l-1.467,7.877l1.467,0.695l-2.548,10.733l-3.167,2.163l7.49,5.713l7.799,1.391l3.243-1.082
		l3.244,1.082l2.084,1.08l2.857,1.469l7.491-0.387l-0.31-4.247l0.694-2.856l5.715-3.631l7.182,1.082l7.8,3.243l9.652-7.49
		l-0.31-3.243l-3.243-0.387l-1.081-6.409l-1.081-0.694l2.162-3.553l-2.162-5.405l1.776-0.694l-1.776-5.02h-2.472l-2.547,2.549
		l-0.31-3.244l6.795-11.042l3.938-1.081v-5.02l3.552-9.266L80,20.85l-3.244-3.552l-3.552-0.31L67.8,15.212v-3.938l-4.942,1.081
		L61.39,8.727l-8.571-5.329V0.541z M98.532,83.705l-0.386,2.549l-3.861,1.391l-1.081,1.467l1.081,6.409l3.552,3.938L100,91.273
		L98.532,83.705z"/>
</g>
<g id="Layer_1">
</g>
</svg>
