<?xml version="1.0" encoding="iso-8859-1"?>
<!-- Generator: Adobe Illustrator 16.0.3, SVG Export Plug-In . SVG Version: 6.00 Build 0)  -->
<!DOCTYPE svg PUBLIC "-//W3C//DTD SVG 1.1//EN" "http://www.w3.org/Graphics/SVG/1.1/DTD/svg11.dtd">
<svg version="1.1" xmlns="http://www.w3.org/2000/svg" xmlns:xlink="http://www.w3.org/1999/xlink" x="0px" y="0px" width="100px"
	 height="100px" viewBox="0 0 100 100" style="enable-background:new 0 0 100 100;" xml:space="preserve">
<g id="GE">
	<path style="fill-rule:evenodd;clip-rule:evenodd;fill:#010101;" d="M47.562,70.44c-0.273-0.006-0.892-0.02-0.75-0.226
		c-0.909-0.207-2.863-2.766-3.751-3.681c-0.149,0.024-0.3,0.05-0.45,0.075c-0.025,0.175-0.05,0.351-0.075,0.525
		c-0.227-0.095-0.09,0.001-0.225-0.15c-0.341-0.033-0.53-0.375-0.675-0.525c0-0.101,0-0.201,0-0.301
		c0.601-0.361,0.503-0.731,0.675-1.202c-0.025-0.05-0.05-0.101-0.075-0.15c-0.244,0.079-1.072,0.282-0.825,0.15
		c-0.05,0-0.1,0-0.15,0c-0.232-0.19-1.472-0.19-1.575-0.301c-0.291,0.21-0.342,0.376-1.05,0.376
		c0.067,0.894-1.304,1.584-0.975,2.779c-0.225-0.024-0.45-0.05-0.675-0.074c-0.784,0.21-2.277-0.574-2.776-1.053
		c-0.45,0.025-0.9,0.051-1.35,0.075c-0.055-0.031-0.045-0.53-0.525-0.376c0,0-2.534,0.412-2.401,0.227
		c-0.244-0.061-0.284-0.069-0.375-0.451c-0.993,0.27-2.255,1.473-2.25,1.803c-0.075,0-0.15,0-0.225,0
		c-0.044-0.521-1.3-0.825-1.875-1.277c-0.197,0.351-0.36,0.244-0.75,0.301c-0.026-0.264-0.81-0.855-1.5-0.826
		c0.025-0.05,0.05-0.101,0.075-0.15c0.413-0.175,0.43-0.521,0.375-1.202c0.325,0.05,0.65,0.101,0.975,0.15
		c-0.136-0.483-0.525-0.344-0.825-0.525c0.075-0.101,0.15-0.201,0.226-0.301c3.156-1.527,3.075-5.781,1.65-9.467
		c0.337-0.127,0.613-0.1,0.675-0.526c0.153-0.135,0.053-0.001,0.15-0.225c-0.025-0.051-0.05-0.101-0.075-0.15c-0.3,0-0.6,0-0.9,0
		c-0.025,0.075-0.05,0.15-0.075,0.226c0.075,0.226,0.15,0.45,0.225,0.676c-0.05,0-0.101,0-0.15,0c0-0.05,0-0.101,0-0.15
		c-1.368-0.176-0.487-3.129-1.125-4.583c-0.203-0.462-0.704-0.832-0.75-0.977c0.025-0.15,0.05-0.301,0.075-0.451
		c-0.05-0.05-0.1-0.101-0.15-0.15c-0.125,0.075-0.25,0.15-0.375,0.225c-0.01-2.291-0.355-4.791-1.125-5.86c0-0.15,0-0.3,0-0.451
		c-0.059-0.071-0.75-0.676-0.75-0.676c-0.125-0.1-0.25-0.2-0.375-0.3c-0.121-0.163-1.099-0.372-1.35-0.526
		c-0.025,0.025-0.05,0.05-0.075,0.075c-0.687-0.634-0.958-0.006-2.025-0.451c-0.25-0.225-0.5-0.451-0.75-0.676
		c-0.025,0.025-0.05,0.05-0.075,0.075c0.071-1.15-0.398-2.851-1.05-3.381c-0.452,0.124-0.662,0.129-1.05,0.226
		c-0.942-2.121-3.183-2.26-5.776-2.179c-0.687-1.18-1.646-0.557-2.551-1.803c-0.15,0.025-0.3,0.05-0.45,0.075
		c-0.115,0.256-0.243,0.415-0.525,0.676c-0.282-0.276-0.878-0.57-0.825-0.827c-0.632-0.622,0.138-2.875-0.675-2.63
		C3.349,29.62,0.913,28.614,0,28.517c0.465-1.5,1.32-2.339,1.35-3.756c0.715-0.029,2.249-0.537,2.401-0.451
		c0,0.167,0.004-0.009,0.15,0.075c0.028,0.196,0.933,0.495,1.726,0.676c0.35-0.025,0.7-0.05,1.05-0.075
		c0.745,0.358,0.798,0.67,1.95,0.751c0.12-0.236,0.724-1.129,1.125-0.827c1.109,0.247,1.779,1.174,2.4,1.502
		c0.241,0.128,0.785-0.063,1.201,0.15c0.001,1.298,1.285,0.949,1.35,1.052c0.464,0.092,0.873,0.52,1.275,1.126
		c0.521-0.165,0.526-0.279,0.75-0.525c0.835,0.06,2.569,1.357,2.851,1.277c0.297-0.084,0.137,0.176,0.3-0.075
		c0.372-0.08,0.028-0.255,0.45-0.451c0.25-0.025,0.5-0.05,0.75-0.075c0.042,0.606,0.058,0.821,0.3,1.277
		c0.946-0.008,1.144,0.626,1.65,1.052c0.05,0,0.1,0,0.15,0c0.091,0.087,0.023,0.184,0.15,0.075c0.01,0.009,0.326,0.281,0.15,0.301
		c0.251,0.161,1.504,0.249,2.101,0.3c0.05-0.125,0.1-0.25,0.15-0.375c0.225,0.186,0.193,0.167,0.225,0.375
		c0.107,0.021,1.259,0.533,1.5,0.15c0.075,0,0.15,0,0.225,0c-0.021-0.44-0.031-0.58,0.225-0.751c0.02,0.583,1.423,0.62,2.25,0.601
		c0.037,0.234,0.16,0.45,0.45,0.601c0.229-0.47,2.266-0.868,2.7-0.901c0.076,0.15,0.15,0.3,0.225,0.451
		c1.14-0.113,1.507-0.831,2.626-0.977c0.444,0.526,0.27,0.482,0.6,1.052c1.139-0.215,2.084,1.365,3.226,1.352
		c0.025-0.05,0.05-0.1,0.075-0.15c-0.075-0.201-0.15-0.401-0.225-0.601c0.763,0.12,2.344-0.421,3.076,0.15
		c0.263,0.061,0.737,0.674,0.825,1.202c0.654-0.165,1.401,0.32,1.575,0.601c-0.198,0.116-0.174,0.549,0,0.676
		c0.308,1.514,3.789,2.525,4.352,3.306c2.261-0.738,3.871,0.829,4.351,1.427c0.001,0.019,0.256,0.265,0.15,0.3
		c0.975,0.579,1.668,0.836,2.55,1.202c-0.006,1.28-0.669,1.428-1.2,2.329c0.301,0.239,0.247,0.592,0.601,0.751
		c0.678,0.374,2.181,0.196,3,0.676c0.288-0.22,0.823-0.9,0.826-0.902c1.069-0.562,2.005-0.003,3-0.526
		c-0.199-2.043,5.145-2.693,7.353-2.254c0.082,0.319,0.424,1.842,0.75,2.254c0.15,0.025,0.3,0.05,0.449,0.075
		c0.26-0.676,0.558-2.476,1.426-2.479c0.657-0.819,2.075,0.79,2.176,1.052c0.7-0.05,1.4-0.1,2.101-0.15
		c0.298,1.336,2.006,1.912,2.025,3.081c0.101,0.1,0.2,0.2,0.3,0.3c0.223,0.169,3.232-0.347,3.451-0.375
		c0.765,1.612,4.891,0.72,2.4,3.381c-0.488,0.521,0.615,1.495,0.226,1.653c-0.092,0.43-1.026,0.516-1.576,0.3
		c0.052,0.312-0.146,1.094-0.375,1.277c0.088,0.166,2.326,2.025,2.4,2.028c0.064-0.036,0.533,0.27,0.301,0.301
		c0.024-0.024,0.05-0.05,0.075-0.075c0.906-0.2,2.164,0.748,1.725,1.127c0.188,0.241,0.367,0.432,0.301,0.677
		c0.564-0.131,0.685-0.288,1.426-0.226c0,0.1,0,0.2,0,0.301c0.337-0.107,0.347-0.204,0.75-0.15c0.05,0.25,0.1,0.501,0.149,0.751
		c0.125,0,0.251,0,0.376,0c0.042-0.334,0.057-0.351,0.225-0.525c0.05,0.024,0.1,0.05,0.149,0.075c0.075,0.175,0.15,0.35,0.226,0.525
		c0.472-0.054,1.179-0.201,1.351-0.075c0.453,0.057,1.04,0.995,1.351,1.202c0.024-0.125,0.05-0.251,0.074-0.376
		c0.15,0.075,0.3,0.15,0.45,0.226c0.139-0.21,0.054-0.011,0.075-0.3c0.101,0.1,0.2,0.2,0.3,0.3c0.029,0.467,0.182,0.372,0.525,0.752
		c-0.426,1.392-1.059,1.795-2.101,2.329c0.193,0.604-0.53,2.722-0.6,2.779c0.324,0.426,0.649,0.852,0.975,1.277
		c-0.545,0.266-0.134,0.947,0,1.052c0.041-0.163,0.096-0.084,0.15,0.075c0.05,0.05,0.1,0.101,0.15,0.15
		c-0.134,0.142-0.027,0.262,0,0.525c0.203-0.01,4.177,2.228,4.501,2.78c0.173-0.127,0.394-0.145,0.225-0.075
		c0.25,0.058,0.821,1.407,0.825,1.503c-0.102,0.522-0.511,0.934-0.825,1.503c-0.142,0.255,0.208,1.225-0.075,2.028
		c-0.243,0.045-0.152,0.039-0.375,0.301c-0.296-0.048-0.851-0.148-0.976-0.226c-0.249,0.375-0.5,0.751-0.75,1.127
		c-0.451-0.241-0.782-0.582-0.825-0.977c-0.375,0-0.75,0-1.125,0c-0.339-0.956-2.612-2.504-3.526-2.18
		c-0.38,0.136-0.508,0.53-1.05,0.602c-0.625-0.025-1.251-0.05-1.876-0.075c-0.777-0.384-1.685-1.095-2.476-1.127
		c-0.1-0.1-0.199-0.2-0.3-0.301c-0.411-0.04-0.937-0.768-1.2-1.052c-0.108-0.116-0.025-0.285,0.075-0.15
		c-0.009-0.428,0.646-0.532,0.825-0.977c-0.15-0.075-0.301-0.15-0.45-0.226c-0.156,0.249-2.011-0.079-1.95-0.375
		c-0.101-0.176-0.2-0.352-0.301-0.526c-0.888,0.173-0.934-0.438-1.8-0.751c-0.125,0.175-0.25,0.351-0.375,0.525
		c-0.101-0.025-0.2-0.05-0.301-0.074c-0.375-0.251-0.75-0.501-1.125-0.752c-0.193,0.019-2.325,1.277-2.325,1.277
		c-0.061,0.321-0.585,1.215-0.825,1.353c-0.375,0.214-1.653,0.556-1.876,0.751c-0.175,0.25-0.351,0.501-0.524,0.751
		c-1.066,0.345-1.669-0.646-2.101-0.901c0.006,0.256-0.247,1.499,0.225,1.353c0.146,0.328,0.501,0.178,0.825,0.451
		c0,0.025,0,0.05,0,0.075c-0.475-0.043-2.439-0.1-2.4-0.226c-0.43,0.108-1.124-0.537-1.275-0.15
		c-0.489,0.098-0.155,0.47-0.751,0.826c-0.067-0.303,0.042-0.144-0.299-0.301c-0.195,0.252-1.295,0.381-1.726,0.376
		c-0.072-0.479-1.051-0.749-1.576-1.052c0.021,0.297-0.019,0.284-0.149,0.602c-0.955-0.123-0.828-0.42-1.501-0.677
		c-0.511,0.315-0.301-0.078-0.75,0.075c0.111,0.253,0.211,0.23,0,0.451c-0.239,1.015-6.125,0.582-6.526,2.104
		c-0.25-0.176-0.5-0.351-0.75-0.525c-0.306-0.367-0.831,0.252-1.126,0.074c-0.169-0.035-0.819-0.693-0.975-0.3
		c-0.573,0.101-0.306,0.343-1.126,0.375c-0.081-0.865-0.652-0.883-1.125-1.503c-0.932,0.296-1.153,0.551-2.4,0.526
		c0-0.05,0-0.101,0-0.15c-0.296-0.609-0.15-1.093-0.675-1.353c-0.225,0.05-0.45,0.101-0.675,0.15
		c-0.075-0.075-0.15-0.15-0.225-0.226c0.05,0,0.1,0,0.15,0c0.275-0.2,0.55-0.4,0.825-0.601
		C47.562,70.741,47.562,70.591,47.562,70.44z"/>
</g>
<g id="Layer_1">
</g>
</svg>
