<?xml version="1.0" encoding="iso-8859-1"?>
<!-- Generator: Adobe Illustrator 16.0.3, SVG Export Plug-In . SVG Version: 6.00 Build 0)  -->
<!DOCTYPE svg PUBLIC "-//W3C//DTD SVG 1.1//EN" "http://www.w3.org/Graphics/SVG/1.1/DTD/svg11.dtd">
<svg version="1.1" xmlns="http://www.w3.org/2000/svg" xmlns:xlink="http://www.w3.org/1999/xlink" x="0px" y="0px" width="100px"
	 height="100px" viewBox="0 0 100 100" style="enable-background:new 0 0 100 100;" xml:space="preserve">
<g id="GN">
	<path style="fill:#070404;" d="M98.765,61.685c-0.501,0.009-0.646-0.141-0.967-0.199c-0.249,0.312-1.117,0.674-1.267,0.932
		c-0.126,0.226,0.019,0.516-0.099,0.8c-0.416,1.004-0.937,1.497-0.168,2.501c0.344,0.004,0.628-0.109,0.801-0.132
		c0.33-0.05,0.714,0.136,1.135,0.032c0.452,0.605,0.823,1.501,1.135,2.233c0.031,0.298,0.063,0.602,0.1,0.899
		c0.153,0.199,0.307,0.402,0.466,0.602c-0.022,0.38-0.43,0.578-0.335,0.899c0.1,0.335,0.411,0.389,0.435,0.832
		c-0.443,0-0.891,0-1.334,0c-0.117-0.452-0.547-1.248-0.932-1.465c-0.067,0.031-0.136,0.067-0.204,0.1
		c-0.008,0.23-0.021,0.466-0.031,0.7c-0.226,0.041-0.389,0.077-0.634,0.1c-0.003-0.018-0.714-0.963-0.768-0.999
		c-0.335-0.004-0.565,0.177-0.732,0.131c-0.466-0.117-0.899-0.348-1.396-0.198c-0.023,0.131,0,0.1-0.068,0.167
		c-0.506,0.194-0.772-0.271-1.266-0.167c-0.055,0.294-0.312,0.47-0.569,0.564c0.017,0.854,0.433,1.257,0,1.836
		c0.197,0.516-0.182,0.755-0.063,1.234c0.222-0.009,0.233-0.055,0.397-0.105c0.131,0.146,0.266,0.29,0.398,0.436
		c0.781-0.027,1.079,0.076,1.333,0.569c0.082,0,0.158,0,0.235,0c0.131-0.198,0.274-0.461,0.434-0.669
		c0.076,0.091,0.154,0.181,0.235,0.267c0.227-0.149,0.186-0.159,0.398,0c0,0.046,0,0.09,0,0.136
		c-0.326,0.285-0.183,0.755-0.299,1.099c0.127,0.186,0.203,0.081,0.397,0.199c0.222,0.136,0.466,0.691,0.534,0.968
		c-0.009,0.009-0.022,0.022-0.033,0.031c-0.302-0.059-0.211-0.1-0.501-0.031c-0.022-0.101-0.046-0.199-0.067-0.299
		c-0.389-0.041-0.691-0.041-0.932,0.13c-0.022,0.068-0.046,0.137-0.067,0.2c0.131,0.158,0.175,0.213,0.167,0.533
		c-0.226,0.172-0.964,1.515-0.832,1.805c0.263,0.05,0.465,0.311,0.597,0.497c-0.135,0.366-0.244,0.646-0.367,1.066
		c-0.821,0.06-0.939,1.863-1.332,2.469c-0.01,0-0.022,0-0.033,0c-0.121,0-0.243,0-0.365,0c-0.253-0.345-0.506-0.312-0.936-0.502
		c-0.055-0.136-0.108-0.267-0.163-0.398c-0.067,0-0.136,0-0.203,0c-0.109,0.109-0.222,0.222-0.331,0.331
		c-0.189,0.014-0.41,0.022-0.501-0.068c-0.022-0.121-0.046-0.243-0.067-0.365c-0.11,0-0.222,0-0.33,0
		c-0.227,0.226-0.448,0.447-0.67,0.669c-0.465-0.267-0.931-0.534-1.401-0.802c0.077-0.247,0.172-0.713,0.036-0.998
		c-0.416-0.009-1.066-0.072-1.365,0.068c-0.027,0.42-0.372,0.447-0.569,0.694c0.076,0.521-0.096,0.692-0.199,1.204
		c0.067,0.022,0.131,0.044,0.199,0.067c0,0.177,0,0.354,0,0.529c-0.326,0.249-0.525,0.557-0.9,0.769c0,0.153,0,0.312,0,0.466
		c-0.09,0-0.176,0-0.267,0c-0.23,0.312-0.466,0.624-0.7,0.936c0.176,0.24,0.181,0.479,0.203,0.832
		c-0.091,0.091-0.181,0.177-0.268,0.267c-0.257-0.01-0.51-0.023-0.768-0.031c-0.023-0.113-0.046-0.226-0.068-0.335
		c-0.275-0.026-0.538,0.186-0.597,0.466c-0.619-0.018-1.026,0.244-1.202,0.665c-0.267,0-0.534,0-0.801,0
		c0.068-0.131,0.136-0.263,0.198-0.399c-0.226-0.161-0.274-0.279-0.365-0.6c-1.18,0.04-1.04-0.732-1.099-1.434
		c-0.402-0.009-0.801-0.022-1.198-0.031c0.005-0.222-0.006-0.435-0.067-0.565c-0.574-0.027-0.94,0.017-1.067,0.466
		c-0.113-0.014-0.222-0.022-0.335-0.033c-0.009-0.103-0.022-0.202-0.031-0.302c-0.633,0.118-0.597,0.629-0.968,0.769
		c0-0.09,0-0.181,0-0.267c0.163-0.267,0.095-0.42,0.235-0.737c0.222-0.208,0.443-0.42,0.665-0.633c0-0.122,0-0.244,0-0.366
		c0.112-0.122,0.221-0.244,0.334-0.366c0.104-0.194,0.009-0.356,0.1-0.602c0.077-0.076,0.153-0.153,0.235-0.23
		c0.089-0.244-0.181-1.071-0.068-1.501c0.068-0.009,0.132-0.022,0.199-0.031c-0.028-0.249,0.036-0.263,0.1-0.466
		c-0.177-0.153-0.194-0.443-0.267-0.702c-0.62-0.035-0.452-0.536-0.864-0.735c-0.013-0.389-0.095-1.226,0-1.329
		c0.027-0.218,0.063-0.177,0.231-0.235c0-0.045,0-0.091,0-0.131c-0.362-0.281-0.141-0.606-0.299-0.868
		c-0.113,0.075-0.136,0.126-0.303,0.167c-0.022-0.014-0.045-0.022-0.063-0.036c0-0.056,0-0.108,0-0.167
		c0.063-0.063,0.131-0.132,0.199-0.199c0-0.045,0-0.086,0-0.131c-0.068-0.059-0.136-0.113-0.199-0.168
		c-0.177-0.42,0.05-0.809-0.167-1.103c-0.34,0-0.621-0.095-0.837-0.23c0-0.014,0-0.022,0-0.032c0-0.022,0-0.045,0-0.067
		c0.1-0.068,0.204-0.136,0.303-0.199c-0.005-0.331-0.09-0.285-0.203-0.47c0.212-0.06,0.325-0.177,0.434-0.33
		c-0.055-0.19-0.108-0.38-0.162-0.57c-0.091-0.009-0.181-0.022-0.271-0.031c0-0.1,0-0.199,0-0.299c0.022,0,0.045,0,0.067,0
		c0.186-0.072,0.335-0.076,0.471-0.167c0.041-0.113,0.086-0.222,0.131-0.335c-0.055-0.054-0.113-0.112-0.167-0.167
		c-1.071,0.027-0.81-0.136-1.298-0.602c-0.222,0.194-0.705,0.438-1.103,0.335c0-0.067,0-0.131,0-0.199
		c0.145-0.145,0.289-0.29,0.434-0.434c0-0.022,0-0.045,0-0.068c-0.208-0.148-0.339-0.343-0.533-0.497
		c-0.28,0-0.335,0.068-0.534,0.131c-0.009,0.177-0.022,0.357-0.031,0.534c-0.524-0.222-0.425-0.981-0.633-1.434
		c-0.077,0-0.158,0-0.235,0c-0.122,0.1-0.244,0.199-0.366,0.299c0.059,0.145,0.113,0.189,0.068,0.37
		c-0.326-0.018-0.593-0.1-0.634,0.199c-0.099-0.067-0.198-0.136-0.303-0.199c-0.289,0.068-0.434-0.076-0.664,0
		c-0.61,0.194-1.185,1.171-2.066,0.963c-0.014-0.379,0.081-0.406,0.23-0.597c0-0.067,0-0.136,0-0.203
		c-0.832-0.674-1.248-0.61-2.066,0.036c-0.298-0.036-0.597-0.067-0.899-0.1c-0.081,0.032-0.1,0.181-0.299,0.131
		c-0.158-0.036-0.442-0.316-0.7-0.23c-0.181,0.055-0.376,0.158-0.602,0.199c-0.019,0.402-0.244,0.619-0.565,0.732
		c0.009,0.28-0.031,0.357-0.131,0.502c-0.529,0.041-0.457,0.619-0.801,0.8c-0.284,0.146-0.353,0.168-0.569,0.33
		c-0.176-0.009-0.353-0.022-0.533-0.031c-0.086-0.353-0.818-0.349-1.167-0.402c-0.217,0.285-0.316,0.516-0.397,0.968
		c-0.045,0.014-0.091,0.022-0.136,0.036c-0.022-0.014-0.045-0.022-0.067-0.036c0-0.01,0-0.023,0-0.032
		c0.145-0.406,0.062-0.872,0.37-1.302c0.23-0.045,0.29-0.177,0.498-0.267c0-0.362-0.154-0.706,0-1.131
		c0.122-0.334,0.298-0.533,0.366-0.936c0.492-0.086,0.429-0.394,0.601-0.801c0.529-0.018,1.411-0.533,1.501-1.066
		c-0.158-0.118-0.397-0.285-0.533-0.43c-0.321-0.714-0.366-0.963-1.035-1.334c-0.022-0.683-0.059-1.338-0.23-2.07
		c-0.077-0.325,0.325-0.765,0.1-1.329c-0.394-0.022-0.624-0.267-0.9-0.335c-0.203-0.05-0.714,0.104-0.968,0.068
		c0-0.046,0-0.091,0-0.136c0.281-0.471,0.06-1.117,0.268-1.533c0.117,0.077,0.136,0.113,0.334,0.131
		c0.1-0.062,0.199-0.131,0.299-0.198c0.162-0.335-0.326-0.402,0.1-0.999c-0.091-0.366-0.335-0.512-0.665-0.634
		c0.019-0.741-0.832-0.845-1.401-0.732c-0.009-0.013-0.022-0.022-0.031-0.036c0.04-0.108,0.085-0.221,0.131-0.33
		c-0.199-0.203-0.398-0.402-0.602-0.601c0.131-0.204,0.072-0.276,0-0.502c0.091-0.077,0.181-0.154,0.267-0.23
		c-0.022-0.036-0.04-0.068-0.063-0.1c-0.334,0.009-0.466-0.091-0.533-0.335c0.163-0.027,0.149-0.036,0.23-0.136
		c-0.203-0.208-0.447-0.33-0.664-0.533c-0.1-0.299-0.204-0.597-0.304-0.899c-0.162-0.01-0.33-0.022-0.497-0.032
		c-0.004-1.433-1.75-2.301-2.568-2.897c0.005-0.534-0.131-1.32-0.497-1.537c-0.628-0.362-1.832-0.036-2.604-0.1
		c-2.197,0-4.399,0-6.596,0c-0.085,0.234-0.144,0.66-0.266,0.868c-0.806,0.148-1.75,0.569-2.501,0.8
		c-0.813,0.249-1.366-0.38-1.799-0.565c-0.022,0-0.046,0-0.068,0c-0.014-0.004-2.545,0.362-2.7,0.43
		c-0.081,0.113-0.158,0.226-0.234,0.335c-0.168,0.014-0.335,0.022-0.502,0.031c-0.276,0.167-0.204,1.266-0.565,1.637
		c0.05,0.163,0.104,0.186,0.067,0.366c-0.338-0.036-0.361,0.009-0.632,0.167c0.01,0.24-0.022,0.34-0.1,0.466
		c-0.081,0.022-0.158,0.046-0.234,0.068c0.026,0.394,0.095,0.406-0.033,0.732c-0.208,0-0.312,0.031-0.433,0.1
		c-0.036,0.189-0.068,0.379-0.1,0.564c-0.113,0.06-0.222,0.113-0.334,0.168c0.041,0.212,0.099,0.33,0.099,0.633
		c-0.252,0.198-0.411,0.361-0.433,0.8c0,0.1,0,0.199,0,0.303c-0.127,0.172-0.76,0.195-0.999,0.299
		c0.022,0.199,0.044,0.397,0.068,0.602c-0.484,0.054-0.312,0.37-0.534,0.664c-0.218,0.29-0.832,0.027-1.099,0.068
		c-0.033,0.203-0.096,0.271-0.304,0.298c-0.112-0.104-0.261-0.186-0.434-0.23c-0.127,0.186-0.199,0.565-0.366,0.732
		c0.095,0.1,0.158,0.416,0.068,0.602c-0.099,0.086-0.199,0.177-0.298,0.267c-0.158,0.321-0.145,0.629-0.371,0.963
		c-0.317-0.004-0.416,0.068-0.633,0.136c-0.05,0.19-0.077,0.303-0.163,0.435c-0.28,0-0.556,0-0.836,0
		c-0.177-0.249-0.411-0.493-0.764-0.57c-0.276,0.349-0.512,0.068-1,0.235c-0.226,0.145-0.447,0.289-0.669,0.434
		c-0.244,0-0.271-0.04-0.397-0.135c0.04-0.208,0.822-1.062,0.999-1.298c0.004-0.366-0.122-0.543-0.335-0.402
		c-0.009,0.136-0.022,0.267-0.031,0.402c-0.014,0-0.022,0-0.036,0c-0.308-0.082-0.276-0.1-0.597-0.036c0-0.009,0-0.019,0-0.032
		c0.113-0.189,0.063-0.181,0-0.397c0.053-0.022,0.108-0.045,0.162-0.067c-0.117-0.227-0.045-0.439,0.068-0.602
		c-0.281-0.353-0.349-0.913-0.167-1.298c-0.01-0.014-0.023-0.022-0.032-0.036c-0.077,0.014-0.153,0.022-0.235,0.036
		c-0.058,0.303-0.148,0.443-0.266,0.732c-0.253,0-0.511,0-0.764,0c0-0.014,0-0.022,0-0.036c0.216-0.389-0.131-0.583-0.235-0.899
		c-0.068-0.213,0.135-0.538,0.199-0.696c-0.28-0.204-0.371-0.154-0.832-0.136c-0.167-0.222-0.502-0.497-0.565-0.801
		c-0.041-0.185,0.154-0.172,0.031-0.366c-0.628,0.168-0.89-0.664-1.234-0.936c-0.34,0.108-1.059,0.556-1.199,0.868
		c-0.099-0.009-0.198-0.022-0.302-0.031c0-0.068,0-0.136,0-0.199c0.104-0.014,0.203-0.022,0.302-0.036
		c0.104-0.244,0.245-0.194,0.367-0.366c0.181-0.254,0.09-0.471,0.235-0.801c0.108-0.1,0.221-0.198,0.33-0.298
		c0.217-0.502-0.014-0.751,0.135-1.303c0.294-0.018,0.53-0.303,0.701-0.465c-0.036-0.023-0.067-0.046-0.103-0.068
		c-0.164-0.009-0.331-0.022-0.498-0.031c-0.045-0.046-0.09-0.091-0.131-0.136c0.019-0.077,0.041-0.154,0.063-0.23
		c-0.122-0.091-0.244-0.177-0.366-0.267c-0.022,0.009-0.045,0.022-0.068,0.031c0.104,0.153,0.163,0.194,0.168,0.466
		c-0.213,0.167-0.421,0.334-0.633,0.502c-0.498,0.018-0.737-0.063-0.967-0.299c-0.005-0.397,0.167-0.81,0.302-0.999
		c0.357,0.014,0.424-0.447,0.565-0.669c-0.032-0.032-0.068-0.068-0.1-0.1c-0.094,0.122-0.13,0.289-0.198,0.466
		c-0.19-0.014-0.15-0.027-0.267,0.067c0.036,0.113,0.036,0.082,0.032,0.199c-0.172,0.059-0.339,0.189-0.465,0.434
		c-0.218-0.026-0.231-0.112-0.136-0.267c-0.009-0.022-0.023-0.045-0.033-0.067c-0.699-0.113-0.746-0.452-1.166-0.9
		c-0.285-0.303-0.787-0.425-1.099-0.7c-0.046-0.1-0.09-0.199-0.136-0.299c-0.154,0-0.312,0-0.466,0
		c-0.321-0.222-0.646-0.442-0.968-0.664c0-0.457,0.249-0.701,0.435-1.004c-0.014-0.022-0.022-0.041-0.032-0.063
		c-0.181,0-0.356,0-0.533,0c-0.023,0.009-0.045,0.022-0.068,0.032c0.031,0.167,0.068,0.334,0.099,0.501
		c-0.366,0.34-0.908,0.136-1.333,0.063c-0.041-0.217-0.127-0.262-0.235-0.397c0.022-0.213,0.081-0.194,0.036-0.299
		c-0.258,0.186-0.556,0.077-0.801-0.104c-0.089-0.402-0.27-0.23-0.464-0.466c-0.525-0.629-1.307-1.42-2.203-0.732
		c-0.045-0.009-0.09-0.022-0.131-0.032c-0.068-0.181-0.136-0.356-0.204-0.533C8.165,45.611,8.359,45.53,8.4,45.417
		c0.109-0.298-0.104-0.619-0.167-0.832c-0.678-0.117-0.791-0.786-1.203-1.166c0.153-0.244,0.117-0.561,0.167-0.937
		c-0.009-0.009-0.022-0.022-0.031-0.031c-0.059,0-0.113,0-0.167,0c-0.023,0.113-0.045,0.222-0.068,0.335
		c-0.475,0.076-0.985,0.14-1.334,0.099c0-0.7,0.145-0.659,0.1-1.202c0.227-0.1,0.447-0.199,0.668-0.299
		c0.01-0.076,0.022-0.153,0.032-0.234c-0.091-0.041-0.177-0.086-0.266-0.132c0.048-0.284,0-0.669,0.134-1.035
		c0.146-0.394,0.62-0.605,0.765-0.932c0.122-0.275,0.09-0.511,0.167-0.769c-0.022-0.022-0.045-0.04-0.067-0.062
		c-0.1,0.054-0.2,0.108-0.3,0.167c-0.022,0.416-0.302,0.493-0.433,0.764c-0.299,0.634-0.474,1.348-1.297,1.533
		c-0.022-0.009-0.045-0.022-0.068-0.032c0-0.176,0-0.356,0-0.533c0.09-0.045,0.176-0.09,0.267-0.136
		c-0.023-0.031-0.046-0.063-0.068-0.1c-0.131,0-0.267,0-0.398,0c0-0.031,0-0.062,0-0.099c0.131-0.24,0.145-0.457,0.231-0.801
		c0.171-0.031,0.14-0.045,0.235-0.131c-0.037-0.022-0.068-0.046-0.1-0.068c-0.036-0.009-0.068-0.022-0.099-0.031
		c-0.167,0.176-0.335,0.353-0.502,0.533c0.014,0.213,0.023,0.484-0.067,0.597c-0.276-0.208-0.43-0.583-0.634-0.863
		c0.014-0.045,0.024-0.091,0.036-0.136c0.276-0.009,0.286-0.086,0.43-0.199c-0.009-0.244-0.004-0.515,0.068-0.669
		c-0.009-0.022-0.022-0.04-0.032-0.063c-0.176,0.122-0.366,0.146-0.7,0.132c-0.01-0.032-0.023-0.068-0.033-0.1
		c0.127-0.349-0.181-0.873-0.067-1.465c0.213,0.004,0.407-0.009,0.533-0.068C4.173,36.271,4.2,36.32,4.3,36.216
		c-0.037-0.045-0.068-0.086-0.1-0.131c-0.357,0.009-0.443-0.063-0.602-0.235c-0.285,0.172-0.402,0.434-0.832,0.466
		c-0.036-0.032-0.067-0.063-0.099-0.1c0.068-0.221,0.019-0.397-0.136-0.497c-0.022,0.009-0.044,0.022-0.067,0.032
		c0.014,0.425-0.023,0.737-0.131,0.999c0.122,0.136,0.234,0.158,0.397,0.267c-0.055,0.19,0.104,0.253,0.167,0.502
		c-0.09,0.055-0.175,0.108-0.266,0.167c0.108,0.249-0.041,0.493-0.235,0.633c-0.412-0.221-0.525-0.564-0.199-0.967
		c-0.022-0.022-0.046-0.046-0.068-0.068c-0.131,0.122-0.261,0.244-0.397,0.366c-0.068-0.086-0.131-0.176-0.199-0.267
		c-0.022,0.014-0.044,0.022-0.067,0.036c0.067,0.19,0.135,0.375,0.198,0.565c-0.175,0.031-0.148,0.009-0.198,0.167
		c0.275,0.1,0.447,0.194,0.433,0.602c-0.719,0.086-1.076-0.059-1.47-0.366C0.325,37.939,0,37.952,0,37.283
		c0.24-0.117,0.687-0.492,0.864-0.7c0.014-0.055,0.022-0.109,0.036-0.163c0.091-0.072,0.665-0.226,0.8-0.271
		c-0.076-0.583,0.634-1.333,0.864-1.799c0.949-1.908,1.623-4.172,3.102-5.565c0.245,0.068,1.731,0.289,2.102,0.136
		c0.132-0.113,0.263-0.222,0.398-0.335c0.488-0.199,2.017-0.705,2.233-1.067c0.045-0.131,0.091-0.266,0.131-0.402
		c0.141-0.208,0.372-0.217,0.435-0.529c0.375,0.104,0.456-0.049,0.7-0.036c0.158,0.077,0.312,0.158,0.465,0.234
		c0.167-0.036,0.335-0.067,0.502-0.1c0.263,0.077,0.385,0.507,0.732,0.466c0.244-0.113,0.488-0.222,0.733-0.334
		c0.171-0.027,0.302,0.167,0.402,0.199c0.452,0.158,0.863-0.308,0.967-0.565c0.054,0,0.108,0,0.167,0
		c0.077,0.077,0.155,0.158,0.231,0.234c0.113-0.022,0.222-0.044,0.334-0.067c0.031-0.303,0.186-0.43,0.298-0.669
		c-0.148-0.077-0.171-0.09-0.167-0.33c0.014-0.023,0.022-0.045,0.036-0.068c0.077,0.009,0.154,0.023,0.23,0.032
		c0.06,0.037,0.114,0.068,0.168,0.104c-0.019,0.245-0.027,0.28,0.067,0.43c0.009,0,0.022,0,0.032,0
		c0.113-0.032,0.222-0.063,0.334-0.1c0.009,0.014,0.022,0.022,0.031,0.036c-0.008,0.086-0.022,0.177-0.031,0.267
		c0.167,0.041,0.335,0.086,0.501,0.131c0.208-0.123,0.421-0.245,0.634-0.367c0-0.416,0.198-1.375,0.13-1.569
		c-0.134-0.384-0.157-1.135-0.13-1.632c0.014-0.325,0.212-0.483,0.031-0.8c-0.95,0.009-1.108-0.38-1.433-1
		c-0.181-0.032-0.484-0.072-0.702-0.13c-0.009-0.281-0.081-0.286-0.198-0.434c-0.298-0.023-0.435-0.1-0.801-0.1
		c-0.367-1.176-0.05-0.448,0.235-1.334c0.424,0.023,0.81,0.014,0.963-0.234c0.027-0.127-0.022-0.161-0.1-0.267
		c0.113-0.056,0.227-0.111,0.335-0.167c0.076,0.111,0.153,0.222,0.235,0.333c0.032-0.023,0.062-0.043,0.099-0.065
		c0.01-0.207,0.068-0.312,0.23-0.367c0.014,0.176,0.024,0.354,0.038,0.534c0.184,0.004,0.293-0.016,0.397-0.068
		c0.005-0.151,0.008-0.192,0.067-0.267c0.217,0.129,0.335,0.176,0.435,0.433c0.044,0,0.085,0,0.13,0
		c0.408-0.601,0.191-0.583,0.837-1.032c0-0.479-0.086-0.779-0.104-1.166c0.203-0.159,0.299-0.344,0.435-0.568
		c-0.077-0.209-0.154-0.423-0.231-0.632c-0.144-0.134-0.289-0.267-0.434-0.401c0-0.201,0-0.399,0-0.601
		c-0.077-0.111-0.153-0.222-0.235-0.333c-0.086-0.208-0.04-0.834-0.1-1.067c2.505-0.004,4.924,0.468,6.8,0.335
		c0.033,0.188,0.083,0.24,0.2,0.333c0.773-0.267,0.511-0.169,1.334,0c0.081-0.109,0.116-0.157,0.266-0.199
		c0.366,0.538,0.398,1.022,0,1.532c-0.014,0.36,0.032,0.484,0.167,0.667c0.746,0.079,1.348,0.319,1.737-0.167
		c0.008-0.199,0.018-0.4,0.031-0.599c0.167-0.034,0.334-0.068,0.502-0.103c0.171,0.208,0.397,0.281,0.695,0.369
		c0.014,0.133,0.023,0.266,0.037,0.397c0.257,0.172,0.547,0.093,0.864,0.136c0.158,0.209,0.186,0.271,0.266,0.531
		c0.534,0,1.067,0,1.601,0c0.267,0.343,0.683,0.481,0.868,0.899c0.566-0.015,0.525-0.31,0.869-0.431
		c0.877-0.314,1.727,0.947,2.097,1.231c0.651-0.054,1.094-0.531,1.637-0.698c0.412-0.129,0.638,0.072,0.999-0.103
		c0.172-0.081,0.566-0.61,0.764-0.766c0.529,0.075,1.126,0.583,1.799,0.335c0.285-0.104,0.457-0.391,0.801-0.468
		c0.411,0.551,1.013,0.567,2.001,0.567c0.222,0,0.443,0,0.665,0c0.177-0.145,0.358-0.29,0.533-0.435c0.335,0,0.67,0,1,0
		c0.17-0.049,0.402-0.176,0.569-0.233c0.899-0.314,1.532,0.328,2.197,0.335c0.022,0.174,0.063,0.192,0.135,0.298
		c-0.014,0.045-0.022,0.09-0.036,0.133c-0.375,0.043-0.366,0.084-0.732,0.034c-0.078,0.156-0.155,0.312-0.236,0.468
		c0.204,0.305,0.208,0.52,0.204,0.965c-0.136,0.034-0.705,0.745-0.836,0.935c0.054,0.19,0.045,0.204,0,0.398
		c0.226,0.168,0.331,0.384,0.434,0.67c0.343,0.008,0.28,0.153,0.471,0.23c0.198,0,0.397,0,0.597,0
		c0.113,0.113,0.222,0.222,0.334,0.334c0.009,0.176,0.023,0.358,0.032,0.534c0.516,0.19,0.872,0.615,1.434,0.701
		c0.353-0.172,1.283-0.448,1.433-0.769c0.014-0.19,0.022-0.375,0.036-0.565c0.24,0.009,0.339-0.023,0.466-0.1
		c0.009-0.023,0.022-0.045,0.031-0.067c-0.054-0.159-0.049-0.123,0.037-0.268c0.234-0.04,0.32-0.09,0.465-0.199
		c0.01-0.366,0.132-0.718,0.235-1.035c0.009,0,0.019,0,0.032,0c0.673,0.239,1.152-0.195,1.6-0.131
		c0.516,0.072,0.484,0.642,0.732,0.999c0.208,0.298,0.837,0.461,1.198,0.601c0.005,0.43-0.072,0.701-0.1,1.031
		c0.521,0.406,0.512,1.058,0.837,1.501c0.244,0.049,0.303,0.208,0.466,0.334c0.33,0,0.479-0.099,0.664-0.234
		c0.082-0.394,0.299-0.498,0.366-0.864c0.299-0.008,0.426-0.112,0.602-0.234c-0.027-0.154-0.067-0.335,0.032-0.435
		c0.348-0.09,0.438-0.095,0.7-0.298c0-0.014,0-0.022,0-0.036c-0.05-0.131-0.081-0.135-0.1-0.334
		c0.068-0.032,0.136-0.063,0.199-0.099c-0.045-0.168-0.091-0.194-0.1-0.43c0.036-0.014,0.068-0.023,0.1-0.037
		c0.244-0.14,0.569,0.082,0.904-0.067c0.055-0.186,0.335-0.245,0.466-0.367c-0.036-0.086-0.068-0.176-0.1-0.267
		c0.041-0.031,0.086-0.063,0.131-0.1c0.145,0.078,0.208,0.122,0.435,0.136c0.095-0.126,0.158-0.14,0.198-0.334
		c0.194,0.05,0.177,0.095,0.335,0.032c-0.022-0.262-0.104-0.275-0.1-0.497c0.009,0,0.022,0,0.032,0
		c0.108,0.063,0.248,0.09,0.402,0.131c0.031,0.185,0.081,0.212,0.198,0.303c0.022-0.023,0.046-0.045,0.068-0.068
		c-0.022-0.14-0.005-0.122,0.063-0.234c0.854,0.162,1.686,0.668,2.567,0.433c0.113,0.19,0.222,0.38,0.335,0.566
		c0.524,0,1.008,0.275,1.266,0.569c0.28-0.113,0.389-0.081,0.769,0c0.235,0.412,0.827,0.886,1.397,0.533
		c0.339,0.271,0.913,0.674,1.501,0.398c0.009-0.131,0.022-0.267,0.031-0.398c0.186-0.031,0.213-0.081,0.303-0.203
		c-0.031-0.226-0.095-0.275-0.099-0.565c0.239-0.185,0.574-0.497,0.696-0.8c0.781-0.014,1.744-0.348,2.034-0.899
		c0.344,0,0.592-0.121,0.836-0.2c0.218-0.071,0.688,0.213,1.099,0.102c0.023-0.08,0.046-0.156,0.068-0.233
		c0.099-0.023,0.199-0.045,0.298-0.068c-0.005-0.292-0.076-0.323-0.135-0.533c0.081-0.034,0.157-0.067,0.234-0.1
		c-0.004-0.201,0.014-0.345,0.068-0.467c-0.249-0.305-0.765-0.545-0.968-0.866c-0.127-0.2,0.014-0.231-0.167-0.367
		c-0.104,0.052-0.172,0.07-0.267,0.065c0-0.077,0-0.156,0-0.232c0.293-0.125,0.483-0.416,0.831-0.434
		c0.023,0.011,0.046,0.022,0.068,0.034c0.022,0.122,0.014,0.102,0.066,0.167c0.033,0,0.068,0,0.101,0
		c0.072-0.179,0.072-0.204,0.335-0.201c0.308,0.167,0.447-0.057,0.732-0.1c0.05-0.007,1.004,0.149,1.234,0.199
		c0.022,0,0.045,0,0.063,0c0.104,0.113,0.202,0.224,0.303,0.335c0.353,0.167,1.004,0.255,1.297,0.465
		c0.082,0.167,0.158,0.335,0.235,0.502c0.194,0.246,0.569,0.412,0.769,0.665c0,0.167,0,0.334,0,0.501
		c-0.113,0.066-0.226,0.134-0.334,0.199c-0.036,0.289-0.068,0.58-0.1,0.865c0.067,0.167,0.189,0.267,0.23,0.471
		c0.022,0.008,0.045,0.022,0.067,0.031c0.222-0.081,0.357-0.14,0.565-0.23c0.077,0.308,0.335,0.592,0.471,0.732
		c-0.096,0.453-0.502,0.896-0.268,1.397c0.199,0.082,0.397,0.159,0.598,0.235c0.059-0.077,0.112-0.154,0.167-0.235
		c0.09,0,0.181,0,0.267,0c0.095,0.213,0.235,0.24,0.366,0.403c0.005,0.379-0.091,0.479-0.131,0.763
		c0.746,0.556-0.308,3.477-0.435,4.404c0.009,0.009,0.022,0.019,0.032,0.032c0.23,0,0.352,0.077,0.47,0.099
		c0.131-0.032,0.263-0.068,0.398-0.099c0.126,0.049,0.104,0.189,0.334,0.234c0.131-0.122,0.266-0.248,0.398-0.371
		c0.198,0.014,0.402,0.022,0.601,0.036c-0.022,0.29-0.045,0.579-0.068,0.868c0.457,0.1,0.286,1.537,1.532,1.664
		c0.169-0.149,0.341-0.271,0.603-0.334c0.055,0.104,0.113,0.204,0.167,0.303c-0.059,0.095-0.072,0.086-0.099,0.23
		c0.185,0.14,0.284,0.294,0.396,0.502c0.489,0.036,0.859,0.208,1.267,0.099c0.082,0.059,0.158,0.113,0.235,0.167
		c-0.009,0.022-0.022,0.046-0.032,0.068c-0.243,0.041-0.471,0.28-0.533,0.497c0.222,0.068,0.574,0,0.801,0.1
		c0.009,0.38-0.068,0.502-0.168,0.737c-0.343,0.005-0.37,0.104-0.669,0.131c-0.198-0.145-0.542-0.357-0.733-0.298
		c-0.044,0.194-0.13,0.234-0.233,0.366c0.08,0.154,0.158,0.312,0.233,0.466c-0.049,0.073-0.058,0.081-0.13,0.136
		c-0.308-0.073-0.891,0.108-1.104,0.267c0,0.009,0,0.018,0,0.032c0.033,0.371,0.214,0.701-0.098,0.899
		c-0.244,0.077-0.367,0.022-0.565,0.167c0,0.009,0,0.022,0,0.032c0.031,0.113,0.067,0.222,0.1,0.334
		c-0.321,0.249-0.29,0.52-0.466,0.832c-0.145,0.1-0.29,0.204-0.435,0.303c0.082,0.199,0.077,0.411,0.068,0.597
		c0.275,0.181,0.542,0.022,0.764-0.131c0.521,0.343,0.81,0.045,1.37-0.136c0.153-0.412,0.356-0.769,0.496-1.198
		c0.558-0.027,0.589-0.186,0.969,0.1c0.533-0.235,0.805-0.104,1.234,0.235c0.086,0.285,0.303,0.394,0.465,0.597
		c-0.004,0.226,0.14,1.018,0.132,1.035c-0.031,0.091-0.217,0.199-0.132,0.435c0.073,0.189,0.163,0.42,0.101,0.732
		c-0.271,0-0.29,0.059-0.435,0.167c0.009,0.402-0.104,0.43-0.267,0.633c0.036,0.068,0.067,0.132,0.1,0.199
		c0.252,0,0.298,0.031,0.402,0.167c-0.077,0.154-0.158,0.312-0.235,0.466c-0.004,0.014,0.181,1.42,0.235,1.533
		c0.067,0.036,0.131,0.067,0.199,0.104c0,0.33,0,0.665,0,0.999c0.076,0.063,0.153,0.132,0.233,0.199
		c0.109,0.199-0.107,0.167,0.064,0.434c0.059,0.01,0.113,0.023,0.168,0.032c-0.011,0.394,0.104,0.651,0.266,0.868
		c0.268,0,0.534,0,0.801,0c0.113-0.113,0.222-0.222,0.335-0.335c0.09,0.014,0.175,0.022,0.267,0.036
		c-0.032,1.022,0.863,1.054,1.7,1.099c0.094,0.244,0.233,0.335,0.433,0.466c0.006,0.466,0.096,0.873,0.101,1.434
		c-0.461,0.348-0.497,0.736-0.769,1.302c-0.249,0.521-1.013,0.569-1.465,0.899c-0.064,0.312-0.335,0.606-0.435,0.864
		c0.032,0.014,0.068,0.022,0.1,0.036c0.113-0.022,0.222-0.046,0.335-0.068c-0.014,0.113-0.023,0.222-0.032,0.335
		c-0.158,0.009-0.312,0.022-0.47,0.031c0.045,0.199-0.027,0.136-0.164,0.299c0.055,0.059,0.109,0.113,0.164,0.167
		c0.194-0.095,0.253-0.036,0.402,0.068c0,0.076,0,0.158,0,0.234c-0.077,0.063-0.159,0.132-0.235,0.199
		c0.021,0.032,0.046,0.067,0.068,0.1c0.167-0.01,0.289-0.01,0.366,0.067c0,0.122,0,0.244,0,0.366
		c0.044,0.023,0.09,0.046,0.136,0.068c-0.349,0.565-0.385,1.261-0.471,1.931c0.045,0.158,0.091,0.312,0.136,0.466
		c-0.1,0.135-0.2,0.267-0.303,0.402c-0.051,0.148,0.095,0.542,0.067,0.732c-0.009,0.054-0.181,0.212-0.1,0.402
		c0.656,1.491,1.538,2.5,3.566,1.532c0.011-0.059,0.023-0.113,0.033-0.167c0.136,0.009,0.267,0.022,0.402,0.031
		c0,0.014,0,0.022,0,0.036c-0.086,0.23-0.1,0.538-0.2,0.801c-0.103,0.131-0.202,0.267-0.302,0.397
		c-0.022,0.136,0.14,0.493,0.066,0.732c-0.112,0.366-0.474,0.701-0.563,1.135c0.145,0.29,0.262,0.402,0.533,0.565
		c0.222-0.077,0.443-0.153,0.664-0.23c0,0,0.587,0.922,0.701,0.999c0.107,0.009,0.222,0.022,0.334,0.031
		c0.055,0.182,0.068,0.168,0.23,0.235C98.765,61.554,98.765,61.616,98.765,61.685z"/>
</g>
<g id="Layer_1">
</g>
</svg>
