<?xml version="1.0" encoding="iso-8859-1"?>
<!-- Generator: Adobe Illustrator 16.0.3, SVG Export Plug-In . SVG Version: 6.00 Build 0)  -->
<!DOCTYPE svg PUBLIC "-//W3C//DTD SVG 1.1//EN" "http://www.w3.org/Graphics/SVG/1.1/DTD/svg11.dtd">
<svg version="1.1" xmlns="http://www.w3.org/2000/svg" xmlns:xlink="http://www.w3.org/1999/xlink" x="0px" y="0px" width="100px"
	 height="100px" viewBox="0 0 100 100" style="enable-background:new 0 0 100 100;" xml:space="preserve">
<g id="GY">
	<path d="M36.561,0c0.264-0.004,0.481,0.025,0.695,0.07c0.262,0.58,0.875,1.576,1.532,1.706c0.033-0.062,0.045-0.059,0.07-0.139
		c-0.083-0.045-0.166-0.084-0.209-0.174c-0.062-0.089-0.022-0.216,0-0.313c0.15-0.077,0.193-0.16,0.418-0.174
		c0.126,0.144,0.323,0.058,0.521,0.139c0.094,0.038,0.15,0.175,0.244,0.208c0.115,0,0.232,0,0.349,0
		c0.058,0.07,0.115,0.14,0.174,0.209c0.095,0.046,0.202-0.015,0.278,0.035c0.035,0.058,0.07,0.116,0.104,0.174
		c0.219,0.161,0.473,0.199,0.627,0.417c0.049,0.071,0.035,0.16,0.104,0.209c0.133,0.094,0.312-0.01,0.487,0.07
		c0.047,0.058,0.093,0.116,0.139,0.174c0.117,0.035,0.232,0.07,0.348,0.105c0.048,0.058,0.095,0.116,0.14,0.173
		c0.086,0.043,0.175-0.008,0.244,0.035c0.14,0.087,0.312,0.259,0.453,0.348c0.083,0.053,0.188,0.018,0.278,0.07
		c0.058,0.069,0.116,0.139,0.174,0.209c0.718,0.36,1.375,0.745,2.02,1.184c0.242,0.164,0.422,0.46,0.662,0.627
		c1.215,0.844,2.267,1.837,3.447,2.715c0.255,0.279,0.51,0.557,0.766,0.836c0.242,0.178,0.482,0.314,0.731,0.488
		c0.144,0.101,0.216,0.306,0.348,0.417c0.367,0.312,0.821,0.594,1.08,1.01c0.047,0.077-0.012,0.183,0.034,0.279
		c0.059,0.046,0.116,0.093,0.174,0.139c0.086,0.139-0.008,0.266,0.141,0.348c0.183,0.113,0.308-0.075,0.487-0.035
		c0.074,0.018,0.27,0.083,0.383,0.104c0.097,0.151,0.324,0.327,0.382,0.488c0,0.093,0,0.186,0,0.278
		c0.07,0.058,0.141,0.116,0.21,0.174c0.051,0.091,0.017,0.195,0.069,0.278c0.23,0.363,0.566,0.764,0.836,1.114
		c0.326,0.426,0.777,0.756,1.114,1.184c0.069,0.046,0.139,0.093,0.209,0.139c0,1.578,0,3.157,0,4.735c-0.013,0-0.023,0-0.035,0
		c-0.131,0.38-0.673,0.595-0.836,0.905c-0.145,0.276-0.146,0.576-0.243,0.871c-0.142,0.421-0.37,0.892-0.488,1.323
		c-0.111,0.41,0.035,0.817-0.069,1.184c-0.095,0.333-0.451,0.585-0.313,1.114c0.044,0.168,0.127,0.532,0.069,0.801
		c-0.007,0.036-0.06,0.154-0.034,0.244c0.032,0.118,0.178,0.591,0.104,0.766c-0.047,0.035-0.093,0.07-0.14,0.104
		c-0.062,0.142,0.034,0.339-0.034,0.453c-0.115,0.189-0.365,0.31-0.419,0.557c0.012,0,0.023,0,0.035,0c0,0.012,0,0.023,0,0.035
		c0.023,0,0.047,0,0.07,0c0.058-0.069,0.116-0.139,0.174-0.209c0.069,0,0.14,0,0.209,0c0.1-0.053,0.077-0.218,0.14-0.313
		c0.058-0.046,0.115-0.093,0.174-0.139c0-0.186,0-0.371,0-0.557c0.089-0.417-0.002-0.894,0-1.358
		c0.001-0.435,0.128-0.328,0.208-0.557c0-0.197,0-0.395,0-0.592c0.182-0.102,0.38-0.209,0.488-0.383
		c0.046-0.075,0.018-0.165,0.069-0.244c0.071-0.108,0.243-0.044,0.313-0.174c0.061-0.098,0.012-0.269,0.069-0.383
		c0.039-0.079,0.176-0.144,0.209-0.244c0-0.093,0-0.186,0-0.279c0.028-0.074,0.648-0.747,0.731-0.801
		c0.146-0.095,0.362-0.201,0.522-0.244c0.08,0,0.163,0,0.243,0c0.094-0.033,0.15-0.177,0.244-0.209c0.36,0,0.72,0,1.079,0
		c0.09,0.032,0.135,0.174,0.209,0.209c0.096,0.045,0.201-0.013,0.278,0.034c0.143,0.089,0.258,0.277,0.383,0.383
		c0.186,0.156,0.395,0.276,0.558,0.453c0.92-0.005,2.305,0.003,2.854,0.383c0.106,0.073,0.096,0.21,0.175,0.313
		c0.172,0.225,0.463,0.384,0.627,0.626c0.151,0.223,0.28,0.613,0.522,0.731c0.068,0,0.14,0,0.208,0
		c0.047,0.058,0.094,0.116,0.14,0.174c0.449,0.302,0.822,0.628,1.149,1.045c0.192,0.246,0.401,0.594,0.661,0.766
		c0.436,0.289,0.972,0.437,1.393,0.731c0.191,0.133,0.593,0.731,0.661,0.975c0,0.128,0,0.255,0,0.383
		c0.029,0.066,0.176,0.143,0.21,0.208c0.127,0.25,0.125,0.583,0.452,0.627c0.035-0.028,0.01-0.012,0.07-0.035
		c0.129-0.318,0.184-0.403,0.661-0.383c0.151,0.215,0.235,0.108,0.522,0.209c0.146,0.052,0.286,0.236,0.417,0.313
		c0.182,0.107,0.39,0.085,0.593,0.174c0.18,0.08,0.301,0.28,0.452,0.383c0.401,0.272,1.055,0.667,1.323,1.044
		c0.182,0.256,0.311,0.503,0.487,0.766c0.059,0.046,0.116,0.093,0.174,0.139c0,0.081,0,0.163,0,0.244
		c0.042,0.089,0.207,0.139,0.244,0.244c0,0.139,0,0.278,0,0.417c0.037,0.114,0.173,0.221,0.209,0.348c0,0.232,0,0.464,0,0.697
		c0.039,0.143,0.211,0.23,0.244,0.348c0.008,0.028-0.01,0.884-0.035,0.975c-0.035,0.125-0.173,0.21-0.209,0.313
		c0,0.186,0,0.372,0,0.557c-0.033,0.094-0.174,0.15-0.209,0.244c-0.054,0.144,0.007,0.244-0.069,0.348
		c-0.042,0.058-0.146,0.06-0.175,0.14c0,0.278,0,0.557,0,0.836c-0.037,0.248-0.137,0.62-0.069,0.939
		c0.031,0.146,0.103,0.571,0.035,0.766c-0.021,0.057-0.112,0.095-0.14,0.139c-0.129,0.209-0.146,0.423-0.278,0.627
		c-0.092,0.139-0.204,0.127-0.244,0.348c0.092,0.07,0.147,0.1,0.174,0.244c-0.157,0.195-0.234,0.465-0.382,0.662
		c-0.29,0.384-1.271,0.987-1.324,1.497c0.147,0.07,0.322,0.077,0.383,0.244c0.13,0.149,0.031,0.546,0.07,0.766
		c0.619,0.318,0.425-0.167,0.976-0.208c0.129,0.137,0.289,0.242,0.348,0.452c0,0.151,0,0.302,0,0.453
		c0.031,0.123,0.097,0.199,0.104,0.383c-0.104,0.108-0.119,0.254-0.278,0.313c-0.07,0.047-0.227,0.038-0.349,0.034
		c-0.106-0.143-0.358-0.413-0.558-0.453c-0.043,0.086-0.046,0.285-0.104,0.384c-0.102,0.172-0.288,0.353-0.384,0.522
		c-0.048,0.086-0.167,0.321-0.139,0.348c0.069,0.233,0.294,0.469,0.452,0.627c-0.021,0.061-0.006,0.034-0.034,0.069
		c-0.036,0.149-0.105,0.233-0.244,0.279c-0.154,0.097-0.456-0.022-0.661,0.035c-0.249,0.068-0.526,0.326-0.767,0.418
		c-0.12,0.046-1.009,0.061-1.184,0c-0.04-0.015-0.407-0.27-0.453-0.313c-0.239,0.064-0.615,0.239-1.009,0.139
		c-0.152-0.038-0.26-0.158-0.383-0.208c-0.149-0.061-0.442-0.113-0.558-0.139c-0.162-0.037-0.395,0.106-0.557,0.139
		c-0.065,0.113-0.18,0.153-0.244,0.244c-0.164,0.231,0.023,0.486-0.278,0.592c-0.261,0.177-0.634-0.069-0.94,0.035
		c-0.092,0.031-0.171,0.156-0.243,0.208c-0.503,0.366-1.162,0.883-1.185,1.706c0.396,0.253,0.627,0.665,0.801,1.15
		c0.06,0.165,0.286,0.385,0.174,0.73c-0.037,0.115-0.138,0.264-0.174,0.418c-0.012,0.209-0.023,0.418-0.035,0.627
		c-0.029,0.104-0.143,0.222-0.174,0.313c-0.012,0.15-0.022,0.301-0.035,0.452c-0.033,0.096-0.169,0.178-0.208,0.278
		c-0.047,0.115-0.012,0.188-0.07,0.279c-0.154,0.242-0.455,0.452-0.591,0.696c-0.012,0.08-0.023,0.162-0.035,0.244
		c-0.032,0.08-0.145,0.165-0.175,0.243c-0.023,0.162-0.046,0.325-0.069,0.487c-0.022,0.057-0.115,0.118-0.14,0.175
		c-0.022,0.173-0.046,0.348-0.069,0.522c-0.028,0.076-0.141,0.163-0.174,0.242c-0.012,0.094-0.023,0.187-0.035,0.279
		c-0.234,0.635-0.892,1.206-1.357,1.637c-0.004,0.685,0.32,1.008,0.452,1.531c0.084,0.335-0.104,0.506-0.14,0.731
		c0.249,0.267,0.353,0.626,0.662,0.835c0.536,0.363,1.145,0.573,1.497,1.115c0.232,0.357,0.535,1.067,0.661,1.497
		c0.012,0.221,0.023,0.44,0.035,0.661c0.039,0.143,0.154,0.385,0.244,0.522c0.243,0.375,0.974,0.571,1.358,0.836
		c0.224,0.154,0.263,0.501,0.417,0.731c0.209,0.15,0.418,0.302,0.627,0.452c0.068,0.107,0.357,1.093,0.278,1.322
		c-0.038,0.11-0.205,0.169-0.243,0.278c-0.094,0.268,0.026,0.6,0.174,0.662c0.316,0.186,0.425-0.286,0.801-0.208
		c0.429,0.087,0.768,0.382,1.184,0.452c0.093-0.094,0.457-0.338,0.627-0.312c0.098,0.013,0.184,0.156,0.383,0.104
		c0.103-0.027,0.194-0.141,0.279-0.175c0.127-0.012,0.255-0.023,0.383-0.033c0.166-0.047,0.409-0.229,0.696-0.14
		c0.092,0.028,0.187,0.108,0.313,0.14c0.087,0.157,0.184,0.333,0.312,0.452c0,0.196,0,0.395,0,0.591
		c-0.04,0.146-0.168,0.263-0.209,0.419c-0.012,0.196-0.023,0.395-0.034,0.592c-0.045,0.188-0.24,0.461-0.175,0.696
		c0.042,0.145,0.152,0.454,0.244,0.592c0.321,0.48,1.028,0.559,1.045,1.357c-0.113,0.115-0.304,0.662-0.244,0.802
		c0.039,0.099,0.006,0.063,0.105,0.104c0.074,0.049,0.254,0.039,0.382,0.035c0.072,0.111,0.104,0.141,0.105,0.348
		c-0.212,0.218-0.41,0.451-0.628,0.66c0.082,0.385,0.356,0.829,0.662,0.977c0.288,0.14,0.553-0.041,0.731,0.243
		c0.023,0.163,0.046,0.324,0.069,0.487c0.028,0.054,0.146,0.117,0.174,0.175c0.053,0.106,0.012,0.189,0.07,0.277
		c0.046,0.035,0.093,0.07,0.139,0.104c0.023,0.094,0.047,0.187,0.07,0.278c0.211,0.339,0.594,0.661,0.73,1.046
		c0.065,0.182-0.058,0.26,0,0.452c0.026,0.09,0.087,0.268,0.14,0.383c0.077,0.168,0.278,0.309,0.383,0.453
		c0.303,0.417,0.678,0.854,0.836,1.393c0.062,0.213-0.067,0.36-0.069,0.592c0.324,0.218,0.728,0.735,0.835,1.149
		c-0.012,0.081-0.022,0.163-0.035,0.243c0.04,0.099,0.193,0.115,0.279,0.174c0.138,0.098,0.361,0.393,0.418,0.558
		c0.119,0.347-0.102,0.845,0.034,1.149c0.116,0.259,0.469,0.399,0.627,0.627c0.308,0.438,0.619,0.802,0.975,1.183
		c0.056,0.06,0.072,0.163,0.14,0.21c0.481,0.328,0.601-0.147,1.08-0.035c0.722,0.169,1.626,0.46,1.74,1.218
		c-0.027,0.035-0.013,0.011-0.035,0.07c-0.202,0.093-0.388,0.084-0.627,0.174c-0.172,0.065-0.234,0.18-0.521,0.243
		c-0.467,0.104-0.993-0.24-1.114-0.208c-0.054,0.015-0.121,0.121-0.174,0.14c-0.218,0.071-0.862,0.028-1.08,0.035
		c-0.139,0.149-0.278,0.301-0.418,0.452c-0.152,0.082-1.147,0.06-1.323,0c-0.105-0.037-0.209-0.168-0.312-0.209
		c-0.116-0.023-0.233-0.047-0.349-0.069c-0.044-0.027-0.083-0.121-0.139-0.141c-0.286-0.096-0.36,0.166-0.628,0.104
		c-0.566-0.129-1.566-0.506-1.671-1.044c0.15-0.207-0.061-0.542-0.208-0.593c-0.233-0.16-0.503,0.007-0.662,0.105
		c-0.104,0.034-0.209,0.069-0.313,0.104c-0.328,0.218-0.718,0.904-1.357,0.662c-0.188-0.072-0.356-0.382-0.487-0.522
		c-0.14,0.012-0.279,0.023-0.419,0.035c-0.136,0.207-0.695,0.718-0.904,0.87c-0.106,0.076-0.24,0.104-0.313,0.209
		c-0.127,0.182-0.155,0.364-0.279,0.558c-0.326,0.507-0.709,1.029-1.044,1.53c-0.156,0.233-0.262,0.544-0.521,0.662
		c-0.263,0.119-0.41-0.055-0.662,0c-0.2,0.043-0.393,0.284-0.731,0.175c-0.207-0.067-0.411-0.293-0.592-0.383
		c-0.109-0.055-1.053-0.213-1.219-0.175c-0.362,0.083-0.542,0.358-0.801,0.522c-0.162,0.035-0.325,0.069-0.488,0.104
		c-0.055,0.024-0.094,0.113-0.139,0.139c-0.128,0.023-0.256,0.046-0.383,0.069c-0.08,0.031-0.168,0.148-0.244,0.175
		c-0.431,0.145-0.517-0.348-0.905-0.209c-0.21,0.076-0.244,0.728-0.209,1.044c0.036,0.33-0.104,1.064-0.418,1.185
		c-0.084,0.066-0.146,0.031-0.278,0.069c-0.878,0.259-1.563-0.475-2.02-0.975c-0.192,0.023-0.637,0.117-0.87,0.035
		c-0.075-0.027-0.114-0.137-0.174-0.175c-0.195-0.124-0.503-0.289-0.767-0.312c-0.187,0.198-0.515,0.328-0.662,0.557
		c-0.141,0.221,0.056,0.436-0.034,0.696c-0.086,0.249-0.448,0.385-0.627,0.557c-0.446,0.007-0.58-0.138-0.905-0.173
		c-0.055,0.103-0.072,0.197-0.069,0.383c0.629,0.623,0.113,2.354-0.661,2.472c-0.149-0.154-0.51-0.361-0.731-0.418
		c-0.325-0.012-0.65-0.022-0.976-0.034c-0.163-0.054-0.237-0.162-0.487-0.175c-0.093,0.104-0.186,0.209-0.278,0.314
		c-0.057,0.158,0.04,0.363-0.035,0.487c-0.24,0.396-0.794,0.73-1.427,0.73c-0.407-0.41-1.117-0.539-1.463-1.045
		c-0.132-0.192-0.228-0.573-0.453-0.662c-0.171-0.107-0.475-0.041-0.695-0.104c-0.458-0.128-1.162-0.247-1.603-0.384
		c-0.243-0.012-0.487-0.023-0.731-0.035c-0.104-0.028-0.192-0.135-0.278-0.173c-0.098-0.045-0.193-0.016-0.278-0.07
		c-0.234-0.148-0.398-0.367-0.592-0.557c0.013-0.18,0.121-0.349,0.034-0.487c-0.109-0.323-0.454-0.455-0.591-0.73
		c-0.076-0.153,0.06-0.354-0.07-0.454c-0.106-0.08-0.305,0.018-0.452-0.035c0-0.01,0-0.021,0-0.033
		c-0.105-0.047-0.784-0.519-0.836-0.594c-0.146-0.208-0.19-0.64-0.313-0.8c-0.138-0.18-0.46-0.226-0.592-0.418
		c-0.307-0.445-0.138-0.621-0.662-0.94c-0.329-0.199-0.756,0.063-1.218-0.069c-0.409-0.116-0.864-0.601-1.149-0.87
		c0.021-0.392,0.206-0.538,0.243-0.871c-0.078-0.025-0.188-0.035-0.312-0.035c-0.339,0.24-0.74-0.114-0.905-0.277
		c-0.001-0.388,0.097-0.374,0.174-0.593c0.012-0.185,0.022-0.371,0.034-0.557c0.017-0.068,0.09-0.221,0.105-0.278
		c0-0.499,0-0.998,0-1.497c0-0.65,0-1.301,0-1.949c0.044-0.166,0.121-0.362,0.14-0.593c-0.139-0.073-0.429-0.062-0.558-0.14
		c-0.345-0.209-0.549-0.615-0.871-0.835c-0.078-0.054-0.356-0.223-0.417-0.244c-0.217-0.077-0.296,0.064-0.384-0.14
		c-0.141-0.192-0.032-0.737-0.035-1.078c-0.002-0.432-0.121-0.724-0.208-1.045c-0.012-0.14-0.023-0.279-0.035-0.419
		c-0.028-0.075-0.141-0.134-0.174-0.208c-0.117-0.262-0.133-0.445-0.278-0.662c-0.131-0.192-0.36-0.359-0.418-0.627
		c-0.035-0.16,0.035-0.82,0.035-1.078c-0.001-1.073-0.021-2.087,0.174-2.926c0-0.151,0-0.301,0-0.452
		c0.073-0.321,0.075-0.683,0.209-0.975c0.134-0.298,0.523-0.601,0.661-0.94c0.012-0.104,0.023-0.209,0.034-0.314
		c0.104-0.285,0.313-0.715,0.419-1.008c0.012-0.118,0.023-0.233,0.034-0.35c0.04-0.109,0.163-0.241,0.209-0.348
		c0.043-0.101,0.017-0.193,0.069-0.279c0.323-0.52,0.964-1.045,0.801-1.914c-0.189-0.041-0.331-0.128-0.348-0.349
		c0.139-0.124,0.24-0.219,0.244-0.487c-0.209-0.228-0.298-0.557-0.522-0.767c-0.005-0.128-0.016-0.309,0.034-0.383
		c0.177-0.483,1.363-0.985,1.812-1.287c0.186-0.127,0.688-0.517,0.8-0.697c0.023-0.128,0.047-0.256,0.07-0.383
		c0.03-0.077,0.145-0.162,0.174-0.244c0.098-0.272,0.097-0.394,0.243-0.592c0.121-0.164,0.544-0.234,0.628-0.383
		c0.085-0.141,0.021-0.426,0.104-0.558c0.135-0.215,0.521-0.645,0.591-0.835c-0.011,0-0.022,0-0.034,0
		c-0.074-0.206-0.274-0.227-0.384-0.384c-0.22-0.314-0.284-0.745-0.486-1.078c-0.169-0.276-0.591-0.112-0.628-0.558
		c0.159-0.14,0.595-0.49,0.209-0.661c-0.236-0.106-0.495,0.054-0.695-0.07c-0.153-0.052-0.369-0.267-0.418-0.417
		c-0.071-0.22-0.072-1.639,0-1.846c0.066-0.19,0.294-0.516,0.452-0.627c0.116-0.082,0.149-0.027,0.209-0.174
		c-0.012,0-0.023,0-0.035,0c-0.082-0.28-0.375-0.342-0.591-0.487c-0.201-0.135-0.427-0.303-0.628-0.453
		c-0.082-0.062-0.137-0.206-0.243-0.243c-0.207-0.073-0.4,0.02-0.558-0.07c-0.19-0.108-0.341-0.306-0.592-0.348
		c-0.073,0.072-0.135,0.095-0.278,0.104c-0.128-0.124-0.514-0.407-0.73-0.418c-0.306,0.486-0.413,0.169-0.767,0.069
		c-0.243,0-0.488,0-0.73,0c-0.156-0.057-0.179-0.247-0.349-0.312c-0.129,0.242-0.192,0.327-0.593,0.312
		c-0.047-0.043-0.061-0.048-0.139-0.069c-0.233-0.348-0.273-0.354-0.244-0.905c0.123-0.096,0.189-0.3,0.313-0.384
		c0.104-0.022,0.209-0.046,0.313-0.069c0.207-0.092,0.584-0.329,0.697-0.522c0.295-0.507,0.07-1.132,0.242-1.775
		c0.172-0.635,0.46-1.242,0.628-1.881c0-0.186,0-0.372,0-0.557c0.128-0.594,0.04-1.28,0.034-1.81
		c-0.48-0.318-1.018-0.834-1.323-1.324c-0.139-0.221-0.118-0.644-0.348-0.766c-0.198-0.129-0.442,0.084-0.661,0.104
		c-0.117-0.093-0.232-0.186-0.349-0.278c-0.103-0.205,0.048-0.26-0.209-0.314c-0.186,0.148-0.417,0.18-0.627,0.314
		c-0.317,0.203-0.74,0.581-1.218,0.592c-0.108-0.12-0.192-0.201-0.419-0.208c-0.114,0.113-0.722,0.517-1.009,0.417
		c-0.076-0.026-0.135-0.148-0.209-0.174c-0.365-0.126-0.579,0.185-0.871,0.104c-0.035-0.01-0.16-0.092-0.209-0.104
		c-0.139-0.012-0.278-0.023-0.417-0.035c-0.408-0.152-0.7-0.41-1.289-0.418c-0.14,0.21-0.506,0.336-0.836,0.348
		c-0.092-0.142-0.25-0.219-0.348-0.348c-0.363-0.479-0.754-0.914-1.114-1.393c-0.081-0.07-0.162-0.14-0.243-0.209
		c-1.446-1.914-3.224-3.552-4.666-5.466c-0.494-0.655-1.121-1.196-1.603-1.88c-0.247-0.354-0.631-0.519-0.661-1.114
		c0.213-0.215,0.308-0.33,0.592-0.487c0.175-0.098,0.378-0.054,0.488-0.209c0.104-0.147,0.069-0.333,0.139-0.522
		c0.137-0.371,0.425-0.839,0.73-1.044c0.184-0.123,0.497-0.05,0.697-0.174c0.199-0.123,0.247-0.445,0.453-0.557
		c0.29-0.158,0.665-0.105,0.696-0.522c0.317-0.459-0.584-1.097-0.628-1.637c0.123-0.125,0.543-1.21,0.384-1.462
		c-0.068-0.186-0.249-0.301-0.349-0.453c-0.127-0.196-0.148-0.414-0.277-0.592c-0.076-0.105-0.236-0.172-0.279-0.313
		c0.022-0.221,0.046-0.441,0.069-0.662c0.028-0.076,0.142-0.134,0.175-0.208c0.159-0.358,0.344-1.126,0.626-1.323
		c0.335-0.233,0.824-0.092,1.114-0.383c0.15,0.071,0.436,0.234,0.731,0.14c0.12-0.039,0.207-0.236,0.417-0.174
		c0.16,0.046,0.219,0.187,0.454,0.209c0.152-0.169,0.41-0.36,0.487-0.592c0.082-0.253-0.096-0.421,0.139-0.522
		c0.238-0.148,0.456,0.159,0.627,0.208c0.383,0.012,0.766,0.023,1.148,0.035c0.15,0.055,0.381,0.3,0.488,0.418
		c0.218,0.004,0.341-0.031,0.487-0.069c0.114-0.349,0.545-0.979,0.905-1.08c0.221,0,0.441,0,0.661,0
		c0.095-0.026,0.365-0.088,0.487-0.14c0.23-0.095,0.419-0.359,0.627-0.487c0.138-0.084,0.33-0.055,0.453-0.139
		c0.475-0.324,0.231-0.529,1.044-0.522c0.064-0.102,0.096-0.101,0.105-0.278c-0.08-0.081-0.101-0.151-0.105-0.313
		c0.334-0.357,0.581-0.881,0.87-1.288c0.159-0.224,0.368-0.315,0.384-0.697c-0.238-0.226-0.351-0.303-0.766-0.383
		c-0.244-0.422-0.222-0.439-0.905-0.417c-0.068-0.104-0.163-0.158-0.244-0.244c-0.191-0.007-0.412-0.01-0.522,0.069
		c-0.263,0.091-0.455,0.4-0.627,0.592c-0.676-0.005-1.216-0.589-1.462-1.045c-0.079-0.144-0.272-0.319-0.209-0.592
		c0.067-0.288,0.355-0.486,0.453-0.731c0.133-0.337-0.135-0.487-0.209-0.696c-0.012-0.14-0.023-0.279-0.035-0.418
		c-0.06-0.17-0.269-0.596-0.418-0.696c-0.23-0.155-0.467-0.094-0.627-0.348c-0.079-0.127-0.142-0.469-0.174-0.592
		c-0.06-0.225,0.057-0.377,0.104-0.487c0.09-0.205,0.175-0.379,0.383-0.452c0.248-0.087,0.395-0.009,0.488-0.244
		c0.076-0.116,0.031-0.317,0.104-0.453c0.044-0.082,0.235-0.327,0.313-0.383c0.07-0.023,0.14-0.047,0.209-0.07
		c0.112-0.09,0.095-0.327,0.175-0.452c0.027-0.044,0.119-0.083,0.139-0.14c0-0.197,0-0.395,0-0.592
		c0.041-0.117,0.306-0.396,0.383-0.522c0.194-0.316,0.118-0.772,0.487-0.905c0.508-0.378,1.344,0.415,2.089,0.174
		c0.217-0.07,0.354-0.303,0.522-0.418c0.332-0.226,0.979-0.481,1.185-0.801c0.172-0.271,0.027-0.561,0.383-0.696
		c0.116-0.078,0.313-0.015,0.452,0c0.205-0.333,0.428-0.508,0.696-0.766c0.309,0.001,0.947,0.17,1.079,0.139
		c0.086-0.02,0.194-0.111,0.314-0.139c0.081-0.104,0.162-0.209,0.243-0.313c0.057-0.147,0.013-0.252,0.069-0.384
		c0.024-0.055,0.121-0.118,0.14-0.174c0-0.104,0-0.208,0-0.313c0.067-0.301,0.093-0.555,0.243-0.766
		c0.21-0.292,0.895-0.702,1.254-0.87c0.259-0.121,0.545,0.038,0.592-0.313c-0.438-0.535-0.826-1.047-1.219-1.636
		C36.561,0.523,36.314,0.388,36.561,0z"/>
</g>
<g id="Layer_1">
</g>
</svg>
