<?xml version="1.0" encoding="iso-8859-1"?>
<!-- Generator: Adobe Illustrator 16.0.3, SVG Export Plug-In . SVG Version: 6.00 Build 0)  -->
<!DOCTYPE svg PUBLIC "-//W3C//DTD SVG 1.1//EN" "http://www.w3.org/Graphics/SVG/1.1/DTD/svg11.dtd">
<svg version="1.1" xmlns="http://www.w3.org/2000/svg" xmlns:xlink="http://www.w3.org/1999/xlink" x="0px" y="0px" width="100px"
	 height="100px" viewBox="0 0 100 100" style="enable-background:new 0 0 100 100;" xml:space="preserve">
<g id="HN">
	<path style="fill:#010101;" d="M18.743,29.504c0.262,0.261,0.522,0.34,0.84,0.657c0.318,0.318-0.182,0.522,0.748,0.477
		c0.93-0.045,1.157,0.114,1.407-0.181c0.25-0.295,0.409-0.544,0.59-0.816c0.181-0.273,0.227-0.386,1.112-0.59
		c0.884-0.205,0.998-0.068,1.316-0.477c0.317-0.409,0.476-0.749,1.156-1.066c0.682-0.318,0.273-0.544,1.09-0.409
		c0.816,0.136,0.839,0.045,0.975-0.159c0.136-0.204,0.317-0.681,0.521-0.317c0.205,0.362,0.544,0.726,0.863,0.59
		c0.317-0.137,0.907-1.013,0.93-0.723c0.022,0.291-0.249,1.062,0.091,1.176c0.339,0.113,0.975-0.022,0.657,0.431
		c-0.318,0.454-0.884,0.318-0.386,0.93c0.5,0.613,1.293,0.567,1.021,0.295c-0.271-0.272-0.295-0.68,0.159-0.477
		c0.454,0.205,0.851,0.556,1.225,0.182s0.521-0.454,0.476-0.749s-0.09-0.59,0.363-0.386c0.454,0.204,0.477,0.295,1.339,0.499
		c0.862,0.205,1.701-0.045,1.951,0.205c0.249,0.249,1.066,0.476,1.066,0.476s1.293-0.045,1.657-0.022
		c0.362,0.022,0.318,0.181,0.907,0.272c0.59,0.091,0.817-0.091,1.021-0.295c0.204-0.204,0.159-0.454,0.771-0.431
		s1.225,0.136,1.588,0.023c0.362-0.114,0.499,0.022,1.134-0.364c0.635-0.386,0.748-0.726,0.998-0.589
		c0.25,0.136-0.159,0.681,0.68,0.499c0.84-0.181,0.5-0.726,1.18-0.476c0.681,0.25,0.863,0.454,1.838,0.408
		c0.976-0.045,1.247-0.067,1.52-0.499c0.272-0.432,0.137-0.613,0.68-0.862c0.545-0.25,0.5-0.567,1.453-0.499
		c0.952,0.067,1.859,0.681,2.496,0.182c0.634-0.5,1.066-0.771,1.564-0.568c0.499,0.205,1,0.363,1.203,0.159
		c0.204-0.204,1.451-0.386,0.227-0.567c-1.226-0.182-1.203-0.069-1.975-0.431c-0.771-0.363-1.02-0.727-1.043-0.862
		c-0.023-0.137-0.521-0.567,0.386-0.182c0.908,0.385,1.339,0.409,2.246,0.612c0.908,0.205,0.748,0.59,1.68,0.635
		c0.929,0.045,0.68,0.068,1.61,0.5c0.931,0.431,1.338,0.567,1.906,0.726c0.565,0.159,0.475,0.227,1.041,0.068
		c0.567-0.159,0.229-0.318,1.452-0.113c1.227,0.204,0.795,0.182,1.702,0.045c0.907-0.136,1.225-0.317,1.837-0.635
		c0.614-0.317,0.841-0.885,1.59-0.93c0.747-0.045,1.361-0.249,1.541,0.137c0.182,0.385,0.353,0.261,0.637,0.544
		c0.283,0.284,0.112,0.295,0.43,0.84c0.319,0.544,0.228,0.204,0.771,1.021c0.545,0.817,0.703,1.18,0.75,0.772
		c0.044-0.409-0.206-0.794,0.566-0.432c0.772,0.363,1.951-0.09,1.247-0.113c-0.703-0.023-2.608-0.635-2.019-0.771
		s1.678,0.136,2.473,0.272c0.794,0.136,1.974,0.068,2.496,0.317c0.521,0.25,1.951,1.974,2.563,2.36
		c0.611,0.386,1.576,0.828,2.041,1.293c0.466,0.465,0.816,0.658,1.635,1.384c0.816,0.726,1.497,1.452,2.131,1.792
		c0.637,0.341,1.476,0.409,0.772,0.59c-0.704,0.181-0.999-0.159-1.771-0.635c-0.771-0.477-0.771-0.658-1.747-0.908
		c-0.976-0.249-1.813-0.749-1.883-0.952c-0.067-0.205-0.386-1.316-0.453-1.135s-0.454,0.726-0.817,0.816
		c-0.362,0.091-0.271-0.204-0.453-0.658c-0.182-0.453-0.748-1.86-0.885-1.293c-0.136,0.567-0.815,1.452-0.182,1.837
		c0.636,0.386,0.953,0.34,1.066,0.976s0.566,1.225-0.022,1.316c-0.59,0.09-0.886-0.409-0.886-0.635c0-0.228,0.318-1.021-0.295-0.954
		c-0.612,0.068-0.566,0.59-0.249,0.704c0.317,0.114,0.432,0.317,0.091,0.499c-0.339,0.182-0.771,0.204-0.545,0.431
		c0.228,0.227,0.25,0.326,0.206,0.64c-0.047,0.313,0.089,0.608,0.294,0.199c0.203-0.408,0.997-0.362,0.906,0
		c-0.09,0.364-0.408,0.863,0.069,1.271c0.476,0.408,0.59,0.613,0.613,0.273c0.021-0.34,1.111-0.273,1.043,0.295
		c-0.069,0.566,0.249,0.748,0.611,0.907c0.364,0.159,0.84,0.409,1.544,0.589c0.702,0.182,0.702,0.25,0.998,0.091
		c0.295-0.159,1.089-0.026,1.36,0.088c0.273,0.116,0.703,0.207,1.158,0.139c0.454-0.068,0-0.182,0.749-0.227
		c0.747-0.045,0.748-0.137,1.156-0.091c0.409,0.046,1.112,0.114,0.589-0.181c-0.521-0.295-0.861-0.59-1.224-0.5
		c-0.364,0.091-0.659,0.182-0.863-0.022c-0.204-0.204,0.023-0.431-0.316-0.022c-0.342,0.408-0.59,0.499-0.772,0.136
		c-0.182-0.363-0.419-0.397-0.226-0.59c0.192-0.193,0.295-0.363,0.543-0.272c0.25,0.09,0.703,0.204,0.909,0.227
		c0.204,0.023,0.521,0.045,0.656,0.023c0.138-0.023,0.669-0.284,0.841-0.114c0.17,0.17,0.181,0.34,0.679,0.454
		c0.501,0.113,0.818,0.045,0.887-0.091c0.067-0.137-0.091-0.794-0.408-0.794c-0.319,0-0.342,0.091-0.728,0S91,36.582,91.318,36.355
		c0.317-0.227,0.748-0.658,0.294-0.658c-0.452,0-0.794,0.113-1.111-0.114c-0.316-0.227-0.702-0.408-0.363-0.59
		c0.342-0.181,0.159-0.431,0.681-0.294c0.523,0.136,0.342-0.091,0.999,0.408c0.657,0.499,0.499,0.613,1.247,0.794
		c0.749,0.181,1,0.067,1.884,0.408c0.885,0.34,1.314,0.703,1.474,1.021c0.158,0.317,0.907,0.885,0.93,1.452
		c0.022,0.567-0.26,0.216,0.727,1.203s1.157,0.953,1.475,1.43c0.317,0.476,0.612,0.385,0.34,0.544s-0.771,0.25-1.021,0.25
		c-0.249,0-0.227,0.067-0.838,0.091c-0.612,0.022-0.478-0.182-0.998,0.136c-0.522,0.318-0.318,0.545-0.841,0.454
		c-0.521-0.091-0.386-0.182-0.794-0.34s-0.317-0.273-0.727-0.068c-0.406,0.205-0.431,0.272-0.815,0.386
		c-0.385,0.114-0.432,0.09-0.659,0c-0.227-0.091-0.453-0.408-0.792-0.205c-0.342,0.205-0.454,0.5-0.637,0.817
		c-0.182,0.317-0.407,0.477-0.816,0.567c-0.407,0.091-0.861-0.181-0.997,0.136c-0.138,0.317-0.273,0.908-0.433,1.18
		c-0.158,0.272-0.453-0.363-0.702-0.318c-0.251,0.045-0.546,0.477-0.727,0.727c-0.181,0.249-0.432-0.023-0.612,0.431
		c-0.182,0.453-0.453,1.201-0.544,0.839c-0.091-0.363-0.749-1.792-0.749-1.021c0,0.771-0.272,1.884-0.636,1.407
		c-0.363-0.476-0.317-0.862-0.476-0.566c-0.159,0.294-0.954-0.658-1.066-0.205c-0.114,0.454-0.159,0.591-0.387,0.295
		c-0.227-0.295-0.929-0.182-0.68,0.136c0.249,0.317,0.93,0.726,0.113,0.749c-0.816,0.023-0.953-0.295-1.702-0.204
		c-0.748,0.091-0.794,0.454-0.952,0.862c-0.159,0.409-0.771,0.771-0.771,0.454c0-0.318-0.228-1.18-0.567-0.726
		S78.546,49.06,78,49.196c-0.543,0.136-0.953,0.022-1.203-0.227c-0.249-0.25-0.589-0.68-0.792-0.68c-0.204,0-0.433,0.09-0.387-0.431
		c0.045-0.522,0.183-1.77-0.137-2.224c-0.317-0.454-0.725-0.612-1.11-0.522c-0.387,0.091-0.546-0.181-0.75,0.59
		c-0.204,0.771,0.046,1.316-0.385,1.838s-0.318,1.021-0.657,0.521c-0.342-0.499-0.091-0.884-0.454-0.635
		c-0.363,0.25-0.637,0.863-0.727,1.384c-0.09,0.522-0.272,0.068-0.227,1.656c0.046,1.588,0.749,1.089,0.545,1.611
		c-0.203,0.521-0.068,0.885-0.545,1.475s0.091,0.953-0.929,1.044c-1.023,0.091-0.953,0.045-1.544,0.204
		c-0.59,0.157-0.59-0.068-0.75,0.362c-0.156,0.432-0.271,0.59-0.43,0.25c-0.158-0.34-0.476-0.658-0.702,0.045
		c-0.228,0.704-0.205,1.248-0.568,1.702c-0.362,0.453-0.204,0.339-1.156,0.704c-0.954,0.363-1.271,0.271-1.476,0.61
		c-0.204,0.342-0.227,0.704-0.316,0.908c-0.091,0.205,0.135,0.205-0.318,0.067c-0.454-0.135-0.545-0.34-0.952-0.021
		c-0.409,0.316-0.908,0.385-0.908,0.726s-0.158,0.976-0.295,0.976s-0.272-0.703-0.748-0.477c-0.478,0.228-0.433,0.318-0.637,0.023
		s-0.294-0.998-1.043-0.637c-0.749,0.364-1.69,0.264-1.86,0.092c-0.17-0.17-0.636-0.387-0.749-0.794
		c-0.113-0.408-0.227-0.998-1.089-0.885c-0.862,0.114-0.727,0.16-1.135,1.045c-0.408,0.884-1.065,1.474-1.293,1.995
		c-0.227,0.521,0.295,0.908-0.726,1.066c-1.021,0.159-1.384,0.068-2.586,0.181c-1.203,0.114-1.338,0.205-2.927,0.227
		c-1.587,0.023-1.418-0.577-2.087,0.092s-0.794,0.862-0.771,1.338c0.022,0.477-0.137,1.725-0.137,1.997s-0.204,1.089-0.204,1.928
		c0,0.841,0.137,1.726,0.091,2.292c-0.045,0.566,0.022,0.998-0.091,1.43c-0.113,0.431,0.159,0.294-0.363,0.703
		c-0.521,0.408-0.862,0.545-1.226,1.18c-0.362,0.636-0.227,0.704-0.499,1.134c-0.272,0.432-0.386,0.295-0.772,0.681
		c-0.386,0.387-0.317,0.567-0.454,0.364c-0.136-0.204,0.228-0.885-0.476-0.613c-0.703,0.271-0.454,0.499-1.293,0.318
		c-0.839-0.183-0.908-0.499-1.384-0.229c-0.477,0.272-0.499,0.454-1.226,0.523c-0.725,0.066-0.998,0.203-1.248-0.183
		c-0.249-0.385-0.136-0.567-0.249-0.681c-0.114-0.113-0.114-0.273,0.454-0.432s0.748-0.566,0.022-0.59
		c-0.726-0.022-1.542,0.658-1.542,0.318c0-0.341,0.158-0.454,0.295-0.727c0.136-0.272-0.069-0.204-0.318-0.703
		c-0.25-0.498-0.59-0.815-0.726-0.953c-0.136-0.137-0.659-1.021-0.25-0.93c0.409,0.091,1.362,0.294,1.089-0.159
		c-0.272-0.453-0.454-0.407-0.113-0.816c0.34-0.407,0.885-0.885,0.658-1.111c-0.227-0.228-0.646,0.033-0.794,0.18
		c-0.147,0.148-0.658,0.07-0.771,0.183c-0.114,0.113-0.182,0.228-0.227,0.612c-0.046,0.386-0.182,0.681-0.386,0.408
		c-0.204-0.271-0.26-0.465-0.431-0.294c-0.169,0.17-0.499,0.09-0.499,0.408s0.023,0.612-0.34,0.431
		c-0.363-0.182-0.885-0.567-0.544-0.726c0.34-0.159,0.658-0.068,0.727-0.386c0.067-0.317,0.057-0.533,0-0.59
		c-0.057-0.057-0.228-0.408-0.727-0.318c-0.499,0.092-1.066,0.387-1.112,0.545c-0.045,0.16-0.045,0.227-0.045,0.386
		c0,0.16-0.317-0.113-0.091,0.34c0.227,0.454-0.205,0.659-0.749,0.183c-0.545-0.477-0.658-0.408-0.886-0.816
		c-0.227-0.409-0.635-0.386-0.317-1.135c0.317-0.748,0.181-1.157,0.657-1.247c0.477-0.091,1.611-0.205,0.545-0.908
		c-1.067-0.703-0.931,0.862-0.931-1.18s0.114-3.607-0.182-4.016c-0.295-0.407-0.476-0.363-1.066-0.862s-0.771-0.612-1.067-0.612
		c-0.294,0-0.543,0.16-0.589-0.386c-0.046-0.544,0.25-0.681-0.476-0.681c-0.727,0-1.362-0.044-1.884,0.112
		c-0.521,0.16-0.521-0.226-0.998,0.318c-0.476,0.545-0.544,0.796-1.338,0.999c-0.794,0.204-0.885,0.227-1.611,0.249
		c-0.726,0.023-1.566,0.046-1.634-0.022c-0.068-0.067-0.726-0.521-0.817-0.931c-0.09-0.408-0.317-1.065-0.726-1.089
		c-0.409-0.022-0.385-0.5-1.112-0.022c-0.726,0.477-1.066,1.044-1.542,0.477s-0.114-0.612-0.862-1.157s-0.998-0.454-1.157-0.93
		c-0.158-0.477,0.046-1.113-0.567-1.271c-0.612-0.159,0.477,0.068-2.087-0.341c-2.563-0.408-2.926-0.59-3.108-0.929
		c-0.181-0.342-0.386-0.728-0.386-0.932s0.59-0.521-0.612-0.68c-1.202-0.159-1.135-0.114-1.565-0.25
		c-0.431-0.137-0.5,0.181-0.749-0.341c-0.25-0.521-0.204-0.749,0.091-0.862c0.294-0.113,0.113,0.113,0.749-0.362
		c0.635-0.477,0.408-1.044,0.658-1.157c0.249-0.113,0.34-0.068,0.748-0.091c0.409-0.022,0.704,0.045,0.885-0.387
		c0.182-0.431,0.068-0.521,0.25-0.975c0.182-0.454,0.454-0.363,0.136-0.885c-0.317-0.521-0.612-0.521-0.612-1.157
		s-0.113-0.998-0.159-1.679c-0.045-0.681-0.022-0.408,0.136-1.271c0.159-0.862-0.067-0.432,0.159-1.112
		c0.227-0.68,0.204-0.771,0.476-1.134c0.273-0.363,1.089-0.862,1.634-0.999c0.545-0.136,0.93,0.137,1.656-0.363
		c0.726-0.5,0.068-0.522,1.157-1.112c1.089-0.59,0.182-0.385,1.543-0.975c1.36-0.59,1.383-0.862,1.814-1.021
		c0.432-0.16,0.953-0.363,1.316-0.545c0.363-0.181,0.454-0.363,1.18-0.862c0.726-0.499,0.726-0.59,1.066-0.862
		c0.341-0.272,0.941-0.76,1.043-0.862c0.103-0.103,0.59-1.271,0.954-1.747c0.362-0.477,0.884-0.726,0.998-1.066
		C18.152,30.094,18.54,29.413,18.743,29.504z"/>
</g>
<g id="Layer_1">
</g>
</svg>
