<?xml version="1.0" encoding="iso-8859-1"?>
<!-- Generator: Adobe Illustrator 16.0.3, SVG Export Plug-In . SVG Version: 6.00 Build 0)  -->
<!DOCTYPE svg PUBLIC "-//W3C//DTD SVG 1.1//EN" "http://www.w3.org/Graphics/SVG/1.1/DTD/svg11.dtd">
<svg version="1.1" xmlns="http://www.w3.org/2000/svg" xmlns:xlink="http://www.w3.org/1999/xlink" x="0px" y="0px" width="100px"
	 height="100px" viewBox="0 0 100 100" style="enable-background:new 0 0 100 100;" xml:space="preserve">
<g id="ID">
	<path style="fill-rule:evenodd;clip-rule:evenodd;fill:#010101;" d="M0.56,31.8c0.174,0.224,0.183,0.095,0,0.319
		c0.027-0.053,0.054-0.106,0.08-0.16C0.499,31.851,0.543,31.978,0.56,31.8z M0,32.119c0.08,0,0.16,0,0.24,0c0,0.027,0,0.053,0,0.08
		C-0.01,32.156,0.168,32.308,0,32.119z M0.24,32.199c0.026,0.053,0.053,0.106,0.08,0.16c-0.054,0-0.107,0-0.16,0
		C0.187,32.306,0.213,32.252,0.24,32.199z M0.8,32.279c0.107,0.027,0.214,0.053,0.32,0.08c0.309,0.062,0.207,0.007,0.4,0.16
		c0.743,0.587,2.33,1.096,3.443,0.718c0.163-0.056,0.257,0.07,0.16-0.08c0.77,0.257,1.943,1.783,1.761,2.315
		c0.939,0.91,2.679,1.31,3.363,2.235c0.331,0.449,0.42,0.966,0.721,1.038c0.074,0.031,0.099,0.001,0.08,0
		c0.721,0.285,0.245,0.822,0.881,1.038c0.293,0.16,0.587,0.319,0.881,0.479c-0.027-0.08-0.054-0.16-0.08-0.239
		c-0.198-0.099-0.142-0.084-0.24-0.399c0.08-0.026,0.16-0.053,0.24-0.08c0.106,0,0.213,0,0.32,0
		c0.007,0.132,0.546,0.983,0.801,1.038c0-0.16,0-0.319,0-0.479c0.213-0.026,0.427-0.053,0.64-0.08
		c0.023,0.225-0.042,0.059,0.16,0.16c-0.106,0.213-0.213,0.426-0.32,0.639c0.32,0.239,0.641,0.479,0.961,0.718c0.08,0,0.16,0,0.24,0
		c0-0.027,0-0.053,0-0.08c-0.107-0.08-0.213-0.16-0.32-0.239c0.213-0.027,0.427-0.053,0.641-0.08
		c0.126,0.194,0.126,0.034,0.32,0.239c-0.027,0.027-0.054,0.053-0.08,0.08c-0.006,0.203-0.333,1.476-0.08,1.277
		c0.404,0.521,0.919,0.146,1.281,0.718c-0.133,0.187-0.267,0.373-0.4,0.559c0.594-0.125,0.63-0.28,0.881-0.718
		c0.289,0.166,0.932,0.418,0.881,0.559c0.212,0.154,0.379,0.512,0.32,0.798c-0.345,0.017-0.387,0.021-0.561,0.16
		c0.047,0.106,0.028,0.234,0.16,0.399c0.049-0.004,0.279-0.064,0.24,0.24c-0.452,0.07-0.458,0.252-0.801,0.638
		c0.053,0.08,0.107,0.16,0.16,0.24c0.267,0.133,0.534,0.266,0.801,0.399c0.485,0.09,0.695,0.181,1.361,0.08
		c-0.088,1.645,0.215,1.771,1.041,2.395c-0.179,0.222-0.298,0.37-0.32,0.718c0.027,0,0.053,0,0.08,0
		c0.551-0.389,1.132,0.055,1.841-0.159c-0.025,0.65,0.606,1.214,0.881,1.677c-0.053,0.133-0.107,0.266-0.16,0.398
		c-0.221-0.008-0.159,0.641-0.24,0.958c0.208,0.034,0.044-0.078,0.24,0.079c-0.254,0.947,0.229,3.008-0.4,4.391
		c-0.106,0-0.213,0-0.32,0c-0.005-0.148-0.237-0.445-0.561-0.479c-0.426-0.023-0.335,0.142-0.64,0.319
		c-0.231-0.405-0.604-0.337-1.041-0.56c-0.026,0.027-0.053,0.054-0.08,0.08c0.107,0.293,0.213,0.586,0.32,0.879
		c-0.08,0-0.16,0-0.24,0c-1.004-2.053-3.377-2.967-4.483-3.832c-0.336-0.264-0.762-1.289-0.801-1.277c-0.027,0-0.053,0-0.08,0
		c-0.191-0.365-2.291-1.979-2.402-2.155c0-0.399,0-0.798,0-1.197c-0.582-1.032-1.478-2.169-1.761-2.874
		c0.026-0.053,0.053-0.106,0.08-0.16l-2.482-2.155c-0.572-1.308-0.432-2.742-1.041-3.353c-0.604-0.606-1.839-0.63-2.002-1.118
		c-0.249-0.233,0.03-0.676-0.08-0.798c-0.685-0.029-1.495-1.809-1.841-2.155c-0.267,0-0.534,0-0.801,0
		c-0.948-1.582-2.602-1.858-2.802-3.911c0.063-0.013,0.16,0,0.08-0.08C0.714,32.417,0.556,32.529,0.8,32.279z M68.935,34.674
		c0.293,0.202,0.33,0.604,0.16,0.958c-0.053-0.027-0.106-0.054-0.16-0.08C68.813,35.093,68.799,35.078,68.935,34.674z
		 M46.037,35.073c1.089,0.172,2.363-0.012,2.802,0.559c-0.08-0.027-0.16-0.054-0.24-0.08c0.106,0.106,0.214,0.213,0.32,0.319
		c0.211-0.188,0.357-0.303,0.24-0.559c0.106,0,0.213,0,0.32,0c0.011,0.295,0.143-0.02,0.24,0.399
		c-0.054,0.053-0.107,0.106-0.16,0.16c-0.066-0.146-0.036-0.05-0.16,0c-0.277,0.204-0.12,0.068-0.24,0.399
		c0.276,0.022,0.271,0.138,0.16,0.319c-0.077,0.197,0.028,0.116-0.4,0.16c-0.055-0.135-0.388-0.112-0.801-0.08
		c0.106,0.08,0.214,0.16,0.32,0.239c0.323,0.033,0.51,0.172,0.801,0.319c-0.096,0.178-0.088,0.199-0.24,0.319
		c-0.038-0.204-0.026-0.195-0.24-0.399c-0.323,0.237-0.228,0.185-0.32,0.559c0.357-0.047,0.38,0.057,0.721,0.319
		c-0.028,0.363,0.46,1.541,0.641,1.676c0.034,0.107-0.172,0.656-0.16,0.878c0.706,0.365,1.989,1.281,2.241,1.756
		c0.189,0.383-0.074,0.348-0.239,0.399c0.026,0.053,0.053,0.106,0.08,0.16c-0.769-0.129-1.166-0.353-2.082-0.639
		c0.106,0.187,0.213,0.373,0.32,0.559c-0.027,0.026-0.054,0.053-0.08,0.08c-0.307-0.091-0.126-0.157-0.4,0
		c-0.915,0.675-0.877,2.338-0.48,3.512c-0.507,0.002-0.364-0.003-0.721,0c-0.447,0.777-2.434,1.967-1.842,2.794
		c0.054,0.08,0.107,0.16,0.16,0.239c0.04-0.002,0.067-0.07,0.24,0.16c-0.325,0.622-0.892,1.565-0.88,1.916
		c0.02,0.126,0.128,0.501,0.399,0.639c0.049-0.235-0.083-0.085,0.16-0.239c-0.026,0.186-0.053,0.372-0.08,0.559
		c-0.334-0.041-0.129-0.143-0.32,0.16c0.159,0.114,0.052-0.008,0.08,0.398c-0.187,0.106-0.373,0.213-0.56,0.319
		c0.05-0.479,0.102-0.751-0.16-1.118c-0.631,0.512-1.932,1.21-2.883,1.438c0.027-0.053,0.054-0.106,0.08-0.16
		c-0.281-0.21-0.39-1.146-0.32-1.356c-0.524-0.064-1.131,0.3-2.001-0.08c0.027-0.213,0.053-0.426,0.08-0.638
		c-0.461,0.139-0.307,0.193-0.721,0.238c-0.026-0.326-0.116-0.261-0.4-0.639c-0.227,0.09-0.116,0.07-0.32,0.08
		c-0.069,0.539-0.564,0.562-0.72,0.879c-0.355-0.078-0.805-0.324-1.041-0.08c-0.234,0.041-0.393,0.197-0.801,0.318
		c0.028-0.854,0.118-1.189-0.32-1.437c-0.215,0.326-1.16,0.148-1.441,0.56c-0.582-0.16-0.569-0.244-1.281-0.56
		c-0.148,0.301-0.222,0.083-0.16,0.319c-0.08-0.053-0.16-0.106-0.24-0.159c-0.107-0.772-0.214-1.543-0.32-2.315
		c-0.253-0.007-0.314-0.336-0.08-0.24c-0.027-0.053-0.053-0.106-0.08-0.16c0.128-0.24,0.138-0.608,0.08-0.958
		c-0.197,0.002-0.333-0.251-0.561-0.399c-0.284,0.294-0.596,0.431-0.561,0.559c-0.08-0.027-0.16-0.053-0.24-0.08
		c0-0.16,0-0.319,0-0.479c0.291-0.366,0.304-0.062,0.24-0.479c-0.16,0-0.32,0-0.48,0c0.034-0.28-0.018-0.26,0.08-0.559
		c-0.446,0.049-0.121-0.057-0.56-0.24c0.169-0.573,0.188-0.635,0.4-0.958c-0.147-0.052-0.42-0.37-0.32-0.719c-0.16,0-0.32,0-0.48,0
		c-0.05-2.146,0.631-2.524,1.201-3.751c0.027,0.053,0.053,0.106,0.08,0.16c0.883,1.134,1.556,1.549,2.242,2.395
		c0.701-0.214,3.016-0.804,3.603-0.798c0-0.186,0-0.373,0-0.559c1.574-0.159,1.829,0.261,3.363,0.479
		c0.185-0.217,1.921-0.718,1.921-0.718c0.022-0.017,0.796-1.115,0.48-1.517c0.29-0.382,0.462-0.092,0.801-0.559
		c-0.107-0.106-0.214-0.213-0.32-0.319c0.177-0.082,0.308-0.61,0.32-0.718c0.233,0.018,0.642,0.163,0.48-0.16
		c0.755-0.506,0.178-1.709,0.641-2.315C45.178,35.055,45.59,35.404,46.037,35.073z M69.255,35.232
		c0.027,0.053,0.054,0.106,0.08,0.16C69.309,35.339,69.282,35.286,69.255,35.232z M28.583,35.392c0.2,0.18,0.146,0.535,0.48,0.479
		c-0.104,0.478-0.083,0.697-0.641,0.798c0.093-0.572-0.161-0.21-0.24-0.878C28.493,35.604,28.441,35.594,28.583,35.392z
		 M68.854,35.552c0.129,0.158,0.104,0.111,0.16,0.399c-0.106-0.053-0.213-0.106-0.32-0.16
		C68.933,35.637,68.696,35.771,68.854,35.552z M66.613,36.43c0.235,0.117,0.522,0.547,0.4,0.798c-0.107-0.08-0.214-0.16-0.32-0.24
		C66.667,36.802,66.64,36.616,66.613,36.43z M66.453,36.51c0.026,0.053,0.053,0.106,0.08,0.16
		C66.506,36.616,66.479,36.563,66.453,36.51z M49.479,36.829c0.053,0,0.106,0,0.16,0C49.586,36.829,49.532,36.829,49.479,36.829z
		 M24.339,37.388c0.08,0,0.16,0,0.24,0C24.367,37.499,24.529,37.535,24.339,37.388z M23.058,37.867c0.054,0,0.107,0,0.16,0
		C23.165,37.867,23.112,37.867,23.058,37.867z M23.218,37.946c0.221,0.107,0.023,0.051,0.24,0.08c-0.08,0.16-0.16,0.319-0.24,0.479
		c-0.026,0-0.053,0-0.08,0C23.165,38.319,23.192,38.133,23.218,37.946z M29.944,38.026c0.053,0,0.106,0,0.16,0
		C30.05,38.026,29.997,38.026,29.944,38.026z M1.601,38.186c0.61,0.172,0.684,0.864,1.441,0.878c-0.026,0.16-0.053,0.319-0.08,0.479
		c-0.531-0.409-0.744-0.633-1.441-0.798C1.548,38.559,1.574,38.372,1.601,38.186z M29.864,38.186c0.08,0,0.16,0,0.24,0
		c-0.08,0.08-0.16,0.16-0.24,0.239C29.864,38.346,29.864,38.266,29.864,38.186z M66.133,38.505c-0.018,0.117,0.033,0.08-0.08,0.239
		c-0.026-0.053-0.054-0.106-0.08-0.16C66.026,38.559,66.079,38.532,66.133,38.505z M72.538,38.984
		c0.187,0.053,0.373,0.106,0.561,0.159c-0.107,0.346-0.214,0.692-0.32,1.038c-0.214-0.027-0.428-0.053-0.641-0.08
		c0-0.026,0-0.053,0-0.08C72.249,39.571,72.346,39.244,72.538,38.984z M71.817,39.463c0.054,0.053,0.106,0.106,0.16,0.159
		c-0.027,0.027-0.054,0.053-0.08,0.08C71.871,39.623,71.844,39.543,71.817,39.463z M4.483,39.703c0.16,0.027,0.32,0.053,0.48,0.08
		c-0.027,0.133-0.054,0.266-0.08,0.399C4.75,40.022,4.617,39.862,4.483,39.703z M71.177,39.703c0.026,0.053,0.054,0.106,0.08,0.16
		C71.23,39.809,71.203,39.756,71.177,39.703z M71.417,39.782c0.106,0.053,0.214,0.106,0.32,0.16c-0.16,0.133-0.32,0.266-0.48,0.399
		c0.241,0.452,0.449,0.494,0.48,1.197c-0.358,0.477-0.369,0.589-0.961,0.878c0.026,0.08,0.054,0.16,0.08,0.24
		c0.373,0.135,0.225,0.14,0.641,0.16c0.037-0.771,0.823-1.562,1.681-1.676c-0.035,0.443-0.089,0.897-0.159,1.277
		c-0.395,0.043-0.626,0.114-0.881,0.479c0,0.08,0,0.16,0,0.24c0.399,0.019,0.983,0.08,0.881,0.639
		c0.011,0.168,0.04,0.028-0.08,0.159c-0.162-0.204-0.941-0.427-1.521-0.319c0.309,1.398,0.08,1.781,0.961,2.794
		c-0.08,0.027-0.16,0.053-0.24,0.08c0-0.053,0-0.106,0-0.16c-0.833-0.261-0.744-0.877-1.281-1.197
		c0.037-0.929-0.001-2.634-0.561-2.794C70.398,41.763,71.417,39.782,71.417,39.782z M71.017,39.862c0.054,0,0.106,0,0.16,0
		C71.123,39.862,71.07,39.862,71.017,39.862z M64.932,40.9c0.424,0.028,0.452-0.013,0.721,0.24c0,0.053,0,0.106,0,0.159
		c-0.771,0.834-1.219,1.844-2.242,2.555c-0.523,0.364-5.117-0.574-6.164-0.24c-0.794,0.253-1.735-0.495-2.002-0.08
		c-1.372,0.252-0.896,2.288-0.48,3.113c0.214,0.026,0.427,0.053,0.641,0.08c0.106,0.292,0.214,0.585,0.32,0.878
		c0.171-0.007,1.041,0.183,0.881-0.159c0.021-0.012,0.771-0.721,0.641-0.798c0.311-0.173,2.712-0.535,3.282-0.319
		c0-0.106,0-0.213,0-0.319c-0.215-0.039-0.066,0.07-0.24-0.16c0.653,0.017,0.675-0.009,1.041-0.08c0.16,0.187,0.32,0.373,0.48,0.559
		c-0.134,0.186-0.268,0.373-0.4,0.559c-0.214-0.16-0.428-0.319-0.641-0.479c-0.09,0.198-2.979,2.507-2.962,2.874
		c0.675,0.318,0.839,1.787,1.44,1.516c-0.026,0.187-0.054,0.373-0.08,0.56c0.343-0.045,0.253-0.129,0.4,0.239
		c-0.392,0.075-0.28,0.456-0.561,0.638c0.171,0.364,0.688,0.771,1.041,1.277c0.16,0,0.32,0,0.48,0c0,0.027,0,0.054,0,0.08
		c0,0.16,0,0.319,0,0.479c-0.58,0.005-1.622,0.271-1.922,0.479c0.054,0.187,0.107,0.372,0.16,0.559
		c-1.53,0.091-1.723-1.346-0.881-1.517c-0.658-0.669-1.201-0.797-1.841-1.437c0.433-0.454,0.61-1.015,0.48-1.676
		c-0.268-0.08-0.534-0.16-0.801-0.24c-0.568,0.567-0.79,0.518-1.041,0.878c1.178,0.696-0.369,4.406,0.48,5.508
		c-0.395,0.006-1.361,0.24-1.361,0.24c-0.42,0.084-0.762-0.086-0.88-0.399c-0.256-0.192,0.015-0.253,0-0.319
		c-0.14-0.605,0.267-1.439,0.479-1.916c-0.151-1.055-0.234-1.059-0.561-1.996c-0.466,0.148-0.43,0.188-0.961,0.16
		c0.003-0.443-0.32-1.191-0.32-2.075c0.323-0.006,0.324-0.018,0.721-0.24c0.018-1.415,0.569-3.07,1.361-4.071
		c0.403-0.51,0.062-1.913,0.48-2.555c0.32-0.08,0.04,0.024,0.24-0.239c-0.031-0.073-0.001-0.098,0-0.08
		c0.038-0.17,0.374-0.48,0.721-0.719c-0.026,0.16-0.054,0.319-0.08,0.479c0.284-0.083,0.614,0.062,0.48-0.239
		c0.644-0.284,0.311-0.357,0.561-0.958c0.58,0.167,0.89,0.23,1.36,0c-0.026,0.186-0.053,0.373-0.08,0.559
		C60.402,42.275,63.229,43.71,64.932,40.9z M15.052,41.06c0.053,0,0.107,0,0.16,0C15.072,41.138,15.194,41.132,15.052,41.06z
		 M4.964,41.299c0.567,0.184,0.926,0.742,1.281,1.118c-0.003,0.473-0.056,0.653-0.24,0.798c0,0.053,0,0.106,0,0.16
		c-0.368-0.109-1.427-1.822-1.361-1.916C4.932,41.469,4.897,41.401,4.964,41.299z M15.372,41.698c0.08,0.266,0.16,0.532,0.24,0.798
		c0.053-0.08,0.107-0.16,0.16-0.24C15.63,41.879,15.685,41.793,15.372,41.698z M20.656,41.858c0.3,0.411,0.277,0.713,0,0.958
		c-0.247-0.639-0.391-0.244-0.641-0.479C20.214,42.024,20.425,42.091,20.656,41.858z M19.696,41.938
		c0.026,0.106,0.053,0.213,0.08,0.319c-0.244,0.155-0.084,0.026-0.16,0.24c-0.107-0.106-0.214-0.213-0.32-0.319
		C19.429,42.097,19.562,42.018,19.696,41.938z M16.893,42.018c0.054,0,0.107,0,0.16,0c0.015,0.087,0.462,0.452,0.4,0.479
		c-0.08,0.186-0.16,0.373-0.24,0.559c-0.189-0.15-0.614-0.412-1.121-0.239c-0.027-0.053-0.054-0.106-0.08-0.16
		c0.163-0.23,0.123-0.166,0.16-0.399C16.548,42.271,16.614,42.263,16.893,42.018z M18.014,42.097c0.053,0,0.107,0,0.16,0
		c-0.053,0.053-0.107,0.106-0.16,0.16C18.014,42.204,18.014,42.15,18.014,42.097z M19.696,42.497c0.237,0.154,0.001,0.02,0.16,0.239
		C19.692,42.592,19.799,42.735,19.696,42.497z M18.014,42.656c0.273,0.187,0.271,0.178,0.32,0.399
		c-0.027-0.026-0.053-0.053-0.08-0.08C17.985,42.902,18.08,43.05,18.014,42.656z M19.855,42.736c0.027,0.053,0.054,0.106,0.08,0.16
		c-0.053,0-0.106,0-0.16,0C19.802,42.842,19.829,42.789,19.855,42.736z M73.258,43.933c0.054,0.053,0.107,0.106,0.161,0.16
		c-0.08,0-0.161,0-0.241,0C73.205,44.04,73.231,43.986,73.258,43.933z M70.376,44.333c0.128,0.158,0.104,0.111,0.16,0.399
		c-0.026,0-0.054,0-0.08,0c0-0.053,0-0.106,0-0.16C70.429,44.492,70.403,44.412,70.376,44.333z M20.656,44.492
		c0.52,0.318,0.36,0.351,0.881,0.559c0,0.08,0,0.16,0,0.24c-0.404-0.181-0.601-0.185-1.121-0.24
		C20.496,44.865,20.576,44.678,20.656,44.492z M74.459,44.492c0.054,0,0.107,0,0.16,0C74.566,44.492,74.513,44.492,74.459,44.492z
		 M53.643,44.572c0.16,0.24,0.106,0.13-0.16,0.24C53.536,44.731,53.59,44.652,53.643,44.572z M77.662,44.572
		c0.659,0.091,1.089,0.073,1.201,0.719c-0.638-0.005-0.692,0.136-1.361,0.319c-0.13-0.469-0.473-0.216-0.881-0.638
		c0.106,0,0.214,0,0.32,0C77.044,44.574,77.188,44.853,77.662,44.572z M74.779,44.731c0.027,0.053,0.054,0.106,0.08,0.16
		C74.833,44.838,74.807,44.785,74.779,44.731z M7.286,44.812c0.256,0.136,0.177,0.148,0.32,0.479
		c-0.197,0.156-0.033,0.045-0.24,0.08c-0.123,0.103-0.001,0.018-0.16,0c0.146-0.295,0.183-0.113,0.08-0.319
		C7.286,44.971,7.286,44.891,7.286,44.812z M74.859,44.891c0.054,0.053,0.107,0.106,0.16,0.16c-0.08,0-0.16,0-0.24,0
		C74.807,44.998,74.833,44.944,74.859,44.891z M69.735,45.051c0.36,0.212,0.179,0.346,0.48,0.479c0.084-0.167,0.235-0.303,0.48-0.08
		c0.08,0.08,0.16,0.159,0.24,0.239c-0.321,0.16-0.095,0.088-0.24,0.319c0.498,0.131,0.385-0.027,0.721,0.239
		c-0.054,0.08-0.106,0.16-0.16,0.24c-0.765-0.345-0.817-0.479-1.602-0.798C69.683,45.477,69.709,45.264,69.735,45.051z
		 M77.102,45.291c0.053,0.053,0.106,0.106,0.16,0.16C77.208,45.397,77.154,45.343,77.102,45.291z M81.024,45.291
		c1.259-0.021,2.507,0.656,3.843,1.197c0.007,0.464-0.033,0.674,0.4,0.878c-0.239,0.712,0.035,1.747-0.239,2.475
		c0.328,0.052,0.538,0.294,0.479,0.718c0.117-0.142,0.169-0.354,0.24-0.559c0.107,0,0.214,0,0.32,0
		c0.026,0.027,0.054,0.053,0.08,0.08c-0.027,0.821,0.256,1.5,0.801,1.676c0.124,0.119,0.839,0.13,1.041,0.16
		c0.218-0.393,2.002-2.395,2.002-2.395c0.011-0.073,1.584-0.37,1.761-0.559c-0.246-0.151-0.095-0.425-0.16-0.639
		c0.802-0.058,0.692-0.381,1.521-0.559c0.457,0.807,5.365,1.943,6.806,2.475c0,2.741,0,5.481,0,8.222
		c-0.129,0.364-0.471,0.134-0.32,0.799c0.134,0.133,0.267,0.266,0.4,0.399c-0.054,1.596-0.107,3.192-0.16,4.789
		c0-0.08,0-0.159,0-0.239c-0.483-0.123-2.162-2.075-2.162-2.075c-0.657,0.146-1.04,0.193-1.441,0.239
		c-0.072-0.312-0.131,0.006-0.079-0.319c-0.446,0.125-0.818,0.212-0.801,0.718c-0.373-0.003-2.721-0.012-2.803-0.159
		c1.008-0.538,0.47-2.47,2.803-1.836c0-0.026,0-0.053,0-0.08c-0.107-0.186-0.214-0.372-0.32-0.559
		c0.102-0.049,0.161-0.002,0.08-0.08c-0.12-0.196-0.095-0.072-0.32-0.239c-0.088-0.518-0.199-0.62,0.08-0.958
		c-0.563-0.675-1.16-2.399-1.682-2.634c0,0-0.673-0.232-0.32-0.319c-1.136-0.822-2.693-0.929-4.003-1.597
		c-0.494-0.252-1.231,0.15-1.602,0c-0.499-0.203-0.804-0.596-1.201-1.037c-0.053,0.025-0.106,0.053-0.16,0.079
		c-0.146,0.135-1.54-0.792-1.682-0.878c-0.095,0.199,0.052,0.078-0.159,0.16c-0.054-0.16-0.107-0.32-0.16-0.479
		c-0.305,0.181-0.272,0.157-0.32,0.399c-0.254,0.166-0.277,0.563-0.48,0.878c-0.495,0.001-0.559,0.052-0.721-0.08
		c-0.38-0.214-0.194-0.347-0.48-0.798c0.246-0.101,0.324-0.146,0.48-0.16c-0.136-0.308-0.963-1.349-1.201-1.277
		c-0.154-0.156-0.577-0.111-0.881-0.239c0.027-0.08,0.054-0.16,0.08-0.239c0.08-0.08,0.16-0.16,0.24-0.239
		c0.337,0.028,1.307,0.359,1.361,0.319c0.378-0.276,0.272-0.736,0.881-0.718c0.168-0.27,0.474,0.177,0.641,0.239
		c0.174-0.163,0.304-0.131,0.561-0.08c0.141-0.306,0.022-0.232,0.4-0.319c-0.032-0.109-0.287-0.677,0-0.399c0-0.08,0-0.159,0-0.239
		c-0.901,0.145-2.909,0.032-3.604,0.319l-0.881-1.597c-1.57,0.162-1.843-0.672-3.042-1.437c0.267-0.08,0.534-0.16,0.801-0.24
		c0.112,0.476,0.157,0.269,0.561,0.479c-0.026,0.187-0.054,0.373-0.08,0.559c0.26-0.058,0.444,0.044,0.32-0.16
		c0.438-0.251,0.166-0.674,0.56-0.798C79.426,45.846,80.865,45.835,81.024,45.291z M20.096,45.37
		c0.213,0.027,0.427,0.053,0.641,0.08c0,0.08,0,0.159,0,0.239c-0.237,0.154-0.001,0.021-0.16,0.24
		c-0.384-0.139-0.019-0.066-0.4,0.08C20.149,45.796,20.123,45.583,20.096,45.37z M69.896,45.849c0.054,0.053,0.107,0.106,0.16,0.16
		C70.003,45.956,69.949,45.902,69.896,45.849z M69.815,45.929c0.106,0.106,0.214,0.212,0.32,0.319c0,0.027,0,0.053,0,0.08
		c-0.106,0-0.214,0-0.32,0C69.815,46.195,69.815,46.062,69.815,45.929z M87.75,45.929c1.036,0.197,1.347,0.396,2.082,1.038
		c-0.054,0-0.107,0-0.16,0c-0.054,0.106-0.107,0.213-0.16,0.319c-0.522-0.051-0.747-0.152-0.801-0.479
		c-0.288-0.175-0.157-0.232-0.4-0.399c0.026,0.053,0.054,0.106,0.08,0.16C88.049,46.416,87.808,46.132,87.75,45.929z M30.824,46.088
		c0.027,0.053,0.054,0.106,0.08,0.16C30.878,46.195,30.851,46.142,30.824,46.088z M69.735,46.088c0.026,0.053,0.054,0.106,0.08,0.16
		C69.789,46.195,69.762,46.142,69.735,46.088z M48.999,46.168c0.026,0.053,0.054,0.106,0.08,0.16
		C49.053,46.275,49.025,46.222,48.999,46.168z M72.378,46.408c-0.057,0.076,0.013,0.125-0.16,0.08
		C72.271,46.461,72.324,46.435,72.378,46.408z M78.223,46.488c0.026,0.053,0.054,0.106,0.08,0.16
		C78.276,46.594,78.249,46.541,78.223,46.488z M8.006,46.567c0.16,0,0.32,0,0.48,0c0.051,0.636,0.715,1.447,0.561,1.597
		c-0.022,0.428,0.02,0.183-0.32,0.319c-0.167-0.33-0.707-0.906-1.041-1.437C7.792,46.887,7.899,46.727,8.006,46.567z M86.549,46.567
		c0.187,0.133,0.374,0.266,0.561,0.399c0,0.053,0,0.106,0,0.16c-0.134,0-0.267,0-0.4,0c-0.106-0.107-0.213-0.213-0.32-0.319
		C86.442,46.727,86.496,46.647,86.549,46.567z M75.42,47.046c0.054,0.053,0.107,0.106,0.16,0.16
		C75.527,47.153,75.474,47.1,75.42,47.046z M60.448,47.126c0.267,0,0.533,0,0.801,0c-0.026,0.106-0.054,0.213-0.08,0.319
		c0.267-0.08,0.533-0.16,0.801-0.24c0,0.133,0,0.266,0,0.399c-0.24,0.16-0.48,0.319-0.721,0.479
		c-0.054-0.187-0.106-0.373-0.16-0.559c-0.16,0.106-0.32,0.213-0.48,0.319c-0.054-0.026-0.106-0.053-0.16-0.08
		c-0.054-0.08-0.107-0.16-0.16-0.239C60.467,47.438,60.452,47.207,60.448,47.126z M75.66,47.126c0.08,0,0.16,0,0.24,0
		C75.82,47.126,75.74,47.126,75.66,47.126z M70.456,47.206c0.188,0.053,0.374,0.106,0.561,0.16c-0.106,0-0.214,0-0.32,0
		C70.616,47.312,70.536,47.259,70.456,47.206z M70.776,47.446c0.771,0.227,0.586,0.452,1.281,0.718c0,0.053,0,0.106,0,0.16
		c-0.556-0.052-1.133-0.078-1.441,0.08c-0.183-0.128-0.142-0.145-0.4-0.239c0.102-0.241-0.001-0.096,0.16-0.24
		c0-0.106,0-0.212,0-0.319C70.775,47.574,70.572,47.749,70.776,47.446z M23.539,47.765c0.655,0.568,0.453,1.584,1.041,2.235
		c0.293,0.027,0.587,0.053,0.88,0.08c-0.238,0.628-0.288,1.05-0.64,1.278c-0.08,0-0.16,0-0.24,0
		c-0.454-0.279-1.528-1.38-1.281-2.156c-0.48-0.027-0.961-0.053-1.441-0.08c0.227-0.499,0.282-0.318,0.64-0.559
		c-0.053-0.133-0.106-0.266-0.16-0.399c0.134-0.08,0.267-0.16,0.4-0.24c0.054,0,0.107,0,0.16,0c0.107,0.08,0.214,0.16,0.32,0.24
		c-0.026-0.106-0.053-0.213-0.08-0.319C23.385,47.855,23.384,47.943,23.539,47.765z M87.75,48.004
		c1.067,0.133,2.135,0.266,3.202,0.399c-0.053,0.053-0.106,0.106-0.159,0.16C90.236,48.581,88.125,48.69,87.75,48.004z
		 M64.131,48.084c1.224,0.198,1.829,0.047,3.604,0.399c0,0.08,0,0.16,0,0.239c-1.324-0.082-2.958,0.172-3.684,0.24
		c-0.133-0.053-0.267-0.106-0.399-0.16c0.026-0.187,0.053-0.373,0.079-0.559c0.134,0,0.268,0,0.4,0
		C64.131,48.19,64.131,48.137,64.131,48.084z M76.221,48.244c0.354,0.059,0.291-0.016,0.48,0.16c0.054,0,0.107,0,0.16,0
		c0,0.187,0,0.373,0,0.559c-0.427,0.027-0.236,0.03-0.641,0.16c-0.293-0.16-0.587-0.319-0.881-0.479
		c0.054-0.027,0.107-0.053,0.16-0.08C75.756,48.538,76.016,48.474,76.221,48.244z M67.814,48.483c0.053,0,0.106,0,0.16,0
		c-0.054,0.053-0.107,0.106-0.16,0.16C67.814,48.59,67.814,48.537,67.814,48.483z M67.094,48.803c0.08,0.106,0.16,0.213,0.24,0.319
		c-0.054-0.027-0.107-0.053-0.16-0.08c-0.002,0.054,0.037,0.294-0.08,0.16c-0.054,0.027-0.106,0.053-0.16,0.08c0-0.08,0-0.16,0-0.24
		C67.171,48.888,66.935,49.022,67.094,48.803z M21.777,48.882c0.026,0.053,0.053,0.106,0.08,0.16
		C21.831,48.989,21.804,48.936,21.777,48.882z M67.014,49.282c0.053,0,0.106,0,0.16,0C67.12,49.282,67.066,49.282,67.014,49.282z
		 M10.648,49.92c0.16,0.16,0.32,0.319,0.48,0.479c0.026,0.053,0.053,0.106,0.08,0.159c-0.231,0.124-0.144-0.025-0.32,0.239
		c-0.054-0.026-0.107-0.053-0.16-0.08C10.702,50.452,10.675,50.186,10.648,49.92z M27.462,50.08c0.347,0.106,0.694,0.213,1.041,0.32
		c0.102,0.278,0.133,0.282,0.16,0.479c0.061,0.381-0.262,0.597-0.561,0.798c-0.039-0.299,0.055-0.161-0.16-0.398
		c-0.187,0.106-0.374,0.213-0.561,0.319c0-0.054,0-0.106,0-0.159C27.034,50.875,27.327,50.582,27.462,50.08z M11.209,50.559
		c0.213,0.239,0.427,0.479,0.64,0.719c-0.188,0.247-0.012,0.206-0.32,0.319C11.476,51.061,11.029,51.26,11.209,50.559z
		 M73.659,50.639c0.464,0.12,0.281,0.242,0.56,0.398c0.534-0.919,3.047,0.268,3.684,1.277c-0.092,0.204-0.083,0.207-0.08,0.639
		c-0.751-0.308-1.602-0.656-2.162-1.197c-1.066,0.523-1.73,0.109-2.482-0.08c-0.006,0.36,0.051,0.227-0.319,0.399
		c-0.054-0.053-0.107-0.106-0.16-0.159c-0.379-0.176-0.367-0.412-0.961-0.559c0.063,0.465-0.146,0.432-0.16,0.718
		c-0.248-0.208-0.146-0.437-0.32-0.559c0.362-0.448,0.636-0.229,0.801-0.798C72.38,50.797,73.32,50.916,73.659,50.639z
		 M71.497,50.958c0.026,0.053,0.054,0.106,0.08,0.159C71.551,51.064,71.523,51.011,71.497,50.958z M84.147,51.037
		c0.026,0.027,0.053,0.054,0.079,0.08c-0.196,0.213-0.108,0.123-0.319,0.16c0.08,0.106,0.16,0.213,0.24,0.319
		c0.106-0.159,0.213-0.319,0.32-0.479C84.36,51.091,84.254,51.064,84.147,51.037z M68.215,51.197
		c0.507,0.106,1.014,0.213,1.521,0.319c-0.053,0.133-0.106,0.267-0.16,0.399c0.08,0,0.16,0,0.24,0
		c0.026-0.054,0.054-0.106,0.08-0.16c0,0.054,0,0.106,0,0.16c0,0.213,0,0.426,0,0.639c-0.564,0.062-0.429,0.093-0.801,0.398
		c-0.431-0.022-1.468-0.453-1.36-0.639c-0.188-0.07-0.403-0.822-0.321-0.718c0.027-0.19-0.014-0.065,0.081-0.319
		C67.818,51.394,67.946,51.448,68.215,51.197z M70.937,51.438c0.08,0,0.16,0,0.24,0c0,0.079,0,0.159,0,0.238
		c-0.106-0.026-0.213-0.053-0.32-0.079C70.883,51.543,70.91,51.49,70.937,51.438z M70.536,51.597
		c0.242,0.101,0.096-0.001,0.24,0.159C70.696,51.703,70.616,51.649,70.536,51.597z M70.456,51.676
		c0.026,0.054,0.054,0.107,0.08,0.16C70.51,51.783,70.482,51.729,70.456,51.676z M83.667,51.916c0,0.08,0,0.159,0,0.239
		c0.08-0.08,0.16-0.159,0.24-0.239C83.827,51.916,83.747,51.916,83.667,51.916z M72.218,52.155c0.053,0.054,0.106,0.106,0.16,0.159
		c-0.08,0.054-0.16,0.107-0.24,0.16c0.026-0.053,0.053-0.106,0.08-0.16c-0.054,0.027-0.106,0.054-0.16,0.08
		C72.111,52.314,72.164,52.234,72.218,52.155z M72.538,52.155c0.187,0.026,0.373,0.054,0.561,0.079
		c-0.134,0.119,0.013,0.127-0.16,0.08c-0.182,0.109-0.158,0.116-0.48,0.16C72.484,52.368,72.511,52.262,72.538,52.155z
		 M69.815,52.794c0.054,0.054,0.106,0.106,0.16,0.159c-0.106,0.027-0.214,0.054-0.32,0.08c0.054-0.026,0.107-0.053,0.16-0.08
		C69.815,52.9,69.815,52.848,69.815,52.794z M60.769,53.193c0.396,0.107,0.44,0.014,0.561,0.398c-0.134,0.08-0.268,0.16-0.4,0.24
		c0.026-0.054,0.053-0.107,0.08-0.16c-0.226-0.022-0.06,0.043-0.16-0.16C60.678,53.318,60.802,53.521,60.769,53.193z M83.267,53.512
		c0.053,0,0.106,0,0.16,0c0.045,0.182,0.004,0.105,0.4,0.24c0,0.026,0,0.053,0,0.08c-0.188-0.027-0.374-0.054-0.561-0.08
		C83.267,53.672,83.267,53.592,83.267,53.512z M60.688,54.15c0.16,0.16,0.32,0.32,0.48,0.479c-0.231,0.472-0.386,0.462-0.4,1.038
		c0.134,0.105,0.267,0.213,0.4,0.318c-0.08,0.107-0.16,0.213-0.24,0.32c-0.134,0-0.268,0-0.4,0c-0.026,0.213-0.054,0.426-0.08,0.639
		c-0.443-0.114-0.337,0.01-0.48-0.24c-0.185-0.168-0.128-0.203-0.08-0.479c-0.498-0.066-0.259,0.014-0.721,0.08
		c0.026-0.054,0.054-0.107,0.08-0.16c0.027-0.398,0.054-0.799,0.08-1.197c0.487-0.143,0.489-0.16,0.721-0.399
		c0.054,0.026,0.106,0.054,0.16,0.08c0.016,0.224-0.007,0.362,0.24,0.559C60.362,54.645,60.569,54.439,60.688,54.15z M61.249,54.869
		c-0.034,0.074,0.064,0.055-0.08,0.16C61.195,54.976,61.223,54.922,61.249,54.869z M60.128,55.269
		c-0.08,0.266-0.16,0.532-0.24,0.798c0.08,0,0.16,0,0.24,0c0.054-0.026,0.106-0.053,0.16-0.08c0.026-0.238,0.053-0.479,0.08-0.718
		C60.288,55.269,60.208,55.269,60.128,55.269z M58.286,55.668c0.107,0,0.214,0,0.32,0c0.027,0.266,0.054,0.531,0.08,0.798
		c-0.026,0-0.053,0-0.08,0c-0.16-0.133-0.32-0.267-0.48-0.399C58.18,55.934,58.232,55.801,58.286,55.668z M15.372,55.986
		c0.08,0,0.16,0,0.24,0c-0.053,0.08-0.107,0.16-0.16,0.24c-0.053-0.027-0.107-0.054-0.16-0.08c0-0.026,0-0.053,0-0.08
		C15.319,56.04,15.345,56.014,15.372,55.986z M61.81,55.986c0.133,0,0.267,0,0.399,0c-0.053,0.107-0.106,0.213-0.159,0.32
		c-0.054-0.027-0.107-0.054-0.16-0.08C61.862,56.146,61.836,56.066,61.81,55.986z M82.786,55.986c0.147,0.224,0.058,0.012,0.08,0.32
		c-0.054-0.054-0.107-0.107-0.16-0.16C82.732,56.094,82.759,56.04,82.786,55.986z M59.087,56.066c0.026,0.054,0.054,0.106,0.08,0.16
		C59.141,56.173,59.113,56.12,59.087,56.066z M15.692,56.146c0.106,0,0.213,0,0.32,0c0,0.08,0,0.16,0,0.239
		c-0.064,0.013-0.161,0.001-0.08,0.08c-0.133-0.026-0.267-0.054-0.4-0.08C15.585,56.307,15.639,56.227,15.692,56.146z
		 M82.626,56.307c0.08,0.053,0.16,0.105,0.24,0.159c-0.054,0.054-0.107,0.106-0.16,0.159c-0.155,0.243-0.026,0.084-0.24,0.16
		c0.054-0.053,0.106-0.106,0.16-0.16C82.626,56.52,82.626,56.412,82.626,56.307z M85.748,56.307c0.134,0.026,0.268,0.053,0.4,0.079
		c0.018,0.581,0.396,1.554-0.08,1.996c-0.079,0-0.16,0-0.24,0c0.065,0.315-0.265,0.895-0.641,1.197c-0.079,0-0.159,0-0.239,0
		c-0.157-0.822-0.052-1.355,0-1.995c0.08,0,0.16,0,0.239,0c0.077,0.082,0.133-0.051,0.08-0.08c0.17-0.15,0.052-0.062,0.16-0.32
		c-0.106-0.053-0.213-0.105-0.319-0.159c0-0.054,0-0.106,0-0.159C85.562,56.877,85.688,56.877,85.748,56.307z M81.745,56.705
		c0.054,0,0.106,0,0.16,0c-0.143,0.286,0.043,0.095-0.24,0.24C81.691,56.865,81.719,56.785,81.745,56.705z M82.306,56.785
		c0.08,0.053,0.16,0.106,0.24,0.16c-0.173,0.146-0.028,0.092-0.16,0.318c0-0.053,0-0.105,0-0.159
		C82.358,56.998,82.332,56.892,82.306,56.785z M81.745,57.024c0.106,0.026,0.214,0.054,0.32,0.08c0,0.106,0,0.213,0,0.319
		c-0.026,0.026-0.054,0.053-0.08,0.08c-0.026,0-0.054,0-0.08,0c-0.054-0.027-0.106-0.054-0.16-0.08
		C81.745,57.291,81.745,57.158,81.745,57.024z M55.084,57.184c0.054,0.054,0.106,0.107,0.16,0.16
		C55.19,57.291,55.138,57.237,55.084,57.184z M82.226,57.264c0.054,0,0.107,0,0.16,0c-0.027,0.107-0.054,0.213-0.08,0.32
		c-0.026,0-0.054,0-0.08,0C82.226,57.477,82.226,57.371,82.226,57.264z M23.779,57.344c1.757,0.34,3.122,0.232,4.724,0.958
		c0.157-0.196,0.045-0.032,0.08-0.239c0.16,0.053,0.32,0.106,0.48,0.159c0.099,0.414,0.324,0.365,0.48,1.118
		c0.828-0.208,3.353,0.081,3.763,0.319c0.086-0.152,1.121-1.118,1.121-1.118c0.253,0.036,0.371-0.1,0.32,0.239
		c0.238,0.069,0.236,0.283,0.4,0.24c0.017,0.016,2.574,0.597,3.443,0.718c0.069-0.473,2.528-0.382,2.642,0.08
		c-0.281,0.006-0.549,0.148-1.041,0.479c-0.143,0.097-1.47-0.156-1.921-0.079c-0.08,0.186-0.16,0.372-0.24,0.559
		c0.446,0.041,1.203,0.447,1.441,0.639c0.489,0.392,1.988-0.854,2.562,0.159c0.149,0.126,0.141,0.227,0.16,0.639
		c-0.33-0.014,0.01,0.093-0.32,0.08c0.106,0.732,0.229,0.742,0.48,1.197c-0.053-0.026-0.106-0.053-0.16-0.08
		c-0.713-0.011-1.79-0.695-2.402-0.878c-0.494-0.146-0.837,0.217-1.281,0.319c-0.125,0.029-2.922-0.239-3.363-0.319
		c-0.053,0-0.107,0-0.16,0c-0.071-0.473-1.038,0.039-1.761-0.398c-0.11-0.495-1.496-0.54-2.082-0.958
		c-0.347,0.053-0.694,0.106-1.041,0.159c-0.015-0.329-0.081-0.126-0.32-0.08c-1.351,0.259-2.726-0.699-5.204-0.718
		c0-0.106,0-0.213,0-0.319c0.135-0.007,0.275-0.087,0.32-0.559c-0.696,0.106-0.921-0.177-2.002-0.16c0-0.106,0-0.213,0-0.319
		C23.355,59.111,23.396,57.973,23.779,57.344z M55.244,57.344c0.165,0.156,0.083,0.03,0.16,0.319c-0.08,0.026-0.16,0.054-0.24,0.08
		C55.19,57.609,55.217,57.477,55.244,57.344z M25.86,57.504c0.054,0.053,0.107,0.105,0.16,0.159
		C25.967,57.609,25.914,57.557,25.86,57.504z M55.244,57.743c0.122,0.185-0.055,0.231,0.16,0.159
		c-0.121,0.154-0.144,0.142-0.32,0.239C55.142,57.855,55.14,57.912,55.244,57.743z M55.164,58.142
		c0.168,0.164,0.131,0.142,0.16,0.479c-0.054-0.026-0.107-0.054-0.16-0.08C55.164,58.408,55.164,58.275,55.164,58.142z
		 M86.389,58.461c0.026,0.134,0.054,0.267,0.08,0.399c-0.053-0.026-0.106-0.053-0.16-0.08
		C86.335,58.674,86.362,58.567,86.389,58.461z M86.148,58.86c0.054,0,0.107,0,0.16,0c-0.026,0.106-0.053,0.213-0.08,0.319
		c-0.08,0.026-0.16,0.054-0.239,0.08C86.042,59.127,86.096,58.993,86.148,58.86z M43.955,59.34c0.133,0.026,0.267,0.053,0.4,0.079
		c-0.026,0.054-0.053,0.106-0.08,0.16c-0.026,0-0.053,0-0.08,0c-0.107,0-0.214,0-0.32,0C43.901,59.499,43.928,59.419,43.955,59.34z
		 M44.436,59.419c0.13,0.201,0.079,0.014,0,0.24c-0.027,0-0.054,0-0.081,0C44.382,59.579,44.409,59.499,44.436,59.419z
		 M41.313,59.579c0.026,0.053,0.053,0.106,0.08,0.159C41.366,59.686,41.339,59.632,41.313,59.579z M41.793,59.818
		c0.212,0.158,0.157,0.09,0.24,0.399c-0.08-0.054-0.16-0.106-0.24-0.16C41.793,59.979,41.793,59.898,41.793,59.818z M55.645,59.818
		c0.08,0,0.16,0,0.24,0c-0.054,0.053-0.107,0.106-0.16,0.16C55.697,59.925,55.671,59.871,55.645,59.818z M72.938,59.818
		c0.158,0.227,0.117,0.157,0.08,0.479c-0.027-0.079-0.054-0.159-0.08-0.239C72.717,59.966,72.896,60.033,72.938,59.818z
		 M79.504,59.979c0.48,0.488-0.2,1.497-0.721,1.995c-0.107-0.047-0.236-0.027-0.4-0.159c0.056-0.247-0.053-0.092,0.08-0.24
		C78.459,60.883,78.977,60.556,79.504,59.979z M79.743,59.979c0.242,0.1,0.097-0.002,0.24,0.159c-0.026,0-0.053,0-0.08,0
		C79.851,60.084,79.797,60.031,79.743,59.979z M80.145,59.979c0.053,0.053,0.106,0.105,0.159,0.159
		c-0.053,0.053-0.106,0.106-0.159,0.159c-0.027-0.053-0.054-0.106-0.081-0.159C80.091,60.084,80.117,60.031,80.145,59.979z
		 M56.125,60.058c0.106,0,0.214,0,0.32,0c0,0.026,0,0.054,0,0.08c-0.106,0.053-0.214,0.106-0.32,0.159
		C56.125,60.218,56.125,60.138,56.125,60.058z M56.525,60.138c0.053,0,0.106,0,0.159,0C56.545,60.216,56.667,60.211,56.525,60.138z
		 M94.876,60.218c0.053,0,0.106,0,0.16,0C94.982,60.218,94.929,60.218,94.876,60.218z M78.143,60.616
		c0.053,0.08,0.106,0.16,0.16,0.24C78.249,60.776,78.195,60.696,78.143,60.616z M70.216,60.776c0.054,0,0.107,0,0.16,0
		c0.004,0.179-0.01,0.023,0.16,0.08c-0.148,0.301-0.222,0.082-0.16,0.319C70.21,61.014,70.267,61.096,70.216,60.776z M68.535,60.936
		c0.296,0.189,0.329,0.187,0.399,0.319c0.027,0.054,0.054,0.106,0.08,0.16c-0.7,0.073-1.59,0.884-2.241,0.319
		c0.053,0,0.106,0,0.16,0c0.05-0.282,0.081-0.374,0.479-0.559C67.642,61.393,68.311,61.204,68.535,60.936z M69.015,61.176
		c0.027,0.053,0.054,0.106,0.08,0.159C69.068,61.282,69.042,61.229,69.015,61.176z M77.982,61.176c0.106,0,0.213,0,0.32,0
		c0,0.026,0,0.053,0,0.079c-0.054,0.054-0.107,0.106-0.16,0.16C78.089,61.335,78.035,61.255,77.982,61.176z M75.1,61.415
		c0.188,0,0.374,0,0.561,0c0.013,0.155-0.052,0.279,0.08,0.159c-0.08,0.16-0.16,0.319-0.24,0.479
		c-0.026-0.054-0.053-0.106-0.08-0.16c-0.303-0.225-0.269-0.417-0.24-0.319C75.153,61.521,75.127,61.468,75.1,61.415z
		 M43.635,61.974c0.45,0.129,0.874,0.383,1.201,0.559c-0.062,0.354-0.048,0.297-0.24,0.479c-0.211,0.013-0.739,0.221-0.88,0.798
		c-0.242-0.101-0.096,0.002-0.24-0.159c0.053,0.026,0.106,0.053,0.16,0.079c-0.054-0.231,0.127-0.153-0.08-0.398
		c-0.08-0.16-0.16-0.319-0.24-0.479c-0.482,0.081-0.823-0.03-1.041-0.399c-0.012-0.063,0-0.16-0.08-0.079
		C42.467,61.958,43.418,62.434,43.635,61.974z M49.64,62.054c0.618,0.047,0.652,0.363,0.961,0.639
		c0.401-0.382,1.08,0.054,1.521-0.08c-0.026,0.213-0.053,0.426-0.08,0.639c0.134,0,0.268,0,0.4,0
		c-0.268,0.501-1.749,0.719-1.681,0.159c0-0.026,0-0.053,0-0.079c-0.927,0.261-2.831,1.543-3.604,0.639
		c0.11-0.425-0.097-0.453,0.16-0.719c0.075-0.311,0.468-0.394,0.801-0.639c0.389,0.529,0.846,0.231,1.441,0.878
		c0.293-0.106,0.587-0.213,0.881-0.319c-0.027-0.053-0.054-0.106-0.08-0.159c-0.28-0.038-0.664-0.492-1.281-0.639
		c-0.056,0.246-0.093-0.013-0.08,0.239c-0.054-0.053-0.106-0.106-0.16-0.16c-0.026-0.079-0.054-0.159-0.08-0.239
		c0.026-0.026,0.054-0.053,0.08-0.079C49.105,62.106,49.372,62.08,49.64,62.054z M60.368,62.054c0.443,0.102,0.353,0.167,0.4,0.559
		c0.644-0.256,1.081-0.229,1.842-0.319c0,0.026,0,0.053,0,0.08c0,0.079,0,0.159,0,0.239c-0.3,0.034-0.516,0.179-0.801,0.559
		c-0.294-0.1-0.201-0.088-0.561-0.08c0.053-0.106,0.106-0.213,0.16-0.319c-1.837,0.385-3.562,1.287-5.685,0.879
		c-0.757-0.146-1.89,0.434-2.002-0.479c0.219-0.151,0.042-0.021,0.16-0.319c0.454-0.159,0.907-0.319,1.361-0.479
		c0.653,0.073,2.002,0.718,2.002,0.718c0.741,0.034,1.376-0.049,2.241,0.24c0.254-0.763,0.709-0.7,1.121-0.799
		c-0.134-0.08-0.268-0.159-0.4-0.239C60.451,62.138,60.292,62.267,60.368,62.054z M78.143,62.054c0.321,0.16,0.094,0.088,0.24,0.319
		c-0.156,0.012-0.281-0.053-0.16,0.079c-0.08,0-0.16,0-0.24,0c0-0.026,0-0.053,0-0.079C78.035,62.267,78.089,62.16,78.143,62.054z
		 M52.121,62.134c0.2,0.187,0.086,0.053,0.08,0.398c-0.053-0.08-0.106-0.159-0.16-0.239C52.068,62.239,52.095,62.187,52.121,62.134z
		 M63.971,62.134c0.054,0,0.107,0,0.16,0c-0.026,0.053-0.054,0.105-0.08,0.159c0.454,0,0.907,0,1.361,0
		c-0.103,0.225-0.007,0.197-0.24,0.399c-0.509,0.021-0.973,0.271-1.441,0.079C63.811,62.56,63.891,62.346,63.971,62.134z
		 M71.097,62.134c0.267,0.026,0.534,0.053,0.801,0.079c-0.054,0.026-0.106,0.054-0.16,0.08c-0.134,0.053-0.267,0.106-0.4,0.159
		C71.257,62.347,71.177,62.239,71.097,62.134z M73.499,62.213c0.08,0,0.16,0,0.24,0c0,0.08,0,0.16,0,0.239
		c-0.107-0.053-0.214-0.106-0.32-0.159C73.445,62.267,73.472,62.239,73.499,62.213z M63.41,62.293c0.054,0,0.107,0,0.16,0
		C63.518,62.293,63.464,62.293,63.41,62.293z M73.819,62.293c0.026,0.053,0.053,0.106,0.079,0.159
		C73.872,62.399,73.846,62.346,73.819,62.293z M46.037,62.373c0.531,0.072,0.637,0.016,1.04,0.319
		c-0.133,0.398-0.267,0.798-0.399,1.197c-0.403-0.011-1.275,0.126-1.521-0.399c0.16,0,0.32,0,0.48,0
		c-0.004-0.876,0.196-0.546,0.32-1.038C45.983,62.426,46.01,62.399,46.037,62.373z M63.41,62.452c0.146,0.065,0.051,0.036,0,0.16
		c-0.034,0.223,0.02,0.188-0.16,0.399c-0.106-0.08-0.213-0.16-0.319-0.24C62.968,62.456,63.071,62.688,63.41,62.452z M77.662,62.532
		c0.054,0.054,0.106,0.106,0.16,0.16C77.769,62.639,77.716,62.586,77.662,62.532z M52.923,62.852c0.079,0,0.159,0,0.239,0
		c-0.087,0.278-0.009,0.34-0.32,0.559C52.869,63.225,52.896,63.038,52.923,62.852z M53.242,63.012
		c0.027,0.053,0.054,0.106,0.08,0.159C53.296,63.118,53.27,63.064,53.242,63.012z M61.97,63.012c0.053,0,0.106,0,0.16,0
		C61.99,63.09,62.111,63.084,61.97,63.012z M63.09,63.012c0.027,0.053,0.054,0.106,0.08,0.159
		C63.144,63.118,63.117,63.064,63.09,63.012z M44.436,63.331c0.321,0.16,0.094,0.088,0.24,0.319c-0.106-0.054-0.213-0.106-0.32-0.16
		C44.382,63.438,44.409,63.384,44.436,63.331z M53.402,63.331c0.054,0.106,0.107,0.213,0.16,0.319c-0.08-0.027-0.16-0.054-0.24-0.08
		C53.349,63.49,53.376,63.41,53.402,63.331z M65.092,63.729c0.237,0.154,0.001,0.021,0.16,0.24c0.187-0.027,0.374-0.054,0.561-0.08
		c-0.103,0.307-0.437,0.736-0.16,0.958c-1.396,1.362-2.28,2.089-4.163,1.836c0-0.027,0-0.054,0-0.08
		c0.712-0.421,0.791-1.39,1.36-1.836c0.65-0.51,1.542-0.383,2.242-0.798C65.092,63.89,65.092,63.81,65.092,63.729z M52.923,64.768
		c1.436,0.115,2.102,0.253,3.042,1.437c-0.103,0.262-0.074,0.096-0.08,0.399c-0.08,0-0.16,0-0.24,0
		c-0.054,0.026-0.107,0.053-0.16,0.08c-0.106,0.053-0.214,0.106-0.32,0.159c-0.665-0.349-0.843-0.49-1.521-1.037
		c-0.427-0.027-0.854-0.054-1.281-0.08c-0.045-0.304-0.271-0.091-0.399-0.639c0.133-0.026,0.267-0.053,0.399-0.08
		C52.527,64.835,52.636,64.913,52.923,64.768z M61.409,66.763c0.026,0.054,0.054,0.107,0.08,0.16
		C61.463,66.87,61.436,66.816,61.409,66.763z M58.366,67.082c0.058,0.195,0.107,0.258-0.32,0.399
		C58.153,67.349,58.26,67.216,58.366,67.082z M61.489,67.082c0.053,0,0.106,0,0.16,0c-0.027,0.08-0.054,0.16-0.08,0.24
		C61.542,67.242,61.516,67.162,61.489,67.082z M61.249,67.242c0.106,0.026,0.214,0.053,0.32,0.08
		c0.026,0.133,0.053,0.266,0.08,0.398c-0.427,0.16-0.854,0.319-1.281,0.479c0.053-0.106,0.106-0.213,0.16-0.319
		C60.714,67.669,61.374,67.704,61.249,67.242z M57.886,67.322c0.054,0,0.107,0,0.16,0C57.993,67.322,57.939,67.322,57.886,67.322z"
		/>
</g>
<g id="Layer_1">
</g>
</svg>
