<?xml version="1.0" encoding="iso-8859-1"?>
<!-- Generator: Adobe Illustrator 16.0.3, SVG Export Plug-In . SVG Version: 6.00 Build 0)  -->
<!DOCTYPE svg PUBLIC "-//W3C//DTD SVG 1.1//EN" "http://www.w3.org/Graphics/SVG/1.1/DTD/svg11.dtd">
<svg version="1.1" xmlns="http://www.w3.org/2000/svg" xmlns:xlink="http://www.w3.org/1999/xlink" x="0px" y="0px" width="100px"
	 height="100px" viewBox="0 0 100 100" style="enable-background:new 0 0 100 100;" xml:space="preserve">
<g id="IE">
	<path style="fill-rule:evenodd;clip-rule:evenodd;fill:#010101;" d="M34.562,19.494c2.492-1.218,3.086-4.189,5.999-4.067
		c0.358,0.015,1.176,0.55,1.604,0.705c0.571,0.207,3.279,0.804,5.384,2.505c0.889,0.717,0.786,2.027,2.014,2.635
		c0.776,0.383,2.342,0.169,3.63,0.26c1.003,0.069,1.765,0.44,2.337,0.665c1.465,0.574,0.766,1.209,2.294,1.28
		c1.106,0.052,1.007-2.012,2.204-2.726c0.664-0.396,1.02-0.963,2.133-1.203c1.264-0.272,3.293-0.21,4.087-0.541
		c0.421-0.175,0.189-0.488,0.383-0.695c0.497-0.528,0.949-0.973,1.317-1.13c0.67-0.285,1.038-1.267-0.168-1.651
		c-0.37-0.117-2.156-0.031-2.604-0.17c-1.216-0.384-2.63-0.864-3.761-1.504c-1.854-1.054-2.408-3.454-1.838-3.574
		c2.055-0.433,5.476-1.078,7.638-3.089c0.606-0.564-0.269-2.474,0.382-3.007c0.751-0.614,1.244-1.381,2.048-1.88
		c0.634-0.392,2.238,0.042,2.896-0.235c0.499-0.21,0.711-0.548,1.04-0.816c0.313-0.256,1.317,0.029,1.623-0.155
		c0.308-0.186-0.08-0.842,0.234-0.886c0.909-0.124,3.228,0.086,4.042,0c0.434-0.046,0.187,1.041,0.595,1.005
		c0.271-0.025,0.725,0.083,0.986-0.081c0.347-0.219,0.506-0.735,0.864-0.879c0.812-0.327,1.651-0.263,2.219-0.227
		c0.499,0.032,0.585,0.551,0.578,1.275c-0.008,0.931,0.222,2.234-0.201,3.397c-0.155,0.428-0.682,0.401-0.811,0.814
		c-0.452,1.441-0.129,2.83-0.129,2.83l0,0c-1.733,1.165-3.527,6.138-5.361,6.742c-1.549,0.51-1.405-0.805-2.76-0.784
		c-1.246,0.02-1.439,2.174-2.139,3.295c-0.524,0.845-1.604,0.549-2.145,1.436c-0.456,0.748-2.551-0.26-2.551,0.881
		c0,1.323,3.639,3.927,3.854,5.232c0.288,1.745-0.105,4.509,0.179,6.119c0.095,0.537,0.694,0.062,0.849,0.557
		c0.141,0.455,0.313,0.892,0.528,1.299c2.267,4.304,5.734,0.583,8.36-1.235c0.609-0.422,1.021-1.274,1.532-1.295
		c2.593-0.098,3.629-0.25,5.864-0.154c0.977,0.041,2.575-0.215,3.979,0.183c0.476,0.135,1.368,0.787,1.848,2.026
		c0.173,0.448-0.059,1.278,0.112,1.76c0.289,0.824,0.888,1.298,0.917,2.253c0.06,2.033-1.408,4.158-1.654,5.828
		c-0.164,1.116,0.217,2.029,0.688,2.513c0,0.201-1.141,0.53-1.41,1.303c-0.514,1.476-0.339,3.863-0.419,5.088
		c-0.082,1.261-0.111,3.214,0.183,4.571c0.261,1.198,0.854,1.805,0.705,2.917c-0.173,1.279-1.421,2.676-1.865,4.223
		c-0.392,1.365-0.545,2.723-1.059,3.876c-0.766,1.73-1.141,2.786-1.579,4.195c-0.823,2.653,0.278,4.167-0.864,5.933
		c-1.473,2.28-3.987,4.177-5.562,6.396c-1.925,2.713-2.938,5.725-5.045,8.203c-0.795,0.937-0.486,2.625-0.695,3.933
		c-0.185,1.155-0.82,1.981-2.341,2.198c-2.168,0.311-3.105-1.994-5.768-2.924c-0.628-0.218-0.892-0.717-1.626-0.839
		c-2.03-0.337-4.812-0.031-7.004-0.122c-1.851-0.077-3.474-0.425-5.042-0.337c-0.401,0.021-1.814,0.144-2.446,0.678
		c-0.812,0.688-0.896,1.851-1.795,2.16c-0.705,0.243-2.168,0.651-2.863,0.438c-0.696-0.211-0.627-1.047-1.472-0.939
		c-0.518,0.065-0.715,1.326-1.817,1.638c-1.719,0.488-4.489,0.082-5.27,0.048c-2.133-0.094-0.887-1.948-1.704-2.234
		c-0.903-0.315-1.53,4.088-2.682,4.166c-3.25,0.212-8.222,0.621-12.273,0.32c-1.083-0.081-1.653-0.788-2.642-0.875
		c-0.917-0.082-1.809,1.072-2.589,0.877c-0.682-0.171-1.063-0.603-1.613-0.872c-0.767-0.376-0.979-1.348-1.472-1.925
		c-0.381-0.445-4.217,0.271-5.523-0.267c-0.396-0.164-0.127-0.871-0.122-1.286c0.01-0.79,0.128-1.432,0.303-1.657
		c0.265-0.339,1.107,0.049,1.825,0.062c1.469,0.027,3.099,0.031,2.987-0.158c-0.341-0.572,0.286-0.96-0.048-1.532
		c-0.583-0.996-8.724,0.316-9.072-0.727c-0.176-0.521,0.605-1.355,2.561-2.094c0.478-0.181,0.56-0.533,1.265-0.594
		c1.03-0.089,2.725,0.137,3.4-0.092c1.004-0.339,0.88-1.217,0.799-1.496c-0.251-0.843-6.932-0.046-8.703-0.461
		c-0.638-0.149-0.169-1.833-0.339-2.452c-0.109-0.386-0.83-0.403-1.011-0.657c-0.162-0.225-0.667-0.516-0.629-0.813
		c0.23-1.803,2.198-2.231,3.612-3.029c0.451-0.256,0.592-0.826,1.102-0.979c0.567-0.171,1.204,0.079,1.827,0.082
		c0.908,0.002,1.787-0.188,2.379-0.232c0.601-0.044,0.741-0.428,0.81-0.689c0.063-0.252,0.146-0.909-0.8-1.097
		c-0.947-0.186-2.922,0.097-4.071-0.213c-0.816-0.22-1.9-0.022-2.476-0.334c-0.682-0.371-0.772-1.252-0.682-1.461
		c0.171-0.398,0.817-1.407,1.859-2.262c0.17-0.141,0.196-0.46,0.397-0.576c0.419-0.244,1.217,0.003,1.712-0.179
		c0.46-0.168,1.3-0.286,2.052-0.04c0.179,0.058,0.112,0.584,0.292,0.66c0.678,0.28,1.166,0.143,1.865,0.16
		c0.366,0.009,1.004,0.28,1.294,0.206c0.872-0.225,0.487,0.513,0.773,0.749c0.252,0.208,0.718,0.146,0.734,0.141
		c0.527-0.188,0.735-0.185,0.914-0.697c0.088-0.251,0.056-1.074,0.265-1.237c0.771-0.59,1.275-1.458,1.985-2.016
		c0.187-0.146,0.602-0.093,0.805-0.199c0.519-0.271,0.845-0.615,1.227-0.855c0.516-0.322,0.741-0.784,0.861-0.979
		c0.116-0.184,0.583-0.13,0.703-0.313c0.292-0.452,2.236-0.121,4.33,0.305c0.63,0.128,0.697,0.692,1.655,0.811
		c1.83,0.228,4.782,0.005,6.167,0.251c0.583,0.104,0.241,0.562,0.69,0.665c1.088,0.248,1.7,0.195,2.364,0.196
		c0.662,0,1.378,0.055,1.383-0.231c0.017-0.801-1.917-0.872-2.376-2.178c-0.259-0.732,1.654-2.349,0.659-2.543
		c-0.297-0.059-0.994-0.121-1.245,0.104c-0.196,0.173,0.056,0.601-0.181,0.822c-0.168,0.153-0.583,0.084-0.749,0.279
		c-0.158,0.184-0.066,0.633-0.25,0.769c-0.231,0.169-1.293,0.045-1.737,0.204c-0.694,0.252-0.831,0.758-1.223,0.768
		c-1.033,0.026-1.518-0.805-2.537-0.913c-1.37-0.146-3.153,0.174-4.398-0.014c-0.351-0.053-0.501-0.602-0.825-0.649
		c-1.643-0.249-3.068,0.034-3.596-0.316c-0.247-0.163-0.258-0.687-0.204-0.765c0.828-1.142,5.532-1.9,6.401-2.896
		c2.267-2.595,3.325-6.348,5.65-7.774c3.087-1.894,7.188-1.154,7.398-2.476c0.024-0.154,0.244-0.785-0.053-0.979
		c-0.652-0.423-2.359-0.485-3.93-1.137c-1.513-0.628-3.251-1.38-4.821-2.288c-0.64-0.369,0.128-2.185-0.334-2.63
		c-0.305-0.293-1.541-0.138-2.015-0.234c-0.903-0.183-1.152-0.498-1.75-1.104c-0.446-0.455,0.158-2.286-0.205-2.745
		c-0.19-0.241-0.85,0.08-1.009-0.163c-0.283-0.435,0.155-1.036-0.015-1.476c-0.127-0.338-0.714-0.387-0.882-0.699
		c-0.278-0.52-0.101-1.294,0.076-1.861c0.066-0.212,0.46-0.698,0.992-1.116c0.406-0.319,0.633-0.743,1.332-0.946
		c0.404-0.118,1.27,0.033,1.635-0.187c0.21-0.128,0.087-0.479,0.278-0.643c0.168-0.143,0.652-0.096,0.814-0.254
		c0.575-0.557,1.139-1.152,1.874-1.472c1.865-0.811,4.434,0.279,5.029-0.832c0.116-0.218,0.088-0.925,0.121-1.15
		c0.044-0.325-0.612-0.323-1.057-0.609c-0.16-0.103,0.079-0.582-0.137-0.651c-0.518-0.167-1.329-0.022-1.777-0.271
		c-0.267-0.147-0.162-0.574-0.358-0.748c-0.379-0.339-1.404-0.041-1.772-0.408c-0.347-0.347-0.803-0.493-0.926-0.93
		c-0.123-0.436-0.318-0.785-0.577-1.112c-0.172-0.218-0.25-0.673-0.432-0.853c-0.791-0.78-1.254-1.333-0.886-1.508
		c0.562-0.267,2.229-0.059,3.237,0.313c0.887,0.327,1.126,0.835,1.583,0.493C34.753,23.295,33.9,19.817,34.562,19.494L34.562,19.494
		z"/>
</g>
<g id="Layer_1">
</g>
</svg>
