<?xml version="1.0" encoding="iso-8859-1"?>
<!-- Generator: Adobe Illustrator 16.0.3, SVG Export Plug-In . SVG Version: 6.00 Build 0)  -->
<!DOCTYPE svg PUBLIC "-//W3C//DTD SVG 1.1//EN" "http://www.w3.org/Graphics/SVG/1.1/DTD/svg11.dtd">
<svg version="1.1" xmlns="http://www.w3.org/2000/svg" xmlns:xlink="http://www.w3.org/1999/xlink" x="0px" y="0px" width="100px"
	 height="100px" viewBox="0 0 100 100" style="enable-background:new 0 0 100 100;" xml:space="preserve">
<g id="IL">
	<g>
		<path style="fill-rule:evenodd;clip-rule:evenodd;fill:#010101;" d="M63.433,0c0.2,0.349,0.399,0.699,0.599,1.048
			c0.287,0.207,1.256-0.052,1.645,0.225c-0.024,0.05-0.05,0.1-0.075,0.149c-0.441,0.523,0.331,1.466,0.075,2.321
			c-0.042,0.139-0.966,2.165-0.822,2.919c-0.71-0.001-0.792,0.279-0.822,0.524c-0.025,0.15-0.05,0.3-0.074,0.449
			c0.198,0.174,0.398,0.349,0.598,0.524c-0.012,1.303-0.443,2.139-0.074,2.694c0.081,0.162,0.568,0.622,0.598,0.524
			c0,0,0.226,2.767,0.224,2.769c0.006,0.086,0.021,0.122-0.074,0.075c-0.057,0.239-1.108,1.237-1.196,1.198
			c0.199,0.274,0.398,0.549,0.599,0.824c-0.181,0.167-0.524,0.748-0.524,0.748c-0.092,0.26-0.405,0.435-0.822,0.3
			c0.072,0.567,0.259,0.775,0,1.272c0.125,0,0.25,0,0.374,0c-0.246,0.933-0.672,1.878-0.598,2.17
			c0.075,0.39,0.332,0.262,0.523,0.749c-0.342,0.034-0.276,1.033-0.375,1.198c0,0.05,0,0.1,0,0.15
			c-0.049-0.025-0.099-0.05-0.148-0.075c0.14,0.475,0.083,1.073-0.149,1.348c-0.579-0.149-1.173-0.588-1.57-0.674
			c-0.255-0.026-1.327-0.197-1.495-0.15c0.046-0.42,0.156-2.177-0.225-2.021c-0.563-1.027-1.543,0.065-2.616-0.374
			c-0.408-0.167-0.876-0.805-1.496-1.123c-0.72,1.466-2.695,1.665-3.438,2.62c-0.551,0.708,0.112,2.084-1.122,3.219
			c0,0.499,0,0.998,0,1.497c0.289,0.043,0.148,0.12,0.374,0.225c-0.174,0.99-1.085,1.458-1.57,2.021
			c0.411,0.375,0.919,3.248,0.822,3.593c-0.122,0.433-0.619,0.675-0.523,1.048c0.123,0.474,0.457,0.239,0.523,1.123
			c0.339,0.024,0.842-0.006,0.748,0.299c0.31,0.182,0.264,2.002-0.074,1.871c-0.165,0.175-1.159,0.496-1.197,0.524
			c-0.049,0-0.099,0-0.149,0c-0.024,0.025-0.05,0.05-0.075,0.075c0.025,0.125,0.05,0.25,0.075,0.374
			c0.423-0.05,0.847-0.1,1.271-0.149c0.374-0.042,0.798-0.687,0.822-0.749c0.181,0.026,0.61-0.05,0.449,0.15
			c0.35,0.052,0.3,0.542,0.598,0.749c0.685,0.476,1.022,0.331,1.42,0.599c0.463-0.018,1.56-0.087,1.72,0.15
			c0.263,0.058,0.144,0.022,0.374,0.225c0.004,1.232-0.13,0.996-0.074,2.021c-0.427-0.216-0.2-0.195-0.599-0.449
			c-0.337,0.366-0.864,0.219-1.271,0.15c-0.011,0.146-3.405,2.604-3.739,2.694c-0.149,0.05-0.299,0.1-0.448,0.15
			c-0.311,0.446-0.828,1.171-1.121,1.871c0,0.798,0,1.597,0,2.395c-0.209,0.517-0.989,1.615-1.196,1.872c0,0.374,0,0.749,0,1.123
			c0.224,0.2,0.448,0.399,0.673,0.599c0.761-0.242,6.159-0.137,6.728-0.523c1.346-1.098,2.692-2.196,4.037-3.293
			c0.025,0,0.051,0,0.075,0c0.011,0.903-0.021,1.256-0.299,1.796c0.428,1.156,0.518,1.719,0.448,2.77
			c0.192-0.013,0.301-0.227,0.449,0.074c-0.051,0.125-0.101,0.25-0.15,0.374l-0.448,1.722c-0.27,0.022-0.532,0.015-0.897,0.15
			c0.05,0.648,0.1,1.297,0.149,1.945c0.242,0.542,0.95,1.209,0.748,2.246c0,0.05,0,0.1,0,0.15c-0.133,0.243-0.784,1.574-0.673,2.544
			c0.396-0.008,0.594-0.053,1.047-0.149c-0.05,0.149-0.1,0.299-0.149,0.449c0.07,0.318,0.053,0.317-0.225,0.523
			c-0.17,0.326-0.432-0.027-0.673,0.15c-0.548,0.402-0.68,1.069-0.822,1.347c0.013,0.283,0.261,1.696,0,1.946
			c-0.457,0.647-0.788,1.776-1.346,2.545c-0.05,0.374-0.1,0.749-0.15,1.123c-0.309,0.471-0.727,0.881-1.195,1.348
			c0,0.074,0,0.149,0,0.224l-0.748,3.519c-0.055,0.1-0.091,0.205-0.149,0.299c-0.05,0-0.1,0-0.149,0
			c-0.05,0.125-0.1,0.25-0.149,0.375c0.363,1.576,0.409,1.816,0.598,2.694c-1.513,0.662-0.758,5.102-0.822,7.11
			c-0.663,0.019-1.493,1.28-0.822,1.497c0,0.125,0,0.25,0,0.375c-0.316,0.065-0.858,0.851-0.822,1.048
			c0.295,1.691-0.223,3.483-1.121,4.641c-0.402,0.517,0.045,2.72-0.075,3.068c-0.325,0.943-0.985,0.954-0.972,2.994
			c-0.291-0.085-0.33-0.204-0.598,0c-0.235,0.104-1.097,1.091-1.047,1.272c-0.113-0.11-1.084-2.485-0.972-2.77
			c0.123-0.311,0.377-0.432,0.224-1.198c0.025-0.074,0.05-0.148,0.075-0.224c-0.187,0.033-0.497-0.909-0.598-1.348
			c-0.025-0.549-0.05-1.098-0.075-1.646c-0.588-0.895-0.49-2.342-1.122-3.293c-1.317-1.988-1.808-5.915-2.841-8.159
			c-0.979-2.129-0.551-4.604-2.841-5.165c-0.163-1.028,0.072-1.64,0.299-2.32c-0.299-0.274-0.598-0.549-0.897-0.823
			c-0.007-4.546-1.359-6.325-2.542-8.383c-0.697-1.213-0.705-3.913-1.495-5.016c-0.404-0.562-1.583-3.929-1.496-4.715
			c1.037-0.727,1.425-1.333,2.318-2.097c-0.771-2.888,3.115-5.251,4.261-5.913c0-0.175,0-0.35,0-0.523
			c-0.548-0.399-1.096-0.799-1.645-1.198c1.121-1.871,2.243-3.743,3.364-5.613c0.625-0.749,0.548-2.103,1.047-2.919
			c0.503-0.825,1.335-2.85,1.495-3.743c0.423-1.322,0.848-2.645,1.271-3.967c0,0,0.964-4.745,1.122-5.165
			c0.108-0.291,0.432-0.808,0.374-1.123c-0.176-0.954,0.696-3.682,0.972-4.417c0.025-0.748,0.05-1.497,0.075-2.245
			c0.099-0.257,0.637-0.591,0.523-1.198c-0.175-0.936,0.129-2.628,0.598-2.545c0.009-0.019,0.984,0.303,1.271,0.449
			c0.396-0.358,1.412-1.868,1.122-2.77c-0.118-0.364-0.303-0.996-0.15-1.497c0.293-0.961,0.668-1.59,0.673-3.219
			c0.841,0.093,2.054,0.391,2.243,0.15c0.168-0.133,0.168-0.149,0.149-0.299c0.656,0.164,2.018-0.195,2.168-0.075
			c0.377,0.07,0.227,0.006,0.374,0.449c0.026,0.24,0.1,0.475,0.374,0.599c0.326,0.369,1.419-0.085,2.019,0
			c0.149-0.25,0.299-0.499,0.449-0.749c0.398,0.05,0.797,0.1,1.195,0.149c0-0.25,0-0.499,0-0.749c0.2,0,0.398,0,0.599,0
			C62.212,3.506,62.831,1.1,63.433,0z"/>
	</g>
</g>
<g id="Layer_1">
</g>
</svg>
