<?xml version="1.0" encoding="iso-8859-1"?>
<!-- Generator: Adobe Illustrator 16.0.3, SVG Export Plug-In . SVG Version: 6.00 Build 0)  -->
<!DOCTYPE svg PUBLIC "-//W3C//DTD SVG 1.1//EN" "http://www.w3.org/Graphics/SVG/1.1/DTD/svg11.dtd">
<svg version="1.1" xmlns="http://www.w3.org/2000/svg" xmlns:xlink="http://www.w3.org/1999/xlink" x="0px" y="0px" width="100px"
	 height="100px" viewBox="0 0 100 100" style="enable-background:new 0 0 100 100;" xml:space="preserve">
<g id="IR">
	<path style="fill:#010101;" d="M51.193,20.159l2.918-0.796l4.773-3.448l9.018-1.856l1.857,2.39l9.289,2.649l1.322,2.653
		l6.102,3.979h2.652l0.531,5.04l-1.062,6.366l-1.059,3.184L85.41,41.38v0.798v1.855l1.592,1.325l-1.322,3.714l1.059,7.164
		l3.182,1.325l1.857,2.651l-0.795,3.183l-3.447,4.774l3.709,6.632l6.104,3.448l0.266,4.775l2.387,1.06l-1.326,2.653l-3.979,1.326
		l-2.119,2.122l-1.332,5.569l-21.752-3.182l-2.648-7.163l-2.652-1.326l-9.283,3.714l-5.569-1.061l-0.799-1.327l-3.714-1.326
		l-1.592-2.121l-5.038-2.122l-2.653-5.836l-1.856-1.857l-2.919-5.57l-2.654,1.061l-3.445-3.712l-1.326,2.918l-3.184-2.653
		l-0.793-2.652l-1.329-0.53l0.265-4.772l-1.859-3.98l-6.631-4.245l-3.442-5.569l1.058-3.448l2.918-4.511l-0.265-1.856l1.061-1.856
		l-4.244-1.592l-3.184-4.774l-0.266-2.918v-1.592l-2.651-2.387V9.817L0,7.164l2.386-2.92l0.793,1.062l3.717,5.039l3.184,0.269h3.184
		l2.387-3.717l3.716-1.323l1.589,0.527l0.796,3.448l-1.592,1.327l4.51,2.387l1.329,5.835l5.302,1.329l2.918,3.181l5.043,2.122
		l8.487-1.591l4.243-0.263L51.193,20.159z"/>
</g>
<g id="Layer_1">
</g>
</svg>
