<?xml version="1.0" encoding="iso-8859-1"?>
<!-- Generator: Adobe Illustrator 16.0.3, SVG Export Plug-In . SVG Version: 6.00 Build 0)  -->
<!DOCTYPE svg PUBLIC "-//W3C//DTD SVG 1.1//EN" "http://www.w3.org/Graphics/SVG/1.1/DTD/svg11.dtd">
<svg version="1.1" xmlns="http://www.w3.org/2000/svg" xmlns:xlink="http://www.w3.org/1999/xlink" x="0px" y="0px" width="100px"
	 height="100px" viewBox="0 0 100 100" style="enable-background:new 0 0 100 100;" xml:space="preserve">
<g id="IT">
	<path style="fill:#010101;" d="M48.241,32.114c0.286,0.232,0.708,0.56,0.855,0.811c0.146,0.25,0.267,0.542,0.578,0.552
		c0.311,0.008,0.51,0.086,0.82,0.275c0.31,0.19,0.645,0.621,0.877,0.708c0.234,0.086,0.44,0.336,0.726,0.69
		c0.285,0.354,0.491,0.414,0.818,0.665c0.328,0.25,0.553,0.621,0.828,0.966c0.276,0.345,0.528,0.336,0.925,0.569
		c0.396,0.232,0.595,0.241,0.698,0.241c0.104,0,0.104-0.198,0.207-0.216c0.104-0.018,0.25,0.078,0.371,0.251
		c0.12,0.173-0.06,0.439-0.06,0.439s-0.018,0.035,0.024,0.06c0.043,0.026,0.285,0.233,0.432,0.269
		c0.147,0.034,0.199,0.353,0.199,0.569s0.035,0.345,0.163,0.5c0.131,0.156,0.275,0.698,0.346,1.138
		c0.068,0.44,0.276,0.829,0.362,1.113c0.085,0.284,0.206,0.57,0.328,0.846c0.121,0.276,0.164,0.336,0.164,0.526s0,0.577,0.035,0.897
		c0.033,0.319,0.275,0.57,0.43,0.957c0.155,0.389,0.198,0.794,0.268,1.243c0.068,0.448,0.312,0.888,0.587,1.354
		c0.276,0.466,0.466,0.776,0.768,1.147c0.303,0.372,0.476,0.638,0.752,0.862c0.275,0.225,0.379,0.328,0.638,0.612
		c0.259,0.285,0.474,0.501,0.81,0.674c0.337,0.173,0.449,0.552,0.717,0.871s0.544,0.553,0.854,0.698
		c0.31,0.148,0.397,0.217,0.768,0.362c0.37,0.147,0.353,0.311,0.328,0.648c-0.026,0.336,0.189,0.473,0.396,0.508
		c0.208,0.035,0.337,0.147,0.484,0.312c0.146,0.163,0.604,0.249,0.826,0.293c0.226,0.043,0.511,0.11,0.631,0.293
		c0.121,0.182,0.121,0.225,0.269,0.259c0.146,0.035,0.206,0.189,0.275,0.319c0.068,0.13,0.096,0.155,0.371,0.25
		c0.276,0.095,0.811,0.087,1.19,0.111c0.379,0.027,0.804-0.007,1.218,0.062c0.413,0.069,0.87,0.052,1.06,0.018
		c0.19-0.035,0.484-0.199,0.795-0.207c0.31-0.01,0.741,0.034,1.077,0.034c0.337,0,0.898-0.086,1.129-0.173
		c0.234-0.086,0.502-0.061,0.613-0.061c0.112,0,0.156-0.087,0.329-0.094c0.173-0.01,0.197,0.18,0.414,0.266
		c0.215,0.088,0.396,0.121,0.518,0.294c0.12,0.173,0.258,0.39,0.363,0.553c0.103,0.164,0.024,0.457-0.018,0.647
		c-0.044,0.189-0.044,0.318-0.19,0.431s-0.414,0.188-0.578,0.311c-0.165,0.121-0.242,0.319-0.439,0.492
		c-0.2,0.172-0.424,0.146-0.598,0.259c-0.171,0.111-0.386,0.448-0.447,0.812c-0.06,0.362,0.294,0.854,0.535,1.06
		c0.241,0.209,0.69,0.303,0.967,0.371c0.276,0.069,0.543,0.414,0.724,0.777c0.183,0.362,0.275,0.655,0.552,0.785
		s0.406,0.259,0.406,0.259s0,0,0.224-0.009c0.226-0.009,0.269,0.241,0.269,0.241s0.181,0.096,0.56,0.199
		c0.379,0.103,0.631,0.293,0.881,0.448s0.794,0.31,1.13,0.423c0.337,0.111,0.5,0.207,0.769,0.207c0.266,0,0.379,0.121,0.474,0.198
		c0.096,0.078,0.155,0.164,0.345,0.164c0.19,0,0.396,0,0.587,0s0.285,0.19,0.285,0.19s0,0,0.129,0c0.13,0,0.268,0.128,0.396,0.198
		c0.13,0.067,0.535,0.258,0.812,0.258c0.275,0,0.75,0.294,1.062,0.482c0.311,0.19,0.51,0.441,0.75,0.553
		c0.241,0.113,0.293,0.164,0.587,0.423s0.327,0.362,0.724,0.492c0.398,0.129,0.432,0.31,0.69,0.525s0.718,0.319,0.993,0.354
		c0.276,0.035,0.646,0.13,0.741,0.225c0.095,0.094,0.346,0.231,0.414,0.225c0.068-0.009,0.319,0.06,0.534,0.293
		c0.217,0.232,0.484,0.216,0.596,0.216c0.112,0,0.276-0.07,0.304,0.034c0.025,0.104,0.025,0.13,0.12,0.198
		c0.094,0.069-0.009,0.19,0.033,0.19c0.045,0,0.233-0.078,0.441-0.096c0.206-0.017,0.448,0.138,0.517,0.474
		c0.07,0.337,0.182,0.502,0.345,0.648c0.165,0.146,0.674,0.362,0.924,0.474c0.25,0.113,0.526,0.354,0.75,0.596
		c0.226,0.242,0.304,0.346,0.44,0.467c0.139,0.12,0.207,0.129,0.259,0.24c0.052,0.112,0.164,0.226,0.327,0.328
		c0.164,0.104,0.347,0.207,0.442,0.405c0.093,0.198,0.12,0.544,0.136,0.733c0.018,0.189,0.337,0.448,0.52,0.683
		c0.18,0.231,0.018,0.56-0.148,0.697c-0.162,0.138-0.283,0.354-0.344,0.622c-0.061,0.267-0.035,0.432-0.121,0.612
		c-0.087,0.182-0.181,0.31-0.13,0.518c0.053,0.207,0.025,0.578,0.07,0.931c0.042,0.355-0.027,0.605-0.294,0.752
		c-0.269,0.146-0.433,0.068-0.544-0.138c-0.113-0.207-0.423-0.269-0.673-0.269c-0.252,0-0.362-0.06-0.458-0.172
		c-0.095-0.112-0.275-0.216-0.466-0.242c-0.189-0.025-0.345-0.268-0.388-0.414s-0.346-0.302-0.466-0.388
		c-0.121-0.086-0.217-0.39-0.146-0.638c0.068-0.252-0.13-0.449-0.19-0.51s-0.181-0.096-0.104-0.251
		c0.078-0.155,0.086-0.206,0.086-0.361s-0.31-0.381-0.517-0.492c-0.206-0.113-0.217-0.131-0.259-0.275
		c-0.043-0.147,0.008-0.252-0.061-0.346c-0.068-0.095-0.12-0.112-0.024-0.275c0.093-0.165-0.339-0.199-0.563-0.311
		c-0.223-0.113-0.37-0.217-0.611-0.234c-0.241-0.017-0.699,0-0.949,0.079c-0.249,0.076-0.535,0.059-0.75,0.12
		c-0.217,0.06-0.329,0.163-0.475,0.024c-0.146-0.137-0.397-0.206-0.639-0.214c-0.241-0.01-0.346-0.104-0.64-0.285
		s-0.56-0.138-0.759-0.251c-0.197-0.111-0.438-0.241-0.568-0.301c-0.129-0.061,0.147-0.527,0.284-0.655
		c0.14-0.131,0.414-0.208,0.397-0.312c-0.017-0.103-0.526-0.008-0.69,0.07c-0.164,0.076-0.328,0.094-0.414-0.053
		c-0.087-0.146-0.423-0.164-0.657-0.164c-0.23,0-0.8,0.458-1.06,0.664c-0.259,0.208-0.466,0.578-0.604,0.838
		c-0.138,0.259-0.215,0.482-0.449,0.724c-0.23,0.242-0.344,0.405-0.344,0.707c0,0.303-0.078,0.397-0.224,0.544
		c-0.147,0.147-0.183,0.293-0.294,0.535c-0.112,0.241-0.328,0.302-0.544,0.62c-0.216,0.32-0.068,0.623,0.035,0.795
		c0.103,0.172,0.077,0.38,0.042,0.802c-0.035,0.423-0.128,0.596-0.344,0.811c-0.216,0.217-0.312,0.467-0.406,0.761
		c-0.096,0.293-0.173,0.611-0.096,0.775c0.078,0.163,0.199,0.318,0.226,0.535c0.026,0.216,0.171,0.405,0.475,0.509
		c0.301,0.104,0.57,0.061,0.939,0.069c0.371,0.009,0.76,0.25,1.036,0.544c0.276,0.293,0.387,0.422,0.673,0.561
		c0.283,0.138,0.414,0.249,0.759,0.336c0.346,0.086,0.484,0.172,0.587,0.311c0.104,0.138,0.25,0.345,0.354,0.414
		c0.103,0.069,0.319,0.112,0.492,0.268c0.172,0.155,0.086,0.501-0.018,0.726c-0.103,0.224-0.078,0.56,0.018,0.802
		c0.095,0.241,0.111,0.594,0.034,0.828c-0.077,0.232-0.137,0.431,0.052,0.914c0.189,0.483,0.431,0.526,0.586,0.526
		s0.173,0.146,0.113,0.275c-0.061,0.131-0.233,0.173-0.226,0.337c0.01,0.164,0.035,0.284-0.051,0.38
		c-0.087,0.095-0.198,0.189-0.328,0.379c-0.129,0.19-0.294,0.173-0.406,0.062c-0.111-0.113-0.241-0.062-0.326-0.01
		c-0.088,0.052-0.164,0.026-0.312-0.128c-0.146-0.156-0.423-0.122-0.664-0.069c-0.242,0.052-0.785,0.31-1.14,0.543
		c-0.353,0.232-0.837,0.475-1.111,0.707c-0.278,0.233-0.398,0.527-0.381,0.665c0.018,0.139-0.12,0.466-0.181,0.552
		c-0.061,0.087-0.096,0.448,0,0.526c0.095,0.077,0.301,0.448,0.301,0.732c0,0.285,0.096,0.665,0.131,1.208
		c0.035,0.545-0.182,0.725-0.302,0.967c-0.12,0.241-0.312,0.474-0.69,0.785c-0.381,0.31-0.785,0.447-1.132,0.621
		c-0.344,0.172-0.654,0.707-0.888,1.061c-0.232,0.354-0.164,0.562-0.259,0.776c-0.094,0.216-0.293,0.492-0.241,0.707
		c0.053,0.217,0.01,0.458-0.085,0.613c-0.096,0.155-0.148,0.284-0.304,0.569c-0.154,0.284-0.284,0.466-0.475,0.519
		c-0.188,0.051-0.612-0.01-0.896-0.061c-0.283-0.053-0.836,0.095-1.087,0.146c-0.251,0.053-0.577-0.111-0.708-0.172
		c-0.128-0.061-0.361-0.13-0.465-0.233c-0.105-0.103-0.095-0.172-0.208-0.259c-0.112-0.086-0.241-0.216-0.224-0.388
		c0.018-0.173,0.12-0.406,0.008-0.604c-0.112-0.199-0.146-0.459,0.026-0.656c0.172-0.199,0.086-0.457-0.009-0.846
		c-0.095-0.388,0.345-0.535,0.69-0.646c0.345-0.112,0.482-0.328,0.673-0.665c0.19-0.336,0.241-0.828,0.475-1.19
		c0.233-0.361,0.269-0.768,0.206-1.198c-0.058-0.432-0.387-0.588-0.568-0.742c-0.182-0.156-0.095-0.475,0.129-0.681
		c0.226-0.208,0.457-0.104,0.812-0.415c0.354-0.311,0.689-0.302,1.259-0.371c0.57-0.068,0.518-0.362,0.605-0.639
		c0.085-0.276,0.188-0.457,0.258-0.854c0.068-0.397-0.19-0.604-0.388-0.733c-0.199-0.131-0.268-0.138-0.327-0.311
		c-0.062-0.173-0.105-0.268-0.234-0.363c-0.129-0.094-0.311-0.311-0.336-0.568c-0.027-0.26-0.12-0.665-0.173-1.165
		c-0.052-0.5-0.095-0.63-0.146-1.01c-0.052-0.379-0.052-0.568-0.121-0.81c-0.068-0.242-0.276-0.631-0.44-0.967
		c-0.163-0.338-0.509-0.759-0.758-0.966c-0.251-0.208-0.612-0.682-0.63-0.924c-0.018-0.241-0.259-0.457-0.425-0.707
		c-0.162-0.251-0.171-0.569-0.146-0.838c0.025-0.267-0.12-0.577-0.164-0.663c-0.043-0.086-0.197-0.208-0.069-0.414
		c0.131-0.208,0.035-0.191-0.018-0.509c-0.051-0.319-0.215-0.414-0.309-0.424c-0.095-0.008-0.225-0.104-0.225-0.225
		s-0.129-0.336-0.225-0.404c-0.096-0.069-0.233-0.182-0.475-0.545c-0.242-0.361-0.63-0.276-0.991-0.172
		c-0.363,0.103-0.562,0.518-0.795,0.751c-0.232,0.231-0.638,0.017-0.836-0.104c-0.199-0.121-0.276-0.095-0.354-0.068
		c-0.077,0.025-0.206-0.044-0.121-0.148c0.086-0.103,0.113-0.138,0.061-0.197c-0.052-0.062-0.172-0.182-0.361-0.432
		c-0.19-0.25-0.304-0.25-0.501-0.268c-0.199-0.018-0.38-0.328-0.476-0.448c-0.095-0.121-0.5-0.069-0.707-0.069
		s-0.361-0.215-0.508-0.423c-0.146-0.206-0.197-0.215-0.423-0.249c-0.225-0.034-0.199-0.269-0.104-0.381
		c0.095-0.112,0.13-0.224,0.12-0.423c-0.008-0.197,0-0.25,0.163-0.414c0.166-0.163,0.155-0.474,0.123-0.698
		c-0.035-0.225-0.123-0.405-0.216-0.483c-0.096-0.077-0.304-0.336-0.354-0.638c-0.053-0.302-0.226-0.57-0.414-0.847
		c-0.19-0.275-0.44-0.491-0.785-0.732c-0.346-0.241-0.5,0.008-0.596,0.163c-0.095,0.155-0.285,0.294-0.389,0.207
		c-0.103-0.086-0.258-0.017-0.5,0.104c-0.24,0.12-0.526,0.268-0.69,0.224c-0.164-0.043-0.37-0.121-0.525,0.026
		c-0.156,0.146-0.285,0.25-0.433,0.242C62.604,71.4,62.51,71.6,62.39,71.6c-0.121,0,0.008-0.44,0.146-0.526
		c0.14-0.087,0.312-0.215,0.477-0.457c0.163-0.242,0.301-0.432,0.274-0.657c-0.025-0.223-0.396-0.172-0.525-0.258
		c-0.13-0.086-0.19-0.422-0.294-0.553c-0.103-0.128-0.345-0.172-0.5-0.336s-0.259-0.085-0.448-0.034
		c-0.19,0.052-0.269,0.483-0.389,0.509c-0.121,0.026-0.327-0.198-0.57-0.337c-0.241-0.138-0.283,0.13-0.249,0.406
		c0.035,0.276-0.12,0.224-0.269,0.017c-0.146-0.207-0.017-0.362-0.06-0.474c-0.043-0.112-0.275-0.519-0.337-0.803
		c-0.06-0.285-0.354-0.604-0.491-0.742c-0.138-0.139-0.285-0.388-0.362-0.698c-0.077-0.312-0.207-0.553-0.396-0.732
		c-0.19-0.182-0.165-0.191-0.474-0.674c-0.312-0.483-0.631-0.448-0.743-0.448c-0.113,0-0.294,0.129-0.449,0.129
		c-0.153,0-0.337-0.129-0.482-0.129c-0.146,0-0.499,0.103-0.319,0.259c0.182,0.155-0.06,0.215-0.413,0.173
		c-0.354-0.044-0.666-0.39-0.898-0.579c-0.232-0.19-0.759-0.242-0.932-0.208c-0.171,0.035-0.267,0.147-0.517,0.147
		c-0.252,0-0.397,0.087-0.562,0.216c-0.165,0.13-0.31,0.311-0.491,0.406c-0.181,0.095-0.467,0.052-0.467-0.062
		c0-0.111-0.138-0.552-0.301-0.87c-0.164-0.319-0.431-0.604-0.604-0.769c-0.173-0.163-0.475-0.301-0.621-0.284
		c-0.147,0.017-0.258-0.061-0.396-0.061c-0.138,0-0.258,0.146-0.406,0.138c-0.146-0.009-0.329-0.638-0.422-1.276
		c-0.096-0.639-0.105-1.218-0.303-1.476c-0.198-0.259-0.379-0.163-0.612-0.052c-0.232,0.112-0.267-0.094-0.508-0.544
		c-0.243-0.448-0.535-0.793-0.803-1.104c-0.269-0.311-0.698-0.698-1.027-0.966c-0.329-0.267-0.5-0.233-0.656-0.362
		c-0.155-0.13-0.198-0.327-0.224-0.612c-0.026-0.285-0.207-0.682-0.38-0.881c-0.171-0.197-0.525-0.421-0.708-0.732
		c-0.181-0.312-0.5-0.648-0.844-0.897c-0.346-0.25-0.597-0.164-0.906-0.112c-0.311,0.052-0.484-0.198-0.579-0.457
		c-0.093-0.259-0.284-0.587-0.43-0.742c-0.147-0.156-0.13-0.448-0.311-0.957c-0.181-0.51-0.484-0.889-0.743-1.157
		c-0.259-0.267-0.492-0.397-0.829-0.466s-0.724-0.189-1.017-0.363c-0.293-0.172-0.329-0.37-0.441-0.414
		c-0.111-0.043-0.37,0.138-0.43,0.286c-0.06,0.146-0.052,0.327-0.208,0.405c-0.155,0.078-0.284-0.078-0.379-0.146
		c-0.095-0.07-0.329-0.044-0.362-0.354c-0.035-0.311,0.146-0.354,0.465-0.414c0.319-0.06,0.286-0.492,0.233-0.906
		c-0.052-0.414-0.276-0.251-0.449-0.345c-0.171-0.094-0.068-0.38-0.181-0.561c-0.113-0.181-0.449-0.259-0.673-0.422
		c-0.224-0.165-0.103-0.492-0.258-0.751s-0.665-0.362-1.242-0.552c-0.578-0.19-0.5-0.354-0.492-0.535
		c0.009-0.182,0.146-0.156,0.095-0.311c-0.052-0.156-0.025-0.241,0.043-0.415c0.068-0.173-0.068-0.371-0.19-0.535
		c-0.121-0.164-0.128-0.276-0.482-0.396s-0.578-0.044-0.828-0.061c-0.251-0.017-0.146,0.112-0.164,0.224
		c-0.017,0.113-0.181,0.251-0.389,0.061c-0.206-0.19-0.155-0.482-0.008-0.768c0.146-0.284,0.231-0.613,0.216-0.992
		c-0.018-0.379,0.025-0.76,0.016-1.122c-0.008-0.362-0.068-0.698-0.249-0.854c-0.181-0.155-0.165-0.422-0.181-0.595
		c-0.018-0.173-0.121-0.432-0.329-0.544c-0.207-0.111-0.251-0.336-0.345-0.525c-0.095-0.19-0.26-0.208-0.398-0.32
		c-0.137-0.112-0.267-0.596-0.207-0.837c0.061-0.241,0.078-0.534,0.035-0.741c-0.043-0.207-0.13-0.363-0.13-0.604
		s0.07-0.57,0.07-1.122s-0.216-1.242-0.432-1.526c-0.216-0.285-0.569-0.906-0.888-1.277s-0.64-0.319-0.863-0.319
		s-0.319-0.379-0.587-0.543c-0.267-0.165-0.422-0.293-0.525-0.276c-0.104,0.017,0.068,0.38-0.035,0.483s-0.517-0.302-0.828-0.595
		c-0.312-0.293-0.44-0.293-0.587-0.242c-0.146,0.052-0.164-0.06-0.276-0.31c-0.111-0.251-0.276-0.319-0.569-0.544
		c-0.292-0.224-0.482-0.379-0.664-0.474c-0.181-0.095-0.354-0.181-0.362-0.345c-0.009-0.164-0.087-0.25-0.233-0.354
		c-0.147-0.104-0.483-0.276-0.595-0.405c-0.112-0.129-0.441-0.086-0.449,0.189c-0.009,0.276-0.173,0.121-0.336,0.043
		c-0.163-0.078-0.13-0.19-0.155-0.388s-0.622-0.327-0.992-0.448c-0.371-0.121-1.026-0.336-1.234-0.5
		c-0.206-0.165-0.638-0.225-0.854-0.122c-0.216,0.104-0.267,0.276-0.422,0.276c-0.156,0-0.269,0.026-0.414,0.173
		c-0.148,0.147-0.269,0.198-0.424,0.233c-0.155,0.034-0.301,0.051-0.414,0.232c-0.112,0.181-0.293,0.051-0.457,0.129
		c-0.164,0.078-0.258,0.293-0.198,0.423s0.069,0.354-0.164,0.432c-0.232,0.078-0.156,0.353-0.225,0.543
		c-0.068,0.19-0.345,0.389-0.776,0.397c-0.432,0.009-0.63,0.405-0.699,0.595c-0.069,0.19-0.096,0.319-0.303,0.5
		c-0.207,0.182-0.328,0.328-0.371,0.561c-0.042,0.233-0.121,0.432-0.275,0.517c-0.156,0.087-0.405,0.147-0.543,0.372
		c-0.138,0.224-0.294,0.276-0.475,0.301c-0.182,0.026-0.786,0.259-1.044,0.346c-0.258,0.086-0.414,0.043-0.612,0.008
		c-0.198-0.034-0.379,0.156-0.5,0.208c-0.121,0.051-0.285-0.018-0.475,0.068c-0.189,0.086-0.345,0.155-0.457,0.069
		s-0.276-0.104-0.5-0.104c-0.224,0-0.285-0.206-0.336-0.482c-0.052-0.276-0.025-0.57,0.147-1.001
		c0.172-0.431,0.328-0.742,0.552-1.164s0.475-0.776,0.621-1.243c0.146-0.465-0.362-0.509-0.612-0.319
		c-0.251,0.191-0.794,0.379-1.096,0.432c-0.303,0.051-1.148-0.078-1.312-0.285c-0.164-0.207-0.595-0.267-0.837-0.285
		c-0.241-0.018-0.724-0.509-1.268-1.044c-0.543-0.535-1.208-1.32-1.398-1.587c-0.189-0.268-0.112-0.639-0.009-0.829
		c0.104-0.19,0.242-0.595,0.397-0.871c0.155-0.276,0.414-0.552,0.837-0.716c0.423-0.165,1.01-0.328,1.13-0.992
		s-0.207-0.984-0.734-1.208c-0.526-0.224-1.103-0.724-1.259-0.949c-0.156-0.224-0.009-0.69-0.035-1.018
		c-0.025-0.328-0.5-0.639-0.759-0.837c-0.26-0.198-0.346-0.465-0.293-0.68c0.051-0.216,0.768-0.052,1.208-0.07
		c0.44-0.017,1.13-0.216,1.467-0.449c0.336-0.232,0.595-0.354,1.043-0.734c0.449-0.379,0.449-1.095,0.44-1.414
		c-0.009-0.319-0.165-0.898-0.406-1.277c-0.242-0.379-0.216-0.811-0.155-1.173c0.06-0.363-0.138-0.707-0.336-0.811
		c-0.198-0.104-0.552-0.017-0.829-0.078c-0.276-0.06-0.543-0.474-0.543-0.958c0-0.482,0.302-0.846,0.699-1.216
		C5.685,9.683,6.237,9.648,6.418,9.7c0.182,0.052,0.276,0.371,0.44,0.458c0.164,0.086,0.569,0.034,1.026,0.008
		c0.457-0.025,1.363-0.138,1.708-0.207c0.345-0.069,1.57-0.208,1.967-0.165c0.396,0.044,0.915,0.484,1.269,0.674
		c0.354,0.19,0.397-0.051,0.622-0.458c0.224-0.405,0.629-0.362,0.845-0.354c0.216,0.009,0.449-0.327,0.492-0.491
		c0.043-0.165,0.328-0.406,0.708-0.561c0.379-0.156,0.285-0.328,0.25-0.578c-0.035-0.251-0.415-0.846-0.449-1.019
		c-0.035-0.172,0.656-0.672,1.147-1.017c0.492-0.346,1.405-1.079,1.699-1.269c0.293-0.189,0.371-0.018,0.449,0.302
		c0.078,0.319,0.043,1.293,0.156,2.251c0.111,0.957,0.492,1.381,0.716,1.527c0.224,0.147,0.742-0.051,0.957-0.051
		c0.217,0,0.614,0.242,0.665,0.5c0.053,0.259-0.241,0.492-0.432,0.673c-0.188,0.181-0.457,0.414-0.457,0.414s0.13,0.008,0.329,0.035
		c0.198,0.025,0.448,0.267,0.621,0.491c0.173,0.224,0.25,0.837,0.156,1c-0.096,0.164-0.199,0.13,0.042,0.293
		c0.241,0.164,0.57,0.078,0.811-0.198c0.243-0.276,0.07-0.906-0.051-1.536c-0.121-0.629-0.009-0.63,0.259-0.69
		c0.267-0.061,0.457-0.37,0.724-0.69C23.353,8.725,23.88,8,24.121,7.57c0.241-0.432,0.344-1.183,0.311-1.45
		c-0.035-0.267-0.095-0.613,0.033-0.949c0.13-0.336,0.855-0.042,1.097,0.07s0.156,0.431,0.113,0.768
		C25.632,6.344,25.7,7.06,25.881,7.259c0.181,0.198,0.655,0.474,1.051,0.439c0.397-0.034,0.743-0.397,1.192-0.725
		c0.448-0.328,0.621-0.276,0.915-0.165c0.293,0.113,0.25,0.648,0.232,0.959c-0.017,0.31,0.138,0.698,0.475,0.664
		s0.311-0.225,0.302-0.759c-0.008-0.535-0.035-0.57,0.173-0.726c0.206-0.155,0.085-0.5-0.078-0.698
		c-0.166-0.198-0.148-0.414-0.095-0.69c0.052-0.276,0.241-1.14,0.595-1.45c0.354-0.31,0.881-0.051,1.037,0.13
		c0.154,0.181,0.267,0.449,0.681,0.655c0.414,0.208,0.803,0.06,0.949-0.422c0.147-0.483-0.5-0.647-0.604-0.725
		c-0.104-0.078,0.302-0.535,0.432-0.836c0.128-0.302,0.267-0.665,0.327-0.889c0.061-0.225,0.025-0.587,0.113-0.63
		c0.085-0.043,0.475,0.258,0.673,0.432c0.198,0.171,0.5-0.19,0.613-0.19c0.112,0,0.448,0.329,0.422,0.612
		c-0.025,0.285,0.165,0.345,0.466,0.389c0.301,0.043,0.836,0.232,1.172,0.267c0.337,0.035,0.553-0.215,0.977-0.595
		c0.422-0.379,0.603-0.914,0.775-1.32c0.173-0.405,0.803-0.353,1.346-0.336c0.544,0.017,1.104,0.095,1.562,0.13
		c0.457,0.034,1.45-0.104,1.925-0.198c0.475-0.095,1.086-0.293,1.458-0.415c0.37-0.12,0.897-0.275,1.07-0.06
		c0.171,0.216,0.033,0.56-0.044,0.811c-0.076,0.25,0.233,0.829,0.414,0.966c0.183,0.138,0.537,0.431,0.544,0.613
		c0.01,0.181-0.008,0.457,0.146,0.595c0.156,0.138,0.389,0.362,0.519,0.604c0.129,0.242,0.698,0.483,0.957,0.613
		c0.258,0.129,0.768,0.302,1.037,0.302c0.266,0,0.904,0.121,1.224,0.276c0.318,0.155,0.706,0.327,1.008,0.354
		c0.302,0.025,0.906,0.061,1.312,0.068c0.405,0.009,0.819,0.259,1.078,0.354s0.682-0.008,1.183-0.008
		c0.499,0,1.621,0.249,1.785,0.327c0.163,0.078,0.347,0.388,0.163,0.742c-0.181,0.354-0.646,0.535-0.938,0.768
		c-0.294,0.232-0.898,0.457-1.097,0.819c-0.199,0.363,0.13,0.786,0.268,0.872c0.139,0.086,0.939,0.224,1.018,0.604
		c0.077,0.379-0.138,0.535-0.396,0.768c-0.26,0.233-0.448,0.742-0.424,1.139c0.026,0.398,0.25,0.363,0.406,0.207
		c0.155-0.155,0.328-0.078,0.561,0c0.234,0.078,0.112,0.811-0.017,0.94c-0.13,0.129-0.38,0.372-0.276,0.586
		c0.103,0.216,0.552,0.458,0.949,0.708c0.396,0.251,0.846,0.717,0.957,0.967c0.112,0.25-0.026,0.845-0.285,0.966
		c-0.258,0.121-0.888,0.121-0.74-0.25c0.146-0.37-0.062-0.508-0.105-0.681c-0.042-0.173-0.318-0.25-0.465-0.527
		c-0.146-0.276-0.268-0.362-0.491-0.344c-0.226,0.017-0.148,0.276-0.19,0.448c-0.043,0.172-0.327,0.285-0.414,0.121
		c-0.086-0.164-0.449-0.276-0.638-0.267c-0.191,0.009-0.518-0.078-0.768-0.198c-0.252-0.121-0.709-0.147-0.872-0.113
		c-0.165,0.035-0.173-0.138-0.301-0.146c-0.131-0.008-0.19,0.294-0.347,0.595c-0.155,0.302,0.095,0.241,0.406,0.259
		c0.31,0.018-0.226,0.449-0.458,0.578c-0.232,0.13-0.518,0.121-0.655,0.069c-0.139-0.052-0.241-0.052-0.312,0.034
		c-0.068,0.086-0.172,0.129-0.276,0.182c-0.104,0.052-0.146,0.164-0.266,0.25c-0.121,0.086-0.216,0.129-0.629,0.328
		c-0.414,0.198-0.819,0.363-1.25,0.552c-0.432,0.19-0.75,0.397-1.001,0.51c-0.251,0.112-0.552,0.292-0.647,0.216
		c-0.095-0.078,0.147-0.346,0.233-0.397c0.086-0.052,0.293-0.259,0.362-0.449c0.07-0.19,0.13-0.095,0.303-0.302
		c0.171-0.207,0.017-0.225-0.165-0.225c-0.181,0-0.5,0.329-0.628,0.415c-0.13,0.086-0.216,0.095-0.233,0.009
		c-0.018-0.087-0.311,0.051-0.432,0.164s-0.181,0.389-0.181,0.389s0.111,0.077,0.111,0.224s0,0.294-0.249,0.372
		c-0.251,0.078-0.415-0.122-0.415-0.122s-0.112,0.277-0.155,0.44c-0.043,0.164-0.269,0.328-0.475,0.379
		c-0.208,0.052-0.406,0.104-0.484,0.311c-0.078,0.207,0.173,0.362,0.233,0.415c0.061,0.051-0.06,0.258,0.103,0.327
		c0.166,0.069,0.156-0.146,0.337-0.129c0.182,0.018,0.095,0.155,0.112,0.319c0.018,0.164,0.018,0.155-0.035,0.259
		c-0.051,0.104,0.155,0.19,0.155,0.19s0.078-0.104,0.105-0.147c0.025-0.043,0.249-0.146,0.405,0.009
		c0.155,0.156-0.035,0.405-0.035,0.405s0,0,0.061,0.155c0.06,0.156,0,0.251-0.116,0.276c-0.116,0.026-0.078,0.155,0.025,0.22
		c0.103,0.064,0.271,0.052,0.402,0.259c0.13,0.206,0.258,0.22,0.492,0.388c0.233,0.168,0.22,0.233,0.362,0.634
		c0.143,0.402,0.027,0.492-0.129,0.699c-0.155,0.207-0.09,0.4-0.09,0.608c0,0.207-0.13,0.143-0.143-0.116
		c-0.013-0.26,0-0.505-0.09-0.505s-0.181,0.246-0.233,0.441c-0.052,0.194,0.143,0.479,0.13,0.686
		c-0.014,0.207-0.182,0.233-0.351,0.22c-0.168-0.013-0.206-0.142-0.258-0.375c-0.051-0.233-0.246-0.272-0.427-0.22
		c-0.181,0.052-0.297-0.013-0.517,0.064c-0.221,0.078,0.09,0.156,0.258,0.285c0.168,0.129,0.052,0.414-0.052,0.711
		c-0.103,0.298-0.025,0.634,0.117,0.971c0.143,0.336,0.156,0.75,0.128,1.034c-0.025,0.285-0.063,0.389-0.063,0.635
		s-0.078,0.284,0,0.492c0.078,0.206,0.219,0.426,0.232,0.621c0.014,0.194-0.026,0.504,0.04,0.608
		c0.065,0.104,0.193,0.285,0.22,0.633c0.025,0.35,0.181,0.505,0.415,0.803c0.231,0.297,0.385,0.458,0.582,0.737
		C47.754,31.677,47.958,31.88,48.241,32.114z"/>
</g>
<g id="Layer_1">
</g>
</svg>
