<?xml version="1.0" encoding="iso-8859-1"?>
<!-- Generator: Adobe Illustrator 16.0.3, SVG Export Plug-In . SVG Version: 6.00 Build 0)  -->
<!DOCTYPE svg PUBLIC "-//W3C//DTD SVG 1.1//EN" "http://www.w3.org/Graphics/SVG/1.1/DTD/svg11.dtd">
<svg version="1.1" xmlns="http://www.w3.org/2000/svg" xmlns:xlink="http://www.w3.org/1999/xlink" x="0px" y="0px" width="100px"
	 height="100px" viewBox="0 0 100 100" style="enable-background:new 0 0 100 100;" xml:space="preserve">
<g id="JP">
	<g>
		<path style="fill-rule:evenodd;clip-rule:evenodd;fill:#010101;" d="M74.085,0c0.135,0,0.27,0,0.405,0
			c0.089,0.888,1.212,1.687,2.231,2.739c0.607,2.914,6.105,7.153,8.011,7.609c-0.033-0.135-0.067-0.271-0.102-0.406
			c0.542,0.135,1.082,0.271,1.623,0.406c0.027,0.32,0.09,0.619,0.305,1.015c0.812,0.033,1.623,0.067,2.434,0.101
			c0.99-0.344,1.7-1.921,2.84-2.84c-0.13,1.46-1.107,2.51-1.42,3.652c-0.398,1.453,1.676,1.892,0.912,3.551
			c0.184-0.006,1.284,0.14,1.623,0.406c-0.148,0.317-0.189,0.36-0.203,0.609c-0.881-0.151-2.024-0.007-1.927,0.71
			c0,0.034,0,0.067,0,0.102c-0.628,0.104-0.7,0.354-1.014,0.406c-0.169,0-0.339,0-0.507,0c0.033-0.068,0.066-0.135,0.102-0.203
			c0.298-0.059,0.192,0.09,0.405-0.304c-0.494,0.081-0.236,0.03-0.608-0.102c-0.209,0.423-0.387,0.351-0.608,0.71
			c0.135,0.135,0.27,0.271,0.405,0.406c-1.428-0.019-2.383-0.108-3.043-0.507c-1.976,0.932-3.506,2.768-4.36,4.058
			c-0.408,0.617,0.188,2.397-0.71,3.247c-0.372-0.406-0.743-0.812-1.115-1.218C78.829,24.21,77,23.298,76.62,22.929
			c-2.387-2.317-4.566-3.385-7.1,0c-0.033-0.067-0.066-0.135-0.101-0.203c-0.691-0.565-0.817-1.237-1.318-1.725
			c-0.507,0-1.014,0-1.521,0c-0.178,0.856-0.864,0.89-0.608,2.435c0.997,0.125,4.049,2.531,4.26,2.435
			c0.034,0.237,0.067,0.474,0.101,0.71c-1.218,0.162-1.178,0.346-2.737-0.304c-0.255,0.655-0.282,0.697-0.913,0.812
			c-0.082,0.41,0.044,1-0.304,1.319c-0.474,0.053-0.578,0.311-1.015,0.609c-0.738-0.132-1.002-0.345-1.115-1.42
			c0.442-0.351,0.532-1.036,0.913-1.623c-0.396-1.462-0.9-2.231-1.927-2.638c0.124-0.833,0.118-1.418,0.405-2.942
			c0.798-0.007,1.297-0.552,1.724-1.116c0.199,0.25,0.058,0.041,0.102,0.304c0.135,0,0.271,0,0.406,0
			c0.237-0.889,1.194-1.269,1.115-1.521c0.011-0.311-0.889-1.554-0.812-1.623c0-0.237,0-0.474,0-0.71
			c0.622-0.046,0.48-0.085,0.608-0.304c1.726,0.798,0.771,0.986,2.839,1.015c0.123,0.446,0.164,0.449,0.609,0.507
			c0.202,0,0.405,0,0.607,0c0.305-0.372,0.609-0.744,0.913-1.116c-0.61-1.206-0.512-2.313-0.405-3.449
			c2.096-0.502,1.084-1.619,1.42-3.653c1.67-1.831,0.011-4.636-0.405-6.594c0.562-0.25,0.43-0.876,0.405-1.624
			c0.331,0.272,0.38,0.189,0.913,0.406C73.82,0.565,74.045,0.443,74.085,0z"/>
		<path style="fill-rule:evenodd;clip-rule:evenodd;fill:#010101;" d="M69.42,0.609c0.136,0,0.271,0,0.405,0
			c-0.033,0.237-0.067,0.474-0.102,0.71c0.022,0.337,0.095,0.233-0.102,0.507C69.556,1.42,69.487,1.015,69.42,0.609z"/>
		<path style="fill-rule:evenodd;clip-rule:evenodd;fill:#010101;" d="M70.434,1.826c0.034,0.068,0.067,0.135,0.102,0.203
			C70.501,1.961,70.468,1.894,70.434,1.826z"/>
		<path style="fill-rule:evenodd;clip-rule:evenodd;fill:#010101;" d="M70.637,1.928c0.312,0.264,0.466,0.346,0.608,0.812
			c-0.168,0.135-0.338,0.271-0.507,0.406c-0.169-0.169-0.338-0.338-0.507-0.507c0-0.169,0-0.338,0-0.507
			C70.366,2.063,70.502,1.996,70.637,1.928z"/>
		<path style="fill-rule:evenodd;clip-rule:evenodd;fill:#010101;" d="M83.312,9.537c0.136,0.067,0.271,0.135,0.406,0.203
			C83.583,9.672,83.448,9.604,83.312,9.537z"/>
		<path style="fill-rule:evenodd;clip-rule:evenodd;fill:#010101;" d="M84.022,9.74c0.318,0.103,0.325,0.084,0.508,0.305
			C84.361,9.943,84.192,9.841,84.022,9.74z"/>
		<path style="fill-rule:evenodd;clip-rule:evenodd;fill:#010101;" d="M85.646,10.349c-0.102,0.169-0.203,0.338-0.305,0.507
			c0.102,0.034,0.203,0.067,0.305,0.102c0.198-0.25,0.058-0.042,0.102-0.305c0.067-0.034,0.136-0.068,0.202-0.101
			C85.848,10.483,85.747,10.416,85.646,10.349z"/>
		<path style="fill-rule:evenodd;clip-rule:evenodd;fill:#010101;" d="M93.454,15.32c0.203,0.034,0.405,0.067,0.608,0.102
			c0,0.033,0,0.067,0,0.102c-0.254,0.22-0.955,0.808-1.217,0.203C93.049,15.59,93.251,15.455,93.454,15.32z"/>
		<path style="fill-rule:evenodd;clip-rule:evenodd;fill:#010101;" d="M61.611,23.436c0.135,0.067,0.271,0.135,0.406,0.203
			c-0.155,0.402-0.193,0.495-0.305,0.609c-0.1,0.104-0.102,0.102-0.102,0.102c-0.307-0.184-0.178-0.406-0.203-0.812
			c0.067,0.034,0.136,0.067,0.203,0.101C61.611,23.571,61.611,23.503,61.611,23.436z"/>
		<path style="fill-rule:evenodd;clip-rule:evenodd;fill:#010101;" d="M80.98,25.364c0.034,0.067,0.068,0.135,0.102,0.203
			C81.049,25.499,81.015,25.431,80.98,25.364z"/>
		<path style="fill-rule:evenodd;clip-rule:evenodd;fill:#010101;" d="M67.898,26.683c0.067,0,0.136,0,0.203,0
			C68.034,26.683,67.966,26.683,67.898,26.683z"/>
		<path style="fill-rule:evenodd;clip-rule:evenodd;fill:#010101;" d="M61.003,28.205c0.28,0.136,0.03,0.064,0.305,0.101
			c-0.068,0.102-0.136,0.203-0.203,0.305c-0.067-0.068-0.136-0.136-0.203-0.203C60.936,28.34,60.969,28.271,61.003,28.205z"/>
		<path style="fill-rule:evenodd;clip-rule:evenodd;fill:#010101;" d="M69.014,28.407c0.744,0.172,1.666,0.692,1.825,1.116
			c0.469-0.161,0.612-0.186,1.116-0.507c0,0.101,0,0.203,0,0.304c-0.743,0.428-0.32,3.573-0.203,4.667
			c0.109,1.006,1.051,1.633,1.826,2.435c0.531,0.55,1.316,4.856,1.318,6.087c-0.325,0.052-0.259,0.017-0.608,0.304
			c0.062,0.123,0.217,0.519,0,0.304c0.043,0.481,0.018,0.81-0.405,1.015c0.163,0.48,0.225,0.311,0,0.507
			c-0.094,0.528-0.739,0.756-1.116,0.913c0,0.271,0,0.542,0,0.812c-0.301,0.003-0.206-0.021-0.507,0.102
			c0.052,0.944-0.192,1.741,0,3.551c-0.034,0-0.067,0-0.102,0c-0.237-0.271-0.473-0.541-0.71-0.812
			c-0.888,0.218-1.452,0.028-1.623,0.609c0.068-0.034,0.136-0.068,0.203-0.102c-0.261,0.505-0.713,0.982-1.015,1.42
			c0.166,1.495,1.448,5.072,0.608,6.696c-1.863,3.609-3.378,5.279-0.709,8.624c0,0.067,0,0.135,0,0.202
			c-0.034,0.034-0.067,0.067-0.102,0.102c-0.344-0.116-0.86-0.186-1.115,0.102c-1.662,0.017-0.593,2.391-1.521,2.942
			c-0.133,0.762-1.683,0.189-2.129,1.826c-0.17,0-0.338,0-0.508,0c-0.019-0.111-0.084-0.387-0.405-0.305
			c0.221-0.309,0.357-0.248,0.608-0.203c-0.353-0.634-0.285-1.361-0.102-2.231c0.304-0.296,1.008-1.303,1.318-1.218
			c-0.033-0.169-0.068-0.338-0.102-0.507c-0.232-0.016-0.54-0.118-0.71-0.508c-0.236,0.136-0.474,0.271-0.71,0.406
			c0.003,0.734-0.584,1.232-0.912,1.521c0.135,0.406,0.271,0.812,0.405,1.218c-0.261,0.19-0.173,0.247-0.507,0.405
			c-0.123-0.651-0.365-0.849-0.507-1.217c-1.046,0.313-1.488,0.552-1.927,0.507c0.414,1.742-0.521,2.822-1.318,3.957
			c-0.542-0.31-0.753-0.448-0.608-0.71c-0.189-0.641-0.066-1.367,0.102-1.928c0.168,0,0.338,0,0.507,0c0-0.102,0-0.203,0-0.305
			c-0.272-0.134-0.214-0.076-0.507-0.305c-0.746,0.297-1.057-0.128-1.218,0.508c-1.46,0.802-1.009,1.607-1.927,2.841
			c-0.689-1.114-5.062-0.015-5.679,0.102c-0.034-0.136-0.067-0.271-0.102-0.406c0.068,0.033,0.135,0.067,0.203,0.102
			c0.011-0.062,1.016-0.584,1.318-1.116c-0.459,0.076-0.883,0.444-1.724,0.203c-0.099-0.113,0.046-0.512-0.508-0.608
			c0.146,0.496,0.06,0.591,0.305,0.913c-0.102,0.033-0.203,0.067-0.305,0.102c-0.135-0.203-0.271-0.406-0.405-0.609
			c0.25-0.178-0.028-1.036,0.203-1.318c-0.136-0.102-0.271-0.203-0.406-0.305c-0.148,0.3-0.359,0.209-0.71,0.406
			c0.084,0.42-0.545,2.143-0.709,2.536c0.621-0.172,2.004,0.74,1.927,0.913c0.043,0.319,0.118,0.635-0.203,1.015
			c-0.035,0.067-0.068,0.135-0.102,0.202c-0.102-0.135-0.203-0.271-0.304-0.405c-0.778,0.236-1.555,0.474-2.333,0.71
			c0.015,0.517-0.217,0.56-0.507,1.015c0.336,0.055,0.044-0.025,0.203,0.305c-1.108,0.973-1.341,2.776-2.434,3.246
			c-0.343-0.465-1.35-0.24-1.724-0.71c-0.412-0.33-0.453-0.978-0.507-0.913c-0.217-0.422-1.005-0.504-1.42-0.913
			c0-0.372,0-0.744,0-1.116c0.274-0.104,0.42-0.468,0.406-1.218c-0.102,0.034-0.203,0.068-0.305,0.102
			c0.488-1.03,1.178-1.053,1.724-2.638c-0.18-0.139-0.124,0.023-0.101-0.203c-1.489,0.354-2.851,0.449-3.956-0.608
			c-1.615,0.749-2.284,0.374-3.144,1.521c-0.068-0.135-0.135-0.271-0.203-0.405c-0.102,0.102-0.203,0.203-0.304,0.304
			c0,0.034,0,0.068,0,0.102c0.135,0,0.271,0,0.406,0c-0.169,0.203-0.338,0.406-0.507,0.609c-0.575-0.896-2.058,0.021-2.536-0.102
			c-0.102,0.203-0.203,0.405-0.305,0.608c-0.27-0.067-0.541-0.135-0.811-0.203c0.034,0.068,0.068,0.136,0.102,0.203
			c-0.349,0.229,0.007,0.181-0.102,0.508c-0.169,0-0.338,0-0.507,0c0.057,0.386-0.063,0.546,0.203,0.405
			c-0.176,0.271-0.194,0.265-0.507,0.406c-0.06-0.345-0.03-0.189-0.304-0.508c0.067,0,0.135,0,0.203,0
			c0.018-0.054,0.227-0.467,0.71-0.507c-0.034-0.135-0.067-0.271-0.102-0.406c-0.582,0.296-2.513,1.17-3.144,1.015
			c0.068,0.271,0.135,0.541,0.203,0.812c-0.135,0-0.271,0-0.406,0c-0.169-0.372-0.338-0.743-0.507-1.116
			c0.31-0.047,0.39-0.137,0.71-0.405c-0.034-0.068-0.068-0.135-0.101-0.203c-0.533,0.139-0.815,0.151-1.116,0.508
			c0,0-0.675,1.876-0.71,2.739c-1.432-1.302-2.66-1.521-4.766-0.508c-0.3-0.517-0.434-0.506-0.812-0.812
			c-0.271,0.236-0.541,0.474-0.811,0.71c0.061-1.195,0.11-1.607-0.102-2.536c0.236-0.033,0.473-0.067,0.71-0.102
			c-0.068-0.135-0.135-0.271-0.203-0.405c2.427,0.937,2.039-0.744,3.144-1.421c0.482-0.295,0.939-0.137,1.419-0.304
			c1.083-1.246,4.364-5.481,7.302-5.479c-0.067,0.235-0.135,0.473-0.203,0.71c0.883,0.011,0.633,0.009,1.318-0.609
			c0.63,0.984,6.139-0.679,6.896-0.507c0.296,0.067,0.056,0.176,0.304,0c0.543-0.078,1.011-0.524,1.724-0.812
			c0.034,0.169,0.067,0.338,0.102,0.507c-0.102,0.271-0.203,0.541-0.304,0.812c0.351,0.104,0.221-0.061,0.203,0.305
			c0.54-0.149,0.734-0.037,0.913-0.405c0.455,0.397,0.854,0.542,1.623,0.507c0.044-0.4,0.041-0.13,0.507-0.305
			c0-0.169,0-0.338,0-0.507c0.339,0.144,0.273,0.284,0.507,0c0.176-0.246,0.089-0.327,0.203-0.608
			c0.068,0.033,0.135,0.067,0.203,0.102c0.132,0.489-0.039,0.156,0.304,0.405c0.035-0.068,0.068-0.136,0.102-0.203
			c-0.171-0.534-0.667-1.75-0.507-1.928c0.263-1.588,2.606-3.372,3.549-4.666c0,0,0.243-0.894,0.305-0.508
			c0.354-0.686-0.386-2.18-0.305-2.435c0-0.209,0.207-1.333,0.507-1.218c0,0,1.962-1.057,2.738-1.115
			c0.016,0.08,0.001,0.203,0.102,0.101c-0.242,0.751-0.555,0.741-0.507,1.421c-0.83,0.099-0.752,0.327-1.015,0.71
			c-0.237-0.102-0.473-0.203-0.71-0.305c-0.064,0.222,0.094,0.407-0.304,0.305c0.168,0.135,0.338,0.27,0.507,0.405
			c0.095-0.151,0.081-0.255,0.507-0.101c-0.374,0.19-0.519,0.294-0.507,0.608c0.365-0.261,0.209-0.24,0.608-0.305
			c-0.127,0.721-0.194,1.094-0.304,1.826c0.553,0.194,1.441,0.112,1.927,0.203c0.04-1.985,3.527-1.642,4.664-2.739
			c0.041-0.474,1.185-0.896,1.725-1.521c0.007-0.605,0.344-0.669,0.71-1.116c-0.494-2.073,2.364-1.816,3.144-2.942
			c0.074-0.897,0.588-3.486,1.015-3.855c0.545-0.472,0.879-0.526,0.912-1.015c0.06-0.872,2.858-6.607,0.811-7.203
			c-0.336,0.024-0.366-0.106-0.507,0.304c-0.405-0.144-0.182-0.042-0.304-0.304c-0.102-0.102-0.203-0.203-0.305-0.305
			c0.068-0.101,0.136-0.203,0.203-0.304c0.271,0,0.541,0,0.812,0c0.067-0.102,0.135-0.203,0.203-0.305
			c0.253-0.689,0.809-2.732-0.305-3.754c-0.033,0-0.068,0-0.102,0c0.068-0.067,0.135-0.135,0.203-0.203
			c0.428-0.852,1.024-0.797,2.028-1.319c-0.146-1.08,0.245-2.142,0.202-3.044c0.033,0,0.068,0,0.102,0
			c0.372,0.298,0.502,0.447,0.812,0.609c0.175-0.299,0.319-0.495,0.507-0.203c0.621,0.667,0.028,1.797,0.507,2.232
			c0.979,0.656,0.432-0.54,1.115-1.014c0.122,0.649,0.829,0.762,1.42,0.913c0.136-0.71,0.271-1.42,0.406-2.131
			c-0.271-0.329-0.124-0.375-0.609-0.507c-0.377,0.733-1.545,0.904-2.027,0.914c0.067-0.203,0.136-0.406,0.202-0.609
			C68.274,29.475,68.752,29.174,69.014,28.407z"/>
		<path style="fill-rule:evenodd;clip-rule:evenodd;fill:#010101;" d="M62.728,38.654c0.067,0,0.135,0,0.202,0
			C62.752,38.753,62.907,38.747,62.728,38.654z"/>
		<path style="fill-rule:evenodd;clip-rule:evenodd;fill:#010101;" d="M56.439,49.712c0.136,0,0.271,0,0.405,0
			c0,0.034,0,0.068,0,0.102c-0.172,0.562-0.641,1.349-0.608,1.522c0.271,0,0.541,0,0.812,0c-0.083,0.335-0.108,0.753-0.406,0.913
			c-0.069,0.386-0.613,0.723-1.115,0.508c0.102-0.339,0.203-0.677,0.305-1.015c-0.169,0.102-0.338,0.203-0.507,0.304
			c0-0.136,0-0.271,0-0.405C55.548,51.137,56.558,49.966,56.439,49.712z"/>
		<path style="fill-rule:evenodd;clip-rule:evenodd;fill:#010101;" d="M55.425,52.757c0.068,0.066,0.136,0.135,0.203,0.202
			c-0.102,0.067-0.203,0.136-0.304,0.203c-0.034-0.034-0.067-0.067-0.102-0.101c0.067-0.035,0.136-0.068,0.202-0.103
			C55.425,52.892,55.425,52.823,55.425,52.757z"/>
		<path style="fill-rule:evenodd;clip-rule:evenodd;fill:#010101;" d="M29.769,62.496c0.169,0.169,0.338,0.338,0.507,0.507
			c-0.002,0.311,0.098,0.142-0.101,0.406c0,0.067,0,0.135,0,0.203c-0.116-0.037-1.163-0.414-0.608-0.609
			C29.59,62.642,29.746,62.739,29.769,62.496z"/>
		<path style="fill-rule:evenodd;clip-rule:evenodd;fill:#010101;" d="M28.653,63.815c0.168,0.066,0.338,0.135,0.507,0.202
			c-0.135,0.135-0.27,0.271-0.406,0.406c0-0.068,0-0.136,0-0.203c-0.135-0.068-0.27-0.136-0.405-0.203c0.067,0,0.135,0,0.203,0
			C28.586,63.95,28.619,63.882,28.653,63.815z"/>
		<path style="fill-rule:evenodd;clip-rule:evenodd;fill:#010101;" d="M28.248,64.119c0.067,0.067,0.135,0.135,0.203,0.203
			c-0.034,0.033-0.068,0.067-0.102,0.102C28.315,64.322,28.281,64.221,28.248,64.119z"/>
		<path style="fill-rule:evenodd;clip-rule:evenodd;fill:#010101;" d="M61.104,72.235c0.067,0,0.135,0,0.203,0
			c0,0.431,0.026,0.061,0.304,0.305c-0.102,0.169-0.203,0.338-0.304,0.507c0-0.067,0-0.135,0-0.202c-0.102,0-0.203,0-0.305,0
			C61.037,72.642,61.07,72.438,61.104,72.235z"/>
		<path style="fill-rule:evenodd;clip-rule:evenodd;fill:#010101;" d="M10.197,72.845c0.49,0.292-0.769,3.579-1.116,3.854
			c-0.034,0-0.067,0-0.102,0c-0.067-0.135-0.135-0.271-0.203-0.405c0.188-0.814,0.291-0.74,0.811-1.218
			c-0.457-0.384-0.107-1.367,0-1.928C10.03,73.181,10.062,73.27,10.197,72.845z"/>
		<path style="fill-rule:evenodd;clip-rule:evenodd;fill:#010101;" d="M52.991,73.25c0.068,0,0.136,0,0.203,0
			C53.127,73.25,53.06,73.25,52.991,73.25z"/>
		<path style="fill-rule:evenodd;clip-rule:evenodd;fill:#010101;" d="M38.591,73.453c0.068,0,0.135,0,0.203,0
			C38.727,73.453,38.659,73.453,38.591,73.453z"/>
		<path style="fill-rule:evenodd;clip-rule:evenodd;fill:#010101;" d="M49.138,73.453c0.034,0.067,0.068,0.135,0.102,0.203
			C49.206,73.588,49.172,73.521,49.138,73.453z"/>
		<path style="fill-rule:evenodd;clip-rule:evenodd;fill:#010101;" d="M38.49,73.656c0.135,0.067,0.271,0.135,0.406,0.202
			c-0.506,0.605-0.467,0.891-0.608,1.928c-0.304,0.102-0.608,0.203-0.913,0.305c-0.206-0.549-0.32-0.262-0.304-0.913
			C37.566,75.045,37.892,74.493,38.49,73.656z"/>
		<path style="fill-rule:evenodd;clip-rule:evenodd;fill:#010101;" d="M34.94,73.757c0.169,0,0.338,0,0.507,0
			c-0.034,0.17-0.067,0.338-0.101,0.508c-0.325,0.141-0.39,0.192-0.609,0.405c-0.11-0.456-0.157-0.322-0.304-0.71
			C34.875,73.873,34.769,74.008,34.94,73.757z"/>
		<path style="fill-rule:evenodd;clip-rule:evenodd;fill:#010101;" d="M35.245,74.366c0.034,0.067,0.068,0.135,0.102,0.203
			c-0.068,0-0.136,0-0.203,0C35.177,74.501,35.21,74.434,35.245,74.366z"/>
		<path style="fill-rule:evenodd;clip-rule:evenodd;fill:#010101;" d="M19.324,74.569c0.033,0.067,0.067,0.135,0.101,0.202
			C19.391,74.704,19.357,74.637,19.324,74.569z"/>
		<path style="fill-rule:evenodd;clip-rule:evenodd;fill:#010101;" d="M60.598,74.569c0.066,0,0.135,0,0.203,0
			C60.623,74.668,60.778,74.661,60.598,74.569z"/>
		<path style="fill-rule:evenodd;clip-rule:evenodd;fill:#010101;" d="M36.766,75.786c-0.034,0.541-0.067,1.083-0.102,1.623
			c0.209,0.04,0.508-0.055,0.406,0.305c0.034,0.034,0.068,0.067,0.101,0.102c-0.249,0.199-0.041,0.058-0.304,0.102
			c0.181,0.411,0.28,0.302,0.102,0.608c-0.076,0.141-1.275,1.08-1.318,0.913c-0.592,0.822-0.613,1.193-1.115,2.334
			c-0.034,0-0.068,0-0.102,0c-1.513-1.254-0.76-1.062-3.042-1.624c-0.278,0.517-1.431,0.579-1.521,1.218
			c-0.291,0.271,0.033,0.467-0.203,0.71c-0.208,0.997-1.593,1.191-1.116,3.044c-0.772-0.501-1.239,0.112-1.927-0.507
			c0.135-0.17,0.271-0.338,0.406-0.508c-0.034-0.033-0.068-0.068-0.102-0.102c-0.782-0.055-0.716-0.185-1.115-0.202
			c0.048-0.601-0.052-1.097-0.203-1.522c0.416-0.111,0.305-0.305,0.305-0.305c-0.297-0.591-0.431-0.46-0.609-1.115
			c0.034-0.068,0.068-0.136,0.102-0.203c-0.169-0.034-0.338-0.068-0.507-0.102c0.249-0.27,0.138-0.155,0.405-0.203
			c0.089-0.266,1.25-1.291,1.318-1.015c0.262-0.377,0.229-1.345,0.507-1.826c0.365-0.634,0.769-0.59,1.115-1.015
			c0.034,0,0.067,0,0.102,0c0.213,0.523,0.449,1.04,1.014,1.116c0.46-0.081,1.697-0.177,2.231-0.405
			c0.364-1.472,0.402-1.616,1.522-2.334c0.647-0.416,0.847,0.247,1.115-0.102C35.19,75.383,34.957,75.848,36.766,75.786z"/>
		<path style="fill-rule:evenodd;clip-rule:evenodd;fill:#010101;" d="M27.943,75.583c0.207,0.184,0.071,0.002,0.203,0.305
			C28.079,75.786,28.011,75.685,27.943,75.583z"/>
		<path style="fill-rule:evenodd;clip-rule:evenodd;fill:#010101;" d="M27.842,75.786c0.068,0.068,0.136,0.135,0.203,0.203
			C27.978,75.921,27.91,75.854,27.842,75.786z"/>
		<path style="fill-rule:evenodd;clip-rule:evenodd;fill:#010101;" d="M59.888,75.786c0.033,0.068,0.067,0.135,0.102,0.203
			C59.955,75.921,59.921,75.854,59.888,75.786z"/>
		<path style="fill-rule:evenodd;clip-rule:evenodd;fill:#010101;" d="M28.248,75.888c0.067,0.068,0.135,0.135,0.203,0.203
			C28.383,76.022,28.315,75.956,28.248,75.888z"/>
		<path style="fill-rule:evenodd;clip-rule:evenodd;fill:#010101;" d="M27.031,75.989c0.067,0,0.135,0,0.203,0
			c-0.101,0.068-0.203,0.135-0.304,0.203C26.963,76.124,26.997,76.058,27.031,75.989z"/>
		<path style="fill-rule:evenodd;clip-rule:evenodd;fill:#010101;" d="M27.437,76.091c0.102,0.068,0.203,0.135,0.304,0.203
			c-0.102,0-0.203,0-0.304,0C27.437,76.226,27.437,76.159,27.437,76.091z"/>
		<path style="fill-rule:evenodd;clip-rule:evenodd;fill:#010101;" d="M28.552,76.294c0.067,0.102,0.135,0.202,0.203,0.304
			C28.687,76.496,28.619,76.396,28.552,76.294z"/>
		<path style="fill-rule:evenodd;clip-rule:evenodd;fill:#010101;" d="M61.916,76.396c0.164,0.333,0.075,0.288,0.102,0.608
			c-0.196-0.154-0.18-0.182-0.305-0.406C61.78,76.53,61.849,76.463,61.916,76.396z"/>
		<path style="fill-rule:evenodd;clip-rule:evenodd;fill:#010101;" d="M61.611,76.699c0.033,0.068,0.067,0.135,0.102,0.203
			C61.679,76.834,61.645,76.768,61.611,76.699z"/>
		<path style="fill-rule:evenodd;clip-rule:evenodd;fill:#010101;" d="M26.422,77.207c0.067,0.067,0.135,0.135,0.203,0.202
			C26.557,77.342,26.49,77.274,26.422,77.207z"/>
		<path style="fill-rule:evenodd;clip-rule:evenodd;fill:#010101;" d="M26.321,77.409c0.067,0,0.135,0,0.203,0
			C26.456,77.409,26.388,77.409,26.321,77.409z"/>
		<path style="fill-rule:evenodd;clip-rule:evenodd;fill:#010101;" d="M24.292,77.511c0.169,0,0.338,0,0.507,0
			c-0.068,0.203-0.135,0.406-0.203,0.609c-0.034-0.068-0.067-0.136-0.102-0.203c-0.067,0-0.135,0-0.203,0
			C24.292,77.782,24.292,77.646,24.292,77.511z"/>
		<path style="fill-rule:evenodd;clip-rule:evenodd;fill:#010101;" d="M25.408,77.511c0.067,0.068,0.135,0.136,0.203,0.203
			C25.543,77.646,25.476,77.579,25.408,77.511z"/>
		<path style="fill-rule:evenodd;clip-rule:evenodd;fill:#010101;" d="M16.585,77.612c0.305,0,0.609,0,0.913,0
			c0,0.136,0,0.271,0,0.406c0.364-0.17,0.371-0.243,0.71,0c-0.277,0.183-0.057,0.284-0.203,0.507
			c0.338,0.406,0.676,0.812,1.014,1.218c0.344-0.05,1.126,0.302,1.318,0c0.456-0.07,0.303-0.247,0.608-0.508
			c0.203,0,0.406,0,0.609,0c0.687,1.666-0.02,1.338-0.812,2.334c0.332,0.04,0.169-0.019,0.203,0.305c0.609,0,1.217,0,1.826,0
			c-0.258,0.471-0.257,0.155-0.406,0.811c0.481-0.048,0.961,1.166,1.014,1.624c-0.068-0.033-0.135-0.068-0.203-0.102
			c-0.037,0.332-0.878,1.356-1.115,1.623c-0.025,0.029-0.418,0.496-0.405,0.203c0.034,0.033,0.067,0.067,0.101,0.102
			c0.147,0.578-1.819,5.591-1.825,7.203c-0.695-0.374-0.693-0.498-1.42-0.608c0.018,0.417-0.104,0.064-0.101,0.405
			c0.069,0.243,0.045,0.393,0.405,0.305c-0.361,1.251-2.176,1.866-2.13,2.029c-0.195-0.155-0.179-0.182-0.304-0.406
			c0.773-0.401,0.475-0.999,0.812-1.826c-0.372-0.405-0.744-0.812-1.116-1.218c-0.067,0.034-0.135,0.068-0.203,0.102
			c0.089,0.368,0.406,2.131,0.406,2.131c-0.162,0.313-0.213,0.129-0.507,0.305c-0.101-0.203-0.203-0.406-0.304-0.609
			c-0.372,0.034-0.744,0.068-1.115,0.102c-0.203-0.305-0.406-0.608-0.608-0.913c0.034-0.067,0.067-0.135,0.102-0.203
			c0.236,0.034,0.473,0.068,0.709,0.102c0.067-0.474,0.135-0.946,0.203-1.42c-0.237-0.271-0.473-0.541-0.71-0.812
			c0.034-0.575,0.067-1.149,0.101-1.725c-0.241-0.468-0.425-0.207-0.507-0.914c0.135,0,0.271,0,0.406,0
			c-0.034,0.068-0.067,0.136-0.102,0.203c0.377,0.25-0.165,0.147,0.304,0.508c0.062-0.325,0.162,0.046,0.507-0.305
			c0.689-0.33,1.075-1.619,1.217-2.029c-0.253-0.12-0.1,0.065-0.203-0.202c0.176-0.04,0.231-0.129,0.406-0.609
			c-0.034,0-0.067,0-0.102,0c-0.885,0.302-0.716,0.858-1.115,1.521c-0.302-0.206-0.122-0.071-0.203-0.304
			c-0.762,0.3-1.216,0.939-1.318,1.318c-0.135,0-0.271,0-0.406,0c0.034-0.102,0.067-0.202,0.102-0.304
			c-0.083-0.081-0.187-0.453-0.203-0.913c0.236-0.04,0.226-0.86,0.812-0.71c0.135-0.068,0.27-0.136,0.405-0.203
			c0.071,0.587,0.024,0.263,0.304,0.507c0.176-0.29,1.476-1.532,1.724-1.42c-0.297-1.377-0.569-0.84-1.115-1.928
			c0.225-0.12,0.125-0.184,0-0.71c-0.368,0.007-0.438-0.091-0.812-0.305c-0.562,0.446-0.325,1.231,0,1.218
			c-0.135,0.236-0.27,0.474-0.405,0.71c0.067,0.033,0.135,0.068,0.203,0.102c0.237-0.068,0.473-0.135,0.71-0.203
			c0.032,0.365,0.176,0.474,0.304,1.218c-0.067,0-0.135,0-0.203,0c0.034,0.067,0.068,0.135,0.102,0.202
			c-0.829,0.018-0.395,0.011-0.913,0.305c0-0.067,0-0.135,0-0.203c-0.102-0.067-0.203-0.135-0.304-0.203
			c0.102-0.235,0.203-0.474,0.304-0.71c-1.042,0.186-1.308,0.335-1.927,1.218c-0.068-0.067-0.135-0.135-0.203-0.203
			c0.217-0.414,0.363-0.315,0.203-0.608c-0.064-0.883-0.995-0.819-0.913-1.42c0.033-0.338,0.067-0.677,0.102-1.016
			c0.384,0.209,0.066,0.196,0.507,0.305c-0.034-0.102-0.068-0.202-0.102-0.305c0.034-0.067,0.067-0.135,0.102-0.202
			c-0.102,0-0.203,0-0.304,0c-0.195,0.301-0.026,0.002-0.304,0.202c-0.089-0.732-0.325-0.303-0.304-1.318
			c-0.406,0.145-0.182,0.042-0.304,0.305c-0.291,0.146-0.334,0.344-0.507,0.71c-0.034,0-0.068,0-0.102,0
			c-0.102-0.068-0.203-0.135-0.304-0.203c0.068,0,0.135,0,0.203,0c0.041-0.285,0.091-1.023,0.71-0.913c0-0.203,0-0.405,0-0.608
			c0.033,0.102,0.067,0.203,0.101,0.304c0.239,0.076,1.371,0.438,1.724,0.406c-0.034-0.068-0.068-0.135-0.102-0.203
			c0.008-0.258-0.079-0.545-0.304-0.608c0.327-0.478,0.28,0.1,0.406-0.508c0.102,0.102,0.203,0.203,0.304,0.305
			c0.456,0.191,0.028,0.183,0.507,0.305c0.13-0.349,0.675-0.887,1.116-1.218c0.083,0.456-0.017,0.294,0.507,0.507
			c0.121-0.278,0.792-1.895,1.014-1.825c0.218-0.24,0.532-0.258,0.709-0.203C16.585,77.815,16.585,77.714,16.585,77.612z"/>
		<path style="fill-rule:evenodd;clip-rule:evenodd;fill:#010101;" d="M24.901,77.714c0.169,0,0.337,0,0.507,0
			c-0.034,0.067-0.068,0.135-0.102,0.203c-0.034-0.033-0.068-0.068-0.101-0.102C24.941,77.772,25.15,77.914,24.901,77.714z"/>
		<path style="fill-rule:evenodd;clip-rule:evenodd;fill:#010101;" d="M11.617,78.12c0.348,0.298,0.271,0.269,0.203,0.812
			c-0.068-0.033-0.135-0.068-0.203-0.102c0,0.068,0,0.135,0,0.203c-0.199-0.25-0.058-0.041-0.102-0.305
			c-0.273-0.05-0.084,0.089-0.304-0.203C11.346,78.391,11.481,78.255,11.617,78.12z"/>
		<path style="fill-rule:evenodd;clip-rule:evenodd;fill:#010101;" d="M37.171,78.222c0.068,0.067,0.136,0.135,0.203,0.202
			C37.307,78.356,37.239,78.289,37.171,78.222z"/>
		<path style="fill-rule:evenodd;clip-rule:evenodd;fill:#010101;" d="M15.267,78.323c0.034,0.067,0.068,0.135,0.101,0.202
			C15.335,78.458,15.301,78.391,15.267,78.323z"/>
		<path style="fill-rule:evenodd;clip-rule:evenodd;fill:#010101;" d="M24.698,80.453c0.12,0.286,0.076,0.102-0.102,0.305
			C24.63,80.656,24.665,80.555,24.698,80.453z"/>
		<path style="fill-rule:evenodd;clip-rule:evenodd;fill:#010101;" d="M24.394,80.555c0.068,0,0.135,0,0.203,0
			C24.419,80.653,24.575,80.647,24.394,80.555z"/>
		<path style="fill-rule:evenodd;clip-rule:evenodd;fill:#010101;" d="M24.191,80.656c0.068,0.102,0.135,0.203,0.203,0.304
			C24.326,80.859,24.259,80.758,24.191,80.656z"/>
		<path style="fill-rule:evenodd;clip-rule:evenodd;fill:#010101;" d="M23.988,80.758c0.068,0.067,0.135,0.135,0.203,0.202
			c-0.033,0.068-0.067,0.136-0.101,0.203c-0.135,0-0.271,0-0.406,0c0.034-0.102,0.068-0.203,0.102-0.304
			C23.853,80.825,23.921,80.791,23.988,80.758z"/>
		<path style="fill-rule:evenodd;clip-rule:evenodd;fill:#010101;" d="M10.095,80.859c0.068,0.067,0.135,0.135,0.203,0.202
			c-0.068,0.034-0.135,0.068-0.203,0.102C10.095,81.062,10.095,80.96,10.095,80.859z"/>
		<path style="fill-rule:evenodd;clip-rule:evenodd;fill:#010101;" d="M23.481,81.062c0.068,0.068,0.136,0.136,0.203,0.203
			C23.617,81.197,23.549,81.13,23.481,81.062z"/>
		<path style="fill-rule:evenodd;clip-rule:evenodd;fill:#010101;" d="M8.473,81.569c0.068,0,0.135,0,0.203,0
			C8.499,81.668,8.653,81.661,8.473,81.569z"/>
		<path style="fill-rule:evenodd;clip-rule:evenodd;fill:#010101;" d="M63.031,82.381c0.067,0,0.135,0,0.203,0
			C63.057,82.479,63.212,82.473,63.031,82.381z"/>
		<path style="fill-rule:evenodd;clip-rule:evenodd;fill:#010101;" d="M63.234,82.482c0.262,0.234,0.19,0.237,0.405,0.305
			c-0.178,0.247-0.504,0.228-0.304,0C63.124,82.545,63.247,82.803,63.234,82.482z"/>
		<path style="fill-rule:evenodd;clip-rule:evenodd;fill:#010101;" d="M8.473,82.787c0.258,0.681,0.017,0.885-0.102,1.521
			c-0.033,0-0.067,0-0.102,0c-0.406-0.18-0.356-0.025-0.507-0.507C8.084,83.737,8.331,83.037,8.473,82.787z"/>
		<path style="fill-rule:evenodd;clip-rule:evenodd;fill:#010101;" d="M11.921,82.989c0.021,0.341,0.197,0.97,0.507,1.319
			c0.041-0.332-0.02-0.169,0.304-0.203c0-0.304,0-0.608,0-0.913c-0.101-0.067-0.203-0.135-0.304-0.203
			C12.258,82.989,12.089,82.989,11.921,82.989z"/>
		<path style="fill-rule:evenodd;clip-rule:evenodd;fill:#010101;" d="M8.675,83.396c0.068,0.067,0.136,0.135,0.203,0.203
			C8.811,83.53,8.743,83.463,8.675,83.396z"/>
		<path style="fill-rule:evenodd;clip-rule:evenodd;fill:#010101;" d="M7.154,84.309c0.28,0.136,0.03,0.063,0.304,0.102
			c-0.034,0.135-0.067,0.271-0.101,0.405c-0.102-0.102-0.203-0.202-0.305-0.304C7.087,84.443,7.12,84.376,7.154,84.309z"/>
		<path style="fill-rule:evenodd;clip-rule:evenodd;fill:#010101;" d="M6.14,84.714c0.135,0.102,0.271,0.203,0.406,0.305
			c0.145-0.234,0.284-0.121,0.71-0.102c-0.067,0.271-0.136,0.541-0.203,0.812c-0.451-0.006-0.054-0.054-0.405,0.203
			c-0.237-0.102-0.473-0.203-0.71-0.305C6.005,85.323,6.073,85.019,6.14,84.714z"/>
		<path style="fill-rule:evenodd;clip-rule:evenodd;fill:#010101;" d="M6.647,85.932c0.067,0,0.135,0,0.203,0
			C6.783,85.932,6.715,85.932,6.647,85.932z"/>
		<path style="fill-rule:evenodd;clip-rule:evenodd;fill:#010101;" d="M11.819,85.932c0.067,0.067,0.135,0.135,0.203,0.203
			C11.954,86.066,11.887,85.999,11.819,85.932z"/>
		<path style="fill-rule:evenodd;clip-rule:evenodd;fill:#010101;" d="M12.326,90.092c0.238,0.322,0.19,0.217,0.203,0.608
			c-0.034,0-0.068,0-0.102,0c-0.034,0-0.068,0-0.102,0c0.034-0.102,0.067-0.203,0.102-0.305
			C12.212,90.158,12.383,90.407,12.326,90.092z"/>
		<path style="fill-rule:evenodd;clip-rule:evenodd;fill:#010101;" d="M11.921,90.902c-0.102,0.271-0.203,0.542-0.304,0.812
			c-0.068-0.135-0.136-0.271-0.203-0.405C11.583,91.174,11.751,91.038,11.921,90.902z"/>
		<path style="fill-rule:evenodd;clip-rule:evenodd;fill:#010101;" d="M16.484,91.004c0.034,0.068,0.068,0.136,0.101,0.203
			c-0.318,0.039-0.201-0.089-0.304,0.102c-0.034,0.203-0.067,0.405-0.102,0.608c0.365,0.005,0.757,0.257,0.811,0.102
			c0.229-0.159,0.196-0.438,0.305-0.71C17.025,91.207,16.754,91.105,16.484,91.004z"/>
		<path style="fill-rule:evenodd;clip-rule:evenodd;fill:#010101;" d="M18.512,96.584c0.381,0.649-0.462,2.657-0.811,2.638
			c-0.102,0.034-0.203,0.068-0.304,0.102C17.731,98.403,17.844,97.485,18.512,96.584z"/>
		<path style="fill-rule:evenodd;clip-rule:evenodd;fill:#010101;" d="M13.949,98.613c0.305,0.131,0.228,0.063,0.406,0.305
			C14.048,98.756,14.157,99.002,13.949,98.613z"/>
		<path style="fill-rule:evenodd;clip-rule:evenodd;fill:#010101;" d="M15.47,98.715c0.338,0.135,0.676,0.271,1.014,0.405
			c0,0.17,0,0.339,0,0.508c-0.706,0.359-1.487,0.834-1.318-0.608C15.529,98.838,15.286,99.073,15.47,98.715z"/>
	</g>
</g>
<g id="Layer_1">
</g>
</svg>
