<?xml version="1.0" encoding="iso-8859-1"?>
<!-- Generator: Adobe Illustrator 16.0.3, SVG Export Plug-In . SVG Version: 6.00 Build 0)  -->
<!DOCTYPE svg PUBLIC "-//W3C//DTD SVG 1.1//EN" "http://www.w3.org/Graphics/SVG/1.1/DTD/svg11.dtd">
<svg version="1.1" xmlns="http://www.w3.org/2000/svg" xmlns:xlink="http://www.w3.org/1999/xlink" x="0px" y="0px" width="100px"
	 height="100px" viewBox="0 0 100 100" style="enable-background:new 0 0 100 100;" xml:space="preserve">
<g id="KG">
	<path d="M99.671,37.631c-0.298-0.377,0.026-0.7-0.271-0.943c-0.296-0.242-0.997,0.485-1.213-0.297
		c-0.216-0.781-0.377-0.917-0.971-1.267c-0.593-0.351-0.513-0.673-0.89-0.917c-0.378-0.241-0.378-0.053-1.078-0.08
		s-0.539-0.323-1.267-0.161c-0.729,0.161-0.971,0.323-1.591,0.323c-0.619,0-1.105,0.026-1.295-0.566
		c-0.188-0.594-0.026-0.809-0.808-0.998c-0.781-0.188-1.24-0.755-1.213-1.213s0.405-1.159,0.162-1.213s-0.89,0.62-1.24,0.62
		s-0.674-0.27-0.89-0.081c-0.217,0.188-0.647,0.054-0.782-0.107c-0.135-0.162-0.674,0.161-0.755-0.055
		c-0.08-0.215-0.378-0.351-0.727-0.135c-0.352,0.216-0.54-0.188-0.674-0.351c-0.136-0.161-0.729-0.458-1.376-0.432
		c-0.646,0.028-0.916,0.352-1.078,0.405c-0.162,0.053-0.809-0.055-1.105-0.107c-0.296-0.055-0.35,0.242-0.674,0.296
		c-0.323,0.054-1.024,0.027-1.374-0.136c-0.351-0.16-0.647-0.08-0.971,0c-0.324,0.082-0.835,0.189-1.024-0.026
		c-0.189-0.215-0.513-0.242-0.891-0.188c-0.376,0.055-0.619,0.431-0.942,0.297c-0.324-0.135-0.458-0.593-1.024-0.485
		s-0.647,0.403-1.078,0.216c-0.432-0.188-1.052-0.081-1.51-0.271c-0.458-0.188-1.429-0.511-2.103-0.377
		c-0.674,0.136-0.917,0.835-1.374,0.917c-0.459,0.081-1.24,0.27-1.672,0.107c-0.431-0.161-0.781,0.215-0.943,0.27
		s-0.566,0.081-0.729-0.243c-0.161-0.322-0.593-0.134-0.862-0.08s-0.646-0.136-1.267,0c-0.62,0.135-1.159,0.242-1.536-0.027
		c-0.378-0.269-0.998-0.242-1.376,0.27c-0.376,0.513-0.674,1.267-1.348,1.105c-0.674-0.162-0.89-0.566-1.778-0.215
		c-0.891,0.35-1.133-0.136-1.591-0.055s-0.917-0.81-1.483-0.917c-0.565-0.107-0.565-0.107-0.565-0.107s-1.024-0.7-1.429-0.674
		c-0.405,0.026-0.701-0.107-0.917-0.242c-0.217-0.135-0.404,0-0.674-0.486c-0.27-0.484-0.594-0.269-0.594-0.727
		c0-0.459-0.242-0.243-0.458-0.351c-0.216-0.108-0.728,0.324-0.89-0.026c-0.161-0.352-0.728-0.648-1.051-0.837
		s-0.756-0.458-0.917-0.27c-0.162,0.188,0.674,0.783,0,0.783c-0.675,0-0.998,0.08-1.213,0.08c-0.216,0-0.566-0.89-0.971-0.782
		c-0.405,0.107-0.188,0.432-0.162,0.836c0.027,0.404,0,0.593-0.512,0.593c-0.513,0-1.239,0.54-1.672,0.729
		c-0.431,0.188-0.916,0.404-1.186,1.078c-0.271,0.673,0.027,1.32-0.189,1.941c-0.215,0.619-0.458,0.646-0.593,1.725
		c-0.134,1.078,0.297,1.752,0.351,2.129c0.054,0.378-0.107,0.593-0.809,0.512c-0.701-0.08-0.593-0.323-0.593-0.7
		s-0.081-0.296-0.593-0.377c-0.513-0.081-0.944-0.27-1.24-0.431c-0.296-0.162-0.809,0.026-1.213,0.026s-0.917-0.136-1.105-0.351
		c-0.189-0.216-0.364-0.338-0.364-0.338c-0.485-0.484-0.849-0.808-1.334-0.808s-1.577-0.121-1.981-0.566s-1.213-0.809-1.537-0.769
		c-0.324,0.041-0.646,0.364-1.051,0.364s-0.526-0.485-1.051-0.485c-0.526,0-0.688-0.242-1.051-0.566
		c-0.364-0.323-0.971-0.161-1.497,0.04c-0.525,0.203-0.768,0.365-1.132,0.243c-0.364-0.121-0.607-0.162-0.728,0.041
		c-0.121,0.201-0.566-0.081-0.688-0.122c-0.122-0.04-0.323,0.364-0.485,0.445c-0.162,0.081-0.768-0.162-0.971,0.121
		c-0.202,0.283-0.646,0.688-0.646,1.011s-0.566,0.566-0.809,0.566s-0.808,0.363-0.808,0.566c0,0.202,0.768,0.363,0.444,0.728
		c-0.324,0.363-0.687-0.081-0.89,0.161c-0.202,0.243-0.121,0.769-0.444,1.051c-0.324,0.284-0.444,0.972-0.121,1.052
		c0.322,0.081,0.889-0.323,1.455-0.08c0.566,0.242,0.444,0.889,0.809,0.889s0.768,0.323,0.606,0.566
		c-0.162,0.242-0.566,0.283-0.971,0.283c-0.404,0-0.525,0.324-0.808,0.606c-0.284,0.284-0.729,0.769-1.011,0.525
		c-0.284-0.241-0.85-0.363-0.85,0.162s0.243,1.334-0.404,1.254c-0.647-0.081-0.768-0.202-1.253,0.12
		c-0.486,0.324-0.729,0.566-1.092,0.85c-0.364,0.283-0.121,0.728-0.688,1.012c-0.566,0.281-0.687,0.687-1.293,0.889
		c-0.607,0.202-1.577,0.324-1.496,1.051c0.081,0.729,0.849,0.324,1.011,0.284c0.162-0.041,0.525,0.201,0.768,0.566
		c0.243,0.363,0.444,0.97,0.89,0.97c0.445,0,1.051-0.646,1.335-0.646c0.283,0,0.646-0.041,0.646,0.363
		c0,0.405,0.202,0.729,0.486,0.729c0.282,0,0,0.444,0,0.889c0,0.445-0.122,0.566,0.323,0.566s0.647,0.242,0.809,0.565
		c0.162,0.324,0.283,0.566,0.646,0.405c0.364-0.162,0.445,0.12,0.647,0.12c0.203,0,0.688-0.201,0.809-0.403
		c0.122-0.202,0.769-0.323,0.971,0.202s0.08,0.97,0.323,0.97c0.243,0,0.485-0.728,0.606-0.728c0.122,0,0.405,1.172,0.688,0.809
		c0.283-0.363,0.202-0.565,0.243-0.89c0.04-0.323-0.284-1.092,0.202-1.092s1.132-0.16,1.253-0.727
		c0.122-0.566,0.283-0.891-0.04-1.335c-0.324-0.444-0.082-0.728,0.242-0.93c0.324-0.203,0.971-0.404,0.647,0.162
		c-0.323,0.565-0.283,0.849-0.121,0.849c0.162,0,1.294-0.363,1.253,0.081c-0.04,0.444-0.323,1.092-0.081,1.092
		c0.243,0,0.526,0.162,0.526,0.444c0,0.283,0.445,0.404,0.081,0.688c-0.365,0.282-0.284,0.808,0.081,0.889
		c0.363,0.082,0.89,0.082,0.93,0.243c0.041,0.162,0.566,0.404,0.93,0.404s0.607,0.08,0.647,0.484c0.041,0.405,0.243,0.769,0,0.891
		c-0.243,0.12-0.121,0.606,0.526,0.363c0.646-0.243,0.565-0.202,0.565-0.647c0-0.444,0.769-0.323,0.85,0.162
		c0.081,0.485,0.688,0,1.051,0.688s0.647,1.335,1.294,1.335c0.647,0,1.172,0.04,1.618,0.363c0.444,0.324,0.364,1.012,0.809,0.405
		s0.444-0.485,1.092-0.485s1.092,0.282,0.485,0.566c-0.606,0.282-0.81,0.687-1.173,0.687c-0.364,0-0.485,0.283-0.809,0.646
		s-1.132,0.323-1.132,0.769s-0.121,0.485-0.566,0.485c-0.444,0-0.525,0.323-0.727,0.525c-0.203,0.202-0.607-0.081-0.728-0.243
		c-0.122-0.162-0.485-0.162-0.647-0.121c-0.161,0.04-0.646-0.201-0.849-0.525c-0.202-0.323-0.566-0.242-0.566,0.121
		s0.162,0.688,0.446,0.809c0.283,0.121,0.525,1.012,0.202,1.174c-0.324,0.161-0.728-0.162-0.97-0.446
		c-0.243-0.282-0.85-0.363-1.173-0.201c-0.323,0.161-0.688,0.323-0.809,0.768c-0.122,0.445-0.768,0.324-0.89,0.647
		c-0.121,0.323,0.485,0.89,0.122,1.173c-0.364,0.283-0.85-0.323-0.85-0.323s-0.444,0.121-0.444,0.364
		c0,0.242-0.243,0.322-0.566,0.525c-0.324,0.201-1.254,0.647-1.213-0.04c0.04-0.688-0.162-1.174-0.526-0.647
		c-0.363,0.525-0.809,0.283-1.334-0.122c-0.525-0.404-0.303-0.223-0.687-0.465c-0.384-0.242-0.425-0.525-0.729-0.525
		c-0.302,0-0.707-0.485-0.889-0.263c-0.183,0.222-0.627,0.242-0.768,0.242c-0.143,0-0.486,0.102-0.627,0.142
		c-0.141,0.041-0.412,0.114-0.574,0.276c-0.162,0.162,0.028,0.943-0.431,1.132c-0.458,0.189-0.889,0.027-1.239,0.135
		c-0.351,0.108-0.836,0.217-1.213,0.378c-0.377,0.162-0.405,0.188-0.458,0.675c-0.054,0.484-0.27,0.889-0.566,1.051
		c-0.297,0.161-0.917,0.513-0.944,0.189c-0.026-0.324,0.621-0.702,0.621-0.918c0-0.215-0.513-0.539-0.944-0.539
		s-0.673-0.027-0.943-0.323s-0.324-0.458-0.701-0.458c-0.377,0-0.943-0.351-1.24-0.647c-0.296-0.296-0.673-0.593-1.132-0.538
		c-0.458,0.053-0.89,0.187-1.267,0.269c-0.378,0.081-0.54,0.054-0.971,0.242c-0.431,0.189-0.539,0.432-1.051,0.323
		c-0.512-0.106-0.944,0.081-0.944,0.485c0,0.405-0.215,0.378-0.161,0.783c0.054,0.403,0.107,0.619-0.082,0.782
		c-0.188,0.161-0.809,0.565-0.889,0.188c-0.081-0.377,0.081-0.809-0.081-0.916c-0.162-0.108-0.755-0.538-0.836,0
		c-0.081,0.539,0,0.916-0.35,1.105c-0.351,0.188-0.377,0.593-0.377,1.024c0,0.431,0,0.674-0.081,1.051
		c-0.081,0.378,0.297,0.566,0.458,0.781c0.162,0.216-0.162,0.459-0.135,0.809c0.027,0.352,0.027,0.755,0.377,0.539
		c0.35-0.215,0.566-0.188,0.836,0.055c0.269,0.242,1.131,0,1.159-0.162c0.027-0.162,0.727-0.378,1.024-0.378
		c0.297,0,0.593,0.136,0.835,0.352c0.242,0.215,0.458,0.296,0.809,0.296c0.351,0,0.728-0.324,0.944-0.027
		c0.215,0.298,0.566,0.081,0.593-0.054c0.027-0.135,0.243-0.27,0.675-0.081c0.431,0.189,0.646,0.271,0.781,0.081
		c0.134-0.188,0.512,0,0.674,0.242c0.162,0.243,0.539,0.243,0.781-0.053c0.243-0.296,0.674-0.378,0.81-0.378
		c0.134,0,0.917-0.081,1.024,0.026c0.107,0.108,0.593,0.055,0.917,0c0.324-0.053,0.377,0.298,0.377,0.675s0.296,0.539,0.458,0.674
		c0.162,0.135,0.162,0.646,0.162,0.754c0,0.108,0.377,0.621,0.755,0.459c0.377-0.162,0.997-0.378,1.132-0.378
		c0.135,0,0.862,0.297,1.051-0.322c0.188-0.62,0.647-0.62,1.105-0.701c0.458-0.08,0.943,0.107,1.267-0.216s0.647-0.593,0.917-0.593
		c0.27,0,0.458-0.243,0.701-0.162c0.243,0.081,0.567,0.243,0.513,0.62c-0.055,0.377-0.486,0.943-0.162,1.293
		c0.323,0.352,0.943,0.162,1.159,0.162c0.216,0,0.835-0.081,0.835,0.513c0,0.593-0.539,1.455,0.243,1.509
		c0.782,0.055,1.375-0.565,1.645-0.727c0.269-0.162,0.646-0.109,0.862-0.109s0.404,0.405,0.539,0.621
		c0.135,0.215,0.783,0.135,0.863,0.566c0.081,0.431,0.377,0.593,0.485,0.565c0.108-0.026,0.108-0.026,0.108-0.026
		s0.674-0.891,0.728-1.079s0.62-0.431,1.132-0.431s0.89,0,1.267-0.136c0.376-0.134,0.674-0.7,1.267-0.134
		c0.593,0.566,1.456,0.566,1.968,0.377c0.512-0.188,1.078-0.432,1.51-0.081c0.432,0.352,1.051,0.162,1.158-0.026
		c0.108-0.188,0.701-0.135,0.972-0.324c0.269-0.188,0.134-0.593,0.861-0.727c0.729-0.136,1.483,0.161,2.104,0.161
		c0.619,0,1.779,0,2.21-0.539c0.432-0.539-0.081-0.755,0.324-1.105c0.404-0.351,0.781-1.078,0.026-1.779s-0.943-0.782-0.432-1.052
		c0.513-0.27,0.81-0.457,0.729-1.023c-0.081-0.565,0.431-1.349,0.89-1.591c0.458-0.243,1.671-0.62,2.022-0.404
		c0.349,0.217,0.834,0.242,1.536-0.512c0.7-0.756,1.132-1.375,1.617-1.375s0.862-0.188,0.862-0.595c0-0.403,0.647-0.025,0.864-0.025
		c0.215,0,0.808,0.025,0.727-0.566c-0.08-0.593-0.754-0.781-0.646-1.104c0.108-0.324,0.242-0.594,0.971-0.081
		c0.727,0.512,0.862-0.055,1.077,0.216c0.216,0.27,0.782,0.377,1.295,0.242c0.512-0.135,1.104-0.62,1.214-0.998
		c0.107-0.377,0.593-0.188,1.022-0.673c0.433-0.485,0.998-1.429,1.321-0.756c0.324,0.674-0.161,0.756,0.271,1.214
		s0.754,0.485,0.458,0.997c-0.296,0.513-0.162,0.513-0.026,0.835c0.134,0.324,0.053,0.81,0.35,0.891
		c0.296,0.08,0.432-0.162,0.89-0.081s0.89,0.378,1.132,0.242c0.242-0.134,0.405-0.862,0.594-0.89c0.188-0.026,0.538,0.162,0.889,0
		c0.352-0.162,0.755,0.135,0.997-0.242c0.243-0.377,0.836-0.674,0.972-0.081c0.134,0.594,0.619,0.323,0.889,0.081
		c0.271-0.242,1.188-0.242,1.348-0.997c0.162-0.755,0.297-1.375,0.593-1.672c0.298-0.297,0.755-0.647,0.566-1.24
		s-0.296-1.078,0.217-1.536c0.512-0.458,0.755-0.728,0.593-1.024c-0.162-0.296,0.026-0.323,0.512-0.674
		c0.485-0.35,0.458-0.593,0.781-0.836c0.324-0.242,0.647-0.376,1.133-0.108c0.484,0.271,0.862,0.297,1.132,0.162
		c0.27-0.134,0.701,0.404,0.944,0.216c0.241-0.188,0.7-0.593,1.158-0.35c0.459,0.242,0.809,0.593,1.348,0.431
		c0.54-0.162,0.997-0.351,1.24-0.566c0.243-0.215,0.216,0.189,0.781-0.026c0.566-0.216,0.566-0.512,0.917-0.512
		s0.674,0.054,0.809-0.027c0.136-0.081,0.755,0.188,0.943,0.269c0.188,0.082,0.836-0.081,1.079-0.35
		c0.242-0.269,0.727-0.916,0.727-1.481c0-0.566,0.674-0.943,0.81-1.133c0.135-0.188,0.323-0.809,0.216-1.078
		c-0.108-0.27-0.297-0.296,0.296-0.485s0.782-0.566,0.944-0.674s0.539-0.107,0.835-0.512c0.297-0.404,0.485-0.485,1.078-0.674
		s0.081,0.135,0.917-0.405c0.836-0.538,1.293-0.808,1.779-1.267c0.485-0.458,0.539-0.781,1.104-0.836
		c0.566-0.054,0.837-0.403,1.052-0.62c0.215-0.215,0.513-0.458,0.836-0.135c0.323,0.324,1.051,0.566,1.779,0.27
		c0.728-0.296,1.429-1.455,1.671-2.075c0.243-0.62,0.539-1.349,1.725-1.349c1.188,0,1.779,0.271,2.265-0.053
		C100.209,38.412,99.967,38.008,99.671,37.631z M12.95,65.759c-0.229,0.229-0.364,0.324-0.525,0.432
		c-0.162,0.108-0.31-0.081-0.31-0.27s-0.135-0.337-0.31-0.404c-0.175-0.067-0.351-0.337-0.243-0.552
		c0.107-0.217,0.552-0.176,0.849-0.176c0,0,0.391-0.014,0.606,0.054c0.215,0.067,0.499,0.041,0.499,0.363
		C13.516,65.53,13.179,65.53,12.95,65.759z M17.991,65.113c-0.122,0-0.769-0.015-0.89-0.218c-0.121-0.201-0.552,0.041-0.741-0.053
		c-0.188-0.095,0.27-0.729,0.445-0.891c0.175-0.161,0.067-0.457-0.108-0.457c-0.175,0-0.202-0.189-0.134-0.539
		c0.067-0.351-0.027-0.647-0.027-0.796c0-0.147-0.094-0.525,0.162-0.633c0.256-0.108,0.203-0.392,0.203-0.392
		s0.081,0.432,0.081,0.62c0,0.189-0.054,0.337,0.134,0.594c0.188,0.256,0.256,0.215,0.297,0.606c0.04,0.391,0.161,0.147,0.418,0.202
		c0.256,0.054,0,0.269-0.109,0.404c-0.108,0.135,0.135,0.378,0.203,0.525c0.066,0.148-0.014,0.404,0.242,0.634
		C18.422,64.95,18.113,65.113,17.991,65.113z M23.72,64.466c-0.203,0.094-0.352,0.27-0.459,0.512c-0.108,0.242-0.336,0.147-0.364,0
		c-0.027-0.148-0.296-0.163-0.404-0.229c-0.108-0.067-0.283-0.107-0.135-0.444s0.688-0.54,0.903-0.675c0,0,0.445-0.066,0.607,0.162
		C24.029,64.021,23.921,64.371,23.72,64.466z"/>
</g>
<g id="Layer_1">
</g>
</svg>
