<?xml version="1.0" encoding="iso-8859-1"?>
<!-- Generator: Adobe Illustrator 16.0.3, SVG Export Plug-In . SVG Version: 6.00 Build 0)  -->
<!DOCTYPE svg PUBLIC "-//W3C//DTD SVG 1.1//EN" "http://www.w3.org/Graphics/SVG/1.1/DTD/svg11.dtd">
<svg version="1.1" xmlns="http://www.w3.org/2000/svg" xmlns:xlink="http://www.w3.org/1999/xlink" x="0px" y="0px" width="100px"
	 height="100px" viewBox="0 0 100 100" style="enable-background:new 0 0 100 100;" xml:space="preserve">
<g id="KH">
	<g>
		<path style="fill-rule:evenodd;clip-rule:evenodd;fill:#010101;" d="M72.245,80.841c-0.118,0.445-0.236,0.891-0.355,1.335
			c0.675,0.436,1.271,1.545,1.067,2.314c-0.029-0.029-0.06-0.06-0.089-0.089c-1.68,0.221-3.053-0.804-4.003-2.226
			c-0.119,0.03-0.237,0.06-0.356,0.089c-0.115,0.453-0.623,0.935-0.533,1.247c-0.336-0.104-0.655-0.152-0.89-0.445
			c-0.177-0.132-0.534-1.68-0.445-1.691c-0.485-0.369-0.882-0.699-1.512-1.513c-1.381,0.337-4.686,2.358-6.761,1.157
			c-0.079,0.168-1.246,1.156-1.246,1.156c-0.177,0.329,0.08,0.757-0.355,1.157c-0.918-0.672-2.131-0.955-2.669-1.424
			c-0.136-0.118-1.271,0.161-1.69-0.267c-0.035-0.196-0.242-0.396-0.178-0.623c-0.543,0.245-0.668,0.765-1.245,1.067
			c0.155,0.833,1.252,2.677,1.245,3.561c-0.219,0.174-0.036,0.051-0.267,0.089c-0.034,0.159-0.365,0.264-0.356,0.268
			c-0.42,0.216-1.473,0.463-1.868,0.89c-1.102,1.19-0.99,1.938-2.313,2.581c-1.118,0.544-4.143-0.789-4.893-0.089
			c-0.628,0.115-0.958,1.721-1.868,2.314c-0.825-0.6-1.753-0.921-2.58-1.603c-0.479,0.168-0.636,0.137-1.246,0.268
			c-0.026-0.772-0.071-1.097-0.356-1.514c-0.195-0.057-0.358,0.082-0.267-0.267c-0.559,0.1-0.577,0.079-0.89,0
			c-0.119,0.178-0.237,0.355-0.356,0.533c-1.465-0.693-3.929,0.108-5.249-1.067c-0.089-0.386-0.178-0.771-0.267-1.157
			c-0.215-0.055-0.727,0.025-0.534-0.178c-0.157-0.562-0.032-0.398-0.267-0.623c0.03,0.059,0.06,0.118,0.089,0.178
			c-0.516,0.526-0.112,3.585-1.245,2.67c-0.219,0.16-0.246,0.437-0.534,0.356c0,0.089,0,0.178,0,0.267
			c0.359,0.003,0.104,0.015,0.445,0.089c0.029,0.297,0.059,0.594,0.089,0.891c-0.148,0.148-0.296,0.297-0.445,0.445
			c-0.252-0.099-0.129-0.077-0.356-0.089c-0.068-0.467-0.109-0.229-0.356-0.534c0.335-0.219,0.353-0.231,0.356-0.802
			c-0.148-0.029-0.296-0.059-0.445-0.089c-0.03,0.148-0.06,0.297-0.089,0.445c-0.49-0.048-1.682,0.227-1.868,0
			c-0.234-0.051-0.5-0.519-0.445-0.979c-1.009-0.357-1.261-0.91-2.135-1.869c0.296-0.328,0.732-1.119,0.623-1.513
			c0.949-0.119,1.898-0.237,2.847-0.356c-0.117-0.411-0.244-0.851,0.089-1.157c0.21-0.331,0.183-0.452,0.623-0.444
			c0.03-0.475,0.06-0.95,0.089-1.425c-0.468-0.557-1.557-2.265-0.89-3.293c-0.347-0.125-1.417-0.234-1.512-0.801
			c-0.19-0.074-0.443-0.678-0.711-1.068c-0.326,0.03-0.652,0.06-0.979,0.089c-0.03,0.148-0.06,0.297-0.089,0.445
			c-0.178-0.089-0.356-0.178-0.534-0.267c-0.029,0.089-0.059,0.178-0.089,0.267c0.087,0.224-0.12,0.572-0.356,0.89
			c0.303,0.12,0.184,0.055,0.356,0.268c-1.289,0.593-0.607,2.479-0.89,3.56c-0.296,0.119-0.593,0.238-0.89,0.356
			c-0.15-0.26-1.306-0.989-1.868-0.979c-0.701,0.038-0.891,0.208-1.245,0.89c-0.809,0.022-0.811,0.109-1.69,0
			c0-0.029,0-0.06,0-0.089c0.089-0.06,0.178-0.119,0.267-0.179c-0.341-0.421-0.663-0.479-0.801-1.156
			c0.345-0.229,0.241-2.593,0.267-2.582c0.06-0.059,0.119-0.118,0.178-0.178c0-0.444,0-0.89,0-1.335
			c-0.217-0.366-0.519-0.701-0.534-1.157c-0.311,0.053-0.368,0.075-0.623-0.089c0.147-0.084,1.334-1.869,1.334-1.869
			c0.178,0.089,0.356,0.178,0.534,0.268c-0.029-0.119-0.059-0.238-0.089-0.356c-0.065-0.336-0.093-0.658-0.623-0.356
			c-0.06-0.059-0.119-0.118-0.178-0.178c-0.089-0.06-0.178-0.119-0.267-0.178c0.003-0.671,0.021-0.66,0.267-0.979
			c-0.237-0.148-0.474-0.297-0.711-0.445c0.787-0.237,1.705-0.642,1.69,0.268c0.089-0.119,0.178-0.237,0.267-0.356
			c-0.521-0.271-0.231-0.491-0.711-0.801c-0.03,0-0.06,0-0.089,0c-0.089,0.119-0.178,0.237-0.267,0.356
			c-0.346-0.437-0.947-0.327-1.246-0.534c0.272-0.561,0.152-1.082,0-1.958c-0.089-0.03-0.178-0.06-0.267-0.09
			c0.038,0.285,0.137,0.776-0.089,1.068c-0.31-0.123-0.968-0.021-1.334,0.089c0.03-0.148,0.06-0.297,0.089-0.444
			c0.059,0.029,0.119,0.059,0.178,0.089c0.09-0.071,0.162-0.022,0.534,0.089c-0.188-0.352-0.433-0.488-0.178-0.801
			c0.002-0.366,0.287-0.532,0.801-0.623c-0.06-0.03-0.119-0.06-0.178-0.09c-0.119-0.178-0.237-0.355-0.356-0.533
			c-0.306,0.113-0.509,0.25-0.623,0.178c-0.03-0.208-0.06-0.416-0.089-0.623c0.178-0.178,0.356-0.356,0.534-0.534
			c0.208-0.06,0.415-0.119,0.623-0.178c0.236,0.242,0.135,0.339,0.801,0.355c0-0.118,0-0.237,0-0.355
			c-0.445-0.119-0.89-0.237-1.334-0.356c-0.159,0.262-0.695,0.377-0.623,0.534c-0.649,1.03,0.005,1.179,0,2.492
			c-0.557-0.13-0.886-0.831-0.979-1.424c0.687-0.188-0.328-1.636,0-1.959c-0.53-0.677-2.403-4.594-2.491-4.45
			c0.03-0.475,0.06-0.949,0.089-1.424c-0.547-0.686-0.688-1.401-1.246-2.047c-0.336-0.39,0.617-4.01,0.623-4.006
			c0.086-0.374,0.511-0.49,0.89-0.712c-0.203-1.165-1.246-1.335-1.246-1.335c-1.691-2.535-1.913-2.369-4.27-3.738
			c0.039-1.102,0.44-1.589,0.712-1.869c0-0.297,0-0.594,0-0.891c-0.06-0.089-0.119-0.178-0.178-0.267
			c-0.089-0.089-0.178-0.178-0.267-0.267c-0.443-0.542-0.274-2.168-0.267-2.581c0-0.119,0-0.238,0-0.356c0.148,0,0.296,0,0.445,0
			c-0.349-0.763-1.058-1.128-1.512-1.869c-0.418-0.683-0.63-2.286-0.979-2.67c-0.185,0.021-0.861-1.064-0.979-1.425
			c-0.336-1.025,0.281-2.309,0.444-2.581c-0.142-1.135-0.306-1.553-0.355-2.492c0.3,0.015-0.011-0.091,0.355-0.089
			c0.038-0.223-0.052-0.142,0.267-0.178c2.133-0.242,3.881,0.363,4.359-0.891c-0.211-0.044-0.438-0.324-0.712-0.712
			c0.076-0.244-0.051-0.247,0.178-0.445c0.674-0.964,1.742-1.058,2.936-1.513c-0.413-1.302,1.469-2.866,0.979-3.472
			c0.584-0.696,1.792-1.131,2.402-1.869c0.097-0.116,0.311-2.53,0.712-2.848c0-0.06,0-0.119,0-0.178c0,0,3.21-2.362,3.292-2.403
			c0.741-0.089,1.482-0.179,2.224-0.268c0.307-0.222,0.362-0.479,0.711-0.623c1.192-0.488,2.412,0.783,3.114-0.534
			c0.208,0.09,0.415,0.179,0.623,0.268c1.371-0.189,1.136-0.924,3.114-0.623c0.292-0.627,0.173-0.624,0.801-0.891
			c0.195,0.465,0.279,1.138,0.623,1.514c1.113-0.18,1.349,0.263,2.402,0c0.165,0.622,1.199,0.631,1.779,0.801
			c0.03-0.178,0.06-0.356,0.089-0.534c0.92-0.032,1.35-0.235,1.334,0.445c0.551-0.098,1.804-0.395,1.957-0.801
			c0.42,0.176,0.574,0.135,0.979,0.267c0.092-0.534,1.477-0.434,1.868-0.712c0.923,0.244,2.995,0.57,4.092,0.979
			c0.147-0.309,0.286-0.447,0.445-0.444c0.178-0.013,0.714,0.152,0.979,0.355c0.482-0.399,1.051-1.091,1.602-1.335
			c-0.03,0.06-0.06,0.119-0.089,0.178c2.076,0.449,1.486-0.33,3.113-0.355c0.056,0.111,0.48,0.506,0.623,0.445
			c0.262-0.052,0.169,0.079,0.355-0.268c1.195,0.25,1.639,0.599,2.58,0.979c-0.041,1.787,0.22,2.769,1.156,2.938
			c0.339,0.544,1.508-0.492,1.513-0.534c0.359-0.335,0.542-1.195,0.622-1.78c0.208,0,0.415,0,0.623,0
			c0.005,2.683,1.94,3.477,2.847,4.628c1.563,0.002,3.342-0.411,3.647-1.068c0.604,0.255,1.404,0.169,1.602,0.979
			c0.76-0.255,0.417,0.091,0.89,0.178c0.447,0.405,1.234-0.229,1.868,0.623c-0.056,0.368-0.095,1.177,0.355,0.979
			c0.534,0.563,1.067,1.127,1.602,1.691c0.563,0.118,1.127,0.237,1.69,0.355c0.251-0.181,1.212-0.684,2.401-0.178
			c-0.013-1.562,0.221-1.34,1.067-2.226c0.03-0.207,0.06-0.415,0.089-0.623c-0.997-1.176-0.462-0.425-1.067-1.958
			c-0.735-0.105-2.271-2.414-2.224-3.916c0.029,0,0.06,0,0.089,0c0.313,0.291,1.025,0.609,1.69,0.267
			c0.055-0.289,0.063-0.393,0.622-0.444c0.729,0.291,1.713,0.409,1.779-0.089c0.148-0.624,0.297-1.247,0.445-1.87
			c0.029,0,0.06,0,0.089,0c0.79,0.395,3.334,1.263,3.113,0.179c0.326-0.125,0.285-0.334,0.268-0.979
			c0.438,0.013,0.673-0.005,0.89-0.178c-0.156-0.251-0.193-0.229-0.268-0.623c0.64-0.063,1.079-0.46,1.157-0.623
			c0.678,0.184,0.898,1.274,0.8,1.78c0.389-0.109,0.576-0.037,0.89,0.089c0.044,0.409-0.038,0.462,0.356,0.534
			c0.533,0.267,1.067,0.534,1.602,0.801c0.156-0.257,0.145-0.208,0.355-0.089c0.649,0.345,0.859,1.818,2.224,2.67
			c0.293-0.538,0.719-0.704,1.157-1.068c0.515,0.389,0.401,0.227,1.156,0.445c0.123-0.832,0.858-1.09,1.334-2.136
			c0.604,0.427,0.674,0.496,1.335,0.623c0.244-0.78,1.396-0.543,1.423-1.78c0.333,0.009,0.764-0.057,0.979-0.268
			c-0.177-0.675,0.828-1.748,1.157-1.69c0-0.06,0-0.119,0-0.179c0.637,0.42,0.578,0.537,0.979,0.891
			c0.444,0.06,0.89,0.119,1.334,0.178c0.174-0.219,0.051-0.036,0.089-0.267c0.352-0.276,0.026-1.437,0.623-1.425
			c0.444-0.444,0.89-0.89,1.334-1.335c0.12,2.25-0.792,3.591-1.601,5.607c-2.392-0.702-0.953,4.521-2.136,5.964
			c0.438,0.658,0.517,1.086,0.623,2.047c0.377-0.096,1.447,0.022,1.334,0.179c0.317,0.164,0.66,3.645,0.356,4.183
			c0.618,0.301,4.055,4.256,3.38,7.565c-0.919,2.226-1.838,4.451-2.758,6.676c-0.18,0.585,0.203,0.64,0.268,0.891
			c-0.06,0.534-0.119,1.067-0.179,1.602c0.475,0.886,0.693,1.11,1.513,2.137c-0.06,0.593-0.118,1.187-0.178,1.78
			c0.933,1.178,0.346,6.02-0.356,7.031c-0.082,0.119-2.129,1.865-2.135,1.869c-0.029,0-0.06,0-0.089,0
			c-0.358-0.807-0.742-1.006-1.067-1.514c-1.747,0.496-3.155,0.251-3.825,0.979c-0.791,0.86-1.84,2.984-3.114,3.738
			c-0.951,0.563-2.803,0.007-4.181,0.623c0.128,1.348-0.814,1.227-2.046,1.958c-0.108,0.064-0.14-0.026-0.089,0.089
			c-0.401-0.123-0.271-0.295-0.534-0.444c-0.799-0.454-2.569,0.463-2.669,0.267c-0.356-0.058-0.458-0.177-1.245-0.178
			c0,0.089,0,0.178,0,0.267c0.634,0.28,0.374,1.229,0.89,1.514c-1.561,1.937-0.3,2.794-0.089,4.183c-0.148,0-0.297,0-0.445,0
			c-0.405-0.937-1.659-0.502-2.758-0.267c-0.178-0.356-0.355-0.712-0.533-1.068c-1.054,0.163-4.307-0.923-4.537-0.623
			c-0.333,0.368-0.167,0.837-0.267,1.157c-0.478,0.404-0.559,0.795-1.157,1.246c-2.008-0.567-1.353-0.317-2.58,0.534
			c0.165,0.599,0.08,0.765,0.356,0.89c0.105,0.178,0.734,0.331,0.89,0.356c-0.061,1.345,0.57,4.182-0.268,4.984
			c0.386,0.208,0.771,0.415,1.157,0.623c-0.031,0.683-0.072,0.914,0.355,1.068c0.075,0.184-0.006,0.014,0.178,0.089
			c0.386,0.118,0.771,0.237,1.157,0.356c0.23,0.365,1.408,2.155,1.868,2.313c-0.03-0.06-0.06-0.118-0.09-0.178
			c0.119-0.119,0.238-0.237,0.356-0.356c0.287,0.084,0.818-0.116,0.712,0.356C72.478,78.803,74.205,80.932,72.245,80.841z"/>
		<path style="fill-rule:evenodd;clip-rule:evenodd;fill:#010101;" d="M2.945,42.39c0.03,0.06,0.059,0.119,0.089,0.179
			C3.004,42.509,2.975,42.449,2.945,42.39z"/>
		<path style="fill-rule:evenodd;clip-rule:evenodd;fill:#010101;" d="M10.507,64.375c0.142,0.521-0.027,0.511,0.356,0.623
			c0.103,0.209,0.737,0.958,0.979,1.067C11.718,65.348,10.988,64.484,10.507,64.375z"/>
		<path style="fill-rule:evenodd;clip-rule:evenodd;fill:#010101;" d="M11.485,69.003c0.06,0,0.119,0,0.178,0
			C11.604,69.003,11.545,69.003,11.485,69.003z"/>
		<path style="fill-rule:evenodd;clip-rule:evenodd;fill:#010101;" d="M11.485,69.359c0.03,0.059,0.06,0.118,0.089,0.178
			C11.545,69.478,11.515,69.418,11.485,69.359z"/>
		<path style="fill-rule:evenodd;clip-rule:evenodd;fill:#010101;" d="M12.375,69.894c0.119,0,0.237,0,0.356,0
			c0.045,0.585,0.407,0.613,0.445,1.602c-0.186,0.015-0.236,0.186-0.534,0.356c-0.014-1.267-0.303-1.126-0.445-1.78
			C12.419,69.965,12.285,70.128,12.375,69.894z"/>
		<path style="fill-rule:evenodd;clip-rule:evenodd;fill:#010101;" d="M13.621,71.05c0.089,0,0.178,0,0.267,0
			c0,0.09,0,0.179,0,0.268C13.798,71.229,13.709,71.14,13.621,71.05z"/>
		<path style="fill-rule:evenodd;clip-rule:evenodd;fill:#010101;" d="M13.442,71.229c0.06,0.029,0.119,0.059,0.178,0.089
			c0.122-0.233,0.135,0.198,0.178,0.267C13.68,71.466,13.561,71.347,13.442,71.229z"/>
		<path style="fill-rule:evenodd;clip-rule:evenodd;fill:#010101;" d="M12.019,71.852c0.03,0.059,0.06,0.118,0.089,0.178
			C12.079,71.97,12.049,71.91,12.019,71.852z"/>
		<path style="fill-rule:evenodd;clip-rule:evenodd;fill:#010101;" d="M12.197,71.94c0.061,0.022,0.468,0.175,0.267,0
			c0.456,0.096,0.293,0.117,0.356,0.355c0.921,0.76-0.032,2.412,0.089,3.026c-0.356-0.051-0.266,0.004-0.445-0.178
			c-0.25-0.061-0.245-0.1-0.445-0.356c0.024-1.173,0.223-1.377-0.089-2.581C12.019,72.118,12.108,72.029,12.197,71.94z"/>
		<path style="fill-rule:evenodd;clip-rule:evenodd;fill:#010101;" d="M21.182,78.349c0.03,0.089,0.06,0.178,0.089,0.268
			c-0.029,0-0.059,0-0.089,0C21.182,78.526,21.182,78.438,21.182,78.349z"/>
		<path style="fill-rule:evenodd;clip-rule:evenodd;fill:#010101;" d="M13.709,81.82c0.059,0,0.119,0,0.178,0
			C13.828,81.82,13.769,81.82,13.709,81.82z"/>
		<path style="fill-rule:evenodd;clip-rule:evenodd;fill:#010101;" d="M13.709,81.998c0.34,0.117,0.185,0,0.356,0.267
			c-0.178,0-0.356,0-0.534,0c0-0.059,0-0.118,0-0.178C13.591,82.058,13.65,82.028,13.709,81.998z"/>
		<path style="fill-rule:evenodd;clip-rule:evenodd;fill:#010101;" d="M24.83,84.668c0.03,0.06,0.06,0.119,0.089,0.179
			C24.889,84.787,24.859,84.728,24.83,84.668z"/>
		<path style="fill-rule:evenodd;clip-rule:evenodd;fill:#010101;" d="M21.36,87.339c0.089,0,0.178,0,0.267,0
			c0,0.118,0,0.237,0,0.355c-0.119-0.059-0.237-0.118-0.356-0.178C21.301,87.457,21.331,87.397,21.36,87.339z"/>
		<path style="fill-rule:evenodd;clip-rule:evenodd;fill:#010101;" d="M20.292,87.694c0.06,0.06,0.119,0.119,0.178,0.179
			c-0.03,0.029-0.06,0.059-0.089,0.089C20.352,87.873,20.322,87.783,20.292,87.694z"/>
		<path style="fill-rule:evenodd;clip-rule:evenodd;fill:#010101;" d="M22.605,89.208c0.06,0,0.119,0,0.178,0
			C22.724,89.208,22.665,89.208,22.605,89.208z"/>
		<path style="fill-rule:evenodd;clip-rule:evenodd;fill:#010101;" d="M22.517,89.297c0.06,0.089,0.119,0.178,0.178,0.267
			C22.635,89.475,22.576,89.386,22.517,89.297z"/>
		<path style="fill-rule:evenodd;clip-rule:evenodd;fill:#010101;" d="M23.406,89.652c0.433,0.225,0.335,0.298,0.534,0.713
			c-0.365-0.032-0.155,0.129-0.356-0.09c-0.059,0.03-0.119,0.06-0.178,0.09C23.406,90.128,23.406,89.89,23.406,89.652z"/>
		<path style="fill-rule:evenodd;clip-rule:evenodd;fill:#010101;" d="M37.462,90.81c0.06,0,0.119,0,0.178,0
			C37.581,90.81,37.521,90.81,37.462,90.81z"/>
		<path style="fill-rule:evenodd;clip-rule:evenodd;fill:#010101;" d="M37.373,90.988c0.089,0,0.178,0,0.267,0
			c-0.089,0.089-0.178,0.178-0.267,0.267C37.373,91.166,37.373,91.077,37.373,90.988z"/>
		<path style="fill-rule:evenodd;clip-rule:evenodd;fill:#010101;" d="M27.32,91.166c0.178,0,0.356,0,0.534,0
			c-0.03,0.148-0.06,0.297-0.089,0.445c-0.089,0-0.178,0-0.267,0c-0.119-0.06-0.237-0.119-0.356-0.179
			C27.202,91.344,27.261,91.255,27.32,91.166z"/>
		<path style="fill-rule:evenodd;clip-rule:evenodd;fill:#010101;" d="M27.943,91.255c0.029,0.06,0.059,0.119,0.089,0.178
			C28.002,91.374,27.973,91.314,27.943,91.255z"/>
	</g>
</g>
<g id="Layer_1">
</g>
</svg>
