<?xml version="1.0" encoding="iso-8859-1"?>
<!-- Generator: Adobe Illustrator 16.0.3, SVG Export Plug-In . SVG Version: 6.00 Build 0)  -->
<!DOCTYPE svg PUBLIC "-//W3C//DTD SVG 1.1//EN" "http://www.w3.org/Graphics/SVG/1.1/DTD/svg11.dtd">
<svg version="1.1" xmlns="http://www.w3.org/2000/svg" xmlns:xlink="http://www.w3.org/1999/xlink" x="0px" y="0px" width="100px"
	 height="100px" viewBox="0 0 100 100" style="enable-background:new 0 0 100 100;" xml:space="preserve">
<g id="LA">
	<path style="fill:#010101;" d="M64.525,96.407c0.362,0.907,1.316,1.906,1.997,1.497c0.682-0.408,0.545-0.816,1.681-0.499
		c1.135,0.317,1.906,0.499,1.906,0.499s0.228,1.182,0.908,1.454s1.726,0.59,2.406,0.635c0.681,0.046,1.362-0.091,1.135-1.361
		c-0.227-1.271-1.09-2.271-1.452-2.724c-0.363-0.454-0.409-0.862,0.272-0.862c0.681,0,1.452,0.227,1.452-0.863
		s0.317-0.909,0.862-0.863c0.545,0.045,1.091,0.59,1.68-0.227c0.59-0.817,1.272-0.454,1.816,0.091
		c0.545,0.545,0.955,1.271,1.545,1.635c0.59,0.363,1.587,0.407,1.86,0.908c0.272,0.499,0.091,1.135,0.908,1.225
		c0.818,0.092,1.09,0,1.226-0.362c0.138-0.363,0.5-0.272,0.909-0.228c0.408,0.046,1.497-0.453,1.497-0.682
		c0-0.226-0.499-0.407-0.136-0.726s0.817-0.726,1.317-1.271c0.2-0.22,0.563-0.74,0.926-1.286c-0.068-0.364-0.143-0.729-0.2-1.06
		c-0.181-1.029,0.273-1.06,0.363-1.271c0.092-0.213,0.061-1.122-0.393-1.303c-0.456-0.181-0.758,0-0.849-0.878
		c-0.091-0.876,0.727-0.635,1.181-0.726s0.394-1.815,0.212-2.845c-0.182-1.031-1.543-1.908-2.059-2.302
		c-0.514-0.392-0.604-0.998-0.787-1.482c-0.182-0.484-1.028-0.908-1.119-1.12c-0.092-0.211,0.091-1.302,0.212-1.302
		s0.756,0.182,1.09-0.211c0.332-0.394,0.786-0.424,1.271-0.424c0.483,0,0.757-1.362,0.817-1.938s-0.484-0.334-0.968-0.211
		c-0.484,0.12-0.788-0.092-0.999-0.637c-0.212-0.545-0.605-0.363-1.15-0.454c-0.544-0.091-0.484-0.877-0.696-1.331
		c-0.213-0.454-1.301-0.333-1.786-0.424c-0.483-0.091-0.908-1.09-0.969-1.394c-0.061-0.302-0.151-1.21-0.575-1.21
		c-0.423,0-0.514,1.241-0.514,1.482c0,0.242-0.484,0.516-1.15,0.485c-0.665-0.031-0.575-0.666-0.545-1.333
		c0.03-0.664-0.515-0.514-0.727-0.755c-0.212-0.243-0.273-0.969-0.06-1.756c0.211-0.787,0.302-2.724,0.331-3.118
		c0.03-0.395-0.029-0.666-0.362-0.604c-0.333,0.06-0.726,0.24-1.18-0.273c-0.455-0.514-0.757-1.331-0.818-1.968
		c-0.062-0.636-0.483-0.786-0.848-0.545c-0.363,0.243-0.666,0.062-1.089-0.333c-0.424-0.394-1.725-1.694-2.755-2.632
		c-1.028-0.939-2.148-2.331-2.633-3.149c-0.484-0.816-0.484-1.392-0.484-1.815s-0.605-0.787-1.029-1.726
		c-0.424-0.939-0.938-0.515-1.362-0.575c-0.423-0.061-0.727-0.636-1.543-1.635c-0.816-0.999-1.877-2.148-1.786-2.844
		c0.091-0.697,0.727-1.122,0.727-1.363c0-0.242-0.727-0.818-1.453-0.938c-0.728-0.121-1.635-0.362-2.481-0.998
		c-0.849-0.636-1.877-0.818-2.816-1.242c-0.938-0.423-1.634-1.362-2.36-1.816c-0.726-0.453-1.634-1.241-1.968-1.543
		c-0.332-0.303-1.452-0.363-1.815-0.697c-0.363-0.332-0.877-0.847-1.029-0.998c-0.152-0.152,0.606-0.726,0.847-0.604
		c0.243,0.12,0.636,0.181,0.909,0.06c0.272-0.121,0.272-0.877,0.152-1.15c-0.121-0.272,0.24-0.515,0.423-0.636
		c0.182-0.121-0.03-0.333-0.151-0.514c-0.12-0.181-0.757-0.757-0.757-0.908c0-0.152,0.183-0.394,0.395-0.453
		c0.211-0.062,0.242,0.12,0.786,0.665c0.545,0.545,1.664,0.152,2.149,0.091c0.483-0.06,0.544,0.182,0.544,0.182
		s0.605,0.031,1.09-0.121s1.361,0.091,1.726,0.272c0.362,0.182,0.848,0.211,1.211-0.272c0.362-0.484,0.695-0.394,1.362-0.666
		c0.666-0.272-0.183-1.029-0.395-1.604c-0.211-0.575,0.395-0.666,1.211-0.696c0.817-0.031,0.727-0.515,0.695-1.454
		c-0.029-0.938-0.816-1.452-1.392-1.452s-1.846-0.121-1.937-0.213c-0.091-0.091-0.271-0.665,0.03-0.696
		c0.303-0.031,0.695-0.333,0.665-0.787c-0.029-0.453-0.635-0.635-1.573-0.635s-1.483-0.363-1.574-0.727
		c-0.091-0.363,0.817-0.606,1.271-0.908c0.455-0.303,1.271-0.273,1.241-0.818s-0.969-0.998-1.483-1.332
		c-0.514-0.333-1.998-1.452-2.452-2.088s-1.635-0.394-2.059-0.121c-0.423,0.272-0.847,0.666-1.361,0.787
		c-0.516,0.121-0.816,0.272-1.363,0.938c-0.544,0.666-0.514,1.089-1.028,1.12c-0.516,0.03-0.243-0.756-0.666-1.211
		c-0.423-0.454-1.241-0.211-1.422-0.545c-0.182-0.332-0.364-0.453-0.818-0.453c-0.455,0-1.847-0.091-2.663-0.091
		c-0.818,0-1.059-1.029-1.453-2.149c-0.393-1.12-0.697-1.605-1.454-2.179c-0.756-0.576-0.697-0.848-0.424-1.211
		c0.273-0.363,1.151-1.302,1.151-1.725c0-0.425-0.333-0.243-0.637,0.03c-0.302,0.272-0.515,0.03-0.515-0.121
		c0-0.151,0.727-0.908,1.242-1.09c0.514-0.181,0.423-0.878,0.423-1.483s-0.484-0.727-0.847-0.514
		c-0.364,0.213-0.757,0.061-0.818-0.242c-0.06-0.303-0.121-1.393-0.423-1.393c-0.304,0-0.364,0.454-0.364,0.877
		c0,0.423-0.15,0.787-0.574,1.211c-0.425,0.423-0.757-0.304-0.757-0.999c0-0.695-0.333-1.121-0.697-1.513
		c-0.363-0.394-0.847-0.758-0.847-1.271c0-0.516-1.059-0.938-1.484-1.241c-0.424-0.303-1.301-1.454-1.574-2.088
		c-0.194-0.452-0.215-0.792-0.073-0.954c-0.319-0.296-0.666-0.552-0.971-0.62c-0.817-0.182-1.406-0.046-1.406,0.272
		c0,0.317-0.546,0.091-0.546-0.137c0-0.227-0.363-1.588-0.727-1.588s-0.999-0.228-1.453,0.907c-0.455,1.135-0.091,2.452-0.817,2.678
		c-0.727,0.227-0.818,0.817-0.772,1.454c0.045,0.636,0.409,1.862,1.182,3.541c0.771,1.68,1.225,2.769,1.225,2.769
		s-1.362,1.09-1.135,2.18s0.772,1.816,0.772,2.27c0,0.455-0.999,0.5-1.635-0.182c-0.636-0.681-1.771-0.681-2.27-0.59
		c-0.5,0.091-1.68,0.816-1.861,0.045c-0.182-0.772-0.409-1.135-0.727-1.271c-0.319-0.137-0.227-0.591,0-0.908
		c0.227-0.319-0.136-1.272-0.364-1.226c-0.227,0.045-0.363,0.726-0.907,0.726c-0.545,0-0.5,0.818-1.181,0.909
		c-0.681,0.091-0.771,0.228-1,0.5c-0.226,0.273-0.59,0.363-0.999,0.363c-0.408,0-0.772,0.408-0.681,0.681
		c0.092,0.272-0.317,0.771-0.455,1.18c-0.136,0.409-0.181,0.771-0.861,1.317c-0.682,0.545-1.181,0.681-0.999,1.09
		c0.181,0.408,0.771,0.408,1.181,0.317c0.408-0.091,0.862,0.907-0.182,0.953c-1.045,0.045-2.18-0.409-2.588-0.046
		c-0.408,0.364-1.499,0.683-1.499,1.181c0,0.5-0.045,1-0.453,1.363c-0.409,0.363-0.454,0.998-0.454,1.271s-0.773,0.771-0.682,1.452
		c0.091,0.682,0.591,1.725,0.817,1.181c0.228-0.545,0.364-0.953,0.727-0.953s0.454-0.816,0.635-0.909
		c0.183-0.091,0.727-0.091,1.181,0.864c0.454,0.952,0.909,2.087,1.589,1.542c0.681-0.544,1.09-0.044,0.771,0.682
		c-0.317,0.726-1.361,2.587-1.725,3.36c-0.363,0.772-0.682,1.952-0.046,2.814c0.636,0.862,0.953,1.089,1.589,0.681
		c0.636-0.408,1.181,0,1.408,0.272c0.227,0.273,0.998-0.182,1.634-0.499c0.635-0.317,1.908-0.499,2.452,0
		c0.545,0.499,1.272,0.953,1.635,0.953s0.772,0.818,0.409,1.317c-0.364,0.5-0.818,1.044-0.818,1.907s0,1.135,0.545,1.589
		c0.545,0.454,0.545,1.634,0.046,1.952c-0.5,0.318-1.318,1.772-1.409,2.633c-0.091,0.864-0.635,2.181-0.952,2.316
		c-0.319,0.137-0.818,0.228-0.818,0.999s0.726,0.499,0.726,1.453c0,0.953-0.544,1.407-0.317,2.225
		c0.228,0.817,0.09,1.907-0.545,2.361c-0.635,0.453-0.999,1.045-1.271,1.907s-0.817,1.861,0,1.997
		c0.818,0.136,1.363,0.59,1.634,0.863c0.272,0.272,1.271-0.136,1.452-0.772c0.182-0.636,0.501-1.407,1.182-1.68
		s1.454-0.816,1.634-1.226c0.181-0.409,0.181-0.409,0.181-0.409s0.818,0.317,0.954-0.681c0.136-0.999,0.5-1.907,1.044-1.907
		c0.545,0,0.999,0.636,1.409,0.227c0.408-0.409,0.953-1.771,1.725-1.997c0.771-0.228,1.044,0.317,1.588,0.816
		c0.546,0.5,1.499,1.59,2.725,1.953c1.226,0.363,2.27,0.045,2.27,0.408s-0.681,1.136-0.499,1.316
		c0.182,0.182,0.771,0.091,1.725-0.635c0.954-0.727,1.454-0.999,1.862-0.999c0.408,0,1.043,0.454,1.226,0.136
		c0.181-0.317-0.319-0.862,0.045-1.361c0.363-0.5,0.908-0.318,1.135-0.863c0.227-0.545,0.682-0.908,1.044-1.044
		c0.363-0.137,0.136-0.727,0.045-1c-0.09-0.272,0.863-0.634,1.589-0.727c0.727-0.09,2.769,0.545,3.587,1.045
		c0.817,0.499,1.587,0.726,2.224,0.635c0.636-0.091,1.18,0.363,1.498,1.09c0.318,0.726,0.953,2.18,1.271,2.452
		c0.318,0.272,0.864,0.954,0.864,1.226c0,0.273,0.953,0.5,1.316,0.818c0.364,0.317,0.681,1.134,0.863,1.588
		c0.182,0.455,1.135,0.907,2.042,1.498c0.908,0.59,1.498,1.59,1.727,2.452c0.227,0.863,0.316,1.998-0.229,2.407
		c-0.544,0.408-0.544,0.998-0.544,1.452c0,0.453,0.227,0.953,0.045,1.634s-0.681,0.681-0.182,1.181s0.046,0.908,0.046,1.453
		s0.045,0.954,0.954,1.862c0.908,0.907,0.59,1.135,1.589,1.771c0.998,0.635,0.635,2.134,1.315,2.36
		c0.682,0.226,3.132,0.861,3.132,1.316c0,0.454-0.181,1.589,0.546,2.09c0.727,0.498,1.498,0.362,1.907,0.953
		c0.409,0.59,0.272,0.862,0.228,1.18c-0.047,0.317-0.228,0.409-0.092,0.771c0.137,0.363-0.091,0.817-0.407,1.091
		c-0.319,0.271-0.909,0.726-0.909,1.044c0,0.317,0.999,0.362,0.999,0.726s-0.045,0.999-0.636,1.181
		c-0.59,0.183-0.454,0.908-0.09,1.408c0.362,0.499,0.59,1.044,0.454,1.771c-0.138,0.726-0.364,1.453-0.409,2.089
		c-0.045,0.635-0.228,1.315-0.228,1.906c0,0.59-0.636,1.634-1.271,1.771c-0.635,0.135-1.952,0.363-1.952,0.363
		S64.162,95.499,64.525,96.407z"/>
</g>
<g id="Layer_1">
</g>
</svg>
