<?xml version="1.0" encoding="iso-8859-1"?>
<!-- Generator: Adobe Illustrator 16.0.3, SVG Export Plug-In . SVG Version: 6.00 Build 0)  -->
<!DOCTYPE svg PUBLIC "-//W3C//DTD SVG 1.1//EN" "http://www.w3.org/Graphics/SVG/1.1/DTD/svg11.dtd">
<svg version="1.1" xmlns="http://www.w3.org/2000/svg" xmlns:xlink="http://www.w3.org/1999/xlink" x="0px" y="0px" width="100px"
	 height="100px" viewBox="0 0 100 100" style="enable-background:new 0 0 100 100;" xml:space="preserve">
<g id="LR">
	<g>
		<g>
			<path style="fill:#070404;" d="M27.034,57.555c0.06,0.089,0.067,0.265,0.067,0.409c-0.01,0-0.023,0-0.033,0
				c0,0.015,0,0.023,0,0.037c-0.023,0-0.046,0-0.07,0c-0.562-0.809-1.731-0.971-2.774-1.306c-0.149-0.009-0.297-0.023-0.446-0.032
				c-0.641-0.181-1.299-0.465-1.918-0.65c-0.205-0.061-0.339-0.01-0.548-0.07c-0.502-0.135-1.045-0.283-1.541-0.479
				c-0.323-0.13-0.551-0.525-0.857-0.65c-0.181-0.022-0.365-0.047-0.548-0.069c-0.153-0.065-0.546-0.274-0.683-0.377
				c-0.058-0.078-0.116-0.158-0.172-0.241c-0.172-0.126-0.498-0.209-0.583-0.409c-0.043-0.064-0.037-0.194-0.035-0.307
				c0.188-0.167,0.339-0.343,0.411-0.617c-0.012-0.242-0.023-0.479-0.035-0.721c0.119-0.381,0.542-0.363,0.65-0.65
				c-0.067,0-0.135,0-0.205,0c-0.174,0.187-0.341,0.189-0.65,0.172c-0.085-0.145-0.108-0.395-0.206-0.549
				c-0.183-0.288-0.451-0.552-0.652-0.821c-0.079-0.107-0.134-0.265-0.239-0.345c-0.351-0.26-0.727-0.525-1.097-0.751
				c-0.348-0.216-0.745-0.302-1.097-0.516c-0.342-0.207-0.721-0.488-1.095-0.65c-0.432-0.188-0.867-0.258-1.302-0.446
				c-0.355-0.151-0.571-0.497-0.925-0.65c-0.421-0.179-1.035-0.156-1.473-0.342C8.64,46.379,8.318,46.126,8.02,45.94
				c-0.276-0.169-0.595-0.286-0.856-0.444c-0.473-0.288-1.072-0.358-1.61-0.583c-0.194-0.082-0.411-0.251-0.617-0.309
				c-0.091,0-0.182,0-0.274,0c-0.292-0.077-0.67-0.255-0.822-0.479c-0.239-0.356-0.22-0.934-0.068-1.44
				c0.054-0.181,0.221-0.451,0.137-0.753c-0.328-1.173-1.623-1.192-2.124-2.158c-0.059-0.114-0.065-0.239-0.137-0.341
				c-0.049-0.07-0.177-0.082-0.206-0.172c-0.088-0.271,0.275-0.704,0.514-0.72c0.076,0.062,0.165,0.069,0.309,0.069
				c0.019-0.056,0.027-0.084,0.034-0.172c-0.081-0.058-0.14-0.163-0.102-0.239c0.026-0.109,0.341-0.769,0.411-0.822
				c0.097-0.077,0.233-0.065,0.341-0.137c0.086-0.058,0.451-0.581,0.481-0.686c-0.013-0.09-0.023-0.184-0.035-0.274
				c0.027-0.091,0.153-0.163,0.103-0.344c-0.041-0.146-0.158-0.265-0.034-0.443c0.039-0.125,0.117-0.2,0.239-0.239
				c0.212-0.104,0.613,0.058,0.652-0.344c0.187-0.295-0.394-0.704-0.412-1.097c0.241-0.23,0.638-0.522,0.823-0.787
				c0.197-0.286,0.216-0.923,0.547-1.062c0.145-0.1,0.289-0.065,0.479-0.137c0.119-0.044,0.18-0.186,0.274-0.239
				c0.161-0.035,0.319-0.07,0.479-0.104c0.102-0.04,0.212-0.167,0.31-0.205c0.309-0.119,0.696-0.167,0.993-0.239
				c0.083-0.184,0.089-0.546,0.206-0.72c0.209-0.316,0.657-0.479,0.856-0.753c0.126-0.177,0.118-0.469,0.24-0.65
				c0.122-0.182,0.35-0.309,0.479-0.481c0.103-0.137,0.203-0.349,0.343-0.444c0.177-0.123,0.373-0.155,0.548-0.274
				c0.08-0.056,0.138-0.167,0.239-0.207c0.139-0.056,0.233-0.028,0.344-0.103c0.119-0.081,0.122-0.22,0.205-0.344
				c0.082-0.118,0.321-0.299,0.445-0.376c0.228-0.14,0.527-0.167,0.754-0.307c0.206-0.132,0.303-0.348,0.445-0.55
				c0.142-0.202,0.425-0.253,0.617-0.411c0.168-0.135,0.253-0.354,0.514-0.409c0.185-0.042,0.282,0.09,0.479,0.102
				c0.238-0.246,0.59-0.251,0.892-0.446c0.243-0.158,0.442-0.449,0.617-0.686c0.149-0.126,0.296-0.251,0.445-0.376
				c0.093-0.135,0.103-0.316,0.206-0.446c0.137-0.067,0.274-0.137,0.412-0.204c0.067-0.184,0.135-0.365,0.205-0.548
				c0.153-0.23,0.456-0.393,0.618-0.618c0.492-0.678,0.924-1.541,1.54-2.088c0.37-0.33,0.955-0.516,1.473-0.686
				c0.234-0.077,0.523-0.028,0.616-0.239c0.125-0.2,0.035-1.283,0.035-1.61c0-1.441,0-2.879,0-4.317
				c0.318-0.184,0.815-0.321,1.029-0.616c0.075-0.104,0.07-0.228,0.135-0.344c0.292-0.507,0.465-0.964,0.924-1.301
				c0.061-0.044,0.098-0.137,0.172-0.172c0.23-0.109,0.502-0.249,0.72-0.309c0.344-0.095,0.771,0.051,0.995,0.105
				c0.395,0.09,1.022-0.112,1.268-0.172c0.195-0.049,0.376,0.072,0.581,0c0.548-0.197,0.85-0.727,1.233-1.097
				c-0.007-0.727-0.708-0.978-0.513-1.712c0.135-0.504,0.555-0.792,0.65-1.166c-0.012-0.056-0.023-0.114-0.035-0.17
				c-0.026-0.346-0.093-0.875,0-1.167c0.179-0.555,0.495-0.943,0.65-1.54c0.056-0.214-0.069-0.358-0.102-0.481
				c-0.067-0.246-0.007-0.435,0.035-0.616c0.095-0.051,0.167-0.07,0.341-0.07c0.228,0.124,0.493-0.302,0.788-0.205
				c0.169,0.056,0.088,0.261,0.309,0.31c0.193-0.297,0.648-0.376,0.822-0.618c0.137-0.193,0.109-0.409,0.412-0.446
				c0.218-0.148,0.539,0.054,0.822,0c0.334-0.062,0.439,0.14,0.683,0.207c0.139,0.037,0.271-0.067,0.446,0
				c0.146,0.056,0.495,0.396,0.618,0.514c0.009,0.195,0.023,0.388,0.033,0.583c-0.079,0.351-0.251,0.695-0.172,1.129
				c0.044,0.023,0.074,0.038,0.104,0.07c0.339-0.132,0.576-0.309,0.857-0.48c0.177-0.107,0.388-0.116,0.548-0.239
				c0.224-0.172,0.356-0.518,0.616-0.65c0.192-0.035,0.388-0.067,0.583-0.103c0.153-0.098,0.25-0.302,0.444-0.376
				c0.332-0.128,0.629-0.077,0.927,0c0.274,0.069,0.334-0.14,0.548-0.105c0.153,0.028,0.305,0.176,0.409,0.137
				c0.118-0.037,0.144-0.137,0.241-0.169c0.279-0.1,0.572,0.127,0.684-0.137c0.06-0.105-0.026-0.346-0.033-0.548
				c0.163-0.095,0.365-0.203,0.412-0.411c0-0.114,0-0.23,0-0.344C40.827,0.09,40.938,0.042,40.975,0
				c0.216,0.025,0.365,0.121,0.548,0.172c0.126,0.276,0.271,0.623,0.481,0.822c0.003,0.397-0.169,0.441-0.207,0.753
				c0.191,0.214,0.473,1.12,0.686,1.201c0-0.014,0-0.023,0-0.035c0.069-0.139,0.083-0.644,0.172-0.857
				c0.079-0.056,0.16-0.114,0.239-0.172c0.138,0.015,0.184-0.065,0.344-0.032c0.418,0.081,0.6,0.323,0.89,0.513
				c0.119,0.08,0.181,0.026,0.239,0.172c0.312,0.321,0.074,0.688-0.069,0.957c-0.07,0.137-0.051,0.261-0.17,0.344
				c-0.146,0.1-0.286,0.135-0.412,0.239c0.021,0.061,0.007,0.032,0.033,0.07c0.058,0.065,0.051,0.056,0.171,0.067
				c0.111-0.075,0.358-0.176,0.548-0.137c0.064,0.014,0.26,0.091,0.344,0.07c0.263-0.072,0.265-0.421,0.72-0.446
				c0.08,0.056,0.159,0.114,0.237,0.172c0.174,0.225,0.279,0.527,0.516,0.685c0.098,0.065,0.407,0.112,0.513,0.137
				c0.082-0.012,0.16-0.023,0.239-0.035c0.237,0.059,0.805,0.616,0.823,0.89c-0.25,0.151-0.683,0.314-0.683,0.721
				c0.056,0.056,0.179,0.197,0.205,0.274c0,0.09,0,0.181,0,0.274c0.088,0.197,0.288,0.151,0.306,0.479
				c-0.098,0.102-0.399,0.453-0.409,0.618c0.381,0.39-0.149,0.889-0.207,1.199c0.026,0.035,0.012,0.009,0.035,0.067
				c0.023,0,0.046,0,0.069,0c0.159,0.1,0.786,0.125,1.027,0.171c0.069,0.08,0.135,0.161,0.204,0.24
				c-0.004,0.736,0.149,1.31,0.344,1.849c0.046,0.137,0.035,0.397,0.103,0.516c0.058,0.103,0.346,0.07,0.446,0.135
				c0.208,0.145,0.353,0.569,0.444,0.823c0.161,0.441-0.174,0.616-0.24,0.892c0.012,0.137,0.023,0.274,0.033,0.411
				c-0.056,0.188-0.247,0.237-0.34,0.376c-0.186,0.268-0.043,0.632,0,0.89c0.028,0.174-0.162,0.207-0.104,0.411
				c0.03,0.107,0.16,0.268,0.207,0.379c0.023,0.114,0.046,0.228,0.067,0.342c0.058,0.046,0.114,0.09,0.17,0.137
				c0.09,0.153,0.032,0.291,0.104,0.479c0.039,0.102,0.258,0.362,0.342,0.481c0.167,0.232,0.529,0.325,0.688,0.583
				c0.093,0.156,0.151,0.402,0.17,0.616c0.012,0.112-0.049,0.2-0.035,0.274c0.028,0.167,0.2,0.223,0.242,0.411
				c-0.191,0.188-0.136,0.504-0.242,0.788c-0.195,0.525-0.458,0.964-0.274,1.712c0.141,0.059,0.288,0.088,0.343,0.242
				c0.028,0.039,0.065,0.216,0.033,0.306c-0.042,0.121-0.209,0.177-0.274,0.274c-0.088,0.139-0.191,0.532-0.237,0.686
				c-0.088,0.283-0.075,0.441-0.207,0.65c-0.082,0.13-0.299,0.263-0.341,0.412c-0.051,0.162,0.072,0.395,0,0.617
				c-0.051,0.149-0.277,0.662-0.376,0.788c-0.465,0.567-1.083,0.562-1.134,1.61c0.061,0.033,0.061,0.042,0.14,0.067
				c0.149-0.23,0.492-0.278,0.616-0.443c0.116-0.158,0.042-0.293,0.274-0.344c0.234,0.262,0.402,0.567,0.583,0.89
				c0.06-0.021,0.032-0.007,0.067-0.033c0.025-0.009,0.467-0.388,0.481-0.412c0.109-0.188,0.011-0.332,0.239-0.411
				c0.186-0.114,0.296,0.082,0.444,0.067c0.106-0.009,0.156-0.144,0.241-0.169c0.367-0.119,0.911,0.399,1.027,0.581
				c0.14,0.216,0.047,0.483,0.307,0.583c0.172-0.165,0.409-0.019,0.688-0.103c0.056-0.019,0.149-0.12,0.204-0.137
				c0.147-0.047,0.247,0.053,0.31,0.067c0.081,0.021,0.088-0.03,0.138-0.035c0.229-0.021,0.422,0.116,0.478,0.274
				c0.303,0.393-0.111,0.692-0.032,1.064c0.061,0.288,0.781,1.148,1.026,1.199c0.135-0.119,0.488,0.019,0.687,0.067
				c0.032,0.06,0.041,0.058,0.066,0.137c0.047,0.088-0.019,0.211,0,0.344c0.389,0.237,0.836,0.369,0.823,1.027
				c0.011,0,0.022,0,0.035,0c0.062,0.042,0.197,0.038,0.308,0.035c0.062,0.044,0.177,0.044,0.239,0
				c0.407-0.145,0.614-0.69,1.029-0.823c0.182,0,0.362,0,0.549,0c0.135-0.046,0.214-0.235,0.339-0.274
				c0.162-0.051,0.187,0.121,0.274-0.07c0.037-0.091,0.069-0.181,0.104-0.274c0.053-0.016,0.234,0.004,0.31-0.033
				c0.064-0.035,0.022-0.109,0.067-0.172c0.165-0.249,0.602-0.3,0.857-0.102c0.209,0.158,0.078,0.569,0.408,0.616
				c0.325-0.284,1.19-0.059,1.198-0.651c-0.102-0.202,0.168-0.357,0.105-0.616c-0.059-0.246-0.49-0.69-0.274-1.029
				c0.056-0.169,0.216-0.249,0.309-0.376c0.195-0.265,0.414-0.916,0.822-0.925c0.112,0.065,0.265-0.053,0.307-0.172
				c0.21-0.228,0.025-0.286,0.07-0.514c0.012-0.06,0.065-0.114,0.069-0.239c0.091-0.082,0.182-0.16,0.274-0.242
				c0.126-0.051,0.209-0.002,0.307-0.067c0.232-0.153,1.018-1.113,1.027-1.473c-0.151-0.165,0.006-0.375-0.103-0.616
				c-0.064-0.148-0.211-0.109-0.239-0.344c0.04-0.065,0-0.177,0.035-0.274c0.035-0.104,0.172-0.302,0.204-0.411
				c0-0.342,0-0.686,0-1.027c0.135-0.477,0.608-0.667,0.857-1.029c0.062-0.093,0.07-0.293,0.17-0.342c0.241,0,0.48,0,0.72,0
				c0.135,0.084,0.487,0.031,0.686,0.035c0.446,0.023,0.89,0.044,1.336,0.067c0.079,0.146,0.074,0.407,0.069,0.65
				c0.146,0.242-0.047,0.771,0.103,0.995c0.19,0.283,0.676,0.416,0.959,0.616c0.77,0.543,1.894,1.213,2.294,2.091
				c0.088,0.19,0.244,0.765,0.274,0.959c0.029,0.177-0.149,0.483-0.067,0.753c0.07,0.239,0.248,0.504,0.308,0.72
				c0.084,0.31-0.186,0.407-0.102,0.718c0.034,0.135,0.167,0.246,0.204,0.378c0.024,0.263,0.047,0.525,0.07,0.788
				c0.058,0.153,0.255,0.19,0.342,0.309c0.147,0.202,0.137,0.511,0.274,0.718c0.083,0.123,0.24,0.192,0.273,0.376
				c0.032,0.184-0.118,0.291-0.138,0.481c0.358,0.326,0.707,0.83,1.097,1.097c0.219,0.148,0.621,0.1,0.686,0.411
				c-0.123,0.205,0.076,0.597-0.034,0.788c-0.101,0.292-0.34,0.228-0.345,0.651c0.215,0.29-0.146,0.634-0.067,0.992
				c0.098,0.439,0.268,0.867,0.446,1.269c0.086,0.195,0.198,0.236,0.205,0.548c-0.227,0.208-0.426,0.625-0.651,0.787
				c-0.16,0.116-0.295,0.072-0.341,0.309c0.056,0.086,0.146,1.115,0.137,1.129c-0.062,0.188-0.276,0.33-0.411,0.446
				c0.021,0.061,0.008,0.033,0.032,0.069c0.111,0.349,0.567,0.2,0.618,0.616c-0.111,0.126-0.272,0.446-0.31,0.618
				c0.024,0.103,0.047,0.205,0.07,0.307c-0.061,0.265-0.369,0.515-0.446,0.787c-0.037,0.13,0.059,0.26,0.067,0.344
				c0.017,0.112-0.046,0.147-0.067,0.24c-0.067,0.058-0.137,0.114-0.206,0.172c-0.08,0.033-0.2-0.037-0.237,0.033
				c0,0,0.007,0.43,0,0.48c-0.404,0.082-0.367,0.409-0.652,0.583c-0.103,0.063-0.282,0.005-0.342,0.033
				c-0.228,0.216-0.173,0.55-0.31,0.857c-0.086,0.186-0.267,0.184-0.411,0.309c-0.188,0.161-0.084,0.277-0.479,0.274
				c0,0.012,0,0.021,0,0.035c-0.093,0.102-0.098,0.325-0.207,0.411c-0.111,0.083-0.425,0.062-0.513,0.169
				c-0.112,0.137-0.023,0.3-0.205,0.376c-0.086,0.049-0.209,0.005-0.311,0.035c0.016,0.367-0.112,0.4-0.479,0.376
				c-0.022-0.019,0-0.049-0.067-0.033c0,0.01,0,0.023,0,0.033c-0.104,0.062-0.076,0.283-0.067,0.446
				c-0.042,0.046-0.053,0.098-0.069,0.172c-0.195,0.137-0.23,0.211-0.548,0.169c-0.112,0.237-0.242,0.667-0.479,0.755
				c-0.215,0.17-0.544-0.065-0.585,0.309c0.376,0.214,0.453,0.069,0.893,0.169c0.115,0,0.228,0,0.343,0
				c0.164,0.056,0.807,0.828,0.926,0.996c0.093,0.134,0.301,0.501,0.548,0.446c0.128-0.033,0.449-0.618,0.479-0.756
				c0.041-0.188-0.195-0.492,0.204-0.583c0.145,0.097,0.312,0.072,0.414,0.207c0.09,0.16,0.182,0.32,0.274,0.478
				c0.157,0.135,0.388,0.056,0.615,0.14c0.225,0.083,0.355,0.325,0.514,0.478c0,0.056,0,0.117,0,0.172
				c-0.059,0.06-0.052,0.098-0.137,0.135c-0.165,0.106-0.263,0.079-0.412,0.209c0.032,0.112,0.109,0.158,0.138,0.237
				c0.081,0.241,0.019,0.408,0.104,0.617c0.018,0.047,0.123,0.103,0.135,0.14c0.06,0.158-0.079,0.219-0.103,0.34
				c0.051,0.018,0.061,0.022,0.138,0.037c0.16-0.229,0.206-0.02,0.445-0.069c0.704-0.154,0.96-0.252,1.405,0.24
				c0.112-0.032,0.207-0.093,0.308-0.037c0.181,0.066,0.422,0.289,0.515,0.446c0.052,0.088,0.01,0.261,0.103,0.308
				c0.047,0,0.091,0,0.135,0c0.252-0.131,0.64,0.213,0.822,0.274c0.261,0.088,0.479,0.027,0.756,0.101
				c0.318,0.094,0.593,0.331,0.787,0.554c0.274-0.079,0.62-0.019,0.925-0.14c0.372-0.148,0.418-0.409,0.959-0.414
				c0.34,0.294,1.332-0.515,1.852-0.203c0.168,0.064,0.145,0.228,0.272,0.311c0.132,0.084,0.234-0.061,0.411,0
				c0.054,0.02,0.116,0.116,0.173,0.135c0.168,0.052,0.231-0.107,0.375-0.069c0.055,0.014,0.122,0.121,0.173,0.14
				c0.148,0.055,0.404,0.069,0.514,0.102c0.216,0.061,0.351-0.083,0.548,0.033c0.149,0.088,0.109,0.404,0.239,0.515
				c0.175,0.149,0.423,0.182,0.617,0.308c0.163,0.106,0.247,0.273,0.377,0.413c0.223,0.232,0.681,0.308,0.753,0.683
				c-0.126,0.158-0.228,0.396-0.205,0.688c0.005,0.075,0.065,0.135,0.032,0.237c-0.046,0.149-0.229,0.261-0.306,0.377
				c-0.188,0.283-0.195,0.984,0,1.269c0.037,0.027,0.032,0.023,0.103,0.037c0.041-0.064,0.088-0.089,0.136-0.14
				c0.133,0.033,0.235,0.145,0.342,0.173c0.075,0.018,0.16-0.07,0.274-0.033c0.216,0.07,0.305,0.265,0.446,0.408
				c-0.014,0.173-0.037,0.428,0.069,0.582c0.117,0.106,0.247,0.106,0.307,0.274c0.065,0.083,0.07,0.189,0.07,0.343
				c-0.249,0.162-0.263,0.549-0.31,0.892c0.151,0.173,0.356,0.33,0.481,0.512c0.056,0.083,0.061,0.218,0.135,0.274
				c0.239,0.176,0.62,0.144,0.857,0.311c0.109,0.075,0.118,0.237,0.207,0.34c0.11,0.069,0.228,0.14,0.341,0.209
				c0.061-0.023,0.032-0.009,0.067-0.037c0.135-0.103,0.086-0.209,0.069-0.409c0.154-0.103,0.289-0.278,0.412-0.413
				c0.669-0.052,0.3,0.209,0.615,0.483c0.054,0.032,0.121,0.005,0.207,0.032c0.095,0.027,0.157,0.14,0.239,0.172
				c0.162,0.061,0.312,0.015,0.445,0.103c0.164,0.107,0.077,0.274,0.342,0.307c0.29-0.167,0.76,0.209,0.822,0.413
				c-0.011,0.089-0.022,0.182-0.035,0.274c0.07,0.056,0.138,0.112,0.207,0.172c0.021,0.065,0.045,0.135,0.067,0.205
				c0,0.009,0,0.022,0,0.032l0.035,0.037c0.047,0,0.091,0,0.138,0c0.148-0.163,0.342-0.391,0.617-0.414
				c0.312,0.34,0.544,0.679,0.786,1.097c0.014,0,0.022,0,0.037,0c0-0.009,0-0.022,0-0.032c0.403-0.39-0.062-1.082,0.854-1.064
				c0.246,0.228,0.585,0.27,0.618,0.721c-0.061,0.084-0.232,1.171-0.172,1.37c0.028,0.098,0.153,0.266,0.137,0.41
				c-0.016,0.135-0.174,0.265-0.206,0.375c-0.107,0.382,0.39,1.222,0.479,1.474c0.084,0.242-0.017,0.534,0.104,0.72
				c0.044,0.037,0.09,0.07,0.137,0.103c0.107,0.162,0.128,0.362,0.239,0.517c0.103,0.143,0.307,0.269,0.379,0.445
				c0,0.125,0,0.251,0,0.377c0.072,0.228,0.281,0.282,0.307,0.58c-0.032,0.015-0.07,0.023-0.103,0.037
				c-0.182,0.13-0.302-0.01-0.515-0.037c-0.02,0.052-0.024,0.061-0.033,0.14c0.111,0.125,0.028,0.214,0.102,0.409
				c0.037,0.098,0.265,0.237,0.344,0.311c-0.135,0.581-0.664,0.758-0.856,1.231c-0.138,0.33,0.069,0.874,0,1.231
				c-0.165,0.032-0.342,0.057-0.377,0.242c0.224,0.26,0.284,1.077,0.686,1.129c0.089-0.145,0.168-0.237,0.408-0.237
				c0.063,0.079,0.191,0.12,0.242,0.205c0.01,0.115,0.023,0.228,0.032,0.344c0.075,0.269,0.391,0.697,0.173,1.027
				c-0.077,0.228-0.332,0.287-0.447,0.478c-0.073,0.13-0.008,0.279-0.067,0.446c-0.08,0.237-0.337,0.608-0.615,0.65
				c-0.069-0.111-0.188-0.186-0.241-0.307c-0.01-0.083-0.023-0.163-0.033-0.241c-0.034-0.057-0.088-0.052-0.172-0.069
				c-0.194,0.06-0.39,0.115-0.58,0.172c-0.037,0.078-0.056,0.098-0.069,0.203c0.292,0.321-0.205,0.646-0.173,0.894
				c0.037,0.301,0.312,0.905,0.242,1.3c-0.104,0.567-0.411,1.023-0.653,1.441c-0.034,0.125-0.066,0.25-0.104,0.376
				c-0.089,0.069-0.182,0.135-0.272,0.204c-0.058,0-0.114,0-0.172,0c-0.077-0.121-0.155-0.223-0.342-0.236
				c-0.13,0.195-0.228,0.153-0.445,0.273c-0.08,0.103-0.158,0.205-0.24,0.307c-0.034,0.442,0.133,0.753,0.207,1.167
				c0.019,0.115-0.054,0.228-0.069,0.307c-0.035,0.157,0.048,0.26,0.069,0.343c0.046,0.205-0.079,0.396-0.037,0.614
				c0.435,0.218,0.258,0.25,0.413,0.688c0.067,0.19,0.229,0.187,0.239,0.479c-0.027,0.041-0.027,0.056-0.034,0.14
				c-0.07,0.056-0.138,0.111-0.205,0.167c-0.288,0-0.566-0.153-0.617-0.134c-0.112,0.073-0.107,0.232-0.205,0.306
				c-0.157,0.126-0.325-0.005-0.376,0.242c0.128,0.162,0.318,0.979,0.204,1.333c-0.07,0.219-0.26,0.362-0.07,0.655
				c0.114,0.307,0.517,0.293,0.619,0.614c-0.012,0.147-0.023,0.297-0.035,0.445c0.07,0.339,0.072,0.604,0.067,0.962
				c0,0.246,0.158,0.497,0.07,0.785c-0.01,0.033-0.093,0.135-0.103,0.172c0.01,0.148,0.022,0.297,0.032,0.446
				c-0.015,0.051-0.082,0.064-0.067,0.172c0.025,0.181,0.23,0.335,0.274,0.479c0,0,0.037,0.878,0.035,0.892
				c-0.084,0.298-0.354,0.391-0.377,0.753c0.13,0.136,0.409,0.535,0.307,0.855c-0.027,0.098-0.167,0.214-0.102,0.414
				c0.046,0.143,0.25,0.199,0.204,0.44c-0.037,0.2-0.251,0.957-0.204,1.134c0.102,0.195,0.204,0.386,0.307,0.581
				c0.073,0.273-0.261,0.636-0.377,0.753c0.023,0.061,0.01,0.032,0.037,0.069c0.144,0.521,0.864,0.413,0.957,0.995
				c-0.241,0.152-0.483,0.228-0.924,0.204c-0.093-0.01-0.182-0.023-0.274-0.032c-0.274,0.051-0.712,0.25-1.13,0.135
				c-0.253-0.07-0.55-0.232-0.789-0.307c-0.377,0.009-0.753,0.022-1.129,0.032c-0.303-0.084-0.607-0.307-0.893-0.409
				c-0.182-0.07-0.391-0.042-0.514-0.07c-0.318-0.073-0.569-0.139-0.787-0.306c-0.098-0.074-0.126-0.214-0.242-0.274
				c-0.213-0.121-0.487-0.065-0.58-0.312c-0.065-0.098-0.07-0.33-0.07-0.479c-0.167-0.097-0.367-0.265-0.549-0.344
				c-0.157-0.07-0.337-0.052-0.478-0.135c-0.249-0.149-0.539-0.418-0.822-0.516c-0.126,0-0.252,0-0.377,0
				c-0.26-0.084-0.46-0.344-0.72-0.446c-0.818-0.312-1.673-0.404-2.535-0.683c-0.555-0.182-1.169-0.399-1.745-0.549
				c-0.195-0.01-0.391-0.023-0.585-0.032c-0.381-0.088-0.893-0.116-1.267-0.21c-0.318-0.073-0.683,0.07-0.96-0.032
				c-0.287-0.106-0.455-0.445-0.685-0.617c-0.256-0.186-0.505-0.325-0.753-0.512c-0.209-0.158-0.355-0.445-0.616-0.548
				c-0.767-0.307-1.788-0.298-2.536-0.651c-0.135-0.065-0.391-0.228-0.479-0.343c-0.054-0.07-0.067-0.158-0.138-0.205
				c-0.186-0.13-0.402-0.177-0.583-0.312c-0.19-0.135-0.293-0.408-0.479-0.548c-0.13-0.093-0.274-0.112-0.413-0.205
				c-0.2-0.13-0.384-0.344-0.614-0.445c-0.344-0.145-0.659-0.196-0.994-0.339c-0.292-0.131-0.646-0.303-0.925-0.484
				c-0.046-0.027-0.084-0.115-0.139-0.135c-0.126-0.009-0.251-0.022-0.377-0.032c-0.214-0.088-0.425-0.311-0.65-0.381
				c-0.069-0.019-0.153,0.033-0.172,0.037c-0.163,0.028-0.386-0.051-0.511-0.102c-0.2-0.084-0.34-0.308-0.517-0.377
				c-0.522-0.218-1.109-0.251-1.542-0.548c-0.149-0.107-0.182-0.354-0.307-0.483c-0.18-0.181-0.441-0.256-0.651-0.409
				c-0.103-0.116-0.203-0.228-0.309-0.344c-0.234-0.172-0.573-0.349-0.822-0.479c-0.144-0.074-0.239-0.041-0.411-0.103
				c-0.121-0.046-0.27-0.2-0.377-0.241c-0.102,0.014-0.204,0.023-0.307,0.037c-0.297-0.079-0.597-0.349-0.892-0.446
				c-0.396-0.135-0.758-0.111-1.13-0.274c-0.202-0.088-0.427-0.343-0.55-0.516c-0.042-0.06-0.045-0.162-0.103-0.204
				c-0.332-0.079-0.662-0.158-0.992-0.242c-0.297-0.181-0.595-0.362-0.892-0.548c-0.074-0.093-0.107-0.307-0.204-0.377
				c-0.207-0.144-0.525-0.097-0.721-0.236c-0.111-0.079-0.158-0.265-0.274-0.344c-0.125-0.084-0.283-0.089-0.411-0.172
				c-0.179-0.116-0.3-0.335-0.48-0.446c-0.125-0.032-0.252-0.065-0.377-0.103c-0.148-0.088-0.311-0.27-0.478-0.343
				c-0.173-0.033-0.345-0.065-0.517-0.103c-0.335-0.2-0.576-0.525-0.854-0.786c0.011-0.037,0.022-0.069,0.032-0.103
				c0.103-0.06,0.179-0.101,0.207-0.24c-0.451-0.284-1.076-0.47-1.508-0.79c-0.283-0.209-0.431-0.619-0.719-0.823
				c-0.211-0.144-0.466-0.19-0.686-0.339c-0.125-0.14-0.25-0.274-0.376-0.414c-0.266-0.25-0.525-0.502-0.79-0.752
				c-0.186-0.252-0.327-0.502-0.511-0.754c-0.082-0.105-0.213-0.171-0.274-0.306c-0.139-0.316-0.114-0.743-0.378-0.929
				c-0.433-0.298-0.729-0.665-1.301-0.823c-0.332-0.088-0.741-0.009-0.857-0.307c-0.033-0.047-0.033-0.111-0.033-0.204
				c0.149-0.135,0.272-0.26,0.274-0.549c-0.102-0.103-0.161-0.256-0.274-0.344c-0.297-0.224-0.669-0.432-0.994-0.618
				c-0.157-0.088-0.375-0.041-0.513-0.135c-0.183-0.205-0.364-0.408-0.55-0.618c-0.16-0.116-0.339-0.157-0.511-0.273
				c-0.325-0.214-0.619-0.53-0.925-0.753c-0.255-0.182-0.529-0.27-0.791-0.446c-0.385-0.265-0.552-0.771-0.821-1.162
				c-0.237-0.218-0.479-0.437-0.718-0.654c-0.189-0.186-0.268-0.488-0.481-0.65c-0.355-0.265-0.774-0.424-1.129-0.684
				c-0.2-0.144-0.349-0.404-0.548-0.548c-0.776-0.558-1.359-1.222-2.021-1.883c-0.065-0.068-0.167-0.194-0.242-0.24
				c-0.218-0.14-0.418-0.033-0.444-0.377c-0.081-0.13-0.13-0.809-0.137-0.994c-0.205-0.145-0.279-0.377-0.548-0.479
				c-0.218-0.046-0.435-0.093-0.65-0.139c-0.253-0.14-0.386-0.521-0.618-0.684c-0.237-0.172-0.595-0.144-0.855-0.311
				c-0.182-0.112-0.316-0.377-0.446-0.544c-0.125-0.116-0.25-0.232-0.376-0.345c-0.316-0.422-0.697-1.017-1.167-1.268
				c-0.295-0.158-0.566-0.172-0.924-0.274c-0.372-0.106-0.799-0.302-1.129-0.446c-0.302-0.13-0.686-0.288-0.72-0.683
				c0.106-0.069,0.116-0.103,0.309-0.103c0.123,0.093,0.355,0.07,0.513,0.033c0.054-0.085,0.079-0.08,0.103-0.205
				c-0.042-0.032-0.038-0.027-0.07-0.069c-0.27,0.079-0.679,0.056-0.786-0.205c-0.065-0.103-0.037-0.288-0.102-0.376
				c-0.123-0.167-0.353-0.182-0.548-0.274c-0.228-0.111-0.504-0.236-0.721-0.381c-0.221-0.139-0.292-0.362-0.65-0.376
				c-0.04,0.074-0.051,0.065-0.07,0.172c0.423,0.251,0.855,0.521,1.269,0.79C26.739,57.249,26.999,57.225,27.034,57.555z
				 M7.78,44.776c0.149-0.223,0.349-0.332,0.376-0.686c-0.1-0.081-0.137-0.232-0.239-0.309c-0.081-0.059-0.239-0.065-0.309-0.137
				c-0.057-0.193-0.114-0.388-0.17-0.581c-0.117-0.276-0.3-0.541-0.446-0.79c-0.045,0-0.091,0-0.136,0
				c-0.045,0.088-0.037,0.1-0.139,0.137c-0.172,0.098-0.384-0.098-0.547-0.032c-0.046,0.056-0.092,0.114-0.137,0.169
				c-0.092,0.012-0.184,0.023-0.274,0.035c-0.303,0.114-0.631,0.205-0.891,0.343c-0.183,0.095-0.363,0.07-0.412,0.307
				c0.152,0.077,0.371,0.109,0.513,0.207c0.215,0.145,0.5,0.381,0.754,0.479c0.187,0.072,0.297,0.047,0.446,0.137
				c0.281,0.172,0.572,0.513,0.891,0.618c0.16,0,0.32,0,0.479,0C7.62,44.7,7.656,44.755,7.78,44.776z"/>
		</g>
	</g>
</g>
<g id="Layer_1">
</g>
</svg>
