<?xml version="1.0" encoding="iso-8859-1"?>
<!-- Generator: Adobe Illustrator 16.0.3, SVG Export Plug-In . SVG Version: 6.00 Build 0)  -->
<!DOCTYPE svg PUBLIC "-//W3C//DTD SVG 1.1//EN" "http://www.w3.org/Graphics/SVG/1.1/DTD/svg11.dtd">
<svg version="1.1" xmlns="http://www.w3.org/2000/svg" xmlns:xlink="http://www.w3.org/1999/xlink" x="0px" y="0px" width="100px"
	 height="100px" viewBox="0 0 100 100" style="enable-background:new 0 0 100 100;" xml:space="preserve">
<g id="LU">
	<path style="fill:#010101;" d="M74.285,47.722c-1.278-0.963-3.155-3.112-3.616-3.753c-0.455-0.639-1.372-1.509-2.557-0.777
		c-1.196,0.733-2.154,0.777-2.794-0.639c-0.639-1.417-2.054-2.334-2.743-2.334s-1.834-1.878-2.794-2.563
		c-0.958-0.687-3.104-1.965-3.02-2.882c0.091-0.912,0.369-1.916-0.732-2.651c-1.093-0.73-0.908-1.28-0.866-2.106
		c0.05-0.82,0.319-1.737-1.186-1.737c-1.516,0-1.237-0.777-1.557-1.738c-0.319-0.958-1.464-2.422-1.969-2.88
		c-0.504-0.459-1.279-1.97-1.187-3.752c0.092-1.785-1.372-3.248-1.557-4.208c-0.184-0.958-0.277-3.34,0.228-4.849
		c0.505-1.511,0.278-2.975,0.278-5.306c0-2.334-0.227-2.287-1.052-3.247c-0.824-0.958-1.379-1.098-2.103-0.139
		c-0.732,0.963-3.02,1.875-3.896,1.144c-0.867-0.731-1.455-2.423-2.187-2.836c-0.74-0.412-4.072-0.87-4.804,0.139
		c-0.732,1.005-2.432,3.98-3.661,5.167c-1.235,1.191-2.338,3.112-3.298,4.53c-0.958,1.417-2.102,2.604-2.102,4.027
		c0,1.416,0.227,3.382-0.96,4.572c-1.186,1.189-2.835,3.613-2.928,4.484c-0.092,0.865,0.455,1.962,0.413,2.697
		c-0.051,0.73-1.97,2.469-2.743,3.157c-0.782,0.687-1.421,1.372-1.784,3.156c-0.37,1.783-1.329,3.84-2.019,4.483
		c-0.681,0.641-0.547,2.104,0.187,2.697c0.73,0.594,2.237,1.692,1.514,2.881c-0.732,1.191-1.053,1.69-0.783,2.7
		c0.278,1.006-0.917,2.287-0.73,3.109c0.184,0.825,0.782,2.7,2.102,3.753c1.33,1.051,3.249,3.247,3.433,4.711
		c0.186,1.462-0.184,2.471,2.011,3.658c2.196,1.188,4.299,1.419,3.567,4.115c-0.732,2.701,0.732,5.581,1.194,6.68
		c0.455,1.097-0.505,3.613-1.101,4.711c-0.59,1.099-1.414,3.201-1.188,4.757c0.228,1.553-0.412,3.429-0.866,4.394
		c-0.462,0.959,0.042,2.647,1.094,4.392c1.051,1.735,4.711,4.065,6.083,4.158s3.247,2.196,3.886,3.063
		c0.639,0.871,3.432,3.34,5.031,3.34c1.607,0,4.257-0.548,5.814-1.326c1.556-0.776,3.197-1.92,3.979-3.339
		c0.774-1.417,1.967-4.297,3.29-4.892c1.329-0.597,5.72,0.228,7.226,1.005c1.515,0.777,3.072,2.975,4.896,4.253
		c1.825,1.281,3.525,1.098,4.207,1.146c0.689,0.046,1.144,0.27,0.917-1.924c-0.228-2.196-0.69-4.665-0.093-6.355
		c0.597-1.692,0.547-3.934,0.504-5.353c-0.042-1.416,0.187-2.103,1.278-3.934c1.104-1.828,3.342-3.796,3.526-6.037
		c0.186-2.243,0.228-5.125,1.6-5.764c1.37-0.641,2.236-1.19,2.927-2.013c0.689-0.823,2.516-1.055,3.154-1.097
		c0.639-0.047,0.597-0.731,0.369-1.875c-0.234-1.146-1.05-3.022-0.824-4.213c0.229-1.186,0.733-1.964,0.363-3.015
		c-0.363-1.051-0.135-1.696,0.73-2.655c0.875-0.957,1.33-2.056,0.599-2.697c-0.732-0.643-2.701-0.183-3.34-0.595
		c-0.64-0.414-2.195-0.912-3.66-0.824C76.523,48.589,75.044,48.291,74.285,47.722z"/>
</g>
<g id="Layer_1">
</g>
</svg>
