<?xml version="1.0" encoding="iso-8859-1"?>
<!-- Generator: Adobe Illustrator 16.0.3, SVG Export Plug-In . SVG Version: 6.00 Build 0)  -->
<!DOCTYPE svg PUBLIC "-//W3C//DTD SVG 1.1//EN" "http://www.w3.org/Graphics/SVG/1.1/DTD/svg11.dtd">
<svg version="1.1" xmlns="http://www.w3.org/2000/svg" xmlns:xlink="http://www.w3.org/1999/xlink" x="0px" y="0px" width="100px"
	 height="100px" viewBox="0 0 100 100" style="enable-background:new 0 0 100 100;" xml:space="preserve">
<g id="ML">
	<path style="fill:#010101;" d="M35.665,3.031c3.356,0.012,6.709,0.023,10.065,0.035c2.716,1.906,5.432,3.812,8.148,5.715
		c6.206,4.369,12.367,8.747,18.551,13.11c2.02,1.3,4.039,2.602,6.059,3.902c0.589,0.372,2.191,1.098,2.497,1.644
		c0.307,0.548-0.218,1.414-0.069,1.882c0.023,0.033,0.047,0.067,0.069,0.102c0.219-0.023,0.432-0.046,0.65-0.069
		c0.009,0.014,0.023,0.023,0.032,0.035c0.26,0.086,0.223,0.325,0.413,0.446c0.539,0.339,1.263,0.163,1.676,0.685
		c0.2,0.251,0.172,0.792,0.344,1.061c0.432,0.204,1.871,1.079,2.294,0.822c0.311-0.184,0.45-0.513,0.891-0.239
		c0.413,0.258,0.942,1.216,1.128,1.3c0.529,0.242,1.026,0.148,1.677,0.239c0.784,0.111,1.912,0.427,2.534,0.822
		c0.265,0.169,0.539,0.123,0.683,0.411c-0.023,0.513-0.047,1.028-0.069,1.542c0.06,0.364,0.589,0.754,0.413,1.23
		c-0.214,0.446-0.696,0.88-0.822,1.404c0.404,0.302,0.864,0.673,1.3,0.924c1.235-0.297,2.466-0.592,3.695-0.889
		c0.396-0.109,1.185-0.43,1.509-0.309c0.112,1.792,0.228,3.582,0.34,5.374c0.046,1.3,0.093,2.602,0.139,3.902
		c0.177,1.153,0.32,3.577,0,4.417c0.023,1.254,0.047,2.512,0.069,3.765c-0.115,0.205-0.395,0.246-0.515,0.446
		c-0.005,0.009-0.511,1.472-0.511,1.472c-0.047,0.265,0.162,0.329,0.135,0.548c-0.074,0.343-0.386,0.422-0.479,0.719
		c-0.14,0.423,0.061,0.85-0.172,1.198c-0.255,0.376-0.459,0.204-0.924,0.408l-1.23,1.166c-0.037,0.204-0.069,0.408-0.106,0.612
		c-0.989-0.056-1.982-0.111-2.976-0.167c0.005,0.186-0.019,0.302-0.069,0.408c-3.445,0.265-6.89,0.524-10.335,0.789
		c-0.673,0.674-1.346,1.347-2.019,2.02c-0.608,0.079-1.212,0.158-1.815,0.237c-0.354-0.103-0.711-0.204-1.063-0.307
		c-0.204,0.103-0.408,0.204-0.612,0.307c-0.367,0.079-0.753-0.325-0.994-0.103c0.061,0.172,0.065,0.274,0,0.413
		c-0.455-0.176-2.627-1.077-3.045-0.961c-0.288,0.14-0.571,0.274-0.859,0.413c-0.148-0.148-0.297-0.297-0.445-0.445
		c-2.372-0.019-2.085,0.952-3.389,1.811c-0.59,0.172-1.185,0.344-1.778,0.516c-0.729,0.515-1.463,1.025-2.191,1.541
		c-0.487,0.199-1.271-0.037-1.708,0.172c-0.093,0.548-0.047,1.364-0.274,1.811c-0.194,0.069-0.39,0.139-0.585,0.209
		c-0.641-0.089-1.355-0.952-2.256-0.688c-0.014,0.014-0.023,0.023-0.037,0.037c-0.111,0.047-1.927,1.426-1.982,1.504
		c-0.014,0-0.023,0-0.037,0c-0.153,0.251-0.278,0.785-0.339,1.026c-0.135,0.538,0.176,1.059-0.037,1.439
		c-0.371,0.098-0.65,0.139-0.994,0.204c-0.181-0.144-0.255-0.19-0.376-0.408c-0.273,0.004-0.589-0.033-0.752,0.032
		c0.061,0.44-0.139,0.775-0.069,1.165c0.093,0.501,0.283,0.905,0.037,1.332c-0.395-0.019-0.84-0.056-1.063,0.172
		c0.074,0.241-0.014,0.413-0.102,0.585c-1.128-0.098-1.472-0.687-2.224-1.165c-0.487-0.311-0.902-0.177-1.3-0.479
		c-0.14,0.042-0.274,0.089-0.413,0.135c-0.112,0.241-0.261,0.65-0.479,0.789c-0.14,0.089-0.293,0.028-0.376,0.168
		c-0.103,0.171,0.074,0.306-0.103,0.445c-0.172,0.093-0.334,0.005-0.515,0.106c-0.037,0.479,0.464,0.688,0.649,1.026
		c0.283,0.501,0.047,1.258-0.069,1.676c-0.479,0.14-1.18-0.148-1.537,0.241c0.195,0.33,0.455,0.529,0.65,0.924
		c-0.116,0.167-0.228,0.339-0.344,0.511c0.019,0.376,0.228,0.521,0.241,0.822c-0.023,0.078-0.046,0.162-0.069,0.241
		c-0.148,0.009-0.297,0.023-0.445,0.032c-0.153,0.069-0.372,0.395-0.516,0.516c0.042,0.236,0.032,0.385-0.065,0.548
		c-0.116,0.009-0.228,0.022-0.343,0.032c-0.056,0.148-0.075,0.297-0.205,0.376c-0.125,0.023-0.25,0.047-0.376,0.069
		c-0.139,0.084-0.157,0.288-0.343,0.344c-0.242-0.023-0.479-0.046-0.72-0.069c-0.487,0.083-1.114,0.088-1.644,0.307
		c-0.13,0.056-0.78,0.673-0.956,0.821c0.334,0.469,0.022,0.743,0.204,1.198c0.241,0.078,0.278,0.269,0.413,0.445
		c-0.079,0.506-0.474,2.591-0.757,2.809c-0.353,0.125-0.706,0.251-1.059,0.376c0.051,0.497,0.404,0.934,0.479,1.402
		c-0.479,0.659-0.423,1.885-0.854,2.567c-0.771-0.033-1.922,0.027-2.191,0.58c-0.014,0.125-0.023,0.25-0.037,0.376
		c-0.376,0.19-0.511,0.408-0.784,0.687c-0.752-0.074-1.188-0.097-1.611-0.548c-0.009-0.496,0.149-0.501,0.344-0.752
		c-0.116-0.566-0.083-0.738-0.446-1.096c0.093-0.148,0.186-0.297,0.274-0.445c-0.056-0.195-0.111-0.39-0.172-0.58
		c-0.009,0-0.023,0-0.032,0c-0.265,0.088-0.437,0.116-0.752,0.167c-0.088,0.255,0.106,0.404,0.032,0.654
		c-0.079,0.163-0.172,0.172-0.306,0.274c-0.618-0.103-0.864-0.386-1.268-0.655c-0.033,0.023-0.07,0.047-0.102,0.07
		c0.037,0.278-0.153,0.524-0.07,0.789c0.07,0.218,0.553,0.78-0.032,1.026c-0.33,0.134-0.455-0.126-0.65-0.172L31.9,95.719
		c-0.009,0.023-0.023,0.046-0.033,0.069c-0.004,0.46,0.163,0.558,0.07,0.993c-0.167,0.089-0.437,0.237-0.65,0.172
		c-0.172-0.162-0.344-0.32-0.516-0.478c-0.432-0.182-1.179-0.042-1.541-0.274c-0.172-0.116-0.033-0.422-0.135-0.548
		c-0.102-0.014-0.204-0.023-0.311-0.037c-0.107-0.283-0.218-0.32-0.204-0.683c-0.033,0-0.07,0-0.103,0
		c-0.395,0.224-0.826,0.047-0.993,0.135c-0.581,0.265-1.147,2.205-2.154,1.542c-0.014-0.023-0.023-0.047-0.037-0.07
		c0.061-0.492,0.163-0.636-0.102-1.025c-0.562-0.056-0.511-0.153-0.822-0.516c-0.223,0.027-0.357,0.019-0.548-0.032
		c-0.111-0.232-0.367-0.479-0.445-0.683c-0.135-0.376,0.032-0.845,0-1.096c-0.028-0.265-0.242-0.371-0.205-0.72
		c0-0.023,0-0.046,0-0.069c0.083-0.353,0.302-0.688,0.205-1.23c-0.079-0.079-0.158-0.162-0.237-0.241c-0.251,0-0.501,0-0.752,0
		c-0.204,0.413-0.636,0.761-1.235,0.478c-0.125-0.064-0.139-0.111-0.204-0.236c0.334-0.808,0.975-1.369,1.439-2.057
		c0.103,0,0.205,0,0.307,0c0.046-0.125,0.093-0.251,0.139-0.376c-0.265-0.103-0.529-0.204-0.789-0.307
		c-0.009-0.069-0.023-0.139-0.033-0.204c-0.116,0-0.228,0-0.343,0c-0.399-0.125-0.562-0.659-0.687-1.063
		c-0.316,0.028-0.66-0.115-0.822-0.343c0.121-0.711,0.492-1.556,0.139-2.191c-0.357,0-0.464-0.14-0.581-0.376
		c0.047-0.19,0.088-0.386,0.135-0.58c-0.023-0.023-0.046-0.047-0.069-0.07c-0.088,0.014-0.181,0.023-0.274,0.037
		c-0.26-0.501-0.075-0.668,0-1.197c-0.372-0.293-1.73-1.23-2.258-0.65c0.198,0.232,0.367,0.386,0.411,0.785
		c-0.079,0.162-0.16,0.32-0.239,0.478c-0.237,0.163-0.438-0.014-0.752,0.07c-0.116,0.093-0.23,0.181-0.344,0.273
		c-0.993,0.432-0.708,0.14-1.267,1.026c-1.203,0.265-2.725-1.402-3.559-1.23c-1.258,0.26-1.653,1.332-2.498,1.987
		c-1.017-0.391-0.748-1.741-1.644-2.191c-0.594-0.186-1.163,1.229-2.02,1.369c-0.503-0.418-1.276-0.803-1.576-1.406
		c0.079-0.372,0.348-0.479,0.411-0.752c-0.012-0.158-0.023-0.32-0.033-0.479c0.095-0.274,0.402-0.349,0.479-0.65
		c-0.012-0.037-0.023-0.069-0.035-0.102c-0.19-0.084-0.297-0.163-0.443-0.274c0.026-0.223,0.121-0.181,0.169-0.311
		c0.205-0.524-0.285-0.725,0.242-1.026c-0.025-0.622-0.16-0.738,0.102-1.197c-0.241-0.26-0.165-0.492-0.344-0.822
		c-0.16-0.135-0.318-0.273-0.478-0.408c-0.158-0.33-0.042-0.752-0.137-0.924c-0.174-0.404-0.443-0.52-0.822-0.72
		c-0.179,0.232-0.311,0.399-0.583,0.548c-0.067-0.037-0.137-0.069-0.205-0.103c-0.069-0.227-0.262-0.339-0.411-0.482
		c0.046-0.135,0.09-0.273,0.137-0.408c-0.262-0.274-0.524-0.548-0.787-0.822c-0.137-0.297-0.274-0.594-0.411-0.891
		c0.023-0.079,0.044-0.158,0.067-0.237c0.548-0.153,0.673-0.362,0.822-0.924c-0.137-0.209-0.274-0.413-0.411-0.617
		c-0.088-0.39,0.202-0.654,0.239-0.993c0.077-0.66-0.838-1.347-1.265-1.574c-0.011-0.39-0.023-0.775-0.035-1.165
		c0.074-0.177,0.318-0.26,0.274-0.511C0.207,66.889,0.105,66.671,0,66.457c0.181-0.231,0.313-0.228,0.617-0.344
		c0.149,0.089,0.295,0.182,0.443,0.274c0.467-0.167,1.305-0.455,1.507-0.892c0.046-0.204,0.093-0.408,0.137-0.617
		c-0.079-0.056-0.16-0.111-0.239-0.167c-0.023-1.068,0.56-2.66,1.026-3.287c0.952,0.037,0.924-0.492,1.713-0.548
		c0.518,0.27,0.643,0.831,0.991,1.268c0.48,0.386,0.958,0.775,1.437,1.16c0.229,0.274,0.457,0.548,0.685,0.822
		c0.023-0.01,0.046-0.023,0.07-0.032c0.25-0.716,0.868-0.831,1.026-1.677c0.058-0.037,0.114-0.069,0.171-0.106
		c0.812,0.367,1.692-0.144,2.637,0.172c0.36,0.125,0.852,0.482,1.23,0.516c0.079,0.004,1.604-0.033,1.609-0.033
		c0.269-0.074,0.524-0.25,0.856-0.311c0.566-0.098,1.003,0.074,1.37-0.103c0-0.009,0-0.022,0-0.032
		c-0.169-0.858,0.163-1.035,0.615-1.509c0.113,0.061,0.229,0.116,0.344,0.172c-0.026,0.418-0.284,0.794-0.138,1.128
		c1.586,0.399,3.615-0.032,5.407,0.241c3.788,0.093,7.576,0.182,11.365,0.274c1.574,0.014,3.147,0.023,4.721,0.032
		c0.507-0.042,1.222,0.106,1.611-0.065c0.339-1.68,0.683-3.356,1.026-5.032c-0.525-0.422-1.05-0.845-1.574-1.267
		c-0.376-3.867-0.752-7.736-1.133-11.604c-0.947-10.016-1.894-20.035-2.841-30.053c-0.26-2.839-0.52-5.683-0.785-8.521
		C35.799,5.658,35.465,3.521,35.665,3.031z"/>
</g>
<g id="Layer_1">
</g>
</svg>
