<?xml version="1.0" encoding="iso-8859-1"?>
<!-- Generator: Adobe Illustrator 16.0.3, SVG Export Plug-In . SVG Version: 6.00 Build 0)  -->
<!DOCTYPE svg PUBLIC "-//W3C//DTD SVG 1.1//EN" "http://www.w3.org/Graphics/SVG/1.1/DTD/svg11.dtd">
<svg version="1.1" xmlns="http://www.w3.org/2000/svg" xmlns:xlink="http://www.w3.org/1999/xlink" x="0px" y="0px" width="100px"
	 height="100px" viewBox="0 0 100 100" style="enable-background:new 0 0 100 100;" xml:space="preserve">
<g id="MW">
	<path d="M33.322,0c0.113,0,0.229,0,0.341,0c0.367,0.59,1.188,1.273,1.937,1.462c0.592,0.147,1.487-0.178,1.939-0.238
		c0.318,0.224,1,0.365,1.222,0.678c0.184,0.26,0.235,0.717,0.477,0.92c0.717,0.491,1.404-0.191,2.041-0.307
		c0.237,0.221,0.691,0.396,1.121,0.408c0.249-0.159,0.498-0.318,0.749-0.475c1.024,0.245,1.358,1.383,2.447,1.494
		c0.496-0.948-0.284-1.983,0.749-2.617c0.436-0.268,0.833,0.044,1.088,0.237c0.882,0.667,1.73,1.531,2.515,2.313
		c0.249,0.203,0.498,0.408,0.747,0.611c0.069,0.25,0.138,0.5,0.208,0.75c0.157,0.102,0.314,0.203,0.475,0.304
		c0.383,0.508,0.678,0.978,1.052,1.497c0.217,0.3,0.548,0.475,0.715,0.851c0.105,0.237,0.327,0.708,0.271,1.019
		c-0.046,0.194-0.092,0.385-0.134,0.579c0.102,0.171,0.203,0.339,0.305,0.51c0.125,0.3,0.06,0.675,0.171,1.019
		c0.092,0.17,0.18,0.341,0.271,0.51c0.139,0.544-0.152,1.031-0.239,1.43c-0.134,0.627,0.212,0.855,0.309,1.155
		c0.125,0.385-0.276,0.56-0.138,0.987c0.087,0.265,0.383,0.332,0.511,0.544c0.01,0.113,0.023,0.226,0.033,0.339
		c0.083,0.173,0.341,0.318,0.41,0.544c0.078,0.274-0.115,0.56-0.069,0.75c0.046,0.177,0.235,0.208,0.272,0.475
		c-0.388,0.482-0.12,1.241-0.309,1.972c-0.116,0.458-0.563,0.789-0.646,1.224c-0.185,0.355,0.106,0.616,0.171,0.918
		c0,0.17,0,0.341,0,0.51c0.138,0.417,0.94,0.837,1.189,1.189c0.093,0.263,0.185,0.523,0.272,0.782
		c0.097,0.173,0.212,0.074,0.24,0.376c-0.098,0.131-0.028,0.214,0,0.408c0.046,0.032,0.087,0.067,0.133,0.101
		c0.185-0.023,0.365-0.046,0.545-0.069c0.249,0.055,0.429,0.235,0.751,0.307c0.194,0.415,0.835,1.388,1.153,1.699
		c0.014,0.399,0.023,0.795,0.037,1.19c-0.281,0.136-0.867,0.069-1.259,0.069c-0.941,0-1.882,0-2.822,0
		c-0.056,0.081-0.098,0.104-0.139,0.206c-0.06,0.164,0.073,0.56,0.106,0.782c0.083,0.625-0.088,1.139-0.24,1.563
		c-0.688,1.879-2.712,3.247-3.127,5.338c-0.161,0.8,0.401,1.176,0.507,1.769c0.189,1.038,0.323,2.262,0.716,3.23
		c0.161,0.396,0.447,0.738,0.576,1.19c0.175,0.585,0.171,1.292,0.272,1.87c0.022,0.611,0.046,1.222,0.068,1.835
		c0.162,0.844,0.231,1.648,0.374,2.449c0.143,0.777-0.351,1.599-0.102,2.517c0.144,0.521,0.613,0.774,0.885,1.152
		c0.162,0.23,0.116,0.65,0.374,0.784c0.794,0.01,1.587,0.023,2.38,0.032c0.434,0.181,0.761,0.674,1.12,0.955
		c1.264,0.973,2.104,2.08,3.025,3.398c1.144,1.628,2.688,2.928,3.842,4.557c0.604,0.844,1.037,1.784,1.632,2.651
		c0.264,0.281,0.521,0.567,0.784,0.849c0.637,0.876,1.236,1.747,2.006,2.485c0.023,1.006,0.047,2.016,0.069,3.025
		c0.106,0.056,0.217,0.069,0.406,0.069c0.022,0.041,0.046,0.088,0.069,0.134c-0.476,1.157-0.955,2.311-1.43,3.468
		c0.239,0.996,0.475,1.997,0.715,2.992c-0.125,1.518-0.249,3.035-0.374,4.557c-0.23,1.269,0.097,3.127-0.475,3.911
		c-0.143,0.188-0.923,0.71-1.158,0.779c-0.17,0-0.341,0-0.507,0c-0.263,0.124-0.525,0.249-0.784,0.373c-0.217,0-0.429,0-0.646,0
		c-0.088,0.181-0.171,0.222-0.309,0.342c-0.513-0.005-0.31-0.286-0.608-0.443c-0.176-0.097-0.467-0.129-0.716-0.133
		c-0.253,0.217-1.401,1.047-1.494,1.259c-0.037,0.056-0.286,1.254-0.271,1.291c0.036,0.139,0.143,0.143,0.166,0.373
		c-0.521,0.531-0.157,0.701-0.438,1.292c-0.235,0.525-1.245,0.627-1.291,1.291c0.124,0.188,0.161,0.475,0.337,0.613
		c0.4,0.31,1,0.544,1.259,0.987c0.185,0.317-0.005,0.876,0.102,1.189c0.041,0.119,0.234,0.263,0.271,0.405
		c0.098,0.374-0.235,0.618-0.304,0.816c-0.023,0.286-0.047,0.567-0.069,0.849c0.202,0.129,0.354,0.3,0.373,0.613
		c-0.322,0.53,0.198,1.015-0.101,1.601c-0.098,0.285-0.277,0.327-0.679,0.304c-0.65-0.046-1.296-0.092-1.941-0.133
		c-0.147-0.065-0.203-0.171-0.305-0.272c0.032-0.115,0.069-0.23,0.102-0.341c-0.276-0.176-0.387-0.379-0.373-0.854
		c0.124-0.18,0.249-0.36,0.373-0.54c0.157-0.069,0.318-0.138,0.476-0.207c0.346-0.217,0.387-1.094,0.271-1.563
		c-0.134-0.083-0.258-0.105-0.507-0.102c-0.788,0.489-1.397-0.424-1.6-0.917c-0.254,0.004-0.438-0.032-0.613-0.102
		c-0.042-0.171-0.088-0.342-0.135-0.512c-0.18-0.111-0.544-0.208-0.682-0.374c-0.097-0.147-0.13-0.378-0.134-0.613
		c-0.23-0.147-0.743-0.374-0.886-0.608c-0.023-0.139-0.046-0.272-0.064-0.411c-0.139-0.354-0.674-0.553-1.089-0.646
		c-0.143-0.244-0.234-0.6-0.442-0.779c-0.18-0.157-0.438-0.18-0.544-0.41c-0.185-0.406-0.12-1.001-0.443-1.26
		c-0.327-0.202-0.802,0.01-1.157-0.17c-0.359-0.147-0.913-1.411-0.779-2.038c0.079-0.379,0.291-0.531,0.305-0.987
		c-0.41-0.401-0.964-1.148-1.393-1.462c-0.309-0.222-0.692-0.193-0.747-0.678c0.185-0.383,0.12-0.862,0.337-1.189
		c0.226-0.337,0.567-0.503,0.885-0.752c0.12-0.093,0.078-0.24,0.17-0.374c0.097-0.139,0.3-0.17,0.443-0.268
		c0.171-0.124,0.364-0.507,0.476-0.683c0.382-0.622-0.162-1.484,0.068-2.277c0.125-0.443,0.6-0.355,0.779-0.679
		c0.129-0.207,0.074-0.562,0.203-0.751c0.346-0.494,0.969-0.457,0.987-1.393c-0.397-0.434-0.323-1.162-0.203-1.767
		c0.046-0.239-0.11-0.369-0.032-0.613c0.078-0.258,0.393-0.507,0.271-0.95c-0.114-0.309-0.226-0.613-0.341-0.918
		c0.023-0.4,0.046-0.797,0.069-1.189c-0.106-0.429-0.438-0.705-0.544-1.125c-0.093-0.351,0.304-1.172,0.064-1.734
		c-0.139-0.322-0.757-0.198-0.95-0.475c-0.305-0.434-0.425-1.411-0.918-1.633c-0.512-0.295-1.582,0.401-2.006,0.512
		c-0.429,0.106-0.733-0.193-1.19-0.036c-0.249,0.087-0.416,0.373-0.646,0.442c-0.669-0.069-1.337-0.134-2.006-0.203
		c-0.404,0.134-0.671,0.627-1.121,0.747c-0.623,0.166-0.83-0.701-1.192-0.613c-0.662,0.166,0.076,1.438-0.747,1.499
		c-0.147-0.102-0.295-0.203-0.443-0.31c-0.055-0.249-0.113-0.498-0.168-0.746c-0.152-0.24-0.411-0.277-0.648-0.443
		c-0.175-0.125-0.143-0.364-0.272-0.544c-0.189-0.263-0.802-0.323-1.086-0.715c-0.115-0.281-0.228-0.563-0.341-0.849
		c-0.138-0.3-0.401-0.586-0.579-0.849c-0.09-0.18-0.18-0.364-0.27-0.544c-0.092-0.015-0.182-0.023-0.272-0.032
		c-0.233-0.11-0.424-0.696-0.613-0.886c0.007-0.322,0.17-0.766,0.069-0.987c-0.042-0.124-0.09-0.217-0.206-0.271
		c-0.452-0.254-0.851-0.327-1.155-0.715c-0.136-0.171-0.185-0.604-0.408-0.678c-0.238,0.364-0.75,0.368-0.987,0.714
		c-0.175,0.254-0.175,0.65-0.475,0.78c-0.046,0.014-0.09,0.022-0.136,0.036c-0.24-0.207-0.401-0.387-0.611-0.613
		c0.064-0.295,0.152-0.512,0.134-0.816c-0.146-0.073-0.422-0.105-0.51-0.239c-0.078-0.12-0.023-0.286-0.136-0.373
		c-0.168-0.13-0.311-0.056-0.408-0.272c-0.079-0.138-0.04-0.3-0.067-0.475c-0.148-0.074-0.263-0.194-0.443-0.24
		c-0.561-0.129-1.289,0.088-1.326-0.608c-0.012-0.037-0.023-0.069-0.035-0.102c0.178-0.171,0.791-0.613,0.816-0.854
		c-0.261-0.175-0.395-0.562-0.747-0.608c-0.42,0.305-1.543-0.078-1.022-0.854c0.099-0.143,0.06-0.235,0.24-0.304
		c0.148,0,0.293,0,0.441,0c0.385-0.217,0.772-0.434,1.157-0.646c0.175-0.144,0.104-0.498,0.238-0.683
		c0.122-0.166,0.422-0.194,0.544-0.374c0.316-0.47,0.21-0.996,0.408-1.632c0.157-0.503,0.862-1.047,0.918-1.528
		c-0.927-0.68,0.189-2.915,0.272-3.639c-0.092-0.125-0.083-0.235-0.238-0.307c-0.147-0.035-0.295-0.067-0.442-0.102
		c-0.66-1.173-0.113-1.699,0.408-2.55c0.353-0.579,0.175-0.766,0.714-1.259c0.18,0.069,0.362,0.136,0.542,0.205
		c0.24,0.012,0.478,0.023,0.715,0.035c0.146,0.056,0.141,0.146,0.374,0.168c0.415-0.395,0.862-0.895,1.43-1.121
		c0.26-0.106,0.708,0.087,0.984-0.069c0.479-0.27,0.777-0.77,1.088-1.224c0.194-0.282,0.597-0.461,0.68-0.849
		c-0.102-0.065-0.099-0.088-0.272-0.102c-0.502-0.291-1.234,0.102-1.769-0.035c-0.201-0.348-0.526-0.994-0.646-1.36
		c-0.011-0.182-0.023-0.362-0.032-0.544c-0.178-0.401-0.653-0.475-0.681-1.088c0.148-0.198,0.053-0.565,0.168-0.816
		c0.152-0.327,0.553-0.565,0.68-0.883c0.046-0.295,0.09-0.59,0.136-0.883c-0.051-0.171-0.265-0.189-0.203-0.512
		c0.123-0.636,0.131-1.386-0.035-1.971c-0.129-0.459,0.065-0.955,0.067-1.36c-0.078-0.067-0.157-0.136-0.237-0.203
		c-0.272,0-0.544,0-0.816,0c-0.205-0.364,0.025-0.583,0.104-0.885c-0.014-0.487-0.023-0.973-0.034-1.462
		c0.043-0.012,0.09-0.023,0.136-0.032c0.074,0.09,0.074,0.09,0.238,0.102c0.069-0.194,0.136-0.385,0.203-0.579
		c0.092-0.09,0.183-0.18,0.275-0.272c0.021-0.136,0.043-0.272,0.066-0.408c0.302-0.657,1.031-1.139,1.155-2.006
		c-0.113-0.032-0.226-0.067-0.339-0.102c-0.064-0.15-0.027-0.415-0.102-0.544c-0.092-0.067-0.182-0.136-0.272-0.203
		c-0.131-0.182-0.083-0.332-0.17-0.579c-0.051-0.145-0.183-0.14-0.272-0.237c-0.258-0.281-0.366-0.961-0.374-1.462
		c-0.15-0.099-0.309-0.224-0.341-0.443c-0.173-0.276,0.009-0.657,0.271-0.714c0.132,0.115,0.342,0.115,0.544,0.069
		c0.307-0.615,0.419-0.253,0.883-0.579c0.081-0.09,0.159-0.182,0.24-0.272c0.159,0.023,0.316,0.046,0.475,0.069
		c0.101-0.069,0.205-0.136,0.307-0.205c0.113-0.012,0.226-0.023,0.339-0.035c0.353-0.163,0.247-0.516,0.443-0.848
		c0.216-0.367,0.65-0.625,0.987-0.886c0.078-0.113,0.157-0.226,0.237-0.339c0.332-0.208,0.616-0.125,0.646-0.646
		c-0.146-0.115-0.143-0.24-0.203-0.443c-0.463-0.17-0.408-0.383-0.613-0.816c-0.09-0.191-0.689-0.606-0.816-0.782
		c-0.012-0.102-0.021-0.206-0.035-0.307c-0.113-0.147-0.226-0.292-0.339-0.44c0-0.634,0.27-1.023,0.237-1.565
		c-0.208-0.145-0.32-0.406-0.509-0.544c-0.182-0.056-0.362-0.113-0.544-0.168c-0.203-0.229-0.408-0.454-0.611-0.68
		c-0.311-0.224-0.763-0.316-1.19-0.408c-0.383-0.798-0.083-0.791,0.168-1.395c0.094-0.226,0.09-0.392,0.205-0.576
		c0.113-0.138,0.226-0.272,0.339-0.408c0.035-0.189-0.323-0.81-0.44-0.92c-0.182-0.088-0.39-0.067-0.544-0.168
		c-0.519-0.346-0.971-1.665-1.123-2.38c-0.353-0.258-0.659-0.33-1.224-0.341c-0.069,0.11-0.097,0.136-0.102,0.341
		C35.08,3.5,35.068,3.639,35.056,3.774c-0.087,0.044-0.118,0.06-0.272,0.067c-0.196-0.164-0.353-0.461-0.646-0.509
		c-0.127,0.145-0.3,0.205-0.579,0.203c-0.298-0.533,0.193-2.001-0.44-2.073c-0.074,0.09-0.076,0.09-0.238,0.101
		c-0.012-0.034-0.023-0.069-0.035-0.101c-0.131-0.258-0.042-0.798-0.034-1.19c0.113-0.081,0.226-0.159,0.339-0.238
		C33.209,0.021,33.267,0.011,33.322,0z"/>
</g>
<g id="Layer_1">
</g>
</svg>
