<?xml version="1.0" encoding="iso-8859-1"?>
<!-- Generator: Adobe Illustrator 16.0.3, SVG Export Plug-In . SVG Version: 6.00 Build 0)  -->
<!DOCTYPE svg PUBLIC "-//W3C//DTD SVG 1.1//EN" "http://www.w3.org/Graphics/SVG/1.1/DTD/svg11.dtd">
<svg version="1.1" xmlns="http://www.w3.org/2000/svg" xmlns:xlink="http://www.w3.org/1999/xlink" x="0px" y="0px" width="100px"
	 height="100px" viewBox="0 0 100 100" style="enable-background:new 0 0 100 100;" xml:space="preserve">
<g id="MX">
	<g>
		<path style="fill-rule:evenodd;clip-rule:evenodd;fill:#010101;" d="M29.292,20.322c1.385-0.027,5.595-0.287,6.175,0.378
			c0.176,0.327,0.352,0.654,0.527,0.981c0.562,0.419,3.983,2.63,4.368,3.323c0.48,0.868,0.588,2.258,1.054,3.096
			c0.334,0.601,3.853,2.46,4.442,2.416c0.207-0.015,0.34,0.097,0.226-0.15c1.03-0.453,0.753-1.822,1.355-2.342
			c0.551-0.473,0.96-0.273,1.28-0.679c0.826,0.2,2.059,0.553,2.861,0.302c0.996,1.028,3.224,2.589,3.313,4.304
			c0,0,0.674,1.628,0.903,1.36c0.54,0.62,1.373,2.499,2.184,2.265c0.096,1.517,0.76,2.771,1.431,4.456
			c1.009-0.267,2.076,0.884,2.561,1.132c0.679,0.025,1.356,0.051,2.034,0.076c0.404,0.41,0.402,0.718,1.054,0.831
			c0.22-0.392,0.396-0.442,0.828-0.529c-0.148,1.092-0.358,1.882-0.979,2.417c-0.025-0.076-0.051-0.151-0.075-0.227
			c0.065-0.372,0.012-0.159-0.226-0.302c-0.082,0.322,0.031,0.246-0.227,0.452c-0.312-0.083-0.229-0.119-0.451,0
			c0.093,0.569-0.004,0.846,0.301,1.586c-0.229,0.039-0.282-0.012-0.226,0.303c-0.003,0.345,0.089,0.327,0.301,0.604
			c-0.988,1.681-0.013,6.479-0.903,7.552c0.456,0.756,0.203,1.874,0.828,2.417l0.075,1.359c0.226,0.1,0.452,0.201,0.678,0.301
			c0.025-0.074,0.05-0.15,0.075-0.227c-0.05-0.125-0.101-0.251-0.15-0.377c0.075,0.051,0.15,0.102,0.226,0.151
			c0.155,0.148,0.078,0.028,0.15,0.302c-0.15,0.277-0.301,0.554-0.451,0.831c0.05,0.022,0.296,0.149,0.15,0.378
			c0.352,0.754,0.703,1.51,1.055,2.265c0.715,0.947,1.855,1.69,2.259,2.643c0,0.328,0,0.655,0,0.982
			c0.155,0.334,1.72,2.69,2.108,2.794c0.114,0.24,1.577,0.188,1.957,0.151c0.062,0.659,0.486,0.36,1.13,0.679
			c0.251,0.453,0.502,0.906,0.753,1.359c1.151-0.109,1.549-0.561,2.56-0.303c0.24-0.338,0.672-0.247,0.678-0.679
			c0.601,0.09,1.026-0.073,1.657,0.227c-0.025-0.101-0.051-0.201-0.075-0.302c0.977,0.029,0.998-0.343,1.731-0.756
			c0.577-0.1,1.154-0.201,1.731-0.302c0.201,0.101,0.402,0.202,0.603,0.302c-0.024,0.076-0.05,0.152-0.075,0.227
			c-0.321-0.041-0.237-0.121-0.376,0.227c0.462-0.099,1.206,0.232,1.807,0.378c-0.028-0.418,0.378-0.39,0.678-0.755
			c0-0.176,0-0.352,0-0.529c-0.229-0.02-0.493,0-0.603-0.377c0.979-0.139,1.762-1.101,2.41-1.586
			c-0.13-1.619,0.659-1.656,0.904-2.341c-0.052-0.202-0.102-0.402-0.15-0.604c-0.118-0.837,0.176-2.888,0.601-3.172
			c0.228-0.284,3.857-1.932,4.745-1.359c0.796-0.383,1.705-0.6,2.409-0.83c0.829,0.151,1.657,0.303,2.485,0.453
			c0.27-0.131,0.692-0.643,1.054-0.528c0.435,0.137,0.513,0.569,0.904,0.755c-0.15,0.539,0.077,0.995,0.075,1.057
			c-0.124,1.367-1.494,2.096-2.108,3.021c-0.275,0.414,0.007,1.568-0.226,1.661c-0.276,0.251-0.553,0.503-0.829,0.755
			c0.163,0.266,0.116,0.068,0.151,0.378c0.489-0.048,0.795-0.146,0.903-0.378c0.024,0,0.05,0,0.075,0c0,0.126,0,0.252,0,0.378
			c-0.285,0.183-0.082,0.362-0.377,0.302c-0.172,0.206-0.299,0.122-0.526,0.227c0,0.201,0,0.402,0,0.604
			c0.226-0.151,0.451-0.303,0.678-0.454c0,0.076,0,0.151,0,0.227c-0.778,0.439-0.554,3.312-1.355,3.928
			c-0.025-0.635-0.164-0.799-0.603-1.133c0.205-0.527,0.065-0.804,0.15-1.209c-0.101,0-0.2,0-0.301,0
			c-0.045,0.23-0.469,1.082-0.678,1.209c-0.227,0.051-0.452,0.101-0.678,0.15c-0.131,0.799-0.672,1.698-1.13,2.115
			c-0.248-0.514-0.623-0.236-0.979-0.303c0.025,0.176,0.05,0.353,0.075,0.529c-2.033,0-4.067,0-6.101,0c0,0.68,0,1.359,0,2.039
			c-0.618-0.045-1.103-0.189-1.279,0.226c0.611,0.099,0.61,0.899,0.979,1.134c0.538,0.342,0.965,0.301,1.355,0.604
			c-0.16,0.955,0.507,0.775,0.903,1.209c-0.114,0.361-0.235,0.723-0.075,1.132c-1.046-0.024-4.229-0.222-4.442,0.302
			c-0.708,0.399-1.267,2.111-1.581,2.795c0.19,0.072,0.445,0.379,0.603,0.453c-0.343,0.694-0.218,1.307-0.603,1.963
			c-0.101-0.102-0.201-0.201-0.302-0.303c-1.072-0.574-4.004-5.062-5.271-4.832c0.084-0.261,0.135-0.177,0.075-0.453
			c-0.531-0.043-1.234-0.502-1.656-0.68c-0.025,0.15-0.05,0.302-0.076,0.453c-2.861-1.045-4.984,2.306-7.077,1.963
			c-0.729-0.119-1.317-0.763-1.958-1.057c-0.628-0.025-1.255-0.051-1.883-0.076c-0.277-0.104-0.269-0.406-0.451-0.604
			c-0.577-0.625-1.217-0.268-2.109-0.756c-0.307-0.168-0.619-0.764-0.753-0.83c-0.786-0.394-1.946-0.08-2.937-0.529
			c-1.971-0.894-6.609-2.892-7.53-4.757c-1.433,0.442-3.642-0.427-4.518-1.058c-0.226-0.051-0.452-0.101-0.678-0.15
			c-0.598-0.582-0.527-1.359-1.355-1.964c-0.783-0.571-1.851-0.632-2.56-1.283c-0.151,0-0.302,0-0.452,0
			c-1.303-1.548-2.176-2.567-2.937-4.38c0.314-0.047,1.29-0.275,1.506-0.529c-0.046-0.118,0.01-0.288-0.15-0.453
			c-0.109-0.372-0.318-0.164-0.678-0.377c0.215-0.277,0.403-0.424,0.451-0.68c0.678-0.316,0.142-1.31,0.603-1.586
			c-0.172-0.466-0.9-1.072-1.581-1.888c0.025-0.604,0.051-1.208,0.075-1.812c-0.466-1.106-1.847-1.976-2.712-2.794
			c-0.022-0.022-1.354-2.19-1.354-2.19c0.103-0.127-0.358-0.086-0.151-0.302c-0.728-0.604-1.456-1.208-2.184-1.812
			c0.333-0.177,0.297-0.368,0.227-0.303c-0.151-0.303-0.083-0.088-0.302-0.226c0.025,0.21,0.046,0.32-0.15,0.528
			c-0.229-0.493-1.008-0.792-1.28-1.435c0.106-0.098,0.128-0.42,0-0.68c-0.025,0-0.05,0-0.075,0c0.025,0.151,0.05,0.302,0.075,0.453
			c-0.176-0.101-0.352-0.201-0.527-0.302c-0.02-0.179,0.018-0.095-0.075-0.303c0.538-0.025,0.445-0.09,0.603-0.302
			c-0.255-0.028-2.705-1.12-2.861-1.283c0.126,0.024,0.251,0.05,0.377,0.075c0-0.025,0-0.051,0-0.075
			c-0.075-0.101-0.151-0.202-0.227-0.303c-0.213,0.211-0.092,0.104-0.376,0.227c-0.466-0.325-0.643-0.516-0.979-0.68
			c-0.092,0.08-0.402,0.143-0.227,0c-0.311-0.143-0.302-0.936-0.376-1.359c0.391-0.192,0.573-0.726,0.753-0.981
			c-0.482-0.323,0-1.163-0.753-1.359c-0.313-0.447-1.623,0.32-1.581-1.511c-1.181-0.262-1.309-0.4-2.108-1.132
			c-0.355-0.325,0-1.511,0-1.511c0.024-0.075,0.05-0.151,0.075-0.227c0-0.025,0-0.05,0-0.075c-2.239,0.301-4.789-3.034-5.573-5.211
			c-0.15,0.012-0.582,0.148-0.452-0.151c-0.257-0.258,0.15-0.274-0.075-0.679c-0.312-0.562-0.887-0.914-1.204-1.284
			c0.024-0.378,0.05-0.756,0.075-1.133c-0.949-1.522-0.903-1.45-1.28-3.021c0.101,0.025,0.2,0.051,0.301,0.075
			c-0.024-0.226-0.05-0.452-0.075-0.68c-0.134,0.002-1.579-0.22-1.732-0.377c-0.278-0.285-0.25-0.614-0.376-0.68
			c-0.151-0.224-0.683-0.501-0.903-0.227c-0.05,0.101-0.101,0.201-0.15,0.302c-0.686-0.198-1.528-0.374-1.883-1.058
			c-0.405,0.114-0.521,0.131-0.753,0.227c-0.002,0.463-0.019,2.021-0.15,2.492c0.176,0.126,0.351,0.252,0.527,0.378
			c0.304,2.047-0.022,2.978,1.205,4.229c0.556-0.116,2.204,1.833,2.56,2.266c0.079,0.427-0.019,0.67,0.226,0.906
			c0.151-0.05,0.301-0.101,0.452-0.15c0,0.176,0,0.352,0,0.528c0.055-0.012,0.716-0.158,0.452,0c0.347,0.181,0.16,0.952,0.527,1.283
			c0.201,0,0.401,0,0.603,0c-0.008,0.792,0.538,2.519,0.753,2.794c0.722,0.054,1.291,0.89,1.431,1.888
			c0.276,0.051,0.552,0.102,0.828,0.151c-0.168,0.322-0.077,0.258-0.226,0.604c0.15,0.151,0.301,0.302,0.452,0.453
			c0.25-0.186,0.021-0.212,0.302-0.076c0.9,0.269,0.681,1.104,1.205,1.133c-0.213,0.667,0.469,3.414,1.354,3.55
			c0,0.024,0,0.05,0,0.075c-0.223,0.977,0.78,1.605,1.13,2.341c0.19,0.399-0.251,0.924-0.075,1.435
			c0.018,0.053,0.056,0.458,0.15,0.529c0.097,0.499,0.706,0.384,1.28,0.604c-0.025-0.201-0.051-0.402-0.075-0.604
			c0.075-0.025,0.15-0.051,0.226-0.075c0.06,0.735,1.084,0.79,1.28,1.283c0.091,0.17,0.518,1.095,0.376,1.208
			c0.149,0.176,1.773,1.047,0.829,1.587c-0.134,0.481-1.152,0.779-1.28,1.359c-0.249-0.084-0.259-0.006-0.377-0.152
			c-0.692-0.455-0.567-1.59-0.979-2.266c-0.138-0.226-0.962-0.688-1.13-0.528c-0.735-0.646-1.739-2.585-3.312-2.416
			c0.123-0.116,0.265-0.167,0.376-0.302c-0.359-0.127-0.529-0.328-0.526-0.604c-0.176,0.075-0.352,0.15-0.527,0.227
			c-0.04-0.544-0.568-0.938-0.453-1.208c-0.15,0.075-0.301,0.15-0.451,0.227c0-0.252,0-0.504,0-0.756
			c-0.101,0.051-0.201,0.101-0.302,0.151c0.03,0.384,0.037,0.501,0.15,0.68c-0.15-0.075-0.301-0.151-0.451-0.227
			c0.255-0.215,0.238-0.393,0.226-0.906c0.291,0.025,0.168,0.035,0.15-0.302c1.16-0.656-0.589-3.345-0.678-4.003
			c-1.361-0.39-2.863-2.292-3.84-1.963c-0.062,0.283-0.08,0.145-0.376,0.227c-0.429-1.005-1.341-1.196-2.485-1.511
			c-0.102-1.251-1.444-1.715-2.108-2.189c0.025-0.076,0.05-0.151,0.075-0.227c1.054,0.049,1.373,0.523,2.184-0.076
			c0.093-0.237,0.557-0.588,0.678-0.831c0.155-0.114,0.229-1.219,0.226-1.812c-1.127-0.689-1.67-2.172-2.861-2.945
			c-0.739-0.479-1.701-0.658-2.259-1.359c-0.05-0.025-0.101-0.05-0.151-0.075c-0.292-0.494-0.223-1.722-0.603-2.266
			c-0.354-0.013-0.372,0.07-0.602-0.151c0.025-0.402,0.05-0.806,0.075-1.208c-0.352-0.276-0.703-0.554-1.054-0.83
			c0.025-0.227,0.05-0.453,0.075-0.68c-0.376-0.479-0.753-0.957-1.129-1.435c0.078-0.062,0.333-0.773,0.075-1.134
			C1.18,19.82-0.029,18.145,0,17.981c0-0.126,0-0.252,0-0.377c2.56-0.202,5.121-0.403,7.681-0.604
			c-0.101,0.126-0.201,0.252-0.301,0.378c0.025,0.15,0.05,0.302,0.075,0.452c0.743,0.016,2.07,0.5,2.635,0.906
			c0.301,0.051,0.603,0.101,0.904,0.151c1.933,0.705,3.865,1.409,5.798,2.114c0.695,0.362,2.676,0.368,3.087,1.058
			c3.138-0.025,6.275-0.051,9.412-0.076c0-0.024,0-0.05,0-0.075C29.292,21.38,29.292,20.852,29.292,20.322z"/>
		<path style="fill-rule:evenodd;clip-rule:evenodd;fill:#010101;" d="M1.206,20.474c0.05,0.05,0.1,0.101,0.15,0.15
			C1.306,20.574,1.255,20.523,1.206,20.474z"/>
		<path style="fill-rule:evenodd;clip-rule:evenodd;fill:#010101;" d="M7.907,20.624c0.05,0,0.101,0,0.15,0
			C7.927,20.698,8.041,20.693,7.907,20.624z"/>
		<path style="fill-rule:evenodd;clip-rule:evenodd;fill:#010101;" d="M12.274,29.384c0.226,0.025,0.452,0.051,0.678,0.076
			c-0.101,0.336-0.095,0.564,0.076,0.68c-0.025,0.051-0.05,0.101-0.076,0.151c-0.075-0.025-0.15-0.051-0.226-0.076
			c-0.542-0.708-1.176-0.813-1.13-1.736c0.075-0.025,0.151-0.051,0.226-0.076c0,0.051,0,0.102,0,0.151
			c0.15,0.075,0.301,0.151,0.452,0.227C12.274,28.981,12.274,29.183,12.274,29.384z"/>
		<path style="fill-rule:evenodd;clip-rule:evenodd;fill:#010101;" d="M15.663,29.687c0.101,0.05,0.201,0.101,0.302,0.15
			c-0.036,0.417,0.397,0.962-0.302,1.511c-0.221-0.128-0.234-0.044-0.376-0.227c-0.075-0.051-0.15-0.101-0.226-0.151
			c0.181-0.396,0.124-0.459,0.075-0.981C15.311,29.888,15.488,29.787,15.663,29.687z"/>
		<path style="fill-rule:evenodd;clip-rule:evenodd;fill:#010101;" d="M11.748,30.291c0.05,0,0.1,0,0.15,0
			C11.848,30.291,11.798,30.291,11.748,30.291z"/>
		<path style="fill-rule:evenodd;clip-rule:evenodd;fill:#010101;" d="M12.952,30.291c0.05,0.05,0.101,0.101,0.151,0.15
			C13.053,30.392,13.002,30.341,12.952,30.291z"/>
		<path style="fill-rule:evenodd;clip-rule:evenodd;fill:#010101;" d="M14.759,31.423c0.05,0.051,0.101,0.101,0.15,0.151
			C14.86,31.523,14.809,31.474,14.759,31.423z"/>
		<path style="fill-rule:evenodd;clip-rule:evenodd;fill:#010101;" d="M6.1,32.934c0.303,0.258,0.285,0.603,0.301,1.058
			c-0.075,0-0.15,0-0.226,0c-0.17-0.274-0.188-0.11-0.452-0.303C6.169,33.51,6.077,33.216,6.1,32.934z"/>
		<path style="fill-rule:evenodd;clip-rule:evenodd;fill:#010101;" d="M6.627,34.595c0.05,0,0.1,0,0.15,0
			C6.646,34.669,6.761,34.664,6.627,34.595z"/>
		<path style="fill-rule:evenodd;clip-rule:evenodd;fill:#010101;" d="M19.729,41.089c0.05,0.126,0.101,0.252,0.15,0.378
			c-0.404-0.034-0.071,0.109-0.451,0.151c0.024-0.151,0.05-0.303,0.075-0.454c0.075,0.025,0.15,0.051,0.226,0.076
			C19.729,41.189,19.729,41.14,19.729,41.089z"/>
		<path style="fill-rule:evenodd;clip-rule:evenodd;fill:#010101;" d="M19.429,41.693c0.05,0,0.1,0,0.15,0
			C19.528,41.693,19.479,41.693,19.429,41.693z"/>
		<path style="fill-rule:evenodd;clip-rule:evenodd;fill:#010101;" d="M19.354,41.769c0.05,0.101,0.1,0.201,0.15,0.303
			c-0.051-0.025-0.101-0.051-0.15-0.076C19.354,41.92,19.354,41.845,19.354,41.769z"/>
		<path style="fill-rule:evenodd;clip-rule:evenodd;fill:#010101;" d="M26.732,42.6c-0.051,0.101-0.101,0.201-0.15,0.302
			c0.476-0.078,0.303-0.093,0.451-0.302C26.933,42.6,26.833,42.6,26.732,42.6z"/>
		<path style="fill-rule:evenodd;clip-rule:evenodd;fill:#010101;" d="M64.685,44.336c0.05,0,0.1,0,0.15,0
			c-0.075,0.051-0.15,0.101-0.226,0.151C64.634,44.437,64.659,44.387,64.685,44.336z"/>
		<path style="fill-rule:evenodd;clip-rule:evenodd;fill:#010101;" d="M64.609,44.562c0.05,0,0.1,0,0.15,0
			C64.709,44.562,64.659,44.562,64.609,44.562z"/>
		<path style="fill-rule:evenodd;clip-rule:evenodd;fill:#010101;" d="M64.533,44.638c0.051,0.076,0.101,0.151,0.151,0.227
			C64.529,44.729,64.63,44.863,64.533,44.638z"/>
		<path style="fill-rule:evenodd;clip-rule:evenodd;fill:#010101;" d="M21.16,44.789c0.025,0.051,0.051,0.101,0.075,0.151
			C21.211,44.89,21.186,44.84,21.16,44.789z"/>
		<path style="fill-rule:evenodd;clip-rule:evenodd;fill:#010101;" d="M21.311,44.864c0.075,0.177,0.151,0.353,0.227,0.529
			c-0.051-0.051-0.101-0.102-0.151-0.15c-0.075-0.052-0.15-0.102-0.226-0.152C21.21,45.016,21.261,44.94,21.311,44.864z"/>
		<path style="fill-rule:evenodd;clip-rule:evenodd;fill:#010101;" d="M29.066,44.864c0.05,0,0.101,0,0.15,0
			C29.167,44.864,29.116,44.864,29.066,44.864z"/>
		<path style="fill-rule:evenodd;clip-rule:evenodd;fill:#010101;" d="M64.533,44.94c0.025,0.05,0.051,0.101,0.076,0.15
			C64.584,45.041,64.559,44.99,64.533,44.94z"/>
		<path style="fill-rule:evenodd;clip-rule:evenodd;fill:#010101;" d="M64.458,45.091c0.025,0.051,0.051,0.101,0.075,0.152
			C64.509,45.191,64.483,45.142,64.458,45.091z"/>
		<path style="fill-rule:evenodd;clip-rule:evenodd;fill:#010101;" d="M64.308,45.695c0.025,0.126,0.05,0.252,0.075,0.378
			c-0.05-0.025-0.101-0.051-0.15-0.075C64.258,45.897,64.282,45.796,64.308,45.695z"/>
		<path style="fill-rule:evenodd;clip-rule:evenodd;fill:#010101;" d="M16.265,45.922c0.051,0,0.101,0,0.15,0
			c-0.05,0.051-0.1,0.101-0.15,0.151C16.265,46.022,16.265,45.973,16.265,45.922z"/>
		<path style="fill-rule:evenodd;clip-rule:evenodd;fill:#010101;" d="M16.265,46.148c-0.016,0.111,0.032,0.076-0.075,0.227
			C16.215,46.3,16.24,46.224,16.265,46.148z"/>
		<path style="fill-rule:evenodd;clip-rule:evenodd;fill:#010101;" d="M16.492,46.526c0.05,0,0.1,0,0.15,0
			c-0.075,0.05-0.15,0.101-0.227,0.15C16.441,46.627,16.466,46.576,16.492,46.526z"/>
		<path style="fill-rule:evenodd;clip-rule:evenodd;fill:#010101;" d="M22.063,46.602c0.051,0,0.101,0,0.15,0
			C22.164,46.602,22.114,46.602,22.063,46.602z"/>
		<path style="fill-rule:evenodd;clip-rule:evenodd;fill:#010101;" d="M17.019,46.753c0.126,0,0.251,0,0.377,0
			c0.229,0.563,0.366,0.31,0.075,0.604C17.32,47.155,17.169,46.954,17.019,46.753z"/>
		<path style="fill-rule:evenodd;clip-rule:evenodd;fill:#010101;" d="M22.214,46.828c0.209,0.102,0.022,0.048,0.227,0.075
			c-0.075,0.075-0.15,0.151-0.227,0.228c-0.024-0.051-0.05-0.102-0.075-0.152C22.164,46.929,22.189,46.878,22.214,46.828z"/>
		<path style="fill-rule:evenodd;clip-rule:evenodd;fill:#010101;" d="M17.847,47.281c0.076,0,0.151,0,0.227,0
			C17.998,47.281,17.923,47.281,17.847,47.281z"/>
		<path style="fill-rule:evenodd;clip-rule:evenodd;fill:#010101;" d="M23.721,47.583c0.196,0.18,0.193,0.208,0.226,0.378
			c-0.025,0-0.05,0-0.075,0C23.718,47.743,23.756,47.805,23.721,47.583z"/>
		<path style="fill-rule:evenodd;clip-rule:evenodd;fill:#010101;" d="M64.157,56.569c0.05,0,0.101,0,0.15,0
			C64.176,56.644,64.29,56.639,64.157,56.569z"/>
		<path style="fill-rule:evenodd;clip-rule:evenodd;fill:#010101;" d="M64.232,56.721c0.05,0,0.101,0,0.15,0
			C64.333,56.721,64.282,56.721,64.232,56.721z"/>
		<path style="fill-rule:evenodd;clip-rule:evenodd;fill:#010101;" d="M64.383,56.947c0.101,0.076,0.201,0.151,0.302,0.227
			C64.584,57.099,64.483,57.023,64.383,56.947z"/>
		<path style="fill-rule:evenodd;clip-rule:evenodd;fill:#010101;" d="M38.027,60.346c0.051,0,0.101,0,0.151,0
			C38.128,60.346,38.078,60.346,38.027,60.346z"/>
		<path style="fill-rule:evenodd;clip-rule:evenodd;fill:#010101;" d="M84.11,67.595c0.2,0.106,0.066,0.04,0,0.227
			C84.11,67.746,84.11,67.67,84.11,67.595z"/>
		<path style="fill-rule:evenodd;clip-rule:evenodd;fill:#010101;" d="M83.81,67.746c0.051,0.05,0.101,0.102,0.15,0.151
			C83.91,67.848,83.86,67.796,83.81,67.746z"/>
		<path style="fill-rule:evenodd;clip-rule:evenodd;fill:#010101;" d="M83.659,67.897c0.05,0.024,0.101,0.05,0.15,0.075
			c0.051,0.025,0.101,0.051,0.15,0.076c-0.05,0-0.1,0-0.15,0c-0.075,0.024-0.15,0.049-0.226,0.074
			C83.608,68.049,83.634,67.973,83.659,67.897z"/>
		<path style="fill-rule:evenodd;clip-rule:evenodd;fill:#010101;" d="M83.434,68.049c0.024,0.049,0.05,0.1,0.075,0.15
			c-0.051,0-0.101,0-0.15,0C83.383,68.148,83.408,68.098,83.434,68.049z"/>
		<path style="fill-rule:evenodd;clip-rule:evenodd;fill:#010101;" d="M74.925,77.109c0.075,0.025,0.15,0.051,0.226,0.076
			c0,0.025,0,0.05,0,0.075C74.923,77.166,75.061,77.262,74.925,77.109z"/>
		<path style="fill-rule:evenodd;clip-rule:evenodd;fill:#010101;" d="M75.226,77.261c0.051,0,0.101,0,0.15,0
			C75.326,77.261,75.276,77.261,75.226,77.261z"/>
		<path style="fill-rule:evenodd;clip-rule:evenodd;fill:#010101;" d="M75.603,77.337c0.075,0.075,0.15,0.15,0.226,0.226
			c-0.075,0-0.15,0-0.226,0C75.603,77.487,75.603,77.412,75.603,77.337z"/>
		<path style="fill-rule:evenodd;clip-rule:evenodd;fill:#010101;" d="M75.979,77.562c0.025,0.051,0.051,0.102,0.075,0.152
			C76.029,77.664,76.004,77.613,75.979,77.562z"/>
	</g>
</g>
<g id="Layer_1">
</g>
</svg>
