<?xml version="1.0" encoding="iso-8859-1"?>
<!-- Generator: Adobe Illustrator 16.0.3, SVG Export Plug-In . SVG Version: 6.00 Build 0)  -->
<!DOCTYPE svg PUBLIC "-//W3C//DTD SVG 1.1//EN" "http://www.w3.org/Graphics/SVG/1.1/DTD/svg11.dtd">
<svg version="1.1" xmlns="http://www.w3.org/2000/svg" xmlns:xlink="http://www.w3.org/1999/xlink" x="0px" y="0px" width="100px"
	 height="100px" viewBox="0 0 100 100" style="enable-background:new 0 0 100 100;" xml:space="preserve">
<g id="MZ">
	<path style="fill:#010101;" d="M81.074,1.371c-0.118,0-0.237,0-0.356,0C80.58,1.554,80.386,1.584,80.31,1.83
		c0.237,0.135,0.475,0.271,0.713,0.406c-0.015,0.017-0.033,0.033-0.053,0.05c-0.261,0.328-0.627,0.273-0.66,0.865
		c0.194,0.143,0.37,0.19,0.408,0.509c-0.151,0.185-0.304,0.373-0.455,0.558c0.014,0.085,0.032,0.168,0.047,0.254
		c-0.085,0.033-0.166,0.069-0.252,0.102c-0.157,0.119-0.456,0.561-0.509,0.763c0.267,0.076,0.433,0.271,0.661,0.406
		c-0.338,0.848-0.328,1.92,0.151,2.744c-0.095,0.504-0.028,0.321,0.101,0.71c0.08,0.237-0.124,0.294-0.152,0.408
		c-0.095,0.409,0.066,0.911-0.047,1.321c-0.02,0.017-0.038,0.033-0.053,0.05c0.053,0.311,0.304,0.629,0.403,0.864
		c-0.214,0.079-0.427,0.345-0.504,0.559c0.015,0,0.034,0,0.049,0c0.118,0.09,0.37,0.074,0.508,0.152
		c0.076,0.152-0.058,0.219,0,0.407c0.048,0.147,0.232,0.214,0.304,0.356c-0.214,0.048-0.176,0.021-0.199,0.254
		c0.252,0.1,0.347,0.152,0.352,0.508c-0.152,0.103-0.304,0.205-0.456,0.304c-0.147,0.207-0.015,0.323-0.305,0.409
		c-0.085-0.093-0.042-0.066-0.203-0.102c-0.119,0.114-0.229,0.131-0.305,0.304c-0.038,0.066-0.043,0.126-0.053,0.254
		c0.162,0.192,0.119,0.318,0.462,0.356c0,0.017,0,0.034,0,0.05c0.014-0.017,0.032-0.033,0.047-0.05
		c0.095-0.09,0.08-0.071,0.104-0.254c-0.053-0.102-0.028-0.09,0-0.205c0.133,0.017,0.271,0.033,0.404,0.052
		c0.019,0.083,0.033,0.169,0.052,0.254c-0.551,0.618,0.176,1.763,0,2.338c-0.076,0.25-0.342,0.471-0.408,0.812
		c0.156,0.1,0.29,0.219,0.356,0.407c-0.409,0.302,0.228,1.796,0.304,2.337c-0.129,0.081-0.1,0.029-0.152,0.202
		c0.224,0.069,0.215,0.119,0.205,0.407c-0.195,0.185-0.091,0.25-0.205,0.458c-0.1,0.062-0.313,0.104-0.403,0.152
		c0.028,0.083,0.014,0.055,0.047,0.102c0.072,0.173,0.3,0.333,0.461,0.406c0-0.017,0-0.033,0-0.05
		c0.139-0.152,0.076-0.216,0.356-0.254c0.091-0.041,0.091-0.017,0.253,0c0.014,0.285,0.151,0.473,0.099,0.61
		c-0.042,0.245-0.161,0.359-0.403,0.406c-0.053-0.033-0.053-0.031-0.152-0.052c0,0.188,0,0.373,0,0.558
		c0.091,0.05,0.086,0.064,0.204,0.103c0.114-0.152,0.589-0.39,0.761-0.304c0.052,0.017,0.1,0.033,0.152,0.05
		c0.019,0.307,0.033,0.611,0.052,0.915c-0.033,0.112-0.214,0.195-0.152,0.407c0.048,0.176,0.3,0.846,0.101,1.169
		c-0.171,0.278-0.865,0.245-1.064,0.508c0.014,0,0.033,0,0.047,0c0.224,0.119,0.399,0.009,0.509,0.254
		c0.033,0.052,0.028,0.052,0.052,0.154c-0.137,0.017-0.271,0.033-0.408,0.05c-0.033,0.033-0.066,0.066-0.1,0.102
		c0.052,0.136,0.1,0.271,0.151,0.407c-0.408,0.121-1.055,0.235-1.116,0.71c0.1,0.017,0.199,0.036,0.304,0.053
		c0.129-0.14,0.205-0.226,0.457-0.254c0.494,0.787-0.005,0.903-0.356,1.473c-0.048,0.237-0.101,0.475-0.152,0.713
		c-0.134,0.199-0.508,0.256-0.661,0.456c-0.204,0.321-0.408,0.644-0.607,0.967c-0.371,0.421-1.222,0.841-1.374,1.421
		c0.038,0.066,0.044,0.128,0.053,0.257c-0.384,0.33-0.519,1.19-1.121,1.269c-0.066,0.041-0.123,0.045-0.251,0.052
		c-0.02-0.017-0.034-0.036-0.053-0.052c0-0.05,0-0.1,0-0.152c-0.167,0.05-0.072-0.021-0.152,0.102
		c0.01,0.05-0.076,0.288-0.053,0.304c0.104,0.112,0.224,0.112,0.305,0.254c0.043,0.067,0.048,0.126,0.052,0.254
		c-0.708,0.732-1.34,1.002-2.186,1.575c-0.133,0.135-0.271,0.271-0.404,0.406c-0.969,0.577-1.962,0.604-2.343,1.779
		c-0.499,0.286-1.516,0.476-2.133,0.611c-0.186-0.017-0.371-0.033-0.562-0.052c-0.047,0.069-0.1,0.136-0.151,0.204
		c-0.237,0.107-0.19-0.124-0.404-0.049c-0.114,0.038-0.109,0.159-0.304,0.202c-0.091-0.074-0.104-0.076-0.257-0.102
		c-0.438,0.549-1.473,0.587-1.981,1.069c-0.086-0.033-0.053-0.016-0.104-0.052c-0.133-0.107-0.138-0.223-0.199-0.406
		c-0.086,0.03-0.058,0.014-0.104,0.049c-0.015,0-0.034,0-0.049,0c0.072,0.233,0.115,0.35-0.052,0.561
		c-0.28,0.164-0.637,0.128-0.965,0.254c-0.637,0.243-1.239,0.732-1.781,1.067c-0.646,0.399-1.331,0.616-1.981,1.017
		c-0.381,0.235-0.998,0.706-1.27,1.067c-0.228,0.297-0.347,0.765-0.765,0.865c-0.095-0.1-0.104-0.092-0.305-0.102
		c-0.033,0.083-0.014,0.052-0.052,0.102c0.066,0.157,0.176,0.221,0.304,0.304c-0.014,0.017-0.032,0.033-0.047,0.05
		c-0.124,0.252-0.386,0.667-0.713,0.713c-0.053-0.033-0.053-0.031-0.152-0.052c-0.086,0.085-0.17,0.171-0.255,0.254
		c-0.01,0.05-0.041,0.021,0,0.052c0.111,0.055,0.137,0.019,0.303,0c0,0.017,0,0.033,0,0.05c-0.271,0.288-0.541,0.575-0.812,0.865
		c-0.729,0.549-1.701,1.269-1.932,2.286c0.073,0.088,0.076,0.103,0.102,0.254c-0.269,0.167-0.181,0.452-0.558,0.508
		c-0.062-0.168-0.079-0.146-0.154-0.152c-0.094,0.152-0.024,0.219-0.202,0.305c-0.207,0.114-0.519-0.052-0.713,0
		c-0.195,0.055-0.487,0.219-0.661,0.307c-0.09-0.012-0.163-0.162-0.304-0.103c-0.036,0.069-0.068,0.136-0.103,0.205
		c-0.506,0.294-1.169,0.463-1.575,0.862c-0.133,0.128-0.145,0.356-0.254,0.508c-0.273,0.378-0.753,0.668-1.069,1.018
		c-0.651,0.717-1.198,1.338-1.982,1.932c-0.475,0.358-1.1,1.068-1.83,1.116c-0.247-0.456-0.575-0.77-1.119-0.914
		c-0.016,0.019-0.033,0.032-0.05,0.052c0.026,0.063,0.062,0.151,0.1,0.202c0.311,0.249,0.587,0.207,0.61,0.763
		c-0.297,0.297-0.102,1.447-0.05,1.779c-0.017,0.017-0.036,0.033-0.052,0.05c-0.24-0.002-0.299-0.017-0.456,0
		c0,0.053,0,0.103,0,0.152c0.209,0.104,0.251,0.138,0.254,0.458c-0.126,0.133-0.406,0.915-0.406,0.915
		c0.069,0.133,0.181,0.181,0.304,0.254c-0.085,0.162-0.157,0.198-0.204,0.406c0.466,0.076,0.608,0.316,0.917,0.661
		c-0.033,0.143-0.085,0.238-0.052,0.307c0.052,0.03,0.052,0.028,0.152,0.05c0.138-0.178,0.214-0.32,0.509-0.356
		c0.019,0.086,0.033,0.171,0.052,0.254c-0.103,0.017-0.205,0.034-0.307,0.053c0.017,0.017,0.036,0.033,0.052,0.05
		c0.262,0.121,0.559-0.023,0.608,0.456c0.078,0.136,0.026,0.237,0,0.407c0.154,0.092,0.53,0.513,0.61,0.662
		c-0.109,0.152-0.088,0.567-0.05,0.812c-0.017,0.017-0.036,0.033-0.052,0.051c-0.136,0.016-0.271,0.035-0.406,0.052
		c0,0.017,0,0.033,0,0.05c0.033,0.052,0.031,0.052,0.052,0.152c0.1,0.021,0.1,0.016,0.152,0.052c0.064,0.1,0.283,0.519,0.304,0.608
		c-0.066,0.053-0.135,0.103-0.202,0.154c0.033,0.116,0.066,0.235,0.1,0.354c0.276,0.029,0.38,0.729,0.561,1.018
		c0.192,0.305,0.561,0.575,0.661,0.967c-0.033,0.202-0.069,0.406-0.102,0.608c0.237,0.772,0.501,1.756,0.508,2.797
		c0.136,0.071,0.214,0.1,0.458,0.102c0.05,0.031,0.053,0.029,0.152,0.051c-0.028-0.348-0.047-0.635,0.304-0.714
		c0.017,0.02,0.034,0.036,0.052,0.053c0.083,0.373,0.169,0.746,0.252,1.116c0.149,0.613-0.147,1.203-0.252,1.576
		c-0.13,0.453,0.122,0.931,0.05,1.323c-0.081,0.439,0.535,1.103,0.508,1.117c-0.128,0.47-0.549,0.796-0.66,1.27
		c0.016,0.357,0.033,0.713,0.049,1.067c-0.085,0.273-0.325,0.66-0.406,0.967c-0.103,0.396,0.059,0.934-0.05,1.269
		c-0.035,0-0.069,0-0.102,0c-0.041-0.202-0.033-0.186-0.205-0.252c0,0.018,0,0.033,0,0.05c-0.033,0.053-0.028,0.053-0.049,0.152
		c0.261,0.297-0.245,1.233-0.103,1.628c0.052,0.033,0.052,0.028,0.152,0.05c0.041-0.28,0.062-0.535,0.155-0.812
		c0.15,0.045,0.335,0.211,0.406,0.151c0.278-0.14,0.112-0.418,0.456-0.508c0.017,0.017,0.036,0.033,0.05,0.05
		c0.038,0.663-0.076,0.857-0.252,1.476c0,0.201,0,0.406,0,0.61c-0.247,0.777-1.069,1.333-1.525,1.93
		c-0.235,0.307-0.397,0.796-0.713,1.017c-1.162,0.812-2.725,1.046-4.167,1.575c-1.447,0.532-2.946,0.981-4.474,1.525
		c-0.221,0.136-0.442,0.271-0.66,0.406c-1.029,0.395-1.949,0.649-2.846,1.169c-0.542,0.312-1.687,0.948-2.034,1.424
		c-0.594,0.817-0.542,1.848-1.525,2.289c0,0.033,0,0.066,0,0.1c0.375,0.252,0.594,0.656,0.713,1.169
		c0.642,0.024,0.535,0.485,1.017,0.608c0.077-0.071,0.091-0.043,0.152-0.152c0.133-0.323,0-0.907,0.509-1.017
		c0.014,0.071,0.033,0.138,0.049,0.204c-0.216,0.39-0.049,0.96-0.152,1.474c-0.19,0.95-0.121,1.891-0.306,2.794
		c-0.033,0-0.067,0-0.1,0c-0.256,0.146-0.912,0.052-1.273,0.052c-1.05,0-2.101,0-3.15,0c-0.209-0.408-0.109-1.345-0.1-1.929
		c-0.479-0.537-0.299-1.35-0.152-2.034c-0.036-0.338-0.069-0.68-0.104-1.017c-0.257-0.128-0.551-0.166-0.661-0.456
		c-0.661-0.919,0.313-1.327,0.204-2.085c-0.028-0.186-0.168-0.436-0.204-0.559c-0.076-0.273,0.242-0.952,0.304-1.271
		c0.235-1.149,0-2.59-0.202-3.608c0.016-0.628,0.035-1.255,0.049-1.88c-0.049-0.238-0.1-0.476-0.152-0.713
		c-0.152-0.202-0.304-0.406-0.456-0.608c-0.167-0.48,0.042-1.098-0.205-1.476c-0.185-0.287-0.656-0.332-0.812-0.66
		c-0.171-0.354-0.233-1.262-0.409-1.525c-0.181-0.273-0.57-0.439-0.71-0.761c-0.245-0.565,0.173-1.28,0-1.882
		c-0.425-1.478-1.273-2.957-1.525-4.522c0.934-0.604,2.07-1.812,2.744-2.694c0.459-0.44,0.917-0.88,1.374-1.321
		c0.927-0.924,1.815-1.877,2.747-2.795c0.05,0,0.1,0,0.152,0c-0.081-0.42-0.409-0.717-0.509-1.169
		c0.328-0.239,0.746-0.738,0.865-1.169c0.124-0.455-0.242-1.358-0.102-1.932c0.331-0.178,0.449-0.309,1.015-0.304
		c0.269-0.421,1.193-1.478,1.273-1.882c-0.119-0.088-0.114-0.071-0.152-0.255c0.181-0.137,0.129-0.182,0.1-0.456
		c0.447-0.244,0.19-0.29,0.409-0.508c0.157-0.159,0.385-0.043,0.508-0.255c0.202-0.254,0.25-0.967,0.252-1.373
		c-0.204-0.119-0.466-0.204-0.508-0.508c0.064-0.091,0.09-0.079,0.052-0.153c-0.066-0.039-0.128-0.042-0.254-0.049
		c-0.126,0.106-0.306,0.106-0.559,0.1c-0.019-0.066-0.033-0.136-0.052-0.202c0.143-0.237,0.019-0.684,0-0.967
		c-0.1-0.052-0.232-0.104-0.356-0.152c-0.009-0.209,0-0.356,0-0.66c0.394-0.265,0.57-0.988,0.61-1.575
		c-0.149-0.131-0.178-0.356-0.356-0.457c-0.15-0.078-0.461-0.019-0.661-0.052c0-0.033,0-0.066,0-0.1
		c-0.05-0.091-0.021-0.753-0.05-0.968c0.161-0.102,0.423-0.301,0.608-0.356c0.256-0.076,0.418,0.103,0.561,0.052
		c0.138-0.05,0.128-0.052,0.204-0.152c0.356-0.483-0.181-0.911-0.204-1.578c0.19-0.103,0.446-0.15,0.712-0.202
		c0.081-0.211,0.2-0.565,0.252-0.815c-0.1-0.1-0.202-0.202-0.304-0.304c-0.085-0.271,0.114-0.463,0-0.763
		c-0.092-0.243-0.432-0.794-0.356-1.169c0.014-0.071,0.119-0.147,0.152-0.252c0.009-0.143-0.052-0.371-0.05-0.713
		c0.124-0.069,0.235-0.124,0.307-0.254c0.048-0.1,0.171-0.884,0.202-1.067c-0.905-0.799-0.197-0.682-0.05-1.628
		c-0.314-0.247-0.114-0.513-0.257-0.964c-0.19-0.625-0.755-1.02-0.965-1.575c0.514-0.19,0.939-0.682,0.813-1.321
		c-0.033,0-0.066,0-0.1,0c-0.216-0.085-0.913,0.152-1.274-0.052c-0.29-0.109-0.211-0.313-0.304-0.608
		c-0.784-0.356-1.573-0.801-2.49-1.017c-0.763-0.181-1.815,0.335-2.286-0.205c-0.323-0.484-0.784-1.028-1.374-1.219
		c-0.551-0.178-1.055-0.059-1.525-0.254c-0.352-0.145-0.48-0.568-0.763-0.763c-0.299-0.209-0.777-0.247-1.171-0.307
		c-0.181,0.174-0.646,0.409-0.913,0.459c-0.408-0.606-2.271-0.371-3.255-0.356c-0.242-0.473-0.109-1.576-0.1-2.236
		c-0.119-0.169-0.238-0.34-0.356-0.509c0.121-0.418,0.29-0.922,0-1.371c-0.188-0.155-0.375-0.307-0.561-0.459
		c-0.276-0.392-0.276-1.038-0.304-1.525c0.017-0.016,0.033-0.033,0.05-0.049c1.205-0.136,2.222-0.83,3.253-1.219
		c0.682-0.259,1.373-0.219,2.086-0.458c0.252-0.085,0.648-0.269,0.915-0.356c0.473-0.083,0.948-0.168,1.423-0.254
		c0.373-0.218,0.746-0.439,1.117-0.661c0.29-0.049,0.58-0.1,0.865-0.152c0.323-0.168,0.646-0.34,0.967-0.508
		c0.701-0.216,1.292-0.395,1.932-0.559c0.337-0.05,0.68-0.102,1.017-0.152c1.126-0.444,2.345-0.803,3.559-1.271
		c0.366-0.141,0.765-0.38,1.219-0.459c0.13,0.117,0.268,0.14,0.356,0.307c0.15,0.178,0.074,0.385,0.05,0.661
		c0.561,0.423,0.577,0.812,0.967,1.371c0.183,0.264,0.639,0.423,0.863,0.663c0.221,0.233,0.125,0.565,0.508,0.661
		c0.047-0.036,0.021-0.019,0.102-0.052c0.064-0.245-0.005-0.478,0.254-0.558c0.129,0.133,0.229,0.213,0.459,0.254
		c0.23-0.226,0.58-0.506,1.117-0.406c0.06,0.009,0.271,0.095,0.409,0.05c0.083-0.083,0.168-0.168,0.254-0.254
		c0.202,0,0.406,0,0.608,0c0.366-0.093,0.549-0.25,1.069-0.254c0.162,0.247,0.917,1.112,0.964,1.271
		c0.085,0.278-0.178,0.406-0.152,0.558c0.038,0.226,0.292,0.38,0.356,0.561c-0.017,0.235-0.036,0.473-0.052,0.71
		c0.036,0.147,0.223,0.328,0.254,0.458c0.054,0.216-0.159,0.549-0.202,0.76c-0.086,0.409,0.261,0.76,0.1,1.069
		c-0.2,0.508-0.881,0.808-1.015,1.371c0.627,0.75-0.663,1.554-1.017,1.882c0,0.185,0,0.373,0,0.558
		c0.404,0.211,0.977,0.561,1.017,1.119c-0.332,0.235-0.106,0.62,0,0.965c0.1,0.085,0.202,0.168,0.304,0.254c0.136,0,0.271,0,0.406,0
		c0.254,0.124,0.124,0.392,0.254,0.66c0.085,0.176,0.375,0.173,0.508,0.304c0.033,0.085,0.069,0.171,0.103,0.254
		c0.135,0.119,0.399,0.062,0.508,0.204c0.033,0.103,0.066,0.202,0.1,0.304c0.138,0.085,0.273,0.169,0.409,0.254
		c0.178,0.24,0.24,0.601,0.509,0.763c0.066,0,0.135,0,0.202,0c0.183,0.107,0.233,0.439,0.458,0.508
		c0.468,0.145,0.696-0.363,0.71,0.508c0.033,0.052,0.031,0.052,0.052,0.152c-0.152,0.095-0.52,0.299-0.61,0.458
		c-0.098,0.186,0.019,0.228,0.102,0.354c0.017,0.103,0.033,0.204,0.05,0.307c0.109,0.143,0.981,0.064,1.221,0.05
		c0.069-0.131,0.095-0.178,0.103-0.406c-0.433-0.57,0.145-1.305-0.155-2.034c-0.168-0.416-0.717-0.468-0.812-0.964
		c0.435-0.299,0.687-0.658,0.865-1.221c0.076-0.243-0.106-0.466,0-0.761c0.112-0.316,0.589-0.534,0.813-0.763
		c0.085,0,0.168,0,0.254,0c0.122,0.14,0.159,0.221,0.406,0.254c0.478-0.414,1.569-0.247,1.73-0.967
		c-0.292-0.449,0.428-2.833,0.202-3.709c-0.088-0.347-0.454-1-0.356-1.423c0.057-0.245,0.756-1.426,0.663-1.525
		c-0.212-0.42-0.214-0.793-0.204-1.473c-0.017,0-0.034,0-0.051,0c-0.259-0.682-1.283-1.442-1.729-2.034
		c-0.235-0.313-0.33-0.674-0.558-1.017c-0.364-0.544-0.977-0.955-1.374-1.473c-0.756-0.986-1.54-1.815-2.388-2.694
		c-0.525,0-1.053,0-1.578,0c-0.169-0.237-0.337-0.473-0.508-0.71c0.014-0.634,0.29-1.561,0.152-2.236
		c-0.05-0.251-0.2-0.606-0.252-0.815c-0.102-0.399,0.188-0.542,0.1-0.915c-0.176-0.756-0.941-2.024-0.71-3.049
		c0.154-0.687,0.52-1.207,0.763-1.779c0.216-0.513,0.442-1.015,0.61-1.525c0.064-0.202-0.019-0.523,0.152-0.608
		c0.186,0,0.373,0,0.559,0c0.333-0.188,0.996,0.031,1.423-0.052c1.452-0.28,2.699,0.157,4.015,0.102
		c0.264-0.399,0.765-0.993,1.323-1.067c0.186,0.033,0.374,0.067,0.559,0.102c0.237,0.825,1.374,0.356,1.374,1.523
		c0.035,0.047,0.019,0.021,0.05,0.102c0.032,0.033,0.068,0.069,0.102,0.102c0.3-0.047,1.447-0.299,1.78-0.152
		c0.189,0.083,0.194,0.252,0.508,0.304c0.219-0.155,0.645-0.107,0.863-0.254c0.34-0.229,0.297-0.63,0.863-0.661
		c0.342,0.25,0.746,0,1.121-0.05c0.143,0.283,0.348,0.447,0.557,0.661c0.342,0.033,0.679,0.066,1.017,0.1
		c0.081-0.017,0.133-0.147,0.309-0.1c0.237,0.062,0.3,0.237,0.708,0.254c0.447-0.623,1.877-0.568,2.139-1.221
		c0.076-0.154-0.048-0.238,0-0.406c0.053-0.211,0.237-0.499,0.305-0.812c0.508-0.269,1.587-0.625,2.39-0.304
		c0.305,0.121,0.993,0.927,1.421,0.812c0.318-0.085,0.604-0.591,0.864-0.763c0.229-0.149,0.565,0.026,0.865-0.102
		c0.247-0.104,0.461-0.511,0.713-0.608c0.118-0.05,1.73-0.116,1.777-0.102c0.152,0.042,0.204,0.133,0.456,0.152
		c0.575-0.513,1.454-1.178,2.238-1.423c0.504-0.157,0.794-0.081,1.222-0.254c0.199-0.152,0.403-0.304,0.607-0.458
		c0.205-0.05,0.409-0.1,0.613-0.152c0.523-0.349,0.927-0.986,1.473-1.321c0.162-0.1,0.356-0.005,0.556-0.102
		C79.701,0.485,79.854,0.121,80.158,0c0.066,0.038,0.128,0.043,0.256,0.05c0.014,0.033,0.033,0.069,0.048,0.102
		c0.128,0.186,0.047,0.314,0.052,0.509c0.352,0.081,0.114,0.126,0.257,0.406C80.852,1.226,81.008,1.138,81.074,1.371z"/>
</g>
<g id="Layer_1">
</g>
</svg>
