<?xml version="1.0" encoding="iso-8859-1"?>
<!-- Generator: Adobe Illustrator 16.0.3, SVG Export Plug-In . SVG Version: 6.00 Build 0)  -->
<!DOCTYPE svg PUBLIC "-//W3C//DTD SVG 1.1//EN" "http://www.w3.org/Graphics/SVG/1.1/DTD/svg11.dtd">
<svg version="1.1" xmlns="http://www.w3.org/2000/svg" xmlns:xlink="http://www.w3.org/1999/xlink" x="0px" y="0px" width="100px"
	 height="100px" viewBox="0 0 100 100" style="enable-background:new 0 0 100 100;" xml:space="preserve">
<g id="NE">
	<path style="fill:#010101;" d="M74.596,11.031c0.756,0.133,1.571,0.284,2.304,0.48c0.681,0.187,1.39,0.233,2.028,0.413
		c0.854,0.243,1.749,0.294,2.579,0.518c0.689,0.187,1.403,0.233,2.061,0.413c0.341,0.091,0.667,0.07,0.928,0.24
		c0.229,0.147,0.401,0.422,0.62,0.585c0.849,0.639,1.591,1.39,2.439,2.028c0.256,0.191,0.723,0.791,1.03,0.858
		c0.158,0.035,0.294-0.151,0.382-0.205c0.289-0.182,0.583-0.345,0.858-0.518c0.751-0.466,1.521-0.839,2.271-1.306
		c0.299-0.187,0.64-0.52,1.031-0.585c0,0.011,0,0.023,0,0.035c0.009,0,0.023,0,0.032,0c0.028,0.275,0.131,0.553,0.205,0.791
		c0.145,0.466,0.21,0.939,0.346,1.375c0.4,1.301,0.629,2.716,0.96,4.022c0,0.172,0,0.345,0,0.518
		c0.154,0.669,0.019,1.492,0.173,2.164c0.065,0.277-0.056,0.594,0.069,0.792c0.112,0.299,0.574,0.462,0.756,0.721
		c0.494,0.697,0.998,1.375,1.479,2.063c0.2,0.282,0.35,0.618,0.587,0.86c-0.126,0.208-0.452,0.354-0.345,0.79
		c0.135,0.553,0.476,0.453,0.723,0.755c0.452,0.56,0.975,1.042,1.408,1.616c0.177,0.233,0.462,0.292,0.48,0.688
		c-0.224,0.25-0.304,0.674-0.448,0.998c-0.219,0.501-0.643,1.168-0.787,1.683c-0.08,1.089-0.164,2.178-0.243,3.267
		c-0.252,1.154-0.089,2.49-0.34,3.644c-0.07,0.301,0.019,0.707-0.038,0.963c-0.111,0.508,0.07,1.152-0.032,1.616
		c0,0.263,0,0.527,0,0.791c-0.014,0.447-0.023,0.895-0.037,1.34c0,0.375,0.037,0.851-0.033,1.17c0,0.264,0,0.527,0,0.791
		c-0.009,0.436-0.022,0.87-0.032,1.306c0,0.375,0.032,0.851-0.037,1.17c-0.023,1.306-0.047,2.612-0.07,3.919
		c-0.116,0.415-0.457,0.627-0.686,0.928c-0.442,0.588-0.965,1.094-1.408,1.684c-0.13,0.175-0.35,0.308-0.48,0.482
		c-0.573,0.753-1.296,1.385-1.86,2.131c-0.657,0.87-1.371,1.672-2.028,2.544c-0.233,0.31-0.56,0.58-0.788,0.893
		c-0.396,0.544-0.709,1.117-1.067,1.686c-0.704,1.117-1.492,2.117-1.959,3.507c-0.107,0.317,0.103,0.637,0.136,0.86
		c-0.103,0.112-0.112,0.326-0.238,0.413c-0.191,0.128-0.358,0.067-0.447,0.308c-0.056,0.118,0.079,0.21,0.032,0.412
		c-0.014,0.079-0.061,0.154-0.065,0.275c-0.163,0.098-0.326,0.282-0.518,0.345c-0.103,0-0.205,0-0.308,0
		c-0.345,0.082-0.526,0.168-0.518,0.618c0.187,0.275,0.149,0.756,0.243,1.101c0.187,0.704,0.316,1.499,0.513,2.201
		c0.061,0.209,0.247,1.072,0.21,1.168c-0.149,0.163-0.882,0.074-1.171,0.069c-0.098,0.063-0.359,0.038-0.518,0.033
		c-0.135,0.23-0.694,1.271-0.891,1.341c-0.396,0.272-1.245,0.019-1.688,0.274c-0.233,0.138-0.495,0.334-0.653,0.551
		c-0.056,0.077-0.061,0.188-0.135,0.24c-0.275,0.198-0.62,0.259-0.896,0.447c-0.163,0.114-0.289,0.326-0.448,0.447
		c-0.051,0.042-0.14,0.045-0.172,0.103c-0.084,0.164-0.028,0.403-0.136,0.551c-0.069,0.093-0.229,0.079-0.274,0.205
		c-0.164,0.427,0.022,0.445-0.583,0.447c-0.187-0.109-0.48-0.014-0.723-0.067c-0.065-0.017-0.28-0.002-0.378-0.035
		c-0.084-0.027-0.196-0.146-0.275-0.172c-0.153-0.049-0.279,0.054-0.345,0.069c-0.149-0.035-0.299-0.069-0.448-0.103
		c-0.209-0.088-0.415-0.233-0.582-0.345c-0.21-0.136-0.448-0.149-0.653-0.275c-0.116-0.069-0.219-0.217-0.345-0.275
		c-0.401-0.182-0.677-0.123-1.134-0.274c-0.476-0.159-0.96-0.341-1.515-0.48c-0.215-0.056-0.411,0.012-0.514,0.035
		c-0.084-0.015-0.163-0.023-0.242-0.035c-0.303,0.017-0.672-0.014-1.03,0.067c-0.117,0.028-0.373,0.117-0.48,0.103
		c-0.284-0.032-0.662,0.049-1.035-0.032c-0.555-0.124-1.166-0.166-1.684-0.035c-0.111,0-0.229,0-0.345,0
		c-0.326,0.104-0.751,0.314-1.101,0.413c-0.191,0.011-0.387,0.022-0.583,0.034c-0.111,0.028-0.257,0.107-0.378,0.138
		c-0.316,0.077-0.526,0.015-0.788,0.103c-0.256,0.087-0.396,0.285-0.587,0.413c-0.103,0.069-0.22,0.049-0.346,0.103
		c-0.182,0.077-0.363,0.222-0.513,0.345c-0.2,0.163-0.023,0.479-0.345,0.548c-0.042-0.025-0.056-0.025-0.136-0.032
		c-0.163,0.247-0.457,0.415-0.62,0.652c-0.056,0.08-0.046,0.163-0.103,0.24c-0.103,0.091-0.205,0.185-0.312,0.275
		c-0.158,0.254-0.345,0.59-0.686,0.652c-0.084-0.049-0.163,0-0.242,0l-0.103-0.067c-0.354-0.093-0.625,0.003-0.928-0.069
		c-0.238,0.012-0.48,0.022-0.723,0.034c-0.783-0.158-1.786-0.179-2.509-0.377c-0.173-0.023-0.346-0.047-0.518-0.07
		c-0.159-0.054-0.387-0.185-0.546-0.24c-0.252-0.089-0.56-0.059-0.76-0.205c-0.056-0.042-0.061-0.146-0.103-0.207
		c-0.196-0.292-0.467-0.63-0.891-0.688c-0.112,0.079-0.308,0.149-0.448,0.173c-0.163-0.242-0.457-0.378-0.652-0.585
		c-0.07-0.091-0.14-0.183-0.21-0.275c-0.168-0.067-0.341-0.138-0.513-0.205c-0.094-0.063-0.126-0.205-0.205-0.275
		c-0.084-0.023-0.163-0.047-0.243-0.069c-0.111-0.065-0.19-0.222-0.308-0.275c-0.237-0.103-0.518-0.037-0.792-0.103
		c-0.196-0.047-1.008-0.264-1.236-0.173c-0.219,0.086-0.457,0.324-0.652,0.447c-0.448,0.278-0.9,0.479-1.343,0.756
		c-0.136,0.084-0.29,0.261-0.448,0.311c-0.331,0.106-0.783-0.206-1.03-0.068c-0.271,0.094-0.728,0.674-0.928,0.894
		c-0.415,0-0.825,0-1.24,0c-0.317-0.516-0.783-0.981-1.133-1.479c-0.196-0.282-0.308-0.716-0.55-0.963
		c-0.112-0.114-0.28-0.18-0.378-0.311c-0.107-0.142-0.172-0.338-0.308-0.445c-0.159-0.125-0.317-0.23-0.448-0.38
		c-0.145-0.158-0.271-0.434-0.448-0.548c-0.177-0.116-0.728-0.405-0.96-0.412c-0.168,0.118-0.419,0.252-0.658,0.274
		c-0.289-0.296-0.587-0.23-1.029-0.377c-0.312-0.107-0.632-0.376-0.928-0.483c-0.079,0-0.161,0-0.24,0
		c-0.184-0.062-0.396-0.242-0.585-0.31c-0.103-0.012-0.206-0.023-0.308-0.033c-0.251-0.098-0.571-0.594-0.963-0.482
		c-0.261,0.075-0.65,0.163-0.86,0.311c-0.13,0.091-0.268,0.438-0.413,0.515c-0.322,0-0.641,0-0.963,0
		c-0.198,0.122-0.529,0.008-0.791,0.07c-0.303,0.07-0.562,0.101-0.893,0.136c-0.098-0.183-0.166-0.304-0.448-0.309
		c-0.142,0.119-0.292,0.04-0.515,0.103c-0.077,0.021-0.208,0.117-0.275,0.138c-0.114,0-0.231,0-0.345,0
		c-0.31,0.079-0.736,0.217-1.03,0.311c-0.058,0-0.114,0-0.172,0c-0.259,0.103-0.681,0.683-0.928,0.857
		c-0.054,0.04-0.13,0.021-0.172,0.07c-0.091,0.104-0.156,0.271-0.275,0.343c-0.125,0.079-0.438,0-0.515,0.035
		c-0.282,0.233-0.046,0.513-0.138,0.928c-0.032,0.158-0.109,0.41-0.067,0.62c0.007,0.035,0.056,0.149,0.035,0.24
		c-0.044,0.173-0.128,0.492-0.173,0.652c-0.012,0.149-0.023,0.299-0.035,0.448c-0.133,0.415-1.059,1.882-1.376,2.096
		c-0.27,0.185-0.522,0.299-0.79,0.48c-0.189,0.128-0.364,0.356-0.55,0.482c-0.096,0.065-0.261,0.067-0.31,0.173
		c0,0.31,0,0.618,0,0.928c0.177,0.28-0.082,1.266-0.138,1.514c-0.096,0.436,0.147,0.723,0.172,1.133
		c-0.191,0.188-0.347,0.328-0.342,0.723c0.203,0.203,0.394,0.438,0.413,0.825c-0.128,0.114-0.296,0.22-0.413,0.343
		c-0.159,0.005-0.352,0-0.448-0.067c-0.455-0.151-0.417-0.657-0.723-0.86c-0.287-0.191-0.849-0.149-1.101-0.311
		c-0.348-0.221-0.303-0.597-0.515-0.893c-0.08-0.059-0.161-0.114-0.24-0.173c-0.114-0.158-0.145-0.412-0.31-0.515
		c-0.056-0.012-0.114-0.023-0.17-0.035c-0.061-0.042-0.075-0.161-0.138-0.205c-0.086-0.061-0.209-0.061-0.275-0.138
		c-0.406-0.474-0.772-1.341-1.616-1.341c-0.058,0.065-0.163,0.203-0.243,0.24c-0.044,0-0.091,0-0.137,0
		c-0.175,0.101-0.112,0.324-0.378,0.378c-0.226-0.201-1.252,0.161-1.651,0.172c-0.062,0.117-0.072,0.278-0.067,0.48
		c0.13,0.147,0.126,0.42,0.24,0.585c0.135,0.196,0.296,0.122,0.31,0.483c-0.126,0.135-0.606,0.82-0.825,0.688
		c-0.287-0.2-0.424-0.634-0.618-0.931c-0.322-0.484-0.644-0.97-0.963-1.478c-0.161-0.254-0.443-0.457-0.482-0.823
		c0.084-0.128,0.051-0.247,0.208-0.311c0.259-0.172,0.541-0.179,0.893-0.172c0.042-0.079,0.056-0.077,0.068-0.205
		c-0.229-0.238-0.021-0.371-0.135-0.69c-0.044-0.114-0.147-0.103-0.243-0.17c-0.175-0.129-0.158-0.427-0.377-0.516
		c-0.082-0.074-0.62-0.123-0.653-0.104L11.026,82.3c-0.145,0.219-0.061,0.42-0.413,0.445c-0.166,0.103-0.282-0.067-0.48-0.032
		c-0.38,0.064-1.012-0.141-1.34-0.311c-0.361-0.188-0.557-0.494-0.86-0.723c-0.562-0.425-1.019-0.949-1.581-1.376
		c-0.161-0.121-0.272-0.338-0.447-0.445c-0.252-0.069-0.504-0.138-0.755-0.207c-0.269-0.532-0.075-1.541-0.07-2.269
		c0.054-0.019,0.059-0.023,0.138-0.035c0.217,0.168,0.646,0.272,0.998,0.275c0.042-0.077,0.056-0.077,0.067-0.205
		c-0.314-0.201-0.669-0.359-0.96-0.586c-0.172-0.13-0.054-0.358-0.172-0.55c-0.063-0.098-0.185-0.101-0.275-0.17
		c-0.128-0.101-0.238-0.329-0.413-0.381c-0.114,0.012-0.229,0.023-0.343,0.035c-0.119-0.03-0.266-0.104-0.413-0.138
		c-0.028-0.184-0.016-0.27-0.243-0.274H2.775c-0.361-0.25-0.042-0.359-0.205-0.723c-0.093-0.205-0.394-0.334-0.516-0.516
		c-0.284-0.417-0.452-0.886-0.688-1.341c-0.077-0.146-0.273-0.361-0.31-0.515c-0.084-0.357,0.55-0.527,0.275-1.031
		c-0.298-0.55-1.101-0.79-1.306-1.445c-0.156-0.489,0.452-1.266,0.48-1.718c-0.119-0.117-0.254-0.388-0.275-0.585
		c0.143-0.134,0.375-0.359,0.413-0.583c-0.104-0.131-0.107-0.343-0.103-0.586c0.084-0.044,0.098-0.062,0.24-0.069
		c0.068,0.061,0.926,0.361,1.031,0.345c0.203-0.032,0.608-0.291,0.895-0.205c0.103,0.028,0.285,0.168,0.378,0.205
		c0.233,0.089,0.459-0.035,0.653,0c0.476,0.084,1.142,0.067,1.721,0.067c0.116-0.17,0.314-0.286,0.48-0.412
		c0.308-0.231,0.55-0.59,0.86-0.825c0.266-0.201,0.56-0.411,0.791-0.65c2.119-0.047,4.239-0.094,6.36-0.141c0.436,0,0.87,0,1.306,0
		c1.089,0,2.128,0.068,3.164,0.07c0.063-0.119,0.072-0.275,0.068-0.482c0.079-0.042,0.077-0.057,0.208-0.068
		c0.189,0.124,0.471,0.075,0.72,0.138c0.453,0.114,0.989,0.191,1.446,0.311c0.175,0.044,0.667,0.156,0.755,0.103
		c0.208-0.187,0.054-0.646,0.205-0.896c0.093-0.149,0.305-0.271,0.448-0.378c0.326-0.244,0.807-0.891,1.203-1.03
		c0.114,0,0.23,0,0.345,0c0.338-0.153,0.138-0.548,0.24-0.963c0.056-0.23,0.121-0.476,0.205-0.721
		c0.077-0.219,0.252-0.168,0.275-0.447c0.133-0.212,0.014-0.476,0.103-0.758c0.063-0.191,0.193-0.405,0.277-0.618
		c0.082-0.03,0.154-0.044,0.205-0.103c0.198-0.289,0.189-0.566,0.483-0.758c0.151-0.098,0.506-0.111,0.583-0.274
		c0-0.847,0-1.695,0-2.544c0.175-0.107,0.185-0.252,0.173-0.55c-0.07-0.107-0.04-0.415-0.035-0.586
		c0.051-0.025,0.25-0.084,0.275-0.135c0-0.551,0-1.101,0-1.65c0.086-0.141,0.035-0.518,0.035-0.724c0-0.629,0-1.261,0-1.891
		c0.124-0.578,0.033-1.385,0.033-2.028c0-0.196,0-0.39,0-0.585c0.121-0.555,0.035-1.338,0.035-1.958
		c0.011-0.641,0.023-1.282,0.035-1.926c0-0.429-0.044-0.97,0.035-1.34c0-0.194,0-0.39,0-0.583c0-0.464-0.007-0.914,0.067-1.308
		c0.023,0,0.047,0,0.07,0c3.254-0.618,6.509-1.238,9.764-1.856c0.168-0.105,0.289-0.329,0.445-0.447
		c0.606-0.459,1.113-1.019,1.719-1.479c0.093-0.103,0.182-0.205,0.275-0.31c1.548-1.17,2.816-2.679,4.364-3.849
		c0.462-0.348,0.839-0.814,1.306-1.168c0.093-0.105,0.187-0.208,0.28-0.31c0.718-0.546,1.301-1.306,2.061-1.789
		c6.189-3.917,12.25-8.02,18.429-11.93c2.182-1.383,4.327-2.821,6.495-4.194c0.62-0.389,1.217-0.786,1.823-1.168
		C74.106,11.296,74.4,11.217,74.596,11.031z"/>
</g>
<g id="Layer_1">
</g>
</svg>
