<?xml version="1.0" encoding="iso-8859-1"?>
<!-- Generator: Adobe Illustrator 16.0.3, SVG Export Plug-In . SVG Version: 6.00 Build 0)  -->
<!DOCTYPE svg PUBLIC "-//W3C//DTD SVG 1.1//EN" "http://www.w3.org/Graphics/SVG/1.1/DTD/svg11.dtd">
<svg version="1.1" xmlns="http://www.w3.org/2000/svg" xmlns:xlink="http://www.w3.org/1999/xlink" x="0px" y="0px" width="100px"
	 height="100px" viewBox="0 0 100 100" style="enable-background:new 0 0 100 100;" xml:space="preserve">
<g id="NG">
	<path style="fill:#010101;" d="M37.533,89.276c-0.366,0.037-0.621,0.201-0.956,0.239c-0.26-0.276-0.231-0.351-0.375-0.752
		c-0.061-0.035-0.061-0.044-0.14-0.069c0,0.011,0,0.022,0,0.034c-0.032,0.049-0.032,0.111-0.032,0.204
		c0.125,0.133,0.366,0.757,0.376,0.993c-0.116,0.072-0.172,0.144-0.344,0.172c-0.223-0.158-0.663-0.184-0.956-0.239
		c-0.231-0.499-0.594-1.067-0.515-1.643c-0.037-0.032,0,0.003-0.032-0.034c-0.023,0-0.047,0-0.07,0
		c-0.056,0.078-0.111,0.159-0.171,0.238c0.111,0.524,0.589,1.395,0.584,1.814c-0.297,0.035-0.677,0.109-1.025,0.137
		c-0.061-0.083-0.176-0.176-0.209-0.273c-0.037-0.137,0.103-1.214,0.14-1.369c-0.042-0.03-0.037-0.027-0.069-0.069
		c-0.172,0.086-0.246,0.221-0.376,0.343c-0.01,0.239-0.023,0.479-0.032,0.718c0.051,0.194,0.148,0.285,0.102,0.547
		c-0.125,0.032-0.172,0.065-0.343,0.069c-0.061-0.046-0.168-0.074-0.242-0.102c-0.115-0.348-0.074-1.058-0.338-1.267
		c-0.037-0.025-0.033-0.021-0.103-0.035c0.032,0.246,0.348,0.998,0.135,1.334c-0.084,0.246-0.501,0.186-0.821,0.172
		c-0.153,0.1-0.376-0.061-0.511-0.103c-0.171,0.27-1.076,0.397-1.508,0.309c0-0.022,0-0.046,0-0.069
		c-0.213-0.339,0.482-0.852,0.548-1.127c-0.14,0.027-0.145,0.106-0.241,0.134c-0.195,0.063-0.302-0.083-0.479-0.102
		c-0.027,0.042-0.027,0.039-0.069,0.069c0.153,0.332-0.023,0.673-0.032,1.095c-0.032,0.021-0.069,0.045-0.103,0.067
		c-0.199,0.158-0.64,0.107-0.956,0.103c-0.083-0.125-0.111-0.207-0.106-0.443c0.134-0.184,0.083-0.429,0.069-0.685
		c-0.107-0.071-0.097-0.118-0.274-0.137c-0.009,0.032-0.023,0.067-0.032,0.103c-0.056,0.088-0.033,0.688-0.037,0.854
		c-0.07,0.039-0.061,0.051-0.167,0.069c-0.083-0.062-0.228-0.071-0.311-0.137c-0.06-0.076-0.032-0.469-0.069-0.649
		c-0.07-0.044-0.074-0.072-0.167-0.103c-0.125,0.276,0.033,0.423-0.413,0.411c-0.121-0.109-0.315-0.145-0.445-0.239
		c-0.102-0.116-0.205-0.229-0.307-0.343c-0.148-0.109-0.371-0.2-0.478-0.342c-0.07-0.088-0.083-0.211-0.172-0.275
		c-0.07-0.021-0.139-0.045-0.204-0.067c-0.093-0.126-0.186-0.251-0.274-0.376c-0.208-0.172-0.413-0.344-0.617-0.513
		c-0.181-0.255-0.334-0.501-0.547-0.72c0.005-0.162,0.061-0.273,0.033-0.343c-0.065-0.184-0.167-0.135-0.306-0.239
		c-0.051-0.037-0.325-0.545-0.344-0.614c0.014-0.126,0.023-0.251,0.037-0.376c-0.065-0.197-0.273-0.349-0.343-0.548
		c-0.093-0.269-0.046-0.511-0.139-0.786c-0.088-0.271-0.339-0.568-0.408-0.821c-0.037-0.145,0.088-0.165,0.069-0.274
		c-0.023-0.108-0.204-0.199-0.241-0.308c0-0.32,0-0.639,0-0.959c-0.046-0.16-0.125-0.311-0.134-0.547
		c0.093-0.059,0.083-0.086,0.236-0.103c0.209-0.132,0.617-0.046,0.821,0c0.181,0.042,0.719-0.137,0.821-0.204
		c0.028-0.034,0.014-0.012,0.033-0.069c-0.163-0.114-0.223-0.315-0.237-0.582c0.028-0.033,0.046-0.093,0.07-0.138
		c0.315-0.111,0.71-0.127,0.816-0.442c-0.056,0-0.111,0-0.167,0c-0.265,0.09-0.524,0.181-0.789,0.273
		c-0.093,0.181-0.135,0.573-0.344,0.649c-0.125,0.084-0.26-0.016-0.408-0.034c-0.032,0.122-0.069,0.13-0.139,0.206
		c-0.51,0.007-1.1-0.069-1.401-0.273c-0.195-0.241-0.385-0.48-0.58-0.72c-0.005-0.148,0.009-0.271,0.032-0.376
		c0.111-0.074,0.195-0.199,0.343-0.238c0.464-0.133,1.095,0.199,1.401,0.102c0.246-0.079,0.237-0.353,0.547-0.376
		c0.065,0.091,0.255,0.209,0.343,0.17c0.009,0,0.023,0,0.033,0c-0.033-0.037,0.005-0.003-0.033-0.035
		c-0.069-0.211-0.255-0.28-0.547-0.271c-0.26,0.355-0.417,0.304-0.891,0.271c-0.246-0.378,0-0.445,0.037-0.889
		c-0.014,0-0.023,0-0.037,0c0-0.012,0-0.022,0-0.034c-0.023,0-0.046,0-0.07,0c-0.338,0.562-0.441,0.891-1.262,0.992
		c-0.079-0.071-0.181-0.071-0.273-0.137c-0.209-0.142-0.497-0.649-0.547-0.923c-0.028-0.145,0.074-0.332,0.102-0.445
		c0.167-0.101,0.273-0.246,0.51-0.274c0.056,0.052,0.069,0.054,0.171,0.07c0.037-0.084,0.065-0.263,0.14-0.309
		c0.111-0.023,0.227-0.047,0.343-0.07c0.171-0.067,0.501-0.306,0.543-0.513c-0.288,0.044-0.487,0.241-0.715,0.344
		c-0.255,0.111-0.534,0.155-0.756,0.309c-0.144,0.098-0.273,0.406-0.51,0.306c-0.297-0.106-0.283-0.41-0.445-0.649
		c-0.065-0.095-0.204-0.176-0.274-0.273c-0.199-0.283-0.339-0.578-0.547-0.854c-0.139-0.186-0.39-0.241-0.58-0.378
		c-0.167-0.119-0.26-0.409-0.376-0.58c-0.158-0.23-0.399-0.435-0.584-0.652c-0.093-0.106-0.339-0.106-0.478-0.169
		c-0.106-0.052-0.241-0.163-0.343-0.241c-0.163-0.121-0.246-0.32-0.376-0.479c-0.195-0.241-0.983-0.685-1.332-0.786
		c-0.148-0.012-0.297-0.023-0.445-0.035c-0.371-0.095-0.849-0.148-1.234-0.238c-0.102,0-0.204,0-0.306,0
		C9.894,71.714,7.588,72,4.488,72c-0.631,0-1.661-0.059-2.223,0.069c-0.366,0.012-0.729,0.021-1.095,0.035
		c-0.232,0.066-0.831,0.215-1.025,0.134c-0.042-0.027-0.037-0.027-0.07-0.067c-0.106-0.137-0.083-0.503-0.032-0.719
		c0.134-0.578,0.218-1.241,0.236-1.882c0.139-0.09,0.228-0.229,0.343-0.341c-0.009-0.438-0.288-0.378-0.375-0.684
		c-0.074-0.274,0.088-0.446,0.102-0.65c0.028-0.38-0.195-0.867-0.07-1.231c0.07-0.186,0.265-0.167,0.311-0.411
		c-0.074-0.069-0.223-0.236-0.172-0.41c0.028-0.106,0.172-0.236,0.204-0.341C0.711,65.23,0.6,64.75,0.554,64.576
		c-0.079-0.313-0.023-1.069,0.069-1.334c0.079-0.223,0.325-0.276,0.376-0.513c-0.037-0.056-0.023-0.179-0.065-0.239
		c-0.13-0.179-0.408-0.359-0.482-0.582c-0.098-0.29-0.023-0.766,0.037-0.99c0.009-0.355,0.023-0.708,0.032-1.062
		c-0.171-0.111-0.436-0.55-0.445-0.819c0.274-0.204,0.125-0.545,0.241-0.924c0.051-0.167,0.163-0.422,0.204-0.582
		c0-0.16,0-0.32,0-0.48c0.028-0.078,0.139-0.162,0.172-0.238c0.037-0.091,0.079-0.381,0.032-0.513
		c-0.028-0.086-0.171-0.16-0.204-0.239c-0.051-0.125-0.111-0.678-0.069-0.856c0.014-0.056,0.093-0.188,0.102-0.238
		c0-0.137,0-0.274,0-0.411c0.069-0.153,0.362-0.329,0.413-0.547c0.023-0.114-0.061-0.142-0.07-0.239
		c0.014-0.113,0.023-0.228,0.037-0.344c-0.037-0.169-0.079-0.422-0.069-0.682c0.009-0.104,0.023-0.207,0.032-0.309
		c-0.032-0.19-0.102-0.649-0.032-0.891c0.032-0.123,0.167-0.204,0.204-0.307c0-0.081,0-0.16,0-0.241
		c0.023-0.088,0.111-0.253,0.134-0.341c0-0.137,0-0.273,0-0.411c0.083-0.362,0.061-0.698,0.139-1.095
		c0.033-0.012,0.07-0.023,0.102-0.033c0.232-0.142,0.455,0.132,0.687,0.067c0.088-0.025,0.181-0.181,0.273-0.207
		c0.056-0.014,0.446-0.016,0.511,0c0.056,0.016,0.153,0.121,0.204,0.139c0.25,0.072,0.575-0.127,0.789-0.171
		c0.102-0.223,0.265-0.48,0.343-0.719c0.023-0.148,0.042-0.297,0.065-0.446c0.065-0.153,0.195-0.262,0.241-0.478
		c0.103-0.483-0.297-0.891-0.171-1.232c0.037-0.102,0.186-0.416,0.274-0.478c0.079-0.023,0.162-0.046,0.241-0.069
		c0.074-0.051,0.083-0.165,0.134-0.239c0.093-0.123,0.288-0.223,0.343-0.376c0.037-0.111,0.019-0.292,0.033-0.378
		c0.074-0.042,0.139-0.135,0.209-0.169c0.246-0.13,0.403-0.056,0.612-0.239c-0.065-0.213-0.315-0.596-0.102-0.891
		c0.042-0.153,0.158-0.325,0.311-0.375c0.056-0.037,0.144-0.005,0.237-0.035c0.172-0.056,0.45-0.195,0.617-0.239
		c0.148-0.04,0.241,0.051,0.306,0.069c0.144,0.035,0.209-0.044,0.311-0.069c0.065-0.111,0.121-0.255,0.204-0.376
		c0.074-0.111,0.25-0.174,0.306-0.309c0.116-0.276,0.033-0.73,0.172-0.993c0.093-0.172,0.334-0.2,0.413-0.376
		c0.061-0.081,0.065-0.197,0.065-0.341c-0.269-0.151-0.77-0.647-0.784-1.025c0.093-0.109,0.093-0.283,0.167-0.411
		c0.074-0.119,0.232-0.283,0.278-0.411c0.037-0.114-0.023-0.225,0.032-0.309c0.158-0.114,0.32-0.228,0.478-0.343
		c0.413,0.004,0.501,0.248,0.821,0.309c0.209-0.242,0.065-0.353,0.172-0.685c0.056-0.181,0.241-0.413,0.306-0.58
		c0.097-0.248,0.014-0.703-0.033-0.958c-0.069-0.03-0.186-0.021-0.273-0.07c-0.121-0.062-0.079-0.202-0.14-0.341
		c-0.083-0.218-0.436-0.413-0.306-0.821c0.061-0.186,0.297-0.364,0.241-0.649c-0.121-0.617-0.315-0.875-0.311-1.643
		c-0.589-0.369-1.146-1.522-1.573-2.121c-0.134-0.192-0.445-0.404-0.338-0.821c0.032-0.146,0.158-0.229,0.204-0.343
		c0.032-0.172,0.065-0.341,0.102-0.513c0.093-0.213,0.311-0.401,0.445-0.583c0.2-0.271,0.348-0.542,0.547-0.819
		c0.079-0.111,0.237-0.111,0.307-0.241c0.032-0.049,0.032-0.111,0.032-0.204c-0.144-0.088-0.255-0.197-0.376-0.309
		c-0.004-0.283-0.125-0.733-0.032-0.889c0.074-0.204,0.315-0.276,0.376-0.48c0.079-0.271-0.153-0.687-0.205-0.889
		c-0.102-0.387,0.2-1.042,0.274-1.334c0.172-0.701-0.228-1.972,0.102-2.464c0.116-0.174,0.677-0.492,0.891-0.615
		c0.208-0.123,0.38-0.378,0.58-0.515c0.246-0.167,0.474-0.274,0.719-0.443c0.385-0.267,0.487-0.768,0.752-1.165
		c0.195-0.292,0.533-0.589,0.682-0.923c0.431-0.947,0.385-2.735,0.445-4.037c0.093-0.058,0.088-0.086,0.241-0.102
		c0.218-0.135,0.566,0.019,0.751-0.102c0.274-0.176,0.464-0.492,0.719-0.685c0.153-0.116,0.306-0.211,0.445-0.341
		c0.158-0.151,0.292-0.362,0.478-0.48c0.019-0.012,0.343-0.171,0.343-0.171c0.135,0,0.274,0,0.409,0
		c0.385-0.104,0.858-0.276,1.267-0.376c0.329-0.081,0.575-0.014,0.923-0.102c0.144-0.037,0.334-0.148,0.478-0.172
		c0.278-0.044,0.496,0.346,0.789,0.411c0.2,0.046,0.515-0.097,0.682-0.137c0.524,0.012,1.048,0.023,1.573,0.035
		c0.135-0.032,0.445-0.06,0.584-0.137c0.172-0.216,0.339-0.434,0.511-0.65c0.223-0.139,0.524-0.132,0.789-0.206
		c0.163-0.044,0.45-0.211,0.682-0.137c0.102,0.035,0.195,0.156,0.274,0.207c0.19,0.123,0.436,0.146,0.617,0.274
		c0.061,0.042,0.098,0.142,0.172,0.169c0.056,0,0.111,0,0.172,0c1.127,0.417,2.264,0.979,3.419,1.403
		c0.524,0.192,0.669-0.406,1.197-0.239c0.232,0.072,0.46,0.288,0.649,0.411c0.246,0.16,0.492,0.241,0.72,0.411
		c0.102,0.076,0.13,0.202,0.204,0.309c0.199,0.271,0.478,0.478,0.687,0.751c0.297,0.396,0.775,0.677,1.058,1.095
		c0.148,0.215,0.209,0.431,0.312,0.684c0.079,0.197,0.357,0.589,0.478,0.787c0.106,0.176,0.111,0.367,0.236,0.513
		c0.209,0.237,0.706,0.772,1.03,0.856c0.125-0.012,0.251-0.023,0.376-0.035c0.148,0.028,0.566,0.06,0.719-0.035
		c0.432-0.146,0.771-0.68,1.059-0.991c0.408,0.002,0.975,0.271,1.229,0.204c0.599-0.153,1.132-0.592,1.61-0.889
		c0.078-0.023,0.157-0.046,0.241-0.069c0.287-0.172,0.599-0.406,0.886-0.58c0.103-0.035,0.209-0.07,0.311-0.104
		c0.153-0.1,0.367-0.35,0.548-0.411c0.204-0.067,1.1,0.165,1.262,0.207c0.14,0,0.274,0,0.413,0c0.26,0.062,0.664,0.118,0.924,0.239
		c0.135,0.061,0.218,0.23,0.343,0.309c0.2,0.128,0.45,0.288,0.649,0.376c0.098,0.042,0.19,0.014,0.274,0.067
		c0.125,0.148,0.25,0.297,0.376,0.445c0.297,0.209,0.575,0.422,0.821,0.685c0.25-0.023,0.501-0.047,0.751-0.07
		c0.349,0.107,0.836,0.443,1.025,0.719c0.153,0.218,0.19,0.438,0.445,0.547c0.381,0.163,0.808,0.262,1.197,0.376
		c0.07,0,0.14,0,0.204,0c0.274,0.1,0.688,0.297,0.993,0.376c0.088,0.023,0.125-0.028,0.172-0.033
		c0.32,0.012,0.641,0.023,0.956,0.033c0.13,0.03,0.366,0.076,0.482,0.104c0.172,0,0.339,0,0.51,0
		c0.177,0.046,0.409,0.202,0.688,0.137c0.12-0.03,0.292-0.114,0.408-0.137c0.171-0.037,0.218,0.074,0.311,0.102
		c0.353,0.012,0.705,0.023,1.058,0.035c0.098,0.025,0.33,0.13,0.516,0.067c0.204-0.067,0.273-0.304,0.408-0.443
		c0.459-0.471,0.867-0.975,1.267-1.506c0.064-0.088,0.241-0.301,0.343-0.343c0.065,0,0.135,0,0.205,0
		c0.032-0.102,0.069-0.204,0.102-0.309c0.056-0.088,0.255-0.281,0.344-0.341c0.231-0.158,0.506-0.183,0.751-0.341
		c0.464-0.304,0.826-0.566,1.438-0.754c0.158,0,0.315,0,0.479,0c0.301-0.072,0.673-0.169,0.955-0.239
		c0.163-0.012,0.32-0.023,0.482-0.035c0.622-0.174,1.295-0.448,1.949-0.615c0.195,0,0.385,0,0.58,0
		c0.533-0.116,1.137,0.056,1.573,0.171c0.366,0.095,0.779-0.025,1.062,0.033c0.269,0.056,0.505-0.088,0.719-0.137
		c0.172,0,0.339,0,0.511,0c0.445-0.127,1.494-0.165,1.948-0.032c0.534,0.148,1.1,0.367,1.61,0.547
		c0.125,0.009,0.25,0.021,0.376,0.033c0.413,0.118,0.854,0.227,1.234,0.375c0.204,0.083,0.315,0.267,0.478,0.378
		c0.204,0.139,0.506,0.132,0.719,0.273c0.27,0.179,0.487,0.45,0.854,0.548c0.324,0.086,0.427-0.223,0.751-0.137
		c0.14,0.035,0.302,0.167,0.413,0.205c0.386,0.132,1.137,0.116,1.605,0.137c0.042-0.083,0.042-0.318,0.103-0.411
		c0.074-0.111,0.292-0.1,0.343-0.239c-0.014-0.091-0.023-0.184-0.032-0.274c0,0,0.157-0.323,0.167-0.343
		c0.255-0.204,0.506-0.411,0.756-0.615c0.228-0.083,0.432-0.054,0.613-0.172c0.115-0.074,0.144-0.25,0.241-0.341
		c0.171-0.16,0.496-0.242,0.617-0.446c0.13-0.229,0.181-0.48,0.306-0.684c0.441,0.086,0.627-0.179,0.924-0.306
		c0.148-0.023,0.297-0.046,0.445-0.07c0.079-0.025,0.194-0.116,0.273-0.137c0.153-0.042,0.26,0.053,0.344,0.069
		c0.12,0.023,0.148-0.056,0.204-0.069c0.209-0.056,0.343,0.074,0.547,0.035c0.148-0.255,0.27-0.55,0.445-0.787
		c0.149-0.125,0.298-0.25,0.446-0.375c0.106-0.111,0.111-0.281,0.273-0.344c0.231-0.15,0.779-0.048,1.127-0.067
		c0.298-0.023,0.595-0.046,0.892-0.07c0.747,0.195,1.179,1.13,1.572,1.71c0.204,0.306,0.502,0.591,0.715,0.891
		c0.362,0.501,0.673,1,1.03,1.506c0.236,0.338,0.687,0.751,0.854,1.127c0.116,0.501,0.228,1.004,0.344,1.505
		c0.324,1.083,0.603,2.288,0.854,3.387c0.074,0.32-0.103,0.777-0.032,1.127c0.157,0.086,0.459,0.074,0.719,0.07
		c0.307,0.188,1.146-0.09,1.536,0.035c0.565,0.181,0.663,0.803,1.095,1.093c0.153,0.104,0.427,0.062,0.585,0.172
		c0.097,0.067,0.148,0.257,0.236,0.343c-0.042,0.234-0.32,0.854-0.273,1.025c0.083,0.292,0.297,0.587,0.171,1.025
		c-0.051,0.186-0.213,0.42-0.273,0.582c-0.032,0.228-0.069,0.457-0.102,0.685c-0.074,0.146-0.349,0.207-0.307,0.376
		c0.069,0.167,0.283,0.202,0.376,0.343c0.139,0.213,0.223,0.988,0.102,1.299c-0.186,0.473-0.445,0.346-0.821,0.58
		c-0.152,0.098-0.231,0.313-0.375,0.411c-0.209,0.144-0.529,0.1-0.752,0.241c-0.27,0.165-0.437,0.531-0.687,0.717
		c-0.145,0.111-0.349,0.1-0.511,0.206c-0.278,0.177-0.395,0.506-0.821,0.548c-0.098-0.063-0.209-0.028-0.343-0.07
		c-0.27-0.083-0.548-0.257-0.854-0.306c-0.194,0.202-0.39,0.416-0.584,0.615c-0.093,0.079-0.182,0.16-0.274,0.239
		c-0.167,0.25-0.139,0.603-0.306,0.856c-0.163,0.244-0.516,0.148-0.548,0.547c-0.061,0.116,0.056,0.29,0,0.478
		c-0.014,0.056-0.26,0.508-0.307,0.582c-0.482,0.717-1.137,1.299-1.438,2.188c-0.325,0.946-0.357,2.197-0.65,3.148
		c-0.078,0.262,0.126,0.351,0.033,0.617c-0.056,0.16-0.538,0.694-0.683,0.751c-0.348,0.137-0.928-0.039-1.062,0.309
		c-0.162,0.265,0.186,0.52,0.14,0.752c-0.042,0.19-0.367,0.501-0.312,0.649c0.093,0.336,0.418,0.42,0.479,0.789
		c-0.204,0.225-0.278,0.965-0.376,1.299c-0.079,0.278,0.158,0.408-0.032,0.719c-0.423,0.675-1.067,0.383-1.777,0.682
		c-0.273,0.116-0.353,0.415-0.515,0.649c-0.089,0.125-0.349,0.23-0.479,0.309c0.056,0.102,0.2,0.155,0.237,0.239
		c0,0.242,0,0.48,0,0.719c-0.037,0.065-0.023,0.204-0.065,0.274c-0.19,0.315-0.418,0.729-0.515,1.13c0,0.216,0,0.432,0,0.649
		c0,0.311-0.052,0.503-0.103,0.719c-0.069,0.29,0.047,0.635-0.032,0.888c-0.069,0.214-0.172,0.568-0.344,0.685
		c-0.176,0.116-0.422,0.032-0.515,0.239c-0.103,0.146-0.103,0.361-0.204,0.513c-0.023,0.034-1.007,0.601-1.058,0.617
		c-0.307,0.088-0.683-0.193-0.892-0.104c-0.148,0.044-0.39,0.155-0.413,0.343c0.177,0.174,0.13,0.45,0.07,0.72
		c-0.293,0.15-0.395,0.57-0.752,0.614c-0.125,0.079-0.399,0.01-0.548,0.035c-0.157,0.339-0.218,0.812-0.069,1.229
		c0.056,0.15,0.158,0.381,0.069,0.651c-0.093,0.283-0.371,0.43-0.445,0.787c-0.083,0.408,0.315,0.621,0.172,1.06
		c-0.074,0.228-0.353,0.335-0.478,0.513c-0.111,0.156-0.135,0.354-0.241,0.513c-0.209,0.313-0.993,1.03-0.821,1.678
		c0.046,0.165,0.144,0.374,0.171,0.582c-0.231,0.216-0.39,0.46-0.579,0.717c-0.19,0.251-0.506,0.42-0.688,0.685
		c-0.022,0.067-0.046,0.137-0.069,0.207c-0.051,0.064-0.167,0.051-0.236,0.102c-0.103,0.072-0.534,0.835-0.548,0.991
		c0.088,0.095,0.061,0.227,0.135,0.343c0.148,0.228,0.71,0.668,0.789,0.924c0.167,0.535-0.441,0.361-0.683,0.513
		c-0.231,0.142-0.329,0.506-0.547,0.649c-0.14,0.034-0.274,0.069-0.413,0.104c-0.056,0.078-0.111,0.157-0.172,0.238
		c-0.399,0.286-0.933,0.441-0.956,1.096c0.557,0.354-0.139,1.724-0.413,1.916c-0.162,0.113-0.39,0.078-0.58,0.102
		c-0.139,0.302-0.227,0.634-0.306,1.025c-0.163,0.104-0.357,0.281-0.548,0.341c-0.186,0-0.366,0-0.547,0
		c-0.028,0.01-0.112,0.096-0.14,0.104c-0.236-0.012-0.478-0.022-0.719-0.034c-0.07,0.016-0.246,0.083-0.339,0.069
		c-0.135-0.023-0.251-0.104-0.376-0.14c-0.232-0.38-0.395-0.935-0.516-1.436c-0.022-0.091,0.028-0.202,0.033-0.239
		c0.093-0.413-0.01-0.633-0.172-0.855c-0.084-0.118-0.084-0.219-0.236-0.274c-0.177-0.102-0.446,0.056-0.65-0.034
		c-0.523-0.226-0.663-0.816-0.788-1.437c-0.084-0.051-0.167-0.139-0.274-0.171c-0.152-0.047-0.26,0-0.375-0.067
		c-0.261-0.151-0.562-0.42-0.854-0.513c-0.171-0.054-0.51-0.165-0.584-0.137c-0.084,0.044-0.023-0.015-0.065,0.066
		c-0.125,0.175-0.056,0.462-0.139,0.685c-0.047,0.121-0.219,0.174-0.274,0.274c-0.009,0.093-0.022,0.183-0.032,0.273
		c-0.102,0.081-0.204,0.16-0.307,0.239c-0.528,0.019-0.918,0.034-1.475,0.034c-0.251,0-0.627,0.052-0.821-0.034
		c-0.349-0.153-0.46-0.562-0.543-0.991c-0.056-0.019-0.061-0.023-0.14-0.034c-0.162,0.241-0.454,0.408-0.682,0.582
		c-0.27,0.202-0.487,0.515-0.757,0.717c-0.269,0.206-0.584,0.405-0.821,0.651c-0.26-0.009-0.334-0.113-0.58-0.139
		c-0.111,0.228-0.111,0.51-0.204,0.788c-0.088,0.261-0.227,0.548-0.311,0.821c-0.069,0.241-0.027,0.546-0.236,0.65
		c-0.167,0.102-0.357-0.045-0.548,0c-0.102,0.034-0.204,0.066-0.306,0.102c-0.065,0.14-0.112,0.318-0.172,0.478
		c-0.315,0.177-0.72,0.268-0.961,0.516c-0.153,0.16-0.135,0.471-0.339,0.58c-0.152,0.102-0.353,0.044-0.547,0.034
		c-0.182,0.312-0.52,1-0.789,1.197c-0.7,0.513-2.064,1.415-2.26,2.362c-0.329,0.157-0.334,0.056-0.649,0.102
		c-0.121,0.232-0.418,0.307-0.445,0.615c0.26,0.285-0.209,0.656-0.236,0.958c0.12,0.108,0.343,0.218,0.445,0.343
		c0.074,0.091,0.088,0.223,0.171,0.307c0.01,0.805-0.348,0.599-0.482,1.027c0.015,0.216,0.023,0.432,0.037,0.65
		c-0.06,0.171-0.223,0.334-0.273,0.547c-0.032,0.128,0.023,0.297,0.032,0.376c0.042,0.265-0.037,0.935-0.102,1.162
		c-0.111,0.399-0.46,0.427-0.649,0.72c-0.111,0.171-0.079,0.371-0.172,0.582c-0.065,0.148-0.256,0.278-0.344,0.408
		c-0.209,0.315-0.278,0.61-0.547,0.856c0.022,0.227,0.106,0.327,0.069,0.547c-0.125,0.074-0.455,0.2-0.511,0.344
		c-0.125,0.179-0.102,0.434-0.106,0.682c-0.236,0.16-0.288,0.258-0.649,0.241c-0.107-0.213-0.195-0.408-0.307-0.617
		c-0.199,0.045-0.398,0.033-0.478-0.137c-0.028-0.039-0.051-0.155-0.069-0.204c-0.654-0.231-0.566-0.521-0.924-0.993
		c-0.116-0.152-0.798-0.658-0.993-0.751c0,0.023,0,0.046,0,0.067c0.265,0.208,0.45,0.58,0.649,0.855
		c0.047,0.035,0.093,0.07,0.14,0.103c0.032,0.125,0.064,0.25,0.102,0.376c0.061,0.106,0.187,0.225,0.237,0.343
		c0.046,0.16,0.093,0.32,0.139,0.479c0.015,0.032,0.093,0.106,0.103,0.137c0,0.102,0,0.206,0,0.309
		c0.056,0.15,0.306,0.188,0.241,0.376c-0.074,0.271-0.32,0.273-0.482,0.445c-0.088,0.095-0.079,0.285-0.204,0.341
		c-0.056,0-0.111,0-0.172,0c-0.241-0.184-0.905-0.103-1.299-0.103c-1.062,0-1.898,0.337-2.942,0.274
		c-0.115,0.192-0.255,0.218-0.58,0.206c-0.171,0.084-0.338-0.157-0.478-0.206c-0.246-0.084-0.44-0.003-0.654-0.103
		c-0.157-0.076-0.228-0.269-0.408-0.343c-0.459-0.188-0.9,0.201-1.229,0.104c-0.26-0.076-0.501-0.243-0.821-0.273
		c-0.019,0.051-0.023,0.059-0.037,0.137c0.162,0.135,0.399,0.27,0.445,0.513c-0.139,0.145-0.106,0.499-0.102,0.787
		c-0.354,0.225-0.924,0.422-1.504,0.309c-0.051-0.089-0.083-0.109-0.106-0.241C37.376,89.615,37.515,89.471,37.533,89.276z"/>
</g>
<g id="Layer_1">
</g>
</svg>
