<?xml version="1.0" encoding="iso-8859-1"?>
<!-- Generator: Adobe Illustrator 16.0.3, SVG Export Plug-In . SVG Version: 6.00 Build 0)  -->
<!DOCTYPE svg PUBLIC "-//W3C//DTD SVG 1.1//EN" "http://www.w3.org/Graphics/SVG/1.1/DTD/svg11.dtd">
<svg version="1.1" xmlns="http://www.w3.org/2000/svg" xmlns:xlink="http://www.w3.org/1999/xlink" x="0px" y="0px" width="100px"
	 height="100px" viewBox="0 0 100 100" style="enable-background:new 0 0 100 100;" xml:space="preserve">
<g id="NP">
	<path d="M5.804,30.456c-1.62,0.971-1.458,1.62-1.458,2.914c0,1.293-2.103,3.723-2.103,3.723s0.485,3.399-1.618,3.886
		c-2.104,0.484,1.618,4.694,3.561,6.312c1.942,1.619,2.588-0.972,4.045-0.485c1.458,0.485,4.534,5.18,6.151,6.798
		c1.618,1.617,3.399,3.723,6.638,4.046c3.237,0.321,7.77,3.076,9.711,3.076c1.943,0,4.37,1.294,4.531,2.428
		c0.162,1.134,3.238,1.618,3.885,0.972s0.811-1.456,2.267-0.81c1.456,0.647,4.855,0.647,6.96,0.647c2.104,0,4.531-0.486,4.855,0.809
		s3.561,4.695,4.856,5.667c1.295,0.971,3.885,0.808,5.503,2.589c1.617,1.781,2.913-0.162,4.208-0.162s1.782,0.809,1.782,1.779
		c0,0.972,1.132,1.296,3.561,1.296c2.427,0,5.665,0.647,7.607,1.133c1.943,0.485,4.532,1.296,5.341,0.163
		c0.812-1.132,2.104-0.648,2.752,0.486c0.646,1.134,2.266,0.971,4.048,0.971c1.78,0,4.532,0.646,5.827-1.62
		c1.296-2.268,0.16-6.313-0.324-9.228c-0.485-2.912,0.971-6.312,0.971-9.226c0-0.694,0.251-1.33,0.638-1.904
		c-0.684-0.315-1.433-0.603-1.934-0.603c-1.132,0-3.238,1.213-4.855,1.698c-1.618,0.486-4.049,0.565-5.423,0
		c-1.376-0.564-2.511-1.376-3.481-1.376s-3.643-0.647-4.613-2.104c-0.971-1.457-2.265-0.082-2.913,0.728
		c-0.648,0.811-2.022,0.243-2.022-0.646s-0.485-1.295-1.053-1.295s-0.485,2.427-0.646,2.995c-0.161,0.566-1.781,0.403-1.781-0.163
		c0-0.567-1.538-1.294-1.538-1.943s0.325-2.671-0.242-2.75c-0.568-0.08-2.347,1.294-2.914,1.294s-2.508-0.08-2.75-0.809
		c-0.243-0.728-1.943-0.891-2.592-1.294c-0.648-0.405,0.081-2.187,0.648-3.157c0.567-0.972-1.538-2.185-2.023-1.132
		s-1.861,0.323-2.51,0.08c-0.648-0.242-2.914-1.861-4.207-2.508c-1.295-0.646-0.729-1.78-0.972-4.209
		c-0.242-2.428-1.941-2.51-2.914-2.51c-0.971,0-2.348,0.811-3.076,2.187c-0.729,1.374-2.914,1.538-3.964,0.891
		c-1.05-0.647-2.023-2.996-2.428-3.967c-0.404-0.971-0.648-1.941-1.781-2.024c-1.131-0.081-3.399-1.455-4.612-2.507
		c-1.214-1.052-2.833-2.752-3.641-3.885c-0.808-1.132-3.399-1.458-5.666-1.458s-2.103-1.78-2.103-2.591
		c0-0.81-0.649-1.618-2.267-1.618c-1.619,0-1.781-0.647-3.238-0.81c-1.458-0.164-0.808,1.78-0.486,3.562
		c0.324,1.781,0.164,2.428-0.486,3.399c-0.648,0.971-1.941-1.296-2.103-2.267c-0.162-0.971-1.942-1.295-3.075-0.486
		c-0.281,0.202-0.823,0.313-1.477,0.366c-0.199,0.846-0.847,1.496-1.438,2.384C7.421,28.189,7.424,29.485,5.804,30.456z"/>
</g>
<g id="Layer_1">
</g>
</svg>
