<?xml version="1.0" encoding="iso-8859-1"?>
<!-- Generator: Adobe Illustrator 16.0.3, SVG Export Plug-In . SVG Version: 6.00 Build 0)  -->
<!DOCTYPE svg PUBLIC "-//W3C//DTD SVG 1.1//EN" "http://www.w3.org/Graphics/SVG/1.1/DTD/svg11.dtd">
<svg version="1.1" xmlns="http://www.w3.org/2000/svg" xmlns:xlink="http://www.w3.org/1999/xlink" x="0px" y="0px" width="100px"
	 height="100px" viewBox="0 0 100 100" style="enable-background:new 0 0 100 100;" xml:space="preserve">
<g id="PA">
	<g>
		<path style="fill-rule:evenodd;clip-rule:evenodd;fill:#010101;" d="M59.643,29c0.375,0.228,0.264,0.591,0.522,0.824
			c0.151-0.215,0.284-0.3,0.672,0c0.094-0.132,0.168-0.27,0.299-0.375c0.107,0.481,1.508,0.277,2.239,0.449
			c0.439,0.104,1.858,0.962,2.389,0.674c0.716-0.39,2.657-0.677,3.583-0.299c-0.28,0.208-0.184-0.061-0.225,0.374
			c-0.359-0.043-0.673-0.235-0.82,0c-0.343,0.05-0.444,0.205-0.598,0.599c0.149,0.155,0.247,0.702,0.224,0.973
			c1.049-0.112,1.927-0.125,2.763,0.449c0,0,1.116-0.151,1.119-0.15c0.57-0.146,1.467-0.529,1.792-0.449
			c0.377,0.093,2.305,1.203,2.688,0.225c0.699,0.159,1.364,0.586,2.537,0.599c0.026,0.387-0.057,0.189,0.149,0.449
			c0.404,0.008,6.258,2.384,6.569,2.77c0,0,0.352,0.36,0.447,0.225c0.025,0.075,0.05,0.149,0.075,0.225
			c0.153,0.198,2.068,2.307,2.09,2.246c0.075,0.025,0.149,0.05,0.224,0.075c-0.094-0.244-0.45-0.652-0.148-0.973
			c-0.025,0.05-0.05,0.1-0.075,0.15c0.802,0.139,1.524,1.843,2.239,2.321c-0.25,0.344-0.272,0.259-0.224,0.374
			c0.225,0.843,1.219,1.653,2.016,2.171c0.024-0.075,0.05-0.15,0.074-0.225c0.373,0.299,0.747,0.599,1.12,0.898
			c-0.155,0.152-0.103,0.075-0.149,0.375c0.224-0.05,0.448-0.1,0.672-0.149c-0.056,0.361-0.54,1.158,0.074,1.272
			c0.222,0.479,2.454,0.728,3.061,0.674c-0.207,0.36-0.376,0.291-0.672,0.375c-0.059,0.73-0.821,1.572-0.821,1.572
			c0.025,0.449,0.05,0.899,0.075,1.348c0.42-0.101,0.721-0.009,0.896,0.3c0.025,0.025,0.05,0.05,0.074,0.075
			c0.204,0.332,0.696,0.96,0.821,1.348c0.157,0.485-0.144,1.348,0.225,1.872c0.595,0.846,2.167,1.979,1.642,3.294
			c0.222,0.682,0.908,2.159,0.672,2.47c-0.328,0.324-2.249,0.322-2.389,0.3c-0.124,0.25-0.249,0.499-0.373,0.749
			c-0.25,1.035,0.396,1.328,0.522,2.246c-0.024,0.025-0.05,0.05-0.074,0.074c-0.642-0.006-1.854,0.189-1.941,0.6
			c-0.747,0.393-1.459,2.944-2.538,3.369c0.025-0.051,0.051-0.101,0.075-0.15c-0.271-0.031-2.002-2.976-2.389-3.743
			c-0.199,0.101-0.398,0.2-0.598,0.3c0.124,0.536-0.263,0.992-0.224,1.272c-0.024,0.1-0.05,0.2-0.074,0.3
			c0.331,0.223,0.906,1.15,0.896,2.096c-0.344,0.416-0.596,0.749-1.27,0.824c-0.102-0.131-0.027-0.142-0.373,0
			c-0.004,0.426-0.843,3.691-1.269,4.117c0,0-2.216-2.059-2.389-2.096c0.024-0.325,0.05-0.649,0.074-0.974
			c-0.233,0.015-0.182,0.002-0.447-0.075c0.049-0.175,0.099-0.35,0.149-0.523c-0.987,0.393-1.105-0.76-1.568-1.273
			c-0.207-0.043-0.741-0.15-0.896-0.449c0.135-0.312,0.224-0.557,0.224-0.898c-0.206-0.1-0.021-0.047-0.224-0.074
			c-0.05-0.025-0.1-0.051-0.149-0.075c-0.1,0.199-0.199,0.399-0.299,0.599c0.035-0.436,0.338-0.775,0.149-0.898
			c-0.047-0.428-0.564-0.895-0.896-1.123c-0.1,0.025-0.199,0.05-0.299,0.075c-0.062-0.46-0.207-0.382-0.373-0.674
			c0.1-0.075,0.199-0.149,0.299-0.225c-0.286-0.798-0.54-1.248-0.971-1.946c-0.024-0.25-0.05-0.499-0.074-0.749
			c-0.349-0.224-0.697-0.449-1.045-0.674c-0.256-0.625-0.147-2.073-0.821-2.245c0.044-0.57,0.533-0.727,0.447-1.049
			c0.1,0.1,0.199,0.199,0.299,0.3C79,55.951,79,55.907,78.976,56.102c0.665,0.045,1.186,0.301,1.419,0.075
			c0.817-0.357,1.285-0.796,1.418-2.246c-0.626-0.251-0.598-0.587-1.12-1.123c0-0.025,0-0.05,0-0.075
			c0.225,0.025,0.448,0.05,0.672,0.075c-0.05-0.2-0.1-0.399-0.149-0.599c0.283-0.02,0.243-0.014,0.523-0.15
			c0.099,0.125,0.198,0.25,0.298,0.375c0.199,0,0.398,0,0.598,0c-0.021-0.986,0.501-1.843,0.672-2.696
			c0.074-0.025,0.149-0.05,0.224-0.075c-0.021,0.397,0.185,0.713,0.373,1.348c0.349,0.124,0.697,0.249,1.045,0.374
			c0.016,0.285-0.028,0.473,0.448,0.6c0-0.1,0-0.2,0-0.3c-0.67-0.394-0.996-3.172-1.27-3.668c-0.049,0-0.1,0-0.148,0
			c0.024-0.05,0.049-0.1,0.074-0.15c-0.1,0.075-0.199,0.15-0.299,0.225c-0.024,0.125-0.05,0.25-0.074,0.375
			c0.578,0.229,0.572,1.27,0.746,1.497c-0.1,0.025-0.199,0.05-0.299,0.075c-0.042-0.229-0.656-0.93-0.82-0.824
			c-0.149,0.025-0.299,0.05-0.448,0.075c-0.032,0.444-0.12,0.783-0.373,0.898c-0.189,0.211-0.422,0.308-0.598,0.449
			c-0.124-0.15-0.249-0.299-0.373-0.449c0.1-0.1,0.199-0.2,0.299-0.299c-0.149-0.225-0.299-0.449-0.448-0.674
			c-0.05,0.05-0.1,0.1-0.149,0.15c-0.182,0.118-0.031,0.118-0.224,0.299c-0.295-0.156-0.172-0.085-0.224-0.299
			c-0.149-0.1-0.299-0.2-0.448-0.3c-0.119,1.032-0.837,0.817-0.821,2.471c-0.165-0.154-0.14-0.104-0.224-0.375
			c-0.149,0.051-0.299,0.1-0.448,0.15c-0.086-0.758-0.664-0.891-0.672-1.573c-0.1,0.05-0.198,0.1-0.298,0.15
			c-0.043-0.24-0.101-0.315-0.448-0.449c0.068-0.26,0.167-1.087,0.224-1.048c-0.383-0.429-0.637-0.576-0.896-1.198
			c0.177-0.036,0.257-0.187,0.448-0.15c-0.139-0.412-0.155-0.54-0.149-0.973c-0.401,0.089-1.339-0.503-1.866-0.674
			c0.048-0.388,0.018-0.31,0.149-0.749c-0.149,0-0.299,0-0.448,0c-0.05,0.125-0.1,0.25-0.149,0.375
			c-0.1-0.125-0.199-0.25-0.298-0.375c0.104-0.076,0.15-0.101,0-0.375c-0.335,0.062-0.688,0.028-0.971-0.224
			c0,0-0.978-1.506-1.045-1.572c-0.051,0.52-0.409,0.553-0.672,0.823c-0.155-0.181-0.191-0.242-0.149-0.449
			c-0.396-0.155-0.295-1.097-0.896-1.497c-0.769-0.512-3.046-0.915-3.359-1.498c0.244-0.311,0.202-0.508,0.299-0.973
			c-0.394,0.22-0.441,0.784-0.598,1.123c-1.831-0.691-4.398-0.008-6.195-0.225c-0.487,0.378-0.787,0.701-1.194,1.348
			c-0.354-0.141-0.154-0.119-0.373,0.075c0.26,0.027,0.166,0.035,0.224,0.449c-0.767,0.234-1,0.214-1.866,0.225
			c-0.041,0.373,0.015,0.29-0.224,0.449c-0.478-0.991-1.521,1.242-1.643,1.272c0.167,0.506,0.751,1.69,0.299,1.872
			c-0.475,0.375-0.833-0.104-1.045-0.225c0,0.05,0,0.1,0,0.149c-0.05-0.025-0.1-0.05-0.149-0.075
			c0.021,0.594-0.178,0.427-0.522,0.824c0.05,0.1,0.1,0.2,0.149,0.299c0.467,0.009,0.827,0.086,0.97,0.449
			c0.149-0.075,0.299-0.15,0.448-0.225c0.05,0.1,0.1,0.2,0.149,0.299c-0.652,0.148-1.283,1.079-2.016,0.674
			c0.035,0.194,0.182,0.624-0.149,0.449c-0.251,0.349-0.853,0.408-1.045,0.599c-1.739,1.721-3.612,3.386-7.987,3.444
			c-0.105,0.409-0.526,0.691-0.896,1.048c-0.631,0.608-0.531,2.499-0.373,3.594c0.584,0.078,0.24,0.397,0.746,0.225
			c0.598,0.225,1.194,0.449,1.791,0.674c0.364,2.129,2.832,3.325,3.732,4.492c0.077,0.1,0.495,0.408,0.374,0.523
			c0.294,0.378,1.289,1.295,1.045,1.498c0.305,0.414,0.897,1.736,0.597,2.171c-0.191,0.321-2.52,0.948-3.135,0.974
			c-0.115-0.291-0.096-0.176-0.224-0.225c-1.278,0.011-1.955,0.259-2.763,0.898c0.1,0.349,0.199,0.698,0.299,1.048
			c-0.303-0.016-0.646,0.033-0.746,0.225c-0.301,0.173-0.47,0.551-0.747,1.048c-1.411-0.201-3.468-0.059-4.628,0.599
			c-0.074,0.043-2.722-0.106-3.135,0c-0.05-0.249-0.1-0.499-0.149-0.748c-0.197,0.037-0.366,0.09-0.672-0.075
			c0.093-0.133,0.894-1.5,0.672-1.722c-0.039-0.403-0.479-0.603-0.598-1.198c0.208-0.031,0.141-0.129,0.299-0.374
			c-0.196-0.093-0.638-0.746-0.971-1.048c0.304-0.484,0.461-0.685,0.149-1.198c-0.447-0.225-0.746-1.14-1.567-1.572
			c0.043-0.646,0.05-1.188,0.224-1.497c-0.473,0.048-0.502-0.168-0.747-0.225c0.064-0.498,0.195-0.871-0.149-0.974
			c0.186-0.277,0.175-0.204,0.522-0.149c-0.092-0.282-0.189-0.425,0-0.749c-0.099-0.05-0.199-0.1-0.298-0.149
			c-0.015,0.31-0.025,0.531-0.373,0.599c-0.184,0.146-0.03,0.042-0.224,0.075c-0.052-0.434-0.018-0.194-0.224-0.375
			c-0.077,0.243,0.05,0.396-0.224,0.3c-0.059,0.157-0.641-0.18-0.747-0.225c-0.025,0.075-0.05,0.149-0.075,0.225
			c0.247,0.026,0.387,0.133,0.522,0.374c-0.174,0.374-0.266,0.427-0.075,0.974c-0.298,0.149-0.597,0.3-0.896,0.449
			c-0.1-0.075-0.199-0.149-0.299-0.225c-0.024,0.05-0.049,0.101-0.075,0.149c0.1,0.2,0.2,0.4,0.299,0.6
			c-0.174-0.1-0.348-0.199-0.522-0.3c0,0.125,0,0.249,0,0.374c0.199,0.075,0.398,0.15,0.597,0.225
			c0.149-0.074,0.298-0.149,0.448-0.225c0,0.075,0,0.15,0,0.225c-0.228,0.137-0.234,0.989-0.522,1.572
			c-0.05-0.049-0.1-0.1-0.149-0.149c-0.301-0.11-0.947-0.478-1.194-0.898c-0.208,0.171-0.104,0.156-0.224,0.149
			c-0.236,0.021-1.896-0.416-1.792-0.299c-0.358-0.155-0.27-0.074-0.224-0.449c-0.597-0.1-1.194-0.2-1.792-0.3
			c0.184-0.146,0.03-0.042,0.224-0.075c0.071-0.137,0.441-0.148,0.373-0.299c0.171-0.134,0.1-0.08,0.149-0.449
			c-0.174-0.025-0.349-0.05-0.522-0.075c-0.005,0.299,0.012,0.1-0.374,0.149c0.025,0.101,0.05,0.2,0.075,0.3
			c-0.379-0.161-0.341-0.243-0.597-0.3c0.107-0.538-0.184-0.499-0.149-0.823c0.025-0.225,0.05-0.449,0.075-0.674
			c0.196-0.122,0.062-0.087,0.299-0.075c-0.1-0.124-0.199-0.249-0.299-0.374c-0.1,0-0.199,0-0.298,0
			c-0.045,0.222,0.078,0.08-0.149,0.225c0.05-0.225,0.1-0.448,0.149-0.674c-0.149,0-0.299,0-0.448,0c0-0.149,0-0.3,0-0.449
			c0.024,0,0.049,0,0.074,0c0.332,0.042,0.259,0.049,0.448-0.225c-0.322-0.081-0.515-0.411-0.374-0.748
			c-0.228,0.115-0.193,0.008-0.373,0.3c0.211,0.188,0.201,0.485,0,0.673c0.025-0.05,0.05-0.1,0.075-0.149
			c-0.294-0.206-0.695-0.984-0.896-1.348c0.348-0.145,0.149-0.083,0.299-0.3c-0.262-0.086-0.312,0.014-0.224-0.374
			c-0.266,0.061-0.292,0.016-0.522,0.225c-0.061-0.588-0.084-0.318-0.299-0.674c0.441,0.06,0.44,0.078,0.747-0.149
			c-0.174-0.225-0.348-0.449-0.522-0.674c-0.234,0.216,0.016,0.087-0.299,0.149C22.371,55,22.21,54.861,22.245,54.68
			c0.075,0.024,0.149,0.049,0.224,0.074c-0.251-0.555-0.13-0.637-0.597-0.973c-0.024,0.074-0.05,0.149-0.075,0.225
			c0.119,0.277,0.151,0.547,0.374,0.449c-0.129,0.409-0.347,0.34-0.672,0.449c-0.118-0.209-0.253-0.114-0.373-0.225
			c-0.099-0.092-0.113-0.223-0.224-0.15c-0.15-0.059-4.595-1.601-5.076-0.898c-0.334,0.142-0.28,0.316-0.523,0.524
			c0.012-0.481,0.08-0.456-0.298-0.674c-0.136,0.295-0.302,0.305-0.448,0.149c-0.294-0.027,0.024-0.064-0.299-0.149
			c-0.153,0.244-0.545,0.148-0.821,0.225c-0.025,0.1-0.05,0.199-0.075,0.3c0.267,0.133,0.088-0.04,0.224,0.225
			c-0.025,0-0.05,0-0.075,0c-0.45-0.432-0.651-0.588-1.045-0.674c0.025-0.051,0.05-0.101,0.075-0.15
			c0.34-0.129,0.32-0.229,0.747-0.299c0.074,0.164,0.416,0.217,0.672,0.299c0.099-0.25,0.199-0.499,0.298-0.748
			c-0.052-0.539-0.136-0.979,0.075-1.498c-0.05,0.025-0.1,0.051-0.149,0.075c-0.178,0.024-0.061-0.013-0.298,0.075
			c-0.075,0.249-0.149,0.498-0.224,0.748c-0.199,0.025-0.398,0.05-0.597,0.075c-0.086-0.295-0.268-0.452-0.522,0
			c0.05,0,0.1,0,0.149,0c-0.025,0.05-0.05,0.1-0.075,0.149c-0.274-0.109-0.423-0.238-0.597,0.075
			c0.174,0.024,0.348,0.05,0.522,0.075c-0.05,0.249-0.1,0.498-0.149,0.748c-0.675-0.01-0.716-0.064-1.045,0.3
			c-0.523-0.328-0.537-0.187-0.821-0.749c0.294-0.125,0.255-0.088,0.448-0.374c-0.188-0.098-0.107-0.087-0.299-0.075
			c-0.212-0.309-0.218-0.349-0.522-0.674c-0.025,0.225-0.05,0.449-0.075,0.674c-0.199,0.075-0.398,0.15-0.597,0.225
			c-1.007-0.555-2.193-0.622-2.687-1.048c-0.177-0.152-1.941,0.3-1.941,0.3c0,0.049,0,0.1,0,0.149
			c-0.233,0.089-1.472,0.014-1.344,0.449c-1.177,0.495-0.122,3.413-0.448,4.342c-0.149-0.024-0.299-0.05-0.448-0.075
			c0-0.049,0-0.1,0-0.148c-0.061-0.277-0.025-0.876,0.149-1.124c-0.365-0.731-0.375-1.972-1.045-2.919
			C0.879,52.582,0.39,51.884,0,51.685c0.21-0.561,1.163-1.178,1.941-1.797c0-0.05,0-0.1,0-0.15c0.557-0.229,1.062,0.092,1.418-0.299
			c0.154-1.034,0.665-2.963,0.075-3.743c-0.595-0.786-0.889-0.821-1.269-1.722c0.491-0.013,0.673-0.297,0.896-0.524
			c0-0.1,0-0.2,0-0.299c-0.1-0.075-0.199-0.15-0.299-0.225c0.05-0.025,0.1-0.05,0.149-0.075c0.178-0.771,1.844-0.276,2.09-1.123
			c0.137-0.013,0.593-0.559,0.746-0.824c0,0-0.815-0.826-0.522-0.824c0,0-0.997-0.399-1.12-0.299
			c-0.498-0.449-0.995-0.898-1.493-1.348c-0.42,0.161-0.525,0.184-0.597,0.15c-0.104-0.017-0.373-6.648,0-6.963
			c0.448-0.1,0.896-0.2,1.343-0.299c-0.123-0.374-0.672-1.123-0.672-1.123c0.182-0.536,0.713-0.737,0.672-0.898
			c0.461,0.104,0.614,0.543,0.821,0.449c0.348,0,0.697,0,1.045,0c0.004,0.789,1.227,1.577,1.717,1.572
			c0.229-0.024,0.417-0.127,0.672-0.299c0-0.25,0-0.499,0-0.749c0.252,0.084,0.45,0.202,0.747,0.224
			c-0.025-0.149-0.05-0.299-0.075-0.449c0.934,0.778,2.073,2.151,3.508,2.695c0.058-0.215-0.104-0.196,0.224-0.299
			c-0.025,0.05-0.05,0.1-0.075,0.15c0.049,0.392-0.424,0.905-0.747,1.422c0.174,0.2,0.349,0.399,0.522,0.599
			c0.015,0.279-0.029,0.248-0.149,0.524c-0.174-0.05-0.349-0.1-0.522-0.15c0.109,0.327,0.758,1.674,1.12,1.572
			c0.211,0.333,0.699-0.023,0.97-0.075c0.027,0.263,0.129,0.19,0.075,0.375c0.125-0.025,0.249-0.05,0.373-0.075c0-0.1,0-0.2,0-0.3
			c-0.05-0.05-0.1-0.1-0.149-0.149c0.099,0.025,0.199,0.05,0.298,0.075c0.06,0.324-0.02,0.118,0.224,0.3
			c0.024-0.025,0.049-0.05,0.075-0.075c-0.055-0.277-0.035-0.291,0.074-0.524c0.149,0.05,0.299,0.1,0.448,0.149
			c0.064,0.216,0.178,0.375,0.075,0.824c0.203,0.039,0.094-0.018,0.298,0.15c0.411-0.315,0.256-2.726,0.149-2.92
			c-0.174,0-0.349,0-0.522,0c-0.075-0.175-0.149-0.35-0.224-0.524c0.872,0.254,1.241,0.519,1.866,0.823
			c-0.034,0.751-0.578,1.167-0.747,1.423c0.534-0.038,0.568,0.546,0.896,0.823c-0.304,0.284-0.21,0.247-0.374,0.524
			c0.1,0.15,0.199,0.3,0.299,0.449c-0.269-0.14-0.662-0.764-1.045-0.449c-0.075,0.075-0.149,0.15-0.224,0.225
			c-0.375-0.577-0.875-0.385-1.344-0.674c-0.249,0.182-0.369,0.291-0.373,0.524c-0.387,0.38,0.215,0.778,0.373,1.348
			c-0.025,0.374-0.05,0.749-0.075,1.123c0.025,0,0.05,0,0.075,0c0.556,0.104,1.055,0.062,1.568,0.299
			c0.074-0.025,0.149-0.05,0.224-0.075c0.401,0.571,0.415,1.331,0.896,1.123c1.155-0.241,0.942-0.492,2.239-0.149
			c0.077-0.222,0.616-0.707,0.896-0.898c0.043,0.202,0.02,0.582,0.224,0.449c0.348-0.05,0.697-0.1,1.045-0.15
			c0.011,0.239,0.363,0.36,0.672,0.524c0.075-0.075,0.149-0.15,0.224-0.225c0.025-0.325,0.05-0.649,0.075-0.974
			c-0.398-0.149-0.796-0.299-1.194-0.449c-0.241-0.175-0.981-2.016-1.792-1.797c0.29-0.494,0.724-0.174,1.269-0.149
			c0-0.1,0-0.2,0-0.3c-0.385,0.09-0.567-0.067-0.672-0.225c-0.153-0.134-0.053-0.001-0.149-0.224
			c0.48-0.015,0.891-0.038,0.821,0.299c0.315,0.184,0.468,0.5,0.97,0.674c-0.184,0.146-0.03,0.042-0.224,0.075
			c-0.04,0.134-0.084,0.166-0.224,0.375c0.335,0.193,0.259,0.157,0.373,0.674c2.099,0.014,2.263,2.077,3.434,3.219
			c0.647,0.474,1.294,0.948,1.941,1.422c1.735-0.15,6.327,0.595,8.136-0.674c0.224,0.025,0.448,0.05,0.672,0.075
			c0.013-0.927,1.999-0.485,2.836-1.198c0.522-0.599,1.045-1.198,1.568-1.797c1.978-1.093,3.641-1.563,5.225-2.321
			c0.747-0.075,1.493-0.15,2.239-0.225c0.964-0.623,2.663-0.679,3.21-1.123c0.688-0.559,2.175-2.224,2.165-2.62
			c0.174,0,0.349,0,0.522,0c0.012,0.06,0.001,0.15,0.074,0.075c-0.049,0.299-0.099,0.599-0.148,0.898c0.174,0,0.348,0,0.522,0
			c-0.025,0.2-0.05,0.399-0.075,0.599c0.388-0.271,0.248-0.554,0.149-0.974c0.247-0.122,0.781-0.762,0.672-1.198
			c0.562,0.175,0.475,0.282,0.971,0.075c0.046,0.317-0.07,0.175,0.224,0.374c0.024-0.125,0.05-0.25,0.074-0.374
			c-0.282-0.17-0.041-0.142-0.148-0.375c1.464-0.064,1.761-2.036,2.612-2.995c0.453-0.51,1.418-0.22,1.791-0.449
			C59.593,29.15,59.617,29.075,59.643,29z"/>
		<path style="fill-rule:evenodd;clip-rule:evenodd;fill:#010101;" d="M58.299,29.225c0.05,0,0.1,0,0.149,0
			C58.398,29.225,58.349,29.225,58.299,29.225z"/>
		<path style="fill-rule:evenodd;clip-rule:evenodd;fill:#010101;" d="M12.914,32.294c0.396,0.169,0.896,0.517,0.896,0.898
			c0.016,0.25,0.069,0.172-0.075,0.375c-0.132,0.235-0.075,0.11-0.224,0.15c-0.124,0.025-0.249,0.05-0.373,0.075
			c-0.008-0.454-0.571-0.563-0.97-0.973c0.049-0.025,0.099-0.05,0.149-0.075C12.547,32.404,12.736,32.581,12.914,32.294z"/>
		<path style="fill-rule:evenodd;clip-rule:evenodd;fill:#010101;" d="M53.97,33.043c0.024,0.05,0.05,0.1,0.074,0.149
			C54.02,33.143,53.994,33.093,53.97,33.043z"/>
		<path style="fill-rule:evenodd;clip-rule:evenodd;fill:#010101;" d="M54.79,33.866c0,0.1,0,0.2,0,0.299
			c-0.451,0.084-1.269,1.273-1.269,1.273c-0.174-0.05-0.349-0.1-0.522-0.15c0.016,0.214-0.504,2.329-0.598,2.396
			c-0.232,0.342-0.997,0.483-1.119,0.449c-0.139,0.715-0.399,0.494-0.522,1.272c0.372-0.062,0.202-0.138,0.522,0.15
			c0.043-0.423,0.338-0.666,0.299-0.898c0.339,0.209,0.324,0.468,0.522,0.674c0.225-0.092,0.137-0.098,0.373-0.075
			c0,0.125,0,0.25,0,0.374c0.1-0.025,0.199-0.05,0.299-0.075c-0.013-0.729-0.173-0.629-0.225-1.123
			c0.199,0.075,0.398,0.15,0.598,0.225c0.074-0.15,0.149-0.299,0.224-0.449c-0.05,0.025-0.1,0.05-0.149,0.075
			c0.143-0.284,0.032-0.154,0.225-0.224c-0.195-0.29-0.343-0.33-0.374-0.824c0.184-0.146,0.03-0.042,0.225-0.075
			c-0.025-0.05-0.05-0.1-0.075-0.149c0.149,0.075,0.299,0.149,0.448,0.225c0.137-0.264,0.148-0.243,0.299-0.3
			c-0.025,0.3-0.05,0.599-0.075,0.898c0.548-0.034,0.979-0.046,1.27-0.075c0,0.075,0,0.15,0,0.225
			c-0.383,0.586-0.635,0.377-0.896,1.048c0.491,0.082,0.405,0.102,0.672,0.225c0.007-0.413,0.403-0.882,0.672-1.198
			c0.394,0.187,0.576,0.031,1.419,0.149c0.224,0.25,0.447,0.499,0.671,0.749c-0.174-0.812-1.613-1.351-2.239-1.272
			c0.036-0.424,0.051-0.324-0.149-0.674c-0.271,0.221-0.403,0.379-0.97,0.449c0-0.125,0-0.25,0-0.375
			c0.248-0.125,0.497-0.25,0.746-0.374c0-0.1,0-0.2,0-0.3c-0.229-0.002-0.104,0.072-0.299-0.075c0.134-0.457,0.146-0.05,0.149-0.524
			c0.479-0.007,0.771-0.183,1.045-0.674c-0.049,0.025-0.099,0.05-0.148,0.075c-0.302-0.007-0.473,0.134-0.598,0.075
			c-0.05,0.025-0.1,0.05-0.149,0.075c0.048-0.601,0.044-0.613,0.075-1.273c-0.146-0.078-0.221,0.036-0.149-0.225
			C54.939,33.866,54.865,33.866,54.79,33.866z"/>
		<path style="fill-rule:evenodd;clip-rule:evenodd;fill:#010101;" d="M13.138,34.915c0.312,0.142,0.311,0.172,0.373,0.374
			c0.185,0.158,0.105,0.114,0.075,0.449c-0.149,0.075-0.298,0.15-0.448,0.225c-0.242-0.041-0.427-0.484-0.448-0.823
			c0.025-0.05,0.05-0.1,0.075-0.15C12.889,34.964,13.013,34.939,13.138,34.915z"/>
		<path style="fill-rule:evenodd;clip-rule:evenodd;fill:#010101;" d="M12.839,35.962c0.049,0.075,0.099,0.15,0.149,0.225
			c0.025,0.075,0.05,0.15,0.075,0.225c-0.075-0.05-0.149-0.1-0.224-0.15C12.839,36.162,12.839,36.062,12.839,35.962z"/>
		<path style="fill-rule:evenodd;clip-rule:evenodd;fill:#010101;" d="M13.511,36.262c0.05,0,0.1,0,0.149,0
			C13.61,36.262,13.561,36.262,13.511,36.262z"/>
		<path style="fill-rule:evenodd;clip-rule:evenodd;fill:#010101;" d="M54.642,36.412c0.05,0,0.1,0,0.148,0
			C54.741,36.412,54.691,36.412,54.642,36.412z"/>
		<path style="fill-rule:evenodd;clip-rule:evenodd;fill:#010101;" d="M16.87,36.936c0.249,0.175,0.498,0.35,0.747,0.524
			c-0.05,0-0.1,0-0.149,0c0,0.1,0,0.2,0,0.299c-0.363-0.171-0.443-0.181-0.672-0.599C16.954,36.985,16.828,37.169,16.87,36.936z"/>
		<path style="fill-rule:evenodd;clip-rule:evenodd;fill:#010101;" d="M86.739,37.16c0.05,0,0.1,0,0.149,0
			C86.839,37.16,86.789,37.16,86.739,37.16z"/>
		<path style="fill-rule:evenodd;clip-rule:evenodd;fill:#010101;" d="M25.081,38.059c0.396,0.056-0.005,0.082,0.522,0.075
			c-0.05,0.05-0.1,0.1-0.149,0.149c-0.136,0.168-0.099-0.031-0.374,0.075C25.081,38.258,25.081,38.159,25.081,38.059z"/>
		<path style="fill-rule:evenodd;clip-rule:evenodd;fill:#010101;" d="M57.776,38.957c0.222,0.533,0.76,0.805,1.119,0.974
			c0-0.1,0-0.2,0-0.3c-0.542,0.05-0.773-0.337-0.896-0.674C57.926,38.957,57.851,38.957,57.776,38.957z"/>
		<path style="fill-rule:evenodd;clip-rule:evenodd;fill:#010101;" d="M89.874,39.706c0.025,0.05,0.05,0.1,0.075,0.149
			C89.924,39.806,89.899,39.756,89.874,39.706z"/>
		<path style="fill-rule:evenodd;clip-rule:evenodd;fill:#010101;" d="M59.045,40.38c0.104,0.267,0.039,0.466,0.225,0.374
			c0.134,0.153,0.001,0.053,0.224,0.15c-0.025-0.05-0.05-0.1-0.074-0.15c-0.048-0.164,0.068-0.301-0.225-0.225
			C59.145,40.479,59.095,40.43,59.045,40.38z"/>
		<path style="fill-rule:evenodd;clip-rule:evenodd;fill:#010101;" d="M60.165,40.455c0.05,0,0.1,0,0.149,0
			C60.265,40.455,60.215,40.455,60.165,40.455z"/>
		<path style="fill-rule:evenodd;clip-rule:evenodd;fill:#010101;" d="M90.396,40.455c0.025,0.05,0.05,0.1,0.075,0.149
			c-0.05,0-0.1,0-0.149,0C90.347,40.554,90.372,40.504,90.396,40.455z"/>
		<path style="fill-rule:evenodd;clip-rule:evenodd;fill:#010101;" d="M57.03,45.845c0.024,0.05,0.049,0.1,0.074,0.15
			C57.079,45.945,57.055,45.895,57.03,45.845z"/>
		<path style="fill-rule:evenodd;clip-rule:evenodd;fill:#010101;" d="M56.881,45.92c0.05,0.075,0.1,0.149,0.149,0.225
			c-0.075,0-0.149,0-0.225,0C56.831,46.069,56.855,45.995,56.881,45.92z"/>
		<path style="fill-rule:evenodd;clip-rule:evenodd;fill:#010101;" d="M56.656,46.069c0.104,0.236,0.098,0.017,0,0.3
			c-0.05-0.025-0.1-0.05-0.149-0.075C56.557,46.219,56.606,46.145,56.656,46.069z"/>
		<path style="fill-rule:evenodd;clip-rule:evenodd;fill:#010101;" d="M56.433,46.294c0.05,0.05,0.1,0.1,0.149,0.15
			c-0.05,0.025-0.1,0.05-0.149,0.075c0,0.05,0,0.1,0,0.15c-0.05-0.025-0.1-0.05-0.149-0.075
			C56.333,46.494,56.383,46.394,56.433,46.294z"/>
		<path style="fill-rule:evenodd;clip-rule:evenodd;fill:#010101;" d="M67.928,46.294c0.05,0,0.1,0,0.149,0
			C68.027,46.294,67.978,46.294,67.928,46.294z"/>
		<path style="fill-rule:evenodd;clip-rule:evenodd;fill:#010101;" d="M67.854,46.369c0.074,0.025,0.149,0.05,0.224,0.075
			c0,0.075,0,0.15,0,0.225c-0.074,0-0.149,0-0.224,0C67.854,46.569,67.854,46.469,67.854,46.369z"/>
		<path style="fill-rule:evenodd;clip-rule:evenodd;fill:#010101;" d="M56.134,46.519c0.139,0.209,0.055,0.01,0.075,0.3
			c-0.05-0.05-0.1-0.1-0.149-0.15C56.084,46.619,56.109,46.568,56.134,46.519z"/>
		<path style="fill-rule:evenodd;clip-rule:evenodd;fill:#010101;" d="M96.145,46.818c0.024,0.05,0.05,0.1,0.074,0.149
			C96.194,46.918,96.169,46.868,96.145,46.818z"/>
		<path style="fill-rule:evenodd;clip-rule:evenodd;fill:#010101;" d="M68.451,46.893c0.074,0.05,0.148,0.1,0.224,0.149
			c-0.025,0.05-0.05,0.1-0.075,0.15c-0.05-0.05-0.1-0.1-0.148-0.15C68.451,46.993,68.451,46.943,68.451,46.893z"/>
		<path style="fill-rule:evenodd;clip-rule:evenodd;fill:#010101;" d="M68.451,48.241c0,0.125,0,0.25,0,0.375
			c-0.05-0.05-0.1-0.1-0.149-0.15C68.522,48.321,68.303,48.446,68.451,48.241z"/>
		<path style="fill-rule:evenodd;clip-rule:evenodd;fill:#010101;" d="M68.525,48.54c-0.031,0.069,0.06,0.051-0.074,0.15
			C68.476,48.64,68.5,48.59,68.525,48.54z"/>
		<path style="fill-rule:evenodd;clip-rule:evenodd;fill:#010101;" d="M67.928,48.615c0.075,0,0.149,0,0.225,0
			c-0.1,0.1-0.199,0.199-0.299,0.299C67.878,48.814,67.903,48.715,67.928,48.615z"/>
		<path style="fill-rule:evenodd;clip-rule:evenodd;fill:#010101;" d="M82.036,48.915c-0.05,0.25-0.1,0.499-0.149,0.749
			c0.125-0.05,0.249-0.1,0.374-0.15c0-0.199,0-0.399,0-0.599C82.186,48.915,82.111,48.915,82.036,48.915z"/>
		<path style="fill-rule:evenodd;clip-rule:evenodd;fill:#010101;" d="M70.765,48.989c0.337,0.174,0.415,0.605,0.672,0.524
			c-0.072,0.36-0.151,0.407-0.074,0.674c0.357-0.072,0.612,0.154,0.97,0.599c-0.024,0.05-0.05,0.1-0.074,0.149
			c-0.174,0-0.349,0-0.522,0c0.042,0.402-0.114,0.722-0.149,1.198c-0.262-0.052-0.971-0.075-0.971-0.075
			c-0.355,0.246-0.107,0.41-0.447,0.6c-0.066-0.307-0.336-0.363-0.672-0.524c0.121-0.427,0.314-0.463,0.224-0.974
			c-0.05-0.074-0.1-0.149-0.149-0.225c-0.023-0.15-0.116-1.2-0.149-1.572c0.06-0.012,0.15,0,0.075-0.075
			c0.554,0.109,0.811,0.042,1.269,0C70.765,49.189,70.765,49.089,70.765,48.989z"/>
		<path style="fill-rule:evenodd;clip-rule:evenodd;fill:#010101;" d="M79.498,49.064c-0.065,0.708-0.275,0.925,0.149,1.198
			C79.629,49.909,79.73,49.307,79.498,49.064z"/>
		<path style="fill-rule:evenodd;clip-rule:evenodd;fill:#010101;" d="M83.306,49.588c0.05,0,0.1,0,0.149,0
			C83.405,49.588,83.355,49.588,83.306,49.588z"/>
		<path style="fill-rule:evenodd;clip-rule:evenodd;fill:#010101;" d="M66.958,49.813c0.349,0.333,0.557,0.403,0.672,0.823
			c-0.1,0-0.199,0-0.299,0c-0.124-0.125-0.249-0.25-0.373-0.375C66.958,50.112,66.958,49.962,66.958,49.813z"/>
		<path style="fill-rule:evenodd;clip-rule:evenodd;fill:#010101;" d="M67.032,51.76c0.1,0,0.199,0,0.299,0
			c0.1,0.374,0.199,0.748,0.299,1.123c-0.549-0.018-0.51,0.029-0.672,0.523c-0.199-0.184-0.114-0.102-0.149-0.299
			c-0.075-0.075-0.149-0.15-0.224-0.225c0.099-0.075,0.198-0.15,0.298-0.225C66.77,52.385,66.895,52.205,67.032,51.76z"/>
		<path style="fill-rule:evenodd;clip-rule:evenodd;fill:#010101;" d="M85.396,52.059c0,0.1,0,0.199,0,0.3c0.074,0,0.149,0,0.224,0
			c-0.024-0.101-0.05-0.2-0.074-0.3C85.495,52.059,85.445,52.059,85.396,52.059z"/>
		<path style="fill-rule:evenodd;clip-rule:evenodd;fill:#010101;" d="M71.586,52.434c0.05,0.049,0.1,0.1,0.149,0.149
			c-0.05,0.024-0.1,0.05-0.149,0.075C71.586,52.583,71.586,52.508,71.586,52.434z"/>
		<path style="fill-rule:evenodd;clip-rule:evenodd;fill:#010101;" d="M85.47,52.434c0.025,0.274,0.05,0.549,0.075,0.823
			c0.525-0.051,0.917,0.044,1.269,0.3c0-0.101,0-0.2,0-0.3c-0.194-0.032-0.04,0.073-0.224-0.075c0.4,0.027,0.364,0.166,0.522-0.149
			C86.637,52.991,85.97,52.588,85.47,52.434z"/>
		<path style="fill-rule:evenodd;clip-rule:evenodd;fill:#010101;" d="M70.242,52.732c0.074,0,0.149,0,0.224,0
			c0.04,0.233-0.102,0.067,0.075,0.225c-0.025,0.15-0.05,0.3-0.075,0.449c-0.074-0.05-0.149-0.1-0.224-0.149
			C70.242,53.082,70.242,52.907,70.242,52.732z"/>
		<path style="fill-rule:evenodd;clip-rule:evenodd;fill:#010101;" d="M70.615,53.257c0.05,0,0.1,0,0.149,0
			C70.635,53.33,70.748,53.324,70.615,53.257z"/>
		<path style="fill-rule:evenodd;clip-rule:evenodd;fill:#010101;" d="M16.348,53.557c0.05,0,0.1,0,0.149,0
			C16.447,53.557,16.397,53.557,16.348,53.557z"/>
		<path style="fill-rule:evenodd;clip-rule:evenodd;fill:#010101;" d="M15.153,53.706c0.05,0.05,0.1,0.1,0.149,0.149
			C15.253,53.806,15.203,53.756,15.153,53.706z"/>
		<path style="fill-rule:evenodd;clip-rule:evenodd;fill:#010101;" d="M15.377,54.155c0.21,0.108-0.136,0.119-0.224,0.075
			C15.228,54.205,15.302,54.18,15.377,54.155z"/>
		<path style="fill-rule:evenodd;clip-rule:evenodd;fill:#010101;" d="M12.242,54.829c0.024,0.05,0.05,0.1,0.074,0.149
			C12.292,54.929,12.267,54.879,12.242,54.829z"/>
		<path style="fill-rule:evenodd;clip-rule:evenodd;fill:#010101;" d="M11.943,54.904c0.272,0.078,0.219,0.061,0.373,0.225
			c-0.121,0.364-0.167,0.179-0.074,0.449c-0.38-0.029-0.258,0.012-0.374-0.075c-0.262-0.062-0.109,0.094-0.224-0.15
			c0.124-0.024,0.249-0.05,0.373-0.074C11.993,55.153,11.968,55.028,11.943,54.904z"/>
		<path style="fill-rule:evenodd;clip-rule:evenodd;fill:#010101;" d="M78.976,55.353c0.05,0.05,0.1,0.101,0.149,0.15
			C79.075,55.453,79.025,55.402,78.976,55.353z"/>
		<path style="fill-rule:evenodd;clip-rule:evenodd;fill:#010101;" d="M79.723,56.027c0.05,0,0.1,0,0.149,0
			C79.822,56.027,79.772,56.027,79.723,56.027z"/>
		<path style="fill-rule:evenodd;clip-rule:evenodd;fill:#010101;" d="M31.127,59.096c0.091,0.26-0.026,0.329,0.373,0.449
			c0-0.074,0-0.149,0-0.225C31.376,59.246,31.252,59.172,31.127,59.096z"/>
		<path style="fill-rule:evenodd;clip-rule:evenodd;fill:#010101;" d="M33.218,62.091c-0.542-0.011-0.393-0.031-0.747-0.225
			c0.186-0.226,0.154-0.396,0.373-0.599C32.896,61.664,33.176,61.393,33.218,62.091z"/>
		<path style="fill-rule:evenodd;clip-rule:evenodd;fill:#010101;" d="M31.5,61.492c0.05,0,0.1,0,0.149,0
			C31.6,61.492,31.55,61.492,31.5,61.492z"/>
		<path style="fill-rule:evenodd;clip-rule:evenodd;fill:#010101;" d="M32.396,61.642c0.025,0.05,0.05,0.101,0.075,0.149
			C32.446,61.742,32.421,61.691,32.396,61.642z"/>
		<path style="fill-rule:evenodd;clip-rule:evenodd;fill:#010101;" d="M24.26,62.465c0.074,0,0.149,0,0.224,0
			C24.286,62.569,24.437,62.604,24.26,62.465z"/>
		<path style="fill-rule:evenodd;clip-rule:evenodd;fill:#010101;" d="M80.917,62.54c0.049,0.05,0.1,0.1,0.149,0.149
			C81.017,62.64,80.966,62.59,80.917,62.54z"/>
		<path style="fill-rule:evenodd;clip-rule:evenodd;fill:#010101;" d="M22.095,63.289c0.614,0.467,0.541,1.271,0.747,1.871
			c0.199,0,0.398,0,0.597,0c-0.067,0.752-0.383,0.617-0.971,1.123c0.08,0.327,0.055,0.592,0.149,0.824
			c0.364-0.06,0.173-0.022,0.448,0.074c0,0.199,0,0.399,0,0.6c1.429-0.241,1.39,0.168,1.717,1.123c-0.486,0.016-0.882,0.137-0.971,0
			c-0.147-0.027-1.709-0.316-1.866-0.524c-0.808-0.174-1.783-1.935-2.09-2.771c0.1-0.05,0.199-0.1,0.298-0.149
			c0.012,0.06,0,0.15,0.075,0.075c0.211-0.949,0.976-1.698,1.717-1.797C21.946,63.402,21.908,63.545,22.095,63.289z"/>
		<path style="fill-rule:evenodd;clip-rule:evenodd;fill:#010101;" d="M22.767,63.289c0.075,0.074,0.149,0.149,0.224,0.225
			C22.917,63.438,22.842,63.363,22.767,63.289z"/>
		<path style="fill-rule:evenodd;clip-rule:evenodd;fill:#010101;" d="M33.218,64.412c0.462,0.034,0.814-0.008,1.045,0.225
			c-0.378,0.236-0.397,0.438-0.821,0.674c-0.084-0.145-0.613-0.43-0.821-0.15c-0.213,0.045-0.764,0.636-0.97,0.749
			c-0.348,0.098-0.619,0.169-0.896-0.149c0.05,0,0.1,0,0.149,0C31.345,65.076,32.792,64.869,33.218,64.412z"/>
		<path style="fill-rule:evenodd;clip-rule:evenodd;fill:#010101;" d="M31.426,64.562c0.05,0.124,0.1,0.25,0.149,0.374
			c-0.025,0-0.049,0-0.075,0c-0.124,0.025-0.249,0.051-0.373,0.075C31.217,64.674,31.228,64.748,31.426,64.562z"/>
		<path style="fill-rule:evenodd;clip-rule:evenodd;fill:#010101;" d="M19.781,65.311c0.05,0,0.1,0,0.149,0
			c-0.05,0.074-0.1,0.149-0.149,0.225C19.781,65.46,19.781,65.385,19.781,65.311z"/>
		<path style="fill-rule:evenodd;clip-rule:evenodd;fill:#010101;" d="M30.68,65.834c0.074,0.051,0.149,0.1,0.224,0.15
			c-0.049,0.049-0.099,0.1-0.149,0.149c-0.049-0.024-0.099-0.05-0.149-0.075C30.63,65.984,30.655,65.909,30.68,65.834z"/>
		<path style="fill-rule:evenodd;clip-rule:evenodd;fill:#010101;" d="M31.053,66.059c0.05,0,0.1,0,0.149,0
			C31.152,66.059,31.103,66.059,31.053,66.059z"/>
		<path style="fill-rule:evenodd;clip-rule:evenodd;fill:#010101;" d="M84.798,67.257c0.05,0.05,0.1,0.1,0.149,0.149
			C84.897,67.356,84.848,67.307,84.798,67.257z"/>
		<path style="fill-rule:evenodd;clip-rule:evenodd;fill:#010101;" d="M20.901,69.354c0.05,0.049,0.1,0.1,0.149,0.149
			c0.249-0.025,0.498-0.05,0.746-0.075c-0.199,0.35-0.398,0.699-0.597,1.048c-0.146-0.184-0.042-0.03-0.075-0.225
			C20.868,70.057,20.831,69.811,20.901,69.354z"/>
		<path style="fill-rule:evenodd;clip-rule:evenodd;fill:#010101;" d="M21.274,70.7c0.025,0.101,0.05,0.2,0.075,0.3
			c-0.05-0.05-0.099-0.1-0.149-0.149C21.225,70.801,21.25,70.75,21.274,70.7z"/>
		<path style="fill-rule:evenodd;clip-rule:evenodd;fill:#010101;" d="M37.547,70.851c0.05,0,0.1,0,0.149,0
			C37.646,70.851,37.597,70.851,37.547,70.851z"/>
	</g>
</g>
<g id="Layer_1">
</g>
</svg>
