<?xml version="1.0" encoding="iso-8859-1"?>
<!-- Generator: Adobe Illustrator 16.0.3, SVG Export Plug-In . SVG Version: 6.00 Build 0)  -->
<!DOCTYPE svg PUBLIC "-//W3C//DTD SVG 1.1//EN" "http://www.w3.org/Graphics/SVG/1.1/DTD/svg11.dtd">
<svg version="1.1" xmlns="http://www.w3.org/2000/svg" xmlns:xlink="http://www.w3.org/1999/xlink" x="0px" y="0px" width="100px"
	 height="100px" viewBox="0 0 100 100" style="enable-background:new 0 0 100 100;" xml:space="preserve">
<g id="PE">
	<path d="M60.547,51.081c0.435-0.053,1.16-0.062,1.686,0.034c0.204,0.037,0.448-0.095,0.688,0c0.018,0.007,0.077,0.094,0.103,0.103
		c0.204,0.069,0.368,0,0.551,0.069c0.092,0.035,0.206,0.143,0.31,0.172c0.253,0,0.505,0,0.757,0
		c0.145,0.048,0.261,0.199,0.379,0.274c0.103,0.066,0.147,0.022,0.206,0.138c0.044,0.068-0.001,0.176,0.034,0.275
		c0.02,0.057,0.11,0.094,0.138,0.138c0.144,0.229,0.06,0.415,0.034,0.688c0.238,0.143,0.764,0.409,0.619,0.896
		c-0.032,0.108-0.093,0.153-0.103,0.344c0.175,0.108,0.445,0.108,0.756,0.103c0.163-0.082,0.808,0,1.101,0c0.746,0,1.491,0,2.236,0
		c0.072-0.024,0.133-0.153,0.207-0.171c0.134-0.034,0.14,0.1,0.274,0.068c0.019-0.005,0.571-0.292,0.585-0.31
		c0.087-0.122,0.088-0.26,0.206-0.345c0.091-0.064,0.429-0.244,0.517-0.275c0.104-0.036,0.196,0.017,0.274-0.034
		c0.196-0.124,0.442-0.629,0.619-0.757c0.165-0.118,0.375-0.137,0.517-0.275c0.106-0.104,0.188-0.256,0.31-0.344
		c0.076-0.055,0.161-0.049,0.24-0.103c0.302-0.208,0.349-0.521,0.86-0.551c0.175,0.163,0.185,0.12,0.172,0.481
		c-0.139,0.13-0.275,0.437-0.31,0.654c0.118,0.101,0.44,0.402,0.275,0.653c-0.111,0.316-0.452,0.309-0.551,0.653
		c-0.146,0.516-0.034,1.309-0.034,1.892c0,1.342,0,2.684,0,4.024c0.052,0.02,0.058,0.023,0.138,0.035
		c0.082-0.134,0.17-0.227,0.378-0.241c0.134,0.131,0.585,0.594,0.723,0.654c0.322,0.14,1.096-0.017,1.341-0.173
		c0.061-0.038,0.099-0.142,0.173-0.172c0.151-0.062,0.29-0.024,0.412-0.104c0.151-0.099,0.294-0.275,0.517-0.31
		c0.129-0.019,0.166,0.084,0.241,0.104c0.194-0.011,0.389-0.022,0.584-0.034c0.091,0.025,0.17,0.143,0.241,0.172
		c0.246,0.102,0.612,0.002,0.929,0c1.291,2.158,2.558,4.249,3.749,6.536c0.122,0.233,0.305,0.477,0.413,0.722
		c0.13,0.297,0.2,0.578,0.344,0.86c0.098,0.194,0.299,0.469,0.138,0.723c-0.062,0.217-0.237,0.25-0.31,0.446
		c0.109,0.066,0.157,0.105,0.172,0.274c-0.092,0.115-0.184,0.23-0.275,0.346c-0.201,0.099-0.362,0.045-0.517,0.171
		c-0.188,0.156-0.335,0.48-0.515,0.654c0.001,0.162-0.056,0.367-0.035,0.481c0.023,0.129,0.169,0.289,0.104,0.517
		c-0.041,0.143-0.12,0.438-0.068,0.652c0.07,0.298,0.07,0.749,0,0.998c-0.086,0.3,0.087,0.544,0,0.825
		c-0.097,0.31-0.319,0.604-0.585,0.757c0.086,0.165,0.326,0.244,0.379,0.412c-0.013,0.127-0.024,0.254-0.035,0.379
		c0.023,0.097,0.113,0.224,0.138,0.31c0,0.138,0,0.275,0,0.413c0.072,0.202,0.388,0.266,0.481,0.447
		c0.094,0.184,0.168,0.695,0.172,0.963c-0.206,0.124-0.504,0.18-0.756,0.274c-0.13,0.285,0.048,0.349,0.067,0.655
		c-0.043,0.046-0.047,0.061-0.067,0.137c-0.295,0.151-0.84,0.38-0.861,0.791c0.028,0.041,0.026,0.059,0.035,0.139
		c-0.057,0.032-0.09,0.11-0.138,0.137c-0.189,0.103-0.257-0.085-0.344,0.138c-0.105,0.136-0.06,0.451-0.069,0.653
		c-0.087,0.053-0.514,0.273-0.551,0.344c-0.127,0.198,0.022,0.382,0,0.517c-0.016,0.101-0.122,0.138-0.137,0.31
		c0.218,0.152,0.287,0.44,0.447,0.653c0.241,0.323,0.777,0.41,0.825,0.929c-0.193,0.167-0.634,0.291-0.757,0.516
		c-0.011,0.115-0.022,0.229-0.035,0.345c-0.046,0.1-0.207,0.096-0.274,0.172c-0.034,0.16-0.069,0.321-0.103,0.481
		c-0.088,0.159-0.294,0.264-0.344,0.481c-0.046,0.196,0.25,0.651,0.309,0.825c0.298,0.878,0.463,1.748,1.032,2.339
		c0.77-0.184,1.343,0.204,1.789,0.653c-0.032,0.164-0.094,0.294-0.241,0.344c-0.139,0.118-0.361,0.055-0.551,0.139
		c-0.212,0.094-0.562,0.573-0.412,0.998c0.05,0.144,0.15,0.115,0.172,0.344c-0.186,0.121-0.369,0.368-0.585,0.446
		c-0.172,0.063-0.253-0.024-0.344,0.104c-0.089,0.124-0.087,0.287-0.172,0.413c-0.056,0.081-0.173,0.104-0.241,0.172
		c-0.188,0.189-0.259,0.384-0.412,0.619c-0.06,0.091-0.217,0.123-0.275,0.207c-0.093,0.127-0.068,0.271-0.173,0.378
		c-0.27,0.276-0.872,0.309-1.031,0.688c-0.051,0.064-0.084,0.213-0.069,0.239c0.285,0.321,0.653,0.37,0.654,0.998
		c0,0.116,0.008,0.243-0.035,0.31c-0.058,0.168-0.86,0.903-1.031,0.964c-0.229,0.011-0.459,0.022-0.688,0.034
		c-0.036,0.121-0.068,0.189-0.068,0.378c0.059,0.054,0.216,0.203,0.24,0.275c-0.011,0.16-0.022,0.32-0.034,0.481
		c0.052,0.201,0.245,0.566,0.103,0.86c-0.079,0.069-0.16,0.137-0.24,0.207c-0.222,0.324-0.55,0.974-0.929,1.1
		c-0.092,0-0.184,0-0.274,0c-0.127,0.041-0.232,0.196-0.344,0.241c-0.215,0.085-0.479,0.124-0.758,0.103
		c-0.068-0.011-0.137-0.022-0.206-0.034c-0.07,0.023-0.088,0.137-0.241,0.104c-0.448-0.096-0.686-0.464-0.997-0.688
		c-0.212-0.154-0.604-0.162-0.791-0.345c-0.182-0.178-0.311-0.433-0.517-0.585c-0.175-0.13-0.398-0.189-0.55-0.344
		c-0.147-0.15-0.206-0.392-0.379-0.516c-0.188-0.136-0.434-0.127-0.652-0.241c-0.281-0.146-0.473-0.509-0.724-0.688
		c-0.21-0.151-0.474-0.165-0.619-0.378c-0.184-0.244-0.234-1.162-0.31-1.515c-0.473-0.125-0.591-0.598-0.929-0.791
		c-0.146-0.083-0.508-0.195-0.653-0.241c-0.225-0.069-0.478,0.039-0.653-0.067c-0.284-0.174-0.415-0.551-0.688-0.723
		c-0.072-0.047-0.188,0.013-0.275-0.035c-0.022-0.045-0.045-0.091-0.068-0.137c-0.079-0.023-0.16-0.047-0.241-0.069
		c-0.174-0.113-0.306-0.332-0.48-0.447c-0.195-0.128-0.504-0.127-0.688-0.275c-0.15-0.121-0.214-0.546-0.412-0.688
		c-0.104-0.034-0.207-0.069-0.31-0.104c-0.228-0.136-0.486-0.296-0.792-0.378c-0.126,0-0.252,0-0.378,0
		c-0.124-0.035-0.274-0.108-0.413-0.172c-0.989-0.454-1.978-0.955-2.992-1.411c-0.174-0.077-0.306-0.269-0.481-0.344
		c-0.138-0.011-0.275-0.022-0.413-0.034c-0.2-0.066-0.511-0.271-0.723-0.345c-0.184-0.011-0.366-0.021-0.55-0.034
		c-0.157-0.039-0.353-0.098-0.517-0.172c-0.34-0.153-0.654-0.458-0.929-0.688c-0.068-0.022-0.138-0.046-0.206-0.068
		c-0.236-0.258-0.48-0.655-0.825-0.792c-0.176-0.069-0.535-0.032-0.688-0.103c-0.046-0.058-0.092-0.115-0.138-0.172
		c-0.13-0.062-0.239-0.007-0.344-0.069c-0.213-0.128-0.322-0.396-0.516-0.516c-0.076-0.048-0.139-0.021-0.207-0.069
		c-0.068-0.079-0.137-0.16-0.206-0.239c-0.195-0.035-0.39-0.07-0.585-0.104c-0.224-0.124-0.401-0.368-0.619-0.481
		c-0.14-0.072-0.261-0.057-0.378-0.137c-0.086-0.06-0.18-0.197-0.275-0.241c-0.08-0.012-0.16-0.023-0.241-0.035
		c-0.082-0.033-0.191-0.143-0.275-0.172c-0.069,0-0.138,0-0.206,0l-0.723-0.55c-0.049-0.092,0.017-0.165,0.035-0.311
		c-0.158-0.085-0.291-0.159-0.414-0.274c0.037-0.088,0.075-0.148,0.104-0.241c-0.13-0.084-0.224-0.257-0.378-0.31
		c-0.157-0.053-0.298-0.023-0.413-0.068c-0.219-0.587-0.58-0.966-0.929-1.41c-0.042-0.054-0.044-0.141-0.104-0.173
		c-0.157-0.085-0.289-0.068-0.447-0.137c-0.477-0.208-0.957-0.501-1.375-0.791c-0.205-0.142-0.138-0.442-0.275-0.653
		c-0.039-0.06-0.144-0.098-0.172-0.173c-0.053-0.142,0.008-0.241-0.068-0.344c-0.194-0.259-0.712-0.41-0.757-0.791
		c0.057-0.066,0.085-0.161,0.034-0.241c-0.067-0.207-0.365-0.493-0.619-0.516c-0.056,0.052-0.069,0.053-0.172,0.068
		c-0.042-0.078-0.056-0.077-0.069-0.206c-0.117-0.182,0.044-0.37,0.069-0.481c0.016-0.073-0.072-0.491-0.069-0.688
		c-0.297-0.137-0.561-0.012-0.55-0.482c0.109-0.117,0.136-0.249,0.309-0.31c0.041-0.027,0.058-0.026,0.138-0.035
		c0.062,0.084,0.083,0.142,0.207,0.173c0.217-0.538,0.337-1.183,0.344-1.96c-0.313-0.256-0.478-0.601-0.723-0.929
		c-0.146-0.197-0.408-0.352-0.516-0.585c-0.011-0.092-0.023-0.184-0.034-0.275c-0.102-0.195-0.385-0.34-0.481-0.551
		c-0.155-0.335-0.077-0.748-0.276-1.031c-0.074-0.106-0.269-0.101-0.344-0.207c-0.111-0.155-0.106-0.345-0.206-0.516
		c-0.073-0.124-0.262-0.22-0.344-0.344c-0.17-0.259-0.262-0.552-0.482-0.757c0.104-0.395,0.011-0.595-0.24-0.825
		c-0.16-0.146-0.441-0.154-0.619-0.275c-0.084-0.058-0.099-0.206-0.172-0.275c-0.045-0.011-0.091-0.023-0.137-0.034
		c-0.188-0.137-0.388-0.501-0.481-0.723c-0.104-0.245-0.172-0.538-0.241-0.791c0-0.092,0-0.184,0-0.275
		c-0.068-0.204-0.257-0.487-0.344-0.688c-0.111-0.253-0.117-0.591-0.31-0.757c-0.041-0.027-0.158-0.051-0.207-0.068
		c-0.145-0.31-0.175-0.784-0.447-0.963c-0.247-0.161-1.328-0.561-1.41-0.757c-0.088-0.107-0.115-0.265-0.104-0.379
		c0.078-0.051,0.104-0.072,0.137-0.171c0.006-0.053-0.052-0.101-0.068-0.173c-0.023-0.102,0.061-0.125,0.068-0.172
		c0.011-0.059-0.04-0.254-0.068-0.344c-0.064-0.202-0.238-0.389-0.31-0.584c-0.081-0.222-0.06-0.434-0.172-0.62
		c-0.119-0.197-0.322-0.363-0.448-0.55c-0.31-0.461-0.566-0.897-0.86-1.376c-0.06-0.099-0.219-0.166-0.275-0.275
		c-0.081-0.158-0.042-0.347-0.138-0.481c-0.092-0.069-0.183-0.138-0.275-0.207c-0.057-0.183-0.115-0.366-0.172-0.55
		c-0.08-0.068-0.161-0.138-0.241-0.207c-0.286-0.422-0.497-0.988-0.619-1.548c-0.041-0.184,0.088-0.304,0.103-0.481
		c-0.449-0.346-0.698-0.918-0.894-1.514c-0.059-0.178,0.058-0.307,0-0.447c-0.058-0.046-0.115-0.092-0.172-0.137
		c-0.046-0.149-0.092-0.299-0.138-0.447c-0.069-0.012-0.138-0.023-0.206-0.034c-0.087-0.052-0.132-0.238-0.207-0.31
		c0.023-0.115,0.046-0.23,0.069-0.345c-0.041-0.029-0.039-0.028-0.069-0.068c-0.111,0.068-0.156,0.142-0.309,0.172
		c-0.042-0.079-0.057-0.077-0.069-0.206c-0.034-0.07,0.008-0.136,0.034-0.241c-0.387-0.262-0.328-0.911-0.516-1.375
		c-0.118-0.293-0.454-0.389-0.516-0.757c0.114-0.125,0.113-0.362,0.068-0.551c-0.155-0.657-0.348-0.631-0.791-0.963
		c-0.179-0.134-0.043-0.213-0.103-0.414c-0.065-0.217-0.303-0.372-0.413-0.549c-0.046-0.126-0.092-0.253-0.138-0.379
		c-0.065-0.097-0.209-0.176-0.275-0.275c-0.184-0.275-0.287-0.6-0.55-0.791c-0.277-0.201-0.566-0.335-0.826-0.551
		c-0.232-0.191-0.346-0.568-0.516-0.825c-0.059-0.089-0.194-0.18-0.241-0.275c-0.066-0.134,0.034-0.186,0-0.31
		c-0.113-0.417-0.527-0.694-0.722-1.032c-0.207-0.358-0.089-0.68-0.241-1.066c-0.104-0.262-0.386-0.339-0.516-0.55
		c-0.023-0.149-0.046-0.297-0.069-0.448c-0.126-0.115-0.252-0.229-0.378-0.344c-0.061-0.082-0.068-0.203-0.138-0.275
		c-0.19-0.196-0.493-0.292-0.654-0.516c-0.112-0.157-0.098-0.376-0.206-0.55c-0.136-0.216-0.381-0.363-0.585-0.516
		c-0.092-0.104-0.184-0.207-0.275-0.31c-0.127-0.087-0.281-0.091-0.413-0.172c-0.468-0.29-1.004-0.571-1.479-0.86
		c-0.133-0.081-0.282-0.088-0.413-0.173c-0.261-0.168-0.524-0.435-0.825-0.549c-0.159-0.061-0.274-0.009-0.447-0.069
		c-0.225-0.078-0.476-0.269-0.688-0.378c-0.308-0.16-1.449-0.506-1.582-0.723c-0.051-0.09,0.036-0.159,0-0.309
		c-0.016-0.066-0.121-0.161-0.138-0.207c-0.089-0.251,0.165-0.701,0.31-0.757c0.23-0.169,0.376,0.045,0.619,0.069
		c0.156-0.102,0.422-0.139,0.584-0.207c0.071-0.141,0.199-0.262,0.241-0.412c0.219-0.791-0.414-1.825-0.723-2.133
		c-0.246-0.247-0.615-0.372-0.86-0.619c-0.098-0.1-0.139-0.248-0.241-0.344c0.016-0.212,0.088-0.481,0.138-0.723
		c0.16-0.08,0.389-0.071,0.413-0.309c-0.189-0.198-0.286-0.459-0.447-0.688c-0.134-0.19-0.384-0.302-0.516-0.481
		c-0.16-0.217-0.288-0.406-0.481-0.584c0.065-0.149,0.167-0.332,0.207-0.481c0.077-0.293-0.062-0.515,0-0.757
		c0.013-0.05,0.089-0.183,0.103-0.241c0.078-0.31-0.062-0.657,0.069-0.894c0.188-0.338,0.542-0.498,0.757-0.792
		c0.063-0.086,0.065-0.17,0.138-0.241c0.091-0.069,0.184-0.138,0.275-0.207c0.148-0.222,0.208-0.564,0.413-0.723
		c0.182-0.141,0.514-0.127,0.653-0.31c0.126-0.165,0.056-0.466,0.172-0.653c0.084-0.136,0.737-0.625,0.895-0.689
		c0.092-0.011,0.184-0.022,0.275-0.034c0.351-0.135,0.692-0.463,0.998-0.653c0.108-0.068,0.24-0.063,0.344-0.138
		c0.271-0.195,0.183-0.469,0.688-0.482c0.032,0.05,0.117,0.096,0.138,0.138c0,0.068,0,0.138,0,0.206
		c0.027,0.058,0.146,0.102,0.172,0.172c0.073,0.201-0.119,0.34-0.069,0.482c0.019,0.052,0.148,0.107,0.172,0.172
		c0.067,0.183-0.041,0.738-0.069,0.826c0.044,0.1,0.199,0.153,0.241,0.241c0,0.091,0,0.183,0,0.275
		c0.035,0.104,0.153,0.126,0.103,0.24c-0.06,0.162-0.723,0.576-0.895,0.757c-0.322,0.021-0.357-0.116-0.688-0.137
		c-0.099,0.091-0.188,0.093-0.241,0.241c-0.108,0.171,0.059,0.48,0.069,0.722c0.072,0.039,0.063,0.049,0.172,0.069
		c0.085-0.084,0.169-0.103,0.344-0.104c0.088,0.082,0.158,0.074,0.206,0.207c0.012,0,0.023,0,0.035,0c0,0.011,0,0.022,0,0.034
		c-0.011,0-0.023,0-0.035,0c-0.052,0.175-0.588,0.905-0.722,1.032c0.021,0.06,0.007,0.034,0.035,0.069
		c0.083,0.122,0.22,0.193,0.413,0.206c0.393-0.377,0.864-0.67,1.238-1.065c0.532,0.012,0.561,0.359,0.895,0.516
		c0.145,0.068,0.538,0.057,0.653,0.137c0.232,0.163,0.108,0.395,0.551,0.413c0.133-0.111,0.622-0.351,0.859-0.206
		c0.124,0.076,0.221,0.262,0.344,0.344c0.202,0.134,0.302,0.104,0.481,0.275c-0.033,0.144-0.14,0.329-0.103,0.413
		c0.2,0.698,0.457,1.119,0.963,1.514c0.186,0.145,0.069,0.277,0.447,0.275c0.269-0.143,0.867,0.169,1.101,0.137
		c0.077-0.16,0.133-0.355,0.207-0.55c0.139-0.07,0.341-0.087,0.378-0.274c-0.373-0.489,0.438-1.165,0.757-1.307
		c0.212-0.095,0.427-0.02,0.516-0.241c0.328-0.542-0.185-0.749-0.035-1.204c0.035-0.104,0.162-0.209,0.207-0.31
		c0.114-0.257,0.131-0.494,0.241-0.757c0.032-0.077,0.142-0.16,0.172-0.241c0.113-0.301-0.033-0.665,0.138-0.963
		c0.214-0.375,0.618-0.614,0.791-1.031c0.202-0.487,0.001-1.28,0.275-1.686c0.07-0.105,0.161-0.099,0.309-0.138
		c0.305-0.079,0.36,0.172,0.447,0.414c0.023,0,0.046,0,0.069,0c0.039-0.072,0.049-0.063,0.069-0.172
		c-0.137-0.125-0.207-0.246-0.207-0.516c0.41-0.264,0.685-0.667,0.963-1.066c0.145-0.208,0.433-0.319,0.585-0.516
		c0.151-0.197,0.389-0.482,0.619-0.585c0.126-0.022,0.253-0.045,0.378-0.068c0.229-0.083,0.482-0.231,0.688-0.31
		c0.197-0.075,0.336-0.031,0.55-0.103c0.572-0.192,1.253-0.508,1.823-0.722c0.19-0.071,0.322-0.036,0.516-0.104
		c0.367-0.126,0.765-0.322,1.135-0.448c0.137-0.023,0.275-0.045,0.413-0.068c0.16-0.066,0.357-0.218,0.516-0.275
		c0.103-0.011,0.207-0.022,0.31-0.034c0.253-0.097,0.417-0.341,0.619-0.482c0.367-0.255,0.738-0.457,1.1-0.722
		c0.228-0.166,0.422-0.424,0.654-0.584c0.5-0.347,1.051-0.688,1.41-1.17c0.553-0.741,1.172-1.392,1.721-2.132
		c0.169-0.229,0.47-0.414,0.619-0.654c0.049-0.08,0.002-0.167,0.035-0.276c0.106-0.357,0.268-0.816,0.378-1.168
		c0-0.081,0-0.161,0-0.241c0.086-0.295,0.216-0.708,0.31-0.998c0.023-0.138,0.046-0.275,0.069-0.413
		c0.063-0.098,0.148-0.127,0.31-0.137c0.155,0.174,0.23,0.189,0.515,0.172c0.059-0.093,0.088-0.086,0.104-0.241
		c-0.17-0.249-0.326-1.069-0.206-1.41c0.062-0.177,0.161-0.202,0.172-0.516c-0.317-0.193-0.765-0.411-0.964-0.723
		c-0.151-0.237-0.17-0.627-0.275-0.893c-0.136-0.074-0.311-0.228-0.447-0.276c-0.092,0-0.183,0-0.275,0
		c-0.139-0.07-0.11-0.371-0.104-0.584c0.102-0.055,0.197-0.072,0.379-0.069c0.1,0.062,0.277-0.013,0.413,0.034
		c0.174,0.06,0.222,0.216,0.482,0.241c0.201-0.188,0.608-0.211,0.929-0.275C49.029,0.202,49.096,0.108,49.196,0
		c0.527-0.008,0.729,0.21,1.031,0.412c0.107,0.071,0.24,0.065,0.345,0.138c0.134,0.093,0.103,0.273,0.275,0.344
		c0.225,0.169,0.478,0.046,0.791,0.035c0.056,0.078,0.155,0.1,0.206,0.172c0.124,0.172,0.164,0.369,0.242,0.584
		c0.297,0.128,0.537,0.223,0.791,0.413c0.156,0.117,0.211,0.371,0.378,0.482c0.109,0.072,0.24,0,0.378,0.068
		c0.053,0.026,0.209,0.26,0.241,0.31c0.069,0.184,0.138,0.367,0.206,0.55c0,0.149,0,0.299,0,0.448
		C54.099,4,54.568,4.548,54.631,4.609c-0.012,0.274-0.179,0.451-0.034,0.653c0.035,0.112,0.062,0.135,0.172,0.172
		c0.045,0.033,0.622,0.189,0.688,0.172c0.111-0.029,0.221-0.156,0.344-0.104c0.158,0.085,0.084,0.225,0.173,0.379
		c0.062,0.106,0.257,0.183,0.344,0.275c0.132-0.028,0.247-0.028,0.378,0c0.029,0.049,0.062,0.098,0.104,0.137
		c-0.029,0.119-0.061,0.151-0.068,0.31c0.116,0.075,0.168,0.145,0.344,0.171c0.072-0.122,0.118-0.191,0.31-0.206
		c0.132,0.215,0.457,0.299,0.653,0.448c0.192,0.145,0.353,0.377,0.447,0.619c0.011,0.069,0.023,0.137,0.034,0.206
		C58.688,8.121,58.982,8.371,59,8.806c-0.176,0.121-0.248,0.35-0.276,0.619c0.188,0.1,0.814,0.505,0.964,0.447
		c0.214-0.065,0.384-0.189,0.653-0.206c0.163,0.182,0.576,0.568,0.653,0.791c-0.012,0.206-0.022,0.413-0.034,0.619
		c0.047,0.164,0.25,0.428,0.172,0.688c-0.08,0.269-0.343,0.336-0.378,0.654c0.202,0.205,0.408,0.355,0.723,0.446
		c0.119,0.035,0.135-0.034,0.205,0c0.183,0.127,0.207,0.432,0.413,0.516c0.041,0.028,0.058,0.027,0.138,0.035
		c0.088-0.086,0.295-0.276,0.413-0.31c0.229,0.023,0.459,0.046,0.688,0.068c0.152-0.061,0.121-0.213,0.414-0.241
		c0.27,0.262,0.788,0.12,1.169,0.138c0.042,0.077,0.118,0.248,0.206,0.275c0.162,0.052,0.197-0.083,0.275-0.103
		c0.068,0.011,0.137,0.023,0.206,0.035c0.078-0.02,0.542-0.124,0.619-0.172c0.152-0.098,0.234-0.338,0.413-0.413
		c0.191-0.081,0.367,0.066,0.619,0.069c0.052-0.095,0.117-0.251,0.206-0.31c0.068-0.045,0.13-0.002,0.172-0.069
		c0.057-0.089,0.018-0.182,0.069-0.275c0.084-0.156,0.643-0.54,0.859-0.585c0.211,0.375,0.592,0.432,1.102,0.551
		c0.034,0.091,0.068,0.182,0.103,0.275c0.13-0.033,0.193-0.066,0.379-0.069c0.066,0.139,0.24,0.414,0.378,0.481
		c0.095,0.038,0.153-0.075,0.24-0.103c0.015-0.005,0.654,0.062,0.758,0.068c0.069-0.124,0.176-0.324,0.31-0.378
		c0.12-0.049,0.289,0.019,0.378-0.034c0.121-0.141,0.082-0.333,0.31-0.379c0.212,0.195,0.43-0.062,0.653,0.069
		c0.162,0.056,0.186,0.202,0.311,0.275c0.057,0.011,0.113,0.022,0.171,0.035c0.114,0.059,0.18,0.176,0.275,0.24
		c0.068,0.023,0.138,0.046,0.206,0.069c0.223,0.153,0.245,0.414,0.551,0.516c0.074-0.068,0.157-0.071,0.31-0.069
		c0.086,0.148,0.513,0.436,0.723,0.448c0.087-0.081,0.25-0.101,0.413-0.104c0.079,0.058,0.159,0.115,0.24,0.172
		c0.046,0.059,0.045,0.128,0.104,0.172s0.164,0.045,0.206,0.103c0.023,0.103,0.046,0.207,0.068,0.31
		c0.076,0.14,0.291,0.144,0.379,0.31c0.117-0.037,0.132-0.079,0.275-0.103c0.095,0.097,0.173,0.104,0.206,0.275
		c-0.044,0.072-0.024,0.231-0.068,0.31c-0.22,0.387-0.554,0.758-0.792,1.135c-0.601,0.95-1.166,1.886-1.788,2.82
		c-0.216,0.324-0.432,0.663-0.654,0.998c-0.082,0.125-0.294,0.296-0.24,0.447c0.124,0.322,0.597,0.267,0.826,0.481
		c0.378-0.084,0.522-0.357,0.963-0.377c0.227,0.16,0.632,0.224,0.79,0.447c0.199,0.278,0.379,0.982,0.62,1.169
		c0.127,0.099,0.346,0.287,0.481,0.344c0.326,0.137,0.377-0.146,0.379,0.414c0.053,0.073,0.051,0.306,0,0.378
		c-0.065,0.196-0.249,0.345-0.379,0.482c-0.104,0-0.206,0-0.31,0c-0.1-0.111-0.23-0.324-0.378-0.378
		c-0.101,0.174-0.183,0.358-0.447,0.378c-0.232-0.235-0.677-0.308-0.688-0.757c0.048-0.076,0.019-0.112,0-0.206
		c-0.092,0.011-0.184,0.022-0.275,0.034c-0.063-0.026-0.13-0.222-0.206-0.138c-0.148,0.042-0.205,0.164-0.31,0.207
		c-0.138-0.012-0.275-0.023-0.413-0.035c-0.09,0.034-0.103,0.092-0.274,0.103c-0.055-0.107-0.139-0.246-0.241-0.206
		c-0.075,0.032-0.123,0.083-0.172,0.138c-0.152-0.035-0.418-0.147-0.517-0.103c-0.193,0.078-0.134,0.219-0.24,0.378
		c-0.055,0.082-0.676,0.804-0.723,0.826c-0.068,0-0.138,0-0.206,0c-0.117-0.059-0.128,0.056-0.275,0.034
		c-0.05-0.007-0.111-0.094-0.206-0.069c-0.068,0.019-0.12,0.154-0.173,0.172c-0.145,0.051-0.222-0.143-0.378-0.103
		c-0.075,0.019-0.136,0.107-0.24,0.137c-0.062-0.099-0.084-0.124-0.241-0.137c-0.061,0.142-0.098,0.243-0.275,0.275
		c-0.236,0.156-0.427-0.094-0.757,0c-0.125,0.036-0.206,0.164-0.31,0.206c-0.22,0.092-0.454,0.128-0.688,0.172
		c-0.135,0.026-0.178-0.05-0.241-0.068c-0.158-0.046-1.013,0.059-1.135,0.103c-0.149,0.054-0.254,0.26-0.379,0.344
		c-0.147,0.1-0.333,0.106-0.48,0.206c-0.15,0.103-0.264,0.312-0.413,0.414c-0.104,0.034-0.206,0.068-0.31,0.103
		c-0.108,0.065-0.225,0.232-0.344,0.275c-0.216,0.076-0.43-0.037-0.585,0.069c-0.162,0.109-0.096,0.354-0.207,0.516
		c-0.011,0-0.022,0-0.034,0c-0.026,0.033-0.593,0.472-0.619,0.481c-0.094,0.035-0.169-0.01-0.241,0.035
		c-0.177,0.11-0.249,0.374-0.412,0.481c-0.192,0.126-0.334-0.047-0.585,0.035c-0.104,0.033-0.206,0.17-0.31,0.207
		c-0.274,0.094-0.453,0.014-0.516,0.309c0.275,0.426-0.261,1.161-0.344,1.479c-0.049,0.185,0.078,0.343,0.103,0.447
		c0.034,0.146-0.207,0.959-0.274,1.067c-0.159,0.253-0.369,0.515-0.551,0.756c-0.081,0.07-0.16,0.138-0.241,0.207
		c-0.123,0.181-0.118,0.431-0.241,0.619c-0.109,0.168-0.22,0.227-0.24,0.516c0.261,0.27,0.247,0.451,0.378,0.86
		c0.218,0.68,0.294,1.078-0.171,1.617c-0.254,0.293-0.659,0.015-0.998,0.206c-0.289,0.163-0.526,0.475-0.791,0.654
		c-0.127,0.045-0.252,0.092-0.379,0.137c-0.256,0.167-0.497,0.514-0.722,0.723c-0.046,0.023-0.092,0.045-0.138,0.068
		c-0.012,0.115-0.023,0.23-0.034,0.345c-0.067,0.237-0.202,0.539-0.241,0.791c0.176,0.174,0.506,0.791,0.517,1.135
		c-0.087,0.078-0.161,0.235-0.275,0.275c-0.184,0-0.367,0-0.551,0c-0.094,0.033-0.185,0.165-0.275,0.207
		c-0.147,0.069-0.127-0.041-0.172,0.138c0.165,0.234-0.15,0.512-0.206,0.756c0.338,0.196,0.486,0.584,0.792,0.791
		c0.226,0.154,0.585,0.097,0.688,0.378c0.053,0.08,0.037,0.279,0.033,0.414c-0.057,0.081-0.114,0.161-0.171,0.241
		c-0.139,0.085-0.179,0.005-0.241,0.172c0.011,0,0.022,0,0.035,0c0.142,0.197,0.48,0.215,0.618,0.412
		c0.124,0.179,0.287,0.484,0.344,0.688c0,0.126,0,0.253,0,0.378c0.032,0.092,0.16,0.133,0.207,0.207
		c0.045,0.194,0.092,0.39,0.138,0.584c0.205,0.123,0.847,0.454,0.929,0.653c0.132,0.167,0.078,0.367,0.068,0.62
		c0.123,0.095,0.183,0.297,0.31,0.378c0.265,0.17,0.535,0.056,0.723,0.344c0.054,0.084,0.026,0.178,0.068,0.275
		c0.064,0.15,0.273,0.467,0.379,0.62c0.066,0.097,0.176,0.103,0.274,0.172c0.279,0.195,0.503,0.861,0.344,1.273
		c-0.012,0.033-0.482,0.596-0.516,0.619c-0.099,0.069-0.208,0.075-0.274,0.172c-0.034,0.091-0.069,0.183-0.104,0.275
		C60.688,50.934,60.584,50.859,60.547,51.081z"/>
</g>
<g id="Layer_1">
</g>
</svg>
