<?xml version="1.0" encoding="iso-8859-1"?>
<!-- Generator: Adobe Illustrator 16.0.3, SVG Export Plug-In . SVG Version: 6.00 Build 0)  -->
<!DOCTYPE svg PUBLIC "-//W3C//DTD SVG 1.1//EN" "http://www.w3.org/Graphics/SVG/1.1/DTD/svg11.dtd">
<svg version="1.1" xmlns="http://www.w3.org/2000/svg" xmlns:xlink="http://www.w3.org/1999/xlink" x="0px" y="0px" width="100px"
	 height="100px" viewBox="0 0 100 100" style="enable-background:new 0 0 100 100;" xml:space="preserve">
<g id="PH">
	<g>
		<ellipse cx="51.468" cy="0.661" rx="0.341" ry="0.395"/>
		<path d="M52.312,5.402c0.107-0.646,0.179-1.006,0.251-1.329c0.07-0.324,0.252-0.395,0.538-0.683
			c0.288-0.288,0.36-0.647,0.36-1.149c0-0.502-0.54-0.862-0.828-0.934c-0.287-0.071-0.861-0.035-0.896,0.539
			c-0.036,0.575-0.467,0.646-0.753,0.646c-0.288,0-0.9-0.431-1.69-0.79c-0.79-0.359-1.796-0.862-2.694-1.113
			c-0.897-0.252-1.579-0.396-2.262-0.252c-0.683,0.144-1.113,0.395-1.58,0.18c-0.468-0.215-0.719-0.826-1.042-0.323
			c-0.323,0.503-0.216,0.575-0.646,0.575c-0.431,0-0.683-0.072-0.683,0.718s0.073,1.005-0.144,1.293
			c-0.215,0.287-0.287,0.898-0.43,1.581c-0.144,0.682-0.324,1.795-0.538,2.226c-0.217,0.431-0.252,1.113,0.035,1.544
			c0.287,0.431,0.359,1.078,0.143,1.652c-0.216,0.574-0.035,0.969,0.144,1.436c0.18,0.466,0.073,0.862-0.216,1.221
			c-0.287,0.359-0.538,0.827-0.502,1.222c0.036,0.395-0.215,0.718-0.323,0.969c-0.107,0.251-0.072,1.185,0.144,1.58
			c0.215,0.396-0.072,1.114-0.287,1.582c-0.215,0.466-0.934,0.681-1.257,0.395c-0.324-0.287-0.324-0.862-0.575-0.862
			c-0.251,0-0.646,0.468-0.646,0.251c0-0.216,0.071-0.61,0.215-0.825c0.143-0.215-0.467-0.575-0.719,0
			c-0.251,0.574-0.358,1.544-0.538,1.903c-0.181,0.358-0.324,1.114-0.073,1.149c0.252,0.036,0.684-0.432,0.862-0.215
			c0.18,0.215,0.036,0.826,0,1.436c-0.035,0.61,0,1.617,0.323,2.622c0.323,1.005,0.934,1.544,1.077,2.298
			c0.144,0.754-0.287,1.976,0.144,2.19c0.432,0.217,0.503,0.252,0.792-0.071c0.286-0.324,0.322-0.754,0.61-0.395
			c0.287,0.358,0.036,0.503,0,0.789c-0.036,0.289-0.072,0.684,0.287,0.684c0.361,0,0.612,0.215,0.647,0.682
			c0.035,0.467,0.646,0.647,0.863,0.539c0.214-0.107,0.79-0.396,0.573-0.969c-0.216-0.576-0.61-1.186-0.359-1.438
			c0.252-0.25,0.575,0.072,1.148,0c0.575-0.072,1.509,0.144,1.652,0.575c0.144,0.431-0.214,0.719-0.538,0.826
			c-0.323,0.108-0.683,0.718-0.575,1.077c0.108,0.359-0.25,1.042-0.467,1.042c-0.215,0-0.61,0.215-0.719,0.324
			c-0.108,0.107-0.537,0.969-0.143,1.221c0.396,0.25,0.18,0.574,0.072,0.897c-0.108,0.324,0.036,0.97,0.323,0.97
			c0.287,0,0.502-0.467,0.575-0.575c0.071-0.106,0.573-0.503,0.79,0.144c0.214,0.647,0.323,1.221,0.897,1.401
			c0.576,0.18,2.011,0.359,2.73,0.215c0.719-0.144,0.934-0.431,1.365-0.862c0.432-0.431,1.4-1.042,2.228-0.683
			c0.826,0.36,1.365,0.324,2.011,0.683c0.645,0.359,0.933,1.006,1.041,1.186c0.108,0.18,0.863,0.288,1.293,0.935
			c0.431,0.645,0.215,1.795,0.647,1.795c0.429,0,1.003,0.215,1.184-0.037c0.18-0.251,0.396-0.862,0.107-1.293
			c-0.288-0.431-0.502-0.215-0.825-1.22c-0.323-1.006-0.861-1.976-0.609-2.228c0.25-0.251,0.824-0.503,1.004-0.071
			c0.181,0.431,0.217,0.898,0.754,0.898c0.54,0,0.575,0.323,0.648,0.753c0.069,0.431,0.968,0.827,1.435,1.042
			c0.469,0.214,1.15,0.79,1.186,1.149c0.037,0.358,0.107,0.682,0.54,0.969c0.431,0.288,0.035,1.148,0.358,1.148
			s0.897-0.143,1.256,0.432s0.683,0.682,1.293,0.575c0.611-0.108,2.012-0.431,2.12-0.108c0.108,0.323-0.144,0.288-0.575,0.646
			c-0.431,0.358-0.934,0.718-0.25,1.041c0.682,0.324,1.292,1.15,1.472,0.647c0.179-0.503,0.286-1.508,0.323-1.868
			c0.037-0.358,0.324-0.286,0.468-0.897c0.143-0.61,0.107-0.539-0.107-0.539c-0.218,0-0.756,0.466-0.793,0.036
			c-0.035-0.431-0.501-0.969-1.112-0.502c-0.611,0.466-0.789,0.358-0.719-0.215c0.072-0.575,0.36-0.539,0.035-1.007
			c-0.321-0.465-0.646-0.609-0.646-0.609s-0.43-0.791-0.826-0.97c-0.393-0.18-0.393-1.293,0.072-1.436
			c0.466-0.145,1.904,0.07,1.904-0.324s-0.54-0.179-0.755-0.467c-0.214-0.287-0.719-0.502-0.97-0.465
			c-0.252,0.036-0.645-0.252-0.683-0.432c-0.035-0.179-0.466-0.286-0.79-0.144c-0.322,0.144-0.862-0.287-0.862-0.538
			s-0.754-0.036-0.466,0.718c0.287,0.754,0.143,1.329-0.395,1.329c-0.539,0-0.935,0.179-0.935-0.79c0-0.97-0.359-1.795-0.825-2.37
			c-0.468-0.574-0.862-0.934-1.581-0.753c-0.718,0.179-1.04,0.071-1.4-0.037c-0.358-0.107-1.041,0.108-1.041,0.467
			c0,0.36,0.107,0.898-0.216,0.898c-0.324,0-0.469-0.97-0.789-0.647c-0.326,0.324-0.253,0.431,0.142,1.114
			c0.396,0.682-0.286,1.186-1.112,0.682c-0.826-0.502-2.228-0.969-2.335-1.33c-0.108-0.358-0.108-0.861-0.431-1.436
			c-0.323-0.575-0.683-0.934-0.467-1.688c0.215-0.754-0.216-1.185-0.216-1.724c0-0.539-0.575-0.898-0.537-1.653
			c0.035-0.753-0.898-0.897-0.898-1.616c0-0.718,0.431-1.724,0.934-2.333c0.502-0.611,0.538-1.006,0.287-1.257
			c-0.252-0.25-0.322-0.934,0-1.437c0.323-0.502,0.969-0.718,1.4-1.041c0.432-0.323,1.114-0.358,1.653-0.575
			c0.539-0.217,0.574,0.036,0.968-0.217c0.396-0.25,0.575-1.579,0.684-2.225c0.108-0.647,0.825-1.474,1.077-2.047
			c0.252-0.575,0.79-1.652,0.396-2.119c-0.396-0.468-0.467-0.361-0.467-0.683s0.395-1.042,0-1.15
			c-0.396-0.107-1.006,0.074-1.185-0.358c-0.181-0.432-0.108-1.293-0.325-1.544c-0.214-0.252-0.285-0.791-0.285-1.114
			C52.241,5.832,52.312,5.402,52.312,5.402z"/>
		<path d="M50.746,26.112c-0.576,0.024-1.126-0.119-0.936,0.407c0.192,0.526,0.814,0.383,0.814,1.078s-0.001,1.028,0.382,1.028
			c0.385,0,0.527-0.717,0.358-1.004c-0.167-0.288-0.07-0.647,0.098-0.934C51.631,26.398,50.746,26.112,50.746,26.112z"/>
		<path d="M52.108,27.237c-0.303,0.201,0.001,0.693,0.238,0.814c0.241,0.12,0.48,0.071,0.674-0.095
			c0.19-0.168-0.219-0.431-0.479-0.575C52.278,27.237,52.204,27.175,52.108,27.237z"/>
		<path d="M51.224,31.883c-0.432,0.099,0,0.719,0.407,1.029c0.405,0.312,0.838,0.6,1.006,0.431c0.165-0.167-0.168-0.719-0.601-1.006
			C51.605,32.05,51.452,31.831,51.224,31.883z"/>
		<path d="M51.392,37.007c-0.36-0.168-0.79-0.575-1.054-0.384c-0.264,0.191,0.095,0.479,0.023,0.934
			c-0.073,0.455-0.143,0.718-0.023,0.981c0.118,0.264,0.406,0.24,0.742,0.407c0.335,0.167,0.407,0.502,0.621,0.382
			c0.217-0.119,0.383-0.573,0.527-1.005s0.215-0.767-0.192-1.006C51.631,37.078,51.392,37.007,51.392,37.007z"/>
		<path d="M52.135,42.824c-0.285-0.226-1.08,0.215-0.96,0.766s-0.072,1.078-0.383,1.294c-0.311,0.214-0.217,0.238-0.073,0.813
			c0.144,0.575,0.049,0.981,0.361,0.981s0.621-0.454,0.646-1.1c0.024-0.646,0.6-1.27,0.647-1.628
			C52.42,43.59,52.358,43.004,52.135,42.824z"/>
		<path d="M44.854,37.676c-0.729-0.249-0.695-0.311-1.102-0.502c-0.408-0.191-0.957-0.216-1.246,0.024
			c-0.286,0.239-0.597,0.263-0.884,0.096c-0.288-0.168-0.48-0.121-1.03-0.072c-0.549,0.047-1.126-0.144-1.34,0.382
			c-0.216,0.528-0.407,0.743,0.167,0.743c0.575,0,0.597-0.287,1.053,0.215c0.456,0.503,0.264,0.838,0.719,0.91
			c0.455,0.073,1.005,0.863,0.909,1.485c-0.095,0.623-0.166,1.269,0.168,1.484c0.335,0.216,0.909,0.863,1.053,1.197
			c0.146,0.335,0.217,0.383,0.503,0.575c0.288,0.193,0.383,0.694,0.408,0.791c0.024,0.095,0.382,0.119,0.55,0.119
			c0.168,0,0.336,0,0.456,0.407c0.119,0.406,0.214,0.455,0.407,0.431c0.19-0.025,0.741-0.406,0.909-0.406
			c0.168,0,0.838,0.261,0.838-0.263c0-0.527-0.023-1.006,0.167-1.39c0.191-0.383,0.287-0.958,0.216-1.389
			c-0.073-0.431-0.215-1.316,0.12-1.627c0.336-0.312,0.79-0.838,0.6-1.078c-0.193-0.24-0.623,0.024-0.814-0.192
			s-0.334-1.077-0.934-1.34c-0.599-0.263-0.958-0.359-1.198-0.431C45.309,37.772,45.023,37.734,44.854,37.676z"/>
		<path d="M54.215,49.672c-0.317-0.205-1.125-0.383-1.315-0.741c-0.192-0.359-1.245-0.719-1.701-0.695
			c-0.453,0.023-0.837,0-0.765,0.287c0.071,0.287,0.239,0.265,0.142,0.48c-0.094,0.215-0.119,0.479,0.144,0.479
			c0.265,0,1.031,0.096,1.174,0.646c0.143,0.55,0.287,1.557,0,1.916c-0.288,0.358-0.358,0.671-0.216,1.053
			c0.144,0.384,0.096,1.245,0.096,1.892c0,0.646-0.072,0.814-0.334,1.173c-0.265,0.36-0.431,0.887-0.312,1.149
			s0.096,0.813-0.024,1.054c-0.119,0.239-0.072,0.957,0.262,0.862c0.336-0.097,0.815-0.766,1.271-0.958
			c0.453-0.192,1.53-0.311,1.891-0.575c0.359-0.263,1.316-0.311,1.892-0.886c0.575-0.573,0.621-0.741,0.621-1.028
			c0-0.288,0.241-0.935,0.912-1.078c0.668-0.145,1.028-1.029,1.053-1.293c0.023-0.264,0.479-0.479,0.502-1.341
			c0.024-0.861,0-1.484-0.358-1.389c-0.36,0.096-0.838,0.576-0.981,0.718c-0.144,0.144-0.599,0.24-0.599-0.095
			c0-0.336-0.382-0.814-0.767-0.719c-0.383,0.095-0.718,0.431-0.934,0.359c-0.217-0.071-0.646-0.287-0.958-0.215
			c-0.312,0.072-0.335-0.288-0.335-0.48C54.575,50.055,54.358,49.764,54.215,49.672z"/>
		<path d="M55.413,43.95c-0.396-0.209-1.246-0.072-1.246,0.216c0,0.286,0.552,0.624,0.886,0.886c0.336,0.263,0.84,0.646,0.84-0.024
			C55.893,44.356,55.673,44.088,55.413,43.95z"/>
		<path d="M58.143,39.616c-0.396,0.142-0.456,0.528,0.789,1.628c1.247,1.102,1.295,1.149,1.508,0.934
			c0.217-0.215-0.046-0.934-0.836-1.58c-0.789-0.647-0.789-0.743-0.789-0.743S58.311,39.556,58.143,39.616z"/>
		<path d="M60.227,43.232c-0.496,0.179-0.266,0.838-0.266,1.219c0,0.386-0.214,0.864-0.357,1.103
			c-0.144,0.238-0.002,0.454,0.239,0.454c0.238,0,0.19,0.361,0,0.838c-0.192,0.48-0.598,1.15-0.239,1.223
			c0.357,0.07,0.694-0.646,0.933-1.006c0.24-0.36,0.934-0.861,1.365-0.982c0.432-0.12,0.646,0.168,0.766,0.598
			c0.12,0.431,0.382,0.743,0.694,0.768c0.312,0.023,0.768,0.407,0.624,0.669c-0.145,0.264,0.575,0.12,0.693,0.12
			c0.12,0,0.408,0.216,0.479,0.624c0.072,0.406,0,0.406,0.575,0.358c0.575-0.048,0.575-0.503,0.455-0.958
			c-0.119-0.456-0.238-0.981-0.694-1.508c-0.456-0.526-0.599-0.886-1.055-0.886c-0.453,0-0.694-0.047-0.694-0.047
			s0.145-0.647,0.072-0.814c-0.072-0.167-0.357-0.6-0.718-0.576c-0.358,0.024-0.455,0-0.455,0s-0.216-0.238-0.358-0.238
			c-0.145,0-0.479-0.526-0.886-0.431c-0.407,0.096-0.6,0.358-0.696-0.049C60.607,43.304,60.385,43.173,60.227,43.232z"/>
		<path d="M62.667,42.681c-0.379,0.101-0.214,0.718,0.098,1.029c0.31,0.312,0.694,0.814,0.934,0.646
			c0.238-0.167,0-0.668-0.169-1.124C63.361,42.776,62.914,42.616,62.667,42.681z"/>
		<path d="M67.743,33.32c-0.125-0.189-0.598-0.647-1.053-0.576c-0.455,0.072-0.503,0.599-0.432,0.839
			c0.073,0.239-0.191,1.125-0.382,1.436c-0.192,0.312-0.312,1.366,0.168,1.701c0.478,0.334,1.483,0.023,1.914-0.624
			s0.359-1.268,0.215-1.818C68.031,33.726,67.889,33.538,67.743,33.32z"/>
		<path d="M74.615,44.07c-0.353-0.304-0.862-0.6-1.197-0.551c-0.336,0.046-0.621,0.502-0.957,0.19
			c-0.337-0.311-0.814-0.478-0.982-0.095c-0.168,0.383-0.766,0.263-1.101,0.263c-0.336,0-0.912,0.193-1.271,0.048
			c-0.358-0.145-1.054-0.622-1.076,0.048c-0.024,0.67,0.096,2.107,0.431,2.441c0.336,0.335,0.887,0.91,1.413,1.174
			c0.526,0.264,0.91,0.814,1.006,1.028c0.096,0.217,0.503,0.337,0.693,0.337c0.191,0,0.479,0.502,0.719,0.478
			c0.239-0.024,0.719-0.167,0.719,0.122c0,0.287-0.359,0.526-0.479,0.717c-0.12,0.192-0.694,0.887-0.503,1.055
			c0.192,0.166,0.768,0.167,0.862,0.693c0.096,0.526,0.216,1.389,0.479,1.389s0.646,0.24,0.743,0.454
			c0.095,0.216,0.453,0.264,0.812,0.264c0.36,0,0.479,0.337,0.791,0.337c0.312,0,0.646-0.36,1.053-0.36c0.408,0,0.958,0,1.101,0.216
			c0.144,0.215,0.575,0.118,0.337-0.336c-0.239-0.454-0.527-0.718-0.814-0.646c-0.288,0.072-0.623-0.286-0.334-0.456
			c0.286-0.167,0.524-0.263,0.236-0.453c-0.285-0.191-0.692-0.526-0.908-0.767c-0.215-0.239-0.335-0.669-0.215-0.862
			c0.12-0.192,0-0.504-0.216-0.838c-0.215-0.335-0.072-0.479-0.022-1.125c0.045-0.646,0.118-1.078-0.025-1.484
			c-0.144-0.408,0.096-0.575,0.144-0.886c0.047-0.312-0.167-0.529-0.525-0.672c-0.36-0.143-0.553-0.526-0.553-0.933
			C74.974,44.451,74.78,44.21,74.615,44.07z"/>
		<path d="M72.987,54.029c-0.275-0.698-0.431-1.531-0.838-1.724c-0.407-0.191-0.959-0.072-1.173,0.096
			c-0.216,0.167-0.909,0.215-1.245-0.072c-0.336-0.286-1.15-1.268-1.484-1.196c-0.336,0.072-0.743,0.743-0.36,1.148
			c0.383,0.407,0.862,0.84,0.862,1.533s-0.072,1.531,0.383,1.531s0.839-0.573,1.102-0.145c0.263,0.432,0.478,1.15,0.887,1.438
			c0.407,0.288,0.238,1.198,0.096,1.413c-0.145,0.216-0.359,1.461-0.192,1.581c0.167,0.118,0.263,0.599,0.167,1.054
			c-0.095,0.453,0.888,1.291,1.199,1.243c0.31-0.047,0.476-0.359,0.31-0.981c-0.167-0.623-0.048-0.957,0.218-0.933
			c0.263,0.023,0.766,0.575,0.931,0.575c0.169,0,0.841-0.145,0.743-0.479c-0.096-0.336-0.526-0.814-0.526-1.412
			c0-0.6,0-1.127-0.479-1.39c-0.478-0.263-1.102-0.551-0.718-1.124c0.383-0.575,0.503-0.768,0.383-1.271
			C73.131,54.412,73.072,54.245,72.987,54.029z"/>
		<path d="M64.943,53.861c-0.437-0.22-0.361,0.814-0.361,1.317s-0.19,2.083-0.453,2.585c-0.263,0.504-0.79,1.652-1.222,2.323
			c-0.431,0.67-1.125,1.628-1.125,2.298c0,0.671-0.215,1.391-0.383,1.701s-0.433,2.347-0.12,2.369
			c0.311,0.023,0.837-0.67,1.078-1.771c0.238-1.102,0.694-1.845,1.102-2.371c0.407-0.525,1.315-1.268,1.82-1.866
			c0.502-0.6,0.956-1.988,0.812-3.16c-0.143-1.174-0.117-2.038-0.406-2.514C65.35,54.221,65.152,53.968,64.943,53.861z"/>
		<path d="M68.532,61.308c-0.339-0.277-1.459,0.12-1.746,0.335c-0.288,0.217-0.527,0.67-0.741,0.838
			c-0.217,0.168-0.84,0.838-1.271,0.861c-0.431,0.026-0.813,0.646-0.336,1.15c0.48,0.503,1.055,1.055,2.06,0.959
			c1.006-0.097,2.179-0.599,2.274-0.791c0.097-0.192,0.216-0.574,0.647-0.552c0.431,0.025,0.623-0.022,0.384-0.357
			c-0.24-0.337,0.023-0.622,0.023-0.958c0-0.337-0.384-0.646-0.72-0.886C68.772,61.667,68.693,61.441,68.532,61.308z"/>
		<path d="M61.015,60.446c0.385-0.766,0.96-1.724,1.15-2.299c0.192-0.575,0.335-1.485,0.192-1.938
			c-0.144-0.456-0.265-0.838-0.72-0.838s-0.765,0.215-0.981-0.119c-0.217-0.337-0.718-0.432-0.982-0.193
			c-0.263,0.241-0.382,0.456-0.765,0.456c-0.385,0-0.552,0.142-0.552,0.551c0,0.406-0.405,0.525-0.405,0.669
			s-0.073,0.695-0.05,0.934c0.024,0.241-0.023,0.695-0.311,0.838c-0.289,0.145-0.358,0.552-0.311,0.768
			c0.048,0.215,0.095,0.55,0.287,0.838c0.19,0.288-0.001,0.766-0.167,1.054c-0.168,0.287-0.216,0.838-0.647,1.388
			c-0.431,0.55-0.861,0.647-1.174,0.479c-0.312-0.166-0.933-0.503-1.005,0.145c-0.072,0.646-0.12,1.316,0.095,1.724
			c0.217,0.407,0.575,0.741,0.575,1.148s0.864,0.887,1.271,1.03c0.406,0.145,1.339,0.358,1.387,0.79
			c0.05,0.432,0.479,0.934,0.862,1.078c0.384,0.144,1.102,0.311,1.414-0.072c0.31-0.385,0.668-1.005,0.621-1.556
			c-0.046-0.552-0.406-0.527-0.573-1.029c-0.169-0.504-0.36-1.173-0.216-2.133c0.144-0.956,0.334-2.06,0.549-2.632
			C60.776,60.948,61.015,60.446,61.015,60.446z"/>
		<path d="M78.254,60.351c0-0.718,0.24-1.173-0.071-1.293c-0.312-0.12-0.431,0.19-0.694,0.382c-0.264,0.193-0.479,0.169-0.43,0.624
			c0.046,0.455-0.145,0.503-0.241,0.718c-0.095,0.216-0.288,0.601,0.287,0.934c0.575,0.335,0.599,0.407,0.84,0.861
			c0.238,0.455,0.646,0.503,0.646,0.049c0-0.455-0.24-0.67-0.265-1.245C78.303,60.805,78.254,60.351,78.254,60.351z"/>
		<path d="M73.97,61.284c-0.273,0.125-0.145,0.6,0.095,0.934c0.239,0.335,0.599,0.647,0.743,0.479
			c0.144-0.168,0.166-0.358-0.145-0.959C74.352,61.14,74.158,61.197,73.97,61.284z"/>
		<path d="M68.391,49.577c-0.372,0.166-0.095,0.478,0.358,1.005c0.456,0.528,0.599,0.623,0.838,0.431
			c0.24-0.19-0.023-0.743-0.382-1.101C68.845,49.553,68.592,49.486,68.391,49.577z"/>
		<path d="M63.793,52.688c-0.287-0.024-0.502,0.264-0.479,0.671c0.024,0.408,0.384,0.527,0.526,0.431
			c0.145-0.096,0.263-0.479,0.239-0.766C64.057,52.736,63.903,52.699,63.793,52.688z"/>
		<path d="M66.69,52.568c-0.104-0.427-0.79-0.07-1.006,0.193c-0.215,0.263-0.359,0.573-0.24,0.812
			c0.12,0.24,0.623,0.097,0.958-0.167C66.738,53.144,66.743,52.784,66.69,52.568z"/>
		<ellipse cx="60.884" cy="51.443" rx="0.348" ry="0.359"/>
		<ellipse cx="60.909" cy="50.293" rx="0.155" ry="0.192"/>
		<ellipse cx="60.262" cy="52.762" rx="0.204" ry="0.19"/>
		<ellipse cx="59.782" cy="53.958" rx="0.179" ry="0.191"/>
		<path d="M70.713,50.127c-0.27,0.074-0.334,0.432-0.095,0.886c0.238,0.455,0.692,0.24,0.74,0.169c0.049-0.071,0-0.576-0.191-0.839
			C70.977,50.08,70.835,50.094,70.713,50.127z"/>
		<path d="M69.804,56.746c0,0.126-0.099,0.229-0.217,0.229s-0.215-0.103-0.215-0.229c0-0.123,0.097-0.226,0.215-0.226
			S69.804,56.623,69.804,56.746z"/>
		<circle cx="68.976" cy="57.515" r="0.204"/>
		<ellipse cx="67.936" cy="57.645" rx="0.24" ry="0.216"/>
		<path d="M70.162,61.776c0,0.138-0.101,0.249-0.227,0.249s-0.229-0.111-0.229-0.249c0-0.141,0.103-0.252,0.229-0.252
			S70.162,61.636,70.162,61.776z"/>
		<ellipse cx="64.295" cy="65.547" rx="0.287" ry="0.215"/>
		<ellipse cx="76.099" cy="58.423" rx="0.263" ry="0.276"/>
		<ellipse cx="72.33" cy="67.006" rx="0.444" ry="0.551"/>
		<ellipse cx="63.291" cy="68.421" rx="0.646" ry="0.381"/>
		<ellipse cx="61.829" cy="70.67" rx="0.191" ry="0.167"/>
		<ellipse cx="71" cy="68.287" rx="0.55" ry="0.419"/>
		<circle cx="69.372" cy="67.964" r="0.192"/>
		<ellipse cx="65.816" cy="60.385" rx="0.204" ry="0.229"/>
		<path d="M56.49,57.574c-0.285-0.189-1.101,0.118-1.101,0.406c0,0.287-0.337,1.101,0.047,1.269s0.863-0.072,1.126-0.359
			c0.264-0.287,0.264-0.525,0.215-0.812C56.73,57.789,56.611,57.653,56.49,57.574z"/>
		<path d="M63.912,76.774c-0.406-0.014,0.071-0.981,0.455-1.339c0.384-0.359,0.407-0.838,0.193-1.365
			c-0.217-0.527-0.432-1.054-0.648-1.701c-0.214-0.646-0.526-1.005-1.389-0.838c-0.861,0.168-1.27,0.358-1.46,0.838
			s-0.957,0.454-1.173,0.454c-0.217,0-0.719,0.025-0.719,0.575c0,0.552-0.095,0.407-0.214,0.575
			c-0.122,0.168-0.288,0.79-0.097,0.935c0.19,0.143-0.12,0.479-0.479,0.813c-0.359,0.334-0.647,0.551-1.054,0.191
			c-0.407-0.359-1.15-0.239-1.532-0.022c-0.384,0.214-1.941,1.124-2.371,1.482c-0.432,0.361-0.862,0.958-0.767,1.724
			c0.095,0.769-0.43,1.797-0.67,2.133c-0.239,0.334-0.909,1.676-0.861,2.25c0.047,0.573,0.383,1.866,0.646,2.012
			c0.263,0.143,1.126,0.19,1.197-0.526c0.073-0.719,0.479-1.365,0.789-2.156c0.312-0.791,1.293-2.969,2.229-3.496
			c0.934-0.526,1.557-0.622,1.676-0.263c0.118,0.359,0.118,1.125,0.071,1.364c-0.049,0.24,0.191,0.407,0.742,0.407
			s1.006,0.12,1.006-0.525c0-0.647,0.12-1.031,0.383-1.031c0.265,0,0.408,0.503,0.408,0.886c0,0.384,0.287,0.814,0.55,1.031
			c0.263,0.214,1.102,0.501,1.341,0.119c0.239-0.384,0.023-0.767-0.048-0.981c-0.071-0.216,0.145-0.312,0.192-0.839
			c0.048-0.527,0.216-1.077,0.884-1.077c0.673,0,0.91,0.456,1.078,0.456c0.167,0,0.766-0.239,1.533,0.382
			c0.766,0.624,1.411,1.364,1.341,2.465c-0.072,1.103-0.599,1.629-0.743,1.917c-0.144,0.287-0.775,1.145-0.478,1.628
			c0.19,0.311,0.429,1.196,0.383,1.915c-0.049,0.718-0.145,1.174,0.239,1.557c0.382,0.384,0.55,0.431,0.743,0.982
			c0.19,0.551,0.525,0.837,0.813,0.981c0.286,0.143,1.028,0.312,1.46,0.263s0.646,0.143,1.627,0.646
			c0.982,0.504,1.629,0.959,2.155,0.959c0.527,0,0.624-0.623,0.887-1.032c0.263-0.405,0.767-1.053,1.269-0.884
			c0.503,0.168,0.311,1.125,0,1.389s-0.478,0.91-0.095,1.124c0.382,0.217,0.405,0.455,0.405,0.838c0,0.384,0.697,0.479,1.03,0.12
			c0.336-0.358,1.197-1.246,1.557-1.844c0.359-0.597,0.766-1.986,0.215-2.896c-0.551-0.91-1.363-1.679-1.724-2.419
			c-0.36-0.741-0.048-1.893,0.385-2.515c0.431-0.622,0.908-1.484,1.53-2.202c0.624-0.719,0.983-1.197,1.126-1.174
			c0.146,0.023,0.311,0.646,0.311,1.077c0,0.431,0.36,1.533,0.623,1.867c0.265,0.337,0.623,0.934,0.934,1.39
			c0.312,0.455,0.622,0.909,0.815,1.604c0.19,0.694,0.239,1.052,0.55,1.389c0.311,0.335,0.527,0.598,0.766,0.573
			c0.239-0.022,0.098-0.766,0.098-1.196s0.142-0.957,0.263-1.508c0.12-0.551,0.213-1.27-0.098-1.652
			c-0.31-0.383-0.455-0.837-0.215-0.91c0.24-0.071,0.91,0.048,1.078-0.215c0.168-0.265,0.31-1.008,0.288-2.491
			c-0.025-1.482-0.025-2.514-0.576-2.562c-0.55-0.048-1.413-0.216-1.268-0.934c0.143-0.719,0.669-1.509,0.669-2.298
			c0-0.79-0.215-2.107-0.766-2.394c-0.55-0.289-1.174-0.025-1.437-0.096c-0.263-0.072-0.693-0.816-0.382-1.055
			c0.31-0.238,0.956-0.743,1.1-0.934c0.144-0.191,0.144-0.742-0.166-1.148c-0.312-0.409-0.72-1.031-0.647-1.414
			c0.072-0.384,0.192-0.885-0.286-0.98c-0.479-0.097-0.647,0.334-0.911,0.262c-0.264-0.07-0.358-1.029-0.814-1.508
			c-0.455-0.478-0.836-0.645-1.438-0.692c-0.596-0.049-0.909-0.527-1.052-0.576c-0.145-0.05-0.922-0.827-1.282-0.754
			c-0.358,0.07,0.107,0.897,0.18,1.328c0.071,0.431,0.288,1.401,0.323,2.155c0.036,0.754,0.18,1.867,0.18,1.867
			s-0.538-0.144-0.934,0.037c-0.395,0.179-0.683-0.289-0.79-0.433c-0.108-0.146-0.647-0.431-0.683,0.108
			c-0.035,0.538-0.287,1.365-0.646,1.292c-0.358-0.071-0.468-1.148-1.114-1.148c-0.647,0-1.293,0.539-1.293,1.148
			c0,0.61,0,1.616,0,2.19c0,0.575,0.073,0.863-0.287,0.934c-0.358,0.073-0.79-0.321-1.221-0.537c-0.431-0.215-0.97-0.718-1.544,0
			c-0.575,0.719-0.61,0.791-0.79,1.472c-0.182,0.682-0.61,0.971-0.971,0.971c-0.358,0-0.825,0.072-1.329,0.502
			C64.667,76.224,64.311,76.789,63.912,76.774z"/>
		<path d="M53.102,86.459c-0.475-0.111-0.97-0.07-1.256,0.251c-0.289,0.324-0.683,0.181-0.898,0.181
			c-0.215,0-0.503,0.432-0.251,0.719c0.251,0.287,0.574,0.934,0.933,0.934c0.36,0,1.005,0.036,1.365-0.396
			c0.359-0.432,1.078-0.501,1.042-0.97c-0.036-0.468-0.287-0.539-0.504-0.61C53.318,86.496,53.211,86.484,53.102,86.459z"/>
		<path d="M58.19,82.138c-0.205-0.302,0.049-0.405,0.383-0.598c0.336-0.191,0.622-0.024,0.792-0.335
			c0.166-0.312,0.382-0.168,0.382,0.047c0,0.217-0.264,0.574-0.502,0.743c-0.24,0.168-0.504,0.359-0.672,0.359
			S58.252,82.229,58.19,82.138z"/>
		<ellipse transform="matrix(0.9892 0.1465 -0.1465 0.9892 12.6633 -8.7859)" cx="65.96" cy="81.551" rx="0.347" ry="0.562"/>
		<path d="M76.459,95.404c-0.044,0.377,0.287,0.383,0.431,0.357c0.145-0.023,0.552-0.239,0.718-0.239
			c0.168,0,0.239-0.168-0.024-0.335c-0.262-0.168-0.479-0.192-0.766-0.144C76.529,95.091,76.474,95.278,76.459,95.404z"/>
		<ellipse cx="79.296" cy="83.419" rx="0.395" ry="0.706"/>
		<ellipse cx="54.252" cy="83.383" rx="0.251" ry="0.264"/>
		<ellipse cx="54.12" cy="84.928" rx="0.264" ry="0.275"/>
		<circle cx="54.288" cy="86.017" r="0.215"/>
		<ellipse cx="77.153" cy="63.213" rx="0.216" ry="0.226"/>
		<ellipse cx="77.812" cy="63.355" rx="0.18" ry="0.203"/>
		<ellipse cx="78.769" cy="63.941" rx="0.204" ry="0.215"/>
		<circle cx="78.254" cy="63.917" r="0.167"/>
		<ellipse cx="78.003" cy="64.265" rx="0.204" ry="0.228"/>
		<ellipse cx="79.954" cy="62.708" rx="0.192" ry="0.181"/>
		<ellipse cx="81.056" cy="64.839" rx="0.191" ry="0.181"/>
		<ellipse cx="83.343" cy="55.789" rx="0.25" ry="0.228"/>
		<ellipse cx="78.17" cy="57.095" rx="0.251" ry="0.239"/>
		<ellipse cx="67.648" cy="60.769" rx="0.24" ry="0.203"/>
		<path d="M78.901,55.227c-0.407,0.1-0.286,0.432-0.096,0.814s0.287,0.455,0.503,0.287c0.217-0.168,0.168-0.455,0.072-0.766
			C79.284,55.252,79.042,55.192,78.901,55.227z"/>
		<path d="M79.788,64.038c-0.289,0.042-0.263,0.503-0.192,0.718c0.071,0.217,0.406,0.503,0.574,0.432
			c0.169-0.071,0.265-0.526,0.121-0.862C80.146,63.988,79.93,64.016,79.788,64.038z"/>
		<path d="M81.2,62.576c-0.124-0.531-0.504-0.477-0.669-0.358c-0.17,0.12-0.29,0.838-0.122,1.244
			c0.168,0.409,0.671,0.863,1.005,0.694c0.336-0.168,0.935-0.526,0.719-0.908c-0.215-0.383-0.525-0.04-0.669-0.048
			C81.08,63.176,81.238,62.743,81.2,62.576z"/>
		<ellipse cx="52.228" cy="88.938" rx="0.192" ry="0.168"/>
		<circle cx="52.493" cy="89.536" r="0.214"/>
		<circle cx="51.762" cy="89.477" r="0.227"/>
		<ellipse cx="48.804" cy="85.094" rx="0.24" ry="0.301"/>
		<ellipse cx="49.894" cy="86.83" rx="0.156" ry="0.193"/>
		<ellipse cx="50.253" cy="87.742" rx="0.156" ry="0.19"/>
		<ellipse cx="49.727" cy="90.926" rx="0.227" ry="0.216"/>
		<circle cx="48.805" cy="91.643" r="0.215"/>
		<ellipse cx="48.05" cy="91.189" rx="0.227" ry="0.216"/>
		<ellipse cx="47.967" cy="86.102" rx="0.24" ry="0.252"/>
		<ellipse cx="42.626" cy="88.638" rx="0.263" ry="0.205"/>
		<ellipse cx="42.412" cy="89.705" rx="0.263" ry="0.239"/>
		<ellipse cx="43.429" cy="90.446" rx="0.204" ry="0.216"/>
		<ellipse cx="43.489" cy="94.229" rx="0.263" ry="0.217"/>
		<ellipse cx="43.022" cy="94.924" rx="0.227" ry="0.192"/>
		<ellipse cx="43.835" cy="95.463" rx="0.18" ry="0.275"/>
		<ellipse cx="40.196" cy="93.355" rx="0.18" ry="0.204"/>
		<ellipse cx="41.059" cy="90.878" rx="0.204" ry="0.214"/>
		<ellipse cx="39.789" cy="90.77" rx="0.227" ry="0.252"/>
		<ellipse cx="38.055" cy="92.038" rx="0.215" ry="0.253"/>
		<ellipse cx="36.786" cy="92.518" rx="0.24" ry="0.228"/>
		<path d="M40.042,94.504c0,0.113-0.076,0.205-0.168,0.205c-0.092,0-0.168-0.092-0.168-0.205c0-0.11,0.076-0.202,0.168-0.202
			C39.967,94.302,40.042,94.394,40.042,94.504z"/>
		<circle cx="39.514" cy="96.576" r="0.215"/>
		<ellipse cx="34.918" cy="93.259" rx="0.239" ry="0.205"/>
		<ellipse cx="38.605" cy="98.097" rx="0.287" ry="0.251"/>
		<circle cx="39.419" cy="97.463" r="0.192"/>
		<path d="M35.779,98.322c0,0.107-0.085,0.193-0.19,0.193c-0.106,0-0.191-0.086-0.191-0.193c0-0.104,0.085-0.19,0.191-0.19
			C35.693,98.132,35.779,98.219,35.779,98.322z"/>
		<ellipse cx="36.234" cy="99.785" rx="0.168" ry="0.215"/>
		<path d="M41.429,89.012c-0.237-0.178-0.524,0.048-0.646,0.501c-0.118,0.456-0.047,0.623,0.145,0.693
			c0.322,0.12,0.527-0.07,0.624-0.453C41.646,89.37,41.582,89.121,41.429,89.012z"/>
		<path d="M38.916,96.886c0.032-0.201-0.622-0.382-1.485,0.097c-0.86,0.48-1.077,0.767-1.053,1.007
			c0.024,0.238,0.814,0.143,1.414-0.146C38.389,97.558,38.859,97.253,38.916,96.886z"/>
		<path d="M45.884,92.434c-0.549,0.047-1.172,0.241-1.533-0.119c-0.358-0.359,0.025-0.672,0.215-0.672
			c0.192,0,0.385-0.431,0.672-0.501c0.286-0.072,0.668-0.216,1.028-0.072c0.359,0.143,0.479,0.336,0.742,0.336
			c0.265,0,0.837,0.237,0.646,0.572c-0.191,0.337-0.408,0.337-0.743,0.337C46.579,92.314,46.143,92.412,45.884,92.434z"/>
		<ellipse cx="35.863" cy="71.752" rx="0.288" ry="0.306"/>
		<ellipse cx="36.061" cy="79.224" rx="0.269" ry="0.231"/>
		<ellipse cx="41.969" cy="68.646" rx="0.323" ry="0.289"/>
		<ellipse cx="42.633" cy="67.964" rx="0.197" ry="0.251"/>
		<ellipse cx="46.098" cy="64.551" rx="0.252" ry="0.324"/>
		<path d="M44.697,46.002c-0.258,0.065-0.179,0.575,0.091,0.951c0.27,0.378,0.413,0.576,0.627,0.378
			c0.217-0.198,0.163-0.664-0.052-0.916C45.146,46.165,44.888,45.955,44.697,46.002z"/>
		<path d="M46.836,46.362c-0.255,0.006-0.359,0.466-0.163,0.934c0.197,0.466,0.413,0.575,0.61,0.485
			c0.198-0.09,0.252-0.595,0.09-0.989C47.211,46.397,47.007,46.357,46.836,46.362z"/>
		<ellipse cx="47.141" cy="48.982" rx="0.664" ry="0.395"/>
		<path d="M48.776,47.458c-0.058-0.13-0.361-0.144-0.504,0c-0.145,0.143-0.289,0.341-0.163,0.484
			c0.126,0.145,0.342,0.109,0.521-0.036C48.81,47.761,48.821,47.566,48.776,47.458z"/>
		<ellipse cx="39.895" cy="42.958" rx="0.171" ry="0.207"/>
		<ellipse cx="37.398" cy="52.539" rx="0.171" ry="0.18"/>
		<ellipse cx="44.285" cy="56.266" rx="0.484" ry="0.512"/>
		<ellipse cx="34.283" cy="54.855" rx="0.18" ry="0.286"/>
		<path d="M37.012,46.038c-0.35-0.082-1.112-0.071-1.096,0.252c0.019,0.324,0.359,0.556,0.377,0.736
			c0.019,0.18,0.036,0.666,0.467,0.684c0.432,0.017,0.646-0.144,1.132-0.109c0.486,0.035,1.077,0.144,1.077-0.143
			c0-0.287-0.358-0.808-0.61-0.826c-0.252-0.018-0.592,0.321-0.718,0.143c-0.126-0.18-0.341-0.431-0.395-0.538
			C37.192,46.127,37.086,46.057,37.012,46.038z"/>
		<path d="M35.809,48.157c-0.286,0.126-0.017,0.826,0.162,1.007c0.18,0.178,0.377,0.484,0.377,0.735c0,0.25,0.449,0.521,0.648,0.359
			c0.196-0.162,0.142-0.916-0.056-1.276c-0.197-0.358-0.448-0.646-0.61-0.789C36.168,48.051,35.928,48.105,35.809,48.157z"/>
		<path d="M38.396,48.301c-0.22-0.078-0.503,0.25-0.503,0.556c0,0.307,0.089,0.683,0.269,0.683c0.179,0,0.467-0.395,0.45-0.736
			C38.592,48.463,38.524,48.347,38.396,48.301z"/>
		<path d="M35.792,51.946c-0.045-0.269-0.611-0.126-0.772-0.019c-0.163,0.108-0.396,0.592-0.215,0.719
			c0.179,0.125,0.521,0.161,0.736-0.036C35.754,52.413,35.82,52.123,35.792,51.946z"/>
		<path d="M36.078,58.393c-0.239-0.21-0.503-0.053-0.628,0.09c-0.125,0.145-0.27,0.629-0.144,0.826
			c0.125,0.198,0.502-0.054,0.7-0.216s0.323-0.323,0.252-0.466C36.186,58.482,36.135,58.442,36.078,58.393z"/>
		<path d="M33.725,60.062c-0.505,0.15-1.041,0-1.327,0.414c-0.288,0.412-0.594,1.148-0.989,1.4
			c-0.395,0.251-1.185,0.969-1.543,1.005c-0.36,0.036-1.437,0.719-1.617,0.986c-0.181,0.271-0.665,0.899-0.665,0.899
			s0.304,0.414,0.179,0.772c-0.125,0.358-0.305,0.287-0.341,0.646c-0.036,0.358-0.701,0.772-0.825,1.006
			c-0.127,0.234-0.271,0.61-0.7,1.076c-0.432,0.468-0.737,0.632-1.167,0.737c-0.431,0.108-1.329,0.413-1.616,1.006
			c-0.29,0.593-0.737,0.934-0.988,1.149c-0.251,0.217-0.772,0.951-1.204,1.077c-0.43,0.126-0.95,0.468-1.472,0.683
			c-0.521,0.215-0.754,0.683-0.897,0.934c-0.144,0.252-0.126,0.431-0.504,0.395c-0.377-0.035-0.718-0.088-0.826,0.072
			c-0.108,0.161-0.395,0.307-0.575,0.269c-0.179-0.035,0.036-0.501,0.198-0.771c0.161-0.27,0.017-0.825,0.144-0.969
			c0.125-0.144,0.896-0.737,1.148-1.06c0.252-0.324,0.737-0.934,0.863-1.258c0.125-0.322,0.7-0.683,0.953-0.755
			c0.251-0.07,0.879-0.573,1.058-0.807c0.179-0.234,0.917-0.539,1.131-0.647c0.217-0.107,1.239-0.628,1.581-1.113
			c0.34-0.483,0.809-1.256,1.149-1.454c0.342-0.198,1.437-0.7,1.581-1.166c0.144-0.468,0.269-0.792,0.538-1.222
			c0.271-0.433,0.667-0.433,0.755-0.433c0.09,0,0.414-0.592,0.628-1.022c0.217-0.432,0.665-0.808,0.898-0.825
			c0.233-0.018,0.502-0.414,0.521-0.468c0.018-0.053-0.179-0.755,0.09-0.916c0.268-0.161,0.412-0.503,0.646-0.413
			c0.233,0.091,0.502,0.539,0.702,0.324c0.196-0.216,0.771-1.097,0.7-1.653c-0.072-0.557-0.216-0.951-0.396-1.131
			c-0.179-0.179-0.269-0.521-0.108-0.664c0.163-0.143,0.323-0.054,0.467,0.197s0.45,0.773,0.612,0.773
			c0.16,0,0.358-0.307,0.25-0.612c-0.108-0.306-0.594-0.753-0.7-1.041c-0.109-0.287,0.125-0.683,0.341-0.79
			c0.214-0.107,0.233-0.558,0.179-0.861c-0.054-0.305,0.035-0.772,0.34-0.953c0.305-0.178,0.754-0.143,0.791,0.325
			c0.036,0.467-0.054,1.273-0.037,1.724c0.019,0.448,0.09,1.221,0.251,1.382c0.163,0.161,0.396,0.646,0.342,1.06
			s0.144,0.898,0.198,1.113c0.054,0.216,0.107,0.826-0.109,1.113C34.139,59.884,33.914,60.007,33.725,60.062z"/>
		<ellipse cx="31.948" cy="53.553" rx="0.144" ry="0.135"/>
		<ellipse cx="31.778" cy="54.434" rx="0.135" ry="0.116"/>
		<ellipse cx="27.01" cy="67.541" rx="0.198" ry="0.226"/>
		<ellipse cx="22.242" cy="71.951" rx="0.153" ry="0.18"/>
		<ellipse cx="16.281" cy="75.256" rx="0.152" ry="0.159"/>
		<path d="M17.043,75.309c0.214-0.095,0.414,0.305,0.27,0.628c-0.144,0.322-0.306,0.36-0.467,0.341
			c-0.162-0.019-0.108-0.394-0.054-0.574C16.847,75.522,16.937,75.356,17.043,75.309z"/>
		<path d="M14.961,76.798c-0.229,0-0.377,0.899-0.271,1.275c0.108,0.379,0.252,0.665,0.485,0.575
			c0.234-0.091,0.413-0.79,0.252-1.167C15.266,77.104,15.168,76.798,14.961,76.798z"/>
		<ellipse cx="32.478" cy="61.212" rx="0.153" ry="0.162"/>
		<path d="M37.605,34.708c-0.392,0.184-0.125,0.628,0.251,0.878c0.377,0.252,0.611,0.666,0.827,0.504
			c0.216-0.162,0.035-0.826-0.251-1.114C38.144,34.689,37.803,34.615,37.605,34.708z"/>
		<path d="M39.347,34.942c-0.184-0.204-0.611,0.142-0.467,0.268c0.144,0.126,0.306,0.306,0.449,0.215
			C39.473,35.336,39.429,35.031,39.347,34.942z"/>
		<path d="M39.167,35.803c-0.15,0.099-0.179,0.521,0.089,0.628c0.271,0.108,0.594,0.018,0.594-0.144
			c0-0.162-0.072-0.162-0.234-0.359C39.454,35.73,39.264,35.739,39.167,35.803z"/>
		<circle cx="50.193" cy="31.308" r="0.215"/>
		<ellipse cx="51.462" cy="30.29" rx="0.192" ry="0.18"/>
		<ellipse cx="57.879" cy="30.208" rx="0.288" ry="0.263"/>
		<ellipse cx="64.212" cy="33.487" rx="0.346" ry="0.264"/>
		<ellipse cx="62.261" cy="32.96" rx="0.192" ry="0.215"/>
		<ellipse cx="66.558" cy="44.224" rx="0.18" ry="0.203"/>
		<ellipse cx="67.252" cy="44.297" rx="0.204" ry="0.25"/>
	</g>
</g>
<g id="Layer_1">
</g>
</svg>
