<?xml version="1.0" encoding="iso-8859-1"?>
<!-- Generator: Adobe Illustrator 16.0.3, SVG Export Plug-In . SVG Version: 6.00 Build 0)  -->
<!DOCTYPE svg PUBLIC "-//W3C//DTD SVG 1.1//EN" "http://www.w3.org/Graphics/SVG/1.1/DTD/svg11.dtd">
<svg version="1.1" xmlns="http://www.w3.org/2000/svg" xmlns:xlink="http://www.w3.org/1999/xlink" x="0px" y="0px" width="100px"
	 height="100px" viewBox="0 0 100 100" style="enable-background:new 0 0 100 100;" xml:space="preserve">
<g id="PK">
	<path d="M94.018,31.461c-0.697-0.635-2.345-0.635-3.355-0.635c-1.014,0-0.508-1.39-0.508-1.771c0-0.379-1.834-0.063-2.656-0.063
		c-0.824,0-1.583-1.202-2.278-1.202c-0.696,0-1.394,0.315-1.646-0.126c-0.254-0.445-0.886-1.266-0.886-2.09
		c0-0.822-0.254-2.595-0.698-3.733c-0.443-1.137-0.694-1.898-1.201-2.974c-0.506-1.076-0.126-1.836,0.063-1.836
		c0.188,0,1.075-0.633,0.949-1.201c-0.127-0.57,0.507-1.077,0.949-1.202c0.443-0.128,1.521-0.255,1.71-1.015
		c0.189-0.759-0.826-1.074-1.963-1.519c-1.14-0.443-0.95-1.328-0.95-1.961c0-0.633-1.14-1.013-1.771-0.759
		c-0.633,0.252-1.392-0.253-1.645-0.444c-0.254-0.189-1.077-0.821-2.027-0.634c-0.949,0.191-2.023-0.25-2.088-0.756
		c-0.063-0.51,0.127-2.09,0.443-2.154c0.317-0.061,1.33-0.695,1.582-1.896c0.252-1.204,1.076-1.774,1.772-1.96
		c0.695-0.193,3.292-0.318,3.292-0.697c0-0.218-1.051-0.557-2.035-0.728c-0.741-0.128-1.447-0.159-1.637,0.031
		c-0.443,0.441-2.279,0.823-2.912,0.823c-0.63,0-1.835,0.822-2.341,1.327c-0.506,0.507-1.645,0.951-2.088,1.266
		c-0.442,0.315-0.506,0.634-0.253,0.888c0.253,0.251-0.253,0.759-0.696,0.566c-0.443-0.189-0.823-0.252-1.139,0.064
		c-0.316,0.316-0.696,1.519-1.456,1.963c-0.761,0.442-0.127,1.581,0.569,1.897c0.696,0.319,0.76,1.14,0.76,1.709
		c0,0.57,0.442,1.835,0.948,2.024c0.507,0.19,0.569,0.443,0.381,0.825c-0.191,0.378-0.507,1.329-0.507,1.645
		c0,0.315-0.822,1.138-1.71,2.342c-0.885,1.203-0.314,1.834-0.126,3.102c0.189,1.265-0.886,2.657-1.835,2.849
		c-0.95,0.188-3.038-0.064-3.735-0.064c-0.694,0-1.771,0.19-1.834,0.57c-0.062,0.378,0.508,1.519,1.266,1.582
		c0.759,0.062,0.824,0.759,1.519,1.518c0.695,0.76,0.443,1.518-0.253,2.025c-0.697,0.507-1.96,1.519-2.342,1.519
		c-0.377,0-1.201,0.064-1.328,0.315c-0.126,0.254-0.063,1.203-0.38,1.203s-0.19,0.759,0.316,1.456
		c0.505,0.695-0.695,0.948-1.141,1.457c-0.441,0.504-0.252,1.772,0.19,2.532c0.443,0.757,0.128,1.962-0.252,2.087
		c-0.38,0.126-0.442,1.393-1.14,1.9c-0.696,0.505-1.013,0.315-1.139-0.064c-0.127-0.38-1.202-1.33-1.772-1.33
		s-0.189,1.014-0.443,1.203c-0.254,0.191-0.823-0.76-1.267-1.013c-0.442-0.251-1.201,0.824-1.834,1.457
		c-0.63,0.633-1.201,0.568-1.77,0.948c-0.569,0.379-0.38,1.076,0.062,1.076c0.443,0,0.885,0.19,0.885,0.57
		c0,0.38-0.063,0.444-2.342,0.698c-2.278,0.252-2.53-0.634-3.038-0.634c-0.506,0-1.011,2.531-1.011,2.531s-0.888,0-1.771,0.634
		c-0.886,0.632-1.013,1.897-1.013,2.404s1.013,1.393,0.634,2.406c-0.382,1.015-0.634,1.52-0.128,2.531
		c0.508,1.014-4.05,2.15-5.568,2.658c-1.52,0.507-3.292,0.886-5.317,0.632c-2.023-0.253-2.785,1.52-2.785,1.52
		s-1.646-0.251-3.417-0.38c-1.773-0.127-5.316,0.76-6.709,0.76c-1.392,0-2.025-0.252-4.052-1.14
		c-2.024-0.886-6.564-1.883-6.564-1.883s0.189,0.426,1.092,1.33c0.901,0.899,1.613,1.851,2.325,3.321
		c0.712,1.472,2.041,2.658,2.752,3.656c0.712,0.996,1.899,1.518,2.896,1.943c0.997,0.43,1.755,0.382,1.945,0.95
		c0.19,0.569,1.567,0.333,1.995,0.428c0.427,0.096-0.807,1.234-0.332,2.23c0.474,0.997,0.379,1.567,0.569,2.562
		c0.19,0.997-0.285,2.091-0.237,2.517c0.047,0.427,1.186,0.38,1.992,0.094c0.808-0.283,0.997,0.76,0.523,1.046
		c-0.475,0.284-0.142,0.854-0.142,2.041s-1.234,1.423-1.852,1.187c-0.617-0.237-1.235-0.285-1.662-0.048
		c-0.426,0.237,0,0-0.379,0.237c-0.38,0.236-1.377,0.476-1.377,1.14c0,0.665-0.711,0.521-0.711,0.854
		c0,0.332-0.475,0.758-0.664,0.332c-0.19-0.428-0.57-0.191-0.95,0.238c-0.38,0.424-0.712,1.613-0.475,2.561
		c0.237,0.951,0.143,1.045-0.332,0.998c-0.475-0.047-0.19,0.807-0.665,1.044c-0.476,0.237-0.569,0.901-0.332,1.612
		c0.238,0.714-0.332,1.521-0.665,1.662c-0.094,0.041-0.166,0.089-0.223,0.141c0.143,0.11,0.269,0.186,0.365,0.192
		c0.569,0.048,0.997,0.096,1.282,0.239c0.284,0.142-0.333,0.615-0.333,1.09c0,0.476,0.617,0.334,0.808-0.048
		c0.189-0.38,1.187-0.569,1.376-0.569c0.189,0,0.095-0.57,0.332-0.854c0.238-0.285,0.76,0.094,0.949,0.189
		c0.19,0.094,0.379,0.664,0.57,0.664c0.189,0,0.427,0,0.521-0.331c0.096-0.333,0.379-0.666,0.711-0.76
		c0.333-0.095,2.041-0.333,2.611,0.046c0.57,0.381,1.093,0.048,1.33-0.094c0.236-0.144,0.901-0.331,1.85-0.095
		c0.951,0.236,0.998,0.095,0.998-0.19c0-0.284,0.095-0.616,0.38-0.616s0.617-0.522,1.044-0.569c0.427-0.049,1.043,0.569,1.898,0.474
		c0.854-0.094-0.475-0.76-0.381-1.092c0.095-0.332,0.618-0.378,0.904,0.189c0.284,0.57,0.426,0.476,0.901,0.809
		c0.473,0.331,1.422,0.283,1.992,0.283c0.571,0-0.143,0.949,0.523,0.949c0.665,0,0.285-0.901,0.475-1.232
		c0.19-0.333,0.95-0.287,1.613-0.287c0.664,0,1.52,0,1.852-0.093c0.332-0.098,0.997-0.429,1.331-0.666
		c0.332-0.237,1.327,0.476,1.944,0.286s0.902-0.712,1.52-0.712c0.617,0,1.852-0.19,2.373-0.236c0.521-0.049,0.95,0,1.14-0.049
		s0.143-0.284-0.284-0.476c-0.428-0.189-0.569,0-0.902,0c-0.334,0-1.188-0.189-1.188-0.189s0.853-0.806,1.945-0.379
		c1.093,0.427,1.426,0.665,1.234,0.806c-0.19,0.143,0.048,0.712,0.429,0.903c0.379,0.188,0.332,0.663,0.475,0.854
		c0.141,0.189-0.239,0.805,0.093,1.044c0.333,0.238-0.236,1.044-0.283,1.378c-0.049,0.329,0.379,0.473,0.567,0.235
		c0.189-0.235,0.38-0.189,1.14,0.144c0.758,0.331,0.427-0.523,0.427-0.523s0.285,0,0.664,0.523c0.379,0.522,0.713,0.048,1.852-0.05
		c1.14-0.094,1.614,0.428,1.14,0.523c-0.474,0.094-0.618,0.904-0.618,1.282c0,0.38,0.523,1.045,0.523,1.852
		c0,0.806-0.047,1.661,0,2.041c0.047,0.381,0.236,0.663,0.522,0.663c0.283,0,0.806,0.098,0.806,0.098s0.523-0.287,0.712,0.047
		c0.191,0.333,0.475-0.237,1.329,0.094c0.854,0.333,0.475-0.285,0.807-0.285s0.047,0.714,0.379,0.714
		c0.335,0,0.335-0.714,0.524-0.714S55.727,100,55.917,100s0.444-1.012,0.76-1.52c0.317-0.506,0.57-1.075,2.089-1.138
		c1.518-0.065,1.139-1.203,1.139-1.836s1.771-0.253,2.088-0.253s1.14-0.251,1.456-0.191c0.316,0.065,1.077,0.506,1.772,0.444
		c0.696-0.062,1.391-0.634,1.709-0.504c0.317,0.125,0.886,0.379,1.139-0.13c0.253-0.505,0.508-0.505,1.14-0.694
		c0.633-0.189,0.948-0.57,1.898-1.014c0.949-0.442,1.013-0.189,0.821,0.635c-0.188,0.822,0.57,0.125,1.458,0.125
		c0.884,0,0-0.885,0.377-0.885c0.381,0,0.887-0.444,0.697-0.507c-0.19-0.063-0.697-0.887-0.443-1.203
		c0.252-0.315,0.253-0.821,0.127-1.33c-0.127-0.506-0.758-1.708-1.265-2.467c-0.508-0.76-1.455-2.025-1.455-2.911
		c0-0.888-0.95-0.76-1.521-0.76c-0.569,0-1.327-0.124-2.276-1.329c-0.95-1.204-0.317-1.963-0.317-3.608s-1.014-1.832-1.458-1.581
		c-0.442,0.253-1.645,0.126-2.593-0.506c-0.95-0.634-0.759-2.659,0.126-3.989c0.886-1.328,2.278-2.97,2.723-3.922
		c0.443-0.948,0.947-1.962,1.582-2.468c0.632-0.507,1.771,0.633,2.277,1.645c0.507,1.012,1.898,0.823,2.152,0.441
		c0.252-0.377,1.835-1.516,3.415-1.453c1.583,0.062,1.773-0.821,1.71-1.646c-0.063-0.822,1.141-1.707,1.773-2.341
		s0.441-2.467,0.759-3.165c0.317-0.696,3.037-2.151,3.672-3.036c0.632-0.888,0.758-2.278,0.823-3.86
		c0.062-1.584,1.136-2.408,1.454-2.787c0.316-0.38,1.835-0.694,2.152-1.454c0.314-0.76-0.317-1.203,0-1.963
		c0.314-0.759,0.125-1.456,0.379-1.581c0.253-0.128,1.202-0.95,1.202-1.33c0-0.379,0.506-1.267,1.33-2.027
		c0.822-0.757,0.124-2.024,0-2.467c-0.127-0.444,0.124-1.961-0.443-1.961c-0.57,0-0.57-0.951,0.126-1.646
		c0.698-0.696,0.949-1.139,1.201-1.391c0.254-0.253,1.772-0.95,2.279-1.52C94.458,32.347,94.712,32.093,94.018,31.461z"/>
</g>
<g id="Layer_1">
</g>
</svg>
