<?xml version="1.0" encoding="iso-8859-1"?>
<!-- Generator: Adobe Illustrator 16.0.3, SVG Export Plug-In . SVG Version: 6.00 Build 0)  -->
<!DOCTYPE svg PUBLIC "-//W3C//DTD SVG 1.1//EN" "http://www.w3.org/Graphics/SVG/1.1/DTD/svg11.dtd">
<svg version="1.1" xmlns="http://www.w3.org/2000/svg" xmlns:xlink="http://www.w3.org/1999/xlink" x="0px" y="0px" width="100px"
	 height="100px" viewBox="0 0 100 100" style="enable-background:new 0 0 100 100;" xml:space="preserve">
<g id="PT">
	<path d="M52.728,96.091c-0.154-0.324-0.077-0.602-0.062-0.988c0.024-0.618-0.122-0.974,0-1.405c0.125-0.434,0.03-0.896-0.108-1.205
		c-0.14-0.311,0.017-0.836-0.122-1.067c-0.14-0.231-0.188-0.556-0.188-1.158s-0.091-0.649-0.138-0.943
		c-0.046-0.292-0.015-0.989,0.155-1.281c0.171-0.294,0.293-0.325,0.541-0.773c0.247-0.447,0.264-0.787,0.323-1.205
		c0.062-0.418,0.278-0.772,0.557-0.926c0.279-0.155,0.509-0.218,0.866-0.494c0.356-0.278,0.509-0.635,0.726-0.867
		c0.216-0.231,0.372-0.478,0.432-0.648c0.062-0.17,0.062-0.603,0.404-0.943c0.337-0.339,0.57-0.261,1.02-0.556
		c0.446-0.294,0.54-0.247,0.833-0.247s0.881,0.155,1.159,0.124c0.278-0.032-0.603-0.742-0.742-0.865
		c-0.139-0.124,0.419-0.263,0.99-0.324c0.57-0.062,1.05-0.556,1.374-1.189s0.464-1.47,0.2-1.7c-0.262-0.232-1.574-0.017-1.867-0.156
		c-0.296-0.138-0.93-2.007-1.394-2.842c-0.462-0.835-1.033-1.498-1.236-1.854c-0.199-0.354-0.107-0.896-0.17-1.297
		c-0.06-0.401-0.046-0.912,0.341-1.406c0.387-0.495,0.526-0.587,0.448-1.575c-0.076-0.989,0.312-1.267,0.851-1.576
		c0.54-0.311,1.776-1.516,2.131-1.825c0.355-0.308,0.495-1.064,0.742-1.542c0.247-0.48,1.159-1.223,1.391-1.531
		c0.232-0.308,0.326-0.433-0.109-1.652c-0.432-1.222-1.452-0.572-2.036-0.633c-0.589-0.063-0.526-1.176-0.665-1.269
		c-0.141-0.093-0.696-0.386-0.928-0.665c-0.232-0.277-0.107-1.002-0.107-1.497c0-0.494-0.543-1.128-0.881-1.638
		c-0.342-0.51-0.31-0.742-0.31-1.297c0-0.559-0.046-0.851-0.31-1.224c-0.263-0.369-0.401-0.616-0.31-1.002
		c0.093-0.387-0.137-0.897-0.464-1.128c-0.323-0.232-0.433-0.526-0.571-0.836c-0.14-0.306-0.446-0.585-0.463-0.803
		c-0.015-0.216,0.557-0.016,1.281-0.232c0.728-0.216,1.191-0.045,1.825,0.232c0.633,0.278,1.034,0.155,1.358,0.171
		c0.326,0.016,0.897,0.186,1.375,0.201c0.48,0.015,0.619-0.109,0.957-0.232c0.342-0.124,0.76-0.866,0.912-1.065
		c0.156-0.201,0.095-0.634,0.077-1.082c-0.014-0.449,0.295-0.696,0.57-0.772c0.28-0.077,0.621-0.341,0.683-0.696
		c0.061-0.356,0.141-0.911,0.263-1.266c0.124-0.355,0.278-0.695,0.323-1.081c0.049-0.387-0.23-1.005-0.494-1.407
		c-0.262-0.401-0.864-0.835-1.111-0.912c-0.247-0.077-0.293-0.263-0.265-1.098c0.031-0.833,0.867-1.404,1.3-1.7
		c0.431-0.292,0.587-0.617,0.587-1.002c0-0.387,0.726-0.449,1.034-0.773c0.311-0.324-0.138-0.788-0.278-1.204
		c-0.139-0.418,0.141-0.944,0.323-1.128c0.188-0.185,0.356-0.619,0.248-0.974c-0.107-0.355-0.031-0.494-0.031-1.065
		c0-0.573,0.125-1.544,0.188-2.365c0.06-0.818,0.139-2.363,0.077-2.735c-0.063-0.369-0.433-0.603-0.433-1.128
		c0-0.524-0.327-1.065-0.525-1.389c-0.202-0.324-0.266-0.696-0.233-0.881c0.031-0.185,0.201,0,0.759,0.155
		c0.555,0.155,1.003-0.201,1.389-0.479c0.387-0.278,0.418-0.526,0.418-0.989s0.292-0.588,0.665-0.943
		c0.369-0.355,0.494-0.524,0.632-0.911c0.139-0.385,0.247-0.602,0.588-0.602c0.34,0,0.448,0.016,0.787-0.03
		c0.341-0.048,0.835-0.048,1.145-0.048c0.307,0,0.307-0.632,0.388-0.787c0.076-0.155,0.617-0.278,1.143-0.571
		c0.524-0.293,0.539-0.602,0.539-0.818c0-0.218,0.171-0.311,0.418-0.248c0.247,0.061,0.603-0.17,0.895-0.681
		c0.297-0.51,0.604-0.771,0.76-1.284c0.152-0.508,0.584-1.018,0.755-1.236c0.171-0.215-0.062-0.324-0.741-1.514
		c-0.679-1.188-1.731-1.236-2.086-1.219c-0.355,0.013-1.745-0.032-1.961-0.094c-0.216-0.06-0.188-0.818-0.171-1.575
		c0.015-0.757,0.14-1.361,0.14-1.746c0-0.387-0.296-0.974-0.125-1.36c0.17-0.387-0.107-0.665-0.387-0.634
		c-0.275,0.032-0.571,0.14-0.832,0.109c-0.265-0.031-0.54-0.015-0.867-0.045c-0.324-0.031-0.432-0.805-0.773-0.805
		c-0.338,0-0.508,0.619-0.693,0.774c-0.184,0.153-1.051,0.077-1.392-0.293c-0.339-0.372-0.958-0.125-1.328-0.048
		c-0.371,0.078-0.942-0.091-1.281-0.387c-0.341-0.293-1.235-0.306-1.438-0.09c-0.201,0.215,0.093,0.122,0.247,1.05
		c0.153,0.928-1.978,1.081-2.455,1.158c-0.48,0.079-1.671,0.17-2.055-0.077c-0.388-0.247-1.284-0.015-1.608-0.015
		c-0.323,0-0.772-0.867-1.19-1.145c-0.415-0.277-1.7,0.156-2.254,0.265c-0.558,0.108-0.418-0.325-0.742-0.603
		c-0.324-0.279-0.989,0.54-1.5,1.034c-0.509,0.495-1.73,0.4-2.225,0.153c-0.496-0.247-0.679-1.326-0.634-1.899
		c0.048-0.571,0.974-1.699,1.468-2.209c0.495-0.509-0.449-0.834-0.758-1.003c-0.307-0.171-0.573-0.264-0.573-0.588
		c0-0.324-0.306-0.339-0.476-0.292c-0.171,0.044-0.773,0.061-1.052,0.215c-0.278,0.154-0.88,0.31-1.219,0.401
		c-0.341,0.093-0.942,0-1.284,0.017c-0.338,0.014-0.693,0.356-1.111,0.494c-0.418,0.14-0.958,0.122-1.33,0.122
		c-0.369,0-0.248,0.171-0.307,0.65c-0.062,0.479-0.387,0.711-0.898,0.803c-0.508,0.094-0.556,0.541-0.709,0.82
		c-0.151,0.27-0.577,0.277-0.956,0.263c-0.02,0.104-0.029,0.162-0.029,0.162c-0.08,0.187-0.369,0.47-0.608,0.809
		c-0.324,0.465-0.477,1.006-0.4,1.546c0.077,0.54,0.185,1.312,0.261,2.023c0.078,0.712,0.45,1.996,0.45,2.612
		c0,0.62,0,0.818-0.063,1.483c-0.062,0.665-0.123,1.267,0.094,1.87c0.216,0.602,0.355,1.545,0.293,2.009
		c-0.063,0.464-0.063,1.344,0.125,1.56c0.184,0.216,0.818,0.571,0.755,0.834c-0.062,0.263-0.138,0.758-0.138,1.205
		c0,0.448-0.015,0.896,0.045,1.329c0.062,0.431-0.077,0.742-0.199,1.159c-0.125,0.417-0.139,0.818-0.372,1.467
		c-0.231,0.65-0.447,1.483-0.649,1.977c-0.202,0.495-0.139,0.326-0.372,1.036c-0.23,0.712-0.355,0.959-0.216,0.959
		c0.14,0,0.264-0.542,0.463-1.036c0.202-0.495,0.372-0.819,0.543-1.158c0.167-0.341,0.355-1.16,0.555-1.175
		c0.202-0.015,0.187,0.387-0.045,0.865c-0.231,0.479-0.541,0.912-0.433,1.052c0.108,0.138,0.262,0.23,0.585,0.247
		c0.327,0.015,0.418,0.247,0.232,0.617c-0.184,0.371,0.078,0.619-0.013,0.696c-0.094,0.077-0.355,0.122-0.466-0.017
		c-0.108-0.14-0.478-0.185-0.724-0.03c-0.248,0.155-0.509,0.385-0.665,0.85c-0.154,0.463-0.495,1.097-0.558,1.126
		c-0.059,0.032-0.229,0.434-0.338,0.881c-0.108,0.449-0.34,0.989-0.818,1.978c-0.48,0.989-0.958,1.578-1.253,2.288
		c-0.292,0.711-0.557,1.142-0.324,1.466c0.234,0.326,0.818,0.899,0.649,1.315c-0.168,0.416-0.725,1.513-1.143,2.441
		s-0.833,1.838-1.173,2.627c-0.341,0.788-0.818,1.853-1.066,2.625c-0.246,0.774-0.449,1.282-0.449,1.669
		c0,0.386-0.184,0.741-0.372,0.943c-0.185,0.201-1.048,1.221-1.745,1.87c-0.696,0.648-1.375,1.173-1.686,1.437
		c-0.307,0.263-0.508,0.34-0.508,0.34s-0.262-0.449-0.604-0.371c-0.337,0.078-0.477,0.263-0.477,0.542
		c0,0.277,0.293,0.354,0.431,0.555c0.14,0.2,0.279,0.712,0.293,1.267c0.018,0.556-0.153,1.222-0.494,1.916
		c-0.34,0.695-0.665,1.359-0.787,1.653c-0.125,0.294-0.157,0.788-0.233,1.392c-0.077,0.604-0.046,1.112-0.309,1.898
		c-0.262,0.79-0.694,1.362-0.927,1.701c-0.23,0.339-0.307,0.727-0.216,0.989c0.094,0.263,0.125,0.54,0.063,0.864
		c-0.063,0.324-0.046,0.54,0.184,0.634c0.234,0.091,0.619-0.017,0.818,0.077c0.203,0.092,0.512,0.494,0.819,0.558
		c0.309,0.062,0.556-0.063,0.834-0.171c0.28-0.108,0.788-0.202,1.251-0.187c0.466,0.016,1.299-0.016,1.483-0.231
		c0.188-0.216,0.373-0.479,0.387-0.787c0.017-0.31,0.216-0.836,0.463-0.989c0.247-0.154,0.619-0.418,0.619-0.805
		c0-0.386,0.202-0.863,0.418-0.973c0.215-0.108,0.307,0.402,0.417,0.604c0.108,0.2,0.186,0.369,0.324,0.369
		c0.14,0,0,0.512,0.091,0.742c0.094,0.233,0.048,0.464,0.202,0.665c0.154,0.201-0.153,0.355-0.462,0.433
		c-0.311,0.076-0.665,0.386-0.989,0.541c-0.324,0.154-0.386,0.432-0.032,0.37c0.356-0.062,0.913,0.217,0.976,0.311
		c0.06,0.091-0.08,0.293-0.279,0.293c-0.201,0-0.403-0.031-0.494,0.216c-0.093,0.247-0.248,0.37-0.248,0.37
		s-0.093-0.478-0.294-0.523c-0.2-0.049-0.494-0.186-0.662,0.062c-0.171,0.246-0.296,0.415-0.296,0.415l-0.972-0.061
		c0,0,0.109-0.416-0.215-0.587c-0.325-0.171-0.588-0.094-0.774,0.062c-0.184,0.155-0.201,0.339-0.201,0.339s-0.248,0-0.338,0
		c-0.093,0-0.048,0.341,0.137,0.449c0.188,0.108,0.602,0.665,0.759,0.787c0.153,0.125,0.201,0.603,0.201,1.205
		c0,0.602-0.031,0.82-0.278,1.205c-0.249,0.387-0.572,0.712-0.464,0.943s0.85-0.155,1.188-0.247c0.341-0.095,1.037-0.217,1.33-0.185
		c0.292,0.031,0.617-0.094,1.111-0.372c0.494-0.277,1.051-0.618,1.438-0.618c0.387,0,0.742,0.247,0.989,0.464s1.02,0.293,1.02-0.201
		c0-0.495,0.045-0.757,0.216-0.742c0.17,0.018,0.154,0.325,0.185,0.479c0.031,0.154,0.107,0.448,0.125,0.712
		c0.013,0.261,0.107,0.57,0.307,0.772c0.202,0.2,0.264,0.401,0.077,0.446c-0.185,0.049-0.617-0.185-0.926-0.23
		c-0.307-0.047-0.742-0.154-1.111-0.418c-0.373-0.261-0.742-0.693-0.896-0.539c-0.156,0.153,0.168,0.432,0.463,0.724
		c0.293,0.295,0.927,1.129,1.003,1.623c0.077,0.495,0.031,1.731-0.153,2.503c-0.188,0.773-0.463,1.655-0.805,2.534
		c-0.341,0.881-0.634,1.67-0.943,1.993c-0.308,0.325-0.418,0.618-0.046,0.896c0.37,0.279,0.788,0.665,0.788,1.236
		c0,0.573-0.015,0.989-0.031,1.205c-0.015,0.217-0.14,0.372-0.186,0.728c-0.046,0.354,0.248,0.958,0.186,1.081
		c-0.061,0.124-0.293,0.587-0.447,1.066c-0.157,0.479-0.386,1.02-0.31,1.344c0.077,0.325,0.31,0.665,0.31,1.004
		c0,0.341-0.108,0.604-0.248,1.129c-0.138,0.525-0.187,0.927-0.386,1.468c-0.201,0.541-0.341,0.757-0.634,1.097
		s-0.278,0.555-0.278,0.974c0,0.418,0.122,0.805-0.17,1.189c-0.292,0.387-0.54,1.004-0.864,1.591
		c-0.324,0.587-0.759,1.236-0.989,1.576c-0.233,0.341-0.324,0.571-0.063,0.818c0.262,0.247,0.325,0.479,0.634,0.449
		c0.31-0.031,0.742-0.464,1.065-0.647c0.324-0.187,0.851-0.481,1.421-0.513c0.571-0.03,0.818-0.045,1.128,0.077
		c0.31,0.125,0.54,0.094,0.647-0.169c0.111-0.263,0.498-0.665,0.804-0.556c0.311,0.107,0.603,0.418,0.851,0.278
		c0.248-0.139,0.248-0.342,0.449-0.342c0.202,0,0.324,0.543,0.588,0.681c0.261,0.139,0.662,0.403,1.25,0.325
		c0.585-0.079,1.174,0.078,1.39,0.23c0.216,0.155,0.651,0.203,1.129,0.124c0.479-0.078,1.361-0.092,1.901,0.218
		c0.539,0.308,1.483,0.648,1.762,0.972c0.278,0.324,0.571,0.975,0.849,1.097c0.279,0.126,0.802,0.171,1.236,0.171
		c0.433,0,0.85-0.201,0.617-0.418c-0.23-0.216-0.261-0.525-0.062-0.663c0.202-0.14,1.437-0.603,1.855-0.802
		c0.417-0.203,0.958-0.342,1.267-0.513c0.307-0.169,0.447-0.464,0.864-0.586c0.418-0.125,0.742-0.03,1.003-0.264
		c0.265-0.23,0.79-0.029,1.159-0.029c0.281,0,0.744,0.248,1.071-0.076c-0.076,0.023-0.153,0.046-0.221,0.076
		C53.021,96.726,52.881,96.417,52.728,96.091z"/>
</g>
<g id="Layer_1">
</g>
</svg>
