<?xml version="1.0" encoding="iso-8859-1"?>
<!-- Generator: Adobe Illustrator 16.0.3, SVG Export Plug-In . SVG Version: 6.00 Build 0)  -->
<!DOCTYPE svg PUBLIC "-//W3C//DTD SVG 1.1//EN" "http://www.w3.org/Graphics/SVG/1.1/DTD/svg11.dtd">
<svg version="1.1" xmlns="http://www.w3.org/2000/svg" xmlns:xlink="http://www.w3.org/1999/xlink" x="0px" y="0px" width="100px"
	 height="100px" viewBox="0 0 100 100" style="enable-background:new 0 0 100 100;" xml:space="preserve">
<g id="PY">
	<path d="M56.389,28.58c0.02,0.13,0.079,0.369,0,0.486c-0.092,0.251-0.345,0.269-0.382,0.59c-0.037,0.107,0.132,0.331,0.104,0.521
		c-0.041,0.281-0.217,0.389-0.242,0.694c0.178,0.147,0.28,0.289,0.278,0.625c-0.087,0.111-0.073,0.238-0.14,0.382
		c-0.033,0.074-0.133,0.113-0.174,0.174c-0.105,0.16-0.059,0.352-0.139,0.556c-0.113,0.288-0.204,0.237-0.209,0.729
		c0.124,0.065,0.34,0.095,0.417,0.208c0.097,0.141,0.037,0.24,0.208,0.312c0.293,0.207,0.459-0.045,0.729,0.035
		c0.123,0.036,0.188,0.144,0.348,0.174c0.188-0.269,0.143-0.015,0.382-0.105c0.085-0.031,0.073-0.167,0.139-0.208
		c0.081-0.011,0.162-0.023,0.243-0.034c0.327-0.123,0.302-0.057,0.625,0c0.238,0.042,0.366-0.079,0.59-0.035
		c0.107,0.259,0.224,0.807,0.486,0.903c0.251,0.14,0.362-0.21,0.626-0.139c0.125,0.035,0.234,0.207,0.347,0.244
		c0.139,0.045,0.242-0.053,0.312-0.07c0.065-0.016,0.664,0.074,0.765,0.104c0.134,0.04,0.211,0.198,0.312,0.243
		c0.089,0.04,0.467,0.062,0.556,0.069c0.09-0.123,0.191-0.145,0.416-0.139c0.111,0.117,0.39,0.185,0.521,0.104
		c0.136-0.046,0.228-0.181,0.313-0.278c0.104,0.023,0.208,0.047,0.312,0.069c0.047,0.144,0.019,0.19,0.208,0.208
		c0.297-0.242,0.769,0.138,0.902,0.312c0.208-0.006,0.33-0.153,0.486-0.104c0.094,0.029,0.121,0.108,0.312,0.104
		c0.115-0.023,0.23-0.046,0.348-0.07c0.057,0.018,0.142,0.156,0.208,0.174c0.069-0.011,0.139-0.023,0.208-0.035
		c0.174,0.078-0.016,0.198,0.417,0.208c0.046-0.069,0.092-0.139,0.139-0.208c0.076,0.026,0.192,0.052,0.277,0.07
		c0.124,0.224,0.071,0.324,0.14,0.555c0.081,0.012,0.161,0.023,0.243,0.035c0.062-0.111,0.226-0.393,0.312-0.487
		c0-0.011,0-0.022,0-0.034c0.139,0,0.278,0,0.417,0c0.155-0.155,0.274-0.063,0.486-0.035c0.074-0.157,0.175-0.317,0.382-0.347
		c0.102,0.115,0.267,0.326,0.417,0.382c0.12-0.182,0.27-0.155,0.451-0.278c0.059-0.041,0.059-0.114,0.104-0.173
		c0.08-0.104,0.218-0.152,0.312-0.243c0.167-0.156,0.19-0.382,0.312-0.59c0.064-0.109,0.219-0.206,0.278-0.312
		c0-0.047,0-0.093,0-0.139c0.083-0.111,0.262-0.157,0.348-0.278c0.401,0.07,0.837-0.139,1.215-0.069
		c0.097,0.247,0.238,0.491,0.312,0.729c0.012,0.116,0.023,0.231,0.034,0.347c0.033,0.054,0.521,0.504,0.59,0.555
		c0,0.012,0,0.023,0,0.035c0.091,0.051,0.196,0.015,0.278,0.069c0.186,0.124,0.593,0.63,0.729,0.695c0.069,0,0.139,0,0.208,0
		c0.12,0.036,0.251,0.143,0.382,0.174c0.211,0.048,0.293-0.132,0.486-0.069c0.142,0.045,0.081,0.156,0.312,0.173
		c0.28-0.193,0.638-0.038,0.867-0.243c0.021,0.017,0.685,0.379,0.695,0.382c0.332,0.097,0.755-0.242,0.938-0.174
		c0.292,0.089,0.456,0.505,0.624,0.729c0.146,0.194,0.563,0.436,0.66,0.625c0.149,0.292,0.058,0.61,0.14,0.972
		c0.079,0.356,0.174,0.583,0.174,1.077c0.157,0.125,0.23,0.348,0.416,0.451c0.24,0.134,0.634,0.178,0.765,0.417
		c0.092,0.171-0.004,0.417-0.035,0.555c-0.075,0.333,0.152,0.552,0.035,0.868c-0.15,0.399-0.602,0.719-0.418,1.458
		c0.082,0.197,0.162,0.394,0.243,0.59c0.086,0.342-0.15,0.662-0.069,0.937c0.062,0.21,0.332,0.321,0.417,0.521
		c0.114,0.267,0.004,0.68,0,0.972c0.09,0.046,0.257,0.076,0.348,0.14c0.058,0.081,0.115,0.162,0.173,0.243c0,0.185,0,0.371,0,0.556
		c0.048,0.175,0.217,0.384,0.14,0.694c-0.078,0.308-0.272,0.405-0.278,0.833c0.177,0.184,0.297,0.419,0.486,0.59
		c-0.003,0.415-0.052,0.594-0.208,0.833c-0.024,0.035-0.124,0.101-0.14,0.138c-0.111,0.282,0.094,0.676,0.14,0.869
		c-0.012,0.312-0.024,0.624-0.035,0.937c0.087,0.275,0.435,0.38,0.591,0.591c0.111,0.151,0.226,0.445,0.277,0.624
		c0.242,0.84,0.105,2.162,0.208,3.021c0.179,0.119,0.33,0.312,0.556,0.382c0.37,0.034,0.74,0.069,1.11,0.104
		c0.178,0.058,0.648,0.272,0.799,0.277c0.18,0.005,0.62-0.326,0.8-0.382c0.286-0.091,0.537,0.177,0.867,0.069
		c0.169-0.055,0.344-0.194,0.556-0.243c0.283-0.064,0.425,0.09,0.659-0.104c0.168-0.138,0.215-0.407,0.417-0.521
		c0.186-0.058,0.37-0.115,0.556-0.174c0.213-0.11,0.377-0.343,0.625-0.416c0.371-0.109,0.667-0.074,1.007-0.208
		c0.213-0.085,0.323-0.567,0.694-0.452c0.154,0.048,0.262,0.228,0.382,0.312c0.158,0.113,0.336,0.111,0.521,0.208
		c0.165,0.087,0.325,0.291,0.486,0.382c0.229,0.132,0.765,0.26,0.902,0.452c0.184,0.257,0.278,0.598,0.487,0.833
		c0.284,0.323,1.281,0.567,1.354,1.042c0.028,0.035,0.013,0.01,0.034,0.069c-0.061,0.033-0.201,0.083-0.242,0.139
		c0,0.034,0,0.069,0,0.104c-0.107,0.119-0.261,0.056-0.418,0.139c-0.078,0.042-0.298,0.368-0.381,0.451
		c-0.007,0.457-0.057,1.028,0.174,1.354c0.117,0.166,0.407,0.247,0.52,0.416c0.06,0.089,0.23,0.903,0.175,1.077
		c-0.175,0.539-0.771,0.854-0.938,1.389c-0.071,0.225-0.044,0.636,0.035,0.868c0.028,0.088,0.164,0.249,0.173,0.347
		c-0.022,0.115-0.047,0.231-0.07,0.348c0,0.127,0,0.254,0,0.382c-0.065,0.2-0.277,0.412-0.381,0.59
		c-0.11,0.188-0.119,0.386-0.209,0.591c-0.086,0.198-0.267,0.396-0.347,0.59c-0.123,0.293-0.024,0.69-0.139,1.007
		c-0.305,0.843-0.665,1.383-0.626,2.534c0.129,0.084,0.205,0.21,0.312,0.312c0.006,0.135,0.02,0.337-0.034,0.417
		c-0.076,0.219-0.302,0.34-0.416,0.521c-0.177,0.276-0.234,0.623-0.418,0.903c-0.42,0.642-0.998,1.175-1.284,1.979
		c-0.142,0.398,0.05,0.679,0.14,1.008c0.102,0.374-0.028,0.744-0.07,1.006c-0.009,0.062,0.168,0.353,0.14,0.626
		c-0.023,0-0.046,0-0.069,0c-0.14,0.091-0.302-0.022-0.452,0.068c-0.03,0.025-0.039,0.044-0.069,0.07
		c0.069,0.242,0.139,0.486,0.209,0.729c0,0.104,0,0.208,0,0.312c0.072,0.225,0.314,0.422,0.382,0.625
		c0.128,0.394-0.232,0.637-0.312,0.868c-0.091,0.264,0.066,0.566,0.069,0.902c-0.064,0.041-0.055,0.097-0.104,0.14
		c-0.137,0.118-0.37,0.025-0.452,0.208c-0.167,0.266,0.098,0.761,0.14,1.007c0.06,0.341-0.325,0.79-0.243,1.076
		c0.049,0.169,0.23,0.233,0.277,0.556c-0.098,0.098-0.343,0.359-0.381,0.486c-0.075,0.24,0.144,0.352,0.069,0.625
		c-0.097,0.353-0.293,0.715-0.383,1.076c-0.061,0.247,0.037,0.486-0.068,0.66c-0.218,0.354-0.983,0.662-1.042,1.11
		c0.377,0.521,0.037,1.68-0.591,1.667c-0.075-0.109-0.409-0.232-0.59-0.104c-0.408,0.132-0.483,0.894-0.59,1.319
		c-0.161,0.053-0.271,0.227-0.417,0.277c-0.208,0-0.417,0-0.624,0c-0.27,0.082-0.307,0.391-0.487,0.557
		c-0.109,0.1-0.318,0.1-0.381,0.242c0,0.104,0,0.208,0,0.312c0.113,0.162,0.06,0.363,0.034,0.556
		c-0.095,0.062-0.123,0.131-0.244,0.174c-0.537,0.367-0.923-0.155-1.423-0.208c-0.207,0.169-0.536,0.273-0.833,0.347
		c-0.258,0.063-0.417-0.013-0.59,0.104c-0.389,0.262-0.394,0.92-0.521,1.424c-0.09,0.023-0.146,0.086-0.208,0.104
		c-0.153,0.048-0.271-0.051-0.347-0.068c-0.116,0.012-0.232,0.022-0.348,0.034c-0.047,0.197-0.093,0.394-0.139,0.592
		c-0.146,0.094-0.196,0.167-0.452,0.173c0.027,0.323,0.246,0.412,0.312,0.694c0.059,0.252-0.137,0.413-0.173,0.556
		c-0.01,0.034,0.061,0.185,0.034,0.276c-0.059,0.21-0.205,0.562-0.382,0.66c-0.216,0.121-0.57,0.039-0.729,0.209
		c-0.269,0.285-0.282,0.757-0.834,0.764c-0.2-0.156-0.551-0.135-0.764-0.278c-0.215-0.144-0.451-0.4-0.59-0.624
		c-0.07-0.112-0.131-0.358-0.243-0.417c-0.173,0-0.347,0-0.521,0c-0.114-0.08-0.263-0.055-0.418-0.104
		c-0.139-0.045-0.326-0.169-0.45-0.209c-0.391-0.121-0.893,0.055-1.216,0.07c-0.06,0.09-0.497,0.689-0.556,0.729
		c-0.18,0.125-0.458,0.033-0.59,0.208c-0.146,0.224-0.022,0.477-0.104,0.729c-0.138,0.425-0.39,0.422-0.556,0.694
		c-0.237,0.389-0.144,0.859-0.694,0.938c-0.278-0.14-0.555-0.278-0.833-0.417c-0.483-0.352-0.574-1.043-1.215-1.25
		c-0.449-0.145-0.85,0.092-1.285,0.104c-0.145,0.242-0.296,0.528-0.659,0.555c-0.135-0.104-0.421-0.06-0.556-0.173
		c-0.186-0.155-0.435-0.677-0.625-0.764c-0.104,0-0.208,0-0.312,0c-0.15-0.074,0.026-0.134-0.348-0.14
		c-0.134,0.121-0.357,0.112-0.521,0.209c-0.479,0.282-1.031,0.899-1.909,0.59c-0.057-0.02-0.118-0.118-0.175-0.139
		c-0.232-0.087-0.414-0.065-0.625-0.173c-0.225-0.116-0.44-0.329-0.693-0.418c-0.346-0.121-0.741,0.092-0.903,0.07
		c-0.263-0.035-0.683-0.388-0.973-0.486c-0.451-0.155-0.93-0.183-1.389-0.312c-0.115-0.012-0.231-0.023-0.347-0.035
		c-0.324-0.124-0.579-0.485-0.833-0.694c-0.125-0.103-0.388-0.047-0.556-0.104c-0.077-0.025-0.166-0.113-0.243-0.139
		c-0.243-0.012-0.486-0.023-0.729-0.035c-0.281-0.064-1.282-0.316-1.598-0.242c-0.162,0.038-0.422,0.215-0.659,0.174
		c-0.224-0.039-1.532-0.289-1.736-0.104c-0.072-0.053-0.249-0.111-0.417-0.069c-0.251,0.064-0.524,0.208-0.764,0.277
		c-0.295,0.086-0.68-0.05-0.903-0.104c-0.289-0.071-0.502,0.063-0.764,0.068c0,0.012,0,0.023,0,0.035
		c0.062,0.023,0.034,0.008,0.07,0.035c-0.104,0.012-0.208,0.023-0.312,0.035c-0.04-0.012-0.014-0.076-0.104-0.07
		c-0.292,0.023-0.462,0.234-0.834,0.243c-0.069-0.104-0.138-0.208-0.207-0.312c0.034,0,0.069,0,0.103,0
		c0.01-0.182,0.098-0.476,0-0.625c-0.115-0.294-0.493-0.386-0.589-0.694c-0.105-0.328,0.357-0.844,0.589-0.868
		c0.148-0.084,0.34,0.03,0.417-0.139c0.058-0.114-0.051-0.238,0-0.417c0.062-0.22,0.203-0.438,0.485-0.451
		c0.037,0.025,0.033,0.021,0.105,0.035c0.094-0.17,0.295-0.383,0.347-0.556c0.06-0.198-0.123-0.323-0.07-0.451
		c0.152-0.581,1.093-0.322,1.216-0.902c0.15-0.024,0.301-0.047,0.451-0.07c0-0.034,0-0.068,0-0.104
		c-0.118-0.073-0.192-0.132-0.208-0.312c-0.051-0.084-0.014-0.151,0-0.278c0.079-0.051,0.145-0.146,0.243-0.174
		c0.168-0.047,0.256,0.072,0.382,0c0.027-0.035,0.012-0.009,0.034-0.068c-0.04-0.06-0.037-0.171-0.034-0.278
		c0.062-0.034,0.11-0.113,0.173-0.14c0.078-0.031,0.199,0.024,0.243-0.034c0-0.046,0-0.092,0-0.139
		c0.142-0.232,0.031-0.907,0.139-1.181c0.196-0.087,0.264-0.013,0.521,0c-0.023-0.104-0.047-0.208-0.07-0.312
		c0.037-0.161,0.184-0.189,0.209-0.418c-0.135-0.135-0.438-0.432-0.451-0.659c0.012,0,0.023,0,0.035,0c0-0.012,0-0.023,0-0.035
		c0.011-0.185,0.022-0.37,0.034-0.555c0.02-0.062,0.165-0.193,0.173-0.243c0.013-0.064-0.028-0.052-0.034-0.069
		c-0.032-0.113-0.11-0.16-0.139-0.243c-0.115-0.34,0.398-1.018,0.486-1.285c0.11-0.336-0.124-0.464-0.07-0.764
		c0.225-0.113,0.621-0.155,0.625-0.486c-0.129-0.206,0.055-0.947,0.14-1.075c0.222-0.336,0.776-0.261,1.11-0.487
		c0.116-0.139,0.232-0.277,0.348-0.416c0.143-0.103,0.334-0.109,0.486-0.209c0.225-0.146,0.377-0.377,0.625-0.521
		c0-0.012,0-0.023,0-0.034c-0.012,0-0.023,0-0.035,0c-0.104-0.216-0.345-0.098-0.382-0.417c-0.028-0.041-0.027-0.059-0.034-0.139
		c0.071-0.053,0.103-0.165,0.173-0.208c0.17-0.105,0.268-0.044,0.312-0.278c-0.125-0.082-0.172-0.168-0.174-0.382
		c0.024-0.027,0.046-0.077,0.07-0.104c0.157-0.152,0.535-0.207,0.625-0.416c0.137-0.24-0.207-0.343-0.104-0.66
		c0.072-0.227,0.311-0.189,0.485-0.312c0.082-0.093,0.163-0.185,0.244-0.277c0-0.023,0-0.047,0-0.07
		c-0.124-0.058-0.159-0.066-0.174-0.242c-0.026-0.038-0.021-0.033-0.035-0.104c0.299-0.33,0.26-0.568,0.938-0.556
		c0.247-0.435,0.139-0.59,0.729-0.521c0-0.012,0-0.023,0-0.035c0.011,0,0.022,0,0.034,0c0.001-0.124,0.017-0.188,0.035-0.278
		c0.272-0.14,0.398-0.14,0.383-0.589c0.047-0.076,0.003-0.197,0.034-0.313c0.068-0.264,0.189-0.412,0.173-0.729
		c-0.246-0.144-0.947-0.708-1.075-0.938c-0.135-0.237-0.027-0.604-0.104-0.729c-0.067-0.105-0.503-0.436-0.626-0.555
		c-0.022,0-0.046,0-0.069,0c0-0.059,0-0.116,0-0.174c-0.022-0.057-0.116-0.118-0.139-0.174c-0.034-0.186-0.069-0.37-0.104-0.556
		c-0.155-0.247-0.525-0.283-0.765-0.451c-0.182-0.128-0.231-0.432-0.416-0.556c-0.298-0.2-0.861-0.099-1.251-0.174
		c-0.048-0.155-0.183-0.33-0.382-0.347c-0.266,0.156-0.421-0.191-0.555-0.278c-0.17-0.11-0.469-0.029-0.626-0.139
		c-0.058-0.08-0.115-0.162-0.173-0.242c-0.075-0.053-0.158-0.021-0.243-0.071c-0.242-0.14-0.322-0.473-0.66-0.52
		c-0.166,0.212-0.688,0.678-1.041,0.693c-0.075-0.074-0.224-0.115-0.277-0.208c-0.035-0.104-0.07-0.208-0.104-0.312
		c-0.099-0.109-0.296-0.154-0.382-0.277c-0.167-0.242-0.394-0.795-0.659-0.902c-0.115-0.073-0.267-0.006-0.417-0.069
		c-0.057-0.024-0.122-0.146-0.173-0.174c-0.128-0.068-0.396-0.111-0.521-0.139c-0.28-0.062-0.708,0.084-1.042,0
		c-0.35-0.089-0.515-0.362-0.799-0.451c-0.22,0.012-0.44,0.023-0.66,0.034c-0.297-0.097-0.464-0.395-0.694-0.556
		c-0.181-0.126-0.373-0.183-0.556-0.312c-0.042-0.03-0.033-0.104-0.07-0.139c-0.245-0.236-0.713-0.555-1.005-0.729
		c-0.174-0.058-0.348-0.115-0.521-0.173c-0.118-0.079-0.156-0.271-0.312-0.312c-0.146-0.039-0.308,0.076-0.486,0
		c-0.255-0.11-0.494-0.41-0.729-0.556c-0.193-0.121-0.423-0.125-0.625-0.243c-0.058-0.069-0.116-0.139-0.174-0.208
		c-0.081-0.012-0.161-0.023-0.243-0.035c-0.122-0.048-0.182-0.181-0.278-0.242c-0.128-0.047-0.254-0.094-0.382-0.14
		c-0.221-0.15-0.318-0.487-0.486-0.694c-0.151-0.187-0.389-0.309-0.59-0.452c-0.126-0.089-0.169-0.272-0.277-0.381
		c-0.411-0.411-1.163-0.704-1.667-1.042c-0.194-0.129-0.367-0.355-0.556-0.485c-0.198-0.137-0.425-0.18-0.625-0.313
		c-0.084-0.056-0.157-0.186-0.243-0.242c-0.42-0.282-0.824-0.493-1.25-0.765c-0.44-0.279-1.504-1.216-2.048-1.25
		c-0.405,0.369-1.277,0.322-2.049,0.348c-0.186,0.007-0.335,0.061-0.521,0c-0.146-0.049-0.255-0.192-0.382-0.243
		c-0.127-0.022-0.255-0.047-0.382-0.07c-0.064-0.04-0.099-0.176-0.173-0.208c-0.095-0.04-0.271,0.027-0.313,0.035
		c-0.14,0.026-0.877-0.085-0.972-0.139c-0.024-0.047-0.047-0.093-0.07-0.139c-0.17-0.128-0.389-0.272-0.625-0.312
		c-0.071,0.065-0.133,0.069-0.278,0.069c-0.053-0.089-0.162-0.157-0.208-0.243c-0.16-0.293-0.115-0.429-0.59-0.417
		c-0.1-0.042-0.299,0.062-0.486,0c-0.146-0.048-0.26-0.2-0.382-0.243c-0.405,0.012-0.81,0.023-1.215,0.035
		c-0.372-0.104-0.561-0.467-0.903-0.625c-0.294-0.136-0.702,0.077-0.972-0.104c-0.271-0.182-0.269-0.557-0.452-0.833
		c-0.225-0.338-0.671-0.536-0.833-0.938c-0.027-0.068,0.005-0.607,0-0.729c-0.126-0.078-0.281-0.149-0.417-0.242
		c-0.081-0.093-0.162-0.186-0.243-0.278c-0.186-0.023-0.371-0.046-0.556-0.069c-0.058-0.069-0.116-0.139-0.174-0.208
		c-0.127-0.093-0.293-0.112-0.417-0.208c-0.085-0.066-0.074-0.189-0.139-0.278c-0.07-0.095-0.35-0.225-0.452-0.277
		c-0.274-0.142-0.466-0.074-0.729-0.174c-0.208-0.079-0.342-0.337-0.556-0.417c-0.187-0.069-0.329,0.048-0.486-0.069
		c-0.091-0.086-0.376-0.415-0.417-0.521c-0.031-0.081,0-0.156-0.035-0.208c-0.122-0.108-0.321-0.107-0.417-0.243
		c-0.137-0.196-0.183-0.391-0.417-0.486c-0.234-0.096-0.41,0.083-0.625,0.035c-0.239-0.054-0.32-0.269-0.486-0.382
		c-0.101-0.069-0.217-0.068-0.312-0.139c-0.276-0.206-0.049-0.455-0.208-0.764c-0.061-0.118-0.241-0.131-0.347-0.209
		c-0.055-0.039-0.057-0.128-0.104-0.173c-0.192-0.184-0.462-0.31-0.625-0.521c-0.046-0.059-0.045-0.132-0.104-0.174
		c-0.162-0.113-0.308-0.093-0.521-0.173c-0.12-0.045-0.969-0.763-1.042-0.868c-0.054-0.078-0.149-0.237-0.173-0.312
		c-0.054-0.166,0.035-0.354-0.035-0.486c-0.047-0.035-0.093-0.069-0.139-0.104c-0.012-0.116-0.023-0.232-0.035-0.347
		c-0.238-0.431-0.695-0.698-0.973-1.077c-0.091-0.125-0.118-0.254-0.208-0.382c-0.104-0.081-0.208-0.162-0.312-0.243
		C9.146,42.08,9.196,42,9.135,41.913c-0.055-0.077-0.186-0.104-0.244-0.173c-0.075-0.091-0.119-0.761-0.208-0.903
		c-0.211-0.177-0.588-0.128-0.625-0.486c-0.081-0.198,0.224-0.303,0.173-0.556c-0.075-0.374-0.334-0.252-0.486-0.452
		c-0.087-0.113-0.003-0.204-0.139-0.277c-0.307-0.208-0.849-0.15-1.146-0.347c-0.31-0.207-0.51-0.57-0.799-0.799
		c-0.134-0.106-0.418-0.044-0.555-0.139c-0.131-0.091-0.138-0.332-0.278-0.417c-0.058-0.011-0.116-0.022-0.173-0.035
		c-0.047-0.058-0.093-0.116-0.139-0.174c-0.264-0.133-0.543,0.037-0.66-0.243c-0.101-0.163,0.056-0.368,0-0.486
		c-0.069-0.185-0.188-0.128-0.208-0.381c0.267-0.432,0.264-1.176,0.451-1.702c0.356-0.998,0.576-2.16,0.903-3.16
		c0.023-0.173,0.046-0.347,0.069-0.521c0.583-1.86,0.968-3.812,1.528-5.729c0.291-0.998,0.661-2.09,0.868-3.125
		c0.027-0.135-0.043-0.467-0.07-0.59c0-0.381,0-0.764,0-1.146c-0.002-0.011-0.068-0.198-0.069-0.208
		c-0.036-0.282,0.08-0.774,0-1.146c-0.189-0.877-0.091-2.03-0.208-2.916c0.106-0.087,0.126-0.199,0.208-0.312
		c0.282-0.388,0.635-0.773,0.902-1.181c0.156-0.237,0.223-0.5,0.382-0.729c0.527-0.757,0.995-1.524,1.493-2.326
		c0.282-0.455,0.676-0.911,0.938-1.389c0.012-0.092,0.023-0.185,0.035-0.278c0.051-0.116,0.166-0.262,0.208-0.417
		c0-0.069,0-0.139,0-0.208c0.317-0.772,0.662-1.687,0.937-2.5c0.224-0.657,0.375-1.321,0.66-1.909
		c0.482-0.048,1.021-0.201,1.458-0.313c0.093,0,0.185,0,0.278,0c0.452-0.116,1.019-0.223,1.458-0.347
		c0.151-0.011,0.301-0.022,0.451-0.034c0.644-0.184,1.418-0.262,2.049-0.451c0.104,0,0.208,0,0.312,0
		c0.397-0.103,0.919-0.206,1.319-0.313c0.15-0.011,0.301-0.023,0.451-0.035c1.917-0.507,4.063-0.665,5.938-1.25
		c0.974-0.304,2.098-0.583,3.056-0.938c0.43-0.159,0.855-0.151,1.285-0.312c0.34-0.128,0.763-0.207,1.146-0.347
		c0.099-0.037,0.264-0.185,0.347-0.209c0.101-0.028,1.341,0.072,1.493,0.104c0.428,0.012,0.856,0.024,1.285,0.035
		c0.748,0.163,1.537,0.009,2.292,0.174c0.255,0,0.51,0,0.764,0c0.33,0.072,0.764-0.008,1.076,0.035
		c0.83,0.114,1.745,0.033,2.535,0.208c0.289,0,0.578,0,0.868,0c0.54,0.152,1.055,0.584,1.527,0.833
		c0.238,0.126,0.476,0.144,0.695,0.278c0.861,0.525,1.836,0.981,2.708,1.493c0.282,0.165,0.541,0.229,0.833,0.381
		c0.43,0.225,0.886,0.536,1.319,0.764c0.123,0.065,0.227,0.038,0.348,0.104c0.456,0.25,0.951,0.609,1.424,0.833
		c0.499,0.238,0.94,0.495,1.389,0.764c0.166,0.1,0.407,0.131,0.521,0.278c0.334,0.433-0.073,0.882,0.07,1.319
		c0.056,0.173,0.221,0.385,0.277,0.59c0.077,0.285-0.019,0.504-0.07,0.729c-0.062,0.274,0.13,0.384,0.07,0.659
		c-0.039,0.176-0.145,0.428-0.175,0.556c-0.021,0.098,0.06,0.155,0.07,0.208c-0.011,0.104-0.022,0.208-0.034,0.312
		c0.09,0.047,0.165,0.069,0.208,0.173c0.063,0.093,0.022,0.247,0,0.347c-0.146,0.071-0.268,0.176-0.382,0.278
		c0.022,0.061,0.007,0.034,0.035,0.069c0.043,0.113,0.03,0.091,0.173,0.104c0.067-0.118,0.229-0.064,0.348-0.035
		c0.057,0.091,0.175,0.207,0.208,0.312c0.107,0.34-0.134,0.714,0.068,1.077c0.213,0.379,1.008,0.452,1.042,0.902
		c0.092,0.182-0.14,0.44-0.174,0.625c-0.05,0.28,0.087,0.602,0.14,0.833c0,0.22,0,0.44,0,0.66c0.043,0.107,0.207,0.228,0.243,0.347
		c0.054,0.179-0.123,0.272,0.035,0.381c0.091-0.197,0.178-0.286,0.486-0.278c0,0.012,0,0.023,0,0.035
		c0.157,0.051,0.708,0.748,0.729,0.938c0.104,0.191-0.606,0.387-0.729,0.555c-0.012,0-0.023,0-0.036,0c0,0.012,0,0.023,0,0.035
		c0.013,0,0.024,0,0.036,0c0.221,0.177,1.049,0.336,0.693,0.833c-0.097,0.289-0.422,0.258-0.521,0.521
		c0.221,0.123,0.389,0.24,0.521,0.452c0.104-0.023,0.209-0.046,0.312-0.069c0.085,0.137,0.186,0.18,0.209,0.382
		c0.247,0.393-0.387,0.686-0.383,1.007c0.002,0.15,0.172,0.369,0.209,0.555c0.027,0.139-0.049,0.286-0.07,0.382
		c-0.02,0.092,0.027,0.205,0.035,0.242c0.052,0.245-0.035,0.795-0.104,0.973c-0.098,0.249-0.468,0.484-0.66,0.659
		c0.012,0.058,0.022,0.116,0.035,0.174c0.175,0.047,0.426,0.137,0.485,0.312c0.149,0.206-0.072,0.433-0.173,0.591
		c-0.286,0.443-0.506,0.79-0.729,1.319c-0.052,0.123-0.187,0.294-0.139,0.417c0.058,0.382,0.407,0.396,0.451,0.798
		c-0.135,0.121-0.267,0.24-0.277,0.486C55.945,28.225,56.216,28.552,56.389,28.58z"/>
</g>
<g id="Layer_1">
</g>
</svg>
