<?xml version="1.0" encoding="iso-8859-1"?>
<!-- Generator: Adobe Illustrator 16.0.3, SVG Export Plug-In . SVG Version: 6.00 Build 0)  -->
<!DOCTYPE svg PUBLIC "-//W3C//DTD SVG 1.1//EN" "http://www.w3.org/Graphics/SVG/1.1/DTD/svg11.dtd">
<svg version="1.1" xmlns="http://www.w3.org/2000/svg" xmlns:xlink="http://www.w3.org/1999/xlink" x="0px" y="0px" width="100px"
	 height="100px" viewBox="0 0 100 100" style="enable-background:new 0 0 100 100;" xml:space="preserve">
<g id="RO">
	<g>
		<path d="M82.302,48.517c0.079-0.499,0.238-0.998,0.419-1.278c0.18-0.279,0.14-0.898-0.1-1.338c-0.24-0.44-0.281-0.6-0.06-0.839
			c0.219-0.24-0.061-0.2-0.041-0.579c0.02-0.38,0.438-0.34,0.639-0.4c0.201-0.059,0.279-0.379,0.161-0.64
			c-0.12-0.258,0.159-0.438,0.278-0.598c0.121-0.161,0.021-0.52,0.061-0.84c0.041-0.319-0.04-0.538-0.238-0.898
			c-0.2-0.36,0.14-1.138,0.159-1.238c0.019-0.1,0.1-0.439,0.019-0.7c-0.079-0.259,0.221-0.459,0.2-0.599s-0.34-0.2-0.479-0.219
			c-0.141-0.02-0.26-0.379-0.181-0.659c0.081-0.281-0.239-0.439-0.279-0.5c-0.041-0.061,0-0.72-0.419-0.819
			c-0.421-0.1-0.438-0.5-0.56-0.7c-0.12-0.198,0.08-0.559,0.121-0.759c0.038-0.199-0.061-0.299-0.241-0.438
			s-0.241-0.278-0.159-0.579c0.078-0.3-0.181-0.321-0.381-0.52c-0.199-0.2-0.219-0.479-0.718-0.66
			c-0.5-0.179-0.459-0.339-0.859-0.438c-0.399-0.1-0.6-0.28-0.479-0.44c0.121-0.159,0.159-0.399-0.199-0.399
			c-0.359,0-0.459-0.2-0.52-0.479s-0.201-0.599-0.38-0.898c-0.179-0.3-0.279-0.7-0.657-0.799c-0.381-0.101-0.441-0.279-0.541-0.459
			c-0.1-0.179-0.359-0.54-0.738-0.6c-0.38-0.059-0.2-0.398-0.081-0.479c0.12-0.079,0.081-0.318-0.119-0.638s-0.64-0.261-0.779-0.52
			c-0.14-0.26-0.061-0.58-0.2-0.72c-0.14-0.141-0.22-0.36-0.419-0.58c-0.2-0.22-0.24-0.06-0.458-0.339
			c-0.222-0.279-0.181-0.36-0.541-0.639c-0.359-0.279-0.34-0.799-0.599-0.878c-0.26-0.08-0.101-0.459,0.041-0.54
			c0.14-0.079,0.038-0.359-0.221-0.559c-0.259-0.2-0.8-0.76-0.521-0.999c0.279-0.24-0.279-0.738-0.479-0.778
			c-0.2-0.041-0.357,0.02-0.357-0.681c0-0.697-0.18-0.759-0.18-0.978c0-0.219-0.102-0.239-0.32-0.439
			c-0.22-0.2-0.299-0.838-0.459-1.079c-0.16-0.24-0.601-0.359-0.761-0.399c-0.16-0.04,0.121-0.34-0.019-0.619
			c-0.142-0.28-0.301-0.379-0.499-0.359c-0.2,0.019-0.401,0.319-0.52-0.021c-0.12-0.34-0.2-0.58-0.419-0.598
			c-0.222-0.021-0.142-0.201-0.142-0.341c0-0.139-0.32-0.259-0.398-0.2c-0.082,0.062-0.46,0.479-0.7,0.24
			c-0.239-0.24-0.559-0.399-0.779-0.02c-0.219,0.379-0.738,0.619-0.997,0.779c-0.262,0.16-0.561,0.14-0.859,0.34
			c-0.299,0.2-0.7,0.039-0.898,0.3c-0.2,0.259-0.859,0.819-1.06,1.278c-0.198,0.459-0.498,1.138-0.679,1.259
			c-0.179,0.119-0.56-0.061-0.839,0.04s-0.959,0.419-1.558,0.379c-0.599-0.042-1.199,0.098-1.778,0.319
			c-0.579,0.221-1.038-0.379-1.496-0.258c-0.462,0.119-0.922,0.299-1.72,0.498c-0.799,0.2-1.558,0.219-2.018,0.94
			c-0.459,0.718-0.398,1.457-0.979,1.617c-0.578,0.159-0.578,0.379-1.259,0.359c-0.678-0.02-0.858-0.08-1.299-0.08
			c-0.438,0-0.518-0.12-0.639-0.519c-0.12-0.4-0.358-0.959-0.879-1.079c-0.52-0.12-0.778-0.52-1.118-0.919
			c-0.34-0.399-0.378-0.659-1.156-0.72c-0.781-0.059-1.221,0.021-1.479,0.439c-0.261,0.421-0.439-0.079-0.859-0.04
			c-0.419,0.04-0.997,0.2-1.3,0.141c-0.299-0.06-0.637,0.14-0.976,0.06c-0.341-0.079-0.68-0.379-1.24-0.34
			c-0.56,0.04-1.317,0.061-1.757-0.26c-0.44-0.319-0.539-0.379-1.1-0.418c-0.559-0.041-1.157-0.479-1.338-0.479
			c-0.18,0-0.34,0.718-0.599,0.678c-0.261-0.04-0.839-0.4-1.397-1.038c-0.561-0.64-1.399-1.419-1.737-1.378
			c-0.341,0.04-0.561,0.659-0.521,1.238c0.04,0.578-0.421,0.899-0.7,0.698c-0.279-0.199-0.578-0.379-0.918-0.299
			s-0.041,0.359-0.36,0.638c-0.32,0.28-0.619,0.959-0.958,0.959c-0.34,0-0.639,0.42-0.718,0.719c-0.082,0.3-0.439,0.419-0.68,0.739
			c-0.239,0.32-0.739,0.52-1.12,0.499c-0.378-0.02-0.677-0.419-0.978-0.299c-0.299,0.12-0.498,0.359-0.858,0.559
			c-0.36,0.2-0.979-0.08-1.259,0.18c-0.279,0.259-0.439,0.16-0.439,0.479c0,0.319-0.281,0.359-0.52,0.458
			c-0.241,0.1,0.021,0.54-0.48,1.019c-0.499,0.479-0.778,0.479-1.318,1.199c-0.539,0.72-0.059,1.377-0.059,1.638
			c0,0.258,0.099,0.679-0.459,0.598c-0.561-0.08-0.782,0.3-1.02,0.84c-0.239,0.538-0.418,1.678-0.798,2.118
			c-0.38,0.438-1.358,0.878-1.738,1.397s0.2,1.179,0.061,1.458c-0.141,0.279-0.56,0.639-0.78,0.938
			c-0.219,0.299-0.459,0.839-0.858,0.999c-0.4,0.159-0.08,0.479-0.2,0.778c-0.12,0.3,0.159,1.059-0.2,1.319
			c-0.359,0.259-0.06,0.819-0.78,0.898c-0.718,0.082-1.058,0.38-1.217,0.72c-0.16,0.339-0.6,0.979-0.6,1.297
			c0,0.32,0.799,0.819,0.46,1.118c-0.34,0.301-1.04,0.36-1.218,0.839c-0.179,0.479-0.179,0.66-0.38,0.819
			c-0.2,0.16-0.619,0.22-0.839,0.379c-0.219,0.16-0.161,0.74-0.46,0.64c-0.299-0.1-0.778-0.358-1.278-0.26
			c-0.498,0.1-0.718-0.259-1.058-0.299c-0.34-0.041-0.718,0.42-0.959,0.959c-0.239,0.539-0.2,0.739-0.699,0.739
			s-0.699,0.04-1.1-0.24c-0.398-0.279-0.598-0.2-0.738,0c-0.14,0.2-0.32,0.479-0.858,0.24c-0.54-0.24-1.36,0-1.418,0.101
			c-0.06,0.099-0.38,0.599,0.059,1.037c0.44,0.439,0.401,0.661,0.66,1.02c0.26,0.357,0.919,0.778,1.159,0.998
			c0.239,0.221,0.16,0.561,0.5,0.659c0.337,0.101,0.678,0.3,0.817,0.561c0.139,0.259,0.44,0.998,0.66,1.337
			c0.22,0.34,0.359,0.54,0.859,0.22c0.5-0.319,0.659,0.18,0.578,0.5c-0.079,0.32-0.041,0.738-0.159,0.998
			c-0.12,0.261-0.36,0.519-0.34,1.02c0.02,0.5,0.56,0.778,0.18,1.237c-0.378,0.459-0.279,0.279-0.239,0.561
			c0.039,0.279,0.219-0.281,0.838,0.657c0.619,0.938,1.22,1.22,1.578,1.699c0.36,0.479,0.92,0.837,1.159,0.719
			c0.241-0.119,0.619-0.381,0.86,0.118c0.239,0.5,0.419,0.641,0.857,0.881c0.44,0.238,1.3,0.159,1.739,0.659
			c0.438,0.498,0.42,1.157,0.2,1.678c-0.221,0.52,0.02,0.778-0.499,0.778c-0.52,0-0.919,0.419-0.919,0.419s0.62,0.64,0.718,0.739
			c0.101,0.101,0.799,0.34,0.959,0.34c0.161,0,0.42,0.539,0.32,0.72c-0.099,0.179-0.398,0.359-0.579,0.359s-0.66-0.339-1.04,0.079
			c-0.379,0.421,0,0.979,0.221,1.199c0.22,0.219,0.699,0.34,1.038,0.34c0.34,0,0.959,0.16,1.059,0.678c0.1,0.521,0,0.959,0.66,1.2
			c0.659,0.237,1.377-0.081,1.677-0.081c0.299,0,0.958,0.2,1.499,0.598c0.539,0.401,0.378,0.741,0.378,0.922
			c0,0.177,0.32,0.479,0.561,0.778c0.239,0.299,0.518,0.738,1.079,0.259c0.558-0.479,0.299-0.779,0.519-0.938
			c0.219-0.159,0.518-0.299,0.799-0.8c0.279-0.5,0.219-0.578,0.898-0.818c0.68-0.239,0.5-0.719,0.939-0.719
			c0.438,0,0.798,0.14,1.038,0.559c0.24,0.421,0.92,0.778,1.339,1c0.417,0.22,1.099,0.798,0.819,1.118
			c-0.279,0.319-0.56,0.438-1.02,0.14c-0.459-0.3-0.62-0.2-0.759,0.04c-0.14,0.239-0.241,0.678-0.779,0.719
			c-0.54,0.04-0.879-0.021-0.52,0.54c0.36,0.559,0.279,1.037,0.36,1.157c0.079,0.121,0.599,0.959,1.058,1.059
			c0.46,0.101,0.74,0.321,0.759,0.78c0.02,0.458,0.041,0.698,0.381,0.718c0.339,0.02,0.839,0.02,1.019,0.262
			c0.178,0.237,0.358,0.459,0.599,0.479c0.239,0.019,0.378,0.459,0.558,0.518c0.18,0.061,0.758,0.241,0.92,0.561
			c0.158,0.32,0.259,0.738-0.081,0.999c-0.339,0.26-0.779,0.141-1.217,0.519c-0.441,0.38-0.601,0.799-0.581,1.139
			c0.021,0.34,0.619,0.819,1.078,1.118c0.461,0.301,1.119,0.619,1.758,0.44c0.639-0.181,1.32-0.419,1.819-0.38
			c0.499,0.04,0.857-0.1,1.218-0.179c0.36-0.082,1.199,0,1.639,0.459c0.438,0.459,1.278,0.558,1.737,0.479
			c0.459-0.08,1.237,0.14,1.558,0.3c0.319,0.16,0.819,0.239,1.099,0.239s0.737,0.34,1.158,0.499c0.419,0.16,0.8,0.459,1.498,0.459
			c0.699,0,0.761,0.061,1.199,0.041c0.438-0.021,0.898-0.258,1.238-0.5c0.34-0.237,0.918-0.578,1.598-0.438
			c0.681,0.14,1.018,0.22,1.398,0.559c0.38,0.339,0.718,0.44,1.159,0.261c0.438-0.181,0.799-0.4,1.197-0.3
			c0.399,0.1,0.639,0.079,0.859,0c0.219-0.081,0.499,0,0.857,0.238c0.361,0.241,0.88,0.3,1.319,0.3s0.699-0.238,1.218,0.261
			c0.52,0.5,1.06,0.8,1.599,0.6c0.539-0.201,0.898-0.381,1.397-0.34c0.5,0.04,0.778-0.2,1.019-0.279
			c0.239-0.081,0.341-0.061,0.719-0.221c0.38-0.16,0.68-0.379,0.88-0.659c0.198-0.279,0.479-0.579,0.759-0.658
			c0.279-0.081,0.419-0.34,0.66-0.76c0.238-0.42,0.558-0.839,1.077-1.12c0.521-0.277,0.959-0.558,1.14-0.817
			c0.18-0.26,0.518-0.479,1.058-0.658s0.84-0.4,1.238-0.581c0.4-0.178,1.199-0.159,1.818-0.259s1.418-0.14,2.275-0.5
			c0.86-0.359,2.04-1.196,2.599-1.337c0.558-0.139,0.859,0.099,1.237,0.119c0.381,0.021,1.159,0.36,1.519,0.36
			c0.358,0,0.658,0.059,1.138,0.498c0.479,0.44,0.921,0.88,1.179,0.899c0.259,0.021,0.7,0,1.079,0.06
			c0.38,0.061,0.999,0.04,1.179-0.16c0.181-0.198,0.64-0.319,0.879,0.421c0.24,0.738,1.519,0.459,1.818,0.279
			c0.299-0.18,0.759-0.619,0.877-0.221c0.12,0.4,0.581,1.818,0.959,2.218c0.38,0.4,1.218,0.778,2.418,0.998
			c1.197,0.221,2.615,0.181,3.095,0.181s0.6,0.319,0.859-0.839s0.26-1.299,0.22-1.679c-0.039-0.379,0.22-0.879,0.359-1.258
			c0.14-0.38,0.061-0.599-0.059-0.918c-0.122-0.319-0.002-0.64-0.101-0.879c-0.1-0.239-0.08-0.321,0.061-0.341
			c0.139-0.02,0.438-0.04,0.197-0.558c-0.238-0.521-0.619-1.119-0.619-1.52c0-0.398,0.081-0.678,0.361-0.879
			c0.278-0.2,0.459-0.52,0.539-0.859c0.08-0.338,0.66-1.067,1.067-1.487c0.41-0.419,0.441-0.739,0.54-0.948
			c0.1-0.209,0.409-0.6,0.23-0.669c-0.181-0.072-0.448,0.239-0.619,0.46c-0.169,0.218-0.21,0.287-0.409,0.338
			c-0.201,0.052-0.23,0.37-0.33,0.58c-0.101,0.209-0.22,0.479-0.229,0.009c-0.012-0.468,0.078-0.688-0.181-0.749
			c-0.261-0.059-0.22-0.158-0.2-0.3c0.02-0.14,0.32,0.011,0.43-0.009c0.11-0.02,0.169-0.26,0.069-0.29
			c-0.099-0.03-0.188-0.279-0.13-0.379c0.061-0.1,0.38-0.17,0.4-0.31s-0.14-0.3-0.221-0.489c-0.079-0.191,0.11-0.521-0.09-0.581
			c-0.2-0.059-0.288-0.098-0.469,0.012c-0.18,0.108-0.229-0.081-0.19-0.229c0.04-0.149,0.049-0.14,0.24-0.132
			c0.189,0.01,0.35,0.042,0.479-0.118c0.131-0.159,0.5-0.36,0.759-0.389c0.259-0.03,0.569,0.039,0.68-0.012
			c0.108-0.049,0.169-0.239,0.07-0.397c-0.102-0.161-0.082-0.321,0-0.479c0.079-0.161-0.021-0.472-0.279-0.562
			c-0.261-0.09-0.09-0.209-0.25-0.279c-0.16-0.069-0.312-0.058-0.319-0.319c-0.012-0.26,0.018-0.558-0.062-0.648
			c-0.078-0.091,0.062-0.301,0.238-0.458c0.181-0.161,0.232-0.192,0.271-0.282c0.04-0.088,0.289-0.088,0.47-0.239
			c0.181-0.15,0.27-0.308,0.398-0.308c0.13,0,0.27,0.138,0.421,0.138c0.149,0,0.607,0.109,0.629,0.29
			c0.02,0.18-0.091,0.479-0.301,0.609c-0.208,0.131-0.22,0.46-0.179,0.709c0.04,0.251,0.199,0.77,0.368,0.828
			c0.171,0.061,0.171,0.03,0.171-0.159s0.09-0.21,0.159-0.21c0.07,0,0.431,0.131,0.431,0.419c0,0.29-0.052,0.58-0.392,0.86
			c-0.338,0.278-0.448,0.488-0.828,0.52c-0.379,0.029-0.659,0.088-0.559,0.349c0.1,0.259,0.349,0.488,0.48,0.48
			c0.128-0.01,0.258-0.19,0.487-0.45c0.23-0.259,0.529-0.641,0.771-0.789c0.238-0.15,0.868-0.4,1.197-0.439
			c0.331-0.039,0.869-0.01,1.139-0.03c0.271-0.021,0.739-0.129,0.889-0.238c0.151-0.111,0.489-0.13,0.771-0.13
			c0.279,0,0.588-0.201,0.759-0.551c0.169-0.348,0.069-0.859,0.069-0.859s0.369-0.01,0.43-0.259c0.059-0.25,0.149-0.877,0.181-1.198
			c0.029-0.318,0.157-0.298,0.139-0.609c-0.021-0.31-0.08-0.528-0.04-0.789c0.04-0.26,0.159-0.768,0.04-0.989
			c-0.121-0.219-0.339-0.209-0.659-0.27c-0.319-0.059-0.602-0.318-0.7-0.579c-0.099-0.259-0.118-0.787,0.12-0.778
			c0.24,0.009,0.359,0.469,0.44,0.368c0.079-0.098,0.039-0.429-0.081-0.767c-0.119-0.34-0.349-0.909-0.509-1.081
			c-0.159-0.168-0.43-0.318-0.479-0.709c-0.049-0.39-0.568-0.599-1.258-0.669c-0.688-0.069-1.18,0.151-1.499,0.279
			c-0.319,0.131-0.439,0.32-0.55,0.57c-0.109,0.249-0.427,0.41-0.837,0.33c-0.409-0.081-0.85,0.159-1.159,0.448
			c-0.31,0.291-0.56,0.43-0.63,0.93s-0.338,0.59-0.739,0.27c-0.397-0.318-0.787-0.749-1.217-0.44c-0.431,0.311-0.11,0.93-0.319,1.06
			c-0.21,0.129-1.07-0.011-1.609-0.069c-0.538-0.061-1.378-0.1-1.947-0.499c-0.569-0.401-0.857-0.759-1.177-1.349
			c-0.32-0.589-0.521-0.868-0.919-1.089c-0.4-0.219-0.581-0.39-0.64-0.698c-0.061-0.311-0.072-0.581-0.46-0.84
			c-0.39-0.259-0.37-0.471-0.22-0.54c0.149-0.07,0.648,0.021,0.639-0.489c-0.01-0.508-0.179-0.528-0.24-0.778
			c-0.059-0.25-0.09-0.669-0.119-0.869s-0.15-0.299-0.39-0.438c-0.24-0.141-0.14-0.271-0.089-0.33c0.049-0.06,0-0.27-0.041-0.35
			c-0.039-0.08,0.051-0.29,0.14-0.399c0.09-0.11,0.071-0.281-0.05-0.479c-0.119-0.2-0.2-0.39-0.14-0.679
			c0.062-0.291,0-0.47-0.18-0.729C82.25,48.778,82.302,48.517,82.302,48.517z"/>
		<path d="M92.522,68.122c-0.19-0.063-0.285,0.075-0.396,0.166c-0.112,0.088-0.232,0.142-0.368,0.186
			c-0.134,0.045-0.217,0.179-0.285,0.322c-0.066,0.142-0.066,0.293-0.209,0.352c-0.141,0.061-0.276,0.353-0.127,0.36
			c0.149,0.007,0.344-0.277,0.472-0.448c0.128-0.173,0.352-0.375,0.502-0.466c0.151-0.089,0.443-0.136,0.391,0.091
			c-0.052,0.225-0.159,0.321-0.203,0.419c-0.046,0.098-0.021,0.248,0.112,0.263c0.136,0.015,0.144-0.113,0.248-0.36
			s0.225-0.359,0.134-0.556C92.702,68.256,92.623,68.155,92.522,68.122z"/>
		<path d="M91.909,67.77c-0.102,0.032-0.264,0.03-0.225,0.105c0.036,0.074,0.134,0.03,0.254,0.03c0.119,0,0.188-0.045,0.111-0.113
			C91.978,67.726,91.944,67.76,91.909,67.77z"/>
		<ellipse cx="91.321" cy="68.106" rx="0.116" ry="0.06"/>
		<ellipse cx="91.145" cy="68.591" rx="0.097" ry="0.077"/>
	</g>
</g>
<g id="Layer_1">
</g>
</svg>
