<?xml version="1.0" encoding="iso-8859-1"?>
<!-- Generator: Adobe Illustrator 16.0.3, SVG Export Plug-In . SVG Version: 6.00 Build 0)  -->
<!DOCTYPE svg PUBLIC "-//W3C//DTD SVG 1.1//EN" "http://www.w3.org/Graphics/SVG/1.1/DTD/svg11.dtd">
<svg version="1.1" xmlns="http://www.w3.org/2000/svg" xmlns:xlink="http://www.w3.org/1999/xlink" x="0px" y="0px" width="100px"
	 height="100px" viewBox="0 0 100 100" style="enable-background:new 0 0 100 100;" xml:space="preserve">
<g id="RS">
	<path d="M36.71,0.578c-0.248,0-0.248,0.427-0.517,0.427c-0.27,0-0.449-0.494-0.74-0.358c-0.292,0.135-0.963,0.067-1.93-0.36
		c-0.965-0.427-1.257-0.359-1.706,0.089c-0.449,0.45-1.101,0.854-1.458,0.719c-0.361-0.134-0.965-0.74-1.48-0.919
		c-0.518-0.18-1.167,0.044-1.976,0.382c-0.809,0.336-0.896,1.794-1.188,2.086c-0.292,0.292-1.371,0.628-1.932,0.875
		c-0.56,0.247-1.751,0.787-2.513,0.966c-0.762,0.18-0.583-0.74-0.966-0.898c-0.381-0.157-0.763,0.158-0.942,0.518
		c-0.178,0.357-0.156,0.74-0.583,0.808c-0.426,0.067-0.897,0.807-1.641,1.502c-0.451,0.425-0.948,0.564-1.562,0.511
		c0.141,0.486,0.303,0.979,0.204,1.314c-0.152,0.508,0.179,0.778,0.509,1.076c0.328,0.299,0.568,0.63,0.418,1.228
		c-0.151,0.598,0.296,0.63,0.597,1.078c0.3,0.448-0.21,1.107-0.508,1.556c-0.299,0.448-0.39,1.078,0.029,1.408
		c0.418,0.327,0.749,0.327,1.079,0c0.328-0.33,0.51-0.241,0.628,0.059c0.12,0.3,0.239,0.359,0.658,0.627
		c0.421,0.271-0.179,0.63-0.658,0.63s-0.479,0.359-0.3,0.807c0.182,0.448,0.122,0.808-0.179,1.287
		c-0.3,0.478-0.389,0.837-0.271,0.987c0.122,0.15,0.631,0,1.32,0.239c0.688,0.241,1.044,0.657,1.675,1.228
		c0.627,0.568,0.985,0.507,1.915,0.807c0.928,0.298,1.793,0.15,1.793,0.15s0.105,0.133,0.24,0.628
		c0.134,0.495-0.674,0.808-1.21,0.942c-0.54,0.135-0.809-0.63-1.213-0.583c-0.405,0.044-0.807,0.136-1.302,0.136
		c-0.493,0-0.942,0.135-1.302,0.492c-0.358,0.359-0.223,1.481-0.223,1.885c0,0.403,0.267,1.526-0.047,1.796
		c-0.313,0.269,0,0.807,0.539,1.031c0.433,0.182,0.603,0.619,0.724,0.975c0.091-0.059,0.143-0.091,0.143-0.091s0.749,0,1.197,0
		c0.449,0,0.779,0.269,1.257,0.241c0.479-0.031,0.601-0.09,0.601-0.09s-0.3,1.317-0.36,2.035c-0.061,0.716-0.091,0.808-0.388,1.346
		c-0.3,0.537-0.27,1.017-0.3,1.437c-0.031,0.419-0.36,0.837-0.6,1.105c-0.239,0.271-0.419,0.78-0.627,1.137
		c-0.209,0.359-0.418,0.627-0.868,1.169c-0.448,0.537-0.657,1.196-0.63,1.676c0.03,0.478-0.239,0.657-0.418,1.196
		c-0.178,0.539-0.03,1.346,0.3,2.035c0.328,0.687,1.198,1.496,1.886,1.405c0.688-0.091,1.527-0.418,1.706,0.448
		c0.179,0.869,0.3,1.646,0.988,1.855c0.688,0.209,0.867-0.269,0.985,0.3c0.122,0.569,0.509,1.226,0.958,1.676
		c0.448,0.448,1.348,1.287,1.379,1.765c0.027,0.48-0.422,1.287-0.959,1.497c-0.539,0.208-0.239,0.418-0.899,0.418
		c-0.658,0-0.958,0-1.407,0s-0.957-0.059-1.555-0.357c-0.6-0.3-1.346-0.091-1.018,0.507c0.329,0.598,0.869,1.166,0.957,1.646
		c0.091,0.478,0.449,1.075,0.958,1.526c0.509,0.447,0.988,1.166,1.318,1.766c0.328,0.599,1.226,1.765,1.016,2.632
		c-0.209,0.868-0.749,1.946-0.897,1.946c-0.149,0-0.688-0.241-0.779,0.029c-0.087,0.269-0.058-0.988-0.418-1.019
		c-0.358-0.03-0.539,0.45-1.316,0.062c-0.779-0.389-0.717,0.359-0.717,0.748c0,0.158,0.002,0.59,0.011,1.04
		c0.277,0.164,0.692,0.565,0.916,0.634c0.26,0.078,0.595,0.437,0.784,0.843c0.193,0.403,0.292,0.74,0.887,1.109
		c0.594,0.373,0.462,0.271,1.312,1.092c0.853,0.817,1.09,1.176,1.393,1.671c0.302,0.492,0.573,0.964,1.01,1.065
		c0.438,0.102,0.562,0.572,0.685,0.831c0.124,0.257,0.427,0.312,0.561,0.481c0.136,0.169,0.136,0.461,0.136,0.731
		c0,0.266-0.011,0.93,0.459,0.672c0.471-0.26,0.515-0.797,0.919-0.607c0.404,0.19,0.955,0.652,1.392,0.618
		c0.438-0.034,1.098-0.245,1.447,0.156c0.347,0.406,0.875,0.932,0.875,1.179s-0.383,0.573-0.371,0.943
		c0.01,0.369,0.203,0.393,0.808,0.528c0.605,0.133,1.077,0.302,1.751,0.536c0.674,0.237,1.054,0.494,1.739,0.373
		c0.686-0.125,1.054-0.248,1.313-0.248s0.616,0.167,0.616,0.561s-0.168,0.977-0.033,1.416c0.134,0.438,0.339,0.537-0.032,0.797
		c-0.372,0.255-1,0.492-1.248,0.56c-0.245,0.065-0.437,0.357-0.437,0.561c0,0.202,0.057,0.752-0.438,0.65
		c-0.492-0.1-1.054-0.245-1.525-0.448c-0.473-0.202-1.302-0.461-1.727-0.124c-0.428,0.338-0.551,1.044-0.34,1.447
		c0.215,0.406,0.281,0.843,0.889,1.516c0.605,0.674,0.875,0.953,0.729,1.604c-0.024,0.105-0.046,0.223-0.068,0.348
		c0.171,0.062,0.35,0.175,0.548,0.236c0.479,0.149,0.688,0.78,1.077,1.198c0.387,0.418,0.894,0.82,1.047,1.467
		c0.027,0.116,0.014,0.104-0.017,0.478c-0.029,0.374,0.122,0.554,0.345,0.824c0.227,0.269,0.061,0.701,0.314,0.866
		c0.255,0.165,0.69-0.104,1.062-0.104c0.375,0,0.839,0.254,1.514,0.792c0.671,0.537,1.106,0.569,1.629,1.256
		c0.526,0.688,1.018,1.394,1.018,2.156c0,0.762,0.014,1.061,0.314,1.438c0.3,0.373,0.599,0.941,0.822,1.466
		c0.227,0.522,0.166,1.196-0.014,1.465c-0.182,0.271-0.556,0.822-0.404,1.229c0.148,0.403-0.239,0.403-0.36,0.763
		c-0.113,0.342,0.044,0.862,0.019,1.181c0.647-0.179,1.438-0.49,1.748-0.583c0.449-0.135,1.346-1.944,1.407-2.662
		c0.061-0.719-0.449-3.114,0.329-3.503c0.777-0.389,2.094-0.986,2.992-1.407c0.897-0.416,1.556-0.658,1.768-1.105
		c0.208-0.45,0.866-0.957,1.464-0.062c0.6,0.9,1.078,1.708,1.527,1.378c0.447-0.329,1.467-2.362,2.664-2.753
		c1.196-0.39,2.242-0.21,3.38-0.15c1.139,0.062,1.826,0.358,2.365-0.599c0.537-0.957,0.389-1.826,0.658-1.646
		c0.27,0.181,0.118,0.898,0.718,0.898c0.597,0,1.585-0.777,2.304-0.748c0.719,0.03,0.928,0.419,1.497,0.3
		c0.566-0.12,0.836-0.268,1.406-0.209c0.567,0.06,0.987,0.178,1.437,0.089c0.448-0.089,1.805-0.488,1.854-0.271
		c0.017,0.072,0.027,0.144,0.039,0.214c0.143-0.06,0.265-0.116,0.366-0.174c0.06-0.031,1.066-0.65,1.023-1.125
		c-0.044-0.469,0.248-0.783,0.809-0.896c0.562-0.112,0.471-0.81,0.741-1.549c0.27-0.739-0.675-1.818-1.416-2.064
		c-0.739-0.248-0.83-0.651-0.561-1.167c0.269-0.519,0.291-0.966,0.405-2.086c0.112-1.125-0.248-1.102-0.675-1.844
		c-0.427-0.739-0.066-1.166,0.292-1.367c0.36-0.203,0.63-0.18,1.458-0.763c0.832-0.583,1.167-0.45,2.335-0.45
		s1.234-0.65,1.595-1.502c0.358-0.854,0.897-1.953,1.39-2.312c0.496-0.359,0.762-1.055,0.831-1.706
		c0.066-0.65,0.763-1.952,0.763-1.952s-0.65,0.067-1.682-0.293c-1.034-0.358-1.01-1.121-1.37-2.108
		c-0.358-0.986-1.189-1.347-2.133-1.638c-0.941-0.292-2.377-1.349-3.03-2.021c-0.649-0.672-0.627-2.447-0.562-2.896
		c0.069-0.447-0.448-0.942-1.031-1.122c-0.585-0.18-0.92-1.255-1.011-2.4c-0.088-1.146-0.088-2.875,0.205-4.421
		c0.291-1.547,1.231-1.505,1.95-1.797c0.719-0.291,1.145-0.492,1.279-1.007c0.135-0.519-0.178-1.349,0-2.044
		c0.179-0.695,0.853-1.076,0.853-1.076s0,0-0.156-0.315c-0.157-0.314,0-0.45-0.091-1.054c-0.088-0.606-0.628-0.606-1.39-0.63
		c-0.765-0.021-1.327-0.719-1.506-1.188c-0.178-0.473-0.021-1.146-0.244-1.391c-0.226-0.25-0.452-0.674-0.047-0.854
		c0.404-0.18,0.921-0.248,1.123-0.831c0.201-0.583,0.648-1.033,1.258-0.831c0.605,0.203,1.346,0.313,1.524-0.315
		c0.179-0.627-0.516-1.01-1.123-1.278c-0.605-0.269-1.324-0.359-2.042-1.033c-0.718-0.672-1.232-0.964-1.729-0.943
		c-0.492,0.023-1.704,1.057-2.421,1.797c-0.719,0.74-1.01,2.109-1.302,2.76s-1.123,0.627-1.394,0.426
		c-0.27-0.2-0.226-0.539-0.987-1.033c-0.763-0.493-0.471-0.852-0.628-1.458c-0.156-0.606-1.1-0.674-1.863-0.852
		c-0.762-0.18-1.728-0.337-2.267-0.292c-0.539,0.044-1.572,0.201-2.155-0.067c-0.583-0.271-0.335-1.661-0.471-2.133
		c-0.135-0.471-1.032-0.179-1.771-0.179c-0.741,0-1.145-0.427-1.415-0.875c-0.27-0.449-0.628-0.427-0.628-0.427s0-0.203-0.023-0.583
		c-0.022-0.38,0.583-0.471,1.169-0.471c0.584,0,1.076,0.023,1.367-0.583c0.292-0.607-0.809-1.055-1.393-1.279
		c-0.583-0.223-1.523-0.629-1.593-1.01c-0.066-0.382,0.74-0.606,1.28-0.898c0.539-0.292,0.562-0.875,0.966-1.706
		c0.403-0.831,0.021-1.57-0.741-1.908c-0.765-0.336-2.089-0.763-2.941-0.987c-0.853-0.224-1.481-0.741-1.437-1.257
		c0.047-0.516-0.471-0.359-1.166-0.269c-0.694,0.091-0.854-0.159-1.548-0.742c-0.696-0.583-1.549-1.12-2.089-1.75
		c-0.539-0.628-0.83-1.258-1.098-1.258c-0.27,0-0.583-0.336-0.583-0.695c0-0.359,0.583-0.852,0.109-1.054
		c-0.471-0.203-0.292-0.919-0.201-1.615c0.091-0.697,0.066-1.438,0.18-2.109c0.111-0.674,0.202-1.213-0.224-1.326
		c-0.427-0.111-0.652,0.427-1.393,0.404c-0.74-0.021-0.696-0.896-0.853-1.278c-0.157-0.383-0.919-0.943-1.167-1.347
		c-0.249-0.406-0.696-0.292-1.167-0.539c-0.47-0.247-0.247-1.167-0.674-1.101c-0.426,0.068-0.963-0.089-1.254-0.493
		c-0.292-0.405-1.011-2.156-1.193-2.491c-0.178-0.336-0.605-0.852-1.01-0.852C37.093,1.239,36.959,0.578,36.71,0.578z"/>
</g>
<g id="Layer_1">
</g>
</svg>
