<?xml version="1.0" encoding="iso-8859-1"?>
<!-- Generator: Adobe Illustrator 16.0.3, SVG Export Plug-In . SVG Version: 6.00 Build 0)  -->
<!DOCTYPE svg PUBLIC "-//W3C//DTD SVG 1.1//EN" "http://www.w3.org/Graphics/SVG/1.1/DTD/svg11.dtd">
<svg version="1.1" xmlns="http://www.w3.org/2000/svg" xmlns:xlink="http://www.w3.org/1999/xlink" x="0px" y="0px" width="100px"
	 height="100px" viewBox="0 0 100 100" style="enable-background:new 0 0 100 100;" xml:space="preserve">
<g id="RU">
	<g>
		<path style="fill:#010101;" d="M35.055,42.924c-0.068-0.025-0.11,0.009-0.125,0.132c-0.013,0.124,0.022,0.221,0.074,0.214
			c0.051-0.008,0.118-0.082,0.118-0.184C35.122,42.982,35.096,42.94,35.055,42.924z"/>
		
			<ellipse transform="matrix(0.415 0.9098 -0.9098 0.415 57.8356 -5.3532)" style="fill:#010101;" cx="33.081" cy="42.298" rx="0.076" ry="0.063"/>
		<ellipse style="fill:#010101;" cx="34.074" cy="42.98" rx="0.056" ry="0.062"/>
		<ellipse style="fill:#010101;" cx="31.243" cy="41.139" rx="0.126" ry="0.044"/>
		<path style="fill:#010101;" d="M22.061,37.849c-0.029,0.111-0.044,0.184,0.022,0.191c0.066,0.008,0.132-0.059,0.154-0.162
			c0.023-0.103,0.026-0.167-0.014-0.198C22.165,37.636,22.092,37.739,22.061,37.849z"/>
		<path style="fill:#010101;" d="M31.176,40.324c0.163,0,0.618,0.117,0.677-0.043c0.073-0.198-0.161-0.367-0.161-0.485
			c0-0.119-0.103-0.177-0.22-0.235c-0.118-0.059-0.199-0.047-0.265-0.045c-0.19,0.009-0.441,0.103-0.47,0.22
			c-0.031,0.119-0.134,0.324-0.074,0.5C30.722,40.412,31.017,40.324,31.176,40.324z"/>
		<path style="fill:#010101;" d="M35.782,42.821c0.088,0.022,0.382-0.066,0.374-0.199c-0.007-0.132-0.212-0.271-0.191-0.419
			c0.022-0.146,0.082-0.41,0.037-0.425c-0.043-0.015-0.094-0.017-0.124-0.009c-0.158,0.047-0.294,0.164-0.242,0.325
			c0.053,0.16,0.074,0.263,0.037,0.374C35.636,42.578,35.694,42.8,35.782,42.821z"/>
		<path style="fill:#010101;" d="M34.497,38.613c0.169,0,0.251-0.059,0.286-0.015c0.037,0.043,0.051,0.08,0,0.124
			c-0.05,0.044-0.022,0.163,0.044,0.184s0.051,0.096,0.007,0.177c-0.043,0.08-0.079,0.169-0.014,0.257
			c0.065,0.087,0.189,0.205,0.153,0.263c-0.036,0.06-0.19-0.058-0.308-0.058s-0.228-0.014-0.258,0.163
			c-0.028,0.176,0.052,0.236,0.118,0.33c0.066,0.096,0.059,0.147,0.051,0.264c-0.007,0.118,0.045,0.213,0.191,0.228
			c0.148,0.014,0.25,0.088,0.25,0.206c0,0.118,0.088,0.184,0.154,0.161c0.065-0.022,0.214-0.029,0.266,0.06
			c0.051,0.088,0.248,0.072,0.234-0.125c-0.015-0.198-0.132-0.36-0.06-0.494c0.075-0.131,0.19-0.336,0.19-0.564
			c0-0.229,0.066-0.478,0.155-0.551c0.088-0.075,0.242-0.168,0.264-0.323c0.022-0.156,0.198-0.346,0.353-0.397
			c0.154-0.052,0.259-0.177,0.259-0.242c0-0.066-0.046-0.11,0.064-0.11s0.206,0,0.236-0.082c0.028-0.081,0.234,0.045,0.196-0.139
			c-0.036-0.184-0.116-0.229-0.249-0.346c-0.132-0.117-0.243-0.18-0.323-0.241c-0.182-0.146-0.292-0.251-0.41-0.133
			c-0.117,0.118-0.162,0.229-0.354,0.229s-0.176-0.052-0.213,0.058c-0.037,0.111-0.007,0.139-0.094,0.19
			c-0.09,0.052-0.368,0.154-0.434,0.213c-0.067,0.059-0.111,0.059-0.229,0c-0.117-0.059-0.184-0.044-0.265,0.036
			c-0.08,0.082-0.308,0.192-0.353,0.31C34.364,38.363,34.328,38.613,34.497,38.613z"/>
		<path style="fill:#010101;" d="M34.593,39.193c0.065-0.169,0.044-0.293,0.029-0.36c-0.016-0.066-0.058-0.082-0.088-0.089
			c-0.058-0.012-0.154,0.022-0.154,0.162c0,0.139-0.016,0.19-0.06,0.28c-0.043,0.087-0.088,0.227-0.008,0.256
			C34.396,39.473,34.526,39.361,34.593,39.193z"/>
		<path style="fill:#010101;" d="M37.501,37.908c0.073,0.131,0.132,0.118,0.337,0.058c0.207-0.058,0.419-0.095,0.376-0.242
			c-0.045-0.147-0.045-0.228,0.058-0.178c0.104,0.052,0.199-0.014,0.221-0.094c0.022-0.082,0.221-0.287,0.272-0.236
			c0.051,0.052-0.089,0.177-0.095,0.249c-0.009,0.074,0.051,0.111,0.183,0.096c0.133-0.015,0.266-0.044,0.272-0.199
			c0.006-0.154,0.052-0.234,0.11-0.234s0.096,0.14,0.196,0.14c0.104,0,0.39,0.037,0.545,0c0.155-0.038,0.3-0.104,0.309-0.199
			c0.006-0.096,0.065-0.147,0.124-0.147c0.06,0,0.104,0.111,0.116,0.184c0.016,0.073,0.178,0.124,0.259,0.073
			c0.083-0.051,0.213-0.206,0.396-0.169c0.184,0.036,0.346-0.028,0.44-0.088c0.096-0.058,0.287,0.052,0.406,0.016
			c0.117-0.038,0.299-0.046,0.431,0.006c0.134,0.051,0.456,0.081,0.669,0.081c0.214,0,0.435-0.109,0.566-0.227
			c0.133-0.118,0.33-0.243,0.33-0.463s-0.029-0.345-0.257-0.382c-0.229-0.037-0.345-0.058-0.478,0.051
			c-0.132,0.11-0.251,0.132-0.375,0.066c-0.124-0.066-0.242,0.008-0.367,0.008c-0.124,0-0.309-0.029-0.448-0.081
			c-0.138-0.051-0.183-0.021-0.367-0.118c-0.184-0.096-0.322-0.169-0.433-0.081c-0.11,0.089-0.199,0.051-0.251-0.029
			c-0.051-0.08-0.283-0.075-0.381-0.073c-0.154,0-0.455,0.051-0.544,0.051c-0.088,0-0.146,0.206-0.212,0.221
			c-0.067,0.014-0.104,0.065-0.273,0.029c-0.169-0.036-0.264-0.036-0.366-0.021c-0.103,0.014-0.141-0.044-0.168-0.132
			c-0.03-0.089-0.142-0.198-0.199-0.066c-0.06,0.133-0.126,0.344-0.25,0.396c-0.125,0.053-0.228,0.118-0.265,0.221
			c-0.036,0.104-0.103,0.119-0.176,0.044c-0.074-0.073-0.141-0.044-0.154,0.103c-0.015,0.147-0.008,0.25-0.11,0.22
			c-0.103-0.028-0.081-0.139-0.235-0.103c-0.154,0.036-0.241,0.022-0.353,0.022c-0.109,0-0.205,0.094-0.175,0.154
			c0.028,0.057,0.145,0.057,0.227,0.073c0.082,0.015,0.285,0.139,0.285,0.192c0,0.051,0.03,0.139-0.103,0.087
			c-0.132-0.051-0.183-0.125-0.396-0.103c-0.212,0.022-0.19,0.103-0.079,0.257C37.229,37.497,37.428,37.775,37.501,37.908z"/>
		<path style="fill:#010101;" d="M43.724,30.658c0.054,0.063,0.095,0.114,0.169,0.051c0.072-0.062,0.168-0.175,0.127-0.227
			c-0.039-0.051-0.136-0.026-0.18-0.014C43.744,30.494,43.668,30.595,43.724,30.658z"/>
		<path style="fill:#010101;" d="M44.108,30.918c0.047-0.011,0.073-0.058,0.149-0.058c0.077,0,0.192,0.021,0.192-0.062
			c0-0.086-0.06-0.13-0.115-0.141c-0.054-0.012-0.149-0.037-0.217,0.026c-0.066,0.062-0.085,0.078-0.095,0.114
			C44.008,30.858,44.061,30.93,44.108,30.918z"/>
		<path style="fill:#010101;" d="M44.681,30.907c0.071,0.034,0.154,0.111,0.198,0.152c0.045,0.041,0.215,0.077,0.242-0.026
			c0.03-0.103,0.077-0.207,0.163-0.207c0.083,0,0.139-0.068,0.083-0.138c-0.055-0.069-0.157-0.15-0.235-0.191
			c-0.077-0.042-0.151-0.042-0.201-0.03c-0.08,0.019-0.225,0.113-0.279,0.201C44.598,30.758,44.61,30.875,44.681,30.907z"/>
		<path style="fill:#010101;" d="M45.651,30.816c0.032,0.055,0.172,0.066,0.241,0.062c0.07-0.003,0.205,0.071,0.291,0.04
			c0.083-0.028,0.036-0.125,0.103-0.19s0.176-0.162,0.188-0.272c0.011-0.11,0.015-0.154-0.041-0.179
			c-0.055-0.025-0.088-0.02-0.117-0.015c-0.124,0.02-0.35,0.099-0.47,0.22C45.725,30.604,45.617,30.762,45.651,30.816z"/>
		<path style="fill:#010101;" d="M46.44,29.92c0.04-0.077,0.04-0.146,0.011-0.18c-0.051-0.056-0.136,0.021-0.158,0.067
			c-0.021,0.043-0.062,0.132-0.032,0.161C46.29,29.997,46.4,29.997,46.44,29.92z"/>
		<path style="fill:#010101;" d="M45.326,30.456c0.09,0.099,0.167,0.092,0.203,0.047c0.036-0.042-0.007-0.153-0.062-0.227
			c-0.055-0.074-0.114-0.057-0.146-0.038C45.251,30.28,45.238,30.356,45.326,30.456z"/>
		<path style="fill:#010101;" d="M45.739,29.285c0.029-0.066,0.036-0.181-0.02-0.228c-0.054-0.048-0.129-0.051-0.171-0.041
			c-0.051,0.01-0.074,0.166-0.041,0.228C45.54,29.306,45.709,29.351,45.739,29.285z"/>
		<path style="fill:#010101;" d="M44.978,29.534c0.03-0.05,0-0.128-0.072-0.208c-0.074-0.081-0.148-0.097-0.194-0.073
			c-0.048,0.024-0.049,0.15,0.032,0.219C44.824,29.542,44.949,29.584,44.978,29.534z"/>
		<path style="fill:#010101;" d="M45.224,29.622c0.056,0,0.122-0.054,0.085-0.205c-0.035-0.151-0.057-0.165-0.106-0.173
			c-0.032-0.006-0.108,0.077-0.108,0.198S45.17,29.622,45.224,29.622z"/>
		<path style="fill:#010101;" d="M44.493,30.149c0.089,0,0.115-0.144,0.121-0.336c0.01-0.191-0.022-0.282-0.096-0.326
			c-0.053-0.033-0.118,0.047-0.118,0.245C44.4,29.931,44.404,30.149,44.493,30.149z"/>
		<path style="fill:#010101;" d="M44.221,29.843c0.052,0,0.077,0.004,0.075-0.096c-0.004-0.099-0.02-0.115-0.052-0.125
			c-0.062-0.02-0.11,0.059-0.114,0.114C44.126,29.792,44.17,29.843,44.221,29.843z"/>
		<path style="fill:#010101;" d="M44.874,29.847c0.012-0.111,0-0.131-0.035-0.144c-0.053-0.018-0.122,0.019-0.139,0.166
			c-0.02,0.146,0.036,0.175,0.073,0.165C44.81,30.022,44.864,29.957,44.874,29.847z"/>
		<path style="fill:#010101;" d="M44.905,30.35c0.052-0.058,0.057-0.121,0.04-0.158c-0.023-0.054-0.129,0.01-0.179,0.055
			c-0.052,0.045-0.056,0.103-0.034,0.147C44.754,30.437,44.854,30.408,44.905,30.35z"/>
		<path style="fill:#010101;" d="M44.226,30.176c0.051,0,0.096-0.058,0.099-0.12c0.004-0.063-0.066-0.103-0.104-0.106
			c-0.087-0.013-0.112,0.083-0.108,0.139C44.114,30.144,44.174,30.176,44.226,30.176z"/>
		<path style="fill:#010101;" d="M43.256,29.861c-0.066,0.005-0.161,0.037-0.158,0.122c0.004,0.084,0.077,0.162,0.144,0.162
			c0.065,0,0.114-0.019,0.137-0.132c0.021-0.114-0.008-0.122-0.041-0.139C43.305,29.854,43.275,29.859,43.256,29.861z"/>
		<path style="fill:#010101;" d="M42.503,28.51c0.081-0.037,0.117-0.147,0.176-0.129c0.06,0.018,0.254,0.22,0.302,0.225
			c0.048,0.002,0.136-0.048,0.062-0.151c-0.073-0.102-0.157-0.179-0.213-0.231c-0.056-0.051-0.101-0.068-0.14-0.083
			c-0.089-0.036-0.309-0.089-0.346,0.052C42.308,28.33,42.423,28.546,42.503,28.51z"/>
		<path style="fill:#010101;" d="M42.636,28.83c-0.052,0.091-0.122,0.083-0.174,0.065c-0.052-0.018-0.106,0.078-0.062,0.181
			c0.045,0.104-0.019,0.253,0.092,0.253c0.109,0,0.165-0.066,0.261-0.093c0.095-0.025,0.282,0.037,0.353,0.101
			c0.069,0.062,0.328,0.073,0.444,0.01c0.118-0.062,0.165-0.119,0.185-0.179c0.032-0.109,0.025-0.287-0.142-0.291
			c-0.165-0.004-0.417,0.037-0.487,0.007c-0.07-0.029-0.22-0.125-0.275-0.143C42.774,28.723,42.687,28.736,42.636,28.83z"/>
		<path style="fill:#010101;" d="M42.896,29.39c-0.049-0.051-0.091-0.054-0.122-0.043c-0.069,0.024-0.088,0.124-0.024,0.187
			c0.062,0.063,0.146,0.038,0.176-0.002C42.954,29.491,42.943,29.441,42.896,29.39z"/>
		<path style="fill:#010101;" d="M42.451,29.927c-0.004,0.101,0.097,0.13,0.228,0.13c0.133,0,0.221-0.029,0.225-0.096
			c0.004-0.066-0.126-0.117-0.18-0.125C42.622,29.821,42.456,29.828,42.451,29.927z"/>
		<path style="fill:#010101;" d="M44.493,31.377c0.045-0.081-0.021-0.103-0.109-0.191c-0.088-0.087-0.169-0.068-0.214-0.037
			c-0.118,0.086-0.044,0.185,0.066,0.25C44.348,31.465,44.45,31.458,44.493,31.377z"/>
		<path style="fill:#010101;" d="M31.176,40.633c-0.116-0.044-0.193-0.084-0.241-0.044c-0.087,0.071,0.096,0.103,0.147,0.132
			C31.134,40.75,31.294,40.676,31.176,40.633z"/>
		<path style="fill:#010101;" d="M3.932,35.634c0.106,0.204,0.282,0.594,0.371,0.865c0.088,0.27,0.143,0.506,0.143,0.506
			s0.072-0.072,0.247-0.187c0.178-0.115,0.348-0.325,0.397-0.413c0.05-0.088,0.11-0.479,0.116-0.607
			c0.005-0.126,0.005-0.126,0.005-0.126s-0.186,0.083-0.259,0.044c-0.071-0.038-0.127-0.159-0.127-0.219c0-0.062,0-0.062,0-0.062
			s0.148,0.034,0.265,0.034c0.116,0,0.187-0.05,0.187-0.05s0.05-0.11-0.033-0.077c-0.082,0.033-0.149,0.027-0.265,0.027
			c-0.114,0-0.275,0-0.324-0.104c-0.049-0.106-0.115-0.239-0.142-0.315c-0.029-0.077-0.098-0.061-0.133-0.056
			c-0.087,0.016-0.126,0.193-0.172,0.239c-0.043,0.042,0,0.093-0.132,0.065c-0.131-0.028-0.232-0.116-0.292-0.154
			c-0.061-0.039-0.159-0.056-0.103,0.065C3.735,35.232,3.828,35.431,3.932,35.634z"/>
		<path style="fill:#010101;" d="M42.092,40.941c0,0.162,0.015,0.322,0.264,0.322c0.25,0,0.368-0.124,0.368-0.271
			c0-0.147-0.206-0.226-0.301-0.242C42.263,40.724,42.092,40.78,42.092,40.941z"/>
		<path style="fill:#010101;" d="M43.422,41.859c-0.03,0.088,0.021,0.109,0.124,0.154s0.154,0.037,0.199-0.044
			c0.043-0.081-0.06-0.14-0.103-0.161C43.519,41.749,43.45,41.77,43.422,41.859z"/>
		<path style="fill:#010101;" d="M44.479,43.27c0.169-0.03,0.339-0.17,0.31-0.294c-0.03-0.124-0.235-0.054-0.31-0.029
			c-0.139,0.046-0.339,0.102-0.339,0.19S44.31,43.298,44.479,43.27z"/>
		<path style="fill:#010101;" d="M45.096,42.659c-0.044,0.089-0.016,0.331,0.072,0.331c0.09,0,0.229-0.087,0.237-0.256
			c0.007-0.168,0.022-0.216-0.029-0.25C45.308,42.44,45.14,42.572,45.096,42.659z"/>
		<path style="fill:#010101;" d="M47.322,40.118c0.065-0.014,0.146-0.125,0.146-0.242s-0.04-0.162-0.087-0.177
			c-0.078-0.023-0.147,0.11-0.147,0.22C47.233,40.031,47.255,40.133,47.322,40.118z"/>
		<ellipse style="fill:#010101;" cx="46.081" cy="40.232" rx="0.051" ry="0.041"/>
		<ellipse style="fill:#010101;" cx="46.631" cy="40.214" rx="0.038" ry="0.052"/>
		<path style="fill:#010101;" d="M49.444,40.736c0.006,0.066,0.081,0.132,0.176,0.132s0.146-0.06,0.146-0.125
			s-0.094-0.072-0.132-0.073C49.525,40.667,49.437,40.669,49.444,40.736z"/>
		<path style="fill:#010101;" d="M50.949,38.047c0.059,0.03,0.162-0.029,0.25-0.096c0.088-0.066,0.037-0.174-0.006-0.199
			c-0.077-0.042-0.17,0.03-0.229,0.133C50.907,37.988,50.892,38.018,50.949,38.047z"/>
		<path style="fill:#010101;" d="M53.293,38.098c0-0.044-0.178,0.087-0.234,0.118c-0.098,0.05-0.213,0.096-0.169,0.168
			c0.043,0.074,0.22,0.031,0.329-0.029C53.329,38.297,53.293,38.143,53.293,38.098z"/>
		<path style="fill:#010101;" d="M52.89,38.73c-0.037-0.073-0.096-0.07-0.133-0.065c-0.111,0.015-0.111,0.146-0.074,0.212
			c0.037,0.066,0.096,0.095,0.17,0.036C52.926,38.854,52.926,38.803,52.89,38.73z"/>
		<path style="fill:#010101;" d="M53.564,38.584c-0.095-0.01-0.148,0.073-0.154,0.183c-0.008,0.11,0.059,0.206,0.154,0.17
			c0.097-0.037,0.132-0.133,0.104-0.236C53.638,38.598,53.604,38.588,53.564,38.584z"/>
		<path style="fill:#010101;" d="M53.248,38.803c-0.051-0.051-0.169-0.008-0.226,0.103c-0.061,0.111-0.066,0.177,0,0.228
			c0.064,0.052,0.115,0,0.19-0.125C53.284,38.885,53.286,38.84,53.248,38.803z"/>
		<path style="fill:#010101;" d="M53.035,39.464c0.096-0.014,0.178-0.024,0.206-0.072c0.045-0.076-0.088-0.118-0.212-0.118
			c-0.125,0-0.199,0.022-0.199,0.087C52.83,39.427,52.94,39.479,53.035,39.464z"/>
		<path style="fill:#010101;" d="M56.422,37.877c0.037,0.038,0.161-0.006,0.235-0.087c0.073-0.08,0.066-0.163,0.036-0.207
			c-0.036-0.051-0.103-0.021-0.205,0.075C56.386,37.752,56.386,37.841,56.422,37.877z"/>
		<path style="fill:#010101;" d="M58.39,38.539c0.14,0.087,0.214,0.059,0.266,0.008c0.051-0.051,0-0.141-0.103-0.222
			c-0.104-0.08-0.204-0.056-0.25-0.013C58.258,38.352,58.251,38.451,58.39,38.539z"/>
		<path style="fill:#010101;" d="M56.166,36.761c0.042,0.096,0.235,0.014,0.358-0.058c0.125-0.073,0.142-0.19,0.117-0.257
			c-0.031-0.094-0.161-0.014-0.294,0.043C56.217,36.549,56.121,36.667,56.166,36.761z"/>
		<path style="fill:#010101;" d="M56.18,36.505c0.095-0.059,0.118-0.145,0.103-0.198c-0.019-0.062-0.161-0.015-0.229,0.029
			c-0.065,0.045-0.116,0.154-0.095,0.206C55.98,36.593,56.084,36.564,56.18,36.505z"/>
		<path style="fill:#010101;" d="M54.431,36.908c0.147-0.051,0.117-0.242,0.243-0.286c0.125-0.043,0.478-0.118,0.609-0.118
			c0.133,0,0.608-0.022,0.608-0.25c0-0.228-0.043-0.344-0.196-0.513c-0.155-0.169-0.191-0.324-0.235-0.403
			c-0.044-0.083-0.162-0.148-0.257-0.104c-0.096,0.043-0.206,0.104-0.177-0.038c0.029-0.139,0.036-0.396-0.117-0.396
			c-0.154,0-0.287,0.132-0.316,0.262c-0.03,0.133-0.041,0.282-0.051,0.377c-0.02,0.184-0.088,0.439-0.206,0.609
			c-0.118,0.168-0.286,0.368-0.272,0.536C54.077,36.754,54.285,36.959,54.431,36.908z"/>
		<ellipse style="fill:#010101;" cx="49.483" cy="32.325" rx="0.1" ry="0.074"/>
		<ellipse style="fill:#010101;" cx="53.854" cy="33.247" rx="0.078" ry="0.047"/>
		<path style="fill:#010101;" d="M52.084,33.606c-0.032,0.05,0.023,0.149,0.155,0.193c0.131,0.045,0.318,0.205,0.386,0.297
			c0.066,0.094,0.176,0.034,0.276-0.088c0.098-0.12,0.312-0.203,0.428-0.203c0.117,0,0.2-0.061,0.148-0.231
			c-0.05-0.172,0.073-0.392,0.1-0.44c0.028-0.05,0.077-0.144-0.017-0.298c-0.093-0.155-0.133-0.199-0.176-0.265
			c-0.079-0.123-0.127-0.28-0.265-0.126s-0.192,0.309-0.308,0.352c-0.116,0.044-0.271-0.011-0.315,0.133
			c-0.042,0.144-0.071,0.33-0.148,0.406C52.272,33.414,52.118,33.557,52.084,33.606z"/>
		<path style="fill:#010101;" d="M52.272,34.521c0.127-0.076,0.187-0.104,0.187-0.248c0-0.143-0.095-0.197-0.16-0.209
			c-0.082-0.016-0.236-0.01-0.236,0.033c0,0.045,0,0.094,0.039,0.138c0.037,0.044,0.037,0.127,0.011,0.188
			C52.084,34.483,52.145,34.599,52.272,34.521z"/>
		<path style="fill:#010101;" d="M53.171,34.075c-0.136,0.085-0.409,0.27-0.502,0.337c-0.094,0.066-0.265,0.192-0.127,0.319
			c0.138,0.126,0.204,0.254,0.22,0.352c0.017,0.1,0.104,0.271,0.261,0.276c0.153,0.005,0.246,0.154,0.335,0.232
			c0.089,0.076,0.441,0.242,0.611,0.165s0.28-0.208,0.143-0.386c-0.137-0.176-0.209-0.259-0.093-0.43
			c0.115-0.169,0.313-0.352,0.313-0.479c0-0.125-0.122-0.22-0.227-0.264c-0.104-0.044-0.302,0.131-0.396,0.248
			c-0.094,0.115-0.248,0.121-0.154-0.056c0.093-0.176,0.177-0.374,0-0.407C53.38,33.948,53.255,34.023,53.171,34.075z"/>
		<path style="fill:#010101;" d="M52.068,32.687c0.07,0.028,0.153-0.012,0.197-0.11c0.045-0.1-0.001-0.151-0.039-0.178
			c-0.101-0.07-0.164,0.072-0.181,0.117C52.03,32.561,51.996,32.66,52.068,32.687z"/>
		<path style="fill:#010101;" d="M58.959,41.198c-0.063,0.057-0.154,0.274-0.049,0.308c0.104,0.033,0.401,0.044,0.457,0
			c0.056-0.043,0.039-0.159-0.044-0.182c-0.083-0.021-0.144-0.037-0.182-0.109C59.102,41.144,58.993,41.168,58.959,41.198z"/>
		<ellipse style="fill:#010101;" cx="63.022" cy="40.812" rx="0.063" ry="0.055"/>
		<circle style="fill:#010101;" cx="63.353" cy="40.713" r="0.049"/>
		<circle style="fill:#010101;" cx="63.617" cy="40.372" r="0.055"/>
		<circle style="fill:#010101;" cx="65.683" cy="39.292" r="0.049"/>
		<path style="fill:#010101;" d="M67.019,38.032c-0.069,0.083,0.109,0.214,0.216,0.23c0.104,0.016,0.318,0.027,0.336-0.045
			c0.017-0.071-0.071-0.165-0.26-0.204C67.123,37.976,67.066,37.974,67.019,38.032z"/>
		<path style="fill:#010101;" d="M69.872,40.696c0.087,0,0.101-0.004,0.133-0.061c0.033-0.054-0.083-0.103-0.127-0.12
			c-0.045-0.018-0.151-0.001-0.182,0.033C69.636,40.616,69.784,40.696,69.872,40.696z"/>
		<path style="fill:#010101;" d="M70.275,36.989c-0.033-0.061-0.16-0.083-0.309-0.083c-0.15,0-0.236-0.008-0.315-0.01
			c-0.104-0.005-0.325-0.095-0.444-0.013c-0.122,0.083-0.178,0.275-0.16,0.342c0.016,0.065,0.104,0.227,0.104,0.357
			c0,0.132,0.012,0.243,0.122,0.21c0.11-0.032,0.29-0.148,0.435-0.17c0.144-0.021,0.496-0.243,0.557-0.315
			C70.324,37.236,70.308,37.049,70.275,36.989z"/>
		<path style="fill:#010101;" d="M68.704,36.825c-0.093-0.03-0.197,0.088-0.197,0.165c0,0.077,0.065,0.138,0.065,0.231
			c0,0.095,0.044,0.199,0.132,0.199s0.182-0.077,0.182-0.205s-0.062-0.148-0.021-0.204C68.903,36.958,68.763,36.842,68.704,36.825z"
			/>
		<path style="fill:#010101;" d="M68.992,34.168c0.143,0.088,0.484,0.204,0.604,0.209s0.33-0.011,0.43-0.066
			c0.101-0.055,0.392-0.215,0.49-0.242c0.1-0.029,0.27-0.122,0.265-0.326s-0.045-0.379-0.17-0.379c-0.127,0-0.274,0.099-0.408,0.17
			c-0.133,0.072-0.248,0.13-0.331,0.172c-0.21,0.104-0.584,0.258-0.727,0.298C69.002,34.041,68.848,34.081,68.992,34.168z"/>
		<path style="fill:#010101;" d="M66.269,35.81c-0.048,0.11-0.043,0.243,0.077,0.298c0.122,0.054,0.155,0.104,0.105,0.231
			c-0.049,0.127-0.005,0.231,0.123,0.297c0.124,0.067,0.203,0.072,0.302,0.072s0.265,0.05,0.325,0.094
			c0.06,0.044,0.392,0.061,0.494-0.094c0.105-0.153,0.132-0.326,0.237-0.407c0.104-0.083,0.144-0.209,0.161-0.348
			c0.016-0.137,0.075-0.191,0.137-0.104c0.061,0.087,0.209,0.127,0.282,0.093c0.07-0.032,0.021-0.165,0.087-0.231
			c0.066-0.065,0.148-0.225,0.022-0.225c-0.127,0-0.396,0.016-0.546-0.082c-0.148-0.1-0.271-0.332-0.192-0.393
			c0.076-0.061,0.192,0.116,0.254,0.165c0.061,0.051,0.297,0.162,0.457,0.128c0.158-0.033,0.291-0.099,0.253-0.353
			c-0.039-0.252-0.116-0.148-0.116-0.352s-0.065-0.253-0.236-0.242c-0.172,0.01-0.19,0.002-0.253,0.006
			c-0.2,0.006-0.672,0.083-0.849,0.06c-0.176-0.023-0.392,0.017-0.408,0.11c-0.017,0.095,0.1,0.111,0.227,0.111
			c0.126,0,0.407-0.021,0.391,0.083c-0.016,0.105-0.099,0.077-0.236,0.105c-0.138,0.026-0.204,0.064-0.178,0.192
			c0.029,0.126,0.062,0.265-0.065,0.23c-0.127-0.032-0.484-0.165-0.66-0.078c-0.177,0.09-0.325,0.188-0.271,0.299
			C66.248,35.585,66.319,35.701,66.269,35.81z"/>
		<path style="fill:#010101;" d="M68.342,32.495c0.06,0,0.077-0.04,0.104-0.132c0.027-0.095-0.011-0.142-0.05-0.154
			c-0.046-0.016-0.126,0.037-0.12,0.126C68.28,32.423,68.28,32.495,68.342,32.495z"/>
		<path style="fill:#010101;" d="M69.801,32.042c0.032,0,0.05-0.12,0.032-0.198c-0.017-0.077-0.068-0.1-0.104-0.099
			c-0.114,0.003-0.071,0.143-0.056,0.242C69.69,32.087,69.768,32.042,69.801,32.042z"/>
		<ellipse style="fill:#010101;" cx="70.074" cy="30.057" rx="0.047" ry="0.053"/>
		<circle style="fill:#010101;" cx="70.17" cy="32.441" r="0.072"/>
		<path style="fill:#010101;" d="M69.404,30.231c0.044,0.016,0.1,0.021,0.089-0.039c-0.012-0.062-0.051-0.072-0.089-0.093
			c-0.039-0.023-0.064-0.01-0.078,0.005C69.283,30.151,69.36,30.212,69.404,30.231z"/>
		<path style="fill:#010101;" d="M80.984,31.619c0.198-0.11,0.323-0.192,0.275-0.402c-0.051-0.209-0.35-0.113-0.465-0.083
			c-0.152,0.041-0.379,0.259-0.312,0.436C80.548,31.745,80.785,31.729,80.984,31.619z"/>
		<circle style="fill:#010101;" cx="78.521" cy="33.284" r="0.052"/>
		<circle style="fill:#010101;" cx="77.823" cy="33.431" r="0.067"/>
		<ellipse style="fill:#010101;" cx="78.103" cy="33.56" rx="0.065" ry="0.058"/>
		<ellipse style="fill:#010101;" cx="77.777" cy="33.924" rx="0.066" ry="0.058"/>
		<path style="fill:#010101;" d="M81.26,24.077c0.038,0,0.163-0.021,0.186-0.132c0.023-0.111-0.007-0.144-0.042-0.165
			c-0.067-0.039-0.189,0.042-0.205,0.132C81.183,24,81.22,24.077,81.26,24.077z"/>
		<path style="fill:#010101;" d="M81.06,26.313c0.1,0.137,0.261,0.204,0.386,0.171c0.127-0.034,0.148-0.133,0.155-0.414
			c0.006-0.281-0.034-0.451,0-0.7c0.033-0.248-0.083-0.541-0.132-0.645c-0.051-0.104-0.198-0.104-0.271-0.104
			c-0.116,0-0.297,0.202-0.375,0.341c-0.076,0.138-0.165,0.43-0.127,0.639C80.734,25.812,80.963,26.175,81.06,26.313z"/>
		<path style="fill:#010101;" d="M91.197,24.083c0.038-0.039,0.059-0.125,0.038-0.16c-0.048-0.081-0.166,0-0.192,0.043
			c-0.028,0.045-0.05,0.133-0.012,0.183C91.069,24.199,91.157,24.121,91.197,24.083z"/>
		<path style="fill:#010101;" d="M92.728,41.423c0.122,0.156,0.161,0.341,0.177,0.397c0.017,0.055,0.099,0.264,0.182,0.088
			c0.083-0.176-0.006-0.282-0.061-0.437c-0.056-0.152-0.056-0.335-0.044-0.478c0.012-0.144,0.034-0.288-0.039-0.359
			c-0.072-0.071-0.069-0.069-0.099-0.066c-0.125,0.019-0.165,0.149-0.148,0.288c0.016,0.137-0.027,0.286-0.066,0.324
			C92.591,41.221,92.607,41.269,92.728,41.423z"/>
		<path style="fill:#010101;" d="M97.647,53.19c-0.096,0.006-0.192,0.095-0.159,0.183c0.032,0.087,0.154,0.071,0.231,0.055
			c0.077-0.018,0.147-0.1,0.115-0.159C97.803,53.208,97.698,53.188,97.647,53.19z"/>
		<path style="fill:#010101;" d="M98.28,52.948c0.062-0.031,0.006-0.193-0.033-0.235c-0.038-0.046-0.115-0.09-0.159-0.084
			c-0.126,0.019-0.045,0.209,0,0.259C98.132,52.938,98.22,52.98,98.28,52.948z"/>
		<path style="fill:#010101;" d="M98.193,54.199c0.099-0.034,0.17-0.143,0.17-0.37c0-0.226,0.027-0.534-0.016-0.633
			c-0.044-0.099-0.083-0.125-0.128-0.132c-0.082-0.014-0.148,0.088-0.115,0.236s-0.006,0.188-0.037,0.271
			c-0.035,0.082,0.047,0.22,0.026,0.364C98.071,54.077,98.094,54.231,98.193,54.199z"/>
		<circle style="fill:#010101;" cx="95.935" cy="52.057" r="0.065"/>
		<circle style="fill:#010101;" cx="99.076" cy="55.957" r="0.06"/>
		<circle style="fill:#010101;" cx="99.034" cy="56.215" r="0.061"/>
		<circle style="fill:#010101;" cx="99.055" cy="57.144" r="0.069"/>
		<circle style="fill:#010101;" cx="99.417" cy="57.446" r="0.066"/>
		<ellipse style="fill:#010101;" cx="99.937" cy="58.57" rx="0.064" ry="0.041"/>
		<circle style="fill:#010101;" cx="99.011" cy="60.374" r="0.063"/>
		<ellipse style="fill:#010101;" cx="99.443" cy="60.576" rx="0.066" ry="0.059"/>
		<path style="fill:#010101;" d="M99.525,59.047c-0.099-0.037-0.175,0.165-0.165,0.358c0.012,0.192,0.122,0.401,0.203,0.396
			c0.084-0.005,0.172-0.248,0.139-0.424C99.669,59.2,99.613,59.08,99.525,59.047z"/>
		<path style="fill:#010101;" d="M99.482,61.163c-0.1-0.046-0.16,0.169-0.16,0.328c0,0.161-0.012,0.238-0.05,0.353
			c-0.039,0.116-0.011,0.491,0.104,0.491c0.116,0,0.178-0.236,0.178-0.363c0-0.128,0.07-0.282,0.06-0.474
			C99.603,61.306,99.563,61.2,99.482,61.163z"/>
		<path style="fill:#010101;" d="M98.981,63.79c0.087-0.093,0.143-0.281,0.108-0.393c-0.032-0.109-0.004-0.181,0.039-0.246
			c0.044-0.066,0.077-0.178,0.006-0.255s-0.146-0.026-0.182,0c-0.093,0.073-0.226,0.211-0.226,0.342
			c0,0.133-0.038,0.209-0.099,0.265s-0.171,0.242-0.128,0.403c0.044,0.159,0.006,0.418-0.049,0.539
			c-0.056,0.121-0.062,0.331-0.012,0.425c0.05,0.092,0.154,0.158,0.159,0.253c0.006,0.094,0.161,0.088,0.154-0.161
			c-0.005-0.246-0.048-0.665,0.023-0.83C98.849,63.966,98.892,63.883,98.981,63.79z"/>
		<path style="fill:#010101;" d="M98.986,65.977c-0.082,0.077-0.11,0.199-0.018,0.264c0.095,0.065,0.166-0.011,0.233-0.064
			c0.065-0.055,0.064-0.188,0.037-0.243C99.183,65.816,99.068,65.899,98.986,65.977z"/>
		<path style="fill:#010101;" d="M98.348,65.636c-0.095,0.037-0.129,0.051-0.172,0.065c-0.093,0.033-0.253,0.127-0.21,0.231
			c0.045,0.104,0.183,0.183,0.183,0.286c0,0.105-0.05,0.441,0.051,0.501c0.099,0.062,0.175,0.057,0.181-0.138
			c0.005-0.192-0.032-0.342-0.032-0.513c0-0.17,0.021-0.209,0.077-0.291C98.479,65.696,98.44,65.596,98.348,65.636z"/>
		<path style="fill:#010101;" d="M98.969,66.622c-0.061,0.055-0.093,0.154-0.021,0.154s0.188-0.012,0.22-0.057
			c0.035-0.043,0.044-0.077,0.039-0.104C99.192,66.511,99.028,66.566,98.969,66.622z"/>
		<circle style="fill:#010101;" cx="99.536" cy="64.966" r="0.047"/>
		<path style="fill:#010101;" d="M94.139,65.255c-0.083-0.104-0.287-0.1-0.401-0.083c-0.116,0.018-0.305-0.005-0.349-0.072
			c-0.044-0.065-0.104-0.104-0.269-0.17c-0.166-0.065-0.348-0.176-0.553-0.297c-0.202-0.121-0.363-0.469-0.418-0.662
			c-0.054-0.191-0.154-0.518-0.226-0.626c-0.06-0.093-0.239-0.233-0.26-0.354c-0.016-0.1-0.026-0.214,0.033-0.33
			c0.062-0.116,0.221-0.232,0.364-0.303c0.143-0.072,0.468-0.046,0.606,0.004c0.138,0.05,0.363,0.177,0.412,0.072
			c0.05-0.104-0.329-0.291-0.513-0.368c-0.181-0.078-0.45-0.139-0.748-0.294c-0.299-0.153-0.545-0.429-0.738-0.6
			c-0.192-0.17-0.396-0.286-0.562-0.479c-0.165-0.191-0.479-0.374-0.585-0.484c-0.104-0.11-0.165-0.083-0.286-0.006
			s-0.159-0.011-0.204-0.082c-0.043-0.072-0.098-0.314-0.247-0.337c-0.148-0.021-0.203-0.21-0.304-0.363
			c-0.1-0.154-0.139-0.313-0.363-0.451c-0.226-0.139-0.354-0.364-0.414-0.496c-0.059-0.133-0.324-0.375-0.457-0.375
			c-0.132,0-0.225-0.099-0.259-0.171c-0.032-0.07-0.126-0.226-0.221-0.276c-0.093-0.047-0.176-0.108-0.302-0.169
			c-0.127-0.061-0.176,0.175-0.254,0.281c-0.076,0.104-0.006,0.153,0.143,0.148c0.15-0.006,0.188,0.055,0.26,0.132
			s0.126,0.122,0.209,0.099c0.083-0.021,0.104,0.012,0.083,0.122c-0.022,0.11-0.071,0.242-0.066,0.413
			c0.005,0.169-0.165,0.115-0.181,0.353c-0.018,0.236,0.291,0.375,0.456,0.507c0.165,0.133,0.244,0.474,0.314,0.634
			c0.072,0.16,0.292,0.413,0.446,0.512s0.467,0.297,0.6,0.413c0.133,0.115,0.387,0.374,0.387,0.374s-0.071,0.127,0.011,0.266
			c0.082,0.138,0.303,0.12,0.303,0.12s0.413,0.513,0.623,0.749c0.209,0.237,0.456,0.513,0.588,0.668
			c0.134,0.154,0.2,0.309,0.211,0.463c0.01,0.152,0.132,0.362,0.265,0.463c0.132,0.099,0.444,0.191,0.622,0.363
			c0.176,0.17,0.153,0.368,0.237,0.623c0.082,0.252,0.274,0.252,0.449,0.391c0.178,0.137,0.194,0.419,0.238,0.638
			c0.044,0.221,0.139,0.326,0.259,0.381c0.122,0.055,0.237,0.104,0.386,0.247c0.149,0.145,0.205,0.117,0.248-0.026
			c0.045-0.143-0.099-0.419-0.132-0.519c-0.033-0.099-0.065-0.297-0.065-0.358c0-0.06,0.081-0.17,0.081-0.17
			s0.089,0.031,0.177,0.031s0.167-0.142,0.167-0.142s0.037-0.027,0.108,0c0.072,0.028,0.286,0.142,0.402,0.142
			c0.115,0,0.062-0.119,0-0.219C94.392,65.481,94.221,65.359,94.139,65.255z"/>
		<circle style="fill:#010101;" cx="83.407" cy="59.895" r="0.058"/>
		<circle style="fill:#010101;" cx="83.694" cy="59.813" r="0.067"/>
		<path style="fill:#010101;" d="M82.578,59.716c-0.023,0.117,0,0.124,0.043,0.124c0.044,0,0.117-0.037,0.154-0.132
			c0.037-0.096,0.006-0.132-0.028-0.146C82.65,59.518,82.6,59.598,82.578,59.716z"/>
		<path style="fill:#010101;" d="M83.399,59.01c-0.089-0.074-0.106-0.068-0.146-0.066c-0.124,0.009-0.294,0.052-0.337,0.169
			c-0.046,0.118,0,0.266,0.021,0.383s0.081,0.117,0.177,0.087c0.094-0.028,0.183-0.064,0.241-0.014
			c0.06,0.051,0.125-0.059,0.133-0.251C83.494,59.127,83.488,59.084,83.399,59.01z"/>
		<path style="fill:#010101;" d="M85.119,25.906c0.072-0.03,0.116-0.071,0.116-0.111c0-0.048-0.102-0.006-0.168,0.015
			c-0.065,0.021-0.124,0.066-0.11,0.111C84.972,25.965,85.045,25.935,85.119,25.906z"/>
		<path style="fill:#010101;" d="M38.005,49.16c-0.092-0.02-0.122,0.087-0.101,0.196c0.023,0.111,0.066,0.149,0.155,0.149
			s0.1-0.103,0.067-0.203C38.093,49.201,38.05,49.168,38.005,49.16z"/>
		<path style="fill:#010101;" d="M38.55,49.406c-0.105-0.003-0.242-0.022-0.242,0.103c0,0.128,0.082,0.128,0.164,0.133
			c0.083,0.005,0.204,0.012,0.249-0.059c0.044-0.074,0.016-0.144-0.022-0.167C38.66,49.396,38.587,49.408,38.55,49.406z"/>
		<path style="fill:#010101;" d="M46.118,46.476c0.05-0.045,0.102-0.087,0.088-0.122c-0.024-0.068-0.104-0.012-0.154,0.06
			c-0.048,0.072-0.109,0.094-0.076,0.138C46.01,46.596,46.068,46.519,46.118,46.476z"/>
		<circle style="fill:#010101;" cx="46.011" cy="45.932" r="0.057"/>
		<path style="fill:#010101;" d="M98.296,42.734c0.176-0.015,0.338-0.03,0.309-0.192c-0.03-0.161-0.44-0.087-0.44-0.087
			c-0.222,0.073-0.323,0.118-0.323,0.205C97.841,42.748,98.119,42.747,98.296,42.734z"/>
		<path style="fill:#010101;" d="M99.266,41.969c0.249-0.087,0.407-0.144,0.294-0.278c-0.062-0.074-0.265-0.045-0.383,0
			c-0.117,0.042-0.293,0.205-0.323,0.263C98.824,42.013,99.016,42.058,99.266,41.969z"/>
		<path style="fill:#010101;" d="M98.083,52.457c0.123-0.043,0.103-0.337,0.081-0.514c-0.023-0.176-0.148-0.477-0.103-0.712
			c0.043-0.235,0.072-0.537-0.148-0.676c-0.219-0.139-0.241-0.184-0.241-0.359c0-0.176,0.007-0.36-0.199-0.418
			c-0.206-0.06-0.183-0.368-0.338-0.31c-0.155,0.059-0.286,0.016-0.169-0.08c0.118-0.095,0.264,0.059,0.227-0.236
			c-0.035-0.293-0.014-0.44,0.148-0.55c0.161-0.111,0.256-0.368,0.029-0.389c-0.228-0.023-0.383,0.103-0.573-0.177
			c-0.19-0.28-0.433-0.969-0.426-1.13c0.008-0.163,0.169-0.301,0.265-0.419c0.097-0.118,0.205-0.31,0.103-0.602
			c-0.103-0.294-0.271-0.368-0.572-0.368s-0.492-0.036-0.543-0.199c-0.052-0.161-0.104-0.455-0.199-0.564
			c-0.097-0.11-0.397-0.228-0.403-0.398c-0.009-0.168-0.059-0.527,0.043-0.527s0.153,0.286,0.301,0.403
			c0.147,0.117,0.434,0.109,0.434-0.219c0-0.332-0.286-0.507-0.455-0.537c-0.169-0.03-0.543,0.088-0.669,0.088
			c-0.123,0-0.265,0.021-0.39-0.316c-0.123-0.337-0.159-0.639-0.402-0.617c-0.242,0.022-0.514,0.14-0.419,0.249
			c0.095,0.11,0.279,0.273,0.028,0.316c-0.249,0.044-0.462,0.168-0.683-0.293c-0.22-0.462-0.419-0.609-0.404-0.816
			c0.015-0.205-0.264-0.278-0.153-0.396c0.11-0.118,0.146-0.156-0.016-0.213c-0.16-0.06-0.418-0.015-0.572-0.441
			c-0.154-0.426-0.25-0.448-0.125-0.58s0.139-0.368,0.287-0.368c0.146,0,0.396,0.016,0.22-0.301
			c-0.177-0.314-0.368-0.616-0.294-0.742c0.074-0.124,0.235-0.117,0.33,0.009c0.097,0.124,0.405,0.353,0.471,0.235
			c0.066-0.118-0.089-0.287-0.19-0.449c-0.104-0.162-0.207-0.375-0.096-0.485c0.11-0.109,0.118-0.236,0.096-0.389
			c-0.022-0.154-0.038-0.404,0.028-0.559c0.066-0.153,0.133-0.477,0.331-0.507c0.198-0.028,0.771-0.058,0.829-0.116
			c0.06-0.06,0.024-0.148-0.095-0.287c-0.118-0.141-0.353-0.324-0.382-0.764c-0.029-0.441-0.021-1.043-0.096-1.161
			c-0.073-0.118-0.389-0.294-0.346-0.426c0.045-0.132,0.052-0.256-0.051-0.36c-0.103-0.103-0.095-0.243,0.008-0.331
			s0.008-0.228-0.06-0.396c-0.066-0.169-0.132-0.544-0.117-0.779c0.015-0.235,0.015-0.543-0.059-0.793
			c-0.072-0.25-0.007-0.484,0.059-0.75c0.066-0.265,0.206-0.426,0.419-0.551s0.316-0.206,0.228-0.309s-0.221-0.154-0.278-0.293
			c-0.06-0.14-0.272-0.147-0.383-0.147s-0.389-0.133-0.529-0.015c-0.14,0.118-0.213,0.022-0.302,0.022
			c-0.087,0-0.16,0.22-0.182,0.257c-0.022,0.037-0.169,0.096-0.279-0.095c-0.111-0.19-0.236-0.088-0.354-0.008
			c-0.117,0.081-0.184,0.014-0.229-0.08c-0.042-0.096-0.248-0.06-0.293,0.102c-0.044,0.161-0.19,0.235-0.19,0.235
			s-0.075-0.14-0.222-0.125c-0.146,0.015-0.248,0.192-0.248,0.192s-0.104-0.008-0.104,0.11s0.104,0.271-0.073,0.367
			c-0.177,0.096-0.213,0.102-0.185-0.081c0.031-0.184,0.045-0.235-0.066-0.184c-0.108,0.052-0.293,0.052-0.175-0.108
			c0.117-0.164,0.19-0.141,0.381-0.206c0.192-0.066,0.295-0.229,0.361-0.404c0.065-0.177,0.265-0.265,0.183-0.457
			c-0.08-0.19-0.08-0.345-0.33-0.718c-0.251-0.376-0.434-0.639-0.771-0.639s-0.492,0.198-0.543,0.118
			c-0.052-0.082-0.103-0.25-0.229-0.25c-0.124,0-0.132-0.087-0.058-0.131c0.073-0.045,0.154-0.133,0.162-0.244
			c0.006-0.11,0.109-0.176,0.206-0.088c0.095,0.088,0.286,0.235,0.44,0.235c0.153,0,0.521-0.043,0.536-0.33
			c0.015-0.288-0.03-0.493,0.081-0.588c0.108-0.095,0.315-0.412,0.506-0.412c0.191,0,0.61,0.082,0.728-0.095
			c0.117-0.176,0.117-0.469,0.359-0.543c0.243-0.073,0.479-0.293,0.551-0.462c0.074-0.168,0.17-0.265,0.074-0.464
			c-0.096-0.198-0.132-0.154-0.309-0.118c-0.176,0.037-0.332,0.045-0.448-0.124c-0.117-0.168-0.184-0.213-0.293-0.154
			c-0.109,0.058-0.184-0.044-0.184-0.111c0-0.066-0.11-0.036-0.229,0.006c-0.116,0.045-0.265,0.016-0.146-0.079
			c0.117-0.096,0.162-0.156,0.139-0.31c-0.021-0.154-0.006-0.256,0-0.33c0.008-0.074-0.021-0.089-0.095-0.044
			c-0.075,0.044-0.14,0.059-0.117-0.089c0.021-0.146,0.042-0.219-0.081-0.257c-0.126-0.037-0.243-0.08-0.285-0.184
			c-0.046-0.102-0.383-0.102-0.522,0.082c-0.141,0.184-0.273,0.177-0.455,0.213c-0.184,0.037-0.31,0.095-0.419,0.279
			c-0.111,0.184-0.287,0.499-0.221,0.513c0.065,0.015,0.118,0.008,0.095,0.133c-0.021,0.124,0.111,0.126,0.066,0.198
			c-0.043,0.073-0.088,0.081-0.206,0.052c-0.116-0.03-0.189-0.008-0.235,0.154c-0.043,0.162-0.08,0.309,0.016,0.28
			c0.097-0.03,0.271-0.111,0.411-0.051c0.141,0.058,0.272,0.013,0.353-0.053c0.081-0.065,0.183,0.015,0.162,0.074
			c-0.021,0.059-0.072,0.154,0.007,0.185c0.08,0.03-0.043,0.184-0.131,0.184c-0.09,0-0.162,0.19-0.383,0.11
			c-0.221-0.083-0.272-0.257-0.506-0.191c-0.235,0.066-0.296,0.044-0.42-0.036c-0.126-0.082-0.375-0.037-0.551,0.08
			c-0.177,0.118-0.184,0.206-0.06,0.206c0.125,0,0.325,0.124,0.119,0.221c-0.207,0.095-0.456,0.175-0.633,0.183
			c-0.176,0.007-0.315,0.052-0.448,0.271c-0.132,0.221-0.147,0.19-0.367,0.332c-0.22,0.138-0.271,0.161-0.44,0.118
			c-0.169-0.044-0.235,0.08-0.331,0.19c-0.095,0.11-0.176,0.235-0.345,0.337c-0.169,0.104-0.389,0.169-0.543,0.244
			c-0.154,0.072-0.162,0.167-0.259,0.293c-0.093,0.125-0.16,0.11-0.292,0.162c-0.133,0.052-0.169,0.118-0.191,0.287
			s-0.008,0.242-0.132,0.227c-0.126-0.015-0.25,0.097-0.287,0.184s-0.124,0.169-0.286,0.199c-0.161,0.03-0.265,0.213-0.249,0.338
			c0.015,0.124-0.03,0.331-0.147,0.434c-0.118,0.103-0.065,0.212-0.065,0.337s-0.135,0.227-0.206,0.257
			c-0.074,0.03-0.088,0.221-0.243,0.36s-0.433,0.17-0.462,0.323c-0.03,0.154,0.036,0.199,0.168,0.235
			c0.133,0.037,0.287,0.168,0.332,0.265c0.043,0.094,0.226,0.058,0.365,0.014c0.141-0.044,0.442-0.052,0.581,0.118
			c0.138,0.168,0.374,0.339,0.228,0.529c-0.146,0.19-0.354,0.154-0.456,0.139c-0.102-0.015-0.169,0.015-0.205,0.139
			c-0.036,0.125-0.147,0.331-0.39,0.25c-0.241-0.081-0.189-0.212-0.345-0.14c-0.154,0.073-0.169,0.309-0.169,0.411
			c0,0.103-0.067,0.397-0.278,0.521c-0.213,0.127-0.478,0.25-0.588,0.434c-0.11,0.184-0.14,0.426-0.271,0.522
			c-0.133,0.096-0.22,0.235-0.198,0.367c0.021,0.132-0.066,0.125-0.104,0.132c-0.036,0.007-0.08-0.03-0.132,0.066
			c-0.052,0.097-0.052,0.097-0.052,0.097s-0.11-0.06-0.161,0.036c-0.052,0.095-0.176,0.425-0.251,0.435
			c-0.073,0.006-0.47-0.243-0.639-0.362c-0.169-0.116-0.366-0.234-0.836-0.065c-0.471,0.168-0.588,0.316-0.611,0.427
			c-0.021,0.108-0.102,0.271-0.286,0.329c-0.185,0.06-0.381,0.404-0.471,0.587c-0.087,0.185-0.22,0.559-0.286,0.699
			c-0.066,0.139-0.211,0.292-0.345,0.271c-0.132-0.023-0.234-0.184-0.388-0.235c-0.156-0.051-0.265-0.06-0.561,0.073
			c-0.293,0.132-0.563,0.294-0.732,0.382c-0.17,0.087-0.338,0.014-0.199-0.096c0.14-0.109,0.308-0.293,0.168-0.389
			c-0.139-0.097-0.668-0.067-0.852,0.044c-0.184,0.109-0.359,0.249-0.309,0.573c0.052,0.324,0.096,0.705,0.021,0.896
			c-0.072,0.191-0.108,0.36-0.22,0.353c-0.108-0.006-0.14-0.213-0.146-0.368c-0.007-0.153-0.146-0.33-0.052-0.344
			c0.096-0.016,0.212,0.108,0.22,0.028s0.016-0.344-0.116-0.293c-0.132,0.052-0.338,0.205-0.419,0.345
			c-0.081,0.139-0.177,0.279-0.323,0.228s-0.125-0.308-0.037-0.368c0.088-0.058,0.316-0.168,0.396-0.184
			c0.082-0.015,0.214-0.16,0.147-0.175c-0.065-0.015-0.433-0.037-0.653,0.169c-0.22,0.205-0.545,0.586-0.766,0.696
			c-0.219,0.111-0.322,0.096-0.461,0.096c-0.141,0-0.222,0.015-0.126,0.191c0.096,0.176,0.235,0.286,0.036,0.441
			c-0.197,0.154-0.263,0.344-0.212,0.411c0.052,0.066,0.206,0.021,0.286-0.007c0.083-0.029,0.14-0.089,0.14,0.087
			c0,0.176-0.028,0.486,0.14,0.558c0.169,0.073,0.455,0.022,0.441,0.133c-0.016,0.109,0.036,0.257-0.147,0.265
			c-0.184,0.006-0.411-0.023-0.419,0.108c-0.008,0.133-0.029,0.185,0.058,0.251c0.09,0.066,0.156,0.177,0.09,0.279
			c-0.066,0.103-0.242,0.029-0.427-0.023c-0.183-0.05-0.345-0.116-0.434-0.013c-0.087,0.103-0.169,0.161-0.286,0.161
			c-0.116,0-0.242,0.073-0.257,0.207c-0.016,0.132-0.007,0.229-0.118,0.272c-0.109,0.044-0.205,0.109-0.301,0.131
			c-0.095,0.023-0.22-0.043-0.316-0.043c-0.095,0-0.073-0.03-0.206-0.154c-0.132-0.126-0.227-0.168-0.211,0.043
			c0.015,0.213,0.154,0.412,0.211,0.705c0.062,0.295,0.075,0.624,0.031,0.719c-0.045,0.097-0.097,0.067-0.169,0.03
			c-0.073-0.038-0.125-0.008-0.169,0.044c-0.045,0.051-0.199,0.059-0.347-0.067c-0.146-0.124-0.344-0.257-0.44-0.293
			c-0.095-0.036-0.184-0.117-0.184-0.308c0-0.191-0.036-0.286-0.108-0.286c-0.075,0-0.103,0.293-0.162,0.286
			c-0.059-0.008-0.153-0.155-0.272-0.228c-0.118-0.073-0.345-0.154-0.243-0.199c0.104-0.043,0.324-0.118,0.273-0.242
			c-0.052-0.125-0.273-0.221-0.273-0.221c0-0.146-0.037-0.367-0.102-0.441c-0.067-0.073-0.073-0.139-0.067-0.227
			c0.009-0.087-0.058-0.139-0.196-0.125c-0.142,0.015-0.266-0.057-0.376-0.103c-0.11-0.042-0.314-0.036-0.374,0.06
			c-0.058,0.097-0.235,0.097-0.286,0.073c-0.052-0.022-0.221-0.051-0.331,0.008c-0.11,0.059-0.278,0.095-0.359,0.059
			c-0.081-0.037-0.294-0.082-0.294,0.095c0,0.176-0.11,0.146-0.243,0.205c-0.132,0.061-0.109,0.148,0.06,0.221
			c0.168,0.075,0.286,0.383,0.205,0.507c-0.081,0.125-0.25,0.271-0.535,0.31c-0.288,0.037-0.566,0.043-0.7,0.087
			c-0.13,0.045-0.292,0.235-0.513,0.176c-0.22-0.059-0.213-0.176-0.205-0.3c0.007-0.125-0.015-0.207-0.125-0.184
			c-0.11,0.022-0.419,0.08-0.573,0.029c-0.154-0.052-0.485-0.073-0.742,0.155c-0.257,0.227-0.346,0.38-0.477,0.293
			c-0.133-0.087-0.133-0.352-0.177-0.426c-0.046-0.074-0.154-0.089-0.205,0.088c-0.052,0.176-0.096,0.278-0.316,0.235
			c-0.221-0.046-0.434-0.192-0.64-0.154c-0.205,0.037-0.271,0.154-0.271,0.235c0,0.08,0.19,0.117,0.31,0.087
			c0.116-0.029,0.16,0.06,0.11,0.154c-0.052,0.097-0.154,0.25-0.243,0.169c-0.089-0.081-0.191-0.118-0.242,0.066
			c-0.052,0.184-0.036,0.25-0.272,0.383c-0.234,0.132-0.52,0.278-0.668,0.425c-0.147,0.148-0.258,0.256-0.345,0.301
			c-0.089,0.046-0.177,0.016-0.096-0.19c0.08-0.204,0.214-0.404,0.293-0.455c0.081-0.052,0.192-0.229,0.221-0.368
			c0.029-0.141,0.294-0.207,0.376-0.235c0.08-0.03,0.175-0.14,0.24-0.295c0.066-0.154,0.235-0.308,0.302-0.396s0.11-0.177,0-0.184
			c-0.11-0.008-0.154-0.139,0.036-0.235c0.193-0.096,0.258-0.177,0.311-0.271c0.052-0.096,0.124-0.192,0.271-0.264
			c0.146-0.075,0.227-0.17,0.235-0.354c0.007-0.183,0.104-0.344,0.169-0.484c0.066-0.138,0.073-0.389,0-0.441
			c-0.074-0.049-0.214-0.014-0.331-0.074c-0.118-0.058-0.066-0.211,0.015-0.211s0.323-0.009,0.185-0.221
			c-0.14-0.213-0.199-0.294-0.199-0.382s-0.095-0.125-0.153-0.022c-0.06,0.103-0.133,0.082-0.251-0.037
			c-0.117-0.117-0.308-0.198-0.337-0.279c-0.03-0.08-0.119-0.229-0.324-0.117c-0.205,0.109-0.514,0.168-0.638,0.163
			c-0.126-0.009-0.266-0.054-0.367,0.072c-0.104,0.124-0.133,0.235-0.229,0.242c-0.095,0.008-0.131-0.073-0.103-0.184
			c0.029-0.109,0.153-0.292,0.161-0.38c0.008-0.089,0.066-0.192-0.036-0.178c-0.102,0.016-0.25,0.009-0.309-0.05
			c-0.06-0.059-0.125-0.022-0.214-0.022s-0.19,0-0.19,0s0.228-0.206,0.315-0.286c0.089-0.082,0.147-0.236,0.016-0.28
			c-0.133-0.043-0.272-0.103-0.338-0.154c-0.066-0.051-0.146-0.154-0.272-0.036c-0.125,0.118-0.308,0.081-0.345,0.081
			s-0.104,0.08-0.104,0.213c0,0.132-0.147,0.382-0.292,0.463c-0.148,0.082-0.178,0.154-0.172,0.36
			c0.01,0.206,0.062,0.367,0.148,0.419c0.089,0.051,0.271,0.228,0.198,0.294s-0.278-0.03-0.353-0.081
			c-0.073-0.051-0.221-0.103-0.286-0.023c-0.066,0.081-0.178,0.008-0.302,0.038c-0.124,0.028-0.117,0.117-0.029,0.139
			c0.088,0.021,0.391,0.087,0.412,0.235s0.021,0.323-0.06,0.478c-0.081,0.155-0.125,0.228-0.139,0.015
			c-0.015-0.213-0.008-0.411-0.155-0.486c-0.146-0.073-0.249-0.154-0.36-0.022c-0.109,0.133-0.154,0.242-0.271,0.287
			c-0.118,0.044-0.205,0.008-0.302,0.118c-0.093,0.111-0.211,0.06-0.204-0.051c0.008-0.112-0.059-0.184-0.14-0.184
			s-0.375-0.015-0.5-0.058c-0.124-0.046-0.308-0.163-0.321,0c-0.016,0.16,0.116,0.167,0.175,0.167c0.06,0,0.177,0.028,0.089,0.103
			c-0.089,0.074-0.325,0.17-0.441,0.221c-0.118,0.051-0.258-0.051-0.287-0.051c-0.028,0-0.028,0.22-0.146,0.22
			c-0.116,0-0.125-0.22-0.242-0.206c-0.117,0.016-0.109,0.25-0.265,0.286c-0.154,0.037-0.221,0.008-0.315-0.029
			c-0.097-0.037-0.052,0.065-0.168,0.152c-0.118,0.089-0.229,0.148-0.31,0.148s-0.146,0.029-0.104,0.132
			c0.045,0.103,0.037,0.161-0.015,0.161c-0.051,0-0.095,0.06-0.095,0.132c0,0.074-0.06,0.2-0.198,0.117
			c-0.14-0.081-0.301-0.095-0.214,0.024c0.088,0.117,0.205,0.271,0.184,0.375c-0.021,0.102-0.292,0.029-0.33,0.087
			c-0.036,0.059,0.133,0.271,0.228,0.419c0.096,0.146,0.11,0.373,0.007,0.454c-0.102,0.081-0.241,0.096-0.241-0.081
			c0-0.176-0.015-0.353-0.185-0.278c-0.169,0.072-0.265,0.197-0.434,0.197c-0.168,0-0.307-0.146-0.631-0.116
			c-0.323,0.027-0.874,0.205-1.007,0.168c-0.132-0.038-0.352-0.336-0.558-0.234c-0.206,0.102-0.419,0.359-0.499,0.638
			c-0.082,0.279-0.271,0.492-0.221,0.727c0.052,0.236,0.221,0.345,0.308,0.412c0.088,0.066,0.199,0.264,0.199,0.388
			c0,0.126,0.133,0.288,0.25,0.339c0.117,0.052,0.176,0.278-0.015,0.551c-0.191,0.272-0.133,0.588-0.125,0.794
			c0.007,0.205,0.044,0.586-0.206,0.727c-0.251,0.139-0.433,0.124-0.573,0c-0.139-0.126-0.072-0.361-0.072-0.361
			s0.293-0.168,0.293-0.365c0-0.198,0.022-0.486,0.168-0.575c0.148-0.087,0.332-0.197,0.376-0.353
			c0.043-0.154-0.008-0.278-0.228-0.308c-0.221-0.029-0.501-0.051-0.514-0.272c-0.015-0.22,0.015-0.653-0.126-0.763
			c-0.14-0.111-0.229-0.214-0.434-0.244c-0.205-0.029-0.338-0.044-0.492,0.061c-0.154,0.103-0.293,0.051-0.293,0.109
			c0,0.059,0.221,0.177,0.221,0.235s-0.015,0.31-0.235,0.111c-0.221-0.199-0.184-0.324-0.259-0.353
			c-0.072-0.03-0.271,0.051-0.313,0.124c-0.046,0.074-0.089,0.337-0.03,0.418c0.058,0.081,0.154,0.235,0.154,0.331
			c0,0.094,0.045,0.132,0.189,0.197c0.147,0.067,0.229,0.273,0.17,0.405c-0.06,0.131-0.08,0.139-0.228-0.039
			c-0.147-0.175-0.102-0.219-0.279-0.211c-0.176,0.006-0.184-0.125-0.257-0.221c-0.073-0.095-0.081-0.125-0.221-0.177
			c-0.138-0.051-0.204-0.168-0.104-0.301c0.104-0.132,0.228-0.278,0.243-0.485c0.015-0.206,0.14-0.314,0.235-0.38
			c0.096-0.067,0.177-0.148,0.177-0.294c0-0.148,0.028-0.36,0.109-0.419c0.081-0.059,0.06-0.206-0.021-0.25
			c-0.081-0.042-0.169,0.169-0.228,0.301c-0.06,0.132-0.222,0.427-0.391,0.521c-0.168,0.097-0.527,0.259-0.675,0.331
			c-0.147,0.074-0.271,0.177-0.265,0.338c0.007,0.163,0.059,0.323,0.015,0.477c-0.043,0.156-0.043,0.213-0.008,0.31
			c0.037,0.094-0.021,0.661-0.329,0.799c-0.31,0.14-0.28,0.207-0.345,0.302c-0.067,0.095-0.185,0.286-0.295,0.353
			c-0.109,0.065-0.065,0.221-0.043,0.301c0.021,0.082,0.131,0.28,0.014,0.418c-0.117,0.139-0.133,0.265-0.028,0.295
			c0.102,0.028,0.322,0.161,0.454,0.154c0.133-0.008,0.369-0.162,0.528,0.042c0.163,0.207,0.465,0.39,0.492,0.419
			c0.03,0.03,0.06,0.133,0.045,0.25c-0.015,0.117,0.008,0.374,0.015,0.5c0.007,0.124,0.088,0.329-0.133,0.425
			c-0.22,0.096-0.242,0.11-0.265,0.286c-0.021,0.177-0.007,0.353,0.147,0.413c0.154,0.058,0.331,0.073,0.411,0.292
			c0.081,0.22,0.096,0.397,0.038,0.456c-0.06,0.06-0.207-0.11-0.271-0.242c-0.066-0.133-0.311-0.316-0.384-0.316
			s-0.234-0.251-0.197-0.529c0.036-0.28,0.322-0.486,0.315-0.728c-0.008-0.242-0.037-0.763-0.266-0.851
			c-0.227-0.09-0.535-0.126-0.8-0.016c-0.264,0.109-0.301,0.404-0.301,0.558s-0.008,0.47-0.132,0.633
			c-0.125,0.16-0.294,0.417-0.412,0.417c-0.117,0-0.33-0.007-0.425,0.198c-0.097,0.207-0.191,0.494-0.478,0.494
			c-0.288,0-0.494-0.038-0.646,0.118c-0.154,0.154-0.449,0.109-0.552-0.015c-0.103-0.126-0.367-0.309-0.485-0.345
			c-0.117-0.037-0.257-0.271-0.257-0.486c0-0.212,0.117-0.314,0.205-0.314c0.09,0,0.274,0.168,0.296,0.249
			c0.021,0.082,0.16,0.051,0.271,0.051c0.109,0,0.234,0.141,0.337,0.148c0.104,0.008,0.316-0.007,0.42-0.125
			c0.103-0.116,0.278-0.183,0.403-0.264c0.124-0.081,0.153-0.28,0.337-0.389c0.185-0.111,0.28-0.221,0.316-0.398
			c0.037-0.176,0.147-0.287,0.344-0.389c0.2-0.103,0.134-0.337,0.112-0.374c-0.022-0.037-0.272-0.111-0.164-0.514
			c0.112-0.404,0.229-0.462,0.317-0.676c0.089-0.213,0.214-0.565,0.243-0.793s0.197-0.389,0.345-0.565
			c0.146-0.176,0.175-0.375,0.169-0.609c-0.008-0.236,0.147-0.619,0.367-0.809c0.22-0.19,0.464-0.367,0.588-0.653
			s0.271-0.742,0.045-0.867c-0.229-0.126-0.266-0.177-0.353-0.288c-0.09-0.108-0.162-0.175-0.259-0.168
			c-0.095,0.008-0.139-0.088-0.234-0.154c-0.096-0.065-0.19-0.124-0.36,0.154c-0.169,0.279-0.197,0.235-0.294,0.301
			c-0.095,0.065-0.234,0.183-0.294,0.309c-0.06,0.124-0.08,0.278-0.229,0.411c-0.145,0.132-0.292,0.235-0.615,0.302
			c-0.324,0.066-0.44-0.016-0.573,0.059c-0.131,0.073-0.359,0.264-0.403,0.389s-0.066,0.241,0.036,0.176
			c0.104-0.066,0.242-0.066,0.161,0.147c-0.079,0.213-0.19,0.435-0.227,0.566c-0.037,0.131-0.046,0.322-0.199,0.227
			c-0.154-0.096-0.176-0.117-0.301,0.081c-0.124,0.199-0.271,0.419-0.161,0.448c0.11,0.029,0.169-0.183,0.228-0.176
			c0.059,0.006,0.087,0.228,0.161,0.316c0.073,0.088,0.242,0.235,0.132,0.382c-0.11,0.145-0.234,0.366-0.125,0.564
			c0.111,0.198,0.185,0.331,0,0.413c-0.184,0.081-0.234,0.271-0.25,0.359c-0.014,0.087-0.153,0.125-0.277,0.125
			c-0.126,0-0.221,0.081-0.169-0.366c0.035-0.313-0.044-0.647-0.146-0.909c-0.033-0.116-0.095-0.211-0.141-0.29
			c-0.155-0.257-0.36-0.601-0.412-0.778c0,0-0.011-0.031-0.012-0.045c-0.02-0.178-0.078-0.393-0.333-0.534
			c-0.279-0.155-0.352-0.051-0.381-0.272c-0.03-0.221-0.037-0.323-0.154-0.426c-0.118-0.103-0.088-0.287-0.184-0.287
			c-0.097,0-0.155,0.154-0.398,0.081c-0.241-0.075-0.189,0.14-0.189,0.221c0,0.081-0.015,0.506-0.081,0.645
			c-0.067,0.141-0.162,0.28-0.383,0.198c-0.22-0.08-0.389-0.037-0.514,0.082c-0.124,0.118-0.367,0.052-0.302-0.153
			c0.067-0.206,0.316-0.044,0.316-0.347c0-0.301,0.016-0.366-0.184-0.374c-0.198-0.006-0.581,0.037-0.852-0.073
			c-0.272-0.111-0.397-0.31-0.464-0.397c-0.065-0.087-0.233-0.087-0.389-0.066c-0.154,0.022-0.169,0.066-0.241,0.147
			c-0.074,0.081-0.074,0.161-0.155,0.03c-0.081-0.132-0.161-0.258-0.366-0.207c-0.206,0.051-0.28,0.132-0.485,0.095
			c-0.206-0.037-0.148-0.103-0.06-0.154c0.089-0.051,0.229-0.146,0.243-0.228c0.014-0.08,0.096-0.103,0.22-0.066
			c0.125,0.038,0.397-0.043,0.521-0.103c0.126-0.058,0.104-0.263,0.184-0.263c0.081,0,0.367,0.037,0.242-0.147
			s-0.433-0.295-0.61-0.281c-0.176,0.016-0.381,0.133-0.454,0.207c-0.073,0.074-0.163,0.081-0.206-0.037
			c-0.045-0.117-0.14-0.257-0.507-0.315c-0.367-0.06-0.765-0.09-0.902-0.09c-0.139,0-0.266-0.073-0.338-0.116
			c-0.073-0.044-0.126,0-0.199,0.022c-0.072,0.021-0.25,0.021-0.331-0.059c-0.079-0.083-0.293-0.066-0.418,0.08
			c-0.124,0.147-0.249,0.316-0.411,0.25c-0.161-0.066-0.25-0.147-0.462-0.184c-0.213-0.036-0.28-0.256-0.207-0.5
			c0.075-0.242,0.192-0.337,0.192-0.506c0-0.168,0.198-0.353,0.455-0.28c0.257,0.075,0.478,0.346,0.552,0.324
			c0.072-0.022,0.196-0.199,0.271-0.25c0.072-0.052,0.139-0.096,0.079-0.214c-0.058-0.117,0.053-0.279,0.089-0.353
			c0.036-0.072,0.007-0.169-0.096-0.264c-0.101-0.095-0.072-0.221-0.11-0.287c-0.037-0.066-0.263-0.021-0.3-0.212
			c-0.038-0.192-0.154-0.258-0.192-0.051c-0.037,0.205-0.191,0.477-0.404,0.537c-0.212,0.058-0.323,0.116-0.396,0.226
			c-0.075,0.111-0.147,0.154-0.339,0.242c-0.19,0.09-0.292,0.171-0.256,0.34c0.036,0.169-0.021,0.3-0.265,0.506
			c-0.242,0.205-0.315,0.235-0.477,0.205c-0.162-0.029-0.174,0.111-0.242,0.154c-0.066,0.045-0.28-0.007-0.169-0.257
			c0.11-0.25,0.155-0.294,0.052-0.425c-0.103-0.133,0.021-0.368-0.132-0.45c-0.154-0.08-0.573-0.146-0.72-0.14
			c-0.147,0.009-0.346-0.042-0.413-0.124c-0.064-0.08-0.13-0.131-0.197-0.08c-0.065,0.051-0.212,0.095-0.367,0.065
			c-0.153-0.029-0.506-0.057-0.572,0.164c-0.065,0.219-0.163,0.608-0.271,0.608c-0.11,0-0.265,0.102-0.301,0.22
			c-0.037,0.118-0.193,0.168-0.229-0.088c-0.036-0.256-0.087-0.558-0.109-0.684c-0.023-0.124-0.095-0.25-0.264-0.25
			c-0.168,0-0.183-0.117-0.051-0.139c0.132-0.022,0.256-0.125,0.205-0.368c-0.051-0.241,0.051-0.513-0.058-0.513
			c-0.111,0-0.427-0.052-0.516,0.066c-0.087,0.117-0.11,0.257-0.19,0.373c-0.081,0.118-0.168,0.354-0.081,0.427
			c0.087,0.074,0.256,0.14,0.132,0.3c-0.126,0.162-0.383,0.221-0.544,0.192c-0.161-0.03-0.426-0.176-0.324-0.719
			c0.104-0.545,0.163-0.507,0.052-0.618c-0.11-0.111-0.052-0.375,0.037-0.493c0.089-0.118,0.118-0.169,0.228-0.176
			c0.111-0.007,0.236-0.058,0.332-0.228c0.093-0.169,0.352-0.434,0.594-0.485c0.241-0.052,0.476-0.317,0.514-0.573
			c0.037-0.256,0.095-0.661,0.236-0.949c0.139-0.286,0.425-0.652,0.462-0.652c0.036,0-0.096,0.419-0.096,0.574
			c0,0.153-0.037,0.227-0.043,0.358c-0.008,0.132-0.023,0.168,0.022,0.308c0.043,0.141,0.014,0.222,0.117,0.325
			c0.102,0.103,0.059,0.235,0.067,0.404c0.006,0.169,0.028,0.257,0.117,0.405c0.087,0.145,0.227,0.446,0.22,0.549
			c-0.007,0.104-0.058,0.573,0.081,0.699c0.139,0.124,0.293,0.198,0.419,0.213c0.124,0.014,0.41,0.205,0.579,0.227
			c0.169,0.021,0.603-0.022,0.75-0.022s0.28,0.016,0.338,0.016c0.058,0,0.184-0.154,0.301-0.272
			c0.117-0.117,0.359-0.228,0.353-0.493c-0.007-0.263-0.037-0.434,0.051-0.572c0.088-0.139,0.088-0.279,0.007-0.368
			c-0.08-0.088-0.176-0.168-0.103-0.462c0.074-0.294,0.059-0.308,0.059-0.484c0-0.177,0.161-0.323,0.146-0.522
			c-0.013-0.198-0.139-0.587-0.058-0.777c0.081-0.193,0.125-0.244,0.007-0.376c-0.117-0.131-0.168-0.197-0.168-0.382
			c0-0.183-0.088-0.286-0.184-0.286s-0.118-0.126-0.088-0.25c0.03-0.125-0.007-0.244-0.007-0.361c0-0.117-0.008-0.226,0.118-0.154
			c0.125,0.074,0.177,0.243,0.265,0.221c0.088-0.021,0.125-0.082,0.037-0.227c-0.087-0.148,0.008-0.271-0.095-0.361
			c-0.103-0.087-0.184-0.072-0.228-0.124c-0.044-0.052-0.118-0.147-0.175-0.147c-0.06,0-0.176-0.118-0.293-0.316
			c-0.12-0.197-0.72-0.47-1.214-0.329c-0.491,0.139-0.777,0.358-0.968,0.771c-0.193,0.41-0.221,0.63-0.337,0.63
			c-0.118,0-0.853-0.006-1.036,0.023c-0.185,0.028-0.405,0.167-0.641,0.492c-0.234,0.324-0.587,0.786-0.91,0.838
			c-0.322,0.051-0.669,0.11-0.991,0.483c-0.323,0.376-0.271,0.45-0.485,0.64c-0.213,0.192-0.632,0.228-0.75,0.499
			c-0.116,0.272-0.271,0.794-0.469,0.919c-0.197,0.124-0.734,0.214-1.469,0.118c-0.735-0.097-1.748-0.214-1.962-0.221
			c-0.211-0.008-0.206-0.008-0.365,0.073c-0.163,0.081-0.184,0.19-0.31,0.19c-0.124,0-0.227,0.038-0.22,0.198
			c0.008,0.163,0.029,0.279,0.015,0.361c-0.015,0.08,0.111,0.139,0.176,0.198c0.066,0.059,0.132,0.191-0.044,0.331
			c-0.177,0.14-0.499,0.008-0.595-0.073c-0.094-0.081-0.058-0.302-0.052-0.404c0.008-0.103-0.006-0.147-0.139-0.147
			c-0.132,0-0.14-0.102-0.14-0.169c0-0.066,0-0.183-0.147-0.139c-0.148,0.042-0.315,0.146-0.418,0.103
			c-0.103-0.045-0.33,0.072-0.441,0.108c-0.11,0.037-0.235,0.082-0.323,0.177c-0.087,0.095-0.169,0.309-0.31,0.316
			c-0.139,0.007-0.301,0-0.389,0.197c-0.087,0.198-0.096,0.265-0.221,0.265c-0.124,0-0.139-0.265-0.388-0.256
			c-0.25,0.007-0.434-0.06-0.802,0.344c-0.366,0.404-0.733,0.705-0.88,0.786c-0.148,0.083-0.2,0.067-0.2,0.067
			s0.126,0.543,0.141,0.8c0.014,0.257,0.117,0.735,0.234,0.918c0.118,0.184,0.22,0.632-0.037,0.837
			c-0.256,0.205-0.727,0.36-1.071,1.064c-0.346,0.706-0.648,1.491-0.867,1.55c-0.22,0.059-0.375-0.264-0.507-0.403
			c-0.133-0.141-0.244-0.228-0.551,0.088c-0.309,0.315-0.645,0.41-0.72,0.492c-0.072,0.081-0.132,0.286,0.067,0.433
			c0.198,0.148,0.675,0.448,0.837,0.618c0.16,0.168,0.396,0.689,0.213,0.938s-0.382,0.367-0.515,0.383
			c-0.132,0.014-0.278,0.066-0.205,0.388c0.073,0.323,0.132,1.007-0.016,1.227c-0.147,0.22-0.25,0.353-0.205,0.493
			c0.043,0.139,0.118,0.344,0.118,0.514c0,0.168-0.023,0.47,0.153,0.484c0.177,0.015,0.434,0.242,0.5,0.61
			c0.067,0.367,0.241,1.095,0.344,1.498c0.103,0.404,0.221,0.831-0.015,0.911c-0.234,0.08-0.483,0.177-0.778,0.345
			c-0.294,0.17-0.727,0.478-0.976,0.419c-0.25-0.058-0.713-0.205-1.015-0.315c-0.3-0.11-0.711-0.176-0.822-0.132
			s-0.11,0.044-0.11,0.044s-0.006,0.185,0.11,0.185c0.116,0,0.331-0.01,0.294,0.175c-0.037,0.184,0.074,0.279,0.25,0.323
			c0.174,0.044,0.358,0.301,0.358,0.375c0,0.073-0.227-0.045-0.491-0.162c-0.265-0.117-0.543-0.345-0.566-0.169
			c-0.021,0.177-0.139,0.141-0.197-0.03c-0.059-0.168-0.213-0.38-0.391-0.38c-0.176,0-0.155,0.035-0.118,0.234
			c0.038,0.197,0.052,0.33-0.006,0.404c-0.059,0.073,0,0.308-0.073,0.308c-0.075,0-0.176-0.198-0.295-0.132
			c-0.117,0.066-0.388,0.198-0.24,0c0.145-0.198,0.108-0.228-0.067-0.176c-0.178,0.052-0.566,0.094-0.741-0.008
			c-0.178-0.103-0.311-0.286-0.303-0.382c0.007-0.096-0.154-0.118-0.301-0.029c-0.148,0.088-0.301,0.088-0.206,0.212
			c0.094,0.126,0.226,0.259,0.094,0.397c-0.132,0.14-0.19,0.322-0.102,0.439c0.088,0.118,0.117,0.464,0.11,0.625
			c-0.008,0.162,0.028,0.544,0.154,0.734c0.124,0.191,0.058,0.552,0,0.839c-0.06,0.286-0.103,0.889-0.096,1.027
			c0.008,0.14,0.103,0.117,0.323,0.229c0.222,0.109,0.442,0.263,0.544,0.564c0.104,0.301,0.315,0.698,0.485,0.83
			c0.169,0.132,0.235,0.294,0.243,0.616c0.006,0.324,0.036,0.53,0.125,0.75c0.088,0.221-0.037,0.64,0.044,0.749
			c0.081,0.11,0.404,0.295,0.521,0.471s0.566,0.632,0.476,0.866c-0.088,0.235-0.468,0.58-0.468,0.763
			c0,0.185,0.073,0.317,0.206,0.494c0.131,0.175,0.226,0.49,0.198,0.727c-0.03,0.234-0.11,0.537-0.059,0.661
			c0.051,0.125,0.213,0.213,0.594,0.258c0.383,0.043,0.756,0.109,0.853,0.103c0.096-0.008,0.139-0.023,0.139-0.023
			s-0.059-0.396,0.037-0.579c0.095-0.185,0.256-0.434,0.235-0.714c-0.023-0.277,0.058-0.77,0.25-0.938
			c0.191-0.17,0.191-0.141,0.492-0.316c0.302-0.177,0.447-0.323,0.293-0.295c-0.153,0.03-0.44,0.075-0.271-0.072
			c0.168-0.147,0.337-0.323,0.359-0.507c0.023-0.184-0.051-0.359-0.051-0.485c0-0.125-0.029-0.175,0.102-0.175
			c0.133,0,0.361,0.124,0.544,0.043c0.184-0.081,0.529-0.315,0.721-0.367c0.19-0.052,0.365,0.015,0.44,0.118
			c0.072,0.102,0.25,0.271,0.389,0.286c0.139,0.014,0.425,0.103,0.536,0.014c0.109-0.087,0.147-0.22,0.19-0.22
			c0.045,0,0.052,0.169,0.147,0.176c0.097,0.009,0.205-0.021,0.162-0.242c-0.044-0.22-0.102-0.367,0.14-0.425
			c0.241-0.06,0.382-0.133,0.434-0.573c0.051-0.44,0.22-0.735,0.132-1.043c-0.089-0.309-0.353-0.69-0.208-0.985
			c0.148-0.293,0.244-0.734,0.456-0.829c0.213-0.096,0.522-0.279,0.713-0.427c0.191-0.146,0.697-0.462,0.932-0.55
			c0.236-0.089,0.404-0.147,0.427,0.117c0.021,0.263-0.015,1.059,0.161,1.028c0.177-0.03,0.397-0.19,0.545-0.374
			c0.146-0.184,0.55-0.265,0.756-0.237c0.206,0.03,0.506,0.061,0.757,0.061c0.249,0,0.6,0.006,0.887,0.036
			c0.286,0.029,0.493,0.168,0.565,0.353c0.073,0.184,0.244,0.353,0.455,0.412c0.208,0.057,0.326,0.14,0.311,0.367l0,0.022
			c0,0-0.064,0.103-0.015,0.278c0,0,0.001,0.004,0.004,0.012c0.004,0.011,0.013,0.032,0.024,0.055
			c0.035,0.086,0.101,0.229,0.168,0.323c0.141,0.191,0.258,0.602,0.17,0.932c-0.089,0.331-0.147,0.457,0.065,0.398
			c0.213-0.06,0.522-0.162,0.639,0.19c0.117,0.352,0.214,0.608,0.5,0.616c0.286,0.008,0.593-0.206,0.829,0.146
			c0.237,0.353,0.383,0.668,0.5,0.815c0.118,0.148,0.221,0.492,0.39,0.698s0.484,0.559,0.617,0.559c0.132,0,0.264-0.081,0.412,0
			c0.146,0.079,0.287,0.367,0.491,0.441c0.206,0.072,0.655,0.108,0.86-0.221c0.206-0.331,0.058-0.633-0.021-0.831
			c-0.081-0.197-0.125-0.492,0.138-0.624c0.265-0.133,0.559-0.278,0.661-0.44c0.103-0.163,0.361-0.368,0.516-0.302
			s0.47,0.045,0.404-0.257c-0.066-0.301-0.045-0.241,0.056-0.301c0.105-0.06,0.082-0.155,0.067-0.374
			c-0.015-0.221,0.25-0.31,0.361-0.243c0.109,0.066,0.353,0.352,0.564,0.529c0.214,0.176,0.596,0.353,1.096,0.484
			c0.499,0.132,0.875,0.206,1.3,0.213c0.426,0.009,1.125,0.177,1.403,0.229c0.28,0.051,0.934,0.095,1.271,0.139
			c0.337,0.045,0.542,0.06,0.624,0.236c0.081,0.176,0.265,0.321,0.522,0.432c0.256,0.11,0.418,0.368,0.337,0.683
			c-0.081,0.316-0.242,0.816-0.191,0.935c0.052,0.117,0.227,0.146,0.33,0.146c0.103,0,0.229,0.199,0.259,0.293
			c0.028,0.097,0.073,0.295,0.249,0.295s0.417,0.124,0.427,0.417c0.007,0.295,0.073,0.338,0.198,0.376
			c0.124,0.037,0.47,0.257,0.712,0.264c0.241,0.008,0.596-0.116,0.867-0.169c0.271-0.052,0.631-0.176,0.732-0.19
			c0.104-0.016,0.193,0.088,0.061,0.256c-0.133,0.17,0,0.456,0.133,0.685c0.132,0.229,0.535,0.756,0.659,1.087
			c0.125,0.33,0.111,0.625,0.148,1.095c0.036,0.471,0.021,1.146,0.058,1.462c0.037,0.314,0.185,0.727,0.375,0.814
			c0.191,0.088,0.309,0.022,0.411-0.036c0.103-0.058,0.221-0.052,0.323,0.161s0.266,0.441,0.623,0.595
			c0.362,0.154,0.758,0.059,0.978,0.037c0.221-0.022,0.479-0.11,0.626,0.08c0.145,0.191,0.374,0.845,0.389,0.993
			c0.015,0.146,0.346,0.249,0.396,0.424c0.053,0.178,0.075,0.507,0.141,0.685c0.066,0.176,0.264,0.492,0.632,0.536
			c0.366,0.043,0.822-0.066,0.867,0.191c0.043,0.258-0.022,0.551-0.022,0.551s0.11-0.073,0.359-0.081s0.772-0.109,1.05-0.124
			c0.279-0.016,1.052-0.265,1.374-0.465c0.323-0.198,0.579-0.558,0.977-0.558s0.742-0.205,1.036-0.301s0.44-0.214,0.58-0.073
			c0.141,0.14,0.684,0.354,1.007,0.39s0.999,0.015,1.197-0.081c0.197-0.097,0.58-0.125,0.713-0.097
			c0.133,0.03,0.248,0.097,0.235,0.427c-0.016,0.331,0.22,0.493,0.512,0.588c0.296,0.096,0.706,0.073,1.007,0.073
			c0.302,0,0.779,0.097,1.007,0.154c0.228,0.059,0.94,0.096,0.992-0.258c0.051-0.353-0.126-0.697-0.198-1.071
			c-0.073-0.374,0.021-0.89,0.243-1.059c0.219-0.168,0.447-0.241,0.497-0.374c0.051-0.132,0.236-0.279,0.39-0.234
			c0.155,0.044,0.633,0.213,0.964,0.322c0.329,0.11,0.697,0.265,0.91,0.294c0.212,0.029,0.579,0.125,0.654,0.426
			c0.072,0.302,0.124,0.838,0.594,0.999c0.47,0.162,1.066,0.198,1.314,0.053c0.25-0.147,0.647-0.434,1.072-0.442
			c0.427-0.007,0.823,0.016,1.271,0.229c0.447,0.214,0.829,0.368,1.264,0.632c0.433,0.265,0.814,0.396,1.263,0.309
			s1.205-0.141,1.713-0.397c0.507-0.256,0.645-0.514,0.939-0.588c0.292-0.071,0.572-0.175,0.683-0.41s0.271-0.654,0.551-0.779
			c0.279-0.126,0.727-0.249,0.991-0.161s0.684,0.308,0.896,0.169c0.214-0.14,0.455-0.177,0.809,0.066
			c0.353,0.242,0.911,0.25,1.021,0.088c0.11-0.162,0.296-0.471,0.404-0.838c0.11-0.368,0.197-0.902,0.184-1.197
			c-0.014-0.294,0.029-0.617,0.198-0.881s0.059-0.544,0.177-0.883c0.117-0.337,0.14-0.669-0.022-0.889
			c-0.161-0.22-0.198-0.425-0.358-0.462c-0.162-0.036-0.229-0.11-0.134-0.271c0.097-0.162,0.082-0.324,0.066-0.463
			c-0.014-0.139,0.095-0.337,0.199-0.448c0.103-0.11,0.462-0.228,0.727-0.352c0.264-0.125,0.66-0.243,0.866-0.34
			c0.206-0.094,0.456-0.204,0.626-0.153c0.168,0.052,0.512-0.021,0.675-0.021c0.16,0,0.375-0.009,0.492,0.088
			c0.117,0.095,0.321,0.162,0.521,0.235c0.198,0.072,0.338,0.139,0.463,0.315c0.124,0.175,0.286,0.316,0.646,0.537
			c0.359,0.22,0.484,0.315,0.69,0.624c0.204,0.308,0.771,0.711,1.027,0.954c0.257,0.242,0.463,0.537,0.785,0.514
			c0.324-0.021,0.346-0.118,0.618-0.102c0.272,0.014,0.64-0.059,0.742-0.11c0.103-0.051,0.367,0.052,0.513,0.14
			c0.147,0.088,0.471,0.072,0.509-0.103c0.036-0.178,0.227-0.046,0.242,0.117c0.014,0.16,0.249,0.168,0.358,0.278
			c0.111,0.11,0.126,0.368,0.28,0.493c0.153,0.124,0.5,0.248,0.645,0.197c0.148-0.052,0.368-0.19,0.521-0.19
			c0.156,0,0.404,0.044,0.501-0.294c0.096-0.337,0.234-0.728,0.418-0.853c0.184-0.124,0.205-0.359,0.338-0.558
			s0.479-0.403,0.624-0.36c0.147,0.044,0.383,0.346,0.383,0.64s-0.139,0.433-0.052,0.646c0.089,0.214,0.271,0.491,0.243,0.727
			s0.059,0.361,0.102,0.521c0.045,0.162,0.125,0.397,0.125,0.669s0.015,0.617,0.148,0.786c0.132,0.169,0.146,0.52-0.301,0.69
			c-0.449,0.169-0.912,0.396-0.992,0.661c-0.081,0.265,0.021,0.515,0.189,0.741c0.17,0.229,0.427,0.684,0.597,0.933
			c0.169,0.25,0.329,0.537,0.248,0.963c-0.079,0.425-0.007,0.712,0.133,0.903c0.14,0.19,0.31,0,0.234-0.096
			c-0.072-0.096-0.22-0.221-0.072-0.315c0.146-0.097,0.419-0.199,0.396-0.486c-0.021-0.285-0.095-0.578,0.008-0.578
			s0.308,0.051,0.425,0.006c0.117-0.043,0.353,0.074,0.507,0.015c0.154-0.058,0.346-0.103,0.521-0.108
			c0.177-0.009,0.302-0.163,0.397-0.413c0.096-0.249,0.189-0.514,0.315-0.75c0.124-0.232,0.353-0.534,0.368-0.748
			c0.013-0.213-0.039-0.353-0.074-0.412c-0.036-0.057-0.125-0.175,0.051-0.205c0.178-0.028,0.221-0.161,0.199-0.353
			c-0.021-0.19-0.169-0.521-0.097-0.705c0.075-0.184,0.097-0.544,0.06-0.712c-0.036-0.169-0.008-0.272,0.052-0.507
			c0.059-0.235,0.124-0.611,0.066-0.822c-0.06-0.215-0.044-0.53,0.021-0.757c0.066-0.229,0.118-0.515,0-0.69
			c-0.118-0.177-0.073-0.31-0.073-0.427c0-0.118-0.103-0.447-0.169-0.586c-0.065-0.141-0.075-0.259-0.023-0.479
			c0.053-0.22,0.038-0.439-0.052-0.609c-0.087-0.168-0.079-0.448-0.006-0.639c0.073-0.191,0.11-0.403,0.037-0.596
			c-0.073-0.19-0.25-0.439-0.228-0.579c0.021-0.14-0.119-0.266-0.199-0.287s-0.229-0.337-0.337-0.609
			c-0.111-0.272-0.184-0.447-0.347-0.741c-0.16-0.294-0.395-0.515-0.527-0.654s-0.162-0.19-0.192-0.419
			c-0.028-0.228-0.191-0.433-0.257-0.551c-0.066-0.118-0.037-0.454-0.037-0.608c0-0.156-0.125-0.162-0.146-0.302
			s-0.094-0.235-0.256-0.235s-0.316-0.103-0.346-0.286c-0.028-0.184-0.309-0.184-0.396-0.213c-0.09-0.03,0.014-0.154,0.108-0.214
			c0.096-0.059,0.185-0.271,0-0.367c-0.183-0.095-0.329-0.109-0.558-0.103c-0.229,0.008-0.579,0.081-0.814-0.007
			c-0.235-0.089-0.428-0.316-0.566-0.191c-0.14,0.125-0.192,0.33-0.331,0.389c-0.14,0.059-0.316,0.059-0.346,0.148
			c-0.028,0.088,0.023,0.103,0.177,0.277c0.153,0.178,0.25,0.595,0.111,0.609c-0.142,0.016-0.142-0.182-0.142-0.277
			c0-0.097-0.102-0.177-0.146,0.029c-0.043,0.205-0.065,0.55-0.213,0.683c-0.146,0.132-0.294,0.117-0.233-0.11
			c0.059-0.228,0.168-0.434,0.059-0.411c-0.11,0.021-0.279,0.021-0.265-0.133s-0.036-0.271-0.169-0.133
			c-0.132,0.141,0.022,0.677-0.081,0.743c-0.103,0.066-0.112-0.141-0.112-0.259c0-0.116-0.116-0.065-0.226-0.219
			c-0.111-0.154-0.088-0.323-0.294-0.199c-0.205,0.126-0.478,0.353-0.64,0.397c-0.16,0.044-0.367,0.029-0.432,0.007
			c-0.067-0.021-0.142-0.271-0.045-0.366c0.096-0.096,0.205-0.28,0.184-0.5c-0.021-0.221,0.021-0.735,0.118-0.823
			c0.095-0.087,0.175-0.271,0.16-0.454c-0.014-0.184-0.014-0.435,0.053-0.545s0.059-0.44,0-0.58
			c-0.059-0.139-0.104-0.337-0.089-0.565c0.015-0.228,0.015-0.417,0.117-0.631c0.103-0.213,0.116-0.545,0.116-0.662
			s0.133-0.514,0.133-0.631s-0.058-0.412-0.153-0.521c-0.096-0.11-0.016-0.434,0.059-0.506c0.074-0.074,0.088-0.398,0.029-0.494
			c-0.058-0.094-0.124-0.271-0.067-0.419c0.061-0.146,0.01-0.313,0.01-0.433c0-0.117,0.145-0.184,0.19-0.286
			c0.044-0.103,0.044-0.404,0.177-0.463c0.13-0.059,0.506-0.265,0.631-0.383c0.125-0.116,0.397-0.521,0.565-0.521
			c0.17,0,0.514,0.082,0.478-0.109c-0.036-0.19-0.286-0.353-0.073-0.491c0.213-0.141,0.426-0.066,0.551-0.141
			c0.125-0.073,0.154-0.324,0.242-0.412c0.088-0.087,0.411-0.066,0.434-0.169c0.021-0.102-0.103-0.153-0.087-0.278
			c0.014-0.125,0.064-0.266,0.014-0.345c-0.052-0.081-0.029-0.243,0.088-0.361c0.117-0.117,0.206-0.271,0.345-0.198
			c0.138,0.074,0.242-0.029,0.264-0.118c0.022-0.088,0.17-0.006,0.17,0.053c0,0.058,0.133,0.08,0.133-0.095
			c0-0.178,0.007-0.398,0.132-0.398s0.199,0.061,0.374,0.053c0.177-0.008,0.287-0.044,0.118,0.197c-0.169,0.244-0.25,0.507,0,0.419
			c0.25-0.088,0.367-0.198,0.375-0.383c0.008-0.184,0.095-0.301,0.213-0.301c0.116,0,0.213-0.052,0.197-0.368
			c-0.014-0.314,0.11-0.447,0.251-0.506c0.14-0.058,0.176-0.191,0.197-0.271c0.023-0.081,0.287-0.243,0.353-0.287
			c0.066-0.043,0.009-0.278-0.124-0.278c-0.132,0-0.412,0.183-0.521,0.264c-0.111,0.081-0.279,0.118-0.374-0.212
			c-0.097-0.331-0.103-0.572-0.178-0.75c-0.073-0.175-0.22-0.403-0.147-0.646c0.074-0.244,0.199-0.324,0.039-0.485
			c-0.163-0.162-0.273-0.138-0.222-0.367c0.053-0.229-0.052-0.361-0.155-0.537c-0.103-0.175-0.182-0.44-0.043-0.654
			c0.14-0.212,0.39-0.558,0.381-0.705c-0.007-0.146-0.079-0.477,0.126-0.471c0.205,0.008,0.513,0.03,0.434-0.138
			c-0.081-0.169-0.104-0.419,0.007-0.426c0.111-0.008,0.266,0.169,0.271,0.36c0.009,0.19,0.066,0.485,0.169,0.485
			s0.178,0.234,0.338,0.213c0.163-0.023,0.315-0.243,0.427-0.104c0.109,0.141,0.287,0.353,0.33,0.046
			c0.045-0.309-0.161-0.596-0.302-0.986c-0.14-0.389-0.264-0.859-0.095-0.954c0.169-0.096,0.41-0.096,0.346-0.325
			c-0.067-0.227-0.257-0.028-0.382-0.116c-0.126-0.089-0.39-0.396-0.508-0.47c-0.117-0.074-0.257-0.104-0.212-0.28
			c0.043-0.177,0.066-0.264,0.043-0.419c-0.021-0.153,0.008-0.199,0.147-0.213s0.337-0.124,0.411-0.22
			c0.073-0.095,0.146-0.133,0.206-0.066c0.058,0.066-0.022,0.221-0.111,0.272c-0.089,0.052-0.199,0.198-0.199,0.309
			s0.016,0.353,0.223,0.434c0.205,0.08,0.323,0.145,0.358,0.309c0.037,0.162,0.177,0.265,0.271,0.265
			c0.097,0,0.317,0.058,0.348,0.219c0.027,0.162,0.103,0.265,0.211,0.323c0.111,0.058,0.09,0.191,0.052,0.338
			c-0.036,0.148,0.038,0.383,0.023,0.491c-0.016,0.112-0.045,0.2-0.067,0.332c-0.021,0.132,0.089,0.301,0.2,0.419
			c0.109,0.117,0.175,0.426,0.189,0.683c0.015,0.257,0.044,0.543,0.132,0.712c0.089,0.17,0.243,0.764,0.258,0.926
			c0.015,0.162,0.161,0.425,0.169,0.654c0.008,0.227,0.161,0.448,0.184,0.594c0.021,0.147,0.072,0.265-0.081,0.441
			c-0.154,0.177-0.161,0.213-0.11,0.36c0.052,0.148,0.008,0.22-0.074,0.309c-0.08,0.089-0.117,0.184,0.023,0.236
			c0.14,0.051,0.352,0.11,0.396,0.234c0.044,0.126,0.118,0.492,0.162,0.817c0.044,0.322,0.176,0.726,0.383,0.998
			c0.206,0.271,0.433,0.565,0.784,0.772c0.354,0.205,0.706,0.374,1,0.602c0.293,0.227,0.749,0.5,1.095,0.705
			c0.344,0.206,0.844,0.574,1.079,0.647c0.234,0.073,0.367,0.103,0.573,0.271c0.205,0.168,0.484,0.47,0.632,0.521
			s0.314,0.037,0.44,0.14C97.803,52.318,97.958,52.502,98.083,52.457z"/>
	</g>
</g>
<g id="Layer_1">
</g>
</svg>
