<?xml version="1.0" encoding="iso-8859-1"?>
<!-- Generator: Adobe Illustrator 16.0.3, SVG Export Plug-In . SVG Version: 6.00 Build 0)  -->
<!DOCTYPE svg PUBLIC "-//W3C//DTD SVG 1.1//EN" "http://www.w3.org/Graphics/SVG/1.1/DTD/svg11.dtd">
<svg version="1.1" xmlns="http://www.w3.org/2000/svg" xmlns:xlink="http://www.w3.org/1999/xlink" x="0px" y="0px" width="100px"
	 height="100px" viewBox="0 0 100 100" style="enable-background:new 0 0 100 100;" xml:space="preserve">
<g id="SE">
	<g>
		<path style="fill:#010101;" d="M59.267,0.391c0.056,0.183,0.452,0.649,0.452,0.932s-0.058,1.215-0.312,1.441
			c-0.252,0.226-0.563,0.776-0.479,0.917c0.085,0.141,0.594,0.481,0.396,0.833c-0.198,0.354-0.535,0.621-0.932,0.565
			c-0.396-0.056-0.789-0.48-1.187-0.648c-0.395-0.17-1.143-0.269-1.481-0.411c-0.34-0.141-1.116-0.649-1.44-0.24
			c-0.326,0.41-0.494,1.187-0.48,1.808c0.014,0.622-0.043,2.062-0.367,2.189c-0.326,0.127-0.721-0.127-1.06-0.452
			c-0.339-0.325-0.578-0.537-1.2,0.071c-0.622,0.607-1.06,0.791-1.257,1.624c-0.197,0.834-0.693,1.709-1.003,2.035
			c-0.309,0.324-0.578,0.903-0.224,1.722c0.35,0.819,0.802,1.314-0.285,2.387c-1.088,1.074-1.921,2.344-2.047,2.811
			c-0.128,0.466-0.198,1.299-0.325,1.708c-0.126,0.41-0.578,1.13-1.34,1.003c-0.763-0.127-1.314-0.042-1.271,0.749
			c0.042,0.791,0.098,1.906-0.085,2.443c-0.183,0.536-0.282,1.723-0.297,2.062c-0.013,0.338-0.31,0.988-0.65,1.539
			c-0.338,0.55-0.663,1.214-0.917,1.694c-0.255,0.479-0.976,1.498-1.003,1.779c-0.027,0.283-0.041,0.665,0.326,1.032
			c0.367,0.366,0.888,0.734,0.874,1.228c-0.013,0.495-0.21,1.356-0.422,1.652c-0.213,0.297-0.495,0.495-1.06,0.311
			c-0.565-0.184-1.497-0.495-2.048-0.197c-0.551,0.295-1.102,0.804-1.877,1.694c-0.777,0.889-1.187,1.355-1.145,1.793
			c0.042,0.438,0.127,0.733-0.014,1.002s-0.762,0.778-0.762,1.555s0.014,0.833,0.014,0.833l-0.113,2.979
			c0,0,0.056,0.438-0.057,0.918c-0.113,0.48,0.014,1.229-0.126,1.907c-0.143,0.678-0.143,1.214,0.083,1.864
			c0.227,0.649,0.157,1.51,0.101,1.864c-0.057,0.353-0.424,1.524-0.467,1.963c-0.042,0.438-0.452,1.313,0.566,2.104
			c1.016,0.791,1.553,1.468,1.539,1.935c-0.015,0.466-0.523,1.596-0.707,1.723c-0.183,0.126-0.875,0.1-1.158,0.227
			c-0.282,0.126-0.225,0.521-0.014,1.144c0.211,0.621,0.465,1.623,0.565,2.132c0.099,0.509,0.184,1.144-0.014,1.397
			c-0.197,0.255-0.411,0.594-0.411,1.088s-0.239,1.426-0.579,1.708c-0.338,0.283-1.186,0.58-1.44,0.692
			c-0.254,0.113-0.31,0.438-0.269,0.749c0.044,0.31-0.282,1.2-0.479,1.229c-0.197,0.027-0.326,0.253-0.339,0.776
			c-0.014,0.522-0.125,1.808-0.183,2.357c-0.056,0.552-0.337,1.37-0.677,1.469c-0.339,0.099-0.693-0.056-0.72-0.494
			s-0.312-0.764-0.312-0.764l-0.027-0.042c-0.034-0.059-0.057-0.11-0.078-0.169c-0.035,0.102-0.059,0.178-0.059,0.178
			c-0.009,0.024-0.019,0.051-0.033,0.076c-0.078,0.163-0.218,0.184-0.184,0.255c0.037,0.069,0.255,0.112,0.283,0.232
			c0.029,0.121-0.042,0.163-0.147,0.213s-0.099,0.155-0.021,0.296s0.106,0.622,0.1,1.081s-0.03,0.621-0.142,0.571
			s-0.232-0.169-0.262-0.07c-0.027,0.099,0.044,0.275,0.143,0.382c0.099,0.105,0.197,0.691,0.184,0.861
			c-0.014,0.169,0.105,0.147,0.133,0.261c0.03,0.113,0.037,0.53-0.091,0.445c-0.127-0.086-0.191-0.128-0.191,0.176
			s0.057,0.586,0.282,0.431c0.227-0.155,0.339-0.354,0.39-0.374c0.048-0.021-0.023,0.247,0.021,0.332
			c0.041,0.084,0.331,0.176,0.395-0.184c0.063-0.36-0.021-0.48,0.106-0.424c0.127,0.057,0.155,0.275,0.233,0.204
			c0.078-0.069,0.163-0.353,0.205-0.197c0.043,0.155,0.268,0.543,0.142,0.551c-0.128,0.007-0.261-0.105-0.403,0.177
			c-0.14,0.282-0.296,0.501-0.126,0.48c0.169-0.021,0.354-0.198,0.523-0.22c0.167-0.021,0.52,0.05,0.465,0.135
			c-0.057,0.085-0.282,0.184-0.227,0.227c0.058,0.042,0.269,0.577,0.142,0.854c-0.128,0.275-0.339,0.797-0.445,1.023
			c-0.104,0.226-0.104,0.416-0.104,0.529c0,0.112-0.122,0.184-0.191,0.304c-0.071,0.12-0.099,0.247,0.085,0.359
			c0.184,0.114,0.317,0.289,0.154,0.48c-0.163,0.19-0.396,0.374-0.311,0.558s0.375,0.275,0.375,0.275s-0.058,0.134,0.049,0.311
			c0.107,0.177,0.247,0.289,0.29,0.416c0.042,0.128-0.05,0.354-0.156,0.608c-0.106,0.254-0.149,0.41-0.05,0.536
			c0.1,0.127,0.275,0.382,0.333,0.333c0.057-0.05,0.168-0.39,0.254-0.433c0.085-0.041,0.112,0.036,0.112,0.178
			c0,0.141,0.079,0.262,0.178,0.354c0.098,0.092,0.043,0.219-0.028,0.374c-0.071,0.154-0.029,0.388,0.119,0.479
			c0.149,0.092,0.276,0.212,0.191,0.375c-0.085,0.161-0.021,0.36,0.099,0.486c0.121,0.128,0.212,0.213,0.36,0.536
			c0.149,0.326,0.106,0.382,0.113,0.475c0.008,0.092-0.021,0.345,0.233,0.528c0.255,0.184,0.354,0.29,0.381,0.46
			c0.03,0.169,0.014,0.593,0.135,0.811c0.12,0.22,0.282,0.383,0.564,0.438s0.537,0.36,0.5,0.678
			c-0.035,0.318-0.021,0.643-0.416,0.748c-0.396,0.107-0.707,0.008-0.72,0.241c-0.014,0.233,0.119,0.296,0.275,0.501
			c0.157,0.204,0.282,0.522,0.176,0.601c-0.104,0.078-0.431-0.078-0.6-0.142c-0.169-0.064-0.388-0.105-0.401-0.036
			c-0.014,0.072,0.147,0.227,0.147,0.318s-0.007,0.516,0.135,0.642c0.142,0.128,0.36,0.559,0.374,0.806s0.043,0.551,0.17,0.748
			c0.126,0.198,0.445,0.475,0.458,0.735s-0.056,0.692,0.093,0.812c0.148,0.12,0.346,0.05,0.38,0.304
			c0.036,0.255,0.05,0.474,0.05,0.474s-0.305,0.084-0.431,0.268c-0.126,0.184-0.184,0.509-0.093,0.692
			c0.093,0.184,0.127,0.416-0.034,0.416c-0.164,0-0.312-0.069-0.312,0c0,0.07-0.027,0.162-0.099,0.226
			c-0.072,0.064-0.113,0.178,0.091,0.185c0.205,0.006,0.432,0.141,0.48,0.247c0.05,0.105,0.481,0.127,0.58,0.085
			c0.099-0.042,0.375,0.007,0.593,0.07c0.22,0.063,0.636,0.021,0.848-0.105s0.521-0.17,0.636-0.22
			c0.113-0.05,0.311-0.205,0.643-0.205c0.331,0,0.805,0.043,1.024,0.134c0.218,0.093,0.508,0.234,0.663,0.064
			c0.156-0.17,0.213-0.275,0.367-0.34c0.156-0.062,0.305-0.338,0.319-0.635c0.013-0.297-0.135-0.487-0.128-0.663
			c0.007-0.177-0.069-0.452-0.303-0.649s-0.276-0.537-0.163-0.728c0.113-0.19,0.198-0.586,0.472-0.826
			c0.275-0.24,0.517-0.494,0.607-0.487c0.093,0.007,0.149-0.106,0.248-0.22c0.1-0.112,0.361-0.204,0.508-0.069
			c0.149,0.134,0.193,0.219,0.359,0.056c0.17-0.162,0.185-0.254,0.108-0.396c-0.077-0.141-0.071-0.353,0.055-0.353
			c0.128,0,0.312,0.077,0.396,0.077c0.083,0,0.253-0.169,0.423-0.119c0.17,0.049,0.319,0.021,0.396-0.064
			c0.077-0.085,0.227-0.162,0.318-0.057c0.093,0.106,0.381,0.128,0.473,0.071c0.093-0.057,0.197-0.1,0.197,0.035
			c0,0.134-0.013,0.324,0.143,0.261c0.156-0.062,0.206-0.367,0.317-0.275c0.114,0.092,0.226,0.247,0.369,0.184
			c0.14-0.062,0.19-0.062,0.19-0.062s0.069,0.141,0.232,0.119c0.163-0.021,0.227-0.155,0.227-0.155s0.269-0.049,0.316-0.014
			c0.05,0.035,0.015,0.239,0.084,0.311c0.071,0.07,0.418,0.212,0.48-0.113c0.064-0.324,0.164-0.416,0.319-0.494
			s0.204-0.197,0.261-0.431c0.056-0.233,0.105-0.502,0.204-0.903c0.099-0.402,0.191-0.819,0.374-0.981
			c0.184-0.163,0.388-0.354,0.339-0.544c-0.05-0.19-0.189-0.473-0.084-0.509c0.106-0.035,0.332-0.007,0.446-0.098
			c0.113-0.093,0.176-0.19,0.176-0.39c0-0.197,0.056-0.289,0.198-0.402c0.141-0.113,0.085-0.374-0.035-0.296
			c-0.121,0.077-0.403,0.154-0.311-0.1c0.091-0.254,0.233-0.274,0.21-0.621c-0.021-0.347-0.021-0.48,0.128-0.628
			c0.148-0.148,0.474-0.346,0.375-0.488c-0.099-0.141-0.367-0.099-0.445-0.296c-0.078-0.197-0.014-0.204,0.042-0.311
			c0.056-0.105-0.05-0.239-0.05-0.332c0-0.092,0.149-0.226,0.156-0.402c0.007-0.177,0.105-0.297,0.253-0.409
			c0.149-0.113,0.234-0.205,0.261-0.34c0.03-0.134,0.023-0.324,0.178-0.423c0.156-0.1,0.189-0.262,0.121-0.403
			c-0.071-0.141-0.128-0.226-0.128-0.324s-0.232-0.155-0.31-0.204c-0.078-0.05-0.071-0.36-0.013-0.403
			c0.055-0.042,0.161,0.027,0.274-0.049c0.114-0.078,0.318-0.36,0.232-0.432c-0.085-0.07-0.316-0.177-0.408-0.339
			c-0.092-0.162-0.241-0.381-0.403-0.395c-0.162-0.014-0.218-0.113-0.218-0.275c0-0.163-0.079-0.325,0.006-0.325
			s0.233,0.197,0.347,0.254c0.112,0.058,0.255,0.177,0.289,0.311c0.034,0.135,0.126,0.318,0.19,0.275
			c0.064-0.042-0.006-0.331-0.091-0.473c-0.085-0.141-0.184-0.408-0.149-0.487c0.037-0.078,0.156,0.093,0.29,0.197
			c0.134,0.106,0.26,0.113,0.395,0.191c0.133,0.077,0.311-0.17,0.17-0.367s-0.472-0.289-0.58-0.452
			c-0.106-0.162-0.225-0.317-0.133-0.375c0.092-0.056,0.247,0.085,0.353,0.093c0.106,0.007,0.197-0.148,0.147-0.41
			c-0.048-0.26-0.367-0.466-0.309-0.544c0.056-0.076,0.253,0.058,0.324,0.101c0.07,0.042,0.43-0.086,0.438-0.171
			c0.008-0.084-0.141-0.536-0.358-0.671c-0.22-0.134-0.411-0.269-0.347-0.324c0.062-0.056,0.429-0.177,0.253-0.24
			c-0.174-0.064-0.62-0.049-0.605-0.148c0.014-0.099,0.183-0.148,0.388-0.142c0.204,0.009,0.29-0.211,0.112-0.269
			c-0.176-0.057-0.486-0.184-0.69-0.239c-0.206-0.057-0.39-0.282-0.339-0.289c0.05-0.007,0.316,0.007,0.543,0.092
			c0.225,0.085,0.431,0.212,0.551,0.154c0.118-0.057,0.261-0.134,0.417-0.141c0.153-0.008,0.289-0.254,0.091-0.402
			c-0.199-0.148-0.305-0.339-0.404-0.424c-0.098-0.085-0.31-0.105-0.501-0.063c-0.189,0.043-0.281-0.092-0.423-0.147
			c-0.142-0.057-0.353-0.029-0.523,0.014c-0.17,0.042-0.422,0.127-0.537,0.007c-0.112-0.119-0.198-0.261-0.154-0.31
			c0.042-0.051,0.276-0.022,0.437-0.121c0.163-0.099,0.481-0.057,0.685,0.028c0.205,0.084,0.77,0.297,1.047,0.325
			c0.275,0.027,0.775,0.027,0.684-0.1c-0.092-0.126-0.105-0.268,0.007-0.261c0.113,0.007,0.282,0.043,0.417,0.085
			c0.133,0.043,0.275-0.1,0.127-0.155c-0.149-0.057-0.184-0.05-0.191-0.227c-0.006-0.176-0.113-0.226-0.021-0.289
			c0.091-0.063,0.217,0.015,0.275,0.148c0.056,0.134,0.296,0.127,0.402,0.05c0.104-0.079,0.473-0.298,0.601-0.375
			c0.126-0.077,0.36-0.071,0.395-0.12c0.036-0.05-0.056-0.346,0.064-0.346c0.119,0,0.269-0.029,0.126-0.22
			c-0.14-0.189,0-0.303,0.058-0.416c0.057-0.112,0.071-0.354,0.071-0.636s0.034-0.479,0.133-0.516c0.1-0.035,0.19,0.05,0.197,0.135
			s0.122,0.069,0.128,0.021c0.007-0.05,0.014-0.227,0.12-0.211c0.105,0.014,0.176,0.112,0.105,0.233
			c-0.071,0.119-0.105,0.232-0.071,0.374c0.037,0.141,0.043,0.311,0.051,0.438c0.006,0.126-0.008,0.219,0.176,0.339
			s0.494,0.177,0.494-0.177s0.071-0.734,0.269-0.848c0.196-0.113,0.508-0.516,0.573-0.396c0.062,0.119,0.075,0.227,0.176,0.211
			c0.099-0.014,0.056-0.26,0.084-0.288c0.028-0.029,0.29-0.312,0.368-0.374c0.077-0.064,0.027-0.078-0.092-0.354
			c-0.121-0.275-0.403-0.579-0.403-0.663c0-0.086,0.105-0.234,0.262-0.234c0.155,0,0.325,0.085,0.522,0.058
			c0.197-0.028,0.141-0.1,0.028-0.318c-0.113-0.219-0.17-0.331-0.269-0.374c-0.099-0.042-0.219-0.057-0.141,0.113
			c0.076,0.169-0.071,0.261-0.191,0.261s-0.276,0.227-0.381,0.212c-0.106-0.015-0.171-0.189-0.29-0.261
			c-0.119-0.07-0.225-0.297-0.143-0.396c0.085-0.099,0.361-0.22,0.523-0.198c0.163,0.021,0.523-0.049,0.643-0.191
			c0.121-0.14,0.142-0.069,0.262-0.118c0.119-0.05,0.282-0.185,0.488-0.227c0.204-0.041,0.174-0.077,0.127-0.304
			c-0.051-0.227,0.006-0.558,0.254-0.698c0.245-0.142,0.452-0.276,0.493-0.396c0.043-0.121,0.149-0.197,0.269-0.099
			c0.12,0.099,0.459,0.105,0.425-0.163c-0.037-0.269-0.333-0.317-0.643-0.269c-0.312,0.05-0.488,0.127-0.375,0.016
			c0.113-0.114,0.467-0.058,0.402-0.291c-0.063-0.232-0.105-0.402-0.275-0.586c-0.17-0.183-0.289-0.346-0.325-0.656
			c-0.035-0.312-0.29-0.564-0.43-0.614c-0.143-0.049-0.318-0.035-0.36,0.021c-0.043,0.057-0.177-0.197-0.282-0.359
			c-0.106-0.163-0.128-0.445-0.34-0.571c-0.211-0.128-0.502-0.339-0.431-0.367s0.417,0.112,0.564,0.19
			c0.149,0.077,0.622,0.134,0.262-0.205c-0.36-0.34-0.466-0.494-0.678-0.465c-0.212,0.027-0.573,0.168-0.579-0.064
			c-0.008-0.233,0.128-0.318-0.226-0.565c-0.353-0.247-0.233-0.678-0.312-0.841c-0.076-0.161-0.296-0.275-0.62-0.184
			c-0.326,0.092-0.359,0.22-0.367,0.34c-0.006,0.119-0.063,0.197-0.22,0.177c-0.156-0.021-0.381-0.205-0.401-0.275
			c-0.021-0.071,0-0.163,0.048-0.262c0.051-0.099,0.03-0.219-0.161-0.219s-0.24,0.049-0.36-0.057
			c-0.121-0.106-0.324-0.226-0.508-0.24c-0.184-0.015-0.382,0.021-0.354-0.147c0.027-0.17,0.269-0.05,0.367-0.185
			c0.099-0.134-0.035-0.247-0.12-0.332s0.055-0.219,0.085-0.281c0.027-0.064-0.085-0.312-0.241-0.537
			c-0.155-0.226-0.204-0.445-0.126-0.558c0.078-0.113,0.126-0.346,0.007-0.536c-0.121-0.19-0.169-0.658-0.105-0.946
			c0.062-0.289,0.112-0.459,0.048-0.601c-0.063-0.141-0.063-0.255,0.021-0.262s0.114-0.134-0.049-0.288
			c-0.163-0.156-0.113-0.446-0.007-0.495c0.106-0.049,0.099-0.269,0.027-0.317c-0.07-0.05-0.148-0.396-0.14-0.466
			c0.007-0.071,0.083-0.135,0.161-0.213c0.077-0.078-0.021-0.105-0.14-0.113c-0.121-0.007-0.296,0.028-0.29-0.127
			c0.007-0.155,0.282-0.141,0.184-0.232c-0.099-0.093-0.233-0.162-0.213-0.205c0.023-0.042,0.339,0.035,0.319-0.113
			c-0.021-0.147-0.227-0.227-0.17-0.289c0.057-0.063,0.374-0.127,0.395,0.014c0.021,0.143,0.071,0.374,0.148,0.318
			c0.078-0.057,0.048-0.135,0.112-0.142c0.065-0.007,0.233,0.312,0.326,0.317c0.091,0.007,0.444-0.394,0.289-0.537
			c-0.155-0.14-0.366-0.098-0.353-0.302c0.014-0.205,0.056-0.409-0.035-0.615c-0.092-0.204-0.312-0.423-0.148-0.579
			c0.162-0.155,0.316-0.388,0.324-0.593s0.042-0.493,0.127-0.699c0.085-0.204,0.105-0.22,0.028-0.396
			c-0.078-0.176-0.062-0.339,0.057-0.339s0.19,0.227,0.282,0.147c0.092-0.077,0.304-0.359,0.064-0.452
			c-0.241-0.091-0.502-0.366-0.581-0.543c-0.077-0.176-0.337-0.295-0.337-0.295s0.062-0.156,0.068-0.438
			c0.008-0.283-0.014-0.487,0.071-0.615c0.085-0.126,0.099-0.367,0.099-0.367s0.333,0.057,0.432,0.212s0.064,0.366,0.127,0.48
			c0.063,0.112,0.396,0.317,0.438,0.147c0.044-0.169-0.071-0.311-0.112-0.402c-0.044-0.092-0.027-0.163,0.078-0.163
			s0.522-0.099,0.563-0.247c0.043-0.148,0.052-0.248,0.052-0.248l0.274,0.015c0,0,0.069-0.551-0.036-0.636
			c-0.106-0.085-0.444,0-0.408-0.163c0.033-0.162,0.104-0.112,0.184-0.168c0.077-0.056,0.055-0.269,0.013-0.41
			c-0.043-0.141-0.295-0.586-0.41-0.819c-0.112-0.233-0.253-0.635-0.19-0.635c0.064,0,0.255,0.269,0.391,0.458
			c0.132,0.191,0.146,0.305,0.4,0.29c0.255-0.014,0.347-0.021,0.29,0.127s-0.014,0.269,0.204,0.227
			c0.22-0.042,0.346-0.085,0.346-0.24c0-0.156-0.119-0.367,0.021-0.367c0.143,0,0.24,0.007,0.24,0.148s0.275-0.064,0.296-0.198
			c0.023-0.134-0.026-0.304,0.136-0.326c0.162-0.021,0.303-0.184,0.156-0.253c-0.15-0.071-0.452,0.027-0.475-0.114
			c-0.021-0.141-0.028-0.423,0.022-0.388c0.049,0.036,0.31,0.19,0.31,0.141c0-0.05,0.092-0.332,0.184-0.474
			c0.092-0.141,0.014-0.401,0.085-0.401s0.204,0.049,0.303,0.021c0.099-0.029,0.241-0.396,0.241-0.396l0.204-1.914
			c0,0-0.035-0.452,0.05-0.36s0.17,0.269,0.246,0.269c0.078,0,0.346-0.247,0.254-0.43c-0.091-0.184-0.162-0.134-0.268-0.226
			s-0.021-0.19,0.128-0.184c0.146,0.007,0.275,0.056,0.316,0.219c0.043,0.162,0.29,0.346,0.411,0.261
			c0.119-0.085,0.204-0.169,0.268-0.325c0.062-0.155,0.178-0.247,0.276-0.318c0.099-0.07,0.239-0.226,0.239-0.388
			c0-0.163,0.104-0.333,0.268-0.452c0.163-0.121,0.275-0.29,0.262-0.608c-0.015-0.318,0.085-0.353,0.204-0.282
			c0.122,0.071,0.085,0.282,0.234,0.41c0.148,0.127,0.133,0.247,0.133,0.382c0,0.134,0.143,0.134,0.213,0.014
			c0.071-0.121,0.14-0.219,0.225-0.282c0.086-0.064,0-0.317,0-0.367c0-0.05,0.445-0.501,0.51-0.501s0.133,0.077,0.282,0.091
			c0.149,0.015,0.119-0.105,0.119-0.254s0.063-0.409,0.177-0.402c0.113,0.007,0.53-0.007,0.559-0.127s-0.063-0.649,0-0.657
			c0.063-0.006,0.183,0.233,0.247,0.339c0.063,0.106,0.189,0.106,0.24-0.05c0.048-0.155,0.048-0.727,0.141-0.727
			c0.091,0,0.148,0.141,0.142,0.325s-0.044,0.487,0.041,0.445s0.198-0.304,0.221-0.501c0.021-0.197,0.225-0.24,0.252-0.41
			c0.03-0.17,0.115-0.459,0.255-0.564c0.143-0.106,0.306-0.262,0.234-0.53s-0.059-0.43,0.105-0.728
			c0.163-0.297,0.071-0.423,0.203-0.473c0.136-0.049,0.446-0.015,0.475-0.339c0.028-0.325-0.106-0.396-0.008-0.48
			c0.099-0.085,0.291-0.028,0.39-0.1c0.099-0.07,0.282-0.38,0.493-0.564c0.212-0.183,0.452-0.537,0.36-0.628
			s-0.126-0.007-0.269,0.114c-0.14,0.119-0.347,0.112-0.332,0c0.016-0.114,0.163-0.304,0.057-0.424
			c-0.105-0.12-0.261-0.345-0.4-0.352c-0.144-0.008-0.255-0.078-0.312-0.36c-0.055-0.284-0.219-0.417-0.17-0.417
			c0.05,0,0.262,0.212,0.312,0.071c0.047-0.141,0.119-0.515,0.041-0.564c-0.078-0.049-0.219-0.12-0.346-0.177
			c-0.127-0.057-0.134-0.297-0.113-0.297s0.099,0.114,0.198,0.064c0.099-0.049,0.198-0.275,0.183-0.452
			c-0.014-0.177,0-0.347,0.107-0.382c0.105-0.034,0.246-0.303,0.303-0.409c0.058-0.106,0.231-0.501,0.197-0.664
			c-0.034-0.163-0.013-0.29,0.044-0.318c0.055-0.028,0.055-0.451-0.136-0.642c-0.189-0.192-0.537-0.628-0.537-0.727
			c0-0.1,0.008-0.212,0.105-0.107c0.1,0.107,0.299,0.318,0.476,0.48c0.175,0.162,0.558,0.381,0.613,0.354
			c0.057-0.029-0.1-0.149-0.205-0.291c-0.104-0.141-0.162-0.289-0.119-0.324c0.042-0.035,0.367-0.183,0.211-0.255
			c-0.155-0.069-0.354-0.056-0.339-0.168c0.014-0.113,0.241-0.226,0.305-0.333c0.062-0.105,0.246-0.141,0.353-0.105
			c0.105,0.035,0.261-0.099,0.317-0.155c0.057-0.057,0.155,0.057,0.247,0.049c0.092-0.006,0.191-0.063,0.056-0.232
			c-0.133-0.169-0.203-0.297-0.323-0.339c-0.122-0.042-0.255-0.148-0.099-0.17c0.154-0.021,0.302,0.008,0.472-0.034
			s0.46-0.071,0.572,0.027s0.353,0.114,0.282-0.007c-0.069-0.121-0.289-0.134-0.36-0.262c-0.069-0.126-0.274-0.162-0.437-0.19
			c-0.163-0.027-0.29-0.119-0.29-0.119s0.318-0.051,0.41-0.051s0.374,0.134,0.451,0.206c0.078,0.07,0.375,0.148,0.432,0.105
			c0.056-0.042,0.083-0.148-0.009-0.303c-0.093-0.156-0.083-0.333-0.106-0.488c-0.021-0.155-0.133-0.197-0.295-0.211
			c-0.163-0.015-0.36-0.071-0.304-0.248c0.056-0.177,0.43-0.021,0.438-0.113c0.007-0.092-0.022-0.424,0.105-0.544
			c0.127-0.12,0.415-0.084,0.409,0.106c-0.008,0.191,0.07,0.184,0.155,0.169c0.085-0.015,0.241,0.035,0.31,0.077
			c0.071,0.042,0.037-0.19,0.043-0.367c0.008-0.176,0.056-0.331,0.155-0.239c0.1,0.091,0.17,0.296,0.291,0.38
			c0.119,0.085,0.381,0.156,0.458,0.212c0.078,0.056,0.289,0.275,0.289,0.367s0.1,0.219,0.184,0.212
			c0.085-0.007,0.249-0.375,0.249-0.502c0-0.127,0.047-0.303,0.183-0.303c0.133,0,0.154,0.078,0.154,0.211
			c0,0.134,0.177,0.12,0.22,0.042c0.042-0.078,0.197-0.466,0.268-0.487c0.072-0.021,0.113,0.381,0.247,0.311
			c0.135-0.071,0.148-0.212,0.176-0.318c0.029-0.106,0.114-0.148,0.199-0.085c0.086,0.064,0.127,0.296,0.247,0.296
			s0.41-0.183,0.509-0.176c0.099,0.007,0.366,0.176,0.53,0.078c0.015-0.009-0.158-0.52-0.164-0.537
			c-0.207-0.564-0.47-1.223-0.828-1.845c-0.357-0.622-1.018-1.77-0.752-2.185c0.263-0.414,0.488-0.81,0.414-1.355
			c-0.077-0.546-0.038-1.846-0.114-2.184c-0.076-0.34-0.112-0.51-0.528-1.037c-0.413-0.526-0.62-0.734-0.527-0.998
			c0.096-0.263,0.096-0.263,0.096-0.263s0.188,0.112,0.32,0.037c0.132-0.075,0.056-0.207,0.056-0.207s-0.036-0.094,0.019-0.301
			c0.058-0.207,0.207-0.716-0.019-0.791c-0.226-0.075-0.291-0.056-0.48-0.047c-0.188,0.009-0.526,0.019-0.49-0.292
			c0.038-0.311,0.321-0.603,0.274-0.8c-0.047-0.198-0.244-0.688-0.264-0.894c-0.019-0.208,0.047-0.66,0.217-0.952
			s0.225-0.715,0.085-0.829c-0.143-0.113-0.255-0.169-0.425-0.414c-0.169-0.246-0.254-0.678-0.525-0.631
			c-0.274,0.048-0.444,0.226-0.548-0.141c-0.102-0.366-0.112-0.733-0.255-0.922c-0.14-0.188-0.762-0.442-0.978-0.556
			C65.8,4.604,65.622,4.378,65.31,4.17C65,3.963,64.783,3.907,64.651,4.029c-0.131,0.123-0.348,0.226-0.51,0
			c-0.158-0.226-0.319-0.555-0.536-0.686c-0.217-0.133-0.328-0.265-0.413-0.396s-0.283-0.141-0.434-0.311
			c-0.15-0.17-0.358-0.509-0.603-0.63c-0.245-0.123-0.443-0.396-0.641-0.5c-0.197-0.103-0.452-0.339-0.583-0.565
			c-0.132-0.226,0.01-0.301-0.141-0.49C60.709,0.349,60.546,0.155,60.416,0c-0.245,0.231-0.272,0.306-0.429,0.306
			C59.817,0.306,59.209,0.208,59.267,0.391z"/>
		<ellipse style="fill:#010101;" cx="29.502" cy="78.338" rx="0.164" ry="0.141"/>
		<ellipse style="fill:#010101;" cx="28.979" cy="78.324" rx="0.085" ry="0.107"/>
		<circle style="fill:#010101;" cx="29.432" cy="78.79" r="0.085"/>
		<circle style="fill:#010101;" cx="29.286" cy="79.878" r="0.033"/>
		<circle style="fill:#010101;" cx="29.644" cy="79.873" r="0.042"/>
		<path style="fill:#010101;" d="M29.996,78.987c-0.272,0.173-0.658,0.255-0.705,0.378c-0.047,0.122,0.159,0.349,0.386,0.339
			c0.225-0.01,0.187,0.038,0.244,0.113c0.058,0.074,0.376,0.263,0.564-0.029c0.189-0.291,0.151-0.573,0.142-0.848
			c-0.011-0.272-0.096-0.366-0.227-0.291S30.108,78.917,29.996,78.987z"/>
		<path style="fill:#010101;" d="M29.79,80.146c-0.138-0.024-0.293-0.113-0.331-0.028c-0.036,0.085,0.085,0.17,0.058,0.302
			s-0.094,0.273,0,0.367c0.095,0.094,0.076,0.208,0.226,0.094c0.152-0.112,0.301-0.196,0.376-0.226
			c0.076-0.027,0.047-0.188,0.131-0.207c0.085-0.02,0.132-0.17,0.02-0.255c-0.113-0.084-0.179-0.084-0.244-0.064
			C29.96,80.146,29.847,80.156,29.79,80.146z"/>
		<ellipse style="fill:#010101;" cx="29.54" cy="81.921" rx="0.098" ry="0.089"/>
		<ellipse style="fill:#010101;" cx="29.822" cy="82.415" rx="0.108" ry="0.085"/>
		<ellipse style="fill:#010101;" cx="30.161" cy="83.324" rx="0.117" ry="0.079"/>
		<ellipse style="fill:#010101;" cx="31.187" cy="85.63" rx="0.071" ry="0.052"/>
		<ellipse style="fill:#010101;" cx="31.447" cy="86.952" rx="0.047" ry="0.058"/>
		<ellipse style="fill:#010101;" cx="31.54" cy="87.188" rx="0.113" ry="0.094"/>
		<ellipse style="fill:#010101;" cx="32.581" cy="91.769" rx="0.099" ry="0.126"/>
		<path style="fill:#010101;" d="M57.995,40.284c-0.116,0.038-0.156,0.326-0.057,0.326c0.099,0,0.099-0.156,0.099-0.241
			S58.019,40.277,57.995,40.284z"/>
		<ellipse style="fill:#010101;" cx="55.016" cy="45.594" rx="0.085" ry="0.099"/>
		<circle style="fill:#010101;" cx="52.996" cy="47.01" r="0.099"/>
		<path style="fill:#010101;" d="M53.343,48.024c-0.053-0.075-0.198-0.035-0.142,0.085c0.057,0.12,0.112,0.113,0.155,0.099
			C53.398,48.193,53.369,48.062,53.343,48.024z"/>
		<path style="fill:#010101;" d="M53.378,47.374c-0.126-0.099-0.205-0.05-0.205,0.127s0.085,0.219,0.141,0.219
			c0.058,0,0.064-0.085,0.114-0.141C53.477,47.523,53.419,47.407,53.378,47.374z"/>
		<path style="fill:#010101;" d="M51.28,49.111c-0.045-0.02-0.196,0.142-0.127,0.212c0.07,0.07,0.212,0.007,0.212-0.042
			S51.323,49.13,51.28,49.111z"/>
		<path style="fill:#010101;" d="M51.252,49.549c-0.051-0.037-0.168,0.064-0.148,0.226c0.021,0.163,0.12,0.324,0.191,0.297
			c0.07-0.029,0.05-0.071,0.021-0.241C51.287,49.662,51.31,49.592,51.252,49.549z"/>
		<ellipse style="fill:#010101;" cx="52.202" cy="51.36" rx="0.075" ry="0.108"/>
		<ellipse style="fill:#010101;" cx="51.429" cy="53.216" rx="0.049" ry="0.061"/>
		<ellipse style="fill:#010101;" cx="51.701" cy="54.771" rx="0.117" ry="0.081"/>
		<ellipse style="fill:#010101;" cx="51.139" cy="56.073" rx="0.148" ry="0.113"/>
		<path style="fill:#010101;" d="M50.856,58.438c-0.08-0.029-0.106,0.057-0.106,0.184s0.007,0.177,0.085,0.177
			c0.079,0,0.092-0.12,0.099-0.198C50.941,58.523,50.9,58.454,50.856,58.438z"/>
		<path style="fill:#010101;" d="M50.764,59.314c-0.099,0.056-0.146,0.197-0.068,0.197c0.076,0,0.282-0.063,0.225-0.169
			C50.863,59.235,50.764,59.314,50.764,59.314z"/>
		<path style="fill:#010101;" d="M50.702,60.296c-0.075-0.003-0.07,0.161-0.029,0.219c0.042,0.057,0.127,0.091,0.148,0.07
			s0.042-0.105,0-0.184S50.742,60.296,50.702,60.296z"/>
		<ellipse style="fill:#010101;" cx="54.74" cy="62.957" rx="0.092" ry="0.099"/>
		<path style="fill:#010101;" d="M54.902,63.317c-0.074-0.029-0.118,0.331-0.118,0.487c0,0.155-0.058,0.227,0.062,0.339
			c0.121,0.113,0.319,0.255,0.347,0.317c0.028,0.064,0.155-0.007,0.148-0.126c-0.007-0.12-0.07-0.205-0.184-0.234
			c-0.114-0.027-0.184-0.184-0.17-0.352C55.001,63.579,55.005,63.356,54.902,63.317z"/>
		<path style="fill:#010101;" d="M56.09,65.231c-0.085-0.007-0.065,0.232-0.008,0.274c0.055,0.042,0.17-0.014,0.126-0.119
			C56.167,65.28,56.137,65.234,56.09,65.231z"/>
		<path style="fill:#010101;" d="M56.81,66.783c-0.19-0.235-0.318-0.557-0.403-0.557s-0.034,0.275,0.043,0.416
			c0.078,0.141,0.247,0.452,0.317,0.565c0.07,0.112,0.403,0.444,0.481,0.36c0.077-0.085,0.105-0.135-0.064-0.346
			C57.014,67.01,56.899,66.896,56.81,66.783z"/>
		<circle style="fill:#010101;" cx="57.583" cy="67.871" r="0.046"/>
		<path style="fill:#010101;" d="M56.541,69.573c-0.086,0.07-0.268,0.213-0.197,0.312c0.069,0.099,0.33,0,0.43-0.156
			c0.101-0.155,0.106-0.332,0.022-0.324C56.711,69.41,56.601,69.524,56.541,69.573z"/>
		<ellipse style="fill:#010101;" cx="57.299" cy="70.062" rx="0.088" ry="0.204"/>
		<path style="fill:#010101;" d="M54.485,70.972c-0.09,0.01-0.238,0.063-0.225,0.135c0.014,0.07,0.33,0.134,0.402,0.099
			c0.07-0.036,0.239-0.092,0.127-0.184C54.676,70.93,54.562,70.963,54.485,70.972z"/>
		<path style="fill:#010101;" d="M54.889,71.911c-0.046,0.071,0.177,0.035,0.269,0.176c0.092,0.142,0.262,0.276,0.396,0.22
			c0.133-0.057,0.282-0.135,0.063-0.275c-0.22-0.142-0.396-0.233-0.502-0.205C55.009,71.854,54.92,71.86,54.889,71.911z"/>
		<path style="fill:#010101;" d="M55.946,71.304c-0.106,0.025-0.062,0.12,0.023,0.226s0.19,0.042,0.134-0.085
			C56.046,71.318,55.999,71.292,55.946,71.304z"/>
		<path style="fill:#010101;" d="M55.898,71.854c-0.085,0.07-0.021,0.113,0.035,0.19c0.057,0.078,0.203,0.092,0.203,0.015
			c0-0.078-0.021-0.143-0.098-0.191C55.963,71.819,55.926,71.832,55.898,71.854z"/>
		<path style="fill:#010101;" d="M56.104,72.489c-0.102,0.023-0.178,0.135-0.12,0.184c0.056,0.05,0.205-0.021,0.261-0.056
			c0.057-0.036,0.062-0.142,0-0.142C56.181,72.476,56.137,72.481,56.104,72.489z"/>
		<path style="fill:#010101;" d="M56.449,71.79c-0.114,0.003-0.156,0.071-0.156,0.178s0.021,0.056,0.079,0.034
			c0.056-0.021,0.226-0.091,0.196-0.147C56.541,71.798,56.481,71.79,56.449,71.79z"/>
		<path style="fill:#010101;" d="M55.136,73.528c-0.169,0.091-0.239,0.253-0.191,0.311c0.051,0.056,0.276-0.092,0.326-0.128
			c0.048-0.035,0.197-0.162,0.105-0.197S55.136,73.528,55.136,73.528z"/>
		<path style="fill:#010101;" d="M54.853,74.34c-0.068,0.052-0.225,0.148-0.169,0.19c0.057,0.043,0.142,0.093,0.191,0.07
			c0.049-0.021,0.324-0.233,0.205-0.339C54.959,74.156,54.901,74.303,54.853,74.34z"/>
		<path style="fill:#010101;" d="M54.189,73.873c-0.119,0.134-0.126,0.396-0.035,0.368c0.093-0.028,0.142-0.176,0.197-0.198
			c0.057-0.021,0.093-0.184,0.029-0.197C54.315,73.832,54.189,73.873,54.189,73.873z"/>
		<ellipse style="fill:#010101;" cx="55.948" cy="73.619" rx="0.049" ry="0.063"/>
		<path style="fill:#010101;" d="M52.511,73.994c0.037-0.06,0.245-0.1,0.238,0.077c-0.008,0.177,0.007,0.275-0.055,0.479
			c-0.065,0.206-0.093,0.318-0.156,0.163c-0.064-0.154-0.044-0.282-0.014-0.36c0.027-0.077-0.014-0.197-0.03-0.226
			C52.48,74.099,52.49,74.021,52.511,73.994z"/>
		<path style="fill:#010101;" d="M53.137,75.088c-0.088-0.021-0.105,0.099-0.105,0.177s0,0.212,0.044,0.19
			c0.041-0.021,0.162-0.161,0.162-0.239S53.176,75.098,53.137,75.088z"/>
		<path style="fill:#010101;" d="M54.132,74.989c-0.068-0.007-0.14,0.029-0.119,0.128s0.234,0.226,0.283,0.141
			c0.05-0.085,0.006-0.197-0.028-0.239C54.23,74.976,54.132,74.989,54.132,74.989z"/>
		<ellipse style="fill:#010101;" cx="52.838" cy="75.085" rx="0.045" ry="0.053"/>
		<ellipse style="fill:#010101;" cx="53.505" cy="75.216" rx="0.042" ry="0.049"/>
		<path style="fill:#010101;" d="M51.782,75.823c-0.053-0.047-0.084,0.042-0.106,0.155c-0.021,0.112,0.029,0.127,0.077,0.091
			C51.804,76.034,51.828,75.864,51.782,75.823z"/>
		<ellipse style="fill:#010101;" cx="50.197" cy="77.538" rx="0.138" ry="0.057"/>
		<ellipse style="fill:#010101;" cx="49.607" cy="78.413" rx="0.07" ry="0.142"/>
		<circle style="fill:#010101;" cx="49.681" cy="78.858" r="0.08"/>
		<path style="fill:#010101;" d="M49.854,79.028c-0.054-0.046-0.132,0.05-0.169,0.112c-0.035,0.064,0.084,0.127,0.142,0.1
			C49.883,79.212,49.895,79.063,49.854,79.028z"/>
		<ellipse style="fill:#010101;" cx="49.851" cy="80.43" rx="0.06" ry="0.096"/>
		<path style="fill:#010101;" d="M49.628,80.702c-0.036-0.034-0.099,0.027-0.099,0.134s0.007,0.162,0.056,0.127
			C49.636,80.928,49.676,80.748,49.628,80.702z"/>
		<path style="fill:#010101;" d="M49.558,81.259c-0.048-0.03-0.113-0.027-0.113,0.05c0,0.078,0.141,0.17,0.17,0.114
			C49.643,81.365,49.594,81.283,49.558,81.259z"/>
		<path style="fill:#010101;" d="M49.184,82.396c-0.091,0.007-0.091,0.184-0.028,0.219c0.062,0.036,0.153-0.056,0.119-0.127
			C49.241,82.417,49.184,82.396,49.184,82.396z"/>
		<circle style="fill:#010101;" cx="49.188" cy="83.844" r="0.103"/>
		<circle style="fill:#010101;" cx="48.731" cy="84.038" r="0.063"/>
		<ellipse style="fill:#010101;" cx="49.104" cy="84.62" rx="0.045" ry="0.057"/>
		<path style="fill:#010101;" d="M48.612,86.901c-0.065-0.085-0.176,0.092-0.176,0.154c0,0.064,0.041,0.114,0.091,0.1
			C48.576,87.142,48.651,86.955,48.612,86.901z"/>
		<path style="fill:#010101;" d="M47.927,90.594c-0.076-0.018-0.071,0.176-0.028,0.191c0.042,0.014,0.07-0.029,0.07-0.101
			C47.969,90.615,47.951,90.6,47.927,90.594z"/>
		<path style="fill:#010101;" d="M47.786,91.929c0.004,0.186,0.085,0.374,0.049,0.797c-0.034,0.425-0.027,0.812,0,0.933
			c0.028,0.12,0.028,0.269,0.177,0.269c0.148,0,0.19-0.177,0.289-0.48s0.105-0.6,0.213-0.805c0.105-0.204,0.204-0.388,0.168-0.67
			c-0.035-0.284-0.168-0.565,0.1-0.756c0.267-0.19,0.352-0.509,0.358-0.812c0.009-0.305-0.006-0.495,0.156-0.594
			c0.163-0.099,0.276-0.304,0.29-0.571c0.015-0.269,0.063-0.53,0.198-0.628c0.134-0.1,0.19-0.213,0.19-0.361
			s-0.006-0.339,0.099-0.402c0.105-0.062,0.098-0.346,0.092-0.402c-0.007-0.056,0.147-0.183,0.211-0.324
			c0.063-0.141,0.098-0.317,0.021-0.494c-0.078-0.177,0.043-0.29,0.099-0.431c0.057-0.142,0.07-0.368-0.07-0.368
			c-0.142,0-0.39,0.198-0.452,0.452c-0.063,0.255-0.22,0.432-0.297,0.517c-0.076,0.084-0.126,0.317-0.14,0.571
			c-0.014,0.254-0.092,0.401-0.262,0.77c-0.168,0.367-0.578,1.25-0.748,1.702c-0.17,0.452-0.248,0.734-0.332,1.01
			c-0.085,0.275-0.184,0.381-0.255,0.508c-0.07,0.127-0.147,0.19-0.147,0.347C47.793,91.857,47.785,91.871,47.786,91.929z"/>
		<ellipse style="fill:#010101;" cx="57.808" cy="85.167" rx="0.06" ry="0.047"/>
		<path style="fill:#010101;" d="M53.618,85.94c-0.107,0.014-0.206,0.227-0.05,0.233c0.155,0.007,0.325-0.092,0.281-0.135
			C53.809,85.997,53.681,85.932,53.618,85.94z"/>
		<path style="fill:#010101;" d="M54.691,83.729c-0.15,0.119-0.376,0.36-0.376,0.53c0,0.171,0.093,0.53,0.184,0.79
			c0.092,0.263,0.234,0.602,0.156,0.757c-0.077,0.155-0.288,0.297-0.304,0.402c-0.014,0.105,0.049,0.382,0.178,0.571
			c0.126,0.191,0.085,0.433,0.071,0.622c-0.017,0.19,0.027,0.311,0.112,0.248c0.085-0.064,0.323-0.22,0.323-0.036s0,0.184,0,0.184
			s-0.232,0.035-0.289,0.134c-0.056,0.1-0.105,0.36-0.099,0.501c0.007,0.142-0.169,0.318-0.034,0.367
			c0.133,0.05,0.303-0.028,0.472-0.219c0.17-0.19,0.34-0.353,0.432-0.373c0.092-0.022,0.141-0.24,0.049-0.341
			c-0.092-0.099,0.007-0.338,0.063-0.373c0.056-0.035,0.141-0.134,0.028-0.197c-0.113-0.063-0.064-0.106,0.142-0.169
			c0.205-0.063,0.375-0.248,0.501-0.332c0.127-0.085,0.312-0.205,0.424-0.262s0.184-0.148,0.127-0.283
			c-0.056-0.133-0.161-0.268,0-0.317c0.162-0.049,0.332-0.183,0.444-0.297c0.113-0.112,0.17-0.19-0.014-0.354
			c-0.184-0.161-0.501-0.437-0.381-0.634c0.119-0.198,0.177-0.502,0.078-0.595c-0.1-0.092,0-0.303,0.034-0.346
			c0.035-0.042,0-0.282,0-0.431c0-0.147-0.034-0.282,0.17-0.205c0.204,0.078,0.289,0.128,0.282-0.07
			c-0.007-0.197,0.163-0.324,0.227-0.409c0.062-0.085,0.134-0.141,0.168-0.282c0.037-0.142,0.199-0.105,0.193-0.205
			c-0.009-0.099-0.102-0.261-0.102-0.409S57.925,81.5,57.776,81.5c-0.147,0-0.254-0.007-0.381-0.05
			c-0.127-0.042-0.219,0.113-0.219,0.197c0,0.085,0,0.262-0.078,0.233c-0.078-0.027-0.112-0.374-0.247-0.332
			c-0.134,0.043-0.474,0.135-0.6,0.354c-0.129,0.219-0.312,0.296-0.425,0.396c-0.112,0.099-0.274,0.19-0.401,0.473
			c-0.128,0.281-0.135,0.374-0.346,0.6C54.867,83.596,54.796,83.649,54.691,83.729z"/>
		<path style="fill:#010101;" d="M58.588,81.238c-0.117-0.023-0.367-0.227-0.422-0.106c-0.058,0.12-0.121,0.361-0.058,0.516
			c0.063,0.156,0.274,0.275,0.339,0.248c0.064-0.029,0.064-0.212,0.177-0.311c0.113-0.099,0.248-0.17,0.248-0.255
			S58.66,81.252,58.588,81.238z"/>
		<path style="fill:#010101;" d="M44.205,94.738c-0.098,0-0.162,0.028-0.156,0.085c0.009,0.057,0.085,0.1,0.085,0.142
			c0,0.041,0.093,0.021,0.149-0.042c0.058-0.064,0.065-0.171,0.029-0.185C44.277,94.725,44.205,94.738,44.205,94.738z"/>
		<ellipse style="fill:#010101;" cx="44.985" cy="94.897" rx="0.145" ry="0.095"/>
	</g>
</g>
<g id="Layer_1">
</g>
</svg>
