<?xml version="1.0" encoding="iso-8859-1"?>
<!-- Generator: Adobe Illustrator 16.0.3, SVG Export Plug-In . SVG Version: 6.00 Build 0)  -->
<!DOCTYPE svg PUBLIC "-//W3C//DTD SVG 1.1//EN" "http://www.w3.org/Graphics/SVG/1.1/DTD/svg11.dtd">
<svg version="1.1" xmlns="http://www.w3.org/2000/svg" xmlns:xlink="http://www.w3.org/1999/xlink" x="0px" y="0px" width="100px"
	 height="100px" viewBox="0 0 100 100" style="enable-background:new 0 0 100 100;" xml:space="preserve">
<g id="SK">
	<path d="M95.758,34.359c-0.645-0.06-1.489-0.826-2.289-1.188c-0.808-0.363-2.281-0.704-2.925-0.804
		c-0.645-0.101-0.2-1.249-0.2-1.974c0-0.725-1.289-1.71-2.052-2.254c-0.763-0.544-1.088-0.304-1.688,0.141
		c-0.608,0.444-1.955-0.123-2.504-0.422c-0.54-0.305-1.97-0.503-2.614-0.282c-0.645,0.22-1.629,0.401-2.051,0.504
		c-0.422,0.1-1.148-0.625-1.614-0.708c-0.459-0.077-0.963,0.667-1.304,0.948c-0.348,0.282-1.311-0.099-1.755-0.223
		c-0.444-0.121-0.74,0.305-0.645,0.745c0.104,0.445,0.185,0.767-0.06,0.908c-0.244,0.141-0.703,0.119-0.903,0.544
		c-0.207,0.421-0.703,0.926-1.191,1.008c-0.482,0.077-0.282-0.263-0.542-0.649c-0.259-0.381-0.829,0.062-1.229,0.164
		c-0.4,0.099-0.585,0.04-0.822-0.263c-0.244-0.301-0.349-0.663-0.585-0.722c-0.244-0.064-0.199,0.159-0.607,0.159
		c-0.399,0-0.866-0.622-1.407-0.826c-0.54-0.199-0.97,0.603-1.451,0.667c-0.481,0.059-0.644-0.163-1.066-0.163
		c-0.422,0-0.607-0.101-0.844,0.099c-0.245,0.206-0.585,0.386-1.111,0.206c-0.518-0.183-0.6-0.124-0.718,0.502
		c-0.126,0.623-1.17,0.903-1.711,1.066c-0.548,0.159-1.274,1.148-1.614,2.514c-0.341,1.37-0.607,1.351-1.029,1.452
		c-0.423,0.099-1.267-0.786-1.792-0.849c-0.519-0.059-1.326,0.586-1.749,1.049c-0.421,0.463-1.088,0.703-1.392,0.525
		c-0.296-0.181,0.326-1.171,0.407-1.792c0.082-0.626,0.318-1.089,0.282-1.593c-0.045-0.502-0.645-0.866-0.645-1.569
		c0-0.705-0.645-0.705-1.03-0.626c-0.377,0.082-0.947,0.466-1.125,0.181c-0.186-0.28,0.022-1.084-0.622-2.214
		c-0.645-1.125-1.17-1.648-1.674-2.396c-0.503-0.745-1.147-0.825-1.451-0.562c-0.304,0.262-0.585,1.089-0.74,1.348
		c-0.164,0.263-1.03,0.04-1.57,0.565c-0.548,0.522-0.808,1.148-0.926,1.853c-0.126,0.703-0.57,1.61-1.17,1.809
		c-0.607,0.205-2.015,0.205-2.755,0.183c-0.748-0.019-0.511-0.544-0.511-1.148s-0.319-1.148-0.519-1.589
		c-0.2-0.445-0.548-1.029-0.845-0.885c-0.304,0.141-0.562-0.04-0.726-0.443c-0.044-0.115-0.081-0.264-0.104-0.426
		c-0.008-0.047-0.008-0.107-0.008-0.155c-0.133,0.096-0.259,0.158-0.37,0.158c-0.784,0-1.814,0.785-2.844,1.811
		c-1.021,1.024-2.229,1.148-3.377,1.933c-1.147,0.785-2.48,1.447-3.206,1.628c-0.719,0.183-1.326,1.271-1.326,2.781
		c0,1.507,0.244,2.355-0.362,4.107c-0.607,1.75-0.541,2.354-1.874,2.354c-1.325,0-1.63,0.242-1.63,1.148
		c0,0.905,0,1.148-0.962,1.689c-0.97,0.544-1.577,1.33-2.178,2.296c-0.606,0.966-2.11,1.814-2.658,0.907
		c-0.542-0.907-0.601-1.389-1.57-0.604c-0.963,0.785-0.904,0.544-1.933,0c-1.029-0.544-1.747-1.569-2.236-0.485
		c-0.481,1.089-0.059,0.544-1.082,1.148c-1.028,0.603-0.185,1.089-0.666,1.452c-0.481,0.362-1.029,0.48-1.089,0.965
		c-0.059,0.482-0.422,1.87-0.962,1.87c-0.548,0-1.696-1.148-2.237-1.148c-0.547,0-1.511,0.364-1.755,1.148
		c-0.163,0.53-0.341,0.703-0.437,0.768c0,0.103-0.007,0.203-0.007,0.311c-0.015,0.548,0.333,0.889,0.111,1.277
		c-0.237,0.427-0.542,0.485-0.452,1.059c0.096,0.575-0.296,0.545-0.541,0.844c-0.245,0.305,0.119,0.849-0.185,1.271
		c-0.296,0.421-0.963,0.633-0.659,1.177c0.296,0.545,0.844,0.423,1.021,1.267c0.186,0.847,0.489,1.118,0.726,1.51
		c0.244,0.393-0.237,0.604-0.089,0.908c0.148,0.3,1.059,1.688,2.688,1.752c1.628,0.059,3.14,0.059,3.287,0.813
		c0.156,0.755,0.245,1.3,0.459,2.021c0.208,0.726,0.903,1.54,1.6,1.481c0.688-0.06,1.355-0.423,1.748-0.212
		c0.393,0.212,1,0.968,1.688,1.512c0.697,0.54,1.333,0.785,1.903,1.448c0.578,0.665,1.541,1.27,2.148,1.358
		c0.6,0.092,1.777,1.418,2.266,1.691c0.482,0.271,1.629,0.453,2.593,0.06c0.97-0.393,1.451-0.06,2.028-0.119
		c0.57-0.062,2.141-0.636,2.955-0.361c0.814,0.271,1.992,0.118,2.325,0c0.334-0.124,1.451-0.124,1.814-0.064
		c0.362,0.064,0.696-0.451,1.814-0.421c1.111,0.029,1.866,0.211,2.562-0.118c0.697-0.333,2.444-1.148,2.688-1.061
		c0.245,0.093-0.118-1.055-0.273-1.357c-0.148-0.301-0.451-0.423-0.267-0.908c0.178-0.48-0.097-0.996,0.029-1.207
		c0.118-0.21,0.267-0.545,0.148-0.813c-0.119-0.271,0.577,0.24,0.695-0.395c0.118-0.632-0.028-0.754,0.542-0.905
		c0.577-0.149,1.088-0.575,1.51-0.663c0.422-0.093,1.029-0.423,1.422-0.182c0.393,0.24,0.963,0.122,1.415,0.029
		c0.459-0.088,1.059-0.333,1.48-0.333c0.423,0,1-0.451,1.393-0.57c0.393-0.121,0.814,0.06,1.207-0.121
		c0.392-0.183,0.667-0.423,0.874-0.211c0.215,0.211,0.393,0.421,0.726-0.334c0.333-0.756,0.304-0.663,0.726-1.33
		c0.422-0.661,0.274-0.844,0.726-1.056c0.452-0.209,0.904-0.632,0.934-0.937c0.029-0.303,0.089-0.48,0.089-0.48
		s0.971,0.692,1.422,0.844c0.451,0.152,1.392,0.029,1.814,0.212c0.422,0.181,1.236,0.604,1.658,0.874
		c0.422,0.273,0.903,0.606,1.362,0.091c0.452-0.514,1.141-0.514,1.57-1.058c0.422-0.542,0.481-0.903,0.659-1.63
		c0.186-0.726,1.54-0.873,2.147-0.873c0.6,0,1.808-0.457,2.17-1.663c0.363-1.206,0.422-2.295,0.941-2.898
		c0.51-0.604,1.117-1.54,1.267-1.992c0.146-0.453,1.235-0.786,2.384-1.148c1.147-0.363,3.08-1.388,4.051-1.148
		c0.963,0.24,2.414,1.451,3.288,1.628c0.874,0.183,1.511-0.118,2.747-0.932c1.236-0.818,2.659-1.664,3.836-1.178
		c1.178,0.482,1.452,1.326,2.63,2.415c1.177,1.089,1.629,2.236,1.991,2.508c0.363,0.269,2.17,0.691,3.414,0.149
		c1.237-0.544,1.992-1.357,2.836-1.721c0.846-0.363,1.452-0.363,1.452-0.363s-1-1.206-0.756-2.326
		c0.236-1.117,0.452-2.84,1.178-3.865c0.727-1.026,1.57-2.959,1.511-4.017c-0.06-1.055-0.451-2.988,0.451-3.925
		c0.904-0.937,2.296-1.689,2.296-2.595c0-0.197-0.141-0.501-0.362-0.857c-0.371-0.132-0.733-0.259-1.096-0.362
		C97.408,34.178,96.409,34.418,95.758,34.359z"/>
</g>
<g id="Layer_1">
</g>
</svg>
