<?xml version="1.0" encoding="iso-8859-1"?>
<!-- Generator: Adobe Illustrator 16.0.3, SVG Export Plug-In . SVG Version: 6.00 Build 0)  -->
<!DOCTYPE svg PUBLIC "-//W3C//DTD SVG 1.1//EN" "http://www.w3.org/Graphics/SVG/1.1/DTD/svg11.dtd">
<svg version="1.1" xmlns="http://www.w3.org/2000/svg" xmlns:xlink="http://www.w3.org/1999/xlink" x="0px" y="0px" width="100px"
	 height="100px" viewBox="0 0 100 100" style="enable-background:new 0 0 100 100;" xml:space="preserve">
<g id="SV">
	<g>
		<path style="fill-rule:evenodd;clip-rule:evenodd;fill:#010101;" d="M29.654,22.6c0.418,0.211,0.122,0.43,0.403,0.727
			c0.157-0.081,3.41,1.458,3.707,1.695c0.047,0.006,2.902,0.398,3.143,0.564c0.037,0.214,1.414,1.344,1.531,1.372
			c0.645,0.107,1.289,0.216,1.934,0.323c0.312-0.128,1.407-0.647,2.015-0.403c0.027,0,0.054,0,0.081,0
			c0.886,0.562,1.038,0.804,2.095,1.129c-0.008,0.598,0.038,1.912,0.322,2.019c0.498,0.912,1.668,0.613,1.934,2.34
			c0.027,0.179-0.071,0.064,0.081,0.162c0.185,0.258,0.308,0.347,0.483,0.403c0.618-0.027,1.235-0.054,1.853-0.081
			c0.644,0.216,1.576,1.205,2.176,1.05c0.164,1.375,1.143,3.136,2.095,4.438c0.64-0.189,2.608-0.04,3.062-0.161
			c0.237,0.927,2.497,2.985,2.497,2.985c0.641-0.271,2.045-0.397,2.096-0.322c0.251,0.048,0.425,0.253,0.563,0.646
			c0.513-0.168,0.64-0.106,1.048-0.242c0.231,0.639,0.824,0.749,0.725,1.13c0.537-0.081,1.075-0.161,1.612-0.242
			c0.157,0.604,0.811,0.39,1.369,1.13c-1.073,0.604-0.158,3.396,0.161,4.197c0.641,0.204,0.519,0.395,1.209,0.403
			c-0.025-0.804,1.232-0.29,1.531-1.211c1.467,0.048,2.26,0.111,2.82,0.484c0.188,0.054,0.376,0.107,0.563,0.161
			c0.797-0.526,1.988-0.927,2.901-1.291c0.295,0,0.591,0,0.887,0c0.862-0.54,1.166-1.455,2.014-1.937c1.074,0,2.149,0,3.224,0
			c0.859-0.188,1.719-0.377,2.578-0.565c0.625,1.163,2.009,2.036,2.096,3.713c0.753-0.288,1.838-0.651,2.175-1.291
			c0.417,0.254,2.7,0.375,3.143,0c1.03,0.544,2.347,0.236,3.224,0.403c0.029-0.146,0.498,0.258,0.645,0.403
			c0.361,0.357,1.067,0.288,1.289,0.564c0.953,1.188,0.372,1.525,1.854,2.26c0.002,0.112,0.229,1.752-0.08,1.534
			c-0.242,0.376-0.484,0.753-0.726,1.13c-0.172,0.57,0.056,0.834,0.161,1.13c-0.358,0.215-0.71,0.997-1.128,1.533
			c0.352,3.48-0.653,4.652-1.531,6.134c0.163,0.024,0.344,0.247,0.403,0.564c-0.225,0.033-0.152,0.14-0.322,0.404
			c0.256,0.057,0.312,0.354,0.402,0.564c0.791-0.211,1.626,0.069,2.337,0.081c-0.003,1.062-0.002,1.7,0,2.663
			c-1.457,0.343-2.498,1.519-3.626,1.695c-0.059-0.607-0.905-0.473-1.289-0.969c0.239-0.163,0.255-0.423,0.241-0.888
			c-0.08,0.026-0.161,0.054-0.241,0.08c0.016,0.399-0.822,1.491-1.128,2.341c0.322-0.027,0.645-0.054,0.967-0.081
			c0,0.108,0,0.216,0,0.323c-0.412,0.021-0.495,0.283-0.887,0.322c0.041,0.236-0.189,0.889,0.161,0.727c0,0,3.462,2.558,3.546,2.583
			c0,0.054,0,0.107,0,0.161c-0.6,0.145-1.071,1.275-1.451,1.775c-0.221,0.292-3.113,1.731-3.626,2.019
			c-0.136,0.076-0.456-0.174-0.322,0.161c-0.306,0.161-0.248,0.588-0.322,0.968c0.334,0.152,0.637,0.137,0.967,0.404
			c0,0.161,0,0.322,0,0.484c-0.269,0-0.537,0-0.806,0c-1.577-0.502-2.702,0.089-4.996-0.404c-1.047-0.134-2.095-0.269-3.143-0.403
			c-1.687,0.336-4.722,0.868-6.526,0.162c-0.657-0.258-2.681,0.252-3.385-0.404c0.234-0.192,0.646-0.272,0.806-0.242
			c0-0.296,0-0.592,0-0.888c-0.347-0.158-0.461-0.261-0.725-0.403c0.026,0.054,0.054,0.107,0.08,0.161
			c-0.026,0.027-0.054,0.054-0.08,0.081c0.215,0.161,0.43,0.323,0.645,0.484c-0.081,0.107-0.161,0.215-0.242,0.322
			c-0.269-0.08-0.537-0.161-0.806-0.242c-0.237,0.719-0.994,0.229-1.611,0.404c-0.054,0.107-0.107,0.215-0.161,0.322
			c0.469-0.08,1.181,0.027,1.45,0.323c-0.054-0.027-0.107-0.054-0.161-0.081c0.027,0.054,0.054,0.107,0.081,0.162
			c-1.674,0.039-2.11,0.441-3.143-0.727c-0.008-0.009-0.025-0.475,0.08-0.242c0.087-0.293,0.085-0.566,0.645-0.484
			c-0.143-0.598-0.512-1.111-1.047-1.372c-0.027,0.08-0.054,0.161-0.081,0.242c0.165,0.145,0.057,0.001,0.161,0.242
			c-0.188,0-0.376,0-0.563,0c0.026,0.026,0.054,0.054,0.08,0.08c-0.026,0.054-0.054,0.108-0.08,0.162
			c0.248,0.15,0.252,0.041,0.402,0.322c-0.69,0.038-2.524-0.014-2.82-0.322c-0.08-0.081-0.161-0.162-0.241-0.242
			c0.229-0.251,0.345-0.229,0.241-0.404c-0.003-0.188-0.208-0.422-0.402-0.564c-0.034,0.422,0.053,0.321-0.242,0.484
			c-0.004-0.095-0.653-0.791-0.806-1.292c0.4,0.024,0.311,0.183,0.483-0.161c-1.263-0.215-2.525-0.43-3.787-0.646
			c-0.004,0.31-0.112,0.156,0,0.484c0.107,0,0.215,0,0.322,0c-0.198,0.157-0.032,0.046-0.242,0.081
			c-0.397,0.465-1.838,0.155-2.658,0.483c0.055,0.308-0.069,0.266,0.08,0.484c0.35-0.026,0.698-0.053,1.048-0.08
			c0-0.108,0-0.216,0-0.323c0.162,0.362,0.44,0.176,0.725,0.403c-0.107,0.027-0.215,0.054-0.322,0.081
			c-0.064,0.013-0.161,0.001-0.08,0.081c-0.054,0.054-0.107,0.107-0.161,0.161c0.636-0.122,0.624,0.022,1.128,0.081
			c0.514-0.589,1.132-0.42,1.934-0.969c1.046,0.643,1.156,0.932,2.015,1.856c-0.614-0.021-0.845-0.063-1.289,0.161
			c0.054,0.054,0.107,0.107,0.161,0.161c0.682-0.128,0.951,0.206,1.772,0c0.362,0.731,1.255,0.386,1.611,0.969
			c0.236,0.111,0.228,0.3,0.242,0.564c-0.027,0-0.054,0-0.081,0c-1.906-0.537-3.813-1.076-5.721-1.614
			c-0.899,0.156-4.096-0.506-4.512-0.807c-1.064,0.133-2.956-0.512-3.305-1.13c0.354-0.18,0.188-0.158,0.323-0.403
			c0-0.027,0-0.054,0-0.081c-0.107,0.027-0.216,0.054-0.323,0.081c-0.062,0.352-0.183,0.352-0.483,0.484
			c-0.389-0.785-1.734-0.223-2.095-1.292c0.081-0.026,0.161-0.054,0.242-0.08c-0.027,0.107-0.054,0.215-0.081,0.322
			c0.484-0.141,0.274-0.016,0.483-0.242c-0.424-0.108-0.696-0.784-0.806-1.049c-0.43,0-0.86,0-1.29,0c0,0.027,0,0.054,0,0.081
			c0.081,0.026,0.161,0.054,0.242,0.081c0.097,0.194,0.789,0.394,1.128,0.403c0,0.107,0,0.215,0,0.322
			c-0.054,0.054-0.108,0.107-0.161,0.161c-1.752-0.533-3.957-2.537-4.916-2.34c-0.779-0.323-1.558-0.646-2.337-0.969
			c-0.738-0.767-4.105-2.536-4.593-2.582c-0.43-0.242-0.859-0.484-1.289-0.727c-0.056-0.335-3.867-2.09-5.077-1.453
			c0,0-3.664-1.319-4.593-0.564c-0.753-0.414-1.72,0.208-2.498-0.323c-0.161,0.072-0.642,0.406-1.047,0.242
			c-3.04-1.228-7.561-1.919-11.522-1.211c-0.311-0.783-1.598-2.26-1.128-3.229c-1.592-0.738-3.033-1.629-4.754-2.905
			c-0.885-0.655-2.573-0.823-3.384-1.291c-1.058-0.609-1.841-1.538-3.223-1.533c0.33-0.419,0.827-0.975,0.483-1.291
			c-0.051-0.355-0.028-0.398-0.564-0.404c-0.015-0.35,0.081-2.502,0.081-2.502c0.554-0.863,1.015-0.458,1.37-1.856
			c0.354-0.008,1.681-0.838,1.692-0.887c0.154-0.166,0.106-0.779,0.081-0.969c0.597-0.142,1.008-1.228,1.37-1.533
			c0.215,0,0.43,0,0.645,0c0.053-0.029,1.612-1.131,1.612-1.131c0.054,0,0.107,0,0.161,0c1.047-0.82,2.22-3.139,3.707-2.663
			c0.01-0.339-0.093-0.313,0.242-0.242c0.113-0.329,0.795-0.282,1.209-0.403c0.116,0.242,1.418,1.233,2.014,1.291
			c0,0,1.029-0.148,1.208-0.08c-0.073-2.857,0.704-2.723,2.176-5.085c0.269-0.403,0.537-0.807,0.806-1.21
			c0.408-0.254,1.416-0.36,1.692-0.889c0.537,0.055,1.074,0.108,1.611,0.162c0.532,0.17,2.337-0.888,2.337-0.888
			c0.061-0.07,0.375,0.072,0.242-0.242c0.573-0.395-1.093-3.426-1.128-3.552c-0.457-0.107-0.914-0.215-1.37-0.322
			c-0.032-0.697,0.029-1.066,0.322-1.291c0.188-0.014,0.318,0.008,0.483-0.162c-0.187-0.275-0.979-1.784-0.242-2.179
			c0.064-0.388,0.483-0.521,1.289-0.565c0.134,0.431,0.269,0.861,0.403,1.292c0.286-0.064,0.252,0.181,0.483-0.081
			c0.399-0.129,0.47-0.706,0.967-1.049c0.709-0.49,1.159-0.197,1.853,0.161c0.43-0.081,0.86-0.161,1.29-0.242
			C28.956,23.568,29.305,23.084,29.654,22.6z"/>
		<path style="fill-rule:evenodd;clip-rule:evenodd;fill:#010101;" d="M97.341,70.378c0.054,0.108,0.107,0.216,0.161,0.323
			c-0.479,0.182-0.427,0.335-0.564,0.565c0.167,0.158,0.084,0.03,0.161,0.322c-0.156,0.013-0.282-0.053-0.161,0.081
			c-0.188-0.054-0.376-0.107-0.563-0.161c0-0.296,0-0.593,0-0.889c0.08-0.026,0.161-0.054,0.241-0.08
			C96.939,70.62,97.133,70.763,97.341,70.378z"/>
		<path style="fill-rule:evenodd;clip-rule:evenodd;fill:#010101;" d="M97.663,71.67c0.054,0.107,0.107,0.215,0.161,0.322
			c-0.188,0.055-0.376,0.108-0.564,0.162c0.027-0.081,0.054-0.162,0.081-0.242C97.448,71.831,97.556,71.75,97.663,71.67z"/>
		<path style="fill-rule:evenodd;clip-rule:evenodd;fill:#010101;" d="M63.739,72.8c0.026,0.054,0.054,0.107,0.08,0.161
			C63.793,72.907,63.766,72.854,63.739,72.8z"/>
		<path style="fill-rule:evenodd;clip-rule:evenodd;fill:#010101;" d="M58.743,72.88c0.081,0.055,0.161,0.108,0.242,0.162
			c-0.081,0-0.161,0-0.242,0C58.743,72.988,58.743,72.935,58.743,72.88z"/>
		<path style="fill-rule:evenodd;clip-rule:evenodd;fill:#010101;" d="M59.871,73.203c0.054,0.054,0.107,0.108,0.161,0.161
			C59.979,73.312,59.925,73.257,59.871,73.203z"/>
		<path style="fill-rule:evenodd;clip-rule:evenodd;fill:#010101;" d="M96.052,73.284c0.599,0.095,1.144,0.148,1.128,1.13
			c-0.398,0.134-0.454,0.285-0.564,0.564c-0.188-0.161-0.376-0.322-0.563-0.484C96.014,74.178,96.06,73.623,96.052,73.284z"/>
		<path style="fill-rule:evenodd;clip-rule:evenodd;fill:#010101;" d="M67.607,73.364c0.122,0.314,0.11,0.272,0.402,0.404
			c0-0.081,0-0.162,0-0.242C67.876,73.473,67.741,73.418,67.607,73.364z"/>
		<path style="fill-rule:evenodd;clip-rule:evenodd;fill:#010101;" d="M95.971,73.364c0.027,0.054,0.054,0.108,0.081,0.162
			C96.024,73.473,95.998,73.418,95.971,73.364z"/>
		<path style="fill-rule:evenodd;clip-rule:evenodd;fill:#010101;" d="M98.388,74.656c0.27,0.054,0.538,0.107,0.807,0.161
			c0.047,0.823,0.32,1.716,0.483,1.614c0.107,0.08,0.215,0.161,0.322,0.242c-0.027,0.054-0.054,0.107-0.081,0.161
			c-0.222-0.03-1.3-0.105-1.45,0.081c-0.054-0.027-0.107-0.054-0.161-0.081c-0.045-0.893-0.113-1.326-0.161-2.018
			C98.227,74.764,98.308,74.71,98.388,74.656z"/>
		<path style="fill-rule:evenodd;clip-rule:evenodd;fill:#010101;" d="M73.409,75.866c0.054,0.081,0.107,0.162,0.161,0.242
			c0.026,0,0.054,0,0.08,0c0-0.027,0-0.054,0-0.08C73.57,75.975,73.489,75.92,73.409,75.866z"/>
		<path style="fill-rule:evenodd;clip-rule:evenodd;fill:#010101;" d="M67.526,76.108c0.466,0.153,0.005,0.187,0.483,0.081
			c0,0.135,0,0.269,0,0.403c-0.054,0.054-0.107,0.107-0.161,0.162c-0.295-0.081-0.591-0.162-0.887-0.243
			C67.29,76.321,67.455,76.361,67.526,76.108z"/>
	</g>
</g>
<g id="Layer_1">
</g>
</svg>
