<?xml version="1.0" encoding="iso-8859-1"?>
<!-- Generator: Adobe Illustrator 16.0.3, SVG Export Plug-In . SVG Version: 6.00 Build 0)  -->
<!DOCTYPE svg PUBLIC "-//W3C//DTD SVG 1.1//EN" "http://www.w3.org/Graphics/SVG/1.1/DTD/svg11.dtd">
<svg version="1.1" xmlns="http://www.w3.org/2000/svg" xmlns:xlink="http://www.w3.org/1999/xlink" x="0px" y="0px" width="100px"
	 height="100px" viewBox="0 0 100 100" style="enable-background:new 0 0 100 100;" xml:space="preserve">
<g id="TG">
	<path style="fill:#010101;" d="M30.149,0c0.601,0.014,1.42,0.264,1.961,0.406c0.101,0,0.201,0,0.302,0
		c0.387,0.096,0.939,0.197,1.319,0.302c0.124,0,0.248,0,0.372,0c0.298,0.073,0.632,0.083,0.978,0.169
		c1.445,0.364,3.095,0.458,4.493,0.88c0.181,0.023,0.362,0.043,0.541,0.066c0.506,0.142,1.127,0.263,1.622,0.405
		c0.316,0.092,0.811,0.076,1.047,0.236c0.177,0.121,0.229,0.745,0.44,0.98c0.215-0.057,0.413-0.222,0.607-0.305
		c0.454-0.19,0.98-0.339,1.452-0.472c0.146,0,0.293,0,0.44,0C46.369,2.463,47.374,2.5,48.256,2.5c0.378,0,0.862-0.039,1.182,0.034
		c0.381,0.087,0.875-0.032,1.217,0.035c0,0.055,0,0.112,0,0.167c-0.846,0.894,0.185,1.952-0.17,2.939
		c-0.043,0.119-0.207,0.289-0.271,0.405c-0.043,0.08,0.002,0.167-0.034,0.271c-0.11,0.313-0.412,0.65-0.607,0.912
		c-0.231,0.309-0.625,0.559-0.777,0.946c-0.22,0.565,0.307,1.102,0.133,1.757c-0.032,0.124-0.101,0.371-0.133,0.506
		c0,0.158,0,0.316,0,0.474c-0.275,1.082-0.465,2.33-0.472,3.714c0.848,0.538,1.664,1.198,2.498,1.757
		c2.02,1.356,4.022,2.71,6.047,4.055c0.65,0.431,1.317,0.832,1.961,1.249c0.354,0.231,0.939,0.378,1.079,0.811
		c0,0.181,0,0.362,0,0.541c0.08,0.364,0.097,0.751,0.17,1.081c0,0.236,0,0.472,0,0.71c0.101,0.385,0.286,1.072,0.167,1.62
		c-0.068,0.319-0.109,1.255-0.032,1.622c0.092,0.431,0.147,1.7,0.032,2.163c-0.022,0.094-0.151,0.554-0.201,0.642
		c-0.115,0.208-0.262,0.27-0.271,0.609c0.124,0.126,0.087,0.252,0.17,0.438c0.041,0.092,0.146,0.179,0.201,0.27
		c0.165-0.055,0.495-0.282,0.609,0c0.165,0.229,0.022,0.658,0.101,0.981c0.211,0.87,0.279,1.798,0.609,2.533
		c0.184,0.415,0.522,0.71,0.774,1.047c0.87,1.15,2.383,2.039,2.873,3.514c0.138,0.412,0.104,0.859,0.201,1.314
		c0,0.362,0,0.722,0,1.082c0.069,0.236,0.061,0.733,0.104,1.015c0,0.179,0,0.36,0,0.541c0.206,0.754,0.305,1.631,0.305,2.6
		c0,1.01-0.083,2.142,0.133,2.974c0.014,0.336,0.023,0.674,0.034,1.013c0.012,0.034,0.107,0.399,0.135,0.44
		c0.145,0.218,0.478,0.222,0.575,0.575c0.108,0.387-0.77,1.006-0.877,1.35c-0.064,0.201,0.109,0.247,0.066,0.439
		c-0.039,0.174-0.3,0.626-0.236,0.811c0.056,0.158,0.308,0.136,0.371,0.271c0,0.247,0,0.495,0,0.742
		c0.105,0.143,0.064,0.467,0.069,0.71c0.002,0.436,0.031,0.938,0.031,1.418c0,0.525,0.023,1.084,0.136,1.521
		c0.126,0.485-0.062,1.137,0.034,1.588c0.01,0.596,0.023,1.193,0.032,1.789c0.068,0.229,0.003,0.637,0.068,0.946
		c0.088,0.394,0.032,0.964,0.035,1.418c0.002,0.383,0.048,0.948,0.135,1.285c0.073,0.282-0.014,0.701,0.032,0.946
		c0.06,0.297-0.078,0.773,0,1.147c0.109,0.511,0.137,1.108,0.137,1.688c0,0.305,0,0.609,0,0.912
		c0.197,0.856,0.067,2.098,0.067,3.074c0,0.987,0.133,2.242-0.067,3.108c0,0.383,0,0.766,0,1.147c0,0.8,0,1.599,0,2.398
		c0,0.417,0.035,0.924-0.034,1.283c-0.111,0.08-0.227,0.158-0.339,0.238c-0.313,0.103-0.933-0.027-1.248,0.034
		c0,0.021,0,0.044,0,0.066c-0.16,0.209,0.034,0.475,0.101,0.642c0.14,0.353,0.272,0.621,0.472,0.912
		c0.165,0.24,0.444,0.4,0.509,0.744c-0.087,0.096-0.051,0.225-0.101,0.371c-0.032,0.083-0.119,0.229-0.138,0.337
		c-0.032,0.202,0.126,0.447,0.169,0.609c0.136,0.485,0.287,0.887,0.372,1.418c-0.275,0.252-0.67,0.538-0.674,1.047
		c0.188,0.163,0.463,0.266,0.472,0.609c0.083,0.136-0.014,0.392,0.032,0.573c0.037,0.142,0.101,0.378,0.138,0.541
		c0.119,0.079,0.238,0.249,0.371,0.304c0.089,0,0.179,0,0.271,0c0.376,0.131,0.762,0.611,0.943,0.946
		c0.116,0.211-0.064,0.499,0.068,0.708c0.188,0.3,0.681,0.373,0.88,0.676c0.099,0.153,0.094,0.296,0.167,0.475
		c0.03,0.072,0.14,0.155,0.17,0.235c0.117,0.307,0.181,0.511,0.305,0.812c0.022,0.055,0.114,0.114,0.133,0.169
		c0.066,0.165,0.099,0.415,0.138,0.541c0.009,0.259,0.022,0.518,0.032,0.776c0.031,0.097,0.183,0.233,0.137,0.405
		c-0.087,0.308-0.701,0.422-1.015,0.541c-0.392,0.146-0.928,0.318-1.352,0.438c-0.291,0.082-0.526,0.023-0.776,0.133
		c-0.188,0.087-0.22,0.312-0.339,0.477c-0.124,0.174-0.395,0.353-0.607,0.436c-0.332,0.133-0.729-0.073-1.047,0.036
		c-0.087,0.028-0.188,0.138-0.303,0.17c-0.16,0-0.315,0-0.474,0c-1.162,0.371-2.354,0.646-3.512,1.045
		c-0.519,0.179-1.94,0.765-2.468,0.678c0.007-0.39-0.182-0.65-0.374-0.848c-0.637,0.01-1.269,0.119-1.855-0.032
		c-0.063-0.105-0.191-0.197-0.237-0.303c-0.101-0.242-0.114-0.494-0.271-0.678c-0.114-0.133-0.351-0.138-0.504-0.233
		c-0.151-0.097-0.316-0.325-0.408-0.477c-0.046-0.078,0.003-0.165-0.032-0.271c-0.116-0.335-0.21-0.791-0.339-1.146
		c-0.055-0.019-0.082-0.027-0.169-0.034c-0.284-0.17-1.407,0.044-1.789-0.135c-0.12-0.056-0.182-0.216-0.271-0.306
		c-0.211-0.211-0.488-0.446-0.745-0.606c-0.567-0.357-1.195-0.562-1.722-0.946c-0.284-0.211-0.371-0.644-0.573-0.946
		c-0.225-0.334-0.477-0.334-0.472-0.943c-0.298-0.403,0.218-0.862,0.303-1.082c0.009-0.034,0.027-0.014,0-0.034
		c-0.142-0.366-0.559-0.073-0.944-0.204c-0.145-0.046-0.385-0.205-0.509-0.303c-0.559-0.441-0.412-1.766-0.572-2.602
		c-0.22-0.14-0.511-0.174-0.71-0.305c-0.369-0.238-0.394-0.71-0.609-1.113c-0.124-0.231-0.573-0.454-0.777-0.642
		c-0.014-0.948,0.47-0.809,0.575-1.486c-0.101-0.108-0.114-0.284-0.201-0.406c-0.17-0.231-0.624-0.637-0.848-0.845
		c0-0.078,0-0.156,0-0.236c0.073-0.075,0.115-0.213,0.204-0.271c0.31-0.194,0.663,0.034,0.912-0.032
		c0.094-0.027,0.227-0.107,0.339-0.137c0.117-0.182,0.295-0.383,0.371-0.607c0.011-0.181,0.021-0.36,0.034-0.541
		c0.027-0.117,0.128-0.286,0.101-0.439c-0.042-0.231-0.083-0.585-0.135-0.844c0.011-0.101,0.021-0.203,0.034-0.304
		c-0.023-0.134-0.158-0.319-0.068-0.473c0.091-0.268,0.412-0.465,0.508-0.744c0.009-0.19,0.021-0.383,0.032-0.572
		c0.174-0.642,0.11-1.416,0.508-1.826c-0.083-0.378-0.247-0.763-0.374-1.081c-0.021-0.124-0.043-0.248-0.066-0.371
		c-0.051-0.073-0.115-0.09-0.239-0.101c-0.133,0.13-1.044,0.456-1.383,0.235c-0.628-0.22-1.043-1.981-0.811-2.87
		c0.087-0.34-0.09-0.967,0.068-1.217c0.161-0.446,0.779-0.318,1.045-0.642c0.389-0.475-0.074-0.868,0.068-1.352
		c0.06-0.201,0.197-0.522,0.372-0.609c0.121-0.057,0.158,0.019,0.238-0.066c0.128-0.174-0.032-0.426,0.033-0.71
		c0.039-0.169,0.256-0.611,0.201-0.776c-0.087-0.271-0.39-0.607-0.302-1.047c0.06-0.303,0.261-0.885,0.169-1.249
		c-0.064-0.25-0.271-0.492-0.339-0.71c-0.027-0.085,0.027-0.204,0.034-0.236c0.053-0.249,0.055-1.001,0-1.25
		c-0.053-0.241-0.117-0.481-0.167-0.711c0-0.281,0-0.561,0-0.843c-0.069-0.194-0.22-0.325-0.239-0.609
		c0.156-0.094,0.277-0.218,0.406-0.337c0.011-0.733-0.346-0.778-0.44-1.283c0.099-0.096,0.153-0.266,0.273-0.339
		c0.109-0.022,0.224-0.046,0.334-0.066c0.117-0.078,0.188-0.327,0.271-0.439c0.128-0.168,0.479-0.36,0.678-0.44
		c0.465-0.188,1.15-0.146,1.147-0.811c-0.112-0.117-0.396-0.543-0.405-0.742c0.098-0.066,0.124-0.11,0.135-0.271
		c-0.122-0.096-0.135-0.254-0.236-0.371c-0.227-0.266-0.696-0.458-0.845-0.776c-0.048-0.105-0.153-0.291-0.135-0.405
		c0.009-0.062,0.096-0.122,0.069-0.238c-0.069-0.269-0.369-0.633-0.575-0.777c-0.259-0.178-0.568-0.206-0.846-0.37
		c-0.279-0.165-0.477-0.514-0.742-0.708c-0.882-0.646-1.746-1.323-2.332-2.264c-0.163-0.264-0.216-0.511-0.337-0.811
		c-0.112-0.272-0.316-0.607-0.439-0.88c-0.071-0.156-0.25-0.451-0.135-0.641c0.037-0.124,0.105-0.206,0.204-0.271
		c0.084-0.068,0.208-0.071,0.371-0.068c0.107,0.107,0.268,0.24,0.438,0.272c0.083-0.137,0.211-0.449,0.374-0.509
		c0.181-0.114,0.428,0.11,0.642,0.135c0.057-0.066,0.112-0.135,0.169-0.202c-0.004-0.192-0.096-0.419-0.069-0.541
		c0.067-0.282,0.36-0.495,0.543-0.676c0.002-1.132-0.57-1.766-1.049-2.433c-0.124-0.171-0.367-0.32-0.439-0.541
		c-0.239-0.74,0.625-1.42,0.779-1.89c0.094-0.291-0.147-0.377-0.169-0.609c0.387-0.353,1.086-0.92,0.776-1.823
		c-0.066-0.197-0.227-0.36-0.27-0.607c0.259-0.271,0.518-0.541,0.776-0.811c-0.064-0.326-0.179-0.758-0.069-1.15
		c0.05-0.174,0.314-0.458,0.238-0.642c-0.021-0.188-0.112-0.318-0.27-0.371c-0.282-0.169-0.729-0.078-0.846-0.406
		c-0.083-0.236,0.062-0.426,0.034-0.607c-0.181-0.117-0.407-0.325-0.609-0.405c-0.101,0-0.201,0-0.302,0
		c-0.444-0.11-0.605-0.042-1.012,0.032c-0.119,0.023-0.284-0.053-0.371-0.066c-0.124,0.012-0.248,0.023-0.371,0.035
		c-0.146,0.21-0.406,0.346-0.543,0.572c-0.112,0.19-0.006,0.323-0.235,0.406c-0.108,0.096-1.318,0.355-1.553,0.204
		c-0.28-0.084-0.362-0.297-0.541-0.474c-0.012-0.197-0.037-0.36,0-0.541c0.069-0.055,0.133-0.112,0.202-0.167
		c0.376,0.004,0.804,0.002,1.081-0.069c0.074-0.122,0.126-0.172,0.136-0.371c-0.067-0.057-0.136-0.112-0.204-0.169
		c-0.179-0.051-0.261,0.135-0.372,0.169c-0.21,0.068-0.476-0.037-0.607-0.069c-0.186-0.293-0.24-0.552-0.236-1.079
		c0.124-0.085,0.149-0.172,0.336-0.204c0.081,0.068,0.355,0.163,0.543,0.101c0.051-0.016,0.115-0.117,0.167-0.135
		c0.337-0.023,0.676-0.043,1.015-0.066c0.238,0.05,0.419,0.181,0.673,0.202c0.117-0.117,0.169-0.117,0.169-0.371
		c-0.027-0.034-0.014-0.009-0.032-0.066c-0.108-0.071-0.207-0.199-0.339-0.236c-0.413-0.117-0.859,0.295-1.386,0.202
		c-0.044-0.094-0.046-0.229-0.101-0.339c-0.105-0.206-0.646-0.625-0.405-1.012c0.039-0.124,0.146-0.261,0.271-0.305
		c0.222-0.14,0.916,0.424,1.214,0.474c0.096-0.101,0.206-0.211,0.307-0.305c0.009-0.151,0.078-0.351,0-0.472
		c-0.092-0.254-0.385-0.369-0.474-0.641c0,0,0.025-1.492,0.034-1.521c0.035-0.101,0.167-0.313,0.236-0.405
		c0.053-0.071,0.163-0.344,0.135-0.371c-0.073-0.268-0.41-0.809-0.238-1.317c0.11-0.318,0.506-0.492,0.578-0.811
		c-0.308-0.296-0.511-0.812-0.374-1.352c0.105-0.064,0.202-0.174,0.305-0.236c0.192-0.117,0.44-0.06,0.541-0.271
		c0.064-0.094,0.023-0.271,0-0.371c-0.408-0.252-0.761-0.38-0.742-1.081c0.124-0.208-0.046-0.617,0.032-0.88
		c0.071-0.241,0.11-0.749,0.135-1.013c0.016-0.178-0.052-0.375-0.034-0.506c0.071-0.456,0.454-0.628,0.474-1.116
		c-0.052-0.035-0.066-0.051-0.103-0.101c-0.167,0.028-0.323-0.084-0.504-0.034c-0.078,0.023-0.117,0.083-0.238,0.101
		c-0.069-0.078-0.133-0.156-0.202-0.236c-0.094-0.202-0.083-0.421-0.202-0.607c-0.071-0.11-0.202-0.126-0.307-0.204
		c-0.06-0.043-0.081-0.149-0.133-0.202c0.005-0.208,0.105-0.52,0.067-0.607c-0.044-0.192-0.122-0.245-0.372-0.238
		c-0.415,0.545-0.829-0.277-1.115-0.167c-0.184,0.048-0.294,0.213-0.406,0.337c-0.034-0.011-0.066-0.023-0.101-0.034
		c-0.156-0.479-0.667-1.008-0.912-1.453c-0.043-0.08,0.002-0.167-0.034-0.271c-0.06-0.169-0.234-0.439-0.372-0.541
		c-0.389-0.284-0.865-0.456-1.25-0.742c-0.124-0.146-0.247-0.293-0.371-0.439c-0.225-0.154-0.454-0.22-0.641-0.406
		c-0.151-0.151-0.261-0.385-0.44-0.506c-0.38-0.256-0.69,0.062-0.912-0.068c-0.518-0.154-0.607-0.555-0.607-1.249
		c0-0.17,0-0.339,0-0.506c0.034-0.145,0.135-0.282,0.167-0.406c0-0.112,0-0.225,0-0.339c0.064-0.225,0.222-0.788,0.339-0.979
		c0.146-0.236,0.435-0.458,0.641-0.641c-0.064-0.896,0.197-1.157,0.339-1.826c0.023-0.117-0.053-0.147-0.069-0.202
		c-0.078-0.28,0.03-0.621,0.101-0.811c0.11-0.289,0.481-0.346,0.609-0.742c0.195-0.603,0.021-1.538-0.406-1.691
		c-0.41-0.302-1.17,0.053-1.519,0.135c-0.225,0.053-0.323-0.085-0.44-0.135c-0.431-0.181-1.132-0.355-1.286-0.776
		C30.064,0.074,30.112,0.042,30.149,0z"/>
</g>
<g id="Layer_1">
</g>
</svg>
