<?xml version="1.0" encoding="iso-8859-1"?>
<!-- Generator: Adobe Illustrator 16.0.3, SVG Export Plug-In . SVG Version: 6.00 Build 0)  -->
<!DOCTYPE svg PUBLIC "-//W3C//DTD SVG 1.1//EN" "http://www.w3.org/Graphics/SVG/1.1/DTD/svg11.dtd">
<svg version="1.1" xmlns="http://www.w3.org/2000/svg" xmlns:xlink="http://www.w3.org/1999/xlink" x="0px" y="0px" width="100px"
	 height="100px" viewBox="0 0 100 100" style="enable-background:new 0 0 100 100;" xml:space="preserve">
<g id="TN">
	<path style="fill:#010101;" d="M52.261,0c0.394,0.093,0.765,0.172,1.334,0.172c0.13,0.206,0.171,0.534,0.238,0.821
		c0.274,0.197,0.912,0.497,1.504,0.341c0.213-0.056,0.278-0.186,0.584-0.204c0.148,0.113,0.295,0.227,0.443,0.341
		c0.16,0,0.32,0,0.48,0c0.144,0.061,0.682,0.306,0.821,0.411c0.083,0.063,0.134,0.228,0.236,0.273
		c0.278,0.125,0.459-0.079,0.548,0.239c-0.562,0.376-0.898,0.044-1.504,0.274c-0.011,0.058-0.022,0.113-0.034,0.171
		c0.486,0.258,0.726,0.088,1.095,0.513c-0.012,0.023-0.023,0.046-0.034,0.07c-0.17,0.345-0.6,0.144-0.65,0.787
		c0.163,0.243,0.172,0.626,0.344,0.854c0.361,0.482,1.562,1.083,1.605,1.678c-0.548,0.835-0.553,0.387-1.573,0.614
		c-0.083,0.137-0.132,0.176-0.137,0.411c0.211,0.118,0.536,0.01,0.754,0.104c0.237,0.25,0.478,0.501,0.72,0.752
		c0.737,0.408,2.036-0.205,2.324-0.65c0.113-0.355,0.228-0.708,0.341-1.06c0.128-0.102,0.253-0.207,0.378-0.309
		c0.391-0.03,0.998,0.014,1.3-0.137c0.336-0.167,0.508-0.51,0.786-0.719c0.43-0.32,0.826-0.587,1.163-0.991
		c0.106-0.128,0.051-0.32,0.139-0.48c0.028-0.053,1.636-0.71,1.745-0.716c0.148,0.202,0.315,0.311,0.339,0.649
		c-0.451,0.529,0.651,1.883,0.686,2.531c-0.115,0.16-0.227,0.32-0.343,0.48c-0.271,0.2-0.58,0.25-0.786,0.513
		c-0.205,0.262-0.411,0.524-0.615,0.786c-0.116,0.263-0.228,0.525-0.344,0.787c-0.171,0.239-0.341,0.478-0.513,0.72
		c-0.215,0.496-0.476,0.967-0.649,1.436c-0.164,0.438-0.13,0.986-0.547,1.162c-0.239,0.058-0.48,0.116-0.72,0.172
		c-0.434,0.169-0.77,0.424-1.13,0.649c-0.19,0.123-0.344,0.061-0.612,0.137c-0.292,0.084-0.573,0.453-0.719,0.685
		c-0.49,0.777-0.766,2.856-0.446,4.002c0.209,0.75,0.757,1.381,1.128,1.986c0.445,0.719,0.774,1.457,1.471,1.914
		c0.374,0.244,0.678-0.032,1.095,0.035c0.268,0.526,0.31,1.13,0.856,1.369c0.59,0.255,1.631,0.103,1.882,0.685
		c0.194,0.325-0.195,0.589-0.103,1.061c0.098,0.494,0.566,0.791,0.376,1.401c-0.123,0.399-0.636,0.847-0.547,1.369
		c0.176,1.04,0.807,1.165,1.4,1.745c-0.009,0.023-0.021,0.046-0.032,0.069c-0.223,0.539-0.766,0.923-0.992,1.506
		c-0.14,0.359-0.038,1.069-0.239,1.401c-0.239,0.393-0.803,0.592-0.991,0.993c-0.148,0.315,0.015,0.547-0.069,0.923
		c-0.1,0.448-0.376,0.645-0.58,0.958c-0.046,0.148-0.093,0.297-0.139,0.443c-0.177,0.267-0.812,0.503-1.026,0.789
		c-0.278,0.369-0.181,1.083-0.547,1.369c-0.276,0.176-0.833,0.111-1.026,0.376c-0.225,0.304-0.429,1.076-0.719,1.264
		c-0.487,0.318-1.179,0.26-1.607,0.617c-0.415,0.343-0.573,0.984-1.095,1.229c-0.146,0-0.295,0-0.443,0
		c-0.228,0.07-0.27,0.393-0.445,0.515c-0.757,0.522-1.681,0.666-2.158,1.471c-1.74,2.946,0.909,6.185,2.737,7.526
		c0.274,0.2,0.492,0.504,0.821,0.65c0.251,0.069,0.502,0.137,0.752,0.204c0.204,0.088,0.274,0.26,0.548,0.308
		c0.437-0.137,0.868-0.273,1.302-0.41c0.478-0.202,0.7-0.703,1.368-0.548c0.059,0.096,0.081,0.089,0.103,0.239
		c0.111,0.239-0.072,1.543-0.172,1.745c-0.103,0.115-0.207,0.229-0.309,0.343c-0.061,0.211,0.225,0.654,0.344,0.72
		c0.134,0.106,0.334,0.184,0.547,0.204c0.381-0.351,1.671-0.641,1.847-1.061c0.07-0.103,0.096-0.209,0.103-0.376
		c-0.125-0.127-0.251-0.248-0.273-0.479c0.014-0.021,0.022-0.045,0.037-0.068c1.076-0.64,2.222,0.021,2.461,1.025
		c0.207,0.866-0.206,1.683,0.207,2.328c0.232,0.366,0.64,0.737,1.058,0.923c0.283,0.125,0.733,0.157,0.821,0.478
		c-0.103,0.054-0.195,0.072-0.376,0.07c-0.307-0.214-0.995-0.459-1.436-0.376c-0.012,0.035-0.023,0.066-0.035,0.102
		c-0.012,0.058-0.023,0.113-0.032,0.172c0.134,0.137,0.273,0.273,0.408,0.411c0.135,0.199,0.121,0.418,0.273,0.58
		c0.986-0.263,1.824,0.599,2.601,0.206c0.012-0.035,0.023-0.07,0.035-0.102c-0.206-0.145-0.685-0.534-0.752-0.789
		c0.01-0.01,0.023-0.021,0.033-0.033c0.022,0.012,0.046,0.023,0.069,0.033c0.496,0.169,0.9,0.698,1.471,0.923
		c0.19,0.076,0.534,0.062,0.615,0.241c0,0.184,0,0.365,0,0.548c-0.021,0.204-0.045,0.41-0.067,0.615
		c-0.103,0.172-0.206,0.343-0.309,0.512c-0.035,0.617-0.07,1.232-0.104,1.85c-0.028,0.118-0.13,0.214-0.103,0.411
		c0.061,0.396,0.167,0.972,0.07,1.503c-0.089,0.478-0.244,1.714-0.103,2.155c0.158,0.503,0.631,0.575,0.923,0.923
		c0.2,0.242,0.242,0.509,0.342,0.856c0.035,0.123,0.155,0.267,0.104,0.479c-0.163,0.656-1.455,1.555-2.054,1.814
		c-0.253,0.09-0.503,0.184-0.754,0.273c-1.062,0.631-2.192,1.214-3.387,1.678c-0.52,0.201-1.056,0.642-1.538,0.888
		c-0.193,0.059-0.388,0.114-0.583,0.172c-0.526,0.348-0.443,1.452-0.956,1.812c-0.183,0.069-0.366,0.137-0.548,0.206
		c-0.208,0.113-0.306,0.386-0.582,0.443c-0.238-0.045-0.48-0.091-0.717-0.137c-0.108,0.046-0.091,0.031-0.139,0.137
		c-0.205,0.415,0.014,0.901-0.137,1.369c-0.104,0.319-0.472,0.438-0.65,0.685c-0.225,0.312-0.248,0.695-0.513,0.957
		c-0.881,0.871-1.13,0.008-2.12,0.31c-0.73,0.22-1.276,1.679-1.713,2.291c-0.189,0.27-0.582,0.479-0.682,0.82
		c-0.315,1.064,0.155,1.795,0.478,2.567c0.335,0.801,0.437,1.469,0.683,2.395c0.127,0.262,0.253,0.524,0.378,0.786
		c0.128,0.42-0.123,0.789-0.034,1.197c0.1,0.45,0.445,0.968,0.309,1.573c-0.126,0.557-0.397,0.935-0.583,1.403
		c-0.135,0.349-0.139,0.691-0.341,0.958c-0.341,0.307-0.685,0.615-1.027,0.924c-0.148,0.317-0.295,0.638-0.443,0.959
		c-0.332,0.442-0.661,0.888-0.993,1.333c-0.476,0.715-0.907,1.458-1.506,2.052c-0.376,0-0.752,0-1.127,0
		c-0.172,0.126-0.344,0.251-0.516,0.376C51.986,99.295,50.497,99.935,50,100c-0.318-0.552-0.334-1.378-0.513-2.056
		c-0.308-1.356-0.614-2.714-0.923-4.07c-1.207-4.559-1.951-9.459-3.148-13.992c-0.283-1.221-0.571-2.44-0.854-3.661
		c-0.171-0.691-0.144-1.346-0.41-1.914c-0.179-0.38-1.858-1.43-2.292-1.744c-1.956-1.423-3.933-2.861-5.849-4.346
		c-0.399-0.309-0.26-1.15-0.376-1.744c-0.104-0.846-0.207-1.689-0.311-2.532c-0.216-0.378-0.431-0.753-0.649-1.13
		c-0.615-0.935-1.229-1.87-1.847-2.805c-0.172-0.012-0.343-0.023-0.513-0.035c-0.239-0.091-0.48-0.181-0.717-0.273
		c-0.469-0.353-0.938-0.708-1.404-1.061c-0.286-0.011-0.571-0.022-0.856-0.035c-0.204-0.157-0.411-0.317-0.618-0.477
		c-0.12-0.217-0.296-1.232-0.236-1.573c0-0.445,0-0.892,0-1.334c-0.629-1.118-1.255-2.237-1.884-3.355c0-0.271,0-0.545,0-0.821
		c-0.042-0.144-0.2-0.29-0.274-0.408c-0.199-0.334-0.615-1.566-0.513-2.123c0.114-0.411,0.229-0.822,0.343-1.23
		c0.049-0.311-0.132-0.624-0.067-0.891c0.153-0.643,0.693-0.796,1.025-1.232c0.148-0.227,0.297-0.455,0.445-0.685
		c0.334-0.259,1.517-0.356,1.708-0.614c0.608-0.824,0.25-2.19,1.165-2.771c0.283-0.181,0.599-0.206,0.923-0.343
		c0.376-0.227,0.752-0.457,1.128-0.684c0.273-0.114,0.547-0.228,0.821-0.341c0.104-0.114,0.206-0.23,0.311-0.344
		c0.146-0.09,0.295-0.181,0.443-0.274c0.035-0.137,0.067-0.273,0.102-0.408c0.146-0.258,0.517-0.179,0.583-0.55
		c-0.156-0.125-0.237-0.26-0.242-0.545c0.197-0.276,0.633-0.645,0.719-0.958c-0.102-0.696-0.204-1.392-0.306-2.088
		c0.192-0.49,0.388-0.981,0.58-1.471c0.135-0.374,0.069-0.803,0.204-1.232c0.135-0.408,0.555-0.443,0.756-0.751
		c0.056-0.184,0.111-0.367,0.169-0.548c0.142-0.244,0.453-0.362,0.513-0.684c-0.011-0.023-0.023-0.047-0.035-0.067
		c-0.378-0.253-1.076-0.307-1.334-0.685c-0.35-0.515-0.394-1.591-0.069-2.155c0.195-0.334,0.645-0.794,0.515-1.404
		c-0.07-0.204-0.137-0.411-0.204-0.615c-0.093-0.41,0.062-0.86-0.07-1.197c-0.146-0.374-0.52-0.566-0.684-0.891
		c-0.211-0.408-0.313-1.865-0.172-2.496c0.1-0.453,0.311-0.854,0.411-1.334c0.035-0.434,0.069-0.868,0.102-1.302
		c0.116-0.25,0.228-0.501,0.343-0.751c-0.07-0.216-0.137-0.434-0.204-0.65c-0.019-0.1,0.088-0.944,0.134-1.13
		c0.193-0.747,0.784-1.223,0.48-2.394c-0.253-0.082-0.485-0.265-0.685-0.341c-0.561-0.216-1.781,0.229-1.436-0.857
		c0.058-0.113,0.114-0.227,0.169-0.341c0.288-0.385,1.023-0.501,1.506-0.684c0.334-0.13,0.457-0.443,0.719-0.618
		c0.184-0.055,0.365-0.113,0.548-0.171c0.285-0.157,0.448-0.795,0.376-1.197c-0.294-0.151-0.578-0.158-0.615-0.58
		c0.673-0.729,1.374-0.232,2.153-0.685c0.255-0.148,0.541-0.032,0.585-0.411c-0.176-0.123-0.274-0.288-0.413-0.445
		c0.014-0.689,0.278-0.722,0.751-0.958c0.19-0.095,0.383-0.32,0.687-0.306c0.207,0.006,0.381,0.199,0.65,0.134
		c0.766-0.183,1.578-0.893,1.983-1.471c0.207-0.29,0.309-0.633,0.583-0.854c0.223-0.181,0.497-0.378,0.787-0.48
		c0.248-0.085,0.52-0.044,0.717-0.169c0.397-0.252,0.332-0.749,0.993-0.754c0.309,0.176,1.195-0.021,1.506-0.137
		c0.206-0.114,0.41-0.228,0.614-0.341c0.587-0.221,1.211-0.188,1.745-0.411c0.39-0.207,0.775-0.411,1.165-0.617
		C51.671,0.012,52.061,0.111,52.261,0z M69.331,36.23c-0.067,0.158-0.014,0.294-0.069,0.445c-0.033,0-0.069,0-0.103,0
		c-0.515,0.012-0.693,0.771-0.891,1.127c0.025,0.19,0.15,0.202,0.241,0.204c0.292-0.081,0.445-0.366,0.683-0.512
		c0.375-0.172,0.754-0.341,1.132-0.513c0.051-0.216,0.049-0.348-0.104-0.513c0.03-0.211,0.164-0.315,0.309-0.411
		c-0.072-0.304-0.457-0.348-0.821-0.343C69.581,35.887,69.456,36.058,69.331,36.23z M66.559,38.249
		c0.072,0.165,0.16,0.158,0.309,0.239c0.578,0.318,0.944-0.016,1.334-0.343c-0.012-0.067-0.021-0.137-0.035-0.204
		c-0.113-0.023-0.228-0.046-0.341-0.067C67.493,38.012,66.338,37.722,66.559,38.249z M63.891,49.058
		c-0.104,0.521-0.162,2.132,0,2.327c0.072,0.141,0.267,0.211,0.378,0.206c0.186-0.049,0.315-0.204,0.408-0.343
		c0.093,0,0.184,0,0.273,0c0.17,0.155,0.357,0.273,0.446,0.513c0.009,0,0.023,0,0.032,0c-0.005,0.278,0.009,0.464,0.104,0.617
		c0.499-0.072,0.484-0.599,0.786-0.856c0.125-0.035,0.251-0.069,0.376-0.102c0.103-0.138,0.206-0.274,0.309-0.411
		c0.307-0.292,0.518-0.281,0.821-0.685c-0.069-0.416-0.262-0.327-0.548-0.513c-0.271-0.176-0.461-0.615-0.786-0.719
		c-0.329,0-0.663,0-0.993,0c-0.361-0.07-0.548-0.265-0.958-0.274C64.304,48.937,64.076,48.939,63.891,49.058z"/>
</g>
<g id="Layer_1">
</g>
</svg>
