<?xml version="1.0" encoding="iso-8859-1"?>
<!-- Generator: Adobe Illustrator 16.0.3, SVG Export Plug-In . SVG Version: 6.00 Build 0)  -->
<!DOCTYPE svg PUBLIC "-//W3C//DTD SVG 1.1//EN" "http://www.w3.org/Graphics/SVG/1.1/DTD/svg11.dtd">
<svg version="1.1" xmlns="http://www.w3.org/2000/svg" xmlns:xlink="http://www.w3.org/1999/xlink" x="0px" y="0px" width="100px"
	 height="100px" viewBox="0 0 100 100" style="enable-background:new 0 0 100 100;" xml:space="preserve">
<g id="UA">
	<g>
		<path style="fill:#010101;" d="M61.155,69.859c0.129,0.008,0.363,0.038,0.428,0.01c0.064-0.031,0.203-0.065,0.252-0.04
			c0.05,0.025,0.159,0.059,0.174-0.021c0.015-0.077-0.079-0.087-0.203-0.087s-0.213-0.035-0.308-0.056
			c-0.094-0.02-0.232,0.014-0.317-0.06c-0.085-0.075-0.219-0.154-0.304-0.059c-0.085,0.094-0.173,0.153-0.154,0.188
			c0.021,0.034,0.135,0.107,0.209,0.107S61.1,69.854,61.155,69.859z"/>
		<ellipse style="fill:#010101;" cx="57.517" cy="65.473" rx="0.045" ry="0.038"/>
		<ellipse style="fill:#010101;" cx="58.03" cy="65.453" rx="0.062" ry="0.041"/>
		
			<ellipse transform="matrix(0.9641 0.2656 -0.2656 0.9641 19.5972 -12.9386)" style="fill:#010101;" cx="57.646" cy="66.002" rx="0.085" ry="0.024"/>
		<path style="fill:#010101;" d="M57.526,65.664c-0.104,0.049-0.094,0.143-0.064,0.143c0.031,0,0.084-0.049,0.129-0.082
			c0.046-0.035,0.041-0.08,0.016-0.09C57.581,65.624,57.526,65.664,57.526,65.664z"/>
		<path style="fill:#010101;" d="M58.014,65.614c-0.025-0.045-0.081-0.015-0.174,0.055c-0.095,0.07-0.175,0.199-0.144,0.228
			c0.028,0.03,0.089,0.005,0.198-0.094S58.039,65.664,58.014,65.614z"/>
		<path style="fill:#010101;" d="M67.043,68.814c-0.045-0.012-0.056,0.083-0.047,0.139c0.01,0.056,0.039,0.067,0.066,0.067
			c0.026,0,0.036-0.067,0.026-0.117C67.079,68.854,67.067,68.82,67.043,68.814z"/>
		<path style="fill:#010101;" d="M68.906,68.494c0.002-0.113-0.007-0.179,0.03-0.235c0.036-0.057,0.016-0.185-0.021-0.189
			c-0.036-0.003-0.066,0.021-0.066,0.083c0,0.063-0.039,0.093-0.069,0.106c-0.029,0.013-0.05,0.053-0.05,0.103s0,0.173-0.029,0.188
			c-0.03,0.018-0.156,0.006-0.156,0.067c0,0.059-0.022,0.2,0,0.273c0.023,0.072,0.057,0.216,0.103,0.216s0.054-0.046,0.067-0.101
			c0.014-0.053,0.062-0.09,0.062-0.118c0-0.03-0.102-0.116-0.059-0.146c0.043-0.029,0.142-0.02,0.178,0.083
			c0.037,0.102,0.047,0.18,0.087,0.18s0.212-0.07,0.162-0.119c-0.051-0.052-0.152-0.053-0.097-0.15
			c0.058-0.096,0.076-0.244,0.04-0.271s-0.079,0.016-0.079,0.096c0,0.079-0.03,0.132-0.069,0.119
			C68.899,68.666,68.906,68.54,68.906,68.494z"/>
		<path style="fill:#010101;" d="M70.062,68.5c-0.045-0.028-0.106,0.068-0.156,0.159c-0.049,0.09-0.089,0.183-0.089,0.235
			c0,0.052,0.014,0.104,0.06,0.104s0.05-0.073,0.05-0.148c0-0.076,0.075-0.153,0.122-0.191C70.094,68.62,70.096,68.521,70.062,68.5z
			"/>
		<path style="fill:#010101;" d="M71.259,68.777c-0.022-0.2-0.029-0.403-0.099-0.476c-0.069-0.073-0.198-0.097-0.238-0.069
			c-0.04,0.026-0.057,0.116-0.051,0.196c0.008,0.078,0.037,0.197,0,0.247c-0.036,0.049-0.132,0.079-0.165,0
			c-0.032-0.08-0.085-0.188-0.175-0.182c-0.089,0.006-0.109,0.099-0.109,0.154c0,0.058-0.017,0.101-0.062,0.043
			c-0.047-0.056-0.056-0.111-0.054-0.161c0.003-0.051-0.069-0.076-0.093,0.007c-0.022,0.083-0.046,0.218-0.02,0.32
			c0.027,0.103,0.083,0.156,0.143,0.194c0.06,0.04,0.086,0.087,0.039,0.11c-0.046,0.022-0.139,0.003-0.194-0.003
			c-0.057-0.007-0.129,0.033-0.136,0.092c-0.007,0.06,0.029,0.148,0.106,0.179c0.075,0.03,0.152,0.12,0.152,0.21
			c0,0.089,0.048,0.157,0.118,0.15c0.07-0.006,0.105-0.104,0.155-0.159c0.05-0.051,0.14-0.016,0.212,0.012
			c0.072,0.025,0.159-0.034,0.195-0.1c0.037-0.066,0.104-0.265,0.166-0.424s0.106-0.194,0.108-0.259
			C71.263,68.798,71.262,68.798,71.259,68.777z"/>
		<path style="fill:#010101;" d="M99.998,47.7c-0.025-0.284-0.145-0.457-0.383-0.389c-0.239,0.065-0.483,0.105-0.465-0.146
			c0.021-0.252,0.418-0.199,0.246-0.458c-0.173-0.259-0.173-0.483-0.339-0.57c-0.165-0.086-0.177-0.132-0.125-0.404
			c0.053-0.271-0.093-0.609-0.463-0.603c-0.37,0.008-0.675,0.172-0.602-0.205c0.071-0.378-0.041-0.622,0.032-0.782
			c0.073-0.158,0.061-0.265,0.158-0.383c0.101-0.12,0.212-0.403,0.285-0.496c0.073-0.092,0.244-0.021,0.417,0.013
			c0.172,0.033,0.47-0.099,0.576-0.259c0.106-0.158,0.495-0.714,0.225-0.687c-0.271,0.025-0.311,0.157-0.449,0.237
			c-0.139,0.078-0.332-0.099-0.511-0.139c-0.179-0.04-0.231,0.072-0.351,0.032c-0.119-0.039-0.205-0.25-0.351-0.343
			c-0.146-0.093-0.569-0.12-0.489-0.384c0.08-0.265,0.185-0.312,0.416-0.305s0.265-0.151,0.477-0.179
			c0.212-0.025,0.338-0.185,0.423-0.397c0.087-0.21,0.192-0.383,0.405-0.642c0.212-0.258,0.363-0.424,0.583-0.563
			c0.217-0.139-0.04-0.271-0.153-0.364c-0.112-0.092-0.1-0.351-0.112-0.529c-0.014-0.179-0.244-0.259-0.357-0.463
			c-0.112-0.206-0.37-0.451-0.37-0.649c0-0.198,0.211-0.477,0.363-0.576s0.093-0.483-0.212-0.456
			c-0.304,0.025-0.478,0.271-0.648,0.376c-0.172,0.105-0.477,0.126-0.59,0.16c-0.111,0.033-0.197-0.007-0.297-0.173
			s-0.51-0.193-0.629-0.277c-0.12-0.086-0.324-0.326-0.391-0.563c-0.066-0.239,0.014-0.438-0.245-0.351
			c-0.258,0.086-0.424,0.053-0.595-0.027c-0.173-0.08-0.279,0.008-0.451,0.093c-0.172,0.086-0.483,0.042-0.682-0.146
			c-0.199-0.185-0.364-0.529-0.43-0.622c-0.066-0.093-0.119-0.146-0.278,0.086c-0.158,0.231-0.271,0.191-0.503,0.305
			c-0.231,0.112-0.504,0.351-0.615,0.225c-0.113-0.125-0.087-0.332-0.371-0.41c-0.285-0.08-0.741-0.179-0.854-0.338
			c-0.113-0.16-0.073-0.483-0.206-0.483c-0.131,0-0.337,0.094-0.482,0.132c-0.146,0.04-0.186,0.08-0.318,0.126
			c-0.132,0.046-0.338,0.013-0.495-0.093c-0.159-0.105-0.279-0.027-0.451-0.172c-0.171-0.146-0.185-0.609-0.324-0.623
			c-0.139-0.013-0.278,0.126-0.411,0.133c-0.131,0.006-0.264-0.006-0.264,0.185c0,0.193,0.06,0.597,0,0.723
			c-0.06,0.125-0.304,0.146-0.417,0.224c-0.112,0.08-0.199,0.252-0.278,0.159c-0.079-0.092-0.23-0.29-0.496-0.563
			c-0.265-0.271-0.497-0.509-0.835-0.536c-0.337-0.025-0.449-0.072-0.668-0.33c-0.218-0.258-0.616-0.588-0.568-0.92
			c0.047-0.33,0.158-0.496-0.06-0.576c-0.22-0.078-0.425-0.025-0.616-0.304c-0.192-0.277-0.054-0.78-0.172-0.755
			c-0.119,0.027-0.529,0.16-0.775,0.312c-0.245,0.153-0.588,0.489-0.794,0.55c-0.203,0.059-0.636,0.145-0.927,0.139
			c-0.29-0.006-0.556,0.086-0.734,0.218c-0.178,0.133-0.364,0.423-0.555,0.462c-0.192,0.04-0.212,0.12-0.305,0.259
			c-0.094,0.139-0.266,0.357-0.418,0.225c-0.151-0.132-0.133-0.351-0.37-0.397c-0.238-0.046-0.344-0.151-0.424-0.218
			c-0.08-0.065-0.232,0.08-0.398,0.125c-0.164,0.046-0.35,0.147-0.456,0.053c-0.105-0.092-0.085-0.258-0.185-0.416
			c-0.1-0.16-0.608-0.696-1-0.683c-0.391,0.015-0.456-0.005-0.733,0.094c-0.279,0.099-0.504,0.006-0.67,0.297
			c-0.165,0.292-0.463,0.563-0.721,0.491c-0.258-0.073-0.418,0.02-0.537-0.199c-0.118-0.219-0.185-0.477-0.39-0.57
			c-0.206-0.092-0.391-0.139-0.477-0.391c-0.086-0.25-0.166-0.376-0.259-0.509s-0.139-0.45,0.027-0.563
			c0.165-0.112,0.377-0.244,0.317-0.484c-0.06-0.237-0.06-0.37-0.04-0.687c0.021-0.319-0.311-0.186-0.424-0.385
			c-0.112-0.198-0.079-0.57-0.218-0.702c-0.14-0.132-0.378-0.357-0.337-0.549c0.038-0.191,0.139-0.331,0.25-0.357
			c0.113-0.027,0.106-0.218-0.073-0.238c-0.177-0.021-0.402,0.079-0.614,0.079s-0.371-0.225-0.41-0.411
			c-0.04-0.185-0.258-0.37-0.173-0.569c0.086-0.198,0.165-0.389-0.06-0.417c-0.226-0.027-0.351-0.021-0.457,0.086
			c-0.105,0.105-0.211,0.006-0.356,0.025c-0.146,0.021-0.312,0.147-0.417,0.147c-0.106,0-0.252,0.118-0.252,0.244
			c0,0.126-0.365,0.093-0.556,0.074c-0.192-0.019-0.371-0.146-0.45-0.332c-0.079-0.186-0.251-0.318-0.569-0.225
			c-0.317,0.092-0.662-0.065-0.781-0.093c-0.119-0.025-0.25,0.139-0.456,0.16c-0.206,0.019-0.391-0.086-0.391-0.298
			s0.271-0.244,0.271-0.45c0-0.206-0.041-0.311,0.006-0.437c0.048-0.126-0.231-0.139-0.343-0.264
			c-0.114-0.126,0.032-0.284,0.171-0.417c0.139-0.132,0.166-0.317,0-0.384c-0.166-0.065-0.206-0.238-0.384-0.437
			c-0.179-0.198-0.715-0.542-0.608-0.782c0.104-0.237,0.33-0.177,0.489-0.257c0.158-0.08,0.278-0.16,0.443-0.153
			c0.166,0.007,0.443,0.114,0.636-0.111s0.165-0.332,0.019-0.609c-0.144-0.278-0.204-0.728-0.562-0.669
			c-0.357,0.061-0.403,0.179-0.424-0.073c-0.02-0.25-0.158-0.185-0.212-0.396c-0.052-0.212-0.271-0.239-0.384-0.285
			c-0.111-0.046-0.277-0.252-0.277-0.53c0-0.278,0.118-0.589,0.065-0.834c-0.053-0.244,0.007-0.383-0.205-0.502
			s-0.477-0.219-0.588-0.456c-0.114-0.24-0.392-0.319-0.491-0.404c-0.099-0.086-0.139-0.113-0.198-0.239
			c-0.061-0.126-0.225-0.191-0.416-0.165c-0.192,0.025-0.232,0.099-0.444,0.158c-0.213,0.061-0.324,0.113-0.397,0.258
			c-0.072,0.145-0.231,0.219-0.311,0.059c-0.08-0.158,0.033-0.383-0.152-0.383s-0.186,0.132-0.331,0.013s-0.246-0.099-0.437-0.034
			c-0.192,0.067-0.364,0.067-0.537-0.046c-0.172-0.111-0.231-0.105-0.351,0.086s-0.265,0.418-0.396,0.41
			c-0.133-0.006-0.218-0.006-0.404,0.233c-0.186,0.238-0.39,0.238-0.528,0.171c-0.141-0.065-0.306-0.093-0.464,0.04
			c-0.16,0.132-0.45-0.013-0.636-0.118c-0.185-0.107-0.516-0.265-0.722-0.332c-0.205-0.065-0.576-0.172-0.78-0.078
			c-0.206,0.092-0.187,0.185-0.14,0.336s0.113,0.271,0.021,0.416c-0.093,0.146-0.139,0.193-0.12,0.391
			c0.021,0.199,0.066,0.385-0.053,0.483c-0.118,0.099-0.225,0.271-0.311,0.338c-0.087,0.065-0.277,0.038-0.443,0.145
			c-0.165,0.105-0.139,0.423-0.371,0.423c-0.231,0-0.536-0.046-0.641-0.224c-0.104-0.18-0.148-0.378-0.347-0.373
			c-0.199,0.005-0.611-0.094-0.889-0.104c-0.277-0.011-0.839,0.01-1.103-0.021c-0.263-0.029-0.779-0.12-0.884,0.075
			c-0.104,0.193-0.267,0.551-0.477,0.526c-0.208-0.025-0.452-0.312-0.725-0.343c-0.272-0.03-0.849-0.021-0.913,0.12
			c-0.065,0.138,0.108,0.456-0.01,0.55c-0.12,0.094-0.338,0.178-0.501,0.183c-0.165,0.005-0.199,0.289-0.258,0.447
			c-0.06,0.159-0.139,0.209-0.309,0.277c-0.169,0.07-0.253,0.418-0.362,0.721c-0.11,0.301-0.134,0.621-0.228,0.719
			c-0.095,0.099-0.199,0.188-0.219,0.313c-0.02,0.125-0.034,0.239-0.144,0.392c-0.109,0.153-0.178,0.229-0.178,0.428
			c0,0.198,0.06,0.108,0.069,0.257c0.01,0.15,0.06,0.129,0.129,0.249s0.065,0.193,0.069,0.322c0.005,0.129,0.055,0.115,0.085,0.228
			c0.029,0.115-0.016,0.139,0.039,0.268c0.055,0.129,0.134,0.308,0.115,0.512s-0.045,0.214-0.169,0.298
			c-0.123,0.083-0.189,0.178-0.148,0.287c0.04,0.11-0.015,0.352-0.144,0.303c-0.129-0.05-0.526-0.193-0.695-0.332
			c-0.169-0.141-0.368-0.338-0.378-0.423c-0.009-0.084,0.109-0.188,0.074-0.317c-0.034-0.129-0.263-0.357-0.332-0.492
			c-0.07-0.133-0.293-0.387-0.551-0.446c-0.259-0.061-0.596-0.035-0.759,0.04c-0.164,0.074-0.258,0.288-0.377,0.217
			c-0.12-0.068-0.308,0.011-0.433,0.12c-0.125,0.11-0.542,0.188-0.69,0.084c-0.149-0.104-0.005-0.611-0.18-0.581
			c-0.173,0.03-0.317-0.084-0.421,0.009c-0.104,0.094-0.095,0.254-0.188,0.318c-0.095,0.065-0.339,0.129-0.348,0.319
			c-0.01,0.188-0.104,0.332-0.194,0.313c-0.088-0.021-0.308-0.101-0.461-0.08c-0.153,0.019-0.308,0.209-0.406,0.167
			c-0.1-0.038-0.07-0.257-0.14-0.405c-0.069-0.15-0.242-0.378-0.199-0.562c0.045-0.185,0.031-0.383-0.02-0.521
			c-0.049-0.139-0.148-0.477-0.308-0.602c-0.158-0.123-0.571-0.128-0.71,0.045c-0.138,0.174-0.332,0.467-0.521,0.408
			c-0.188-0.061-0.373-0.084-0.576-0.005c-0.203,0.078-0.451,0.381-0.511,0.555c-0.06,0.174-0.159,0.438-0.272,0.367
			c-0.114-0.069-0.219-0.432-0.288-0.656s-0.393-0.412-0.562-0.436c-0.168-0.025-0.472-0.11-0.625,0.019
			c-0.155,0.129-0.317,0.188-0.428,0.026c-0.109-0.165-0.368-0.472-0.322-0.666c0.044-0.195,0.044-0.319-0.041-0.289
			c-0.083,0.03-0.373,0.16-0.442,0.353c-0.069,0.193-0.297,0.467-0.451,0.481c-0.153,0.015-0.507-0.04-0.674-0.144
			c-0.17-0.104-0.482-0.289-0.562-0.208c-0.079,0.079-0.139,0.258-0.064,0.383c0.074,0.123-0.104,0.332-0.244,0.406
			c-0.139,0.074-0.217,0.254-0.328,0.214c-0.109-0.04-0.402-0.304-0.308-0.418c0.095-0.113,0.313-0.402,0.204-0.501
			c-0.108-0.099-0.387-0.021-0.536-0.148c-0.148-0.129-0.293-0.23-0.406-0.115c-0.115,0.115-0.437,0.144-0.566,0.104
			c-0.129-0.038-0.511-0.163-0.67-0.158c-0.159,0.005-0.035-0.268-0.099-0.362c-0.065-0.094-0.293-0.084-0.317-0.2
			c-0.025-0.113,0.093-0.411,0.074-0.55c-0.019-0.139-0.134-0.357-0.497-0.317c-0.363,0.038-0.664,0.219-0.808,0.179
			c-0.145-0.04-0.453-0.244-0.721-0.369c-0.268-0.125-0.461-0.362-0.679-0.411c-0.219-0.05-0.442,0.005-0.511,0.1
			c-0.069,0.092-0.427,0.127-0.527-0.051c-0.099-0.178-0.242-0.571-0.383-0.555c-0.139,0.015-0.242,0.188-0.387,0.139
			c-0.144-0.05-0.333-0.104-0.481-0.07c-0.15,0.035-0.317,0.016-0.452-0.174c-0.134-0.188-0.363-0.362-0.571-0.431
			c-0.208-0.07-0.597-0.084-0.764-0.134c-0.17-0.051-0.254-0.101-0.349-0.195c-0.093-0.094-0.168-0.099-0.247,0.011
			c-0.08,0.108-0.343,0.193-0.521,0.177c-0.178-0.015-0.448-0.163-0.67-0.144c-0.224,0.021-0.446,0.05-0.616-0.049
			c-0.168-0.099-0.342-0.238-0.562-0.268c-0.218-0.03-0.356-0.228-0.769-0.129c-0.412,0.099-0.958,0.456-1.142,0.402
			s-0.173-0.123-0.491-0.035c-0.318,0.089-0.542,0.006-0.7-0.069c-0.159-0.075-0.422-0.125-0.62-0.054
			c-0.199,0.069-0.71-0.044-0.874-0.044s-0.412,0.148-0.426,0.521c-0.015,0.372-0.026,0.654-0.213,0.744
			c-0.188,0.089-0.592,0.199-0.79,0.338c-0.199,0.138-0.61,0.332-0.755,0.456c-0.144,0.124-0.372,0.228-0.461,0.075
			c-0.089-0.155-0.124-0.303-0.323-0.329c-0.198-0.024-0.388-0.163-0.545-0.163c-0.16,0-0.577,0.059-0.577,0.184
			s-0.04,0.228,0.074,0.416c0.113,0.188,0.094,0.458,0.005,0.507c-0.09,0.049-0.073,0.073-0.067,0.233
			c0.007,0.16-0.012,0.219,0.046,0.383c0.06,0.166,0.087,0.338-0.046,0.517c-0.131,0.179-0.264,0.385-0.19,0.569
			c0.072,0.185,0.225,0.252,0.264,0.431c0.04,0.178,0.06,0.351,0.199,0.517c0.14,0.164,0.292,0.383,0.285,0.562
			c-0.006,0.179-0.066,0.391,0.06,0.502c0.125,0.114,0.218,0.292,0.218,0.498c0,0.204,0.06,0.303,0.165,0.435
			c0.106,0.133-0.005,0.351,0.159,0.471c0.166,0.12,0.458,0.292,0.425,0.462c-0.034,0.172-0.193,0.147-0.332,0.16
			c-0.139,0.013-0.35,0.086-0.324,0.338c0.026,0.25,0.166,0.734,0.118,0.885c-0.046,0.153,0.014,0.399,0.073,0.55
			c0.06,0.152,0.046,0.509,0.021,0.728c-0.027,0.219-0.152,0.538-0.305,0.742c-0.152,0.206-0.735,0.351-0.973,0.305
			c-0.239-0.046-0.655-0.007-0.767,0.006c-0.113,0.014-0.141,0.191-0.247,0.351c-0.105,0.158-0.35,0.523-0.674,0.755
			c-0.326,0.231-0.464,0.403-0.881,0.622c-0.417,0.218-0.616,0.271-0.808,0.477C7.85,33.449,7.678,33.729,7.4,34.006
			c-0.278,0.277-0.536,0.576-0.808,0.807c-0.272,0.231-0.483,0.523-0.742,0.801c-0.258,0.279-0.502,0.529-0.847,0.854
			c-0.344,0.324-0.603,0.589-0.774,0.827c-0.173,0.237-0.285,0.277-0.139,0.41c0.146,0.133,0.33,0.338,0.251,0.503
			c-0.079,0.166-0.138,0.338-0.06,0.47c0.08,0.133,0.199,0.265,0.106,0.523c-0.092,0.258-0.272,0.656-0.239,0.939
			c0.035,0.286,0.087,0.597,0.339,0.748c0.251,0.152,0.364,0.364,0.285,0.496c-0.081,0.133-0.041,0.443-0.06,0.517
			c-0.021,0.072-0.139,0.053-0.271-0.086s-0.338-0.259-0.497-0.246c-0.158,0.014-0.404-0.205-0.456-0.324
			c-0.054-0.12-0.166-0.212-0.351-0.092c-0.186,0.119-0.146,0.364-0.173,0.483c-0.026,0.12-0.158,0.125-0.285,0.218
			c-0.125,0.093-0.283,0.132-0.356,0.343c-0.073,0.212-0.065,0.272-0.199,0.357c-0.132,0.088-0.231,0.088-0.231,0.286
			c0,0.197,0,0.277-0.094,0.443c-0.092,0.166-0.251,0.304-0.272,0.47c-0.019,0.165-0.019,0.317-0.178,0.423
			s-0.403,0.105-0.596,0.312c-0.191,0.205-0.292,0.311-0.443,0.609c-0.152,0.296-0.179,0.582-0.258,0.826
			c-0.08,0.246-0.087,0.477,0.1,0.504c0.185,0.025,0.283,0.139,0.343,0.252c0.06,0.112,0.279,0.336,0.405,0.35
			c0.125,0.014,0.192,0.126,0.158,0.319c-0.033,0.191-0.139,0.442,0.127,0.483c0.264,0.039,0.549-0.073,0.622,0.032
			c0.073,0.106,0.396,0.351,0.403,0.437c0.007,0.086-0.072,0.397-0.106,0.595c-0.032,0.199,0.002,0.557,0.233,0.609
			c0.231,0.053,0.556-0.204,0.748-0.132c0.192,0.074,0.583,0.231,0.509,0.49c-0.072,0.259-0.225,0.603-0.033,0.637
			c0.191,0.032,0.305-0.134,0.356-0.227c0.054-0.092,0.206-0.059,0.332,0.034c0.125,0.093,0.371-0.04,0.496-0.08
			c0.125-0.039,0.258-0.204,0.285-0.404c0.025-0.197,0.245-0.422,0.378-0.317c0.13,0.107,0.19,0.145,0.336,0.145
			c0.146,0,0.37,0.126,0.37,0.338c0,0.212,0.06,0.271,0.239,0.464c0.179,0.191,0.423,0.488,0.595,0.456
			c0.173-0.034,0.456-0.093,0.722-0.046c0.264,0.046,0.874,0.397,1.032,0.47c0.159,0.073,0.451,0.199,0.675,0.153
			c0.226-0.047,0.53-0.074,0.715,0.099c0.185,0.172,0.617,0.244,0.802,0.244c0.185,0,0.582,0.106,0.733,0.119
			c0.152,0.013,0.397-0.072,0.537-0.244c0.139-0.172,0.476-0.119,0.647-0.066c0.173,0.053,0.497-0.067,0.623,0.351
			c0.126,0.416,0.165,0.761,0.476,0.847c0.311,0.087,0.497,0.292,0.543,0.57c0.046,0.277,0.31,0.403,0.516,0.431
			c0.205,0.025,0.543,0.071,0.769,0.059c0.224-0.013,0.43-0.198,0.647-0.471c0.22-0.271,0.511-0.715,0.735-0.794
			c0.225-0.079,0.626-0.082,0.844-0.162c0.218-0.079,0.576-0.168,0.903-0.109c0.328,0.061,0.726,0.219,0.994,0.119
			c0.267-0.099,0.754-0.147,1.092-0.147c0.337,0,0.615,0.019,0.893,0.089c0.278,0.068,0.437-0.299,0.605-0.547
			c0.169-0.247,0.368-0.348,0.467-0.556c0.098-0.208,0.098-0.329,0.347-0.407c0.248-0.08,0.427-0.258,0.565-0.397
			c0.139-0.139,0.357-0.08,0.517-0.16c0.158-0.08,0.188-0.158,0.556-0.169c-0.081-0.049-0.03-0.218,0.039-0.357
			c0.069-0.139,0.169-0.317,0.289-0.317c0.119,0,0.347,0.388,0.496,0.447c0.149,0.061,0.149-0.278-0.03-0.397
			c-0.178-0.118-0.257-0.466-0.148-0.506c0.109-0.04,0.367,0.049,0.526-0.04c0.159-0.089,0.328,0.099,0.378,0.308
			c0.049,0.209,0.327,0.288,0.496,0.158c0.168-0.128,0.189-0.386,0.328-0.257c0.139,0.129,0.237,0.167,0.645,0.287
			c0.407,0.12,0.526-0.078,0.665-0.308c0.139-0.228,0.338-0.118,0.557,0c0.218,0.12,0.447,0.011,0.576-0.207
			c0.128-0.219,0.198,0,0.387-0.15c0.188-0.148,0.258-0.08,0.358-0.019c0.098,0.059,0.048,0.317,0.237,0.357
			c0.189,0.04,0.368-0.01,0.656,0.089c0.287,0.099,0.387,0.298,0.506,0.576c0.118,0.278,0.605,0.336,0.903,0.397
			c0.298,0.059,0.139,0.426,0.199,0.614c0.06,0.19,0.338-0.078,0.467-0.038c0.129,0.038,0.079,0.357,0.229,0.387
			c0.148,0.03,0.466-0.229,0.704-0.13c0.238,0.101-0.317,0.458-0.248,0.717c0.069,0.258,0.347-0.08,0.526-0.169
			c0.179-0.09,0.129,0.157,0.179,0.515c0.05,0.358,0.297,0.03,0.476-0.259c0.179-0.286,0.606-0.127,0.864,0.021
			c0.259,0.149,0.784,0.388,0.933,0.615c0.15,0.229,0.12,0.635,0.329,0.715c0.208,0.08,0.307,0.199,0.555,0.388
			c0.249,0.188,0.208-0.209,0.388-0.308c0.179-0.1,0.468,0.01,0.487,0.218c0.02,0.208,0.089,0.447,0.308,0.604
			c0.219,0.16,0.029,0.14,0.029,0.419c0,0.277,0.179,0.188,0.328,0.296c0.149,0.11-0.108,0.24-0.347,0.518s-0.16,0.676-0.229,0.942
			c-0.069,0.269-0.367,0.378-0.486,0.548c-0.12,0.167,0.218,0.794,0.337,0.912c0.12,0.119,0.358,0.011,0.467,0.15
			c0.109,0.138,0.358,0.356,0.546,0.426c0.189,0.07,0.069,0.199-0.04,0.396c-0.109,0.2,0.079,0.447,0.396,0.498
			c0.318,0.048,0.318-0.428,0.458-0.517c0.139-0.09,0.477-0.05,0.565,0.327c0.09,0.378-0.01,0.437-0.138,0.517
			c-0.129,0.078-0.011,0.456-0.05,0.743c-0.039,0.289-0.387,0.011-0.397,0.31c-0.01,0.297,0.219,0.228,0.478,0.277
			c0.257,0.05,0.177,0.397,0.069,0.536c-0.11,0.139,0,0.257-0.11,0.377c-0.109,0.119-0.019,0.27,0.199,0.298
			c0.219,0.03,0.349,0.259,0.557,0.209c0.208-0.051,0.218,0.277,0.406,0.426c0.188,0.15,0.457-0.019,0.506,0.12
			c0.05,0.139,0.129,0.348,0.328,0.327c0.199-0.02,0.22,0.258,0.199,0.427c-0.02,0.17-0.159,0.299-0.159,0.457
			c0,0.159-0.03,0.199-0.089,0.298c-0.06,0.099-0.081,0.229-0.071,0.468c0.011,0.237,0.094,0.247-0.052,0.604
			s0.106,0.449,0.463,0.649c0.358,0.197,0.238,0.422,0.119,0.569c-0.119,0.146-0.343,0.171-0.555,0.093
			c-0.211-0.08-0.331,0.265-0.516,0.25c-0.186-0.013-0.173-0.172-0.146-0.343c0.027-0.173-0.291-0.529-0.502-0.597
			c-0.212-0.065-0.238,0.199-0.424,0.279c-0.185,0.078-0.092,0.265-0.291,0.396c-0.199,0.134-0.16-0.277-0.398-0.251
			c-0.238,0.025-0.172-0.252-0.172-0.449c0-0.2-0.291-0.438-0.37-0.173c-0.081,0.266-0.252,0.438-0.385,0.438
			c-0.132,0-0.052-0.529-0.172-0.609c-0.119-0.08-0.279,0.053-0.304,0.463c-0.026,0.409-0.172,0.544-0.384,0.544
			c-0.212,0-0.053-0.757,0-0.967c0.053-0.213-0.172-0.397-0.278-0.317c-0.106,0.078-0.358,0.145-0.556,0.132
			c-0.198-0.014-0.582,0.118-0.462,0.265c0.119,0.146-0.067,0.266-0.212,0.266s-0.423-0.04-0.41,0.157
			c0.012,0.199,0.278,0.596,0.225,1.06c-0.054,0.464,0.118,0.438,0.291,0.582c0.171,0.147,0.291,0.385,0,0.742
			s-0.238,0.555-0.238,0.859s-0.212,0.357-0.57,0.465c-0.357,0.105-0.78,0.265-0.82,0.595c-0.039,0.33,0.08,0.582-0.025,0.649
			c-0.106,0.065-0.61,0.133-0.584,0.357c0.027,0.225-0.211,0.265-0.396,0.265s-0.383-0.12-0.595,0.185s-0.12,0.53,0,0.808
			c0.118,0.277,0.066,0.423-0.081,0.517c-0.145,0.093,0.026,0.37,0.04,0.463s-0.648-0.04-0.82-0.197
			c-0.173-0.16-0.517-0.293-0.649-0.146c-0.092,0.101-0.271,0.318-0.404,0.354c0.004,0.018,0.007,0.035,0.013,0.05
			c0.12,0.277,0.318,0.158,0.477,0.635c0.159,0.476,0.159,0.873,0.814,1.171c0.656,0.299,1.092,0.317,1.43,0.496
			s0.655,0.08,0.715-0.179c0.06-0.258,0.18-0.653,0.457-0.477c0.278,0.181,0.337,0.239,0.595-0.1
			c0.258-0.336,0.636-0.277,0.993-0.416c0.358-0.139,1.112-0.456,1.41-0.317c0.298,0.139,0.934-0.139,1.291,0.259
			c0.357,0.397,0.516,0.654,0.516,0.912c0,0.259-0.069,0.586,0,0.646c0.069,0.059,0.377,0.028,0.377-0.15s-0.019-0.268-0.019-0.268
			s0.198-0.08,0.208-0.179c0.009-0.099,0-0.407,0-0.466c0-0.061-0.129-0.209-0.11-0.378c0.021-0.168-0.019-0.229-0.039-0.367
			c-0.019-0.139-0.1-0.07-0.139-0.07c-0.04,0-0.179-0.188-0.179-0.188s-0.12,0.269-0.199,0.209
			c-0.079-0.059-0.188-0.258-0.119-0.406s0.347-0.308,0.258-0.319c-0.089-0.01-0.318,0.07-0.268-0.219
			c0.05-0.287,0.039-0.386,0-0.564c-0.04-0.179-0.07-0.329,0.06-0.446c0.129-0.12,0.243-0.15,0.189-0.249
			c-0.055-0.099-0.095-0.173-0.016-0.297c0.081-0.125,0.109-0.254,0.104-0.359c-0.005-0.104-0.064-0.272-0.049-0.317
			c0.014-0.045,0.059-0.035,0.104,0.025c0.044,0.06,0.019,0.179,0.055,0.17c0.033-0.012,0.079-0.135,0.133-0.1
			c0.055,0.034,0.034,0.073,0.01,0.198c-0.025,0.124-0.029,0.317-0.029,0.481c0,0.163-0.035,0.188-0.026,0.278
			c0.01,0.089,0.069,0.213,0.12,0.277c0.05,0.065,0.029,0.27,0.045,0.328c0.014,0.059,0.074,0.169,0.203,0.113
			c0.129-0.055,0.163-0.172,0.204-0.202c0.04-0.03,0.16-0.021,0.213-0.035c0.055-0.015,0.174-0.07,0.119-0.179
			c-0.054-0.108-0.153-0.2-0.232-0.264c-0.081-0.063-0.081-0.183-0.045-0.199c0.034-0.015,0.099-0.118,0.099-0.198
			c0-0.079,0.071-0.108,0.14-0.044c0.07,0.063,0.07,0.139,0.163,0.084c0.095-0.054,0.134-0.105,0.095-0.159
			c-0.04-0.054-0.04-0.139,0.024-0.139c0.065,0,0.109,0.065,0.148,0.124c0.04,0.06,0.07,0.198,0.125,0.174
			c0.055-0.025,0.026-0.114-0.034-0.208c-0.06-0.095-0.064-0.214-0.021-0.283c0.044-0.07,0.114-0.065,0.081,0.029
			c-0.036,0.096,0.054,0.209,0.133,0.18c0.079-0.03,0.163-0.065,0.163-0.244s0-0.298,0.165-0.293
			c0.164,0.006,0.249,0.049,0.323,0.164s0.144,0.237,0.165,0.188c0.019-0.05,0.083-0.123,0.118-0.135
			c0.035-0.009,0.004-0.054,0.004-0.152s-0.058-0.16,0-0.174c0.06-0.015,0.114-0.1,0.114-0.174c0-0.075-0.024-0.109,0.041-0.109
			c0.064,0,0.104,0.015,0.114,0.238c0.009,0.223,0.024,0.446,0.024,0.446s0.244-0.174,0.477-0.383
			c0.232-0.207,0.476-0.55,0.476-0.55l-0.174-0.184c0,0,0.169-0.139,0.348-0.333c0.179-0.193,0.352-0.372,0.352-0.372l0.139,0.134
			c0,0,0.16-0.174,0.2-0.263c0.039-0.09,0.01-0.184-0.059-0.184c-0.071,0-0.225-0.03-0.16-0.165
			c0.064-0.134-0.035-0.282-0.074-0.296c-0.041-0.017-0.096-0.176-0.096-0.284s-0.088-0.292-0.198-0.292
			c-0.108,0-0.233,0-0.323-0.07c-0.088-0.07-0.268-0.139-0.476-0.353s-0.452-0.428-0.511-0.6c-0.059-0.176-0.059-0.353,0.08-0.453
			c0.139-0.099,0.323-0.229,0.471-0.179c0.15,0.051,0.239,0.219,0.239,0.353s0.05,0.312,0.129,0.383
			c0.079,0.068,0.238,0.054,0.268-0.061c0.03-0.113,0.04-0.203-0.015-0.297s-0.034-0.188,0.026-0.188
			c0.058,0,0.144-0.056,0.139,0.262c-0.005,0.319-0.005,0.538,0.109,0.581c0.114,0.046,0.312,0.011,0.357,0.185
			c0.045,0.174,0.025,0.144-0.019,0.273c-0.045,0.129-0.01,0.331,0.024,0.396c0.036,0.064,0.096,0.148,0.194,0.174
			c0.1,0.024,0.198,0.145,0.109,0.269c-0.089,0.124-0.128,0.282-0.094,0.322c0.036,0.04,0.179,0.016,0.239-0.085
			c0.059-0.099,0.119-0.361,0.234-0.541c0.114-0.179,0.243-0.321,0.322-0.505c0.079-0.186,0.158-0.418,0.273-0.576
			c0.114-0.16,0.095-0.259,0.055-0.328c-0.041-0.069-0.134-0.045-0.175-0.069c-0.039-0.025-0.01-0.084,0.06-0.119
			s0.174,0.099,0.238,0.114c0.065,0.015,0.18,0.039,0.259-0.105c0.079-0.144,0.158-0.361,0.208-0.515
			c0.05-0.155,0.134-0.209,0.084-0.329c-0.049-0.117-0.074-0.188-0.034-0.282c0.04-0.094,0.01-0.169-0.064-0.204
			s-0.055-0.202,0.005-0.249c0.06-0.043,0.169-0.094,0.312-0.094s0.239,0.016,0.382-0.095c0.144-0.108,0.347-0.184,0.646-0.286
			c0.298-0.105,0.432-0.145,0.774-0.179c0.342-0.035,0.671-0.066,0.879-0.104c0.208-0.041,0.397-0.089,0.536-0.046
			c0.139,0.046,0.244,0.11,0.408,0.124c0.163,0.017,0.361-0.073,0.441-0.119c0.079-0.043,0.129-0.029,0.223-0.148
			c0.095-0.118,0.055-0.104,0.234-0.277c0.178-0.174,0.223-0.322,0.178-0.378c-0.044-0.055-0.144-0.09-0.243-0.168
			c-0.1-0.08-0.114-0.159-0.104-0.274c0.01-0.113,0.056-0.123,0.069-0.123c0.015,0,0.045,0.128,0.074,0.153
			c0.03,0.025,0.12,0.099,0.175,0.094s0.114,0.057,0.153,0.11c0.04,0.055,0.119-0.021,0.095-0.065s0.015-0.089,0.069-0.188
			c0.055-0.099,0.204-0.178,0.223-0.232c0.021-0.055,0.165-0.07,0.061,0.164c-0.104,0.233-0.164,0.233-0.189,0.272
			c-0.024,0.039-0.094,0.135-0.118,0.219c-0.025,0.085-0.169,0.173-0.169,0.233c0,0.059,0.034,0.162-0.025,0.237
			c-0.059,0.075-0.173,0.095-0.218,0.189c-0.046,0.093,0.049,0.118,0.119,0.173c0.069,0.056,0.332,0.089,0.372,0.07
			c0.039-0.02,0.139-0.209,0.254-0.243c0.113-0.036,0.382-0.084,0.471-0.036c0.09,0.051,0.238,0.149,0.343,0.149
			s0.209,0.035,0.278,0.069c0.069,0.035,0.238,0.03,0.352-0.034c0.114-0.065,0.293-0.173,0.358-0.366
			c0.064-0.195,0.083-0.433,0.014-0.543c-0.069-0.108-0.152-0.099-0.193-0.257c-0.038-0.159,0.021-0.462,0.149-0.587
			c0.13-0.122,0.248-0.232,0.328-0.357c0.079-0.124,0.099-0.321,0.039-0.361s-0.108-0.045-0.188-0.045
			c-0.079,0-0.125-0.05-0.095-0.209c0.029-0.158,0.18-0.312,0.115-0.353c-0.064-0.038-0.174,0.016-0.254,0.061
			c-0.079,0.045-0.233-0.005-0.238-0.179s0.029-0.328,0.041-0.446c0.009-0.12-0.026-0.24-0.12-0.324
			c-0.095-0.084-0.081-0.148-0.09-0.322c-0.01-0.174-0.069-0.229-0.158-0.297c-0.09-0.07-0.124-0.141-0.124-0.141
			s0.179,0.05,0.243,0.075c0.064,0.023,0.139,0.159,0.144,0.209s0.01,0.179,0.034,0.262c0.025,0.085,0.129,0.149,0.194,0.204
			c0.064,0.056,0.134,0.159,0.089,0.249s-0.109,0.193-0.109,0.272c0,0.08-0.02,0.238,0.074,0.238c0.095,0,0.175-0.06,0.309-0.04
			c0.134,0.021,0.238,0.134,0.184,0.234c-0.055,0.099-0.169,0.184-0.139,0.272c0.029,0.09,0.148,0.153,0.218,0.193
			s0.095,0.244,0.095,0.373c0,0.13-0.045,0.287-0.169,0.451c-0.125,0.163-0.179,0.198-0.193,0.297
			c-0.015,0.101,0.04,0.13,0.02,0.234c-0.02,0.104-0.025,0.188,0.06,0.269s0.045,0.268,0.06,0.397
			c0.016,0.129,0.074,0.212,0.198,0.357c0.124,0.143,0.372,0.322,0.496,0.341c0.125,0.021,0.249,0.065,0.244,0.169
			c-0.005,0.105,0.009,0.259,0.129,0.259s0.204-0.272,0.282-0.268c0.081,0.005,0.104-0.109,0.179-0.104
			c0.075,0.005,0.185,0.029,0.298,0.113c0.115,0.085,0.273,0.209,0.394,0.219c0.119,0.011,0.212,0.005,0.321-0.035
			c0.11-0.04,0.234-0.005,0.234,0.141c0,0.144-0.055,0.272-0.021,0.341c0.035,0.07,0.169,0.146,0.075,0.244
			c-0.095,0.1-0.303,0.214-0.571,0.18c-0.269-0.035-0.68-0.193-0.833-0.205c-0.154-0.01-0.259-0.014-0.368-0.059
			c-0.11-0.045-0.224-0.12-0.382-0.08c-0.159,0.04-0.368,0.04-0.487,0.005s-0.223-0.085-0.387-0.099
			c-0.164-0.017-0.368,0.021-0.447-0.026c-0.079-0.044-0.129-0.082-0.198-0.082s-0.129-0.105-0.218-0.105
			c-0.09,0-0.349-0.01-0.527-0.01c-0.178,0-0.277,0.005-0.441-0.021c-0.164-0.024-0.229-0.108-0.282-0.208
			c-0.056-0.099-0.145-0.178-0.245-0.104c-0.098,0.073-0.028,0.148,0.061,0.267c0.09,0.12,0.22,0.268,0.312,0.303
			c0.095,0.035,0.175,0.11,0.298,0.209c0.125,0.1,0.204,0.193,0.229,0.273c0.025,0.079,0.096,0.104,0.145,0.074
			c0.049-0.029,0.044-0.278,0.104-0.308c0.06-0.03,0.259-0.065,0.413-0.035c0.153,0.03,0.258,0.035,0.383,0.08
			c0.123,0.045,0.262,0.148,0.342,0.169c0.079,0.02,0.188,0.02,0.233-0.009c0.044-0.03,0.108-0.085,0.232-0.007
			c0.124,0.08,0.243,0.199,0.344,0.328c0.099,0.13,0.107,0.224,0.038,0.238c-0.069,0.016-0.179,0.069-0.228,0.144
			c-0.05,0.074-0.243,0.214-0.497,0.219c-0.253,0.006-0.561,0.025-0.635,0.049c-0.075,0.025-0.094,0.219-0.04,0.308
			c0.055,0.09,0.184,0.14,0.253,0.11c0.07-0.03,0.184-0.179,0.283-0.154c0.1,0.025,0.259,0.039,0.333,0.188
			c0.074,0.15,0.188,0.264,0.277,0.254c0.09-0.009,0.248-0.148,0.354-0.059c0.103,0.089,0.054,0.223,0.123,0.287
			c0.07,0.065,0.309,0.224,0.422,0.224c0.114,0,0.388-0.015,0.478-0.015c0.089,0,0.174,0.065,0.114,0.129
			c-0.06,0.065-0.134,0.108-0.129,0.148s0.02,0.115-0.03,0.146c-0.05,0.028-0.099,0.134-0.05,0.158
			c0.05,0.025,0.312,0.089,0.468,0.109c0.152,0.02,0.352,0.063,0.604,0.134c0.253,0.069,0.575,0.188,0.735,0.17
			c0.158-0.021,0.272-0.012,0.292-0.141c0.021-0.129,0.175-0.148,0.268-0.153c0.095-0.005,0.308,0.045,0.428,0.03
			c0.12-0.016,0.243-0.04,0.392-0.114c0.149-0.075,0.309-0.035,0.418-0.035c0.108,0,0.237-0.09,0.282-0.055
			c0.046,0.035,0.169,0.08,0.354,0.08c0.184,0,0.342-0.061,0.421-0.07c0.08-0.01,0.179-0.108,0.134-0.188
			c-0.044-0.08-0.049-0.138,0.035-0.144c0.06-0.005,0.194,0.005,0.287,0.079c0.096,0.074,0.189,0.153,0.259,0.095
			c0.07-0.061,0.13-0.11,0.204-0.164c0.074-0.055,0.104-0.129,0.113-0.219c0.012-0.09,0.114-0.233,0.159-0.249
			c0.045-0.015,0.104-0.015,0.069,0.08c-0.035,0.094-0.1,0.169-0.064,0.239c0.035,0.068,0.064,0.162,0.024,0.207
			c-0.039,0.045-0.074,0.199,0.011,0.188c0.085-0.01,0.273-0.099,0.357-0.095c0.084,0.005,0.263,0.284,0.322,0.254
			s0.16,0.05,0.179,0.174c0.021,0.125,0.164,0.2,0.219,0.264c0.054,0.063,0.079,0.174,0.145,0.148
			c0.064-0.024,0.139-0.148,0.178-0.113c0.04,0.033,0.141,0.104,0.179,0.078c0.041-0.024,0.021-0.033-0.024-0.113
			s-0.004-0.169,0.029-0.188c0.036-0.021,0.119,0,0.188-0.04s0.104-0.089,0.01-0.149c-0.094-0.06-0.099-0.198-0.059-0.267
			c0.039-0.07,0.194-0.204,0.283-0.204s0.147,0.089,0.188,0.162c0.04,0.075,0.169,0.141,0.158,0.299
			c-0.01,0.159-0.024,0.328-0.044,0.428c-0.021,0.099-0.016,0.219,0.034,0.326c0.051,0.11,0.09,0.219,0.015,0.219
			c-0.074,0-0.144,0.145-0.084,0.188c0.06,0.045,0.179,0.065,0.233-0.028c0.056-0.096,0.169-0.056,0.253-0.056
			c0.085,0,0.273,0.006,0.338,0.025c0.064,0.021,0.159,0.035,0.147,0.159c-0.009,0.123-0.103,0.094-0.138,0.094
			c-0.034,0-0.099-0.014-0.134,0.029c-0.034,0.046-0.08,0.056-0.149,0.07c-0.069,0.014-0.09,0.025-0.09,0.164
			s0.046,0.268-0.019,0.268s-0.313-0.169-0.397-0.149c-0.084,0.021-0.278,0.065-0.278,0.129c0,0.065,0.035,0.155-0.079,0.204
			c-0.115,0.05-0.298-0.035-0.342-0.07c-0.046-0.035-0.16-0.094-0.16,0.026c0,0.119,0.119,0.059,0.091,0.139
			c-0.03,0.079-0.165,0.143-0.185,0.119c-0.02-0.025-0.109-0.079-0.139-0.044c-0.031,0.033-0.268,0.228-0.507,0.401
			c-0.238,0.174-0.387,0.317-0.576,0.282c-0.188-0.034-0.188-0.124-0.229-0.223c-0.038-0.1-0.079-0.155-0.124-0.113
			c-0.044,0.038,0,0.272-0.129,0.431c-0.129,0.159-0.356,0.308-0.641,0.441c-0.282,0.134-0.396,0.272-0.565,0.397
			c-0.169,0.124-0.348,0.253-0.481,0.323c-0.134,0.069-0.239,0.128-0.198,0.158c0.039,0.029,0.193,0.055,0.184,0.125
			c-0.011,0.068-0.04,0.104-0.114,0.174c-0.074,0.068-0.095,0.019-0.124,0.054c-0.031,0.035-0.024,0.174-0.139,0.099
			c-0.114-0.074,0.119-0.286-0.074-0.228c-0.194,0.059-0.174,0.214-0.339,0.303c-0.163,0.09-0.188,0.03-0.308,0.144
			c-0.118,0.115-0.282,0.233-0.383,0.273c-0.098,0.039-0.247,0.293-0.392,0.348c-0.144,0.054-0.303,0.228-0.292,0.322
			c0.01,0.094,0.069,0.124,0.168,0.154s0.104,0.035,0.064,0.169c-0.039,0.133-0.024,0.203,0.06,0.224
			c0.085,0.02,0.169,0.05,0.233,0.08c0.065,0.028,0.199,0.033,0.347,0.043c0.15,0.011,0.274,0.025,0.394-0.085
			c0.118-0.108,0.292-0.306,0.571-0.297c0.277,0.01,0.685,0.045,0.951,0.193c0.27,0.15,0.717,0.362,0.875,0.507
			c0.159,0.145,0.354,0.417,0.437,0.501c0.084,0.085,0.308,0.233,0.397,0.288c0.09,0.054,0.188,0.208,0.343,0.164
			c0.153-0.045,0.208-0.193,0.353-0.153c0.143,0.038,0.342-0.005,0.501,0c0.158,0.005,0.248,0.028,0.461,0.228
			c0.214,0.198,0.443,0.433,0.526,0.609c0.086,0.181,0.17,0.379,0.199,0.696c0.03,0.317,0.054,0.625,0.04,0.74
			c-0.015,0.112-0.089,0.292-0.209,0.357c-0.119,0.063-0.139,0.089-0.169,0.192c-0.029,0.105-0.139,0.179-0.139,0.269
			c0,0.089,0.124,0.189,0.124,0.268c0,0.08-0.06,0.13-0.015,0.239c0.044,0.108,0.074,0.282,0.034,0.393
			c-0.039,0.108-0.108,0.212-0.108,0.277c0,0.064,0.148,0.264,0.148,0.264s-0.148,0.04-0.234,0.035
			c-0.083-0.007-0.291-0.025-0.308,0.005c-0.014,0.028-0.029,0.089-0.093,0.089c-0.065,0-0.061,0.078-0.061,0.113
			s0.02,0.144-0.063,0.144c-0.084,0-0.084-0.104-0.109-0.134c-0.025-0.029-0.159-0.055-0.145,0.08
			c0.015,0.134,0.268,0.361,0.427,0.481c0.159,0.119,0.452,0.277,0.61,0.268c0.16-0.009,0.229-0.089,0.269-0.114
			c0.04-0.024,0.059,0.096,0.063,0.119c0.007,0.025,0.193,0.174,0.234,0.269c0.04,0.094,0.179,0.263,0.248,0.263
			s0.287,0.229,0.378,0.268c0.088,0.04,0.303,0.057,0.432-0.004c0.13-0.06,0.541-0.095,0.734-0.055s0.557-0.094,0.69-0.164
			c0.134-0.068,0.48-0.233,0.561-0.377c0.079-0.145,0.074-0.278,0.249-0.318c0.172-0.039,0.366-0.163,0.446-0.342
			c0.079-0.179,0.209-0.293,0.361-0.298c0.155-0.005,0.234-0.14,0.199-0.238c-0.035-0.101,0.074-0.159,0.118-0.268
			c0.046-0.11,0.13-0.446,0.368-0.705s0.611-0.541,0.959-0.715c0.347-0.174,0.437-0.179,0.58-0.264
			c0.145-0.084,0.531-0.188,0.66-0.239c0.129-0.049,0.278-0.049,0.377,0.017c0.1,0.063,0.165-0.05,0.238-0.11
			c0.074-0.059,0.487-0.04,0.576-0.01s0.134,0.233,0.243,0.249c0.11,0.015,0.283-0.214,0.402-0.428s0.164-0.432,0.342-0.521
			c0.179-0.089,0.317-0.119,0.343-0.292c0.025-0.174,0.125-0.279,0.269-0.239s0.268,0.11,0.367,0.095
			c0.1-0.015,0.135-0.06,0.035-0.118c-0.1-0.06-0.09-0.146,0.03-0.209c0.118-0.064,0.157-0.085,0.134-0.233
			c-0.025-0.149-0.021-0.383,0.277-0.61c0.299-0.229,0.551-0.447,0.902-0.382c0.354,0.063,0.75,0.203,0.855,0.252
			c0.104,0.05,0.322,0.153,0.396,0.317s0.085,0.412,0.273,0.428c0.188,0.015,0.303-0.065,0.531-0.229
			c0.229-0.164,0.269-0.258,0.521-0.258s0.352,0.035,0.834,0.049c0.48,0.017,0.511-0.054,0.605-0.129
			c0.095-0.073,0.229-0.159,0.427-0.159s0.228-0.055,0.293-0.144c0.065-0.09,0.113-0.188,0.199-0.207
			c0.083-0.021,0.078-0.115,0.023-0.18c-0.054-0.065-0.148-0.124-0.208-0.308c-0.059-0.185-0.109-0.468-0.09-0.592
			c0.021-0.123,0.025-0.207,0.025-0.207s-0.134,0.059-0.229,0.01c-0.094-0.05-0.075-0.125-0.034-0.145
			c0.039-0.021,0.232,0.024,0.232,0.024s0.021-0.214,0.15-0.282c0.129-0.07,0.316-0.063,0.272-0.159
			c-0.046-0.095-0.04-0.264,0.064-0.304c0.104-0.038,0.377,0.005,0.446-0.038c0.069-0.045,0.317-0.294,0.292-0.368
			c-0.023-0.074-0.118-0.238-0.167-0.347c-0.051-0.11-0.074-0.204-0.185-0.124c-0.109,0.078-0.233,0.144-0.372,0.059
			c-0.14-0.084-0.248-0.114-0.392-0.07c-0.144,0.045-0.358-0.028-0.447-0.113c-0.089-0.084-0.358-0.07-0.562-0.045
			c-0.203,0.024-0.516,0.034-0.724,0.109c-0.209,0.074-0.487,0.089-0.487,0.293c0,0.203-0.061,0.422-0.214,0.531
			c-0.154,0.108-0.396,0.179-0.566,0.099c-0.168-0.079-0.341-0.204-0.461-0.287c-0.119-0.084-0.184-0.214-0.095-0.27
			c0.091-0.054,0.081-0.112,0.025-0.157c-0.055-0.045-0.21-0.075-0.243,0.035c-0.035,0.107,0.01,0.336-0.124,0.441
			c-0.134,0.104-0.259,0.203-0.269,0.282c-0.01,0.08,0.039,0.209-0.068,0.304c-0.109,0.094-0.274,0.173-0.398,0.192
			c-0.123,0.021-0.232,0.101-0.382,0.184c-0.148,0.085-0.328,0.219-0.556,0.219c-0.229,0-0.393-0.073-0.59-0.277
			c-0.2-0.204-0.433-0.428-0.641-0.765c-0.21-0.338-0.308-0.441-0.438-0.602c-0.129-0.157-0.289-0.353-0.446-0.585
			c-0.159-0.233-0.344-0.496-0.532-0.74c-0.188-0.242-0.372-0.442-0.521-0.725c-0.149-0.282-0.323-0.536-0.486-0.862
			c-0.165-0.329-0.219-0.299-0.318-0.671c-0.1-0.373-0.188-0.784-0.243-0.958c-0.055-0.174-0.144-0.571-0.219-0.571
			c-0.074,0-0.079,0.277-0.108,0.333c-0.03,0.055-0.114-0.006-0.16,0c-0.043,0.005,0.016,0.219-0.015,0.252
			c-0.028,0.035-0.109,0.075-0.093-0.104c0.014-0.179,0.033-0.432-0.175-0.383c-0.208,0.05-0.045,0.061-0.184,0.11
			c-0.139,0.049-0.129,0.157-0.074,0.184c0.055,0.025,0.213,0.068,0.199,0.214c-0.016,0.143,0.01,0.162,0.059,0.192
			c0.051,0.03,0.124,0.045,0.154,0.104c0.03,0.061,0.104,0.07,0.159,0.005c0.055-0.063,0.163-0.183,0.208-0.078
			c0.045,0.104,0.1,0.254,0.119,0.397c0.021,0.144,0.129,0.327,0.185,0.421c0.054,0.095,0.123,0.14,0.054,0.219
			c-0.07,0.08-0.03,0.188-0.03,0.269c0,0.079-0.04,0.144-0.05,0.214c-0.01,0.068,0,0.168,0.074,0.168
			c0.075,0,0.179-0.065,0.239-0.109c0.06-0.045,0.183-0.02,0.192,0.114c0.011,0.135,0.075,0.412,0.185,0.482
			c0.109,0.068,0.22,0.148,0.22,0.282s0.049,0.153,0.079,0.199c0.029,0.045,0.064,0.06,0.064,0.144c0,0.085,0.139,0.028,0.192,0.104
			c0.056,0.075,0.12,0.165,0.115,0.283c-0.005,0.119,0.079,0.119,0.139,0.199c0.06,0.079,0.144,0.184,0.162,0.247
			c0.021,0.065,0.199,0.08,0.24,0.15c0.04,0.067,0.059,0.173,0.148,0.258s0.188,0.12,0.273,0.264
			c0.084,0.143,0.282,0.322,0.287,0.446c0.006,0.125,0.124,0.108,0.184,0.209c0.061,0.099,0.089,0.094,0.13,0.202
			c0.04,0.11,0.139,0.12,0.197,0.254c0.061,0.134,0.091,0.219,0.165,0.272c0.074,0.055,0.114,0.035,0.148,0.12
			c0.035,0.083,0.061,0.134,0.153,0.144c0.095,0.01,0.229,0.064,0.284,0.144c0.054,0.08,0.064,0.139-0.025,0.139
			s-0.238-0.124-0.323-0.183c-0.084-0.06-0.218-0.055-0.382-0.135S75.129,74.873,75,74.833s-0.252-0.016-0.287,0.055
			c-0.035,0.068-0.134,0.153-0.249,0.079c-0.114-0.074-0.268-0.268-0.352-0.396c-0.085-0.13-0.154-0.407-0.233-0.367
			c-0.079,0.038-0.064,0.132-0.01,0.202c0.055,0.069-0.015,0.188-0.091,0.184c-0.074-0.005-0.392-0.005-0.347-0.119
			c0.046-0.113,0.12-0.144,0.18-0.144c0.059,0,0.054-0.163,0.103-0.224c0.051-0.059,0.189-0.174,0.309-0.197
			c0.119-0.026,0.322-0.205,0.234-0.423c-0.091-0.218-0.284-0.565-0.418-0.71c-0.135-0.144-0.253-0.203-0.297-0.343
			c-0.046-0.14-0.036-0.427-0.215-0.412c-0.178,0.016-0.297,0.179-0.377,0.179c-0.079,0-0.108-0.045-0.148-0.113
			c-0.041-0.07-0.115-0.007-0.159,0.02c-0.044,0.025-0.149,0.049-0.114-0.085c0.034-0.134,0-0.148,0.074-0.193
			c0.074-0.044,0.194-0.148,0.135-0.228c-0.061-0.08-0.185,0.07-0.239,0.104c-0.055,0.035-0.178,0.055-0.237,0.045
			s-0.119,0.025-0.189,0.021c-0.069-0.007-0.118-0.075-0.034-0.204c0.083-0.13,0.184-0.294,0.078-0.447
			c-0.103-0.154-0.177-0.214-0.231-0.148c-0.056,0.064-0.1,0.135-0.229,0.173c-0.129,0.04-0.188,0.021-0.134-0.188
			c0.056-0.207,0.089-0.322,0.194-0.327c0.104-0.005,0.262,0,0.303-0.065c0.039-0.063-0.011-0.224-0.055-0.224
			c-0.045,0-0.13,0.062-0.278,0.125c-0.149,0.065-0.348,0.174-0.412,0.304c-0.064,0.129-0.203,0.312-0.309,0.338
			c-0.103,0.023-0.148,0.023-0.144,0.089c0.005,0.064-0.024,0.158-0.099,0.158c-0.075,0-0.199-0.035-0.278-0.05
			c-0.079-0.014-0.163-0.084-0.074-0.119c0.089-0.034,0.218-0.055,0.282-0.184c0.064-0.13,0.188-0.148,0.193-0.232
			c0.006-0.085-0.015-0.214,0.035-0.233c0.051-0.021,0.056,0.078,0.144,0.035c0.091-0.045,0.125-0.16,0.175-0.244
			s0.198-0.252,0.139-0.327s-0.139-0.139-0.209-0.164c-0.068-0.025-0.207-0.154-0.271-0.104c-0.065,0.049-0.135,0.068-0.065,0.197
			c0.07,0.13,0.198,0.244,0.163,0.317c-0.033,0.075-0.109,0.035-0.188,0.01c-0.079-0.023-0.153,0-0.184,0.084
			c-0.029,0.085-0.029,0.264-0.173,0.219c-0.145-0.044-0.18-0.118-0.149-0.214c0.03-0.094,0.069-0.237,0.005-0.247
			c-0.064-0.009-0.178,0.09-0.194,0.02c-0.014-0.068-0.083-0.214-0.178-0.287c-0.095-0.075-0.149-0.146-0.135-0.268
			c0.016-0.125-0.074-0.219-0.113-0.219c-0.04,0-0.095,0.079-0.095,0.164c0,0.083-0.005,0.229-0.094,0.134
			c-0.091-0.096-0.17-0.289-0.229-0.298c-0.059-0.01-0.103,0.089-0.129,0.169c-0.023,0.078-0.089,0.113-0.143,0.073
			c-0.056-0.04-0.069-0.229-0.11-0.259c-0.039-0.028-0.129-0.123-0.223-0.099c-0.095,0.025-0.146-0.005-0.224-0.063
			c-0.079-0.061-0.209-0.075-0.228-0.021c-0.021,0.055,0.028,0.194,0.148,0.229c0.118,0.033,0.178,0.139,0.268,0.167
			c0.09,0.03,0.229,0.144,0.248,0.239c0.02,0.095,0.064,0.252,0.06,0.312c-0.004,0.06-0.03,0.06-0.074,0.06
			c-0.045,0-0.064,0-0.1,0.045c-0.034,0.045-0.108,0.059-0.154-0.005c-0.044-0.065-0.1-0.095-0.173-0.13
			c-0.074-0.035-0.153-0.139-0.135-0.192c0.02-0.057,0.175-0.015,0.213-0.015c0.04,0,0.046-0.096-0.068-0.189
			c-0.114-0.095-0.269-0.304-0.407-0.447s-0.219-0.343-0.283-0.362c-0.064-0.019-0.123-0.014-0.224,0.055
			c-0.1,0.07-0.164,0.11-0.159,0.155c0.007,0.044,0.101,0.049,0.136,0.049c0.034,0,0.034,0.084-0.105,0.123
			c-0.138,0.041-0.283,0.03-0.367,0c-0.085-0.029-0.104-0.088-0.139-0.182c-0.036-0.096-0.105-0.136-0.198-0.15
			c-0.096-0.015-0.174-0.035-0.096-0.099c0.081-0.065,0.096-0.165,0.096-0.299s0.019-0.174-0.056-0.174s-0.088,0.021-0.148-0.01
			c-0.06-0.03-0.114,0-0.095,0.07c0.021,0.069,0.079,0.173,0.079,0.257c0,0.085-0.034,0.169-0.123,0.13
			c-0.09-0.04-0.154-0.148-0.243-0.163c-0.09-0.016-0.18-0.07-0.164-0.18c0.015-0.109,0.019-0.118-0.011-0.118
			c-0.028,0-0.093,0.164-0.164,0.108c-0.068-0.055,0.021-0.188-0.01-0.238c-0.028-0.05-0.049-0.123-0.131-0.133
			c-0.083-0.009-0.107-0.102-0.149-0.115c-0.043-0.014-0.083-0.026-0.122-0.044c-0.04-0.016-0.047-0.074-0.026-0.114
			c0.019-0.04,0.072,0.003,0.139,0.053c0.065,0.049,0.151,0.083,0.221,0.119c0.069,0.035,0.186,0.065,0.245,0.032
			c0.06-0.032,0.097-0.075,0.058-0.126c-0.041-0.048,0.002-0.112,0.035-0.112c0.034,0,0.09-0.056,0.109-0.092
			c0.021-0.037,0.113-0.093,0.136-0.024c0.023,0.07,0.093,0.146,0.139,0.187c0.047,0.04,0.191,0.069,0.272,0.06
			c0.079-0.01,0.211-0.08,0.264-0.08c0.054,0,0.259,0.058,0.361,0.096c0.103,0.04,0.255,0.149,0.287,0.215
			c0.033,0.067,0.032,0.133,0.047,0.253c0.006,0.053,0.036,0.228,0.096,0.241c0.061,0.014,0.106-0.014,0.12-0.083
			c0.013-0.069-0.004-0.122,0.082-0.146c0.085-0.022,0.146,0.07,0.18,0.139c0.032,0.07,0.088,0.076,0.121,0.059
			c0.033-0.016,0.087-0.028,0.126,0.012c0.04,0.04,0.132,0.003,0.109-0.04c-0.023-0.043-0.125-0.129-0.143-0.203
			c-0.017-0.071-0.079-0.247-0.043-0.309c0.037-0.064,0.109-0.067,0.153-0.008c0.042,0.06,0.118,0.155,0.095,0.208
			c-0.022,0.053-0.078,0.083-0.04,0.117c0.04,0.031,0.13-0.021,0.179-0.083c0.051-0.064,0.061-0.136,0.007-0.193
			c-0.053-0.056-0.152-0.114-0.162-0.185c-0.01-0.069-0.062-0.1-0.075-0.179c-0.013-0.08-0.069-0.143-0.169-0.183
			c-0.1-0.039-0.202-0.102-0.166-0.162c0.036-0.06,0.126-0.072,0.184-0.072c0.056,0,0.096-0.056,0.139-0.101
			c0.042-0.041,0.188-0.028,0.221,0.03c0.032,0.061,0.189,0.289,0.235,0.382c0.046,0.092,0.176,0.237,0.218,0.33
			c0.044,0.093,0.143,0.191,0.166,0.302c0.022,0.108,0.026,0.159,0.007,0.295c-0.021,0.136,0.006,0.277,0.056,0.277
			c0.051,0,0.135-0.093,0.166-0.225c0.029-0.133,0.047-0.281,0-0.345c-0.046-0.062-0.143-0.103-0.143-0.173
			c0-0.068,0.06-0.089,0.037-0.151c-0.023-0.063,0.049-0.089,0.111-0.063c0.063,0.027,0.115,0.061,0.143,0.136
			c0.026,0.076,0.083,0.084,0.202,0.122c0.053,0.017,0.231,0.053,0.312,0.09c0.079,0.037,0.234,0.08,0.297,0.037
			c0.063-0.044,0.087-0.14,0.103-0.212c0.017-0.072,0.107-0.112,0.166-0.097c0.059,0.017,0.209,0.15,0.284,0.15
			c0.076,0,0.139-0.067,0.189-0.101c0.049-0.033,0.159,0.008,0.268,0.003c0.109-0.003,0.327,0.007,0.394,0.076
			c0.065,0.069,0.152,0.044,0.203,0.093c0.048,0.05,0.155-0.006,0.158-0.116c0.003-0.108-0.021-0.21,0.086-0.287
			c0.106-0.076,0.354-0.198,0.333-0.363c-0.019-0.166,0.051-0.166,0.077-0.15c0.026,0.018,0.07,0.141,0.097,0.19
			c0.026,0.049,0.139,0.046,0.212,0.019c0.072-0.026,0.283-0.129,0.41-0.188c0.125-0.061,0.254-0.092,0.367-0.196
			c0.111-0.102,0.204-0.32,0.204-0.426c0-0.106,0.018-0.166,0.093-0.239c0.077-0.071,0.183-0.175,0.249-0.311
			c0.065-0.136,0.017-0.337-0.037-0.396c-0.053-0.061-0.152-0.147-0.198-0.206c-0.046-0.06-0.089-0.151,0.004-0.259
			c0.092-0.104,0.125-0.157,0.142-0.119c0.017,0.04,0.011,0.136,0.051,0.166c0.039,0.029,0.053,0.062,0.099,0.056
			c0.046-0.007,0.046,0.089,0.072,0.109c0.027,0.02,0.136,0.069,0.219,0.077c0.082,0.005,0.209,0.096,0.172,0.219
			c-0.036,0.121-0.129,0.263-0.118,0.362c0.009,0.1,0.035,0.184,0.098,0.218c0.064,0.037,0.106,0.037,0.137,0.098
			c0.029,0.059,0.056,0.068,0.099,0.031c0.044-0.034,0.119-0.055,0.133-0.013c0.014,0.044-0.179,0.306-0.258,0.447
			c-0.08,0.142-0.224,0.368-0.285,0.493c-0.105,0.212-0.121,0.403-0.175,0.378c-0.053-0.027-0.17,0.053-0.231,0.105
			c-0.064,0.054-0.192,0.137-0.305,0.132c-0.113-0.003-0.179-0.046-0.245-0.009c-0.067,0.036-0.133,0.152-0.096,0.152
			s0.135,0.002,0.158,0.022c0.022,0.02,0.007,0.108-0.079,0.113c-0.086,0.003-0.146-0.021-0.188,0.043
			c-0.043,0.062-0.053,0.085-0.133,0.085c-0.079,0-0.108,0.126-0.108,0.185c0,0.061,0.046,0.19,0.136,0.163
			c0.088-0.025,0.234-0.179,0.344-0.231s0.244-0.089,0.305-0.132c0.06-0.044,0.268-0.248,0.354-0.348s0.166-0.163,0.172-0.238
			c0.008-0.076,0.117-0.306,0.175-0.44c0.047-0.106,0.101-0.159,0.146-0.242c0.085-0.152,0.143-0.265,0.229-0.396
			c0.086-0.133,0.098-0.15,0.146-0.166c0.05-0.018,0.096-0.064,0.142-0.182c0.047-0.12,0.097-0.213,0.189-0.379
			s0.176-0.271,0.182-0.333c0.008-0.063-0.039-0.129-0.129-0.08c-0.089,0.05-0.146,0.231-0.172,0.299
			c-0.026,0.065-0.057,0.172-0.143,0.099s-0.042-0.209-0.066-0.28c-0.022-0.073-0.174-0.316-0.201-0.356
			c-0.026-0.038-0.162-0.13-0.188-0.223c-0.027-0.095,0.006-0.396-0.018-0.504c-0.023-0.11-0.103-0.256-0.089-0.417
			c0.014-0.162-0.066-0.265-0.066-0.385c0-0.118-0.007-0.237,0.093-0.265c0.1-0.025,0.122,0.046,0.189,0.004
			c0.065-0.043,0.168-0.022,0.115,0.042c-0.053,0.067-0.083,0.166-0.022,0.223c0.06,0.056,0.131,0.166,0.088,0.258
			c-0.042,0.093-0.111,0.1-0.098,0.176c0.012,0.076,0.072,0.08,0.115,0.139c0.042,0.06,0.023,0.113,0.023,0.188
			c0,0.076-0.004,0.162,0.085,0.228c0.091,0.067,0.104,0.126,0.104,0.216s-0.013,0.11,0.115,0.219
			c0.13,0.109,0.226,0.188,0.265,0.132c0.04-0.056,0.082-0.156,0.086-0.271c0.004-0.117,0.123-0.146,0.152-0.08
			c0.031,0.067,0.008,0.203-0.04,0.288c-0.047,0.087-0.089,0.183-0.039,0.223s0.158-0.047,0.311-0.166
			c0.151-0.118,0.302-0.231,0.505-0.466c0.199-0.236,0.438-0.397,0.704-0.696c0.264-0.298,0.493-0.569,0.758-0.681
			c0.265-0.113,0.37-0.123,0.658-0.123s0.395-0.023,0.631-0.043c0.239-0.021,0.382-0.076,0.487-0.099
			c0.106-0.024,0.255,0.056,0.282,0.128c0.026,0.073,0.086,0.318,0.111,0.341c0.027,0.024,0.03,0.073,0.03,0.073
			s-0.003,0.034-0.037,0.105C80.327,63.963,80.294,64,80.294,64s-0.08-0.037-0.129,0.028c-0.049,0.067-0.155,0.206-0.212,0.265
			c-0.057,0.061-0.076,0.093-0.086,0.024c-0.01-0.07-0.077-0.05-0.086,0.03c-0.01,0.078-0.003,0.154-0.033,0.211
			c-0.029,0.056-0.029,0.086-0.093,0.089s-0.056,0.003-0.089-0.01c-0.034-0.013-0.084,0.03-0.037,0.063
			c0.047,0.032,0.093,0.039,0.155,0.004c0.063-0.037,0.136-0.091,0.188-0.091c0.054,0,0.119-0.088,0.199-0.171
			s0.231-0.262,0.257-0.308c0.027-0.047-0.002-0.067,0.014-0.098c0.017-0.028,0.094-0.164,0.117-0.247
			c0.022-0.083,0.029-0.156,0.075-0.226c0.047-0.069,0.112-0.1,0.14-0.208c0.026-0.109,0.007-0.238,0.115-0.343
			c0.109-0.107,0.229-0.219,0.421-0.323c0.191-0.102,0.354-0.219,0.486-0.234c0.132-0.018,0.198-0.036,0.384-0.179
			c0.186-0.142,0.367-0.192,0.477-0.192s0.354,0,0.42,0.051c0.067,0.05,0.216,0.108,0.341,0.201
			c0.127,0.093,0.199,0.185,0.192,0.268c-0.006,0.083-0.042,0.246-0.042,0.279c0,0.032-0.027,0.062-0.074,0.075
			c-0.046,0.015-0.115,0.102-0.169,0.152c-0.052,0.05-0.111,0.122-0.06,0.18c0.054,0.056,0.127-0.021,0.21-0.064
			c0.081-0.043,0.162-0.148,0.168-0.225c0.008-0.075-0.026-0.059-0.004-0.186c0.023-0.126,0.037-0.231,0.071-0.351
			c0.032-0.119,0.098-0.294,0.145-0.373c0.046-0.08,0.009-0.126-0.01-0.179c-0.021-0.053-0.037-0.094,0.032-0.104
			s0.139-0.065,0.229-0.148c0.088-0.083,0.225-0.342,0.374-0.397c0.148-0.056,0.334-0.188,0.525-0.237
			c0.192-0.05,0.341-0.11,0.454-0.239c0.112-0.13,0.249-0.361,0.399-0.321c0.153,0.04,0.275,0.133,0.354,0.153
			c0.08,0.02,0.155,0.072,0.152,0.178c-0.003,0.106-0.025,0.26,0.034,0.26c0.059,0,0.144-0.098,0.142-0.286
			c-0.003-0.188,0.168-0.346,0.269-0.584c0.099-0.239,0.153-0.303,0.263-0.472s0.317-0.257,0.382-0.372
			c0.065-0.115,0.292-0.184,0.396-0.214c0.105-0.03,0.447,0.005,0.576-0.02s0.367-0.015,0.411-0.029
			c0.046-0.017,0.136-0.135,0.284-0.214c0.148-0.08,0.428-0.04,0.535-0.03c0.11,0.01,0.185,0,0.254-0.039s0.214-0.006,0.308-0.006
			c0.096,0,0.13-0.095,0.243-0.095c0.115,0,0.259,0.026,0.269,0.145c0.01,0.119-0.04,0.343,0.04,0.368
			c0.079,0.023,0.188-0.07,0.253-0.219c0.064-0.149,0.111-0.298,0.204-0.391c0.092-0.093,0.236-0.111,0.146-0.397
			c-0.094-0.283-0.06-0.675,0.126-0.754c0.185-0.08,0.304-0.397,0.212-0.523c-0.093-0.125-0.266-0.105-0.411-0.072
			c-0.146,0.032-0.219-0.146-0.059-0.391c0.157-0.245,0.304-0.511,0.296-0.735c-0.006-0.225-0.204-0.695-0.224-0.881
			c-0.021-0.185-0.007-0.389,0.205-0.515c0.211-0.127,0.403,0,0.535-0.14c0.132-0.138,0.232-0.277,0.424-0.277
			s0.483-0.033,0.597-0.18c0.111-0.146-0.008-0.423,0.284-0.442c0.291-0.021,0.471-0.021,0.471-0.299s-0.041-0.694,0.165-0.926
			c0.204-0.233,0.469-0.212,0.536-0.312c0.065-0.099,0.423-0.212,0.615-0.139c0.192,0.072,0.284,0.37,0.588,0.231
			c0.306-0.139,0.558-0.206,0.709-0.191c0.152,0.013,0.285-0.08,0.464-0.033c0.179,0.046,0.291,0.151,0.47,0.086
			c0.178-0.067,0.363-0.113,0.529-0.113s0.397-0.133,0.59-0.06c0.19,0.074,0.442,0.014,0.635-0.185
			c0.191-0.199,0.251-0.603,0.231-0.815c-0.021-0.21-0.132-0.515-0.093-0.694c0.04-0.179,0.199-0.147,0.139-0.523
			c-0.059-0.378,0.173-0.695,0.299-0.947C99.734,48.124,100.024,47.985,99.998,47.7z"/>
	</g>
</g>
<g id="Layer_1">
</g>
</svg>
