<?xml version="1.0" encoding="iso-8859-1"?>
<!-- Generator: Adobe Illustrator 16.0.3, SVG Export Plug-In . SVG Version: 6.00 Build 0)  -->
<!DOCTYPE svg PUBLIC "-//W3C//DTD SVG 1.1//EN" "http://www.w3.org/Graphics/SVG/1.1/DTD/svg11.dtd">
<svg version="1.1" xmlns="http://www.w3.org/2000/svg" xmlns:xlink="http://www.w3.org/1999/xlink" x="0px" y="0px" width="100px"
	 height="100px" viewBox="0 0 100 100" style="enable-background:new 0 0 100 100;" xml:space="preserve">
<g id="UY">
	<path d="M74.504,93.762c0.034,0,0.068,0,0.104,0c0-0.034,0-0.068,0-0.103c0.079-0.043,0.078-0.058,0.207-0.07
		c0.198,0.135,0.969,0.616,0.694,1.039c-0.129,0.375-0.398,0.322-0.694,0.521c-0.103,0.07-0.196,0.21-0.311,0.277
		c-0.15,0.046-0.301,0.092-0.451,0.139c-0.222,0.096-0.433,0.264-0.623,0.382c-0.104,0.034-0.208,0.068-0.312,0.104
		c-0.646,0.403-1.316,0.705-2.079,1.004c-0.3,0.118-0.614,0.362-0.901,0.485c-0.231,0.101-0.425,0.112-0.658,0.208
		c-0.118,0.049-0.301,0.17-0.416,0.208c-0.093,0-0.184,0-0.277,0c-0.042,0.018-0.123,0.119-0.173,0.139
		c-0.116,0.046-0.185,0.014-0.276,0.069c-0.213,0.128-0.422,0.323-0.624,0.45c-0.186,0.081-0.37,0.162-0.556,0.243
		c-0.188,0.117-0.383,0.324-0.589,0.416c-0.386,0.173-0.803,0.189-1.213,0.347c-0.269,0.103-0.515,0.354-0.831,0.381
		c-0.246-0.259-0.654-0.291-0.971-0.485c-0.081-0.05-0.178-0.18-0.276-0.207c-0.12-0.035-0.43,0.078-0.659,0.034
		c-0.061-0.146-0.035-0.297-0.069-0.485c-0.43-0.256-1.443-0.432-2.079-0.173c-0.224,0.091-1.177,0.489-1.525,0.276
		c-0.071-0.023-0.423-0.274-0.45-0.347c-0.043-0.07,0.011-0.215-0.034-0.311c-0.104-0.093-0.208-0.186-0.312-0.277
		c-0.191-0.28-0.521-0.848-0.832-0.972c-0.74-0.294-1.793-0.019-2.529-0.208c-0.185,0.013-0.37,0.024-0.554,0.034
		c-0.188-0.057-0.335-0.222-0.486-0.31c-0.174-0.104-0.498-0.154-0.692-0.209c-0.255,0.011-0.509,0.023-0.763,0.035
		c-0.124-0.037-0.356-0.141-0.485-0.173c-0.377-0.097-0.767,0.235-1.039,0.311c-0.277,0-0.555,0-0.832,0
		c-0.4,0.115-0.739,0.406-1.075,0.589c-0.27,0.148-0.713,0.084-1.005,0.242c-0.464,0.254-0.852,0.688-1.317,0.972
		c-0.629,0.384-1.539,0.413-2.218,0.763c-0.174,0.089-0.564,0.371-0.866,0.276c-0.213-0.067-0.667-0.296-0.728-0.52
		c-0.024-0.087,0.048-0.121,0-0.208c-0.041-0.027-0.059-0.027-0.139-0.035c-0.084,0.126-0.368,0.409-0.52,0.451
		c-0.139-0.024-0.277-0.046-0.416-0.069c-0.094,0.022-0.108,0.111-0.208,0.069c-0.229-0.077-0.377-0.317-0.555-0.451
		c-0.297-0.223-0.583-0.463-0.901-0.658c-0.183-0.11-0.47-0.141-0.554-0.346c-0.036-0.054-0.035-0.143-0.035-0.244
		c0.159-0.1,0.489-0.37,0.555-0.554c-0.012,0-0.023,0-0.035,0c-0.093-0.171-0.321-0.176-0.485-0.277
		c-0.263-0.163-0.435-0.405-0.797-0.484c-0.555,0.046-1.109,0.092-1.663,0.139c-0.429-0.104-0.636-0.564-1.04-0.729
		c-0.208-0.084-0.48-0.153-0.659-0.208c-0.15,0-0.301,0-0.451,0c-0.598-0.159-1.3-0.278-1.872-0.52
		c-0.288-0.122-0.659-0.277-0.935-0.45c-0.052-0.033-0.116-0.149-0.173-0.174c-0.217-0.09-0.283,0.016-0.486-0.139
		c-0.168-0.128-0.091-0.331-0.208-0.519c-0.149-0.242-0.501-0.385-0.728-0.556c-0.127-0.149-0.254-0.3-0.381-0.45
		c-0.235-0.16-1.051-0.483-1.178-0.658c-0.146-0.201-0.145-0.511-0.278-0.728c-0.236-0.387-0.594-0.78-0.9-1.109
		c-0.523-0.007-0.91-0.195-1.283-0.312c-0.357,0-0.716,0-1.074,0c-0.508,0.012-1.017,0.022-1.524,0.034
		c-0.118-0.026-0.289-0.122-0.382-0.139c-0.124-0.021-0.229,0.08-0.312,0.104c-0.397,0.112-0.625,0.089-0.936,0
		c-0.396-0.113-1.008,0.644-1.49,0.346c-0.235-0.075-0.406-0.283-0.555-0.45c-0.68-0.021-1.009,0.243-1.525,0.416
		c-0.069,0-0.139,0-0.208,0c-0.287,0.086-0.67,0.215-0.935,0.312c-0.332,0.122-0.795-0.011-1.144,0.104
		c-0.309,0.102-0.446,0.303-0.901,0.312c-0.095-0.188-0.279-0.23-0.381-0.381c-0.034-0.116-0.069-0.232-0.104-0.348
		c-0.058-0.046-0.115-0.093-0.173-0.138c-0.185-0.544-0.37-1.086-0.555-1.63c-0.276-0.444-0.688-0.827-1.005-1.247
		c-0.081-0.069-0.162-0.139-0.243-0.208c-0.138-0.197-0.343-0.59-0.52-0.728c-0.289-0.227-0.594-0.374-0.901-0.588
		c-0.214-0.151-0.128-0.399-0.243-0.659c-0.056-0.126-0.299-0.352-0.416-0.417c-0.248-0.137-0.796-0.135-1.074-0.207
		c-0.17-0.045-0.397,0.039-0.52-0.035c-0.19-0.064-0.361-0.258-0.416-0.451c0-0.161,0-0.322,0-0.484
		c-0.066-0.24-0.47-0.93-0.624-1.144c-0.18-0.25-0.548-0.378-0.693-0.659c-0.023-0.115-0.045-0.229-0.069-0.346
		c-0.075-0.203-0.288-0.501-0.45-0.624c-0.484-0.368-1.297-0.644-1.524-1.247c-0.115-0.305-0.005-0.612-0.104-0.971
		c-0.058-0.211-0.218-0.436-0.277-0.659c0-0.161,0-0.322,0-0.484c-0.001-0.191-0.037-0.344-0.069-0.484c0-0.266,0-0.533,0-0.798
		c-0.05-0.232-0.012-0.542-0.069-0.797c-0.036-0.158-0.138-0.471-0.104-0.658c0.048-0.27,0.148-0.589,0.208-0.832
		c0.034-0.141-0.016-0.364-0.035-0.451c-0.082-0.373-0.167-1.446-0.069-1.802c0.042-0.156,0.083-0.474,0.173-0.623
		c0.196-0.322,0.551-0.588,0.658-1.005c0.037-0.145-0.044-0.263-0.069-0.347c-0.023-0.115-0.046-0.231-0.069-0.348
		c-0.137-0.236-0.459-0.165-0.52-0.519c0.104-0.278,0.208-0.555,0.312-0.832c0.079-0.111,0.272-0.159,0.381-0.242
		c0.142-0.11,0.263-0.509,0.312-0.693c0.094-0.354-0.01-0.911-0.069-1.178c-0.012-0.221-0.023-0.44-0.035-0.659
		c-0.087-0.378-0.159-0.839-0.243-1.213c-0.062-0.279,0.062-0.472,0.07-0.728c0.301-0.186,0.678-0.442,1.039-0.554
		c0.433-0.135,0.908-0.141,1.317-0.243c0.423-0.107,1.105-0.103,1.248-0.45c0.218-0.31,0.205-1.067,0.104-1.525
		c0.034-0.439,0.068-0.878,0.104-1.316c0.05-0.229,0.157-1.313,0.069-1.595c-0.079-0.253-0.263-0.545-0.346-0.796
		c-0.122-0.368-0.156-0.736-0.243-1.11c-0.053-0.228-0.001-0.623,0.035-0.796c-0.023-0.624-0.046-1.248-0.069-1.872
		c-0.26-1.035-0.695-2.089-0.971-3.118c-0.093-0.349,0.09-0.737,0.174-0.936c0.327-0.78,0.536-1.254,1.005-1.872
		c0.171-0.226,0.49-0.207,0.52-0.588c0.094-0.104,0.05-1.098-0.035-1.213c-0.086-0.239-0.357-0.384-0.52-0.555
		c-0.333-0.351-0.794-0.875-0.935-1.386c-0.182-0.659,0.267-1.048,0.416-1.386c0.18-0.406,0.012-0.92,0.07-1.317
		c0.03-0.209,0.172-0.589,0.104-0.832c-0.08-0.282-0.215-0.758-0.381-1.004c-0.168-0.249-0.809-0.657-0.693-1.144
		c0.119-0.498,0.651-1.086,1.109-1.248c0.288-0.101,0.572-0.034,0.866-0.138c0.221-0.078,0.567-0.322,0.728-0.485
		c0.379-0.386,0.229-1.141,0.417-1.732c0.237-0.749,0.981-2.301,0.589-3.188c-0.276-0.624-0.999-0.86-1.525-1.247
		c-0.09-0.066-0.13-0.198-0.208-0.277c-0.004-0.128-0.015-0.308,0.035-0.382c0.096-0.28,0.459-0.681,0.728-0.797
		c0.226-0.098,0.524-0.091,0.658-0.277c0.144-0.2,0.249-0.451,0.312-0.728c-0.012-0.312-0.023-0.623-0.035-0.935
		c0.083-0.254,0.368-0.362,0.554-0.52c0.144-0.122,0.49-0.639,0.554-0.832c0.106-0.319,0.25-0.898,0.139-1.351
		c-0.068-0.279-0.237-0.723-0.139-1.144c0.14-0.6,0.814-0.832,0.624-1.698c-0.075-0.345-0.161-0.696-0.242-1.006
		c-0.012-0.208-0.023-0.416-0.035-0.624c-0.126-0.437-0.542-0.395-0.416-1.074c0.257-0.15,0.516-0.339,0.833-0.45
		c0.224-0.079,0.611,0.008,0.762-0.07c0.668-0.219,0.176-1.017,0.312-1.664c0.113-0.538-0.096-1.23-0.208-1.663
		c-0.012-0.196-0.023-0.393-0.035-0.589c-0.067-0.192-0.279-0.363-0.381-0.52c-0.145-0.223-0.095-0.632-0.208-0.831
		c-0.129-0.228-0.383-0.364-0.589-0.52c-0.081-0.104-0.162-0.208-0.242-0.312c-0.004-0.464-0.125-1.542,0.034-1.906
		c0.172-0.394,0.802-0.885,1.144-1.144c0.092-0.104,0.185-0.208,0.277-0.312c0.229-0.156,0.507-0.218,0.728-0.381
		c0.162-0.185,0.324-0.37,0.485-0.555c0.351-0.265,0.591-0.599,0.901-0.901c0.104-0.08,0.208-0.161,0.312-0.242
		c0.121-0.179,0.131-0.409,0.243-0.589c0.068-0.109,0.209-0.208,0.277-0.312c0.214-0.325,0.191-1.201,0.035-1.593
		c-0.045-0.114-0.203-0.22-0.243-0.347c-0.066-0.209,0.069-0.573,0.173-0.624c0.242,0,0.485,0,0.728,0
		c0.101,0.074,0.273,0.066,0.381,0.139c0.164,0.109,0.425,0.42,0.484,0.624c0.076,0.252-0.104,0.471-0.068,0.693
		c0.155,0.101,0.285,0.25,0.485,0.312c0.126,0.011,0.254,0.022,0.381,0.035c0.093,0.024,0.281,0.127,0.451,0.069
		c0.125-0.042,0.215-0.236,0.346-0.277c0.262-0.081,0.707,0.123,0.901,0.173c0.099,0.182,0.178,0.375,0.312,0.519
		c0.251-0.09,0.263-0.353,0.451-0.484c0.189-0.134,0.713-0.188,0.97-0.208c0.18,0.169,0.421,0.27,0.589,0.45
		c0.136-0.044,0.259-0.18,0.347-0.276c0.46-0.001,0.4,0.272,0.728,0.346c0.103-0.081,0.262-0.062,0.381-0.138
		c0.115-0.074,0.721-0.777,0.762-0.901c0.138-0.414-0.169-0.818,0.07-1.178c0.085-0.128,0.29-0.159,0.381-0.277
		c0.131-0.17,0.118-0.436,0.243-0.625c0.189-0.283,0.53-0.48,0.763-0.727c0.317,0.005,0.504,0.26,0.866,0.139
		c0.169-0.056,0.31-0.217,0.52-0.277c0.286-0.082,0.616-0.007,0.866-0.069c0.304-0.077,0.67,0.368,0.762,0.277
		c0.194-0.066,0.291-0.257,0.451-0.312c0.239-0.083,0.95,0.075,1.109,0.139c0.281,0.113,0.544,0.237,0.693,0.485
		c0.149,0.249,0.112,0.603,0.346,0.763c0.156,0.106,0.365,0.104,0.52,0.208c0.218,0.146,0.431,0.386,0.658,0.52
		c0.139,0.046,0.278,0.092,0.416,0.138c0.361,0.22,0.903,0.608,1.04,1.04c0.077,0.245-0.051,0.477-0.069,0.659
		c0.06,0.021,0.109,0.031,0.208,0.034c0.286-0.176,0.672,0.149,0.797,0.277c0.173,0.178,0.266,0.423,0.416,0.624
		c0.388,0.524,0.992,0.937,1.524,1.317c0.264,0.189,0.648,0.359,0.832,0.625c0.204,0.293,0.34,0.793,0.624,1.004
		c0.454,0.338,1.025,0.539,1.49,0.866c0.097,0.067,0.313,0.215,0.381,0.312c0.089,0.129,0.105,0.308,0.243,0.382
		c0.16,0.084,0.314,0.045,0.45,0.138c0.166,0.112,0.132,0.276,0.243,0.45c0.128,0.2,0.472,0.257,0.589,0.417
		c0.153,0.208,0.135,0.494,0.277,0.728c0.211,0.345,0.679,0.474,0.901,0.797c0.253,0.368,0.307,0.883,0.554,1.248
		c0.31,0.457,0.905,0.712,1.352,1.04c0.076,0.055,0.37,0.624,0.416,0.727c0.221,0.499,0.085,1.319-0.104,1.732
		c-0.044,0.098-0.17,0.206-0.208,0.312c-0.148,0.423-0.035,1.093-0.035,1.594c0,0.51-0.221,1.359,0.104,1.525
		c0.2,0.112,0.599-0.084,0.867-0.07c0.237,0.013,0.463,0.179,0.762,0.104c0.276-0.07,0.551-0.134,0.97-0.139
		c0.188-0.284,0.435-0.771,0.728-0.936c0.241-0.136,0.567-0.07,0.693-0.312c0.181-0.21,0.225-0.752,0.347-1.039
		c0.071-0.168,0.327-0.287,0.45-0.416c0.162,0,0.323,0,0.485,0c0.145,0.034,0.321,0.236,0.521,0.173
		c0.086-0.027,0.146-0.149,0.207-0.208c-0.024-0.447-0.152-1.361,0.104-1.733c0.093-0.069,0.186-0.139,0.277-0.208
		c0.48-0.002,0.906,0.042,1.109,0.312c0.085,0.115,0.127,0.302,0.243,0.382c0.092,0.035,0.185,0.069,0.276,0.104
		c0.289,0.254,0.577,0.508,0.866,0.762c0.16,0.168,0.259,0.46,0.451,0.589c0.268,0.181,0.639,0.094,0.832,0.381
		c0.143,0.214,0.096,0.551,0.242,0.763c0.133,0.19,0.368,0.274,0.554,0.416c0.14,0.106,0.702,0.959,0.764,1.144
		c0.115,0.348-0.069,0.572-0.105,0.832c-0.015,0.113,0.048,0.147,0.07,0.242c1.278,0.339,0.882,1.321,1.49,2.218
		c0.258,0.38,0.87,0.392,1.316,0.589c0.595,0.263,0.782,1.143,1.524,1.214c0.057-0.051,0.17-0.073,0.208-0.14
		c0.109-0.186,0.036-0.382,0.104-0.624c0.053-0.188,0.163-0.293,0.277-0.416c0.221-0.018,0.33-0.01,0.521,0.035
		c0.073,0.115,0.204,0.205,0.276,0.312c0.097,0.145,0.11,0.308,0.208,0.45c0.208,0.196,0.416,0.393,0.623,0.589
		c0.167,0.227,0.29,0.537,0.52,0.693c0.22,0.093,0.44,0.185,0.659,0.277c0.136,0.095,0.115,0.272,0.207,0.416
		c0.064,0.097,0.484,0.427,0.59,0.485c0.248,0.135,0.634,0.212,0.901,0.278c0.427-0.012,0.854-0.023,1.282-0.035
		c0.418,0.098,0.753,0.321,1.144,0.416c0.288,0.07,0.556-0.094,0.832,0c0.47,0.162,0.556,0.846,0.831,1.212
		c0.337,0.449,1.289,0.96,1.49,1.457c0.151,0.374,0.037,1.251,0.034,1.732c0.104,0.065,0.184,0.18,0.277,0.243
		c0.226,0.149,0.474,0.197,0.693,0.346c0.115,0.127,0.23,0.254,0.347,0.381c0.06,0.045,0.132,0.045,0.173,0.104
		c0.298,0.421,0.537,0.859,0.866,1.247c0.25,0.293,0.651,0.469,0.971,0.693c0.299,0.211,0.503,0.551,0.798,0.763
		c0.096,0.069,0.21,0.07,0.311,0.139c0.35,0.237,0.888,1.144,1.317,1.178c0.189-0.297,0.418-0.519,0.659-0.763
		c0.578-0.043,0.462,0.128,0.796,0.347c0.143,0.092,0.354,0.074,0.451,0.208c0.108,0.148,0.098,0.371,0.277,0.451
		c0.097,0.086,0.422,0.142,0.554,0.173c0.081-0.012,0.163-0.022,0.243-0.035c0.202,0.048,0.523,0.163,0.693,0.277
		c0.181,0.124,0.714,0.632,0.797,0.832c0.011,0.15,0.022,0.3,0.034,0.451c0.087,0.197,0.61,0.56,0.798,0.693
		c0.316,0.225,1.169,0.133,1.316,0.52c0.16,0.223-0.028,0.605,0.034,0.866c0.06,0.247,0.229,0.429,0.312,0.624
		c0.091,0.21,0.049,0.389,0.139,0.625c0.115,0.304,0.537,0.54,0.728,0.796c0.159,0.215,0.133,0.436,0.242,0.728
		c0.074,0.196,0.247,0.416,0.312,0.624c0.098,0.317-0.044,0.595-0.103,0.832c-0.037,0.145,0.178,1.16,0.242,1.248
		c0.076,0.105,0.208,0.128,0.311,0.208c0.045,0.034,0.279,0.332,0.313,0.381c0.14,0.208,0.173,0.451,0.311,0.659
		c0.154,0.232,0.654,0.845,0.867,1.004c0.259,0.196,0.818,0.391,1.005,0.625c0.309,0.388,0.504,1.096,0.936,1.351
		c0.227,0.134,0.519-0.004,0.762,0.104c0.315,0.14,0.562,0.51,0.902,0.624c0.263,0.089,0.433-0.125,0.658-0.069
		c0.255,0.063,0.337,0.291,0.52,0.416c0.157,0.106,0.325,0.097,0.52,0.173c0.197,0.077,0.309,0.248,0.451,0.381
		c-0.021,0.61-0.092,1.081-0.104,1.664c-0.059,0.034-0.113,0.117-0.174,0.138c-0.22,0.079-0.358,0.005-0.52,0.104
		c-0.158,0.098-0.317,0.311-0.484,0.381c-0.315,0.133-0.894,0.258-0.971,0.59c0.195,0.209,0.361,1.048,0.381,1.422
		c-0.132,0.104-0.138,0.316-0.242,0.449c-0.143,0.18-0.391,0.057-0.45,0.346c0.061,0.067,0.064,0.108,0.068,0.244
		c-0.08,0.091-0.161,0.184-0.242,0.276c-0.129,0.091-0.282,0.125-0.382,0.243c-0.011,0-0.022,0-0.033,0c0,0.034,0,0.068,0,0.104
		c0.124,0.115,0.257,0.188,0.415,0.277c-0.022,0.061-0.007,0.033-0.034,0.069c-0.038,0.109-0.074,0.103-0.139,0.173
		c-0.628,0.044-1.903-0.274-2.496,0.069c-0.316,0.184-0.313,0.67-0.52,0.97c-0.077,0.114-0.234,0.16-0.346,0.243
		c-0.155,0.115-0.346,0.394-0.451,0.555c-0.184,0.279-0.257,0.817-0.658,0.867c-0.161-0.264-0.073-0.409-0.139-0.764
		c-0.062-0.033-0.058-0.043-0.14-0.068c-0.01,0.021-0.022,0.046-0.034,0.068c-0.167,0.215,0.089,0.551,0.104,0.866
		c-0.208,0.226-0.097,0.213-0.416,0.382c0.143,0.31,0.303,0.567,0.312,1.005c-0.124,0.142-0.074,0.265-0.346,0.277
		c-0.07,0.041-0.116,0.005-0.173,0.034c-0.086,0.045-0.024-0.014-0.07,0.069c-0.257,0.298,0.434,1.399,0.623,1.525
		c0.247,0.162,0.543,0.01,0.66,0.312c0.188,0.294-0.461,0.94-0.486,1.352c0.184,0.172,0.37,0.348,0.556,0.52
		c-0.058,0.563-0.636,0.979-0.451,1.768c0.156,0.667,0.616,1.021,0.798,1.629c0,0.207,0,0.415,0,0.623
		c0.156,0.728,0.04,1.652,0.172,2.288c0.514,0.332,0.695,0.097,1.282,0.069c0.201,0.317,0.347,0.932,0.659,1.144
		c0.232,0.157,0.325,0.012,0.52,0.068c0.057,0.018,0.119,0.107,0.174,0.14c-0.14,0.271-0.408,0.297-0.624,0.484
		c-0.485,0.424-0.911,0.992-1.248,1.561c-0.351,0.592-0.382,1.371-0.589,2.114c0.012,0.114,0.023,0.229,0.034,0.346
		c-0.082,0.357-0.358,0.605-0.45,0.936c-0.061,0.217,0.065,0.449,0.034,0.624c-0.043,0.244-0.122,0.463-0.172,0.693
		c-0.39,0.242-0.923,0.455-1.179,0.831c-0.202,0.298-0.33,0.565-0.59,0.797c-0.34,0.303-0.876,0.532-1.143,0.901
		c-0.18,0.247-0.25,0.53-0.416,0.797c-0.117,0.188-0.363,0.381-0.45,0.589c-0.086,0.203-0.028,0.35-0.104,0.589
		c-0.073,0.229-0.244,0.543-0.312,0.763c-0.153,0.49,0.222,0.631,0.242,1.005c-0.142,0.17-0.232,0.395-0.416,0.52
		c-0.176,0.12-0.377,0.12-0.589,0.208c-0.408,0.172-0.901,0.423-1.282,0.659c-0.8,0.495-1.493,1.134-2.219,1.697
		c-0.213,0.166-0.28,0.52-0.484,0.693c-0.436,0.372-0.834,0.683-1.213,1.109c-0.1,0.111-0.286,0.202-0.346,0.348
		c-0.073,0.173,0.031,0.466,0,0.657c-0.184,0.104-0.609,0.16-0.832,0.208c-0.192,0.04-0.359-0.063-0.59,0
		c-0.104,0.029-0.277,0.149-0.381,0.174c-0.166,0.036-0.207-0.08-0.277-0.14c0.073-0.267,0.262-0.261,0.277-0.59
		c-0.111-0.088-0.049-0.118-0.104-0.275c-0.218-0.627,0.015-0.616,0.104-1.109c-0.062-0.055-0.045-0.068-0.139-0.104
		c-0.074-0.05-0.253-0.039-0.381-0.034c-0.054,0.104-0.078,0.307-0.104,0.45c-0.4,0.12-0.668,0.436-0.936,0.692
		C74.48,93.625,74.491,93.693,74.504,93.762z"/>
</g>
<g id="Layer_1">
</g>
</svg>
