<?xml version="1.0" encoding="iso-8859-1"?>
<!-- Generator: Adobe Illustrator 16.0.3, SVG Export Plug-In . SVG Version: 6.00 Build 0)  -->
<!DOCTYPE svg PUBLIC "-//W3C//DTD SVG 1.1//EN" "http://www.w3.org/Graphics/SVG/1.1/DTD/svg11.dtd">
<svg version="1.1" xmlns="http://www.w3.org/2000/svg" xmlns:xlink="http://www.w3.org/1999/xlink" x="0px" y="0px" width="100px"
	 height="100px" viewBox="0 0 100 100" style="enable-background:new 0 0 100 100;" xml:space="preserve">
<g id="YE">
	<g>
		<g>
			<path d="M3.338,49.828c-0.381-0.026-0.509,0.203-0.459,0.306c0.052,0.101,0.384,0.127,0.612,0.127c0.23,0,0.382-0.23,0.179-0.306
				C3.467,49.878,3.338,49.828,3.338,49.828z"/>
			<ellipse cx="4.728" cy="48.501" rx="0.166" ry="0.281"/>
			<path d="M2.727,51.255c-0.178,0-0.331,0.458-0.15,0.688c0.175,0.229,0.508,0.177,0.406-0.128
				C2.879,51.509,2.727,51.255,2.727,51.255z"/>
			<ellipse cx="0.229" cy="54.542" rx="0.229" ry="0.202"/>
			<path d="M1.491,55.002c-0.178-0.192-0.483-0.32-0.611-0.32c-0.126,0-0.165,0.192-0.154,0.383c0.014,0.191-0.063,0.485,0.46,0.751
				c0.522,0.269,0.726-0.013,0.689-0.216C1.836,55.396,1.491,55.002,1.491,55.002z"/>
			<path d="M0.637,55.791c-0.164-0.088-0.419,0.038-0.253,0.166c0.164,0.127,0.56,0.307,0.56,0.127S0.637,55.791,0.637,55.791z"/>
			<g>
				<g>
					<g>
						<g>
							<path d="M4.524,52.057c-0.114-0.229-0.612,0.19-0.841,0.497c-0.228,0.306-0.267,0.343,0.076,0.343
								c0.344,0,0.383,0.04,0.689-0.228C4.754,52.401,4.524,52.057,4.524,52.057z"/>
							<path d="M7.698,59.052c-0.191,0-0.23,0.689-0.114,0.689c0.114,0,0.229,0.038,0.229-0.268
								C7.812,59.167,7.698,59.052,7.698,59.052z"/>
							<circle cx="4.563" cy="50.757" r="0.192"/>
						</g>
						<path d="M12.208,74.727c-0.534,0-1.07,0.611-0.688,0.766c0.381,0.152,0.841-0.077,0.841-0.077s0.764,0.077,0.611-0.307
							C12.82,74.727,12.208,74.727,12.208,74.727z"/>
					</g>
					<path d="M6.218,64.303c0.511,0.61,0.765,0.203,0.765-0.306s-0.356-0.815-0.356-0.815S5.709,63.69,6.218,64.303z"/>
					<path d="M6.015,65.78c-0.56,0.357-0.765,0.816-0.56,0.97c0.203,0.152,0.916-0.153,1.172-0.358
						c0.255-0.202,0.611-0.713,0.406-0.917C6.831,65.271,6.015,65.78,6.015,65.78z"/>
				</g>
				<path d="M95.317,70.407c-0.381,0.268-0.726,0.306-0.993,0.306s-0.65,0.459-0.498,0.572c0.152,0.115-0.152,0.268-0.42,0.19
					c-0.268-0.075-0.88-0.267-1.108-0.648c-0.23-0.383-0.268-0.573-0.573-0.573c-0.307,0-0.459,0.075-0.727-0.039
					c-0.269-0.114-0.573,0.192-0.65,0.422c-0.076,0.229-0.534,0.42-0.727,0.42c-0.191,0,0,0.306,0.114,0.611
					c0.116,0.307,0.23,0.42-0.114,0.535c-0.343,0.114-0.459,0.192-0.343,0.344c0.114,0.152,0.649,0.115,0.955,0.306
					c0.306,0.191,0.611,0.382,0.765,0.574c0.151,0.19,0.229,0.535,0.307,0.688c0.075,0.153,0.381,0,0.726,0.038
					c0.343,0.04,0.763,0.422,1.644,0.153c0.881-0.268,1.644-0.535,2.18-0.307c0.535,0.229,1.186-0.113,1.339-0.497
					c0.153-0.381,0.688-1.185,1.069-1.185c0.383,0,0.993-0.458,0.993-0.458s0.881-0.459,0.728-0.65
					c-0.154-0.19-0.728,0.116-0.995-0.115c-0.267-0.228-0.381-0.267-0.879-0.267c-0.496,0-0.726-0.267-1.107-0.459
					c-0.382-0.191-0.574-0.459-0.955-0.421C95.662,69.985,95.317,70.407,95.317,70.407z"/>
				<path d="M87.443,74.879c-0.537,0.077-0.69,0.191-0.69,0.422c0,0.229,0.422,0.229,0.422,0.229s0.764,0.229,0.955,0.039
					c0.192-0.192,0.268-0.498,0.039-0.612C87.938,74.841,87.443,74.879,87.443,74.879z"/>
				<path d="M89.43,75.415c-0.382,0-0.802,0.268-0.802,0.42s0.343,0.191,0.573,0.229c0.229,0.038,0.689-0.077,0.689-0.268
					C89.891,75.605,89.43,75.415,89.43,75.415z"/>
				<path d="M82.167,75.338c-0.497,0.038-1.529,0-1.529,0.421s0.804,0.421,1.452,0.421c0.651,0,1.551-0.23,1.529-0.535
					C83.581,75.108,82.167,75.338,82.167,75.338z"/>
			</g>
		</g>
		<path d="M83.794,23.82c-0.863,0.479-1.756,0.959-3.729,1.973c-4.015,2.065-8.066,3.557-11.354,4.972s-6.23,2.827-9.596,4.241
			c-3.364,1.416-5.122,2.524-7.951,3.747c-2.827,1.224-4.663,2.523-6.536,3.671c-1.873,1.146-3.556,2.332-3.556,2.332
			s-0.345-0.269-1.491-0.956c-1.146-0.688-1.797-1.224-3.058-1.76c-1.261-0.533-2.868-1.375-4.779-2.102
			c-1.912-0.727-4.243-1.033-6.651-1.643c-2.409-0.612-4.053-0.689-6.231-0.995c-2.179-0.305-4.168,0.037-4.894,0.037
			s-1.3-0.496-2.065-0.993c-0.764-0.497-0.878-0.038-1.605,0.23c-0.726,0.267-1.071,1.299-1.299,2.521
			c-0.23,1.224,0.037,1.568,0.534,1.683s0.498,0.956,0.078,1.146c-0.42,0.191-0.689,0.306-0.804,0.612
			c-0.114,0.306-0.114,0.726-0.459,1.416c-0.343,0.687-0.879,0.609-1.3,0.344c-0.419-0.269-0.878-0.191-0.878-0.191
			s0.305,1.146,0.344,1.643c0.037,0.497,0.382,1.185,0.382,1.683s0.038,1.223-0.382,1.452c-0.42,0.23-0.458,0.496-0.458,0.611
			s0,0.804-0.192,0.881c-0.191,0.076-0.345,0.419-0.114,0.803c0.229,0.381,0.649,0.765,0.649,1.068c0,0.307,0.116,0.689,0.153,0.803
			c0.039,0.116,0.153,0.575-0.42,0.422s-0.688-0.306-0.84-0.575c-0.154-0.265-0.345,0.23-0.268,0.422
			c0.076,0.191-0.153,0.269-0.383,0.269c-0.229,0-0.726,0.153,0.039,0.457c0.765,0.307,1.605,0.344,1.989,0.498
			c0.381,0.152,0.306,0.879,0.42,1.146s0.498,0.803,0.688,1.146c0.191,0.345,0.268,0.727-0.076,0.613
			C7.354,57.333,7.2,56.797,7.2,56.797s0.268,1.261,0.268,1.454c0,0.191,0.689,0.457,0.689,0.801c0,0.346,0.19,0.766,0.037,0.995
			c-0.152,0.229,0.039,0.803,0.27,1.262c0.229,0.458,0.496,1.337,0.496,1.759c0,0.421,0.267,1.298,0.688,1.491
			c0.42,0.191,0.651,0.878,0.651,1.375c0,0.496,0,1.529,0.039,2.333c0.038,0.802,0.189,1.146-0.039,1.719
			c-0.23,0.575,0.039,1.34,0.344,1.606c0.306,0.268,0.727,0.459,1.07,0.955c0.344,0.497,0.612,0.574,0.612,0.917
			c0,0.067,0.011,0.11,0.03,0.138c-0.015,0.397,0.028,0.704,0.2,0.704c0.496,0,0.61-0.382,1.069-0.344
			c0.459,0.037,1.491,0.23,1.911,0.649c0.422,0.421,1.11,0.612,1.416,0.345c0.304-0.268,1.375-0.306,1.72-0.268
			c0.345,0.038,0.726-0.152,1.107-0.574c0.383-0.419,0.765-0.84,1.187-0.84c0.421,0,0.802-0.077,0.956,0.189
			c0.153,0.269,0.459,0.231,0.804,0.191c0.343-0.038,0.955-0.229,1.452-0.038c0.496,0.191,1.031,0.038,1.031-0.42
			c0-0.46-0.343-0.611,0-1.069c0.344-0.46,0.956-0.575,1.376-0.766s0.842-0.574,1.148-1.033c0.304-0.458,1.339-1.261,1.912-1.528
			c0.573-0.268,0.994-0.305,1.642-0.305c0.651,0,1.11-0.078,1.605-0.345c0.498-0.267,1.416-0.23,2.066,0
			c0.649,0.23,1.336,0.42,2.14,0.306s1.644-0.459,2.409-0.766c0.764-0.306,1.567-0.534,2.713-0.955
			c1.147-0.42,1.567-0.649,1.759-1.146c0.191-0.497,0.536-0.955,1.071-1.185c0.534-0.23,1.224-0.536,1.605-0.917
			c0.381-0.384,1.032-0.804,1.759-0.229c0.726,0.572,2.292,0.726,2.56,0.726c0.269,0,0.728-0.688,1.109-0.842
			c0.382-0.153,1.147-0.229,1.567-0.649c0.422-0.419,0.23-1.146,0.765-1.376c0.536-0.229,0.459-1.147,0.689-1.491
			c0.229-0.344,0.841-0.918,1.452-1.339c0.612-0.42,1.567-1.338,2.638-1.796c1.069-0.458,1.682-0.611,2.6-0.841
			s1.683-0.535,1.95-0.764c0.267-0.229,1.107-0.115,1.185-0.46c0.075-0.344,0.918-0.611,1.912-0.84
			c0.993-0.23,0.954-0.307,3.21-1.033c2.257-0.726,2.602-1.071,3.441-1.452c0.841-0.382,1.682-0.46,1.682-0.46
			s0.23-0.266,0.572-0.611c0.346-0.343,1.11-0.573,1.875-0.916c0.763-0.346,1.834-0.843,2.062-0.957
			c0.23-0.113,0.308-0.19,0.078-0.726c-0.23-0.536-0.612-1.987-0.498-2.791c0.116-0.803,0.268-1.758,0.804-2.217
			c0.534-0.459,1.032-0.917,1.72-1.262c0.689-0.345,2.332-0.994,2.791-1.263c0.458-0.267,0.903-0.419,0.903-0.419s0,0-0.507-4.688
			C84.688,32.19,84.186,27.491,83.794,23.82z"/>
	</g>
</g>
<g id="Layer_1">
</g>
</svg>
