<?xml version="1.0" encoding="iso-8859-1"?>
<!-- Generator: Adobe Illustrator 16.0.3, SVG Export Plug-In . SVG Version: 6.00 Build 0)  -->
<!DOCTYPE svg PUBLIC "-//W3C//DTD SVG 1.1//EN" "http://www.w3.org/Graphics/SVG/1.1/DTD/svg11.dtd">
<svg version="1.1" xmlns="http://www.w3.org/2000/svg" xmlns:xlink="http://www.w3.org/1999/xlink" x="0px" y="0px" width="100px"
	 height="100px" viewBox="0 0 100 100" style="enable-background:new 0 0 100 100;" xml:space="preserve">
<g id="ZM">
	<path style="fill:#010101;" d="M74.761,7.02c0.102,0.014,0.202,0.022,0.309,0.034c0.543,1.274,1.256,3.362,2.748,3.597
		c0.326,0.054,0.57-0.262,0.948-0.304c0.161,0.113,0.317,0.226,0.474,0.339c0.387-0.007,0.543-0.178,0.916-0.203
		c0.083,0.078,0.185,0.244,0.276,0.304c0.151,0.108,0.29-0.009,0.474,0.069c0.093,0.039,0.977,0.721,1.018,0.814
		c0.105,0.189-0.046,0.479,0.032,0.78c0.083,0.307,0.838,0.909,1.257,0.916c0.419-0.317,1.758-0.058,1.933,0.373
		c0.12,0.348-0.308,0.96,0.341,1.02c0.35-0.297,0.672-0.058,1.018,0.032c0.17,0.012,0.341,0.023,0.511,0.034
		c0.249,0.137,0.363,0.483,0.677,0.578c0.502,0.145,1.229-0.202,1.666,0.066c0.405,0.254,0.631,0.967,0.879,1.087
		c0.405,0.273,1.367,0.105,1.869,0.306c0.304,0.122,0.387,0.539,0.645,0.714c0.258,0.09,0.521,0.18,0.777,0.269
		c0.212,0.15,0.152,0.47,0.309,0.68c0.175,0.234,0.456,0.149,0.507,0.543c-0.11,0.177-0.171,0.465-0.134,0.679
		c0.202,0.046,0.405,0.09,0.612,0.136c0.088-0.09,0.18-0.18,0.271-0.271c0.276,0.002,0.604,0.019,0.778,0.136
		c0.562,0.375,0.146,0.748,0.34,1.086c0.364,0.636,1.238,0.824,1.289,1.766c-0.239,0.327-0.552,0.663-0.575,1.188
		c0.234,0.26,0.479,0.302,0.778,0.509c0.138,0.159,0.271,0.317,0.409,0.477c0.29,0.205,0.507,0.334,0.746,0.575
		c0,0.377-0.198,0.658-0.134,0.95c0.161,0.783,1.067,1.218,1.252,1.901c0.166,0.614-0.57,0.87-0.847,1.086
		c-0.465,0.364-0.658,0.946-1.188,1.255c-0.332,0.19-0.824-0.025-1.188,0.17c-0.102,0.113-0.203,0.226-0.309,0.339
		c0.037,0.497,0.119,1.213,0.341,1.562c0.184,0.283,0.538,0.566,0.579,0.982c0.028,0.322-0.308,0.626-0.441,0.814
		c-0.263,0.368-0.317,0.826-0.58,1.223c-0.083,0.129-0.295,0.253-0.405,0.373c0.061,0.278-0.004,0.562,0.032,0.814
		c0.222,0.11,0.47,0.182,0.512,0.477c0.009,0.35,0.022,0.699,0.032,1.052c0.06,0.338-0.015,0.706-0.069,0.982
		c-0.032,0.177,0.051,0.313,0.069,0.407c0.05,0.226-0.074,0.78-0.134,1.02c-0.092,0.346-0.553,0.636-0.373,1.223
		c0.11,0.145,0.226,0.292,0.336,0.439c0.198,0.345,0.106,1.035,0.511,1.155c0.244,0.068,0.438-0.18,0.612-0.205
		c0.156-0.023,0.276,0.104,0.373,0.136c0.221,0.071,0.271-0.014,0.373,0.17c0.009,0.044,0.022,0.09,0.032,0.137
		c-0.419,0.465-1.036,1.691-1.73,1.797c-0.171-0.032-0.341-0.066-0.507-0.102c-0.322,0.254-0.562,0.684-1.054,0.746
		c-0.235-0.18-0.641-0.234-0.948-0.136c-0.198,0.09-0.985,1.364-0.783,1.766c0.152,0.343,0.507,0.324,0.544,0.814
		c-0.157,0.262-0.585,1.469-0.475,1.901c0.051,0.212,0.203,0.3,0.234,0.576c-0.234,0.271-0.474,0.543-0.708,0.814
		c-0.157,0.382-0.11,0.838-0.309,1.155c-0.124,0.202-0.424,0.263-0.543,0.441c-0.032,0.157-0.064,0.313-0.102,0.475
		c-0.221,0.322-0.916,0.161-1.018,0.607c0.023,0,0.046,0,0.069,0c0.147,0.037,0.295,0.069,0.441,0.105
		c0.106,0.064,0.668,0.719,0.677,0.88c-0.151,0.097-0.35,0.105-0.543,0.202c-0.009,0.046-0.022,0.092-0.032,0.139
		c0.529,0.234,0.985,0.428,1.289,0.883c0.18,0.268,0.23,0.461,0.441,0.677c-0.032,0.465,0.069,0.663,0.102,1.119
		c-0.612,0.396-1.468,0.516-2.205,0.782c-1.127,0.405-2.306,0.704-3.461,1.118c-0.378,0.161-0.75,0.318-1.123,0.475
		c-0.368,0.097-0.663,0.019-0.985,0.138c-0.18,0.11-0.358,0.226-0.543,0.341c-0.327,0.056-0.653,0.11-0.98,0.17
		c-0.341,0.157-0.682,0.313-1.021,0.475c-0.383,0.064-0.77,0.134-1.151,0.202c-0.616,0.268-1.16,0.773-1.832,0.985
		c-1.656,0.521-3.378,0.612-5.127,1.05c-0.668,0.248-1.335,0.501-2.003,0.75c-0.28,0.078-0.566,0.156-0.847,0.234
		c-0.718,0.304-1.262,0.833-2.273,0.848c-0.115,0.17-0.144,0.322-0.134,0.648c-0.078,0.166,0.234,1.303,0.336,1.459
		c0.239,0.212,0.479,0.429,0.714,0.645c0.087,0.129,0.321,1.413,0.271,1.63c-0.047,0.087-0.093,0.18-0.134,0.271
		c-0.073,0.345,0.304,0.428,0.234,0.709c-0.151,0.672-0.855,0.258-1.459,0.441c-0.064,0.046-0.134,0.092-0.202,0.139
		c-0.346,0.078-0.465-0.336-0.884-0.271c-0.382,0.055-0.769,0.11-1.151,0.17c-0.304-0.106-0.736-0.392-1.256-0.309
		c-0.475,0.078-1.036,0.382-1.496,0.475c-0.212-0.032-0.429-0.064-0.645-0.102c-0.202,0.124-0.405,0.248-0.607,0.373
		c-0.139-0.01-0.271-0.019-0.41-0.032c-0.566,0.216-1.132,0.433-1.693,0.645c-0.396,0.248-0.801,0.562-1.192,0.852
		c-0.134,0.188-0.271,0.382-0.405,0.575c-0.156,0.105-0.382,0.009-0.612,0.068c-0.322,0.083-0.842,0.447-0.916,0.778
		c0.327,0.4-0.11,0.746,0,1.289c0.051,0.258-0.009,0.35-0.068,0.58c-0.088,0.358,0.156,0.557,0.105,0.847
		c-0.097,0.524-0.46,1.308-0.852,1.561c-0.216,0.143-0.557,0.064-0.847,0.138c-0.387,0.156-0.769,0.313-1.155,0.475
		c-0.746,0.326-1.491,0.653-2.237,0.984c-0.465,0.336-0.93,0.677-1.395,1.018c-0.7,0.281-1.4,0.566-2.103,0.847
		c-0.205,0.134-1.48,1.966-1.595,2.242c-0.102,0.372-0.205,0.745-0.306,1.118c-0.757,0.723-1.517,1.45-2.274,2.173
		c-0.474,0.543-0.951,1.086-1.425,1.629c-0.14,0.239,0.09,0.359,0,0.645c-0.074,0.23-0.584,0.682-0.78,0.815
		c-0.481,0.321-1.197,0.363-1.765,0.575c-0.235,0.087-0.557,0.179-0.849,0.304c-0.251,0.11-0.265,0.317-0.645,0.341
		c-0.214-0.079-0.43-0.157-0.645-0.235c-0.159-0.138-0.317-0.271-0.474-0.409c-0.159-0.023-0.317-0.046-0.476-0.069
		c-0.27-0.11-0.521-0.35-0.85-0.438c-0.191,0-0.384,0-0.575,0c-0.306-0.105-0.612-0.207-0.916-0.309
		c-0.672,0.516-1.797,1.17-2.748,0.682c-0.17-0.088-0.294-0.097-0.373-0.271c-0.048-0.134,0.05-0.373,0.032-0.58
		c-0.276-0.193-0.833-0.607-1.393-0.474c-0.877,0.211-1.254,0.492-2.375,0.239c-0.145-0.015-0.292-0.023-0.439-0.037
		c-0.2-0.078-1.142-0.529-1.257-0.677c-0.124-0.202-0.249-0.409-0.373-0.612c-0.115-0.046-0.226-0.087-0.341-0.134
		c-0.212-0.239-0.294-0.479-0.575-0.644c-0.746-0.451-1.623-0.604-2.58-0.815c-0.663-0.147-0.67,0.507-1.257,0.336
		c-0.389-0.11-0.817-0.396-1.289-0.474c-0.182,0.037-0.361,0.069-0.543,0.102c-0.283-0.015-0.591-0.203-0.95-0.134
		c-1.471,0.317-2.941,0.631-4.412,0.948c-0.356,0.092-1.461,0.497-1.866,0.373c-0.935-0.276-1.993-1.109-2.716-1.662
		c-0.382-0.396-0.769-0.792-1.153-1.188c-0.787-0.603-1.898-1.316-2.511-2.071c-0.575-0.645-1.155-1.289-1.73-1.934
		c-0.474-0.404-0.951-0.814-1.427-1.22c-0.562-0.414-1.307-0.745-1.694-1.325c-0.212-0.313-0.009-0.833-0.17-1.22
		c-0.23-0.566-0.759-1.045-0.916-1.666C0.61,68.019,0.305,58.964,0,49.916c0.24-0.165,0.69-0.145,1.119-0.136
		c5.201-0.182,10.407-0.361,15.611-0.543c0.058-0.095,0.081-0.085,0.104-0.237c-0.26-0.292-1.033-0.982-1.123-1.323
		c-0.113-0.446,0.136-0.762,0.205-1.02c0.129-0.477,0.076-0.98,0.237-1.459c0.152-0.444,0.725-0.806,0.849-1.289
		c0.04-0.158-0.048-0.283-0.066-0.373c-0.014-0.193-0.023-0.384-0.037-0.577c-0.179-0.226-0.359-0.451-0.541-0.679
		c0-0.599,0-1.199,0-1.798c0-0.306,0-0.612,0-0.916c0.043-0.221,0.232-0.448,0.168-0.748c-0.032-0.163-0.03-0.584-0.102-0.78
		c-0.073-0.204-0.322-0.341-0.237-0.713c0.085-0.366,0.384-0.638,0.477-0.948c-0.014-0.205-0.023-0.407-0.035-0.612
		c0.085-0.271,0.343-0.263,0.373-0.645c-0.26-0.304-0.407-0.695-0.407-1.257c0-0.226,0-0.451,0-0.679
		c-0.055-0.102-0.113-0.202-0.17-0.304c0.012-0.353,0.023-0.702,0.035-1.055c0.044-0.396-0.396-0.482-0.237-0.915
		c0.193-0.527,1.312-0.217,1.459,0.136c0.129,0.193,0.081,0.684,0.271,0.814c0.79,0.358,1.979,0.012,2.136,0.985
		c-0.271,0.428,0.332,0.603,0.17,1.256c-0.157,0.304-0.315,0.61-0.474,0.916c0.012,0.021,0.023,0.044,0.035,0.067
		c0.262,0.121,0.508,0.29,0.711,0.476c0.771,0.01,0.962-0.297,1.427-0.577c0.304-0.185,0.506-0.532,0.884-0.679
		c0.258,0,0.518,0,0.778,0c0.453-0.183,0.907-0.361,1.357-0.544c0.585-0.146,1.211,0.03,1.731-0.136
		c0.271-0.087,0.943-0.601,1.289-0.474c0.267,0.097,0.212,0.518,0.205,0.882c-0.115,0.133-0.368,0.777-0.338,0.984
		c0.09,0.203,0.18,0.405,0.271,0.61c0.042,0.158-0.053,0.283-0.069,0.373c-0.051,0.267,0.129,0.669,0.237,0.849
		c0.173,0.285,0.739,0.387,1.02,0.575c0.203,0.141,0.249,0.431,0.405,0.612c0.338-0.112,0.449-0.311,0.918-0.373
		c0.301,0.217,0.669,0.592,1.052,0.68c0.382,0.085,0.637-0.086,0.95-0.104c0.193,0.177,1.061,0.913,1.289,0.95
		c0.348,0.159,0.969-0.154,1.459-0.032c0.338,0.083,0.584,0.341,1.017,0.304c0.281-0.023,0.647-0.309,0.985-0.271
		c0.384,0.044,0.467,0.306,0.713,0.441c0.327,0.047,0.656,0.09,0.983,0.136c0.26,0.102,0.52,0.205,0.78,0.307
		c0.622-0.621,0.935-0.076,1.494-0.442c0.341-0.223,0.578-0.515,0.679-0.984c0-0.214,0-0.429,0-0.645
		c0.124-0.191,0.249-0.385,0.373-0.578c0.051-0.29-0.136-0.538-0.066-0.847c0.329-0.212,1.287-0.389,1.73-0.306
		c0.189,0.283,0.23,0.775,0.306,1.188c0.048,0.276-0.055,0.594,0.067,0.78c0.368,0.562,1.623,0.791,2.002,1.357
		c0.375,0.563,0.221,1.537,0.61,2.071c0.211,0.288,1.192,1.057,1.869,0.847c0.244-0.075,0.281-0.559,0.645-0.474
		c0.156,0.037,0.628,0.26,0.78,0.373c0.252,0.187,0.284,0.646,0.644,0.713c0.47-0.226,0.879,0.366,1.257,0.407
		c0.326-0.236,0.594,0.146,0.884,0.102c0.801-0.119,2.384,1.652,2.375,2.612c-0.129,0.143-0.268,0.278-0.304,0.511
		c0.188,0.297,0.267,0.607,0.506,0.847c0.271-0.087,0.396-0.446,0.814-0.338c0.405,0.102,0.663,0.672,0.884,0.982
		c0.115,0.164,0.341,0.2,0.475,0.341c0.207,0.214,0.17,0.663,0.304,0.95c0.129,0.268,0.433,0.353,0.58,0.574
		c0.276,0.438,0.258,1.201,0.405,1.73c0.115,0.083,0.226,0.161,0.34,0.24c0.337,0.073,0.755-0.203,1.05-0.069
		c0.221,0.097,0.198,0.253,0.511,0.271c0.064-0.056,1.009-0.631,1.055-0.645c0.377-0.124,0.699-0.115,1.017-0.304
		c0.396-0.244,0.529-0.677,1.151-0.714c0.258,0.175,0.791,0.313,0.916,0.612c0.014,0.056,0.022,0.11,0.036,0.171
		c-0.197,0.248-0.428,0.562-0.474,0.948c0.221,0.161,0.686,0.437,1.05,0.239c0.105-0.046,0.087-0.032,0.138-0.139
		c0.056-3.528,0.11-7.06,0.17-10.587c-0.087-0.054-0.082-0.072-0.207-0.102c-0.11,0.034-0.226,0.066-0.336,0.102
		c-0.138,0.112-0.271,0.228-0.409,0.34c-0.351-0.046-0.7-0.092-1.05-0.136c-0.354,0.097-0.98,0.564-0.75,1.087
		c0.097,0.207,0.4,0.175,0.511,0.372c0.069,0.088,0.073,0.203,0.069,0.373c-0.147,0.166-0.281,0.29-0.442,0.442
		c-0.566-0.014-0.833-0.348-1.188-0.442c-0.17,0.012-0.341,0.023-0.511,0.035c-0.124-0.113-0.249-0.229-0.373-0.341
		c-0.317-0.11-0.796,0.058-0.985,0.101c-0.304-0.009-0.607-0.021-0.916-0.032c-0.358-0.524-0.589-1.21-0.984-1.73
		c-0.212-0.158-0.429-0.317-0.645-0.477c-0.17-0.228-0.778-1.088-0.985-1.188c-0.248-0.09-0.497-0.179-0.745-0.271
		c-0.313-0.207-0.594-0.596-0.948-0.78c-0.157-0.08-0.286-0.032-0.373-0.17c-0.023-0.102-0.046-0.202-0.069-0.304
		c-0.115-0.136-0.226-0.271-0.341-0.407c-0.022-0.182-0.041-0.364-0.064-0.543c-0.068-0.113-0.138-0.229-0.207-0.341
		c-0.022-0.168-0.041-0.339-0.064-0.509c-0.151-0.366-0.699-0.824-0.511-1.494c0.102-0.365,0.465-0.676,0.645-0.982
		c0.102-0.173-0.014-0.273,0.037-0.477c0.083-0.354,0.387-0.718,0.474-1.152c-0.022-0.237-0.046-0.475-0.068-0.714
		c0.092-0.412,0.34-0.886,0.511-1.222c0.124-0.256,0-0.553,0.101-0.882c0.185-0.61,0.77-1.091,1.188-1.494
		c-0.046-0.467-0.4-0.925-0.479-1.323c0.037-0.147,0.069-0.294,0.106-0.439c0.041-0.263-0.161-0.398-0.207-0.577
		c-0.074-0.286,0.11-0.583,0.068-0.78c-0.156-0.237-0.317-0.477-0.474-0.714c-0.056-0.319,0.363-0.548,0.441-0.814
		c0.01-0.578,0.023-1.153,0.032-1.73c0.102-0.458,0.419-0.829,0.442-1.358c-0.525-0.451-0.322-0.81-0.575-1.493
		c-0.074-0.193-0.313-0.79-0.442-0.983c-0.124-0.136-0.248-0.271-0.373-0.407c-0.014-0.237-0.022-0.477-0.036-0.713
		c-0.198-0.304-0.931-0.136-1.151-0.645c-0.06-0.088-0.068-0.182-0.068-0.341c0.552-0.624,1.252-0.811,1.933-1.289
		c0.861-0.605,1.639-1.569,2.274-2.409c0.271-0.359,1.067-1.209,0.916-1.901c-0.147-0.361-0.295-0.723-0.442-1.084
		c0.092-0.09,0.069-0.11,0.239-0.136c4.23-0.624,8.46-1.245,12.69-1.866c0.847-0.18,1.722-0.198,2.514-0.373
		C74.194,7.111,74.479,7.065,74.761,7.02z"/>
</g>
<g id="Layer_1">
</g>
</svg>
