<?xml version="1.0" encoding="iso-8859-1"?>
<!-- Generator: Adobe Illustrator 16.0.3, SVG Export Plug-In . SVG Version: 6.00 Build 0)  -->
<!DOCTYPE svg PUBLIC "-//W3C//DTD SVG 1.1//EN" "http://www.w3.org/Graphics/SVG/1.1/DTD/svg11.dtd">
<svg version="1.1" xmlns="http://www.w3.org/2000/svg" xmlns:xlink="http://www.w3.org/1999/xlink" x="0px" y="0px" width="100px"
	 height="100px" viewBox="0 0 100 100" style="enable-background:new 0 0 100 100;" xml:space="preserve">
<g id="GA">
	<path id="GA_2_" d="M2.447,5.075v2.224l0.166,2.141l0.657,3.458l3.458,8.068l2.47,10.043l1.481,6.257l1.647,4.939l1.482,7.081
		l2.141,6.421l2.633,3.458l0.495,3.458l1.976,0.824l0.164,2.141l-1.811,4.939l-0.493,3.293l-0.165,1.977l1.646,4.443l0.329,5.435
		L19.9,88.145l0.658,0.822l1.482,0.824l0.208,3.278l2.273,3.411l2.292,2.202l8.068,0.165l11.019-0.659l21.911-1.316l5.547-0.688
		l4.661,0.029l0.165,2.962L80.82,100l0.328-4.446l-1.646-4.609l1.152-1.646l5.929,0.824l5.069,0.323l-0.789-6.416l2.305-10.207
		l1.482-4.283l-0.494-2.634l3.396-6.359l-0.521-1.376l-1.948,0.717l-2.635-1.317l-0.658-2.142l-1.317-3.622l-2.306-2.142
		l-2.634-0.657l-1.646-4.941l-2.979-6.451l-4.28-1.977l-2.141-1.976l-1.316-2.634l-2.142-1.976l-2.307-1.317l-2.304-2.964
		l-3.129-2.305l-4.61-1.811l-0.493-1.481l-2.471-2.964l-0.492-1.481l-3.46-5.062L48.18,10.77l-3.825-2.4l-1.444-1.317l-0.329-1.812
		l0.886-1.975l2.267-1.13L45.09,0L2.447,5.075L2.447,5.075z"/>
</g>
<g id="Layer_1">
</g>
</svg>
