<?xml version="1.0" encoding="iso-8859-1"?>
<!-- Generator: Adobe Illustrator 16.0.3, SVG Export Plug-In . SVG Version: 6.00 Build 0)  -->
<!DOCTYPE svg PUBLIC "-//W3C//DTD SVG 1.1//EN" "http://www.w3.org/Graphics/SVG/1.1/DTD/svg11.dtd">
<svg version="1.1" xmlns="http://www.w3.org/2000/svg" xmlns:xlink="http://www.w3.org/1999/xlink" x="0px" y="0px" width="100px"
	 height="100px" viewBox="0 0 100 100" style="enable-background:new 0 0 100 100;" xml:space="preserve">
<g id="HI">
	<path id="HI_1_" d="M0,26.174l1.707-3.129l1.991-0.284l0.285,0.712l-1.85,2.701H0z M8.962,22.903l5.406,2.275l1.85-0.284
		l1.421-3.415l-0.568-2.987l-3.698-0.427l-3.557,1.565L8.962,22.903z M35.989,31.722l3.271,4.836l2.134-0.285l0.996-0.426
		l1.28,1.137l3.272-0.143l0.853-1.278l-2.56-1.565l-1.707-3.272l-1.85-3.13l-5.121,2.561L35.989,31.722z M53.769,39.546l1.138-1.707
		l4.125,0.854l0.57-0.427l5.404,0.569l-0.284,1.138l-2.275,1.28l-3.841-0.284L53.769,39.546L53.769,39.546z M58.463,44.097
		l1.708,3.414l2.702-0.996l0.284-1.422l-1.423-1.849l-3.271-0.285V44.097L58.463,44.097z M64.579,43.102l1.992-2.56l4.126,2.134
		l3.839,0.996l3.841,2.419v1.706l-3.129,1.565l-4.269,0.854l-2.134-1.28L64.579,43.102z M79.231,56.757l1.422-1.138l2.987,1.422
		l6.687,3.13l2.987,1.849l1.423,2.135l1.705,3.84L100,70.271l-0.284,1.137l-3.414,2.846l-3.698,1.28l-1.28-0.569l-2.703,1.564
		l-2.133,2.844l-1.992,2.561l-1.564-0.143L79.8,79.516l-0.283-3.981l0.568-2.136l-1.423-4.977l-1.849-1.564l-0.143-2.277
		l1.991-0.853l1.851-2.703l0.425-0.854l-1.421-1.564L79.231,56.757L79.231,56.757z"/>
</g>
<g id="Layer_1">
</g>
</svg>
