<?xml version="1.0" encoding="iso-8859-1"?>
<!-- Generator: Adobe Illustrator 16.0.3, SVG Export Plug-In . SVG Version: 6.00 Build 0)  -->
<!DOCTYPE svg PUBLIC "-//W3C//DTD SVG 1.1//EN" "http://www.w3.org/Graphics/SVG/1.1/DTD/svg11.dtd">
<svg version="1.1" xmlns="http://www.w3.org/2000/svg" xmlns:xlink="http://www.w3.org/1999/xlink" x="0px" y="0px" width="100px"
	 height="100px" viewBox="0 0 100 100" style="enable-background:new 0 0 100 100;" xml:space="preserve">
<g id="ID">
	<path id="ID_1_" d="M18.932,89.055l5.274-21.177l0.824-2.543l1.513-3.573l-0.756-1.374l-1.512,0.068l-0.482-0.619l0.275-0.688
		l0.207-1.855l2.68-3.299l1.1-0.275l0.688-0.687l0.344-1.925l0.55-0.412l2.337-3.506l2.337-2.612l0.138-2.268l-2.062-1.581
		l-0.923-2.646L39.653,0l8.128,1.52l-2.649,12.856l2.14,4.501l-0.95,2.802l1.185,2.791l1.887,0.754l2.305,5.747l2.111,2.667
		l0.307,0.688l2.008,0.688l0.223,1.262l-4.191,10.447l-0.1,1.542l1.582,1.997l0.543-0.029l2.955-1.818l0.406-0.659l0.939,0.396
		l-0.168,3.22l1.646,7.564l2.357,1.911l1.01,1.302l-0.432,2.456l0.643,1.688l0.639,0.656l1.49-1.414l1.711,0.029l1.756,0.803
		l1.672-0.41l2.281-0.097l2.393,0.963l1.648-0.179l0.299-1.826l1.764-0.46l0.758,0.911l0.266,1.771l0.855,0.729L76.025,100
		C76.025,99.999,23.137,89.959,18.932,89.055L18.932,89.055z"/>
</g>
<g id="Layer_1">
</g>
</svg>
