<?xml version="1.0" encoding="iso-8859-1"?>
<!-- Generator: Adobe Illustrator 16.0.3, SVG Export Plug-In . SVG Version: 6.00 Build 0)  -->
<!DOCTYPE svg PUBLIC "-//W3C//DTD SVG 1.1//EN" "http://www.w3.org/Graphics/SVG/1.1/DTD/svg11.dtd">
<svg version="1.1" xmlns="http://www.w3.org/2000/svg" xmlns:xlink="http://www.w3.org/1999/xlink" x="0px" y="0px" width="100px"
	 height="100px" viewBox="0 0 100 100" style="enable-background:new 0 0 100 100;" xml:space="preserve">
<g id="IL">
	<path id="IL_1_" d="M72.32,83.285l0.025-2.611l0.458-3.758l1.888-2.359L76.2,71.26l1.807-3.23l-0.3-4.248l-1.623-2.866
		l-0.078-2.708l0.562-4.262L75.9,48.139l-0.862-12.762l-1.046-12.146l-0.746-9.416l-0.22-0.745l-0.655-2.092l-1.046-3.007
		l-1.307-1.438L68.842,4.44L68.653,0L31.609,2.102l0.186,1.918l1.849,0.555L34.385,5.5l0.37,1.479l3.144,2.774l0.555,1.85
		l-0.555,2.773l-1.479,2.958l-0.555,2.035l-1.85,1.479l-1.479,0.555l-4.253,1.11l-0.555,1.48l-0.555,1.665l0.555,1.109l1.479,1.294
		l-0.185,3.329l-1.479,1.295l-0.556,1.293v2.22l-1.479,0.37l-1.295,0.925l-0.185,1.109l0.185,1.665l-1.387,1.063l-0.832,2.265
		l0.37,2.959l1.849,5.917l5.917,6.103l4.438,2.958l-0.185,3.515l0.739,1.109l5.177,0.369l2.219,1.109l-0.555,2.959l-1.848,4.809
		l-0.556,2.589l1.849,3.144l5.177,4.254l3.698,0.555l1.666,4.068l1.664,2.59l-0.74,2.403l1.295,3.327L55.646,100l1.145-0.713
		l0.734-1.679l1.79-1.413l1.724-0.497l2.105,0.955l2.936,1.112l0.96-0.241l0.162-1.826l-1.041-1.951l0.246-1.921l1.487-1.092
		l2.443-0.654l1.021-0.371l-0.496-1.121l-0.641-1.904l1.16-0.793L72.32,83.285L72.32,83.285z"/>
</g>
<g id="Layer_1">
</g>
</svg>
