<?xml version="1.0" encoding="iso-8859-1"?>
<!-- Generator: Adobe Illustrator 16.0.3, SVG Export Plug-In . SVG Version: 6.00 Build 0)  -->
<!DOCTYPE svg PUBLIC "-//W3C//DTD SVG 1.1//EN" "http://www.w3.org/Graphics/SVG/1.1/DTD/svg11.dtd">
<svg version="1.1" xmlns="http://www.w3.org/2000/svg" xmlns:xlink="http://www.w3.org/1999/xlink" x="0px" y="0px" width="100px"
	 height="100px" viewBox="0 0 100 100" style="enable-background:new 0 0 100 100;" xml:space="preserve">
<g id="IN">
	<path id="IN_1_" d="M21.38,100l0.071-3.15l0.536-4.992l2.495-3.208l1.961-4.278l2.853-4.635l-0.535-6.419l-1.96-3.03l-0.356-3.564
		l0.892-6.062l-0.534-7.665l-1.426-17.647l-1.427-16.936L22.878,5.49l3.387,0.98l1.604,1.07l1.248-0.356l2.317-2.14l3.121-1.783
		l5.617-0.178l24.243-2.496L70.562,0l1.657,17.596l4.688,40.625l0.66,6.363L77.16,67.08l1.353,1.979l0.107,1.516l-2.779,1.763
		l-3.903,1.71l-3.531,0.607l-0.66,5.367l-5.045,3.652l-3.083,4.421l0.355,2.62l-0.64,1.693h-3.669l-1.747-1.783l-2.75,1.392
		l-2.96,1.658l0.179,3.368l-1.316,0.284l-0.517-1.121l-2.39-1.659l-3.583,1.479l-1.711,3.315l-1.585-0.893l-1.604-1.764
		l-4.922,0.535l-6.168,1.068L21.38,100L21.38,100z"/>
</g>
<g id="Layer_1">
</g>
</svg>
