<?xml version="1.0" encoding="iso-8859-1"?>
<!-- Generator: Adobe Illustrator 16.0.3, SVG Export Plug-In . SVG Version: 6.00 Build 0)  -->
<!DOCTYPE svg PUBLIC "-//W3C//DTD SVG 1.1//EN" "http://www.w3.org/Graphics/SVG/1.1/DTD/svg11.dtd">
<svg version="1.1" xmlns="http://www.w3.org/2000/svg" xmlns:xlink="http://www.w3.org/1999/xlink" x="0px" y="0px" width="100px"
	 height="100px" viewBox="0 0 100 100" style="enable-background:new 0 0 100 100;" xml:space="preserve">
<g id="LA">
	<path id="LA_1_" d="M85.183,59.443l-3.202-3.088l0.984-5.363L82.32,50.12l-9.031,0.983l-24.404,0.447l-0.668-2.336l0.89-8.245
		l3.232-5.797l4.905-8.475l-0.56-2.339l1.226-0.664l0.447-1.903l-2.229-2.005l-0.109-1.894l-1.783-4.237l-0.145-6.182L0,8.376
		l0.026,9.334l0.671,9.142l0.668,3.789l2.453,4.014l0.892,4.902l4.236,5.351l0.224,3.121l0.669,0.669l-0.669,8.248L6.271,61.85
		l1.559,2.008l-0.668,2.453l-0.668,7.133l-1.339,3.121l0.12,3.525l4.57-1.482l11.811,0.203l10.091,3.467l6.306,1.104l3.625-1.418
		l3.152,1.104l3.152,0.947l0.788-2.051l-3.151-1.104l-2.521,0.473l-2.68-1.576c0,0,0.157-1.262,0.787-1.42
		c0.63-0.156,2.995-0.945,2.995-0.945l1.733,1.42l1.735-0.947l3.151,0.631l1.419,2.363l0.313,2.209l4.414,0.314l1.734,1.734
		l-0.787,1.578l-1.263,0.787l1.578,1.576l8.194,3.469l3.47-1.262l0.945-2.363l2.521-0.633l1.734-1.416l1.263,0.945l0.787,2.838
		l-2.207,0.787l0.631,0.629l3.311-1.26l2.206-3.311l0.789-0.473l-2.05-0.314l0.789-1.576l-0.158-1.418l2.05-0.475l1.104-1.26
		l0.631,0.789c0,0-0.159,2.994,0.63,2.994c0.787,0,4.1,0.631,4.1,0.631l3.94,1.889l0.946,1.42h2.836l1.104,0.947L100,87.639v-1.418
		h-1.261l-3.311-2.68l-5.675-0.789l-3.151-2.207l1.104-2.68l2.206,0.314l0.159-0.629l-1.734-0.947v-0.471h3.151l1.734-2.996
		l-1.263-1.893l-0.313-2.678l-1.419,0.156l-1.891,2.049l-0.631,2.523l-2.995-0.629l-0.945-1.734l1.732-1.893l1.857-3.359
		l-1.035-2.352L85.183,59.443L85.183,59.443z"/>
</g>
<g id="Layer_1">
</g>
</svg>
