<?xml version="1.0" encoding="iso-8859-1"?>
<!-- Generator: Adobe Illustrator 16.0.3, SVG Export Plug-In . SVG Version: 6.00 Build 0)  -->
<!DOCTYPE svg PUBLIC "-//W3C//DTD SVG 1.1//EN" "http://www.w3.org/Graphics/SVG/1.1/DTD/svg11.dtd">
<svg version="1.1" xmlns="http://www.w3.org/2000/svg" xmlns:xlink="http://www.w3.org/1999/xlink" x="0px" y="0px" width="100px"
	 height="100px" viewBox="0 0 100 100" style="enable-background:new 0 0 100 100;" xml:space="preserve">
<g id="MA">
	<path id="MA_1_" d="M92.265,74.114l3.585-1.132l0.756-2.83l1.697,0.188L100,74.114l-2.076,0.754l-6.415,0.19L92.265,74.114z
		 M76.795,75.436l3.773-4.34h2.642l3.019,2.453l-3.962,1.697l-3.586,1.698L76.795,75.436L76.795,75.436z M19.359,39.145
		l29.124-7.661l3.737-1.065l3.159-4.616l6.166-2.746l4.771,7.285l-4.006,8.536l-0.531,2.401l3.201,4.271l1.868-1.335h2.935
		l3.734,4.269l6.404,9.872l5.872,0.801l3.735-1.602l2.936-2.934l-1.336-4.536l-3.469-2.669l-2.401,1.335l-1.601-2.134l0.798-0.8
		l3.47-0.268l2.936,1.333l3.201,4.002l1.601,4.804l0.533,4.003l-6.938,2.4l-6.403,3.203l-6.404,7.469l-3.201,2.401v-1.601
		l4.004-2.401l0.798-2.936l-1.333-5.068l-4.803,2.399l-1.335,2.401l0.8,3.738l-3.409,1.65l-4.534-7.471l-5.605-7.205l-3.416-2.991
		l-10.782,3.097l-8.404,1.735L1.103,68.093L0,60.222l1.068-17.475l7.079-1.469L19.359,39.145L19.359,39.145z"/>
</g>
<g id="Layer_1">
</g>
</svg>
