<?xml version="1.0" encoding="iso-8859-1"?>
<!-- Generator: Adobe Illustrator 16.0.3, SVG Export Plug-In . SVG Version: 6.00 Build 0)  -->
<!DOCTYPE svg PUBLIC "-//W3C//DTD SVG 1.1//EN" "http://www.w3.org/Graphics/SVG/1.1/DTD/svg11.dtd">
<svg version="1.1" xmlns="http://www.w3.org/2000/svg" xmlns:xlink="http://www.w3.org/1999/xlink" x="0px" y="0px" width="100px"
	 height="100px" viewBox="0 0 100 100" style="enable-background:new 0 0 100 100;" xml:space="preserve">
<g id="MD">
	<path id="MD_1_" d="M99.454,56.442l-7.602,1.523l-6.507,0.148l-2.333-8.757l-2.435-11.601l-3.256-7.827l-1.629-5.564l-9.496,2.053
		L47.379,29.99L0,39.544l1.431,6.34l1.228,7.158l0.408-0.41l2.66-3.069l2.863-3.311l3.067-0.778l1.841-1.841l2.25-3.271l1.636,0.818
		l3.682-0.41l3.272-2.659l2.539-1.838l2.333-0.613l2.082,1.43l3.682,1.84l2.452,2.251l1.534,1.941l5.215,2.148v3.682l6.953,1.636
		l1.449,0.686l1.786-2.565l3.646,2.491l-1.617,3.141l-0.967,5.041l-2.25,3.273v2.658l0.816,2.25l6.407,1.714l5.453-0.078
		l3.886,1.227l2.66,0.409l1.228-2.66l-1.841-2.658v-2.249l-3.067-2.659l-2.66-6.953l1.636-6.749l-0.204-2.659l-1.637-1.636
		c0,0,1.841-2.046,1.841-2.863s0.614-2.658,0.614-2.658l2.453-1.636l2.454-2.046l0.612,1.227l-1.841,2.046l-1.636,4.703l0.409,1.431
		l2.248,0.409l0.614,6.954l-2.66,1.227L71.37,55.9l0.613-0.204l1.432-2.454l2.045,2.249l-2.045,1.636l-0.409,4.296l3.272,4.294
		l4.908,0.613l2.045-1.021l4.095,5.291l1.717,0.68l8.418-3.54L100,62.648L99.454,56.442L99.454,56.442z M79.251,67.864l1.432,3.17
		l0.204,2.249l1.432,2.352c0,0,1.126-1.124,1.126-1.533c0-0.408-0.921-3.885-0.921-3.885l-0.921-2.965L79.251,67.864L79.251,67.864z
		"/>
</g>
<g id="Layer_1">
</g>
</svg>
