<?xml version="1.0" encoding="iso-8859-1"?>
<!-- Generator: Adobe Illustrator 16.0.3, SVG Export Plug-In . SVG Version: 6.00 Build 0)  -->
<!DOCTYPE svg PUBLIC "-//W3C//DTD SVG 1.1//EN" "http://www.w3.org/Graphics/SVG/1.1/DTD/svg11.dtd">
<svg version="1.1" xmlns="http://www.w3.org/2000/svg" xmlns:xlink="http://www.w3.org/1999/xlink" x="0px" y="0px" width="100px"
	 height="100px" viewBox="0 0 100 100" style="enable-background:new 0 0 100 100;" xml:space="preserve">
<g id="MN">
	<path id="MN_1_" d="M12.122,59.383l-0.36-6.649l-1.438-5.75L8.889,36.382l-0.36-7.728L7.09,25.959l-1.257-3.954v-8.085l0.539-3.056
		L4.941,6.581l23.684,0.028l0.253-6.482L29.386,0l1.779,0.382l1.524,0.635l0.636,4.321l1.144,4.828l1.271,1.271h3.812l0.255,1.144
		l4.956,0.253v1.652h3.812l0.253-1.016l0.891-0.89l1.779-0.509l1.016,0.763h2.287l3.049,2.033l4.193,1.906l1.906,0.381l0.381-0.762
		l1.145-0.382l0.379,2.287l2.035,1.017l0.381-0.38l1.016,0.127v1.652l2.031,0.762h2.416L75,20.84l2.541-2.542l2.033-0.38
		l0.637,1.397l0.379,1.016h0.764l0.762-0.634l6.988-0.254l1.398,2.414h0.508l0.561-0.852l3.488-0.292l-0.479,1.792l-3.096,1.443
		l-7.268,3.192l-3.752,1.577l-2.414,2.034l-1.906,2.795l-1.779,3.05l-1.398,0.634l-3.557,3.938l-1.016,0.127l-3.402,2.166
		l-1.936,2.52l-0.18,2.508l0.074,6.322l-1.082,1.327l-3.994,2.955l-1.752,4.701l2.258,1.755l0.535,2.538l-1.459,2.545l0.135,2.945
		l0.291,5.291l2.379,2.358h2.615l1.488,2.462l2.654,0.396l3.033,4.456l5.57,3.237l1.686,2.258l0.527,5.062L14.006,100L13.74,71.959
		l-0.359-2.335l-3.234-2.697l-0.897-1.436v-1.259l1.617-1.259l1.077-1.079L12.122,59.383L12.122,59.383z"/>
</g>
<g id="Layer_1">
</g>
</svg>
