<?xml version="1.0" encoding="iso-8859-1"?>
<!-- Generator: Adobe Illustrator 16.0.3, SVG Export Plug-In . SVG Version: 6.00 Build 0)  -->
<!DOCTYPE svg PUBLIC "-//W3C//DTD SVG 1.1//EN" "http://www.w3.org/Graphics/SVG/1.1/DTD/svg11.dtd">
<svg version="1.1" xmlns="http://www.w3.org/2000/svg" xmlns:xlink="http://www.w3.org/1999/xlink" x="0px" y="0px" width="100px"
	 height="100px" viewBox="0 0 100 100" style="enable-background:new 0 0 100 100;" xml:space="preserve">
<g id="MO">
	<path id="MO_1_" d="M61.738,10.398l-2.215-2.711L58.52,5.68L2.008,7.787L0,7.888l1.104,2.208l-0.2,2.008l2.209,3.413l2.709,3.613
		l2.712,2.408l1.897,0.201l1.313,0.804v2.61l-1.606,1.405l-0.4,2.009l1.807,3.01l2.208,2.61l2.209,1.605l1.204,10.238l0.276,31.676
		l0.201,4.115l0.401,4.73l19.7-0.762l20.378-0.604l18.269-0.703l10.235-0.201l1.904,3.006l-0.603,2.908l-2.71,2.109l-0.504,1.611
		l4.724,0.402l3.421-0.602l1.508-4.824l0.573-5.145l1.842-2.242l2.28-1.307l0.045-2.678L100,75.822l-1.488-2.232l-1.169,0.863
		l-1.75-1.955l-1.127-4.178l0.704-2.213l-1.707-3.01l-1.608-4.02l-4.214-0.701l-6.119-4.917l-1.51-3.611l0.703-2.812l1.807-5.319
		l0.403-2.514l-1.712-0.907l-6.02-0.699l-0.902-1.504l-0.097-3.715l-4.819-3.012l-6.125-6.824l-2.007-6.424l-0.203-3.711
		L61.738,10.398L61.738,10.398z"/>
</g>
<g id="Layer_1">
</g>
</svg>
