<?xml version="1.0" encoding="iso-8859-1"?>
<!-- Generator: Adobe Illustrator 16.0.3, SVG Export Plug-In . SVG Version: 6.00 Build 0)  -->
<!DOCTYPE svg PUBLIC "-//W3C//DTD SVG 1.1//EN" "http://www.w3.org/Graphics/SVG/1.1/DTD/svg11.dtd">
<svg version="1.1" xmlns="http://www.w3.org/2000/svg" xmlns:xlink="http://www.w3.org/1999/xlink" x="0px" y="0px" width="100px"
	 height="100px" viewBox="0 0 100 100" style="enable-background:new 0 0 100 100;" xml:space="preserve">
<g id="NE">
	<path id="NE_1_" d="M93.502,62.23l2.262,4.916l-0.09,1.611l2.423,3.848L100,74.812h-3.535l-30.446-0.658L37.46,73.531
		l-15.581-0.549l0.75-14.934L0,56.004l3.041-30.816l10.887,0.721l14.086,0.8l12.487,0.801l16.647,0.8l7.524-0.319l1.441,1.601
		l3.362,2.081l0.8,0.641l3.043-0.96l2.721-0.321l1.921-0.16l1.281,0.96l2.841,1.121l2.081,1.121l0.32,1.12l0.64,1.441h1.281
		l0.559,0.032l0.627,3.278l2.044,5.93l0.401,2.631l1.767,2.644l0.398,3.58l1.126,2.971L93.502,62.23L93.502,62.23z"/>
</g>
<g id="Layer_1">
</g>
</svg>
