<?xml version="1.0" encoding="iso-8859-1"?>
<!-- Generator: Adobe Illustrator 16.0.3, SVG Export Plug-In . SVG Version: 6.00 Build 0)  -->
<!DOCTYPE svg PUBLIC "-//W3C//DTD SVG 1.1//EN" "http://www.w3.org/Graphics/SVG/1.1/DTD/svg11.dtd">
<svg version="1.1" xmlns="http://www.w3.org/2000/svg" xmlns:xlink="http://www.w3.org/1999/xlink" x="0px" y="0px" width="100px"
	 height="100px" viewBox="0 0 100 100" style="enable-background:new 0 0 100 100;" xml:space="preserve">
<g id="NJ">
	<path id="NJ_1_" d="M37.653,0l-4.249,5.003v5.623l-3.55,5.619l-0.297,2.96l2.368,2.366l-0.297,4.438l-4.141,2.069l1.478,5.031
		l0.297,2.071l5.029,0.591l1.774,4.732l6.511,4.438l4.438,2.96v1.479l-5.46,4.936l-2.956,4.139l-2.662,5.029l-4.143,2.367
		l-0.848,2.934l-0.443,2.219l-1.113,4.771l1.998,4.105l5.917,5.326l8.876,4.143l7.397,1.182l0.295,2.664l-1.48,1.775L52.984,100
		h1.48l3.846-4.439l1.479-8.875l5.029-7.396l5.623-11.832l2.07-10.061l-1.182-2.072l-0.295-17.159l-2.959-6.212l-2.072,1.479
		l-5.029,0.59l-0.887-0.887l2.07-1.776l3.848-3.549l0.115-2.002l-0.705-6.285l1.051-5.029l-0.217-3.604l-5.137-3.202l-9.318-2.153
		L44.22,3.009L37.653,0L37.653,0z"/>
</g>
<g id="Layer_1">
</g>
</svg>
