<?xml version="1.0" encoding="iso-8859-1"?>
<!-- Generator: Adobe Illustrator 16.0.3, SVG Export Plug-In . SVG Version: 6.00 Build 0)  -->
<!DOCTYPE svg PUBLIC "-//W3C//DTD SVG 1.1//EN" "http://www.w3.org/Graphics/SVG/1.1/DTD/svg11.dtd">
<svg version="1.1" xmlns="http://www.w3.org/2000/svg" xmlns:xlink="http://www.w3.org/1999/xlink" x="0px" y="0px" width="100px"
	 height="100px" viewBox="0 0 100 100" style="enable-background:new 0 0 100 100;" xml:space="preserve">
<g id="NY">
	<path id="NY_1_" d="M66.255,76.758l-0.891-0.764l-2.036-0.126l-1.781-1.527l-1.284-4.824l-2.724,0.07l-1.922-2.132l-15.26,3.45
		L6.509,77.776l-5.928,0.967L0,73.651l1.125-0.885l1.018-0.891l0.764-1.272l1.399-0.891l1.527-1.399l0.381-1.273l1.654-2.163
		l0.892-0.763l-0.127-0.764l-1.019-2.419l-1.399-0.127l-1.526-4.836l2.291-1.398l3.435-1.146l3.182-1.018l2.544-0.383l4.965-0.127
		l1.525,1.018l1.272,0.128l1.654-1.019l2.036-0.891l4.072-0.381l1.654-1.399l1.4-2.545l1.272-1.527h1.654l1.526-0.891l0.128-1.781
		l-1.146-1.655l-0.254-1.145l0.891-1.655v-1.146h-1.399l-1.399-0.637l-0.637-0.891l-0.128-2.036l4.581-4.326l0.509-0.637
		l1.146-2.291l2.29-3.562l2.163-2.927l1.654-1.908l1.901-1.438l2.425-0.98l4.327-1.018l2.545,0.127l3.562-1.146l5.955-1.63
		l0.41,3.919l1.909,5.091l0.636,4.072l-0.764,3.054l2.036,3.562l0.636,1.654l-0.636,2.292l2.291,1.018l0.508,0.254l2.418,8.652
		l-0.422,3.983l-0.383,8.526l0.638,4.328l0.636,2.799l1.146,5.726v6.363l-0.891,1.78l1.448,1.57l0.627,1.32l-1.526,1.399
		l0.254,1.018l1.019-0.254l1.145-1.018l1.782-2.037l0.891-0.508l1.272,0.508l1.781,0.128l6.235-3.054l2.291-2.165l1.018-1.146
		L100,75.819l-2.673,2.801l-3.054,2.291l-5.599,4.198l-2.036,0.764L82.058,87.4l-3.181,0.89l-0.925-0.419l-0.192-2.904l0.382-2.163
		l-0.128-1.654L75.8,79.812l-3.563-0.765l-3.054-0.89L66.255,76.758L66.255,76.758z"/>
</g>
<g id="Layer_1">
</g>
</svg>
