<?xml version="1.0" encoding="iso-8859-1"?>
<!-- Generator: Adobe Illustrator 16.0.3, SVG Export Plug-In . SVG Version: 6.00 Build 0)  -->
<!DOCTYPE svg PUBLIC "-//W3C//DTD SVG 1.1//EN" "http://www.w3.org/Graphics/SVG/1.1/DTD/svg11.dtd">
<svg version="1.1" xmlns="http://www.w3.org/2000/svg" xmlns:xlink="http://www.w3.org/1999/xlink" x="0px" y="0px" width="100px"
	 height="100px" viewBox="0 0 100 100" style="enable-background:new 0 0 100 100;" xml:space="preserve">
<g id="NZ">
	<path style="fill-rule:evenodd;clip-rule:evenodd;" d="M52.938,0c0.18,0.167,0.174,0.072,0,0.245
		c-0.448,0.445,0.898,2.775,0.898,2.775c0.054,0.082,0.108,0.164,0.163,0.245c0.105,0.265,0.293,0.176,0.57,0.327
		c0.246-0.498,0.704-0.17,0.653-0.735c0.195,0.146,0.438,0.754,0.245,0.49c-0.032,0.206-0.14,0.161-0.408,0.163
		c0.132,0.3,0.18,0.439,0.408,0.735c0.189,0,0.381,0,0.571,0c0.026-0.163,0.055-0.327,0.081-0.49c0.46,0.107,2.391,1.119,2.203,0.49
		c0.055,0.054,0.109,0.108,0.164,0.163c0.037,0.251-0.053,0.278-0.164,0.572c0.256,0.068,1.047,0.159,0.979,0.408
		c0.082,0.054,0.164,0.109,0.245,0.163c-0.136,0.109-0.272,0.217-0.408,0.327c0.091,0.231,0.071,0.119,0.082,0.326
		c0.541-0.131,1.007-0.451,1.55-0.571c0,0.027,0,0.055,0,0.082c-0.081,0.245-0.163,0.49-0.245,0.735
		c0.164,0.082,0.327,0.163,0.49,0.245c-0.027-0.054-0.054-0.109-0.081-0.163c0.305,0.256,0.061,0.584,0,0.816
		c0.436,0.081,0.993,0.771,1.061,1.55c-0.252,0.13-0.104,0.171-0.245,0.409c0.137,0.054,0.272,0.108,0.408,0.163
		c-0.196,0.422-0.157,0.705,0,1.061c-0.081,0-0.163,0-0.245,0c-0.034-0.233-0.676-0.463-0.815-0.816
		c-0.136,0.082-0.272,0.163-0.408,0.245c0.055-0.027,0.109-0.054,0.163-0.082c0.18,0.521,0.532,0.299,0.897,0.571
		c-0.384,0.219-0.27,1.128,0.082,1.306c0.163,0.082,0.326,0.164,0.489,0.245c0.053,0.696,0.613,1.094,1.225,1.632
		c-0.216,0.384-0.151,0.085-0.082,0.571c0.136-0.027,0.272-0.054,0.408-0.082c-0.027,0.054-0.055,0.109-0.082,0.163
		c-0.217,0.027-0.435,0.055-0.652,0.082c0.232,0.894-0.427,0.794-0.245,1.469c0.096,0.355,1.049,1.499,0,1.714
		c-0.122-0.201-0.096-0.074-0.326-0.245c0.104,0.26-0.024,0.187,0.163,0.327c0.017,0.017,1.094,0.262,1.225,0
		c0.187,0.247,0.136,0.414,0.489,0.49c0.174-0.267,0.143-0.223,0.571-0.245c0.098,0.298,0.074,0.485,0.245,0.408
		c0.254,0.265,0.74,0.232,1.061,0.49c-0.01,0.679,0.017,1.531,0.326,1.388c0.427,0.496,0.936-0.2,1.061-0.408
		c0,0-0.671-2.156-0.734-2.286c0.082,0,0.163,0,0.245,0c-0.233-0.701-0.091-0.759,0-1.55c-0.246-0.118-0.86-0.375-0.734-0.653
		c-0.03-0.34-0.039-0.236,0.163-0.49c0.109,0,0.218,0,0.326,0c0.018,0.257,0.196,0.356,0.49,0.572
		c-0.027-0.055-0.055-0.109-0.082-0.164c0.514,0.291,0.72,1.378,0.898,1.714c0.244-0.081,0.489-0.163,0.734-0.245
		c0.218,0.037,0.123-0.05,0.326,0.164c-0.19,0.271-0.381,0.543-0.571,0.816c0.054-0.027,0.108-0.055,0.162-0.082
		c0.164,0,0.328,0,0.491,0c0.105,1.273,0.814,3.987,1.061,4.979c-0.331,0.112-0.241,0.08-0.408,0.327c0,0.082,0,0.163,0,0.245
		c0.266,0.054,0.164,0.045,0.326,0.408c0.108-0.027,0.218-0.055,0.326-0.082c0.055-0.054,0.109-0.109,0.163-0.164
		c-0.346-0.221-0.068-0.097-0.163-0.408c0.83,0.323,2.218,1.354,2.693,1.877c0.388,0.425,2.804,0.924,3.917,1.306
		c1.976,0.678,3.065-2.259,3.265-2.204c0.527,0.146,1.469-0.979,1.469-0.979c0.571-0.027,1.143-0.055,1.713-0.082
		c0.096,0.389,0.263,0.634,0.409,0.572c0.23,0.277,0.907,0.195,1.224,0.571c-1.189,0.591-0.761,2.183-1.469,3.428
		c0.245,0.105,0.183,0.051,0.326,0.246c-0.228,0.033-0.154,0.141-0.326,0.408c0.286,0.29,0.193,0.911,0.245,1.306
		c-0.661,0.364-0.601,1.315-1.388,1.877c-0.212,0.151-0.526-0.01-0.816,0.245c-0.055,0-0.108,0-0.163,0
		c0.027,0.055,0.055,0.109,0.082,0.164c-0.031,0.244-0.086,1.7-0.408,2.612c0.138,0.01,0.516-0.004,0.652,0.408
		c-0.562,0.154-0.438,0.819-0.816,1.142c0-0.054,0-0.108,0-0.163c-0.372-0.319-0.298-0.96,0.082-1.143
		c-0.274-0.469-1.296-0.378-2.693-0.326c-0.163,0.054-0.326,0.109-0.488,0.163c-0.518,0.217-1.034,0.435-1.551,0.653
		c-0.453,0.568-0.439,1.264-1.061,1.551c0.108,0.571,0.217,1.143,0.326,1.714c0.387-0.01,0.375,0.325,0.652,0.164
		c0.082,0.082,0.163,0.163,0.245,0.245c-1.251,0.602-0.376,3.594-2.448,4.571c0.093,0.784-0.359,1.146-0.245,1.877
		c-0.621-0.031-0.672-0.06-0.734,0.327c-1.048,0.662-0.985,1.583-1.55,2.775c-1.148,2.422-3.356,4.639-5.877,5.468
		c-0.054-0.163-0.107-0.326-0.163-0.489c0.016-0.2,0.111-0.721-0.081-0.897c-0.659-0.918-1.058,0.084-1.714-0.083
		c-0.043-0.194-0.153-0.377-0.326-0.325c0.143-0.656,0.217-0.734,0.408-1.225c-0.467,0.131-0.536,0.182-0.734,0.571
		c0.286,0.066,0.119-0.104,0.244,0.163c-0.2,0.159-0.032,0.046-0.244,0.082c-0.024,0.33-0.115,0.033-0.163,0.326
		c-0.459-0.229-0.548-0.298-0.898-0.734c0.201-0.217,0.111-0.125,0.327-0.164c0.408-0.517,0.815-1.034,1.224-1.55
		c-0.032-0.076-0.001-0.101,0-0.082c1.091-1.99,1.457-2.259,2.04-4.163c0.266-0.868-0.332-2.855-0.244-2.938
		c-0.532-0.527-0.933-1.414-1.878-1.959c-0.326,0.054-0.652,0.109-0.979,0.163c-0.221-0.077-0.671-0.751-0.898-0.49
		c-0.379-0.422-1.277-1.411-1.306-1.387c-0.027-0.027-0.054-0.054-0.082-0.082c-0.108-0.055-0.217-0.109-0.326-0.164
		c-0.625-0.163-1.251-0.326-1.877-0.49c-0.174-0.15-1.572-1.783-0.897-2.204c0.002-0.424,1.918-1.8,2.53-2.041
		c0.485-0.191,0.753,0.292,1.061,0c0.055,0.027,0.109,0.055,0.163,0.082c0-0.055,0-0.109,0-0.163
		c0.137-0.109,0.272-0.218,0.408-0.326c0.055-0.082,0.109-0.164,0.163-0.245c0.013-0.012,1.355-3.279,0.653-3.754
		c0.197-0.207,0.982-1.108,0.408-1.959c1.781-0.434-0.366-7.092-0.979-7.753c0.328-0.293,0.541-0.111,0.897-0.163
		c0.027,0.217,0.054,0.435,0.082,0.652c0.346-0.202,0.558-0.115,0.734-0.489c0.194-0.202,0.142-0.205,0.081-0.49
		c-0.163,0-0.326,0-0.489,0c0.054-0.163,0.108-0.327,0.163-0.49c-0.136-0.027-0.272-0.055-0.408-0.082
		c-0.208,0.421-0.83,0.749-1.143,0.816c-0.272-0.052-0.203,0.033-0.163-0.327c-0.165-0.029-0.167-0.152-0.245-0.408
		c-0.254-0.843-0.279-1.689-0.734-2.122c-0.382-0.364-0.866-0.817-0.979-1.551c0.19-0.054,0.38-0.109,0.57-0.163
		c0.082,0.414,0.298,0.425,0.653,0.653c0.027-0.027,0.055-0.055,0.082-0.082c0.027-0.218,0.054-0.436,0.081-0.653
		c-0.271,0-0.544,0-0.816,0c-0.026-0.136-0.054-0.272-0.081-0.408c0.108-0.19,0.218-0.381,0.327-0.571
		c-0.272-0.109-0.545-0.218-0.816-0.327c0,0.19,0,0.381,0,0.571c0.206,0.215,0.116,0.327,0.163,0.571
		c-0.298,0.092-0.53,0.279-0.816,0.082c-0.085-2.094-2.396-3.867-3.428-5.306c-0.19-0.408-0.381-0.816-0.571-1.224
		c-0.72-0.765-1.62-1.458-1.713-2.367c0.309-0.024,0.37-0.035,0.652-0.245c0.025-2.089-2.613-3.677-2.775-4.489
		c-0.155-0.198-0.13-0.326,0.083-0.572c0.275,0.212,0.324,0.183,0.733,0.327C52.213-0.001,52.489,0.368,52.938,0z M57.345,3.999
		c0.054,0,0.108,0,0.163,0C57.453,3.999,57.398,3.999,57.345,3.999z M57.508,4.081c0.027,0.054,0.055,0.108,0.081,0.163
		C57.562,4.189,57.535,4.135,57.508,4.081z M62.812,11.182c0.081,0,0.163,0,0.245,0c0,0.027,0,0.054,0,0.082
		C62.803,11.219,62.983,11.375,62.812,11.182z M66.811,11.834c0.741,0.449,0.181,1.375,1.062,1.877
		c-0.055,0.055-0.109,0.109-0.164,0.164c-0.066,0.149-0.036,0.051-0.163,0c-0.326-0.041-0.606-0.619-1.224-0.653
		c0.062-0.506,0.083-1.149,0.489-1.224C66.811,11.943,66.811,11.889,66.811,11.834z M67.464,12.324c0.055,0,0.109,0,0.163,0
		C67.573,12.324,67.519,12.324,67.464,12.324z M65.097,12.732c0.171,0.168,0.134,0.144,0.164,0.49
		c-0.299-0.086-0.24-0.066-0.408-0.245C64.934,12.896,65.016,12.814,65.097,12.732z M63.465,13.467
		c0.055,0.055,0.109,0.109,0.163,0.163C63.574,13.576,63.52,13.521,63.465,13.467z M63.628,14.365
		c0.218,0.139,0.164,0.106,0.082,0.245c0,0.082,0,0.163,0,0.245c-0.055-0.055-0.109-0.109-0.163-0.164
		C63.574,14.582,63.601,14.474,63.628,14.365z M63.465,15.833c0.055,0,0.109,0,0.163,0c-0.054,0.082-0.108,0.164-0.163,0.245
		C63.465,15.997,63.465,15.916,63.465,15.833z M63.302,15.916c0.055,0.082,0.109,0.163,0.163,0.245
		C63.298,16.013,63.407,16.159,63.302,15.916z M69.178,15.916c0.276,0.073,0.107,0.069,0.326,0.082
		c-0.055,0.081-0.109,0.163-0.163,0.245c-0.027,0-0.055,0-0.081,0c-0.028-0.055-0.055-0.109-0.082-0.164
		C69.178,16.024,69.178,15.97,69.178,15.916z M65.505,16.895c0.109,0.054,0.219,0.109,0.326,0.163
		c-0.29,0.341-0.24,0.003-0.244,0.49c0.082-0.054,0.163-0.109,0.244-0.163c-0.054,0.218-0.108,0.436-0.162,0.653
		c-0.218-0.2-0.125-0.111-0.164-0.326c-0.561-0.052-0.87-0.119-1.061-0.408c0.213-0.146,0.131-0.13,0.408-0.082
		C65.07,17.112,65.287,17.003,65.505,16.895z M64.036,16.976c0.082,0,0.163,0,0.245,0c-0.054,0.311-0.086,0.395-0.245,0.571
		c-0.108,0-0.218,0-0.326,0c-0.027,0-0.055,0-0.082,0C63.726,17.063,63.785,17.259,64.036,16.976z M70.075,19.017
		c0.055,0.055,0.109,0.109,0.163,0.164c-0.054,0.054-0.108,0.108-0.163,0.163c-0.027,0-0.055,0-0.082,0
		C70.021,19.234,70.048,19.125,70.075,19.017z M71.871,20.73c0.081,0.055,0.163,0.109,0.244,0.164
		C71.879,20.851,71.716,20.959,71.871,20.73z M70.564,22.608c0.055,0,0.108,0,0.163,0C70.673,22.608,70.619,22.608,70.564,22.608z
		 M83.867,22.853c0.054,0,0.108,0,0.163,0C83.976,22.853,83.921,22.853,83.867,22.853z M72.85,23.179
		c0.217,0.2,0.125,0.111,0.163,0.327c-0.054-0.055-0.108-0.109-0.163-0.163C72.85,23.288,72.85,23.233,72.85,23.179z M62.73,26.934
		c0.054,0,0.108,0,0.163,0C62.839,26.934,62.784,26.934,62.73,26.934z M50.898,44.971c0.311,0.066,0.247,0.029,0.49,0.163
		c-0.271,1.285-0.211,1.512,0.57,2.448c0.771-0.097,0.646-0.37,0.979-0.163c0.156,0.119,0.427,0.354,0.327,0.571
		c0.297,1.265-0.881,2.605,1.061,3.183c0.113-0.487,1.089-0.901,0.979-1.224c0.163,0.054,0.326,0.109,0.489,0.164
		c0.11-0.461,0.385-0.688,0.653-0.898c0.264,0.21,0.19,0.214,0.571,0.326c-0.075-0.298,0.003-0.167-0.163-0.326
		c0.223-0.369,0.65-0.365,0.815-0.816c-0.241-0.049-0.087,0.085-0.245-0.163c0.278-0.038-0.179-0.608,0.326-0.979
		c0.104-0.433,0.633-0.283,0.816-0.816c0.027,0,0.055,0,0.082,0c-0.021,0.182-0.207,0.721,0.081,0.489
		c-0.14,0.389-1.192,1.267-0.652,1.796c0.062-0.334,0.396-0.796,0.734-0.49c-0.247,0.139-0.473,0.404-0.571,0.816
		c-0.218-0.027-0.436-0.054-0.653-0.082c0,0.109,0,0.218,0,0.327c0.272-0.028,0.545-0.055,0.816-0.082
		c-0.027,0.109-0.054,0.217-0.082,0.326c0.219,0.027,0.436,0.055,0.653,0.082c0-0.136,0-0.272,0-0.408
		c-0.335,0.035-0.21,0.002-0.326-0.082c-0.055,0.027-0.108,0.054-0.163,0.082c0.108-0.218,0.218-0.436,0.326-0.653
		c0.027,0,0.055,0,0.082,0c0.054,0.109,0.108,0.218,0.163,0.327c0.034-0.426-0.054-0.325,0.244-0.49
		c-0.027,0.218-0.055,0.436-0.081,0.653c0.108-0.027,0.218-0.054,0.326-0.082c0.15-0.126,0.102,0.013,0.082-0.245
		c0.055-0.054,0.108-0.109,0.163-0.164c0.081,0.082,0.163,0.164,0.245,0.245c-0.055,0.19-0.109,0.381-0.164,0.571
		c0.445-0.187,0.153-0.302,0.572-0.163c0,0.082,0,0.163,0,0.245c-0.371,0.167,0.046,0.243-0.49,0.408
		c-0.098-0.204,0.053-0.08-0.163-0.164c0.065,0.593,0.084,0.39-0.082,0.898c0.082,0,0.163,0,0.245,0
		c0.049-0.199,0.548-0.858,1.143-0.979c-0.082,0.217-0.163,0.435-0.245,0.652c-0.206,0.383-0.74,1.297-1.551,1.224
		c-0.081,0.164-0.163,0.327-0.244,0.489c0.115,0.247,0.852,2.392,0.979,2.449c0.138,0.151,0.161,0.038,0.408,0.163
		c-0.432,0.504-2.419,2.805-1.959,3.347c-0.585,0.8-1.709,1.54-2.53,2.448l-1.306,3.428c0,0.027,0,0.054,0,0.082
		c-0.054,0.026-0.108,0.054-0.163,0.081c-0.002,0.001-2.122,1.47-2.122,1.47c-0.054,0.026-0.108,0.054-0.163,0.081
		c-0.054,0-0.108,0-0.163,0c-0.364,0.348-1.412,2.853-0.49,3.428c0.481,0.965,1.816,0.402,2.041,1.388
		c0.107,0.357,0.104,0.571-0.082,0.734c-0.163,0.218-0.326,0.436-0.489,0.653c-0.418-0.015-2.035-0.235-2.53-0.571
		c-0.843,0.217-1.687,0.435-2.53,0.653c-1.111,0.842-3.938,1.839-4.978,3.346c-0.148,0.215,0.071,0.7-0.082,1.061
		c-0.147,0.349-0.445,0.661-0.653,0.898c-0.069,0.079,0.215,2.778,0,3.184c-0.192,0.361-1.286,1.409-1.632,1.958
		c-0.292,0.463,0.093,1.29-0.081,1.796c-0.451,1.303-1.08,1.884-1.551,2.938c0.229,0.013,0.426-0.089,0.571,0.245
		c0.373,0.28,0.179,0.789,0.245,0.979c-1.506,0.034-2.59,0.474-3.101,1.143c-0.027,0.326-0.054,0.652-0.082,0.979
		c-0.638,0.806-1.678,0.967-2.122,1.551c-0.271,0.356,0.062,0.711-0.163,1.062c-0.487,0.756-3.869,2.298-5.712,1.714
		c-0.018-0.504-0.032-0.465-0.408-0.734c-0.912,0.055-0.886,0.22-1.306,0.489c-0.303,0.195-1.084-0.249-1.388-0.163
		c-0.163-0.428-0.019-0.361-0.408-0.408c0.57-2.475-1.382-1.4-2.856-1.469c-0.034-0.191-0.044-0.282-0.326-0.408
		c0.082-0.218,0.163-0.436,0.245-0.653c-0.435-0.326-0.871-0.653-1.306-0.979c-0.802,0.274-0.737,0.522-1.061,0.897
		c-0.733,0.066-3.536-0.251-3.754-0.489c-0.179-0.111-0.551-0.577-0.408-0.652c0-0.055,0-0.109,0-0.164
		c0.16,0.068,0.382-0.079,0.245,0.164c0.109-0.055,0.218-0.109,0.327-0.164c0-0.054,0-0.108,0-0.163
		c-0.027-0.027-0.055-0.054-0.082-0.081c-0.218,0-0.436,0-0.653,0c0.027-0.163,0.055-0.326,0.082-0.489
		c0.265-0.233,0.525-0.199,0.653-0.49c-0.109-0.027-0.218-0.055-0.327-0.082c-0.398,0.279-0.774,0.398-1.142,0.572
		c-0.055-0.49-0.109-0.979-0.164-1.471c0.399-0.161,1.264-0.48,1.387-0.733c-0.19,0.026-0.38,0.055-0.571,0.081
		c0.103-0.387,0.047-0.375-0.245-0.571c-0.138,0.088-0.01,0.058-0.163,0c0.073-0.13-0.016-0.157,0.163-0.326
		c0.172-0.358,0.493-0.165,0.898-0.408c0.159,0.2,0.046,0.033,0.082,0.245c0.29-0.401-0.308-0.394-0.082-0.979
		c0.355-0.924,0.688-1.373,1.387-2.041c-0.181-0.168-0.154-0.112-0.245-0.407c0.41-0.231,0.159-0.225,0.49-0.49
		c0.138,0.202,0.049,0.096,0.245,0c-0.108-0.557,1.212-1.702,1.877-2.53c0.315,0.317,0.264,0.436,0.163,0.816
		c0.082,0,0.164,0,0.245,0c0.027-0.026,0.055-0.055,0.082-0.081c-0.104-0.369-0.243-0.684-0.327-0.898
		c0.624-0.257,1.01-0.61,1.469-0.816c-0.117-0.315-0.213-0.138-0.082-0.326c0.406-0.687,0.847-0.307,1.387-1.062
		c0.6-0.837,0.004-0.976,1.061-1.551c-0.055-0.163-0.109-0.325-0.163-0.489c0.271,0.055,0.544,0.109,0.816,0.164
		c0.027-0.137,0.054-0.272,0.082-0.409c-0.136-0.054-0.272-0.108-0.408-0.163c0.469-0.516,1.938-2.454,2.775-2.122
		c0.279-0.543,0.913,0.211,1.387-0.244c0.827-0.11,3.032-2.583,3.428-2.857c0.354-0.081,0.707-0.163,1.061-0.244
		c0-0.055,0-0.109,0-0.164c0.109,0.082,0.218,0.164,0.327,0.245c0.356-0.683,0.744-1.036,1.142-1.633
		c1.482,0.024,1.853-1.598,2.693-2.366c0.027,0,0.054,0,0.082,0c0.5-0.006,2.684-1.604,2.856-1.469
		c1.529-1.339,4.362-6.523,3.917-9.224c0.055-0.026,0.109-0.054,0.163-0.081c0.125,0.034,1.232,0.029,1.306-0.163
		c1.162-0.274,1.589-2.173,2.448-3.183c0-1.115,0-2.231,0-3.347C48.775,46.93,49.837,45.95,50.898,44.971z M51.388,45.053
		c0.646-0.027,1.225,0.033,1.55,0.327C52.421,45.27,51.904,45.161,51.388,45.053z M64.281,47.501c0.09,0.172-0.039,0.26-0.163,0.408
		c-0.082,0.027-0.163,0.054-0.245,0.082c0.082-0.136,0.163-0.272,0.245-0.408C64.172,47.556,64.227,47.528,64.281,47.501z
		 M58.813,48.236c0.055,0,0.108,0,0.163,0C58.922,48.236,58.868,48.236,58.813,48.236z M60.038,48.726c0.054,0,0.108,0,0.162,0
		C60.146,48.726,60.092,48.726,60.038,48.726z M60.608,48.807c-0.034,0.076,0.065,0.055-0.082,0.163
		C60.555,48.916,60.581,48.861,60.608,48.807z M60.364,48.97c0.027,0.054,0.054,0.109,0.082,0.164
		C60.418,49.079,60.392,49.024,60.364,48.97z M58.079,49.46c0.008,0.291-0.04,0.254-0.163,0.571c0.108,0,0.218,0,0.326,0
		c0.03-0.205,0.018-0.169,0.163-0.408c-0.054,0-0.108,0-0.163,0C58.188,49.569,58.134,49.514,58.079,49.46z M60.364,49.542
		c0.054,0,0.108,0,0.162,0C60.473,49.542,60.418,49.542,60.364,49.542z M58.896,50.603c-0.185,0.297-0.128-0.057-0.245,0.327
		c0.136,0,0.271,0,0.408,0c0.081-0.109,0.163-0.218,0.244-0.327C59.167,50.603,59.031,50.603,58.896,50.603z M56.937,59.825
		c0.054,0.054,0.108,0.108,0.163,0.163C57.045,59.934,56.99,59.879,56.937,59.825z M49.51,70.354
		c-0.118,0.271-0.129,0.193-0.163,0.408c-0.192,0.288-0.031,0.321-0.082,0.653c0.082,0,0.164,0,0.245,0
		c0.157-0.293,1.118-0.475,1.469-0.408C50.747,70.478,50.07,70.536,49.51,70.354z M52.448,71.088
		c0.109,0.344-0.045,0.305,0.245,0.49c0-0.163,0-0.326,0-0.49C52.611,71.088,52.529,71.088,52.448,71.088z M16.95,83.004
		c0.055,0,0.109,0,0.163,0C17.059,83.004,17.004,83.004,16.95,83.004z M17.929,83.167c-0.257,0.227-0.208-0.024-0.327,0.327
		c0.19,0.055,0.381,0.109,0.571,0.163C18.092,83.494,18.011,83.331,17.929,83.167z M16.46,85.534
		c-0.027,0.082-0.055,0.163-0.082,0.245c0.109-0.054,0.218-0.109,0.326-0.163C16.624,85.589,16.542,85.562,16.46,85.534z
		 M16.705,86.677c-0.178,0.152-0.313,0.201-0.571,0.164c0.277,0.297,0.444,0.138,0.652-0.082
		C16.759,86.731,16.732,86.704,16.705,86.677z M14.747,86.759c0.054,0.054,0.108,0.108,0.163,0.163
		c-0.055,0.027-0.109,0.055-0.163,0.082C14.747,86.922,14.747,86.841,14.747,86.759z M15.236,87.004
		c0.055,0.055,0.109,0.108,0.164,0.163c-0.082,0-0.164,0-0.245,0C15.182,87.112,15.209,87.059,15.236,87.004z M14.91,87.167
		c0.054,0,0.108,0,0.163,0C15.018,87.167,14.964,87.167,14.91,87.167z M39.228,87.33c-0.054,0.082-0.109,0.163-0.163,0.245
		c0.054,0.054,0.109,0.108,0.163,0.162c0.097-0.269,0.187,0.036,0.245-0.407C39.391,87.33,39.31,87.33,39.228,87.33z M23.886,92.309
		c0.054,0.055,0.109,0.108,0.163,0.163C23.995,92.417,23.94,92.363,23.886,92.309z M25.681,92.962
		c-0.054,0.026-0.108,0.054-0.163,0.081c0,0.108,0,0.218,0,0.327c0.082,0.026,0.163,0.055,0.245,0.081
		c0.054-0.108,0.109-0.218,0.163-0.326C25.845,93.071,25.763,93.016,25.681,92.962z M22.988,94.838
		c0.883,0.729,1.217,1.267,1.795,1.96c-0.108,0-0.217,0-0.326,0c-0.361,0.055-0.588-0.122-0.898-0.163
		c0.027,0.054,0.055,0.108,0.082,0.163c-0.027,0.054-0.055,0.108-0.082,0.163c0.618,0.138,0.42,0.365,1.143,0.489
		c0-0.108,0-0.217,0-0.326c-0.082-0.054-0.163-0.108-0.245-0.163c0.163-0.027,0.326-0.055,0.49-0.082
		c-0.033,0.814,0.047,1.093,0.163,1.714c-0.054,0.028-0.109,0.055-0.163,0.082c0-0.082,0-0.163,0-0.244
		c-0.903,0.633-1.87,0.488-2.856,0.733c-0.214,0.207-0.255,0.566-0.571,0.735c-0.054-0.027-0.108-0.055-0.163-0.082
		c0.103,0.11-0.392,0.23-0.49,0.163c-0.266-0.059-0.227-0.188-0.653-0.163c0.354-0.245,0.708-0.489,1.061-0.734
		c-0.195-0.784,0.21-0.93,0.735-1.307c-0.082-0.217-0.163-0.435-0.245-0.652c0.082-0.027,0.164-0.054,0.245-0.082
		c0.054,0.109,0.109,0.218,0.163,0.327c0.057-0.162,0.058-0.121,0.245-0.327c-0.105-0.307-0.627-1.409-0.245-1.713
		C22.155,94.782,22.683,95.144,22.988,94.838z M26.824,95.41c0.168,0.16,0.084,0.03,0.163,0.327c-0.027,0-0.055,0-0.082,0
		c-0.136-0.028-0.272-0.055-0.408-0.082c0-0.027,0-0.055,0-0.082C26.606,95.519,26.715,95.464,26.824,95.41z M21.438,95.492
		c0.109,0,0.218,0,0.326,0c0.027,0.081,0.055,0.163,0.082,0.245c-0.055,0.055-0.109,0.108-0.164,0.162
		c-0.082-0.054-0.163-0.107-0.245-0.162C21.438,95.655,21.438,95.573,21.438,95.492z M25.11,96.717
		c0.054,0.054,0.108,0.108,0.163,0.162C25.219,96.825,25.165,96.771,25.11,96.717z"/>
</g>
<g id="Layer_1">
</g>
</svg>
