<?xml version="1.0" encoding="iso-8859-1"?>
<!-- Generator: Adobe Illustrator 16.0.3, SVG Export Plug-In . SVG Version: 6.00 Build 0)  -->
<!DOCTYPE svg PUBLIC "-//W3C//DTD SVG 1.1//EN" "http://www.w3.org/Graphics/SVG/1.1/DTD/svg11.dtd">
<svg version="1.1" xmlns="http://www.w3.org/2000/svg" xmlns:xlink="http://www.w3.org/1999/xlink" x="0px" y="0px" width="100px"
	 height="100px" viewBox="0 0 100 100" style="enable-background:new 0 0 100 100;" xml:space="preserve">
<g id="OH">
	<path id="OH_1_" d="M89.957,0l-7.403,4.925l-4.715,2.75l-4.125,4.518l-4.91,4.714l-3.928,0.981l-3.533,0.589l-6.679,3.143
		l-2.555,0.197l-4.124-3.732l-6.287,0.784l-3.141-1.768l-2.893-1.642l-5.944,0.855l-12.375,1.964L3.729,20.935l1.572,17.774
		l2.159,16.693l3.143,28.479l0.687,5.87l5.007-0.156l2.946-0.981l4.087,1.825l2.514,5.303l6.244-0.021l2.3,2.575l2.139-0.08
		l3.083-1.628l3.045,0.451l6.585,0.585l2.098-2.591l2.85-1.57l2.517-0.827l0.785,3.339l2.159,1.179L63.876,100l2.651-0.099
		l1.619-0.598l0.226-3.355l1.925-1.769l0.121-5.819l1.243-4.993l1.58-0.731l1.604,1.396l0.654,2.062l2.09-1.263l0.532-1.772
		l-1.357-2.312l0.081-2.811l0.91-1.303l2.615-4.018l1.276-1.874l2.553,0.589l2.75-1.964l3.731-4.126l3.367-4.954l0.388-6.142
		l0.59-6.089l-0.216-6.448L93.65,38.09l0.427-1.445l2.193-2.126l-2.781-10.991L89.957,0L89.957,0z"/>
</g>
<g id="Layer_1">
</g>
</svg>
