<?xml version="1.0" encoding="iso-8859-1"?>
<!-- Generator: Adobe Illustrator 16.0.3, SVG Export Plug-In . SVG Version: 6.00 Build 0)  -->
<!DOCTYPE svg PUBLIC "-//W3C//DTD SVG 1.1//EN" "http://www.w3.org/Graphics/SVG/1.1/DTD/svg11.dtd">
<svg version="1.1" xmlns="http://www.w3.org/2000/svg" xmlns:xlink="http://www.w3.org/1999/xlink" x="0px" y="0px" width="100px"
	 height="100px" viewBox="0 0 100 100" style="enable-background:new 0 0 100 100;" xml:space="preserve">
<g id="OR">
	<path id="OR_1_" d="M81.548,91.562l6.389-25.123l0.759-3.053l1.699-4.061l-0.444-0.838l-1.814-0.033l-0.926-1.207l0.33-1.057
		l0.362-2.344l3.22-3.961l1.319-0.793l0.825-0.825l1.072-2.574l2.922-4.092l2.574-2.788L100,36.323l-2.36-1.782l-1.287-3.353
		l-9.143-2.606l-10.893-2.558l-11.14,0.081l-0.331-0.989l-3.961,1.485l-3.218-0.413l-1.732-1.155l-0.908,0.496l-3.384-0.166
		l-1.238-0.99l-3.796-1.486l-0.578,0.083l-3.135-1.072l-1.403,1.319l-4.455-0.247l-4.292-2.971l0.496-0.578l0.165-5.61l-1.651-2.807
		l-2.971-0.412L28.29,8.776l-1.699-0.338l-4.186,1.486l-1.634,4.668l-2.333,7.235l-2.334,4.668l-3.617,10.152l-4.668,9.804
		l-5.835,9.101l-1.4,2.102L0,63.84l0.279,8.721L81.548,91.562L81.548,91.562z"/>
</g>
<g id="Layer_1">
</g>
</svg>
