<?xml version="1.0" encoding="iso-8859-1"?>
<!-- Generator: Adobe Illustrator 16.0.3, SVG Export Plug-In . SVG Version: 6.00 Build 0)  -->
<!DOCTYPE svg PUBLIC "-//W3C//DTD SVG 1.1//EN" "http://www.w3.org/Graphics/SVG/1.1/DTD/svg11.dtd">
<svg version="1.1" xmlns="http://www.w3.org/2000/svg" xmlns:xlink="http://www.w3.org/1999/xlink" x="0px" y="0px" width="100px"
	 height="100px" viewBox="0 0 100 100" style="enable-background:new 0 0 100 100;" xml:space="preserve">
<g id="SD">
	<path id="SD_1_" d="M98.988,82.977l-0.04-0.48l-2.397-4.013l1.54-3.902l1.235-4.874l-2.303-1.722l-0.32-2.271l0.657-2.115
		L100,63.61l-0.102-4.145l-0.277-24.984l-0.511-3.12l-3.371-2.758l-0.813-1.388l-0.052-1.332l1.674-1.267l1.269-1.379l0.203-2.2
		l-48.237-1.324L4.41,16.857L0,69.593l12.082,0.748l16.518,1l14.69,0.768l19.688,1.08l9.921-0.352l1.627,1.857l4.302,2.694
		l0.633,0.6l3.76-1.203l5.416-0.509l1.387,1.106l3.482,1.32l2.438,1.354l0.329,1.229l0.861,1.856L98.988,82.977L98.988,82.977z"/>
</g>
<g id="Layer_1">
</g>
</svg>
