<?xml version="1.0" encoding="iso-8859-1"?>
<!-- Generator: Adobe Illustrator 16.0.3, SVG Export Plug-In . SVG Version: 6.00 Build 0)  -->
<!DOCTYPE svg PUBLIC "-//W3C//DTD SVG 1.1//EN" "http://www.w3.org/Graphics/SVG/1.1/DTD/svg11.dtd">
<svg version="1.1" xmlns="http://www.w3.org/2000/svg" xmlns:xlink="http://www.w3.org/1999/xlink" x="0px" y="0px" width="100px"
	 height="100px" viewBox="0 0 100 100" style="enable-background:new 0 0 100 100;" xml:space="preserve">
<g id="TN">
	<path id="TN_1_" d="M74.618,37.012l-34.514,3.333l-10.481,1.183l-3.073,0.341l-2.574-0.018l-0.146,2.728l-5.444,0.176l-4.624,0.43
		L8.38,45.102L7.44,49.806l-1.129,3.644l-2.189,1.83l-0.897,2.914l-0.216,1.721L0.321,61.42l0.968,2.365l-0.646,2.902L0,67.213
		l71.936-6.922l0.268-2.631l1.205-0.99l1.885-0.5l0.447-2.471l2.726-1.801l2.691-0.992l2.717-2.375l2.951-1.348l0.347-2.04
		l2.703-2.65l0.366-0.075c0,0,0.021,0.752,0.559,0.752s1.29,0.236,1.29,0.236l1.505-2.387l1.377-0.43l1.513,0.196l1.064-2.35
		l1.966-1.759l0.28-1.29L100,32.919l-1.427-0.132l-1.731,1.348l-4.65,0.02L79.98,35.742L74.618,37.012L74.618,37.012z"/>
</g>
<g id="Layer_1">
</g>
</svg>
