<?xml version="1.0" encoding="iso-8859-1"?>
<!-- Generator: Adobe Illustrator 16.0.3, SVG Export Plug-In . SVG Version: 6.00 Build 0)  -->
<!DOCTYPE svg PUBLIC "-//W3C//DTD SVG 1.1//EN" "http://www.w3.org/Graphics/SVG/1.1/DTD/svg11.dtd">
<svg version="1.1" xmlns="http://www.w3.org/2000/svg" xmlns:xlink="http://www.w3.org/1999/xlink" x="0px" y="0px" width="100px"
	 height="100px" viewBox="0 0 100 100" style="enable-background:new 0 0 100 100;" xml:space="preserve">
<g id="VA">
	<path id="VA_1_" d="M95.308,40.164l-0.106-1.448L100,36.82l-0.573,2.393l-2.172,2.81l-0.311,3.41l0.343,2.522l-1.359,3.702
		l-1.609,1.425l-1.094-3.451l0.332-4.053l1.181-3.11L95.308,40.164L95.308,40.164z M97.792,61.21L54.53,70.562l-27.833,3.926
		l-4.967-0.278l-1.922,1.432l-5.458,0.165l-6.233,0.728L0,77.733l7.786-4.172l-0.011-1.544l1.131-1.596l7.849-8.553l2.936,3.33
		l2.813,0.716l1.891-0.847l1.664-0.976l1.886,0.999l2.911-1.062l1.395-3.389l1.936,0.401l2.123-1.585l1.337,0.366l2.103-2.733
		l0.26-1.549l-0.717-0.949l0.746-1.388l3.922-9.13l0.458-4.266l0.914-0.388l1.621,1.815l2.927-0.224l1.436-5.631l2.077-0.417
		l0.781-2.039l1.918-1.746l2.061-4.235l0.063-3.768l7.304,2.843c0.507,0.253,0.619-3.754,0.619-3.754l2.717,1.188l0.05,2.185
		l4.302,0.966l1.586,0.874l1.234,1.529l-0.486,2.713l-1.448,1.926l0.082,1.532l0.438,1.378l3.702,0.943l3.31,0.029l2.282,0.713
		l1.445,0.23l0.531,2.296l2.373,0.3l0.645,0.893l-0.327,3.487l1.022,0.82l-0.355,1.436l0.914,0.588l-0.166,1.029l-2.003-0.07
		l0.066,1.201l1.696,1.147l0.09,1.05l1.318,1.329l0.365,1.876l-1.898,1.027l1.169,1.111l4.314-1.254L97.792,61.21L97.792,61.21z"/>
</g>
<g id="Layer_1">
</g>
</svg>
